<svg xmlns="http://www.w3.org/2000/svg" viewBox="0 0 512 512" height="512.0px" width="512.0px">
<path id="" fill="#ff6d6d" fill-opacity="1.0" stroke="#000000" stroke-width="0.0" stroke-opacity="1.0" stroke-linecap="round" stroke-linejoin="round"  filling="0" d="M460.1975 72.3750 C460.7450 72.2730 460.4875 72.2282 460.9750 72.5222 C461.4425 74.6600 461.0150 80.7745 461.0150 83.2595 C461.0100 94.2387 460.8775 105.2387 461.0775 116.2152 C457.6750 115.9695 441.6025 115.4608 439.3350 116.6470 C438.6875 119.9865 439.0375 123.9362 439.0375 127.3375 L439.0450 146.1308 L439.8475 235.8573 C439.8550 240.8058 439.4125 245.7120 439.2800 250.6500 C439.1575 255.1275 439.6075 259.6225 439.5825 264.1025 C439.5550 268.8725 439.0450 273.6325 439.0375 278.4100 C439.0325 283.9400 439.6425 289.4675 439.5975 294.9950 C439.5475 300.9200 438.8900 306.8000 439.0375 312.7425 C439.1800 318.4875 439.8750 324.2250 439.8600 329.9750 C439.8450 334.8325 439.3500 339.6750 439.1325 344.5250 C438.9300 349.0675 439.0125 353.6525 439.0300 358.2025 C439.0500 363.8050 439.6675 369.4025 439.6450 375.0000 C439.6125 382.7725 439.2175 390.5225 439.0625 398.2850 C438.9075 406.0225 439.0250 413.7850 439.0300 421.5250 C439.0350 427.3900 438.8050 433.3775 439.2200 439.2275 C433.7500 439.0250 428.2275 439.2575 422.7500 439.2550 L387.3675 439.2550 L290.4125 439.2500 L130.0087 439.2500 C111.0078 439.2675 91.9753 438.9225 72.9800 439.1400 L72.9742 423.1250 L73.0178 115.9933 C65.6720 116.0997 58.3253 115.9642 50.9790 116.1298 L50.9897 89.9868 C50.9868 84.2540 51.1395 78.4622 50.7970 72.7397 C57.2307 72.8215 63.6865 72.5262 70.1250 72.5188 L126.3303 72.5212 L312.6500 72.5228 L411.0000 72.5128 L442.4575 72.5352 C448.3225 72.5395 454.3500 72.7980 460.1975 72.3750 Z"></path>
<path id="" fill="#0c0058" fill-opacity="1.0" stroke="#000000" stroke-width="0.0" stroke-opacity="1.0" stroke-linecap="round" stroke-linejoin="round"  filling="0" d="M51.0420 115.5835 C60.0273 114.6225 69.1690 115.8570 78.1635 115.8402 L150.5225 115.9287 L351.5675 115.9300 C382.5150 116.2290 413.4625 116.0730 444.4050 115.4628 C449.9350 115.3140 455.5400 115.6628 461.0525 115.3658 C460.2000 133.7370 463.7275 150.6405 453.9300 167.5748 C451.7175 171.3983 449.0125 175.1638 445.7500 178.1630 C436.4225 186.7372 423.2775 192.0388 410.5075 191.4490 C398.2525 190.8830 387.3450 186.6265 379.0325 177.4238 C373.4500 171.2425 369.6325 163.6470 367.1950 155.7200 C366.7425 154.2540 366.1200 152.5462 365.9625 151.0213 C365.2775 150.4698 364.6775 150.1367 363.8525 149.8302 C363.4700 149.8850 362.6975 149.8715 362.4475 150.1690 C361.8250 150.9153 361.5125 152.9165 361.2275 153.8918 C360.5125 156.3450 359.5950 158.6800 358.4925 160.9860 C350.9475 176.7025 336.1975 187.7390 318.9900 190.5430 C304.8650 193.0365 290.3300 189.7715 278.6300 181.4767 C270.6000 175.7280 263.8550 167.7487 260.1575 158.5280 C259.1100 155.9095 258.5150 153.2080 257.5950 150.5680 L256.2275 150.8423 C255.6050 150.8983 255.0250 150.9747 254.4125 151.1053 C253.1175 153.5748 252.5625 156.5575 251.5550 159.1710 C250.5700 161.7275 248.9410 164.1930 247.6000 166.5842 C241.2555 177.8985 228.9570 185.9263 216.6745 189.3080 C203.0603 193.0562 188.0853 191.6355 175.7260 184.5830 C165.0797 178.5372 156.7592 169.1068 152.0867 157.7903 C151.0383 155.1783 150.3432 152.4710 149.6150 149.7585 L149.0312 149.8033 C148.4940 149.8845 146.6057 149.9935 146.3457 150.3765 C145.1715 152.1057 144.6080 156.7925 143.6873 159.0720 C137.5245 174.3305 129.0777 185.5300 112.4845 189.7820 C99.6450 193.1593 85.9870 191.2368 74.5788 184.4462 C63.7137 177.9247 55.6452 166.6355 52.6105 154.3885 C49.9393 143.6082 51.2502 127.1580 51.0420 115.5835 Z"></path>
<path id="" fill="#0c0058" fill-opacity="1.0" stroke="#000000" stroke-width="0.0" stroke-opacity="1.0" stroke-linecap="round" stroke-linejoin="round"  filling="0" d="M374.4625 277.1725 C374.5525 277.2800 374.6850 277.3625 374.7275 277.4975 C375.0200 278.4050 374.7175 301.1950 374.7175 303.9650 L374.7250 411.4300 L374.7075 428.5600 C374.6850 432.1675 374.5050 435.8350 374.7475 439.4350 C371.1450 439.0525 367.3350 439.4375 363.7000 439.4525 L341.6650 439.4650 L305.4000 439.4600 C299.8200 439.4575 294.1350 439.1550 288.5725 439.4000 C288.3125 439.2325 288.2600 438.8750 288.1475 438.5925 L288.1450 438.7775 L288.1675 330.5650 L288.1750 295.8125 C288.1750 289.6725 288.5500 283.2825 287.9900 277.1825 C292.8200 277.4700 297.7950 277.2425 302.6400 277.2400 L330.6025 277.2250 L359.0925 277.2450 C364.1925 277.2500 369.3750 277.4600 374.4625 277.1725 Z"></path>
<path id="" fill="#0b0058" fill-opacity="1.0" stroke="#000000" stroke-width="0.0" stroke-opacity="1.0" stroke-linecap="round" stroke-linejoin="round"  filling="0" d="M234.3350 277.1825 L234.5020 277.1650 C234.5898 277.3050 234.7035 277.4350 234.7655 277.5900 C235.0443 278.2850 234.7435 291.0175 234.7437 292.9025 L234.7465 344.9875 C234.7415 355.0025 234.6093 365.0300 234.7807 375.0400 C230.3347 374.3400 225.2620 374.7950 220.7395 374.8000 L193.5168 374.8150 L156.9575 374.8100 C150.7450 374.8075 144.1308 374.3275 137.9812 375.0325 L137.7018 374.9450 C137.5920 374.7850 137.4252 374.6525 137.3723 374.4650 C136.9442 372.9550 137.2758 359.0025 137.2750 356.4100 L137.2690 303.0775 L137.2852 286.8400 C137.2903 283.6500 137.4600 280.3775 137.1665 277.2050 C154.7405 277.6200 172.4165 277.2250 190.0000 277.2250 L218.3575 277.2400 C223.6730 277.2425 229.0247 277.3700 234.3350 277.1825 Z"></path>
</svg>