<svg xmlns="http://www.w3.org/2000/svg" viewBox="0 0 512 512" height="512.0px" width="512.0px">
<path id="" fill="#f2daae" fill-opacity="1.0" stroke="#000000" stroke-width="0.0" stroke-opacity="1.0" stroke-linecap="round" stroke-linejoin="round"  filling="0" d="M172.5312 200.1478 C174.0840 199.9727 175.6832 199.9718 177.2462 199.9617 L291.7450 199.9755 L323.1800 199.9648 C331.5375 199.9532 340.2925 199.3517 348.5175 200.9993 C362.2175 203.7437 373.7475 209.2050 383.7400 219.0838 C391.6125 226.8652 397.6200 237.7052 399.8450 248.6200 C400.8100 253.3550 401.0600 258.2200 401.0875 263.0375 C401.1600 276.3900 400.6875 290.3100 392.9950 301.8625 C390.5325 305.5600 387.1100 309.1175 383.9675 312.2525 C378.5550 317.6575 374.0175 320.3800 366.3275 320.3325 C366.2050 321.1625 366.1375 322.5750 365.4725 323.1900 C364.0375 324.5225 354.1575 326.6000 351.9900 326.6375 C348.2375 326.7025 344.5800 325.7775 340.7550 326.0500 C337.8450 326.2550 335.2400 327.6150 332.3675 327.9250 C326.6650 328.5375 318.9950 328.0475 313.1250 328.0300 C300.5900 328.0250 287.8875 327.6050 275.3725 328.1225 C273.6725 329.7175 272.2900 331.4600 270.8400 333.2750 C267.9575 336.8825 264.7200 338.8600 260.8850 341.3800 C258.4125 343.0050 256.0075 344.8100 253.4275 346.2600 C245.7810 350.5575 237.5785 352.0675 229.0505 353.3825 C226.1228 353.8350 223.2077 354.5175 220.2617 354.8250 C214.6920 355.4100 208.7798 355.0450 203.1723 355.0425 C197.9585 355.0425 192.6808 355.2050 187.4765 354.9350 C181.5108 354.6225 175.6330 353.6750 169.7657 352.6225 C166.4745 352.0300 163.1265 351.6275 159.8685 350.8700 C149.4648 348.4450 138.2650 343.6175 129.9865 336.8900 C119.2565 328.2000 112.4893 315.5475 111.2195 301.7975 C110.5110 294.6700 110.9685 287.2325 110.9593 280.0625 C110.9498 272.5675 110.4883 264.7700 111.0895 257.3200 C112.0360 245.5892 116.6715 233.7487 124.1752 224.6730 C136.8107 209.3902 153.0335 201.9820 172.5312 200.1478 Z"></path>
<path id="" fill="#d36767" fill-opacity="1.0" stroke="#000000" stroke-width="0.0" stroke-opacity="1.0" stroke-linecap="round" stroke-linejoin="round"  filling="0" d="M398.2675 246.8262 C397.9975 246.8663 397.6050 246.9650 397.3850 247.1313 C396.4825 247.8135 395.5575 251.1475 395.0575 252.2975 C392.2850 258.6750 387.8800 264.7825 382.9900 269.6725 C371.9275 280.7750 357.2875 287.5950 341.6700 288.9200 C334.3500 289.5425 326.5975 289.0625 319.2375 289.0600 L282.6300 289.0475 C268.3350 289.0500 259.3075 290.0850 248.4162 300.2525 C246.1120 302.4025 244.0435 304.8100 241.8033 307.0275 C232.1013 316.6300 221.8755 316.0325 209.2128 316.0100 L190.6407 316.0200 C184.0988 315.9975 177.0267 315.2700 170.6862 313.6400 C161.8870 311.3775 151.4648 306.5900 144.0737 301.3275 C139.8655 298.3300 136.1337 294.8525 132.5060 291.1900 C117.9735 276.5225 110.1225 255.7100 110.3125 235.1698 C110.4965 215.2620 119.2880 193.7968 133.5833 179.8737 C145.2145 168.5453 160.2945 161.5258 176.0797 158.3372 C185.2785 156.4790 194.6163 157.0115 203.9462 157.0137 L236.9330 157.0117 L304.3000 157.0120 C315.5500 157.0115 326.8375 156.8005 338.0850 157.0150 C354.9450 157.3362 372.3875 165.5083 383.9950 177.6927 C394.0700 188.2670 400.7800 203.9733 401.5600 218.5735 C401.9025 224.9760 401.1800 231.4385 401.0050 237.8528 C401.0375 240.7878 401.2625 243.8965 400.9725 246.8115 C400.2225 247.1667 399.0875 246.9615 398.2675 246.8262 Z"></path>
<path id="" fill="#f1d8ad" fill-opacity="1.0" stroke="#000000" stroke-width="0.0" stroke-opacity="1.0" stroke-linecap="round" stroke-linejoin="round"  filling="0" d="M398.2675 246.8262 C397.8025 246.7425 397.6800 246.7348 397.3025 246.4272 C398.0025 244.0820 398.7150 241.7267 399.2850 239.3460 C399.7325 237.4767 400.0050 235.5895 400.6575 233.7722 C400.7150 235.1512 400.7975 236.4863 401.0050 237.8528 C401.0375 240.7878 401.2625 243.8965 400.9725 246.8115 C400.2225 247.1667 399.0875 246.9615 398.2675 246.8262 Z"></path>
<path id="" fill="#f1d9ad" fill-opacity="1.0" stroke="#000000" stroke-width="0.0" stroke-opacity="1.0" stroke-linecap="round" stroke-linejoin="round"  filling="0" d="M167.4017 223.0372 C174.6042 221.4928 181.6910 226.0938 183.2108 233.3015 C184.7305 240.5092 180.1050 247.5800 172.8922 249.0750 C165.7145 250.5625 158.6853 245.9648 157.1727 238.7920 C155.6605 231.6192 160.2345 224.5745 167.4017 223.0372 Z"></path>
<path id="" fill="#aa494a" fill-opacity="1.0" stroke="#000000" stroke-width="0.0" stroke-opacity="1.0" stroke-linecap="round" stroke-linejoin="round"  filling="0" d="M250.1275 51.1042 C363.2750 47.8553 457.6300 136.9475 460.8725 250.0925 C464.1150 363.2400 375.0200 457.5900 261.8725 460.8300 C148.7343 464.0675 54.3910 374.9775 51.1478 261.8400 C47.9045 148.7003 136.9892 54.3528 250.1275 51.1042 Z M318.1900 423.0975 C335.0825 416.2575 349.9525 408.2625 364.4950 397.2025 C366.4100 395.7475 369.6825 393.8850 370.7125 391.6925 C370.8975 391.3000 371.1225 390.5825 370.9375 390.1825 C370.1525 388.4700 360.2450 379.3925 358.2125 377.3600 C341.0025 359.9300 323.6375 342.6525 306.1175 325.5325 L170.1950 188.7500 L146.1785 164.9620 C142.6630 161.5163 139.0278 158.2010 135.5530 154.7115 C132.1853 151.3533 128.8542 147.9588 125.5602 144.5280 C124.1205 143.0177 122.5375 140.8250 120.9010 139.6387 C114.4680 147.9028 108.1053 156.1665 102.7377 165.1810 C82.9330 198.5273 74.5833 237.4377 78.9633 275.9725 C84.4772 324.0175 109.2095 367.7800 147.5220 397.2900 C184.8658 426.1625 232.1908 438.9325 278.9900 432.7650 C292.3775 431.0150 305.5250 427.7725 318.1900 423.0975 Z M140.0733 120.7372 C141.8835 123.6970 145.7340 126.2502 148.2287 128.7422 C156.5652 137.0190 164.8450 145.3530 173.0670 153.7433 C215.8440 197.5818 259.0350 241.0143 302.6350 284.0350 C305.8350 287.1975 309.3725 289.9700 312.5800 293.1100 C328.2425 308.4475 343.6500 324.1000 359.0900 339.6650 C369.6225 350.0900 380.0650 360.6050 390.4175 371.2100 C392.3775 370.9700 394.3550 368.2100 395.5200 366.7275 C425.6225 328.8750 439.0300 280.4075 432.6625 232.4665 C426.9175 186.0408 401.2650 143.1422 364.4925 114.5655 C338.1125 94.2823 306.5600 81.8245 273.4400 78.6143 C264.4250 77.7708 255.2525 77.7563 246.2128 78.1322 C239.8282 78.2777 233.4478 79.0618 227.1460 80.0670 C201.2903 84.1913 177.3622 94.0845 155.7213 108.7588 C151.2875 111.7653 143.7300 117.0898 140.0733 120.7372 Z"></path>
</svg>