<svg xmlns="http://www.w3.org/2000/svg" viewBox="0 0 512 512" height="512.0px" width="512.0px">
<path id="" fill="#fecce0" fill-opacity="1.0" stroke="#000000" stroke-width="0.0" stroke-opacity="1.0" stroke-linecap="round" stroke-linejoin="round"  filling="0" d="M204.2708 83.0883 C206.8620 82.9373 209.4300 83.6703 212.0225 83.7722 C215.0000 83.8897 217.9295 83.1835 220.8910 83.0847 C222.8047 83.0210 224.7020 83.6118 226.6160 83.6028 C229.4473 83.5892 232.2785 82.9812 235.1230 82.9457 C251.5575 82.7410 268.0225 82.9807 284.4600 82.9772 L298.1675 82.9392 C300.9575 82.9283 303.8100 82.7955 306.5850 83.0867 C311.5625 83.6090 313.9950 86.0130 316.9775 89.7117 C317.6300 96.6743 317.2650 102.1585 309.8075 104.8635 C307.6700 105.6387 305.3725 106.2690 303.4450 107.5007 C298.7325 110.5145 294.7625 116.6172 292.3250 121.5242 C288.2625 129.7050 286.8575 138.0945 287.0525 147.1270 C287.4275 164.5408 296.9075 177.9240 311.5950 186.6022 C317.0800 189.8440 323.0175 192.2637 328.5075 195.5310 C337.5300 201.0200 346.0250 207.3330 353.8825 214.3890 C357.8325 217.9245 361.2225 221.8875 364.5775 225.9718 C376.0425 239.9220 385.3750 255.5150 391.1575 272.6825 C394.7100 283.2325 397.2250 294.8225 397.9700 305.9375 C398.2350 309.9125 398.0925 313.9700 398.0850 317.9550 C398.0800 322.0750 398.2275 326.2750 397.9225 330.3850 C396.5625 347.3350 392.0075 363.8775 384.4975 379.1375 C377.2950 393.6775 368.7775 407.0325 357.1350 418.4800 C354.9325 420.6450 352.5150 422.5275 350.2150 424.5800 C334.8000 438.3375 320.3400 446.7000 300.8750 453.2700 C291.5075 456.1625 281.9575 458.6975 272.1800 459.7350 C269.6700 460.0025 267.1425 460.0300 264.6250 460.1925 C261.8725 460.3725 259.0400 460.8075 256.2825 460.7550 C253.8500 460.7100 251.4100 460.3150 248.9770 460.1875 C239.7300 459.6950 230.9310 458.5575 221.8890 456.4675 C212.2482 454.2375 200.6970 449.8975 191.9158 445.3825 C179.4357 438.9650 165.5367 429.0875 155.6138 419.1775 C147.5397 411.1150 140.3065 401.5900 134.2782 391.9050 C122.7578 373.2025 115.8570 352.0225 114.1472 330.1225 C113.8613 326.1200 113.9590 322.0675 113.9563 318.0575 C113.9532 313.7850 113.8020 309.4500 114.0748 305.1900 C114.4960 298.6100 115.9050 291.8000 117.3978 285.3875 C125.6545 250.8475 146.4297 220.5988 175.7035 200.4940 C180.0635 197.5280 184.8890 194.6410 189.5585 192.1950 C193.8522 189.9458 198.2672 187.9798 202.3820 185.3963 C214.2235 177.9612 221.1995 167.6497 224.2085 154.0018 C224.9147 150.7980 225.0157 147.6378 225.0185 144.3728 C225.0275 133.5587 222.5312 125.4810 216.5527 116.4583 C214.5038 113.3658 212.2283 110.2433 209.1207 108.1305 C203.3140 104.1827 198.0760 106.9520 193.2425 99.3460 L193.0867 99.0957 C192.8132 94.9335 192.3980 90.6955 195.1685 87.2108 C197.5665 84.1947 200.6653 83.5307 204.2708 83.0883 Z"></path>
<path id="" fill="#cc5697" fill-opacity="1.0" stroke="#000000" stroke-width="0.0" stroke-opacity="1.0" stroke-linecap="round" stroke-linejoin="round"  filling="0" d="M322.0250 266.1050 C330.7700 265.1350 340.3050 266.1175 347.9625 270.6400 C357.2325 276.1150 364.0775 284.2575 366.7525 294.8700 C368.4775 301.7125 369.0125 309.0250 369.0450 316.0650 C369.1450 336.6800 364.2625 356.8475 353.5725 374.6100 C348.6000 382.8750 342.4775 391.0900 335.6750 397.9525 C333.5475 400.0975 331.1200 402.0100 328.8000 403.9425 C315.2100 415.2725 299.9650 423.2000 282.7625 427.4475 C254.0650 434.4600 223.7625 429.9450 198.3582 414.8675 C193.8327 411.9975 189.4475 409.1275 185.2480 405.7925 C162.5855 387.7875 146.9547 359.9425 143.7717 331.1225 C142.9447 323.6350 141.2615 313.6000 146.4370 307.3350 C149.3335 303.8300 154.3035 301.3225 158.8703 301.3400 C163.6650 301.3550 168.2258 304.0800 172.7565 305.4200 C186.6992 309.5375 201.3575 309.5700 215.5380 306.7525 C226.2635 304.6225 237.4030 300.5825 247.0565 295.4500 C254.3325 291.5825 261.2750 287.0850 268.5850 283.2450 C271.4925 281.7200 274.5850 280.4825 277.5850 279.1425 C291.5150 272.9200 306.6950 267.3525 322.0250 266.1050 Z"></path>
<path id="" fill="#db8da5" fill-opacity="1.0" stroke="#000000" stroke-width="0.0" stroke-opacity="1.0" stroke-linecap="round" stroke-linejoin="round"  filling="0" d="M207.6812 105.9847 C215.8443 105.9065 302.4550 105.4995 304.2200 106.2590 L304.3050 106.7045 C303.3875 109.1837 300.2700 111.5160 298.5750 113.6165 C297.4900 114.9603 296.4100 116.4640 295.1450 117.6355 C294.1775 118.5315 293.3075 118.8105 292.0125 118.9330 C288.3675 119.2765 284.5600 119.0570 280.8975 119.0558 L260.2525 119.0497 L234.3548 119.0518 C229.0282 119.0640 223.6540 119.2607 218.3365 118.9688 C216.3223 117.1527 214.7608 114.9023 212.9845 112.8630 C211.5850 111.2567 209.8978 109.6873 208.6755 107.9495 C208.2600 107.3590 207.9673 106.6455 207.6812 105.9847 Z"></path>
<path id="" fill="#fffefe" fill-opacity="1.0" stroke="#000000" stroke-width="0.0" stroke-opacity="1.0" stroke-linecap="round" stroke-linejoin="round"  filling="0" d="M201.2890 211.0938 C205.3288 210.4955 210.3330 211.7085 213.6055 214.1337 C216.7665 216.4767 219.0887 219.8725 219.5842 223.8350 C220.5623 231.6582 215.0938 240.5350 210.5262 246.4100 C201.6280 257.8550 189.4113 266.1550 174.8103 267.9675 C170.3880 268.0725 163.6150 269.0175 159.7632 266.3950 C157.9603 265.1675 156.6268 263.2800 156.3033 261.1050 C156.0065 259.1125 156.5457 257.0775 156.9665 255.1400 C158.8062 246.6638 162.3053 237.9642 167.6927 231.0842 C176.1653 220.2650 187.5240 212.8120 201.2890 211.0938 Z"></path>
<path id="" fill="#ba8280" fill-opacity="1.0" stroke="#000000" stroke-width="0.0" stroke-opacity="1.0" stroke-linecap="round" stroke-linejoin="round"  filling="0" d="M226.3655 70.9912 C225.6537 66.8585 224.7240 61.8387 224.9700 57.6440 C225.0830 55.7158 225.7055 53.8167 227.2280 52.5435 C228.3468 51.6080 229.6783 51.2718 231.1005 51.1080 C233.5755 50.8230 236.2150 50.9820 238.7075 50.9832 L252.0800 50.9857 L269.5625 50.9933 C273.0125 50.9912 276.5225 50.8590 279.9600 51.0950 C282.0375 51.2377 284.2125 51.5925 285.6025 53.3115 C288.6525 57.0902 286.2825 66.2205 285.8050 70.7555 C285.1550 74.9320 284.4725 79.1175 283.9950 83.3173 C280.4250 82.9377 276.7950 83.0525 273.2100 83.0510 L257.5025 83.0533 C248.1788 83.0585 237.1693 82.5160 228.0603 83.3510 C227.4612 79.2357 226.8963 75.1158 226.3655 70.9912 Z"></path>
<path id="" fill="#965c5c" fill-opacity="1.0" stroke="#000000" stroke-width="0.0" stroke-opacity="1.0" stroke-linecap="round" stroke-linejoin="round"  filling="0" d="M226.3655 70.9912 C226.5827 70.8022 226.7500 70.6357 227.0202 70.5080 C228.1300 69.9830 277.7075 70.2093 281.9375 70.3358 C283.2625 70.3755 284.5150 70.4163 285.8050 70.7555 C285.1550 74.9320 284.4725 79.1175 283.9950 83.3173 C280.4250 82.9377 276.7950 83.0525 273.2100 83.0510 L257.5025 83.0533 C248.1788 83.0585 237.1693 82.5160 228.0603 83.3510 C227.4612 79.2357 226.8963 75.1158 226.3655 70.9912 Z"></path>
<path id="" fill="#a03774" fill-opacity="1.0" stroke="#000000" stroke-width="0.0" stroke-opacity="1.0" stroke-linecap="round" stroke-linejoin="round"  filling="0" d="M273.5700 356.1175 C286.4750 353.0625 299.4050 361.0850 302.4000 374.0025 C305.3950 386.9225 297.3125 399.8125 284.3800 402.7475 C271.5325 405.6650 258.7425 397.6475 255.7675 384.8125 C252.7925 371.9775 260.7500 359.1525 273.5700 356.1175 Z"></path>
<path id="" fill="#a03774" fill-opacity="1.0" stroke="#000000" stroke-width="0.0" stroke-opacity="1.0" stroke-linecap="round" stroke-linejoin="round"  filling="0" d="M188.2695 341.9975 C195.6232 340.0550 203.1755 344.3675 205.2435 351.6850 C207.3112 359.0050 203.1315 366.6300 195.8495 368.8250 C191.0253 370.2775 185.7923 369.0175 182.1613 365.5225 C178.5305 362.0300 177.0668 356.8500 178.3330 351.9725 C179.5990 347.0975 183.3980 343.2825 188.2695 341.9975 Z"></path>
<path id="" fill="#a03774" fill-opacity="1.0" stroke="#000000" stroke-width="0.0" stroke-opacity="1.0" stroke-linecap="round" stroke-linejoin="round"  filling="0" d="M322.0675 300.7375 C327.9825 300.2975 333.1650 304.6675 333.7350 310.5700 C334.3050 316.4750 330.0525 321.7550 324.1625 322.4550 C320.2350 322.9225 316.3600 321.2275 314.0375 318.0250 C311.7150 314.8200 311.3100 310.6125 312.9750 307.0225 C314.6425 303.4350 318.1200 301.0300 322.0675 300.7375 Z"></path>
<path id="" fill="#a03774" fill-opacity="1.0" stroke="#000000" stroke-width="0.0" stroke-opacity="1.0" stroke-linecap="round" stroke-linejoin="round"  filling="0" d="M244.5875 324.9500 C245.7285 324.8850 246.9550 325.0450 247.8840 325.7775 C248.7715 326.4750 249.2680 327.6600 249.3777 328.7625 C249.5025 330.0175 249.1557 331.3950 248.3098 332.3500 C247.5920 333.1625 246.7502 333.1775 245.7363 333.2725 C245.3203 333.2200 244.8985 333.1525 244.4880 333.0650 C243.3250 332.8175 242.0395 332.1050 241.4050 331.0650 C240.9503 330.3200 240.8777 329.4825 241.1082 328.6500 C241.6115 326.8300 243.0610 325.8600 244.5875 324.9500 Z"></path>
</svg>