<svg xmlns="http://www.w3.org/2000/svg" viewBox="0 0 512 512" height="512.0px" width="512.0px">
<path id="" fill="#fdd9db" fill-opacity="1.0" stroke="#000000" stroke-width="0.0" stroke-opacity="1.0" stroke-linecap="round" stroke-linejoin="round"  filling="0" d="M207.1628 156.1008 C207.2587 156.0862 207.3545 156.0680 207.4510 156.0573 C212.0582 155.5448 217.0502 155.9645 221.7000 155.9555 C227.0740 155.9450 232.5143 155.7628 237.8808 156.0640 C254.6875 157.0072 271.5875 160.4397 287.7300 165.1302 C290.2400 165.8600 296.8100 167.3820 298.5275 169.1122 C299.6400 170.2343 299.2725 172.6413 299.2375 174.1015 C302.8125 173.9610 306.3700 173.0220 309.9375 173.5968 C317.4675 174.8105 333.5575 182.7287 340.4325 186.7485 C342.6400 188.0395 344.5975 189.7702 346.8275 191.0103 C348.8125 192.1133 351.0300 192.7977 353.0425 193.8525 C356.1250 195.4655 359.0650 197.5927 361.9350 199.5493 C365.3575 201.8840 368.4125 204.5188 371.6625 207.0695 C374.3300 209.1622 377.1175 211.1410 379.6925 213.3450 C385.9575 218.7088 391.5600 224.5762 397.1350 230.6235 C400.5350 234.3143 403.9350 237.8132 407.0525 241.7682 C415.8450 252.9250 423.5800 267.7650 426.1875 281.7875 C430.1400 303.0450 427.8125 322.2450 421.0625 342.5550 C419.9550 345.8850 418.9250 349.2900 417.5950 352.5375 C416.2100 355.9225 414.5650 359.2250 413.0425 362.5500 C408.1475 373.2475 402.9375 383.3350 396.2775 393.0525 C389.9875 402.2250 381.7925 413.0850 373.9250 420.8200 C371.3575 423.3425 368.4875 425.5375 365.7925 427.9150 C363.8050 429.6675 361.9575 431.6175 359.8975 433.2800 C350.4450 440.9125 338.8250 447.4800 327.3900 451.6200 C325.0875 452.4550 322.6750 452.9800 320.3200 453.6475 C314.9025 455.1825 309.7350 456.5500 304.1900 457.5850 C299.4250 458.4275 294.7050 459.0275 289.8900 459.4925 C282.8725 460.1650 275.9075 460.0475 268.8675 460.0450 C264.2925 460.0425 259.6300 460.2125 255.0675 459.9625 C251.9975 459.7925 248.9467 459.3375 245.8763 459.1675 C241.3992 458.9225 236.9665 458.5050 232.4987 458.2050 C224.3670 457.6575 216.2453 457.2575 208.2160 455.7175 C193.5262 452.9000 174.0330 444.1350 161.3808 436.1700 C157.9673 434.0200 154.4235 431.7250 151.2307 429.2675 C149.4032 427.8600 147.7240 426.2650 145.9105 424.8425 C143.9167 423.2775 141.8058 421.8500 139.8630 420.2200 C133.2493 414.6775 126.6178 406.9550 121.3432 400.1325 C102.9167 375.9375 90.8570 347.5075 86.2695 317.4425 C85.3773 311.8875 84.8655 306.2650 84.3568 300.6625 C83.8698 295.3025 83.9470 289.9575 83.9478 284.5800 C83.9490 272.4500 84.3270 260.2575 86.8047 248.3260 C87.3935 245.4897 88.2943 242.7312 89.0195 239.9292 C89.7285 237.1905 90.2838 234.3395 91.2312 231.6727 C92.4918 228.1257 94.3488 224.8152 95.9897 221.4368 C98.3938 216.4877 100.5437 212.1945 104.0915 207.9520 C106.5927 204.9615 109.3565 202.3687 112.0493 199.5660 C116.3873 195.0508 120.5275 190.5703 125.4068 186.6163 C148.2162 168.1322 178.2072 158.6628 207.1628 156.1008 Z"></path>
<path id="" fill="#94b7bd" fill-opacity="1.0" stroke="#000000" stroke-width="0.0" stroke-opacity="1.0" stroke-linecap="round" stroke-linejoin="round"  filling="0" d="M321.9850 50.8710 C322.6425 50.8223 323.1800 50.7860 323.8275 50.9572 C323.9000 51.1053 324.0075 51.2412 324.0475 51.4012 C324.2275 52.1295 320.2150 68.6410 319.7100 71.1700 C316.1525 88.9865 313.5725 107.2437 312.8600 125.3992 C322.6900 124.6592 332.5875 122.6960 342.2125 120.6183 C351.7350 118.5630 361.1475 116.3383 370.4325 113.3572 C374.9425 111.9323 379.3850 110.2940 383.7400 108.4482 C386.0975 107.4265 388.3400 106.0365 390.7575 105.1848 C391.4750 104.9320 392.1450 104.6805 392.9000 104.9003 L393.1575 105.4940 C393.1025 106.3630 392.9100 107.0155 392.5625 107.8163 C390.5625 112.4373 385.4575 118.8575 382.3625 123.0110 C374.1350 134.0495 360.7450 152.8387 347.6875 158.0025 C352.1500 162.2142 356.1225 167.5270 359.9600 172.3220 C374.4725 190.4523 391.6000 214.7063 396.0025 237.9362 C396.7625 241.9580 398.0050 250.5650 395.6450 254.0525 C395.0475 254.3600 394.9475 254.4275 394.2650 254.2125 C392.3025 253.5950 387.9275 247.6075 386.3175 245.7810 C384.1050 243.2685 381.9925 240.6452 379.6900 238.2122 C375.2875 233.5547 370.6075 229.1185 366.0775 224.5813 C361.8250 220.3240 357.6450 215.9223 353.2400 211.8257 C344.2450 203.4557 334.1525 195.3785 323.7050 188.8997 C320.1775 186.7128 316.6700 184.4267 312.6350 183.3188 C308.8775 189.2865 306.4875 196.2415 303.3050 202.5663 C294.0275 220.9993 284.1350 239.3005 271.7400 255.8525 C268.5725 260.0850 265.5250 264.1675 261.7425 267.8825 C258.9125 270.7300 254.7100 275.7775 251.3075 277.7400 C250.4750 278.2200 249.7623 278.5075 248.7950 278.2500 C246.7675 275.8200 246.5710 257.7625 247.3105 254.2900 C248.3398 249.4580 251.0225 244.6805 252.7525 240.0298 C256.0000 231.2928 258.3100 221.7335 259.5400 212.4920 C260.0750 208.4830 260.1150 204.4483 260.1575 200.4097 C260.2825 188.2298 259.3200 181.4922 255.5200 169.9630 C250.3175 168.7807 245.3528 169.1348 240.0835 168.7905 C237.2608 168.6062 234.4492 168.2247 231.6235 168.0932 C228.2063 167.9345 224.7823 167.9913 221.3652 167.7793 C210.8717 167.1285 200.2543 166.4290 189.7320 167.1375 C185.2612 167.4388 180.6970 168.2690 176.4348 169.6613 C173.5790 170.6240 170.7825 171.7543 168.0600 173.0460 C164.7370 174.6375 153.9883 180.8253 150.9688 180.9990 C150.3712 181.0335 150.3210 180.9115 149.9085 180.5267 C149.8240 180.0123 149.7405 179.8282 149.9020 179.3110 C150.6358 176.9612 155.5750 172.7110 157.5460 170.8813 C172.3655 157.1237 193.6500 148.7637 212.8620 143.1485 C216.7840 141.9962 220.7182 140.8855 224.6635 139.8160 C226.4310 139.3545 228.4980 139.2332 230.1215 138.4422 C230.2802 137.8743 230.2977 137.4588 230.0658 136.8972 C227.9232 131.7095 193.1790 119.9540 186.1790 118.1530 C184.2225 117.6495 169.7908 114.8053 169.3297 114.4928 C168.7457 114.0967 168.8010 113.9283 168.7193 113.2737 C169.3535 111.6350 170.9453 110.5430 172.4288 109.7005 C180.5592 105.0820 190.1780 104.9040 199.2625 104.9205 C225.4583 104.9677 251.5350 110.6060 276.7100 117.5088 C278.5300 111.7733 279.3500 105.5815 280.5225 99.6833 C283.1025 86.6848 288.4875 75.0070 296.8925 64.7538 C302.8350 57.5033 312.5825 51.7718 321.9850 50.8710 Z"></path>
</svg>