<svg xmlns="http://www.w3.org/2000/svg" viewBox="0 0 512 512" height="512.0px" width="512.0px">
<path id="" fill="#242c56" fill-opacity="1.0" stroke="#000000" stroke-width="0.0" stroke-opacity="1.0" stroke-linecap="round" stroke-linejoin="round"  filling="0" d="M247.0685 174.1087 C255.3850 173.8450 263.4175 174.1918 271.7075 174.6478 C298.7125 176.1340 327.2875 180.1122 351.8400 192.0720 C356.5300 194.3568 361.8175 197.1727 365.7675 200.6055 C372.9675 206.8638 377.3100 211.3763 377.9825 221.3448 C378.5025 229.0542 378.0850 237.0403 378.0800 244.7730 L378.0675 290.0425 L378.0850 322.3350 C378.0875 328.6250 378.6400 335.4150 377.5550 341.6075 C376.6475 346.7925 373.6575 352.1875 370.1800 356.0975 C366.1175 360.6675 360.1725 364.2575 354.7925 367.1500 C327.4500 381.8375 295.6825 385.2525 265.1975 386.9325 C230.5132 388.3975 170.5513 381.7875 143.8528 357.9825 C137.7383 352.5325 134.6107 345.7200 134.1358 337.6100 C133.6447 329.2275 134.0052 320.6200 134.0087 312.2150 L134.0150 264.9625 L134.0103 235.2595 C134.0112 229.6678 133.5340 223.6048 134.4525 218.1037 C135.2368 213.4060 137.6770 209.0193 140.8293 205.4940 C147.4227 198.1203 156.8078 193.2838 165.8235 189.5347 C192.8520 178.2953 218.2645 175.8058 247.0685 174.1087 Z"></path>
<path id="" fill="#60678c" fill-opacity="1.0" stroke="#000000" stroke-width="0.0" stroke-opacity="1.0" stroke-linecap="round" stroke-linejoin="round"  filling="0" d="M255.1750 53.9958 C256.8750 53.8355 257.8925 54.2805 259.3575 55.0875 C262.3200 56.7207 265.1700 58.6110 268.0650 60.3662 L285.5700 70.8720 L358.7450 114.5650 L428.8600 156.3925 C439.4675 162.7702 450.2550 168.8622 460.6375 175.5992 C455.9325 178.8687 450.9775 181.7397 446.0625 184.6735 L425.5525 196.7870 L379.7250 224.1302 L287.6100 279.1525 C282.8375 281.9925 259.7875 296.5325 256.8300 297.2025 C254.2050 296.9750 251.9950 295.6550 249.7460 294.3775 C244.1715 291.2050 238.8125 287.6950 233.3070 284.4150 C221.9115 277.7225 210.5627 270.9525 199.2623 264.1025 L106.7960 208.7693 L67.9467 185.5943 C63.4735 182.9070 54.6852 178.6472 51.5180 175.1855 C57.0853 171.2753 63.3213 168.0095 69.1960 164.5688 L94.9193 149.2298 L188.7708 93.2272 L237.8480 64.0137 C242.8548 61.0948 250.0300 55.9935 255.1750 53.9958 Z"></path>
<path id="" fill="#242c56" fill-opacity="1.0" stroke="#000000" stroke-width="0.0" stroke-opacity="1.0" stroke-linecap="round" stroke-linejoin="round"  filling="0" d="M410.0325 390.4450 C409.7700 385.4175 410.0200 380.2425 410.0225 375.1975 L410.0300 345.4050 L410.0300 252.3175 L410.0450 222.3622 C410.0550 218.2598 410.5050 211.8460 409.9500 207.9727 C409.8600 207.3395 409.6475 206.9005 409.0975 206.5623 C407.0000 205.2672 393.8800 202.6845 390.7525 201.9592 L309.6550 183.0067 L278.5725 175.7390 C271.0500 174.0388 263.3500 172.5810 255.9150 170.5468 C253.8275 169.9755 251.2150 169.2988 249.5160 167.9068 C247.7482 166.4590 246.1410 163.3268 246.0072 161.0465 C245.8548 158.4492 247.1895 156.0177 248.9418 154.1860 C250.4900 152.5680 252.0725 151.8420 254.3050 151.8517 C258.4025 151.8700 262.3025 153.0677 266.2600 153.9710 L282.4650 157.7957 L329.6525 168.8407 L390.2525 182.9828 C397.5350 184.7275 405.2000 185.9337 412.3350 188.1638 C416.1725 189.3640 419.9150 191.0278 422.7150 193.9913 C426.0275 197.4942 427.4750 202.0363 428.0150 206.7475 C428.8850 214.3418 428.3775 222.4702 428.3800 230.1230 L428.3875 271.9125 L428.3875 347.3625 C428.3900 361.4975 428.6450 375.6475 428.2825 389.7750 C424.0800 387.6475 420.5350 385.6575 415.6575 387.3550 C413.6150 388.0675 411.8100 389.2375 410.0325 390.4450 Z"></path>
<path id="" fill="#f8be00" fill-opacity="1.0" stroke="#000000" stroke-width="0.0" stroke-opacity="1.0" stroke-linecap="round" stroke-linejoin="round"  filling="0" d="M410.0325 390.4450 C411.8100 389.2375 413.6150 388.0675 415.6575 387.3550 C420.5350 385.6575 424.0800 387.6475 428.2825 389.7750 C436.5375 397.6075 439.8100 409.1325 440.0875 420.2200 C440.3775 431.7600 438.4400 444.8925 430.1150 453.5600 C427.3850 456.4025 423.7350 458.8375 419.6550 458.8800 C415.6200 458.9225 411.8850 456.5525 409.1400 453.7725 C400.7525 445.2800 398.7800 432.6725 398.9025 421.2175 C399.0125 410.7225 401.9425 398.2325 409.7575 390.7050 L410.0325 390.4450 Z"></path>
</svg>