<svg xmlns="http://www.w3.org/2000/svg" viewBox="0 0 512 512" height="512.0px" width="512.0px">
<path id="" fill="#46bcb6" fill-opacity="1.0" stroke="#000000" stroke-width="0.0" stroke-opacity="1.0" stroke-linecap="round" stroke-linejoin="round"  filling="0" d="M332.6250 279.5800 C333.8575 288.4525 336.7825 296.7475 339.9425 305.0900 C344.1975 316.3325 349.1375 327.2775 353.9050 338.3050 C362.1875 357.6775 370.7450 376.9325 379.5725 396.0625 C381.5275 400.3475 396.6650 431.6625 396.2575 433.4375 C393.4100 436.0375 383.5200 438.9400 379.6350 440.2950 C344.5900 452.5250 307.6075 460.2975 270.3150 458.7275 C266.1100 458.5525 262.0375 457.3475 257.8550 457.0950 C251.5700 456.7175 245.2720 457.0425 238.9803 456.5725 C211.7475 454.4775 184.8882 448.9525 159.0408 440.1275 C156.1450 439.1600 146.8407 436.4550 145.0400 434.5475 C144.8067 434.3025 144.7798 434.3350 144.8000 434.0025 C144.8503 433.1850 154.0112 416.8000 155.1122 414.7450 C159.0495 407.3875 162.3768 399.8050 165.9182 392.2675 C167.4003 389.1125 169.0690 386.0475 170.5443 382.8875 C179.7910 362.8550 188.4900 342.5725 196.6317 322.0650 C200.0880 313.4175 203.2940 304.8525 206.2422 296.0175 C207.7755 291.4250 209.4258 286.8200 210.3372 282.0525 L210.5410 282.2825 C215.5430 282.6000 220.9962 284.6950 225.9170 285.8525 C231.5075 287.1650 237.1160 287.9275 242.8047 288.6525 C262.7525 291.2000 283.7050 290.2950 303.4700 286.6025 C313.1900 284.7825 322.7325 282.2225 332.3900 280.1200 L332.6250 279.5800 Z"></path>
<path id="" fill="#cab1cc" fill-opacity="1.0" stroke="#000000" stroke-width="0.0" stroke-opacity="1.0" stroke-linecap="round" stroke-linejoin="round"  filling="0" d="M210.3372 282.0525 C211.4738 274.4925 210.9875 266.6200 210.9955 258.9750 C211.0035 251.3825 211.4138 243.5217 210.8105 235.9608 C210.0660 226.6308 206.4102 213.2948 202.4483 204.7335 C200.5363 200.6017 197.9315 196.2383 195.4745 192.4245 C190.2260 184.2778 182.6223 177.8525 179.0295 168.6540 C174.6975 157.5627 175.1970 146.9323 179.9787 136.0815 C181.4550 132.7312 185.7047 123.7928 189.2985 122.8448 C190.3690 122.5625 191.4913 123.2162 192.3188 123.8257 C194.5705 125.4843 196.3410 127.9243 198.4335 129.7990 C200.4818 131.6345 202.7100 133.2585 204.7160 135.1430 C207.8902 138.1255 210.8080 141.3820 214.0070 144.3387 C216.2420 146.4045 218.6873 148.2343 220.9012 150.3245 C224.5655 153.7840 227.9603 157.5318 231.6250 160.9917 C233.8902 163.1305 236.3780 165.0233 238.6673 167.1387 C244.3607 172.4000 251.3975 179.3750 258.4700 182.6013 C263.4100 184.8553 268.0350 184.4365 273.2600 184.1297 C277.9700 183.8533 282.2750 183.6925 286.6025 181.6017 C290.3425 179.7953 293.0900 177.0838 296.1450 174.3627 C298.2225 172.5103 300.4625 170.8407 302.4925 168.9312 C304.2700 167.2603 305.8675 165.4045 307.6250 163.7133 L330.6825 141.6467 C333.4850 138.9395 336.6725 136.8078 339.4275 134.0352 C342.0175 131.4285 349.5000 122.9268 352.3400 121.8550 C352.9600 121.8650 353.3175 122.0055 353.8075 122.3635 C355.0600 123.2785 356.0175 124.8040 356.9350 126.0417 C361.2850 131.9190 364.9075 138.5005 365.8825 145.8602 C367.4200 157.4640 364.8850 168.0840 357.9700 177.5300 C355.7625 180.5473 353.1825 183.2780 350.9325 186.2615 C341.2850 199.0485 333.6975 216.1642 332.3225 232.2160 C331.6850 239.6445 332.0875 247.2975 332.0725 254.7525 C332.0575 262.7050 331.4150 271.3325 332.5700 279.2150 L332.6250 279.5800 L332.3900 280.1200 C322.7325 282.2225 313.1900 284.7825 303.4700 286.6025 C283.7050 290.2950 262.7525 291.2000 242.8047 288.6525 C237.1160 287.9275 231.5075 287.1650 225.9170 285.8525 C220.9962 284.6950 215.5430 282.6000 210.5410 282.2825 L210.3372 282.0525 Z"></path>
<path id="" fill="#fefefe" fill-opacity="1.0" stroke="#000000" stroke-width="0.0" stroke-opacity="1.0" stroke-linecap="round" stroke-linejoin="round"  filling="0" d="M331.6675 250.8250 C331.8850 251.0275 331.9475 251.1600 331.9900 251.4675 C332.3700 254.1500 332.0775 257.2675 332.0800 259.9950 C332.0875 266.8800 331.9675 273.7850 332.2175 280.6625 C327.0625 280.6475 322.9675 282.5325 318.1250 283.9200 C314.4050 284.9850 310.5525 285.8300 306.7450 286.5100 C298.9150 287.9050 290.8700 289.1250 282.9450 289.7375 C277.6150 290.1500 272.2300 290.0300 266.8875 290.0325 C262.0475 290.0350 257.1450 290.1650 252.3100 289.9350 C238.9335 289.2925 225.0755 286.9225 212.3163 282.8600 C211.8602 282.7100 211.7205 282.6125 211.3633 282.3175 C210.3497 279.3600 210.9200 261.8750 211.0692 257.8050 C216.4093 258.0650 221.5432 260.0250 226.7880 260.9625 C235.4650 262.5150 244.6508 263.3025 253.4500 263.8100 C258.8525 264.1225 264.1350 263.5825 269.5075 263.1275 C284.9525 261.8125 299.7425 259.0800 314.7750 255.3850 C320.4275 253.9975 325.9500 251.9100 331.6675 250.8250 Z"></path>
<path id="" fill="#752323" fill-opacity="1.0" stroke="#000000" stroke-width="0.0" stroke-opacity="1.0" stroke-linecap="round" stroke-linejoin="round"  filling="0" d="M289.4350 458.1100 C284.6500 458.2150 279.6325 459.0825 274.8500 459.5700 C268.8000 460.1850 262.6825 460.4900 256.6100 460.7975 C233.9023 461.9500 209.1530 459.1950 186.9657 454.5600 C178.5565 452.7725 170.2100 450.7025 161.9410 448.3500 C151.1960 445.2000 140.6080 441.5375 130.2135 437.3775 C126.3517 435.8600 122.0860 434.4650 118.4980 432.3850 C117.4295 431.7675 116.2473 430.9300 115.5985 429.8500 C114.9150 428.7150 115.0772 427.3575 115.4872 426.1550 C116.6260 422.8100 120.6675 417.0475 122.5527 413.6475 C126.5423 406.2925 130.3570 398.8450 133.9933 391.3100 C144.2645 370.4100 153.6678 348.9050 162.6913 327.4350 C168.5355 313.5300 175.0172 298.7150 179.1990 284.2575 C180.2475 280.6325 180.6528 276.9050 181.5188 273.2500 C181.8755 271.7425 182.4243 269.9450 183.8685 269.1350 C187.2518 267.2400 192.4920 269.9150 195.7758 271.0825 C197.6053 271.7325 199.4498 272.2800 201.3230 272.7900 C225.1427 279.2550 250.5350 279.5325 274.8700 275.9325 C282.0025 274.8450 289.0675 273.3475 296.0250 271.4400 C299.9150 270.3575 303.7975 268.8000 307.7475 268.0175 C308.7550 267.8175 309.7700 267.7800 310.7600 268.0925 C313.9525 269.0975 314.4000 274.5125 314.9950 277.2825 C315.9700 281.7975 317.6100 286.0625 319.1925 290.3925 C321.4375 296.5925 323.8300 302.7425 326.3650 308.8300 C332.7800 324.3900 339.4850 339.8250 346.4800 355.1300 C354.8125 373.6125 363.3250 392.0100 372.0200 410.3225 C374.7675 416.0650 377.2300 421.9900 380.1575 427.6350 C379.7150 428.9075 379.1625 430.3375 378.1325 431.2525 C375.5050 433.5850 370.5725 435.0225 367.3150 436.3100 C354.7550 441.4000 341.9250 445.7925 328.8800 449.4725 C326.5625 450.1250 315.0850 452.4850 313.9150 453.6425 C313.9850 454.5675 314.1425 455.4400 313.7700 456.3150 C310.5375 457.8325 297.4925 458.6775 293.5225 458.6000 C292.1350 458.5750 290.7950 458.3525 289.4350 458.1100 Z M129.9385 424.7675 C142.6868 429.6600 155.3313 434.3775 168.5013 438.0500 C175.4755 439.9950 182.5465 441.3350 189.5565 443.0625 C248.6837 454.8725 310.0050 448.3875 365.3550 424.4725 C364.0200 421.2875 362.3275 418.2325 360.8200 415.1225 C358.1825 409.6775 355.5900 404.1525 353.0550 398.6550 C342.2700 375.5925 331.8375 352.3675 321.7625 328.9875 C316.9500 317.8325 312.4250 306.5575 308.1900 295.1700 C307.3425 292.8225 306.5650 290.4500 305.8625 288.0525 C305.2700 285.9825 304.8775 283.1975 303.8200 281.3425 L303.5000 281.2975 C303.4150 281.3325 303.3275 281.3675 303.2425 281.4025 C299.0125 283.0475 294.2325 283.9025 289.8175 284.9375 C261.6575 291.5500 231.2660 292.3300 203.1540 285.2550 C199.5847 284.3550 195.6777 283.6275 192.3143 282.1175 C191.7263 282.3325 191.9297 282.1425 191.6565 282.7375 C190.8257 284.5475 190.4608 286.8325 189.9438 288.7650 C189.2930 291.1950 188.5208 293.5500 187.6788 295.9200 C183.6792 307.1750 179.2133 318.3575 174.5723 329.3675 C165.5410 350.7900 156.3127 372.2475 146.2155 393.1900 C144.1505 397.4750 141.9113 401.6850 139.7945 405.9425 C138.3100 408.9300 136.9540 411.9925 135.3992 414.9425 C133.6505 418.2600 131.5480 421.3725 129.9385 424.7675 Z"></path>
<path id="" fill="#4abcb6" fill-opacity="1.0" stroke="#000000" stroke-width="0.0" stroke-opacity="1.0" stroke-linecap="round" stroke-linejoin="round"  filling="0" d="M289.4350 458.1100 L289.2950 458.0100 L289.2850 457.8325 C297.4325 456.9450 305.5300 454.9050 313.5900 453.4175 L313.9150 453.6425 C313.9850 454.5675 314.1425 455.4400 313.7700 456.3150 C310.5375 457.8325 297.4925 458.6775 293.5225 458.6000 C292.1350 458.5750 290.7950 458.3525 289.4350 458.1100 Z"></path>
<path id="" fill="#752323" fill-opacity="1.0" stroke="#000000" stroke-width="0.0" stroke-opacity="1.0" stroke-linecap="round" stroke-linejoin="round"  filling="0" d="M163.8130 51.0773 C165.3522 51.0533 167.8400 51.2943 168.9470 52.4633 C169.8488 53.4155 170.0720 55.6042 170.1880 56.8840 C170.7290 62.8530 170.3480 69.1810 170.3540 75.1835 L170.2057 117.2068 C172.6635 119.0407 174.8938 121.3315 177.1565 123.4062 L190.2363 135.6070 C192.4385 137.6758 194.7955 139.5705 196.9940 141.6390 C200.0813 144.5437 203.0152 147.6130 206.1463 150.4720 C208.4375 152.5640 210.8472 154.5200 213.0773 156.6797 C218.6837 162.1098 228.1387 171.9133 234.7767 175.6590 C238.4388 177.7255 243.1237 178.6805 247.2957 178.7535 C252.6700 178.8475 257.9575 177.8353 262.6225 175.0717 C267.4575 172.2068 271.6275 167.7960 275.6200 163.8750 C279.7250 159.8042 283.8500 155.7543 287.9975 151.7258 L321.5175 120.1103 C321.6825 115.2162 321.4300 110.2498 321.4225 105.3488 L321.4075 73.6288 C321.4050 68.0027 321.0125 62.0558 321.5375 56.4610 C321.6500 55.2332 321.7950 53.9583 322.5850 52.9608 C323.4600 51.8548 324.7975 51.3307 326.1675 51.1630 C327.6725 50.9785 330.7650 51.1283 331.8900 52.3100 C332.8450 53.3152 333.1150 55.4575 333.2475 56.8067 C333.8825 63.2063 333.4925 69.9312 333.4875 76.3618 L333.2575 117.1252 C334.3900 118.0350 335.4250 119.0600 336.4150 120.1208 C345.6950 130.0612 349.3700 142.4140 348.9100 155.8125 C348.3800 164.9285 344.8925 174.7880 339.1900 181.9740 C336.1000 185.8707 332.5850 189.3508 329.6825 193.4190 C323.7625 201.6042 319.4150 210.8190 316.8625 220.5935 C314.8700 228.3797 313.9350 236.3995 314.0850 244.4355 C314.1200 246.6413 314.8425 252.1050 313.5575 253.9050 C312.8600 254.8850 311.5100 255.5975 310.4350 256.0575 C307.9775 257.1025 305.1825 257.6825 302.6000 258.3825 C297.9325 259.6875 293.2350 260.8900 288.5150 261.9875 C259.1000 268.7125 225.1772 269.0900 196.2595 259.9650 C192.4097 258.7500 187.4592 257.8225 184.0793 255.5850 C182.8678 254.7850 182.1765 253.7400 181.8878 252.3175 C181.3280 249.5582 181.8415 244.7883 181.8188 241.8342 C181.7493 232.8333 180.4332 224.1410 177.4430 215.6333 C174.4350 207.2760 170.2213 199.4032 164.9350 192.2655 C162.9550 189.6107 160.5600 187.2240 158.3715 184.7380 C152.5595 178.1365 149.2133 171.1710 147.6610 162.5095 C145.5085 150.4982 147.4538 138.0710 153.8403 127.5985 C155.1150 125.5080 157.7555 123.3835 158.3078 120.9918 C158.9365 118.2700 158.3425 111.4563 158.3233 108.3587 L158.3008 75.4017 C158.2897 69.3297 157.8885 62.9427 158.3865 56.9048 C158.4953 55.5835 158.6958 54.0598 159.5145 52.9753 C160.6025 51.5342 162.1497 51.3145 163.8130 51.0773 Z M166.7872 129.9280 C160.1745 138.6570 157.5493 148.1970 159.0123 159.1192 C160.7420 172.0310 168.1548 176.3970 175.1900 185.9812 C185.8285 201.4490 192.1647 217.2142 193.5273 236.0560 C193.7830 239.5923 194.2307 243.5400 193.7422 247.0510 C224.7222 257.6500 261.5800 256.9550 293.0800 248.7762 C296.1025 247.9920 299.2175 247.3010 302.1800 246.3302 C300.5275 225.6445 307.4700 204.0237 319.2075 187.1275 C320.6000 185.1223 321.9750 183.0157 323.5600 181.1595 C325.4850 178.9105 327.6500 176.8638 329.4650 174.5242 C335.0550 167.3212 337.3700 158.5900 336.7275 149.5332 C336.2650 143.0327 333.9400 134.2650 328.8175 129.7905 C328.7600 129.7395 328.6975 129.6940 328.6375 129.6458 C324.7000 133.8330 320.5975 137.9800 316.3925 141.8990 C314.2550 143.8893 311.9625 145.7015 309.8750 147.7430 C304.7350 152.7655 299.6900 157.8987 294.4700 162.8383 C292.6025 164.6055 290.5700 166.1875 288.7050 167.9538 C281.6425 174.6387 275.4850 181.3905 266.8825 186.2160 C261.7950 189.0697 254.8875 190.6608 249.0830 190.8610 C236.3875 191.2988 225.8598 185.6810 216.8515 177.2088 C204.0820 165.1992 191.1678 153.3262 178.5925 141.1152 C174.7713 137.4048 170.1850 133.9985 166.7872 129.9280 Z"></path>
</svg>