<svg xmlns="http://www.w3.org/2000/svg" viewBox="0 0 512 512" height="512.0px" width="512.0px">
<path id="" fill="#fff1b6" fill-opacity="1.0" stroke="#000000" stroke-width="0.0" stroke-opacity="1.0" stroke-linecap="round" stroke-linejoin="round"  filling="0" d="M215.6792 62.3460 C215.8265 62.3183 215.9730 62.2848 216.1212 62.2625 C219.0085 61.8307 222.2442 62.3645 225.1185 62.7612 C239.0100 64.6780 248.0690 69.0960 259.1875 77.5307 C272.6100 87.7133 282.1100 105.2393 284.3575 121.8372 C287.3625 144.0355 279.4375 164.9807 264.3200 181.2137 C261.2675 184.4942 255.5400 187.3630 253.2825 190.5643 C252.8350 191.1965 252.7000 191.6602 252.8050 192.4187 C253.1550 192.7515 253.4275 192.8340 253.9075 192.8737 C260.3375 193.4100 267.0325 192.4023 273.4375 191.8307 C294.9725 189.9828 315.9575 184.0482 335.2725 174.3445 C338.8175 172.5753 342.4225 170.8528 345.7800 168.7442 C353.5450 163.8717 360.4925 158.0768 367.4975 152.2153 C371.1550 149.1548 376.6725 145.6590 381.6475 146.2103 C385.0850 146.5912 387.8100 148.6927 389.8450 151.3755 C397.2475 161.1373 398.6050 193.3318 397.9825 205.4860 C397.5900 213.1243 396.2825 221.0345 395.1800 228.6145 C394.5400 233.0095 393.1475 237.3395 391.9050 241.5980 C384.3100 267.6150 369.2550 288.6575 347.6375 304.8650 C342.2775 308.7525 335.6775 312.7125 329.8100 315.7750 C291.2925 335.8625 245.9238 337.6100 204.8893 324.5125 C187.8745 319.1375 172.0228 310.6100 158.1600 299.3750 C155.4693 297.2200 152.6845 295.1175 150.2272 292.6950 C143.1975 285.7675 134.2872 273.3875 129.8015 264.5950 C125.8025 256.7550 122.3672 245.7265 121.2588 236.9883 C120.8795 233.9975 120.9243 230.9787 120.9187 227.9700 C120.9027 219.4215 121.4658 212.0717 124.1568 203.8820 C129.1763 188.6057 136.3280 176.8220 147.8170 165.5595 C150.8952 162.5420 154.4642 159.2125 158.3297 157.2538 C155.8915 149.5670 152.0517 142.7278 151.1775 134.5397 C149.2865 116.8280 155.1225 99.8680 166.1800 86.1205 C175.7303 74.2467 189.5652 66.7220 204.4232 63.7417 C208.1048 63.0033 211.9460 62.7533 215.6792 62.3460 Z"></path>
<path id="" fill="#ffc2c2" fill-opacity="1.0" stroke="#000000" stroke-width="0.0" stroke-opacity="1.0" stroke-linecap="round" stroke-linejoin="round"  filling="0" d="M150.1497 101.8415 C151.4785 101.8073 152.6630 101.9635 153.8495 102.5872 C158.1445 104.8450 163.8860 112.4243 165.2170 117.1475 C166.7115 122.4512 166.2283 127.4665 163.4925 132.2855 C161.3030 136.1425 157.6328 138.8217 153.3683 139.9742 C145.8920 141.9945 134.6413 138.1750 128.1087 134.4807 C126.9027 133.8720 125.7337 133.0312 124.6298 132.2547 C118.0372 127.6183 109.3585 119.4980 108.0488 111.1155 C107.7490 109.1978 107.7105 107.0055 108.9583 105.3950 C109.2065 105.0710 109.5050 104.7890 109.8423 104.5592 C112.8925 102.4818 117.4995 105.5642 120.7198 105.9377 C123.1487 106.2195 125.9240 105.9195 128.3483 105.6370 C131.6842 105.2480 135.0737 104.8578 138.3675 104.1940 C142.2875 103.4043 146.1658 102.2590 150.1497 101.8415 Z"></path>
<path id="" fill="#333333" fill-opacity="1.0" stroke="#000000" stroke-width="0.0" stroke-opacity="1.0" stroke-linecap="round" stroke-linejoin="round"  filling="0" d="M213.1617 56.1048 C222.2365 54.8918 236.3475 58.1783 244.9167 61.6135 C264.0100 69.2682 277.4875 81.9723 285.6150 100.9837 C295.3100 123.6633 293.3250 146.8423 281.2750 168.0912 C280.0350 170.2780 278.7575 172.5177 277.2925 174.5587 C275.6700 176.8168 272.8275 179.1967 271.9050 181.8143 C271.6375 182.5770 271.6925 183.1458 272.0675 183.8672 C274.2200 185.4605 283.3350 183.9050 286.1925 183.5137 C304.0775 181.0645 321.8250 175.5287 337.3850 166.2635 C342.8400 162.9908 348.0575 159.3395 353.0025 155.3370 C360.0025 149.6585 366.2150 140.9758 375.7525 139.6740 C381.8900 138.8360 389.0325 140.8935 393.8975 144.7068 C401.5800 150.7280 403.5725 169.4665 404.6775 178.7910 C406.4175 193.4877 406.2425 207.1237 404.2075 221.7872 C400.6150 247.6792 392.8850 267.1425 376.6500 287.7200 C379.6950 289.1700 382.5500 290.9850 385.1575 293.1275 C387.1625 294.7875 389.0350 296.6625 391.3000 297.9725 C396.6700 301.0775 404.6700 300.5875 409.7775 297.1750 C412.4250 295.4075 414.5125 292.8600 417.1475 291.0275 C420.3050 288.8275 423.8150 287.1800 427.5250 286.1600 C435.0375 284.1250 444.2600 284.9775 451.0425 288.9375 C455.2750 291.4075 459.5175 293.8275 460.8100 298.8925 C460.6275 299.7800 460.4100 300.6750 460.0325 301.5025 C459.2000 303.3200 457.3425 305.1225 455.4150 305.7225 C451.2575 307.0150 445.7350 300.0100 441.8725 298.2250 C436.8500 295.9025 430.8875 296.9150 426.5775 300.2375 C424.4575 301.8725 422.6425 303.8975 420.5325 305.5600 C417.6050 307.8900 414.3325 309.7525 410.8325 311.0800 C401.0125 314.7175 389.1975 313.1375 380.8850 306.6650 C377.2300 303.8200 373.9225 299.9575 369.5950 298.0900 C369.2875 297.9575 368.3625 297.6225 368.0425 297.6875 C367.2225 297.8550 365.3725 299.9275 364.6800 300.5625 C350.6200 313.4850 334.0500 322.9500 316.3075 329.8200 C299.9950 335.9350 282.7475 338.6075 265.4150 339.4600 C257.5250 339.8475 249.6817 339.4525 241.8158 338.7925 C209.3455 336.0675 178.4133 324.6025 153.0323 303.9650 C150.4052 301.8275 147.9205 299.4675 145.4110 297.1925 C139.5005 298.7300 136.4285 302.6550 131.8285 306.2350 C129.3047 308.2025 126.2570 309.8000 123.2795 310.9500 C112.9628 314.8475 101.3625 313.1125 92.6395 306.3650 C89.5630 304.0300 87.0865 301.0925 83.4715 299.5250 C78.2695 297.2725 71.2437 297.6250 66.4750 300.7525 C63.6073 302.6350 61.3535 304.9000 58.0963 306.1775 C55.5550 305.5325 53.2182 304.2275 51.8018 301.9375 C51.0050 300.6500 50.6458 299.1175 51.0745 297.6375 C52.1662 293.8725 57.9110 290.4275 61.1577 288.7150 C71.7418 283.1300 85.5450 284.1225 95.1935 291.3000 C98.9658 294.1075 101.5320 297.8175 106.2603 299.2550 C108.5795 299.9575 110.9767 300.0550 113.3805 299.8750 C121.1483 299.2975 122.6440 296.1675 128.4060 291.7300 C130.7280 289.9425 133.3808 288.5700 135.9570 287.1925 C124.9375 272.5300 118.4117 260.5725 115.3275 242.2500 C110.9442 216.2100 118.7117 188.9377 134.7580 168.2032 C136.8025 165.5615 139.0570 162.8045 141.4355 160.4605 C143.1792 158.7422 146.0508 157.3610 147.3627 155.3185 C148.1125 154.1515 146.0230 148.5780 145.6562 146.9763 C134.3288 145.3470 124.1010 140.9650 115.2032 133.7510 C109.5495 129.1670 104.8480 122.6200 104.1292 115.1728 C103.7880 111.6363 104.6835 108.2380 107.0065 105.4912 C112.9062 98.5147 119.2965 101.5038 126.6265 102.7043 C129.1268 103.1137 131.7230 103.1125 134.2413 102.8867 C138.1690 102.5348 147.9875 100.3132 150.7133 97.5098 C152.8212 95.3415 154.1345 91.8005 155.6975 89.2087 C157.4187 86.3540 159.5960 83.4935 161.7435 80.9520 C173.7802 66.7068 194.8550 57.7093 213.1617 56.1048 Z M163.6815 102.1858 C168.7700 104.7275 172.4010 109.4085 174.1930 114.7552 C176.5988 121.9333 175.7795 129.4565 172.4153 136.2055 C169.6792 141.6933 165.8533 144.0480 160.1398 145.9120 C159.6715 146.0675 159.1985 146.2083 158.7215 146.3342 C159.4487 148.8322 163.5143 157.3265 162.7810 159.2157 C162.1720 160.7843 152.5318 168.8882 150.2682 171.2485 C130.1443 191.9810 122.5977 221.8687 130.4675 249.6695 C134.8625 264.8800 143.0345 275.7075 154.0813 286.6300 C162.6078 295.2075 172.3270 302.5100 182.9390 308.3125 C207.3730 321.7375 231.5013 326.0875 259.1250 326.0550 C274.2250 326.0350 288.9000 324.5125 303.4425 320.2625 C320.7825 315.2450 336.8500 306.5800 350.5650 294.8450 C353.6700 292.1375 356.5275 288.9800 359.4225 286.0475 C361.5600 283.8850 363.8650 281.8325 365.9025 279.5825 C370.7975 274.1775 374.9600 267.8725 378.4475 261.4750 C387.0125 245.7572 391.2175 227.7758 392.2025 209.9637 C392.4675 205.1573 392.3825 200.3160 392.3600 195.5033 C392.3100 184.1562 391.2850 171.2245 388.0450 160.3395 C387.2925 157.8118 385.9100 155.0598 383.4575 153.8027 C381.4175 152.7567 378.9325 152.3092 376.7450 153.1328 C372.6225 154.6828 368.8600 159.9965 365.5075 162.8890 C362.8175 165.2100 359.8650 167.2838 357.0050 169.3905 C329.2775 189.8135 294.2375 198.4995 260.1700 198.8103 C251.2650 198.7900 242.3513 198.0905 233.4760 197.3630 C228.2080 196.9310 222.7637 196.0923 217.4883 196.0078 C206.6008 195.8333 195.5730 199.1792 187.7363 206.9675 C182.9685 211.7060 180.6422 217.0225 180.6763 223.7520 C180.7145 231.2487 183.1158 236.9650 188.4470 242.2103 C190.2910 244.0245 192.1840 245.9122 194.2377 247.4863 C206.9720 257.2450 224.7265 262.7700 240.6217 263.9350 C248.6187 264.5200 257.0250 264.1575 265.0600 264.0775 C285.1975 263.8800 314.1500 253.8775 328.2950 239.3040 C330.5550 236.9763 332.6275 234.2110 333.6575 231.1022 C335.3100 226.1120 333.4375 220.6472 340.8350 220.5610 C342.7500 220.5388 344.7800 221.0500 346.1750 222.4328 C347.5100 223.7575 347.7975 225.5960 347.7400 227.4102 C347.4850 235.5665 343.0450 244.8223 337.0275 250.3050 C332.8425 254.1200 327.9400 257.3275 323.0850 260.2175 C299.6350 274.1750 272.0325 279.1975 245.0152 277.7300 C224.4160 276.6100 202.5448 270.3125 185.8515 257.9100 C183.0488 255.8275 180.2852 253.7475 177.9368 251.1425 C170.2807 242.6537 166.6870 232.2937 167.3118 220.8568 C167.7830 211.3327 172.0550 202.3958 179.1707 196.0477 C188.2292 187.9875 199.4128 184.6537 211.1740 182.9485 C216.1093 182.2328 220.9590 181.7865 225.9530 182.0900 C230.5517 182.3695 243.0372 184.7750 246.3130 183.7515 C249.7615 182.6740 253.8625 179.2778 256.5650 176.9100 C269.2150 165.8305 277.4175 151.3070 278.4050 134.2843 C279.3975 117.2050 273.1675 101.0330 261.8100 88.3398 C252.4375 77.8647 236.3860 70.2473 222.4015 69.5725 C219.4507 69.4300 215.8177 69.1915 212.9182 69.6078 C195.2847 70.9673 181.2335 79.5265 169.9030 92.7260 C167.4620 95.6220 165.3737 98.7975 163.6815 102.1858 Z M117.7312 114.5598 C118.5782 119.5770 123.0392 123.2920 127.0153 126.1147 C128.3103 127.0342 129.6660 127.8920 131.0230 128.7177 C136.8840 132.2715 147.6418 135.2730 154.4305 133.7620 C157.0258 133.2103 159.2880 131.6330 160.7025 129.3882 C162.2863 126.8228 162.6560 123.4445 161.8490 120.5590 C160.8067 116.8322 157.9942 113.6895 154.6200 111.9033 C153.8208 111.4800 153.4270 111.3637 152.5260 111.5007 C144.6747 114.3418 136.7235 116.9875 128.2605 116.0082 C124.7637 115.6038 121.2345 114.7645 117.7312 114.5598 Z"></path>
<path id="" fill="#333333" fill-opacity="1.0" stroke="#000000" stroke-width="0.0" stroke-opacity="1.0" stroke-linecap="round" stroke-linejoin="round"  filling="0" d="M194.5050 91.3275 C197.6617 90.6882 202.1252 91.4853 204.7672 93.2758 C207.3987 95.0592 208.8290 97.9317 209.3817 100.9970 C210.0938 104.9450 209.6752 109.7225 207.2253 113.0253 C205.2847 115.6407 202.8210 116.3343 199.7355 116.7540 C196.0025 117.2258 191.7137 117.1317 188.4785 114.9725 C186.0872 113.3763 184.7290 110.9435 184.2460 108.1438 C183.5835 104.3055 183.7025 98.7917 186.0833 95.5620 C188.1987 92.6925 191.1835 91.8875 194.5050 91.3275 Z"></path>
<path id="" fill="#333333" fill-opacity="1.0" stroke="#000000" stroke-width="0.0" stroke-opacity="1.0" stroke-linecap="round" stroke-linejoin="round"  filling="0" d="M73.1082 428.0925 C80.6100 427.1175 89.4240 429.8925 95.3508 434.4800 C98.1410 436.6400 100.4682 439.2375 103.5932 440.9600 C109.0975 443.9925 116.8158 443.5100 121.9753 439.9775 C124.6980 438.1125 126.9565 435.6150 129.6805 433.7250 C132.6275 431.6850 135.8862 430.1375 139.3295 429.1425 C148.6740 426.5025 159.6370 428.5175 167.3805 434.4225 C170.1810 436.5575 172.4048 439.2500 175.5273 440.9875 C178.0070 442.3675 180.5688 442.8550 183.3763 442.8900 C191.8092 442.9975 194.2760 439.3025 200.5305 434.5225 C203.7928 432.0675 207.4775 430.2325 211.4017 429.1050 C220.6855 426.4950 231.4555 428.5550 239.1743 434.3400 C242.0315 436.4800 244.3058 439.2000 247.4760 440.9475 C250.1300 442.4100 252.8950 442.9375 255.9025 442.8900 C264.0675 442.7625 266.4000 439.2825 272.3150 434.6700 C275.5350 432.1800 279.1950 430.3150 283.1050 429.1700 C292.8075 426.3800 303.6675 428.6600 311.6750 434.7300 C314.4250 436.8125 316.6250 439.4475 319.6925 441.1250 C322.1350 442.4575 324.6325 442.8725 327.3775 442.8875 C335.5850 442.9350 338.1400 439.4625 344.1150 434.7825 C347.3575 432.2625 351.0425 430.3650 354.9800 429.1875 C364.7550 426.3175 375.5000 428.6800 383.5775 434.7375 C386.3275 436.7975 388.5600 439.4075 391.6250 441.0575 C394.2050 442.4475 396.8850 442.9525 399.7875 442.9175 C407.9100 442.8175 410.5275 439.0775 416.3925 434.5500 C419.4850 432.1525 423.0000 430.3550 426.7525 429.2500 C435.2975 426.7825 444.4975 428.1275 452.2000 432.4675 C456.2000 434.7225 459.5725 437.1400 460.8400 441.7650 C460.4450 443.5150 459.8900 444.9225 458.6750 446.2775 C452.4350 453.2225 447.3750 443.2925 441.2650 440.8875 C438.9850 439.9900 436.9500 439.9350 434.5625 440.0925 C428.3400 440.3050 424.5400 445.4450 419.9750 448.8700 C416.3575 451.5850 412.4475 453.6925 408.0650 454.8600 C398.5000 457.3925 388.3000 455.3275 380.4750 449.2725 C377.4700 446.9025 374.9825 443.9825 371.6250 442.0675 C369.2300 440.7000 366.8100 440.0400 364.0500 439.9775 C356.6700 439.8100 353.6400 444.5575 348.3350 448.6375 C344.6425 451.4775 340.4675 453.7075 335.9450 454.8850 C326.2550 457.3950 315.9475 455.2150 308.1025 449.0000 C305.2075 446.7250 302.8700 443.8925 299.6350 442.0350 C294.1975 438.9100 287.7850 439.2850 282.7650 443.0675 C280.3600 444.8800 278.3550 447.1825 275.9375 449.0000 C272.3325 451.7100 268.4325 453.6750 264.0675 454.8425 C254.0625 457.5250 243.6723 455.0100 235.6017 448.6075 C232.8350 446.4125 230.5975 443.6975 227.4855 441.9300 C221.8777 438.7475 215.5202 439.4625 210.4727 443.3100 C208.2832 444.9775 206.4518 447.0850 204.2807 448.7850 C200.9935 451.3600 196.6835 453.7300 192.6095 454.7675 L191.3483 455.0800 C181.7027 457.4025 171.6255 454.8325 163.8675 448.7625 C161.1187 446.6125 158.8783 443.9250 155.8633 442.1025 C149.8995 438.4975 143.2305 439.6075 137.9178 443.8025 C135.7055 445.5500 133.8380 447.6925 131.5610 449.3675 C127.9948 451.9925 123.8215 454.0100 119.5092 455.0375 C109.8497 457.3450 100.3232 455.0300 92.4457 449.1175 C89.9642 447.2550 87.8660 444.8900 85.1888 443.2900 C82.4883 441.6775 79.4788 441.0625 76.3562 441.0500 C70.4173 441.0250 67.3110 442.9525 62.7818 446.4525 C61.5753 447.3850 60.3743 448.2400 58.8548 448.5850 C57.3500 448.9250 55.8090 448.5825 54.5480 447.7075 C52.8013 446.4950 51.3295 444.7650 51.0117 442.6075 C50.7502 440.8300 51.5788 439.2050 52.6750 437.8675 C57.2318 432.3100 66.1385 428.9000 73.1082 428.0925 Z"></path>
<path id="" fill="#333333" fill-opacity="1.0" stroke="#000000" stroke-width="0.0" stroke-opacity="1.0" stroke-linecap="round" stroke-linejoin="round"  filling="0" d="M73.5923 357.1000 C81.0927 356.4050 89.7168 359.0075 95.6313 363.6625 C98.1640 365.6550 100.2728 368.0600 103.0697 369.7300 C108.5948 373.0300 116.4940 372.7175 121.8225 369.1525 C124.6865 367.2350 127.0315 364.6225 129.8873 362.6700 C133.1562 360.4150 136.8110 358.7825 140.6698 357.8500 C149.6033 355.7125 159.8535 357.8650 167.2085 363.3775 C169.8730 365.3750 172.0287 367.9075 174.8987 369.6550 C180.4763 373.0550 188.5170 372.7350 193.8910 369.0700 C196.6602 367.1800 198.9430 364.6400 201.7250 362.7350 C204.9908 360.4800 208.6390 358.8350 212.4917 357.8850 C221.8730 355.6075 232.0063 357.9825 239.6710 363.7650 C242.2395 365.7025 244.3360 368.1575 247.1317 369.8100 C252.6175 373.0575 260.5525 372.6600 265.7950 369.0925 C268.5775 367.1975 270.8700 364.6375 273.6600 362.7175 C276.8500 360.5300 280.4000 358.9200 284.1475 357.9575 C293.6775 355.5575 303.8050 357.9150 311.6125 363.7825 C314.2025 365.7275 316.3300 368.1900 319.1500 369.8425 C324.6625 373.0750 332.5550 372.6175 337.8300 369.0825 C340.5600 367.2525 342.7800 364.7250 345.4925 362.8375 C348.6475 360.6275 352.1675 358.9875 355.8875 357.9875 C365.7275 355.4225 375.9050 358.0625 383.9225 364.0750 C386.4475 365.9675 388.5950 368.3775 391.3500 369.9550 C396.8000 373.0750 404.7350 372.6075 409.8750 369.0450 C412.6350 367.1325 414.8900 364.5600 417.6725 362.6325 C420.7175 360.5275 424.1100 358.9800 427.6950 358.0625 C436.1275 355.9500 445.0550 357.2650 452.5175 361.7250 C456.3450 363.9650 459.6350 366.3425 460.8175 370.8425 C460.4750 372.5350 459.9375 373.9575 458.7950 375.2800 C452.8450 382.1800 447.4525 372.7475 442.0725 370.2525 C439.4725 369.0475 436.9825 368.8950 434.1875 369.0500 C428.1675 369.4050 424.7175 374.3175 420.3400 377.6650 C417.1925 380.0725 413.6875 382.0750 409.9250 383.3425 C400.0625 386.6725 388.4700 384.7900 380.3150 378.2475 C376.9950 375.5850 374.2550 372.3575 370.3650 370.4525 C365.1250 367.8900 359.2450 368.6800 354.6600 372.1625 C352.5225 373.7875 350.7225 375.8475 348.6050 377.5100 C345.5100 379.9400 341.9600 381.9875 338.2300 383.2675 C328.0250 386.7375 316.7575 384.8125 308.2850 378.1500 C304.9850 375.5100 302.2500 372.2375 298.3575 370.3925 C292.9525 367.8300 286.9850 368.8225 282.3200 372.4600 C280.2225 374.0925 278.4500 376.1075 276.3600 377.7475 C273.3675 380.0700 270.0300 381.9075 266.4700 383.1950 C256.0975 386.7775 244.6122 384.8075 236.0253 377.9750 C232.8000 375.4125 230.2632 372.1925 226.4492 370.4000 C224.3372 369.4050 222.1065 368.9675 219.7775 368.9775 C212.4998 369.0100 209.1520 374.1000 203.9280 378.1125 C201.1125 380.2750 197.7930 382.0500 194.4450 383.2225 C183.9122 386.9125 172.2685 384.5725 163.6107 377.6500 C160.5193 375.1775 158.1015 372.0750 154.4365 370.3575 C152.3522 369.3925 150.0753 368.9125 147.7782 368.9550 C140.4480 369.0650 136.9798 374.3325 131.7242 378.3175 C128.9657 380.4075 125.7672 382.0725 122.5025 383.2125 C112.3120 386.7725 101.2363 384.8050 92.6730 378.3225 C89.7467 376.1075 87.3560 373.2975 83.9872 371.7025 C78.7542 369.2225 71.3968 369.4800 66.5315 372.6600 C63.6803 374.5225 61.4837 376.8250 58.2177 378.0175 C56.5208 377.7050 55.0902 377.1675 53.7040 376.1100 C52.2217 374.9800 51.2930 373.4775 51.0685 371.6175 C50.8550 369.8500 51.5607 368.2375 52.6638 366.8925 C57.3070 361.2300 66.4850 357.7500 73.5923 357.1000 Z"></path>
</svg>