<svg xmlns="http://www.w3.org/2000/svg" viewBox="0 0 512 512" height="512.0px" width="512.0px">
<path id="" fill="#b4dffb" fill-opacity="1.0" stroke="#000000" stroke-width="0.0" stroke-opacity="1.0" stroke-linecap="round" stroke-linejoin="round"  filling="0" d="M149.4478 62.0200 C154.5607 61.6698 159.7798 61.9243 164.9073 61.9297 L192.9155 61.9402 L281.8725 61.9410 L337.3225 61.9368 L353.5375 61.9108 C356.3300 61.9080 359.4000 61.6880 362.1675 62.0688 C364.8400 62.4368 368.1000 64.1202 369.6775 66.3400 C371.1900 68.4688 371.4600 71.1905 370.9225 73.7007 C369.7250 79.3037 364.3125 88.4975 361.5000 93.8350 L349.1600 117.7040 C346.8400 122.1028 344.1525 126.3315 341.9400 130.7865 C341.5075 131.6540 340.8725 133.0130 340.8850 133.9770 C340.8975 135.1425 345.4225 136.7800 346.5100 137.2755 C363.0425 144.8135 379.4225 156.8570 393.1475 168.7165 C396.2075 171.3620 399.0225 174.3915 401.8825 177.2533 C429.7075 205.3268 448.7525 240.8983 456.6900 279.6200 C459.1475 291.5450 460.1050 304.0000 460.9675 316.1275 C461.3300 321.2400 460.5550 325.9325 460.2750 330.9950 C458.3550 365.9225 449.3125 395.0700 431.8125 425.2875 C426.9825 433.6225 421.5900 442.3200 415.2800 449.6275 C412.8075 450.0550 410.2475 450.0225 407.7475 450.1925 C404.9875 450.3800 402.1275 450.7725 399.3625 450.7100 C396.7075 450.6500 394.0550 450.1825 391.3975 450.2225 C388.6675 450.2625 385.9500 450.7050 383.2200 450.7125 C380.8950 450.7175 378.5800 450.3450 376.2525 450.4300 C373.9000 450.5150 371.5600 450.8275 369.2075 450.9400 C364.7000 451.1425 360.1850 451.0550 355.6900 450.6725 C352.7825 450.2675 349.9375 449.9950 347.0000 450.1775 C344.0000 450.3650 340.9825 450.8725 337.9725 450.8350 C335.0525 450.7975 332.1450 450.1525 329.2200 450.0525 C319.8150 449.7250 310.2900 449.9575 300.8750 450.0075 C296.8075 450.0300 292.7850 450.7975 288.7325 450.8425 C286.3175 450.8700 283.9075 450.5725 281.4950 450.5850 C279.1000 450.5975 276.7050 450.8850 274.3075 450.7425 C271.1150 450.5525 267.9425 450.0350 264.7350 450.0650 C261.6800 450.0900 258.6450 450.7125 255.5950 450.8375 C253.1825 450.9375 250.7850 450.3825 248.3717 450.3950 C245.5710 450.4075 242.7790 450.9000 239.9660 450.8900 C237.7267 450.8825 235.4892 450.6400 233.2540 450.6550 C231.0510 450.6675 228.8338 450.9425 226.6330 450.8225 C222.9897 450.6250 219.4130 449.9975 215.7495 449.9875 C212.8302 449.9775 209.9680 450.4075 207.0638 450.5875 C205.2543 450.6975 203.4317 450.5025 201.6200 450.5100 C199.7315 450.5175 197.8508 450.7475 195.9590 450.7350 C193.0717 450.7175 190.2035 450.1800 187.3087 450.2100 C184.3387 450.2425 181.3712 450.6800 178.4085 450.8725 C174.8830 451.1025 171.3075 451.0350 167.7753 451.0225 C163.0255 451.0050 158.3955 450.3225 153.6760 450.1175 C150.6642 449.9900 147.6893 450.4275 144.6888 450.4100 C142.3983 450.3975 140.1150 450.0550 137.8197 450.0425 C134.7295 450.0250 131.6905 450.4275 128.6125 450.5775 C126.2668 450.6900 123.9470 450.3100 121.6062 450.3525 C118.7575 450.4025 115.9240 450.9150 113.0720 450.9600 C109.8958 451.0075 106.7660 450.2725 103.6122 450.2675 C101.6395 450.2675 99.9218 451.6025 97.9865 450.6450 C95.1690 449.2475 93.0417 445.2250 91.2523 442.7075 C82.1162 429.8575 74.6787 416.2900 68.2440 401.9200 C65.8010 396.4625 63.4062 391.0850 61.6590 385.3525 C56.2648 367.6500 53.4652 353.5925 51.9110 335.0900 C51.5060 330.2675 51.0168 325.4350 50.9845 320.5950 C50.9550 316.1675 51.4645 311.8900 51.7790 307.4900 C51.9993 304.4100 52.0898 301.3225 52.4252 298.2500 C54.8757 276.2975 60.8485 254.8850 70.1140 234.8340 C72.5858 229.4150 75.6503 224.2693 78.4510 219.0148 C87.5778 201.8918 102.7315 183.6955 116.9460 170.5423 C119.3857 168.2845 122.0775 166.3042 124.6395 164.1893 C135.3338 155.3610 146.2697 147.3005 158.7010 141.0550 C162.8395 138.9758 167.0598 136.5950 171.4975 135.2440 C170.3805 129.0013 163.5330 118.4863 160.3635 112.5833 L147.3638 87.8698 C145.4635 84.2930 143.0168 80.7950 141.8143 76.9012 C140.9060 73.9612 140.2315 69.9520 141.8065 67.1515 C143.3922 64.3318 146.4895 62.9232 149.4478 62.0200 Z"></path>
<path id="" fill="#5ea7ff" fill-opacity="1.0" stroke="#000000" stroke-width="0.0" stroke-opacity="1.0" stroke-linecap="round" stroke-linejoin="round"  filling="0" d="M95.7115 218.0230 C100.4175 217.7332 105.3190 218.0018 110.0430 218.0038 L139.4178 218.0125 L230.2735 218.0123 L368.0300 218.0195 L397.6800 218.0038 C402.7325 217.9960 413.2100 217.3085 417.5625 218.5972 C421.1775 222.2323 424.2025 228.9147 426.4425 233.5700 C428.3100 237.4523 430.3800 241.2845 432.0900 245.2368 C438.3750 259.9050 442.8125 275.2975 445.2975 291.0625 C446.7800 300.6525 447.0800 309.9725 447.0725 319.6425 C447.0675 325.2325 447.3750 331.0125 446.9200 336.5725 C444.2575 366.1575 434.8850 394.7475 419.5125 420.1675 C417.0150 424.3325 414.5400 428.4400 411.6750 432.3675 C410.8050 433.4475 409.9475 434.6550 408.9725 435.6375 C407.7950 436.8250 406.7800 436.9700 405.1825 437.0375 C400.9475 437.2225 396.6450 437.0350 392.4025 437.0225 L369.3550 437.0125 L294.8400 437.0100 L169.3652 437.0125 C147.8098 437.0125 126.2328 437.2225 104.6800 436.9950 C102.8495 435.4525 101.4170 433.6825 100.0663 431.7125 C82.6150 406.2475 71.4818 380.0100 66.9870 349.3725 C66.2962 344.6650 65.5555 339.9675 65.2355 335.2150 C64.9255 330.6125 64.9857 325.9950 64.9805 321.3825 C64.9758 316.8825 64.8475 312.3300 65.0813 307.8400 C65.4685 300.3950 66.6403 292.7450 67.9995 285.4225 C71.5905 265.5875 78.4077 246.4747 88.1808 228.8450 C90.1537 225.2225 92.2285 220.4153 95.7115 218.0230 Z"></path>
<path id="" fill="#feae40" fill-opacity="1.0" stroke="#000000" stroke-width="0.0" stroke-opacity="1.0" stroke-linecap="round" stroke-linejoin="round"  filling="0" d="M283.2825 300.3850 C302.1225 299.3525 327.9325 305.8675 342.4075 318.1650 C345.7250 320.9800 348.8825 324.3125 351.7600 327.5675 C352.5850 328.4975 353.2425 330.3125 354.3050 330.9100 C355.1150 331.3650 356.1750 331.0000 356.9375 330.6475 C359.7075 329.3675 362.2475 327.3975 364.8100 325.7500 C369.9675 322.4375 380.3925 316.3050 385.9025 314.6750 C385.9725 319.4650 386.3950 359.3325 385.5075 360.6950 C381.0425 360.7725 361.4375 346.5700 355.1875 344.4150 C355.0800 344.3775 354.9725 344.3425 354.8650 344.3075 C353.0525 346.1350 351.5875 348.3525 349.9225 350.3175 C345.9425 355.0125 341.5100 358.4975 336.3875 361.8500 C325.5450 369.7650 305.1050 374.9575 291.7200 375.6500 C286.2575 375.9350 280.8225 375.5175 275.4000 374.8650 C258.2000 372.7950 241.0083 367.1375 227.9478 355.2900 C224.7747 352.4100 215.3345 342.8800 215.2702 338.3875 C215.2083 334.0450 221.4170 327.0100 224.2543 324.0600 C226.9357 321.2700 230.0640 318.1725 233.2038 315.9350 C246.5980 306.3900 266.9000 300.6400 283.2825 300.3850 Z"></path>
<path id="" fill="#b3defb" fill-opacity="1.0" stroke="#000000" stroke-width="0.0" stroke-opacity="1.0" stroke-linecap="round" stroke-linejoin="round"  filling="0" d="M148.2420 238.4465 C163.6810 235.4800 178.5790 245.6635 181.4212 261.1250 C184.2635 276.5875 173.9608 291.4025 158.4763 294.1225 C143.1667 296.8075 128.5545 286.6475 125.7445 271.3600 C122.9342 256.0725 132.9778 241.3793 148.2420 238.4465 Z M156.2722 279.6850 C159.9993 278.7850 163.3638 277.1825 165.3845 273.7300 C167.3472 270.3775 167.6035 265.2750 166.6113 261.5500 C165.8828 258.8125 164.2355 256.0050 161.7170 254.5800 C158.2855 252.6375 154.3740 252.9300 150.5907 253.0850 C147.4865 253.4950 144.4955 254.6775 142.5692 257.2750 C140.2365 260.4225 139.6175 265.0225 140.2635 268.8200 C140.8282 272.1375 142.4362 275.4675 145.2675 277.4150 C148.2263 279.4475 152.7570 280.3000 156.2722 279.6850 Z"></path>
<path id="" fill="#5ea7ff" fill-opacity="1.0" stroke="#000000" stroke-width="0.0" stroke-opacity="1.0" stroke-linecap="round" stroke-linejoin="round"  filling="0" d="M262.1200 149.6555 C275.6875 147.3607 288.5225 156.5655 290.7025 170.1517 C292.8825 183.7380 283.5675 196.4960 269.9650 198.5603 C256.5225 200.5997 243.9495 191.4215 241.7960 177.9973 C239.6425 164.5730 248.7137 151.9227 262.1200 149.6555 Z M268.6100 183.9935 C271.0775 183.6093 272.9200 182.8090 274.4800 180.7355 C276.4250 178.1543 276.5625 174.1525 276.0725 171.0460 C275.7275 168.8500 274.6675 166.8940 272.7950 165.6432 C270.1700 163.8885 266.9300 163.9093 263.9050 164.0780 C261.4100 164.4738 259.4650 165.6465 258.0050 167.7405 C256.3125 170.1725 255.7175 173.3378 256.2550 176.2380 C256.7325 178.8257 258.1125 181.2205 260.3400 182.6788 C262.9025 184.3578 265.7025 184.0237 268.6100 183.9935 Z"></path>
<path id="" fill="#595958" fill-opacity="1.0" stroke="#000000" stroke-width="0.0" stroke-opacity="1.0" stroke-linecap="round" stroke-linejoin="round"  filling="0" d="M242.2170 326.9775 C242.9162 326.9750 243.4990 327.2425 244.1355 327.5050 C246.2007 328.3575 247.9207 329.6525 248.7513 331.7900 C249.4415 333.5650 249.4730 335.6750 248.6625 337.4175 C247.4580 340.0050 244.9348 341.2975 242.3808 342.1975 C242.1010 342.0975 241.8242 341.9900 241.5508 341.8750 C239.0432 340.8050 236.6380 339.1950 235.6210 336.5425 C235.0358 335.0175 235.1062 333.4450 235.7935 331.9625 C237.0782 329.1950 239.5358 328.0125 242.2170 326.9775 Z"></path>
</svg>