<svg xmlns="http://www.w3.org/2000/svg" viewBox="0 0 512 512" height="512.0px" width="512.0px">
<path id="" fill="#feded5" fill-opacity="1.0" stroke="#000000" stroke-width="0.0" stroke-opacity="1.0" stroke-linecap="round" stroke-linejoin="round"  filling="0" d="M193.3862 139.1013 C193.4900 139.0847 193.5930 139.0632 193.6975 139.0515 C197.5920 138.6135 201.8455 138.9102 205.7710 138.9250 C233.3825 139.0295 261.2300 148.5457 284.3050 163.4900 C289.0925 166.5898 293.6150 170.2115 298.1575 173.6595 C316.3250 187.4505 331.8150 209.6358 341.1375 230.3175 C344.5475 237.8853 347.9650 247.9460 350.0600 255.9500 C352.1500 263.9325 353.2575 272.1925 354.3650 280.3550 C355.6075 289.5150 355.0900 298.4825 354.0675 307.6275 C350.9550 335.4800 341.9700 358.4925 324.9975 380.7500 C307.8600 403.2225 280.0725 421.1075 253.0475 429.1500 C241.9720 432.4475 230.9795 434.1675 219.5575 435.7075 C219.2802 435.7400 219.0030 435.7700 218.7253 435.7950 C203.8755 437.2525 184.3692 434.6400 169.9377 430.7150 C163.2000 428.8800 156.7148 426.5300 150.2405 423.9425 C147.1085 422.6900 143.9340 421.4925 140.9122 419.9900 C130.5742 414.8425 120.7223 408.1825 111.8118 400.8625 C108.1795 397.8800 104.9335 394.4550 101.6100 391.1400 C85.0592 374.6200 74.2343 357.2300 66.8175 335.1000 C62.6653 322.7100 60.1127 310.6250 58.8322 297.6325 C58.4113 293.3625 57.9580 289.1100 57.9555 284.8125 C57.9528 280.4125 58.4227 276.0650 58.8672 271.6925 C61.7180 241.9350 73.3065 213.6853 92.1750 190.4980 C94.7625 187.3805 97.8043 184.5773 100.6285 181.6723 C109.8540 172.1825 118.4520 165.3017 129.7908 158.5355 C150.0782 146.4292 170.0027 141.2467 193.3862 139.1013 Z"></path>
<path id="" fill="#ffce56" fill-opacity="1.0" stroke="#000000" stroke-width="0.0" stroke-opacity="1.0" stroke-linecap="round" stroke-linejoin="round"  filling="0" d="M367.7650 100.8480 C368.9050 100.9308 370.5400 101.2818 371.3275 102.1978 C372.7725 103.8780 372.0050 122.0707 372.0725 125.4863 C375.1875 129.7700 380.6650 131.8573 384.8775 134.8667 C386.7525 136.2072 389.0100 137.9292 390.0525 140.0312 C391.6575 143.2640 392.2300 164.6057 393.2900 170.6003 L393.3475 170.9205 C397.3500 175.3528 409.4950 179.7570 415.2375 182.4563 C416.9025 183.2390 419.2450 184.1645 420.6000 185.4285 C423.2450 187.8997 429.5600 201.2027 431.8575 205.3925 C434.9175 210.9707 452.7750 241.8692 453.0450 245.9700 C453.3350 250.3725 450.9800 257.6575 450.0950 262.2350 L446.9900 278.9125 C446.1275 283.6675 445.5025 288.6625 443.7125 293.1775 C441.9600 297.6000 438.7675 301.8300 436.3425 305.9500 L419.5975 334.3100 L409.9275 350.6900 C408.5275 353.0275 407.0300 356.2375 405.1225 358.1800 C403.5800 359.7475 394.7100 358.9625 392.3350 359.0050 C382.5225 359.1775 383.1475 366.2550 377.6375 371.7400 C376.2075 373.1650 374.5275 374.2250 372.5500 374.6875 C368.8525 375.5550 364.3425 375.0225 360.5275 374.9975 C357.2050 374.9750 353.8850 375.0650 350.5625 375.0425 C348.1425 375.0275 345.3675 374.9375 343.2800 373.5675 C335.0300 368.1425 337.7825 343.1250 331.3375 336.9200 C327.0125 332.7575 317.6850 334.0000 312.1325 334.0950 C310.4425 334.1250 307.7975 334.4850 306.5450 333.1050 C304.4550 330.8050 305.6425 326.6350 303.8375 323.9800 C301.3075 320.2625 297.4325 317.2600 294.2500 314.1100 C290.0000 309.9025 285.8975 305.5550 281.5650 301.4275 C279.8125 299.7550 277.6850 298.0650 275.2900 297.5100 C270.6075 296.4225 258.9425 297.0150 253.4850 297.0125 C241.0457 297.0125 228.5453 296.7550 216.1113 297.0500 C198.0030 297.4800 207.8955 312.7425 200.4238 320.2125 C196.9917 323.6450 190.9185 324.0150 186.3613 324.0275 C183.3500 324.0050 180.0710 323.7325 177.1167 324.3875 C169.8210 326.0050 160.2137 335.1975 153.1120 338.8150 C150.4930 340.1500 147.1225 340.7000 144.2923 339.6575 C143.8915 339.5100 143.5005 339.3225 143.1212 339.1250 C133.0260 333.9200 134.4077 326.8225 136.2935 317.2950 C136.7457 315.0075 137.2915 312.6300 136.7843 310.3025 C136.0825 307.0825 133.9235 303.7300 132.4425 300.7875 C130.0182 295.9750 127.6625 291.1025 125.1305 286.3450 C123.6877 283.6350 122.0867 281.0050 120.6750 278.2800 C112.2795 262.1950 104.3280 245.8813 96.8293 229.3587 C97.6850 225.7420 98.8907 222.0680 100.9423 218.9410 C105.2925 212.3105 108.6168 214.2375 114.8790 212.7802 C116.4845 212.4068 117.6712 211.6013 118.7068 210.3347 C121.5115 206.9057 123.2150 202.3848 125.4832 198.5770 C127.9163 194.4925 130.7190 190.6248 133.0890 186.5072 C138.0323 177.9195 142.4888 169.3508 147.9055 160.9913 C148.2625 153.7035 147.8383 146.3705 148.0213 139.0730 C149.6220 138.1435 151.4735 137.5208 153.1795 136.7917 C158.7915 134.3935 164.5560 132.4357 170.1900 130.1090 C174.3860 128.3763 187.3452 122.5488 191.1407 122.0895 C194.6187 121.6685 199.1705 123.5973 202.5152 124.5283 C211.4003 127.0013 220.2375 129.6272 229.1810 131.8830 C232.6895 132.7680 236.3587 133.9445 239.9698 134.2060 L240.3880 134.2340 C242.6367 132.0775 243.9725 129.1297 245.4175 126.4105 C246.6703 124.0527 248.0247 121.7487 249.2615 119.3845 C251.8150 114.5045 254.3050 107.2450 258.8150 103.9293 C260.1450 102.9520 261.6625 102.4485 263.2850 102.2198 C268.1400 101.5348 273.5600 102.0417 278.4800 102.0575 C284.1400 102.0757 290.3850 101.5697 295.9775 102.3647 C300.4275 102.9975 303.3200 105.2832 305.9525 108.7575 C306.1375 110.7285 306.1625 112.5553 305.8975 114.5220 C305.5775 116.8958 303.0850 124.7223 304.1525 126.4195 C306.0375 129.4113 333.0150 142.2932 337.3650 143.3728 C340.2475 140.2702 342.3150 135.9953 344.4825 132.3600 C348.2375 126.0688 352.2125 119.9550 356.0450 113.7195 C357.9900 110.5543 359.6675 107.0383 361.9550 104.1152 C363.6650 101.9315 365.0000 101.1638 367.7650 100.8480 Z"></path>
<path id="" fill="#f96e43" fill-opacity="1.0" stroke="#000000" stroke-width="0.0" stroke-opacity="1.0" stroke-linecap="round" stroke-linejoin="round"  filling="0" d="M145.7420 72.3503 C146.6970 72.2070 147.7173 72.2195 148.6825 72.2005 C163.4095 71.9102 178.8475 77.9265 189.3918 88.2250 C200.1767 98.7588 205.6727 114.6960 205.8360 129.5880 C205.9373 138.8350 201.7645 150.9572 197.8580 159.3488 C196.4987 162.2685 194.7820 165.0480 193.2182 167.8618 C184.6763 183.2328 174.4518 197.8647 163.9223 211.9317 C160.5708 216.4095 157.3450 221.2032 153.4252 225.1995 C152.3772 226.1678 151.3130 226.9557 150.1252 227.7428 C149.2973 227.3045 148.4908 226.8073 147.7615 226.2168 C143.0988 222.4408 139.5992 216.4205 136.1232 211.5462 C133.4422 207.7865 130.6505 204.0918 128.0367 200.2863 C123.3375 193.4445 118.9247 186.2710 114.5157 179.2340 C110.2415 172.4115 105.8112 165.4725 102.4525 158.1382 C98.7335 150.0175 96.0417 141.6777 95.0390 132.7697 C93.4398 118.5612 98.4012 102.9828 107.3025 91.9280 C116.7493 80.1955 131.0168 73.9715 145.7420 72.3503 Z"></path>
<path id="" fill="#4c241d" fill-opacity="1.0" stroke="#000000" stroke-width="0.0" stroke-opacity="1.0" stroke-linecap="round" stroke-linejoin="round"  filling="0" d="M268.3375 395.1125 C272.2250 395.1150 280.9575 394.4700 283.9400 396.7675 C285.4375 397.9225 286.3225 399.8150 286.5300 401.6675 C286.7425 403.5850 286.2600 405.5025 284.9900 406.9800 C283.0650 409.2200 280.5325 409.2725 277.8100 409.4050 C272.2325 409.5075 266.7375 409.9250 261.3275 408.2950 C259.8675 406.7500 258.9500 404.9550 258.8550 402.7900 C258.7600 400.8500 259.4500 398.9500 260.7675 397.5225 C262.8800 395.2450 265.4575 395.2100 268.3375 395.1125 Z"></path>
<path id="" fill="#4c241d" fill-opacity="1.0" stroke="#000000" stroke-width="0.0" stroke-opacity="1.0" stroke-linecap="round" stroke-linejoin="round"  filling="0" d="M227.1478 395.1125 C227.3485 395.1000 227.5495 395.0925 227.7505 395.0875 C231.0762 395.0300 238.7745 394.6325 241.6475 395.3975 C242.6248 395.6575 243.5080 396.1375 244.2083 396.8750 C245.7032 398.4450 246.1933 400.7875 246.0870 402.8975 C245.9485 405.6450 244.2103 407.0550 242.2830 408.7325 C241.1543 409.0025 239.9622 409.1050 238.8123 409.2625 C232.8270 409.7700 226.6795 409.8800 220.9603 407.8875 C219.6130 406.3275 218.9458 404.6725 218.9422 402.5925 C218.9373 399.6500 220.2930 397.2775 222.3318 395.2625 L227.1478 395.1125 Z"></path>
<path id="" fill="#4c241d" fill-opacity="1.0" stroke="#000000" stroke-width="0.0" stroke-opacity="1.0" stroke-linecap="round" stroke-linejoin="round"  filling="0" d="M250.9425 368.5450 C252.5800 368.3625 254.2125 368.3625 255.7650 368.9950 C257.0525 369.5175 258.1250 370.3475 258.6475 371.6575 C259.9550 374.9400 260.1125 389.1725 258.6425 392.4400 C257.7725 394.3725 256.1175 395.1725 254.2225 395.8175 C252.9025 396.1250 251.4900 396.0150 250.1850 395.6900 C248.7135 395.3250 247.5538 394.3275 246.8152 393.0225 C246.2640 392.0500 245.9645 390.9425 245.8062 389.8400 C245.2852 386.2200 245.6805 374.3350 246.6600 371.0425 C248.0195 369.7825 249.1990 369.1125 250.9425 368.5450 Z"></path>
<path id="" fill="#4c241d" fill-opacity="1.0" stroke="#000000" stroke-width="0.0" stroke-opacity="1.0" stroke-linecap="round" stroke-linejoin="round"  filling="0" d="M251.8950 409.1050 C253.3425 408.9050 255.3100 409.1875 256.6700 409.7525 C257.6750 410.1675 258.2375 410.6850 258.6100 411.7150 C259.8750 415.2250 259.9425 429.4300 258.2150 432.7300 C257.2275 434.6150 255.5750 435.2625 253.6475 435.8050 C252.6300 435.8325 251.6075 435.8150 250.6075 435.5925 C248.9362 435.2200 247.4970 434.2600 246.6622 432.7450 C244.7615 429.2950 245.6275 414.9625 246.6613 410.9700 L248.3647 409.4000 L251.8950 409.1050 Z"></path>
<path id="" fill="#4c241d" fill-opacity="1.0" stroke="#000000" stroke-width="0.0" stroke-opacity="1.0" stroke-linecap="round" stroke-linejoin="round"  filling="0" d="M123.0905 203.3675 C123.0720 202.5905 123.0825 201.7433 122.8100 201.0063 C121.6850 197.9665 119.4488 195.0940 117.7210 192.3640 C115.0285 188.1100 112.3118 183.7880 109.8832 179.3783 C102.3930 165.7773 93.2053 148.1953 91.9178 132.5280 C90.6758 117.4142 95.5015 101.6345 105.4232 90.0965 C115.4538 78.4317 130.4783 70.3083 145.9005 69.1260 C160.0148 68.0440 177.1613 73.3087 187.9550 82.6735 C199.9215 93.0560 207.5658 106.7747 208.6387 122.7368 C215.5910 122.6445 222.1325 124.8775 228.8040 126.5667 C231.0360 127.1317 233.3622 127.8262 235.6660 127.9853 C236.6545 128.0535 237.2015 127.8922 237.9422 127.2567 C239.9800 125.5085 241.3242 122.4603 242.4990 120.0870 C245.2760 114.4765 249.7242 103.3260 254.2950 99.2900 C256.4700 97.3685 259.4450 96.0530 262.2725 95.4688 C267.3325 94.4225 273.3025 94.9710 278.4925 94.9705 C283.8975 94.9700 289.4025 94.7565 294.7950 95.0965 C300.5300 95.4583 305.6875 97.5453 309.4550 102.0260 C315.4425 109.1478 312.5325 115.5437 311.8100 123.5797 C312.5600 124.4492 313.3400 125.2735 314.2725 125.9463 C317.1950 128.0525 329.1550 134.3483 332.3800 134.9830 C333.2750 135.1590 334.0225 135.1842 334.8200 134.6770 C337.7625 132.8017 350.3750 110.4398 353.1200 105.7725 C354.6300 103.2007 357.4400 97.5390 359.9375 95.9500 C362.4075 94.3792 371.9300 94.6508 374.7900 95.4805 C375.9775 95.8250 377.1425 96.4473 377.8175 97.5208 C380.7525 102.1892 377.5600 117.2943 379.3225 122.3867 C380.6425 126.2030 391.6325 128.5883 394.9450 135.4462 C397.5775 140.8950 398.1500 152.8963 398.7175 159.3245 C399.0275 162.8503 398.9525 166.9765 400.7400 170.1017 C400.7975 170.2032 400.8575 170.3035 400.9175 170.4045 C406.2225 173.7070 412.7625 174.6552 418.4975 177.0165 C421.1175 178.0948 424.0800 179.6413 425.9225 181.8318 C428.4225 184.8065 430.2725 188.7225 432.1975 192.1035 L442.4750 210.2050 L452.0400 226.8605 C454.6300 231.2827 457.4550 235.5985 459.4125 240.3548 C460.3775 242.6962 460.9150 245.0172 460.7850 247.5607 C460.5475 252.2300 459.0275 257.0500 458.1150 261.6500 L454.9450 277.7575 C453.9925 282.6125 453.2625 287.6875 451.3050 292.2625 C449.5500 296.3625 447.0150 300.2825 444.8025 304.1450 L432.3275 325.8575 C428.6450 332.3475 424.9275 338.8250 421.3350 345.3650 C419.1300 349.3725 417.1750 353.6850 414.6225 357.4800 C413.1400 359.6850 411.3675 361.7725 409.0675 363.1550 C402.8300 366.9100 395.7775 363.3000 390.0000 365.6525 C389.9100 365.6900 389.8200 365.7300 389.7275 365.7675 C386.4975 369.5900 384.9475 375.0650 381.1100 378.2475 C375.0400 383.2850 365.6875 382.6900 358.3275 382.5325 C355.1300 382.4650 351.8300 382.4825 348.6525 382.1075 C335.9350 380.6075 333.3875 372.2550 331.6400 361.0925 L329.6950 348.4100 C329.3100 345.8125 329.1350 342.4525 327.3725 340.3875 C326.7025 339.6050 325.7975 339.3050 324.8100 339.1275 C319.9525 338.2625 312.0925 339.5825 306.7200 338.9950 C303.9825 338.6975 302.3375 338.0125 300.6075 335.8675 C300.0150 332.6600 300.0325 329.5025 300.0500 326.2575 L287.4500 313.8400 C284.1450 310.5300 280.9175 306.8900 277.1175 304.1550 C274.0200 303.9625 270.8000 304.1875 267.6875 304.2075 L248.7603 304.2625 C242.2600 304.2625 235.7365 304.3700 229.2405 304.3025 C224.4868 304.2525 219.6755 303.9625 214.9300 304.2125 C212.9957 304.3150 211.2595 304.4925 210.1175 306.2825 C207.8820 309.7850 210.7993 319.1950 204.8752 325.4475 C200.4790 330.0875 192.7175 330.3450 186.8035 330.2725 C184.3687 330.2425 181.7247 330.0000 179.3342 330.5450 C176.4915 331.1950 174.0172 333.1100 171.6687 334.7475 C164.8562 339.5000 155.4713 347.6075 146.8965 347.6500 C141.7453 347.6775 136.5408 345.2700 132.9600 341.6250 C131.7762 340.4275 130.7715 339.0675 129.9767 337.5825 C126.6400 331.3575 128.4798 323.8900 129.5140 317.3000 C129.7802 315.6025 130.2323 313.6700 130.0110 311.9525 C129.8842 310.9700 129.4415 309.9250 129.0688 309.0075 C126.7730 303.3550 123.3135 297.9500 120.5770 292.4700 L100.1075 251.3475 C97.4677 246.0120 94.1445 240.5375 92.1590 234.9427 C91.4327 232.8967 91.1140 230.6050 91.1552 228.4328 C91.2485 223.5417 93.0850 218.4713 96.7188 215.1020 C99.6608 212.3740 109.2613 207.1980 113.1577 207.4592 C114.7068 207.5632 115.8943 208.3757 116.8755 209.5473 C118.3475 211.3045 119.1460 214.3380 118.8857 216.6203 C118.4265 220.6475 110.3120 222.6430 107.3720 225.1087 C104.0645 227.8825 105.1653 230.1432 106.8887 233.4825 C114.3367 248.1073 121.7085 262.7700 129.0035 277.4725 C132.6480 284.7550 142.2940 302.0825 143.4940 309.1550 C144.6487 315.9600 142.3520 321.1475 141.9515 327.6425 C141.8497 329.2875 141.8685 330.9425 143.0800 332.2000 C144.5038 333.6775 146.7120 333.9000 148.5920 333.3000 C150.5683 332.6675 152.2433 331.0275 153.9402 329.8725 C159.2855 326.2300 168.6715 319.1675 174.4753 317.2775 C180.2785 315.3875 186.5592 315.9625 192.5753 316.0475 L195.4665 313.3625 C195.5945 308.5450 195.1595 304.0875 197.1203 299.4925 C198.4880 296.2900 201.9362 292.9075 205.2032 291.6425 C207.5887 290.7175 210.3365 290.2475 212.8815 290.0625 C216.7990 289.7775 220.8152 289.9675 224.7475 289.9750 L244.9462 289.9875 L264.5775 289.9800 C268.6875 289.9775 272.9000 289.8100 276.9900 290.1900 C279.3425 290.4075 281.6425 291.0025 283.8050 291.9550 C285.5725 292.7525 287.2925 294.0075 288.7600 295.2625 C292.4925 298.4525 295.8900 302.2850 299.3675 305.7675 C303.5800 309.9850 309.1300 314.7800 312.5450 319.5325 C313.6475 321.0675 314.0800 323.2825 314.7575 325.0550 C317.8850 324.9900 321.0550 324.9100 324.1775 325.1100 C338.0400 325.9975 340.8550 332.2175 342.8750 344.7850 C343.7625 350.2975 344.5450 355.8425 345.5525 361.3375 C345.8825 363.1475 346.3675 366.4700 347.7425 367.7900 C349.5850 369.5600 367.6475 368.4650 371.5375 368.3250 C375.1625 363.7675 375.8300 358.6875 380.7175 354.8375 C386.7175 350.1125 395.5275 350.5775 402.6950 351.4375 C404.9925 345.5125 408.5875 340.0475 411.6700 334.5075 L432.2700 298.0025 C434.5125 293.9425 437.5425 289.9225 439.1775 285.5975 C441.1400 280.4025 441.8450 274.2700 442.8650 268.8075 C444.0150 262.6625 445.3200 256.5675 446.5450 250.4375 C446.8175 249.0820 447.2150 247.4612 446.6975 246.1322 C444.1525 239.5827 437.9800 230.6057 434.3150 224.1828 L422.2475 203.0943 C420.3375 199.7253 418.7025 196.1738 416.5900 192.9232 C415.7850 191.6868 414.9400 190.7953 413.6725 190.0210 C406.3150 185.5327 394.4650 185.8425 389.1775 178.2917 C388.1125 176.7728 387.3525 174.9055 386.8825 173.1133 C386.0850 170.0675 385.9250 166.7928 385.5950 163.6682 C385.0850 158.7372 384.5475 153.8087 383.9850 148.8833 C383.7350 146.7953 383.6600 143.9315 382.6100 142.0827 C380.9125 139.0940 371.7400 137.0275 367.5675 130.7018 C365.3700 127.3670 364.4900 121.7523 365.2575 117.8743 C363.6375 117.8792 362.5800 117.7845 361.2850 118.8947 C361.0525 119.9475 348.3725 141.0385 346.9175 142.9453 C345.7925 144.4375 344.4075 145.7173 342.8300 146.7238 C339.2600 149.0330 334.9050 149.7970 330.7625 148.8415 C325.1100 147.5315 308.5425 139.1330 303.7875 135.6913 C302.2225 134.5570 300.7625 133.1985 299.7300 131.5508 C295.5100 124.8255 300.8200 114.9438 298.9900 111.2657 C298.5250 110.3297 297.4125 109.6160 296.5900 109.0098 C291.9375 108.6985 287.1800 108.8903 282.5150 108.8915 C276.5250 108.8932 270.5200 108.7670 264.5325 108.8415 L264.3050 109.0872 C257.4075 116.6675 254.3550 132.5307 246.7677 138.5845 C244.2945 140.5582 240.9385 141.5525 237.8085 141.7400 C234.4650 141.9405 231.1008 141.1255 227.8732 140.3448 C224.9160 139.6295 212.0063 135.1150 209.9913 137.1622 C209.2510 137.9145 208.6953 139.3197 208.3002 140.3067 C207.2872 142.8367 206.7080 145.5500 205.8350 148.1335 C203.8735 153.9390 201.5952 159.8515 198.9418 165.3743 C190.0148 183.9540 177.3735 202.9350 165.4125 219.7897 C162.6765 223.6450 160.0660 228.0948 156.9037 231.5710 C155.3887 233.2363 152.9178 235.6638 150.6317 236.0190 C149.4178 236.2075 148.2080 235.2415 147.3138 234.5293 C142.8042 230.9368 139.8650 225.6147 136.5480 220.9843 C133.9290 217.3280 131.1960 213.7560 128.6715 210.0327 C127.9305 209.2280 127.0815 208.5005 126.2815 207.7538 C125.2365 208.1210 124.1552 208.5553 123.0760 208.8000 C122.3177 208.9720 121.7947 208.9212 121.1397 208.5170 C120.6902 206.9220 122.3835 204.7433 123.0905 203.3675 Z M155.6398 207.9568 C162.4835 198.5067 169.3943 188.8073 175.4218 178.8030 C179.1633 172.5935 182.4577 166.2130 185.7027 159.7352 C188.4848 154.1820 191.3140 148.7672 192.9563 142.7380 C195.1125 134.8215 195.5347 127.7793 194.2020 119.6942 C192.5943 109.9425 188.5030 102.9635 181.6695 95.9865 C179.7425 94.0190 177.7603 92.0405 175.5067 90.4463 C166.7292 84.2370 153.9510 81.4950 143.4015 83.3255 C131.4020 85.4075 120.7655 92.7207 113.8530 102.6118 C106.7870 112.7230 104.2988 124.5938 106.5172 136.7643 C107.7103 143.3082 110.4490 149.1805 113.2598 155.1420 C114.4910 157.7533 115.5527 160.4458 116.8727 163.0140 C123.2525 175.4290 131.2263 187.3500 138.9305 198.9758 C140.0282 200.6322 146.2182 208.9895 146.3743 209.7478 C146.9538 210.4252 147.4885 211.1670 148.1198 211.7968 C148.7865 212.4617 149.7470 213.0112 150.7242 212.9065 C152.7005 212.6945 154.5448 209.4575 155.6398 207.9568 Z"></path>
<path id="" fill="#feddd4" fill-opacity="1.0" stroke="#000000" stroke-width="0.0" stroke-opacity="1.0" stroke-linecap="round" stroke-linejoin="round"  filling="0" d="M123.0905 203.3675 C123.2032 202.6523 123.2907 201.9693 123.3085 201.2448 C124.5717 202.5735 128.5875 208.3517 128.6715 210.0327 C127.9305 209.2280 127.0815 208.5005 126.2815 207.7538 C125.2365 208.1210 124.1552 208.5553 123.0760 208.8000 C122.3177 208.9720 121.7947 208.9212 121.1397 208.5170 C120.6902 206.9220 122.3835 204.7433 123.0905 203.3675 Z"></path>
<path id="" fill="#fdcc55" fill-opacity="1.0" stroke="#000000" stroke-width="0.0" stroke-opacity="1.0" stroke-linecap="round" stroke-linejoin="round"  filling="0" d="M361.2850 118.8947 C361.6250 116.5348 364.1825 113.5245 365.5725 111.5450 C365.5950 112.9910 366.0000 116.7270 365.2575 117.8743 C363.6375 117.8792 362.5800 117.7845 361.2850 118.8947 Z"></path>
<path id="" fill="#4c241d" fill-opacity="1.0" stroke="#000000" stroke-width="0.0" stroke-opacity="1.0" stroke-linecap="round" stroke-linejoin="round"  filling="0" d="M359.7000 183.1087 C362.0075 182.9818 364.3525 182.9843 366.6600 183.0495 C379.5325 183.4133 392.6000 187.7652 402.5725 196.0827 C405.0075 198.1127 407.2775 200.5312 409.4475 202.8438 C420.2650 214.3777 424.5725 230.1630 423.9875 245.6927 C423.2075 266.3875 407.4925 292.1050 396.5875 309.4150 C394.7975 312.2550 393.1325 315.1750 391.2700 317.9700 C389.2400 321.0125 386.9950 323.9075 384.9425 326.9375 C381.5600 331.9275 378.1000 336.7850 374.4950 341.6175 C372.8375 343.8375 371.2625 346.2775 369.2275 348.1750 C368.1425 348.9025 366.9075 349.8600 365.5600 349.9425 C363.8875 350.0450 362.1500 348.5225 360.9675 347.4775 C356.5700 343.5875 350.9350 334.8075 347.3775 329.7825 C331.4425 307.2900 307.7925 271.7575 306.2925 243.9617 C305.4375 228.1698 311.7250 212.8835 322.2350 201.2935 C330.8350 191.8112 346.8725 183.7892 359.7000 183.1087 Z M366.8875 276.2200 C384.4625 275.4225 398.1150 260.6100 397.4775 243.0270 C396.8400 225.4433 382.1550 211.6570 364.5650 212.1320 C346.7475 212.6133 332.7400 227.5340 333.3850 245.3477 C334.0300 263.1625 349.0800 277.0300 366.8875 276.2200 Z"></path>
<path id="" fill="#a8b959" fill-opacity="1.0" stroke="#000000" stroke-width="0.0" stroke-opacity="1.0" stroke-linecap="round" stroke-linejoin="round"  filling="0" d="M363.8850 196.6060 C373.8675 196.1440 383.3850 199.1678 391.4550 205.0505 C401.4825 212.3200 408.1875 223.3013 410.0675 235.5443 C410.8900 240.9810 410.7100 246.5225 409.5350 251.8950 C404.2950 275.6425 380.4300 309.8625 365.9250 329.8450 C365.7125 330.1925 365.5825 330.3025 365.2675 330.5475 C365.0125 330.4425 364.9350 330.4325 364.7025 330.2200 C364.0050 329.5775 363.5125 328.3225 362.9550 327.5200 C361.2050 325.0025 359.3625 322.5425 357.5750 320.0500 C344.5050 301.8450 321.8425 267.5425 320.2150 245.1407 C319.2750 232.2445 323.2225 221.4937 331.7150 211.8158 C340.5250 201.7778 350.7875 197.4818 363.8850 196.6060 Z M366.8875 276.2200 C384.4625 275.4225 398.1150 260.6100 397.4775 243.0270 C396.8400 225.4433 382.1550 211.6570 364.5650 212.1320 C346.7475 212.6133 332.7400 227.5340 333.3850 245.3477 C334.0300 263.1625 349.0800 277.0300 366.8875 276.2200 Z"></path>
<path id="" fill="#4c241d" fill-opacity="1.0" stroke="#000000" stroke-width="0.0" stroke-opacity="1.0" stroke-linecap="round" stroke-linejoin="round"  filling="0" d="M71.3575 307.9125 C84.6710 306.0025 96.9950 315.2925 98.8242 328.6175 C100.6537 341.9425 91.2895 354.2100 77.9543 355.9600 C64.7312 357.6950 52.5890 348.4275 50.7750 335.2150 C48.9612 322.0025 58.1562 309.8050 71.3575 307.9125 Z M76.5490 341.6825 C79.2655 341.3125 81.3605 340.6900 83.0768 338.3500 C84.8423 335.9425 85.0762 332.1400 84.5520 329.2575 C84.1283 326.9250 82.8220 324.8000 80.8330 323.4825 C78.6355 322.0275 75.9860 321.8675 73.4355 322.0975 C70.6030 322.4025 68.4912 323.3425 66.6620 325.6500 C64.7685 328.0375 64.3402 331.0675 64.7502 334.0200 C65.0840 336.4250 66.0713 338.7850 68.0930 340.2400 C70.6830 342.1025 73.5527 341.9500 76.5490 341.6825 Z"></path>
<path id="" fill="#4c241d" fill-opacity="1.0" stroke="#000000" stroke-width="0.0" stroke-opacity="1.0" stroke-linecap="round" stroke-linejoin="round"  filling="0" d="M358.8700 209.1947 C377.6300 206.0697 395.3575 218.7840 398.4150 237.5553 C401.4725 256.3275 388.6925 274.0075 369.9125 276.9975 C351.2250 279.9700 333.6550 267.2700 330.6125 248.5963 C327.5725 229.9212 340.2075 212.3038 358.8700 209.1947 Z M366.6650 263.4175 C377.8250 262.3325 385.9650 252.3700 384.8050 241.2198 C383.6450 230.0692 373.6300 221.9945 362.4875 223.2275 C351.4475 224.4490 343.4650 234.3517 344.6125 245.3985 C345.7625 256.4450 355.6125 264.4950 366.6650 263.4175 Z"></path>
<path id="" fill="#4c241d" fill-opacity="1.0" stroke="#000000" stroke-width="0.0" stroke-opacity="1.0" stroke-linecap="round" stroke-linejoin="round"  filling="0" d="M147.1550 94.7905 C166.1082 93.3775 182.5943 107.6517 183.9073 126.6120 C185.2202 145.5725 170.8593 161.9830 151.8920 163.1960 C133.0660 164.4000 116.8040 150.1687 115.5007 131.3492 C114.1975 112.5298 128.3427 96.1930 147.1550 94.7905 Z"></path>
<path id="" fill="#fefefe" fill-opacity="1.0" stroke="#000000" stroke-width="0.0" stroke-opacity="1.0" stroke-linecap="round" stroke-linejoin="round"  filling="0" d="M143.9435 148.8353 C135.5132 146.2668 129.6617 138.6057 129.4020 129.7968 C129.1420 120.9875 134.5318 112.9950 142.7960 109.9340 C151.0603 106.8730 160.3562 109.4262 165.8972 116.2793 C171.4385 123.1322 171.9892 132.7565 167.2663 140.1970 C162.3180 147.9920 152.7758 151.5262 143.9435 148.8353 Z"></path>
<path id="" fill="#feded5" fill-opacity="1.0" stroke="#000000" stroke-width="0.0" stroke-opacity="1.0" stroke-linecap="round" stroke-linejoin="round"  filling="0" d="M143.9435 148.8353 L145.1398 148.7787 C148.6268 146.5335 163.4535 139.6978 167.2663 140.1970 C162.3180 147.9920 152.7758 151.5262 143.9435 148.8353 Z"></path>
<path id="" fill="#4c241d" fill-opacity="1.0" stroke="#000000" stroke-width="0.0" stroke-opacity="1.0" stroke-linecap="round" stroke-linejoin="round"  filling="0" d="M353.0825 395.6250 C358.2575 395.4850 370.2350 395.0850 374.8700 396.0675 C376.5950 396.4350 378.2275 397.0975 379.6650 398.1300 C382.0450 399.8400 383.5200 402.7550 383.9525 405.6125 C384.1375 406.8400 384.0800 407.7650 383.7600 408.9575 C382.7675 412.6700 373.2150 438.5250 371.5975 440.5925 C370.4075 442.1125 369.0325 442.9175 367.1300 443.1275 C365.0475 442.6875 363.4375 441.8725 361.8425 440.4650 C357.5775 436.7000 353.9775 431.8100 350.2125 427.5250 C346.4125 423.2000 340.4150 417.2550 337.4675 412.5675 C336.5175 411.0550 336.0150 409.4475 335.9300 407.6625 C335.7750 404.4775 336.8525 401.4575 339.0600 399.1450 C342.8100 395.2200 348.1175 395.7000 353.0825 395.6250 Z"></path>
<path id="" fill="#fecd55" fill-opacity="1.0" stroke="#000000" stroke-width="0.0" stroke-opacity="1.0" stroke-linecap="round" stroke-linejoin="round"  filling="0" d="M352.0850 409.2150 L369.5425 409.2175 L365.7600 419.4675 C365.2500 420.6850 364.8550 421.9875 364.4175 423.2325 C360.3400 418.5525 356.3450 413.7275 352.0850 409.2150 Z"></path>
<path id="" fill="#4c241d" fill-opacity="1.0" stroke="#000000" stroke-width="0.0" stroke-opacity="1.0" stroke-linecap="round" stroke-linejoin="round"  filling="0" d="M175.4620 381.7050 C179.4113 380.8650 183.2993 383.3650 184.1725 387.3075 C185.0455 391.2500 182.5773 395.1575 178.6427 396.0650 C175.8638 396.7050 172.9653 395.6800 171.2052 393.4375 C169.4453 391.1925 169.1410 388.1350 170.4245 385.5875 C171.4280 383.5950 173.2807 382.1675 175.4620 381.7050 Z"></path>
</svg>