<svg xmlns="http://www.w3.org/2000/svg" viewBox="0 0 512 512" height="512.0px" width="512.0px">
<path id="" fill="#e66352" fill-opacity="1.0" stroke="#000000" stroke-width="0.0" stroke-opacity="1.0" stroke-linecap="round" stroke-linejoin="round"  filling="0" d="M412.1300 230.0555 C420.1025 229.8200 428.1475 230.0135 436.1300 229.9953 C441.9725 229.9820 448.2500 229.5020 454.0200 230.3378 C455.5775 237.0432 454.8350 244.9832 454.8225 251.8700 L454.8025 280.9475 L454.8050 340.8750 C454.8050 352.2375 455.0825 363.6725 454.6550 375.0275 C454.5750 377.1500 454.4750 379.1650 453.6675 381.1600 C452.7425 381.9350 450.6225 381.9300 449.4200 381.9850 C445.1075 382.1825 440.7250 382.0200 436.4025 382.0200 L411.5375 382.0200 L336.1250 382.0150 L307.5075 382.0250 C303.9925 382.0300 298.6625 382.3950 295.3350 382.1100 C294.5600 382.0425 294.2275 381.9050 293.6550 381.3925 L293.6525 380.9425 C295.9200 378.9000 303.4900 376.7450 306.7000 375.4450 C310.5400 373.8925 314.3800 372.2700 318.1025 370.4475 C327.5950 365.8975 336.6175 360.4275 345.0400 354.1150 C377.8650 329.6650 399.3875 293.0000 408.4500 253.4000 C410.2175 245.6732 410.9825 237.8743 412.1300 230.0555 Z"></path>
<path id="" fill="#e66353" fill-opacity="1.0" stroke="#000000" stroke-width="0.0" stroke-opacity="1.0" stroke-linecap="round" stroke-linejoin="round"  filling="0" d="M61.7175 183.5383 L107.7985 183.5350 C114.3150 183.5112 121.0185 184.0527 127.5015 183.6210 C125.6947 192.2858 110.6240 215.5237 105.1255 223.2700 C102.7435 226.6140 100.2225 229.8565 97.5688 232.9890 C89.3900 242.7080 80.7615 250.3350 70.3260 257.6075 C68.0725 259.1775 65.4577 261.2750 62.9120 262.2975 C62.3685 262.5150 62.2790 262.6075 61.7215 262.3750 C61.6885 262.2800 61.6478 262.1900 61.6223 262.0950 C61.0348 259.8875 61.4178 250.7475 61.4178 248.0018 L61.3970 212.0685 L61.3402 194.0125 C61.3275 191.0143 61.1430 187.9212 61.3145 184.9373 C61.3475 184.3645 61.4565 184.0395 61.7175 183.5383 Z"></path>
<path id="" fill="rgb(254,230,218)" fill-opacity="1.0" stroke="#000000" stroke-width="0.0" stroke-opacity="1.0" stroke-linecap="round" stroke-linejoin="round"  filling="0" d="M120.3717 183.9807 C122.3687 183.8480 124.9730 183.6537 126.9125 184.0892 L127.2050 184.6552 C127.2270 188.2063 123.8223 192.5485 122.1888 195.5995 C121.5378 196.9410 120.7657 198.5680 119.1933 199.0270 C118.8085 199.1393 118.8962 199.0570 118.5115 198.7825 C117.7798 196.2185 119.5430 192.3470 119.9320 189.6810 C120.2053 187.8090 120.2613 185.8695 120.3717 183.9807 Z"></path>
<path id="" fill="#fb8b29" fill-opacity="1.0" stroke="#000000" stroke-width="0.0" stroke-opacity="1.0" stroke-linecap="round" stroke-linejoin="round"  filling="0" d="M178.0047 183.3305 C177.6950 172.5005 183.8898 159.9275 191.2295 152.2052 C201.3913 141.5143 213.9670 135.8172 228.8105 135.5217 C241.6013 135.2670 254.6050 140.7422 263.7775 149.6185 C272.1775 157.7485 278.8900 170.3945 279.0700 182.2487 C279.0750 183.1115 279.0650 183.9740 279.0350 184.8362 C284.5150 186.4870 289.7300 189.1630 295.0775 191.1985 L329.5850 204.5445 C338.8550 208.1908 348.0575 211.9323 357.4925 215.1593 C363.9900 212.2350 370.7000 208.5558 376.7675 204.8150 C380.6675 202.4113 384.5500 199.3735 388.6900 197.4413 C389.6650 196.9865 391.4750 196.5925 392.5275 196.9238 C393.1050 197.1062 393.3150 197.2408 393.5325 197.8017 C395.2800 202.3400 391.0225 224.2408 389.6900 229.3772 C393.8325 229.8118 398.1400 229.5412 402.3075 229.5595 C405.4875 229.5735 408.7750 229.8940 411.9300 229.5022 L412.3350 229.4547 C411.9600 240.1215 410.2400 248.6763 407.6600 258.9625 C399.3675 291.9900 383.1450 321.0650 358.1775 344.3600 C355.3600 346.9925 346.5725 352.8950 345.8500 355.9850 C345.9750 356.5425 345.9825 356.6675 346.3700 357.0775 L346.7025 357.1800 C357.0700 356.2850 370.5825 351.6725 379.2725 346.0075 C381.2100 344.7450 386.5825 339.2800 388.6450 339.8225 C389.1800 340.3800 389.1700 341.0750 389.1500 341.8050 C388.9125 350.2300 380.2925 371.2150 376.1350 378.6875 C372.7300 384.8125 365.5325 395.1925 360.4075 399.8775 C342.9225 415.8475 323.0700 424.1275 299.2475 422.9450 C281.7925 422.0800 262.4475 412.8850 250.7525 399.9675 C247.4295 396.2975 241.5773 389.0525 239.7445 384.5400 C238.7430 384.6625 237.7943 384.7550 236.7845 384.7325 C236.8585 394.7650 238.5293 406.1125 242.2945 415.4125 C243.6595 418.7825 245.3090 422.3000 247.1413 425.4400 C248.3795 427.5650 249.9337 429.6600 250.9125 431.9125 C251.1850 432.5375 251.4050 433.1600 251.2775 433.8400 C249.2815 434.3525 246.8430 434.1250 244.7790 434.0850 C234.2285 433.8825 225.4350 431.1525 216.3760 425.7950 C208.1487 420.9325 201.1998 413.5900 196.3237 405.3750 C195.3875 405.7050 194.4563 406.0475 193.5020 406.3225 C195.4702 412.7350 199.4908 420.4600 203.3528 425.8600 C204.6098 427.6175 208.3582 431.3475 208.3602 433.4575 C208.1068 433.6375 208.1065 433.6575 207.7648 433.7800 C203.7035 435.2575 189.3485 431.8950 185.1102 430.4850 C181.7717 429.3625 178.5318 427.9675 175.4230 426.3100 C162.5905 419.4200 150.4050 408.2675 144.1703 394.9050 C143.0195 392.4400 142.2397 389.8675 141.4527 387.2725 C140.5623 387.7100 139.8535 387.7325 138.8707 387.7600 C138.8090 391.1775 139.3945 394.8925 139.9350 398.2675 C142.3045 413.0750 147.5052 421.3975 155.7170 433.3975 C150.7350 434.3575 146.0022 433.8900 141.0320 432.9900 C126.7175 430.4025 111.9518 423.2300 102.8692 411.5500 C100.1898 408.1050 97.9205 404.2625 95.8752 400.4125 C95.3810 399.4800 94.3220 396.0825 93.5443 395.6700 C92.3517 396.7575 91.4655 397.6075 90.7997 399.1100 C85.6770 397.4150 80.2890 393.4175 76.4863 389.6500 C63.4930 376.7750 59.9860 359.4950 60.0148 341.8875 C60.0200 338.6075 59.9475 335.5750 62.4232 333.1125 C67.5500 332.7075 72.9040 333.0150 78.0595 333.0200 L107.3960 333.0425 L159.5963 333.0450 C165.2677 333.0400 170.9953 332.7100 176.6532 332.8025 L205.5378 333.0425 C213.7555 333.0425 222.3315 333.5425 230.3750 331.5925 C237.6420 329.8300 243.6915 324.1300 247.4917 317.8250 C251.3875 311.3625 252.5225 301.9850 250.6400 294.7200 C248.0643 284.7850 239.9258 277.2300 230.2490 274.2475 C223.2465 272.0900 212.7852 272.9675 205.3618 272.9800 L179.7522 272.9875 C164.9957 272.9750 150.1910 273.2125 135.4400 272.9375 C130.4408 272.8450 125.4735 272.0675 120.4772 272.0400 L84.9473 272.0075 C78.8832 272.0150 72.7578 272.2175 66.7030 271.9925 C65.5915 271.9500 63.6880 271.9475 62.7835 271.2700 C61.6662 270.4375 61.3112 268.4125 61.1615 267.1275 C60.8940 264.8300 60.8755 257.5250 62.2298 255.7875 C62.9798 254.8225 71.4500 249.9928 73.5030 248.5598 C82.2995 242.4190 91.4268 236.2700 99.3242 228.9803 C103.6210 225.0143 105.7852 219.9605 109.3315 215.4580 C110.2668 213.3098 111.7000 211.2298 112.8365 209.1695 C115.1705 204.9393 117.0618 200.6232 118.5013 196.0087 C119.7953 191.8650 120.0210 188.2155 120.0042 183.9093 C124.3217 183.0820 128.9872 183.2345 133.3723 183.2290 L148.5952 183.2227 C158.3435 183.2227 168.2858 182.8067 178.0047 183.3305 Z"></path>
<path id="" fill="#e66353" fill-opacity="1.0" stroke="#000000" stroke-width="0.0" stroke-opacity="1.0" stroke-linecap="round" stroke-linejoin="round"  filling="0" d="M389.6900 229.3772 C393.8325 229.8118 398.1400 229.5412 402.3075 229.5595 C405.4875 229.5735 408.7750 229.8940 411.9300 229.5022 L412.3350 229.4547 C411.9600 240.1215 410.2400 248.6763 407.6600 258.9625 C399.3675 291.9900 383.1450 321.0650 358.1775 344.3600 C355.3600 346.9925 346.5725 352.8950 345.8500 355.9850 C345.9750 356.5425 345.9825 356.6675 346.3700 357.0775 L346.7025 357.1800 C346.0125 357.3775 345.3300 357.4925 344.6175 357.5675 C341.5450 357.8975 338.4575 358.0000 335.3775 357.7150 C332.0775 357.4100 316.2900 354.2200 314.1825 352.3050 C313.8150 351.9725 313.9325 352.1250 313.8825 351.5750 C315.1225 350.8575 317.7475 351.0750 319.2775 350.9000 C322.8125 350.5225 326.3125 349.8775 329.7500 348.9725 C336.8975 347.0575 344.0300 343.6675 350.2475 339.6750 C364.1000 330.7800 371.9250 321.5500 380.1125 307.4200 C385.9775 297.3025 390.5875 285.7900 392.2800 274.1925 C392.5150 272.5950 393.0550 270.4350 392.6425 268.8825 C390.5150 268.4975 382.2675 274.5200 379.9425 276.0175 C376.7475 278.0725 368.2100 283.6275 364.9575 284.8750 C364.2200 285.1600 363.8475 285.2750 363.0850 285.1100 L362.8975 284.6725 C363.0275 283.8775 363.2850 283.3200 363.7050 282.6300 C364.9750 280.5350 366.7050 278.6500 368.1150 276.6325 C371.1075 272.3500 373.8825 267.7675 376.3225 263.1500 C379.6600 256.8300 382.8775 250.5000 385.1750 243.7145 C386.7575 239.0493 387.7600 233.8780 389.6900 229.3772 Z"></path>
<path id="" fill="rgb(242,91,89)" fill-opacity="1.0" stroke="#000000" stroke-width="0.0" stroke-opacity="1.0" stroke-linecap="round" stroke-linejoin="round"  filling="0" d="M109.3315 215.4580 C110.2668 213.3098 111.7000 211.2298 112.8365 209.1695 C115.1705 204.9393 117.0618 200.6232 118.5013 196.0087 C119.6243 197.8828 119.4875 199.9263 118.9883 201.9900 C118.2213 205.1610 113.9453 213.0885 111.1367 214.5647 C110.8755 214.7023 110.5973 214.7950 110.3220 214.8983 C109.9555 215.0358 109.6540 215.2410 109.3315 215.4580 Z"></path>
<path id="" fill="rgb(244,248,229)" fill-opacity="1.0" stroke="#000000" stroke-width="0.0" stroke-opacity="1.0" stroke-linecap="round" stroke-linejoin="round"  filling="0" d="M193.5020 406.3225 C191.7527 404.2825 191.0182 394.7725 191.2032 392.0125 C192.4370 396.6725 194.3920 400.9750 196.3237 405.3750 C195.3875 405.7050 194.4563 406.0475 193.5020 406.3225 Z"></path>
<path id="" fill="rgb(244,248,229)" fill-opacity="1.0" stroke="#000000" stroke-width="0.0" stroke-opacity="1.0" stroke-linecap="round" stroke-linejoin="round"  filling="0" d="M138.9207 380.0075 C140.0575 382.3800 140.8593 384.7100 141.4527 387.2725 C140.5623 387.7100 139.8535 387.7325 138.8707 387.7600 C138.2935 385.3325 138.7063 382.4550 138.9207 380.0075 Z"></path>
<path id="" fill="rgb(244,248,229)" fill-opacity="1.0" stroke="#000000" stroke-width="0.0" stroke-opacity="1.0" stroke-linecap="round" stroke-linejoin="round"  filling="0" d="M236.7845 384.7325 C235.9620 383.2400 236.7475 379.9100 237.0375 378.2350 C238.0505 380.2875 238.9540 382.3925 239.7445 384.5400 C238.7430 384.6625 237.7943 384.7550 236.7845 384.7325 Z"></path>
<path id="" fill="#e66353" fill-opacity="1.0" stroke="#000000" stroke-width="0.0" stroke-opacity="1.0" stroke-linecap="round" stroke-linejoin="round"  filling="0" d="M356.9325 87.3528 C362.0550 86.4770 369.3900 87.1942 374.0725 89.4670 C377.8500 91.3000 380.7300 94.1933 382.0925 98.2233 C382.6075 99.7465 382.8725 101.3603 382.9775 102.9622 C383.4750 110.7168 383.0100 118.7678 383.0075 126.5527 C383.0025 133.9435 383.4625 141.5522 383.0525 148.9180 C382.9900 150.0440 382.8875 151.3580 382.3375 152.3622 C379.8000 156.9835 365.9125 168.2547 361.2200 172.5010 L328.8500 201.7762 C325.5600 204.7657 322.7600 208.3805 319.2600 211.1268 C317.2300 212.7213 314.9725 213.6505 312.5400 214.4603 C301.3325 211.0833 293.1275 202.8158 284.5825 195.2522 C282.4025 193.2720 279.9475 191.3663 279.0150 188.4530 C277.1975 182.7612 277.9750 172.2303 277.9950 165.9150 L277.9900 148.6620 C277.9850 141.3217 277.4925 131.8095 278.1175 124.6622 C278.3075 122.5165 278.8450 120.3313 279.8600 118.4207 C281.8000 114.7758 285.5100 112.1805 289.4050 110.9883 C293.9050 109.6113 305.6800 109.6647 310.3925 110.6640 C311.9200 110.9877 313.4475 111.6243 314.8200 112.3595 C323.6500 117.0870 323.0525 124.3045 323.0750 132.9557 C323.0825 136.7453 323.3000 140.4925 323.6550 144.2625 C323.7650 145.4453 323.4500 147.3828 323.9450 148.4420 C324.2675 149.1342 324.4325 149.1475 325.1075 149.3795 C325.8025 149.3080 326.1950 148.9967 326.7325 148.5813 C328.7325 147.0295 330.4400 145.0610 332.3200 143.3607 C334.8825 141.0435 337.6925 139.0152 340.0375 136.4670 C339.8075 129.5325 339.9600 122.5508 339.9600 115.6113 C339.9600 110.2575 339.4700 104.3340 340.4925 99.0623 C340.8850 97.0318 341.6725 95.1613 342.9700 93.5403 C346.4900 89.1438 351.5850 87.9012 356.9325 87.3528 Z"></path>
<path id="" fill="#e66352" fill-opacity="1.0" stroke="#000000" stroke-width="0.0" stroke-opacity="1.0" stroke-linecap="round" stroke-linejoin="round"  filling="0" d="M279.1025 192.6138 C279.2050 192.6225 279.3050 192.6265 279.4075 192.6398 C282.6425 193.0623 290.1750 199.4108 292.1450 202.1198 C292.4100 202.9402 292.0850 203.6015 291.8225 204.3793 C291.1350 204.2892 290.5275 204.1770 289.9000 203.8685 C287.9700 202.9175 280.1675 197.6167 279.1875 196.1382 C278.5800 195.2235 278.9650 193.6350 279.1025 192.6138 Z"></path>
<path id="" fill="rgb(238,88,77)" fill-opacity="1.0" stroke="#000000" stroke-width="0.0" stroke-opacity="1.0" stroke-linecap="round" stroke-linejoin="round"  filling="0" d="M304.2975 211.6605 C304.5800 211.6958 304.7300 211.7068 304.9950 211.7635 C306.3425 212.0522 308.2575 212.7478 308.9425 214.0397 C309.3200 214.7567 309.1300 215.3155 308.9300 216.0440 C308.0625 216.0375 307.2150 215.9985 306.3775 215.7480 C305.4850 215.4805 304.5425 214.9985 304.1500 214.1003 C303.7750 213.2428 304.0000 212.4815 304.2975 211.6605 Z"></path>
<path id="" fill="#4c241d" fill-opacity="1.0" stroke="#000000" stroke-width="0.0" stroke-opacity="1.0" stroke-linecap="round" stroke-linejoin="round"  filling="0" d="M339.1875 131.5157 C338.8925 126.3362 339.0125 121.1055 339.0100 115.9173 C339.0075 110.0275 338.6075 103.7767 339.7600 97.9860 C340.4450 94.5447 341.6975 91.0598 344.0475 88.3928 C347.7450 84.1982 353.7325 82.4102 359.1600 82.1390 C365.8700 81.8035 371.9250 83.6783 376.9150 88.2408 C381.9125 92.8083 383.7475 98.3918 384.0350 105.0365 C384.3700 112.7945 384.0425 120.6608 384.0525 128.4310 C384.0575 132.7335 384.7150 146.2465 383.7850 149.6752 C383.2800 151.5338 381.4375 153.3047 380.1575 154.6913 C377.1500 157.9525 373.7425 160.8808 370.5825 164.0020 C364.9550 169.5592 359.4350 175.2547 353.7275 180.7263 C350.3250 183.9880 337.1200 194.9315 335.6475 198.7180 C335.6925 199.1528 335.6050 199.5145 335.9550 199.8177 C338.0275 201.6105 354.3450 207.4128 358.3800 209.2655 C361.2425 207.6622 363.8375 205.4077 366.4825 203.4550 L380.0400 193.5765 C382.2600 191.9662 384.7275 189.7745 387.2925 188.8237 C389.2225 188.1093 391.0325 188.2742 392.9775 188.8155 C393.2200 188.8830 393.4600 188.9612 393.7000 189.0380 C394.3800 189.8065 395.0125 190.5435 395.4125 191.5015 C397.2450 195.9052 397.0300 204.0690 396.7375 208.7515 C396.3150 215.5510 395.1825 222.8140 393.1300 229.3147 C403.9175 228.7255 414.8775 229.0770 425.6850 229.0748 C433.3700 229.0733 452.1450 228.2733 458.6575 230.1765 C460.2025 231.8253 460.8900 233.7070 460.8375 235.9868 C460.8000 237.6930 460.2400 239.3678 458.9275 240.5145 C457.7500 241.5453 456.3100 241.8698 454.7900 242.0327 C449.6000 242.5892 442.3050 242.1022 436.8650 242.0988 L399.0125 242.0820 C396.3025 242.0820 387.6950 241.6378 385.7000 242.5282 C384.4125 242.3253 382.6400 241.8355 381.3850 242.0493 L381.1125 242.8750 C381.0975 242.4990 381.0275 242.1705 380.9500 241.8033 C379.1375 240.2790 377.7850 239.0690 376.8575 236.8268 C379.6800 228.4543 383.9775 218.8640 383.2675 209.8875 C382.4700 209.8290 381.6650 209.6310 380.8800 209.4780 C376.5850 212.1105 372.5800 215.4807 368.5250 218.4895 C366.6425 219.8878 364.7000 221.4767 362.5825 222.5035 C361.1250 223.2108 359.0450 222.9335 357.5250 222.5840 C353.6800 221.6990 350.0575 219.8620 346.4025 218.4218 C338.6500 215.3663 330.9250 212.1540 323.0975 209.3002 C320.3775 212.4950 314.2875 219.0890 310.8450 221.1255 C309.5075 221.9175 308.1850 222.1895 306.6650 221.7510 C304.6325 221.1645 303.0150 219.2720 302.0950 217.4460 C301.3400 215.9507 300.5900 211.9987 301.1425 210.3997 C304.0375 209.6805 305.7075 208.1082 307.9125 206.2105 C316.0200 199.2355 323.7750 190.3760 331.5525 182.8615 L360.4600 154.9828 C363.9500 151.6725 367.6850 148.7750 371.0700 145.3078 C370.6550 135.1777 371.0050 124.8610 371.0150 114.7112 C371.0200 110.9987 371.4275 106.8890 370.9150 103.2285 C370.6950 101.6640 370.1600 100.1942 369.1950 98.9330 C367.5600 96.7960 364.9775 95.4702 362.3300 95.1330 C359.7725 94.8002 357.1925 95.5560 355.2175 97.2162 C353.6475 98.5155 352.9975 100.1693 352.5625 102.1017 C351.9100 104.9942 352.0750 108.1103 352.0725 111.0587 C352.0375 116.1223 352.0550 121.1860 352.1200 126.2490 C352.1475 129.2202 352.4050 132.4142 352.0475 135.3570 C351.8500 136.9860 351.0375 138.1430 350.0400 139.3983 C347.3975 142.7218 343.9525 145.4955 341.0500 148.6055 C339.1450 150.6447 337.4650 152.8842 335.5725 154.9350 C333.2725 157.4263 330.7975 159.7677 328.4250 162.1897 C327.0150 163.6300 325.7000 165.2770 324.0925 166.5015 C322.5025 167.7148 320.6850 168.3777 318.6750 168.0585 C316.3725 167.6930 314.8475 166.0282 314.0650 163.9100 C312.8700 160.6647 313.1300 157.0585 313.1375 153.6602 L313.1850 138.9640 C313.1975 135.6315 313.5125 131.8793 312.8425 128.6085 C312.5750 127.2460 311.9900 125.9658 311.1350 124.8717 C309.3000 122.5417 306.3800 121.2807 303.4825 120.9803 C299.9300 120.6125 295.3875 120.7177 292.5325 123.1100 C290.4125 124.8882 289.2400 127.0655 288.6350 129.7335 C287.5200 134.6705 288.0550 140.4200 288.0750 145.4653 L288.0875 174.2665 C288.1000 179.0735 288.5475 184.2190 288.0425 188.9825 C287.7475 191.7793 285.0100 193.7725 282.9450 195.4090 C280.7050 197.1835 275.1400 201.7020 272.0125 200.9852 C270.5850 200.6590 268.6375 198.4370 267.8425 197.2787 C266.5075 195.3355 266.7900 193.2360 267.2350 191.0663 C268.8400 189.1223 270.7625 187.5938 272.8150 186.1458 C271.8100 179.4037 269.4925 172.6385 265.6525 166.9720 C259.7175 158.2153 250.0450 151.2872 239.5883 149.3203 C236.8250 148.8002 234.0315 148.7390 231.2287 148.7328 C222.4673 148.7130 214.9275 150.5475 207.6220 155.5813 C197.6882 162.4260 191.3315 172.2665 189.4483 184.1565 C188.9945 187.0210 189.4628 190.0477 188.8772 192.8797 C188.5457 194.4830 187.7688 195.9668 186.2995 196.8058 C184.9382 197.5830 182.2932 197.7525 180.7190 197.8432 C172.8802 198.2953 164.8055 197.8963 156.9342 197.8975 L137.2650 197.8705 C134.0177 197.8438 130.0578 198.1747 126.9033 197.3997 C126.5132 199.3463 126.2440 201.3160 125.8480 203.2650 C135.5728 206.3728 146.6743 217.1183 153.3415 224.9498 C158.6840 231.2253 162.9575 237.2270 170.4767 241.1617 C183.4353 247.9433 202.9965 245.1520 216.4342 240.6690 C221.5850 238.9505 226.3987 236.4055 231.5822 234.7507 C232.5078 235.2473 233.3463 235.7595 234.1187 236.4792 C235.7903 238.0367 237.2410 240.3025 237.2632 242.6545 C237.2778 244.1765 236.5208 245.4695 235.4380 246.4900 C233.3568 248.4518 230.3197 249.6398 227.7095 250.7050 C217.5415 254.8300 206.7960 257.3550 195.8548 258.1925 C193.7795 258.3625 191.6090 258.6450 189.5325 258.6000 C175.2693 258.2900 162.6102 254.3650 152.4100 244.0838 C148.8253 240.4707 145.7937 236.4003 142.2603 232.7625 C141.4105 232.9455 140.5432 233.1013 139.7068 233.3375 C139.9852 236.6060 140.9212 239.8280 141.4458 243.0680 C142.4845 249.3750 142.8542 255.7750 142.5493 262.1600 C146.6693 261.7650 150.9395 261.8800 155.0818 261.8725 L177.1617 261.9400 C186.9917 261.8800 196.8223 261.8800 206.6525 261.9375 C214.1355 261.9275 221.9505 261.4150 229.3365 262.7850 C235.3927 263.8925 241.0692 266.5175 245.8360 270.4150 C255.1200 278.0125 260.6725 287.0475 261.7850 299.1275 C262.8325 310.4675 259.9725 321.1300 252.5325 329.9250 C245.0250 338.7975 234.8505 343.8900 223.2603 344.7725 C214.5168 345.4400 205.4085 344.9250 196.6252 344.9200 L147.1017 344.9300 L95.7500 344.9300 C87.4453 344.9300 77.9788 345.4075 69.8408 344.8300 C69.9385 348.6675 69.8932 352.5100 70.4100 356.3225 C71.7422 366.1500 76.6552 376.3550 83.9528 383.1650 C84.1230 383.3250 84.2962 383.4825 84.4725 383.6375 C84.7728 380.1525 88.7060 372.4150 91.4100 370.0225 C92.5010 369.0575 93.7935 368.6325 95.2455 368.7275 C97.1715 368.8525 99.0960 369.7775 100.3585 371.2450 C100.9348 371.9125 101.4727 372.8100 101.6660 373.6800 C102.0410 375.3750 102.0905 377.2625 102.2728 378.9900 C102.6038 382.1300 103.0537 385.2225 103.8205 388.2900 C107.7440 403.9875 118.8618 415.1225 134.1650 419.9425 C136.6530 420.7250 139.3528 421.7475 141.9490 422.0375 C142.5058 422.1000 142.9283 422.0900 143.4505 421.8575 C143.7612 421.2050 143.6180 420.6150 143.3932 419.9425 C142.7872 418.1325 141.6758 416.4775 140.8477 414.7575 C139.5853 412.0800 138.4480 409.3475 137.4390 406.5650 C134.7878 399.2575 130.0293 375.4650 132.9535 368.8650 C133.4055 367.8475 134.2120 367.1100 134.9995 366.3475 C137.2572 365.7600 140.4323 365.3475 142.5497 366.5225 C145.4080 368.1100 146.7775 376.9575 147.7850 380.1300 C148.5853 382.6500 149.5078 385.0150 150.6755 387.3850 C157.3613 400.9550 168.3833 411.2450 182.1152 417.4750 C184.7455 418.6675 188.0022 420.3875 190.9445 420.3225 C191.3143 419.9250 191.3618 419.8575 191.3280 419.2775 C191.1830 416.7875 186.8575 410.4675 185.7312 407.4400 C182.9362 399.9275 181.1400 391.1000 181.3320 383.0300 C181.3943 380.4150 181.8085 377.7775 182.0705 375.1750 C182.3275 372.6225 182.3078 369.3425 184.0825 367.3100 C185.0845 366.1650 186.1263 365.8350 187.6142 365.7950 C189.1243 365.7550 190.6900 365.9525 192.1958 366.0725 C192.2815 366.1275 192.3683 366.1800 192.4535 366.2350 C194.4397 367.5075 195.1015 369.3525 195.5540 371.6000 C196.2645 375.1300 196.5265 378.7375 197.2767 382.2700 C198.8902 389.8625 201.7105 398.2825 206.4433 404.4925 C208.0030 406.5400 209.8683 408.3600 211.6870 410.1750 C213.6120 412.0950 215.5260 413.9900 217.7875 415.5200 C219.2478 416.5075 220.7632 417.4825 222.3655 418.2225 C225.1105 419.4925 236.9000 423.8125 239.8587 423.0350 C240.2043 422.9450 240.2030 422.9225 240.4605 422.7600 C239.6240 420.5400 237.6705 417.5275 236.6328 415.0175 C232.3638 404.5425 230.7153 393.1800 231.8300 381.9225 C232.1452 378.6700 232.1517 374.8375 233.5825 371.8425 C234.1803 370.5925 235.0435 369.7175 236.3635 369.2525 C238.0067 368.6725 240.5298 368.7200 242.0940 369.5200 C242.8958 369.9275 243.7157 370.5100 244.2663 371.2300 C246.1105 373.6425 247.2368 377.1500 248.5165 379.9350 C249.4283 381.9175 250.5100 383.7925 251.6975 385.6250 C254.2625 389.5800 257.2775 392.7275 260.5900 396.0400 C262.2650 397.7150 263.9250 399.4675 265.7650 400.9625 C268.5300 403.2100 271.6525 405.0750 274.7600 406.8125 C291.2125 415.9975 308.5450 416.5525 326.3625 411.3450 C345.5025 405.7500 360.2400 393.8150 369.7975 376.3350 C373.8150 368.9875 377.4050 360.8975 379.4950 352.7750 C375.4400 352.6650 372.0850 354.8350 368.3325 356.1500 C365.6650 357.0875 362.8675 357.8100 360.1125 358.4525 C355.4225 359.5450 350.5350 360.4000 345.7300 360.8050 C334.3675 361.7600 319.3625 361.2150 308.1300 359.6525 C305.7400 359.3200 303.1825 359.0825 300.8775 358.3375 C299.5900 357.9225 298.4400 357.3050 297.2900 356.5950 C296.1575 354.4450 295.6300 352.4550 296.3725 350.0325 C296.8475 348.4875 297.7950 347.2150 299.2325 346.4450 C302.4950 344.7025 307.2775 345.0350 310.9000 344.5525 C313.6725 344.1850 316.4425 343.6725 319.1875 343.1400 C348.8025 337.4050 369.7625 319.2275 379.3550 290.6325 C380.2100 288.0875 380.9825 285.5625 381.4525 282.9150 C381.3325 282.8925 381.2125 282.8675 381.0900 282.8475 C380.5425 282.7525 379.8575 282.6025 379.3075 282.6750 C378.4650 282.7850 377.3700 283.4900 376.6175 283.8850 C373.5350 285.5050 367.9850 289.2050 364.4425 288.8750 C362.9275 288.7350 361.7450 287.7850 360.8925 286.5725 C359.1225 284.0625 358.6225 281.3900 359.0775 278.3650 C360.8750 276.8900 366.0375 273.7475 368.2675 273.4425 C370.0125 271.3275 371.5475 265.9050 373.5550 264.8775 C375.1750 265.1450 375.1075 267.1150 376.1850 268.1275 C376.3100 268.2450 376.4400 268.3525 376.5650 268.4650 C380.1850 265.6500 383.0125 261.5550 386.7900 259.0425 C389.1575 258.8475 392.5375 258.2900 394.5325 259.8925 C395.7575 260.8750 395.9925 262.5775 396.0950 264.0425 C397.6475 286.3225 388.0700 311.6000 373.2700 328.2375 C369.5200 332.4525 360.0700 341.1825 355.0475 343.3125 L355.0025 346.2725 C357.7275 345.5725 360.5300 344.9550 363.1875 344.0325 C368.5125 342.1850 376.7925 338.1750 380.3175 333.8025 C381.9925 331.7250 384.0300 327.7475 386.3025 326.4450 C388.0875 325.4225 391.9850 325.4650 393.7275 326.4475 C394.8875 327.1050 395.6100 328.2375 395.9250 329.5150 C397.5100 335.9225 394.0325 351.2525 391.9900 357.7575 C390.7550 361.6925 388.9175 365.5850 388.1925 369.6450 C390.3475 370.5875 396.6750 369.9600 399.3725 369.9525 L432.1775 369.9325 C439.3650 369.9300 452.2500 369.1175 458.6450 371.0000 C460.2200 372.6350 460.7850 374.2525 460.7925 376.5425 C460.7975 378.2225 460.3575 380.0300 459.1200 381.2375 C457.8075 382.5175 455.8475 382.7700 454.0900 382.9275 C450.3925 383.2575 446.5375 383.0650 442.8250 383.0625 L422.6475 383.0525 L393.9525 383.0525 C389.7375 383.0575 385.4675 383.2825 381.2625 383.1400 L381.0475 383.4275 C379.2825 385.7900 377.8325 388.3900 376.2350 390.8650 C374.2600 393.9300 372.0000 396.9450 369.6325 399.7200 C356.2875 415.3525 335.7700 423.8950 315.8150 426.9175 C311.9950 427.4975 308.1000 427.9625 304.2325 427.9275 C288.3150 427.7775 271.5600 421.5975 258.7775 412.1600 C256.5975 410.5500 252.3250 406.3250 250.2475 405.4025 C249.4568 405.8575 248.8575 406.1000 247.9758 406.3125 C247.9510 406.3200 247.9290 406.3350 247.9057 406.3450 C247.9055 406.4925 247.9005 406.6400 247.9048 406.7850 C248.1422 414.7025 263.1975 427.3275 257.8900 433.1975 C255.3200 436.0400 249.3360 436.0100 245.7975 436.0800 C235.4868 436.2825 224.8562 434.0275 215.6293 429.3100 C215.0965 431.9500 214.4940 433.1200 212.3920 434.8900 C200.9585 437.1650 186.0677 433.5550 175.7055 428.8375 C172.4125 427.3400 169.1635 424.8625 165.7660 423.7750 L164.7943 424.6100 C163.9597 426.2625 165.6845 429.6675 164.7950 431.9900 C164.3160 433.2450 163.3457 434.2475 162.1087 434.7700 C160.0033 435.6700 157.3645 435.7775 155.1060 435.8850 C144.5302 436.3950 133.5675 434.0050 123.8300 429.9400 C109.2715 423.8575 99.6785 414.1750 93.7207 399.6300 C92.5872 400.5975 91.2710 401.9700 89.6913 402.0050 C84.0565 402.1350 78.1527 395.7325 74.3987 392.0600 C63.1662 381.1975 56.8140 366.2450 56.7920 350.6175 C56.7637 346.4800 56.4698 335.9950 59.5205 333.1150 C60.6073 332.0900 61.8387 331.9825 63.2552 331.8375 C66.8390 331.4700 70.5620 331.5800 74.1675 331.5700 L91.0728 331.5550 C107.7047 331.4050 124.3378 331.5100 140.9665 331.8725 C140.6662 327.1500 140.2222 308.3800 141.1695 304.5475 C141.5363 303.0625 142.4272 301.8250 143.7852 301.0950 C148.4453 298.5925 159.9935 303.5325 164.3168 305.7550 C166.4630 306.8600 168.6800 308.6350 170.9340 309.3800 C173.4772 306.8450 172.1797 303.5450 175.8743 300.6550 C182.6597 299.5450 191.8595 303.2975 197.7245 306.4550 C206.2352 311.0375 212.5137 317.2575 217.1178 325.7700 C218.1362 327.6525 219.2605 329.6500 219.8790 331.6975 C226.8533 331.1600 232.4767 329.8875 238.0448 325.3550 C243.9247 320.5675 247.9655 314.1425 248.6670 306.5075 C249.4108 298.4100 247.3562 291.1075 242.0710 284.8625 C238.5635 280.7175 233.6260 277.4750 228.3745 276.0700 C221.7380 274.2950 214.3145 275.1125 207.5103 275.1500 L177.1475 275.0575 C171.3200 275.0650 165.2460 275.5150 159.4518 274.9975 L159.0078 274.9550 L158.9840 277.8025 C166.2388 280.3600 186.4485 280.6700 194.5063 279.8550 C198.4753 279.4525 202.4543 278.3275 206.4297 278.1250 C207.6877 278.0600 209.2510 278.0150 210.3150 278.8050 C211.9198 279.9975 212.6022 282.2975 212.8717 284.2000 C213.1085 285.8700 212.8870 287.5625 211.7730 288.8900 C208.9187 292.2950 198.7350 292.6200 194.2490 293.0550 C179.1290 294.5150 156.0445 293.5900 143.0705 284.9175 C141.0372 283.5575 139.0325 281.9250 137.3517 280.1475 C135.8190 278.5250 134.4475 276.7000 132.7047 275.2975 C132.6288 275.2350 132.5508 275.1775 132.4738 275.1175 C131.6003 275.0000 130.7283 274.8725 129.8585 274.7325 C129.9590 276.5175 129.8965 278.7050 130.6317 280.3525 C130.8372 279.9075 131.0213 279.5875 131.3488 279.2225 C131.5800 279.6850 131.8548 280.1700 132.0237 280.6575 C132.2272 281.2450 132.2202 281.5575 131.9780 282.1175 C131.4310 282.0375 131.2485 281.5475 130.9252 281.1175 C128.6272 285.5150 133.2495 303.3700 129.9935 308.3825 C129.1505 309.6825 127.8378 310.6300 126.3085 310.9275 C121.6920 311.8250 109.5717 305.4175 105.6113 302.5650 C105.5082 305.4925 105.4465 309.4825 103.0520 311.5550 C102.0010 312.4650 100.6140 312.7375 99.2595 312.6250 C97.1523 312.4550 95.0833 311.5975 93.1165 310.8700 C84.9738 307.8575 76.9420 303.1300 71.2530 296.4650 C67.6100 292.1825 64.7430 287.2950 62.7812 282.0275 C62.1003 280.2275 61.6200 278.3225 60.8548 276.5600 C59.9950 274.5775 58.2592 272.4725 57.8378 270.3700 C56.8815 265.6025 57.4325 259.9775 57.8040 255.1350 L57.5938 255.1050 L57.2445 255.0475 C54.6595 254.6425 53.3073 253.8325 51.6120 251.9050 C50.8473 247.1900 51.0182 242.4200 51.0202 237.6613 L51.0407 219.7310 L51.0305 204.2527 C51.0285 199.5835 50.7860 194.7023 51.7590 190.1115 C52.5550 186.3560 54.3333 183.0143 57.6700 180.9090 C60.0960 179.3780 62.9453 178.6110 65.7722 178.2717 C69.4232 177.8338 73.1810 177.9930 76.8553 177.9945 L94.0820 178.0095 L111.6933 177.9830 C115.6642 177.9783 120.2365 177.5233 124.0915 178.4662 C127.7435 179.3595 126.9195 181.8485 128.5558 184.2175 C128.6015 184.2838 128.6588 184.3418 128.7103 184.4037 L128.9290 184.2697 C129.5473 183.8967 130.1650 183.5180 130.8870 183.3943 C136.3457 182.4595 143.4357 183.0125 149.0237 183.0125 C156.0318 183.0128 169.6650 182.2970 176.1555 183.9010 C176.7323 180.2258 177.3158 176.5945 178.4130 173.0285 C181.8123 161.9810 189.3893 152.2845 198.6910 145.5172 C210.5188 136.9557 225.2923 133.5092 239.6875 135.9535 C249.7207 137.5923 259.1250 141.9117 266.9050 148.4555 C268.2700 149.6158 271.6725 153.9875 272.9375 154.3387 C273.4375 154.4778 274.3625 154.2340 274.8900 154.1405 C275.3350 151.7645 275.0425 149.0585 275.0300 146.6342 C274.9750 135.0960 273.1575 119.2310 284.1275 111.8235 C290.8725 107.2700 300.5975 106.7545 308.3575 108.3132 C313.8025 109.4065 319.2925 111.9715 322.4350 116.7350 C324.7225 120.1980 325.7525 124.5255 326.3075 128.5865 C326.5250 130.1900 326.8275 141.4153 327.0125 141.6685 C327.0675 141.7453 328.1000 142.0578 328.2425 142.0853 C328.8950 142.2125 329.0825 142.0813 329.6050 141.6857 C331.4050 140.3228 332.8650 138.0842 334.3300 136.3600 C335.8025 134.6263 337.4650 133.0025 339.1875 131.5157 Z M87.8922 233.3217 C100.6308 225.1075 110.3495 212.4653 113.6038 197.4880 C114.0502 195.3365 114.3727 193.1610 114.5697 190.9725 C109.8398 191.4523 104.8067 191.1025 100.0420 191.0975 C89.9863 191.0555 79.9305 191.0643 69.8748 191.1237 C68.2605 191.2092 66.6125 191.2287 65.4430 192.5237 C64.3125 193.7760 64.0925 195.5202 63.7637 197.1110 C67.1947 196.9967 72.6512 196.1942 75.3115 198.8040 C76.7217 200.1873 77.1250 202.3047 77.0915 204.2092 C77.0635 205.8053 76.6090 207.3365 75.4145 208.4500 C72.8030 210.8848 67.4207 210.3240 64.0580 210.1405 L64.1298 241.5367 C72.6783 240.4340 80.6245 238.0878 87.8922 233.3217 Z M70.4235 253.9975 C70.5280 256.7250 70.5470 259.4575 70.4805 262.1900 C74.2997 261.7375 78.3383 261.8675 82.1875 261.8850 L112.4652 261.9175 C118.1418 261.9150 123.9612 261.6675 129.6215 262.0575 C128.9305 250.5725 129.2038 237.9520 122.2483 228.1048 C120.8335 226.1020 119.0587 224.4733 117.4173 222.6715 C114.2997 226.5430 111.4707 230.5347 108.0202 234.1432 C98.4200 244.1835 84.3580 252.3400 70.4235 253.9975 Z M185.7598 315.2375 C185.4375 319.6000 185.0983 325.2650 186.8483 329.3025 C187.3987 329.2550 187.9560 329.2075 188.4725 328.9950 C189.7350 328.4775 195.1480 324.0275 196.0858 322.9450 C196.0307 321.5400 195.9285 321.1400 194.8472 320.1625 C192.2130 317.7825 188.8483 316.8275 185.7598 315.2375 Z M92.1430 296.3725 C92.8310 286.6275 88.6835 284.0325 86.6752 275.8025 C82.4710 275.8175 78.2485 275.9200 74.0495 275.6975 C77.1038 283.4350 83.7670 292.5700 91.5287 296.1575 C91.8360 296.3000 91.8627 296.2975 92.1430 296.3725 Z M117.0845 274.9700 C111.3262 275.0650 105.5667 275.0725 99.8083 274.9975 C103.3285 281.9025 107.2588 288.0450 113.7810 292.4950 C114.9473 293.2900 116.1367 294.1575 117.4868 294.6025 C117.5510 294.6250 117.6165 294.6425 117.6812 294.6625 C118.0935 288.2150 117.1622 281.4625 117.0845 274.9700 Z M153.7930 315.2650 C153.3680 320.7900 153.7470 326.3900 153.5627 331.9300 C160.0403 331.3775 166.5327 332.1225 172.9805 331.7150 L173.2267 331.3825 C170.8613 326.1575 164.6900 320.8775 159.7405 318.0775 C157.8132 316.9875 155.7465 316.2725 153.7930 315.2650 Z"></path>
<path id="" fill="#fee4d2" fill-opacity="1.0" stroke="#000000" stroke-width="0.0" stroke-opacity="1.0" stroke-linecap="round" stroke-linejoin="round"  filling="0" d="M128.7103 184.4037 L128.9290 184.2697 C129.5473 183.8967 130.1650 183.5180 130.8870 183.3943 C136.3457 182.4595 143.4357 183.0125 149.0237 183.0125 C156.0318 183.0128 169.6650 182.2970 176.1555 183.9010 L175.8545 184.4225 C165.8163 184.8652 155.6407 184.5643 145.5890 184.5575 C140.7085 184.5542 133.3013 185.0145 128.7103 184.4037 Z"></path>
<path id="" fill="#e46350" fill-opacity="1.0" stroke="#000000" stroke-width="0.0" stroke-opacity="1.0" stroke-linecap="round" stroke-linejoin="round"  filling="0" d="M368.2675 273.4425 C370.0125 271.3275 371.5475 265.9050 373.5550 264.8775 C375.1750 265.1450 375.1075 267.1150 376.1850 268.1275 C376.3100 268.2450 376.4400 268.3525 376.5650 268.4650 C374.7000 270.1400 370.6250 272.8725 368.2675 273.4425 Z"></path>
<path id="" fill="#f98a28" fill-opacity="1.0" stroke="#000000" stroke-width="0.0" stroke-opacity="1.0" stroke-linecap="round" stroke-linejoin="round"  filling="0" d="M135.8972 225.6767 C138.0573 227.7160 140.3217 229.8723 142.1682 232.2050 C142.3840 232.4772 142.3125 232.3147 142.2603 232.7625 C141.4105 232.9455 140.5432 233.1013 139.7068 233.3375 C139.5052 233.7677 139.5435 233.6277 139.4440 234.0185 C139.4240 234.0975 139.4070 234.1775 139.3885 234.2570 L139.3053 233.8992 L139.1595 233.9225 C138.1573 231.0533 137.1918 228.4438 135.8972 225.6767 Z"></path>
<path id="" fill="#faf9f8" fill-opacity="1.0" stroke="#000000" stroke-width="0.0" stroke-opacity="1.0" stroke-linecap="round" stroke-linejoin="round"  filling="0" d="M157.1575 417.1225 C160.2018 419.0625 163.0918 421.4150 165.9665 423.6025 L165.7660 423.7750 L164.7943 424.6100 L164.4605 424.6900 L164.0988 425.3950 C161.6915 422.7425 159.2230 420.0525 157.1575 417.1225 Z"></path>
<path id="" fill="#fcfcfc" fill-opacity="1.0" stroke="#000000" stroke-width="0.0" stroke-opacity="1.0" stroke-linecap="round" stroke-linejoin="round"  filling="0" d="M245.3743 399.3000 C246.8775 400.9650 248.5948 402.6250 249.9272 404.4200 C250.2425 404.8475 250.3275 404.8575 250.2475 405.4025 C249.4568 405.8575 248.8575 406.1000 247.9758 406.3125 C247.9510 406.3200 247.9290 406.3350 247.9057 406.3450 L247.7280 406.7850 C246.4512 405.3000 245.8915 401.2600 245.3743 399.3000 Z"></path>
<path id="" fill="#e36252" fill-opacity="1.0" stroke="#000000" stroke-width="0.0" stroke-opacity="1.0" stroke-linecap="round" stroke-linejoin="round"  filling="0" d="M346.8175 347.8050 C349.5200 346.2550 352.2650 344.7100 355.0475 343.3125 L355.0025 346.2725 C352.4425 347.0200 349.4600 347.2900 346.8175 347.8050 Z"></path>
<path id="" fill="#623c33" fill-opacity="1.0" stroke="#000000" stroke-width="0.0" stroke-opacity="1.0" stroke-linecap="round" stroke-linejoin="round"  filling="0" d="M152.0780 274.8425 C154.1333 274.8075 157.0737 274.3900 159.0078 274.9550 L158.9840 277.8025 C156.6628 277.2000 154.1370 276.0650 152.0780 274.8425 Z"></path>
<path id="" fill="#fefffe" fill-opacity="1.0" stroke="#000000" stroke-width="0.0" stroke-opacity="1.0" stroke-linecap="round" stroke-linejoin="round"  filling="0" d="M196.0858 322.9450 C196.1595 322.3700 196.2108 321.8725 196.4323 321.3300 C199.2583 322.4450 203.8040 329.0425 205.5818 331.7625 L187.8180 331.7575 C187.5168 331.0600 186.8980 330.0375 186.8483 329.3025 C187.3987 329.2550 187.9560 329.2075 188.4725 328.9950 C189.7350 328.4775 195.1480 324.0275 196.0858 322.9450 Z"></path>
<path id="" fill="#4c241d" fill-opacity="1.0" stroke="#000000" stroke-width="0.0" stroke-opacity="1.0" stroke-linecap="round" stroke-linejoin="round"  filling="0" d="M231.5453 176.0725 C234.5233 175.6812 237.9232 175.7105 240.3723 177.6723 C243.9297 180.5222 253.4875 194.3630 253.8825 198.7943 C254.0925 201.1393 252.7325 203.6718 251.2550 205.3932 C250.2025 206.6187 248.8675 207.7720 247.3282 208.3242 C242.7660 209.9617 236.0217 209.7883 231.1945 210.1243 C227.3542 210.3918 223.5338 210.8313 219.6882 211.0663 C215.3860 211.3262 204.5335 213.2300 201.0850 211.4812 C199.6947 210.7762 198.7227 209.3508 198.2405 207.9017 C197.6413 206.1013 197.5220 203.5343 198.5018 201.8338 C199.7982 199.5838 224.8345 180.2270 228.4825 177.6715 C229.4475 176.9955 230.3992 176.3958 231.5453 176.0725 Z"></path>
<path id="" fill="#f33d27" fill-opacity="1.0" stroke="#000000" stroke-width="0.0" stroke-opacity="1.0" stroke-linecap="round" stroke-linejoin="round"  filling="0" d="M233.7408 189.9650 C235.4738 191.7950 236.8383 194.4223 238.2005 196.5545 C234.8757 196.6245 231.5040 197.0163 228.1882 197.2878 C226.8190 197.3472 225.4370 197.6172 224.0813 197.8168 C227.1490 195.0392 230.5647 192.6252 233.7408 189.9650 Z"></path>
<path id="" fill="#4c241d" fill-opacity="1.0" stroke="#000000" stroke-width="0.0" stroke-opacity="1.0" stroke-linecap="round" stroke-linejoin="round"  filling="0" d="M128.6525 111.0280 C128.7298 111.0228 128.8067 111.0135 128.8842 111.0120 C133.1503 110.9265 138.4135 117.6042 141.3295 120.5175 C144.4705 116.9535 148.1670 112.1440 152.9342 110.9685 C154.9990 111.4255 156.8517 112.1868 158.3845 113.6888 C159.4868 114.7685 160.0380 116.0930 159.9982 117.6405 C159.8793 122.2635 153.8033 126.6825 150.6630 129.7095 C153.8445 132.0870 158.5150 136.0795 159.6590 140.0417 C160.0930 141.5455 159.9368 143.1322 159.1615 144.4980 C157.9430 146.6447 155.5990 147.7830 153.3307 148.4673 C152.9688 148.4713 152.6107 148.4810 152.2513 148.4297 C148.9370 147.9590 143.4115 141.6613 141.3513 139.0797 C138.5645 141.7750 135.8423 145.5510 132.3463 147.3220 C130.7233 148.1443 128.7957 148.4115 127.0673 147.7525 C124.4763 146.7648 123.1345 144.1783 122.0762 141.7962 C123.7625 136.1588 128.7465 133.9348 131.9552 129.4223 C129.5267 127.2725 124.2572 122.6113 123.0390 119.7975 C122.4358 118.4045 122.4092 116.9262 123.0312 115.5338 C123.9922 113.3832 126.4950 111.7798 128.6525 111.0280 Z"></path>
<path id="" fill="#4c241d" fill-opacity="1.0" stroke="#000000" stroke-width="0.0" stroke-opacity="1.0" stroke-linecap="round" stroke-linejoin="round"  filling="0" d="M280.5350 75.7827 C284.0425 75.2592 287.3250 77.6292 287.9325 81.1220 C288.5400 84.6147 286.2475 87.9538 282.7700 88.6438 C280.4475 89.1050 278.0550 88.2708 276.5225 86.4640 C274.9875 84.6570 274.5550 82.1615 275.3875 79.9433 C276.2225 77.7253 278.1925 76.1328 280.5350 75.7827 Z"></path>
<path id="" fill="#4c251e" fill-opacity="1.0" stroke="#000000" stroke-width="0.0" stroke-opacity="1.0" stroke-linecap="round" stroke-linejoin="round"  filling="0" d="M421.6075 146.0970 C425.0900 145.7103 428.2475 148.1682 428.7250 151.6393 C429.2050 155.1105 426.8300 158.3310 423.3725 158.9010 C421.0550 159.2835 418.7100 158.3772 417.2525 156.5340 C415.7925 154.6910 415.4500 152.2015 416.3550 150.0323 C417.2600 147.8633 419.2725 146.3565 421.6075 146.0970 Z"></path>
</svg>