<svg xmlns="http://www.w3.org/2000/svg" viewBox="0 0 512 512" height="512.0px" width="512.0px">
<path id="" fill="#5b68c0" fill-opacity="1.0" stroke="#000000" stroke-width="0.0" stroke-opacity="1.0" stroke-linecap="round" stroke-linejoin="round"  filling="0" d="M235.7710 336.6125 C235.8395 336.6050 235.9077 336.5950 235.9763 336.5925 C243.5697 336.2425 251.2500 336.4125 258.8525 336.4350 C281.5675 336.4100 304.2675 337.5300 326.8700 339.7925 C339.2125 340.9775 351.5425 342.6725 363.8575 344.1450 C368.4800 344.6975 373.1075 345.3025 377.7425 345.7650 C383.6775 346.3575 389.9825 346.6900 395.7300 348.3050 C400.4200 349.6150 404.7725 351.9225 408.4850 355.0725 C413.2800 359.1350 416.9675 365.5600 418.3800 371.6625 C420.1525 379.3200 419.0525 387.7025 419.0200 395.5050 L419.2575 440.1250 C419.2875 446.8950 418.5775 453.8250 419.1800 460.5650 L419.2175 460.9450 C414.1525 460.3925 408.7525 460.7675 403.6425 460.7700 L374.1725 460.7775 L277.8750 460.7775 L153.1642 460.7750 L113.5592 460.7775 C106.7745 460.7725 99.7347 460.3825 92.9795 460.8700 C93.3932 440.5675 93.0510 420.1825 93.0518 399.8725 L93.0247 385.3450 C93.0140 380.8125 92.8290 376.1525 93.7600 371.6925 C94.8757 366.3475 97.8600 361.1375 101.4555 357.0725 C105.7800 352.1825 111.6732 349.5275 117.9017 347.8400 C122.1418 346.6900 126.5215 346.4750 130.8772 346.0925 C134.9272 345.7475 138.9705 345.3225 143.0040 344.8200 C163.0870 342.3375 183.0948 339.8350 203.2795 338.2875 C214.1040 337.4600 224.9483 337.3225 235.7710 336.6125 Z"></path>
<path id="" fill="#ffffff" fill-opacity="0.027451" stroke="#000000" stroke-width="0.0" stroke-opacity="1.0" stroke-linecap="round" stroke-linejoin="round"  filling="0" d="M0.6766 0.0000 L511.3225 0.0000 C508.2025 0.6650 504.4600 0.3195 501.2650 0.3163 L484.2875 0.2973 L415.9925 0.2969 L147.6600 0.2999 L40.7298 0.2926 L15.1412 0.3109 C10.7615 0.3248 4.9184 0.8886 0.6766 0.0000 Z"></path>
<path id="" fill="#ffffff" fill-opacity="0.0196078" stroke="#000000" stroke-width="0.0" stroke-opacity="1.0" stroke-linecap="round" stroke-linejoin="round"  filling="0" d="M1.3091 512.0000 C3.3875 511.2775 25.6402 511.7425 29.6990 511.7425 L108.8480 511.7450 L408.0800 511.7525 L481.9375 511.7525 L501.0200 511.7350 C504.2850 511.7300 508.1175 511.3450 511.2925 512.0000 L1.3091 512.0000 Z"></path>
<path id="" fill="#ffffff" fill-opacity="0.027451" stroke="#000000" stroke-width="0.0" stroke-opacity="1.0" stroke-linecap="round" stroke-linejoin="round"  filling="0" d="M0.0000 0.9172 C0.7097 3.9909 0.2566 8.0218 0.2535 11.1965 L0.2509 30.6735 L0.2530 111.2188 L0.2531 439.7300 L0.2509 490.8325 C0.2507 494.5500 0.7518 508.0600 0.0000 510.5825 L0.0000 0.9172 Z"></path>
<path id="" fill="#fedc95" fill-opacity="1.0" stroke="#000000" stroke-width="0.0" stroke-opacity="1.0" stroke-linecap="round" stroke-linejoin="round"  filling="0" d="M157.0038 208.7325 C156.8460 188.3140 163.0658 164.8748 173.9870 147.5437 C177.5927 141.8217 182.2547 136.2063 187.0015 131.3907 C204.8085 113.3253 230.1850 102.0667 255.6425 101.9818 C278.5025 101.9055 301.0750 110.5788 318.5325 125.2117 C321.2325 127.4742 323.6900 130.0733 326.1775 132.5623 C330.4975 136.8825 333.6400 141.2912 337.0025 146.3808 C339.7175 150.4902 342.4450 154.6825 344.5900 159.1250 C351.6500 173.7580 354.3975 192.1698 355.2575 208.2475 C361.1225 209.9673 366.4850 213.1180 369.5400 218.6070 C372.0575 223.1288 372.8200 228.6053 371.3800 233.5880 C369.8800 238.7747 366.0300 244.0165 361.2225 246.5887 C358.6875 247.9445 355.4600 248.8802 352.5875 248.9823 C351.4800 249.0215 350.3175 248.8780 349.2200 249.0253 C348.7225 249.0923 348.1425 249.2843 347.8075 249.6860 C346.6225 251.1075 344.6775 258.7900 343.7900 261.1150 C341.5975 266.8675 337.8125 273.8075 334.8625 279.3000 C330.7700 286.9275 324.6325 295.3600 318.7825 301.7125 C315.9875 304.7475 312.8625 307.4650 310.1275 310.5550 C309.7125 325.2700 310.6600 339.9475 310.7075 354.6600 C310.7225 358.9725 311.0125 363.4825 310.6950 367.7725 C310.6100 368.9200 310.4825 370.7875 309.5850 371.5925 C307.8700 373.1350 303.0625 374.0575 300.8000 374.7800 C285.9875 379.5150 266.4125 385.9275 250.7700 384.4250 C236.3065 383.0375 222.0475 377.8850 208.1980 373.7525 C206.5177 373.2500 203.0782 372.8475 201.7173 372.0425 C200.9095 368.7675 201.1693 364.9475 201.1893 361.5825 C201.2283 354.9925 201.6217 348.1625 200.8465 341.6150 C199.8017 341.0650 199.2648 340.7600 198.8835 339.6000 C198.9088 339.1875 198.9133 338.8200 199.1670 338.4700 C199.7798 337.6200 200.8795 337.2850 201.8372 337.0300 C202.2760 334.2375 201.9908 331.1100 201.9892 328.2725 L201.9785 310.7100 L201.7168 310.3875 C198.5527 306.5425 194.6365 303.3625 191.4193 299.5250 C179.1187 284.5750 169.7563 267.4325 163.8253 249.0013 C157.5185 249.3103 152.2090 248.6548 147.3537 244.2940 C143.2090 240.5712 140.2617 235.0508 139.9702 229.4393 C139.6973 224.1845 141.9037 218.4138 145.4615 214.5595 C148.3250 211.4572 152.7270 208.8848 157.0038 208.7325 Z"></path>
<path id="" fill="#5b68c0" fill-opacity="1.0" stroke="#000000" stroke-width="0.0" stroke-opacity="1.0" stroke-linecap="round" stroke-linejoin="round"  filling="0" d="M200.8465 341.6150 C199.8017 341.0650 199.2648 340.7600 198.8835 339.6000 C198.9088 339.1875 198.9133 338.8200 199.1670 338.4700 C199.7798 337.6200 200.8795 337.2850 201.8372 337.0300 C202.0560 341.4225 201.7182 345.9000 201.7130 350.3075 C201.7047 357.5375 201.9227 364.8200 201.7173 372.0425 C200.9095 368.7675 201.1693 364.9475 201.1893 361.5825 C201.2283 354.9925 201.6217 348.1625 200.8465 341.6150 Z"></path>
<path id="" fill="#ecebeb" fill-opacity="1.0" stroke="#000000" stroke-width="0.0" stroke-opacity="1.0" stroke-linecap="round" stroke-linejoin="round"  filling="0" d="M256.1500 51.0995 C256.2400 51.0878 256.3300 51.0725 256.4200 51.0645 C259.9450 50.7487 263.6575 51.7663 267.1950 51.8885 C271.3075 52.0305 275.4275 51.8318 279.5375 52.1040 C299.6950 53.4395 321.7975 57.6780 341.4000 62.2588 C344.2600 62.9270 349.4475 63.2785 351.7025 65.0908 C352.6325 68.2215 352.0825 74.6695 352.0750 78.1172 L352.0725 97.0580 C352.0750 124.5460 352.3600 152.0652 352.0075 179.5497 C345.6500 177.7012 340.5625 172.7928 334.6900 169.8630 C314.7875 159.9350 296.9425 152.6060 274.9675 148.2825 C268.8475 147.0785 262.6275 145.9985 256.3750 146.0280 C233.7930 146.7505 208.3380 155.4453 188.1382 165.4012 C182.5432 168.1588 176.9160 171.2072 171.5128 174.3197 C169.0120 175.7603 166.5282 177.7112 163.8830 178.8120 C163.0725 179.1495 162.0672 179.1752 161.1980 179.2440 C161.0717 175.2003 161.9640 171.0638 161.9852 166.9660 C162.0013 163.8783 162.0383 160.7592 161.8472 157.6760 C161.6797 154.9707 161.2563 152.2148 161.2708 149.5072 C161.2823 147.3452 161.5668 145.1860 161.6187 143.0245 C161.6675 141.0160 161.4905 139.0092 161.5335 137.0013 C161.6443 131.8197 161.9633 126.6890 161.9685 121.4912 L161.9530 83.2303 C161.9485 78.6375 161.4150 69.3045 162.2612 65.1120 C164.6760 62.6703 206.1090 55.4398 212.5045 54.5258 C219.5640 53.5170 226.8212 52.7625 233.9252 52.1353 C238.2802 51.7510 242.6933 52.0050 247.0623 51.9052 C250.1075 51.8358 253.1300 51.4635 256.1500 51.0995 Z"></path>
<path id="" fill="#ecebeb" fill-opacity="1.0" stroke="#000000" stroke-width="0.0" stroke-opacity="1.0" stroke-linecap="round" stroke-linejoin="round"  filling="0" d="M173.8420 270.0150 C181.2872 269.6125 188.9060 269.9400 196.3728 269.9400 L239.5035 269.9450 L302.0675 269.9450 C314.1525 269.9425 326.2625 269.7700 338.3450 270.0450 C335.8850 280.7625 319.7050 300.9500 311.8025 309.0900 C298.9700 322.1925 282.1600 332.3750 263.7375 334.6750 C240.3913 337.5900 222.0725 327.5125 204.4630 313.6025 C202.2937 311.9250 200.2905 310.0425 198.4807 307.9800 C196.2885 305.5225 194.4610 302.7550 192.4507 300.1500 C187.2190 293.3725 174.8215 278.4000 173.8420 270.0150 Z"></path>
<path id="" fill="#5ea7fe" fill-opacity="1.0" stroke="#000000" stroke-width="0.0" stroke-opacity="1.0" stroke-linecap="round" stroke-linejoin="round"  filling="0" d="M253.7275 112.4315 C272.7575 110.6957 289.5525 124.8065 291.1250 143.8505 C292.6950 162.8945 278.4425 179.5680 259.3850 180.9758 C240.5582 182.3667 224.1300 168.3217 222.5773 149.5080 C221.0245 130.6945 234.9275 114.1460 253.7275 112.4315 Z"></path>
<path id="" fill="#b3defb" fill-opacity="1.0" stroke="#000000" stroke-width="0.0" stroke-opacity="1.0" stroke-linecap="round" stroke-linejoin="round"  filling="0" d="M254.3925 133.3548 C261.8050 131.9852 268.9150 136.9155 270.2300 144.3383 C271.5475 151.7612 266.5650 158.8355 259.1325 160.0983 C251.7775 161.3480 244.7897 156.4280 243.4870 149.0802 C242.1842 141.7328 247.0538 134.7103 254.3925 133.3548 Z"></path>
</svg>