<svg xmlns="http://www.w3.org/2000/svg" viewBox="0 0 512 512" height="512.0px" width="512.0px">
<path id="" fill="#fedd95" fill-opacity="1.0" stroke="#000000" stroke-width="0.0" stroke-opacity="1.0" stroke-linecap="round" stroke-linejoin="round"  filling="0" d="M189.6942 295.0475 C206.1860 294.3025 222.2140 299.1975 237.4880 305.0200 C240.4668 306.1550 243.3598 307.5125 246.3297 308.6725 C261.0475 314.4900 275.5325 320.8750 289.7550 327.8125 L303.7825 334.8775 C307.8575 336.9350 312.2650 339.6925 316.7625 340.5850 C320.6625 341.3600 324.9950 341.0025 328.9650 340.9950 L346.8525 340.9600 L380.8250 340.9800 C387.0300 340.9825 393.2650 341.1150 399.4650 340.9375 C402.9275 340.8375 406.3550 340.2400 409.8125 340.0600 C416.0325 339.7325 422.3075 340.1175 428.5350 339.9250 C431.9000 339.8225 435.2325 339.2425 438.5925 339.0550 C442.7250 338.8250 446.9275 338.9500 451.0675 338.9425 C450.9125 346.1150 451.4325 353.0025 451.9325 360.1300 C452.1300 362.9575 452.0750 365.8000 452.2350 368.6325 C452.4025 371.5925 452.7800 374.5400 452.9575 377.5000 L453.9725 394.8175 C454.2425 400.3300 454.3400 405.5425 455.2025 411.0225 C446.3750 410.8425 437.5000 411.8575 428.7150 412.6450 C414.3950 413.9300 400.1500 415.3800 385.9325 417.5625 C374.4225 419.3300 363.0075 421.6875 351.4675 423.3475 C333.3025 426.1450 315.0175 428.1075 296.6725 429.2300 C293.6600 429.4150 290.6575 429.8475 287.6425 429.9725 C282.8325 430.1775 277.9650 430.0325 273.1500 430.0350 C264.7200 430.0625 256.2900 430.0450 247.8595 429.9825 C239.1107 429.4150 229.3695 428.3675 220.8820 426.2600 C214.5855 424.6950 208.7365 422.1900 202.2688 421.2075 C192.5575 419.7325 182.6570 418.5025 172.8905 417.4100 C169.9545 417.0825 166.9920 417.0525 164.0570 416.7075 C161.2818 416.3850 158.5592 415.6950 155.7973 415.2800 C150.2392 414.4475 144.5960 413.8250 139.0152 413.1225 C135.0098 412.6100 131.0015 412.1200 126.9905 411.6550 C123.5845 411.2825 119.7657 411.2675 116.5092 410.1550 C114.4287 409.4450 112.4423 408.3250 110.4840 407.3325 C105.4435 404.7750 100.5932 401.9250 95.5992 399.2975 C90.6483 396.6950 85.7288 393.9600 80.7563 391.4100 C74.0797 387.9875 67.3025 384.6600 60.7600 380.9850 C56.7318 378.7225 53.2377 375.7450 51.9758 371.1325 C50.1440 364.4350 53.3457 358.4225 56.6300 352.7475 C60.2075 346.5650 67.3945 342.7175 74.5673 344.0325 C80.8597 345.1850 91.1335 351.7475 97.0847 354.9550 C101.6880 357.4350 106.4270 359.7150 111.1028 362.0600 C114.4543 363.7425 118.0063 365.8475 121.7022 366.6025 C123.8115 367.0350 126.8132 366.2825 128.9953 366.1325 C131.0027 365.9925 133.0247 365.9850 135.0363 365.9725 L173.5240 365.9825 C179.5587 365.9800 185.6415 366.1375 191.6698 365.9100 C194.5748 365.8025 200.7885 365.2800 203.4677 364.5150 C207.6633 363.3150 211.8705 359.6975 215.6035 357.4300 C218.8985 355.4300 222.4373 353.6825 225.6000 351.4775 C226.3103 350.9850 226.9565 350.5100 227.3978 349.7500 C226.0847 347.2600 216.6573 343.4375 213.7450 341.7375 C204.3300 336.2400 189.8840 326.2575 183.6263 317.6875 C181.8275 315.2250 180.4230 312.2900 179.6788 309.3300 C178.9243 306.3300 179.3732 303.6275 181.0253 301.0050 C183.0645 297.7700 186.0485 295.9050 189.6942 295.0475 Z"></path>
<path id="" fill="#80d25b" fill-opacity="1.0" stroke="#000000" stroke-width="0.0" stroke-opacity="1.0" stroke-linecap="round" stroke-linejoin="round"  filling="0" d="M60.1290 65.6740 C66.1385 66.5725 75.7103 70.3390 81.8550 72.3320 C106.0990 80.1580 129.9438 89.1707 153.3030 99.3378 C163.5480 103.9088 173.4980 108.5472 183.2552 114.1145 C189.6980 117.7905 196.2205 121.6255 201.8655 126.4800 C217.1315 139.6447 226.4930 158.3720 227.8618 178.4840 C229.3925 199.7007 223.1297 217.1568 209.2235 233.1705 C208.0148 234.3430 206.7440 235.4498 205.4165 236.4860 C189.9220 248.7420 170.3115 253.3325 150.8743 251.0350 C130.9785 248.6825 110.1480 240.2125 97.4775 224.1085 C95.1235 221.1167 92.9402 218.1158 91.1595 214.7343 C82.9572 199.1580 78.8700 181.2413 75.1097 164.1602 C69.8767 140.3488 65.8220 116.2935 62.9603 92.0825 C62.1995 86.2182 61.4857 80.3480 60.8192 74.4723 C60.5033 71.6970 59.7995 68.4352 60.1290 65.6740 Z"></path>
<path id="" fill="#595859" fill-opacity="1.0" stroke="#000000" stroke-width="0.0" stroke-opacity="1.0" stroke-linecap="round" stroke-linejoin="round"  filling="0" d="M405.8600 310.3675 C424.3225 310.0875 442.8075 310.7225 461.2600 310.4675 C460.6225 316.7825 461.0275 323.4700 461.0250 329.8250 L461.0250 365.2775 L461.0275 417.9575 C461.0250 427.4425 460.7025 437.0350 461.1125 446.5075 L451.5625 446.6325 L415.8925 446.7000 C412.9600 446.7150 399.1450 447.1450 397.0500 446.5300 C396.8825 446.4800 396.7575 446.3325 396.6125 446.2350 C396.2100 445.2050 396.5700 426.6050 396.5575 423.9775 L396.5250 310.4075 C399.6375 310.4350 402.7500 310.4200 405.8600 310.3675 Z"></path>
<path id="" fill="#22ba8d" fill-opacity="1.0" stroke="#000000" stroke-width="0.0" stroke-opacity="1.0" stroke-linecap="round" stroke-linejoin="round"  filling="0" d="M83.6385 85.9617 C91.0660 85.8572 116.2043 108.1322 122.4843 113.9325 C126.2502 117.4110 129.8250 121.1673 133.4450 124.8000 C134.6617 126.0210 135.9408 127.2170 137.0668 128.5202 C139.3380 131.1487 141.0425 133.7520 143.9312 135.8060 C146.4045 131.1463 148.1695 124.1225 151.9465 120.4442 C153.2467 119.1780 154.7677 118.5778 156.5853 118.6415 C159.1510 118.7315 161.7760 119.9568 163.4863 121.8705 C164.7860 123.3253 165.4507 125.1277 165.2705 127.0843 C164.7660 132.5655 156.1503 144.9608 155.9635 149.7765 C155.9187 150.9300 156.3865 151.8360 156.9653 152.8002 C158.9360 156.0822 161.6642 158.9845 163.7790 162.1922 C166.1100 165.7923 168.3918 169.4243 170.6232 173.0870 C172.0098 175.3840 173.3415 178.2198 175.1483 180.1840 C176.3920 180.6752 176.8042 179.8460 177.4032 178.8537 C181.2080 172.5505 184.0392 165.5733 187.6472 159.1217 C188.9303 156.8273 190.1447 154.4360 191.9908 152.5330 C193.2737 151.2105 194.5920 150.4733 196.2643 149.7807 C196.7985 149.9440 197.3293 150.1183 197.8565 150.3030 C200.5193 151.2357 203.6050 152.8848 204.7858 155.5898 C205.5020 157.2307 205.3440 159.4272 204.8115 161.0952 C203.5182 165.1447 200.7615 168.8705 198.7793 172.6152 C196.0033 177.8600 193.4210 183.2285 190.7648 188.5355 C188.7307 192.5997 186.4982 196.6472 184.8160 200.8695 C185.9538 204.5600 187.8535 208.0920 189.1660 211.7408 C190.8398 216.3938 192.2332 221.1460 193.9305 225.7920 C196.8553 233.9068 200.7370 241.6443 205.4933 248.8405 C207.1503 251.3450 208.8647 253.8825 210.8127 256.1700 C213.9650 259.8725 220.9020 265.1650 221.7290 269.9925 C222.0025 271.5900 221.1070 273.3050 220.2397 274.5775 C218.6825 276.8650 216.5280 278.7425 213.7242 279.1900 C211.5502 279.5375 210.1198 278.7050 208.4050 277.4725 C205.5205 275.5000 203.0997 272.5000 200.8425 269.8500 C190.7782 258.0325 183.9993 245.3890 178.4857 230.9102 C176.2878 225.1382 174.9735 218.7213 172.1110 213.2558 L171.9218 212.8980 C167.5862 213.1033 163.2238 212.9357 158.8830 213.0680 C154.9650 213.1870 151.0730 213.7045 147.1610 213.9160 C143.8405 214.0955 140.5040 213.9665 137.1805 214.0980 C132.6947 214.2753 128.1373 215.2175 123.6560 214.8305 C122.0033 214.6880 120.9565 214.3245 119.6783 213.2168 C117.8235 211.6090 116.9102 209.2493 116.8303 206.8273 C116.7567 204.6105 117.2307 202.3062 118.8692 200.7095 C122.4225 197.2465 138.5020 198.1130 143.8980 197.8813 C146.9225 197.7515 149.9308 197.3090 152.9525 197.1150 C156.8555 196.8642 160.8042 196.9380 164.7140 196.9540 C161.0213 187.7993 155.6093 179.5013 150.1792 171.3127 C147.7990 167.7230 145.5435 163.9720 142.5010 160.8983 C134.9215 162.6575 127.1373 163.8365 119.4700 165.1685 C115.7527 165.8145 111.3918 167.0135 107.6277 166.9685 C106.6613 166.9570 105.6330 166.5395 104.8090 166.0497 C102.7960 164.8537 101.5137 162.7925 101.0495 160.5258 C100.5885 158.2737 100.7430 155.4872 102.1313 153.5677 C102.9270 152.4675 103.9297 151.9085 105.1775 151.4377 C109.1438 149.9413 113.9447 149.6183 118.1345 148.9145 C122.4037 148.1975 126.6443 147.3212 130.9150 146.6042 C127.9435 142.1178 124.0450 138.5605 120.2637 134.7742 C116.7148 131.2210 113.2207 127.5460 109.5505 124.1212 C105.3132 120.1675 100.7090 116.4312 96.2502 112.7282 C92.8285 109.8865 89.2448 107.3857 85.5775 104.8773 C83.5995 103.5242 81.4465 102.2465 79.6198 100.7018 C78.8270 100.0315 78.0757 99.2610 77.5965 98.3307 C76.7045 96.5795 76.5455 94.5457 77.1545 92.6770 C78.1682 89.5478 80.8290 87.4280 83.6385 85.9617 Z"></path>
<path id="" fill="#fcc24c" fill-opacity="1.0" stroke="#000000" stroke-width="0.0" stroke-opacity="1.0" stroke-linecap="round" stroke-linejoin="round"  filling="0" d="M134.3775 315.0625 C138.2270 314.7800 141.9165 315.3875 145.3748 317.1400 C148.2675 318.6075 150.5490 320.6350 152.5643 323.1600 C156.3578 327.9100 159.8087 334.7425 162.9767 340.0275 L170.9110 353.2175 C173.3907 357.3425 176.1410 361.4100 177.6703 366.0025 C171.5750 366.0950 165.4713 366.0375 159.3750 366.0400 L142.6945 366.0575 C139.0903 366.0850 135.4525 366.3000 131.8550 366.0850 C128.7807 361.8325 126.2065 357.1875 123.5327 352.6775 C121.8062 349.7650 119.8327 346.8525 118.4423 343.7675 C117.5570 341.8500 116.9275 339.8250 116.5700 337.7450 C115.7405 332.7350 117.3783 327.5575 120.3102 323.4900 C123.7790 318.6800 128.5658 315.9775 134.3775 315.0625 Z"></path>
</svg>