<svg xmlns="http://www.w3.org/2000/svg" viewBox="0 0 512 512" height="512.0px" width="512.0px">
<path id="" fill="#bd7575" fill-opacity="1.0" stroke="#000000" stroke-width="0.0" stroke-opacity="1.0" stroke-linecap="round" stroke-linejoin="round"  filling="0" d="M155.5150 342.3875 C160.8210 342.0175 166.2640 342.2375 171.5838 342.2350 L199.7708 342.2325 L286.5725 342.2325 L338.2050 342.2175 L353.1375 342.2125 C355.9800 342.2125 359.0125 342.0025 361.8225 342.4025 C362.4275 342.4875 362.4025 342.4650 362.7625 342.9400 C363.4725 346.3925 363.0675 350.6025 363.0700 354.1350 L363.0700 375.0825 L363.0600 419.4475 C363.0575 426.5750 363.2975 433.7650 363.0725 440.8825 C363.0225 442.5125 362.8675 444.1200 362.5175 445.7125 C361.2825 451.3050 358.2825 455.1950 353.4950 458.2125 C349.9150 460.3125 347.0775 460.9950 342.9200 461.0350 L220.8963 461.0425 L183.9010 461.0300 C177.9825 461.0375 171.0652 461.6525 165.2565 460.8125 C161.1797 460.2200 157.7190 458.2325 154.8143 455.3500 C152.3858 452.9400 150.1678 449.8950 149.4498 446.4950 C148.2878 440.9925 149.0623 427.6525 148.9877 421.2675 C148.9430 417.4325 148.5197 413.6050 148.4933 409.7750 C148.4653 405.7350 148.9483 401.6900 148.9700 397.6425 L148.9115 342.4550 C151.1127 342.4975 153.3150 342.4775 155.5150 342.3875 Z"></path>
<path id="" fill="#9b4d4d" fill-opacity="1.0" stroke="#000000" stroke-width="0.0" stroke-opacity="1.0" stroke-linecap="round" stroke-linejoin="round"  filling="0" d="M135.7375 337.0675 C139.7672 336.9450 143.8412 337.0925 147.8748 337.1050 L171.0705 337.1200 L246.0143 337.0950 L333.8725 337.1175 C348.0300 337.1225 362.2525 336.8000 376.4000 337.1150 C376.3475 343.6525 375.5175 350.4325 376.2600 356.9450 C375.7775 357.0750 375.9300 357.0700 375.4875 357.0700 L140.0890 356.9600 C139.1653 356.9525 136.4440 357.1775 135.8398 356.5825 C135.2733 354.0325 135.1472 339.3025 135.7375 337.0675 Z"></path>
<path id="" fill="#21ba8e" fill-opacity="1.0" stroke="#000000" stroke-width="0.0" stroke-opacity="1.0" stroke-linecap="round" stroke-linejoin="round"  filling="0" d="M253.4950 166.3250 C256.0400 165.9510 258.5725 166.2570 260.8225 167.5635 C262.6675 168.6345 264.6600 170.7395 265.1525 172.8740 C266.5700 178.9905 265.9650 187.5665 265.9775 193.9097 L265.9950 228.4200 L265.9975 296.6625 C265.9975 309.5750 266.2850 322.5700 265.8375 335.4725 C265.8150 336.1175 265.8675 336.6350 265.5075 337.1975 C263.8000 338.2675 260.8075 337.8500 258.8125 337.8275 C254.5450 337.8325 250.2775 337.8700 246.0092 337.9375 C246.1810 333.3050 246.0165 328.6250 246.0150 323.9875 L246.0143 296.4075 L246.0350 213.4825 C246.0345 206.6300 245.2852 175.1333 246.6263 172.0510 C247.8593 169.2168 250.7200 167.3858 253.4950 166.3250 Z"></path>
<path id="" fill="#22ba8e" fill-opacity="1.0" stroke="#000000" stroke-width="0.0" stroke-opacity="1.0" stroke-linecap="round" stroke-linejoin="round"  filling="0" d="M377.9725 226.7437 C378.2925 226.7318 378.5375 226.8175 378.8425 226.8992 C380.3425 228.2675 385.0800 235.4212 384.9975 237.2055 C384.9375 238.5395 384.1125 239.4563 383.0975 240.2405 C379.7200 242.8492 375.5350 244.9032 371.9050 247.2195 C359.3475 255.2300 346.1325 262.8750 334.5950 272.3375 C331.8425 274.5975 329.3400 277.1950 326.8150 279.7025 C323.7825 282.7175 320.6625 285.7075 317.8850 288.9600 C311.4375 296.5075 305.1875 306.5975 300.6225 315.4150 C298.0125 320.5775 295.5975 325.8350 293.3850 331.1825 C292.6800 332.8750 292.4200 335.8450 291.0925 337.0675 C289.7225 338.3325 287.4475 337.8650 285.7250 337.8450 L277.9300 337.8850 C277.9475 333.5525 279.7800 329.3250 281.3525 325.3475 C288.8175 306.4450 303.9175 281.3875 318.8700 267.6625 C329.0200 258.3475 340.8250 250.8025 352.1975 243.0952 C357.9025 239.2940 363.6425 235.5415 369.4125 231.8378 C372.1600 230.0988 374.9900 228.0400 377.9725 226.7437 Z"></path>
<path id="" fill="#22ba8e" fill-opacity="1.0" stroke="#000000" stroke-width="0.0" stroke-opacity="1.0" stroke-linecap="round" stroke-linejoin="round"  filling="0" d="M133.6260 226.6828 C134.2200 226.8837 134.7835 227.1268 135.3438 227.4093 C138.8277 229.1650 142.1107 231.5465 145.3658 233.6950 C150.2710 236.9195 155.1562 240.1735 160.0220 243.4570 C169.2175 249.7128 178.5410 256.1225 186.8920 263.4900 C209.3825 283.3375 223.9750 309.6750 233.2402 337.8975 C230.6265 337.8575 228.0125 337.8425 225.3985 337.8500 C223.3652 337.9050 221.3313 337.9150 219.2980 337.8800 C218.5697 335.3000 217.4410 332.7950 216.4380 330.3100 C213.3472 322.6500 209.9037 315.5025 205.7320 308.3625 C187.1940 276.6275 169.1163 266.4300 139.7630 247.1293 C135.0538 244.0327 130.1605 241.2648 125.6062 237.9305 C127.2318 234.6093 130.8277 229.0365 133.6260 226.6828 Z"></path>
<path id="" fill="#d550c7" fill-opacity="1.0" stroke="#000000" stroke-width="0.0" stroke-opacity="1.0" stroke-linecap="round" stroke-linejoin="round"  filling="0" d="M254.2175 51.0045 C255.0825 50.9505 256.0200 50.9485 256.8675 51.1505 C264.7575 53.0318 266.9500 65.4135 270.8075 71.5925 C273.0700 75.2137 276.4575 78.0205 280.1225 80.1478 C286.8000 84.0258 294.3700 84.8230 301.7900 82.8435 C308.3825 81.0855 312.5300 79.1235 319.4950 80.7087 C319.8200 80.9928 320.1350 81.2858 320.4400 81.5867 C326.5375 87.6628 318.9575 96.5570 316.2225 102.4157 C314.4250 106.2643 313.1125 110.6115 313.2225 114.8938 C313.4575 123.9975 317.2400 132.1082 324.5225 137.5840 C327.6150 139.9093 331.0050 141.9170 333.8025 144.6125 C335.5600 146.3078 337.9475 149.1022 337.8725 151.6628 C337.8425 152.7357 337.2475 153.9125 336.6500 154.7802 C332.3625 161.0150 322.4900 160.1042 316.0350 162.2157 C312.0825 163.5092 308.2850 165.7780 305.1700 168.5262 C300.0500 173.0428 296.1150 181.2997 296.1925 188.1675 C296.2425 192.3220 297.0625 196.4512 296.7525 200.6192 C296.5475 203.3887 295.8700 207.0315 293.6100 208.8645 C285.9825 215.0482 275.0300 199.1015 267.3950 196.5095 C265.7950 195.9657 263.5200 196.8548 261.5400 196.6560 C261.4400 196.5043 261.3400 196.3540 261.2425 196.2007 C261.0075 195.8280 260.7850 195.4495 260.5375 195.0855 C259.9050 194.1638 259.3000 194.0050 258.2375 193.8212 C254.1100 194.0508 248.7213 194.4673 244.8965 196.0675 C237.2655 199.2600 232.0195 208.3805 223.9617 209.9267 C222.6022 210.1875 221.1305 210.0412 219.7540 209.9725 C219.7090 209.9395 219.6645 209.9060 219.6192 209.8735 C212.2088 204.5513 216.5968 193.4535 215.7610 186.0143 C215.2858 181.7820 213.5358 177.9008 211.3980 174.2643 C207.5395 167.8255 201.2110 163.2493 193.8875 161.6020 C190.2715 160.7620 186.5405 160.3955 182.9545 159.4295 C179.8132 158.5833 176.2415 157.0983 174.6220 154.0900 C171.3625 148.0352 181.9857 141.6797 185.7425 138.9433 C187.7567 137.4760 189.8772 135.8580 191.5890 134.0415 C194.5018 130.9503 196.4823 126.8337 197.6695 122.7915 C200.8930 111.8155 197.6455 105.7572 192.4940 96.3155 C190.8288 93.2632 188.2710 88.7282 189.4210 85.1930 C192.7170 75.0608 206.2575 82.3815 212.9332 83.5707 C217.1958 84.3297 221.5325 84.1430 225.6642 82.8372 C247.8275 75.8330 242.3635 57.0132 254.2175 51.0045 Z"></path>
<path id="" fill="#ed9111" fill-opacity="1.0" stroke="#000000" stroke-width="0.0" stroke-opacity="1.0" stroke-linecap="round" stroke-linejoin="round"  filling="0" d="M78.3878 183.3448 C85.4983 182.2910 92.7405 184.1008 99.7860 182.1450 C104.4572 180.8483 109.3593 178.1492 112.6797 174.5825 C117.1048 169.8293 119.3418 162.5990 126.1703 160.8752 C132.0233 162.4705 134.1045 168.3615 137.5788 172.6842 C141.3610 177.3900 147.6800 181.3900 153.6113 182.5620 C158.8730 183.6015 164.1393 182.8732 169.4400 182.9955 C171.7155 183.0480 174.1105 183.4895 175.7875 185.1548 C178.9758 188.3215 174.2035 199.6155 173.5415 203.7835 C173.1350 206.4852 173.1877 209.2363 173.6970 211.9205 C174.4492 216.1053 176.2535 220.3862 178.6600 223.8878 C181.2263 227.6220 188.3932 232.9990 188.0875 237.8058 C187.7323 243.3890 179.0423 245.5405 174.8347 247.5025 C172.6127 248.5385 170.5712 249.7112 168.7905 251.4075 L168.5475 251.6425 C169.7997 252.4150 171.1348 252.9650 172.4835 253.5425 C170.0737 254.3775 167.5618 255.1450 165.0050 255.3250 L163.5972 257.1625 C163.5630 257.2400 163.5278 257.3175 163.4945 257.3975 C162.4160 259.9575 164.7527 262.9650 163.6447 263.6450 C162.4095 263.2750 161.6205 262.5875 160.6487 261.7675 C158.5450 267.2900 158.8980 276.4175 155.2207 280.6625 C154.4328 281.5725 153.2453 282.6550 152.0005 282.8175 C147.9167 283.3575 141.3400 278.3750 137.6537 276.6800 C135.0513 275.4650 132.2847 274.6350 129.4420 274.2200 C121.1880 272.9950 114.4035 276.4650 107.3765 280.2500 C105.3333 281.3500 103.1393 282.6625 100.7555 282.7150 C99.5397 282.7425 98.7422 282.2950 97.8192 281.5450 C93.6438 278.1450 94.0957 271.9300 93.0352 267.1300 C92.4772 264.5125 91.5372 261.9925 90.2452 259.6500 C85.9960 252.0200 80.1160 248.7410 72.3185 245.4960 C69.9538 244.5120 67.3530 243.3902 65.5547 241.5058 C60.5242 236.2340 69.1107 229.0975 72.3600 225.0358 C73.9702 223.0228 75.4577 220.7583 76.4648 218.3772 C79.4998 211.2032 79.0650 204.3680 76.8633 197.1125 C75.8248 193.6900 74.8890 190.6935 75.0100 187.0813 C75.8542 185.4577 76.9780 184.4518 78.3878 183.3448 Z"></path>
<path id="" fill="#2ab889" fill-opacity="1.0" stroke="#000000" stroke-width="0.0" stroke-opacity="1.0" stroke-linecap="round" stroke-linejoin="round"  filling="0" d="M165.0050 255.3250 C165.0312 255.2375 165.0493 255.1450 165.0833 255.0575 C165.6280 253.6650 167.2097 252.2400 168.5475 251.6425 C169.7997 252.4150 171.1348 252.9650 172.4835 253.5425 C170.0737 254.3775 167.5618 255.1450 165.0050 255.3250 Z"></path>
<path id="" fill="#22b98d" fill-opacity="1.0" stroke="#000000" stroke-width="0.0" stroke-opacity="1.0" stroke-linecap="round" stroke-linejoin="round"  filling="0" d="M160.6487 261.7675 C161.2505 259.9275 162.0853 258.4150 163.5972 257.1625 C163.5630 257.2400 163.5278 257.3175 163.4945 257.3975 C162.4160 259.9575 164.7527 262.9650 163.6447 263.6450 C162.4095 263.2750 161.6205 262.5875 160.6487 261.7675 Z"></path>
<path id="" fill="#e43535" fill-opacity="1.0" stroke="#000000" stroke-width="0.0" stroke-opacity="1.0" stroke-linecap="round" stroke-linejoin="round"  filling="0" d="M345.8150 253.7975 C343.7400 251.4975 341.5825 249.6597 338.8500 248.1725 C334.5150 245.8115 323.5800 243.6090 323.9350 237.3288 C324.2975 230.8920 336.6650 224.4610 338.2550 211.8172 C338.6100 208.9845 338.8225 205.7155 338.3550 202.8865 C337.5975 198.3163 332.4450 188.3707 336.6800 184.7292 C340.4025 181.5278 351.8575 183.6790 357.1250 182.8835 C360.2275 182.4147 363.2425 181.1400 365.9750 179.6295 C369.2425 177.8240 372.0950 174.9012 374.4650 172.0627 C377.5350 168.3848 381.1375 160.8335 386.7625 161.2335 C389.0825 161.3985 391.5600 164.1037 392.9375 165.8475 C394.5400 167.8770 395.8625 170.1240 397.4600 172.1577 C401.9375 177.8515 408.2500 182.0067 415.5050 182.9252 C419.9550 183.4888 433.0450 181.7677 435.5925 184.8940 C436.9525 186.5615 437.0600 188.7805 436.7875 190.8253 C436.3400 194.1682 435.0250 197.5525 434.2200 200.8387 C432.0700 209.6158 434.1575 217.7027 439.4425 224.9267 C442.2175 228.7185 448.8375 232.8940 447.9375 238.2518 C447.6075 240.2227 446.1850 241.7260 444.5975 242.8228 C441.6000 244.8925 437.8025 245.8853 434.5375 247.4937 C426.8250 251.2950 420.6000 259.2950 418.9075 267.7175 C417.8475 272.9875 417.8425 278.3800 413.3850 282.0975 C412.4525 282.3300 411.4450 282.6275 410.4750 282.5350 C405.7800 282.0850 400.5525 277.6925 396.0175 275.9525 C391.9325 274.3850 387.6025 273.8050 383.2475 274.0275 C380.3925 274.1750 377.5200 275.0800 374.9275 276.2475 C371.1675 277.9450 362.4075 284.3875 358.3425 282.0350 C356.1175 280.7500 355.0450 277.9450 354.4975 275.5600 C353.3225 270.4525 353.2100 265.8100 350.7725 261.0250 C349.9725 261.7400 349.0850 262.6300 347.9775 262.7875 C347.5150 262.8550 347.4925 262.7225 347.1450 262.4725 C346.7075 260.8675 347.5850 259.5175 348.2575 258.1125 C347.4075 256.6825 346.2275 255.4300 345.8150 253.7975 Z"></path>
<path id="" fill="#22b98d" fill-opacity="1.0" stroke="#000000" stroke-width="0.0" stroke-opacity="1.0" stroke-linecap="round" stroke-linejoin="round"  filling="0" d="M345.8150 253.7975 C347.9400 255.8825 349.8750 258.1225 350.7725 261.0250 C349.9725 261.7400 349.0850 262.6300 347.9775 262.7875 C347.5150 262.8550 347.4925 262.7225 347.1450 262.4725 C346.7075 260.8675 347.5850 259.5175 348.2575 258.1125 C347.4075 256.6825 346.2275 255.4300 345.8150 253.7975 Z"></path>
<path id="" fill="#fbc14b" fill-opacity="1.0" stroke="#000000" stroke-width="0.0" stroke-opacity="1.0" stroke-linecap="round" stroke-linejoin="round"  filling="0" d="M383.0975 206.0632 C393.8550 204.4258 403.9100 211.8040 405.5750 222.5582 C407.2400 233.3125 399.8850 243.3853 389.1350 245.0765 C378.3475 246.7737 368.2325 239.3887 366.5625 228.5965 C364.8925 217.8042 372.3025 207.7068 383.0975 206.0632 Z"></path>
<path id="" fill="#fbc14c" fill-opacity="1.0" stroke="#000000" stroke-width="0.0" stroke-opacity="1.0" stroke-linecap="round" stroke-linejoin="round"  filling="0" d="M253.2000 115.0365 C263.9725 113.4745 273.9750 120.9375 275.5425 131.7097 C277.1125 142.4818 269.6550 152.4875 258.8850 154.0632 C248.1033 155.6405 238.0862 148.1755 236.5160 137.3938 C234.9458 126.6120 242.4170 116.6000 253.2000 115.0365 Z"></path>
<path id="" fill="#fbc14b" fill-opacity="1.0" stroke="#000000" stroke-width="0.0" stroke-opacity="1.0" stroke-linecap="round" stroke-linejoin="round"  filling="0" d="M124.7217 206.2515 C135.4147 205.5485 144.6430 213.6698 145.3047 224.3652 C145.9665 235.0610 137.8098 244.2580 127.1118 244.8785 C116.4715 245.4957 107.3355 237.3930 106.6775 226.7552 C106.0193 216.1178 114.0867 206.9505 124.7217 206.2515 Z"></path>
</svg>