<svg xmlns="http://www.w3.org/2000/svg" viewBox="0 0 512 512" height="512.0px" width="512.0px">
<path id="" fill="#43ba4d" fill-opacity="1.0" stroke="#000000" stroke-width="0.0" stroke-opacity="1.0" stroke-linecap="round" stroke-linejoin="round"  filling="0" d="M145.0925 247.5403 C147.6803 236.6243 150.3488 225.7272 153.0980 214.8508 C154.3188 209.9615 155.3123 203.6897 157.2505 199.1675 C158.0237 197.3635 159.4710 195.5870 161.1398 194.5425 C163.6622 192.9633 166.7500 192.0210 169.7182 192.6908 C172.1382 193.2370 174.3997 194.8910 176.3817 196.3158 C182.1283 200.4470 187.5780 205.0822 193.1022 209.5063 L217.9458 229.1655 L240.1573 246.5350 C245.0567 250.3300 250.2250 254.0150 254.8250 258.1725 C260.6875 262.3750 266.1775 267.1125 271.8175 271.6025 L299.7550 293.7625 L322.8300 311.8450 C327.7700 315.7100 333.3825 319.3700 337.4525 324.1650 C339.1575 326.9825 340.0575 329.7375 339.2125 333.0400 C338.1750 337.0875 335.4525 338.8200 332.0150 340.7700 C327.7150 343.2050 323.2325 345.3350 318.8850 347.6875 C310.3875 352.2850 301.9700 357.0300 293.4400 361.5750 C287.0825 364.9600 280.8275 368.8400 274.3250 371.8925 C270.2300 373.7850 266.3300 376.0625 262.3700 378.2200 L244.7900 387.7550 C238.8730 390.9675 232.8245 393.9275 226.9165 397.1425 C211.4540 405.5625 196.1210 414.2625 180.4677 422.3200 C180.2363 422.5200 180.0210 422.7100 179.7580 422.8675 C176.3853 424.9125 172.7520 426.7075 169.3008 428.6350 C160.3065 433.7175 151.2592 438.7075 142.1608 443.6000 C136.1467 446.8775 130.0737 450.0200 124.0247 453.2325 C119.8092 455.4700 115.5735 457.9950 111.1257 459.7350 C108.8300 460.6325 106.7663 461.3700 104.2770 460.8075 C101.3047 460.1350 98.2158 458.0400 96.6660 455.3975 C95.7802 453.8875 95.1530 452.1150 95.2007 450.3525 C95.3318 445.5050 97.5348 439.5650 98.7190 434.7825 C101.1317 425.0425 103.3572 415.2250 106.0688 405.5625 C107.8618 399.4900 108.9488 393.2425 110.4980 387.1100 C113.2700 376.1375 116.3452 365.1825 118.7020 354.1125 C123.1535 335.6400 127.7838 317.2125 132.5925 298.8300 C134.8112 289.1100 137.3938 279.5200 139.7965 269.8475 C141.6385 262.4300 143.2895 254.9675 145.0925 247.5403 Z"></path>
<path id="" fill="#f8b317" fill-opacity="1.0" stroke="#000000" stroke-width="0.0" stroke-opacity="1.0" stroke-linecap="round" stroke-linejoin="round"  filling="0" d="M145.0925 247.5403 C147.6803 236.6243 150.3488 225.7272 153.0980 214.8508 C154.3188 209.9615 155.3123 203.6897 157.2505 199.1675 C158.0237 197.3635 159.4710 195.5870 161.1398 194.5425 C163.6622 192.9633 166.7500 192.0210 169.7182 192.6908 C172.1382 193.2370 174.3997 194.8910 176.3817 196.3158 C182.1283 200.4470 187.5780 205.0822 193.1022 209.5063 L217.9458 229.1655 L240.1573 246.5350 C245.0567 250.3300 250.2250 254.0150 254.8250 258.1725 C260.6875 262.3750 266.1775 267.1125 271.8175 271.6025 L299.7550 293.7625 L322.8300 311.8450 C327.7700 315.7100 333.3825 319.3700 337.4525 324.1650 C336.0675 324.8000 334.8925 325.6625 333.4400 326.2025 C315.8425 332.7200 300.8000 326.6400 285.5300 317.9850 C278.0525 313.7500 271.4475 309.8100 262.6950 308.7625 C257.7625 308.1850 252.7750 308.3000 247.8755 309.1050 C233.8177 311.5500 220.8513 318.6250 206.1485 316.2225 C186.7270 313.0500 172.8593 295.2925 152.2787 295.7100 C148.1342 295.7925 143.9823 296.5275 139.9758 297.5575 C137.9753 298.0700 135.8288 298.8400 133.7890 299.1075 C133.1597 299.1900 133.0618 299.2100 132.5925 298.8300 C134.8112 289.1100 137.3938 279.5200 139.7965 269.8475 C141.6385 262.4300 143.2895 254.9675 145.0925 247.5403 Z"></path>
<path id="" fill="#43ba4d" fill-opacity="1.0" stroke="#000000" stroke-width="0.0" stroke-opacity="1.0" stroke-linecap="round" stroke-linejoin="round"  filling="0" d="M145.0925 247.5403 C147.6803 236.6243 150.3488 225.7272 153.0980 214.8508 C154.3188 209.9615 155.3123 203.6897 157.2505 199.1675 C158.0237 197.3635 159.4710 195.5870 161.1398 194.5425 C163.6622 192.9633 166.7500 192.0210 169.7182 192.6908 C172.1382 193.2370 174.3997 194.8910 176.3817 196.3158 C182.1283 200.4470 187.5780 205.0822 193.1022 209.5063 L217.9458 229.1655 L240.1573 246.5350 C245.0567 250.3300 250.2250 254.0150 254.8250 258.1725 C252.5850 259.9750 244.2753 262.1950 241.2110 263.0025 C219.3530 268.7650 209.4670 262.1425 191.4028 251.8250 C185.8288 248.6430 180.1532 245.8477 173.7805 244.6875 C163.8918 242.8873 154.9085 246.0112 145.3045 247.5087 L145.0925 247.5403 Z"></path>
<path id="" fill="#f8b317" fill-opacity="1.0" stroke="#000000" stroke-width="0.0" stroke-opacity="1.0" stroke-linecap="round" stroke-linejoin="round"  filling="0" d="M118.7020 354.1125 C121.7298 354.5525 125.6933 352.5425 128.6550 351.7925 C136.1342 349.8950 144.0510 349.2125 151.6348 350.9000 C167.3678 354.4050 181.4617 369.1050 197.2800 370.7625 C211.7258 372.2725 225.4487 365.5775 239.4823 363.4325 C242.6445 362.9500 245.8310 362.8800 249.0237 362.9050 C255.0725 362.9500 260.6150 363.9250 266.1600 366.4125 C268.5425 367.4800 272.1325 368.8675 273.7700 370.9475 C274.0000 371.2400 274.1650 371.5600 274.3250 371.8925 C270.2300 373.7850 266.3300 376.0625 262.3700 378.2200 L244.7900 387.7550 C238.8730 390.9675 232.8245 393.9275 226.9165 397.1425 C211.4540 405.5625 196.1210 414.2625 180.4677 422.3200 C180.2363 422.5200 180.0210 422.7100 179.7580 422.8675 C176.3853 424.9125 172.7520 426.7075 169.3008 428.6350 C160.3065 433.7175 151.2592 438.7075 142.1608 443.6000 C136.1467 446.8775 130.0737 450.0200 124.0247 453.2325 C119.8092 455.4700 115.5735 457.9950 111.1257 459.7350 C108.8300 460.6325 106.7663 461.3700 104.2770 460.8075 C101.3047 460.1350 98.2158 458.0400 96.6660 455.3975 C95.7802 453.8875 95.1530 452.1150 95.2007 450.3525 C95.3318 445.5050 97.5348 439.5650 98.7190 434.7825 C101.1317 425.0425 103.3572 415.2250 106.0688 405.5625 C107.8618 399.4900 108.9488 393.2425 110.4980 387.1100 C113.2700 376.1375 116.3452 365.1825 118.7020 354.1125 Z"></path>
<path id="" fill="#43ba4d" fill-opacity="1.0" stroke="#000000" stroke-width="0.0" stroke-opacity="1.0" stroke-linecap="round" stroke-linejoin="round"  filling="0" d="M106.0688 405.5625 C106.5967 405.7550 106.9382 405.7675 107.4755 405.6575 C114.9275 404.1200 122.1758 401.2975 129.9380 401.4825 C143.7883 401.8125 155.1398 410.5850 167.1647 416.2125 C170.2950 417.6750 178.3375 420.5150 180.4677 422.3200 C180.2363 422.5200 180.0210 422.7100 179.7580 422.8675 C176.3853 424.9125 172.7520 426.7075 169.3008 428.6350 C160.3065 433.7175 151.2592 438.7075 142.1608 443.6000 C136.1467 446.8775 130.0737 450.0200 124.0247 453.2325 C119.8092 455.4700 115.5735 457.9950 111.1257 459.7350 C108.8300 460.6325 106.7663 461.3700 104.2770 460.8075 C101.3047 460.1350 98.2158 458.0400 96.6660 455.3975 C95.7802 453.8875 95.1530 452.1150 95.2007 450.3525 C95.3318 445.5050 97.5348 439.5650 98.7190 434.7825 C101.1317 425.0425 103.3572 415.2250 106.0688 405.5625 Z"></path>
<path id="" fill="#db8e19" fill-opacity="1.0" stroke="#000000" stroke-width="0.0" stroke-opacity="1.0" stroke-linecap="round" stroke-linejoin="round"  filling="0" d="M173.9792 419.8350 C173.3550 419.5550 172.6380 419.1825 172.2045 418.6325 C171.7590 418.0700 171.6755 417.5525 171.7505 416.8525 C171.9342 415.1350 173.7092 413.3200 174.9085 412.1575 C178.1747 408.9925 182.0015 406.2000 185.5115 403.3025 C191.1432 398.6900 196.6775 393.9600 202.1107 389.1175 C204.4342 387.0725 206.5340 384.7850 208.7990 382.6775 C210.8353 380.7825 213.0725 379.1125 215.0948 377.2050 C218.7943 373.7125 222.3288 370.2225 226.4185 367.1700 C228.2328 365.8150 230.6458 363.9400 232.8465 363.2875 C234.0298 362.9375 235.2615 363.9850 236.5000 363.9725 C239.0595 363.9425 241.6340 362.8900 244.1585 362.4700 C248.1308 361.8100 252.6350 362.9125 256.5875 363.4775 C259.1000 363.4325 274.8475 367.2950 276.7950 368.4350 C277.0675 369.0675 277.1725 369.1950 276.8825 369.8700 C276.4450 370.8950 274.6550 371.8575 273.6575 372.2325 C268.7675 374.4200 264.2900 377.4400 259.5275 379.8850 C243.3125 388.2950 227.2088 396.9200 211.2207 405.7550 L190.4153 417.0250 C187.2363 418.7350 184.0988 420.7175 180.8472 422.2725 C179.3310 423.0225 178.0833 423.8800 176.4645 424.4575 C175.9503 422.3700 175.6337 421.3325 173.9792 419.8350 Z"></path>
<path id="" fill="#33a83f" fill-opacity="1.0" stroke="#000000" stroke-width="0.0" stroke-opacity="1.0" stroke-linecap="round" stroke-linejoin="round"  filling="0" d="M256.5875 363.4775 C259.1000 363.4325 274.8475 367.2950 276.7950 368.4350 C277.0675 369.0675 277.1725 369.1950 276.8825 369.8700 C276.4450 370.8950 274.6550 371.8575 273.6575 372.2325 C270.2950 368.0375 261.5850 365.1000 256.5875 363.4775 Z"></path>
<path id="" fill="#37a93f" fill-opacity="1.0" stroke="#000000" stroke-width="0.0" stroke-opacity="1.0" stroke-linecap="round" stroke-linejoin="round"  filling="0" d="M173.9792 419.8350 C176.3380 420.0600 178.4438 421.8050 180.8472 422.2725 C179.3310 423.0225 178.0833 423.8800 176.4645 424.4575 C175.9503 422.3700 175.6337 421.3325 173.9792 419.8350 Z"></path>
<path id="" fill="#db8e19" fill-opacity="1.0" stroke="#000000" stroke-width="0.0" stroke-opacity="1.0" stroke-linecap="round" stroke-linejoin="round"  filling="0" d="M291.7850 287.4550 C293.9850 288.6275 295.8875 290.3150 297.8600 291.8275 C302.1575 295.1250 306.3625 298.5250 310.6225 301.8700 C318.4725 308.0325 326.8350 313.8825 334.2825 320.5025 C335.8575 321.9025 337.1750 323.2575 338.2250 325.1000 C338.2675 325.8675 338.4050 326.1200 337.8625 326.7075 C336.7350 327.9325 333.8475 328.0850 332.2825 327.9100 C331.5100 327.8250 330.8050 327.4750 330.0575 327.3750 C323.3250 328.4725 319.8500 330.1275 312.6225 329.9025 C311.2850 329.8600 309.6650 329.8850 308.3950 329.4425 C303.2875 327.6625 299.1400 324.8125 294.2900 322.5975 C290.8600 321.0300 287.4050 319.3425 283.9300 317.8875 C281.7650 316.9825 279.2975 316.3900 277.2975 315.1625 C276.4050 314.6150 275.9450 313.9700 275.7000 312.9725 C276.9525 309.3250 281.2925 303.9025 283.5175 300.5125 C286.3425 296.2100 289.0150 291.7925 291.7850 287.4550 Z"></path>
<path id="" fill="#33a83f" fill-opacity="1.0" stroke="#000000" stroke-width="0.0" stroke-opacity="1.0" stroke-linecap="round" stroke-linejoin="round"  filling="0" d="M338.2250 325.1000 C338.2675 325.8675 338.4050 326.1200 337.8625 326.7075 C336.7350 327.9325 333.8475 328.0850 332.2825 327.9100 C331.5100 327.8250 330.8050 327.4750 330.0575 327.3750 C330.1175 327.3425 330.1700 327.2925 330.2375 327.2775 C332.9875 326.6400 335.5300 326.0125 338.2250 325.1000 Z"></path>
<path id="" fill="#32a940" fill-opacity="1.0" stroke="#000000" stroke-width="0.0" stroke-opacity="1.0" stroke-linecap="round" stroke-linejoin="round"  filling="0" d="M152.6580 431.7150 C153.1447 431.9550 153.4865 432.0175 153.7912 432.4875 C154.1868 433.0975 154.2677 433.5900 154.0685 434.2850 C153.3017 436.9525 150.1235 438.7475 147.8555 440.0150 L147.2498 439.8600 C146.7445 438.9325 146.2372 437.9825 146.5710 436.9025 C147.2417 434.7300 150.7222 432.6825 152.6580 431.7150 Z"></path>
<path id="" fill="#32a940" fill-opacity="1.0" stroke="#000000" stroke-width="0.0" stroke-opacity="1.0" stroke-linecap="round" stroke-linejoin="round"  filling="0" d="M310.0150 348.0325 C310.9625 347.9750 312.3500 347.7750 313.2400 348.1200 C313.8725 348.3675 313.9050 348.4675 314.1425 349.0550 C314.0325 349.7325 313.8375 350.0525 313.4675 350.6075 C312.8125 350.7650 311.8675 351.0750 311.2025 351.0225 C310.5000 350.9675 310.3700 350.8225 309.9375 350.3350 C309.7300 349.5075 309.8725 348.8500 310.0150 348.0325 Z"></path>
<path id="" fill="#32a940" fill-opacity="1.0" stroke="#000000" stroke-width="0.0" stroke-opacity="1.0" stroke-linecap="round" stroke-linejoin="round"  filling="0" d="M328.2250 338.0425 C329.2075 338.0250 330.5500 337.9150 331.4425 338.3925 C332.0550 338.7200 332.0700 338.8350 332.2175 339.4600 C332.0275 340.0125 331.8350 340.3150 331.4450 340.7475 C330.6675 340.8925 329.7875 341.1175 328.9950 340.9725 C328.3375 340.8500 328.1250 340.5375 327.8300 339.9925 C327.8600 339.2275 327.9375 338.7525 328.2250 338.0425 Z"></path>
<path id="" fill="#32a940" fill-opacity="1.0" stroke="#000000" stroke-width="0.0" stroke-opacity="1.0" stroke-linecap="round" stroke-linejoin="round"  filling="0" d="M304.1425 352.0150 C304.9275 351.9425 305.8500 351.7775 306.5750 352.1400 C306.9775 352.3425 306.9225 352.5075 307.0500 352.9025 C306.8575 353.6250 306.5250 354.0525 306.0750 354.6250 C305.6725 354.8050 305.2750 354.9350 304.8550 355.0700 C304.5025 354.9400 304.2950 354.9575 304.1075 354.6000 C303.6975 353.8200 303.9675 352.8300 304.1425 352.0150 Z"></path>
<path id="" fill="#f0393c" fill-opacity="1.0" stroke="#000000" stroke-width="0.0" stroke-opacity="1.0" stroke-linecap="round" stroke-linejoin="round"  filling="0" d="M364.2450 108.0160 C366.2325 107.8585 368.4200 108.1192 370.1075 109.2715 C371.2300 110.0360 371.7875 111.1870 372.0075 112.5002 C372.2125 113.6945 372.1450 114.9197 371.8100 116.0843 C371.1550 118.4445 369.6475 120.6273 368.7450 122.9130 C366.4250 128.7965 365.2150 135.2343 361.5725 140.5343 C355.4675 149.4102 340.2150 147.5405 330.7150 149.2787 C334.4275 157.1540 342.7150 173.6255 342.4550 181.7787 C342.3650 184.6845 341.2300 187.6288 339.0025 189.5607 C331.4325 196.1285 310.3250 189.4323 300.6800 188.7075 C301.1025 196.9950 305.1700 209.0090 302.0975 216.7162 C299.3025 223.7258 291.9000 226.5047 286.2800 230.6857 C283.1850 232.9872 280.4450 236.2733 276.8350 237.7640 C276.3175 237.8650 275.7775 237.9583 275.2500 237.9413 C273.4750 237.8835 271.7375 236.8768 270.6075 235.5522 C269.4800 234.2280 268.8425 232.6353 269.0550 230.8822 C269.8950 223.9518 283.1275 217.8488 288.3125 213.9478 C289.3075 213.1998 290.3750 212.3810 290.6525 211.1040 C291.1200 208.9608 290.2725 206.1140 289.8925 203.9510 C288.9475 198.5367 287.5725 192.6947 288.4100 187.1985 C288.8900 184.0462 290.2125 180.8763 292.9050 178.9930 C300.2125 173.8825 321.3175 179.0488 330.3450 180.5867 C329.1200 175.9435 326.4350 171.1640 324.4975 166.7395 C321.7675 160.5002 316.9800 150.8790 319.8125 144.0870 C323.3975 135.4880 336.3000 135.6830 344.0275 135.0632 C345.8400 134.9180 348.3850 134.9113 350.0225 134.1003 C352.6775 132.7847 355.2550 122.5750 356.3275 119.5078 C357.8525 115.1478 359.8025 110.1458 364.2450 108.0160 Z"></path>
<path id="" fill="#5b7fc9" fill-opacity="1.0" stroke="#000000" stroke-width="0.0" stroke-opacity="1.0" stroke-linecap="round" stroke-linejoin="round"  filling="0" d="M244.4480 51.0267 C245.4155 50.9300 246.3255 50.9012 247.2552 51.2435 C250.8100 52.5513 261.8875 67.8720 263.4475 71.3020 C268.6025 82.6217 259.3000 89.4317 255.5850 99.2360 C262.4625 104.4178 275.8350 110.4035 278.6200 118.9790 C283.6575 134.4935 253.9500 139.8622 250.7650 145.9325 C250.5950 148.1060 257.6475 158.4830 259.1100 161.0737 C260.2150 163.0325 261.2575 165.0720 262.0150 167.1933 C263.7075 171.9292 263.2375 176.3240 261.0975 180.8322 C258.1425 187.0485 253.4875 191.6130 249.6165 197.1575 C247.6113 200.0293 246.0230 203.4235 243.6297 205.9843 C242.7135 206.9645 241.8940 207.4698 240.6345 207.9170 C239.6362 208.0915 238.4803 208.1398 237.4888 207.9005 C235.3710 207.3898 234.1037 205.8115 233.0517 204.0165 C232.1953 191.9068 249.4547 181.2312 250.1150 172.9967 C250.6425 166.4362 236.2993 155.4603 238.1210 143.5753 C239.8870 132.0567 257.6750 128.1877 265.9125 122.3223 C265.1625 120.9165 263.0675 119.6850 261.7750 118.8173 C255.6700 114.7200 245.7255 109.7620 243.4180 102.3203 C240.8595 94.0690 248.2767 86.5310 251.5650 79.7755 C251.9100 79.0685 252.2700 78.2415 252.0825 77.4413 C250.9250 72.4498 241.0408 64.7315 239.2767 59.0710 C238.7720 57.4512 238.9243 55.8260 239.7860 54.3553 C240.8565 52.5290 242.4550 51.5665 244.4480 51.0267 Z"></path>
<path id="" fill="#6759b2" fill-opacity="1.0" stroke="#000000" stroke-width="0.0" stroke-opacity="1.0" stroke-linecap="round" stroke-linejoin="round"  filling="0" d="M403.8475 200.0558 C415.7825 199.3188 420.0100 206.5262 428.8025 213.0822 C435.6125 212.6732 447.4775 209.1340 453.4375 212.6738 C455.6425 213.9837 456.3025 215.7052 456.8875 218.0508 C456.3575 220.2460 455.7425 221.6060 454.2100 223.2473 C450.8000 224.4223 447.3275 223.9005 443.8025 224.2350 C439.4925 224.6440 435.2550 225.6167 430.9025 225.6190 C422.9300 225.6228 418.2450 221.3810 412.5325 216.4342 C410.7625 214.9015 408.8525 213.5818 407.1875 211.9275 C403.9850 218.9377 402.0100 227.0270 397.7000 233.4710 C395.7700 236.3573 393.1300 238.6487 389.6175 239.2847 C381.4750 240.7587 373.1100 233.3757 367.0075 228.9100 C364.3425 226.9595 361.5850 225.1552 358.9125 223.2205 C355.8600 229.5818 354.8275 236.6835 352.2525 243.2365 C351.6100 244.8115 350.9450 246.3557 350.0675 247.8168 C344.4500 257.1600 333.0975 257.5750 323.9100 261.2075 C322.1850 261.8900 320.4250 262.6475 318.7875 263.5225 C317.3275 264.3025 316.0375 265.4350 314.3925 265.7975 C312.7725 266.1550 310.8725 265.9625 309.4825 265.0025 C308.0625 264.0225 307.2150 262.4100 306.9200 260.7350 C304.9700 249.6653 329.8850 247.6367 336.5750 243.3120 C337.9750 242.4068 339.0400 241.2125 339.8300 239.7480 C343.5775 232.8022 343.4825 223.0388 348.7775 216.0488 C350.7175 213.4860 353.4175 211.6953 356.6475 211.2980 C365.6375 210.1930 379.6575 222.1133 386.7625 227.5155 C389.8825 222.3740 392.0200 214.6405 395.0900 208.7725 C397.1000 204.9272 399.5225 201.4280 403.8475 200.0558 Z"></path>
<path id="" fill="#5b7fc9" fill-opacity="1.0" stroke="#000000" stroke-width="0.0" stroke-opacity="1.0" stroke-linecap="round" stroke-linejoin="round"  filling="0" d="M289.0275 440.4300 C283.9600 435.4700 280.5975 434.9125 275.1850 431.3625 C274.3450 430.8100 273.8825 430.4625 273.7150 429.4150 C273.2050 426.2250 278.0775 424.7750 280.1450 423.5200 C281.8475 422.4850 283.5325 421.1975 285.0725 419.9400 C288.8200 416.8800 291.9825 412.6300 294.1450 408.3200 C295.0775 406.4600 295.7225 404.2000 297.1325 402.6375 C297.7275 401.9800 298.4325 401.6325 299.3250 401.6300 C300.9875 401.6250 305.2300 409.9525 306.4050 411.5150 C307.8875 413.4800 309.5675 415.1850 311.3300 416.8900 C313.0300 418.3775 314.7625 419.7225 316.6700 420.9350 C319.4550 422.7025 324.8625 424.4950 326.3275 427.5025 C326.1300 428.7400 325.1850 429.5325 324.2050 430.2250 C322.3650 431.5250 320.2775 432.4475 318.4275 433.7400 C314.2625 436.6525 309.5150 441.2200 306.8900 445.5775 C305.4850 447.9075 304.4800 450.4750 303.1725 452.8575 C302.4225 454.2300 301.5400 455.4625 299.8325 455.1900 C297.2750 452.9150 295.8600 449.5625 294.0575 446.7100 C292.6475 444.4775 290.8625 442.3250 289.0275 440.4300 Z"></path>
<path id="" fill="#4267ba" fill-opacity="1.0" stroke="#000000" stroke-width="0.0" stroke-opacity="1.0" stroke-linecap="round" stroke-linejoin="round"  filling="0" d="M311.3300 416.8900 C313.0300 418.3775 314.7625 419.7225 316.6700 420.9350 C319.4550 422.7025 324.8625 424.4950 326.3275 427.5025 C326.1300 428.7400 325.1850 429.5325 324.2050 430.2250 C322.3650 431.5250 320.2775 432.4475 318.4275 433.7400 C314.2625 436.6525 309.5150 441.2200 306.8900 445.5775 C305.4850 447.9075 304.4800 450.4750 303.1725 452.8575 C302.4225 454.2300 301.5400 455.4625 299.8325 455.1900 C297.2750 452.9150 295.8600 449.5625 294.0575 446.7100 C292.6475 444.4775 290.8625 442.3250 289.0275 440.4300 C290.3025 439.3725 292.2500 439.1525 293.8275 438.6700 C299.2925 436.9875 303.8175 433.7875 306.9025 428.9600 C307.8225 427.5225 308.5575 426.0725 309.0650 424.4350 C309.6900 422.4100 309.8750 418.9350 311.0475 417.2700 C311.1375 417.1425 311.2350 417.0175 311.3300 416.8900 Z"></path>
<path id="" fill="#f0393c" fill-opacity="1.0" stroke="#000000" stroke-width="0.0" stroke-opacity="1.0" stroke-linecap="round" stroke-linejoin="round"  filling="0" d="M65.4055 296.0675 C64.2410 295.3725 55.2370 285.7850 54.9185 284.6650 C55.2180 283.4450 55.8703 282.4150 56.6085 281.4100 C59.1715 277.9275 69.2280 267.8700 72.6975 265.3875 C73.6595 264.6975 74.5898 264.1700 75.7670 263.9950 C79.8087 265.1575 85.2932 271.9250 88.2038 274.9600 C90.3098 276.7150 95.7337 281.5300 95.8265 284.3000 C95.8568 285.2025 95.0123 286.3025 94.4942 286.9725 C92.4920 289.5625 89.7980 291.7800 87.5208 294.1375 C84.5205 297.2400 81.9425 300.5175 78.4918 303.1775 C77.4342 303.9925 76.4605 304.5875 75.2097 305.0600 C71.5345 302.8900 68.0445 299.4250 65.4055 296.0675 Z"></path>
<path id="" fill="#cb3325" fill-opacity="1.0" stroke="#000000" stroke-width="0.0" stroke-opacity="1.0" stroke-linecap="round" stroke-linejoin="round"  filling="0" d="M88.2038 274.9600 C90.3098 276.7150 95.7337 281.5300 95.8265 284.3000 C95.8568 285.2025 95.0123 286.3025 94.4942 286.9725 C92.4920 289.5625 89.7980 291.7800 87.5208 294.1375 C84.5205 297.2400 81.9425 300.5175 78.4918 303.1775 C77.4342 303.9925 76.4605 304.5875 75.2097 305.0600 C71.5345 302.8900 68.0445 299.4250 65.4055 296.0675 C66.4365 294.2250 72.0825 292.4550 74.1880 291.2225 C76.0285 290.1450 77.7473 288.8725 79.3140 287.4275 C81.6305 285.3225 83.4015 282.2450 84.4980 279.3350 C84.9600 278.1100 85.4395 275.8750 86.2725 274.9500 C86.9440 274.8600 87.5355 274.8975 88.2038 274.9600 Z"></path>
<path id="" fill="#43ba4e" fill-opacity="1.0" stroke="#000000" stroke-width="0.0" stroke-opacity="1.0" stroke-linecap="round" stroke-linejoin="round"  filling="0" d="M394.1100 336.7650 C394.7850 336.7975 395.4575 336.8850 396.1175 337.0275 C396.7600 337.1700 397.4050 337.4425 397.9425 337.8225 C400.8525 339.8850 412.5475 351.5150 414.3275 354.4350 C414.8775 355.3350 415.4700 356.4875 415.1300 357.5600 C414.5625 359.3400 402.7825 371.6750 400.6400 373.6100 C399.0850 375.0150 397.5050 376.3175 395.6225 377.2500 C395.0450 377.3200 394.5775 377.3525 394.0325 377.0950 C391.9375 376.1025 375.6825 359.7275 374.8100 357.6400 C374.8450 356.7675 375.1050 356.1450 375.5325 355.3850 C377.1800 352.4350 389.3450 339.6925 392.1550 337.6325 C392.7500 337.1950 393.4100 336.9700 394.1100 336.7650 Z"></path>
<path id="" fill="#f9b317" fill-opacity="1.0" stroke="#000000" stroke-width="0.0" stroke-opacity="1.0" stroke-linecap="round" stroke-linejoin="round"  filling="0" d="M420.6700 264.2250 C428.1950 262.8800 435.3800 267.9150 436.6850 275.4500 C437.9900 282.9850 432.9150 290.1400 425.3750 291.4050 C417.8900 292.6575 410.8000 287.6325 409.5050 280.1550 C408.2125 272.6775 413.2000 265.5600 420.6700 264.2250 Z"></path>
<path id="" fill="#6759b2" fill-opacity="1.0" stroke="#000000" stroke-width="0.0" stroke-opacity="1.0" stroke-linecap="round" stroke-linejoin="round"  filling="0" d="M313.5175 78.1700 C318.9700 77.1630 324.2175 80.7343 325.2800 86.1762 C326.3425 91.6185 322.8250 96.9020 317.3950 98.0212 C313.8325 98.7555 310.1500 97.5195 307.7500 94.7842 C305.3525 92.0490 304.6075 88.2363 305.8000 84.7993 C306.9925 81.3622 309.9400 78.8310 313.5175 78.1700 Z"></path>
<path id="" fill="#32a940" fill-opacity="1.0" stroke="#000000" stroke-width="0.0" stroke-opacity="1.0" stroke-linecap="round" stroke-linejoin="round"  filling="0" d="M409.8450 144.4153 C415.2500 143.2728 420.5650 146.7063 421.7475 152.1042 C422.9300 157.5022 419.5350 162.8423 414.1450 164.0627 C408.7000 165.2957 403.2925 161.8582 402.1000 156.4048 C400.9050 150.9515 404.3825 145.5695 409.8450 144.4153 Z"></path>
<path id="" fill="#5b7fc9" fill-opacity="1.0" stroke="#000000" stroke-width="0.0" stroke-opacity="1.0" stroke-linecap="round" stroke-linejoin="round"  filling="0" d="M117.3280 157.0723 C121.0405 157.0380 129.8067 156.4167 133.0733 157.8290 C133.9730 158.2180 134.7778 158.8613 135.0988 159.8190 C135.4040 160.7300 135.2388 161.9040 134.7925 162.7430 C132.5782 166.9075 118.2353 162.6938 114.3265 163.9978 C113.2913 165.8915 114.0113 172.5762 113.9115 175.0618 C113.7737 176.8420 113.7137 178.6160 113.6048 180.3955 C113.4933 182.2173 112.6898 184.0948 111.2647 185.2715 C110.5867 185.8315 109.6492 186.3257 108.7415 186.1073 C107.9478 185.9162 107.4050 185.3030 107.0258 184.6198 C105.1797 181.2955 106.1068 168.4718 107.1780 164.6113 C109.0035 163.9505 110.4427 164.1150 112.2630 163.7332 C114.1005 163.3477 113.1353 159.9617 114.1425 158.5140 C114.9247 157.3898 116.0883 157.3118 117.3280 157.0723 Z"></path>
<path id="" fill="#f0393c" fill-opacity="1.0" stroke="#000000" stroke-width="0.0" stroke-opacity="1.0" stroke-linecap="round" stroke-linejoin="round"  filling="0" d="M197.1675 144.1548 C202.0658 143.1302 206.8665 146.2720 207.8887 151.1705 C208.9108 156.0692 205.7668 160.8687 200.8678 161.8885 C195.9718 162.9075 191.1763 159.7663 190.1548 154.8707 C189.1335 149.9755 192.2725 145.1785 197.1675 144.1548 Z"></path>
<path id="" fill="#5b7fc9" fill-opacity="1.0" stroke="#000000" stroke-width="0.0" stroke-opacity="1.0" stroke-linecap="round" stroke-linejoin="round"  filling="0" d="M87.4098 156.3030 C91.0212 155.9892 100.1700 156.1517 103.5815 156.8978 C104.7932 157.1630 106.2263 157.6387 106.8415 158.8195 C107.3402 159.7765 107.0005 161.0652 106.5840 161.9953 C106.1815 162.8945 105.5245 163.1095 104.6685 163.4285 C101.2580 164.1187 97.1985 163.8530 93.7168 163.7643 C91.4798 163.7072 87.0168 163.8595 85.4880 161.9113 C84.8353 161.0793 84.8297 160.2525 85.0182 159.2608 C85.2970 157.7945 86.2160 157.0775 87.4098 156.3030 Z"></path>
<path id="" fill="#5b7fc9" fill-opacity="1.0" stroke="#000000" stroke-width="0.0" stroke-opacity="1.0" stroke-linecap="round" stroke-linejoin="round"  filling="0" d="M110.0132 134.9820 C110.6628 134.9685 111.2890 135.0132 111.9285 135.1387 C112.6793 135.2860 113.3322 135.6788 113.6775 136.3887 C114.5110 138.1028 114.3783 152.4180 113.7162 154.8350 C113.3155 156.2975 111.8483 156.8705 110.6338 157.5253 C110.5522 157.5315 110.4707 157.5482 110.3893 157.5443 C109.5810 157.5055 108.0527 156.6633 107.4640 156.1120 C106.8223 153.3138 106.5973 140.0615 107.2812 137.5278 C107.6350 136.2180 108.9068 135.5625 110.0132 134.9820 Z"></path>
</svg>