<svg xmlns="http://www.w3.org/2000/svg" viewBox="0 0 512 512" height="512.0px" width="512.0px">
<path id="" fill="#ebe1ce" fill-opacity="1.0" stroke="#000000" stroke-width="0.0" stroke-opacity="1.0" stroke-linecap="round" stroke-linejoin="round"  filling="0" d="M285.7150 60.0342 C292.0225 59.7285 298.4150 59.9733 304.7325 59.9518 C308.7950 59.9380 316.8900 59.3510 320.6000 60.2500 C323.4475 60.9398 326.8800 63.6140 328.2875 66.2300 C328.7725 67.1338 328.8825 68.6308 328.9825 69.6557 C329.6800 76.7422 328.4775 83.8087 328.1550 90.8597 L326.1200 138.7355 L322.0175 265.3575 L317.1375 375.1250 L315.1025 423.7100 C314.7975 430.7350 316.2050 439.4350 313.9225 446.0575 C312.3175 448.7025 309.9950 450.9100 306.9350 451.7275 C303.5050 452.6450 297.5500 452.5600 294.4500 450.6950 C292.3725 449.4575 290.8775 447.4375 290.3025 445.0900 C289.2100 440.6000 290.1550 435.2750 289.9475 430.6600 L287.8975 383.3600 L280.9325 192.7340 L276.9175 98.7032 C276.7950 95.1010 276.2625 91.5352 276.0650 87.9400 C275.8425 83.9545 275.9500 79.9138 275.9350 75.9197 C275.9250 73.5505 275.7000 70.9153 276.1475 68.5825 C276.3525 67.4490 276.7725 66.3647 277.3825 65.3865 C279.2300 62.4430 282.4325 60.8215 285.7150 60.0342 Z"></path>
<path id="" fill="#eae0cd" fill-opacity="1.0" stroke="#000000" stroke-width="0.0" stroke-opacity="1.0" stroke-linecap="round" stroke-linejoin="round"  filling="0" d="M193.4003 60.0125 C199.5870 59.6882 205.9015 59.9495 212.1045 59.9450 C217.1373 59.9415 222.3885 59.6070 227.3878 60.0457 C231.9065 60.4422 234.2453 63.4417 236.9872 66.6765 C237.2850 72.4577 237.3140 78.5785 236.9552 84.3560 C236.7598 87.5033 236.3118 90.6322 236.1505 93.7815 C235.8780 99.1028 236.2140 104.4478 236.0525 109.7715 C235.9370 113.5865 235.2883 117.3760 235.1390 121.1920 C234.9775 125.3238 235.1772 129.4690 234.9995 133.6000 C234.8228 137.7105 234.1815 141.7650 234.1010 145.8922 C234.0168 150.2340 234.5193 156.8058 233.9445 160.8383 C233.5412 163.6673 231.3995 162.4715 229.9738 163.7493 C229.7310 163.9673 229.8315 163.9753 229.8573 164.3548 C230.6775 165.5345 231.7415 165.9617 233.0672 166.3855 C233.0502 170.9045 233.0680 175.4232 233.1207 179.9418 C231.7823 179.9218 230.4592 179.6810 229.4040 180.6200 C229.0247 181.5850 229.1828 182.6515 229.2253 183.6700 C230.5170 183.8790 231.8212 183.9625 233.1248 184.0675 C231.7433 192.8582 232.3412 201.3465 232.0148 210.1660 L230.0403 265.2450 L225.0117 395.3825 C224.8802 398.6450 224.3723 401.8875 224.1842 405.1500 C223.9485 409.2325 224.1680 413.3350 224.0052 417.4225 C223.8743 420.7175 223.3622 423.9950 223.1865 427.2900 C222.9350 432.0050 223.0502 436.7775 223.0065 441.4975 L222.8593 442.3950 C222.6613 443.6175 222.4575 444.7275 221.9068 445.8500 C220.4445 448.8300 217.6130 451.3775 214.4495 452.4200 C210.9857 453.5600 206.1420 452.7550 202.9750 450.9950 C200.7283 449.7450 198.9863 447.7225 198.3250 445.2125 C197.5340 442.2100 198.0703 438.8100 197.9405 435.7225 C197.7722 431.7250 197.1662 427.7500 197.0290 423.7475 C196.8400 418.2350 197.0585 412.7075 196.9345 407.1900 C196.8495 403.4250 196.2940 399.6875 196.0775 395.9300 C195.8362 391.7450 196.0728 387.5325 195.8975 383.3425 C195.7437 379.6700 195.2007 376.0175 195.0315 372.3450 C194.7305 365.8175 195.1628 359.2525 194.9258 352.7200 L189.0197 215.9292 L187.0092 155.2242 C186.8327 147.7385 187.1725 140.2298 186.9120 132.7482 C186.7928 129.3233 186.3342 125.9170 186.1100 122.4983 C185.8593 118.6728 186.0567 114.8260 185.8813 110.9960 C185.7110 107.2820 185.1562 103.5883 185.0163 99.8735 C184.7937 93.9610 185.0753 88.0212 184.9232 82.1032 C184.8250 78.2760 183.6678 73.9333 184.1475 70.1860 C184.3060 68.9463 184.6147 67.8553 185.2455 66.7702 C187.1223 63.5425 189.7420 61.0325 193.4003 60.0125 Z"></path>
<path id="" fill="#cd5a46" fill-opacity="1.0" stroke="#000000" stroke-width="0.0" stroke-opacity="1.0" stroke-linecap="round" stroke-linejoin="round"  filling="0" d="M187.6830 178.0327 C192.3635 177.7668 197.2083 178.0247 201.9043 178.0325 C212.5703 178.0920 223.2368 178.0590 233.9023 177.9330 C233.4648 182.7285 233.0972 187.7852 233.1317 192.5948 C232.9637 192.6965 232.8152 192.8427 232.6272 192.9000 C231.8067 193.1503 226.7495 192.8053 225.4408 192.8085 L201.7510 192.8645 C197.1765 192.8598 192.5573 192.6393 187.9897 192.8785 C188.0692 187.9755 187.2095 182.9100 187.6830 178.0327 Z"></path>
<path id="" fill="#cd5945" fill-opacity="1.0" stroke="#000000" stroke-width="0.0" stroke-opacity="1.0" stroke-linecap="round" stroke-linejoin="round"  filling="0" d="M186.4538 149.9880 L235.0715 149.9393 C234.9182 154.6532 234.6190 159.3025 234.2070 164.0025 C231.3575 164.5643 225.2943 164.0395 222.0818 164.0312 C210.4970 164.0013 198.6425 163.5282 187.0895 164.3078 C186.6995 159.5345 186.7905 154.7595 186.4538 149.9880 Z"></path>
<path id="" fill="#cd5a46" fill-opacity="1.0" stroke="#000000" stroke-width="0.0" stroke-opacity="1.0" stroke-linecap="round" stroke-linejoin="round"  filling="0" d="M278.3050 149.9795 C294.4750 150.0562 310.6450 150.0315 326.8150 149.9057 C326.2800 152.5585 326.1200 161.0963 326.1525 164.1570 C325.7525 164.2807 325.9000 164.2758 325.5175 164.2525 C318.5450 163.8318 311.4775 164.0390 304.4925 164.0380 C295.9250 164.0367 287.3425 163.8932 278.7875 164.3840 C278.5575 159.6095 278.7750 154.7278 278.3050 149.9795 Z"></path>
<path id="" fill="#cd5a45" fill-opacity="1.0" stroke="#000000" stroke-width="0.0" stroke-opacity="1.0" stroke-linecap="round" stroke-linejoin="round"  filling="0" d="M279.6750 177.9500 C295.0700 178.0948 310.4675 178.0820 325.8625 177.9122 C324.8750 182.5533 325.9125 187.5360 324.8175 192.1868 C324.3375 192.5087 323.9500 192.6947 323.3675 192.7530 C319.8350 193.1065 316.0400 192.8188 312.4800 192.8225 L293.0550 192.8212 C288.7275 192.8022 284.3650 192.6470 280.0450 192.8743 C279.9325 187.8943 279.7125 182.9350 279.6750 177.9500 Z"></path>
<path id="" fill="#22204d" fill-opacity="1.0" stroke="#000000" stroke-width="0.0" stroke-opacity="1.0" stroke-linecap="round" stroke-linejoin="round"  filling="0" d="M300.1675 86.5425 C301.8725 86.4905 303.5050 86.4373 305.1425 87.0228 C306.4450 87.4883 307.6150 88.3813 308.2000 89.6613 C309.7525 93.0537 309.6650 108.2070 308.2225 111.6390 C307.4750 113.4197 305.7225 114.1017 304.0400 114.7332 C301.9700 115.0965 299.5175 115.1202 297.6550 114.0208 C296.1250 113.1190 295.2725 111.5312 294.9225 109.8340 C294.4425 107.5095 294.3375 94.3903 294.7400 91.9688 C294.9075 90.9655 295.2450 90.0080 295.8300 89.1710 C296.8900 87.6590 298.4025 86.9098 300.1675 86.5425 Z"></path>
<path id="" fill="#22204d" fill-opacity="1.0" stroke="#000000" stroke-width="0.0" stroke-opacity="1.0" stroke-linecap="round" stroke-linejoin="round"  filling="0" d="M207.7583 86.5525 C209.4742 86.4433 211.3288 86.2900 212.9668 86.9037 C214.5098 87.4820 215.5347 88.4510 216.1788 89.9587 C217.7032 93.5273 217.9928 108.1130 216.3698 111.5918 C215.5522 113.3432 214.0175 114.0335 212.2810 114.6223 C211.3058 114.7975 210.2260 114.8520 209.2312 114.8282 C206.8183 114.7700 205.2708 113.7863 203.6335 112.1065 C202.6658 109.3542 202.4057 91.9045 203.7117 89.3962 C204.4855 87.9098 206.2530 87.0692 207.7583 86.5525 Z"></path>
<path id="" fill="#22204d" fill-opacity="1.0" stroke="#000000" stroke-width="0.0" stroke-opacity="1.0" stroke-linecap="round" stroke-linejoin="round"  filling="0" d="M286.1125 51.0853 C290.6450 50.5710 295.4925 50.9325 300.0600 50.9360 C305.7825 50.9402 311.7125 50.5965 317.3975 51.1530 C319.6350 51.3720 321.8675 51.8037 323.9625 52.6355 C328.7800 54.5477 333.1000 58.4727 335.1650 63.2563 C336.8475 67.1550 337.1000 70.8058 337.1075 75.0023 C337.1175 82.5732 336.5750 90.0700 336.2150 97.6248 C335.9975 102.1663 336.1150 106.7210 335.9700 111.2653 C335.8050 116.4430 335.3225 121.6127 335.1625 126.7930 L330.1850 263.9525 L326.1550 374.2275 C326.0225 378.1900 326.0925 382.1600 325.9725 386.1250 C325.8225 391.1250 325.3925 396.1300 325.1825 401.1300 C325.0100 405.2075 325.0950 409.2925 324.9775 413.3725 C324.8525 417.7725 324.4800 422.1775 324.2725 426.5775 C324.0700 430.8475 324.2500 435.1650 323.9350 439.4200 C323.6700 442.9700 323.0575 446.6100 321.7050 449.9175 C320.2450 453.4850 317.6325 456.8525 314.0150 458.3800 C311.8925 459.6950 309.0500 460.3225 306.6050 460.6850 C300.2425 461.6250 292.7425 460.8075 287.4575 456.8600 C283.4325 453.8525 281.1450 449.3725 280.4275 444.4525 C279.8000 440.1600 279.8400 435.6300 279.6550 431.2950 L278.6475 401.9700 L274.8900 294.2575 L269.7850 149.2100 L267.9200 95.9400 C267.6675 88.0795 266.8600 80.0797 267.1100 72.2280 C267.2650 67.3125 268.5675 63.0412 271.5750 59.1080 C275.1600 54.4195 280.3475 51.8607 286.1125 51.0853 Z M282.1775 69.7932 C281.5275 74.6317 282.0050 79.9865 282.2100 84.8633 C282.5250 91.8727 282.7875 98.8845 283.0025 105.8980 L286.6600 209.8405 L291.8525 357.7800 L293.7675 412.3600 C294.0850 421.3675 293.9475 430.5500 294.7050 439.5275 C294.8200 440.9150 294.9150 442.4700 295.7625 443.6300 C296.5475 444.7100 297.6350 445.4500 298.7300 446.1750 C300.8400 446.2975 302.9450 446.3400 305.0525 446.1300 C306.9000 444.9250 308.4450 443.5150 308.9175 441.2675 C309.1325 440.2425 309.1225 439.1075 309.1600 438.0625 C309.3000 432.1075 309.7575 426.1750 309.9475 420.2250 L312.9200 338.8350 L318.2925 188.7515 L321.2000 105.9758 C321.5000 94.7580 322.6825 83.4327 322.2900 72.2087 C322.2225 70.2718 322.1400 69.3590 320.7475 67.8900 C320.0700 67.1750 319.2200 66.4550 318.2800 66.1200 C315.6500 65.1825 309.6625 65.7185 306.6050 65.7215 C300.4700 65.7280 292.7250 65.2990 286.8250 65.8055 C284.7100 66.3830 283.4050 68.0807 282.1775 69.7932 Z"></path>
<path id="" fill="#22204d" fill-opacity="1.0" stroke="#000000" stroke-width="0.0" stroke-opacity="1.0" stroke-linecap="round" stroke-linejoin="round"  filling="0" d="M193.9775 51.0940 C198.1295 50.6418 202.4998 50.9473 206.6837 50.9445 C213.5340 50.9398 221.1675 50.2220 227.8745 51.5470 C233.2910 52.6172 238.2590 55.7487 241.2955 60.3927 C243.9490 64.4515 244.9368 69.1230 244.9897 73.9167 C245.0547 79.7995 244.3050 85.7272 244.1427 91.6160 L242.1633 148.5685 L236.1745 319.3075 L233.1313 405.6375 L232.2502 431.8725 C232.0797 436.0875 232.3448 440.4725 231.4415 444.6150 C230.2092 450.2700 227.9908 454.8125 222.9902 457.9875 C220.3350 459.3325 217.4815 460.2400 214.5385 460.6775 C208.2103 461.6175 200.7870 460.8500 195.5350 456.9075 C191.0972 453.5750 189.1550 448.7200 188.4470 443.3625 C187.6853 437.5975 187.8910 431.5600 187.6175 425.7375 C186.8975 410.3100 186.3470 394.8775 185.9657 379.4375 L181.8952 267.8275 L176.9055 130.6452 L175.7425 98.2095 C175.3387 89.3190 174.6655 80.3355 174.9760 71.4358 C175.1328 66.9442 176.4473 62.7182 179.2360 59.1585 C182.9375 54.4340 188.1000 51.8215 193.9775 51.0940 Z M189.9722 69.4688 C188.9478 74.2678 190.0538 87.7552 190.2735 93.3210 L191.8737 136.3537 L199.4162 344.9625 L201.8295 409.9625 C202.0145 416.6350 202.2460 423.3050 202.5242 429.9750 C202.6382 433.1400 202.6100 436.3625 202.8840 439.5150 C202.9910 440.7475 203.1608 442.3775 203.7787 443.4550 C204.3932 444.5275 205.7007 445.4575 206.6810 446.1825 C209.5658 446.3250 212.6832 446.8050 215.0208 444.6950 C215.7430 444.0425 216.3483 443.2975 216.9337 442.5250 C217.1490 440.9050 217.2583 439.3200 217.3073 437.6875 C218.5530 409.8950 219.5267 382.0925 220.2285 354.2800 L225.2365 211.4288 L228.2758 124.8755 L229.3062 95.6765 C229.6210 88.1480 230.2235 80.6147 230.0760 73.0728 C230.0338 70.9173 229.7580 69.3355 228.2493 67.7103 C226.4758 65.7995 224.8185 65.7558 222.3495 65.7177 C216.6465 65.6300 210.9320 65.7527 205.2275 65.7377 C201.5918 65.7282 197.7007 65.4180 194.0952 65.8188 C192.4145 66.7733 191.2027 68.0115 189.9722 69.4688 Z"></path>
</svg>