<svg xmlns="http://www.w3.org/2000/svg" viewBox="0 0 512 512" height="512.0px" width="512.0px">
<path id="" fill="#feca72" fill-opacity="1.0" stroke="#000000" stroke-width="0.0" stroke-opacity="1.0" stroke-linecap="round" stroke-linejoin="round"  filling="0" d="M254.9775 71.4388 C356.8200 70.8570 439.8550 152.9390 440.4475 254.7825 C441.0425 356.6250 358.9700 439.6700 257.1275 440.2750 C155.2670 440.8800 72.2063 358.7900 71.6127 256.9325 C71.0190 155.0720 153.1175 72.0208 254.9775 71.4388 Z"></path>
<path id="" fill="#a6dddd" fill-opacity="1.0" stroke="#000000" stroke-width="0.0" stroke-opacity="1.0" stroke-linecap="round" stroke-linejoin="round"  filling="0" d="M350.8900 183.6562 C391.4550 179.9032 427.3450 209.8275 430.9475 250.4050 C434.5525 290.9825 404.4950 326.7625 363.9050 330.2150 C323.5250 333.6500 287.9725 303.7850 284.3875 263.4175 C280.8050 223.0527 310.5375 187.3895 350.8900 183.6562 Z"></path>
<path id="" fill="#a6dddd" fill-opacity="1.0" stroke="#000000" stroke-width="0.0" stroke-opacity="1.0" stroke-linecap="round" stroke-linejoin="round"  filling="0" d="M145.1070 184.0522 C185.4180 179.3882 221.8717 208.2997 226.5112 248.6135 C231.1505 288.9275 202.2168 325.3625 161.9000 329.9775 C121.6185 334.5875 85.2207 305.6850 80.5855 265.4075 C75.9503 225.1277 104.8310 188.7122 145.1070 184.0522 Z"></path>
<path id="" fill="#37474f" fill-opacity="1.0" stroke="#000000" stroke-width="0.0" stroke-opacity="1.0" stroke-linecap="round" stroke-linejoin="round"  filling="0" d="M146.7465 174.1078 C158.5562 173.1508 170.4353 174.6918 181.6100 178.6300 C202.1817 185.7525 218.9530 200.9662 228.0410 220.7482 C229.1487 223.1727 230.4060 225.7195 231.2065 228.2625 C232.1885 231.3815 232.7473 234.6367 234.1573 237.6022 C236.9390 237.3005 239.0658 235.0753 241.5282 233.9055 C245.4037 232.0647 249.7975 230.9595 254.0675 230.6200 C262.3925 229.9585 271.4950 233.4070 277.7725 238.7745 C281.2700 226.5222 284.3725 218.2555 291.6950 207.6385 C303.7975 190.0885 324.1150 178.6445 344.8675 174.9075 C365.2650 171.2343 388.3825 176.5502 405.3225 188.3777 C423.7275 201.2280 435.2625 220.2122 439.1725 242.2057 C440.0625 242.0835 440.9325 242.0405 441.8300 242.0210 C446.3650 241.9220 455.5525 240.9138 458.8875 244.2993 C460.1525 245.6017 460.8425 247.3580 460.8000 249.1738 C460.7700 250.9800 460.0125 252.6550 458.7175 253.9050 C455.2000 257.2975 445.2425 256.2925 440.4525 256.1650 C440.4700 261.2875 439.9450 266.7050 439.0000 271.7400 C434.8800 293.2150 422.3975 312.1725 404.2950 324.4400 C387.9000 335.6325 364.7725 340.7275 345.2225 337.0600 C314.0725 332.0625 288.5150 309.7025 279.4250 279.4900 C278.3350 275.9125 277.6375 272.0950 277.0575 268.3975 C276.6475 265.7900 276.5750 260.0350 275.5575 257.9550 C274.1875 255.1625 271.8400 252.9325 269.5750 250.8600 C265.7050 247.3147 261.0250 244.8042 255.6300 245.0683 C249.4297 245.3717 244.6373 248.6987 240.3853 252.9675 C238.9787 254.3800 237.4772 255.9575 236.6118 257.7725 C235.3087 260.5100 235.1645 267.9700 234.5460 271.4650 C231.8403 286.7650 223.9897 301.5775 213.4933 312.9850 C199.7993 327.8675 178.6315 337.2350 158.4727 338.0025 C136.1472 338.8500 114.2140 331.6075 97.7567 316.1950 C83.2227 302.5850 72.7775 283.1725 72.1235 263.0200 C67.3520 263.3025 56.5488 264.1750 53.0625 260.9175 C51.7177 259.6600 51.0920 257.9825 51.0685 256.1600 C51.0437 254.2225 51.6678 252.4225 53.0923 251.0825 C56.6577 247.7250 67.2830 248.7905 72.0570 249.0005 C72.4622 231.7380 81.1620 213.5253 92.6378 200.8610 C104.9050 187.5085 121.1722 178.4950 138.9975 175.1730 C141.5580 174.7103 144.1435 174.2270 146.7465 174.1078 Z M362.8800 323.6050 C400.2350 321.1750 428.5450 288.9150 426.1025 251.5600 C423.6600 214.2047 391.3925 185.9057 354.0375 188.3593 C316.7000 190.8115 288.4150 223.0625 290.8550 260.4025 C293.2975 297.7400 325.5400 326.0350 362.8800 323.6050 Z M157.8800 323.6200 C195.3480 321.4050 223.8777 289.1550 221.5045 251.6975 C219.1315 214.2395 186.7598 185.8475 149.3120 188.3805 C112.0895 190.8983 83.9057 223.0330 86.2645 260.2650 C88.6235 297.4975 120.6373 325.8200 157.8800 323.6200 Z"></path>
<path id="" fill="#fefefe" fill-opacity="1.0" stroke="#000000" stroke-width="0.0" stroke-opacity="1.0" stroke-linecap="round" stroke-linejoin="round"  filling="0" d="M364.9325 204.1028 C365.9250 203.9733 367.0025 204.0748 367.9450 204.4182 C369.8800 205.1245 371.9425 206.7680 372.7425 208.7055 C373.4625 210.4535 373.2850 212.5168 372.4925 214.2095 C370.3050 218.8800 364.3150 218.1300 360.0150 218.7670 C357.4200 219.1510 354.7275 219.8728 352.2625 220.7663 C339.9100 225.2442 330.8275 233.2970 325.8550 245.5530 C324.9525 247.7773 323.9975 250.0150 323.5200 252.3750 C322.7200 256.3350 322.9525 261.9600 321.2050 265.4900 C320.2425 267.4375 318.9400 268.2600 316.9350 268.9500 C316.8425 268.9725 316.7525 268.9975 316.6575 269.0150 C314.6450 269.4225 313.1375 269.2675 311.4425 268.0300 C309.8150 266.8400 308.4350 264.6325 308.2225 262.6125 C307.9825 260.3350 308.5150 257.7325 308.8350 255.4675 C310.4375 244.0345 314.3100 234.0655 321.6925 225.0570 C329.3675 215.6902 340.8350 208.5887 352.6375 205.8200 C356.6500 204.8788 360.8375 204.4993 364.9325 204.1028 Z"></path>
<path id="" fill="#fefefe" fill-opacity="1.0" stroke="#000000" stroke-width="0.0" stroke-opacity="1.0" stroke-linecap="round" stroke-linejoin="round"  filling="0" d="M159.6987 204.1008 C160.3575 204.0397 160.9583 204.0120 161.6165 204.1028 C164.4653 204.4950 166.3085 206.5228 167.9470 208.6920 C168.2798 210.6192 168.2097 212.3200 167.9530 214.2405 C166.9625 215.7332 165.8800 216.7850 164.4310 217.8107 C161.9828 218.2195 159.4207 218.2328 156.9478 218.5168 C151.6835 219.1215 146.6418 220.7238 141.8853 223.0310 C130.2372 228.6812 120.9065 240.2392 118.5332 253.0800 C117.8362 256.8525 118.4385 260.9375 117.0960 264.5775 C116.2798 266.7900 114.3750 267.9375 112.3463 268.8950 C112.0843 268.9600 111.8195 269.0150 111.5527 269.0575 C109.6588 269.3725 107.5963 268.7225 106.0730 267.5725 C104.6693 266.5125 104.1252 265.2125 103.9500 263.4975 C102.5215 249.5165 108.7303 235.1942 117.4220 224.5677 C128.2753 211.2982 143.0508 205.8033 159.6987 204.1008 Z"></path>
<path id="" fill="#37474f" fill-opacity="1.0" stroke="#000000" stroke-width="0.0" stroke-opacity="1.0" stroke-linecap="round" stroke-linejoin="round"  filling="0" d="M213.7055 342.0350 C215.7903 341.8275 218.0180 342.1100 219.6543 343.5325 C221.6633 345.2775 222.8073 348.1600 224.1308 350.4175 C227.8777 356.8075 234.7105 362.3025 241.4500 365.2650 C256.3525 371.8125 273.9975 366.7925 284.5400 354.8625 C287.7050 351.2825 290.5425 343.6750 294.3225 342.3375 C296.2800 341.6450 298.5925 341.8750 300.4150 342.8500 C301.9500 343.6725 303.1900 345.0525 303.6775 346.7425 C304.9350 351.0925 302.4200 354.5850 300.3275 358.1300 C293.6325 368.8725 283.9525 376.2500 271.8625 380.0000 C258.2675 384.2200 243.9872 383.0725 231.3783 376.3175 C223.2413 372.0625 216.3867 365.7125 211.5210 357.9250 C210.2770 355.9575 208.9775 353.8175 208.3490 351.5600 C207.7668 349.4650 207.8170 347.0825 208.9512 345.1775 C210.0457 343.3375 211.7065 342.5525 213.7055 342.0350 Z"></path>
</svg>