<svg xmlns="http://www.w3.org/2000/svg" viewBox="0 0 512 512" height="512.0px" width="512.0px">
<path id="" fill="#bbaad6" fill-opacity="1.0" stroke="#000000" stroke-width="0.0" stroke-opacity="1.0" stroke-linecap="round" stroke-linejoin="round"  filling="0" d="M440.5400 106.8775 L443.0750 106.8112 C442.8650 114.6385 443.0500 122.5157 443.0500 130.3470 L443.0500 175.3922 L443.0425 311.6650 L443.0575 364.0375 L443.0625 380.3800 C443.0625 383.3225 443.2475 386.4400 442.9225 389.3650 C442.8775 389.7800 442.8750 390.1400 442.4925 390.3750 C441.9425 390.7150 441.4075 390.7925 440.7700 390.8375 C438.4350 391.0050 435.9725 390.8625 433.6225 390.8650 L417.5425 390.8375 L368.0750 390.8250 L175.1980 390.8375 L124.8743 390.8400 L110.1370 390.8950 C107.8643 390.8975 105.2917 391.1200 103.0625 390.7525 C100.4727 387.3725 93.3127 359.9800 91.5335 354.0650 C82.0965 322.7725 72.8248 291.4300 63.7185 260.0400 L57.0887 238.0055 C55.0590 231.2928 52.1115 224.1378 51.8808 217.1165 C68.5768 217.4852 85.3248 216.5643 102.0260 217.1992 L102.0175 215.5885 L101.9798 183.4025 C101.9785 177.6765 101.6998 171.7845 102.0608 166.0773 C102.1145 165.2290 102.1040 164.0430 102.7020 163.4390 C105.4670 162.5055 121.0650 163.0538 125.3875 163.0522 L174.3935 163.0423 L230.4492 163.0448 C240.7502 163.0455 251.1675 162.7255 261.4575 163.1922 C265.0050 155.1355 269.3425 147.2643 273.2775 139.3828 C278.6650 128.5923 283.8625 117.6295 289.6175 107.0330 C294.8125 106.7083 300.1500 106.9500 305.3600 106.9512 L334.2650 106.9543 L401.7100 106.9585 C414.6525 107.0060 427.5950 106.9790 440.5400 106.8775 Z M411.6750 288.1325 C412.4525 288.1225 413.2300 288.1025 414.0075 288.1375 C413.8875 256.1125 413.6850 224.0343 414.0200 192.0100 L227.4435 192.0193 L166.7867 192.0193 C156.1825 192.0190 145.3503 191.5595 134.7722 192.1395 C134.0462 192.3748 133.8772 192.4105 133.3743 192.9707 C132.7852 195.5710 133.0202 198.4955 133.0315 201.1480 C133.0545 206.4982 133.3015 211.9128 133.1340 217.2520 C138.8040 216.8885 144.5535 217.0310 150.2345 217.0287 L176.9770 217.0250 L260.2600 217.0293 L348.4875 217.0282 L377.1450 217.0273 C382.3575 217.0265 387.6450 216.8257 392.8475 217.1160 C393.7050 218.1568 394.1175 219.5977 394.5050 220.8770 C396.8525 228.6263 398.5375 236.7032 400.5000 244.5623 L408.4650 275.4000 C409.3600 278.9375 410.4475 284.9675 411.6750 288.1325 Z M304.2400 163.1633 C308.2900 163.1025 312.3600 162.9967 316.4100 163.1320 C320.3600 163.2637 324.2950 163.6743 328.2425 163.8663 C331.7150 164.0352 335.2150 163.9778 338.6900 163.9742 C341.4775 163.9715 344.2750 164.0067 347.0575 163.8438 C350.8800 163.6200 354.7100 163.1285 358.5400 163.0647 C371.9700 162.8415 385.4425 163.0310 398.8750 163.0457 C403.3325 163.0240 407.7875 163.0858 412.2425 163.2305 C411.9450 157.6772 412.3700 152.3070 412.4325 146.7735 C412.4800 142.8505 412.0650 138.9503 412.2075 135.0197 L348.8225 135.0202 L328.0275 135.0202 C324.5000 135.0202 320.9200 135.1557 317.4000 134.9950 C314.6750 141.3040 311.3275 147.4023 308.3150 153.5850 C306.8250 156.6438 305.0525 159.8485 304.2400 163.1633 Z"></path>
<path id="" fill="#764abc" fill-opacity="1.0" stroke="#000000" stroke-width="0.0" stroke-opacity="1.0" stroke-linecap="round" stroke-linejoin="round"  filling="0" d="M334.2925 175.1005 C334.3800 175.0890 334.4700 175.0750 334.5575 175.0660 C348.7375 173.6180 363.5025 180.0293 374.2350 188.9382 C387.5025 199.9518 395.9175 217.1485 399.5625 233.7880 C400.7675 239.2917 401.3900 244.8690 401.9275 250.4700 C396.2600 250.1450 391.1550 247.0650 386.3500 246.7608 C383.4275 228.7955 376.7750 209.1902 361.7075 197.7575 C353.8625 191.8047 344.2400 189.2200 334.4850 190.5723 C320.2350 192.5473 307.5900 198.7705 298.8275 210.4735 C289.8700 222.4382 284.6025 237.6133 283.2975 252.4200 C282.9525 256.3200 282.9900 260.2375 282.9875 264.1475 C282.9800 270.1250 283.1350 275.8875 283.9925 281.8125 C286.4200 296.2100 291.0350 310.6625 298.9800 323.0150 C303.7175 322.8475 308.0275 323.3325 311.8725 326.3400 C315.6925 329.3275 318.4075 333.2900 318.9975 338.1650 C319.5875 343.0350 318.0725 347.6125 315.0450 351.4425 C312.2700 354.9525 307.4825 357.3775 303.0425 357.8275 C298.5600 358.2825 293.8125 356.5550 290.3575 353.7425 C285.6150 349.8825 283.2675 343.2675 284.3325 337.2625 C284.6475 335.4925 285.6500 332.7350 285.2525 331.0075 C284.6750 328.4775 280.7700 322.5575 279.4800 319.6000 C277.8275 315.8100 276.0825 312.0450 274.6600 308.1625 C270.8325 297.7075 268.7375 286.6825 267.6700 275.6250 C265.8775 257.0350 269.5950 231.7543 277.6975 214.7968 C280.5025 208.9290 284.1600 203.5788 288.3125 198.5890 C299.1950 185.5105 317.4500 176.6933 334.2925 175.1005 Z"></path>
<path id="" fill="#764abc" fill-opacity="1.0" stroke="#000000" stroke-width="0.0" stroke-opacity="1.0" stroke-linecap="round" stroke-linejoin="round"  filling="0" d="M322.6475 245.8695 C324.3300 245.8730 326.0600 245.9040 327.7150 246.2110 C333.2250 247.2328 336.2375 250.6475 339.2375 255.0500 C363.2350 253.4300 387.1825 258.8575 408.1350 270.6675 C417.7700 276.0300 427.9450 283.6200 435.7475 291.4075 C437.4725 293.1250 438.9875 295.0925 440.6350 296.8900 C442.7025 299.1450 444.8975 301.3000 446.7200 303.7650 C451.8725 310.7350 456.0725 318.8100 458.4300 327.1600 C462.3550 341.0700 462.1925 361.1825 454.8900 374.0250 C446.6175 388.5725 431.2725 398.7150 415.3400 402.9700 C399.9800 407.0750 381.9750 405.1475 367.0175 400.0500 C364.4000 399.1575 361.5550 398.3300 359.1800 396.8925 C358.3475 396.3900 357.8425 395.9825 357.6150 395.0200 C358.1875 393.3450 360.4225 391.9900 361.7650 390.9425 C363.6975 389.4200 367.2675 385.5075 369.4650 384.9725 C372.3400 384.2750 379.5725 387.5825 382.6575 388.3525 C388.3750 389.7525 394.2350 390.5000 400.1200 390.5825 C412.4675 390.7850 424.4825 386.3850 433.3650 377.6850 C441.7125 369.5125 446.2475 359.0500 446.2975 347.4150 C446.3125 344.1600 446.2625 340.9650 445.5850 337.7650 C442.9775 325.4675 435.4950 314.1975 427.5850 304.7150 C426.4750 303.3850 425.4625 301.9975 424.2300 300.7700 C420.6850 297.2375 416.3300 294.3300 412.2475 291.4500 C394.2925 278.7400 373.1175 271.3450 351.1500 270.1175 C347.3450 269.8950 343.4850 270.0175 339.6700 270.0400 C339.0100 271.2500 338.2175 272.2775 337.3175 273.3175 C334.1925 276.9225 330.3975 279.7900 325.4675 280.1075 C320.2675 280.4450 315.8300 279.3400 311.8725 275.8425 C308.4250 272.8025 306.3300 268.5125 306.0550 263.9250 C305.7925 259.1650 307.6850 254.3325 310.8825 250.8275 C314.0975 247.3073 317.9900 246.0883 322.6475 245.8695 Z"></path>
<path id="" fill="#764abc" fill-opacity="1.0" stroke="#000000" stroke-width="0.0" stroke-opacity="1.0" stroke-linecap="round" stroke-linejoin="round"  filling="0" d="M253.4200 282.6625 C253.5300 282.6700 253.6425 282.6675 253.7525 282.6850 C254.5150 282.8125 254.9325 283.0950 255.3300 283.7500 C256.5175 285.7075 258.8500 296.3850 257.9475 298.3250 C256.7675 300.8625 252.9600 302.6700 250.9750 304.6675 C244.1335 311.5475 237.0305 322.6200 234.3415 331.9400 C230.9970 343.5150 232.4230 355.9500 238.3017 366.4700 C243.8338 376.3450 253.0475 383.6325 263.9350 386.7375 C267.3850 387.6900 270.9800 388.0425 274.5350 388.3925 C294.0675 390.3150 311.8875 384.4475 328.7225 374.9850 C343.1725 366.8625 354.8100 355.9975 364.6625 342.7350 C367.2950 339.1925 370.5525 334.7100 371.7525 330.4225 C369.3700 326.6575 367.3150 322.8325 367.2950 318.2525 C367.2775 313.9775 369.1175 309.4025 372.1050 306.3425 C375.1850 303.1850 379.8350 300.9750 384.2650 300.9375 C389.0325 300.8975 393.9650 302.7175 397.3700 306.1025 C401.2825 309.9900 402.1875 314.7075 402.1750 320.0250 C402.1400 320.8400 402.1025 321.6925 401.9450 322.4925 C400.9900 327.3150 397.0650 332.1600 392.5975 334.1625 C390.4850 335.1100 388.1450 335.5300 386.5425 337.3325 C384.4825 339.6500 383.1750 342.8525 381.6950 345.5600 C380.6500 347.4725 379.4550 349.3075 378.2750 351.1375 C369.8550 364.1925 358.1275 375.5325 345.1450 384.0075 C323.7200 398.0000 291.0100 407.9550 265.5950 402.5250 C253.3500 400.0350 242.1337 393.9350 233.3905 385.0100 C231.2495 382.8400 229.1647 380.6125 227.5242 378.0300 C221.0050 367.7700 218.9277 356.3975 218.9440 344.4175 C218.9503 339.8525 219.1245 335.4050 220.1310 330.9325 C223.9518 313.9500 233.8627 299.1375 246.9835 287.8950 C249.0470 286.1275 251.1275 284.1200 253.4200 282.6625 Z"></path>
</svg>