<svg xmlns="http://www.w3.org/2000/svg" viewBox="0 0 512 512" height="512.0px" width="512.0px">
<path id="" fill="#fe6c1f" fill-opacity="1.0" stroke="#000000" stroke-width="0.0" stroke-opacity="1.0" stroke-linecap="round" stroke-linejoin="round"  filling="0" d="M250.9925 146.9057 C264.6525 146.0618 278.3575 147.4563 291.5675 151.0338 C295.5625 152.1042 302.0775 155.0015 305.4900 155.3177 C308.9975 155.6430 313.0000 154.8835 316.5475 154.7035 C349.4725 153.0320 387.8700 170.8220 411.9650 192.7272 C439.8600 218.0855 458.1000 255.1075 459.8825 292.9000 C460.1750 299.0650 460.2925 305.5500 459.8575 311.7050 C457.9900 336.7475 449.7950 360.9025 436.0450 381.9125 C432.6675 387.0025 429.0625 392.0625 424.9175 396.5600 C418.0575 404.0075 410.6275 411.3400 402.5750 417.4750 C383.7025 431.8500 358.0350 442.7400 334.5250 446.0400 C330.9725 446.5375 327.3450 447.0275 323.7575 447.0625 C318.4975 447.1100 312.6325 446.4250 307.4675 447.3425 C303.1250 448.1150 299.0050 450.2550 294.7450 451.4425 C283.6800 454.4950 272.3100 456.3025 260.8425 456.8275 C260.6325 456.8425 260.4250 456.8550 260.2150 456.8650 C246.6367 457.4775 231.8420 455.1625 218.8020 451.4075 C214.7233 450.2325 210.7278 447.9050 206.5688 447.1600 C203.7702 446.6575 200.7632 446.9700 197.9270 447.0075 C192.5862 447.0775 187.2648 447.1875 181.9447 446.6050 C151.1160 443.2300 121.2288 428.7575 98.5027 407.8175 C70.1595 381.2800 53.5170 344.5725 52.2350 305.7650 C50.6505 266.0600 66.3855 228.2880 93.1855 199.4207 C96.3965 195.9620 99.9698 192.9128 103.5800 189.8858 C122.8228 173.6142 145.8265 162.4090 170.5010 157.2883 C174.9890 156.3585 179.4563 155.4845 184.0255 155.0690 C189.3270 154.5955 194.6557 154.5025 199.9705 154.7905 C203.4710 154.9805 207.2937 155.8938 210.7705 155.3777 C214.8573 154.7715 218.9035 152.4758 222.8860 151.2900 C231.9362 148.5957 241.5723 147.2540 250.9925 146.9057 Z"></path>
<path id="" fill="#732002" fill-opacity="1.0" stroke="#000000" stroke-width="0.0" stroke-opacity="1.0" stroke-linecap="round" stroke-linejoin="round"  filling="0" d="M198.1003 326.6250 C200.6070 326.8575 211.0883 338.5150 213.1595 340.6100 C214.2442 341.7050 215.5860 343.4275 216.9455 344.1725 C217.6945 344.5800 218.2550 344.5250 218.9970 344.1275 C222.5168 342.2450 234.5155 327.3700 237.3590 326.8175 C237.9357 326.7050 238.4037 327.1475 238.7953 327.5075 C240.3065 328.8900 241.5780 330.6425 242.9420 332.1750 C245.5205 335.0750 252.9300 343.0200 255.9225 344.7400 C255.9950 344.7825 256.0675 344.8200 256.1400 344.8575 C260.9225 341.2900 265.3750 336.0000 269.6275 331.7225 C271.4050 329.9325 273.2825 327.7550 275.4925 326.5075 C280.6950 329.7875 291.1350 343.3600 295.0675 344.4425 C298.4550 343.4775 309.6125 329.6375 314.3000 326.6050 C314.3725 326.5575 314.4450 326.5150 314.5175 326.4700 C316.5325 328.6875 330.8800 344.1450 332.5450 344.3650 C333.4175 344.4800 334.5425 344.0300 335.3050 343.6525 C337.8875 342.3800 340.3350 340.3300 342.7825 338.7750 C346.6150 336.3425 350.6075 334.1200 354.5500 331.8700 C355.8500 331.1275 358.4375 329.3900 359.9500 329.8025 C359.9900 329.8725 360.0375 329.9375 360.0650 330.0125 C360.4000 330.9025 359.9725 332.1375 359.6450 332.9725 C358.8400 335.0250 357.6800 336.9975 356.7750 339.0150 C352.2850 349.0325 347.2100 358.7975 342.2975 368.6125 C339.5575 374.0850 337.4025 379.9500 334.4700 385.2975 C333.9300 386.2825 333.3925 387.2275 332.2575 387.5600 C328.3375 386.7975 318.2325 373.7625 313.8550 370.5850 C313.7350 370.4975 313.6125 370.4125 313.4900 370.3275 L312.4900 371.6150 C309.8800 375.0250 306.6600 377.9875 303.6250 381.0200 C300.7300 383.9175 297.8825 386.9225 294.8350 389.6575 C290.5150 387.1625 287.3175 382.2775 283.8625 378.7100 C281.0675 375.8250 278.0600 373.1475 275.4900 370.0500 C272.8350 373.4400 260.0275 387.8375 256.6375 389.2275 C253.0975 389.0575 247.7892 381.5450 245.3485 378.9975 C242.4395 376.0125 239.4902 373.0675 236.5010 370.1650 C234.6510 371.9575 232.7825 373.7525 231.0525 375.6625 C227.9015 379.1400 222.8730 386.1975 218.7880 388.0650 C213.4608 390.5000 203.7487 372.9425 199.3938 371.5050 C197.1373 370.7600 185.1275 385.8550 181.5193 387.4300 C181.2032 387.5675 180.7010 387.7775 180.3837 387.6100 C179.2070 386.9850 178.3405 385.4950 177.6945 384.3650 C173.7350 377.4325 170.8307 369.9475 167.3152 362.8025 L159.9142 347.9100 C157.7110 343.5150 155.4260 339.1675 153.6990 334.5525 C153.3000 333.4875 152.5853 331.8875 153.0725 330.8300 C153.1528 330.8025 153.2305 330.7675 153.3132 330.7500 C154.6175 330.4925 156.6590 331.4625 157.8395 332.0525 C160.0935 333.1750 162.2052 334.6950 164.3472 336.0200 C167.4682 337.9500 170.6922 339.7075 173.8302 341.6075 C176.0160 342.9325 178.1008 344.4250 180.3700 345.6050 C184.2968 340.9225 188.7235 336.8100 192.9308 332.3975 C194.7088 330.5350 196.1817 328.3300 198.1003 326.6250 Z"></path>
<path id="" fill="#a69d24" fill-opacity="1.0" stroke="#000000" stroke-width="0.0" stroke-opacity="1.0" stroke-linecap="round" stroke-linejoin="round"  filling="0" d="M204.9037 56.0855 L205.1223 56.0705 C221.8293 55.0680 239.6678 62.4303 251.9900 73.4942 C262.3325 82.7807 269.1050 94.2510 273.3800 107.3930 C275.0125 112.4173 276.3200 117.5375 276.7750 122.8160 C277.5025 131.2812 276.7275 139.8578 277.1825 148.3427 C273.5025 148.0932 269.8600 147.4772 266.1875 147.1673 C263.6950 146.9572 261.1625 147.0160 258.6650 147.0255 C252.1675 146.9518 245.9005 148.1628 239.4475 148.3477 C239.8280 141.2545 239.8730 132.1992 238.9205 125.2020 C237.1160 111.9433 228.0842 98.3740 214.5625 95.0117 C206.9930 93.1295 199.2615 94.1403 192.6938 89.0265 C188.9377 86.1022 186.6183 81.5555 186.0770 76.8578 C185.5437 72.2292 186.7722 67.4197 189.7012 63.7765 C193.6478 58.8678 198.7820 56.7672 204.9037 56.0855 Z"></path>
<path id="" fill="#732002" fill-opacity="1.0" stroke="#000000" stroke-width="0.0" stroke-opacity="1.0" stroke-linecap="round" stroke-linejoin="round"  filling="0" d="M202.6113 210.0072 C205.9040 209.7032 209.2182 210.1283 212.1960 211.6243 C217.5555 214.3168 221.3840 220.3763 223.2278 225.9090 C227.1325 237.6270 226.9207 251.5875 221.2995 262.7325 C218.5912 268.1025 214.2968 271.8625 208.5797 273.7275 C205.2180 274.6000 201.4162 273.4700 198.4252 271.8875 C192.5220 268.7625 189.1770 262.8675 187.3302 256.6400 C184.2945 246.4015 184.0358 231.0117 189.3772 221.3985 C192.2677 216.1962 196.8067 211.6712 202.6113 210.0072 Z"></path>
<path id="" fill="#732002" fill-opacity="1.0" stroke="#000000" stroke-width="0.0" stroke-opacity="1.0" stroke-linecap="round" stroke-linejoin="round"  filling="0" d="M305.5900 210.0242 C308.8100 209.7493 312.0450 210.3885 314.9200 211.8687 C320.4425 214.7383 324.2100 221.2560 326.0200 227.0013 C329.6600 238.5470 328.9150 252.1025 323.2525 262.8725 C320.5575 267.9975 316.6725 271.8475 311.0825 273.5900 C307.5850 274.4850 304.1225 273.6775 301.0675 271.8675 C294.2475 267.8275 291.0000 260.2750 289.1500 252.8850 C286.5750 242.5970 287.8300 228.4258 293.4000 219.2340 C296.3625 214.3485 299.9875 211.3760 305.5900 210.0242 Z"></path>
<path id="" fill="#260a04" fill-opacity="1.0" stroke="#000000" stroke-width="0.0" stroke-opacity="1.0" stroke-linecap="round" stroke-linejoin="round"  filling="0" d="M201.9292 51.3350 C203.4102 51.0355 205.2437 51.1378 206.7530 51.1833 C226.6703 51.7818 247.3293 60.7867 260.9350 75.3893 C279.7625 95.5980 282.4875 117.1240 281.4700 143.3338 C289.5900 144.7563 297.5850 147.0870 305.3375 149.8695 C308.3775 150.9608 311.2800 152.8432 314.4450 153.5115 C317.1300 154.0780 320.2850 153.9050 323.0375 154.0700 C327.6375 154.3455 332.1650 154.8100 336.7100 155.5658 C362.6100 159.7968 386.9525 170.7375 407.3100 187.2988 C409.9675 189.4612 412.4725 191.8602 415.0050 194.1710 C421.2075 199.8345 426.8250 206.3895 431.8075 213.1402 C449.5450 237.0638 459.6275 265.7975 460.7250 295.5575 C462.3675 332.3825 447.5550 372.7575 422.6025 399.8875 C400.6650 423.6000 371.6550 439.5900 339.8950 445.4750 C334.8600 446.3925 329.7850 447.0525 324.6850 447.4575 C321.0175 447.7575 317.0750 447.7000 313.5025 448.5800 C308.9275 449.7025 304.4775 452.1475 299.9450 453.6075 C286.8150 457.8575 273.1650 460.2850 259.3750 460.8225 C243.7283 461.4725 227.3315 458.5200 212.4803 453.7200 C207.7863 452.2025 203.1135 449.6500 198.3528 448.5275 C195.2677 447.7975 191.9520 447.8875 188.7950 447.6600 C184.9690 447.3825 181.1890 446.9200 177.3932 446.3700 C155.5655 443.2125 133.7628 434.9350 115.6137 422.3400 C110.2720 418.6350 104.8207 414.6450 99.9612 410.3175 C75.6550 388.2850 59.3392 358.8150 53.5672 326.5200 C46.6517 288.1500 55.3255 248.6078 77.6657 216.6548 C99.4155 185.5265 132.3315 163.9850 169.5630 156.5132 C174.7637 155.4230 180.0295 154.6705 185.3275 154.2610 C189.3495 153.9895 193.9178 154.2115 197.8333 153.3710 C201.0703 152.6760 204.0900 150.7953 207.2190 149.6820 C214.8672 146.9615 222.5867 144.7552 230.5815 143.3280 C229.8985 136.6510 230.9303 129.7280 229.8785 123.1110 C229.1695 118.6520 227.2112 114.9155 224.2695 111.5237 C212.4223 97.8635 201.5600 106.2650 188.8995 96.8765 C184.0237 93.2607 180.4243 86.8817 179.5392 80.9080 C178.4610 74.0285 180.1930 67.0042 184.3457 61.4147 C188.5250 55.8018 195.0938 52.3770 201.9292 51.3350 Z M163.2348 171.6808 C159.2012 171.7092 154.9097 173.7240 151.1973 175.1718 C132.7735 182.2335 116.0858 193.1780 102.2670 207.2615 C78.4012 231.5930 63.8915 266.2050 64.1820 300.3600 C64.4557 332.5375 74.7718 362.4800 95.7890 387.0800 C99.0605 390.9075 102.7920 394.4650 106.3907 397.9850 C113.8130 405.2450 121.9420 411.6425 130.9855 416.7775 C133.2563 418.0725 135.5558 419.3200 137.8820 420.5150 C139.4115 421.2925 141.4730 422.0325 142.8047 423.0825 C149.0035 425.6825 155.4012 428.5200 161.9402 430.1200 L164.1938 430.7275 C165.0338 431.3950 170.2075 432.2650 171.5595 432.6575 C170.2993 431.5675 167.0293 428.2650 165.5108 428.2200 C165.4173 427.9450 165.4077 427.8550 165.2025 427.5925 C164.0742 426.1525 161.6118 424.6400 160.1925 423.4225 C157.7915 421.3650 155.5120 419.0650 153.3983 416.7175 C133.3103 394.4050 120.4930 369.0325 116.4017 339.1700 C115.8788 335.4875 115.5365 331.7825 115.3760 328.0650 C115.2690 325.3375 115.3645 322.5200 115.0820 319.8100 C119.3665 320.0875 123.7405 319.8900 128.0360 319.8650 C128.4685 326.7350 128.6192 333.5675 129.7380 340.3725 C134.5735 369.4300 149.2260 395.9500 171.2510 415.5100 C176.6470 420.2275 182.3010 424.4050 188.2550 428.3875 C190.1638 429.6650 193.5157 430.8350 195.0155 432.3425 C198.9950 434.0750 202.7323 436.3675 206.7312 438.0500 C218.2970 442.9150 227.7332 444.8350 239.9563 446.9975 C246.1225 447.4400 252.3225 448.0575 258.5100 447.8450 C293.5950 446.6350 326.1200 432.3025 349.9975 406.3650 C369.1525 385.5550 381.6900 357.6300 383.4750 329.3325 C383.6725 326.1950 384.0775 323.0700 383.9550 319.9200 C388.2250 320.0725 392.5575 319.9000 396.8275 319.7250 C396.6300 344.9575 390.5600 369.7350 377.4925 391.4975 C372.4725 399.8575 366.6900 407.4275 360.4800 414.9225 C358.3850 417.4525 355.8225 419.8300 353.4125 422.0650 C351.5950 423.7500 347.7050 426.0425 346.7500 428.2250 C346.9725 428.9625 347.1375 429.8150 347.8125 430.2800 C348.0025 430.4125 348.0975 430.4300 348.3000 430.4975 C357.5850 427.7225 366.3625 424.5200 374.9950 420.0900 C406.7625 403.4450 430.7125 374.9825 441.6850 340.8400 C452.9625 305.7525 448.5525 270.1175 431.8825 237.6370 C419.0150 212.5660 396.0325 191.2385 370.6200 179.2612 C364.0850 176.1812 357.3350 173.9297 350.4750 171.7295 C349.6400 171.7267 348.9775 171.6475 348.2675 172.1653 C347.7925 173.1125 347.9800 174.0172 348.2325 175.0262 C348.3625 175.1100 348.4975 175.1848 348.6175 175.2778 C350.2325 176.5058 351.7375 178.1613 353.2025 179.5820 C358.1250 184.3550 362.6300 189.1942 366.8450 194.6000 C383.7550 216.2805 393.3300 241.2105 396.3425 268.4650 C396.8375 272.9600 396.7100 277.5375 397.0825 282.0550 C395.0275 281.9050 385.0500 282.1400 384.0525 281.2600 C383.6925 280.1475 383.8050 279.1200 383.8000 277.9675 C383.6750 249.6755 371.6850 220.5103 353.4900 199.0872 C349.7900 194.7300 345.3650 190.7193 341.2900 186.7030 C336.8425 182.3225 331.7925 178.6690 326.6075 175.2230 C305.5350 161.0130 280.6350 153.5570 255.2200 153.8465 C225.4568 153.9138 196.6795 164.5200 173.9920 183.7843 C169.1525 187.8850 164.6415 192.7368 160.2068 197.2812 C157.2388 200.3225 154.6465 203.9100 152.1510 207.3445 C136.4698 228.9915 128.0952 255.0725 128.2437 281.8025 C123.9193 281.6350 119.4285 281.7050 115.1140 282.0275 C115.2995 272.3425 116.0665 262.9700 117.9603 253.4550 C123.1625 226.9987 136.0318 202.6570 154.9660 183.4605 C157.5400 180.8655 161.0018 176.7442 163.9755 174.7552 C164.0195 174.2595 164.0872 173.7360 164.0625 173.2390 C164.0237 172.4527 163.7845 172.2038 163.2348 171.6808 Z M203.1028 64.3405 C199.2885 65.3077 196.1438 66.9698 194.1010 70.5168 C192.3183 73.6127 191.8788 77.0723 192.8712 80.5070 C193.7605 83.5843 196.0802 86.3510 198.8970 87.8752 C202.4247 89.7848 207.5075 89.3427 211.4402 90.0125 C225.1628 92.3488 237.1093 102.1070 241.3497 115.4788 C243.9485 123.6730 243.6642 132.8683 243.4162 141.3770 C247.8950 140.8115 252.6175 140.8553 257.1250 140.9145 C260.8975 140.9530 264.7800 140.8242 268.5300 141.2400 C268.1900 134.3927 268.6725 127.4333 268.0775 120.6162 C266.6350 104.0977 257.6600 90.1862 245.6783 79.2355 C235.2635 69.7173 217.9937 63.5570 203.9205 64.2897 C203.6478 64.3027 203.3750 64.3195 203.1028 64.3405 Z"></path>
<path id="" fill="#260a04" fill-opacity="1.0" stroke="#000000" stroke-width="0.0" stroke-opacity="1.0" stroke-linecap="round" stroke-linejoin="round"  filling="0" d="M217.3223 336.1825 C221.1163 332.5450 231.4848 320.2300 236.3277 319.8525 C237.7083 319.7450 239.0228 320.2150 240.1658 320.9650 C242.0460 322.2000 243.6102 323.9850 245.1868 325.5700 C248.6797 329.0875 252.0975 332.9225 255.8475 336.1475 L256.1300 336.3900 C256.1925 336.3150 256.2500 336.2400 256.3125 336.1650 C258.9750 333.0425 262.2175 330.2075 265.1325 327.3075 C267.2650 325.1825 269.4700 322.3625 271.9725 320.7075 C272.7300 320.2050 273.7225 319.9650 274.6200 319.9150 C276.2300 319.8250 277.7375 320.3775 279.0850 321.2225 C283.7200 324.1225 289.9500 331.8625 294.3350 335.9325 C296.7700 335.4725 306.6000 321.5100 311.8800 320.1150 C313.2225 319.7600 314.8850 319.8200 316.1700 320.3825 C319.3600 321.7800 326.6700 330.0250 329.3900 332.8700 C330.7175 334.2600 332.0775 336.0200 333.7350 336.9900 C336.6175 336.7775 356.0825 323.0900 361.2300 320.9600 C361.3525 320.9100 361.4750 320.8625 361.5975 320.8125 C363.4450 319.9250 365.1150 319.5675 367.1075 320.2600 C368.6650 320.8025 370.1225 322.1700 370.7650 323.6925 C370.8625 323.9225 370.8950 324.0600 370.9725 324.3100 C371.0875 325.2325 371.2125 326.1650 371.1500 327.0975 C371.0525 328.5350 370.5075 329.7150 369.9175 331.0075 C364.7475 342.3300 358.7425 353.3850 353.1800 364.5350 L344.0425 382.8525 C342.2825 386.3750 340.6150 390.0150 338.6600 393.4350 C338.0975 394.4225 337.3575 395.2975 336.4775 396.0175 C335.2775 397.0025 333.4400 397.1475 331.9550 396.9400 C330.7425 396.7725 329.5950 396.3600 328.5875 395.6600 C325.8475 393.7575 315.5975 383.4375 313.6150 380.6900 C309.8025 384.1150 306.2175 388.3650 302.5425 392.0175 C300.3525 394.1925 297.6300 397.0750 294.2875 396.9700 C292.7975 396.9250 291.5150 396.3375 290.3050 395.5025 C287.9725 393.8925 285.9625 391.4725 283.9700 389.4550 C281.0975 386.5425 278.1225 383.6825 275.4050 380.6275 C269.6325 384.6675 265.5450 391.0775 260.0250 395.4600 C257.8025 397.2225 256.1325 397.0125 253.4700 396.7025 C247.4660 391.9175 242.4277 385.6975 236.7787 380.4600 C233.1747 384.3525 226.4438 391.8600 222.4605 394.8950 C220.7318 396.2150 218.6975 397.3100 216.4480 396.9675 C215.1113 396.7625 213.9440 396.0125 212.8927 395.2025 C210.5643 393.4075 200.3520 383.0625 198.5255 380.6575 C193.9633 385.4300 189.1930 391.5300 183.7295 395.2150 C181.1718 396.9400 179.1792 397.2050 176.2300 396.6400 C174.7210 395.3325 173.7230 393.9250 172.7330 392.2100 C170.4077 388.1850 168.4563 383.8500 166.3780 379.6900 L155.0813 357.0750 L146.2315 339.4125 C144.6285 336.2125 142.7635 332.9550 141.4765 329.6200 C140.8445 327.9825 140.4563 325.1600 141.2410 323.5200 C141.9637 322.0100 143.7247 320.5500 145.3230 320.0800 C146.6735 319.6850 147.9397 319.9100 149.2420 320.3700 C152.3800 321.4800 155.3450 323.5975 158.1918 325.3125 C164.8183 329.3000 171.3735 333.7175 178.2003 337.3425 C180.2193 334.9650 182.6900 332.7725 184.8898 330.5500 C187.7265 327.6800 190.5075 324.5750 193.5692 321.9475 C195.3655 320.4050 196.8342 319.7150 199.2623 319.9600 C200.6205 320.0975 201.7430 320.6775 202.8270 321.4850 C205.8723 323.7525 214.9235 333.1100 217.3223 336.1825 Z M238.8885 364.9275 C238.9572 364.9650 239.0267 365.0000 239.0948 365.0400 C243.1990 367.3700 253.0750 380.2025 256.0600 380.4225 C260.5200 379.0225 267.9400 367.3975 273.0100 365.1225 C273.8375 364.7525 274.8325 364.8450 275.7150 364.8750 C281.6700 365.7175 289.4675 376.5625 294.3575 380.7125 C300.0775 376.3450 305.1200 368.9050 310.8225 365.0050 C312.6850 364.8650 314.4750 364.8325 316.3325 365.0925 C321.4200 368.9400 325.8775 375.6300 330.9925 378.8700 C334.5125 373.8625 336.3275 368.2350 339.0075 362.8150 C340.4400 359.9200 347.5100 348.8550 347.1150 346.2475 C347.1000 346.1575 347.0650 346.0750 347.0400 345.9875 C346.0375 345.6775 344.7550 346.1750 343.8525 346.6475 C339.5150 348.9200 336.3100 351.9950 331.1650 352.1375 L330.9050 351.9800 C329.0500 350.8350 327.2400 349.4650 325.7025 347.9200 C323.7575 345.9675 316.2900 336.2775 313.6225 336.7525 C312.0350 337.0350 310.6800 338.7900 309.6150 339.9025 C307.7850 341.8100 305.9200 343.6850 304.0675 345.5700 C300.9150 348.7750 296.4375 354.2350 291.3925 351.3625 C287.5825 349.1925 277.3550 336.1175 274.5100 336.8525 C270.5075 337.8850 262.2075 350.6025 257.7775 351.9950 C256.6450 352.3500 254.8675 352.0400 253.6700 351.9750 C249.7645 348.7750 240.4865 337.7075 236.8707 336.4275 C235.2925 337.0450 234.0370 338.4725 232.8652 339.6500 C229.7383 342.7900 223.8210 349.9800 220.0262 351.5575 C218.2742 352.2850 216.4617 352.2450 214.7415 351.4425 C211.0043 349.6975 205.9173 343.4250 202.9300 340.3525 C201.8158 339.2050 200.6910 337.8725 199.2695 337.1050 C198.6205 336.7550 198.0375 336.6750 197.3365 336.9300 C193.1543 338.4500 184.9385 350.6425 180.9868 351.9200 C179.5350 352.3900 178.0007 351.9875 176.6380 351.4350 C173.8443 350.3000 167.8240 345.5025 165.0980 346.0650 C164.7867 346.7425 165.1065 347.4650 165.3480 348.1450 C167.0500 352.9300 170.9235 359.8300 173.4783 364.3925 C174.1045 365.5100 174.9060 366.5475 175.4823 367.6800 C176.5605 369.8000 178.9990 377.4000 180.8613 378.4100 C181.1413 378.5625 181.3542 378.4550 181.6243 378.3400 C182.7948 377.8350 183.9198 376.4950 184.8073 375.6050 C187.4300 372.9775 193.3295 366.0350 196.4913 364.9900 C197.6910 364.5925 199.3660 364.8375 200.5315 365.2500 C205.4337 366.9775 212.7800 377.0425 217.4577 380.6925 C217.5435 380.6250 217.6297 380.5575 217.7145 380.4900 C222.5670 376.5475 229.3675 367.1325 234.8245 365.2150 C236.1095 364.7625 237.5470 364.8300 238.8885 364.9275 Z"></path>
<path id="" fill="#270a04" fill-opacity="1.0" stroke="#000000" stroke-width="0.0" stroke-opacity="1.0" stroke-linecap="round" stroke-linejoin="round"  filling="0" d="M361.5975 320.8125 C363.4450 319.9250 365.1150 319.5675 367.1075 320.2600 C368.6650 320.8025 370.1225 322.1700 370.7650 323.6925 C370.8625 323.9225 370.8950 324.0600 370.9725 324.3100 L370.3300 324.5975 C368.8025 324.2075 366.6325 321.9875 365.7950 320.7125 L365.8050 320.3275 C365.2325 320.1025 364.8450 320.0825 364.2325 320.1000 C363.5725 320.3625 363.3750 320.7950 363.0300 321.3750 L362.8875 321.6200 C362.2025 321.4850 362.1075 321.3075 361.5975 320.8125 Z"></path>
<path id="" fill="#260a04" fill-opacity="1.0" stroke="#000000" stroke-width="0.0" stroke-opacity="1.0" stroke-linecap="round" stroke-linejoin="round"  filling="0" d="M303.9175 205.0742 C308.5425 204.8728 312.5125 205.0140 316.6575 207.2957 C324.0500 211.3640 328.4425 219.3570 330.6550 227.2335 C334.5475 241.0905 333.5650 256.6275 326.3750 269.2525 C322.6725 275.7500 317.9200 279.4275 310.6925 281.4250 C310.3625 281.5075 310.2350 281.5475 309.9175 281.6025 C305.2700 282.3950 300.1400 280.9925 296.2825 278.3675 C288.5025 273.0675 284.3225 263.6225 282.5975 254.6750 C280.0300 241.3452 281.7200 226.1557 289.5075 214.7555 C292.9500 209.7133 297.8975 206.2177 303.9175 205.0742 Z M310.0775 267.9975 C315.1950 264.7275 317.7075 257.2925 318.9275 251.6900 C321.0025 242.1700 319.7900 230.7847 314.3375 222.4967 C312.9625 220.4075 310.9350 218.5575 308.3975 218.0952 C307.3175 217.8987 306.1275 218.0035 305.0400 218.0827 C300.9750 220.1897 298.1975 225.0462 296.8450 229.2498 C293.7275 238.9365 294.0625 252.2800 298.7825 261.3875 C300.1175 263.9650 302.0725 266.9550 304.9500 267.9350 C306.3650 268.4175 308.5650 268.0750 310.0775 267.9975 Z"></path>
<path id="" fill="#260a04" fill-opacity="1.0" stroke="#000000" stroke-width="0.0" stroke-opacity="1.0" stroke-linecap="round" stroke-linejoin="round"  filling="0" d="M201.7320 205.0517 C206.3078 204.8793 210.2153 204.9453 214.2793 207.2735 C221.7372 211.5465 226.1405 219.3837 228.3392 227.4855 C231.9863 240.9232 231.3638 256.6325 224.2420 268.8675 C220.5310 275.2450 215.6033 279.5175 208.4400 281.3750 C208.3443 281.3950 208.2487 281.4175 208.1528 281.4375 C203.2155 282.4550 198.1630 281.0900 194.0110 278.3425 C186.3230 273.2600 182.0428 263.9300 180.2610 255.1675 C177.6503 242.3273 179.1613 226.7493 186.5275 215.6725 C190.2535 210.0700 195.1000 206.3848 201.7320 205.0517 Z M205.0020 269.0475 C206.3537 268.3525 208.0240 267.6550 209.2130 266.7225 C212.1998 264.3800 214.2467 259.6675 215.3590 256.1500 C218.3520 246.6873 218.0468 234.3365 213.4178 225.4490 C211.8880 222.5120 209.7385 220.0312 207.1908 217.9258 L203.8840 218.0473 C200.9937 218.6830 199.1732 220.1920 197.5995 222.6817 C191.8205 231.8228 191.1830 243.7110 193.5903 253.9700 C194.7260 258.8100 197.4150 265.1625 201.8177 267.9000 C202.7552 268.4825 203.8633 269.1475 205.0020 269.0475 Z"></path>
<path id="" fill="#270a04" fill-opacity="1.0" stroke="#000000" stroke-width="0.0" stroke-opacity="1.0" stroke-linecap="round" stroke-linejoin="round"  filling="0" d="M195.0155 432.3425 C198.9950 434.0750 202.7323 436.3675 206.7312 438.0500 C218.2970 442.9150 227.7332 444.8350 239.9563 446.9975 C239.4552 447.1150 238.9450 447.2025 238.4400 447.3000 L238.4012 447.4300 L238.3420 447.4100 L239.1255 447.6575 C239.0002 447.7675 238.8963 447.9050 238.7502 447.9850 C238.1908 448.2850 236.9895 448.0325 236.3873 447.9175 C235.8452 447.8150 235.2570 447.7300 234.9380 447.2700 L235.8055 446.8600 L235.4807 446.7575 L235.7903 446.8675 L235.1005 446.7625 L235.4785 446.7600 C234.6245 446.4400 234.0517 446.5150 233.1747 446.6625 L233.5327 447.5300 C233.4220 447.5475 233.3123 447.5725 233.2007 447.5775 C231.6387 447.6200 229.5607 446.9150 228.0165 446.5750 C217.9605 444.3600 211.7655 442.1650 202.4008 437.7175 C200.1255 436.6375 197.2847 435.4525 195.3082 433.8875 C196.0448 433.6175 201.7865 437.0350 203.4147 437.2350 C201.8670 436.6300 195.6620 433.7600 194.6133 432.6650 L195.0155 432.3425 Z"></path>
<path id="" fill="#260a04" fill-opacity="1.0" stroke="#000000" stroke-width="0.0" stroke-opacity="1.0" stroke-linecap="round" stroke-linejoin="round"  filling="0" d="M142.8047 423.0825 C149.0035 425.6825 155.4012 428.5200 161.9402 430.1200 L161.6062 430.3375 C161.5445 430.4700 161.4922 430.6075 161.4207 430.7350 C161.2055 431.1200 161.2715 431.1575 160.9433 431.1975 C157.1940 431.6550 148.2845 427.2400 145.1570 425.1850 L145.3345 425.2250 C144.5213 424.4775 143.4820 424.1725 142.7695 423.4800 L142.8047 423.0825 Z"></path>
<path id="" fill="#fc6b1e" fill-opacity="1.0" stroke="#000000" stroke-width="0.0" stroke-opacity="1.0" stroke-linecap="round" stroke-linejoin="round"  filling="0" d="M340.2800 168.9563 C343.4700 169.8013 347.6125 170.1183 350.4750 171.7295 C349.6400 171.7267 348.9775 171.6475 348.2675 172.1653 C347.7925 173.1125 347.9800 174.0172 348.2325 175.0262 C346.0850 174.1382 342.2900 170.5432 340.2800 168.9563 Z"></path>
<path id="" fill="#fc6b1e" fill-opacity="1.0" stroke="#000000" stroke-width="0.0" stroke-opacity="1.0" stroke-linecap="round" stroke-linejoin="round"  filling="0" d="M163.2348 171.6808 L162.3492 171.4515 C163.9415 170.3130 169.3978 169.5168 171.4740 168.9280 C170.1705 170.0652 165.3810 174.5760 163.9755 174.7552 C164.0195 174.2595 164.0872 173.7360 164.0625 173.2390 C164.0237 172.4527 163.7845 172.2038 163.2348 171.6808 Z"></path>
<path id="" fill="#2f0e05" fill-opacity="1.0" stroke="#000000" stroke-width="0.0" stroke-opacity="1.0" stroke-linecap="round" stroke-linejoin="round"  filling="0" d="M340.4525 432.6325 C341.6475 431.5850 345.2875 428.1600 346.6400 427.8650 L346.7500 428.2250 C346.9725 428.9625 347.1375 429.8150 347.8125 430.2800 C348.0025 430.4125 348.0975 430.4300 348.3000 430.4975 C347.5775 431.2300 341.7375 432.2850 340.4525 432.6325 Z"></path>
<path id="" fill="#fc6b1e" fill-opacity="0.988235" stroke="#000000" stroke-width="0.0" stroke-opacity="1.0" stroke-linecap="round" stroke-linejoin="round"  filling="0" d="M165.5108 428.2200 C167.0293 428.2650 170.2993 431.5675 171.5595 432.6575 C170.2075 432.2650 165.0338 431.3950 164.1938 430.7275 C164.6435 429.8975 165.0825 429.0625 165.5108 428.2200 Z"></path>
</svg>