<svg xmlns="http://www.w3.org/2000/svg" viewBox="0 0 512 512" height="512.0px" width="512.0px">
<path id="" fill="#fefefe" fill-opacity="1.0" stroke="#000000" stroke-width="0.0" stroke-opacity="1.0" stroke-linecap="round" stroke-linejoin="round"  filling="0" d="M218.8503 187.0927 C220.0660 186.8940 221.4113 186.9323 222.6467 186.9207 C235.6310 186.7975 248.6283 186.9563 261.6150 186.9458 L280.5675 186.9310 C285.0625 186.9283 289.6100 186.7725 294.0825 187.2395 C298.3775 187.6875 302.6250 188.7612 306.7875 189.8805 C319.8825 193.4017 329.3850 198.0255 340.3600 205.9438 C343.1325 207.9453 346.0550 209.9633 348.4800 212.3830 C358.6925 222.5737 366.2525 233.1250 371.9300 246.4037 C373.2300 249.4408 374.5800 252.4850 375.5100 255.6600 C379.6925 269.9300 379.1075 281.6075 379.0925 296.1750 L379.0850 324.8150 L379.1225 392.9825 C379.0975 406.9625 374.1175 421.9800 365.7225 433.2025 C363.3850 436.3300 360.6325 439.0550 357.8725 441.8025 C347.2975 452.3250 331.9550 459.4325 317.1125 460.8075 C309.5100 461.5100 301.5225 461.0350 293.8750 461.0200 L228.4458 461.0200 L209.9203 461.0375 C203.3040 461.0425 196.8123 461.1900 190.2710 459.9450 C178.7332 457.7475 167.8717 453.1575 158.6712 445.7800 C144.5255 434.5200 135.4125 418.1200 133.3242 400.1625 C132.5117 392.5575 132.9818 384.6150 132.9852 376.9575 L132.9865 336.5250 L132.9843 295.1250 C132.9798 286.3825 132.3100 277.1900 133.8105 268.5650 C136.0440 255.7275 139.8740 244.9713 146.5430 233.7697 C148.1485 231.0733 149.7120 228.3073 151.6840 225.8580 C166.1042 207.9492 181.5545 196.3870 203.9125 190.2343 C208.8082 188.8873 213.7928 187.6305 218.8503 187.0927 Z"></path>
<path id="" fill="#b1b1b1" fill-opacity="1.0" stroke="#000000" stroke-width="0.0" stroke-opacity="1.0" stroke-linecap="round" stroke-linejoin="round"  filling="0" d="M158.8438 217.7518 C175.4523 200.3548 197.9335 189.7513 221.9215 188.0002 C227.5477 187.5765 233.2238 187.7210 238.8633 187.7193 L263.0525 187.7142 C271.4650 187.7148 280.0675 187.3483 288.4525 187.8800 C307.0100 188.8878 324.8700 195.2835 339.8500 206.2840 C342.7350 208.4203 345.5050 210.7092 348.1450 213.1410 C349.1650 214.0675 350.1075 215.1970 351.1575 216.0550 C351.6775 216.4792 351.7500 216.3987 352.3975 216.3302 C352.3850 216.6425 352.3700 216.6212 352.4550 216.9823 C352.9025 218.8822 358.3200 224.2052 359.7425 226.0627 C367.5800 236.2870 373.3650 249.9328 376.5700 262.3425 C377.9775 266.5825 379.5975 285.6600 379.0800 290.1450 C379.5525 294.7775 379.2750 299.6550 379.2775 304.3175 L379.2825 329.9625 L378.9950 377.4050 C378.9250 384.2600 379.2475 391.1950 378.9525 398.0350 C378.9250 398.6875 378.9025 399.1000 378.5850 399.6750 C378.0125 402.0250 377.9450 404.5875 377.4925 406.9850 C376.0600 414.9050 372.9625 422.4300 368.4050 429.0600 C357.3975 445.3450 344.0250 455.4575 324.5025 459.1825 C320.5275 459.9400 316.6700 460.0050 312.6550 460.2475 C309.3875 460.4425 306.1375 460.9250 302.8600 460.9950 C297.5375 461.1075 292.1525 461.1175 286.8325 460.9775 C284.2625 460.9100 281.6875 460.6200 279.1200 460.6150 C276.8875 460.6100 274.6400 460.8775 272.4075 460.9600 C267.7100 461.1375 262.9025 461.1600 258.2050 461.0250 C254.5100 460.9175 250.8375 460.0675 247.1470 460.0875 C244.3415 460.1050 241.5598 460.7700 238.7580 460.8375 C236.3922 460.8925 234.0125 460.5100 231.6432 460.4600 C228.8430 460.4000 226.0462 460.9175 223.2430 460.9350 C220.3950 460.9500 217.5750 460.4750 214.7335 460.4300 C212.5360 460.3975 210.3400 460.7575 208.1402 460.7625 C205.3318 460.7700 202.5330 460.2750 199.7283 460.1425 C195.6118 459.9500 191.5170 460.1850 187.4305 459.5250 C178.9960 458.1625 169.8910 454.0475 162.9093 449.2800 C159.4668 446.9300 155.9308 444.2825 152.9653 441.3525 C145.5425 434.0175 139.1707 423.6250 136.0475 413.6975 C134.5570 408.9575 133.8245 404.1875 132.8980 399.3300 C133.1490 390.2225 132.6595 381.0850 132.9223 371.9975 C133.1337 368.7925 132.9845 365.4875 132.9872 362.2700 L132.9902 343.3025 L132.9500 290.2175 C132.6252 282.3075 133.3017 270.1225 135.3975 262.5625 C136.7643 258.4050 137.6765 254.1300 139.1800 249.9993 C143.9745 236.8220 150.5590 228.6670 158.8438 217.7518 Z"></path>
<path id="" fill="#b2b2b2" fill-opacity="1.0" stroke="#000000" stroke-width="0.0" stroke-opacity="1.0" stroke-linecap="round" stroke-linejoin="round"  filling="0" d="M158.8438 217.7518 C175.4523 200.3548 197.9335 189.7513 221.9215 188.0002 C227.5477 187.5765 233.2238 187.7210 238.8633 187.7193 L263.0525 187.7142 C271.4650 187.7148 280.0675 187.3483 288.4525 187.8800 C307.0100 188.8878 324.8700 195.2835 339.8500 206.2840 C342.7350 208.4203 345.5050 210.7092 348.1450 213.1410 C349.1650 214.0675 350.1075 215.1970 351.1575 216.0550 C351.6775 216.4792 351.7500 216.3987 352.3975 216.3302 C352.3850 216.6425 352.3700 216.6212 352.4550 216.9823 C352.9025 218.8822 358.3200 224.2052 359.7425 226.0627 C367.5800 236.2870 373.3650 249.9328 376.5700 262.3425 L376.3575 262.9525 L375.8925 262.9050 C369.3300 262.2775 362.4100 262.7225 355.8100 262.7250 C348.0950 262.7300 339.9700 262.2375 332.3025 263.1000 C328.4800 263.5125 324.7275 264.4075 321.1300 265.7625 C318.4050 266.7650 315.7875 268.0375 313.3150 269.5575 C308.1125 272.8125 304.4175 276.1000 297.9850 276.4550 C289.2550 276.9375 285.2975 272.1250 278.2225 268.3975 C271.7300 264.9400 264.5250 263.0350 257.1700 262.8325 C248.3878 262.5800 239.7085 264.7850 232.1127 269.2025 C226.8745 272.2900 222.7845 275.7575 216.4557 276.2925 C215.8598 276.3450 215.2620 276.3700 214.6638 276.3700 C207.0700 276.3675 202.4110 271.6000 196.1565 268.2475 C190.8613 265.3575 185.0315 263.5775 179.0247 263.0200 C174.2015 262.5250 169.2547 262.7200 164.4090 262.7200 L142.6673 262.7550 C141.4258 262.7625 136.4357 263.0975 135.7608 262.8450 C135.6175 262.7900 135.5185 262.6575 135.3975 262.5625 C136.7643 258.4050 137.6765 254.1300 139.1800 249.9993 C143.9745 236.8220 150.5590 228.6670 158.8438 217.7518 Z"></path>
<path id="" fill="#b2b2b2" fill-opacity="1.0" stroke="#000000" stroke-width="0.0" stroke-opacity="1.0" stroke-linecap="round" stroke-linejoin="round"  filling="0" d="M132.8980 399.3300 L161.8185 399.3300 C166.9462 399.3300 174.0612 398.7125 178.9580 399.8800 C183.0692 400.8600 186.3633 403.5225 189.7997 405.8325 C197.0392 410.6975 205.9823 412.9375 214.6398 412.9650 C223.0760 412.9900 231.2977 411.1175 238.5712 406.7450 C243.6725 403.6800 247.5660 400.2375 253.7400 399.5400 C262.9800 398.4925 268.4925 404.4850 276.1450 408.2325 C282.4950 411.3425 289.4775 412.9400 296.5475 412.9000 C306.1675 412.9275 315.1050 410.2650 323.1875 405.0525 C326.0375 403.2150 328.5675 401.0800 331.9050 400.1575 C337.1700 398.7000 343.4600 399.3225 348.9100 399.3375 L364.4000 399.3325 C366.3825 399.3250 377.6475 398.8925 378.4700 399.5475 C378.5150 399.5825 378.5450 399.6325 378.5850 399.6750 C378.0125 402.0250 377.9450 404.5875 377.4925 406.9850 C376.0600 414.9050 372.9625 422.4300 368.4050 429.0600 C357.3975 445.3450 344.0250 455.4575 324.5025 459.1825 C320.5275 459.9400 316.6700 460.0050 312.6550 460.2475 C309.3875 460.4425 306.1375 460.9250 302.8600 460.9950 C297.5375 461.1075 292.1525 461.1175 286.8325 460.9775 C284.2625 460.9100 281.6875 460.6200 279.1200 460.6150 C276.8875 460.6100 274.6400 460.8775 272.4075 460.9600 C267.7100 461.1375 262.9025 461.1600 258.2050 461.0250 C254.5100 460.9175 250.8375 460.0675 247.1470 460.0875 C244.3415 460.1050 241.5598 460.7700 238.7580 460.8375 C236.3922 460.8925 234.0125 460.5100 231.6432 460.4600 C228.8430 460.4000 226.0462 460.9175 223.2430 460.9350 C220.3950 460.9500 217.5750 460.4750 214.7335 460.4300 C212.5360 460.3975 210.3400 460.7575 208.1402 460.7625 C205.3318 460.7700 202.5330 460.2750 199.7283 460.1425 C195.6118 459.9500 191.5170 460.1850 187.4305 459.5250 C178.9960 458.1625 169.8910 454.0475 162.9093 449.2800 C159.4668 446.9300 155.9308 444.2825 152.9653 441.3525 C145.5425 434.0175 139.1707 423.6250 136.0475 413.6975 C134.5570 408.9575 133.8245 404.1875 132.8980 399.3300 Z"></path>
<path id="" fill="#000000" fill-opacity="1.0" stroke="#000000" stroke-width="0.0" stroke-opacity="1.0" stroke-linecap="round" stroke-linejoin="round"  filling="0" d="M379.0800 290.1450 C379.5525 294.7775 379.2750 299.6550 379.2775 304.3175 L379.2825 329.9625 L378.9950 377.4050 C378.9250 384.2600 379.2475 391.1950 378.9525 398.0350 C378.9250 398.6875 378.9025 399.1000 378.5850 399.6750 C378.5450 399.6325 378.5150 399.5825 378.4700 399.5475 C377.6475 398.8925 366.3825 399.3250 364.4000 399.3325 L348.9100 399.3375 C343.4600 399.3225 337.1700 398.7000 331.9050 400.1575 C328.5675 401.0800 326.0375 403.2150 323.1875 405.0525 C315.1050 410.2650 306.1675 412.9275 296.5475 412.9000 C289.4775 412.9400 282.4950 411.3425 276.1450 408.2325 C268.4925 404.4850 262.9800 398.4925 253.7400 399.5400 C247.5660 400.2375 243.6725 403.6800 238.5712 406.7450 C231.2977 411.1175 223.0760 412.9900 214.6398 412.9650 C205.9823 412.9375 197.0392 410.6975 189.7997 405.8325 C186.3633 403.5225 183.0692 400.8600 178.9580 399.8800 C174.0612 398.7125 166.9462 399.3300 161.8185 399.3300 L132.8980 399.3300 C133.1490 390.2225 132.6595 381.0850 132.9223 371.9975 C143.4760 372.3525 154.1608 372.0050 164.7258 372.0025 C170.3862 372.0025 176.2003 371.7875 181.8092 372.6375 C185.9985 373.3125 190.0768 374.5525 193.9328 376.3225 C201.2915 379.6975 206.1775 385.6550 214.8898 385.5950 C222.4980 385.5450 226.9720 381.2650 233.2390 377.8125 C241.6975 373.1525 251.0900 371.5325 260.6650 372.3375 C267.0750 372.9375 273.2900 374.8725 278.9050 378.0200 C285.3350 381.6100 289.0800 385.7600 297.0275 385.6975 C304.4075 385.6375 308.4475 381.6575 314.5050 378.1400 C318.2975 375.9500 322.3825 374.3150 326.6375 373.2825 C335.1500 371.2800 344.6275 372.0075 353.3450 372.0075 C361.8850 371.9775 370.4250 372.0000 378.9650 372.0775 C379.2275 353.3025 379.0425 334.5025 379.0275 315.7250 C379.0200 307.5350 378.5475 298.2025 379.0800 290.1450 Z"></path>
<path id="" fill="#000000" fill-opacity="1.0" stroke="#000000" stroke-width="0.0" stroke-opacity="1.0" stroke-linecap="round" stroke-linejoin="round"  filling="0" d="M376.5700 262.3425 C377.9775 266.5825 379.5975 285.6600 379.0800 290.1450 C368.9775 290.2325 358.8750 290.2525 348.7700 290.2025 C343.8450 290.2000 337.8700 289.6275 333.1225 290.6350 C328.6875 291.5775 325.3525 294.3750 321.6400 296.7825 C314.3800 301.4875 304.9875 303.7725 296.3975 303.7175 C289.0450 303.6725 281.8075 301.8950 275.2725 298.5275 C267.6550 294.6125 263.0900 289.4075 253.7550 290.3150 C247.6062 290.9125 243.6483 294.4575 238.5850 297.4950 C231.2878 301.8725 222.9120 303.8125 214.4503 303.7575 C205.3073 303.7550 196.3715 301.0350 188.7785 295.9425 C185.8435 294.0025 183.0878 291.6450 179.5903 290.7925 C174.5912 289.5750 166.8138 290.1975 161.4532 290.1950 L132.9500 290.2175 C132.6252 282.3075 133.3017 270.1225 135.3975 262.5625 C135.5185 262.6575 135.6175 262.7900 135.7608 262.8450 C136.4357 263.0975 141.4258 262.7625 142.6673 262.7550 L164.4090 262.7200 C169.2547 262.7200 174.2015 262.5250 179.0247 263.0200 C185.0315 263.5775 190.8613 265.3575 196.1565 268.2475 C202.4110 271.6000 207.0700 276.3675 214.6638 276.3700 C215.2620 276.3700 215.8598 276.3450 216.4557 276.2925 C222.7845 275.7575 226.8745 272.2900 232.1127 269.2025 C239.7085 264.7850 248.3878 262.5800 257.1700 262.8325 C264.5250 263.0350 271.7300 264.9400 278.2225 268.3975 C285.2975 272.1250 289.2550 276.9375 297.9850 276.4550 C304.4175 276.1000 308.1125 272.8125 313.3150 269.5575 C315.7875 268.0375 318.4050 266.7650 321.1300 265.7625 C324.7275 264.4075 328.4800 263.5125 332.3025 263.1000 C339.9700 262.2375 348.0950 262.7300 355.8100 262.7250 C362.4100 262.7225 369.3300 262.2775 375.8925 262.9050 L376.3575 262.9525 L376.5700 262.3425 Z"></path>
<path id="" fill="#000000" fill-opacity="1.0" stroke="#000000" stroke-width="0.0" stroke-opacity="1.0" stroke-linecap="round" stroke-linejoin="round"  filling="0" d="M211.7742 100.8012 C213.7975 97.2730 215.3793 93.4475 217.3513 89.8712 C223.5213 78.4500 231.6930 68.2303 241.4767 59.6985 C244.3678 57.2238 247.4225 54.3520 250.8425 52.6517 C253.8925 51.1360 257.6050 51.0197 260.8000 52.1590 C264.2025 53.3727 266.9650 56.0000 269.7150 58.2578 C284.2575 70.2050 292.9975 84.1032 301.0875 100.8015 C308.6825 97.2812 316.0775 94.4902 324.3900 93.0820 C327.7750 92.5085 331.1850 92.1605 334.6225 92.2145 C342.6900 92.3410 357.7275 94.5797 364.2375 99.3867 C367.0100 101.4340 368.7375 104.7372 369.1875 108.1273 C369.5375 110.7558 369.0350 114.0943 367.7825 116.4662 C365.2675 121.2240 360.0400 124.9258 356.2300 128.6427 C352.7925 131.9950 349.4600 135.5405 346.4750 139.2993 C346.7250 139.2575 346.9750 139.2128 347.2250 139.1795 C365.2250 136.7988 385.1450 142.3895 399.3650 153.5977 C402.8000 156.3047 405.5200 159.4227 405.9775 163.9783 C406.2925 167.1203 405.3475 171.3285 403.2050 173.7807 C400.1200 177.3145 390.9275 182.2720 386.5875 185.3715 C380.5975 189.6490 374.4950 194.2883 369.0750 199.2555 C366.4250 201.6817 363.9225 204.3017 361.3775 206.8367 C358.2975 209.9012 355.1550 212.9675 352.3975 216.3302 C351.7500 216.3987 351.6775 216.4792 351.1575 216.0550 C350.1075 215.1970 349.1650 214.0675 348.1450 213.1410 C345.5050 210.7092 342.7350 208.4203 339.8500 206.2840 C324.8700 195.2835 307.0100 188.8878 288.4525 187.8800 C280.0675 187.3483 271.4650 187.7148 263.0525 187.7142 L238.8633 187.7193 C233.2238 187.7210 227.5477 187.5765 221.9215 188.0002 C197.9335 189.7513 175.4523 200.3548 158.8438 217.7518 C159.0470 217.3910 159.2587 217.0955 159.2855 216.6703 C159.3915 214.9792 154.9705 211.2538 153.7498 210.0287 C150.5968 206.8650 147.5172 203.5403 144.2263 200.5235 C139.0222 195.7533 133.3862 191.3440 127.6998 187.1640 C124.9915 185.1605 122.2227 183.2402 119.3970 181.4062 C116.1110 179.2935 111.8315 177.2950 109.2288 174.4012 C106.8205 171.7238 105.7158 168.3967 105.9073 164.8150 C106.1217 160.8027 107.9280 157.4807 110.9120 154.8533 C122.1280 144.9765 138.2583 139.4710 153.0197 138.7307 C157.1755 138.5222 161.3103 138.8885 165.4540 139.1723 C165.4285 139.1440 165.4035 139.1152 165.3775 139.0875 C163.2560 136.8120 161.6185 134.1297 159.5135 131.8452 C155.0827 127.0360 146.6170 120.6980 144.3938 114.7880 C143.0838 111.3002 143.2493 107.4297 144.8525 104.0667 C146.8515 99.8995 150.4803 97.9822 154.6085 96.4772 C174.7863 89.1210 192.6430 91.9122 211.7742 100.8012 Z"></path>
</svg>