<svg xmlns="http://www.w3.org/2000/svg" viewBox="0 0 512 512" height="512.0px" width="512.0px">
<path id="" fill="#568c78" fill-opacity="1.0" stroke="#000000" stroke-width="0.0" stroke-opacity="1.0" stroke-linecap="round" stroke-linejoin="round"  filling="0" d="M377.2550 204.0545 C381.4000 203.6443 386.5825 204.4610 390.1125 206.7900 C398.5700 212.3720 406.0900 235.3922 408.0225 245.4538 C412.1800 267.0950 410.1575 293.0825 397.4525 311.7175 C385.8950 328.6700 365.5250 336.3275 345.8075 338.4175 C332.7675 339.8000 319.2325 340.2675 306.1750 338.8125 C278.6700 335.7450 252.9675 325.1075 228.3342 313.0875 C218.0327 308.1825 207.9158 302.9000 198.0038 297.2500 C190.4718 292.9725 182.9670 288.6475 175.4900 284.2725 C169.1150 280.5575 162.7552 276.4675 155.8335 273.8500 C149.0665 271.2925 141.9863 270.6000 134.8692 272.0050 C118.6353 275.2075 103.4037 288.8925 94.4153 302.2850 C83.2603 319.0575 79.1895 339.5575 83.0912 359.3175 C87.6635 381.9525 105.7870 405.1025 124.7375 417.7400 C128.2865 420.1050 131.8535 422.3875 135.6525 424.3350 C138.8865 425.9925 142.4277 427.3025 145.4440 429.3400 C148.7708 431.5850 151.2218 434.8200 151.8985 438.8500 C152.6232 443.1700 151.6930 446.8775 149.1170 450.4050 C147.0397 453.2500 144.5935 455.1325 141.0620 455.6725 C131.9557 457.0425 119.5155 449.5425 111.8620 445.0025 C84.1267 428.5525 62.8530 399.6075 54.8905 368.4150 C47.9747 341.3250 53.2385 312.6650 67.4525 288.8525 C79.9268 267.9550 103.0332 249.1605 126.8792 243.2547 C131.5063 242.1087 136.1695 241.9195 140.9125 241.9447 C163.3855 242.0643 179.7325 252.5200 198.2973 263.6475 C208.1628 269.5625 218.2020 274.9950 228.3800 280.3450 C249.3022 291.3425 271.2350 302.0525 294.4850 307.0250 C305.2050 309.3175 315.6900 310.0950 326.6350 310.0775 C334.8200 310.0625 343.1475 309.7650 351.1225 307.7350 C360.9450 305.2350 370.0450 300.0125 375.3050 291.0425 C380.8025 281.6675 381.2375 264.6000 379.5800 253.9300 C378.7250 248.4340 377.1000 242.7668 374.8450 237.6712 C373.8300 235.3800 372.7025 233.1393 371.4700 230.9563 C369.6775 227.8360 367.3000 224.7160 366.4350 221.1857 C365.5825 217.7068 365.6675 213.1743 367.6325 210.1127 C369.8300 206.6935 373.3825 204.8335 377.2550 204.0545 Z"></path>
<path id="" fill="#f2d8c2" fill-opacity="1.0" stroke="#000000" stroke-width="0.0" stroke-opacity="1.0" stroke-linecap="round" stroke-linejoin="round"  filling="0" d="M340.8425 59.8510 C342.2050 59.7718 343.6750 59.8275 345.0175 60.0683 C347.1400 60.4485 348.9925 61.3285 350.8025 62.4763 C355.8550 65.6800 360.6525 69.4603 365.5600 72.8947 L402.4125 98.8695 L435.2175 121.7440 C440.2450 125.2433 454.1550 133.5495 457.1300 137.8423 C459.0975 140.6808 460.2975 144.9303 459.5875 148.3230 C458.4300 153.8570 454.4975 159.0403 451.6825 163.8858 C445.9400 173.7652 439.8600 183.4355 433.9875 193.2370 C431.0650 198.1135 428.5325 203.6685 425.1550 208.2027 C424.1325 209.5750 422.7725 210.4852 421.3675 211.4135 C419.5525 212.3008 417.9075 212.8625 415.8850 213.0677 C412.2675 213.4348 408.9325 213.0190 406.0500 210.6225 C394.5225 201.0355 404.9100 188.2995 410.6175 178.7370 C414.1475 172.8208 417.5400 166.8438 421.1200 160.9535 C422.9600 157.9290 426.2975 153.8115 425.9650 150.1257 C425.4875 149.2015 424.7200 148.5683 423.9175 147.9280 C416.5075 142.0137 408.2900 136.9227 400.4325 131.6270 C395.7900 128.4973 391.2825 125.1575 386.6500 122.0038 C374.9800 114.2152 363.4100 106.2755 351.9425 98.1868 C345.9275 93.8960 339.4725 89.8333 333.7600 85.1615 C330.7675 82.7162 328.2675 80.1022 327.9250 76.0762 C327.5675 71.8640 328.2750 67.8207 331.0725 64.5202 C333.6525 61.4790 336.9500 60.1450 340.8425 59.8510 Z"></path>
<path id="" fill="#f1d8c2" fill-opacity="1.0" stroke="#000000" stroke-width="0.0" stroke-opacity="1.0" stroke-linecap="round" stroke-linejoin="round"  filling="0" d="M325.5300 76.6130 C327.3500 76.6805 327.4250 77.8102 328.1725 79.2040 C330.3900 83.3520 333.3475 85.5580 337.1425 88.1965 C351.1575 97.9370 365.0900 107.8362 379.2100 117.4185 L398.0075 130.2587 C403.5600 134.0260 409.1125 137.6435 414.4000 141.7885 C412.4975 147.3710 408.0950 153.4490 405.0075 158.5762 L387.9850 186.8938 C385.8125 190.5278 383.5850 194.2092 381.6800 197.9910 C380.2675 200.7993 379.1525 203.7858 377.5550 206.4965 C375.1325 210.6087 372.6350 214.7980 370.0525 218.8078 C368.5400 221.1548 366.8550 223.3952 365.4025 225.7778 C358.5350 237.0383 352.0025 248.5075 345.2375 259.8275 C334.8850 277.1575 324.3975 294.3900 314.6975 312.0925 C311.8950 317.2075 308.7500 322.1775 305.7475 327.1800 C304.5175 329.2275 302.9600 331.3825 302.0375 333.5725 C301.7200 334.3275 301.8250 335.3200 301.8500 336.1250 C301.8650 336.6025 301.8225 336.9575 301.6650 337.4175 L301.2275 337.6150 C300.8800 337.3925 300.6100 337.2200 300.2050 337.1175 C299.5525 336.9550 299.0925 337.7050 298.7600 338.1675 C297.0625 340.5225 295.7000 343.2975 294.2250 345.8050 C291.5650 350.3350 288.8675 354.8450 286.1325 359.3325 C282.2500 365.7525 278.5775 372.2975 274.7325 378.7400 C272.8975 381.8200 271.1300 385.0250 269.0400 387.9425 C267.0700 390.6900 264.6000 393.0150 262.2125 395.3900 C253.9900 403.5675 245.6752 410.2975 236.0140 416.7225 C224.3703 424.3350 211.9552 430.9925 198.2425 433.9350 C195.1970 434.5875 191.9772 435.2000 188.8483 434.9350 C183.4267 434.4800 177.5363 431.5900 174.0423 427.3950 C164.9738 416.5050 163.9495 401.1625 163.9478 387.6250 C163.9473 383.5575 163.9037 379.5200 164.3000 375.4700 C165.6200 361.9800 168.5538 344.9750 174.2170 332.5825 C178.6255 322.9375 184.3147 314.1325 189.5695 304.9575 C191.2782 301.9750 192.7260 298.8550 194.4230 295.8750 C195.7815 293.4875 197.4317 291.2625 198.8203 288.8850 L206.0607 276.5375 C207.1320 274.6775 208.0753 272.7175 209.2007 270.8925 C210.3835 268.9750 212.0647 267.4100 213.2278 265.4800 L243.5990 214.0883 L305.2425 109.6793 L315.6700 92.2030 C317.7525 88.6850 322.6725 78.9595 325.5300 76.6130 Z"></path>
<path id="" fill="#f2d8c2" fill-opacity="1.0" stroke="#000000" stroke-width="0.0" stroke-opacity="1.0" stroke-linecap="round" stroke-linejoin="round"  filling="0" d="M353.4050 52.0815 C356.8525 51.8073 360.3975 51.8537 363.8550 51.9230 C368.4925 52.0157 372.3075 52.8562 376.5425 54.7695 C381.4300 56.9778 385.7600 60.4170 390.1950 63.4048 C397.3025 68.1950 410.7400 76.8488 416.3100 82.6978 C418.7050 85.2112 420.4025 87.8735 422.0450 90.9210 C426.2400 98.7087 427.2450 105.7440 427.0100 114.4832 L426.7875 114.4218 C423.9525 113.6570 421.6275 111.8345 419.2275 110.2103 C416.1925 108.1715 413.2650 105.9628 410.2525 103.8910 C407.2050 101.7960 404.0500 99.8450 401.0525 97.6808 C398.6625 95.9545 396.3725 94.0890 393.9675 92.3808 L369.6300 75.3863 C365.4925 72.4605 361.2775 69.6582 357.1325 66.7493 C354.7025 65.0455 352.3600 63.1257 349.8650 61.5300 C347.3850 59.9433 344.2050 59.7133 341.7250 58.1653 C341.3625 57.4993 341.2850 57.4550 341.3925 56.7158 C343.4500 54.0858 350.1350 52.4908 353.4050 52.0815 Z"></path>
<path id="" fill="#568c78" fill-opacity="1.0" stroke="#000000" stroke-width="0.0" stroke-opacity="1.0" stroke-linecap="round" stroke-linejoin="round"  filling="0" d="M305.3850 119.0395 C310.6225 118.6653 314.0025 119.5813 318.4275 122.4713 C332.1800 131.4495 345.4600 141.2973 358.9900 150.6155 L373.3600 160.5770 C377.9475 163.7100 383.2875 166.7400 387.1200 170.7802 C388.5450 172.2825 389.5025 174.8788 389.8975 176.8540 C390.7125 180.9345 390.0425 185.0235 387.7125 188.5035 C385.6050 191.6447 382.3950 193.8978 378.6875 194.6613 C373.6100 195.3983 370.6850 195.2502 366.2600 192.4015 C361.4925 189.3313 356.9475 185.8033 352.3000 182.5435 L322.2925 161.4755 L308.1625 151.5465 C304.4775 148.9740 300.5200 146.5282 297.3250 143.3457 C295.4675 141.4967 294.1975 138.6090 293.6700 136.0522 C292.8875 132.2598 294.0575 127.8848 296.2575 124.7202 C298.5100 121.4825 301.5900 119.7858 305.3850 119.0395 Z"></path>
<path id="" fill="#568c78" fill-opacity="1.0" stroke="#000000" stroke-width="0.0" stroke-opacity="1.0" stroke-linecap="round" stroke-linejoin="round"  filling="0" d="M168.1655 418.4300 C170.0293 419.5800 171.9458 423.3575 173.5992 425.1850 C179.9783 432.2325 185.1382 433.5650 194.3505 434.0375 C194.2030 435.0550 194.0267 435.9875 193.6155 436.9350 C191.9527 440.7675 185.4617 451.1200 182.9393 454.4075 C181.8633 455.8100 180.7258 456.9750 179.3737 458.1100 C176.7260 459.9350 174.0723 460.8300 170.8528 460.8675 C166.6840 460.9125 162.8398 459.4700 159.8513 456.5250 C157.2605 453.9725 155.2475 449.8100 155.3250 446.1000 C155.3687 444.0150 156.2300 441.6975 156.9760 439.7700 C158.4828 435.8750 165.5833 420.8750 168.1655 418.4300 Z"></path>
<path id="" fill="#568c78" fill-opacity="1.0" stroke="#000000" stroke-width="0.0" stroke-opacity="1.0" stroke-linecap="round" stroke-linejoin="round"  filling="0" d="M254.8775 283.0300 C260.1350 281.7025 265.7025 283.3200 269.4300 287.2575 C273.1600 291.1975 274.4700 296.8425 272.8575 302.0200 C271.2425 307.1975 266.9600 311.1025 261.6525 312.2250 C253.6650 313.9175 245.7917 308.9050 243.9455 300.9525 C242.0995 292.9975 246.9600 285.0300 254.8775 283.0300 Z"></path>
<path id="" fill="#568c78" fill-opacity="1.0" stroke="#000000" stroke-width="0.0" stroke-opacity="1.0" stroke-linecap="round" stroke-linejoin="round"  filling="0" d="M279.9525 241.9870 C288.0700 240.3893 295.9475 245.6815 297.5375 253.8025 C299.1250 261.9250 293.8250 269.7950 285.7025 271.3750 C277.5900 272.9550 269.7350 267.6625 268.1475 259.5525 C266.5600 251.4450 271.8425 243.5822 279.9525 241.9870 Z"></path>
</svg>