<svg xmlns="http://www.w3.org/2000/svg" viewBox="0 0 512 512" height="512.0px" width="512.0px">
<path id="" fill="#feac33" fill-opacity="1.0" stroke="#000000" stroke-width="0.0" stroke-opacity="1.0" stroke-linecap="round" stroke-linejoin="round"  filling="0" d="M237.8443 103.1087 C238.7285 103.0680 239.6135 103.0410 240.4985 103.0280 C247.4550 102.9408 254.4175 102.9890 261.3750 102.9928 C266.7750 102.9955 272.2100 102.8712 277.6000 103.2548 C321.2450 106.3603 365.4050 118.0285 401.7275 143.0770 C408.2100 147.5470 414.7925 152.3455 420.4225 157.8638 C429.4400 166.7010 440.3925 179.5615 446.2675 190.6893 C447.8225 193.6353 448.9975 196.7890 450.2250 199.8825 C451.9850 204.3082 453.6525 208.7805 454.8825 213.3860 C458.7300 227.7843 459.5700 243.4207 460.0825 258.2450 C460.2575 263.3375 460.9625 268.4050 461.0125 273.5025 C461.0675 279.2350 461.2900 285.0975 460.7525 290.8075 C457.9600 318.4375 445.8150 344.2850 426.3250 364.0725 C424.6125 365.7950 422.6275 367.2575 420.8325 368.8950 C418.0675 371.4200 415.3700 373.9700 412.4375 376.3025 C381.9750 400.5350 343.2225 412.8400 305.1475 418.1900 C294.6950 419.6575 284.0525 420.9825 273.4900 421.0200 C269.2750 421.0675 265.0725 421.4825 260.8675 421.7250 C254.0900 422.1200 247.5035 421.3000 240.7603 421.0700 C237.5925 420.9650 234.4187 421.0250 231.2533 420.8325 C226.2415 420.5250 221.2157 419.8550 216.2258 419.2950 C172.1265 414.3575 126.4465 400.4125 92.8637 370.2450 C67.7053 347.6425 53.0462 319.2700 51.1495 285.4125 C50.7970 279.1175 51.3040 272.9975 51.7623 266.7275 C52.1087 261.9875 52.3322 257.2400 52.6890 252.4975 C53.2265 245.3510 53.5985 238.1443 54.5610 231.0390 C57.3268 210.6180 64.4113 192.3895 76.8702 175.9010 C80.4767 171.1283 84.5562 166.6110 88.5652 162.1758 C90.1840 160.3845 92.1328 158.9255 93.9293 157.3212 C98.6133 153.1385 102.9555 149.3867 108.0615 145.7030 C111.9457 142.9008 115.8282 140.0635 119.8922 137.5260 C142.1275 123.6435 167.1180 115.1998 192.5645 109.5335 C207.3503 106.2410 222.6973 103.8490 237.8443 103.1087 Z M338.5550 259.6300 C338.1575 256.8550 338.2875 254.0050 338.0250 251.2100 C337.3075 243.5412 334.0150 236.7207 328.7100 231.1653 C314.5400 216.3170 286.9750 212.4547 267.2450 212.0190 C242.8938 211.4812 204.6135 211.3170 186.1458 229.2108 C176.6445 238.4170 174.1560 246.4240 173.9763 259.5075 C177.7153 262.7725 183.0768 265.0050 187.5890 266.9525 C209.3468 276.3350 232.6537 280.0175 256.2500 280.0475 C260.2450 280.0500 264.3000 280.1800 268.2850 279.9125 C288.8675 278.5175 314.1825 273.6625 332.3875 263.6675 C333.9600 262.8050 337.2600 261.4175 338.3125 260.0650 C338.4125 259.9375 338.4825 259.7775 338.5550 259.6300 Z"></path>
<path id="" fill="#f38f0c" fill-opacity="1.0" stroke="#000000" stroke-width="0.0" stroke-opacity="1.0" stroke-linecap="round" stroke-linejoin="round"  filling="0" d="M173.9763 259.5075 C171.6283 258.2875 169.4232 256.5325 167.2507 255.0075 C155.6767 246.8902 146.0750 236.6085 141.7200 222.8952 C138.2730 212.0412 139.0045 200.6380 144.2580 190.5018 C154.6255 170.4985 177.3830 158.2760 198.1497 151.7830 C242.8557 137.8047 296.6625 139.8185 338.4500 161.9187 C353.0625 169.6470 366.3050 181.9272 371.2150 198.0768 C374.7475 209.6927 372.5075 221.5885 366.8825 232.1017 C361.4500 242.2570 353.1825 249.8485 343.7800 256.2550 C342.2000 257.3300 340.2975 258.9725 338.5550 259.6300 C338.1575 256.8550 338.2875 254.0050 338.0250 251.2100 C337.3075 243.5412 334.0150 236.7207 328.7100 231.1653 C314.5400 216.3170 286.9750 212.4547 267.2450 212.0190 C242.8938 211.4812 204.6135 211.3170 186.1458 229.2108 C176.6445 238.4170 174.1560 246.4240 173.9763 259.5075 Z"></path>
<path id="" fill="#8a4b38" fill-opacity="1.0" stroke="#000000" stroke-width="0.0" stroke-opacity="1.0" stroke-linecap="round" stroke-linejoin="round"  filling="0" d="M54.4702 239.7675 C54.8492 239.6770 55.8070 239.5918 55.9727 239.2428 C56.5200 238.0912 55.7137 235.3192 55.1107 234.2735 C54.7230 233.6008 54.5583 233.3760 54.5277 232.5858 C54.3405 227.7390 55.4912 222.8027 55.8607 217.9698 C56.3763 211.2278 56.0977 204.6902 57.3467 197.9758 C62.5858 169.8145 82.4985 147.4410 105.5107 131.7015 C163.7980 91.8362 247.2880 82.8065 315.5500 95.7565 C360.0275 104.1947 414.7800 126.1935 441.0500 165.1367 C452.7450 182.4758 457.4825 201.0768 455.3325 221.9082 C455.1125 224.0383 455.3325 226.2835 454.9300 228.3768 C455.9300 228.8058 456.9425 229.1118 457.3150 230.2377 C457.4500 230.6420 457.3525 230.9675 457.1575 231.3435 C456.9175 231.7997 456.1825 232.2717 455.7575 232.5200 C455.6975 232.5838 455.6375 232.6465 455.5775 232.7110 C453.5625 234.9210 453.8275 242.0802 453.2600 245.2670 C451.7425 253.7875 448.2025 262.5750 443.7200 269.9325 C438.1175 279.1275 429.7300 287.1150 420.0025 291.7900 C415.9200 293.7550 411.8475 295.0625 408.4400 298.1850 C403.2325 302.9525 399.4100 308.7400 395.3050 314.4125 C387.0600 325.8025 375.9625 341.0800 362.9475 347.0775 C356.2450 350.1675 349.0500 351.1975 341.7575 351.5850 C334.4600 351.9725 323.7350 349.9200 316.3625 348.6175 C305.1900 346.6425 291.6325 344.2525 280.2625 344.1425 C264.4900 343.9925 249.4693 347.9700 234.2598 351.5325 C225.3850 353.6125 215.9120 355.8550 206.7478 355.8750 C199.0307 355.8925 190.4955 354.0225 183.3503 351.2425 C176.1725 348.4500 169.5482 344.5925 163.8345 339.3925 C158.1942 334.2575 153.7258 327.9200 148.5885 322.3050 C140.1877 313.1225 127.6165 304.8725 114.6998 305.4800 C99.4628 306.1950 92.4658 308.4475 79.9640 297.2200 C77.3920 294.9100 75.2762 292.3050 73.1562 289.5875 C71.0378 286.8750 68.9130 284.1700 67.1500 281.2050 C61.4995 271.7050 57.6435 259.1450 57.0692 248.0963 C57.0080 246.8172 56.9628 245.5378 56.9340 244.2578 C55.7715 244.2960 54.6263 244.4065 53.4915 244.1053 C53.2368 243.2928 53.2155 242.3687 53.3553 241.5305 C53.5010 240.6570 53.7758 240.2950 54.4702 239.7675 Z M188.5502 227.5002 C188.4223 229.7220 188.3978 231.3855 189.1573 233.5217 C198.7563 244.0505 224.8740 247.1460 238.5910 247.7830 C260.7000 248.8098 305.5400 249.3168 322.6575 233.9527 L322.9250 233.7070 C323.6850 231.8900 323.9075 229.6220 324.1275 227.6735 C325.6300 228.2648 327.2225 228.6712 328.7725 229.1235 C330.5650 228.6390 332.2900 226.1057 333.1950 224.5270 C335.4725 220.5575 336.7250 216.7298 335.4175 212.1407 C333.4975 205.4105 325.8025 199.9035 320.0075 196.7872 C315.9125 194.5850 311.5075 193.0295 307.1100 191.5540 C278.1200 181.8297 238.0035 181.4245 208.7843 190.3490 C198.8855 193.3723 183.1655 199.3837 178.0505 208.8865 C176.3955 211.9608 175.3815 215.8828 176.4117 219.3158 C177.1033 221.6198 180.8205 228.3090 183.0060 229.2307 C183.0745 229.2598 183.1495 229.2710 183.2213 229.2912 C185.0035 228.7117 186.7798 228.1147 188.5502 227.5002 Z"></path>
<path id="" fill="#ffac33" fill-opacity="1.0" stroke="#000000" stroke-width="0.0" stroke-opacity="1.0" stroke-linecap="round" stroke-linejoin="round"  filling="0" d="M54.4702 239.7675 C55.2962 239.7775 55.7233 239.6120 56.3452 240.1840 C56.8553 241.3242 56.6638 242.7233 56.8062 243.9557 C55.7040 243.9917 54.5883 243.9902 53.4915 244.1053 C53.2368 243.2928 53.2155 242.3687 53.3553 241.5305 C53.5010 240.6570 53.7758 240.2950 54.4702 239.7675 Z"></path>
<path id="" fill="#ffac33" fill-opacity="1.0" stroke="#000000" stroke-width="0.0" stroke-opacity="1.0" stroke-linecap="round" stroke-linejoin="round"  filling="0" d="M455.7575 232.5200 C455.2775 232.7368 455.4550 232.6240 455.0350 232.9450 C454.6025 233.2745 454.8850 233.1642 454.2700 233.2133 C454.3050 232.0025 454.1600 229.2032 454.9300 228.3768 C455.9300 228.8058 456.9425 229.1118 457.3150 230.2377 C457.4500 230.6420 457.3525 230.9675 457.1575 231.3435 C456.9175 231.7997 456.1825 232.2717 455.7575 232.5200 Z"></path>
<path id="" fill="#f28e0c" fill-opacity="1.0" stroke="#000000" stroke-width="0.0" stroke-opacity="1.0" stroke-linecap="round" stroke-linejoin="round"  filling="0" d="M183.2213 229.2912 C185.0035 228.7117 186.7798 228.1147 188.5502 227.5002 C188.4223 229.7220 188.3978 231.3855 189.1573 233.5217 C188.8522 233.6610 189.0603 233.5858 188.5052 233.6422 C186.6775 232.5063 184.7715 231.1028 183.1653 229.6705 L183.2213 229.2912 Z"></path>
<path id="" fill="#f18e0c" fill-opacity="1.0" stroke="#000000" stroke-width="0.0" stroke-opacity="1.0" stroke-linecap="round" stroke-linejoin="round"  filling="0" d="M324.1275 227.6735 C325.6300 228.2648 327.2225 228.6712 328.7725 229.1235 L329.0250 229.4715 C328.2775 230.7390 324.7675 233.3112 323.3425 233.7453 C323.2475 233.7740 323.1475 233.7840 323.0525 233.8033 L322.9250 233.7070 C323.6850 231.8900 323.9075 229.6220 324.1275 227.6735 Z"></path>
<path id="" fill="#f3aab9" fill-opacity="1.0" stroke="#000000" stroke-width="0.0" stroke-opacity="1.0" stroke-linecap="round" stroke-linejoin="round"  filling="0" d="M119.3415 195.0505 C122.1915 194.8313 124.9690 194.8230 127.4987 196.3578 C130.2075 198.0010 133.1283 201.1340 133.8188 204.2680 C134.5298 207.4937 134.0285 211.3425 132.1588 214.0835 C130.9800 215.8115 129.3125 217.1690 127.5885 218.3255 C123.2220 221.2545 118.2005 223.2993 113.5385 225.7202 C108.3175 228.4317 102.5197 232.9212 96.7043 234.0040 C93.3138 234.1550 90.2870 234.0428 87.2920 232.2085 C84.4770 230.4848 82.9160 227.6595 82.2108 224.5092 C81.6178 221.8593 81.6350 217.8503 83.2050 215.5847 C84.4480 213.7912 86.4030 212.1925 88.2012 210.9850 C93.0742 207.7130 98.6317 205.2950 103.8268 202.5862 C108.7307 200.0293 113.9088 196.1322 119.3415 195.0505 Z"></path>
<path id="" fill="#55abed" fill-opacity="1.0" stroke="#000000" stroke-width="0.0" stroke-opacity="1.0" stroke-linecap="round" stroke-linejoin="round"  filling="0" d="M387.3250 229.2765 C390.3550 229.0265 393.2775 230.0278 395.7300 231.7827 C398.5325 233.8073 400.3825 236.8963 400.8400 240.3248 C401.0850 242.0250 400.9400 243.7015 400.3775 245.3242 C398.5925 250.4725 394.4400 256.4075 391.6100 261.1475 C389.5175 264.6550 387.5650 268.4300 385.1525 271.7200 C382.8825 274.8100 380.1225 276.4100 376.3800 277.0050 C373.4225 277.0450 370.9550 276.7225 368.3625 275.1200 C365.4375 273.2775 363.3775 270.3350 362.6475 266.9575 C362.3375 265.5200 362.2800 264.0125 362.6600 262.5875 C364.1975 256.8375 373.3400 242.3513 376.8975 236.7453 C379.6775 232.3675 382.2400 230.3900 387.3250 229.2765 Z"></path>
<path id="" fill="#f3aab9" fill-opacity="1.0" stroke="#000000" stroke-width="0.0" stroke-opacity="1.0" stroke-linecap="round" stroke-linejoin="round"  filling="0" d="M224.7750 280.2875 C228.1122 279.9275 231.1350 280.9675 233.7572 283.0750 C235.1170 284.1650 236.1562 285.5275 237.0298 287.0225 C239.4700 291.2050 246.7465 308.4075 247.1087 312.7900 C247.3887 316.1825 246.9008 319.3025 244.5870 321.9450 C242.4600 324.3750 240.1725 325.8150 236.9147 326.0575 C234.2708 326.0975 231.3372 326.3350 228.9453 324.9950 C223.1152 321.7250 221.0567 313.3225 218.6447 307.5850 C217.2977 304.3800 215.6772 301.2125 214.7030 297.8700 C213.6877 294.3850 213.3322 289.9225 215.1873 286.6700 C217.2230 283.1000 220.9657 281.2825 224.7750 280.2875 Z"></path>
<path id="" fill="#f3aab9" fill-opacity="1.0" stroke="#000000" stroke-width="0.0" stroke-opacity="1.0" stroke-linecap="round" stroke-linejoin="round"  filling="0" d="M401.0725 159.1328 C406.9925 158.9755 413.9050 157.8533 418.6150 162.3062 C420.9550 164.5202 422.0875 167.3038 422.2000 170.4957 C422.3275 174.1040 421.4775 177.7408 418.9025 180.4160 C415.1850 184.2780 408.9525 184.6855 403.9375 184.8565 C398.7200 185.2213 392.0925 186.0430 387.8700 182.3878 C385.1150 180.0020 383.1750 176.4393 383.0100 172.7750 C382.8650 169.3985 384.1125 166.1102 386.4575 163.6767 C390.4225 159.5658 395.7350 159.2290 401.0725 159.1328 Z"></path>
<path id="" fill="#55abed" fill-opacity="1.0" stroke="#000000" stroke-width="0.0" stroke-opacity="1.0" stroke-linecap="round" stroke-linejoin="round"  filling="0" d="M157.2000 250.8600 C160.3905 250.8800 163.1422 251.1725 165.7675 253.2075 C168.3723 255.2250 170.2493 258.4850 170.6078 261.7700 C171.0720 266.0200 166.0880 277.9300 163.3092 281.3600 C161.0525 284.1450 158.2578 285.7400 154.6945 286.1100 C151.2357 286.2125 148.3060 285.6075 145.5515 283.3350 C142.9065 281.1650 141.2825 277.9925 141.0680 274.5775 C140.9772 273.3100 141.0990 272.0350 141.4283 270.8075 C142.3703 267.2025 146.6100 257.2075 148.9145 254.6100 C151.2937 251.9300 153.7400 251.0725 157.2000 250.8600 Z"></path>
<path id="" fill="#88c8f8" fill-opacity="1.0" stroke="#000000" stroke-width="0.0" stroke-opacity="1.0" stroke-linecap="round" stroke-linejoin="round"  filling="0" d="M196.1275 127.0478 C202.0123 126.4235 207.5332 129.6805 212.5050 132.4240 C215.9415 134.3203 218.6165 136.8835 219.6660 140.8020 C220.5517 144.0815 220.0480 147.5810 218.2728 150.4772 C216.3325 153.6358 213.4467 155.3593 209.9470 156.2635 C209.7530 156.3170 209.5582 156.3678 209.3627 156.4162 C204.6865 157.5497 197.4985 153.5085 193.5700 151.1405 C190.2240 149.1232 187.1398 146.4250 186.2292 142.4635 C185.4725 139.1715 185.9108 135.5078 187.7615 132.6478 C189.6755 129.6900 192.7408 127.7997 196.1275 127.0478 Z"></path>
<path id="" fill="#88c8f8" fill-opacity="1.0" stroke="#000000" stroke-width="0.0" stroke-opacity="1.0" stroke-linecap="round" stroke-linejoin="round"  filling="0" d="M304.4175 284.0475 C307.4675 283.9150 310.0100 284.4950 312.7425 285.8250 C318.4475 288.6025 325.2525 291.2775 327.3750 297.8400 C328.3475 300.8425 327.9000 304.0775 326.3900 306.8225 C324.2100 310.7850 320.6900 312.4050 316.5750 313.6200 C312.6850 314.4000 302.3725 309.1450 299.0250 306.8475 C296.1575 304.8950 294.1975 301.8700 293.5925 298.4525 C293.0200 295.2625 293.9300 291.9075 295.7925 289.2775 C297.9075 286.2900 300.8800 284.6825 304.4175 284.0475 Z"></path>
<path id="" fill="#f3aab9" fill-opacity="1.0" stroke="#000000" stroke-width="0.0" stroke-opacity="1.0" stroke-linecap="round" stroke-linejoin="round"  filling="0" d="M284.8175 108.2878 C287.4225 107.9427 290.1650 108.8903 292.3625 110.2405 C295.0725 111.9050 297.2850 114.5810 297.9425 117.7318 C298.6375 121.0460 298.3325 124.8438 296.3600 127.6673 C292.4850 133.2130 284.3625 134.9532 278.1150 136.0000 C275.2875 136.0750 272.5900 136.3472 270.0200 134.9410 C267.3000 133.4518 265.0600 130.8257 264.2725 127.8012 C263.4475 124.6335 263.6300 120.4080 265.3225 117.5813 C268.9000 111.6008 278.4750 109.8513 284.8175 108.2878 Z"></path>
<path id="" fill="#55abed" fill-opacity="1.0" stroke="#000000" stroke-width="0.0" stroke-opacity="1.0" stroke-linecap="round" stroke-linejoin="round"  filling="0" d="M343.8625 141.0663 C347.2750 140.7435 350.4000 140.9442 353.3275 142.9930 C356.1625 144.9775 358.0275 148.1355 358.6275 151.5215 C359.1950 154.7392 358.2700 157.8537 356.3375 160.4535 C353.3500 164.4740 345.1875 168.2210 340.3100 168.9865 C337.5400 169.1682 334.8200 169.2428 332.2575 167.9848 C329.1750 166.4713 326.8350 163.5553 325.8375 160.2908 C324.8800 157.1565 325.3125 154.1013 326.9300 151.2630 C330.1525 145.6037 337.9275 142.6712 343.8625 141.0663 Z"></path>
<path id="" fill="#55abed" fill-opacity="1.0" stroke="#000000" stroke-width="0.0" stroke-opacity="1.0" stroke-linecap="round" stroke-linejoin="round"  filling="0" d="M129.2655 142.2953 C133.4767 142.0360 139.6828 143.6158 143.3685 145.7290 C146.4397 147.4902 148.4492 150.2265 149.3138 153.6568 C150.1165 156.8427 149.3915 160.0397 147.7155 162.8143 C145.6495 166.2343 142.4803 167.8650 138.7330 168.7895 C133.8535 169.0840 127.5938 167.8220 123.4427 165.1602 C120.6725 163.3837 118.8590 160.6545 118.1765 157.4380 C117.4640 154.0793 118.1720 150.5753 120.1322 147.7565 C122.3662 144.5182 125.5280 143.0470 129.2655 142.2953 Z"></path>
</svg>