<svg xmlns="http://www.w3.org/2000/svg" viewBox="0 0 512 512" height="512.0px" width="512.0px">
<path id="" fill="#c0694f" fill-opacity="1.0" stroke="#000000" stroke-width="0.0" stroke-opacity="1.0" stroke-linecap="round" stroke-linejoin="round"  filling="0" d="M185.1500 51.3575 C185.2870 51.3410 185.4240 51.3223 185.5612 51.3080 C191.4930 50.6857 199.4783 54.0948 203.9462 57.7923 C210.0372 62.8335 215.5547 68.9965 221.1463 74.6040 L251.1775 104.6785 L273.5175 126.9805 C277.3625 130.8008 282.0275 134.6788 285.2450 139.0175 C287.6175 142.2198 289.0075 146.7710 289.3825 150.7010 C290.1125 158.3463 286.9075 165.8690 282.1425 171.6472 C280.4025 173.7570 278.5900 175.8680 276.6150 177.7585 C274.7750 179.5188 272.7650 181.1175 271.0125 182.9657 C255.4250 199.3925 239.2155 215.2275 223.2018 231.2430 L198.9240 255.5200 C196.5130 257.9100 193.8987 260.1075 191.5250 262.5225 C189.4565 264.6275 187.5587 266.8875 185.4447 268.9525 C183.1243 271.2175 180.5740 273.2375 178.2513 275.5025 C175.3135 278.3675 172.5380 281.5850 169.2530 284.0500 C165.4070 286.9350 160.3203 288.6975 155.5605 289.1400 C155.4507 289.1600 155.3423 289.1875 155.2312 289.2000 C148.0835 290.0150 140.9265 287.0600 135.4695 282.6200 C130.6452 278.6975 126.7885 273.7250 122.4890 269.2700 C119.9297 266.6175 117.0560 264.2725 114.4243 261.6900 C111.4845 258.8050 108.8040 255.6900 105.9037 252.7750 C102.9843 249.8398 99.8335 247.1297 96.9050 244.1925 C94.2895 241.5692 91.9010 238.7047 89.2405 236.1342 C86.6537 233.6353 83.9207 231.2925 81.3850 228.7385 C78.0612 225.3902 75.0505 221.7370 71.7678 218.3505 C66.7493 213.1738 60.9792 208.2670 56.7380 202.4230 C53.7895 198.3600 51.8273 193.3262 51.3385 188.3208 C50.6032 180.7943 54.6085 173.5905 59.2630 168.0100 C66.1022 159.8098 74.0188 152.4710 81.5685 144.9232 L117.2527 109.2452 L148.3800 78.1015 C153.8692 72.6120 159.2960 67.2477 165.0730 62.0667 C167.1505 60.2035 169.1763 58.2052 171.4205 56.5453 C175.4507 53.6192 180.1920 51.8278 185.1500 51.3575 Z"></path>
<path id="" fill="#ccd6dd" fill-opacity="1.0" stroke="#000000" stroke-width="0.0" stroke-opacity="1.0" stroke-linecap="round" stroke-linejoin="round"  filling="0" d="M221.1398 200.7502 C223.9030 198.1670 226.4538 195.3920 229.1557 192.7502 C231.8752 190.0915 234.7713 187.6147 237.4753 184.9408 C244.8438 177.6535 251.9175 170.0437 259.2450 162.7168 C262.1175 159.8443 265.1475 157.1268 268.0750 154.3087 C273.1725 149.4008 277.5275 144.1225 283.3800 139.9892 C283.4650 139.9292 283.5450 139.8652 283.6325 139.8073 C286.0300 138.1927 294.9750 138.7953 297.8500 139.4640 C301.4650 140.3055 304.2625 142.1870 307.0475 144.5838 C309.7800 146.9377 312.2825 149.6585 314.8300 152.2157 L327.7925 165.1888 L369.1125 206.5330 C371.1250 208.5453 373.0925 210.6420 375.1725 212.5825 C377.2525 214.5242 380.5900 216.5480 382.0700 218.9297 C382.5950 219.7770 382.9400 220.7040 383.2775 221.6382 C382.0500 224.3533 379.8825 226.4848 377.8650 228.6375 C369.6950 237.3535 360.9550 245.6475 352.5000 254.0950 L305.5725 301.0125 L251.8450 354.7425 C242.8152 363.7775 233.9430 373.0900 224.6978 381.8950 C221.7830 384.6725 214.0955 392.2125 210.7617 393.5125 C207.4028 394.8225 202.5952 394.2175 199.4055 392.7375 C196.7505 391.5075 194.5265 389.7750 192.3633 387.8225 C188.1857 384.0500 184.3237 379.8300 180.3443 375.8450 L157.2215 352.7200 L139.2663 334.7675 C136.0580 331.5625 132.5650 328.4550 129.6360 324.9975 C127.7910 322.8175 126.5130 320.5550 125.5555 317.8575 C123.3763 311.7150 123.4065 303.9325 126.1825 297.9575 C128.1135 293.8025 131.8667 290.6525 134.9028 287.3200 C136.5995 285.4575 138.1605 283.4200 139.9942 281.6900 C142.6985 279.1400 145.6268 276.8550 148.2702 274.2300 L187.2740 234.8562 C189.7680 232.3100 192.2442 229.7117 194.8223 227.2527 C196.9140 225.2575 199.1992 223.4285 201.0883 221.2350 C207.6552 214.2838 214.9662 208.0975 221.1398 200.7502 Z"></path>
<path id="" fill="#8a4b38" fill-opacity="1.0" stroke="#000000" stroke-width="0.0" stroke-opacity="1.0" stroke-linecap="round" stroke-linejoin="round"  filling="0" d="M228.8870 83.5468 C229.7255 83.8913 230.5137 84.3148 231.2410 84.8582 C233.5443 86.5793 244.3288 96.9788 245.0912 99.0547 C245.5182 100.2170 243.7790 101.8020 243.0015 102.6118 C235.9245 109.9810 228.4705 117.0165 221.3075 124.3070 C218.6452 127.0168 216.3582 130.0777 213.6628 132.7540 C211.2470 135.1528 208.4987 137.1953 206.0890 139.6035 C203.1220 142.5685 200.5347 145.9102 197.5448 148.8465 C193.9427 152.3842 183.4747 160.5242 181.9270 164.6470 C182.2515 165.5455 182.9245 166.2970 183.5668 166.9905 C186.6830 170.3553 190.0910 173.5090 193.3533 176.7388 L209.4922 192.8802 C211.5710 194.9685 214.4565 199.1355 216.8768 200.4625 C218.2350 201.2072 219.6935 201.2018 221.1398 200.7502 C214.9662 208.0975 207.6552 214.2838 201.0883 221.2350 C201.2580 220.2370 201.1263 219.1317 201.0900 218.1203 C199.5562 215.8042 197.2795 213.8568 195.3208 211.9012 L187.2238 203.7962 L174.1495 190.7165 C171.0217 187.5900 167.9645 184.3192 164.5060 181.5540 C162.4017 184.3170 159.7867 186.7213 157.3123 189.1458 C153.6237 192.7598 149.9105 196.2525 146.1580 199.7925 C144.0793 201.7538 142.3862 204.0777 140.3475 206.0742 C135.6905 210.6345 130.7980 214.9733 126.1608 219.5350 L108.8002 236.8107 C106.0632 239.5312 102.9555 243.4718 99.6192 245.3735 C99.3500 245.2950 99.3372 245.3025 99.0447 245.1508 C97.2140 244.1998 85.2355 232.3147 84.8893 230.7442 C84.6825 229.8065 84.8995 228.9993 85.4312 228.2182 C86.8360 226.1552 89.0335 224.3290 90.8027 222.5670 L100.1945 213.1998 L135.6030 177.8062 C138.7395 174.6698 145.5002 168.7402 147.4515 165.2780 C147.3078 164.2363 146.4750 163.2697 145.8082 162.4915 C142.5408 158.6767 138.6090 155.1832 135.0473 151.6252 L113.7018 130.3053 C110.9980 127.6053 107.8008 124.9193 105.5400 121.8508 C106.8683 118.9362 116.6960 109.4822 119.5720 107.0813 C120.0283 106.7005 121.2400 105.6255 121.8452 105.8040 C123.6178 106.3268 129.5260 112.8870 131.2832 114.6497 L151.9135 135.3338 C155.5193 138.9447 159.0345 142.8508 162.8925 146.1820 C163.4993 146.7057 164.2072 147.3760 165.0302 147.4555 C166.1825 146.7802 167.2000 146.0335 168.1893 145.1385 C172.2657 141.4507 176.0603 137.3483 179.9510 133.4590 L202.4580 110.9553 L217.7685 95.6395 C221.5618 91.8445 225.9673 88.0660 228.8870 83.5468 Z"></path>
<path id="" fill="#dd2e44" fill-opacity="1.0" stroke="#000000" stroke-width="0.0" stroke-opacity="1.0" stroke-linecap="round" stroke-linejoin="round"  filling="0" d="M333.3250 170.3380 C335.4025 171.9993 337.3050 173.7502 339.0725 175.7377 L416.7675 253.4100 L437.5550 274.1975 C442.9075 279.5575 448.7275 284.6375 452.9625 290.9625 C458.2075 298.7950 460.9350 307.5075 460.9500 316.9475 C460.9600 326.0450 458.3225 334.9500 453.3550 342.5725 C449.1200 348.9975 443.2975 354.2025 437.8875 359.6150 L419.0825 378.4125 L352.5875 444.9075 C342.8100 454.6300 330.7025 461.0575 316.6100 460.9500 C308.9025 460.8925 300.5925 458.6275 293.9375 454.7300 C284.7875 449.3700 275.2100 438.4225 267.5300 430.7425 C260.7525 423.9625 253.8225 417.2900 247.1285 410.4325 C246.7045 409.9925 246.2865 409.5475 245.8745 409.0975 C243.6375 407.6750 239.9332 403.3475 237.8965 401.3100 C231.7908 395.1950 224.8185 388.8950 219.3112 382.2900 C221.0462 377.0975 225.2495 370.5300 227.9790 365.5100 C234.4258 353.6700 240.9353 341.8650 247.5078 330.0950 C267.0300 295.3450 286.3275 260.4725 305.4025 225.4747 C315.1075 207.3540 325.3975 189.3282 333.3250 170.3380 Z"></path>
<path id="" fill="#be1931" fill-opacity="1.0" stroke="#000000" stroke-width="0.0" stroke-opacity="1.0" stroke-linecap="round" stroke-linejoin="round"  filling="0" d="M333.3250 170.3380 C335.4025 171.9993 337.3050 173.7502 339.0725 175.7377 C339.0050 176.2680 338.9275 176.7975 338.8425 177.3257 C338.2000 181.3740 333.4550 191.9905 331.7825 196.2533 L315.4250 238.0315 L270.6075 352.5550 C263.6150 370.4125 256.8225 388.3750 249.6458 406.1575 C249.1880 407.2925 248.6985 408.5300 247.8770 409.4525 C247.2527 409.6375 246.9203 409.4325 246.3522 409.2050 C246.0400 409.0800 246.1805 409.1100 245.8745 409.0975 C243.6375 407.6750 239.9332 403.3475 237.8965 401.3100 C231.7908 395.1950 224.8185 388.8950 219.3112 382.2900 C221.0462 377.0975 225.2495 370.5300 227.9790 365.5100 C234.4258 353.6700 240.9353 341.8650 247.5078 330.0950 C267.0300 295.3450 286.3275 260.4725 305.4025 225.4747 C315.1075 207.3540 325.3975 189.3282 333.3250 170.3380 Z"></path>
</svg>