<svg xmlns="http://www.w3.org/2000/svg" viewBox="0 0 512 512" height="512.0px" width="512.0px">
<path id="" fill="#fcb1e2" fill-opacity="1.0" stroke="#000000" stroke-width="0.0" stroke-opacity="1.0" stroke-linecap="round" stroke-linejoin="round"  filling="0" d="M132.3067 51.2217 C177.9117 50.3528 215.6165 86.5585 216.5977 132.1613 C217.5788 177.7637 181.4657 215.5575 135.8658 216.6508 C90.1068 217.7478 52.1527 181.4815 51.1682 135.7200 C50.1837 89.9585 86.5430 52.0938 132.3067 51.2217 Z"></path>
<path id="" fill="#d99e82" fill-opacity="1.0" stroke="#000000" stroke-width="0.0" stroke-opacity="1.0" stroke-linecap="round" stroke-linejoin="round"  filling="0" d="M69.3535 54.0855 C69.8795 54.1263 70.3975 54.1787 70.9187 54.2630 C77.4922 55.3253 82.8878 60.4290 86.5952 65.6665 C84.8875 67.9795 82.2357 69.5050 80.1360 71.4492 C76.0245 75.2087 72.2245 79.2950 68.7725 83.6680 C67.6322 85.0298 66.5670 85.9290 64.9478 86.6817 C64.6340 86.4835 64.3262 86.2762 64.0247 86.0602 C59.6487 82.8962 55.3485 76.6452 54.5305 71.2400 C53.9707 67.5410 55.3667 63.0258 57.6355 60.0648 C60.3465 56.5262 65.0230 54.6013 69.3535 54.0855 Z"></path>
<path id="" fill="#ffd883" fill-opacity="1.0" stroke="#000000" stroke-width="0.0" stroke-opacity="1.0" stroke-linecap="round" stroke-linejoin="round"  filling="0" d="M217.4362 142.1055 C219.8712 141.7815 222.6010 141.9498 225.0580 141.9518 C242.1230 141.8707 258.7775 147.1857 272.6400 157.1367 C276.1250 159.6602 279.1525 162.5235 282.1925 165.5453 C284.8325 168.1700 287.5200 170.7697 289.8450 173.6857 C297.8625 183.7495 304.1550 197.4733 306.1225 210.2128 C308.7300 227.1082 305.4125 244.8080 297.4900 259.9400 C295.1700 264.3725 292.0400 268.8850 289.0650 272.9150 C286.8975 275.8500 284.2425 278.3750 281.6700 280.9475 C267.7450 294.8700 251.3075 303.2350 231.7943 306.2025 C229.7088 306.4600 227.6145 306.7475 225.5185 306.9050 C219.7945 307.3275 214.1908 306.5500 208.5980 305.4050 C204.6613 304.6000 200.6535 303.7675 196.8407 302.4900 C188.3680 299.6475 178.2315 293.7675 171.4447 287.8950 C154.2973 273.0525 143.7682 253.6650 142.0948 230.9310 C140.5202 209.5408 147.7425 187.0948 161.7880 170.8270 C173.0222 157.5760 188.1998 148.2645 205.1028 144.2533 C209.1860 143.2570 213.2332 142.4138 217.4362 142.1055 Z"></path>
<path id="" fill="#a6d388" fill-opacity="1.0" stroke="#000000" stroke-width="0.0" stroke-opacity="1.0" stroke-linecap="round" stroke-linejoin="round"  filling="0" d="M308.6825 232.3342 C354.4250 228.7787 394.3775 263.0050 397.8850 308.7500 C401.3950 354.4950 367.1275 394.4125 321.3775 397.8750 C275.6950 401.3300 235.8488 367.1250 232.3452 321.4450 C228.8420 275.7675 263.0075 235.8845 308.6825 232.3342 Z"></path>
<path id="" fill="#d99e82" fill-opacity="1.0" stroke="#000000" stroke-width="0.0" stroke-opacity="1.0" stroke-linecap="round" stroke-linejoin="round"  filling="0" d="M353.0850 338.0900 C356.4925 338.0925 360.2050 339.6025 362.8975 341.6450 C367.5775 345.1950 372.0825 350.5225 376.2900 354.7050 L406.0700 384.4850 L440.8125 419.2200 L451.2500 429.6250 C453.5900 431.9525 456.0400 434.2325 458.1200 436.8000 C459.8525 438.9400 460.7775 441.5400 461.0900 444.2750 C461.5400 448.2175 460.0450 452.4850 457.5525 455.5600 C454.9500 458.7725 450.5775 460.7475 446.5100 461.1225 C443.1875 461.0225 439.7650 460.3350 437.0450 458.3050 C432.7775 455.1200 427.9675 449.5100 424.0950 445.6250 L397.9100 419.4400 L360.5900 382.1275 L348.8225 370.3575 C346.7325 368.2675 344.4525 366.2375 342.5500 363.9775 C340.3775 361.4000 338.6175 358.0175 338.2075 354.6425 C337.7800 351.1300 339.0325 347.1175 341.1750 344.3375 C344.2775 340.3075 348.1875 338.7300 353.0850 338.0900 Z"></path>
</svg>