<svg xmlns="http://www.w3.org/2000/svg" viewBox="0 0 512 512" height="512.0px" width="512.0px">
<path id="" fill="#ccd6dd" fill-opacity="1.0" stroke="#000000" stroke-width="0.0" stroke-opacity="1.0" stroke-linecap="round" stroke-linejoin="round"  filling="0" d="M312.6225 103.8840 C313.4050 103.7965 313.9225 103.8690 314.5125 103.2592 C316.3850 101.3200 317.9375 96.9818 319.2050 94.4560 L330.0600 73.2265 C332.8675 67.7405 336.6275 58.5595 340.8250 54.3223 C342.6025 52.5273 344.8900 51.5835 347.3825 51.2940 C350.6800 50.9110 354.4050 51.6565 356.9925 53.8177 C359.7100 56.1167 361.3975 59.4060 361.6800 62.9550 C361.8075 64.7610 361.4350 66.3725 360.7575 68.0330 C359.0050 72.3245 356.0200 76.3177 353.5200 80.2148 L343.6500 95.6910 C341.8750 98.4507 339.7825 101.3265 338.4675 104.3380 C338.6000 104.6030 338.7750 105.0277 338.9875 105.2540 C340.7050 107.0943 355.3700 107.9920 358.7425 108.5900 C373.3525 111.1805 412.1800 117.9945 420.3375 130.1965 C421.6700 132.1910 422.0700 134.1655 421.5650 136.5168 C420.9225 139.4928 419.4200 142.0378 417.3550 144.2470 C414.8150 146.9620 412.1050 149.7025 409.3325 152.1810 C407.3500 153.9507 405.2225 155.5527 403.2550 157.3385 C400.3700 159.9595 397.7750 162.9025 394.8475 165.4803 C392.9825 167.1248 390.9075 168.5338 389.0625 170.1978 C387.4600 171.6422 386.0625 173.3720 384.5800 174.9402 C382.0525 177.6142 379.4300 180.2755 376.7500 182.7928 C374.4350 184.9693 371.8550 186.8545 369.5475 189.0400 C366.7725 191.6678 364.2300 194.5520 361.3950 197.1180 C359.0025 199.2855 356.3600 201.1678 354.0350 203.4133 L321.8750 233.9032 C315.7450 239.6880 309.9875 245.9050 303.8575 251.6875 C301.7025 253.7225 299.3150 255.4975 297.1300 257.5000 C293.2450 261.0525 289.7225 265.0150 285.9100 268.6500 C282.1975 272.1875 277.6250 275.7875 273.3475 278.6250 C267.9425 282.2125 263.2425 283.1475 256.8375 283.1025 C254.2750 283.0825 251.7600 283.0025 249.2440 282.4625 C244.1682 281.3650 239.4050 279.1375 235.3078 275.9450 C230.3508 272.0375 226.2312 267.4850 221.6503 263.1850 L187.4133 230.8930 L123.6732 171.1905 L107.1413 155.8138 C101.9492 151.0542 95.4910 146.2215 91.7128 140.2227 C90.3980 138.1358 89.3955 135.7442 90.0365 133.2500 C91.1387 128.9610 97.1120 125.0443 100.7708 123.0342 C105.7540 120.2965 111.2740 118.5723 116.6890 116.9068 C125.8840 114.0785 134.9418 112.2565 144.3743 110.5040 C164.3840 106.8460 184.5920 104.3705 204.8932 103.0902 C207.6335 102.9120 210.3858 102.9355 213.1275 102.7780 C216.3712 102.5918 219.5912 102.0910 222.8395 101.9755 C230.0360 101.7195 237.2838 101.9967 244.4877 101.9297 C248.0567 101.8965 251.6450 101.4355 255.2000 101.4918 C260.2975 101.5720 265.3600 101.9350 270.4750 101.9377 C276.8850 101.9413 283.3750 101.7230 289.7775 102.0015 C292.9100 102.1380 296.0150 102.6418 299.1450 102.8020 C303.6775 103.0340 308.2100 102.5918 312.6225 103.8840 Z"></path>
<path id="" fill="#662113" fill-opacity="1.0" stroke="#000000" stroke-width="0.0" stroke-opacity="1.0" stroke-linecap="round" stroke-linejoin="round"  filling="0" d="M312.6225 103.8840 C313.4050 103.7965 313.9225 103.8690 314.5125 103.2592 C316.3850 101.3200 317.9375 96.9818 319.2050 94.4560 L330.0600 73.2265 C332.8675 67.7405 336.6275 58.5595 340.8250 54.3223 C342.6025 52.5273 344.8900 51.5835 347.3825 51.2940 C350.6800 50.9110 354.4050 51.6565 356.9925 53.8177 C359.7100 56.1167 361.3975 59.4060 361.6800 62.9550 C361.8075 64.7610 361.4350 66.3725 360.7575 68.0330 C359.0050 72.3245 356.0200 76.3177 353.5200 80.2148 L343.6500 95.6910 C341.8750 98.4507 339.7825 101.3265 338.4675 104.3380 L338.4075 104.1602 C337.5375 104.6072 330.9950 115.9280 329.8925 117.6745 L279.1450 198.7352 L265.2875 221.0805 C262.4600 225.6955 259.7600 230.5180 256.6700 234.9572 C255.7025 236.3470 254.5200 237.7630 252.9375 238.4645 C252.3075 238.7437 251.5500 238.9158 250.9025 238.5768 C250.2750 238.2465 249.8423 237.5043 249.5997 236.8647 C248.7682 234.6710 249.2645 232.1082 250.0700 229.9747 C251.4625 226.2925 253.5925 222.8358 255.3775 219.3330 L266.2975 197.8963 L300.0725 131.8013 C304.7450 122.5847 310.0275 113.5478 314.2575 104.1275 C313.7100 104.0545 313.1650 103.9735 312.6225 103.8840 Z"></path>
<path id="" fill="#8899a6" fill-opacity="1.0" stroke="#000000" stroke-width="0.0" stroke-opacity="1.0" stroke-linecap="round" stroke-linejoin="round"  filling="0" d="M99.3070 146.6478 C103.9080 147.5960 108.5935 150.6532 113.8678 151.7390 C116.4877 152.2782 126.3217 153.0005 127.7890 153.7840 C130.4828 155.2222 132.9823 157.9975 135.2762 160.0152 C138.1882 162.5762 141.1217 165.0715 144.1707 167.4707 C154.3695 175.4965 164.1597 184.0555 174.1252 192.3680 L222.6212 232.2570 C230.5437 238.6835 238.1252 246.6557 247.1277 251.5525 C253.5600 255.0500 260.8275 255.7425 267.6775 253.0350 C275.9450 249.7652 283.5900 241.7960 290.3300 236.0222 L309.8150 219.3130 L369.6950 168.3223 C372.5400 165.9408 375.4000 163.5345 378.1425 161.0338 C380.6825 158.7198 383.0825 156.0110 386.0400 154.2253 C389.4100 152.1895 394.5350 152.6978 398.3625 151.6938 C402.7400 150.5450 406.7800 148.3925 411.0950 147.2605 C411.9200 147.0443 412.2950 146.9052 413.0300 147.3140 C413.1375 147.7173 413.2125 147.8215 413.1100 148.2473 C412.9475 148.9335 412.5725 149.4892 412.0675 149.9745 L327.6625 230.9622 C325.0275 233.5210 322.0425 235.6817 319.4100 238.2417 C315.0700 242.4637 310.9200 246.8920 306.5275 251.0575 C303.0950 254.3075 299.3950 257.2500 296.0325 260.5825 L285.1975 271.4650 C281.9900 274.6975 278.8775 278.1700 275.0225 280.6400 L275.0375 349.8750 L275.0050 396.8450 C280.9050 400.2275 287.2050 403.1025 293.2550 406.2175 C298.9575 409.1525 304.5600 412.3300 310.1800 415.4225 C314.5650 417.8350 318.9900 420.1275 323.3075 422.6675 C327.2425 424.9850 331.5075 427.0700 335.1400 429.8400 C337.0225 431.2775 338.5050 432.8450 339.9500 434.7175 C340.1225 436.6850 340.3625 438.6925 339.9825 440.6500 C339.4475 443.4175 337.5600 445.3475 335.3100 446.8875 C329.6850 450.7350 321.6825 452.9800 315.0950 454.6575 C283.1325 462.7825 239.5213 462.9525 206.9967 457.0525 C198.1095 455.4400 177.9990 451.0950 172.9495 443.4975 C171.5963 441.4625 170.9052 439.1825 171.4720 436.7600 C172.0565 434.2625 173.7975 432.3750 175.7567 430.8225 C181.0813 426.6000 189.8175 422.6175 195.9673 419.4825 C203.5725 415.6100 211.0157 411.4450 218.6475 407.6225 C225.7795 404.0525 233.3828 400.7675 240.1970 396.6450 C239.7730 392.1525 240.0020 387.4900 240.0043 382.9750 L240.0180 359.9725 L239.9693 281.6350 C238.1265 279.3025 235.7522 277.2225 233.6425 275.1250 C231.5997 273.0925 229.5818 271.0025 227.4315 269.0850 C225.4883 267.3525 223.4175 265.7575 221.5087 263.9875 C219.3050 261.9475 217.2690 259.7275 215.0253 257.7275 C213.0885 256.0000 211.0070 254.4300 209.1248 252.6425 L127.5988 176.2430 L114.1243 163.7640 C110.8075 160.7207 100.8708 152.8197 99.1862 149.1175 C98.7745 148.2125 98.9612 147.5152 99.3070 146.6478 Z"></path>
<path id="" fill="#5c903b" fill-opacity="1.0" stroke="#000000" stroke-width="0.0" stroke-opacity="1.0" stroke-linecap="round" stroke-linejoin="round"  filling="0" d="M286.7725 134.8347 C305.2675 133.2417 321.5925 146.8537 323.3500 165.3355 C325.1075 183.8172 311.6400 200.2615 293.1750 202.1823 C274.4775 204.1272 257.7800 190.4532 256.0000 171.7383 C254.2200 153.0235 268.0425 136.4480 286.7725 134.8347 Z"></path>
<path id="" fill="#fefefe" fill-opacity="1.0" stroke="#000000" stroke-width="0.0" stroke-opacity="1.0" stroke-linecap="round" stroke-linejoin="round"  filling="0" d="M120.2142 153.8235 C118.2623 150.4290 116.3733 145.7912 117.4747 141.8472 C118.3755 138.6207 120.8132 135.7520 123.7905 134.2437 C125.1512 133.5545 126.5952 133.1060 128.1305 133.2072 C133.4930 133.5607 140.9837 136.2847 146.3188 137.7110 C152.3277 139.3175 158.5095 140.5757 164.6122 141.7965 C192.3345 147.2583 220.5260 149.9868 248.7810 149.9427 C253.9350 149.9360 258.9650 149.4783 264.1000 149.2657 C267.4800 149.1257 270.8675 149.1882 274.2500 149.0538 C279.6600 148.8387 285.1575 148.3808 290.5525 147.9207 C297.7525 147.3073 304.8075 146.2608 311.9675 145.4190 C315.9025 144.9568 319.8775 144.9495 323.8150 144.4825 C333.4775 143.3365 343.2700 141.4585 352.8200 139.5855 C360.1300 138.1517 367.4550 136.5688 374.7225 134.9260 C378.5800 134.0538 382.7725 132.6410 386.7050 132.3805 C388.2725 132.2812 389.8425 132.5108 391.3150 133.0542 C393.9125 133.9860 396.0325 135.9170 397.2025 138.4185 C399.0325 142.4280 397.8250 148.6098 396.3900 152.6170 C389.9775 155.9247 382.3000 156.4722 375.3025 157.8938 C368.7150 159.2320 362.1900 160.7533 355.5700 161.9365 L330.3325 166.2420 C326.3300 166.9245 322.3500 167.8438 318.3225 168.3642 C303.6575 170.2383 288.9200 171.4908 274.1475 172.1183 C270.8350 172.2818 267.5375 172.6862 264.2225 172.7543 C259.0925 172.8598 254.0500 172.1037 248.9350 172.0400 C240.7705 171.9382 232.5363 172.3237 224.3837 171.9637 C217.7355 171.6700 210.9657 170.9105 204.3378 170.2498 C186.7810 168.6277 169.3452 165.8913 152.1358 162.0567 C147.5807 161.0510 142.9518 160.1497 138.4557 158.9077 C138.4145 159.0000 138.3740 159.0927 138.3318 159.1845 L138.1487 159.5757 C138.0242 159.8468 137.8822 160.2780 137.6747 160.4913 C137.2025 160.9765 136.9357 160.9480 136.3070 160.9825 C134.9640 160.4395 133.8618 159.1053 132.8223 158.1138 C128.7227 156.4075 124.0858 156.0302 120.2142 153.8235 Z"></path>
</svg>