<svg xmlns="http://www.w3.org/2000/svg" viewBox="0 0 512 512" height="512.0px" width="512.0px">
<path id="" fill="#81d0e8" fill-opacity="1.0" stroke="#000000" stroke-width="0.0" stroke-opacity="1.0" stroke-linecap="round" stroke-linejoin="round"  filling="0" d="M102.8613 97.0985 C102.9720 97.0845 103.0825 97.0670 103.1938 97.0565 C108.0867 96.6017 113.2875 96.9725 118.2162 96.9760 L148.6402 96.9948 L246.5688 96.9920 L356.0625 96.9940 L390.8300 96.9788 C396.9400 96.9758 403.2550 96.6298 409.3375 97.1277 C414.5225 97.5522 419.3500 99.4490 423.3575 102.7870 C427.3150 106.0818 430.5150 111.0485 430.9550 116.2718 C431.4425 122.0707 431.0700 128.1333 431.0650 133.9642 L431.0500 167.8865 L431.0500 275.3400 L431.0525 386.8375 L431.0625 421.9450 C431.0700 428.1650 431.4575 434.6625 430.9675 440.8450 C430.6050 445.4025 428.8225 449.5875 425.8650 453.0875 C421.7000 458.0225 416.2000 460.4350 409.8825 460.9900 L200.1232 460.9950 L134.9040 460.9975 L114.6338 461.0175 C110.1687 461.0200 105.6380 461.1750 101.1900 460.7500 C96.6400 460.3175 92.4925 458.8000 88.9145 455.9100 C84.8022 452.5850 81.8330 447.5750 81.2665 442.2900 C80.6422 436.4675 80.9753 430.3925 80.9853 424.5375 L80.9973 395.5825 L80.9987 297.7375 L80.9980 175.4970 L80.9930 137.3825 C80.9843 130.8190 80.5723 123.9668 81.0550 117.4350 C81.3777 113.0707 82.9560 109.0453 85.7493 105.6665 C90.0428 100.4733 96.2437 97.7185 102.8613 97.0985 Z"></path>
<path id="" fill="#194568" fill-opacity="1.0" stroke="#000000" stroke-width="0.0" stroke-opacity="1.0" stroke-linecap="round" stroke-linejoin="round"  filling="0" d="M167.0938 51.1125 C171.5100 50.8607 176.0228 51.0293 180.4487 51.0293 L204.4850 51.0327 L277.6425 51.0302 L326.5550 51.0310 C334.4800 51.0318 344.7475 50.4605 352.4750 51.4020 C354.6775 51.6703 355.7400 52.3488 357.1025 54.1608 C359.8750 57.8550 361.8500 63.7343 363.7550 67.9810 L373.8525 90.1410 C377.1675 97.3270 380.7275 104.3897 384.0175 111.5930 C385.3050 114.4145 386.8100 117.2955 387.8125 120.2305 C388.9000 123.4212 389.4000 127.3102 388.8975 130.6580 C388.3275 134.4785 386.3400 138.3595 383.9850 141.3825 C381.2925 144.8405 377.7450 147.9173 374.6400 151.0213 L357.4600 168.2010 L334.2375 191.4162 C329.6700 195.9900 325.2075 201.1620 319.9850 204.9718 C314.2100 209.1855 308.4150 209.4852 301.5300 208.4117 C298.6525 207.5040 295.9750 206.1953 293.7275 204.1455 C290.5200 201.2238 288.1750 197.1065 285.6975 193.5705 L268.6275 169.2020 C266.0125 165.4718 263.5900 161.0273 260.4125 157.7552 C259.2450 157.3692 258.1900 158.3042 257.3875 159.0865 C254.2200 162.1795 250.7375 168.2420 248.1263 172.0193 L232.4747 194.4180 C230.1430 197.7880 227.8513 201.9100 224.7652 204.6325 C222.5545 206.5827 219.2538 207.9745 216.3960 208.6082 C211.6978 209.6508 204.5605 209.1087 200.4507 206.4453 C195.9297 203.5155 191.2323 197.6635 187.1788 193.8465 C185.1398 191.9267 182.8898 190.2495 180.8607 188.3160 C170.6585 178.5935 160.8853 168.3360 150.9105 158.3720 C145.8112 153.2780 139.0862 147.4050 134.6297 141.9125 C132.6178 139.4330 130.9948 136.7247 130.4088 133.5488 C129.7845 130.1645 129.6877 126.2077 130.6232 122.8702 C131.6642 119.1562 133.5580 115.4758 135.1250 111.9583 C138.2340 104.9800 141.5403 98.1045 144.6605 91.1338 L155.2157 67.3690 C157.1562 62.9843 159.0745 57.2795 161.8667 53.4860 C163.1633 51.7245 165.0773 51.3885 167.0938 51.1125 Z M299.6725 96.9877 C302.2700 93.5417 306.8500 89.9365 310.1425 87.0590 C313.6875 83.9600 316.8900 80.5013 320.3750 77.3378 C324.0575 73.9958 328.2725 70.9012 331.5400 67.1478 C332.0100 66.6080 331.9825 65.4987 331.9300 64.8210 C331.8725 64.7860 331.8200 64.7435 331.7575 64.7155 C330.2575 64.0315 305.5650 64.5010 301.6150 64.5027 L217.8058 64.5038 L198.2708 64.5023 C195.1720 64.4995 191.0345 63.9920 188.0580 64.7467 C187.8752 65.0310 187.8242 65.0825 187.6938 65.4350 C187.4570 66.0735 187.4645 67.0367 187.8008 67.6277 C189.0592 69.8390 203.8225 82.7158 206.8105 85.5208 C210.1178 88.6252 213.2312 92.0137 216.6593 94.9788 C217.5502 95.7495 218.5370 96.7070 219.6685 97.0862 C223.2155 96.8065 226.8483 96.9368 230.4070 96.9327 L248.1313 96.9315 L299.6725 96.9877 Z"></path>
<path id="" fill="#fefefe" fill-opacity="1.0" stroke="#000000" stroke-width="0.0" stroke-opacity="1.0" stroke-linecap="round" stroke-linejoin="round"  filling="0" d="M219.6685 97.0862 C223.2155 96.8065 226.8483 96.9368 230.4070 96.9327 L248.1313 96.9315 L299.6725 96.9877 C298.6125 98.8235 292.1525 104.2267 290.1350 106.1017 C279.8825 115.6283 269.3200 124.9575 259.3625 134.7908 L232.4547 109.7650 C228.0590 105.6808 223.3788 101.6947 219.2218 97.3752 L219.6685 97.0862 Z"></path>
<path id="" fill="#125488" fill-opacity="1.0" stroke="#000000" stroke-width="0.0" stroke-opacity="1.0" stroke-linecap="round" stroke-linejoin="round"  filling="0" d="M332.0825 255.5575 C332.5700 256.0625 333.0825 255.9700 333.7575 255.9900 C335.6000 256.0400 344.9150 256.4225 345.9600 255.7425 C347.4725 256.7100 381.9675 255.2525 387.9225 256.3075 C389.7525 256.6325 391.6500 257.2850 393.1325 258.4350 C395.7750 260.4800 397.6100 263.6300 397.9625 266.9425 C398.3400 270.4950 398.0800 274.1575 398.0950 277.7275 C398.1175 282.3450 398.7425 287.7850 397.8125 292.3100 C397.3850 294.3775 396.5325 296.3475 395.1700 297.9725 C392.8175 300.7750 389.1950 302.1375 385.6400 302.4650 C381.0275 302.8850 376.3350 302.7250 371.7075 302.7250 L350.1525 302.7275 L331.3875 302.7200 C326.4750 302.7175 321.4125 302.8875 316.5400 302.1950 C314.2850 301.8750 311.8925 301.0725 310.1400 299.5900 C306.7900 296.7550 305.5850 293.3850 305.2250 289.1475 C304.7750 283.8475 304.5300 269.6775 305.8300 264.8450 C306.2825 263.1675 307.1925 261.5425 308.3375 260.2400 C314.0500 253.7225 324.1150 256.4575 331.7450 255.8975 L332.0825 255.5575 Z"></path>
<path id="" fill="#56a7c9" fill-opacity="1.0" stroke="#000000" stroke-width="0.0" stroke-opacity="1.0" stroke-linecap="round" stroke-linejoin="round"  filling="0" d="M112.5735 321.7950 C113.8327 321.7425 115.0520 321.7200 116.2567 322.1450 C118.3282 322.8800 120.3165 324.8450 120.8372 327.0275 C121.6365 330.3775 121.0878 340.1175 121.0865 344.1400 L121.0865 393.5175 C121.1140 399.9300 120.6758 406.5075 121.0358 412.8900 C121.0992 414.0150 121.2405 415.2425 121.7412 416.2625 C122.8070 418.4325 125.3127 419.9475 127.5815 420.5525 C131.4857 421.5925 137.3087 420.9925 141.4805 420.9800 L160.9942 420.9125 C163.4980 420.9025 166.9200 420.4700 169.2755 421.3000 C171.7982 422.1875 173.2668 425.0250 174.2628 427.3275 C173.9060 428.6025 173.5205 430.0225 172.9215 431.2025 C171.9480 433.1200 170.3735 433.8875 168.4125 434.5150 C162.7325 435.6275 153.9195 435.0300 147.9523 435.0275 C141.6330 435.0250 135.0117 435.4150 128.7270 434.8200 C126.0298 434.5650 123.5713 434.1475 121.0587 433.1125 C115.5117 430.8275 111.0705 426.5625 108.7770 420.9975 C107.9115 418.8975 107.2802 416.5875 107.1355 414.3175 C106.8260 409.4575 106.9742 404.5350 106.9733 399.6675 L106.9772 376.1600 L106.9705 345.1850 C106.9658 339.7000 106.8192 334.1725 106.9837 328.6925 C107.0090 327.8450 107.0480 326.9825 107.4098 326.2025 C108.4385 323.9825 110.3230 322.6000 112.5735 321.7950 Z"></path>
<path id="" fill="#125488" fill-opacity="1.0" stroke="#000000" stroke-width="0.0" stroke-opacity="1.0" stroke-linecap="round" stroke-linejoin="round"  filling="0" d="M256.9450 262.4000 C264.2375 261.0925 271.2300 265.8775 272.6525 273.1475 C274.0750 280.4175 269.4000 287.4825 262.1525 289.0200 C257.3625 290.0350 252.3975 288.3900 249.1608 284.7150 C245.9247 281.0400 244.9207 275.9050 246.5338 271.2825 C248.1467 266.6600 252.1275 263.2650 256.9450 262.4000 Z"></path>
<path id="" fill="#125488" fill-opacity="1.0" stroke="#000000" stroke-width="0.0" stroke-opacity="1.0" stroke-linecap="round" stroke-linejoin="round"  filling="0" d="M256.4725 322.0350 C263.7600 320.4550 270.9550 325.0575 272.5800 332.3375 C274.2025 339.6150 269.6450 346.8400 262.3750 348.5075 C255.0425 350.1900 247.7433 345.5825 246.1060 338.2400 C244.4688 330.8975 249.1198 323.6275 256.4725 322.0350 Z"></path>
<path id="" fill="#125488" fill-opacity="1.0" stroke="#000000" stroke-width="0.0" stroke-opacity="1.0" stroke-linecap="round" stroke-linejoin="round"  filling="0" d="M255.5075 375.1450 C262.6875 373.0100 270.2375 377.1125 272.3525 384.3000 C274.4675 391.4875 270.3450 399.0250 263.1525 401.1225 C255.9850 403.2100 248.4815 399.1050 246.3743 391.9450 C244.2668 384.7850 248.3515 377.2700 255.5075 375.1450 Z"></path>
<path id="" fill="#125488" fill-opacity="1.0" stroke="#000000" stroke-width="0.0" stroke-opacity="1.0" stroke-linecap="round" stroke-linejoin="round"  filling="0" d="M258.3350 209.4140 C265.6875 208.8503 272.1400 214.2787 272.8425 221.6212 C273.5475 228.9637 268.2400 235.5175 260.9125 236.3593 C256.0475 236.9180 251.2600 234.8055 248.3935 230.8350 C245.5267 226.8645 245.0282 221.6552 247.0898 217.2130 C249.1510 212.7708 253.4500 209.7883 258.3350 209.4140 Z"></path>
<path id="" fill="#546c8c" fill-opacity="1.0" stroke="#000000" stroke-width="0.0" stroke-opacity="1.0" stroke-linecap="round" stroke-linejoin="round"  filling="0" d="M332.0825 255.5575 C331.7000 248.5285 331.9675 241.3700 331.9525 234.3250 C331.9450 230.0285 331.5325 225.2753 332.0575 221.0228 C332.2050 219.8395 332.6125 218.8242 333.4300 217.9397 C334.6275 216.6402 336.4350 216.0090 338.1725 215.9512 C340.1900 215.8790 342.1450 216.6642 343.5525 218.1122 C344.6875 219.2697 345.4100 220.7855 345.7250 222.3698 C346.6000 226.7507 346.0425 232.4353 346.0375 236.9733 C346.0325 242.9985 346.2575 249.1212 345.9975 255.1350 C345.9875 255.3375 345.9750 255.5400 345.9600 255.7425 C344.9150 256.4225 335.6000 256.0400 333.7575 255.9900 C333.0825 255.9700 332.5700 256.0625 332.0825 255.5575 Z"></path>
</svg>