<svg xmlns="http://www.w3.org/2000/svg" viewBox="0 0 512 512" height="512.0px" width="512.0px">
<path id="" fill="#89847e" fill-opacity="1.0" stroke="#000000" stroke-width="0.0" stroke-opacity="1.0" stroke-linecap="round" stroke-linejoin="round"  filling="0" d="M439.8875 367.6850 C440.2350 367.7675 440.4800 367.8700 440.8000 368.0225 C440.9350 368.3225 440.9675 368.3475 441.0250 368.7150 C441.2200 369.9600 440.3100 371.8825 439.8500 373.0225 C436.7825 380.6250 431.9150 388.3000 426.2900 394.3050 C418.0925 403.0525 409.1550 411.4925 399.5125 418.6400 C364.5850 444.5300 321.1500 457.1750 278.1850 460.1800 C274.4650 460.4400 270.7300 460.8350 267.0025 460.9400 C257.5500 461.2000 248.2233 460.8225 238.7990 460.1925 C203.2038 457.8075 171.3522 449.7425 139.3940 433.7375 C124.7997 426.4275 110.3932 417.4275 98.5035 406.1675 C96.8835 404.6225 95.0612 403.2900 93.4543 401.7225 C89.1687 397.5450 81.3672 388.3650 78.2420 383.2500 C76.9113 381.0725 72.2940 372.7100 73.0030 370.5650 C73.1160 370.2250 73.3798 370.1725 73.6687 370.0050 C74.7852 369.9150 75.5925 370.0600 76.6233 370.5150 C79.1233 371.6150 81.2688 373.5650 83.6680 374.8750 C87.3488 376.8875 91.8140 378.2025 95.7672 379.6500 C113.3770 386.0950 131.9043 389.4350 150.4130 392.1200 C180.9263 396.4525 211.6905 398.7800 242.5083 399.0875 C247.5632 399.1900 252.5925 399.9450 257.6475 399.9300 C261.7700 399.9175 265.8600 399.2850 269.9725 399.0925 C274.8400 398.8675 279.7275 399.0825 284.5975 398.9075 C288.1325 398.7800 291.6400 398.2975 295.1675 398.1050 C298.8500 397.9050 302.5450 398.0725 306.2275 397.8425 C336.0725 395.9750 365.8825 392.7475 395.0050 385.7350 C399.4900 384.6550 404.0425 383.7350 408.4675 382.4225 C416.3475 380.0850 424.3100 377.1125 431.4975 373.1300 C434.3175 371.5675 436.7125 369.1000 439.6375 367.7900 C439.7200 367.7525 439.8050 367.7200 439.8875 367.6850 Z"></path>
<path id="" fill="rgb(197,193,192)" fill-opacity="1.0" stroke="#000000" stroke-width="0.0" stroke-opacity="1.0" stroke-linecap="round" stroke-linejoin="round"  filling="0" d="M232.3882 244.0825 C236.5643 243.4445 243.0963 243.9402 247.5117 243.9393 L267.7750 243.9405 C273.6325 243.9442 279.5425 243.7502 285.3400 244.7448 C289.4325 245.4462 293.2175 246.7408 295.6450 250.3500 C297.2900 252.7950 297.7825 257.2600 296.8275 260.1125 C295.7950 263.2025 292.8200 266.2100 291.1475 269.0400 C287.1650 275.7800 283.9900 285.2050 282.4225 292.8875 C279.3825 307.8150 280.5025 328.4650 288.9475 341.4225 C291.4825 345.3125 295.5275 347.9725 297.9700 351.7675 C298.0100 351.8300 298.0475 351.8925 298.0875 351.9550 C298.2875 355.1175 298.3225 358.1225 296.4775 360.8800 C293.0625 365.9825 285.0900 367.2425 279.4425 368.2375 C265.4425 370.8050 251.2000 370.4975 237.1703 368.4975 C231.5075 367.6925 225.3748 366.8750 220.5132 363.6300 C218.0925 362.0125 215.5125 359.4900 214.9925 356.5250 C214.0607 351.2175 222.2858 345.8125 225.1430 341.5900 C234.6062 327.6100 236.0295 307.0225 232.1900 290.8600 C230.7650 284.8625 228.3963 278.8675 225.6935 273.3275 C223.6815 269.2025 217.9450 261.3275 217.3385 257.5175 C216.9447 255.0450 217.8520 251.8775 219.3095 249.9000 C222.3220 245.8110 227.6855 244.7545 232.3882 244.0825 Z"></path>
<path id="" fill="#a2e3fc" fill-opacity="1.0" stroke="#000000" stroke-width="0.0" stroke-opacity="1.0" stroke-linecap="round" stroke-linejoin="round"  filling="0" d="M281.0500 309.9200 C286.1825 309.5800 291.1900 310.5575 296.2950 310.7775 C326.0325 311.8400 355.5825 315.9500 384.4825 323.0375 C398.8375 326.6250 414.0375 330.9900 426.6000 339.0300 C434.5450 344.1150 440.2525 349.4475 442.3150 358.8900 C443.5800 363.5775 442.9150 367.2800 440.7750 371.5600 C439.3900 371.8350 438.1275 372.0625 436.7075 372.0375 C433.1175 374.9700 429.5325 378.2125 425.5500 380.5925 C395.3175 398.6650 346.2550 406.5600 310.9600 409.6850 C303.1000 410.3800 295.2650 410.7300 287.3950 411.1450 C283.8250 411.3350 280.2700 411.8350 276.6950 411.9450 C269.2500 412.1800 261.7475 412.0025 254.2975 412.0075 C247.3783 412.0100 240.3808 412.2125 233.4695 411.9250 C230.1767 411.7875 226.9108 411.2850 223.6217 411.1125 C220.6272 410.9550 217.6215 411.0400 214.6257 410.8825 C209.5717 410.6150 204.4275 410.1275 199.3893 409.6375 C175.0315 407.2675 150.7077 403.7425 127.0902 397.2050 C119.3262 395.0550 111.5010 392.6625 104.1000 389.4550 C94.4212 385.2600 85.6957 380.1500 77.3148 373.7900 C75.5875 373.2900 73.9630 372.8975 72.1715 372.7150 C70.7783 368.8000 69.6250 364.3025 70.2063 360.1175 C70.5000 354.7950 73.6375 348.8700 77.3855 345.1675 C83.6252 339.0025 91.7917 335.4375 99.7970 332.1950 C121.6050 323.3650 144.3640 318.7975 167.5668 315.4775 C182.9993 313.1500 198.5367 311.5825 214.1230 310.7800 C217.0708 310.6150 220.0002 310.1800 222.9480 310.0175 C226.6342 309.8175 230.3780 309.9275 234.0712 309.9350 C234.0485 322.0125 230.8528 334.1325 223.2737 343.7325 C220.7500 346.9275 217.7715 349.6850 215.0423 352.6975 C214.9690 354.0600 214.8745 355.4400 214.9925 356.8025 C215.1075 358.1275 215.5643 359.7350 216.6467 360.6075 C220.9230 364.0500 234.1147 366.8675 239.6523 367.5925 C242.3943 367.9525 245.1913 367.8900 247.9485 368.0875 C254.1325 368.5250 260.0225 369.2250 266.2550 368.7375 C273.7350 368.1525 286.8800 366.5025 293.4000 363.1050 C295.3175 362.1075 296.7450 360.8825 298.1450 359.2525 C298.2500 356.7200 298.1800 354.1850 297.9325 351.6625 C295.7025 348.9300 293.0200 346.6025 290.8750 343.7775 C283.4925 334.0475 281.0225 321.9150 281.0500 309.9200 Z"></path>
<path id="" fill="rgb(174,169,169)" fill-opacity="1.0" stroke="#000000" stroke-width="0.0" stroke-opacity="1.0" stroke-linecap="round" stroke-linejoin="round"  filling="0" d="M442.3150 358.8900 C443.5800 363.5775 442.9150 367.2800 440.7750 371.5600 C439.3900 371.8350 438.1275 372.0625 436.7075 372.0375 C439.5300 368.2225 442.2075 363.7975 442.3150 358.8900 Z"></path>
<path id="" fill="rgb(174,169,169)" fill-opacity="1.0" stroke="#000000" stroke-width="0.0" stroke-opacity="1.0" stroke-linecap="round" stroke-linejoin="round"  filling="0" d="M72.1715 372.7150 C70.7783 368.8000 69.6250 364.3025 70.2063 360.1175 C70.4520 365.3575 74.1953 369.8300 77.3148 373.7900 C75.5875 373.2900 73.9630 372.8975 72.1715 372.7150 Z"></path>
<path id="" fill="#89847e" fill-opacity="1.0" stroke="#000000" stroke-width="0.0" stroke-opacity="1.0" stroke-linecap="round" stroke-linejoin="round"  filling="0" d="M147.4583 211.9243 C150.2460 209.2077 153.5258 207.5813 156.9902 205.8932 C170.2408 199.4365 183.0797 197.0710 197.4653 194.5695 C206.8700 192.9340 216.2487 192.4108 225.7480 191.7413 C228.8730 191.5210 231.9863 191.0547 235.1192 190.9640 C242.2290 190.7585 249.3870 190.9305 256.5025 190.9275 C265.4800 190.9238 274.5775 190.6215 283.5375 190.9845 C300.8850 191.7390 318.1300 194.0480 335.0650 197.8842 C339.3600 198.8530 343.7175 199.6830 347.8900 201.1142 C354.7550 203.4707 361.0500 206.5265 367.0000 210.7135 C370.9125 213.4055 374.0250 218.1675 374.8975 222.8475 C376.2075 229.8728 373.0000 235.9843 369.0875 241.5663 C366.7275 244.9355 363.9275 247.7473 361.0325 250.6425 C358.8775 252.7975 356.7450 255.0600 354.4450 257.0575 C342.7900 267.1750 327.6825 275.4450 313.6200 281.6900 C308.4625 283.9825 303.0050 286.5075 297.4050 287.4650 C296.5050 287.6200 295.6350 287.6775 294.7725 288.0000 C290.8325 289.8025 287.7900 293.7150 285.5375 297.3050 C284.5075 298.9450 283.5625 300.8550 281.9600 301.9950 L281.5350 301.8950 C280.7875 300.1525 282.9375 290.8875 282.9900 288.0675 C282.9925 287.9700 282.9900 287.8725 282.9925 287.7725 C281.4675 288.1525 279.7350 288.1525 278.1600 288.3175 C271.2750 289.0425 264.5600 289.0500 257.6525 289.0475 C249.0180 289.0425 240.5665 288.9425 231.9888 287.7800 C232.0530 289.9725 233.7550 297.4725 232.7162 298.9300 C229.3333 299.1600 226.1125 289.5375 217.7693 287.9625 C217.6615 287.9425 217.5535 287.9225 217.4458 287.9050 C214.0517 287.5150 210.4012 285.3500 207.2513 284.0350 C188.2325 276.1000 169.0405 265.8575 154.4380 251.0500 C148.0945 244.6178 140.2075 235.4523 140.3582 225.8485 C140.4492 220.0493 143.4355 215.8045 147.4583 211.9243 Z"></path>
<path id="" fill="#a2e3fc" fill-opacity="1.0" stroke="#000000" stroke-width="0.0" stroke-opacity="1.0" stroke-linecap="round" stroke-linejoin="round"  filling="0" d="M147.4583 211.9243 C150.2460 209.2077 153.5258 207.5813 156.9902 205.8932 C170.2408 199.4365 183.0797 197.0710 197.4653 194.5695 C206.8700 192.9340 216.2487 192.4108 225.7480 191.7413 C228.8730 191.5210 231.9863 191.0547 235.1192 190.9640 C242.2290 190.7585 249.3870 190.9305 256.5025 190.9275 C265.4800 190.9238 274.5775 190.6215 283.5375 190.9845 C300.8850 191.7390 318.1300 194.0480 335.0650 197.8842 C339.3600 198.8530 343.7175 199.6830 347.8900 201.1142 C354.7550 203.4707 361.0500 206.5265 367.0000 210.7135 C366.9975 210.7840 366.9950 210.8545 366.9925 210.9250 C366.9150 216.4045 368.7875 218.5647 364.0450 223.3132 C359.7450 227.6178 353.1400 229.7612 347.4925 231.6252 C319.8175 240.7600 282.2625 243.4637 253.0600 243.2215 C230.9277 243.0378 166.9312 238.8882 150.9648 223.0570 C146.6763 218.8050 148.8627 215.6480 147.4583 211.9243 Z"></path>
<path id="" fill="rgb(222,220,219)" fill-opacity="1.0" stroke="#000000" stroke-width="0.0" stroke-opacity="1.0" stroke-linecap="round" stroke-linejoin="round"  filling="0" d="M217.4458 287.9050 C217.4523 287.1750 217.4892 286.8900 217.9292 286.3025 C220.5740 284.8350 228.4807 286.7650 231.6003 287.3550 L231.9888 287.7800 C232.0530 289.9725 233.7550 297.4725 232.7162 298.9300 C229.3333 299.1600 226.1125 289.5375 217.7693 287.9625 C217.6615 287.9425 217.5535 287.9225 217.4458 287.9050 Z"></path>
<path id="" fill="rgb(222,220,219)" fill-opacity="1.0" stroke="#000000" stroke-width="0.0" stroke-opacity="1.0" stroke-linecap="round" stroke-linejoin="round"  filling="0" d="M282.9925 287.7725 C284.2050 286.8450 293.3825 285.8175 295.0950 286.0700 C295.4100 286.1150 295.5375 286.1675 295.8625 286.2625 L295.8900 286.4750 C295.5000 286.9750 295.1000 287.4550 294.7725 288.0000 C290.8325 289.8025 287.7900 293.7150 285.5375 297.3050 C284.5075 298.9450 283.5625 300.8550 281.9600 301.9950 L281.5350 301.8950 C280.7875 300.1525 282.9375 290.8875 282.9900 288.0675 C282.9925 287.9700 282.9900 287.8725 282.9925 287.7725 Z"></path>
<path id="" fill="#ffffff" fill-opacity="0.027451" stroke="#000000" stroke-width="0.0" stroke-opacity="1.0" stroke-linecap="round" stroke-linejoin="round"  filling="0" d="M0.6764 0.0000 L511.3225 0.0000 C508.2025 0.6652 504.4600 0.3196 501.2650 0.3164 L484.2875 0.2973 L415.9650 0.2969 L147.5405 0.3000 L40.7035 0.2927 L15.1412 0.3109 C10.7615 0.3248 4.9182 0.8887 0.6764 0.0000 Z"></path>
<path id="" fill="#ffffff" fill-opacity="0.0196078" stroke="#000000" stroke-width="0.0" stroke-opacity="1.0" stroke-linecap="round" stroke-linejoin="round"  filling="0" d="M1.3091 512.0000 C3.4240 511.2625 25.4453 511.7425 29.7225 511.7425 L108.2947 511.7450 L408.1925 511.7525 L482.0475 511.7525 L501.0125 511.7325 C504.2775 511.7300 508.1150 511.3425 511.2925 512.0000 L1.3091 512.0000 Z"></path>
<path id="" fill="#ffffff" fill-opacity="0.027451" stroke="#000000" stroke-width="0.0" stroke-opacity="1.0" stroke-linecap="round" stroke-linejoin="round"  filling="0" d="M0.0000 0.9170 C0.7098 3.9908 0.2566 8.0218 0.2535 11.1965 L0.2509 30.6735 L0.2530 111.2188 L0.2532 439.7300 L0.2509 490.8325 C0.2507 494.5500 0.7518 508.0600 0.0000 510.5825 L0.0000 0.9170 Z"></path>
<path id="" fill="#89847e" fill-opacity="1.0" stroke="#000000" stroke-width="0.0" stroke-opacity="1.0" stroke-linecap="round" stroke-linejoin="round"  filling="0" d="M226.3040 334.8650 C229.4673 332.6800 230.9835 327.5375 231.6625 323.9325 C233.4512 314.4325 233.2685 303.7900 227.6060 295.5150 C226.7190 294.2200 225.6060 292.9100 224.3670 291.9375 C222.6942 290.6250 217.4303 288.7250 217.7425 286.2625 C218.2193 285.6250 218.9005 285.4375 219.6655 285.3375 C223.0995 284.8825 231.6152 286.8950 235.4675 287.4550 C240.6895 288.2150 246.0955 288.8400 251.3675 288.9500 C257.3825 289.0750 263.6750 289.2525 269.6525 288.6225 C273.9475 288.1625 278.2375 287.6600 282.5225 287.1200 C287.1025 286.5275 291.5950 285.7825 296.2275 285.9600 L295.9625 289.4650 C289.9450 293.5375 287.3900 299.4600 286.0625 306.4525 C284.2975 315.7700 285.0650 326.8150 290.6325 334.8300 C291.2000 335.6475 291.8075 336.4225 292.6675 336.9375 C300.1700 336.6875 309.0775 340.4800 314.7375 345.2850 C317.7375 347.8300 319.9200 351.2850 320.2175 355.2800 C320.5375 359.5650 318.9225 363.3000 316.1650 366.4875 C305.8650 378.3900 282.0050 380.6825 267.2050 381.8000 C259.1000 382.4100 251.0650 381.8450 243.0007 381.0450 C229.5412 379.7100 211.1265 377.2775 200.6120 368.1225 C197.4765 365.3900 194.1940 361.6675 193.9877 357.3075 C193.7935 353.1975 196.0768 349.4400 198.7888 346.5500 C205.0802 339.8500 217.2375 335.0975 226.3040 334.8650 Z"></path>
<path id="" fill="#4fbff9" fill-opacity="1.0" stroke="#000000" stroke-width="0.0" stroke-opacity="1.0" stroke-linecap="round" stroke-linejoin="round"  filling="0" d="M292.6675 336.9375 C300.1700 336.6875 309.0775 340.4800 314.7375 345.2850 C317.7375 347.8300 319.9200 351.2850 320.2175 355.2800 C320.5375 359.5650 318.9225 363.3000 316.1650 366.4875 C305.8650 378.3900 282.0050 380.6825 267.2050 381.8000 C259.1000 382.4100 251.0650 381.8450 243.0007 381.0450 C229.5412 379.7100 211.1265 377.2775 200.6120 368.1225 C197.4765 365.3900 194.1940 361.6675 193.9877 357.3075 C193.7935 353.1975 196.0768 349.4400 198.7888 346.5500 C205.0802 339.8500 217.2375 335.0975 226.3040 334.8650 C226.2395 334.9950 226.1785 335.1275 226.1102 335.2575 C225.4897 336.4225 224.0468 337.5300 223.0497 338.3850 C218.4395 342.3425 211.8875 347.0625 213.7065 354.1600 C214.5565 357.4775 217.9480 359.9575 220.8040 361.5525 C235.6140 369.8175 272.6300 369.1500 288.8400 364.4775 C293.3975 363.1650 297.8275 361.1025 300.2550 356.7775 C301.5575 354.4525 301.9750 351.5850 301.2375 349.0075 C299.7175 343.6950 294.4575 340.8175 292.6675 336.9375 Z"></path>
<path id="" fill="#ffffff" fill-opacity="1.0" stroke="#000000" stroke-width="0.0" stroke-opacity="1.0" stroke-linecap="round" stroke-linejoin="round"  filling="0" d="M252.5325 136.0918 C255.8725 135.5963 259.7675 135.8340 263.1525 135.9552 C273.0475 136.3092 284.2000 138.9218 291.1550 146.4913 C299.8225 155.9238 292.0875 175.0233 286.2375 184.1447 C284.2825 187.1940 280.5100 190.0405 279.4950 193.5267 C278.6125 196.5660 279.0325 200.4478 279.0450 203.6078 C279.0675 209.5332 279.3025 215.5355 279.0175 221.4520 C278.8475 221.6690 278.6800 221.8878 278.5025 222.0975 C275.5525 225.5755 270.5850 226.6562 266.2350 227.0132 C263.0550 227.0948 259.7800 227.1678 256.6150 226.8340 C250.3000 226.1685 245.3685 224.6560 241.2730 219.6045 C240.3485 213.3910 242.0623 197.6102 240.5030 193.1990 C239.4525 190.2267 236.1860 187.6195 234.1645 185.2142 C228.5972 178.5905 224.4348 168.6235 223.3432 160.0905 C222.7730 155.6345 223.5580 151.6280 226.3835 148.0660 C232.3698 140.5202 243.3203 137.1360 252.5325 136.0918 Z"></path>
<path id="" fill="#cec6bd" fill-opacity="1.0" stroke="#000000" stroke-width="0.0" stroke-opacity="1.0" stroke-linecap="round" stroke-linejoin="round"  filling="0" d="M284.2025 317.9925 C284.2975 314.6950 285.2375 301.6500 287.6825 299.7100 C290.3525 297.5925 302.8650 299.6800 306.6500 299.8800 C310.1925 300.0675 313.7500 299.8775 317.2950 300.0700 C334.2625 300.9025 351.1675 302.7450 367.9175 305.5900 C373.1725 306.4775 378.4625 307.3850 383.6450 308.6350 C402.6600 313.2200 430.8725 323.3125 442.5825 339.7425 C446.5925 345.3700 450.1225 351.2300 448.8575 358.3850 C447.4000 366.6450 442.7000 373.3325 437.0675 379.3250 C435.1775 381.3375 433.0200 383.3100 431.3850 385.5275 C430.5775 387.9725 429.6125 392.1550 427.1625 393.3875 C426.3425 393.7975 425.2150 394.0450 424.3300 393.7200 C423.6350 393.4625 423.0250 393.0175 422.3400 392.7450 C419.5200 394.6700 416.7050 396.6850 413.7700 398.4325 C410.3200 400.4825 406.6700 402.2175 403.0825 404.0075 C368.9800 421.0250 330.6050 427.3925 292.8725 429.8750 C289.6575 430.0875 286.4250 429.9725 283.2075 430.1150 C279.6850 430.2725 276.1850 430.7875 272.6650 430.9250 C263.7575 431.2775 254.6175 431.1625 245.7020 430.9500 C241.7702 430.8575 237.8997 430.2325 233.9823 430.0800 C230.5123 429.9475 227.0298 430.0900 223.5630 429.9050 C201.3765 428.6750 179.2903 426.0375 157.4373 422.0125 C136.2263 417.9825 118.3553 411.9050 98.9572 402.5950 C98.1848 403.2500 98.1758 404.3200 97.4352 404.9975 C97.1475 405.2625 96.9563 405.1850 96.5960 405.1950 C93.0797 403.6000 89.1325 398.6575 86.4467 395.8625 C83.6017 393.1025 80.7825 390.3175 77.9893 387.5075 C75.5723 385.0350 73.4268 382.3400 71.3637 379.5725 C65.3395 371.4900 62.7780 364.6050 62.9550 354.4100 C63.1042 345.8300 66.2965 339.7450 72.4210 333.8850 C84.6202 322.2150 107.1250 315.8850 123.2182 311.6050 C130.4150 309.6900 137.6293 307.8325 144.9525 306.4550 C151.3737 305.2500 157.8528 304.5375 164.3180 303.6350 C174.1595 302.2575 183.9883 300.9575 193.9003 300.1525 C196.5963 299.9350 199.3025 299.9375 201.9980 299.7350 C204.7717 299.5250 207.5347 299.0975 210.3147 298.9825 C216.4080 298.7325 222.6220 298.8500 228.7202 299.0000 C230.4810 301.3800 231.5918 304.0200 232.7240 306.7375 C233.0450 310.5075 232.9758 314.2625 232.9957 318.0425 C228.3125 318.0100 223.6000 317.8950 218.9232 318.1725 C213.8658 318.4725 208.8082 319.1775 203.7600 319.6500 C199.9550 320.0075 196.1290 320.1675 192.3320 320.5775 C187.2793 321.1275 182.3140 321.9525 177.2925 322.6900 C173.5578 323.2400 169.7932 323.5025 166.0712 324.1550 C161.3575 324.9850 156.6942 326.1825 152.0293 327.2525 C135.3655 331.0700 109.0577 337.6075 96.7462 349.7950 C93.8672 352.6450 92.1172 355.2225 91.7535 359.3150 C95.6348 368.4325 121.2560 378.6475 130.2885 382.2700 C135.5728 384.3875 141.3743 385.6975 146.8830 387.1575 C172.2878 393.6325 198.2787 397.5375 224.4642 398.8150 C227.3905 398.9825 230.3215 398.9250 233.2475 399.0600 C236.7778 399.2250 240.2878 399.7350 243.8217 399.8775 C249.7307 400.1200 255.6975 399.9625 261.6125 399.9625 C267.6500 399.9625 273.7375 400.1175 279.7725 399.8825 C282.8675 399.7625 285.9200 399.2925 289.0025 399.1050 C307.2200 398.1525 325.3550 396.0150 343.2925 392.7025 C361.1200 389.3325 380.9700 383.2350 397.6500 376.0675 C401.4850 374.4175 404.9375 372.3350 408.6000 370.3550 C414.9975 366.9000 422.3425 363.6750 427.2300 358.1175 C427.1500 352.4975 424.6450 349.1475 420.7150 345.3000 C417.5250 342.1750 413.5450 340.2125 409.5900 338.2475 C392.8925 329.9525 374.7125 326.6750 356.4625 323.8000 C343.1725 321.6625 329.7975 320.1100 316.3725 319.1450 C313.2475 318.9425 310.1125 319.0825 306.9900 318.9100 C303.8850 318.7350 300.8025 318.2700 297.7000 318.0975 C293.2300 317.8450 288.6825 317.9925 284.2025 317.9925 Z"></path>
<path id="" fill="#89847e" fill-opacity="1.0" stroke="#000000" stroke-width="0.0" stroke-opacity="1.0" stroke-linecap="round" stroke-linejoin="round"  filling="0" d="M86.4467 395.8625 C86.7380 395.8325 87.2148 395.7125 87.4905 395.7525 C89.1375 395.9925 96.8980 401.4075 98.9572 402.5950 C98.1848 403.2500 98.1758 404.3200 97.4352 404.9975 C97.1475 405.2625 96.9563 405.1850 96.5960 405.1950 C93.0797 403.6000 89.1325 398.6575 86.4467 395.8625 Z"></path>
<path id="" fill="#8b8680" fill-opacity="1.0" stroke="#000000" stroke-width="0.0" stroke-opacity="1.0" stroke-linecap="round" stroke-linejoin="round"  filling="0" d="M422.3400 392.7450 C424.9650 390.1475 428.4975 387.8850 431.3850 385.5275 C430.5775 387.9725 429.6125 392.1550 427.1625 393.3875 C426.3425 393.7975 425.2150 394.0450 424.3300 393.7200 C423.6350 393.4625 423.0250 393.0175 422.3400 392.7450 Z"></path>
<path id="" fill="#89847e" fill-opacity="1.0" stroke="#000000" stroke-width="0.0" stroke-opacity="1.0" stroke-linecap="round" stroke-linejoin="round"  filling="0" d="M248.7787 136.0750 C249.1585 134.3707 248.4795 132.0750 248.3375 130.2970 C247.8670 124.4128 247.1880 118.4645 247.0250 112.5670 C246.9090 108.3613 246.3820 100.1703 247.4037 96.3570 C247.8907 94.5860 248.8290 92.9717 250.1275 91.6722 C251.9325 89.8392 254.2900 88.8020 256.8650 88.7663 C261.1500 88.7065 265.5800 89.1435 268.7825 92.3390 C269.4525 93.0078 270.2125 93.9045 270.5250 94.8135 C271.1050 96.4933 271.1625 98.5285 271.3250 100.2972 C271.5575 102.8490 271.8675 105.4645 271.8475 108.0250 C271.8325 110.2505 271.4900 112.4945 271.3175 114.7133 C271.1225 117.2195 271.0950 119.7375 270.9075 122.2448 C270.5725 126.7730 270.0400 131.1192 270.0775 135.6820 C271.2350 137.2117 277.5800 138.5802 279.6800 139.4215 C284.4800 141.3420 291.6675 145.3573 294.0075 150.1973 C295.2250 158.1313 294.6625 167.1635 291.5725 174.6620 L291.2450 174.4840 C288.8775 179.9193 286.0325 185.1763 281.7900 189.4085 C281.4575 189.7385 281.5900 189.5930 281.2950 190.0307 C280.6600 191.0033 279.7950 191.7433 279.0375 192.6138 C279.6025 196.2870 280.8125 202.7747 279.9275 206.2162 L279.9700 206.5018 C280.0850 207.2510 280.1575 207.7312 280.6450 208.3468 C282.1375 209.3333 285.2550 209.0065 287.0400 209.2320 C291.5850 209.8053 299.0175 211.8405 300.0175 217.0495 C300.3850 218.8963 299.9800 220.8127 298.8975 222.3533 C295.6425 227.0060 287.5500 228.8770 282.2900 229.6602 C278.1675 230.2812 274.0175 230.7015 269.8525 230.9195 C258.7025 231.4133 230.6107 230.8078 221.8670 224.2357 C220.3867 223.1232 219.1573 221.7705 218.0692 220.2765 C217.8667 218.6765 217.7737 217.2135 218.0335 215.6033 C221.6505 210.8338 227.7660 209.1725 233.4442 208.3955 C235.8550 208.0658 238.4003 207.9787 240.7765 207.4993 C241.2888 204.9353 240.6265 201.9967 240.6678 199.3680 C240.6995 197.3633 241.1497 195.0955 240.9138 193.1163 C240.7530 191.7675 239.3932 190.8255 238.4235 190.0165 C237.1682 190.0280 235.9130 190.0197 234.6580 189.9922 C235.9380 189.6830 237.2587 189.7527 238.5685 189.7495 C236.7840 188.0610 235.2603 186.0912 233.7077 184.1927 C231.9265 181.5392 230.2770 178.8593 228.7670 176.0417 C226.8073 176.0782 224.8703 176.0872 222.9130 175.9742 C224.7440 175.7250 226.6325 175.8242 228.4778 175.8432 C227.6355 173.8140 226.7702 171.7850 226.0115 169.7230 C224.6390 165.9930 221.8913 156.6342 223.5647 152.9780 C223.6190 152.8127 223.6770 152.6487 223.7408 152.4870 C226.5078 145.4700 235.5875 140.4420 242.3078 138.0258 C244.3548 137.2897 246.5988 137.0527 248.5813 136.1673 C248.6475 136.1375 248.7130 136.1057 248.7787 136.0750 Z"></path>
<path id="" fill="#a2e4fc" fill-opacity="1.0" stroke="#000000" stroke-width="0.0" stroke-opacity="1.0" stroke-linecap="round" stroke-linejoin="round"  filling="0" d="M248.7787 136.0750 C249.1585 134.3707 248.4795 132.0750 248.3375 130.2970 C247.8670 124.4128 247.1880 118.4645 247.0250 112.5670 C246.9090 108.3613 246.3820 100.1703 247.4037 96.3570 C247.8907 94.5860 248.8290 92.9717 250.1275 91.6722 C251.9325 89.8392 254.2900 88.8020 256.8650 88.7663 C261.1500 88.7065 265.5800 89.1435 268.7825 92.3390 C269.4525 93.0078 270.2125 93.9045 270.5250 94.8135 C271.1050 96.4933 271.1625 98.5285 271.3250 100.2972 C271.5575 102.8490 271.8675 105.4645 271.8475 108.0250 C271.8325 110.2505 271.4900 112.4945 271.3175 114.7133 C271.1225 117.2195 271.0950 119.7375 270.9075 122.2448 C270.5725 126.7730 270.0400 131.1192 270.0775 135.6820 C269.9975 139.3658 269.6975 143.5765 266.9250 146.3205 C264.9025 148.3203 262.1500 148.9637 259.3825 148.8687 C256.3875 148.7660 253.2025 147.9020 251.1225 145.6195 C248.7722 143.0403 248.6698 139.4805 248.7695 136.1893 C248.7705 136.1510 248.7758 136.1130 248.7787 136.0750 Z"></path>
<path id="" fill="#a8a299" fill-opacity="1.0" stroke="#000000" stroke-width="0.0" stroke-opacity="1.0" stroke-linecap="round" stroke-linejoin="round"  filling="0" d="M270.0775 135.6820 C271.2350 137.2117 277.5800 138.5802 279.6800 139.4215 C284.4800 141.3420 291.6675 145.3573 294.0075 150.1973 C293.9400 150.2148 293.8725 150.2290 293.8050 150.2498 C291.7475 150.8848 289.5750 154.0645 287.8850 155.5315 C286.5550 156.6755 285.0900 157.6530 283.5250 158.4425 C270.6425 164.8582 244.7875 163.9695 231.8540 157.5885 C229.2095 156.2835 226.7383 153.8980 223.8383 153.2955 L223.5647 152.9780 C223.6190 152.8127 223.6770 152.6487 223.7408 152.4870 C226.5078 145.4700 235.5875 140.4420 242.3078 138.0258 C244.3548 137.2897 246.5988 137.0527 248.5813 136.1673 C248.6475 136.1375 248.7130 136.1057 248.7787 136.0750 C248.7758 136.1130 248.7705 136.1510 248.7695 136.1893 C248.6698 139.4805 248.7722 143.0403 251.1225 145.6195 C253.2025 147.9020 256.3875 148.7660 259.3825 148.8687 C262.1500 148.9637 264.9025 148.3203 266.9250 146.3205 C269.6975 143.5765 269.9975 139.3658 270.0775 135.6820 Z"></path>
<path id="" fill="#4fc0f9" fill-opacity="1.0" stroke="#000000" stroke-width="0.0" stroke-opacity="1.0" stroke-linecap="round" stroke-linejoin="round"  filling="0" d="M240.7765 207.4993 C241.0027 211.1870 239.4380 217.1080 241.7995 220.2245 C243.9110 223.0110 247.9342 224.0990 251.2300 224.6432 C257.8925 225.7435 272.3025 225.6803 277.8275 221.4603 C280.9000 219.1140 278.9200 210.2863 279.4425 206.4942 L279.9275 206.2162 L279.9700 206.5018 C280.0850 207.2510 280.1575 207.7312 280.6450 208.3468 C282.1375 209.3333 285.2550 209.0065 287.0400 209.2320 C291.5850 209.8053 299.0175 211.8405 300.0175 217.0495 C300.3850 218.8963 299.9800 220.8127 298.8975 222.3533 C295.6425 227.0060 287.5500 228.8770 282.2900 229.6602 C278.1675 230.2812 274.0175 230.7015 269.8525 230.9195 C258.7025 231.4133 230.6107 230.8078 221.8670 224.2357 C220.3867 223.1232 219.1573 221.7705 218.0692 220.2765 C217.8667 218.6765 217.7737 217.2135 218.0335 215.6033 C221.6505 210.8338 227.7660 209.1725 233.4442 208.3955 C235.8550 208.0658 238.4003 207.9787 240.7765 207.4993 Z"></path>
<path id="" fill="#e1dcd6" fill-opacity="1.0" stroke="#000000" stroke-width="0.0" stroke-opacity="1.0" stroke-linecap="round" stroke-linejoin="round"  filling="0" d="M337.6950 182.0635 C342.7350 183.3987 352.9925 185.1375 355.7450 189.9325 C355.9475 190.2880 356.1450 190.6472 356.3375 191.0095 C363.4275 190.6373 371.0525 194.9062 376.1850 199.5640 C379.6375 202.6992 383.7125 207.6320 383.8900 212.5385 C384.1000 218.2583 379.8325 224.3775 376.6725 228.8020 C375.8200 229.9935 374.5500 231.3963 373.9250 232.6945 C372.2700 235.5105 370.1575 238.0813 368.3575 240.8118 C367.0525 242.7935 365.9275 245.4657 364.3500 247.1880 C363.8925 247.6882 363.2575 247.9807 362.6050 248.1288 C361.7525 248.3223 360.4875 248.2637 359.7300 247.8250 C358.5000 247.1150 358.1675 245.3605 356.7975 244.5950 C347.9475 248.7425 338.7275 252.5100 329.2525 254.9900 C320.4950 257.2825 311.1375 258.4275 302.1600 259.4850 C267.4850 263.4675 232.4425 262.9375 197.9050 257.9075 C197.5410 257.7750 197.6960 257.8025 197.3533 257.7750 C194.8980 257.5725 192.3980 256.7625 189.9962 256.1925 C186.5895 255.3825 183.1653 254.6525 179.7668 253.8100 C177.9368 253.4500 175.9193 252.5175 174.1610 251.8675 C170.8315 250.6375 167.3932 249.4767 164.1562 248.0237 C160.7710 246.5040 157.5470 244.6537 154.1418 243.1658 C152.0267 242.8965 149.7558 242.9957 147.6167 242.9272 C145.2060 240.9200 143.6100 238.5145 142.0070 235.8513 C137.5190 229.7563 131.4365 224.2632 130.9180 216.2425 C130.6350 211.8647 131.7437 208.0315 134.7097 204.7428 C137.2985 201.8725 141.9105 199.2733 145.8268 199.1755 C149.2445 199.0898 152.4645 200.9538 154.9165 203.1817 L154.2417 205.0390 C153.0132 208.3870 154.0260 210.6723 155.4475 213.6857 C155.9783 214.8105 156.7142 215.7923 156.7365 217.0638 C162.9725 224.2182 173.0425 228.9568 182.0445 231.6577 C184.4870 232.3907 187.0165 232.8387 189.4823 233.4913 C197.0748 235.5007 204.5550 237.1138 212.3255 238.3253 C214.8683 238.7215 226.2125 239.8927 227.7450 240.7263 C228.0870 240.9122 228.3268 241.4920 228.6460 241.6678 C228.8460 241.7780 237.7300 240.8768 238.7903 240.8685 C244.0658 240.8277 249.3330 242.0892 254.5700 241.8430 C257.3075 241.7142 260.0150 241.0995 262.7550 241.0072 C267.7375 240.8392 272.7575 241.1690 277.7300 240.8652 C280.8475 240.6747 297.0675 239.0063 298.8475 239.4685 C299.2375 239.5697 299.5825 239.7190 299.9975 239.7300 C302.5250 239.7965 308.6325 237.8810 311.6625 237.3477 C327.9250 234.4857 342.1450 233.2408 356.2625 223.4532 C358.1725 222.1293 360.2600 220.8082 361.9175 219.1723 C363.3725 217.7360 364.1550 216.4212 364.1750 214.3525 C364.4150 214.1695 364.6500 213.9978 364.8325 213.7515 C366.0275 212.1183 366.2025 208.6290 365.7450 206.7555 C365.1775 204.4427 363.6050 202.5290 361.9275 200.9068 C353.8800 193.1265 345.0675 192.8895 335.9250 187.6175 C336.7100 185.8220 337.0225 183.9023 337.6950 182.0635 Z"></path>
<path id="" fill="#89847f" fill-opacity="1.0" stroke="#000000" stroke-width="0.0" stroke-opacity="1.0" stroke-linecap="round" stroke-linejoin="round"  filling="0" d="M356.7975 244.5950 C362.3250 240.5120 369.0400 237.6082 373.9250 232.6945 C372.2700 235.5105 370.1575 238.0813 368.3575 240.8118 C367.0525 242.7935 365.9275 245.4657 364.3500 247.1880 C363.8925 247.6882 363.2575 247.9807 362.6050 248.1288 C361.7525 248.3223 360.4875 248.2637 359.7300 247.8250 C358.5000 247.1150 358.1675 245.3605 356.7975 244.5950 Z"></path>
<path id="" fill="#8b8680" fill-opacity="1.0" stroke="#000000" stroke-width="0.0" stroke-opacity="1.0" stroke-linecap="round" stroke-linejoin="round"  filling="0" d="M142.0070 235.8513 C144.8293 236.0157 151.3710 241.4410 154.1418 243.1658 C152.0267 242.8965 149.7558 242.9957 147.6167 242.9272 C145.2060 240.9200 143.6100 238.5145 142.0070 235.8513 Z"></path>
<path id="" fill="#4fc0fa" fill-opacity="1.0" stroke="#000000" stroke-width="0.0" stroke-opacity="1.0" stroke-linecap="round" stroke-linejoin="round"  filling="0" d="M306.9200 205.0555 C313.4900 204.6042 320.2625 204.8380 326.4475 207.2943 C329.9025 208.6665 334.3200 211.2230 335.7500 214.8412 C336.6800 217.1890 336.0900 219.9207 335.1150 222.1642 C333.3700 226.1687 330.1250 227.6772 326.3100 229.1752 C322.4900 230.7030 312.9200 233.2760 309.0375 231.8542 C308.0700 230.4000 314.7450 222.5665 315.0800 219.3132 C315.5850 214.4467 310.0875 211.3725 307.6350 207.9772 C306.9300 207.0033 306.7400 206.2287 306.9200 205.0555 Z"></path>
<path id="" fill="#e2ddd7" fill-opacity="1.0" stroke="#000000" stroke-width="0.0" stroke-opacity="1.0" stroke-linecap="round" stroke-linejoin="round"  filling="0" d="M160.0705 192.6832 C161.3380 193.0080 162.7275 194.0437 164.0213 193.9792 C165.1228 193.9243 167.1763 190.1927 168.0323 189.2530 C169.7470 187.3707 173.4487 186.3398 175.8545 185.4825 C187.8873 181.1942 200.0760 178.5582 212.7220 176.9630 C216.0900 176.5380 219.5137 175.9705 222.9130 175.9742 C224.8703 176.0872 226.8073 176.0782 228.7670 176.0417 C230.2770 178.8593 231.9265 181.5392 233.7077 184.1927 C235.2603 186.0912 236.7840 188.0610 238.5685 189.7495 C237.2587 189.7527 235.9380 189.6830 234.6580 189.9922 C231.5155 190.2402 228.3860 190.6422 225.2465 190.8813 C222.4693 191.0927 219.6613 191.1005 216.8955 191.4335 C209.9348 192.2715 203.0717 193.6700 196.2267 195.1548 C190.8633 196.3183 185.4527 197.4815 180.2437 199.2363 C177.6772 200.1008 175.2112 201.2392 172.7157 202.2850 C171.0580 202.9795 169.3355 203.5390 167.7567 204.4088 C165.0658 205.8910 162.3690 207.9580 160.3720 210.3013 C158.7038 212.2585 157.4895 214.6098 156.7365 217.0638 C156.7142 215.7923 155.9783 214.8105 155.4475 213.6857 C154.0260 210.6723 153.0132 208.3870 154.2417 205.0390 L154.9165 203.1817 C156.3410 202.7850 158.4158 202.2035 159.3035 200.9877 C158.7363 199.3698 156.9252 197.7465 157.0970 195.9755 C157.2325 194.5793 159.0473 193.4620 160.0705 192.6832 Z"></path>
<path id="" fill="#cfc6bd" fill-opacity="1.0" stroke="#000000" stroke-width="0.0" stroke-opacity="1.0" stroke-linecap="round" stroke-linejoin="round"  filling="0" d="M233.7077 184.1927 C235.2603 186.0912 236.7840 188.0610 238.5685 189.7495 C237.2587 189.7527 235.9380 189.6830 234.6580 189.9922 C231.5155 190.2402 228.3860 190.6422 225.2465 190.8813 C222.4693 191.0927 219.6613 191.1005 216.8955 191.4335 C209.9348 192.2715 203.0717 193.6700 196.2267 195.1548 C190.8633 196.3183 185.4527 197.4815 180.2437 199.2363 C177.6772 200.1008 175.2112 201.2392 172.7157 202.2850 C171.0580 202.9795 169.3355 203.5390 167.7567 204.4088 C165.0658 205.8910 162.3690 207.9580 160.3720 210.3013 C158.7038 212.2585 157.4895 214.6098 156.7365 217.0638 C156.7142 215.7923 155.9783 214.8105 155.4475 213.6857 C154.0260 210.6723 153.0132 208.3870 154.2417 205.0390 L154.9165 203.1817 C156.3410 202.7850 158.4158 202.2035 159.3035 200.9877 C159.3568 201.2640 159.3047 201.0665 159.5945 201.5270 C161.5845 201.0955 163.7560 199.6125 165.5907 198.6950 C168.2505 197.3647 171.1107 196.0918 173.9815 195.2928 C187.8488 191.4337 201.7368 187.9855 216.0482 186.2135 C221.2453 185.5700 226.5132 185.6270 231.7115 185.0273 C232.5592 184.9295 233.1588 184.8822 233.7077 184.1927 Z"></path>
<path id="" fill="#4fc0fa" fill-opacity="1.0" stroke="#000000" stroke-width="0.0" stroke-opacity="1.0" stroke-linecap="round" stroke-linejoin="round"  filling="0" d="M335.1225 330.0150 C337.1675 329.8075 339.0775 330.0900 341.0175 330.7325 C350.0425 333.7225 357.0000 343.1375 359.3975 352.0425 C360.7525 357.0725 361.3725 363.1450 363.8425 367.7375 C365.6675 371.1325 370.5425 373.4900 371.9650 376.8350 C372.2350 377.4725 372.3100 377.9300 371.9725 378.5625 C371.2925 379.8425 368.6050 380.6350 367.3075 381.1125 C363.4300 381.9100 359.6300 382.3125 355.6700 381.9000 C351.2050 381.4375 345.7775 379.7000 342.9175 376.0200 C339.0475 371.0475 342.0850 359.4600 340.4825 353.0350 C338.8250 346.3775 332.2200 342.0975 331.0325 336.7000 C330.7125 335.2425 330.9025 333.7450 331.0600 332.2775 C332.2900 331.1950 333.6025 330.5650 335.1225 330.0150 Z"></path>
<path id="" fill="#cec6bd" fill-opacity="1.0" stroke="#000000" stroke-width="0.0" stroke-opacity="1.0" stroke-linecap="round" stroke-linejoin="round"  filling="0" d="M281.2950 190.0307 C281.5900 189.5930 281.4575 189.7385 281.7900 189.4085 C286.0325 185.1763 288.8775 179.9193 291.2450 174.4840 L291.5725 174.6620 C293.3275 175.3318 297.0600 175.0853 299.1375 175.2737 C303.7450 175.6920 308.3850 176.1505 312.9600 176.8327 C321.3275 178.0805 329.4850 180.0600 337.6950 182.0635 C337.0225 183.9023 336.7100 185.8220 335.9250 187.6175 C345.0675 192.8895 353.8800 193.1265 361.9275 200.9068 C363.6050 202.5290 365.1775 204.4427 365.7450 206.7555 C366.2025 208.6290 366.0275 212.1183 364.8325 213.7515 C364.6500 213.9978 364.4150 214.1695 364.1750 214.3525 C363.2500 212.4190 361.9750 210.7408 360.4600 209.2348 C353.8000 202.6245 341.4075 197.8460 332.2900 195.7160 C329.9900 195.1788 327.6275 194.9427 325.3150 194.4695 C310.7400 191.4883 296.1800 189.9305 281.2950 190.0307 Z"></path>
<path id="" fill="#4fc0fa" fill-opacity="1.0" stroke="#000000" stroke-width="0.0" stroke-opacity="1.0" stroke-linecap="round" stroke-linejoin="round"  filling="0" d="M369.4450 338.0350 C372.3975 337.8625 375.4175 337.7950 378.3550 338.1950 C384.5275 339.0325 391.5575 341.9375 395.3950 347.0450 C397.3225 349.6100 398.6675 352.7900 398.1275 356.0475 C397.3825 360.5475 393.8600 364.2650 390.2950 366.8200 C386.0975 369.4975 381.8575 370.1675 376.9650 370.2150 C376.9600 369.8100 376.9650 369.4050 376.9650 369.0000 C376.9650 365.1125 378.2575 361.1900 377.8225 357.3325 C376.7975 348.2400 367.7975 346.6600 365.9275 341.6450 C365.7025 341.0425 365.6625 340.4025 365.9900 339.8225 C366.6375 338.6725 368.2825 338.3375 369.4450 338.0350 Z"></path>
<path id="" fill="#89847e" fill-opacity="1.0" stroke="#000000" stroke-width="0.0" stroke-opacity="1.0" stroke-linecap="round" stroke-linejoin="round"  filling="0" d="M179.7668 253.8100 C183.1653 254.6525 186.5895 255.3825 189.9962 256.1925 C192.3980 256.7625 194.8980 257.5725 197.3533 257.7750 C197.6960 257.8025 197.5410 257.7750 197.9050 257.9075 C196.4577 257.9600 195.3217 258.0050 193.9940 258.6400 C192.2657 259.4675 187.8795 261.7450 187.4102 263.7125 C186.8455 266.0800 192.4130 270.3650 193.9775 272.9100 L194.1560 273.2050 C194.1747 274.5875 194.0860 275.9875 194.0385 277.3725 C193.9570 277.3525 193.8752 277.3350 193.7943 277.3125 C193.6595 277.2775 193.5258 277.2400 193.3910 277.2050 C190.8887 276.5575 179.9040 270.6800 178.0018 269.0125 C177.5015 268.5750 176.6532 267.8075 176.6860 267.0750 C176.8065 264.3650 183.1990 262.6475 185.0833 261.0575 C185.0755 260.7200 185.0753 260.3800 185.0055 260.0475 C184.6635 258.4150 182.6902 256.1200 181.3235 255.1600 C180.8067 254.7975 180.3865 254.4350 179.9402 253.9850 L179.7668 253.8100 Z"></path>
<path id="" fill="rgb(143,139,134)" fill-opacity="1.0" stroke="#000000" stroke-width="0.0" stroke-opacity="1.0" stroke-linecap="round" stroke-linejoin="round"  filling="0" d="M322.9350 271.9400 C323.2425 271.9775 323.5425 272.0725 323.8425 272.1500 C323.8825 272.2400 323.9300 272.3250 323.9625 272.4175 C324.2650 273.3275 324.1575 274.5125 323.7475 275.3750 C322.7150 277.5425 320.1800 278.4225 318.0850 279.2025 C317.4575 278.9975 317.3600 278.9375 316.9200 278.4450 C316.7700 277.7575 316.7875 277.4125 317.0875 276.7625 C318.0400 274.7100 320.9100 272.7925 322.9350 271.9400 Z"></path>
<path id="" fill="#89847e" fill-opacity="1.0" stroke="#000000" stroke-width="0.0" stroke-opacity="1.0" stroke-linecap="round" stroke-linejoin="round"  filling="0" d="M337.6575 264.9725 C338.0800 264.9700 338.5450 264.9450 338.9625 265.0175 C339.5975 265.1275 339.8050 265.3425 340.1100 265.8775 C340.0500 266.2000 340.0625 266.2275 339.8975 266.5675 C338.9450 268.5500 335.1825 270.3025 333.2475 271.1075 C332.3300 271.2075 331.6850 271.2475 330.8975 270.7125 C330.7550 270.2325 330.6900 270.3300 330.8500 269.9325 C331.7250 267.7775 335.6050 265.8150 337.6575 264.9725 Z"></path>
<path id="" fill="#89847e" fill-opacity="1.0" stroke="#000000" stroke-width="0.0" stroke-opacity="1.0" stroke-linecap="round" stroke-linejoin="round"  filling="0" d="M291.8750 287.9575 C292.7400 287.9525 293.4800 287.9575 294.3150 288.1950 C294.8575 288.6750 294.9225 288.7100 295.0925 289.4050 C294.7575 290.7350 293.8000 291.4050 292.7600 292.2050 C292.0000 292.7000 291.4125 293.1325 290.4650 293.0550 C290.0050 292.6125 289.9200 292.5225 289.9350 291.8300 C289.9650 290.4500 290.9325 288.9050 291.8750 287.9575 Z"></path>
<path id="" fill="#a2e4fc" fill-opacity="1.0" stroke="#000000" stroke-width="0.0" stroke-opacity="1.0" stroke-linecap="round" stroke-linejoin="round"  filling="0" d="M164.0375 191.9770 C163.9180 185.8010 163.7812 179.5215 164.0420 173.3520 C164.3638 165.7350 165.1930 157.9625 166.0598 150.3813 C168.7587 126.7795 173.5697 103.5688 188.6600 84.4977 C194.6568 76.9187 203.9577 70.0703 213.8208 68.9940 C223.2397 67.9662 232.1288 72.4860 239.0250 78.5840 C241.3815 80.6678 243.4770 83.2233 245.9555 85.1290 C246.6967 85.6992 247.5885 86.4375 248.5770 86.2993 C250.4900 83.7787 246.6590 61.9417 251.8425 54.7303 C253.2775 52.7370 255.2400 51.4088 257.7025 51.1130 C260.0975 50.8248 262.7200 51.6105 264.6100 53.0975 C265.9075 54.1065 266.8650 55.4875 267.3550 57.0558 C268.5050 60.8452 268.0650 65.2567 268.2975 69.1862 C268.5000 72.6418 268.9450 76.0697 269.0475 79.5335 C269.1075 81.6620 268.8625 84.1387 269.1875 86.2140 C269.2750 86.7838 269.2425 86.7740 269.7375 87.1185 C272.5400 87.0692 275.4900 82.8015 277.5425 80.9593 C286.4225 72.9900 295.4750 71.3335 306.9550 71.9580 C315.5150 72.4235 322.2975 76.9795 327.8400 83.2572 C342.9125 100.3310 347.4725 132.8488 348.9525 154.9032 C349.2350 159.1172 348.9700 163.3683 349.1550 167.5885 C349.4175 173.6022 350.4250 179.5275 350.0725 185.5762 C351.2525 186.2057 352.3525 186.8297 353.4300 187.6257 C356.4725 189.0350 359.3900 190.6940 362.2900 192.3692 C360.8200 193.8707 357.7450 194.3553 355.8825 195.6102 C353.0375 196.7705 351.2275 200.4223 348.9350 200.9660 C346.7475 201.4852 338.1500 197.7855 336.1400 196.4495 C335.9425 193.2648 336.0325 190.0665 335.8725 186.8802 C335.6750 182.8850 335.1925 178.9035 335.0700 174.9037 C334.9375 170.5345 335.0950 166.1638 334.8275 161.7973 C333.6275 142.2915 328.9525 106.4880 313.7225 93.1625 C310.2600 90.1332 306.2450 88.7357 301.6350 89.0480 C289.8500 89.8463 282.0800 98.3090 277.3400 108.3640 C276.1350 110.9230 275.0800 114.7585 273.2925 116.8333 C272.6325 117.1573 272.3450 117.1527 271.6225 117.0330 C269.9975 115.1830 271.7050 100.2190 270.6750 96.2775 C269.9875 93.7117 268.2650 91.5468 265.9200 90.3002 C262.6925 88.5715 257.2850 88.5372 253.8150 89.6622 C252.2350 90.1747 250.5300 91.0435 249.4852 92.3720 C245.9275 96.8932 247.0750 107.2072 247.0923 112.7585 C247.0963 114.0283 247.3492 115.9985 246.7745 117.1187 L246.1020 117.2160 C245.0625 116.7637 244.5013 116.1208 243.9070 115.1617 C242.8000 113.3748 242.0230 111.2848 241.1015 109.3893 C238.4345 103.9037 235.3465 98.2300 231.0030 93.8730 C227.1933 90.0515 221.6345 86.8702 216.1283 86.9352 C210.3313 87.0040 205.5875 89.7365 201.6290 93.8383 C191.8505 103.9705 185.2065 123.1053 182.7670 136.8607 C181.0940 146.2937 180.4758 155.8255 179.9592 165.3720 C179.7835 168.6205 179.2875 171.8455 179.1415 175.0975 C178.7917 182.8815 179.0307 190.7892 179.1628 198.5833 C175.4818 201.3463 171.4742 202.3395 167.5612 204.5582 C166.1127 205.3795 164.8560 206.4675 163.5870 207.5358 C160.4303 205.1905 158.0920 203.8943 154.0723 203.5245 C153.9580 202.5370 153.7307 201.4487 153.7852 200.4552 C153.9418 197.5950 157.0148 195.8530 158.9945 194.1795 C159.3390 193.6790 159.6918 193.1065 160.1455 192.6990 C161.1882 191.7623 162.7433 191.9550 164.0375 191.9770 Z"></path>
<path id="" fill="#ffffff" fill-opacity="1.0" stroke="#000000" stroke-width="0.0" stroke-opacity="1.0" stroke-linecap="round" stroke-linejoin="round"  filling="0" d="M158.9945 194.1795 C159.3390 193.6790 159.6918 193.1065 160.1455 192.6990 C161.1882 191.7623 162.7433 191.9550 164.0375 191.9770 C164.0988 192.7592 164.1633 192.7717 163.6947 193.3870 C162.3625 193.9982 160.4642 194.3430 158.9945 194.1795 Z"></path>
<path id="" fill="#ffffff" fill-opacity="1.0" stroke="#000000" stroke-width="0.0" stroke-opacity="1.0" stroke-linecap="round" stroke-linejoin="round"  filling="0" d="M350.0725 185.5762 C351.2525 186.2057 352.3525 186.8297 353.4300 187.6257 C353.2450 187.7315 353.1875 187.7760 352.9525 187.8365 C351.8875 188.1093 350.7975 188.0990 349.8750 187.5290 C349.6600 186.7405 349.8625 186.3550 350.0725 185.5762 Z"></path>
<path id="" fill="#a2e3fc" fill-opacity="1.0" stroke="#000000" stroke-width="0.0" stroke-opacity="1.0" stroke-linecap="round" stroke-linejoin="round"  filling="0" d="M186.1240 232.7670 C190.0762 232.6252 197.3483 235.1145 201.6152 235.9447 C206.4538 236.8860 212.2878 237.3047 216.9003 238.7292 C217.9850 239.0645 218.8685 239.3245 219.4182 240.3640 C219.2265 240.9082 219.1747 241.1358 218.6823 241.4863 C217.8743 242.0610 216.7485 242.4308 215.8410 242.8362 C213.0853 244.0675 210.4540 245.2285 208.1902 247.2765 C203.1290 251.8550 200.2343 262.6450 199.3277 269.2800 C198.9850 271.7900 198.9552 274.3475 198.8055 276.8725 C198.6295 279.8375 198.2890 282.7900 198.1590 285.7600 C198.0302 288.7075 198.1115 291.6600 198.0045 294.6075 C197.8730 298.2175 197.3230 301.8225 197.1135 305.4375 C196.9718 310.2775 197.0370 315.1200 197.3090 319.9525 C193.7560 320.0425 189.4615 321.9500 185.9965 320.9400 C185.9857 320.5400 186.0287 320.7725 185.7453 320.2750 L185.8020 320.6225 C184.6348 316.5725 185.0748 312.3075 184.7760 308.1400 C184.3955 302.8350 183.6087 297.5600 183.2012 292.2525 C182.8860 288.1525 182.5380 284.0550 182.1568 279.9575 C181.9933 277.9975 182.0358 275.9675 181.7168 274.0300 C181.5645 273.1050 181.1835 272.2950 180.6850 271.5125 C180.9393 268.2150 181.0383 264.9475 180.8757 261.6400 C180.7380 258.8325 180.3652 255.9750 180.4795 253.1675 C180.7470 246.5943 180.9130 237.6255 186.1240 232.7670 Z"></path>
<path id="" fill="#a2e3fc" fill-opacity="1.0" stroke="#000000" stroke-width="0.0" stroke-opacity="1.0" stroke-linecap="round" stroke-linejoin="round"  filling="0" d="M335.0125 232.8067 C335.5350 232.7635 335.2525 232.7380 335.8475 232.9483 C337.1600 236.3375 334.6475 247.2278 334.2825 251.4425 C333.9875 254.8575 334.0250 258.3050 333.7775 261.7275 C333.2900 268.4400 332.5925 275.1900 332.2225 281.9025 C332.0675 284.7225 332.1325 287.5600 331.9200 290.3750 C331.5875 294.7800 331.2550 299.2250 330.8550 303.6225 C330.3550 309.1500 329.7650 314.6200 330.2150 320.1775 C328.0300 319.9400 325.7850 320.0650 323.5850 319.9125 C321.0675 319.7350 318.5825 319.2450 316.0825 318.8950 C315.9250 315.4100 315.9950 311.9000 315.9975 308.4100 C316.0000 299.1775 316.2575 289.8625 315.9375 280.6375 C315.8250 277.4175 315.4350 274.2100 315.2750 270.9900 C314.9900 265.2375 315.1550 254.6350 312.3475 249.6413 C310.5700 246.4795 307.8725 244.5860 304.9475 242.5855 C304.2425 242.1028 303.2225 241.5347 302.7050 240.8540 C302.3225 240.3488 302.3575 240.2462 302.4750 239.6745 C304.4925 238.0335 322.5875 235.3972 326.6025 234.6230 C329.4200 234.0793 332.1925 233.3380 335.0125 232.8067 Z"></path>
<path id="" fill="#fefeff" fill-opacity="1.0" stroke="#000000" stroke-width="0.0" stroke-opacity="1.0" stroke-linecap="round" stroke-linejoin="round"  filling="0" d="M174.8952 326.8550 C176.4778 326.8350 178.1102 326.9450 179.6505 327.3300 C182.3602 328.0050 185.1313 329.7525 186.5225 332.2375 C190.0632 338.5600 182.3500 344.3025 179.2900 348.7425 C178.1057 350.4625 177.2765 352.4600 176.7747 354.4825 C175.9535 357.7950 176.5690 360.8025 177.9765 363.8350 C184.3208 377.4950 201.8432 379.3025 204.0108 383.4375 C204.3707 384.1250 204.3165 384.5950 204.0558 385.2950 C202.3732 386.6800 198.0500 386.0650 195.8533 386.0350 C186.2137 386.0325 177.1037 383.7900 169.1967 378.1350 C163.4173 374.0025 158.6600 368.3800 157.5050 361.2025 C156.5403 355.2050 159.7928 348.7300 163.8907 344.5200 C166.1940 342.1525 169.0495 339.9450 170.8902 337.2050 C172.6373 334.6050 168.9028 331.9875 168.7585 329.5500 C168.7343 329.1400 168.8300 328.8425 169.0895 328.5350 C170.2565 327.1525 173.1845 326.9525 174.8952 326.8550 Z"></path>
<path id="" fill="#a2e3fc" fill-opacity="1.0" stroke="#000000" stroke-width="0.0" stroke-opacity="1.0" stroke-linecap="round" stroke-linejoin="round"  filling="0" d="M145.2733 242.6187 C145.3438 242.6252 145.4147 242.6288 145.4850 242.6382 C146.2035 242.7345 147.0855 242.9105 147.6582 243.3748 C149.3545 244.7493 150.7530 246.9337 152.3155 248.5050 C155.5280 251.7350 159.3127 254.4525 162.0782 258.1150 C159.5262 266.0675 161.9390 275.1400 162.0660 283.2650 C162.1960 291.5825 161.7258 299.9850 162.2055 308.2875 C162.3790 311.2900 163.8330 322.2250 163.1313 324.3125 C162.5205 324.9150 162.1975 324.8400 161.3645 324.9575 C158.6662 325.5100 156.0397 326.6275 153.3663 327.3375 C152.3615 321.4050 152.0835 315.5300 151.4467 309.5700 C149.9135 294.9850 148.5410 280.3850 147.3295 265.7675 L145.8743 249.8775 C145.6528 247.5280 145.0822 244.9597 145.2733 242.6187 Z"></path>
<path id="" fill="#a2e3fc" fill-opacity="1.0" stroke="#000000" stroke-width="0.0" stroke-opacity="1.0" stroke-linecap="round" stroke-linejoin="round"  filling="0" d="M364.2350 247.7340 C364.9375 247.7365 365.1575 247.6568 365.7425 248.0703 C367.0675 251.8275 365.4225 260.2100 365.1900 264.4675 C365.0250 267.4700 365.1300 270.4875 364.9675 273.4900 C364.7975 276.6325 364.2925 279.7475 364.1675 282.8950 C364.0450 285.9200 364.1425 288.9675 363.9325 291.9850 L362.8725 307.6825 C362.4425 313.2950 361.8950 318.6100 362.1875 324.2675 C359.5650 323.8650 356.9825 324.0650 354.3700 323.4075 C353.6525 323.2550 353.0525 323.0900 352.3900 322.7700 C351.4125 320.4075 352.0125 312.8475 351.9425 309.8525 C351.8300 304.8525 351.1400 299.8800 351.0400 294.8750 C350.9400 289.8600 350.8625 284.7350 351.1150 279.7275 C351.2775 276.5075 351.7350 273.3075 351.8875 270.0900 C352.0625 266.3925 351.7125 262.5800 352.2075 258.9150 C353.5825 256.8300 361.9800 249.1848 364.2350 247.7340 Z"></path>
<path id="" fill="#fefeff" fill-opacity="1.0" stroke="#000000" stroke-width="0.0" stroke-opacity="1.0" stroke-linecap="round" stroke-linejoin="round"  filling="0" d="M138.8067 333.9875 C140.5360 334.1425 142.3800 334.5875 144.0300 335.1250 C145.7470 335.6825 147.8515 336.5100 148.6585 338.2575 C150.5640 342.3850 142.8350 349.3500 140.6125 352.3750 C139.4077 354.0125 138.6062 355.6425 137.9097 357.5475 C139.2878 361.0300 145.3008 369.7725 145.2798 372.2525 C145.2758 372.7400 145.3170 372.5400 144.9133 372.9475 C142.7315 373.2000 140.1240 372.5300 137.9453 372.2400 C135.4763 371.8575 133.0448 371.2650 130.6775 370.4675 C126.5518 369.0350 121.4467 366.2850 119.5715 362.1225 C118.6175 360.0075 118.6097 357.6000 119.3190 355.4075 C121.0338 350.1075 125.3817 347.3325 129.7785 344.4575 C131.0672 343.6125 132.5453 342.6850 133.5287 341.4900 C134.6973 340.0700 134.8865 338.2150 135.5675 336.5650 C136.1752 335.0900 137.4405 334.5850 138.8067 333.9875 Z"></path>
<path id="" fill="#fefefd" fill-opacity="1.0" stroke="#000000" stroke-width="0.0" stroke-opacity="1.0" stroke-linecap="round" stroke-linejoin="round"  filling="0" d="M205.5793 202.0855 C207.7900 201.7575 213.4065 201.4075 215.2970 202.5197 C215.3085 202.5960 215.3313 202.6715 215.3315 202.7485 C215.3380 204.6573 211.6375 207.8587 210.3350 209.2905 C208.8172 210.9588 206.5013 213.7043 206.0450 215.9507 C204.8372 221.8970 214.8955 225.2400 215.1093 230.0793 C214.8915 230.7518 214.6700 231.1458 214.0688 231.5555 C212.1750 232.8455 206.4102 231.1407 204.0590 230.7340 C198.9657 229.6305 193.7672 228.3367 189.3990 225.3685 C186.8900 223.6635 184.4840 221.2955 183.9767 218.1772 C183.5753 215.7088 184.4850 213.4747 185.9498 211.5287 C190.3047 205.7435 198.6910 202.9745 205.5793 202.0855 Z"></path>
<path id="" fill="#cfc6bd" fill-opacity="1.0" stroke="#000000" stroke-width="0.0" stroke-opacity="1.0" stroke-linecap="round" stroke-linejoin="round"  filling="0" d="M362.2900 192.3692 C364.9175 193.3580 368.9475 194.3250 370.9700 196.3120 L371.0725 196.8367 C370.5500 197.4035 370.3125 197.4312 369.5475 197.4800 C367.9800 197.5795 366.2000 197.1633 364.6925 197.3930 C363.1375 197.6300 361.5275 198.7858 360.0525 199.3618 C358.6375 198.1517 357.3275 196.7648 355.8825 195.6102 C357.7450 194.3553 360.8200 193.8707 362.2900 192.3692 Z"></path>
</svg>