<svg xmlns="http://www.w3.org/2000/svg" viewBox="0 0 512 512" height="512.0px" width="512.0px">
<path id="" fill="#c7e755" fill-opacity="1.0" stroke="#000000" stroke-width="0.0" stroke-opacity="1.0" stroke-linecap="round" stroke-linejoin="round"  filling="0" d="M252.6425 51.1085 C258.2175 50.5742 263.9325 51.4095 269.4875 51.7697 C297.2225 53.5680 321.8800 58.6470 346.8725 71.3605 C387.8550 91.8983 418.7650 128.1707 432.5400 171.8935 C437.6325 187.8955 441.0350 204.3873 442.6900 221.0988 C442.9825 224.3820 443.0100 227.6795 443.1825 230.9698 C443.4250 235.5267 444.0375 240.0465 444.0325 244.6180 C444.0300 248.3542 443.4475 252.0325 443.2125 255.7525 C443.0225 258.7150 443.0850 261.6875 442.8125 264.6450 C440.7575 287.9525 434.1825 310.6325 423.4600 331.4275 C411.1325 355.0050 394.6000 376.1325 374.6800 393.7675 C370.6650 397.3450 366.4025 400.6675 362.2100 404.0300 C359.1650 406.4700 356.3275 409.1500 353.1675 411.4500 C342.9275 418.9025 332.1075 425.3550 321.1675 431.6975 C305.4700 440.9275 288.9875 448.7575 271.9125 455.0900 C267.8525 456.6275 263.8175 458.2475 259.6850 459.5825 C258.8825 459.7875 258.0925 459.9375 257.2650 459.9975 C251.6375 460.4050 245.8557 456.9450 240.6938 455.0900 C226.0350 449.8175 212.3932 443.3900 198.7125 436.0025 C195.0595 434.0300 191.3047 432.2175 187.7110 430.1400 C173.6353 421.9150 160.1958 412.6475 147.5052 402.4125 C143.8262 399.4125 140.3058 396.1600 136.7165 393.0475 C133.1625 389.9650 129.9275 386.4250 126.5938 383.1025 C123.8850 380.4025 121.0612 377.7475 118.5030 374.9050 C94.2110 348.3275 77.8660 315.4650 71.3275 280.0575 C69.3633 269.1900 68.8750 258.2000 68.1308 247.2038 C67.7247 241.2030 68.5762 235.3665 68.8915 229.3932 C71.1855 185.9082 85.9447 142.5072 115.0088 109.5855 C117.2267 107.0732 119.7198 104.7760 122.0910 102.4070 C127.6385 96.8643 133.2133 91.5990 139.4785 86.8508 C161.4828 70.1745 190.1255 59.0405 217.2090 54.4702 C223.1590 53.4660 229.3647 52.5635 235.3878 52.1487 C238.4538 51.9377 241.5358 52.0137 244.6033 51.8080 C247.2872 51.6283 249.9550 51.2795 252.6425 51.1085 Z"></path>
<path id="" fill="#454749" fill-opacity="1.0" stroke="#000000" stroke-width="0.0" stroke-opacity="1.0" stroke-linecap="round" stroke-linejoin="round"  filling="0" d="M103.3465 180.0385 C122.6035 178.9133 141.8540 182.3545 159.5285 190.0820 C163.3107 191.7135 166.9845 193.6667 170.6597 195.5253 C178.7823 199.6322 185.8310 205.1065 192.7668 210.9475 C194.7785 212.6420 196.9073 214.2095 198.7343 216.1093 C201.1183 218.5883 203.1475 221.4073 205.2280 224.1413 C211.8633 232.8610 217.3143 241.4828 220.7430 251.9950 C224.8770 264.6675 226.5312 277.6750 220.1510 290.0075 C218.0095 294.1475 213.8123 298.6500 209.5822 300.6575 C207.2855 301.7475 204.6455 302.4000 202.2205 303.1650 C199.3582 303.5550 196.5482 304.3050 193.6653 304.6050 C187.9588 305.2025 181.6585 303.7900 176.1010 302.4875 C162.3853 299.2725 151.5477 292.7100 140.6228 284.0075 C137.0890 281.1925 133.6140 278.4400 130.5500 275.0950 C125.9707 270.0950 120.4423 262.0125 116.8387 256.1425 C115.1837 253.4475 114.0713 250.5850 112.9570 247.6395 C109.0640 237.3520 106.5075 225.7097 109.1685 214.8103 C111.0103 207.2668 115.3215 200.8755 121.7783 196.5228 C123.3102 195.4900 125.3680 194.9075 126.7682 193.8085 C127.2840 193.4037 127.3538 192.9630 127.4572 192.3497 C127.2440 191.6840 127.0677 191.3568 126.4870 190.9385 C125.2712 190.0632 123.4272 189.7737 122.0155 189.2372 C118.9680 188.0790 103.7802 182.6265 102.4055 181.0545 C102.5215 180.4725 102.8842 180.3760 103.3465 180.0385 Z"></path>
<path id="" fill="#454749" fill-opacity="1.0" stroke="#000000" stroke-width="0.0" stroke-opacity="1.0" stroke-linecap="round" stroke-linejoin="round"  filling="0" d="M386.0050 194.8092 C388.7500 195.3672 391.4675 197.2038 393.5675 199.0117 C400.4775 204.9628 403.2325 214.0867 403.8050 222.9085 C405.0325 241.7762 394.1225 260.8550 381.9575 274.5400 C379.1000 277.7525 375.8700 280.5000 372.5775 283.2475 C358.5950 294.9175 341.7000 303.7250 323.1700 304.7075 C314.4450 305.1675 303.4275 302.1150 296.8800 296.1975 C290.4775 290.4075 287.8325 280.3900 287.4925 272.0350 C287.3825 269.3400 287.8225 266.6450 288.2225 263.9875 C288.8800 259.6375 289.8600 255.1450 291.3425 250.9975 C295.5050 239.3472 304.1050 226.7735 312.5800 217.8220 C317.5625 212.5592 322.8900 208.3230 328.7400 204.0838 C345.3850 192.0245 362.0350 184.4895 382.4275 181.3185 C386.1125 180.7457 389.7850 180.1365 393.5200 180.0327 C395.9450 179.9655 408.0275 179.5067 409.2050 180.6190 L409.2100 181.2365 C408.9175 181.7585 408.8275 181.9580 408.2975 182.2628 C405.6900 183.7612 402.4275 184.6440 399.6075 185.6875 C396.5050 186.8358 393.4150 188.1385 390.2625 189.1390 C388.8875 189.8943 387.5025 190.5050 386.0475 191.0898 L386.0050 194.8092 Z"></path>
<path id="" fill="#c5e454" fill-opacity="1.0" stroke="#000000" stroke-width="0.0" stroke-opacity="1.0" stroke-linecap="round" stroke-linejoin="round"  filling="0" d="M380.3825 192.6203 C383.0250 191.8678 387.8975 189.1678 390.2625 189.1390 C388.8875 189.8943 387.5025 190.5050 386.0475 191.0898 L386.0050 194.8092 C384.0900 194.4128 382.1600 193.4125 380.3825 192.6203 Z"></path>
<path id="" fill="#454749" fill-opacity="1.0" stroke="#000000" stroke-width="0.0" stroke-opacity="1.0" stroke-linecap="round" stroke-linejoin="round"  filling="0" d="M183.3423 347.2600 C187.4760 347.0600 198.2500 352.8850 202.5610 354.7575 C205.3262 355.9250 208.1260 357.0100 210.9570 358.0100 C221.1755 361.5450 232.4955 364.2950 243.3095 364.9550 C247.3602 365.2025 251.4700 365.0125 255.5300 365.0150 C260.0225 365.0175 264.6275 365.2325 269.1075 364.9300 C280.1950 364.1775 291.7600 361.2500 302.2050 357.5350 C307.1400 355.7800 311.8850 353.6100 316.6575 351.4675 C320.3875 349.7925 324.0625 347.9475 328.0675 347.0325 C329.3650 347.5200 330.5000 347.9950 331.4325 349.0750 C332.6100 350.4425 333.0500 352.1475 332.9075 353.9300 C332.5275 358.6775 329.0875 363.1900 325.6600 366.2450 C321.9475 369.5900 317.6025 372.1675 313.1450 374.3950 C283.4800 389.2200 243.5240 390.3375 212.3528 379.8500 C201.7612 376.2875 185.8160 369.6400 180.6410 359.0050 C179.4850 356.6300 178.3915 353.5075 179.3725 350.9175 C180.0935 349.0125 181.5610 348.0525 183.3423 347.2600 Z"></path>
<path id="" fill="#fefefe" fill-opacity="1.0" stroke="#000000" stroke-width="0.0" stroke-opacity="1.0" stroke-linecap="round" stroke-linejoin="round"  filling="0" d="M153.0383 201.1057 C162.7247 201.0310 172.0290 204.6205 179.9982 210.0363 C186.4000 214.3867 193.4920 221.6315 194.9288 229.5527 C195.3602 231.9323 195.3350 234.4538 193.8325 236.4677 C191.6725 239.3638 187.8997 240.2930 184.5155 240.7453 C173.7790 241.0110 162.5890 236.2722 154.4110 229.4682 C148.8930 224.8770 142.6718 218.2242 142.0988 210.6642 C141.9255 208.3795 142.2798 206.3172 143.8703 204.5793 C146.3145 201.9082 149.6003 201.2543 153.0383 201.1057 Z"></path>
<path id="" fill="#fefefe" fill-opacity="1.0" stroke="#000000" stroke-width="0.0" stroke-opacity="1.0" stroke-linecap="round" stroke-linejoin="round"  filling="0" d="M356.9800 201.1105 C360.7025 201.0963 364.2550 201.2437 367.2900 203.7513 C368.8775 205.0635 369.7550 206.7225 369.9225 208.7760 C370.3450 213.9795 367.2925 219.1750 364.1100 223.0400 C355.6475 233.1268 343.5625 239.4890 330.4575 240.7585 C326.5900 240.8330 322.0200 240.2940 319.0775 237.5213 C317.5925 236.1220 316.9475 234.3757 316.9000 232.3578 C316.7625 226.3895 320.6750 220.4892 324.5975 216.3110 C332.4350 207.9633 345.4725 201.4705 356.9800 201.1105 Z"></path>
</svg>