<svg xmlns="http://www.w3.org/2000/svg" viewBox="0 0 512 512" height="512.0px" width="512.0px">
<path id="" fill="#6adbc5" fill-opacity="1.0" stroke="#000000" stroke-width="0.0" stroke-opacity="1.0" stroke-linecap="round" stroke-linejoin="round"  filling="0" d="M50.9792 239.9388 L279.4750 239.9772 L398.1275 239.9803 C419.0925 239.9803 440.0925 240.2385 461.0550 239.9255 L461.0500 378.5050 L461.0475 422.2450 C461.0475 429.7200 460.5525 437.6125 461.2400 445.0475 C454.3900 444.7700 447.4475 444.9550 440.5875 444.9525 L403.4000 444.9600 L291.7575 444.9625 L135.5765 444.9675 C107.4180 444.9625 79.1367 444.5075 50.9912 445.0600 L50.9792 239.9388 Z"></path>
<path id="" fill="#fedc7d" fill-opacity="1.0" stroke="#000000" stroke-width="0.0" stroke-opacity="1.0" stroke-linecap="round" stroke-linejoin="round"  filling="0" d="M426.5250 291.3500 C429.7800 290.9025 457.7200 290.8775 460.4100 291.5400 C460.9575 292.2550 460.9350 293.0975 460.9700 293.9625 C461.2000 299.5050 461.0525 305.1025 461.0525 310.6500 L461.0525 340.6000 L461.1025 445.0525 C452.7200 444.8575 444.3050 445.0100 435.9175 445.0075 L387.8875 445.0050 L244.7260 445.0050 L190.7663 445.0050 L175.7843 445.0325 C172.3918 445.0425 168.8365 445.2625 165.4798 444.7300 C162.2563 444.2200 158.8848 440.9175 156.5018 438.8350 C153.3025 435.5475 149.6678 432.8225 146.3505 429.6750 C142.5033 426.0275 138.4545 422.2500 135.0103 418.2300 C133.2750 416.2025 131.7555 413.9900 130.0870 411.9075 C128.3038 409.6850 126.3268 407.5875 124.6503 405.2825 C120.0800 398.9925 116.0132 390.5775 115.2072 382.7650 C113.9855 370.9250 116.5222 362.3275 124.1103 353.0350 C140.1638 333.3750 178.3257 321.3850 202.5500 315.2225 C205.6200 314.4425 208.7405 313.8800 211.8242 313.1600 C216.0773 312.1650 220.3008 311.0425 224.5833 310.1775 C234.5132 308.1675 244.5010 306.6825 254.4875 305.0325 C261.1300 303.9350 267.7325 302.5475 274.4050 301.6425 C283.0500 300.4700 291.7750 299.8825 300.4525 298.9850 C317.7125 297.0600 335.0150 295.5100 352.3425 294.3375 C355.3675 294.1525 358.4125 294.1925 361.4425 294.0550 L380.5300 293.0350 C384.2175 292.8650 387.8850 292.3300 391.5775 292.2450 C403.2475 291.9775 414.8875 292.5575 426.5250 291.3500 Z"></path>
<path id="" fill="#93989b" fill-opacity="1.0" stroke="#000000" stroke-width="0.0" stroke-opacity="1.0" stroke-linecap="round" stroke-linejoin="round"  filling="0" d="M317.1750 247.9897 C318.2575 247.9390 319.3700 247.8625 320.4425 248.0623 C322.2425 248.3978 324.4725 249.2608 325.5100 250.8725 C326.2125 251.9600 326.2600 253.3875 326.0750 254.6275 C325.4650 258.7550 324.0850 262.8575 323.2325 266.9575 L315.8725 302.7925 C314.2475 310.6725 312.9475 318.6475 311.4725 326.5575 C309.6775 336.1625 307.5875 345.7000 305.6425 355.2725 C304.6050 360.3875 303.7950 365.5475 302.6900 370.6500 C301.7725 374.8825 301.1775 378.4200 297.2775 380.9350 C296.3825 381.1875 295.4525 381.3100 294.5200 381.2175 C292.6150 381.0325 290.8050 379.8125 289.6575 378.3225 C288.8675 377.2975 288.0550 375.8675 288.2675 374.5400 C289.7900 365.0075 292.0300 355.6575 293.8375 346.1825 L307.3050 277.3250 C308.6275 270.8650 309.6725 264.3475 310.9625 257.8800 C311.3600 255.8850 311.5950 253.2725 312.3875 251.4375 C313.2250 249.4930 315.3175 248.6545 317.1750 247.9897 Z"></path>
<path id="" fill="#f17a52" fill-opacity="1.0" stroke="#000000" stroke-width="0.0" stroke-opacity="1.0" stroke-linecap="round" stroke-linejoin="round"  filling="0" d="M302.9750 176.1107 C306.2525 175.9297 309.5700 176.0027 312.8500 175.9913 C322.6800 175.9568 331.6350 176.5228 341.1850 179.0560 C368.0200 186.1740 401.6350 205.3120 415.8200 229.9068 C418.2675 234.1495 421.5950 241.5197 422.5675 246.3255 C423.8625 252.7200 422.7300 265.9050 420.9925 272.2225 C420.1475 275.2875 418.0950 281.3900 415.1275 282.9475 C414.3875 283.3350 413.6100 283.3725 412.8350 283.0700 C410.9475 282.3300 409.5050 279.9025 408.6825 278.1350 L408.5425 277.8250 C401.7725 276.9575 394.8900 276.3500 388.2000 278.0750 C376.9575 280.9750 370.3225 290.2750 356.8850 287.5750 C350.2375 286.2375 344.4950 282.9575 340.7075 277.3300 C338.4775 274.0200 335.5325 270.6250 332.6125 267.9050 C328.3825 263.9625 323.1025 261.7950 317.4325 260.8550 C304.9550 258.7850 299.0200 261.8525 288.4600 267.5500 C284.7350 269.5600 281.0100 271.1750 276.7175 271.3125 C267.6150 271.6075 259.0350 265.6075 253.6200 258.7325 C251.6000 256.1700 249.8295 252.8175 247.3553 250.6850 C246.4090 249.8683 245.1288 249.3038 244.0688 248.6373 C239.4590 245.7392 234.0267 242.9425 228.3927 244.2253 C225.7780 244.8205 223.2225 246.4190 220.5310 246.5560 C219.8835 246.5890 219.2482 246.4843 218.7637 246.0287 C217.7045 245.0335 217.4755 243.1653 217.4167 241.7957 C217.2668 238.2965 217.9380 234.7233 218.6152 231.3033 C220.8695 219.9238 225.0470 210.4518 233.0007 201.9120 C247.1503 186.7198 270.3100 180.2182 290.2325 177.4615 C294.4500 176.8777 298.7175 176.2720 302.9750 176.1107 Z"></path>
<path id="" fill="#ffe62e" fill-opacity="1.0" stroke="#000000" stroke-width="0.0" stroke-opacity="1.0" stroke-linecap="round" stroke-linejoin="round"  filling="0" d="M381.7500 67.2372 C406.4750 65.9857 427.5300 85.0280 428.7600 109.7552 C429.9875 134.4828 410.9275 155.5193 386.1975 156.7263 C361.5025 157.9317 340.4975 138.9003 339.2700 114.2043 C338.0425 89.5082 357.0550 68.4872 381.7500 67.2372 Z"></path>
<path id="" fill="#c94747" fill-opacity="1.0" stroke="#000000" stroke-width="0.0" stroke-opacity="1.0" stroke-linecap="round" stroke-linejoin="round"  filling="0" d="M316.8225 188.3092 C319.1375 187.9560 321.2975 188.7335 323.5150 189.3180 C323.1375 190.6812 322.6050 191.8650 321.9200 193.0950 C316.3225 203.1367 310.0975 212.8965 304.3500 222.8627 C301.4325 227.9180 298.4775 232.9642 295.6650 238.0780 C293.1675 242.6195 290.8375 247.2402 288.2075 251.7125 C287.7275 252.5300 287.2425 253.3325 286.5050 253.9525 C284.1450 255.9375 279.4300 259.4075 276.2200 259.0250 C269.2550 258.1950 265.4875 249.1073 261.6000 244.3132 L261.3350 243.9902 C257.6200 239.6075 251.5950 235.9645 246.1265 234.2880 C244.2025 233.6983 241.5410 233.3495 239.8633 232.3127 C239.2742 231.9485 239.0025 231.4057 238.8775 230.7380 C238.0522 226.3338 241.6410 220.3270 243.9603 216.8253 C256.2400 198.2852 280.3575 191.3217 301.3825 189.1187 C306.3800 188.5950 311.5400 189.4290 316.4925 188.3835 C316.6025 188.3600 316.7125 188.3340 316.8225 188.3092 Z"></path>
<path id="" fill="#f8f2d8" fill-opacity="1.0" stroke="#000000" stroke-width="0.0" stroke-opacity="1.0" stroke-linecap="round" stroke-linejoin="round"  filling="0" d="M338.0600 191.6450 C340.9125 192.3483 343.4475 193.7617 346.1725 194.8105 C363.9400 201.6503 378.3575 210.6530 391.2950 224.7348 C398.6225 232.7103 403.3650 243.5490 403.5825 254.4325 C403.6400 257.3325 403.1400 260.3050 402.9975 263.2125 C399.6025 262.5425 396.3900 261.9900 392.9100 262.0075 C387.2050 262.0900 381.1475 263.2350 375.8725 265.4475 C369.4800 268.1300 362.0675 275.0450 354.9900 274.0375 C352.5725 273.6950 350.8175 272.5325 349.3450 270.6250 C347.4425 254.3725 345.2250 238.1620 342.6900 221.9985 L339.5775 203.3302 C338.9525 199.6217 337.8025 195.3858 338.0600 191.6450 Z"></path>
</svg>