<svg xmlns="http://www.w3.org/2000/svg" viewBox="0 0 512 512" height="512.0px" width="512.0px">
<path id="" fill="#937151" fill-opacity="1.0" stroke="#000000" stroke-width="0.0" stroke-opacity="1.0" stroke-linecap="round" stroke-linejoin="round"  filling="0" d="M116.8353 51.1073 C131.8457 50.1930 147.1840 55.5753 158.8477 64.9147 C170.9030 74.5675 177.6452 89.0482 179.2805 104.1803 C181.9920 103.3445 184.8810 102.9252 187.6732 102.4105 C197.1285 100.7455 206.6682 99.6013 216.2490 98.9832 C227.1580 98.2038 238.1395 97.4317 249.0782 97.2758 C263.7350 97.1325 278.3900 97.6415 293.0025 98.8008 C306.3875 99.7475 319.6700 100.9725 332.7575 104.0450 C332.9550 101.7220 333.2800 99.4117 333.7300 97.1245 C336.7075 82.4815 345.4350 69.6452 357.9575 61.4920 C371.0750 52.7982 387.5025 48.9770 403.0025 52.2045 C419.0700 55.5500 433.2475 64.3282 442.2575 78.2250 C450.6950 91.2408 453.1700 105.6127 449.9425 120.7047 C446.8375 135.2160 438.0275 147.0560 425.7275 155.0645 C426.4450 155.7850 427.1300 156.5352 427.7825 157.3135 C435.3825 166.3022 440.7200 177.4825 444.8775 188.4077 C454.2200 212.9630 458.2375 238.0510 460.0600 264.1400 C460.9850 277.4125 461.4325 290.8325 460.2875 304.0975 C457.7725 335.4575 445.0100 365.1200 423.9700 388.5100 C417.5275 395.6425 410.3625 402.0500 403.0225 408.2250 C400.7700 409.8025 398.6650 411.6425 396.4575 413.2950 C392.5150 416.2125 388.4700 418.9900 384.3325 421.6225 C358.6925 438.0275 329.9575 448.6025 300.4375 455.4950 C285.8850 458.8900 270.3250 461.0175 255.3750 460.9475 C249.7737 460.9200 244.2430 460.4275 238.6738 459.8825 C199.7030 455.7775 162.1508 442.9775 128.7867 422.4250 C93.4105 400.3500 64.5472 367.0350 55.0372 325.7225 C50.6975 306.8700 50.6560 287.6200 51.7357 268.4125 C53.4150 238.5380 57.9650 208.2603 70.2975 180.7437 C72.9895 174.7377 76.3098 168.5033 80.0740 163.0960 C81.9113 160.4568 84.1617 158.1190 85.8455 155.3717 L86.0475 155.0378 C83.4633 153.3403 80.8538 151.6260 78.5157 149.5952 C68.6460 141.0220 61.8922 126.4195 61.0865 113.4595 C60.1357 98.1722 63.9000 83.6475 74.3132 72.0150 C85.2353 59.8143 100.3880 52.0607 116.8353 51.1073 Z"></path>
<path id="" fill="#dfab7d" fill-opacity="1.0" stroke="#000000" stroke-width="0.0" stroke-opacity="1.0" stroke-linecap="round" stroke-linejoin="round"  filling="0" d="M245.7408 263.1050 C245.7650 263.1025 245.7892 263.1000 245.8135 263.0975 C266.5775 261.8850 284.4275 264.0250 302.7850 274.5075 C307.5875 277.2500 312.2625 280.2875 316.4125 283.9600 C335.6775 301.0075 345.5150 320.2300 346.9475 345.9825 C348.0725 366.2400 344.4650 393.8225 335.4125 412.2750 C332.9125 417.3750 329.2625 422.7450 325.4500 426.9700 C322.8750 429.8250 319.7425 432.1350 316.6025 434.3325 C304.4125 442.8675 289.5725 446.7175 274.8475 447.8575 C272.0975 448.0725 269.3175 448.0450 266.5625 448.1825 C264.0125 448.3575 261.4750 448.6150 258.9300 448.8150 C254.0075 449.2000 249.3195 448.5525 244.4332 448.2250 C224.4880 446.8875 206.5462 443.4950 190.9275 430.0075 C187.2870 426.8650 184.2070 422.9000 181.5880 418.8875 C169.7397 400.7275 167.7145 378.5675 166.2190 357.5050 C165.8585 352.4275 166.2982 347.5000 166.7982 342.4600 C168.6335 323.9525 174.2615 308.1525 186.6645 293.9675 C198.0582 280.9400 213.4758 271.7125 229.8500 266.4900 C234.9982 264.8500 240.3353 263.4725 245.7408 263.1050 Z"></path>
<path id="" fill="#3e4347" fill-opacity="1.0" stroke="#000000" stroke-width="0.0" stroke-opacity="1.0" stroke-linecap="round" stroke-linejoin="round"  filling="0" d="M246.4507 319.1150 C263.7150 318.7975 289.8100 318.8900 305.2625 327.2450 C311.2750 330.4975 315.9650 335.6075 317.8800 342.2450 C319.4200 347.5900 319.7075 353.8475 316.9275 358.8100 C308.1575 374.4675 280.6250 384.7925 264.1850 389.4475 C261.7725 389.9825 259.3025 390.6325 256.8300 390.7650 C253.6450 390.9400 250.2750 389.9950 247.2065 389.2075 C232.5197 385.4375 213.6430 377.0275 202.3005 366.8900 C197.6908 362.7700 193.3678 357.6750 193.0515 351.2200 C192.7337 344.7400 194.8887 337.9950 199.2812 333.1575 C208.6288 322.8600 226.3005 320.9100 239.3880 319.8150 C241.7500 319.6175 244.0795 319.2350 246.4507 319.1150 Z"></path>
<path id="" fill="#3e4347" fill-opacity="1.0" stroke="#000000" stroke-width="0.0" stroke-opacity="1.0" stroke-linecap="round" stroke-linejoin="round"  filling="0" d="M77.3378 244.1080 C82.4690 243.9462 87.3418 244.5670 92.4365 244.8353 L128.0188 246.8550 C132.4070 247.0652 136.8115 246.9000 141.2007 247.0850 C145.0430 247.2470 148.8570 247.8297 152.7068 247.9240 C158.0677 248.0553 163.4405 247.9070 168.7993 248.0800 C172.8327 248.2103 176.8358 248.8475 180.8755 248.9178 C195.4385 249.1707 210.0180 248.8425 224.5830 249.0508 C228.7245 249.1100 232.8302 249.8918 236.9803 249.9353 C249.8387 250.0700 262.7100 249.9512 275.5700 249.9438 C285.4825 249.9380 295.4150 250.0825 305.3250 249.9225 L362.0800 248.9077 C365.1450 248.8297 368.1725 248.1862 371.2350 248.0598 C378.5275 247.7585 385.8700 248.0845 393.1725 247.9117 C396.6400 247.8297 400.0600 247.2500 403.5200 247.0853 C406.7800 246.9300 426.8200 246.4760 428.7275 247.1915 C429.0500 247.3132 429.0675 247.5895 429.2000 247.8845 C429.1025 248.6022 429.0800 248.7570 428.6475 249.3293 C421.2175 251.3650 411.5300 252.4200 403.7275 253.4825 C399.3275 254.0825 395.1700 254.9850 390.7000 255.0625 C390.8225 257.4125 390.9650 259.7000 390.5800 262.0350 C389.7675 265.3800 388.5350 268.2700 386.2650 270.8900 C382.0500 275.7575 375.7925 278.5975 369.4025 279.0400 C361.4575 279.5925 353.8125 278.4075 347.6550 273.0075 C344.0150 269.8150 341.2500 264.8825 340.9075 260.0125 C337.0700 260.0500 333.3025 260.6100 329.4825 260.8750 C326.0750 261.1125 322.6475 261.0000 319.2350 261.1650 C315.9475 261.3250 312.6775 261.7775 309.3925 261.9500 C303.6400 262.2525 297.8500 261.8325 292.1000 262.2025 C286.0250 262.5925 279.8975 263.5300 273.8275 263.7175 C270.6825 263.8125 267.4650 263.0475 264.2800 263.0275 C259.3050 262.9950 254.2875 262.8825 249.3163 263.0625 C245.9840 263.1850 242.6277 263.6225 239.2953 263.5800 C233.0020 263.5000 226.6653 262.4275 220.3715 262.1800 C215.5047 261.9900 210.6240 262.1600 205.7585 261.9325 C203.0592 261.8075 200.3760 261.4350 197.6810 261.2500 L180.3550 260.1975 C177.3015 259.9850 174.2340 260.1225 171.1882 259.7850 C171.2112 260.4325 171.2025 261.0800 171.1622 261.7275 C170.8452 266.5050 167.8475 270.3025 164.3578 273.3250 C158.1185 278.7275 150.4308 279.6400 142.4657 279.0175 C136.5177 278.5500 130.1105 275.3200 126.2685 270.7325 C122.0995 265.7525 121.7972 260.3750 122.3637 254.2100 C118.9970 254.0925 115.6548 253.4975 112.3282 253.0000 C105.0002 251.9050 97.7487 250.4725 90.4603 249.1487 C86.7867 248.4815 80.7050 248.0338 77.5160 246.4953 C76.9352 246.2153 76.6158 245.8330 76.4077 245.2260 C76.6295 244.6382 76.8627 244.4850 77.3378 244.1080 Z"></path>
<path id="" fill="#dfab7d" fill-opacity="1.0" stroke="#000000" stroke-width="0.0" stroke-opacity="1.0" stroke-linecap="round" stroke-linejoin="round"  filling="0" d="M114.8553 74.0730 C125.9608 73.3947 134.8927 74.8590 143.6990 82.2848 C151.7260 89.0535 155.3055 98.6017 156.1918 108.8047 C152.8320 110.8345 143.9635 113.4765 139.7505 115.2105 C131.1772 118.7387 123.5805 122.9847 115.6292 127.7223 C110.5025 130.8503 106.4215 134.9957 101.5880 138.4402 C100.5455 137.8307 99.5443 137.0915 98.5875 136.3562 C91.6635 131.0358 86.2493 122.7483 85.1760 113.9705 C83.9460 103.9128 86.0370 94.6842 92.3878 86.6775 C97.6902 79.9922 106.3708 75.0697 114.8553 74.0730 Z"></path>
<path id="" fill="#dfab7d" fill-opacity="1.0" stroke="#000000" stroke-width="0.0" stroke-opacity="1.0" stroke-linecap="round" stroke-linejoin="round"  filling="0" d="M386.8525 74.0883 C390.9600 73.6263 395.8825 73.6527 399.9425 74.5392 C408.6275 76.4358 416.6675 81.7408 421.4750 89.2365 C426.7425 97.4498 428.5850 106.9033 426.4525 116.5228 C424.3900 125.8305 418.3650 133.3975 410.4625 138.4653 C407.8700 136.7173 405.5650 134.2635 403.1100 132.2928 C394.2075 125.7315 384.5550 120.2575 374.3550 115.9870 C371.4150 114.7820 368.4675 113.5688 365.4875 112.4745 C363.1750 111.6265 358.5700 110.5285 356.6675 109.2083 C356.1375 108.8398 356.0500 108.3145 355.9900 107.7080 C355.8625 106.4637 356.2550 105.0197 356.4875 103.7925 C357.6800 97.4685 359.8700 91.7760 363.9650 86.7223 C369.4375 79.9665 378.1925 75.0125 386.8525 74.0883 Z"></path>
<path id="" fill="#947151" fill-opacity="1.0" stroke="#000000" stroke-width="0.0" stroke-opacity="1.0" stroke-linecap="round" stroke-linejoin="round"  filling="0" d="M261.0975 52.5635 C262.1825 52.7185 263.1300 53.0440 264.1125 53.5262 C267.3500 55.1115 270.1825 57.8270 272.8925 60.1638 C285.5200 71.0447 296.1050 84.4457 301.5125 100.3788 C298.9400 100.1890 296.3975 99.6580 293.8350 99.3627 C291.3200 99.0730 288.7775 99.0912 286.2575 98.8915 C283.5400 98.6765 280.8300 98.2420 278.1075 98.1015 C268.8775 97.6245 259.3900 98.0512 250.1325 98.0403 C242.9507 98.0318 235.5927 97.6223 228.5262 99.0795 L225.4925 99.5505 C223.9130 93.5453 221.4832 87.7965 218.2775 82.4785 C217.4742 81.1650 216.6250 79.8322 215.6480 78.6405 C214.3578 77.0665 210.8525 74.2272 210.7758 72.1650 L211.3140 71.8513 C218.9185 71.4037 226.3457 73.5610 233.5378 75.7075 C233.8265 72.0585 233.6133 68.3870 232.9032 64.7957 C232.5773 63.1568 229.6573 54.8757 229.9863 54.0323 C230.2133 53.9568 230.3607 53.8880 230.6205 53.9102 C232.1263 54.0395 234.3385 55.0482 235.7590 55.5997 C243.8070 58.7245 251.4725 63.0448 256.6525 70.1290 C260.1925 64.3540 260.8100 59.2128 261.0975 52.5635 Z"></path>
<path id="" fill="#3e4347" fill-opacity="1.0" stroke="#000000" stroke-width="0.0" stroke-opacity="1.0" stroke-linecap="round" stroke-linejoin="round"  filling="0" d="M247.9702 415.1125 C257.6625 414.8025 277.9975 414.7800 285.0900 421.5575 C286.8875 423.2750 287.0825 424.5575 287.1750 426.9100 C279.4550 427.2300 271.6075 426.9350 263.8750 426.9300 C258.5350 426.9200 227.8963 427.4975 225.4238 426.5800 C225.0765 426.1575 225.0450 425.8325 225.0140 425.3000 C224.9252 423.7900 225.4695 422.6725 226.5058 421.5950 C230.7750 417.1625 242.0595 415.3075 247.9702 415.1125 Z"></path>
</svg>