<svg xmlns="http://www.w3.org/2000/svg" viewBox="0 0 512 512" height="512.0px" width="512.0px">
<path id="" fill="#b4d7ee" fill-opacity="1.0" stroke="#000000" stroke-width="0.0" stroke-opacity="1.0" stroke-linecap="round" stroke-linejoin="round"  filling="0" d="M251.8725 117.8658 C256.7250 117.7525 260.9375 117.8805 265.1800 120.4920 C270.0700 123.5013 273.6350 128.3717 277.8425 132.2095 C280.0975 134.2660 282.5425 136.1053 284.7675 138.1980 C288.1100 141.3445 291.2425 144.7055 294.4675 147.9715 L309.2075 162.7885 L338.3150 192.2513 C340.8125 194.8295 343.7025 197.0295 346.2350 199.5912 L372.4800 226.4767 C375.6300 229.6555 379.1075 232.5063 382.2800 235.6630 L429.1275 282.5125 L443.6000 296.9625 C446.5375 299.8975 449.5700 302.7750 452.3275 305.8800 C456.2575 310.3000 459.0950 314.0625 460.4475 319.9300 C461.8150 325.8625 460.1575 331.6075 456.9475 336.6975 C454.5600 340.4850 451.1150 343.5150 447.9600 346.6475 L438.1950 356.3775 L401.8300 392.7375 L360.2025 434.3750 L347.7775 446.8175 C345.1850 449.4275 342.6525 452.2225 339.8325 454.5825 C335.9825 457.8075 332.2875 459.6100 327.3875 460.7100 C325.3500 461.0500 323.4225 460.9775 321.4000 460.6150 C316.9425 459.8150 312.9375 457.9650 309.5300 454.9800 C304.9725 450.9900 300.7775 446.2800 296.4900 441.9850 L270.6325 416.1075 L189.4900 334.9725 L142.4628 287.9275 L130.7655 276.2825 C127.5332 273.0800 123.9355 269.9075 121.3678 266.1300 C118.3210 261.6500 117.2855 255.3075 118.3248 250.0200 C119.0680 246.2392 123.8110 235.3387 126.2572 232.3850 C127.6673 230.6825 129.7130 229.3188 131.3837 227.8665 C133.1715 226.3125 134.8615 224.6335 136.5370 222.9600 L167.4550 191.9998 L215.9665 143.4662 L228.3627 131.0280 C231.0443 128.3280 233.7345 125.1787 236.8865 123.0383 C238.5872 122.8995 240.2888 122.7722 241.9910 122.6562 C242.0665 122.5697 242.1407 122.4820 242.2177 122.3965 C244.7742 119.5602 248.0975 118.0575 251.8725 117.8658 Z"></path>
<path id="" fill="#fefefe" fill-opacity="1.0" stroke="#000000" stroke-width="0.0" stroke-opacity="1.0" stroke-linecap="round" stroke-linejoin="round"  filling="0" d="M188.8215 298.0150 C198.3935 297.5600 208.1615 297.9475 217.7533 297.9525 L273.3250 297.9550 L361.5650 297.9575 C375.8700 297.9575 390.2050 297.7175 404.5050 297.9350 C405.8375 297.9550 408.7875 297.8300 409.8775 298.6325 C409.9550 298.6900 410.0275 298.7525 410.1025 298.8100 C410.9950 299.4825 411.8000 300.1825 412.6025 300.9650 C415.8950 304.1775 423.9025 311.4225 425.9700 314.9900 C427.4450 317.5375 428.0725 321.2525 428.0800 324.1700 C428.0900 327.7425 426.6725 331.1925 424.6800 334.1100 C420.8900 339.6550 414.0925 345.4500 409.2350 350.3050 L379.8900 379.6625 L348.7150 410.8200 C344.3425 415.1950 340.3025 420.2900 335.4700 424.1350 C333.1000 426.0200 330.7150 427.5725 327.6500 428.0100 C321.6350 428.8675 316.4425 426.3750 311.7625 422.8150 C306.6150 418.9025 300.9850 412.4500 296.3200 407.7725 L267.4875 378.9400 L216.2198 327.6875 L200.2785 311.7650 C197.1390 308.6450 193.8622 305.5850 190.8757 302.3175 C189.6118 300.9375 189.0665 299.8775 188.8215 298.0150 Z"></path>
<path id="" fill="#208fbb" fill-opacity="1.0" stroke="#000000" stroke-width="0.0" stroke-opacity="1.0" stroke-linecap="round" stroke-linejoin="round"  filling="0" d="M197.4117 78.5762 C201.4925 78.3848 204.4377 79.0705 207.8602 81.3040 C213.3407 84.8805 217.9175 90.5795 222.5567 95.1722 C226.5515 99.1270 231.7903 103.4970 235.1070 107.9742 C236.4050 109.7265 237.3705 111.6880 237.7865 113.8415 C238.6955 118.5478 237.1837 123.3893 234.5677 127.2945 C231.0525 132.5417 223.7708 138.8737 219.1610 143.4707 L191.1705 171.4535 L150.7478 211.8830 L139.0128 223.6283 C135.8460 226.8132 132.7493 230.0830 129.2953 232.9620 C126.2278 235.5188 123.2250 236.9603 119.3047 237.7310 C115.9633 238.0663 112.7298 237.9035 109.7198 236.2285 C108.4677 235.5315 107.3047 234.6548 106.2365 233.7025 C101.9713 229.9008 98.0892 225.4772 94.0255 221.4447 C89.9420 217.3930 85.1585 213.3690 81.5807 208.8830 C80.1992 207.1508 79.1190 205.2560 78.5632 203.0948 C77.5760 199.2558 78.8448 195.3125 80.8065 192.0013 C83.7510 187.0307 88.4447 183.0505 92.5060 179.0000 L105.5788 165.9475 L152.4162 118.9668 L178.3595 93.1338 C180.9823 90.5242 183.0775 87.3585 185.8848 84.9463 C189.3145 81.9993 193.0197 79.7083 197.4117 78.5762 Z"></path>
<path id="" fill="#fee52e" fill-opacity="1.0" stroke="#000000" stroke-width="0.0" stroke-opacity="1.0" stroke-linecap="round" stroke-linejoin="round"  filling="0" d="M69.7962 51.0520 C69.9520 51.0428 70.1078 51.0307 70.2637 51.0240 C85.5872 50.3760 102.6170 69.7883 111.9652 80.6252 C116.1812 85.5125 119.9382 90.5738 124.7093 94.9650 C130.3452 95.0602 136.2352 95.3958 141.8427 94.7560 C149.4082 93.8930 174.8300 86.5385 179.9818 89.4465 C180.2117 89.5762 180.2270 89.5887 180.2388 89.8553 C180.2928 91.0985 178.7590 92.7057 177.9550 93.6030 C175.9763 95.8112 173.6763 97.7380 171.5545 99.8067 C168.2883 102.9918 165.1085 106.2852 161.8808 109.5117 L126.7790 144.6750 C118.5453 152.9017 110.2152 161.0810 102.1045 169.4250 C99.3120 172.2977 96.9847 175.6217 94.0590 178.3613 C93.1565 179.2063 92.3367 179.9028 91.1095 180.1662 C90.6705 180.0723 90.2903 180.0103 89.9530 179.6820 C86.1548 175.9848 93.8678 148.5932 94.6340 142.3978 C95.3475 136.6308 95.1260 130.4645 94.8565 124.6650 C90.4937 118.8958 84.0600 114.2560 78.5480 109.6468 C75.0570 106.7272 71.9240 103.5038 68.7000 100.3010 C61.0822 92.7332 53.7202 85.4525 51.3835 74.5060 C50.3270 69.5565 52.1180 64.6158 54.8582 60.4860 C58.2260 55.4108 63.8922 52.2038 69.7962 51.0520 Z"></path>
<path id="" fill="#2090bc" fill-opacity="1.0" stroke="#000000" stroke-width="0.0" stroke-opacity="1.0" stroke-linecap="round" stroke-linejoin="round"  filling="0" d="M192.6115 218.7188 C192.7193 218.7155 192.8270 218.7043 192.9345 218.7088 C195.1265 218.8017 200.8652 225.1670 202.5440 227.0280 C203.2892 227.8537 204.3228 228.9425 204.2610 230.0995 C202.1675 232.7100 199.6102 235.0448 197.2448 237.4105 L186.0525 248.5960 L171.2592 263.3825 C168.3042 266.3425 164.9995 270.4475 161.3945 272.5800 C161.1467 272.5775 161.1255 272.5925 160.8500 272.5075 C158.8777 271.8825 151.0508 263.8975 149.9670 261.9075 C149.8245 261.6475 149.6223 261.3975 149.7510 261.1000 C150.3240 259.7675 186.3300 223.9608 190.2682 220.3505 C191.0005 219.6792 191.7165 219.1640 192.6115 218.7188 Z"></path>
<path id="" fill="#1f8fbb" fill-opacity="1.0" stroke="#000000" stroke-width="0.0" stroke-opacity="1.0" stroke-linecap="round" stroke-linejoin="round"  filling="0" d="M284.7250 310.7075 C285.4675 310.7375 286.0025 310.9250 286.6000 311.3650 C288.7225 312.9350 295.9550 319.7050 296.3175 322.0575 C294.6100 324.5100 291.9425 326.7125 289.8175 328.8375 L277.4850 341.1600 L263.6300 355.0125 C260.5925 358.0550 257.0100 362.4650 253.3875 364.6025 C250.8750 364.2300 243.4495 356.0325 241.5690 353.8050 C241.9953 352.9425 242.4653 352.2325 243.1045 351.5125 C245.3255 349.0125 247.8248 346.6925 250.1900 344.3275 L263.1200 331.3975 L275.3250 319.2025 C277.6825 316.8475 280.0025 314.3625 282.5100 312.1675 C283.1900 311.5725 283.9250 311.1250 284.7250 310.7075 Z"></path>
<path id="" fill="#2090bc" fill-opacity="1.0" stroke="#000000" stroke-width="0.0" stroke-opacity="1.0" stroke-linecap="round" stroke-linejoin="round"  filling="0" d="M223.4193 249.6775 C224.8090 249.8163 225.5273 250.2825 226.5800 251.1725 C228.4360 252.7400 235.1033 258.7150 235.2750 260.8825 C233.3950 263.8475 225.0050 271.5525 221.8885 274.6700 L204.8705 291.6850 C200.8595 295.6900 196.9223 299.9825 192.3850 303.3925 L192.1118 303.5250 C191.9187 303.5025 191.7083 303.5400 191.5330 303.4575 C191.3112 303.3525 184.0092 296.4100 182.9475 295.4225 C182.0080 294.5500 180.9630 293.4350 180.9250 292.0900 C181.3425 291.2000 181.9335 290.4825 182.6005 289.7700 C188.8485 283.0925 195.6268 276.7850 202.1048 270.3150 L213.7793 258.6400 C216.6962 255.7025 219.8293 251.6925 223.4193 249.6775 Z"></path>
<path id="" fill="#2090bc" fill-opacity="1.0" stroke="#000000" stroke-width="0.0" stroke-opacity="1.0" stroke-linecap="round" stroke-linejoin="round"  filling="0" d="M254.2775 279.6625 C256.3675 280.0925 260.8125 285.1225 262.4250 286.8350 C263.6225 288.1075 265.3450 289.8475 265.2950 291.6950 C263.3125 295.1225 252.3800 305.2150 249.0217 308.5725 C240.3663 317.2225 231.8790 326.3650 222.8095 334.5750 C220.1490 333.2475 215.7392 328.3675 213.6402 326.0450 C212.7552 325.0650 211.6118 323.8775 211.6877 322.4975 C214.4545 318.4900 218.4142 315.1000 221.8503 311.6750 L236.7025 296.7925 L247.3622 286.1050 C249.4925 283.9750 251.7475 281.3000 254.2775 279.6625 Z"></path>
<path id="" fill="#2090bc" fill-opacity="1.0" stroke="#000000" stroke-width="0.0" stroke-opacity="1.0" stroke-linecap="round" stroke-linejoin="round"  filling="0" d="M315.5100 341.6875 C316.1250 341.7175 316.6850 341.8175 317.2125 342.1450 C319.4450 343.5300 326.6975 350.4975 327.3025 352.8325 C326.2500 354.9450 311.6975 368.8075 309.1750 371.3275 C301.9100 378.5850 294.8025 386.2350 287.2450 393.1825 C286.3425 394.0125 285.3975 394.7275 284.3700 395.4000 L283.6750 395.4425 C280.6325 393.7525 276.0150 388.7250 273.6375 385.9850 C273.1425 385.4150 272.7475 385.0250 272.8000 384.2625 C274.6375 380.9050 280.4175 376.0825 283.2825 373.2450 L296.7525 359.7450 C302.0175 354.4975 307.1175 348.9450 312.5750 343.9125 C313.5000 343.0575 314.3875 342.2775 315.5100 341.6875 Z"></path>
<path id="" fill="#2090bc" fill-opacity="1.0" stroke="#000000" stroke-width="0.0" stroke-opacity="1.0" stroke-linecap="round" stroke-linejoin="round"  filling="0" d="M346.3800 371.7000 C347.1525 371.8425 347.6025 372.2175 348.1825 372.7275 C350.4875 374.7600 357.1925 380.7650 357.3575 383.6725 C355.7600 386.6675 341.1150 400.5325 337.6700 403.9825 L325.1950 416.4550 C322.6875 418.9600 320.2300 421.5850 317.5575 423.9125 C316.7150 424.6475 315.9350 425.1425 314.8750 425.5150 C314.4275 425.3275 314.0350 425.1250 313.6325 424.8525 C310.7100 422.8775 304.3450 418.3050 303.6725 414.8300 C304.0325 413.6100 305.4975 412.1500 306.3625 411.2175 C314.3225 402.6450 322.9750 394.5400 331.2550 386.2675 C334.4925 383.0300 343.0300 373.7500 346.3800 371.7000 Z"></path>
<path id="" fill="#085972" fill-opacity="1.0" stroke="#000000" stroke-width="0.0" stroke-opacity="1.0" stroke-linecap="round" stroke-linejoin="round"  filling="0" d="M107.1168 174.6550 C107.8765 174.7985 108.3665 175.0508 108.9727 175.5160 C112.9590 178.5742 117.5270 183.9518 121.1945 187.6100 C127.5437 193.9433 134.9965 200.7375 140.8895 207.3450 C141.4258 207.9462 142.1107 208.6275 142.2318 209.4458 C141.7583 211.5120 139.5925 213.1780 137.9165 214.3400 L137.6200 214.4405 C136.8365 214.1897 136.2592 213.7502 135.6605 213.2027 C129.5128 207.5802 123.7340 201.3783 117.8387 195.4815 C113.1582 190.7997 108.0305 186.2007 103.7175 181.1980 C103.2450 180.6500 102.7832 180.1978 102.7490 179.4370 C103.2823 177.3985 105.4825 175.8440 107.1168 174.6550 Z"></path>
<path id="" fill="#095972" fill-opacity="1.0" stroke="#000000" stroke-width="0.0" stroke-opacity="1.0" stroke-linecap="round" stroke-linejoin="round"  filling="0" d="M144.1240 137.6687 C144.9767 137.8257 145.5060 138.1582 146.1597 138.7010 C148.1842 140.3815 150.0160 142.4025 151.8757 144.2635 L160.9555 153.3322 L172.1817 164.5525 C174.2717 166.6425 176.4888 168.6978 178.4245 170.9310 C178.8587 171.4317 179.2092 171.7798 179.2628 172.4673 C178.7267 174.5193 176.6230 176.1752 174.9210 177.3220 L174.5990 177.3927 C173.7975 177.1560 173.2625 176.7440 172.6455 176.1865 C166.5522 170.6795 160.8578 164.4908 155.0435 158.6740 C150.2485 153.8770 144.9418 149.1633 140.5625 144.0120 C140.1250 143.4973 139.7787 143.1432 139.7437 142.4402 C140.2888 140.4028 142.4780 138.8460 144.1240 137.6687 Z"></path>
<path id="" fill="#095972" fill-opacity="1.0" stroke="#000000" stroke-width="0.0" stroke-opacity="1.0" stroke-linecap="round" stroke-linejoin="round"  filling="0" d="M125.4180 156.7493 C125.9498 156.7787 126.4682 156.8347 126.9755 157.0090 C127.9303 157.3367 128.9180 158.3078 129.6540 158.9948 C132.6785 161.8180 159.3423 188.3765 160.0530 189.9653 C160.3403 190.6075 160.3132 191.4427 160.0728 192.0955 C159.5040 193.6393 158.0188 194.6200 156.6220 195.3345 C156.1315 195.3522 155.7343 195.3410 155.2530 195.2175 C154.6862 195.0723 154.2253 194.7227 153.7982 194.3390 C150.3385 191.2287 123.0555 164.2117 122.1017 162.3685 C121.7158 161.6223 121.7198 160.4695 122.0273 159.6950 C122.6133 158.2182 124.0515 157.3822 125.4180 156.7493 Z"></path>
<path id="" fill="#095972" fill-opacity="1.0" stroke="#000000" stroke-width="0.0" stroke-opacity="1.0" stroke-linecap="round" stroke-linejoin="round"  filling="0" d="M162.4190 119.7535 C162.7380 119.7735 163.0380 119.7917 163.3513 119.8540 C164.4945 120.0807 165.3848 120.8708 166.2377 121.6217 C171.0990 125.9012 175.5325 130.9682 180.1290 135.5505 C183.1732 138.5855 195.1098 149.7045 196.9385 152.7250 C197.3163 153.3488 197.3432 154.1528 197.1555 154.8450 C196.7038 156.5115 195.0710 157.5972 193.6290 158.3367 C193.1435 158.3495 192.7280 158.3358 192.2513 158.2185 C191.6155 158.0623 191.1315 157.6243 190.6628 157.1945 C183.7195 150.8280 177.2065 143.8300 170.5482 137.1608 C168.3175 134.9265 160.2133 127.4830 159.1055 125.3670 C158.7160 124.6235 158.7175 123.4735 159.0278 122.7007 C159.6200 121.2250 161.0490 120.3870 162.4190 119.7535 Z"></path>
<path id="" fill="#085972" fill-opacity="1.0" stroke="#000000" stroke-width="0.0" stroke-opacity="1.0" stroke-linecap="round" stroke-linejoin="round"  filling="0" d="M199.1398 82.6935 C200.0367 82.8810 200.6268 83.2592 201.3155 83.8383 C203.4680 85.6483 205.4190 87.8123 207.4082 89.8018 L218.1165 100.4987 L228.4108 110.7895 C230.1765 112.5555 232.7355 114.6248 234.0210 116.7325 C234.3055 117.1992 234.3103 117.4650 234.1860 117.9865 C233.8595 119.3553 232.0123 120.5807 230.8743 121.2455 C230.3985 121.2860 229.8545 121.3485 229.3802 121.2458 C228.6115 121.0790 228.0920 120.5813 227.5253 120.0642 C220.7905 113.9203 214.4713 107.0892 208.0145 100.6342 C204.6062 97.2267 198.8555 92.1555 196.2522 88.5757 C195.7747 87.9193 195.6775 87.1850 195.8225 86.3965 C196.1407 84.6663 197.7815 83.5827 199.1398 82.6935 Z"></path>
<path id="" fill="#085972" fill-opacity="1.0" stroke="#000000" stroke-width="0.0" stroke-opacity="1.0" stroke-linecap="round" stroke-linejoin="round"  filling="0" d="M180.4258 101.7487 C180.6780 101.7617 180.9297 101.7860 181.1797 101.8217 C182.1650 101.9593 182.7422 102.3033 183.4885 102.9505 C185.7522 104.9145 187.8158 107.2148 189.9393 109.3370 L201.9568 121.3402 C204.7247 124.1060 212.9195 131.5990 214.8150 134.5083 C215.2780 135.2188 215.3280 136.0802 215.0945 136.8815 C214.6248 138.4925 213.0788 139.6638 211.6990 140.4770 C210.8570 140.1393 210.2455 139.7198 209.5725 139.1135 C206.2625 136.1310 177.7255 107.8752 176.8915 106.1080 C176.6585 105.6145 176.7225 105.2628 176.8870 104.7640 C177.3440 103.3792 179.1882 102.3197 180.4258 101.7487 Z"></path>
<path id="" fill="#095972" fill-opacity="1.0" stroke="#000000" stroke-width="0.0" stroke-opacity="1.0" stroke-linecap="round" stroke-linejoin="round"  filling="0" d="M88.4270 193.7415 C88.8213 193.7668 89.2223 193.7948 89.6090 193.8800 C90.3557 194.0448 90.9870 194.5215 91.5553 195.0092 C94.5350 197.5660 122.3655 225.3835 123.0125 226.8188 C123.2740 227.3990 123.2615 228.2937 123.0878 228.8945 C122.6237 230.4978 121.0700 231.6682 119.6992 232.4758 L119.6010 232.4342 C118.8127 232.1100 118.2240 231.6980 117.5908 231.1272 C114.5392 228.3770 85.7000 199.7402 84.9185 198.1537 C84.6460 197.6005 84.7005 197.1975 84.9240 196.6385 C85.4400 195.3463 87.2452 194.3047 88.4270 193.7415 Z"></path>
</svg>