<svg xmlns="http://www.w3.org/2000/svg" viewBox="0 0 512 512" height="512.0px" width="512.0px">
<path id="" fill="#3e4347" fill-opacity="1.0" stroke="#000000" stroke-width="0.0" stroke-opacity="1.0" stroke-linecap="round" stroke-linejoin="round"  filling="0" d="M248.5007 405.8700 C256.5175 405.9475 264.4800 405.7050 272.5075 406.1000 C291.9425 407.0600 333.3350 411.6425 348.4800 423.8975 C350.8475 425.8125 353.4175 428.5775 353.6675 431.7475 C353.8900 434.5950 352.0850 437.0975 350.2750 439.1150 C346.9300 442.8400 342.5875 444.9825 338.1125 447.0475 C315.5000 457.4825 288.6775 459.3250 264.1225 460.7100 C238.0465 461.6000 182.9315 457.8650 162.8842 440.2650 C160.7888 438.4275 158.2610 435.9200 158.1472 432.9625 C158.0437 430.2725 160.1373 427.4550 161.9185 425.5775 C165.4837 421.8225 170.8320 419.7150 175.5655 417.8825 C198.4040 409.0350 224.1855 406.6600 248.5007 405.8700 Z"></path>
<path id="" fill="#62727a" fill-opacity="1.0" stroke="#000000" stroke-width="0.0" stroke-opacity="1.0" stroke-linecap="round" stroke-linejoin="round"  filling="0" d="M159.8930 424.3225 C159.7977 424.2725 159.7030 424.2200 159.6073 424.1700 C157.1960 422.9350 154.5347 422.1800 152.0140 421.1950 C147.9035 419.5975 143.8935 417.7550 140.0058 415.6750 C100.0130 394.5000 73.5602 367.3800 59.1670 323.8950 C55.6680 313.3225 53.6015 302.3425 52.3500 291.2900 C50.1540 271.9000 50.0730 252.9500 59.0395 235.0827 C63.5405 226.1147 67.8690 219.5408 76.1475 213.6142 C78.0755 212.2337 80.1175 210.7962 82.3975 210.0675 C83.4238 209.7395 85.1663 209.2750 86.1942 209.6125 C87.2035 210.4845 87.2737 212.1082 87.3553 213.3640 C88.3585 228.8550 91.1415 250.1325 99.8100 263.1400 C103.3528 268.4550 108.3755 273.2475 113.1250 277.5075 C116.3358 280.3850 120.1170 282.8000 123.7330 285.1375 C163.5773 310.9075 231.6552 316.5800 278.1600 313.7900 C315.6125 311.5400 356.2650 303.7300 387.7275 282.2250 C390.6650 280.2150 393.6625 278.2400 396.3925 275.9550 C400.0525 272.8875 403.7475 268.9725 406.9175 265.3875 C410.2175 261.6525 413.1950 257.1775 415.2700 252.6425 C419.8575 242.6228 422.8100 225.6402 424.2075 214.7080 C424.3550 213.5493 424.7375 209.1358 426.3050 209.0582 C430.7275 208.8392 438.7300 215.1635 441.7175 218.1890 C445.9150 222.4408 449.2975 227.5920 452.0075 232.8945 C459.0200 246.6087 461.2175 260.5550 461.0400 275.8300 C460.4100 317.4975 443.5150 357.2675 413.9650 386.6475 C401.7500 398.5550 386.6150 408.5975 371.3125 416.0525 C368.0950 417.6200 364.8550 419.2675 361.5775 420.6975 C359.4250 421.6350 353.7750 423.2200 352.2800 424.5325 C353.3675 427.0575 353.9075 429.3025 354.0525 432.0525 C353.5725 432.8650 353.1100 433.6725 352.5475 434.4300 C351.6075 431.9225 350.9450 429.1425 349.4675 426.8975 C349.4075 426.8075 349.3500 426.7150 349.2900 426.6225 C347.8850 426.9050 346.1350 427.6100 344.7550 427.6650 C324.7825 434.9850 294.7075 439.8700 273.2500 440.9200 C266.7000 441.2400 260.0525 441.0425 253.4925 441.0400 C248.1248 441.0375 242.6642 441.2025 237.3073 440.8925 C225.1317 440.0700 213.0152 438.5350 201.0197 436.2950 C194.0865 435.0200 187.2125 433.4425 180.4175 431.5675 C176.0307 430.3075 171.7335 428.7500 167.3405 427.5125 C163.3777 427.0925 162.4012 428.6600 159.9375 428.6025 C159.2587 428.5875 159.1665 428.5200 158.7310 428.0675 C158.5665 426.6775 159.2897 425.5250 159.8930 424.3225 Z"></path>
<path id="" fill="#3e4347" fill-opacity="1.0" stroke="#000000" stroke-width="0.0" stroke-opacity="1.0" stroke-linecap="round" stroke-linejoin="round"  filling="0" d="M352.2800 424.5325 C353.3675 427.0575 353.9075 429.3025 354.0525 432.0525 C353.5725 432.8650 353.1100 433.6725 352.5475 434.4300 C351.6075 431.9225 350.9450 429.1425 349.4675 426.8975 C349.4075 426.8075 349.3500 426.7150 349.2900 426.6225 C347.8850 426.9050 346.1350 427.6100 344.7550 427.6650 C346.7075 426.1400 349.9975 425.7175 352.2800 424.5325 Z"></path>
<path id="" fill="#3e4347" fill-opacity="1.0" stroke="#000000" stroke-width="0.0" stroke-opacity="1.0" stroke-linecap="round" stroke-linejoin="round"  filling="0" d="M159.8930 424.3225 C162.6110 425.0575 164.7298 426.6975 167.3405 427.5125 C163.3777 427.0925 162.4012 428.6600 159.9375 428.6025 C159.2587 428.5875 159.1665 428.5200 158.7310 428.0675 C158.5665 426.6775 159.2897 425.5250 159.8930 424.3225 Z"></path>
<path id="" fill="#e6eded" fill-opacity="1.0" stroke="#000000" stroke-width="0.0" stroke-opacity="1.0" stroke-linecap="round" stroke-linejoin="round"  filling="0" d="M227.1345 51.0960 C230.1693 50.5412 233.4770 51.1817 236.5120 51.4767 C246.7063 52.4668 256.8225 53.2985 266.5125 56.9455 C272.2275 59.0957 279.1350 62.5092 281.8175 68.3715 C289.3350 65.9073 297.9100 64.3987 305.7975 63.9953 C324.4400 63.0415 343.9550 68.5110 357.4625 81.7798 C360.2250 84.4928 362.7250 87.2363 364.7125 90.5820 C366.5375 93.6550 368.4275 97.1225 369.5025 100.5330 C369.8325 101.5878 370.1050 105.2035 370.5100 105.8002 C370.5125 105.8012 371.3675 105.9105 371.4075 105.9147 C374.4325 106.2462 376.9525 106.5332 379.9075 107.4283 C388.3150 109.9755 396.7675 115.8300 403.2325 121.7823 C405.5325 123.9020 407.5025 126.3760 409.4825 128.7908 C416.5775 137.4480 421.7925 146.8723 419.7525 158.4097 C418.9600 162.8913 416.8225 166.7525 417.0150 171.4247 C421.8300 176.3297 429.2625 177.7610 432.5175 184.2448 C436.3450 191.8675 433.2175 201.9128 430.7550 209.4630 C433.9150 212.1557 438.0550 213.9702 440.6875 217.2010 C440.8975 224.9303 440.7975 232.6930 440.8075 240.4272 C440.8150 246.0477 441.0700 251.8125 440.5850 257.4075 C440.2725 260.9850 439.6575 264.6275 438.5975 268.0625 C436.5750 274.6125 432.4200 281.1125 427.8800 286.1975 C420.9900 293.9175 412.0575 299.4525 402.9050 304.0375 C368.6025 321.2175 325.6750 326.5675 287.6875 328.5850 C287.1475 328.6350 286.6075 328.6750 286.0650 328.7050 C276.5850 329.1375 266.9925 329.0075 257.5000 329.0175 C247.2080 329.0275 236.8333 329.1725 226.5497 328.7100 C184.5508 326.8225 119.7943 319.1225 87.8070 289.9925 C73.3925 276.8650 71.1935 263.8025 71.2450 245.3555 C71.2710 236.0315 71.7095 226.5267 71.2498 217.2247 C74.5778 214.5400 78.0990 212.2845 81.2490 209.3492 C79.8800 204.7820 78.4738 200.1378 78.0692 195.3670 C77.4370 187.9128 79.1275 180.8790 86.1220 176.9775 C89.8865 174.8775 93.3995 173.5002 96.2637 170.1385 C93.9453 162.1003 91.7295 160.5862 91.8965 151.4400 C92.1187 139.2645 101.6715 128.3245 110.0072 120.4000 C116.1385 114.5710 126.2217 107.4905 134.7450 106.0880 C137.0918 105.7018 139.5285 105.8585 141.8970 105.9178 C142.0835 96.9575 147.1142 87.2475 152.5100 80.3123 C165.4527 63.6775 188.7578 55.4835 208.9987 52.6765 C215.0137 51.8423 221.0975 51.8215 227.1345 51.0960 Z"></path>
<path id="" fill="#d2d8d9" fill-opacity="1.0" stroke="#000000" stroke-width="0.0" stroke-opacity="1.0" stroke-linecap="round" stroke-linejoin="round"  filling="0" d="M270.6325 162.0867 C270.7375 162.0715 270.8425 162.0510 270.9475 162.0408 C278.7600 161.2847 288.1000 161.6158 294.5450 166.5975 C297.1375 168.6022 298.8350 171.3000 299.1900 174.5938 C299.7350 179.6337 297.5300 183.9328 294.3675 187.6735 C285.2750 198.4255 266.1775 204.8150 252.4850 206.0013 C244.4247 206.0762 235.8952 207.1875 228.9485 202.2487 C225.9235 200.0980 223.6800 197.2930 223.1525 193.5260 C222.5562 189.2677 224.5038 185.2612 227.0605 181.9975 C236.3245 170.1707 256.1175 163.7640 270.6325 162.0867 Z"></path>
<path id="" fill="#d2d8d9" fill-opacity="1.0" stroke="#000000" stroke-width="0.0" stroke-opacity="1.0" stroke-linecap="round" stroke-linejoin="round"  filling="0" d="M385.8300 151.8687 C390.1100 151.8805 394.2850 152.0700 397.8450 154.7798 C400.2225 156.5887 401.8050 159.0445 402.1325 162.0365 C402.9525 169.4785 399.8675 174.9265 395.4550 180.6078 C388.4550 189.6212 373.8350 198.5360 363.1350 202.4175 C358.3400 204.1432 353.3625 205.3158 348.3000 205.9120 C344.0800 206.0033 338.7050 204.7702 335.5325 201.8425 C333.2025 199.6940 332.0475 196.6395 331.9550 193.5075 C331.7375 186.1210 337.1700 178.4438 342.0200 173.3530 C350.1325 164.8370 366.5875 155.2845 377.9325 152.6755 C380.5700 152.0690 383.1350 151.9277 385.8300 151.8687 Z"></path>
<path id="" fill="#d2d8d9" fill-opacity="1.0" stroke="#000000" stroke-width="0.0" stroke-opacity="1.0" stroke-linecap="round" stroke-linejoin="round"  filling="0" d="M202.1528 262.0775 C217.8150 260.5950 235.4317 265.1125 248.6940 273.5450 C254.3325 277.1325 260.4000 282.6875 261.7775 289.5475 C262.4300 292.8100 261.1675 296.1725 259.2875 298.8250 C256.2250 303.1500 250.4525 304.9350 245.4775 305.7575 C230.4855 307.9550 210.8197 302.2400 198.3275 293.7725 C192.8360 290.0500 186.4735 284.3075 185.2940 277.4050 C184.7945 274.4825 185.8640 271.5225 187.5625 269.1600 C190.7300 264.7550 197.0323 262.8300 202.1528 262.0775 Z"></path>
<path id="" fill="#d2d8d9" fill-opacity="1.0" stroke="#000000" stroke-width="0.0" stroke-opacity="1.0" stroke-linecap="round" stroke-linejoin="round"  filling="0" d="M304.6800 246.3535 C304.9150 246.3105 304.9750 246.2920 305.2475 246.2880 C314.1675 246.1560 325.7500 253.0675 332.2975 258.8150 C341.6000 266.9825 355.3450 281.1800 355.8850 294.0275 C356.0400 297.7350 354.5800 302.1100 351.9750 304.7675 C349.5500 307.2425 347.0075 307.9925 343.6650 308.0550 C332.8225 308.1750 326.3125 304.7525 317.6550 298.3200 C306.9875 290.3950 294.1200 275.6900 292.1925 262.2075 C291.6125 258.1475 292.0250 254.3250 294.6225 250.9650 C297.2850 247.5202 300.6100 246.8150 304.6800 246.3535 Z"></path>
<path id="" fill="#d2d8d9" fill-opacity="1.0" stroke="#000000" stroke-width="0.0" stroke-opacity="1.0" stroke-linecap="round" stroke-linejoin="round"  filling="0" d="M142.2258 224.0930 C147.3595 223.5835 153.3163 223.9592 157.6225 227.1003 C160.3438 229.0853 162.7450 232.1953 163.1585 235.5915 C163.8200 241.0240 160.8575 246.3000 157.6850 250.4925 C148.4965 262.6325 127.6510 272.8900 112.6915 274.9825 C106.8290 275.1400 100.3400 275.5925 95.3647 271.9000 C92.9983 270.1425 91.4142 267.7825 91.0437 264.8300 C90.3553 259.3425 92.2728 254.4625 95.5690 250.1625 C105.5640 237.1295 125.8687 226.1925 142.2258 224.0930 Z"></path>
<path id="" fill="#d2d8d9" fill-opacity="1.0" stroke="#000000" stroke-width="0.0" stroke-opacity="1.0" stroke-linecap="round" stroke-linejoin="round"  filling="0" d="M123.9272 140.0675 C134.2500 138.6730 148.8703 145.8815 157.4715 151.3152 C166.7982 157.2072 178.0600 166.8358 180.5270 178.0872 C181.2778 181.5115 180.5970 184.7052 178.6545 187.6033 C176.0242 191.5267 171.4365 192.8640 167.0582 193.7160 C159.5448 195.0395 147.7115 190.6142 141.1195 187.0983 C136.8087 184.7990 132.7103 181.9355 128.6862 179.1650 C120.9755 173.8565 111.8900 164.5435 110.2140 155.0247 C109.6355 151.7388 109.9960 148.5963 112.0005 145.8288 C114.8115 141.9483 119.4727 140.8228 123.9272 140.0675 Z"></path>
<path id="" fill="#d2d8d9" fill-opacity="1.0" stroke="#000000" stroke-width="0.0" stroke-opacity="1.0" stroke-linecap="round" stroke-linejoin="round"  filling="0" d="M364.1425 228.0782 C366.2800 227.7415 368.7200 227.8613 370.8950 227.8692 C385.3775 227.9220 401.9975 232.2145 413.8200 240.7993 C418.0025 243.8378 422.2375 247.8958 423.0400 253.2600 C423.5250 256.5025 423.1850 259.7650 421.1100 262.4250 C416.9300 267.7825 411.0425 269.5900 404.5625 270.4025 C390.1900 272.1425 368.9550 266.4700 357.0800 258.4850 C351.7000 254.8675 347.3600 250.4925 346.2250 243.8465 C345.7675 241.1732 346.4000 238.7805 347.9925 236.5977 C351.7225 231.4888 358.0800 228.9550 364.1425 228.0782 Z"></path>
<path id="" fill="#d2d8d9" fill-opacity="1.0" stroke="#000000" stroke-width="0.0" stroke-opacity="1.0" stroke-linecap="round" stroke-linejoin="round"  filling="0" d="M298.1775 89.0908 C308.5350 87.1365 330.1775 95.6673 338.7525 101.4023 C346.0875 106.3075 353.9325 112.3542 355.5875 121.6233 C356.1000 124.4935 355.5225 127.3885 353.7625 129.7305 C350.0825 134.6263 344.7650 136.1873 338.9550 136.9742 C327.0125 137.4588 315.9800 133.5437 305.4725 128.2920 C302.1175 126.6160 298.8150 124.9427 295.7225 122.8083 C289.3200 118.3918 282.5025 112.0407 281.2025 103.9293 C280.7175 100.9133 282.0175 98.1508 283.7925 95.7913 C287.4425 90.9450 292.4875 89.8637 298.1775 89.0908 Z"></path>
<path id="" fill="#d2d8d9" fill-opacity="1.0" stroke="#000000" stroke-width="0.0" stroke-opacity="1.0" stroke-linecap="round" stroke-linejoin="round"  filling="0" d="M227.5440 66.0920 C233.5948 65.2003 242.2745 65.7830 247.4368 69.4333 C250.2400 71.4157 252.5100 74.3925 253.0450 77.8435 C253.7000 82.0652 251.5025 86.6762 249.0855 90.0195 C239.7697 102.9073 218.7133 110.0520 203.5582 112.4847 L203.1105 112.5400 C196.5273 113.3272 188.4742 112.9088 183.0540 108.5865 C180.5275 106.5715 178.6568 103.8695 178.3540 100.5810 C177.9068 95.7207 180.8175 90.7728 183.7495 87.1367 C192.8460 75.8562 213.2975 67.6925 227.5440 66.0920 Z"></path>
</svg>