<svg xmlns="http://www.w3.org/2000/svg" viewBox="0 0 512 512" height="512.0px" width="512.0px">
<path id="" fill="#937150" fill-opacity="1.0" stroke="#000000" stroke-width="0.0" stroke-opacity="1.0" stroke-linecap="round" stroke-linejoin="round"  filling="0" d="M210.9438 280.0025 L261.5350 280.0150 C274.7375 280.0550 287.9400 280.0300 301.1425 279.9350 C300.8975 284.4600 301.3000 288.9850 301.3025 293.5100 L301.3025 328.2500 L301.2650 460.7100 C299.1925 461.4300 286.1200 460.9000 283.1175 460.8950 L235.4902 460.9050 C227.3658 460.9075 219.0490 460.4775 210.9543 460.9700 C211.1420 452.8000 210.9760 444.5850 210.9763 436.4075 L210.9755 388.7550 L210.9438 280.0025 Z"></path>
<path id="" fill="#719f3a" fill-opacity="1.0" stroke="#000000" stroke-width="0.0" stroke-opacity="1.0" stroke-linecap="round" stroke-linejoin="round"  filling="0" d="M172.9937 326.2475 C175.3305 326.1550 177.9507 326.8500 180.2493 327.2700 C185.4960 328.2250 190.7325 329.4075 196.0005 330.2175 C205.8022 331.7275 215.5985 332.4275 225.4577 333.3350 C230.9597 333.8400 236.5253 334.7200 242.0417 334.9225 C247.3190 335.1150 252.6300 335.0125 257.9100 335.0050 C262.1375 335.0000 266.4325 335.1325 270.6525 334.8900 C276.5650 334.5475 282.4775 333.7375 288.3800 333.2525 C295.6075 332.6600 302.8050 332.1550 309.9975 331.1625 C315.5125 330.4025 321.0050 329.4725 326.4625 328.3725 C330.5300 327.5825 334.7200 326.5325 338.8600 326.2575 L339.1725 326.2400 C343.4875 328.5700 347.4050 331.8900 351.3850 334.7600 C358.0875 339.6000 364.8450 344.3575 371.6600 349.0375 C386.6700 359.3725 401.6650 369.7825 416.8325 379.8850 L436.4975 392.9550 C441.0600 396.0100 446.3050 398.9550 450.0475 402.9825 C445.8625 404.3850 441.5125 405.1250 437.1900 405.9625 C432.2150 406.9475 427.2350 407.9025 422.2475 408.8275 C407.6275 411.5575 392.9475 413.9700 378.2200 416.0575 C367.0600 417.5900 355.8675 418.7375 344.6875 420.1050 C335.5375 420.9150 326.4300 422.0525 317.2575 422.6900 C313.7125 422.9350 310.1550 422.9200 306.6125 423.1650 C303.4075 423.3850 300.2050 423.8100 296.9925 423.9200 C293.3600 424.0450 289.7175 423.9025 286.0850 424.0650 C282.3350 424.2300 278.6275 424.8150 274.8675 424.9175 C267.6825 425.1150 260.4575 424.9675 253.2700 424.9650 C246.8050 424.9625 240.2812 425.1300 233.8215 424.8650 C230.5505 424.7300 227.3132 424.1725 224.0443 424.0375 C179.7160 422.3575 135.5765 417.3550 91.9973 409.0700 C87.6545 408.2200 66.3362 404.9625 63.7117 403.0375 L63.6732 402.5775 C64.3185 400.7825 66.0788 399.6075 67.5748 398.5350 C75.4688 392.8825 83.6973 387.6175 91.7665 382.2100 L136.3730 352.1000 C145.4660 345.8650 154.4085 339.3750 163.4523 333.0625 C166.6050 330.8600 169.6458 328.1100 172.9937 326.2475 Z"></path>
<path id="" fill="#76aa3f" fill-opacity="1.0" stroke="#000000" stroke-width="0.0" stroke-opacity="1.0" stroke-linecap="round" stroke-linejoin="round"  filling="0" d="M255.8100 201.7587 C257.0400 201.7563 258.0175 202.2312 259.0075 202.9182 C265.5225 207.4405 271.4250 212.8300 277.7125 217.6475 C296.6225 232.1378 315.3775 246.8285 333.9750 261.7175 C353.5900 276.9825 372.9975 292.5100 392.2000 308.2925 C399.2100 313.9850 407.4625 319.6250 414.0275 325.6775 C414.9725 326.5500 416.3900 327.8350 416.4525 329.1825 C413.8900 332.3375 368.1050 340.6575 361.0450 342.0825 C358.2525 340.6300 355.6050 338.3700 353.0475 336.5150 L339.9025 326.9750 C333.8500 327.0025 327.8150 328.4900 321.8850 329.5625 C315.7975 330.6250 309.6950 331.5900 303.5775 332.4575 C299.6800 333.0125 295.7650 333.0350 291.8525 333.3875 C286.3550 333.8825 280.8350 334.7025 275.3200 334.9725 C268.9725 335.2825 262.4875 335.0300 256.1250 335.0200 C249.5850 335.0250 242.9420 335.2850 236.4162 334.9475 C228.3475 334.5300 220.2563 333.4300 212.2348 332.4825 C208.1633 332.0000 204.0720 331.7350 200.0018 331.2275 C194.2660 330.5075 177.3435 325.9975 172.8622 327.3900 C167.6990 328.9925 157.0412 339.2400 151.5692 342.2125 C151.5047 342.2475 151.4393 342.2800 151.3743 342.3150 C143.9023 340.6575 97.3907 331.6875 95.6815 329.6050 C95.5977 329.0225 95.5680 328.8050 95.8163 328.2475 C96.3265 327.0975 97.4492 326.0525 98.3983 325.2550 C101.7100 322.4750 105.2560 319.9800 108.6445 317.2950 L129.1183 300.8675 C156.4138 278.7100 184.0040 256.9175 211.8820 235.4987 L233.1000 218.8777 C237.8472 215.1073 251.2725 203.5152 255.8100 201.7587 Z"></path>
<path id="" fill="#7cb545" fill-opacity="1.0" stroke="#000000" stroke-width="0.0" stroke-opacity="1.0" stroke-linecap="round" stroke-linejoin="round"  filling="0" d="M201.5363 181.1315 L271.3275 181.1138 L295.3850 181.0830 C300.7250 181.0717 306.1025 180.9245 311.4350 181.2955 C314.3650 183.2563 316.8925 186.3085 319.3900 188.8055 L333.4275 202.8427 L364.9750 234.4258 C370.7625 240.2253 376.6950 245.9427 382.3275 251.8925 C383.5675 253.2025 384.7575 254.5050 385.6850 256.0600 C379.8100 258.3300 373.7075 260.1300 367.6250 261.7525 C362.7125 263.0625 357.7875 264.4050 352.8525 265.6300 C350.7875 266.1425 346.8425 266.4600 345.1175 267.5025 C344.1875 268.0625 344.4450 269.0450 343.6125 269.6225 C338.5975 267.0650 331.7075 260.3725 326.9800 256.6625 C314.1100 246.5605 301.1050 236.6142 288.3400 226.3788 C284.9300 223.2498 280.8850 220.7462 277.1850 217.9720 C273.9700 215.5603 270.9875 212.8435 267.8375 210.3460 C264.2025 207.4637 260.3375 204.7970 256.9200 201.6610 C252.5950 203.2925 241.4730 212.9193 237.3445 216.2175 L219.8587 229.9577 L189.7903 253.4200 C183.1330 258.6000 176.3380 263.6400 169.9512 269.1525 C169.2332 268.6025 168.5773 268.1800 167.7247 267.8625 C164.0070 266.4775 159.9182 265.7725 156.0723 264.7725 C148.6752 262.8900 141.3168 260.8575 134.0013 258.6800 C131.7608 258.0125 128.5417 257.4600 126.6992 256.0300 C126.6873 255.4300 126.9570 255.0625 127.2945 254.5900 C129.7527 251.1525 133.3130 248.1418 136.3073 245.1512 L152.5370 228.9420 L183.0347 198.4362 C188.2522 193.2173 193.3335 187.7253 198.7725 182.7448 C199.6767 181.9167 200.3078 181.3497 201.5363 181.1315 Z"></path>
<path id="" fill="#83bf4f" fill-opacity="1.0" stroke="#000000" stroke-width="0.0" stroke-opacity="1.0" stroke-linecap="round" stroke-linejoin="round"  filling="0" d="M255.3250 52.6747 C255.6575 52.6877 256.0525 52.6828 256.3825 52.7560 C257.6925 53.0457 258.4450 54.0038 259.2575 54.9953 C263.9325 60.6970 268.1750 66.8710 272.6125 72.7660 L298.8625 107.4000 L324.0675 140.6687 C330.4425 148.8705 336.7300 157.1413 342.9250 165.4792 C346.5125 170.2482 350.2025 174.9718 353.6150 179.8655 C344.1500 185.9648 332.7250 188.3970 322.6700 193.2112 C319.3150 190.4300 317.4950 185.9440 313.6875 183.6873 C306.4700 179.4113 301.5075 181.6653 294.0075 181.8755 C291.0825 181.9575 288.2150 181.0533 285.2975 181.0200 C282.2500 180.9852 279.2475 181.7905 276.2325 181.7962 C274.2525 181.8000 272.3100 181.0222 270.3275 181.0997 C266.5000 181.2495 263.0825 182.1467 259.2200 181.5900 C252.9875 180.4738 247.3460 181.9310 241.1758 182.0092 C227.2383 182.1857 213.2820 181.9933 199.3423 182.0380 C196.7538 186.1777 193.1082 189.8165 189.4438 193.0275 C182.1078 190.1432 174.7360 187.4545 167.5013 184.3105 C164.4612 182.9895 161.3477 181.7287 158.5022 180.0188 C158.5200 179.9845 158.5388 179.9510 158.5555 179.9162 C160.3190 176.2648 163.6685 172.7235 166.1223 169.4577 L185.0312 144.5742 L234.7935 78.8873 C240.8217 70.9565 246.6277 62.8273 252.7925 55.0038 C253.5575 54.0325 254.2425 53.2957 255.3250 52.6747 Z"></path>
</svg>