<svg xmlns="http://www.w3.org/2000/svg" viewBox="0 0 512 512" height="512.0px" width="512.0px">
<path id="" fill="#42ade2" fill-opacity="1.0" stroke="#000000" stroke-width="0.0" stroke-opacity="1.0" stroke-linecap="round" stroke-linejoin="round"  filling="0" d="M57.5658 89.2718 C60.3783 89.1750 63.2093 89.6998 65.9983 90.0403 C69.7845 90.4973 73.5750 90.9170 77.3695 91.3002 C86.2962 92.1470 95.1783 93.2840 104.0850 94.3030 L148.6947 99.3777 L308.0000 116.7555 L361.0950 122.5105 C369.9550 123.4745 378.8050 124.6575 387.6950 125.3142 C387.9800 134.9162 389.3325 144.3525 390.3250 153.8970 C391.7575 167.4505 393.1000 181.0130 394.3575 194.5838 C400.1950 250.2950 406.3200 305.9775 412.7300 361.6275 L420.1600 428.3475 C420.9450 435.9325 422.2625 443.5700 422.7450 451.1650 C422.8450 452.7375 422.9075 454.4875 422.1600 455.9200 C420.9300 458.2675 418.5675 459.3425 416.1850 460.1600 C406.5975 462.2700 393.3450 459.7675 386.2800 452.5900 C381.4850 447.7225 379.3550 440.9275 376.4450 434.9025 C371.9650 425.6175 367.6775 416.2875 363.3875 406.9125 L304.6650 280.7075 C299.7150 270.1400 294.8975 259.4700 290.1400 248.8105 C288.1175 244.2793 286.5975 239.1237 283.9550 234.9263 C283.6300 234.4120 283.2600 233.8322 282.7625 233.4695 C279.9325 231.4120 276.1500 229.9832 272.9925 228.4393 C265.6975 224.8703 258.3350 221.3972 250.9700 217.9680 C248.4255 216.7827 245.7790 215.7990 243.2555 214.5725 C240.1780 213.0765 237.3658 211.0615 234.2838 209.5683 C181.2888 184.1873 128.0885 159.2372 74.6880 134.7210 C64.7152 130.0875 57.3938 126.8183 53.4640 115.8790 C51.1350 109.3952 49.7518 99.8855 52.9277 93.4398 C53.9750 91.3150 55.3467 90.0740 57.5658 89.2718 Z"></path>
<path id="" fill="#42ade2" fill-opacity="1.0" stroke="#000000" stroke-width="0.0" stroke-opacity="1.0" stroke-linecap="round" stroke-linejoin="round"  filling="0" d="M62.1880 322.0300 C67.9355 321.6825 73.9565 322.7075 79.6655 323.3275 L101.2045 325.6250 C118.0425 327.4525 134.8958 329.1375 151.7625 330.6775 C161.1367 331.5200 170.6025 332.6400 180.0095 332.9525 C179.8678 341.5050 181.1750 350.9200 181.8618 359.4950 C183.5795 379.5275 185.4365 399.5450 187.4328 419.5500 C188.2750 428.2000 189.5473 436.8500 190.0253 445.5225 C190.1107 447.0775 190.3915 449.5425 189.6967 450.9600 C189.3885 451.5875 188.8777 451.6575 188.2823 451.8850 C184.5425 452.0775 180.4300 451.5775 177.5945 448.8750 C174.4763 445.9025 171.0480 436.2000 168.9620 431.8850 L145.1445 382.1125 C143.7195 379.1450 142.9113 375.4850 141.0520 372.7850 C140.2802 371.6650 138.8895 370.8950 137.6975 370.2900 C132.5005 367.6500 126.8935 365.6525 121.6110 363.1600 C109.0447 357.2375 96.6410 350.9375 84.0683 345.0275 C78.3838 342.3550 66.5600 337.8275 62.2798 333.7975 C60.7777 332.3825 60.1008 328.9975 60.1700 326.9975 C60.2330 325.1875 60.8232 323.2700 62.1880 322.0300 Z"></path>
<path id="" fill="#dae3ea" fill-opacity="1.0" stroke="#000000" stroke-width="0.0" stroke-opacity="1.0" stroke-linecap="round" stroke-linejoin="round"  filling="0" d="M436.2900 51.8700 C441.3800 51.8477 445.9150 52.0230 450.3675 54.7527 C454.8425 57.4980 458.4175 62.1280 459.6125 67.2718 C460.6575 71.7685 460.5125 79.3652 459.2750 83.7885 C458.1225 87.9040 456.2175 91.8188 454.3575 95.6527 C446.8825 111.0508 437.0275 124.6288 427.0000 138.4052 C420.6400 147.1413 414.3250 155.8895 407.5900 164.3465 C404.6275 168.0865 401.6350 171.8027 398.6125 175.4948 C396.7200 177.7608 394.3950 179.9175 392.8800 182.4505 C392.8275 182.5392 392.7775 182.6300 392.7250 182.7198 C392.8750 184.0465 392.9125 185.3772 392.9675 186.7108 C391.9325 186.8680 390.9125 186.8943 389.8700 186.9280 C386.3875 190.6905 383.1300 194.6597 379.7300 198.4950 C376.4625 202.1812 373.2275 205.9668 369.8700 209.5670 C367.8475 211.7388 365.6950 213.7897 363.6850 215.9755 C361.7550 218.0770 359.9725 220.3138 358.0350 222.4102 C353.0500 227.8020 347.6600 232.9113 342.4675 238.1060 C335.2900 245.2847 328.1775 252.5525 320.8900 259.6150 C318.2850 262.1400 315.4075 264.3450 312.7700 266.8250 C310.3450 269.1075 308.1250 271.7000 305.6050 273.8650 C303.6400 275.5550 301.2575 276.7125 299.3150 278.4225 C297.5975 279.9325 295.9975 281.5750 294.2775 283.0825 C281.7825 294.1075 268.9225 304.7100 255.7150 314.8700 C246.8420 321.7975 237.9085 328.7925 228.6698 335.2350 C220.9305 340.6175 212.9843 345.6950 204.8488 350.4575 C199.6832 353.5450 194.4962 356.3050 189.1142 358.9875 C186.6200 360.2300 184.1467 361.5825 181.5015 362.4800 L180.2265 356.6900 C180.0898 355.7175 180.0225 354.7300 179.9320 353.7500 C177.7513 354.3450 175.7233 354.8725 173.4460 354.8550 C168.3438 354.8150 163.5690 352.2900 160.0450 348.7100 C155.0710 343.6575 155.0022 338.5000 155.0635 331.8450 L151.0130 331.7475 C150.9725 331.2900 150.9453 330.8325 150.9317 330.3750 C150.7733 324.6450 154.4620 319.7075 156.9980 314.8325 C163.6680 302.0100 171.7832 290.0825 180.1760 278.3425 C190.7383 263.5450 201.9120 249.1955 213.6682 235.3290 C218.4935 229.6228 223.3155 223.8788 228.2693 218.2852 C229.8602 216.4888 231.8525 214.9060 233.3203 213.0327 C234.1808 211.9345 234.0235 210.1475 234.8815 209.1030 C236.3793 207.2798 239.6470 204.9745 241.5420 203.0782 C245.0215 199.5960 248.0493 195.7182 251.4400 192.1613 C270.9050 172.0280 291.0650 152.5768 311.8800 133.8427 C316.7675 129.5103 321.6550 125.0545 326.7575 120.9798 C330.1175 118.2953 333.7525 115.9815 337.1175 113.2650 C359.5200 95.1803 382.0550 77.2935 407.1125 62.9633 C414.1025 58.9665 421.4925 54.7795 429.3275 52.6913 C431.6625 52.0688 433.8800 51.9227 436.2900 51.8700 Z"></path>
<path id="" fill="#abb8bf" fill-opacity="1.0" stroke="#000000" stroke-width="0.0" stroke-opacity="1.0" stroke-linecap="round" stroke-linejoin="round"  filling="0" d="M163.9550 332.0600 C164.0892 331.9800 164.2250 331.9025 164.3575 331.8225 C167.5542 329.8425 171.1828 325.0075 174.0640 322.2800 C176.3318 320.1350 178.8420 318.2225 181.1785 316.1500 C188.6150 309.5475 212.5448 287.6450 222.4480 288.7650 C222.9902 289.2025 223.2260 289.6600 223.3078 290.3600 C224.2883 298.7575 200.2890 326.0600 194.3980 332.8700 C189.7505 338.2450 184.7637 343.3625 180.0768 348.7100 C180.0658 350.4575 180.1450 352.1300 180.3497 353.8675 C178.0638 354.1250 175.9305 355.0050 173.6725 355.2750 C171.6842 356.0075 168.6568 360.1150 166.9832 361.6700 C164.8607 363.6400 162.5235 365.3800 160.3728 367.3225 C158.2428 369.2475 156.3145 371.3875 154.1938 373.3225 C145.8783 380.9125 126.5023 397.7850 116.3322 400.6825 C115.2793 400.9825 113.7180 401.2800 112.7590 400.5650 C112.2370 400.1750 112.0120 399.5775 111.9600 398.9500 C111.0623 388.0875 146.7968 350.3675 155.0160 341.2500 C154.9303 337.8500 154.9800 334.4425 154.9245 331.0425 C157.9205 331.5775 160.9110 331.9625 163.9550 332.0600 Z"></path>
<path id="" fill="#42ade2" fill-opacity="1.0" stroke="#000000" stroke-width="0.0" stroke-opacity="1.0" stroke-linecap="round" stroke-linejoin="round"  filling="0" d="M154.9245 331.0425 C157.9205 331.5775 160.9110 331.9625 163.9550 332.0600 C162.9530 333.8000 156.7400 340.0650 155.0160 341.2500 C154.9303 337.8500 154.9800 334.4425 154.9245 331.0425 Z"></path>
<path id="" fill="#44ade1" fill-opacity="1.0" stroke="#000000" stroke-width="0.0" stroke-opacity="1.0" stroke-linecap="round" stroke-linejoin="round"  filling="0" d="M173.6725 355.2750 C174.3405 353.3925 178.3200 349.7900 180.0768 348.7100 C180.0658 350.4575 180.1450 352.1300 180.3497 353.8675 C178.0638 354.1250 175.9305 355.0050 173.6725 355.2750 Z"></path>
<path id="" fill="#3e4347" fill-opacity="1.0" stroke="#000000" stroke-width="0.0" stroke-opacity="1.0" stroke-linecap="round" stroke-linejoin="round"  filling="0" d="M442.0600 74.4642 C442.6925 74.8127 443.0725 75.3405 443.4950 75.9113 C447.4750 81.2747 448.1925 90.1960 447.3100 96.6045 C446.9725 99.0585 446.4550 101.4985 445.4625 103.7780 C444.4200 106.1780 435.4275 121.2617 433.5800 122.5082 C433.1475 122.8018 433.3425 122.7233 432.7675 122.6395 C432.3600 121.6130 432.4550 120.5255 432.4575 119.4375 C432.3250 113.2122 431.8725 108.0543 429.4050 102.2410 C428.6400 100.4365 427.7900 98.5255 426.7350 96.8723 C425.9025 95.5680 424.7425 94.4065 424.0575 93.0188 C423.9025 92.7043 423.8900 92.4590 423.9325 92.1175 C425.6600 88.8675 438.7175 76.3635 442.0600 74.4642 Z"></path>
<path id="" fill="#3e4347" fill-opacity="1.0" stroke="#000000" stroke-width="0.0" stroke-opacity="1.0" stroke-linecap="round" stroke-linejoin="round"  filling="0" d="M419.5650 64.1110 C424.5150 64.1523 429.0875 65.0305 433.6475 66.9658 C435.0700 67.5692 436.6400 68.2347 437.2575 69.7493 C436.5850 72.7617 422.5700 86.4268 419.4575 88.4108 C417.2850 86.6835 414.9150 85.0835 412.4175 83.8668 C404.4700 79.4232 397.6250 79.8597 389.0350 79.3030 C389.3675 78.8775 389.7075 78.4612 390.0625 78.0550 C392.2325 75.5887 406.8000 66.9925 410.1825 65.7885 C413.1825 64.7207 416.4050 64.3240 419.5650 64.1110 Z"></path>
<path id="" fill="#abb8bf" fill-opacity="1.0" stroke="#000000" stroke-width="0.0" stroke-opacity="1.0" stroke-linecap="round" stroke-linejoin="round"  filling="0" d="M429.3775 357.6925 C430.6275 357.7750 431.3000 358.0425 432.3025 358.7925 C434.1350 360.1600 442.2525 368.0300 442.2275 370.0475 C442.2175 370.9425 441.3675 372.0050 440.8375 372.6650 C439.0200 374.9225 436.7175 376.9475 434.6625 378.9975 L422.9500 390.6575 C421.3625 392.2925 419.5075 394.6975 417.2700 395.3200 C416.7675 395.2350 416.6575 395.2575 416.3600 394.8025 C414.8750 392.5250 413.4850 375.3325 414.2375 372.5400 C414.6425 371.0375 427.4575 358.8075 429.3775 357.6925 Z"></path>
<path id="" fill="#acb8bf" fill-opacity="1.0" stroke="#000000" stroke-width="0.0" stroke-opacity="1.0" stroke-linecap="round" stroke-linejoin="round"  filling="0" d="M142.1478 69.6227 C144.1277 69.9110 152.2965 78.4475 153.9395 80.3470 C154.5000 80.9952 155.2527 81.7972 155.1808 82.7095 C153.7137 85.4860 143.0210 96.0302 140.3002 97.9635 C137.2112 98.1183 134.1610 97.9738 131.0853 97.6953 C127.2300 96.8983 121.6577 97.2957 118.2043 95.5280 C117.9877 95.2090 117.7900 95.0818 117.8365 94.6725 C117.9370 93.7890 118.5753 93.0423 119.1277 92.3830 C122.1945 88.7250 125.9603 85.4155 129.3465 82.0307 C133.4820 77.8968 137.5665 73.2310 142.1478 69.6227 Z"></path>
<path id="" fill="#abb8bf" fill-opacity="1.0" stroke="#000000" stroke-width="0.0" stroke-opacity="1.0" stroke-linecap="round" stroke-linejoin="round"  filling="0" d="M415.3925 259.6800 C415.8350 259.7150 416.2925 259.7550 416.7175 259.8900 C418.6900 260.5250 428.2100 270.1300 429.1750 272.2500 C429.0875 274.6250 414.2875 288.3450 411.6550 290.9650 C410.3825 292.2775 408.3200 294.8825 406.5025 295.2475 C405.8725 295.3725 405.7250 295.3525 405.2225 295.0275 C403.6000 292.2250 402.0225 274.6925 402.2625 271.0275 C407.5375 268.5275 410.3500 262.5800 415.3925 259.6800 Z"></path>
<path id="" fill="#acb8bf" fill-opacity="1.0" stroke="#000000" stroke-width="0.0" stroke-opacity="1.0" stroke-linecap="round" stroke-linejoin="round"  filling="0" d="M239.1463 83.6233 C241.2352 83.9312 247.8975 91.2012 249.7345 93.0415 C250.6750 93.9850 252.1950 95.2943 252.1875 96.6830 C250.7325 99.4753 241.7105 108.3253 239.0200 110.2043 C236.9227 109.7353 234.8743 109.3123 232.7312 109.0970 C230.1000 108.8087 219.7047 108.1100 218.3853 107.0318 C218.0963 106.4503 217.9435 106.0558 218.0115 105.3968 C218.0858 104.6745 218.4492 104.1953 218.8860 103.6458 C221.2770 100.6360 224.4747 97.8965 227.1983 95.1755 C231.0460 91.3310 234.8748 86.9928 239.1463 83.6233 Z"></path>
</svg>