<svg xmlns="http://www.w3.org/2000/svg" viewBox="0 0 512 512" height="512.0px" width="512.0px">
<path id="" fill="#d5aa88" fill-opacity="1.0" stroke="#000000" stroke-width="0.0" stroke-opacity="1.0" stroke-linecap="round" stroke-linejoin="round"  filling="0" d="M74.5658 51.0815 C80.1552 50.6028 87.7647 50.4518 92.2442 54.2578 C94.1430 55.8708 94.8867 57.5115 95.0312 59.9478 C95.4243 66.5818 95.0765 73.4482 95.0760 80.1025 L95.0707 120.8800 L95.0677 245.7970 L95.0680 376.2900 L95.0710 418.2150 C95.0750 424.9625 95.4500 431.9100 95.0820 438.6300 C94.9485 441.0675 94.1953 443.3825 92.5007 445.1875 C90.1640 447.6750 87.3893 448.0100 84.1747 448.0475 C80.1350 448.0275 75.8335 448.4275 71.8280 448.0125 C67.8192 447.5950 65.6113 445.5000 63.2250 442.5000 C63.2140 442.4325 63.2020 442.3650 63.1920 442.2975 C62.6008 438.3575 62.9538 433.9350 62.9568 429.9450 L62.9780 406.7425 L62.9815 325.0000 L62.9807 147.6095 L62.9782 88.7282 C62.9778 79.8985 62.7980 71.0345 62.9325 62.2083 C62.9698 59.7578 63.4115 57.5120 64.9670 55.5363 C67.3432 52.5182 70.9262 51.4960 74.5658 51.0815 Z"></path>
<path id="" fill="#d5aa88" fill-opacity="1.0" stroke="#000000" stroke-width="0.0" stroke-opacity="1.0" stroke-linecap="round" stroke-linejoin="round"  filling="0" d="M427.3825 51.0840 C427.5100 51.0735 427.6375 51.0590 427.7675 51.0525 C433.6975 50.7578 441.3725 50.1243 446.0550 54.4485 C448.5650 56.7653 448.9450 58.8918 449.0575 62.1135 C449.3200 69.7050 449.0625 77.3885 449.0625 84.9908 L449.0600 131.2005 L449.0550 270.6425 L449.0525 384.3375 L449.0550 421.3550 C449.0575 427.0250 449.3750 432.8400 449.0875 438.4900 C448.9575 441.0575 448.2100 443.4300 446.3900 445.3075 C444.3775 447.3850 441.9775 447.9700 439.1950 448.0450 C434.2375 448.0775 424.6875 449.0925 420.6700 446.1750 C419.0600 445.0050 417.5000 442.9950 417.2650 440.9775 C416.6900 436.0825 416.9650 431.0075 416.9650 426.0800 L416.9675 400.8900 L416.9725 317.5700 L416.9700 146.3315 C416.9700 116.8398 416.6375 87.3045 417.0050 57.8167 C417.2900 57.4263 417.5850 57.0428 417.8900 56.6665 C420.5250 53.3777 423.1125 51.5542 427.3825 51.0840 Z"></path>
<path id="" fill="#bf6952" fill-opacity="1.0" stroke="#000000" stroke-width="0.0" stroke-opacity="1.0" stroke-linecap="round" stroke-linejoin="round"  filling="0" d="M97.0160 426.5825 C103.0740 426.1025 109.3603 426.3725 115.4423 426.3775 L147.1582 426.4125 L251.4575 426.4150 L348.7500 426.4175 C370.5175 426.4125 392.3575 426.0200 414.1175 426.4775 C417.3300 426.5450 420.5325 426.8350 423.7450 426.9200 C429.5875 427.0775 435.5200 427.0700 441.3625 426.9350 C444.1000 426.8700 446.9200 426.4475 449.6450 426.5950 C452.2775 426.7350 455.0475 427.7250 457.0825 429.4125 C459.5700 431.4725 460.7125 434.3275 460.9575 437.4825 C461.3800 442.8925 461.6950 452.5450 458.0825 456.7950 C455.8750 459.3950 452.8625 460.6950 449.5025 460.9200 C442.9025 461.3600 436.0650 460.9925 429.4375 460.9950 L390.2800 460.9950 L268.2150 460.9900 L130.5615 460.9875 L85.9820 460.9925 C78.4980 460.9950 70.8132 461.3600 63.3530 460.9625 C60.2190 460.7950 57.1107 460.0675 54.7148 457.9075 C51.7168 455.2075 51.1638 451.4525 51.0400 447.6425 C50.8652 442.2725 50.0870 434.5100 54.0670 430.3175 C56.8338 427.4025 60.1842 426.9350 63.9765 426.9250 C73.9498 426.8975 84.0220 427.3300 93.9800 426.8150 C94.9760 426.8325 96.0815 426.9700 97.0160 426.5825 Z"></path>
<path id="" fill="#d5ab88" fill-opacity="1.0" stroke="#000000" stroke-width="0.0" stroke-opacity="1.0" stroke-linecap="round" stroke-linejoin="round"  filling="0" d="M94.9570 61.9075 C101.7210 62.5537 108.7343 62.2160 115.5312 62.2140 L150.3602 62.2072 L263.2150 62.2057 L367.4375 62.2000 L399.2375 62.2165 C405.1450 62.2190 411.2850 62.5745 417.1525 61.9417 C416.8475 67.8262 417.0675 73.8197 417.0675 79.7175 C417.0675 85.4733 416.8350 91.3477 417.2000 97.0883 C404.3325 96.8303 391.4275 97.0153 378.5575 97.0160 L308.6575 97.0215 L97.0168 97.0100 L96.9993 130.9350 C96.5060 131.8703 96.3102 151.3092 96.7718 152.6210 C96.8232 152.7672 96.9085 152.8995 96.9767 153.0388 L96.9942 210.9377 C96.3112 212.1277 96.2357 230.9048 96.8275 232.7500 C96.8605 232.8530 96.9270 232.9420 96.9765 233.0380 L97.0075 289.9125 C96.3120 291.2425 96.1947 310.9975 96.7790 312.6950 C96.8223 312.8200 96.9062 312.9275 96.9700 313.0425 L97.0128 369.9200 C96.2440 371.1500 96.1525 390.4075 96.7832 392.6975 C96.8295 392.8650 96.9215 393.0600 96.9877 393.2125 C96.6992 404.3000 97.0225 415.4825 97.0160 426.5825 C96.0815 426.9700 94.9760 426.8325 93.9800 426.8150 C93.6868 415.0900 93.9600 403.2875 93.9600 391.5550 L93.9617 321.8750 L93.9478 79.2490 C93.9677 73.4585 94.9408 67.7318 94.9570 61.9075 Z"></path>
<path id="" fill="#cbd6dd" fill-opacity="1.0" stroke="#000000" stroke-width="0.0" stroke-opacity="1.0" stroke-linecap="round" stroke-linejoin="round"  filling="0" d="M415.6700 289.8425 C416.2950 289.9000 416.4850 289.7800 416.9350 290.2475 C417.1550 295.4850 417.0400 300.7625 417.0400 306.0075 C417.0400 308.1075 417.3700 310.9050 416.9325 312.9225 C416.5125 313.0075 416.1700 313.0625 415.7375 313.0750 C403.1525 312.6250 390.4250 313.0200 377.8225 313.0200 L303.8500 313.0175 L96.9700 313.0425 C96.9062 312.9275 96.8223 312.8200 96.7790 312.6950 C96.1947 310.9975 96.3120 291.2425 97.0075 289.9125 L305.1750 289.9300 L376.7250 289.9375 C389.6900 289.9375 402.7150 290.2025 415.6700 289.8425 Z"></path>
<path id="" fill="#ccd6dd" fill-opacity="1.0" stroke="#000000" stroke-width="0.0" stroke-opacity="1.0" stroke-linecap="round" stroke-linejoin="round"  filling="0" d="M415.4600 209.7897 C415.8275 209.8288 416.4125 209.7540 416.6525 210.0697 C417.5750 211.2805 417.0300 215.4370 416.9825 216.9165 C417.1050 222.1055 417.3600 227.5250 416.9775 232.6938 C416.4850 233.1635 416.2350 233.0517 415.5900 233.0945 C411.7500 232.7845 407.7125 233.0047 403.8575 233.0058 L381.5800 233.0165 L312.2625 233.0177 L96.9765 233.0380 C96.9270 232.9420 96.8605 232.8530 96.8275 232.7500 C96.2357 230.9048 96.3112 212.1277 96.9942 210.9377 C108.7467 211.0870 120.6342 211.1938 132.3817 210.9218 C135.3570 210.8528 138.3020 210.2368 141.2663 210.1905 C144.2680 210.1435 147.3297 210.7270 150.3327 210.8898 C154.6393 211.1235 159.0247 210.9735 163.3387 210.9498 L239.9990 209.8902 C243.1703 209.8748 246.3967 209.8210 249.5610 210.0502 C253.4075 210.3288 257.2325 210.9173 261.0975 210.8970 C264.1425 210.8808 267.1425 210.0845 270.1800 210.0547 C272.5425 210.0315 274.9375 210.4995 277.3025 210.5930 C279.5000 210.6797 281.6950 210.3305 283.8925 210.3893 C287.4050 210.4832 290.8825 210.9210 294.4075 210.9408 L371.0000 210.9408 C374.6500 210.9167 378.2875 210.4830 381.9250 210.4727 C387.4075 210.4575 392.8900 211.0157 398.4075 210.9608 C404.1250 210.9040 409.7300 209.8600 415.4600 209.7897 Z"></path>
<path id="" fill="#ccd6dd" fill-opacity="1.0" stroke="#000000" stroke-width="0.0" stroke-opacity="1.0" stroke-linecap="round" stroke-linejoin="round"  filling="0" d="M412.7975 369.9475 C414.1900 369.7250 415.5750 369.8675 416.9750 369.8425 L417.0550 384.5700 C417.0650 387.2775 417.2500 390.1175 416.9575 392.8050 C416.5250 393.0975 416.2700 393.0800 415.7600 393.0650 C403.0975 392.6800 390.3950 393.2450 377.7275 392.9925 C373.9975 392.9175 370.3325 392.1050 366.5900 392.0425 C346.5625 391.7125 326.4825 392.0125 306.4525 392.0125 L188.5943 392.0175 L133.4790 392.0175 L115.7418 392.0025 C109.3932 392.0000 103.2115 391.7075 96.9877 393.2125 C96.9215 393.0600 96.8295 392.8650 96.7832 392.6975 C96.1525 390.4075 96.2440 371.1500 97.0128 369.9200 L311.0675 369.9400 L378.9800 369.9375 C390.2175 369.9375 401.5775 369.5575 412.7975 369.9475 Z"></path>
<path id="" fill="#ccd6dd" fill-opacity="1.0" stroke="#000000" stroke-width="0.0" stroke-opacity="1.0" stroke-linecap="round" stroke-linejoin="round"  filling="0" d="M415.6525 130.8423 C416.2975 130.9068 416.4825 130.7722 416.9300 131.2770 C417.1550 135.3318 417.0500 139.4320 417.0550 143.4937 C417.0575 146.5612 417.2075 149.7198 416.9925 152.7747 C416.4950 153.1440 416.3800 153.0480 415.7850 153.0587 C403.2425 152.6187 390.5550 153.0163 377.9950 153.0160 L304.3325 153.0148 L96.9767 153.0388 C96.9085 152.8995 96.8232 152.7672 96.7718 152.6210 C96.3102 151.3092 96.5060 131.8703 96.9993 130.9350 L308.8875 130.9370 L378.9625 130.9405 C391.1325 130.9408 403.5025 131.3835 415.6525 130.8423 Z"></path>
<path id="" fill="#3b94d9" fill-opacity="1.0" stroke="#000000" stroke-width="0.0" stroke-opacity="1.0" stroke-linecap="round" stroke-linejoin="round"  filling="0" d="M147.4705 123.2063 C147.9645 123.1687 148.6920 123.1703 149.1245 122.9147 C150.4685 122.1205 153.2760 117.9262 155.7250 116.2588 C159.5302 113.6678 164.6317 113.3652 169.0658 114.2458 C174.7170 115.3680 177.8748 119.0275 180.9450 123.5822 C184.3970 123.4055 187.0598 116.5677 193.2390 114.5685 C199.4715 112.5518 207.1875 114.1770 211.6167 119.0845 C212.8560 120.4575 214.5240 123.3972 216.1593 124.1248 C216.7753 124.3990 217.2180 123.9245 217.5975 123.4615 C218.6118 122.2247 219.2733 120.6898 220.2120 119.3925 C221.8075 117.1873 224.9538 115.2855 227.4948 114.5355 C233.5428 112.7502 241.2747 114.0585 245.5428 118.9142 C247.1263 120.7158 248.0475 122.9660 250.2350 124.1428 C251.7475 123.9207 253.7050 120.1575 254.8125 118.9515 C255.7975 117.8783 256.9950 116.9430 258.2375 116.1835 C262.1325 113.7575 266.8450 113.0085 271.3025 114.1068 C275.8875 115.2805 279.8450 118.0050 282.2725 122.1095 C283.5250 124.2270 284.2425 126.5870 284.6250 129.0075 C285.4225 134.0432 285.4075 153.0323 284.1350 157.7908 C282.9350 162.2767 280.3875 166.0562 276.3200 168.3878 C269.7850 172.1348 261.2050 171.5620 255.6825 166.2510 C254.1325 164.7600 252.3450 161.1962 250.3425 160.6500 C248.3418 161.0202 246.3822 165.0165 244.7690 166.5115 C241.5737 169.4727 237.2065 170.9552 232.8780 170.7865 C228.0818 170.5997 223.6800 168.8865 220.5867 165.1237 C219.4003 163.6805 218.4348 162.0665 217.1613 160.6953 C216.4045 160.5533 215.8302 160.8732 215.2592 161.3450 C214.1770 162.2390 213.3123 163.4775 212.3920 164.5345 C210.2070 167.0435 207.3960 169.1840 204.1792 170.1667 C200.1422 171.4000 195.0600 170.9230 191.3235 168.9680 C186.8967 166.6520 183.5660 162.2883 182.0838 157.5755 C181.9738 157.8642 181.8602 158.1520 181.7437 158.4382 C179.7668 163.2953 176.4577 167.5618 171.5072 169.5945 C167.3280 171.3110 162.3622 171.1850 158.2110 169.4382 C153.0040 167.2473 149.9153 162.7617 147.8457 157.7005 C147.1515 159.9345 146.0417 161.9805 144.6325 163.8450 C141.7888 167.6068 137.8815 170.1068 133.1635 170.6905 C128.5728 171.2583 123.5862 169.9082 119.9447 167.0547 C115.9467 163.9220 114.0927 159.0400 113.5103 154.1260 C113.0587 150.3168 113.2003 146.4003 113.1985 142.5692 C113.1945 134.9975 112.4648 126.2710 117.5045 119.9887 C120.1855 116.6462 123.8508 114.3845 128.1638 113.9685 C133.9480 113.4102 139.6723 114.6710 143.5683 119.2545 C144.4950 120.3448 145.3630 122.1925 146.4763 122.9980 C146.5482 123.0500 146.6297 123.0867 146.7065 123.1313 L147.4705 123.2063 Z"></path>
<path id="" fill="#fcfdfe" fill-opacity="1.0" stroke="#000000" stroke-width="0.0" stroke-opacity="1.0" stroke-linecap="round" stroke-linejoin="round"  filling="0" d="M147.4705 123.2063 C148.1360 123.2233 148.8242 123.1785 149.4653 123.3655 C148.7032 125.4250 148.1638 127.4438 147.6772 129.5833 C147.5553 127.3497 146.9520 125.4897 146.3805 123.3585 L146.7065 123.1313 L147.4705 123.2063 Z"></path>
<path id="" fill="#5c913b" fill-opacity="1.0" stroke="#000000" stroke-width="0.0" stroke-opacity="1.0" stroke-linecap="round" stroke-linejoin="round"  filling="0" d="M129.1257 273.0650 C134.8780 272.6775 138.8110 274.5100 143.1508 278.0825 C144.6640 279.3275 146.1013 283.0050 147.3180 283.6600 C150.6540 282.2150 152.2055 277.5400 155.5103 275.6300 C159.8980 273.0925 164.9010 272.3775 169.7993 273.7225 C174.5740 275.0325 177.9860 278.1200 180.4218 282.3475 C181.4892 282.2400 182.5700 282.2000 183.6410 282.1300 C186.5970 278.0025 189.5448 274.8725 194.5970 273.5250 C200.8235 271.8625 208.2128 274.0725 212.3568 279.0650 C213.3777 280.2950 214.7205 282.8700 216.0182 283.6225 C217.6703 283.0900 219.0128 280.6025 220.0560 279.2400 C222.6225 275.8875 226.6290 273.6675 230.8085 273.1425 C236.8775 272.3800 243.4125 274.8425 247.1260 279.7600 C248.0540 280.9900 248.7758 282.9975 249.9397 283.9050 C251.9375 283.2950 253.7975 279.5125 255.3400 277.9425 C256.8300 276.4475 258.5775 275.2375 260.5000 274.3675 C264.6300 272.5325 269.4725 272.5650 273.6675 274.1750 C277.9925 275.8375 281.2075 278.8425 283.0725 283.0900 C283.8275 284.8150 284.2800 286.6250 284.5175 288.4875 C285.3175 294.7650 285.4225 313.9225 283.2900 319.2775 C281.7150 323.2350 279.0600 326.4350 275.1150 328.1450 C269.9550 330.3825 265.3500 330.5525 260.0975 328.4975 C254.8750 325.5225 252.1850 321.9025 250.3275 316.2125 C249.7115 318.0500 249.0883 319.8350 248.1167 321.5200 C245.7507 325.6275 242.1000 328.2850 237.5170 329.4500 C233.1198 330.5675 228.3168 329.9850 224.4292 327.6025 C220.2083 325.0150 217.3615 320.8050 216.2267 316.0175 C215.4520 318.3775 214.6268 320.5850 213.2498 322.6725 C210.7648 326.4425 206.8372 328.8075 202.4328 329.6675 C195.8235 330.9600 188.7365 328.0700 184.8793 322.5425 C183.8813 321.1125 183.5033 319.1175 181.9935 318.1175 C181.2527 318.7725 180.7185 320.0775 180.2068 320.9400 C178.0217 324.6175 175.2820 327.4250 171.1755 328.8775 C166.6085 330.4950 161.6065 330.3275 157.2428 328.1750 C152.1617 325.6700 149.6073 321.2950 147.8375 316.1200 C147.3158 318.4550 146.1532 320.8025 144.8033 322.7725 C142.3808 326.3075 138.7380 328.8550 134.4905 329.6175 C129.8067 330.4575 124.5455 329.6225 120.6305 326.7975 C116.8430 324.0650 114.6965 319.9850 113.9165 315.4425 C112.9922 310.0650 113.0228 291.8275 114.1185 286.5025 C114.6110 284.1075 115.5332 281.8150 116.9547 279.8200 C119.9238 275.6550 124.2125 273.8625 129.1257 273.0650 Z"></path>
<path id="" fill="#ffac33" fill-opacity="1.0" stroke="#000000" stroke-width="0.0" stroke-opacity="1.0" stroke-linecap="round" stroke-linejoin="round"  filling="0" d="M130.6268 352.8625 C131.8240 352.8825 133.0318 352.9275 134.2213 353.0750 C138.7637 353.6325 142.9465 356.6575 145.3365 360.5100 C146.1460 361.8150 146.6655 363.3900 147.5943 364.5800 C148.4843 364.4725 148.9633 362.7475 149.4128 361.9750 C151.1113 359.0550 153.6040 356.4000 156.5555 354.7300 C160.4960 352.5025 166.2565 352.2575 170.5720 353.5325 C174.9490 354.8275 178.5695 358.3100 180.6922 362.2675 C181.6085 362.2000 182.5363 362.2050 183.4552 362.1850 C184.7735 360.2775 186.0757 358.3675 187.7993 356.7950 C191.4653 353.4525 195.7530 352.5925 200.5697 352.8425 C205.8158 353.1150 209.9310 355.5825 213.0417 359.7250 C214.1335 361.1775 215.0300 362.7100 216.2680 364.0575 C216.3410 364.1350 216.4158 364.2150 216.4897 364.2925 C218.7417 361.2750 219.6810 358.3050 222.8875 355.9825 C226.9015 353.0775 232.0658 352.2975 236.8958 353.1075 C243.7778 354.2650 246.4815 359.0800 250.1625 364.2650 L250.3575 364.2475 L250.0625 364.0300 C250.8975 364.3500 250.9400 363.9125 251.3475 363.1975 C253.5800 359.2700 255.9150 355.8375 260.2925 354.0775 C264.5025 352.3875 270.4775 352.3200 274.6150 354.2275 C278.6825 356.1025 281.9525 359.8925 283.4975 364.0625 C285.4575 369.3600 285.4275 388.2175 284.5875 394.2575 C284.3150 396.2050 283.8350 398.0825 282.9850 399.8650 C280.9100 404.1475 277.1900 407.4075 272.6700 408.9000 C268.0625 410.4600 263.7575 409.8425 259.4475 407.7400 C258.7025 407.3525 257.9650 406.9150 257.2775 406.4325 C253.6200 403.8700 251.2450 399.8600 250.5275 395.4950 C249.9960 397.1250 249.4763 398.7450 248.6638 400.2625 C246.3568 404.5750 242.7533 407.6100 238.0550 409.0150 C233.5773 410.3525 229.2052 409.8550 225.1163 407.6200 C220.7242 405.2200 217.7085 401.0850 216.2800 396.3450 C215.8135 397.6550 215.2307 398.9200 214.5385 400.1250 C211.9863 404.5450 208.2700 407.8925 203.2722 409.1925 C198.7935 410.3550 194.4487 409.6050 190.4895 407.2750 C185.8922 404.5675 183.3678 400.6450 182.0723 395.5500 C181.6758 397.3775 181.0815 398.9825 180.1555 400.6025 C177.7975 404.7275 174.0802 407.8650 169.4727 409.1125 C165.1165 410.2900 160.4742 409.7950 156.5520 407.5000 C152.0013 404.8350 149.1638 400.4300 147.8698 395.4200 C147.2693 398.4925 146.0585 401.1975 144.0045 403.5725 C141.0575 406.9800 136.2747 409.5075 131.7575 409.7800 C127.4092 410.0425 123.0215 408.4025 119.7690 405.5475 C115.6743 401.9500 113.8562 397.2950 113.5692 391.9350 C113.3792 388.3850 113.8315 384.8050 113.9055 381.2550 C114.0128 376.1050 113.1827 369.5725 114.4970 364.6500 C115.1472 362.2150 116.4925 359.9800 118.1877 358.1300 C121.6483 354.3500 125.5790 353.0500 130.6268 352.8625 Z"></path>
<path id="" fill="#be1931" fill-opacity="1.0" stroke="#000000" stroke-width="0.0" stroke-opacity="1.0" stroke-linecap="round" stroke-linejoin="round"  filling="0" d="M251.5775 203.2215 C251.8400 202.7540 252.1175 202.2932 252.4050 201.8400 C254.9975 197.7383 258.8825 194.8302 263.6575 193.8090 C268.2925 192.7860 273.1475 193.6747 277.1200 196.2742 C280.9400 198.7603 283.2525 202.4770 284.2075 206.8913 C285.3375 212.2773 285.0125 229.5943 284.3900 235.2800 C284.1125 237.5310 283.3475 239.8675 282.2100 241.8322 C279.9125 245.8008 275.9650 248.5513 271.5525 249.6680 C266.9775 250.8175 262.1325 250.0875 258.0975 247.6440 C254.1050 245.2135 251.5425 241.1718 250.4400 236.6967 C247.4337 242.4527 246.5117 246.0595 239.9965 248.8420 C235.6402 250.6550 230.7448 250.6775 226.3712 248.9073 C220.7272 246.6393 218.4410 242.2318 216.1772 236.9515 C215.8273 237.8285 215.4750 238.7077 215.0818 239.5663 C212.9915 244.1300 209.8700 247.4538 205.0930 249.1645 C200.6593 250.7800 195.7665 250.5725 191.4843 248.5912 C186.3027 246.1367 183.8893 241.7267 182.0080 236.5535 C181.6880 237.6705 181.2885 238.7630 180.8123 239.8228 C178.8893 244.1777 175.7890 247.4128 171.3013 249.1045 C166.8480 250.7950 161.9043 250.6400 157.5660 248.6727 C152.3143 246.2450 149.7478 241.8060 147.8477 236.5842 L147.5777 237.3943 C147.2580 238.3663 146.9187 239.2940 146.4805 240.2188 C144.3943 244.6235 141.2153 247.6792 136.5830 249.2923 C132.2080 250.8525 127.3860 250.5650 123.2278 248.4953 C119.1170 246.4568 115.9658 243.0067 114.5535 238.6160 C112.9830 233.7332 113.0967 213.5562 113.9117 208.0710 C114.2032 206.1085 114.7255 204.2225 115.6385 202.4545 C117.7318 198.4012 121.3530 195.4828 125.7025 194.1385 C132.4415 192.0417 139.7785 194.2560 144.2325 199.7305 C145.0428 200.7337 146.1828 203.0977 147.2230 203.6463 C150.2195 202.2970 152.7890 197.7620 156.3660 195.6860 C160.4070 193.3475 165.2162 192.7253 169.7195 193.9577 C176.0885 195.7460 179.1142 200.5773 182.0883 206.0143 C183.6037 202.4010 186.0095 198.7925 189.2267 196.4885 C192.9945 193.7908 197.7843 192.8517 202.3282 193.6523 C208.1725 194.6820 211.8265 198.5225 215.0948 203.1515 L217.5390 203.1875 C219.2045 200.1565 221.4682 197.4885 224.4870 195.7478 C228.5480 193.4275 233.3562 192.7903 237.8815 193.9727 C243.0112 195.3660 246.4870 198.7408 249.0668 203.2510 L251.5775 203.2215 Z"></path>
<path id="" fill="#3b94d9" fill-opacity="1.0" stroke="#000000" stroke-width="0.0" stroke-opacity="1.0" stroke-linecap="round" stroke-linejoin="round"  filling="0" d="M377.5650 114.0400 C381.2650 113.7368 385.1700 113.7675 388.6050 115.3387 C392.6300 117.1793 395.7675 120.7190 397.2825 124.8580 C399.3475 130.5072 399.3725 148.2397 398.5000 154.4360 C398.1625 156.8448 397.5650 159.2530 396.5075 161.4527 C394.1375 166.3825 390.3600 168.6832 385.3550 170.4125 C380.7450 171.0560 376.1775 170.8497 372.1375 168.2615 C368.5525 165.9660 365.4300 162.1877 364.5075 157.9828 C363.6000 153.8585 363.6150 131.4312 364.3625 127.3515 C364.7675 125.1150 365.6325 122.9868 366.9000 121.1005 C369.4850 117.2015 373.0175 114.9500 377.5650 114.0400 Z"></path>
<path id="" fill="#5c913b" fill-opacity="1.0" stroke="#000000" stroke-width="0.0" stroke-opacity="1.0" stroke-linecap="round" stroke-linejoin="round"  filling="0" d="M398.1775 314.4600 C397.7575 317.3875 396.9025 320.1200 395.3050 322.6275 C392.9225 326.3675 389.0125 328.6850 384.7300 329.6025 C380.2600 330.6000 375.5775 329.7425 371.7525 327.2250 C367.7850 324.6050 365.3225 321.0175 364.4050 316.3450 C363.6075 312.2775 363.5650 290.7425 364.3700 286.4925 C364.7925 284.2550 365.7675 282.0975 367.0375 280.2150 C369.5050 276.5550 373.4700 274.1300 377.7900 273.3325 C382.3650 272.4850 387.5850 273.5475 391.4175 276.1975 C395.8900 279.2900 397.4850 283.8700 398.3975 288.9950 C398.8075 294.3350 399.2775 309.6725 398.1775 314.4600 Z"></path>
<path id="" fill="#be1931" fill-opacity="1.0" stroke="#000000" stroke-width="0.0" stroke-opacity="1.0" stroke-linecap="round" stroke-linejoin="round"  filling="0" d="M378.5350 193.5555 C382.5550 193.2318 386.2475 193.6290 389.8175 195.6272 C393.8650 197.8955 396.3925 201.3873 397.6350 205.8315 C399.0200 210.7780 398.9150 230.3810 398.0825 235.7148 C397.7525 237.8250 397.1450 239.8618 396.0850 241.7255 C393.4900 246.3002 389.3850 248.5815 384.4575 249.9290 C379.9000 250.4175 375.5775 250.0650 371.6075 247.5720 C368.0025 245.3070 365.5000 241.5123 364.5600 237.3870 C363.5400 232.9005 363.5375 212.1890 364.3275 207.3715 C364.6775 205.2290 365.4050 203.2027 366.5700 201.3658 C369.4000 196.8963 373.4775 194.6585 378.5350 193.5555 Z"></path>
<path id="" fill="#feac33" fill-opacity="1.0" stroke="#000000" stroke-width="0.0" stroke-opacity="1.0" stroke-linecap="round" stroke-linejoin="round"  filling="0" d="M377.5325 353.0650 C381.4675 352.5900 385.7675 352.7475 389.3250 354.6600 C392.9850 356.6250 396.3575 360.2300 397.5100 364.2775 C397.8550 365.4925 398.0175 366.7575 398.0850 368.0150 C398.3150 372.2550 398.0225 376.5675 398.0425 380.8175 C398.0650 385.5550 398.6050 390.8150 397.9675 395.4825 C397.7125 397.3975 397.0750 399.2425 396.0975 400.9100 C393.4875 405.4325 389.6525 407.9650 384.6975 409.3350 C384.4400 409.3850 384.1800 409.4325 383.9225 409.4800 C379.2325 410.3275 375.0200 409.0825 371.1650 406.3825 C367.4525 403.7800 365.0875 400.1375 364.3100 395.6650 C363.6525 391.9050 363.5675 370.2175 364.3425 366.4575 C364.9100 363.8400 366.0075 361.3650 367.5675 359.1900 C370.0100 355.7900 373.4100 353.7225 377.5325 353.0650 Z"></path>
</svg>