<svg xmlns="http://www.w3.org/2000/svg" viewBox="0 0 512 512" height="512.0px" width="512.0px">
<path id="" fill="#9168c9" fill-opacity="1.0" stroke="#000000" stroke-width="0.0" stroke-opacity="1.0" stroke-linecap="round" stroke-linejoin="round"  filling="0" d="M161.7802 366.5425 C161.9225 366.4950 162.0660 366.4500 162.2068 366.3950 C162.9175 366.1250 163.3935 365.6050 163.9215 365.0800 C166.6640 362.3525 169.5462 360.0675 172.6580 357.7800 C182.1550 350.8050 195.4125 345.8050 206.7915 342.9950 C223.0612 338.9775 241.8972 340.2025 258.5875 340.2125 L313.1175 340.2125 L355.2925 340.1925 C364.5575 340.1900 373.9350 339.8950 383.1725 340.6725 C392.8425 341.4875 402.8925 343.5825 411.9325 347.1450 C429.5500 354.0925 448.4475 366.8000 456.1850 384.6725 C458.0425 388.9625 459.5575 393.5025 460.3250 398.1200 C461.2550 403.7250 461.0575 409.4425 461.0500 415.1025 C461.0350 426.7025 460.4500 438.5375 461.9300 450.0675 L450.1850 449.9250 C427.9750 450.1250 405.7650 450.1250 383.5550 449.9225 L237.5555 449.9275 L179.6198 449.9575 C167.8768 449.9700 155.9458 449.5700 144.2390 450.4650 C139.4492 450.7775 134.6655 450.9250 129.8685 451.0725 C131.1545 443.1825 132.8508 435.3625 134.1775 427.4800 C135.2885 420.8775 136.1037 414.2300 137.1877 407.6250 C140.0672 389.7000 143.3400 371.8400 147.0040 354.0575 C147.4030 352.1125 148.0710 346.1575 149.1645 344.7975 C150.8853 343.9425 153.1163 344.2025 154.9865 344.2175 C157.0217 344.0225 159.0625 344.1075 161.0927 343.9350 C160.9527 346.1125 160.5970 365.3700 161.2995 366.1425 C161.4512 366.3075 161.6033 366.4100 161.7802 366.5425 Z"></path>
<path id="" fill="#9267ca" fill-opacity="1.0" stroke="#000000" stroke-width="0.0" stroke-opacity="1.0" stroke-linecap="round" stroke-linejoin="round"  filling="0" d="M129.8685 451.0725 C131.1545 443.1825 132.8508 435.3625 134.1775 427.4800 C135.2885 420.8775 136.1037 414.2300 137.1877 407.6250 C140.0672 389.7000 143.3400 371.8400 147.0040 354.0575 C147.4030 352.1125 148.0710 346.1575 149.1645 344.7975 C150.8853 343.9425 153.1163 344.2025 154.9865 344.2175 C156.2215 344.3175 157.4583 344.3925 158.6960 344.4425 C158.4158 344.6225 158.1420 344.6150 157.8150 344.6700 C156.6777 344.8650 156.0513 345.0975 155.3403 346.0150 C154.1707 350.4500 154.1175 357.9550 153.4892 362.7950 C152.9128 367.2350 151.9305 371.6175 151.4243 376.0725 C149.7663 390.6575 148.8078 405.3175 147.2190 419.9050 C146.2855 428.4775 143.7925 441.9675 144.3385 450.2725 L144.2390 450.4650 C139.4492 450.7775 134.6655 450.9250 129.8685 451.0725 Z"></path>
<path id="" fill="#7450a8" fill-opacity="1.0" stroke="#000000" stroke-width="0.0" stroke-opacity="1.0" stroke-linecap="round" stroke-linejoin="round"  filling="0" d="M154.9865 344.2175 C157.0217 344.0225 159.0625 344.1075 161.0927 343.9350 C160.9527 346.1125 160.5970 365.3700 161.2995 366.1425 C161.4512 366.3075 161.6033 366.4100 161.7802 366.5425 L160.7330 366.0975 L160.4570 366.2175 C160.2422 374.4300 159.2830 382.6450 158.8633 390.8550 C158.3833 400.2475 158.2823 409.6725 157.9125 419.0725 C157.5112 429.2775 156.8452 439.4825 156.5072 449.6850 L352.2750 449.6700 L417.2875 449.6650 L438.6350 449.6675 C442.1550 449.6675 445.7225 449.5325 449.2375 449.6800 C449.8725 449.7075 449.6150 449.6525 450.1850 449.9250 C427.9750 450.1250 405.7650 450.1250 383.5550 449.9225 L237.5555 449.9275 L179.6198 449.9575 C167.8768 449.9700 155.9458 449.5700 144.2390 450.4650 L144.3385 450.2725 C143.7925 441.9675 146.2855 428.4775 147.2190 419.9050 C148.8078 405.3175 149.7663 390.6575 151.4243 376.0725 C151.9305 371.6175 152.9128 367.2350 153.4892 362.7950 C154.1175 357.9550 154.1707 350.4500 155.3403 346.0150 C156.0513 345.0975 156.6777 344.8650 157.8150 344.6700 C158.1420 344.6150 158.4158 344.6225 158.6960 344.4425 C157.4583 344.3925 156.2215 344.3175 154.9865 344.2175 Z"></path>
<path id="" fill="#d3aa87" fill-opacity="1.0" stroke="#000000" stroke-width="0.0" stroke-opacity="1.0" stroke-linecap="round" stroke-linejoin="round"  filling="0" d="M258.9600 277.9575 L347.0825 277.9450 C346.7550 292.7350 347.0600 307.6050 347.0650 322.4050 C347.0650 327.9825 347.2100 333.6075 346.9925 339.1800 C346.9125 341.2125 346.7700 343.4750 346.0925 345.4125 C344.3150 350.4825 339.5000 355.2600 335.6500 358.8175 C326.9275 366.7200 314.2025 369.8725 302.6800 369.9175 C290.1125 369.9675 275.6250 365.1875 266.5825 356.1500 C263.5400 353.1100 260.7625 349.3050 259.7025 345.0800 C258.2300 339.2125 258.9825 326.8400 258.9875 320.1600 L258.9600 277.9575 Z"></path>
<path id="" fill="#d3aa87" fill-opacity="1.0" stroke="#000000" stroke-width="0.0" stroke-opacity="1.0" stroke-linecap="round" stroke-linejoin="round"  filling="0" d="M293.8450 84.1042 C296.8925 83.6870 300.3275 83.9485 303.4175 83.9503 C324.2025 83.9617 345.7475 89.3895 363.4250 100.5818 C368.1725 103.5865 373.0325 106.7628 377.4025 110.2878 C380.8175 113.0428 383.8650 116.2458 386.9650 119.3425 C404.9775 137.3307 415.0025 157.1503 420.5525 181.8573 C422.4700 190.3905 423.1000 198.5818 423.0900 207.3110 C423.0850 211.0493 423.2125 214.8490 422.9275 218.5768 C421.7825 233.6118 417.2275 249.9713 410.7275 263.5625 C408.2450 268.7575 404.9900 273.8350 401.9000 278.7000 C393.7100 291.6000 378.4375 306.2550 365.6225 314.4675 C363.0750 316.1000 360.3000 317.4350 357.6175 318.8375 C354.1475 320.6525 350.8675 322.4900 347.0150 323.3550 C346.7050 308.2675 346.9325 293.1275 346.9925 278.0350 L311.6250 278.0375 L259.0200 278.0525 C259.3725 293.1625 259.0775 308.3425 259.1025 323.4625 C249.8717 321.8900 234.2150 311.3425 226.8910 305.1125 C199.7892 282.0600 184.9300 252.0850 182.1405 216.7263 C179.6240 184.8310 190.5997 150.4675 211.4565 126.1738 C232.2635 101.7915 261.8950 86.6615 293.8450 84.1042 Z"></path>
<path id="" fill="#963b22" fill-opacity="1.0" stroke="#000000" stroke-width="0.0" stroke-opacity="1.0" stroke-linecap="round" stroke-linejoin="round"  filling="0" d="M301.0750 63.8622 C317.5500 63.0168 339.7600 67.7335 355.0375 73.8652 C385.8325 86.3832 410.4150 110.5915 423.4050 141.1915 C429.1125 154.6593 432.5700 169.2310 434.2300 183.7392 C435.0725 191.0867 435.0275 198.4592 435.0300 205.8423 L435.0350 228.7560 C435.0300 251.0575 435.3975 273.3275 433.7950 295.5875 C433.0225 306.3300 432.4100 318.1575 428.2625 328.2025 C426.3325 332.8850 423.4250 336.5900 418.6250 338.5200 C405.1950 343.9150 380.7025 333.0025 367.5025 328.4525 C361.3825 326.3425 354.4225 324.5850 348.5850 321.9675 C347.5700 321.5125 346.8350 321.1050 346.4725 319.9950 C346.0925 318.8400 345.7550 316.5850 346.5275 315.5300 C347.7000 313.9325 353.7975 310.2950 355.7300 308.5925 C358.3125 306.3225 361.0850 304.1700 363.5300 301.7575 C365.0275 300.2775 366.3100 298.5700 367.7175 297.0050 C374.6500 289.2850 380.4550 281.3500 385.1500 272.0700 C396.3175 249.9840 406.3675 213.5108 398.2725 189.3703 C396.8900 185.2453 394.6500 181.5280 392.1875 177.9642 C378.7600 158.5240 356.1475 157.3463 335.6000 150.8230 C317.6450 145.1215 298.0150 138.5468 281.1675 130.1257 C270.2575 124.5537 265.4500 119.9290 258.6875 109.9355 C257.1825 111.0920 255.8625 112.6233 254.5275 113.9810 C250.8100 117.7665 247.4128 121.6422 243.8745 125.5825 C241.6875 128.0180 239.2417 130.2365 236.9910 132.6175 C233.2330 136.5927 229.4835 140.9865 226.0275 145.2445 C221.4868 150.8390 216.8095 156.7337 213.1747 162.9695 C211.0190 166.6680 209.4015 170.4680 207.9062 174.4653 C202.6832 188.4252 201.6110 201.5055 203.1308 216.2007 C203.6223 220.9520 204.0600 225.7315 204.8595 230.4433 C208.4207 251.4300 216.4265 272.8500 229.4427 289.8300 C234.0455 295.8325 239.5015 301.4125 245.0842 306.5175 C248.9483 310.0500 253.0375 312.0825 256.7700 315.1975 C257.9025 316.1425 259.2375 317.4450 259.3250 319.0175 C259.3675 319.7800 259.0925 320.2650 258.6225 320.8275 C253.0450 323.0850 247.0575 324.5175 241.3600 326.4775 C228.5827 330.8750 209.2440 339.2300 196.2885 340.0000 C190.4088 340.3475 183.8463 339.8725 179.3050 335.6475 C176.8683 333.3800 175.4057 330.4850 174.5358 327.3075 C172.5652 320.1100 172.2652 309.7850 171.6277 302.2500 C170.0163 282.9875 168.9073 263.6875 168.3015 244.3665 C168.0645 236.2315 168.1295 228.0647 168.1022 219.9255 C168.0765 212.1602 167.8715 204.2778 168.3103 196.5230 C170.3465 160.5468 180.5830 128.3340 205.8938 101.9255 C208.0950 99.6288 210.6880 97.5545 213.0930 95.4633 C237.5237 74.2205 269.1375 64.7635 301.0750 63.8622 Z"></path>
<path id="" fill="#9268ca" fill-opacity="1.0" stroke="#000000" stroke-width="0.0" stroke-opacity="1.0" stroke-linecap="round" stroke-linejoin="round"  filling="0" d="M101.4675 344.0100 C117.4090 343.6850 133.3797 344.2250 149.3257 343.9400 C148.9400 348.9875 147.5995 353.6250 146.5840 358.5500 C145.5330 363.6450 144.7422 368.8275 143.8147 373.9525 C140.5007 392.2625 137.6675 410.6125 134.6387 428.9675 C133.6857 434.7450 130.9612 444.8900 131.0530 450.1850 C123.6598 449.5900 115.9167 450.0175 108.4803 450.0150 C100.3950 450.0150 92.0280 449.5625 83.9883 450.2725 C84.8070 442.8675 86.2337 435.5875 87.4750 428.2475 L92.4532 398.3575 L97.9323 366.0700 C99.1195 358.7250 100.0930 351.3225 101.4675 344.0100 Z"></path>
<path id="" fill="#963b22" fill-opacity="1.0" stroke="#000000" stroke-width="0.0" stroke-opacity="1.0" stroke-linecap="round" stroke-linejoin="round"  filling="0" d="M258.1525 109.6328 C259.9425 109.8005 260.5975 111.3452 261.5475 112.6830 C264.7150 117.1452 267.7425 120.6285 272.2075 123.8595 C281.6675 130.7052 292.9000 134.7880 303.7500 138.8485 C311.0050 141.5635 318.2350 144.1970 325.5900 146.6360 C330.6225 148.3047 335.6575 150.1552 340.7575 151.5965 C351.0100 154.4940 361.3425 156.3280 371.2600 160.3728 C380.4100 164.1050 387.1750 169.9897 392.9775 177.8663 C394.9700 180.5740 396.7900 183.2400 398.0725 186.3692 C399.1350 188.9628 402.9150 200.2915 401.8450 202.3642 C401.6700 202.7018 401.4475 202.6953 401.1175 202.8233 C399.9500 202.3375 394.6400 191.1190 392.9225 188.8817 C381.6325 174.1747 362.0175 167.6005 344.1825 165.8130 C341.3700 165.5312 338.5500 165.2460 335.7250 165.1380 C332.5450 165.0168 329.3500 165.0827 326.1900 164.6595 C310.1050 162.6458 293.7675 157.0658 279.1750 150.1078 C272.7000 147.0213 266.4625 143.4297 259.9725 140.3952 C255.1650 145.4495 250.2725 150.4182 245.2908 155.2995 C241.9915 158.5965 238.7563 162.1187 235.2385 165.1783 C231.5468 168.4235 227.7838 171.5867 223.9518 174.6655 C220.7165 177.2462 217.1745 179.7325 214.2645 182.6792 C211.7567 185.2185 209.4028 188.2388 207.5123 191.2565 C206.6490 192.6342 204.6460 197.4807 203.5415 198.2063 C203.0117 198.5540 202.9422 198.5645 202.3412 198.4005 C201.5605 197.2885 201.8280 195.4485 201.9930 194.1608 C205.1570 169.4922 218.2785 151.7552 234.5482 133.9288 C236.8725 131.3822 239.4883 129.1105 241.8203 126.5757 C243.2555 125.0157 244.5802 123.3528 246.0318 121.8077 C247.3170 120.4402 248.7510 119.2185 250.0275 117.8415 C252.6775 114.9810 255.0350 112.0233 258.1525 109.6328 Z"></path>
<path id="" fill="#cc9b7a" fill-opacity="1.0" stroke="#000000" stroke-width="0.0" stroke-opacity="1.0" stroke-linecap="round" stroke-linejoin="round"  filling="0" d="M342.3225 318.8250 C343.3425 318.7850 344.1650 318.7250 345.0375 319.3350 C345.1650 319.8450 345.2000 319.9700 344.9500 320.4675 C342.5675 325.2175 328.0625 331.8100 322.8050 333.3650 C304.4325 338.7200 284.6750 336.4125 268.0325 326.9675 C266.5350 325.9950 263.4350 323.9800 262.8925 322.2225 C262.7000 321.6075 262.7850 321.5025 263.0825 320.9875 C264.7825 320.3475 278.5475 325.7075 281.5450 326.3675 C285.1675 327.1675 289.0300 327.6700 292.7275 327.8725 C299.2275 328.2275 311.4675 328.4200 317.7150 327.3525 C322.0175 326.6175 326.5275 325.1525 330.6450 323.6800 C334.4700 322.3125 338.0800 319.8600 342.0125 318.8950 C342.1150 318.8700 342.2200 318.8475 342.3225 318.8250 Z"></path>
<path id="" fill="#d3aa88" fill-opacity="1.0" stroke="#000000" stroke-width="0.0" stroke-opacity="1.0" stroke-linecap="round" stroke-linejoin="round"  filling="0" d="M186.7713 235.0705 C189.2090 234.9290 191.0615 235.3495 192.9765 236.9610 C194.8550 238.5237 196.0163 240.7838 196.1930 243.2210 C196.3613 245.3455 195.8728 247.3553 194.9075 249.2413 C192.0323 254.8575 185.8090 261.9850 181.7185 266.9775 C173.5300 276.9850 165.1325 286.8175 156.5315 296.4725 C159.1445 296.9450 161.7343 298.0425 164.2253 298.9450 C169.5462 300.8725 177.1823 302.8900 180.6730 307.6325 C182.5098 310.1275 183.4572 313.3225 184.3875 316.2400 C187.1885 325.0275 188.8443 334.2550 187.9057 343.5025 C187.7025 345.5050 187.2435 347.4825 186.9223 349.4700 C186.1315 350.2950 185.2897 351.0625 184.4518 351.8375 C179.2320 351.9975 171.4965 352.8150 166.5235 351.3525 C163.9458 355.5875 161.4212 359.6675 159.5305 364.2700 C159.4713 364.2975 159.4115 364.3225 159.3530 364.3525 C159.2555 364.4000 159.1595 364.4500 159.0625 364.4975 C156.7363 365.6575 154.7275 367.5725 152.6705 369.1500 C148.3887 372.4350 143.4837 375.3050 138.3125 376.9050 L138.0397 376.9825 C129.2948 379.4150 120.6930 379.6650 112.6300 375.0075 C106.3603 371.3850 101.9265 365.0975 100.1387 358.1200 C96.3828 343.4625 104.2615 324.8425 109.6070 311.4075 C111.6252 306.3350 113.4165 300.7125 116.2340 296.0250 C117.8253 293.3775 119.9887 290.6800 122.2230 288.5375 C124.6202 286.2400 127.4668 284.4375 129.9605 282.2400 C140.3820 272.9600 151.0063 263.9125 161.8255 255.1000 C166.6478 251.1450 171.3952 247.1020 176.0647 242.9693 C178.3495 240.9707 180.5193 238.7527 182.9210 236.9005 C184.1855 235.9252 185.2213 235.4495 186.7713 235.0705 Z"></path>
<path id="" fill="#5dadec" fill-opacity="1.0" stroke="#000000" stroke-width="0.0" stroke-opacity="1.0" stroke-linecap="round" stroke-linejoin="round"  filling="0" d="M56.1342 216.0225 C60.7052 215.6135 62.6790 218.6548 64.0862 222.5790 C65.3590 226.1283 66.2663 229.8240 67.7238 233.3058 C73.7997 247.8230 84.1082 262.3625 97.8115 270.5075 C102.1378 273.0775 106.8460 274.3675 111.2095 276.7050 C112.9075 277.6125 114.3520 278.8175 114.8538 280.7500 C115.2640 282.3300 114.8188 284.0750 113.9465 285.4225 C112.8822 287.0675 111.7448 287.8250 109.8610 288.2000 C106.2115 288.2625 102.8483 287.0750 99.5447 285.6225 C77.8027 276.0700 62.8667 256.3225 54.5177 234.5717 C53.0703 230.8013 49.7875 223.3387 51.5677 219.6395 C52.4915 217.7198 54.2103 216.7298 56.1342 216.0225 Z"></path>
<path id="" fill="#de1f32" fill-opacity="1.0" stroke="#000000" stroke-width="0.0" stroke-opacity="1.0" stroke-linecap="round" stroke-linejoin="round"  filling="0" d="M276.7600 273.1075 C280.7700 273.3075 285.5625 277.6000 289.4050 279.1800 C293.8100 280.9900 298.4025 281.3100 303.1200 281.2225 C307.1950 281.1475 311.2875 280.4700 315.0575 278.8650 C318.9300 277.2175 323.1925 272.4325 327.5825 273.1075 C329.9050 273.4650 332.4350 274.9125 333.8150 276.8275 C335.1725 278.7100 335.6625 281.3675 335.2025 283.6300 C334.4675 287.2350 331.3475 289.3200 328.5100 291.2775 C323.4250 294.2900 318.5025 296.2725 312.7125 297.5500 C299.9900 300.3550 285.8525 298.3125 274.8525 291.1550 C272.1700 289.4100 269.4825 287.2900 268.8750 283.9550 C268.4550 281.6450 268.7725 278.7725 270.1500 276.8125 C271.6400 274.6925 274.2675 273.5125 276.7600 273.1075 Z"></path>
<path id="" fill="#5dadec" fill-opacity="1.0" stroke="#000000" stroke-width="0.0" stroke-opacity="1.0" stroke-linecap="round" stroke-linejoin="round"  filling="0" d="M89.7220 211.8010 C90.7835 211.7318 91.8785 211.7040 92.8943 212.0742 C97.0553 213.5910 97.8372 219.2250 98.9070 222.9400 C99.4825 224.9945 100.1613 227.0185 100.9410 229.0045 C102.1840 232.2200 103.8268 235.1330 105.7307 238.0055 C107.6140 240.8470 109.9845 243.8585 112.7182 245.9300 C114.3992 247.2038 116.2990 248.3320 118.1805 249.2818 C121.3522 250.8825 126.3560 252.3400 127.8135 255.8725 C128.3390 257.1475 128.2193 258.4725 127.7018 259.7275 C126.8148 261.8775 125.2053 263.0975 123.1093 263.9725 C122.7370 264.0050 122.3733 264.0375 121.9995 264.0350 C115.4837 264.0050 104.5973 256.1775 100.2670 251.5950 C92.2122 243.0700 84.6693 227.7798 84.9875 215.8143 C86.1923 213.8750 87.5977 212.6365 89.7220 211.8010 Z"></path>
<path id="" fill="#662113" fill-opacity="1.0" stroke="#000000" stroke-width="0.0" stroke-opacity="1.0" stroke-linecap="round" stroke-linejoin="round"  filling="0" d="M261.0050 198.0760 C262.8625 197.9965 265.0275 198.6712 266.6050 199.6320 C269.1975 201.2092 270.8675 203.8285 271.5400 206.7535 C272.5475 211.1268 272.4825 221.2355 270.0425 225.0163 C268.1125 228.0080 264.9675 229.3737 261.6150 230.0462 C259.3375 229.8902 256.9575 229.0733 255.0875 227.7567 C252.5525 225.9702 251.1675 223.3528 250.6175 220.3452 C249.7055 215.3585 249.4525 207.1120 252.5500 202.7675 C254.6125 199.8765 257.6175 198.6135 261.0050 198.0760 Z"></path>
<path id="" fill="#662113" fill-opacity="1.0" stroke="#000000" stroke-width="0.0" stroke-opacity="1.0" stroke-linecap="round" stroke-linejoin="round"  filling="0" d="M342.9600 198.0690 C344.9100 198.0325 347.2475 198.6415 348.9175 199.6302 C351.2575 201.0262 352.9475 203.2973 353.6100 205.9413 C354.3975 208.9987 354.4250 218.0797 353.8675 221.2722 C353.6400 222.5865 353.1550 223.8425 352.4375 224.9665 C350.4550 228.0400 347.4575 229.2227 344.0400 229.9580 C341.9325 229.9780 339.5475 229.2872 337.7775 228.1302 C335.4750 226.6260 333.8575 224.3335 333.2975 221.6335 C332.6125 218.3183 332.6075 209.6718 333.2775 206.3582 C333.5225 205.1042 334.0300 203.9160 334.7650 202.8717 C336.6575 200.1915 339.7850 198.6110 342.9600 198.0690 Z"></path>
<path id="" fill="#c1694f" fill-opacity="1.0" stroke="#000000" stroke-width="0.0" stroke-opacity="1.0" stroke-linecap="round" stroke-linejoin="round"  filling="0" d="M291.4725 249.0205 C295.1300 248.8705 312.8450 248.4020 315.0350 249.6120 C316.4900 250.4175 317.6275 251.8750 318.0850 253.4700 C318.5525 255.0975 318.1700 257.3350 317.3375 258.7950 C316.4475 260.3525 315.3575 260.9075 313.6825 261.3700 C309.0650 262.4825 292.9725 262.8200 289.0550 260.4450 C287.9000 259.7450 287.1375 258.6250 286.8600 257.3075 C286.4175 255.2175 286.8250 252.7800 288.0150 250.9975 C288.8825 249.6960 290.0075 249.3365 291.4725 249.0205 Z"></path>
</svg>