<svg xmlns="http://www.w3.org/2000/svg" viewBox="0 0 512 512" height="512.0px" width="512.0px">
<path id="" fill="#3e721d" fill-opacity="1.0" stroke="#000000" stroke-width="0.0" stroke-opacity="1.0" stroke-linecap="round" stroke-linejoin="round"  filling="0" d="M379.8100 60.6065 C383.4650 60.3235 387.2400 60.5230 390.8975 60.7000 C402.0600 61.2400 412.8475 62.6415 423.3025 66.7715 C438.2275 72.6678 444.1225 80.3473 450.2975 94.8582 C465.5925 130.7903 462.2350 171.9953 454.5325 209.3355 C452.4850 219.2598 450.2550 229.2063 447.3550 238.9215 C443.4950 251.6925 439.0000 264.2650 433.8875 276.5875 C422.3975 305.1450 407.0725 332.0025 388.3375 356.4250 C378.4400 369.5125 367.7475 382.0000 355.4075 392.8775 C334.9150 410.7775 311.6275 425.1975 286.4675 435.5600 C262.7500 445.4900 234.0125 451.3450 208.2937 451.3500 C187.4082 451.3550 163.8952 447.2975 144.5630 439.3675 C129.8412 434.0650 113.5623 423.7600 101.8625 413.3600 C74.5520 389.0825 57.6520 354.2050 52.8752 318.2025 C52.4187 314.7600 51.8873 311.3375 51.6732 307.8700 C49.3102 269.5500 64.4435 232.7982 86.6345 202.1495 C92.2982 194.3273 98.5435 186.9727 104.9550 179.7572 C112.9095 170.8055 122.0723 162.6727 131.3925 155.1840 C168.1078 125.6848 211.2660 105.4023 255.2425 89.2198 C279.4825 80.1443 304.3475 72.8400 329.6425 67.3637 C346.1775 63.8927 362.9450 61.6342 379.8100 60.6065 Z"></path>
<path id="" fill="#a5d287" fill-opacity="1.0" stroke="#000000" stroke-width="0.0" stroke-opacity="1.0" stroke-linecap="round" stroke-linejoin="round"  filling="0" d="M376.3775 75.3712 C379.1650 75.1105 381.9450 75.4478 384.7275 75.6452 C392.0075 76.1625 399.0800 76.8250 406.1250 78.8735 C415.8975 81.7145 424.0575 86.7685 429.0100 95.8402 C431.0375 99.5537 432.6175 103.5007 433.4425 107.6598 C434.0950 110.9680 434.1025 114.3090 434.1025 117.6667 C434.1050 127.9228 432.6675 137.2538 429.7550 147.0645 C427.6350 154.2012 425.3825 161.2832 422.5750 168.1857 C394.2950 237.7672 323.5625 318.9850 257.3825 354.7575 C232.5258 368.3000 204.6263 375.2775 176.3217 375.0325 C172.3188 375.0350 168.2760 375.1325 164.2807 374.8825 C153.9680 374.2350 143.0907 372.1475 133.1835 369.2075 C121.5822 365.6925 109.8055 360.3300 100.1642 352.9075 C96.5305 350.1100 92.7278 347.1100 89.4850 343.8775 C78.7385 333.0875 71.8775 319.0350 69.9778 303.9250 C65.3560 267.4100 82.5690 230.5957 104.5147 202.3808 C120.1275 182.3078 138.1747 165.9620 159.1037 151.5972 C169.0172 144.7932 179.6057 139.0105 190.1962 133.3520 C192.9377 131.8875 195.6100 130.2787 198.3887 128.8858 C201.2263 127.4633 204.1882 126.2820 207.0502 124.9030 C210.7350 123.1275 214.3520 121.1988 218.0703 119.4945 C241.8882 108.4705 266.4725 99.1830 291.6300 91.7043 C307.3050 86.7960 323.2425 82.7747 339.3700 79.6598 C346.9775 78.2080 354.9550 77.0885 362.6700 76.3733 C367.2450 75.9495 371.8025 75.9417 376.3775 75.3712 Z"></path>
<path id="" fill="#c5e4b2" fill-opacity="1.0" stroke="#000000" stroke-width="0.0" stroke-opacity="1.0" stroke-linecap="round" stroke-linejoin="round"  filling="0" d="M331.0925 117.0997 C337.0950 116.2072 347.3400 117.6930 353.3375 119.0775 C360.7475 120.7883 369.2100 124.7762 373.3050 131.4823 C378.6600 140.2470 377.6950 151.5145 375.3175 161.0720 C367.3600 193.0378 334.6575 235.8485 312.3375 260.1825 C308.6900 264.1550 304.6500 267.7925 300.9025 271.6750 C298.9625 273.6850 297.2800 275.9400 295.3225 277.9300 C293.3875 279.8975 291.1125 281.5250 289.1300 283.4525 C286.5550 285.9550 284.1125 288.6025 281.4775 291.0425 C270.4475 301.2625 258.1475 311.0375 245.2473 318.7700 C238.4255 322.8575 231.3322 326.7250 224.0137 329.8575 C200.8160 339.7800 173.8033 344.2425 149.0632 338.0625 C138.6695 335.3400 129.4390 330.9600 121.0332 324.2375 C118.1360 321.9200 115.8590 319.0375 113.6017 316.1200 C105.0782 305.1025 102.0435 295.3600 100.5208 281.7275 C99.9238 276.3800 100.2647 271.6925 100.9765 266.3850 C103.7035 246.0547 113.1825 226.7395 126.0330 210.8745 C134.3788 200.4460 143.9832 191.0910 154.6275 183.0222 C169.3212 171.8858 186.3517 162.1885 203.0545 154.4212 C209.8585 151.2570 216.8780 148.4422 223.8070 145.5610 C240.4215 138.6525 257.3925 132.2677 274.7275 127.3980 C278.8250 126.2465 283.0075 125.3928 287.1400 124.3702 C291.8775 123.1980 296.6225 121.8792 301.4100 120.9323 C311.1875 118.9987 321.1875 118.1048 331.0925 117.0997 Z"></path>
<path id="" fill="#662113" fill-opacity="1.0" stroke="#000000" stroke-width="0.0" stroke-opacity="1.0" stroke-linecap="round" stroke-linejoin="round"  filling="0" d="M219.6703 162.1160 C235.7470 161.9312 251.5100 165.4505 265.5475 173.4492 C274.0575 178.2977 288.7325 187.7487 291.3100 197.4883 C294.5125 209.5968 288.3275 222.9895 282.3925 233.3075 C276.4200 243.6953 269.0025 252.6050 260.5050 261.0225 C242.8797 278.4800 223.7090 290.5500 199.6953 297.0275 C192.3622 298.8375 184.8808 299.9850 177.3418 300.4500 C167.5123 301.0350 148.0710 299.7575 140.7360 292.9500 C133.9620 286.6600 130.5388 265.0850 130.2280 255.8175 C129.4657 233.0827 137.9820 209.6232 153.6145 192.9845 C170.0533 175.4870 195.5460 162.8793 219.6703 162.1160 Z"></path>
<path id="" fill="#7b3124" fill-opacity="1.0" stroke="#000000" stroke-width="0.0" stroke-opacity="1.0" stroke-linecap="round" stroke-linejoin="round"  filling="0" d="M216.6897 178.3423 C217.1395 178.2625 217.5293 178.2015 217.9875 178.1990 C225.9048 178.1548 234.7255 181.2360 240.4747 186.7502 C245.3548 191.4308 248.0392 197.6913 248.1640 204.4270 C248.2923 211.3613 247.5225 216.5180 244.2880 222.7422 C242.5123 226.1595 240.4820 229.0795 237.8125 231.8560 C229.4888 240.5140 219.4605 245.9045 207.2885 246.1537 C199.4815 246.2688 192.6517 245.4998 186.2475 240.5697 C179.7493 235.5672 176.3022 229.0860 175.3118 220.9905 C174.1738 211.6897 178.7615 201.7560 184.3595 194.5983 C186.4925 191.8707 188.9860 189.7335 191.7355 187.6452 C199.9507 181.4062 206.6913 179.6060 216.6897 178.3423 Z"></path>
</svg>