<svg xmlns="http://www.w3.org/2000/svg" viewBox="0 0 512 512" height="512.0px" width="512.0px">
<path id="" fill="#e1e8ed" fill-opacity="1.0" stroke="#000000" stroke-width="0.0" stroke-opacity="1.0" stroke-linecap="round" stroke-linejoin="round"  filling="0" d="M292.1450 358.8700 C296.4050 358.9225 300.5675 359.4750 304.5800 360.9575 C313.8175 364.3650 320.9000 371.9400 323.6800 381.3850 C324.2350 383.2175 324.7325 387.1675 325.6950 388.6000 C326.0300 389.1000 326.3300 389.0500 326.8775 389.1300 C328.3150 388.3000 328.2475 384.0100 328.8875 382.3250 C329.4675 380.7900 330.3750 379.2300 331.0900 377.7375 C334.6300 370.3625 338.3200 365.5725 345.9300 362.0075 C353.4175 358.5000 363.0525 357.6900 370.8800 360.5275 C378.4250 363.2625 386.2825 369.2750 389.4175 376.8950 C390.3375 379.1300 391.4900 383.8150 392.3400 385.3775 C392.6725 385.9900 392.9050 386.1425 393.5550 386.3375 C394.0825 386.0500 394.3475 385.7275 394.6100 385.1975 C395.3325 383.7450 395.7625 382.0775 396.3600 380.5625 C397.7725 376.9900 399.6700 373.8025 402.0275 370.7750 C407.2250 364.1050 415.8500 360.0700 424.1725 359.0875 C431.7125 358.1975 440.3075 361.1700 446.1875 365.8475 C453.7225 371.8400 458.8825 379.3100 459.8875 389.0250 C461.2200 401.8950 456.2925 415.1375 448.2125 425.0725 C447.8550 425.5175 447.4850 425.9500 447.1025 426.3700 C443.3875 430.5150 439.1525 434.8575 434.7525 438.2550 C425.4250 445.4550 410.6875 452.3375 399.3250 455.4675 C387.9650 458.5950 373.0125 460.3500 361.1925 460.9375 C356.4875 461.1700 351.7000 460.5050 347.0150 460.0800 C330.5350 458.5775 313.2850 454.8700 298.4700 447.2650 C295.6175 445.8000 292.9050 443.9975 290.1875 442.2950 C285.8950 439.6050 281.7625 436.7725 278.0075 433.3550 C267.9250 424.1700 259.5150 409.2775 258.9750 395.4975 C258.5900 385.5975 260.9450 376.8425 267.8350 369.5075 C274.4375 362.4750 282.5725 359.1625 292.1450 358.8700 Z"></path>
<path id="" fill="#e1e8ed" fill-opacity="1.0" stroke="#000000" stroke-width="0.0" stroke-opacity="1.0" stroke-linecap="round" stroke-linejoin="round"  filling="0" d="M83.1725 359.0675 C85.6730 358.6725 88.4037 359.0525 90.8532 359.6000 C101.2043 361.9050 108.4853 366.9075 113.9887 376.0625 C115.4798 378.5425 116.4860 381.2800 118.0348 383.7275 C118.7038 384.1525 118.9952 384.1925 119.7570 384.1975 C119.9457 384.0900 120.1738 384.0325 120.3235 383.8750 C120.6292 383.5550 123.3855 376.0600 124.2148 374.6075 C128.3230 367.4000 135.4158 362.1725 143.3795 360.0375 C152.0195 357.7200 160.9405 358.7150 168.6545 363.2700 C174.2202 366.5550 179.5390 372.4600 181.7672 378.5750 C183.1022 382.2400 183.7350 385.9925 184.6870 389.7500 C185.2558 390.1800 185.3535 390.0875 186.0785 390.0450 C186.9875 388.3750 187.2700 386.0275 187.7612 384.1850 C188.8735 380.0075 190.4657 375.9000 192.8578 372.2800 C197.3862 365.4300 204.7830 361.0275 212.7682 359.4775 C220.8513 357.9075 230.2840 359.3675 237.1320 364.0675 C245.4413 369.7700 250.5075 377.4675 252.2725 387.3675 C252.7225 389.8900 253.0525 392.4775 252.9175 395.0425 C252.4025 404.7725 247.6215 415.7825 242.0595 423.7575 C239.0715 427.5450 235.9062 431.2700 232.3307 434.5200 C218.7775 446.8350 200.6288 454.4375 182.7513 457.6700 C175.9065 458.9075 169.2198 459.7300 162.2957 460.3450 C159.4550 460.5975 156.5862 460.9625 153.7328 460.9875 C150.2420 461.0175 146.8078 460.5475 143.3342 460.2825 C121.7495 458.6475 98.9315 453.1700 80.9115 440.6250 C74.2332 435.9775 65.7625 428.4725 61.1057 421.7400 C57.0457 415.8725 53.9113 408.1225 52.6803 401.1050 C50.8853 390.8700 52.4628 381.6675 58.5063 373.1425 C64.8025 364.2625 72.6745 360.8775 83.1725 359.0675 Z"></path>
<path id="" fill="#fefefe" fill-opacity="1.0" stroke="#000000" stroke-width="0.0" stroke-opacity="1.0" stroke-linecap="round" stroke-linejoin="round"  filling="0" d="M246.4395 151.1443 C322.3650 145.7583 388.2750 202.9580 393.6325 278.8850 C398.9925 354.8150 341.7675 420.7025 265.8375 426.0325 C189.9467 431.3600 124.0997 374.1725 118.7445 298.2850 C113.3893 222.3955 170.5525 156.5275 246.4395 151.1443 Z"></path>
<path id="" fill="#af7e57" fill-opacity="1.0" stroke="#000000" stroke-width="0.0" stroke-opacity="1.0" stroke-linecap="round" stroke-linejoin="round"  filling="0" d="M117.3603 328.7600 C113.4933 321.5100 110.7347 313.6075 108.5110 305.7075 C100.4818 277.7000 100.6700 247.9722 109.0535 220.0672 C120.7567 181.1810 147.3533 148.4955 183.0482 129.1317 C219.2905 109.8595 260.4575 104.7498 299.9500 116.9060 C339.0950 128.6382 372.0250 155.3505 391.5775 191.2335 C411.0625 227.4255 415.0825 269.9600 402.7225 309.1600 C401.2775 313.8200 397.5650 327.1800 393.2925 329.4075 C391.7375 330.2175 390.3875 329.9050 388.7925 329.3775 C388.4575 329.2650 388.1350 329.1300 387.8050 329.0125 C387.4450 328.8825 387.5550 328.9300 387.0775 328.9150 C386.7175 330.3750 386.3500 331.8400 385.8950 333.2750 C384.4975 337.6700 382.4825 341.6625 380.5925 345.8475 C378.2275 351.0825 375.9750 356.2325 373.0425 361.1900 C369.0300 367.9725 364.3100 373.8275 359.0925 379.6875 C356.8050 382.2550 354.6150 384.9125 352.2225 387.3850 C346.2375 393.5750 339.1200 399.3050 331.9250 404.0525 C328.1525 406.5400 324.1200 408.2225 320.1475 410.3000 C317.7200 411.5700 315.4200 413.0750 312.9850 414.3325 C307.3725 417.2275 301.1100 419.2600 295.0475 420.9650 C291.5100 421.9600 287.9375 423.0675 284.3300 423.7725 C273.8575 425.8250 265.5175 426.0725 254.9550 426.0700 C251.2300 426.0675 247.4492 426.1850 243.7372 425.8650 C233.2930 424.9475 222.9803 422.8925 212.9830 419.7325 C207.9798 418.1100 203.4230 415.8850 198.6785 413.6625 C193.8135 411.3825 188.8700 409.1600 184.2670 406.3725 C179.0595 403.2200 174.4680 399.5550 169.7840 395.7050 C166.9490 393.3775 163.9798 391.2100 161.2950 388.7025 C153.1608 381.1050 143.8867 369.0025 138.5717 359.2625 C137.1310 356.6225 136.0480 353.8250 134.6985 351.1425 C133.4557 348.6750 131.8858 346.2900 130.8505 343.7275 C128.9223 338.9575 127.7428 333.8925 125.3635 329.2875 L125.2675 329.1050 C122.4193 330.0550 120.3865 330.2750 117.5908 328.8775 L117.3603 328.7600 Z"></path>
<path id="" fill="#60352a" fill-opacity="1.0" stroke="#000000" stroke-width="0.0" stroke-opacity="1.0" stroke-linecap="round" stroke-linejoin="round"  filling="0" d="M117.3603 328.7600 C113.4933 321.5100 110.7347 313.6075 108.5110 305.7075 C100.4818 277.7000 100.6700 247.9722 109.0535 220.0672 C120.7567 181.1810 147.3533 148.4955 183.0482 129.1317 C219.2905 109.8595 260.4575 104.7498 299.9500 116.9060 C339.0950 128.6382 372.0250 155.3505 391.5775 191.2335 C411.0625 227.4255 415.0825 269.9600 402.7225 309.1600 C401.2775 313.8200 397.5650 327.1800 393.2925 329.4075 C391.7375 330.2175 390.3875 329.9050 388.7925 329.3775 C388.4575 329.2650 388.1350 329.1300 387.8050 329.0125 C387.4450 328.8825 387.5550 328.9300 387.0775 328.9150 C387.0900 328.3650 387.1400 328.5650 386.9500 328.0775 C385.2325 323.6725 384.6725 318.9650 383.3675 314.4325 C380.0825 303.0250 374.7200 292.8775 367.9500 283.1725 C336.0975 237.5245 271.4675 204.1920 217.4795 194.6068 C217.5070 221.7442 187.4285 243.3327 169.2300 259.9750 C159.3407 269.0175 149.4755 278.7125 141.7885 289.7450 C137.4937 295.9100 133.4662 302.7575 130.8680 309.8250 C129.9570 312.3025 129.2100 314.8975 128.5773 317.4575 C127.7595 320.7675 127.4933 325.7075 125.3995 328.4600 C125.2978 328.5925 125.1882 328.7200 125.0827 328.8525 L125.2675 329.1050 C122.4193 330.0550 120.3865 330.2750 117.5908 328.8775 L117.3603 328.7600 Z"></path>
<path id="" fill="#8cc9f6" fill-opacity="1.0" stroke="#000000" stroke-width="0.0" stroke-opacity="1.0" stroke-linecap="round" stroke-linejoin="round"  filling="0" d="M242.7937 51.1070 C243.0535 51.0887 243.3132 51.0730 243.5733 51.0598 C247.7773 50.8253 252.0725 50.9628 256.2850 50.9655 C260.6725 50.9685 265.1175 50.8525 269.4975 51.0728 C300.5850 52.6362 338.3225 60.2585 364.6250 77.6758 C367.8975 79.8420 371.2600 81.9755 374.1750 84.6172 C384.0325 93.5505 392.4900 103.8288 393.0775 117.7858 C393.5450 128.9012 388.6150 139.4662 381.1100 147.5108 C377.6425 151.2270 373.8775 154.7925 369.8075 157.8372 C342.7750 178.0590 300.2525 186.5013 267.2125 187.7795 C259.3350 187.8540 251.3625 188.0740 243.4960 187.7065 C215.2390 186.3860 185.9190 180.8010 160.3452 168.3922 C155.6445 166.1115 151.1483 163.3370 146.6655 160.6582 C146.0470 160.6915 145.4560 160.6900 144.8387 160.6620 L144.6025 160.3555 L144.9705 159.4212 C144.0592 159.3828 143.5323 160.2177 142.7640 160.7105 C142.6853 159.7943 142.6127 158.8772 142.5460 157.9600 C140.6865 156.1355 138.6512 154.5225 136.6582 152.8488 C127.3327 145.0172 120.4507 133.5457 119.4455 121.2812 C118.5312 110.1273 124.3272 99.5335 131.3190 91.2980 C137.1160 84.4698 145.0255 79.0543 152.7547 74.6205 C175.1503 61.7737 200.9425 55.4227 226.4315 52.4723 C231.8545 51.8445 237.3508 51.5567 242.7937 51.1070 Z M260.9375 153.2413 C286.2325 153.0748 316.9375 148.8217 339.3075 136.5335 C343.6600 134.1422 347.7675 131.6165 351.3050 128.0720 C355.0575 124.3100 358.2825 119.4688 358.2375 113.9877 C358.1875 107.7047 354.9625 103.2220 350.6100 98.9952 C330.1575 79.1422 279.8400 73.4272 252.2375 74.0575 C251.9375 74.0645 251.6375 74.0807 251.3375 74.1065 C241.2450 74.7733 231.1497 75.3127 221.1243 76.7093 C202.7280 79.2722 172.2598 86.5070 159.5745 101.0772 C156.3607 104.7682 153.8282 109.7347 154.1480 114.7585 C154.5918 121.7265 159.8997 127.0837 164.9267 131.3040 C167.8805 133.7840 171.2068 135.5175 174.5895 137.3242 C194.3995 147.9035 221.1080 152.0480 243.3330 153.0932 C249.1770 153.3683 255.0875 153.2790 260.9375 153.2413 Z"></path>
<path id="" fill="#60352a" fill-opacity="1.0" stroke="#000000" stroke-width="0.0" stroke-opacity="1.0" stroke-linecap="round" stroke-linejoin="round"  filling="0" d="M211.8010 358.0875 C217.3220 357.8000 222.9507 357.9850 228.4818 357.9825 L258.4900 357.9825 L286.0025 357.9800 C290.9775 357.9775 296.0575 357.7675 301.0200 358.0525 C301.3725 358.5775 301.4200 358.7025 301.3375 359.3700 C300.9250 362.7000 293.5700 369.2375 290.8575 371.1750 C277.0400 380.8700 259.7575 383.2575 243.3685 380.4075 C233.6395 378.7275 224.6183 374.2275 217.4238 367.4675 C215.8695 366.0050 214.2825 364.5075 213.0855 362.7300 C212.1068 361.2775 211.4518 359.8450 211.8010 358.0875 Z"></path>
<path id="" fill="#60352a" fill-opacity="1.0" stroke="#000000" stroke-width="0.0" stroke-opacity="1.0" stroke-linecap="round" stroke-linejoin="round"  filling="0" d="M220.5878 267.0475 C223.3873 266.9375 226.0615 267.3375 228.4577 268.9125 C231.1585 270.6875 232.9480 273.4625 233.6333 276.5975 C234.3358 279.8125 234.3663 299.3475 233.7787 303.0450 C233.4722 304.9775 232.8415 306.9625 231.7355 308.5900 C230.0473 311.0700 226.9030 312.4150 224.0640 313.0275 C221.0755 313.2450 218.4048 313.0500 215.7923 311.3900 C212.9803 309.6025 211.1755 306.8525 210.4475 303.6275 C209.7545 300.5575 209.8027 281.3975 210.2888 278.1500 C210.6033 276.0475 211.2448 274.0175 212.4223 272.2300 C214.4653 269.1300 217.0927 267.8300 220.5878 267.0475 Z"></path>
<path id="" fill="#60352a" fill-opacity="1.0" stroke="#000000" stroke-width="0.0" stroke-opacity="1.0" stroke-linecap="round" stroke-linejoin="round"  filling="0" d="M288.5275 267.0275 C291.3450 266.8675 294.0450 267.1250 296.5425 268.5650 C299.1575 270.0700 300.8475 272.6250 301.5850 275.5175 C302.3050 278.3525 302.4050 299.7650 301.9675 302.9150 C301.7275 304.7200 301.1125 306.4550 300.1625 308.0100 C298.2850 311.0750 295.7925 312.1800 292.4475 312.9525 C289.6475 313.1775 287.0475 313.2100 284.5050 311.7750 C282.0150 310.3700 280.0700 307.8725 279.3325 305.1125 C278.6825 302.6675 278.6650 279.5300 279.0100 276.4075 C279.1475 275.1400 279.4175 273.8600 280.0725 272.7500 C281.8675 269.7125 285.2300 267.9325 288.5275 267.0275 Z"></path>
</svg>