<svg xmlns="http://www.w3.org/2000/svg" viewBox="0 0 512 512" height="512.0px" width="512.0px">
<path id="" fill="#272b2b" fill-opacity="1.0" stroke="#000000" stroke-width="0.0" stroke-opacity="1.0" stroke-linecap="round" stroke-linejoin="round"  filling="0" d="M135.7598 188.4167 C138.7012 183.0007 159.3793 170.1105 165.1337 166.7487 C171.2948 163.1495 177.7840 160.2560 183.3925 155.7547 C188.4677 151.6817 192.5697 146.0095 196.2890 140.7128 C202.1870 132.3135 206.0562 122.9457 208.7770 113.0900 C210.8833 105.4593 212.3878 97.5253 213.5182 89.6950 C213.9805 86.4945 213.9077 82.9790 214.6452 79.8595 C214.8920 78.8163 215.2628 78.0775 216.0797 77.3842 C219.7372 76.4622 227.1608 77.0370 231.2735 77.0378 L261.0075 77.0375 L284.2350 77.0345 C288.3975 77.0315 292.8400 76.6902 296.9625 77.2083 C296.9700 77.2405 296.9775 77.2730 296.9850 77.3053 C298.4300 83.3015 298.5575 89.7227 299.6575 95.8257 C303.0675 114.7122 307.2025 130.3545 319.2875 145.7300 C322.1550 149.3808 325.0475 152.9005 328.6725 155.8392 C333.7450 159.9495 339.7150 163.0065 345.3675 166.2280 C354.6150 171.4978 367.9975 178.9247 374.9525 186.9155 L375.1750 187.1725 C377.7825 189.3972 380.0175 192.8920 381.9600 195.7185 C391.9400 210.2570 396.1425 224.4677 397.5225 241.8763 C398.9200 259.4550 393.9375 276.8150 387.2325 292.8550 C386.3025 295.0825 384.9650 299.2925 383.6875 301.1025 C380.1200 309.3200 375.3900 316.9475 370.6475 324.5250 C354.1500 350.8775 334.2200 374.1750 314.0125 397.6775 C309.5075 402.9175 298.4100 416.4525 292.9750 419.3200 C291.8900 419.8900 290.1450 419.9300 288.9200 419.9875 C285.2125 420.1650 281.4400 420.0350 277.7275 420.0325 L257.0175 420.0250 L235.0658 420.0300 C231.1280 420.0300 227.1400 420.1575 223.2070 419.9750 C221.7370 419.9075 219.8042 419.7250 218.4462 419.1500 C214.6237 417.5325 207.0230 407.8450 203.8533 404.3300 C197.7408 397.5550 191.8715 390.5925 185.9402 383.6600 C165.3658 359.6150 141.3335 329.6200 128.0345 300.8275 C126.5030 298.6825 125.5072 295.3800 124.4928 292.9325 C118.4637 278.3800 114.1313 262.9600 114.2137 247.0862 C114.3065 229.1705 119.4615 210.9408 129.6650 196.1562 C131.5160 193.4742 133.4415 190.7162 135.7598 188.4167 Z"></path>
<path id="" fill="#c1694f" fill-opacity="1.0" stroke="#000000" stroke-width="0.0" stroke-opacity="1.0" stroke-linecap="round" stroke-linejoin="round"  filling="0" d="M128.0345 300.8275 C132.8250 301.3875 137.6640 301.2050 142.4783 301.1750 C149.1320 301.1100 155.7863 301.0925 162.4402 301.1275 L246.8660 301.1350 L342.4375 301.1400 L370.3500 301.0775 C374.6875 301.0850 379.3975 301.5100 383.6875 301.1025 C380.1200 309.3200 375.3900 316.9475 370.6475 324.5250 C354.1500 350.8775 334.2200 374.1750 314.0125 397.6775 C309.5075 402.9175 298.4100 416.4525 292.9750 419.3200 C291.8900 419.8900 290.1450 419.9300 288.9200 419.9875 C285.2125 420.1650 281.4400 420.0350 277.7275 420.0325 L257.0175 420.0250 L235.0658 420.0300 C231.1280 420.0300 227.1400 420.1575 223.2070 419.9750 C221.7370 419.9075 219.8042 419.7250 218.4462 419.1500 C214.6237 417.5325 207.0230 407.8450 203.8533 404.3300 C197.7408 397.5550 191.8715 390.5925 185.9402 383.6600 C165.3658 359.6150 141.3335 329.6200 128.0345 300.8275 Z"></path>
<path id="" fill="#c1694f" fill-opacity="1.0" stroke="#000000" stroke-width="0.0" stroke-opacity="1.0" stroke-linecap="round" stroke-linejoin="round"  filling="0" d="M135.7598 188.4167 C138.7012 183.0007 159.3793 170.1105 165.1337 166.7487 C171.2948 163.1495 177.7840 160.2560 183.3925 155.7547 C188.4677 151.6817 192.5697 146.0095 196.2890 140.7128 C202.1870 132.3135 206.0562 122.9457 208.7770 113.0900 C210.8833 105.4593 212.3878 97.5253 213.5182 89.6950 C213.9805 86.4945 213.9077 82.9790 214.6452 79.8595 C214.8920 78.8163 215.2628 78.0775 216.0797 77.3842 C219.7372 76.4622 227.1608 77.0370 231.2735 77.0378 L261.0075 77.0375 L284.2350 77.0345 C288.3975 77.0315 292.8400 76.6902 296.9625 77.2083 C296.9700 77.2405 296.9775 77.2730 296.9850 77.3053 C298.4300 83.3015 298.5575 89.7227 299.6575 95.8257 C303.0675 114.7122 307.2025 130.3545 319.2875 145.7300 C322.1550 149.3808 325.0475 152.9005 328.6725 155.8392 C333.7450 159.9495 339.7150 163.0065 345.3675 166.2280 C354.6150 171.4978 367.9975 178.9247 374.9525 186.9155 L375.1750 187.1725 L374.3725 186.9800 C374.2850 186.9585 374.2000 186.9315 374.1125 186.9088 C370.5050 185.9747 357.4525 186.4967 353.0900 186.4925 L306.3275 186.4645 L198.6250 186.4498 L159.5745 186.4845 C152.5075 186.5185 145.3910 186.4142 138.3313 186.7425 C137.4835 187.3168 136.6438 187.8987 135.7598 188.4167 Z"></path>
<path id="" fill="#272b2b" fill-opacity="1.0" stroke="#000000" stroke-width="0.0" stroke-opacity="1.0" stroke-linecap="round" stroke-linejoin="round"  filling="0" d="M235.9323 413.1025 C242.6240 412.8150 249.3570 412.9225 256.0550 412.9225 C262.4175 412.9225 268.8800 412.7200 275.2200 413.3000 C289.2750 414.5875 304.7525 419.7825 315.7850 428.7200 C320.9500 432.9025 324.5725 439.4800 325.1600 446.1300 C325.3150 447.8875 324.9550 449.3800 323.7750 450.7200 C316.4175 459.0750 285.0800 460.0150 274.3125 460.5075 C254.6700 461.3475 204.7850 461.8350 189.0643 452.9525 C187.5408 452.0925 185.6930 450.7775 185.2740 448.9725 C184.7365 446.6525 185.4917 443.5600 186.1532 441.3175 C189.0275 431.5700 197.6308 425.3225 206.5112 421.3375 C208.2480 420.5600 213.3025 419.0325 214.2103 417.5450 C214.2847 416.9200 214.2782 416.5700 214.6487 416.0375 C216.1127 415.6950 217.4975 416.3650 218.9475 416.1700 C224.4388 415.4400 230.2150 413.8975 235.9323 413.1025 Z"></path>
<path id="" fill="#272b2b" fill-opacity="1.0" stroke="#000000" stroke-width="0.0" stroke-opacity="1.0" stroke-linecap="round" stroke-linejoin="round"  filling="0" d="M245.2985 51.1178 C261.6175 50.8362 309.3875 50.8248 322.1750 60.0128 C323.7425 61.1390 324.9225 62.6395 325.1475 64.6028 C325.5725 68.2770 322.8750 73.7170 320.6425 76.5577 C316.8475 81.3897 311.9375 84.3980 306.5575 87.1622 C303.4800 88.7418 300.3425 90.3665 297.1150 91.6180 C287.6550 95.2888 277.0450 97.1815 266.9975 98.3412 C265.9125 98.5370 264.8275 98.6543 263.7300 98.7408 C242.9995 100.3690 211.3997 94.4160 195.3152 80.6328 C190.8405 76.7982 187.3355 72.0323 186.9617 65.9668 C186.8472 64.1085 187.0788 62.3783 188.3887 60.9637 C195.9238 52.8282 233.5085 51.4250 245.2985 51.1178 Z"></path>
<path id="" fill="#c1694f" fill-opacity="1.0" stroke="#000000" stroke-width="0.0" stroke-opacity="1.0" stroke-linecap="round" stroke-linejoin="round"  filling="0" d="M345.0275 86.8995 C351.9500 86.2915 358.7425 87.4677 364.8300 90.9030 C374.6750 96.4603 380.5325 106.5900 383.4900 117.2303 C388.4175 134.9575 385.7625 154.6483 379.2925 171.6407 C377.9450 175.1795 376.5325 178.7843 374.6350 182.0705 C374.0175 183.1422 373.3950 184.2088 372.1475 184.5432 C369.1375 183.3115 367.1300 180.5723 364.5325 178.7032 C360.8900 176.0795 356.7700 174.2075 353.1125 171.6235 C356.4900 165.9097 359.0375 160.1810 359.9125 153.5298 C360.4400 150.4870 360.5525 147.2775 360.5200 144.1950 C360.4450 137.3480 358.2375 129.7702 353.1900 124.9098 C350.0675 121.8618 345.8475 120.1975 341.4850 120.2907 C333.7175 120.4610 327.5200 125.6187 322.4375 130.9603 C320.6900 132.7965 315.9950 137.5677 316.1575 140.1613 C316.1700 140.3297 316.1875 140.4978 316.2025 140.6660 L315.5975 140.9875 C315.2950 140.9365 315.2750 140.9530 314.9575 140.7875 C311.5750 139.0165 304.6200 121.0940 303.6550 117.2195 C303.1975 115.3878 302.3175 112.3767 303.3450 110.6762 C304.2700 110.1097 305.2975 110.6827 306.2725 110.2905 C307.6575 109.7320 310.7300 105.6935 311.8900 104.4628 C320.5075 95.3383 332.3300 88.0367 345.0275 86.8995 Z"></path>
<path id="" fill="#c1694f" fill-opacity="1.0" stroke="#000000" stroke-width="0.0" stroke-opacity="1.0" stroke-linecap="round" stroke-linejoin="round"  filling="0" d="M160.9698 86.8530 C162.0598 86.6833 163.2250 86.7135 164.3268 86.7158 C177.1033 86.7400 189.6125 94.1687 198.4792 102.8785 C199.6335 104.0123 204.9138 109.9178 205.5833 110.3510 C206.1458 110.7150 207.0213 110.2487 207.6528 110.1450 C208.2827 110.0417 208.2962 110.0222 208.7988 110.3748 C208.9438 110.8952 209.0735 111.3838 209.0975 111.9265 C209.3683 118.0320 203.9628 128.3670 201.1958 133.8808 C200.0905 136.0835 199.0262 138.7993 197.3553 140.6095 C197.1745 140.5312 196.9595 140.5065 196.8130 140.3748 C195.9003 139.5538 195.1693 137.7895 194.4460 136.7533 C192.8613 134.4778 191.1035 132.3277 189.1885 130.3223 C184.1895 125.1053 177.6995 120.3562 170.1577 120.2555 C165.8285 120.1975 161.5027 122.2635 158.4635 125.2970 C152.4733 131.2755 151.4410 140.0195 151.4933 148.0513 C151.7603 155.7430 154.4673 165.3423 159.0125 171.6133 C155.8362 173.5697 152.6528 175.4830 149.5932 177.6225 C146.8355 179.5510 144.1725 181.7205 141.3030 183.4765 C140.6588 183.8707 139.8670 184.4330 139.0943 184.3743 C137.3042 182.8457 136.1835 179.9133 135.2372 177.7985 C130.4800 167.2832 127.5075 156.0490 126.4425 144.5567 C125.0935 129.0445 127.5855 110.7758 137.9770 98.5485 C143.9397 91.5325 151.8058 87.5533 160.9698 86.8530 Z"></path>
<path id="" fill="#c0684e" fill-opacity="1.0" stroke="#000000" stroke-width="0.0" stroke-opacity="1.0" stroke-linecap="round" stroke-linejoin="round"  filling="0" d="M313.8850 209.3683 C313.9775 209.3555 314.0700 209.3407 314.1625 209.3302 C317.3450 208.9698 320.6875 209.1580 323.8875 209.1552 L340.8250 209.1503 L356.2775 209.1415 C359.4025 209.1362 362.6925 208.9447 365.7925 209.3615 C367.7525 209.6255 369.6000 210.3562 371.1375 211.6178 C373.5450 213.5938 374.5575 216.2030 374.8550 219.2323 C375.1450 222.1613 374.9575 225.2310 374.9350 228.1735 C374.9000 232.9865 374.8900 237.7997 374.9100 242.6130 L374.9375 258.9275 C374.9425 262.0200 375.1750 265.3150 374.7650 268.3825 C374.4725 270.5625 373.9625 272.3850 372.5075 274.1000 C369.7350 277.3700 365.6325 278.5150 361.5100 278.8000 C357.0875 279.1050 352.5275 278.9100 348.0925 278.9200 C343.7250 278.9300 338.9425 279.3350 334.6425 278.5725 C332.8275 278.2525 330.8550 277.6825 329.4750 276.4125 C328.4025 275.4250 327.9800 274.2075 327.9675 272.7700 C327.9525 271.2400 328.3175 269.5550 329.4475 268.4475 C330.6975 267.2250 332.7950 266.6900 334.4825 266.4550 C337.7675 266.0000 341.3600 266.2825 344.6875 266.2975 L363.0675 266.3475 L363.0075 260.0625 L363.0600 221.0013 C358.0450 221.1528 352.9875 221.0235 347.9675 221.0237 L317.6425 221.0737 C317.9550 224.5157 318.2950 228.7525 317.6850 232.1703 L335.9625 232.1125 C339.4050 232.1045 343.0675 231.8503 346.4825 232.2858 C348.2975 232.5170 349.6850 233.0675 350.7925 234.5842 C351.6575 235.7730 352.1575 237.3922 351.9100 238.8600 C351.5475 240.9990 350.0300 242.6418 348.3375 243.8690 C341.8175 244.1885 335.2400 244.0188 328.7125 244.0237 C324.1375 244.0273 319.3425 244.3100 314.7925 243.8528 C313.3575 243.7083 311.8800 243.4295 310.5625 242.8255 C308.4675 241.8642 307.0825 240.6613 306.3525 238.4435 C304.7325 233.5152 304.4625 218.6375 307.0050 214.0735 C308.4425 211.4930 311.1875 210.2063 313.8850 209.3683 Z"></path>
<path id="" fill="#c0684e" fill-opacity="1.0" stroke="#000000" stroke-width="0.0" stroke-opacity="1.0" stroke-linecap="round" stroke-linejoin="round"  filling="0" d="M234.2827 209.3073 C235.1505 209.2215 236.0280 209.2097 236.8987 209.1828 C246.8488 208.8732 256.9050 209.1660 266.8650 209.1438 C271.8725 209.1325 280.7250 208.6025 285.3750 209.3695 C287.6275 209.7408 289.8700 210.5412 291.5225 212.1695 C294.4725 215.0805 294.8775 219.3147 294.9050 223.2287 L294.9125 253.2900 C294.9100 257.9750 295.4425 264.0325 294.5900 268.5375 C294.1075 271.0875 293.0475 273.5150 291.1625 275.3450 C289.4675 276.9925 287.3375 277.7775 285.0700 278.2600 C280.0875 279.3175 274.7300 278.9350 269.6525 278.9250 C265.0825 278.9175 260.4900 278.9925 255.9225 278.8450 C253.6250 278.7725 250.8175 278.4125 249.2120 276.5825 C247.5175 274.6500 247.8848 272.0850 248.0733 269.7350 C248.3672 269.3175 248.6642 268.8850 249.0095 268.5075 C250.1500 267.2650 252.2575 266.7800 253.8650 266.5125 C257.1550 265.9625 260.8450 266.2750 264.1875 266.2825 L283.0000 266.3275 C282.9400 263.8800 282.9650 261.4250 282.9525 258.9775 L283.0075 221.0180 L237.0560 221.0415 C237.0920 224.7660 237.0855 228.4908 237.0367 232.2153 C242.5067 232.0063 248.0293 232.1333 253.5050 232.1172 C257.5100 232.1057 261.7000 231.8550 265.6850 232.2215 C266.8150 232.3255 268.0750 232.5085 269.0900 233.0397 C270.9375 234.0087 271.5450 236.1087 272.0800 237.9620 C271.8575 238.8440 271.6425 239.7405 271.2500 240.5665 C270.6600 241.8185 269.5850 243.0260 268.2150 243.4288 C264.6950 244.4645 238.5850 244.3127 234.1675 243.8257 C232.4885 243.6407 230.7140 243.1885 229.2410 242.3510 C227.2988 241.2465 226.1897 239.5688 225.6682 237.4258 C224.8520 234.0712 224.8285 221.7332 225.3660 218.1758 C225.5923 216.6765 226.0383 215.2185 226.8440 213.9260 C228.6057 211.0995 231.1893 210.0103 234.2827 209.3073 Z"></path>
<path id="" fill="#c0684e" fill-opacity="1.0" stroke="#000000" stroke-width="0.0" stroke-opacity="1.0" stroke-linecap="round" stroke-linejoin="round"  filling="0" d="M154.0000 209.3362 C157.5260 209.0085 161.1365 209.1478 164.6767 209.1445 L181.9677 209.1342 L195.8885 209.1373 C198.8110 209.1395 201.8480 208.9742 204.7473 209.3530 C206.8210 209.6240 209.0437 210.2937 210.6855 211.6210 C212.5558 213.1328 213.6438 215.6582 213.9238 218.0143 C214.2632 220.8745 214.0930 223.8907 214.0895 226.7682 L214.0705 241.7755 L214.0750 259.5125 C214.0735 263.0525 214.2635 266.7275 213.8233 270.2425 C213.6285 271.7975 213.2303 272.9525 212.2348 274.1825 C209.1260 278.0225 204.5423 278.3700 199.9865 278.7800 C195.7312 279.1650 191.2615 278.9325 186.9820 278.9400 C182.8810 278.9450 178.2737 279.3625 174.2520 278.6775 C172.3345 278.3500 170.4190 277.7375 168.9402 276.4225 C167.9373 275.5275 167.2370 274.3700 167.1825 273.0050 C167.1183 271.4025 167.8748 269.6950 168.9715 268.5475 C169.8430 267.6375 170.9320 267.0500 172.1593 266.7800 C176.0490 265.9225 180.4000 266.2825 184.3652 266.2900 L202.2632 266.3375 C202.2755 264.1575 202.2402 261.9775 202.2272 259.7975 C202.1842 246.8698 202.2070 233.9413 202.2955 221.0132 C187.1638 221.1823 172.0190 221.0202 156.8850 221.0578 L156.9753 232.1865 L175.8367 232.1093 C179.6970 232.0975 183.9852 231.7318 187.7765 232.4467 C188.6265 233.1045 189.4930 233.7552 190.1215 234.6400 C191.0130 235.8950 191.4897 237.4608 191.2030 238.9945 C190.7710 241.3045 189.1028 242.6217 187.2685 243.8505 C181.7928 244.3860 175.9857 244.0318 170.4775 244.0338 C165.2383 244.0358 159.6390 244.4182 154.4405 243.8403 C152.6925 243.6460 150.7502 243.2552 149.1970 242.4095 C147.3943 241.4277 145.9310 239.5250 145.4440 237.5335 C144.5985 234.0753 144.6783 220.9360 145.3427 217.1882 C145.5367 216.0945 145.8808 215.1530 146.4840 214.2198 C148.3013 211.4080 150.8407 210.0733 154.0000 209.3362 Z"></path>
</svg>