<svg xmlns="http://www.w3.org/2000/svg" viewBox="0 0 512 512" height="512.0px" width="512.0px">
<path id="" fill="#fecc4d" fill-opacity="1.0" stroke="#000000" stroke-width="0.0" stroke-opacity="1.0" stroke-linecap="round" stroke-linejoin="round"  filling="0" d="M248.5822 51.2810 C361.5900 47.1888 456.5350 135.4518 460.6825 248.4577 C464.8325 361.4650 376.6175 456.4525 263.6125 460.6575 C150.5290 464.8675 55.4580 376.5750 51.3058 263.4900 C47.1533 150.4023 135.4933 55.3760 248.5822 51.2810 Z"></path>
<path id="" fill="#bddcf3" fill-opacity="1.0" stroke="#000000" stroke-width="0.0" stroke-opacity="1.0" stroke-linecap="round" stroke-linejoin="round"  filling="0" d="M246.7617 51.1470 C250.7625 50.6642 255.0475 50.9182 259.0825 50.9290 C286.8225 51.0045 313.8750 57.5365 339.1950 68.6523 C375.9825 85.1425 407.1700 111.9920 428.9450 145.9198 C434.5500 154.7945 439.8850 164.5860 444.0775 174.1983 C445.8225 178.2000 447.2900 182.3927 448.8775 186.4653 C450.0975 189.5992 450.9775 192.8293 451.9800 196.0352 C458.8700 218.3932 461.9250 241.7567 461.0125 265.1350 C460.8425 268.7800 460.3250 272.4500 459.9500 276.0800 C459.5825 279.6225 459.5450 285.9850 458.0875 289.0075 C457.7150 289.7825 457.3325 290.0800 456.5425 290.3825 C454.8600 289.3675 452.4100 282.5175 451.5150 280.4750 C447.3075 270.8550 442.4375 261.5500 435.8950 253.2825 C429.9550 245.7762 423.4350 238.3907 416.3450 231.9563 C413.5525 229.4220 410.4875 227.1217 407.5300 224.7818 C377.0725 200.6840 339.8700 186.4093 301.8000 179.9345 C289.4025 177.8260 277.6600 177.4785 265.3200 176.0482 C253.0200 175.7162 240.7088 176.2210 228.4755 177.5590 C221.5405 178.3800 214.5620 179.1620 207.6888 180.4070 C168.5038 187.5050 129.5222 203.1260 99.1452 229.2915 C92.5765 234.9498 88.0067 239.4715 82.2940 245.9512 C80.5348 247.9467 78.6908 249.9193 77.0853 252.0400 C71.9993 258.7550 66.9977 265.9675 63.2715 273.5250 C61.8508 276.4075 60.5983 279.3950 59.3898 282.3700 C58.4433 284.7000 57.6050 287.9800 56.0602 289.9375 C55.5497 290.0625 55.3018 290.1775 54.8325 289.8250 C53.5983 288.9000 53.2453 286.5925 53.0545 285.1650 C51.4465 273.1300 50.6277 260.6575 51.0363 248.5168 C51.1270 245.8215 51.4790 243.1370 51.7068 240.4510 C53.2912 221.7583 56.8600 202.8423 63.4677 185.2330 C67.1422 175.4405 71.7610 166.1783 76.7823 157.0225 C81.3238 148.7417 86.0757 140.6100 91.8603 133.1127 C116.9173 100.6365 148.5067 76.6178 187.2973 62.9212 C194.2500 60.4662 201.3610 58.1920 208.5555 56.5590 C215.7697 54.9212 224.4215 53.1145 231.7457 52.3163 C236.7435 51.7715 241.7567 51.7892 246.7617 51.1470 Z"></path>
<path id="" fill="#5dadeb" fill-opacity="1.0" stroke="#000000" stroke-width="0.0" stroke-opacity="1.0" stroke-linecap="round" stroke-linejoin="round"  filling="0" d="M107.2040 278.7600 C109.4935 278.6275 110.9342 279.6025 112.6118 281.0575 C127.7675 294.2150 149.9637 340.1375 157.4883 360.2725 C160.8035 369.1450 164.2175 379.1250 164.9043 388.6175 C166.0520 404.4900 160.5690 419.3500 150.1803 431.2775 C147.1705 434.7325 143.5847 437.5925 139.7585 440.0975 C130.1138 446.4075 120.4252 448.9300 109.0403 449.7075 C100.0700 449.5675 90.8960 447.6850 82.8002 443.7600 C69.4423 437.2800 58.8370 424.9775 54.0505 410.9975 C51.6380 403.7800 50.6893 396.1525 51.2600 388.5650 C52.5013 373.2300 62.1223 350.0450 69.0095 336.1025 C74.7410 324.4975 95.9970 282.5550 107.2040 278.7600 Z"></path>
<path id="" fill="#664500" fill-opacity="1.0" stroke="#000000" stroke-width="0.0" stroke-opacity="1.0" stroke-linecap="round" stroke-linejoin="round"  filling="0" d="M252.9550 318.1100 C253.2350 318.0925 253.5150 318.0775 253.7975 318.0650 C257.3800 317.8950 260.9175 318.3600 264.4550 318.8850 C276.3450 320.6575 287.4250 324.5475 296.4425 332.8375 C305.2975 340.8250 312.1925 350.7475 316.5900 361.8325 C317.5800 364.2725 318.8225 367.0950 318.8575 369.7725 C318.8775 371.4475 318.3200 373.1925 317.0900 374.3725 C316.8575 374.5975 316.6025 374.8000 316.3300 374.9775 C315.7325 375.3650 315.0400 375.6325 314.3500 375.8050 C313.3025 376.0700 312.4025 376.0900 311.3850 375.7150 C309.4450 375.0000 307.7875 373.3775 305.9275 372.4300 C302.2625 370.5675 298.1250 369.3350 294.1700 368.2400 C282.7175 365.0650 270.9100 364.8700 259.1250 364.9375 C242.6293 364.8850 225.9633 364.6975 210.2655 370.6050 C206.5103 372.0200 203.3743 374.6300 199.6758 376.0375 C199.5872 376.0700 199.4975 376.1025 199.4082 376.1325 C198.0352 375.6775 196.3757 375.1750 195.1812 374.3400 C194.0562 373.5525 193.4547 372.5200 193.2198 371.1750 C192.0907 364.7150 201.1723 349.8425 204.9263 344.6650 C213.4510 332.9075 224.8030 324.0900 239.0332 320.4850 C243.6260 319.3225 248.2888 318.8525 252.9550 318.1100 Z"></path>
<path id="" fill="#664500" fill-opacity="1.0" stroke="#000000" stroke-width="0.0" stroke-opacity="1.0" stroke-linecap="round" stroke-linejoin="round"  filling="0" d="M179.5925 199.0645 C186.0665 198.5878 191.4722 200.3035 196.6335 204.2332 C205.0383 210.6325 209.0610 222.3342 210.3970 232.4160 C212.0675 245.0200 209.0898 258.9300 201.2047 269.0875 C197.5267 273.8250 191.2433 277.9950 185.2108 278.7350 C185.0875 278.7600 184.9650 278.7875 184.8415 278.8100 C179.3010 279.8425 173.1955 277.6975 168.7205 274.5200 C160.5195 268.7000 155.8582 258.4100 154.2165 248.7390 C151.9315 235.2762 154.0695 221.0587 162.1257 209.7825 C166.3765 203.8330 172.4305 200.2838 179.5925 199.0645 Z"></path>
<path id="" fill="#664500" fill-opacity="1.0" stroke="#000000" stroke-width="0.0" stroke-opacity="1.0" stroke-linecap="round" stroke-linejoin="round"  filling="0" d="M327.0325 199.0773 C332.7625 198.7617 337.6325 199.7520 342.5375 202.8095 C350.2550 207.6207 355.1225 217.0330 357.0775 225.6905 C360.1675 239.3808 359.0350 253.7300 351.3550 265.8125 C347.1350 272.4475 341.4675 276.9675 333.7075 278.6775 L333.3900 278.7300 C327.0350 279.7075 321.0975 277.8150 316.0000 274.0200 C307.5350 267.7150 303.2750 256.9450 301.8200 246.7928 C299.9675 233.8525 302.5675 219.7460 310.5575 209.1738 C314.4700 203.9948 320.5600 200.0058 327.0325 199.0773 Z"></path>
<path id="" fill="#664500" fill-opacity="1.0" stroke="#000000" stroke-width="0.0" stroke-opacity="1.0" stroke-linecap="round" stroke-linejoin="round"  filling="0" d="M196.6602 119.8067 C200.1223 119.4352 203.8715 119.8965 206.6410 122.1895 C208.9150 124.0725 210.2870 126.9847 210.4442 129.9165 C210.9265 138.9090 199.8940 154.7567 193.9155 161.1723 C190.5435 164.7908 186.2645 168.0445 182.1640 170.7995 C164.1545 182.8992 143.0635 187.1810 121.6690 187.8835 C118.9962 187.8788 116.4130 187.6310 114.0080 186.3600 C111.3590 184.9660 109.3885 182.5570 108.5475 179.6842 C107.6248 176.6223 107.9955 173.3160 109.5732 170.5345 C110.8500 168.2807 112.9195 166.5827 115.3792 165.7710 C119.7050 164.3168 124.8108 164.8800 129.3280 164.5225 C136.2020 164.0453 143.0087 162.8633 149.6413 160.9953 C160.5253 157.8358 169.3228 152.6703 177.2498 144.5440 C180.0930 141.6293 182.7063 138.6492 184.7943 135.1317 C186.6745 131.9642 187.5963 128.3480 189.3860 125.1458 C191.0788 122.1170 193.4122 120.7490 196.6602 119.8067 Z"></path>
<path id="" fill="#664500" fill-opacity="1.0" stroke="#000000" stroke-width="0.0" stroke-opacity="1.0" stroke-linecap="round" stroke-linejoin="round"  filling="0" d="M311.7025 119.5843 C314.4250 119.3438 317.5575 120.0188 319.7600 121.6973 C323.2550 124.3627 324.9900 128.9677 327.5725 132.4478 C332.4350 139.0022 338.8875 145.4165 345.4975 150.2003 C356.3450 158.2190 369.1650 163.1500 382.5900 164.4698 C387.3875 164.9290 393.8875 164.1045 398.2325 166.4767 C400.9050 167.9360 402.7800 170.3250 403.5800 173.2610 C404.4250 176.3658 403.8725 179.5253 402.2075 182.2580 C400.2725 185.4353 397.6075 186.8598 394.1000 187.6523 C389.6150 188.0842 385.1550 187.6458 380.6950 187.1440 C364.2575 185.2948 348.8875 180.0573 335.0625 170.8878 C323.6800 163.3390 313.9175 153.5960 306.3475 142.2287 C304.4425 139.3763 302.2625 136.1675 301.6425 132.7330 C301.0950 129.7097 301.8675 126.3105 303.7150 123.8497 C305.6675 121.2517 308.5600 119.9845 311.7025 119.5843 Z"></path>
</svg>