<svg xmlns="http://www.w3.org/2000/svg" viewBox="0 0 512 512" height="512.0px" width="512.0px">
<path id="" fill="#ffac33" fill-opacity="1.0" stroke="#000000" stroke-width="0.0" stroke-opacity="1.0" stroke-linecap="round" stroke-linejoin="round"  filling="0" d="M258.9425 343.0725 C274.7175 341.8325 272.7500 354.9450 277.4400 364.9400 C280.8225 372.1475 286.0350 378.6000 291.6625 384.2000 C295.4575 387.9750 300.6625 391.9025 305.7300 393.7375 C309.5500 395.1225 313.5200 395.6050 316.7575 398.2725 L317.0000 398.4775 C317.1450 400.8950 317.0750 403.2100 316.6850 405.6025 C315.7975 411.0550 313.9225 416.4775 312.4225 421.7925 C311.1475 426.3125 310.1375 431.4250 308.1250 435.6725 C306.8525 438.3575 304.4650 439.9725 301.7200 440.9300 C298.1275 442.1825 295.7375 441.9500 292.3650 440.2700 C289.2225 438.7025 287.9700 437.1475 286.8800 433.8700 C286.4450 431.6350 286.2075 428.9800 285.2800 426.9000 C284.2200 426.7400 277.9475 434.2650 274.9775 435.4075 C272.1200 436.5025 268.4075 436.5125 265.6075 435.2425 C262.8200 433.9750 260.3550 431.3400 259.3925 428.4225 C255.3750 416.2450 273.3325 408.7425 277.7800 399.7775 C277.8325 399.6725 277.8800 399.5675 277.9325 399.4625 C276.0325 395.7350 272.3250 392.6050 269.6850 389.3050 C264.6550 383.0225 250.8675 363.1800 249.2900 355.9950 C248.7050 353.3275 248.8862 350.5500 250.4350 348.2300 C252.3350 345.3875 255.6700 343.7300 258.9425 343.0725 Z"></path>
<path id="" fill="#ffac33" fill-opacity="1.0" stroke="#000000" stroke-width="0.0" stroke-opacity="1.0" stroke-linecap="round" stroke-linejoin="round"  filling="0" d="M329.7550 343.3025 C329.8650 343.2900 329.9725 343.2775 330.0825 343.2650 C334.9475 342.7625 339.3150 344.4400 342.2875 348.4100 C346.1975 353.6325 347.1450 361.6250 350.8500 367.6075 C353.0625 371.1825 356.5875 373.5800 359.6800 376.3250 C361.6200 378.0450 363.4200 379.9150 365.3800 381.6150 C369.5550 385.2375 374.2600 388.7150 378.9325 391.6700 C382.2575 393.7700 386.2125 395.0850 389.3650 397.3975 C390.8650 398.4975 391.1900 399.6225 391.4700 401.4250 C392.1050 405.5100 389.5975 423.0700 388.3200 427.6300 C387.8650 429.2550 387.2175 430.8525 386.1975 432.2075 C384.3625 434.6400 381.5125 435.6550 378.5825 435.9800 C375.3975 436.3325 371.9850 435.0875 369.5575 433.0075 C366.5400 430.4200 366.0900 426.7725 365.8200 423.0625 C365.6250 422.1400 365.7750 421.2650 365.8975 420.3425 C365.6000 420.2050 364.8875 421.2975 364.6700 421.5700 C361.0300 426.1100 358.3850 432.2500 352.2050 433.8825 C349.3975 434.6225 346.2225 434.2800 343.7025 432.8125 C341.0475 431.2675 338.7850 428.6625 338.0825 425.6375 C335.8225 415.9125 347.7075 407.3950 352.1500 399.9200 C352.8250 398.7850 353.2075 397.5750 352.4750 396.3550 C350.8000 393.5700 347.2225 391.6500 344.9025 389.4025 C338.6225 383.3225 322.4575 365.1125 320.4150 357.3350 C319.6700 354.4950 319.6825 351.4825 321.2450 348.9075 C323.0825 345.8775 326.4175 344.1375 329.7550 343.3025 Z"></path>
<path id="" fill="#dd2e44" fill-opacity="1.0" stroke="#000000" stroke-width="0.0" stroke-opacity="1.0" stroke-linecap="round" stroke-linejoin="round"  filling="0" d="M278.7000 373.0950 C272.3500 372.5775 265.5225 371.5400 259.4525 369.5900 C256.4700 368.6300 253.5750 367.3500 250.6350 366.2675 C244.3208 363.9450 238.1308 361.5025 232.1868 358.3325 C211.3745 347.2275 191.8288 328.5975 181.3228 307.3100 C178.6905 301.9775 176.2875 296.4525 174.5310 290.7625 C173.6647 287.9550 172.9275 281.7625 171.1893 279.6975 C169.6475 277.8650 161.0018 274.0400 158.1195 272.1275 C149.2108 266.2150 141.1348 259.4050 134.1152 251.3100 C114.8980 229.0370 105.2653 200.0710 107.3175 170.7260 C109.2043 145.6785 120.2425 120.4668 139.4695 103.9155 C157.7180 88.2220 180.5473 78.8420 204.5578 77.1728 C214.2852 76.4912 224.0930 76.9755 233.8318 77.1685 C242.1918 77.2605 250.5525 77.2850 258.9125 77.2415 C266.3800 77.2125 273.9225 77.2565 281.3750 76.7660 C290.0500 76.1950 298.8525 75.6183 307.3800 73.8668 C310.3725 73.2525 318.7975 69.9710 320.7225 70.1920 C321.5025 70.2815 322.1200 70.6168 322.5900 71.2575 C323.3375 72.2725 323.2175 73.8510 323.0850 75.0210 C322.0325 84.2570 312.7025 96.1107 305.5725 101.6360 L305.2925 101.8500 C305.0475 103.0417 304.9975 104.1140 305.0000 105.3232 C308.7050 104.8175 312.3475 103.9385 315.8750 102.7000 C318.5350 101.7890 321.3725 100.4445 324.1475 100.0652 C324.8400 99.9707 325.3875 100.1375 325.9500 100.5380 C326.8525 101.1808 327.2725 102.3270 327.3725 103.3932 C327.9275 109.4200 320.6600 120.1787 316.8525 124.4788 C313.4875 128.2802 309.5625 131.2682 305.5350 134.3115 C307.0400 137.4030 308.7200 140.3932 310.0825 143.5550 C315.2200 155.4890 317.9725 168.7980 317.4175 181.8010 C326.6300 180.7402 335.5975 180.0270 344.7800 178.3985 C369.1550 174.0753 393.2675 164.2112 413.2400 149.5180 C419.5800 144.7965 425.6300 139.6965 431.3550 134.2457 C435.3675 130.3785 441.0150 121.5165 445.3700 119.3288 C449.1325 117.4775 453.6300 117.9832 456.8875 120.6245 C459.4450 122.7298 460.6325 125.6725 460.8550 128.9117 C461.3075 135.4993 459.5700 146.3985 458.6050 153.0920 C452.7450 193.7397 437.3725 233.3940 409.9675 264.4100 C406.1850 268.6900 401.9300 272.9550 397.6425 276.7375 C394.8025 279.2425 391.6475 281.5300 389.0725 284.3125 L388.7925 287.0200 C399.5325 286.6750 410.1375 285.8850 420.7675 284.3125 C425.6675 283.5875 434.5775 281.1675 438.9800 281.2275 C441.8150 281.2650 444.0525 282.3500 446.1000 284.2725 C448.4275 286.4625 449.9550 289.0200 450.0050 292.2975 C450.0375 294.3500 449.5100 296.3750 448.6300 298.2200 C446.0175 303.6975 437.7575 312.6650 433.3025 317.1075 C410.6275 339.7125 384.4575 355.1125 354.1625 365.1375 C350.7950 366.2525 347.4675 367.6575 344.0650 368.6350 C340.4350 369.6750 336.3775 370.4300 332.6600 371.1425 C329.8800 371.6725 326.9225 371.5925 324.1050 371.8875 C314.4325 372.9050 304.8850 373.8575 295.1325 373.8075 C291.8525 373.7900 288.3375 373.8975 285.0875 373.4100 C284.9650 373.9150 284.8300 374.4150 284.7600 374.9300 C284.7275 375.1775 284.7150 375.5075 284.6200 375.7400 C284.3525 376.3850 283.9925 376.6775 283.4125 377.0225 C281.8325 376.8600 279.8375 374.2500 278.7000 373.0950 Z"></path>
<path id="" fill="#fefbfa" fill-opacity="1.0" stroke="#000000" stroke-width="0.0" stroke-opacity="1.0" stroke-linecap="round" stroke-linejoin="round"  filling="0" d="M278.7000 373.0950 C280.0275 372.4925 283.6875 372.9150 285.0875 373.4100 C284.9650 373.9150 284.8300 374.4150 284.7600 374.9300 C284.7275 375.1775 284.7150 375.5075 284.6200 375.7400 C284.3525 376.3850 283.9925 376.6775 283.4125 377.0225 C281.8325 376.8600 279.8375 374.2500 278.7000 373.0950 Z"></path>
<path id="" fill="#fef9fa" fill-opacity="1.0" stroke="#000000" stroke-width="0.0" stroke-opacity="1.0" stroke-linecap="round" stroke-linejoin="round"  filling="0" d="M298.1175 106.6273 C300.0550 105.3445 303.2200 102.5690 305.2925 101.8500 C305.0475 103.0417 304.9975 104.1140 305.0000 105.3232 C303.2200 106.2657 300.1675 106.2555 298.1175 106.6273 Z"></path>
<path id="" fill="#a0041e" fill-opacity="1.0" stroke="#000000" stroke-width="0.0" stroke-opacity="1.0" stroke-linecap="round" stroke-linejoin="round"  filling="0" d="M403.8100 180.7485 C405.7675 180.7422 407.1875 180.7865 408.7250 182.1800 C411.8000 184.9625 412.9350 193.4218 412.9875 197.4640 C413.1200 207.5392 407.2450 225.7920 402.2275 234.6622 C398.9175 240.5120 394.3275 246.4390 389.5250 251.1300 C371.8800 268.3600 346.3000 279.5350 321.5425 279.2475 C306.1775 279.0700 290.2075 273.7225 278.0925 264.1900 C275.3200 262.0125 272.8825 259.5150 270.4225 257.0000 C265.5300 252.1850 258.3700 244.8700 256.6750 238.0742 C256.4750 237.2762 256.5750 236.9052 256.9825 236.2072 C258.6550 235.3038 260.9275 236.5795 262.4000 237.4395 C265.1025 239.0160 267.6775 240.7730 270.4800 242.1815 C285.8800 249.9205 303.9900 254.3050 321.2550 252.7925 C338.0875 251.3150 353.0925 244.1758 365.9925 233.4843 C368.0025 231.8183 370.1400 230.1777 371.9900 228.3398 C373.8075 226.5370 375.4250 224.4725 377.0850 222.5225 C382.9100 215.7930 388.1625 208.5883 392.7875 200.9835 C394.7425 197.7357 396.6575 194.4150 398.3850 191.0423 C399.6475 188.5757 401.8850 182.8947 403.5325 181.0490 C403.6225 180.9470 403.7175 180.8488 403.8100 180.7485 Z"></path>
<path id="" fill="#feab33" fill-opacity="1.0" stroke="#000000" stroke-width="0.0" stroke-opacity="1.0" stroke-linecap="round" stroke-linejoin="round"  filling="0" d="M106.1927 155.0960 C107.5088 154.9165 108.8985 154.9733 110.2282 154.9442 C108.4475 163.1772 106.7995 172.8845 107.1870 181.3022 C107.3650 185.1687 108.0320 188.9780 108.5833 192.8035 C109.1118 196.4705 109.5575 200.0390 110.4348 203.6495 C111.3077 207.2428 114.3525 215.9445 114.2865 218.9993 L113.8943 219.2188 C111.5965 219.0592 109.0505 217.9142 106.8813 217.1685 C96.4668 213.5885 86.6080 209.2702 76.7022 204.4807 C71.1635 201.5800 65.6103 198.7448 60.4980 195.1178 C57.3550 192.8878 51.5720 188.6732 51.0300 184.5260 C50.7985 182.7547 51.8557 181.1147 52.9102 179.7940 C62.6403 167.6040 90.8217 156.8358 106.1927 155.0960 Z"></path>
<path id="" fill="#292e33" fill-opacity="1.0" stroke="#000000" stroke-width="0.0" stroke-opacity="1.0" stroke-linecap="round" stroke-linejoin="round"  filling="0" d="M168.3595 122.1520 C181.2695 120.9348 192.7285 130.3980 193.9740 143.3055 C195.2198 156.2128 185.7818 167.6925 172.8770 168.9665 C159.9323 170.2442 148.4090 160.7705 147.1595 147.8230 C145.9102 134.8755 155.4093 123.3730 168.3595 122.1520 Z"></path>
<path id="" fill="#ffac33" fill-opacity="1.0" stroke="#000000" stroke-width="0.0" stroke-opacity="1.0" stroke-linecap="round" stroke-linejoin="round"  filling="0" d="M363.7650 377.8725 C367.3925 378.2725 370.7050 379.2300 374.4225 379.1375 C378.1025 379.0450 381.8425 377.4425 385.5350 378.1050 C388.5025 378.6375 391.4500 381.3000 393.0950 383.7650 C395.8900 387.9550 394.4700 392.8900 393.6325 397.4500 C393.4800 397.8375 393.3325 398.3200 393.1050 398.6675 C392.9400 398.9200 392.7000 399.2775 392.3675 399.3000 C391.0025 399.3950 388.2825 397.3875 387.0250 396.6925 C384.4475 395.2675 381.7575 394.0400 379.1925 392.5925 C374.8700 390.1475 369.4775 386.2400 366.0400 382.6550 C364.5950 381.1500 363.7050 380.0100 363.7650 377.8725 Z"></path>
<path id="" fill="#ffac33" fill-opacity="1.0" stroke="#000000" stroke-width="0.0" stroke-opacity="1.0" stroke-linecap="round" stroke-linejoin="round"  filling="0" d="M292.7525 383.9125 C295.8900 383.8375 299.0025 384.8625 302.1325 385.0675 C304.5825 385.2275 307.0850 384.7800 309.5225 385.0225 C312.6775 385.3350 315.6100 386.8375 317.5675 389.3525 C320.0400 392.5250 320.3075 396.2950 319.8550 400.1200 C319.5500 400.1575 319.3075 400.1975 318.9925 400.1850 C316.7525 400.0925 315.7400 397.6275 313.8650 396.7600 C311.9575 395.8775 309.6675 395.5950 307.6350 395.0850 C303.4275 394.0325 297.5100 391.2500 294.5050 388.1350 C293.2250 386.8075 292.7350 385.7525 292.7525 383.9125 Z"></path>
</svg>