<svg xmlns="http://www.w3.org/2000/svg" viewBox="0 0 512 512" height="512.0px" width="512.0px">
<path id="" fill="#feffff" fill-opacity="1.0" stroke="#000000" stroke-width="0.0" stroke-opacity="1.0" stroke-linecap="round" stroke-linejoin="round"  filling="0" d="M252.7500 51.2655 C365.8475 49.4557 459.0000 139.6613 460.8300 252.7575 C462.6575 365.8525 372.4675 459.0225 259.3725 460.8700 C146.2502 462.7175 53.0540 372.5025 51.2250 259.3800 C49.3963 146.2567 139.6275 53.0753 252.7500 51.2655 Z"></path>
<path id="" fill="#ffffff" fill-opacity="1.0" stroke="#000000" stroke-width="0.0" stroke-opacity="1.0" stroke-linecap="round" stroke-linejoin="round"  filling="0" d="M395.6450 106.9277 C398.5475 107.9368 406.9875 117.1168 409.1600 119.8400 C410.4425 121.4490 411.4975 123.1622 412.5350 124.9350 C399.1175 132.7340 389.4225 141.9790 381.3650 155.2753 C376.5450 163.2305 372.1650 172.1178 369.2850 180.9617 C363.5975 198.4122 360.3800 219.4490 359.2550 237.7507 C358.9175 243.1915 359.0825 248.7055 359.0850 254.1550 C359.0875 260.3750 358.9850 266.6200 359.2450 272.8375 C359.4050 276.6525 359.8500 280.4575 360.1850 284.2600 C361.3050 296.8950 362.7950 309.9575 366.0200 322.2400 C369.4500 335.3100 374.6550 348.1125 382.0800 359.4500 C387.1600 367.2100 395.6575 376.4125 403.4150 381.5525 C405.2625 382.7775 411.7950 386.0075 412.2600 387.9000 C411.4225 391.3100 404.2650 397.3500 401.5875 400.0300 C400.5125 401.1600 399.4025 402.4950 398.1600 403.4350 C397.3225 404.0650 396.4575 404.1375 395.4600 403.9300 C392.9025 403.3950 390.6275 401.3475 388.6025 399.7950 C380.1025 393.2775 371.8500 385.4200 365.7275 376.5975 C358.5075 366.1850 352.6225 354.9100 348.2050 343.0375 C339.7700 319.7250 337.2125 294.5725 335.8250 270.0000 C335.5625 265.3275 334.9650 260.7225 334.9825 256.0300 C334.9975 251.4700 335.6000 247.0155 335.8525 242.4783 C336.0200 239.4545 335.9500 236.4182 336.1450 233.3958 C336.8100 223.1767 338.1800 212.6455 340.0100 202.5652 C344.6250 177.1705 353.2850 152.1610 369.1700 131.5610 C371.0475 129.1288 372.8925 126.6545 374.9800 124.3987 C381.0775 117.8105 388.2775 112.0378 395.6450 106.9277 Z"></path>
<path id="" fill="#ffffff" fill-opacity="1.0" stroke="#000000" stroke-width="0.0" stroke-opacity="1.0" stroke-linecap="round" stroke-linejoin="round"  filling="0" d="M116.7523 106.8242 C118.0807 106.3633 120.0673 105.3895 121.4340 106.0762 C123.0455 106.8860 123.2550 110.4390 123.9100 112.0033 C123.9707 112.0778 124.0302 112.1533 124.0920 112.2267 L124.4048 112.5908 C126.3272 114.8690 129.0258 116.5017 131.1840 118.5775 C138.1777 125.3035 145.2925 133.3593 150.4080 141.6580 C151.6987 143.7520 152.7335 146.0193 153.8960 148.1873 C169.6975 177.6595 174.7290 211.0838 176.3285 244.0820 C176.5005 247.6308 177.0090 251.1600 177.0660 254.7150 C177.1393 259.2875 176.3490 263.7775 176.1808 268.3375 C176.0558 271.7200 176.1817 275.1175 175.9837 278.4975 C175.5730 285.4975 174.7325 292.5125 173.8282 299.4625 C173.2802 303.6725 172.8253 307.9200 172.0867 312.1025 C167.6313 337.3425 158.3257 362.7800 141.8788 382.7150 C140.0112 384.9800 138.1718 387.3750 136.1078 389.4575 C132.7343 392.8600 122.3150 401.3900 118.3775 403.3800 C117.3625 403.8950 116.5627 404.1750 115.4238 404.1850 C112.8268 403.2250 102.9095 392.9975 101.4710 390.3825 C100.9875 389.5025 100.4902 388.4125 100.9788 387.4450 C102.4015 384.6250 110.1682 380.4775 112.9837 378.3100 C114.8813 376.8475 116.7105 375.0875 118.4000 373.3875 C132.7035 358.9875 139.2705 345.2100 145.0485 326.0500 C149.4442 311.4725 152.0663 294.5325 152.8867 279.3450 C153.0753 275.8575 152.9207 272.3500 153.0470 268.8575 C153.1947 264.7750 153.8958 260.7225 153.9175 256.6350 C153.9390 252.5800 153.2795 248.5448 153.1055 244.4973 C152.9720 241.3850 153.0105 238.2672 152.8022 235.1580 C150.9283 207.1998 144.7790 175.3290 128.7815 151.8132 C124.5048 145.5265 119.8897 139.7628 114.0485 134.8383 C111.8840 133.0132 100.4580 125.6985 99.9952 124.5895 C99.7292 123.9518 99.7725 123.4707 100.0485 122.8532 C100.8250 121.1170 111.6042 110.5160 113.7007 108.7395 C114.6462 107.9380 115.5847 107.2720 116.7523 106.8242 Z"></path>
<path id="" fill="rgb(232,236,240)" fill-opacity="1.0" stroke="#000000" stroke-width="0.0" stroke-opacity="1.0" stroke-linecap="round" stroke-linejoin="round"  filling="0" d="M116.7523 106.8242 C118.0807 106.3633 120.0673 105.3895 121.4340 106.0762 C123.0455 106.8860 123.2550 110.4390 123.9100 112.0033 L123.5965 112.3740 C123.2570 112.3705 123.0335 112.3238 122.7353 112.1550 C120.7523 111.0335 117.3505 109.1445 116.7523 106.8242 Z"></path>
<path id="" fill="#e1e7ec" fill-opacity="1.0" stroke="#000000" stroke-width="0.0" stroke-opacity="1.0" stroke-linecap="round" stroke-linejoin="round"  filling="0" d="M115.9020 106.6598 C194.7080 32.6585 317.4725 32.6982 396.2325 106.7502 C402.2950 112.4525 408.0075 118.5193 413.3325 124.9167 C476.4075 200.6850 476.5100 310.6500 413.5775 386.5350 C408.1825 393.0425 402.3900 399.2075 396.2325 404.9975 C317.4275 479.0925 194.5753 479.0850 115.7823 404.9750 C109.9895 399.5275 104.5195 393.7475 99.3995 387.6625 C35.5275 311.7550 35.2812 200.9730 98.8155 124.7832 C104.1378 118.4008 109.8438 112.3485 115.9020 106.6598 Z"></path>
<path id="" fill="#e1e7ec" fill-opacity="1.0" stroke="#000000" stroke-width="0.0" stroke-opacity="1.0" stroke-linecap="round" stroke-linejoin="round"  filling="0" d="M403.1000 130.2310 C406.4900 128.2915 409.7400 126.4648 413.3325 124.9167 C476.4075 200.6850 476.5100 310.6500 413.5775 386.5350 C408.1825 393.0425 402.3900 399.2075 396.2325 404.9975 C395.7350 403.6075 389.6225 400.3175 388.0975 399.1625 C382.2500 394.7625 376.8925 389.7475 372.1125 384.2075 C371.7625 385.3725 371.4300 386.5725 370.9250 387.6850 C369.6025 390.6100 367.1900 392.9450 364.1450 394.0200 C361.1875 395.0600 357.9400 394.7375 355.1800 393.2800 C352.4500 391.8600 350.4425 389.3550 349.6500 386.3800 C347.6800 378.9550 353.5350 367.7550 357.1225 361.4075 C354.8875 359.7425 349.3300 344.7275 348.1650 341.2975 C347.1800 338.4000 346.4200 334.6125 344.8675 332.0250 C343.1400 334.4250 341.9075 337.1975 339.9675 339.4450 C337.9400 341.8225 335.0275 343.2625 331.9100 343.4325 C328.7150 343.5575 325.6100 342.3675 323.3175 340.1400 C321.1475 337.9650 319.9725 334.9900 320.0775 331.9175 C320.3350 323.8450 333.4250 309.3075 339.3300 303.6850 C345.8900 298.2125 352.2325 294.3400 360.2925 291.4500 C360.2600 287.4400 359.5650 283.2650 359.2725 279.2500 C358.6600 271.3750 358.3875 263.4800 358.4500 255.5800 C361.8200 255.5625 365.0325 255.7350 368.2975 256.6250 C370.9225 257.3400 373.5500 258.4050 376.2625 258.7075 C379.0300 259.0125 381.8750 257.9750 384.0050 256.2200 C386.4550 254.1900 387.9675 251.2400 388.1825 248.0630 C388.3550 244.9868 387.2600 241.9735 385.1525 239.7267 C379.9750 234.2935 368.2075 233.2547 361.1325 232.9637 C360.5825 232.8700 360.0375 232.7510 359.4925 232.6390 C358.3100 230.0672 363.3250 201.7905 364.3500 196.7980 C369.8975 199.0482 373.7375 202.8817 378.7950 205.5267 C381.5150 206.9492 384.5175 207.3010 387.4525 206.3335 C390.5100 205.3147 393.0050 203.0735 394.3475 200.1443 C395.5900 197.4503 395.7425 194.4210 394.6600 191.6485 C391.7975 184.3058 377.9475 177.8795 370.8425 174.7915 C372.2000 172.2733 373.1925 169.4630 374.3800 166.8510 C377.5300 159.9218 381.3850 152.1310 386.3850 146.3438 C391.1350 150.5943 392.4650 153.9585 396.1875 158.2527 C398.1500 160.5547 400.9875 161.9280 404.0075 162.0380 C407.0850 162.1727 410.1000 160.9272 412.3125 158.8100 C414.6300 156.6223 415.9325 153.5703 415.9125 150.3835 C415.8425 143.2713 407.8375 135.0493 403.1000 130.2310 Z"></path>
<path id="" fill="#dd2e44" fill-opacity="1.0" stroke="#000000" stroke-width="0.0" stroke-opacity="1.0" stroke-linecap="round" stroke-linejoin="round"  filling="0" d="M360.2925 291.4500 C367.0950 289.4625 384.0425 286.0625 390.5175 289.6750 C392.9775 291.0475 394.7825 293.2025 395.5450 295.9275 C396.3950 298.9625 396.0975 302.3575 394.4975 305.0975 C392.9325 307.7750 390.4475 309.5950 387.4350 310.2950 C384.9825 310.8625 382.3800 310.9025 379.8750 311.0800 C374.4125 311.4725 369.3675 312.2225 364.2700 314.3225 C355.9725 318.2075 349.9750 324.5425 344.8675 332.0250 C343.1400 334.4250 341.9075 337.1975 339.9675 339.4450 C337.9400 341.8225 335.0275 343.2625 331.9100 343.4325 C328.7150 343.5575 325.6100 342.3675 323.3175 340.1400 C321.1475 337.9650 319.9725 334.9900 320.0775 331.9175 C320.3350 323.8450 333.4250 309.3075 339.3300 303.6850 C345.8900 298.2125 352.2325 294.3400 360.2925 291.4500 Z"></path>
<path id="" fill="#dd2e44" fill-opacity="1.0" stroke="#000000" stroke-width="0.0" stroke-opacity="1.0" stroke-linecap="round" stroke-linejoin="round"  filling="0" d="M374.1575 345.1700 C384.2350 339.3600 400.6775 334.2675 412.2550 337.4425 C415.1575 338.2375 417.6750 339.8925 419.2150 342.5250 C420.6500 344.9750 421.4125 348.2800 420.6825 351.0725 C419.9175 353.9875 417.8650 356.8275 415.2300 358.2875 C411.2075 360.5175 406.6300 359.3050 402.2800 359.5075 C396.5100 359.7775 390.5250 361.6500 385.6025 364.6650 C378.4725 369.2100 373.9750 375.9900 372.1125 384.2075 C371.7625 385.3725 371.4300 386.5725 370.9250 387.6850 C369.6025 390.6100 367.1900 392.9450 364.1450 394.0200 C361.1875 395.0600 357.9400 394.7375 355.1800 393.2800 C352.4500 391.8600 350.4425 389.3550 349.6500 386.3800 C347.6800 378.9550 353.5350 367.7550 357.1225 361.4075 C361.9950 354.6625 367.1525 349.6450 374.1575 345.1700 Z"></path>
<path id="" fill="#b3bec4" fill-opacity="1.0" stroke="#000000" stroke-width="0.0" stroke-opacity="1.0" stroke-linecap="round" stroke-linejoin="round"  filling="0" d="M372.1125 384.2075 C373.9750 375.9900 378.4725 369.2100 385.6025 364.6650 C391.6500 372.4025 398.3150 378.8850 406.7200 384.0875 C408.2075 385.0075 410.2300 386.3700 411.9800 386.6700 C412.5150 386.7650 413.0675 386.7200 413.5775 386.5350 C408.1825 393.0425 402.3900 399.2075 396.2325 404.9975 C395.7350 403.6075 389.6225 400.3175 388.0975 399.1625 C382.2500 394.7625 376.8925 389.7475 372.1125 384.2075 Z"></path>
<path id="" fill="#b3bec4" fill-opacity="1.0" stroke="#000000" stroke-width="0.0" stroke-opacity="1.0" stroke-linecap="round" stroke-linejoin="round"  filling="0" d="M344.8675 332.0250 C349.9750 324.5425 355.9725 318.2075 364.2700 314.3225 C365.9725 321.1400 367.7250 327.9400 370.0525 334.5775 C371.1500 337.7075 373.6400 342.2650 374.1575 345.1700 C367.1525 349.6450 361.9950 354.6625 357.1225 361.4075 C354.8875 359.7425 349.3300 344.7275 348.1650 341.2975 C347.1800 338.4000 346.4200 334.6125 344.8675 332.0250 Z"></path>
<path id="" fill="#e1e8ed" fill-opacity="1.0" stroke="#000000" stroke-width="0.0" stroke-opacity="1.0" stroke-linecap="round" stroke-linejoin="round"  filling="0" d="M98.8155 124.7832 C106.3545 128.5108 116.8148 134.9150 121.7368 141.7520 C118.3808 142.8168 115.1090 143.5862 111.5853 143.8020 C104.6212 144.2283 97.8220 142.1840 93.7647 149.8017 C92.3517 152.4550 92.1695 155.9498 93.0723 158.7928 C93.9778 161.6440 96.0480 163.7705 98.7120 165.0685 C106.5050 168.8652 121.3828 165.9707 129.1523 163.1033 C131.0527 162.4048 132.9235 161.6285 134.7600 160.7765 C137.6780 166.2802 140.1115 172.1830 142.1178 178.0777 C143.2025 181.2648 144.0245 184.7242 145.3508 187.7990 C142.0510 188.9425 138.7453 189.9055 135.3035 190.5372 C129.2420 191.6503 121.5172 190.9158 118.2982 197.3680 C117.1348 199.7000 117.1685 202.9460 118.0117 205.3712 C118.8330 207.7328 120.6147 209.5205 122.8532 210.5813 C129.2007 213.5887 143.2368 210.7617 150.0320 208.7782 C151.6940 221.7493 153.3353 234.7325 153.4530 247.8313 C150.8732 247.7717 148.4012 247.6432 145.8815 247.0553 C139.6655 245.6045 134.3510 242.4255 128.7525 247.7843 C126.4522 249.9792 125.1728 253.0350 125.2227 256.2125 C125.2347 259.1875 126.4550 262.0275 128.6035 264.0825 C134.0782 269.2625 145.9340 270.4100 153.1147 270.5325 C153.3610 275.4650 150.8633 303.2525 149.0677 306.7100 C146.4267 305.4950 143.9355 304.1450 141.5065 302.5450 C136.5408 299.2725 132.1373 294.8200 125.6520 297.1875 C122.6735 298.2800 120.2745 300.5500 119.0163 303.4625 C117.7770 306.3300 117.7793 309.5825 119.0225 312.4475 C121.9912 319.2625 137.0683 326.4625 143.9020 329.1675 C142.4660 332.0775 141.6465 335.3950 140.5020 338.4375 C137.8647 345.4500 134.3800 353.2450 129.9147 359.2850 C127.1460 357.1125 124.6380 354.7675 122.4060 352.0375 C118.0642 346.7275 115.4453 340.0000 107.1308 341.0200 C104.1950 341.3875 101.5340 342.9300 99.7548 345.2950 C97.9980 347.5975 97.1710 350.4700 97.6187 353.3475 C98.8705 361.3925 109.8018 371.2800 115.9210 376.4025 C113.1695 378.6100 110.4390 380.8175 107.4500 382.7025 C104.9283 384.2925 101.5218 385.6225 99.3995 387.6625 C35.5275 311.7550 35.2812 200.9730 98.8155 124.7832 Z"></path>
<path id="" fill="#dd2e44" fill-opacity="1.0" stroke="#000000" stroke-width="0.0" stroke-opacity="1.0" stroke-linecap="round" stroke-linejoin="round"  filling="0" d="M396.2325 106.7502 C402.2950 112.4525 408.0075 118.5193 413.3325 124.9167 C409.7400 126.4648 406.4900 128.2915 403.1000 130.2310 C407.8375 135.0493 415.8425 143.2713 415.9125 150.3835 C415.9325 153.5703 414.6300 156.6223 412.3125 158.8100 C410.1000 160.9272 407.0850 162.1727 404.0075 162.0380 C400.9875 161.9280 398.1500 160.5547 396.1875 158.2527 C392.4650 153.9585 391.1350 150.5943 386.3850 146.3438 C380.7325 141.0925 373.7950 137.1582 366.5825 134.5013 C363.4400 133.4758 360.3200 132.6348 357.0400 132.1698 C353.7625 131.7052 350.1800 131.7968 347.0650 130.5970 C344.3300 129.5437 342.1225 127.2588 340.9675 124.5872 C339.6800 121.6165 339.6500 118.2505 340.8900 115.2588 C342.0725 112.3485 344.4050 110.0560 347.3350 108.9240 C349.9150 107.9530 352.9175 108.1192 355.6200 108.2928 C365.7700 108.9445 374.9525 111.9897 384.0775 116.3310 C386.5550 112.5768 393.2525 110.7245 396.2325 106.7502 Z"></path>
<path id="" fill="#b3bec4" fill-opacity="1.0" stroke="#000000" stroke-width="0.0" stroke-opacity="1.0" stroke-linecap="round" stroke-linejoin="round"  filling="0" d="M396.2325 106.7502 C402.2950 112.4525 408.0075 118.5193 413.3325 124.9167 C409.7400 126.4648 406.4900 128.2915 403.1000 130.2310 C397.4350 124.5843 390.9600 120.3138 384.0775 116.3310 C386.5550 112.5768 393.2525 110.7245 396.2325 106.7502 Z"></path>
<path id="" fill="#dd2e44" fill-opacity="1.0" stroke="#000000" stroke-width="0.0" stroke-opacity="1.0" stroke-linecap="round" stroke-linejoin="round"  filling="0" d="M138.8060 126.6087 C141.5728 120.3943 141.6183 112.2650 149.0275 109.5478 C151.8475 108.5123 154.9660 108.6580 157.6772 109.9518 C160.5265 111.2595 162.6980 113.7007 163.6642 116.6833 C165.6225 122.7978 161.2530 132.8678 158.3835 138.2253 C156.7790 141.2210 154.8685 143.9890 152.8172 146.6925 C147.3737 152.6653 141.8810 156.9552 134.7600 160.7765 C132.9235 161.6285 131.0527 162.4048 129.1523 163.1033 C121.3828 165.9707 106.5050 168.8652 98.7120 165.0685 C96.0480 163.7705 93.9778 161.6440 93.0723 158.7928 C92.1695 155.9498 92.3517 152.4550 93.7647 149.8017 C97.8220 142.1840 104.6212 144.2283 111.5853 143.8020 C115.1090 143.5862 118.3808 142.8168 121.7368 141.7520 C129.3870 138.7855 135.0815 133.9342 138.8060 126.6087 Z"></path>
<path id="" fill="#dd2e44" fill-opacity="1.0" stroke="#000000" stroke-width="0.0" stroke-opacity="1.0" stroke-linecap="round" stroke-linejoin="round"  filling="0" d="M176.2027 241.6983 C177.9863 240.4713 179.5445 239.2168 181.0070 237.6135 C185.3185 232.8870 188.1485 227.8200 195.7020 229.3015 C198.6515 229.8740 201.2462 231.6100 202.9005 234.1183 C204.5335 236.5488 205.1230 239.5330 204.5370 242.4020 C202.9722 249.7827 193.7437 257.5525 187.6355 261.3200 C183.9507 263.5600 180.0462 265.4125 175.9832 266.8550 C168.4138 269.2475 161.0547 270.4525 153.1147 270.5325 C145.9340 270.4100 134.0782 269.2625 128.6035 264.0825 C126.4550 262.0275 125.2347 259.1875 125.2227 256.2125 C125.1728 253.0350 126.4522 249.9792 128.7525 247.7843 C134.3510 242.4255 139.6655 245.6045 145.8815 247.0553 C148.4012 247.6432 150.8732 247.7717 153.4530 247.8313 C161.6360 247.7128 169.1545 245.9337 176.2027 241.6983 Z"></path>
<path id="" fill="#dd2e44" fill-opacity="1.0" stroke="#000000" stroke-width="0.0" stroke-opacity="1.0" stroke-linecap="round" stroke-linejoin="round"  filling="0" d="M361.1325 232.9637 C368.2075 233.2547 379.9750 234.2935 385.1525 239.7267 C387.2600 241.9735 388.3550 244.9868 388.1825 248.0630 C387.9675 251.2400 386.4550 254.1900 384.0050 256.2200 C381.8750 257.9750 379.0300 259.0125 376.2625 258.7075 C373.5500 258.4050 370.9225 257.3400 368.2975 256.6250 C365.0325 255.7350 361.8200 255.5625 358.4500 255.5800 C350.3400 256.0775 342.0425 258.0450 335.4625 263.0450 C331.7575 265.9475 329.1800 271.1400 325.1750 273.2125 C322.5400 274.5675 319.4775 274.8250 316.6550 273.9275 C313.6150 272.9525 311.0525 270.8275 309.6775 267.9275 C308.3675 265.1825 308.2675 262.0125 309.4000 259.1900 C310.3475 256.7750 311.9775 254.5825 313.6275 252.6075 C319.8525 245.1460 327.6675 240.6455 336.4850 236.9050 C345.4000 234.3672 351.8325 232.9978 361.1325 232.9637 Z"></path>
<path id="" fill="#dd2e44" fill-opacity="1.0" stroke="#000000" stroke-width="0.0" stroke-opacity="1.0" stroke-linecap="round" stroke-linejoin="round"  filling="0" d="M165.3525 174.5898 C166.6617 173.1665 167.8995 171.7205 169.0047 170.1310 C172.3330 165.3445 174.9998 159.9900 181.6900 159.8180 C184.7605 159.7392 187.8695 161.0340 190.0280 163.2090 C192.2000 165.3972 193.5525 168.4360 193.4182 171.5448 C193.0975 178.9763 183.3185 189.2540 178.0217 193.8788 C175.8625 195.7640 173.5505 197.4913 171.2170 199.1523 C164.3800 203.2920 157.7352 206.5067 150.0320 208.7782 C143.2368 210.7617 129.2007 213.5887 122.8532 210.5813 C120.6147 209.5205 118.8330 207.7328 118.0117 205.3712 C117.1685 202.9460 117.1348 199.7000 118.2982 197.3680 C121.5172 190.9158 129.2420 191.6503 135.3035 190.5372 C138.7453 189.9055 142.0510 188.9425 145.3508 187.7990 C153.1050 184.7070 159.5052 180.5450 165.3525 174.5898 Z"></path>
<path id="" fill="#dd2e44" fill-opacity="1.0" stroke="#000000" stroke-width="0.0" stroke-opacity="1.0" stroke-linecap="round" stroke-linejoin="round"  filling="0" d="M115.9210 376.4025 C109.8018 371.2800 98.8705 361.3925 97.6187 353.3475 C97.1710 350.4700 97.9980 347.5975 99.7548 345.2950 C101.5340 342.9300 104.1950 341.3875 107.1308 341.0200 C115.4453 340.0000 118.0642 346.7275 122.4060 352.0375 C124.6380 354.7675 127.1460 357.1125 129.9147 359.2850 C135.8223 364.3000 143.0717 367.7100 150.4490 369.9150 C152.6328 370.5250 154.7900 370.9825 157.0445 371.2450 C162.7402 371.9025 169.0875 371.5950 172.3123 377.3825 C173.6017 379.6975 173.7685 382.7250 173.0395 385.2475 C172.2765 387.8875 170.4718 389.8375 168.0395 391.0575 C160.5923 394.8000 144.7023 390.7300 137.0440 388.0250 C136.8030 387.9400 136.5625 387.8550 136.3225 387.7675 C128.8492 384.6900 122.5315 380.9875 115.9210 376.4025 Z"></path>
<path id="" fill="#dd2e44" fill-opacity="1.0" stroke="#000000" stroke-width="0.0" stroke-opacity="1.0" stroke-linecap="round" stroke-linejoin="round"  filling="0" d="M143.9020 329.1675 C137.0683 326.4625 121.9912 319.2625 119.0225 312.4475 C117.7793 309.5825 117.7770 306.3300 119.0163 303.4625 C120.2745 300.5500 122.6735 298.2800 125.6520 297.1875 C132.1373 294.8200 136.5408 299.2725 141.5065 302.5450 C143.9355 304.1450 146.4267 305.4950 149.0677 306.7100 C156.3090 310.0000 163.9975 311.3750 171.8997 310.3275 L172.3783 310.2400 C178.6050 309.0575 184.4323 305.0075 190.5343 309.1725 C193.1552 310.9800 194.9150 313.7875 195.3983 316.9350 C195.8480 319.8825 195.0950 322.8900 193.3078 325.2800 C189.4113 330.4350 179.8185 332.1975 173.8330 332.9275 C171.2970 333.2375 168.7377 333.3700 166.1868 333.4775 C158.3630 333.1150 151.3020 331.5800 143.9020 329.1675 Z"></path>
<path id="" fill="#dd2e44" fill-opacity="1.0" stroke="#000000" stroke-width="0.0" stroke-opacity="1.0" stroke-linecap="round" stroke-linejoin="round"  filling="0" d="M348.5650 170.0905 C356.3850 170.5800 363.4975 172.0720 370.8425 174.7915 C377.9475 177.8795 391.7975 184.3058 394.6600 191.6485 C395.7425 194.4210 395.5900 197.4503 394.3475 200.1443 C393.0050 203.0735 390.5100 205.3147 387.4525 206.3335 C384.5175 207.3010 381.5150 206.9492 378.7950 205.5267 C373.7375 202.8817 369.8975 199.0482 364.3500 196.7980 C357.5525 193.2592 349.1525 192.2878 341.6275 193.0842 C337.7800 193.8858 333.9350 195.7648 330.0200 195.9875 C327.1250 196.1335 324.2900 195.1348 322.1250 193.2068 C319.7550 191.0943 318.3775 188.0865 318.3275 184.9125 C318.2525 181.9415 319.3725 179.0647 321.4350 176.9252 C327.0700 171.1508 340.8800 170.2020 348.5650 170.0905 Z"></path>
<path id="" fill="#b3bec4" fill-opacity="1.0" stroke="#000000" stroke-width="0.0" stroke-opacity="1.0" stroke-linecap="round" stroke-linejoin="round"  filling="0" d="M150.0320 208.7782 C157.7352 206.5067 164.3800 203.2920 171.2170 199.1523 C172.2925 202.3015 172.6503 205.8658 173.1225 209.1490 C174.0735 215.7267 174.7988 222.3353 175.2968 228.9628 C175.6082 233.1758 175.6370 237.5180 176.2027 241.6983 C169.1545 245.9337 161.6360 247.7128 153.4530 247.8313 C153.3353 234.7325 151.6940 221.7493 150.0320 208.7782 Z"></path>
<path id="" fill="#b3bec4" fill-opacity="1.0" stroke="#000000" stroke-width="0.0" stroke-opacity="1.0" stroke-linecap="round" stroke-linejoin="round"  filling="0" d="M341.6275 193.0842 C349.1525 192.2878 357.5525 193.2592 364.3500 196.7980 C363.3250 201.7905 358.3100 230.0672 359.4925 232.6390 C360.0375 232.7510 360.5825 232.8700 361.1325 232.9637 C351.8325 232.9978 345.4000 234.3672 336.4850 236.9050 C335.9500 234.8867 336.4400 231.9970 336.5925 229.8855 C337.5225 217.0585 339.7050 205.6532 341.6275 193.0842 Z"></path>
<path id="" fill="#b3bec4" fill-opacity="1.0" stroke="#000000" stroke-width="0.0" stroke-opacity="1.0" stroke-linecap="round" stroke-linejoin="round"  filling="0" d="M153.1147 270.5325 C161.0547 270.4525 168.4138 269.2475 175.9832 266.8550 C176.2397 278.0025 174.9495 289.5975 173.3987 300.6275 C172.9483 303.8300 172.6420 307.1825 171.8997 310.3275 C163.9975 311.3750 156.3090 310.0000 149.0677 306.7100 C150.8633 303.2525 153.3610 275.4650 153.1147 270.5325 Z"></path>
<path id="" fill="#b3bec4" fill-opacity="1.0" stroke="#000000" stroke-width="0.0" stroke-opacity="1.0" stroke-linecap="round" stroke-linejoin="round"  filling="0" d="M335.4625 263.0450 C342.0425 258.0450 350.3400 256.0775 358.4500 255.5800 C358.3875 263.4800 358.6600 271.3750 359.2725 279.2500 C359.5650 283.2650 360.2600 287.4400 360.2925 291.4500 C352.2325 294.3400 345.8900 298.2125 339.3300 303.6850 C337.5800 300.6900 336.3275 278.1400 336.1200 273.4875 C335.9825 270.4325 336.2675 265.9000 335.4625 263.0450 Z"></path>
<path id="" fill="#b3bec4" fill-opacity="1.0" stroke="#000000" stroke-width="0.0" stroke-opacity="1.0" stroke-linecap="round" stroke-linejoin="round"  filling="0" d="M143.9020 329.1675 C151.3020 331.5800 158.3630 333.1150 166.1868 333.4775 C163.6670 345.8550 156.4035 358.8850 150.4490 369.9150 C143.0717 367.7100 135.8223 364.3000 129.9147 359.2850 C134.3800 353.2450 137.8647 345.4500 140.5020 338.4375 C141.6465 335.3950 142.4660 332.0775 143.9020 329.1675 Z"></path>
<path id="" fill="#b3bec4" fill-opacity="1.0" stroke="#000000" stroke-width="0.0" stroke-opacity="1.0" stroke-linecap="round" stroke-linejoin="round"  filling="0" d="M366.5825 134.5013 C373.7950 137.1582 380.7325 141.0925 386.3850 146.3438 C381.3850 152.1310 377.5300 159.9218 374.3800 166.8510 C373.1925 169.4630 372.2000 172.2733 370.8425 174.7915 C363.4975 172.0720 356.3850 170.5800 348.5650 170.0905 C348.8350 168.0815 349.9450 165.7010 350.7050 163.8085 C354.9075 153.3485 360.3300 143.8560 366.5825 134.5013 Z"></path>
<path id="" fill="#b3bec4" fill-opacity="1.0" stroke="#000000" stroke-width="0.0" stroke-opacity="1.0" stroke-linecap="round" stroke-linejoin="round"  filling="0" d="M98.8155 124.7832 C104.1378 118.4008 109.8438 112.3485 115.9020 106.6598 C117.3985 109.4467 122.0518 111.4025 124.5860 113.3160 C128.1185 115.9832 136.6698 123.0898 138.8060 126.6087 C135.0815 133.9342 129.3870 138.7855 121.7368 141.7520 C116.8148 134.9150 106.3545 128.5108 98.8155 124.7832 Z"></path>
<path id="" fill="#b3bec4" fill-opacity="1.0" stroke="#000000" stroke-width="0.0" stroke-opacity="1.0" stroke-linecap="round" stroke-linejoin="round"  filling="0" d="M152.8172 146.6925 C154.3098 148.4668 155.3638 150.7578 156.3867 152.8367 C158.4110 156.9252 160.2422 161.1062 161.8743 165.3665 C163.0165 168.3882 163.9588 171.6882 165.3525 174.5898 C159.5052 180.5450 153.1050 184.7070 145.3508 187.7990 C144.0245 184.7242 143.2025 181.2648 142.1178 178.0777 C140.1115 172.1830 137.6780 166.2802 134.7600 160.7765 C141.8810 156.9552 147.3737 152.6653 152.8172 146.6925 Z"></path>
<path id="" fill="#b3bec4" fill-opacity="1.0" stroke="#000000" stroke-width="0.0" stroke-opacity="1.0" stroke-linecap="round" stroke-linejoin="round"  filling="0" d="M115.9210 376.4025 C122.5315 380.9875 128.8492 384.6900 136.3225 387.7675 C133.1160 393.4950 116.5715 403.3825 115.7823 404.9750 C109.9895 399.5275 104.5195 393.7475 99.3995 387.6625 C101.5218 385.6225 104.9283 384.2925 107.4500 382.7025 C110.4390 380.8175 113.1695 378.6100 115.9210 376.4025 Z"></path>
</svg>