<svg xmlns="http://www.w3.org/2000/svg" viewBox="0 0 512 512" height="512.0px" width="512.0px">
<path id="" fill="#f9f0ed" fill-opacity="1.0" stroke="#000000" stroke-width="0.0" stroke-opacity="1.0" stroke-linecap="round" stroke-linejoin="round"  filling="0" d="M205.2615 87.1030 C209.3195 86.5525 213.7547 86.9815 217.8698 86.9750 C221.2623 86.9695 224.6992 86.8508 228.0855 87.0240 C250.6925 88.1790 272.8475 93.0280 294.5400 99.2275 C303.6625 101.8350 312.7000 104.5420 321.6575 107.6870 C328.6900 110.1557 335.5650 113.2085 342.4400 116.0790 C349.6050 119.0703 356.8525 121.9465 363.8300 125.3652 C369.7850 128.2835 375.5150 131.4960 381.3700 134.5825 C397.8700 143.2780 417.8475 153.5522 430.1900 167.6665 C433.2025 171.1095 434.9950 175.5020 436.9525 179.5825 C439.3525 180.0845 444.3400 183.1625 446.4450 184.5797 C453.9425 189.6322 457.9675 199.4125 459.5625 208.0130 C460.3500 212.2625 460.1000 216.7280 460.0875 221.0323 L460.0675 236.9910 L460.0225 297.3875 C459.9875 299.9750 460.0975 302.5625 460.3500 305.1375 C460.5075 306.9150 460.8800 308.8725 460.7625 310.6550 C460.6100 312.9850 459.4050 315.9150 458.0600 317.7950 C456.3400 320.1925 453.6525 321.6600 450.7500 322.0550 C447.7775 322.4625 444.8750 321.9200 442.5250 319.9800 C440.2025 318.0625 438.9300 315.2625 438.3500 312.3625 C437.3150 307.1950 437.9725 300.6100 437.9725 295.2675 L437.9575 258.0250 C437.9625 252.2275 438.4525 244.9113 437.8325 239.3017 C437.1650 238.9798 436.4750 239.0495 435.7525 239.0538 C435.3650 239.4785 435.3000 239.9330 435.2350 240.4885 C435.0275 242.2955 435.1425 244.1868 435.0625 246.0092 C434.9575 248.3972 434.6575 250.7625 434.4500 253.1425 C433.4450 264.7400 431.7175 276.0825 429.9075 287.5700 C423.9925 325.1250 411.3675 383.9450 390.8075 415.8050 C388.6850 419.0925 385.4275 424.4500 381.3100 425.2000 C380.0025 425.4400 378.7875 425.0875 377.7425 424.2850 C366.5225 415.6975 361.5400 360.3525 359.8500 345.1875 C359.1650 342.0400 359.4750 330.9275 358.1800 329.3825 C356.5775 328.9325 354.6800 329.1050 353.0425 329.3225 C348.9425 329.8675 344.8750 330.7750 340.7800 331.3925 L294.3875 338.6175 C289.3225 339.3900 284.2450 340.0900 279.1600 340.7175 C275.9375 341.1300 272.5275 341.3600 269.4025 342.2600 C265.9250 343.2600 263.0900 345.7900 260.1100 347.7400 C257.8250 349.2350 255.1100 350.6800 252.5500 351.6325 C252.4700 351.6625 252.3900 351.6900 252.3100 351.7175 C252.2950 351.7600 252.2800 351.8050 252.2650 351.8475 C251.2075 354.5975 250.9025 357.7075 250.3150 360.5975 C249.7448 363.4025 249.0332 366.1800 248.3383 368.9550 C244.1337 385.7375 238.2525 402.9950 228.7340 417.5500 C226.9617 420.2600 224.1720 424.7650 220.7092 425.3700 C219.9225 425.5100 219.1122 425.4375 218.4555 424.9475 C217.0085 423.8675 215.9525 421.8775 215.2272 420.2425 C213.4698 416.2775 212.2725 411.9775 210.9750 407.8400 C207.8893 397.9975 205.2530 388.1300 202.7615 378.1225 C200.6630 369.6950 198.2498 361.2300 196.6135 352.7025 C193.3250 351.5875 190.1470 350.7075 187.1225 348.9375 C171.5708 339.8325 163.2190 319.9050 159.5015 302.9975 C158.8013 299.6750 158.1825 296.3350 157.6460 292.9825 C157.3717 291.3150 157.2365 289.4425 156.7498 287.8300 C156.5660 287.2225 156.4422 287.0550 155.9742 286.6650 C153.7872 287.0150 151.7672 292.6175 150.5312 294.4325 C149.5815 295.8275 148.3750 297.1900 147.1777 298.3775 C139.1520 306.3250 127.5378 310.1325 116.3720 310.0200 C103.3760 309.8850 89.9220 305.7825 80.7280 296.2625 C67.8318 282.9050 62.3315 249.7400 61.0905 231.4928 C60.8020 227.2515 60.8865 222.8510 60.9800 218.5983 C61.3557 201.5018 66.6808 182.6008 77.1080 168.8528 C79.6858 165.4540 82.8565 162.4150 85.9340 159.4705 C95.9987 149.8398 111.6985 142.9145 125.4807 141.2515 C128.9415 140.8340 132.4050 140.9075 135.8808 140.9877 C136.3265 131.7112 142.3582 119.4785 148.3025 112.3485 C162.9348 94.7975 183.3627 89.0930 205.2615 87.1030 Z"></path>
<path id="" fill="rgb(254,254,253)" fill-opacity="1.0" stroke="#000000" stroke-width="0.0" stroke-opacity="1.0" stroke-linecap="round" stroke-linejoin="round"  filling="0" d="M437.3250 214.8855 L437.5075 214.9478 C438.4775 216.8242 438.1800 235.3842 438.0750 238.5635 L436.7750 238.9608 C436.3525 238.8320 436.1450 238.7547 435.7750 238.4925 C437.4450 231.7525 435.9375 221.8385 437.3250 214.8855 Z"></path>
<path id="" fill="#c1694f" fill-opacity="1.0" stroke="#000000" stroke-width="0.0" stroke-opacity="1.0" stroke-linecap="round" stroke-linejoin="round"  filling="0" d="M134.9875 140.2435 C137.4373 127.9970 144.2292 114.5562 153.1470 105.7552 C155.4525 103.4800 158.1927 101.5052 160.8802 99.6970 C187.6940 81.6565 236.3197 85.2477 266.5025 91.2858 C285.5125 95.2140 304.2175 100.4960 322.4750 107.0918 C334.4375 111.4555 346.4700 116.5493 357.9150 122.1422 C361.5850 123.9350 365.0650 126.0967 368.7225 127.9023 C375.0100 131.0043 381.4700 133.7545 387.7175 136.9503 C400.7525 143.6192 426.7300 158.6420 434.5400 170.4955 C436.2000 173.0170 436.9400 175.3025 437.4350 178.2823 C445.2575 182.8245 449.9625 184.7720 454.5475 193.1060 C456.1850 196.0825 457.6050 199.3067 458.4900 202.5938 C459.7000 207.0717 460.4675 211.6570 460.7850 216.2845 C461.1750 222.8480 460.9925 229.4837 460.9900 236.0570 L460.9675 267.8625 L460.9950 295.6425 C461.0050 300.5525 461.2575 305.5875 460.9425 310.4800 C460.8150 312.4900 460.5450 314.8500 459.5325 316.6150 C457.9275 319.4175 455.0025 321.3925 451.9100 322.2050 C449.0200 322.9625 446.0350 322.5125 443.4600 321.0000 C440.9875 319.5475 439.0325 317.0825 438.3925 314.2625 C437.3775 309.7825 437.9625 303.0200 437.9625 298.2600 C437.9575 282.3850 438.2200 266.4625 438.0625 250.5950 C438.0575 249.9185 438.0325 249.5043 437.5625 249.0157 L437.0700 248.8952 L435.3225 249.0495 L435.2750 249.3197 C434.8550 251.8775 434.8125 254.5325 434.5350 257.1150 C433.8075 263.8650 433.0975 270.6325 432.0275 277.3375 C427.3625 306.6100 421.7300 335.6550 413.0775 364.0300 C408.9050 377.7100 404.1350 391.3500 397.8825 404.2350 C394.6175 410.9600 390.3725 419.6375 384.2500 424.1325 C383.0175 425.0375 381.3925 426.0450 379.7925 425.7950 C377.7650 425.4800 376.2200 423.5625 375.1475 421.9550 C366.2225 408.6025 361.1925 364.7625 359.6625 348.1325 C359.0925 341.9275 359.0575 334.7475 358.2075 328.7600 C346.2500 331.1700 334.0775 332.8150 322.0250 334.6725 L289.1500 340.0100 C285.8475 340.5300 282.5650 341.0125 279.2400 341.3700 C275.9975 341.7175 272.1550 341.6875 269.0650 342.7125 C266.0250 343.7225 263.1875 346.1350 260.4075 347.7525 C257.7725 349.2850 255.0300 350.5850 252.2775 351.8800 C250.9300 367.5550 236.0630 413.7925 224.4940 423.7300 C223.2875 424.7675 221.7278 425.6350 220.0855 425.4150 C218.7437 425.2350 217.6452 424.3500 216.8725 423.2800 C211.4610 415.7975 205.8105 390.4825 203.1435 380.6925 C200.5927 371.3300 197.6348 361.9800 195.6638 352.4750 C183.5050 349.5050 174.8030 339.9200 168.5533 329.6175 C164.1440 322.3500 161.0380 313.9125 158.9685 305.6875 C158.3392 303.1850 156.2960 289.6900 155.4962 288.7050 C155.4538 288.6550 155.3980 288.6125 155.3490 288.5675 C153.2115 289.9500 150.8138 295.4800 148.7708 297.7275 C138.2867 309.2650 119.4485 312.0775 104.8183 308.9900 C93.4015 306.5800 82.2483 300.7450 75.7530 290.7725 C65.6590 275.2700 60.0107 240.9328 60.2282 222.3223 C60.3127 215.1113 61.2572 207.7745 62.7747 200.7292 C67.1248 180.5327 76.7935 163.5287 94.4238 152.1322 C105.5460 144.9427 121.6957 139.2832 134.9875 140.2435 Z"></path>
<path id="" fill="#c16a50" fill-opacity="1.0" stroke="#000000" stroke-width="0.0" stroke-opacity="1.0" stroke-linecap="round" stroke-linejoin="round"  filling="0" d="M437.6425 213.1062 C438.2775 221.5137 438.1525 229.9393 438.0725 238.3618 C438.0400 241.7417 438.2725 245.2275 437.9525 248.5835 C437.3700 248.8817 437.6675 248.7840 437.0700 248.8952 L435.3225 249.0495 C435.0600 243.1560 436.1350 236.9252 436.4975 231.0123 C436.8375 225.4368 436.4100 218.4498 437.6425 213.1062 Z"></path>
<path id="" fill="#662113" fill-opacity="1.0" stroke="#000000" stroke-width="0.0" stroke-opacity="1.0" stroke-linecap="round" stroke-linejoin="round"  filling="0" d="M90.1640 122.5710 C101.3370 121.3750 114.8595 124.0048 125.6495 126.7672 C130.1530 127.9200 134.5132 129.5115 139.0920 130.3805 C134.7220 143.3313 132.3065 156.6170 133.0780 170.3427 C124.7115 169.3387 115.1647 170.7410 107.1187 173.2068 C90.8480 178.1927 78.5753 190.8902 70.7885 205.6385 C67.5380 211.8073 65.2750 218.5230 63.6673 225.2960 C63.3432 226.6617 62.1100 233.4668 61.7245 234.2455 C61.4510 234.7982 61.2950 234.8302 60.7518 234.9532 C60.6837 234.9015 60.6085 234.8582 60.5477 234.7980 C58.1403 232.4095 53.9830 205.5067 53.3110 200.3457 C50.8005 181.0630 48.0635 151.1613 60.7675 134.9032 C67.6440 126.1032 79.7428 123.7790 90.1640 122.5710 Z"></path>
<path id="" fill="#662113" fill-opacity="1.0" stroke="#000000" stroke-width="0.0" stroke-opacity="1.0" stroke-linecap="round" stroke-linejoin="round"  filling="0" d="M210.1893 86.3930 C216.4985 85.8370 223.0635 86.2607 229.3750 86.5510 C268.0250 88.5618 305.9025 98.1535 340.8525 114.7807 C347.0425 117.7155 353.3325 120.6812 359.2050 124.2175 C359.8875 124.6302 361.0850 125.2548 361.2825 126.0462 C359.0525 127.6390 352.7675 128.6407 349.8800 129.6520 C345.5800 131.1577 341.0775 133.2897 337.2025 135.6693 C334.4400 137.3645 332.0875 139.4373 329.7975 141.7168 C321.6875 149.7905 318.5275 158.9520 316.9925 170.1110 C316.3250 174.9447 315.9475 179.7872 316.1050 184.6700 C316.4450 195.1602 318.2350 205.8067 318.0100 216.2937 C317.9475 219.2270 317.5575 222.1472 317.3850 225.0750 C316.4475 240.8590 314.5975 256.6575 310.8600 272.0550 C305.9175 292.4050 298.4900 313.0350 285.7950 329.8850 C282.9675 333.6375 279.7075 337.5175 276.0625 340.5250 C274.2300 342.0375 272.1625 343.2575 270.1375 344.4900 C258.6050 351.9350 243.9625 354.6325 230.5247 356.1450 C227.1788 356.5225 223.7487 356.9825 220.3795 356.9950 C215.3770 357.0150 209.9283 356.3625 204.9805 355.5625 C199.8958 354.7375 195.1185 352.9825 190.4922 350.7475 C185.6938 348.4300 180.9775 345.3950 177.1725 341.6400 C152.8500 317.6300 152.4750 267.9575 153.0135 236.0185 C153.0745 232.4017 153.6310 228.8463 153.8550 225.2435 C154.0677 221.8225 153.9265 218.3833 154.1205 214.9595 C154.2830 212.0932 154.7405 209.2318 154.7985 206.3620 C154.9815 197.2733 153.5542 186.4040 148.0883 178.9142 C143.8987 173.1738 138.7583 170.9948 131.9175 169.9630 C131.7858 165.7578 132.3530 161.7780 132.7207 157.6140 C132.9605 154.8960 133.0590 152.1557 133.4650 149.4563 C134.0663 145.4560 135.1140 141.6615 136.0287 137.7348 C136.5475 135.5072 136.8855 133.2137 137.5177 131.0160 C140.2380 121.5598 145.0652 112.4675 151.5977 105.1125 C155.3678 100.8678 160.7697 96.4970 165.9028 94.0510 C177.2077 88.6633 197.5423 87.0860 210.1893 86.3930 Z"></path>
<path id="" fill="#99a9b4" fill-opacity="1.0" stroke="#000000" stroke-width="0.0" stroke-opacity="1.0" stroke-linecap="round" stroke-linejoin="round"  filling="0" d="M140.5607 92.7665 C147.2325 93.1480 150.3138 99.9327 154.2518 104.2885 C154.6698 104.2007 154.4830 104.2645 154.9260 104.0480 C155.0390 103.9930 155.1505 103.9350 155.2625 103.8785 C155.8607 105.0890 155.8607 106.6775 156.3492 107.9675 C156.7915 109.1350 157.6048 110.2115 158.1805 111.3240 C159.8642 114.5782 161.1880 117.8687 161.7343 121.5103 C163.3065 131.9857 160.5515 142.1918 154.2110 150.6085 C149.4865 156.8800 140.9710 163.8698 132.9783 164.9925 C131.1402 165.0643 129.1700 165.1445 127.3748 164.7052 C122.7140 163.5647 118.8100 159.5795 116.3873 155.5968 C114.4650 152.4362 113.1032 147.5087 114.1775 143.8260 C115.0193 140.9405 125.8698 137.6390 128.8305 135.8895 C131.7543 134.1620 134.0795 132.1342 136.2485 129.5293 C137.3575 128.1970 138.7765 126.6215 139.4550 125.0092 C142.6752 117.3570 140.5267 107.7070 138.8735 99.9492 C138.5443 98.4040 137.6255 95.7780 138.1382 94.3012 C138.4315 93.4557 139.8180 93.0480 140.5607 92.7665 Z"></path>
<path id="" fill="#d89d81" fill-opacity="1.0" stroke="#000000" stroke-width="0.0" stroke-opacity="1.0" stroke-linecap="round" stroke-linejoin="round"  filling="0" d="M63.9113 252.0725 C69.3925 251.7800 83.5855 250.9525 87.8087 254.6200 C90.2745 256.7600 90.7675 260.6775 90.9895 263.7625 C91.2000 266.6850 91.0222 269.6400 91.0533 272.5675 C91.0872 275.7925 91.4973 279.4400 90.9510 282.6100 C90.7337 283.8700 90.3035 285.0675 89.4190 286.0175 C87.9660 287.5750 86.1022 287.9350 84.0625 288.0450 C80.4807 288.1325 76.1960 288.7850 73.0023 286.9200 C64.7840 282.1250 59.1927 273.9850 56.8690 264.8475 C56.1348 261.9600 55.5293 258.5400 57.2363 255.8750 C58.7263 253.5475 61.3360 252.6125 63.9113 252.0725 Z"></path>
<path id="" fill="#292f33" fill-opacity="1.0" stroke="#000000" stroke-width="0.0" stroke-opacity="1.0" stroke-linecap="round" stroke-linejoin="round"  filling="0" d="M126.4027 208.0660 C130.5195 207.2442 134.7600 208.7023 137.5010 211.8817 C140.2420 215.0615 141.0592 219.4702 139.6400 223.4210 C138.2207 227.3717 134.7847 230.2527 130.6470 230.9612 C124.3700 232.0360 118.3940 227.8685 117.2330 221.6068 C116.0723 215.3450 120.1575 209.3125 126.4027 208.0660 Z"></path>
</svg>