<svg xmlns="http://www.w3.org/2000/svg" viewBox="0 0 512 512" height="512.0px" width="512.0px">
<path id="" fill="#fefefe" fill-opacity="1.0" stroke="#000000" stroke-width="0.0" stroke-opacity="1.0" stroke-linecap="round" stroke-linejoin="round"  filling="0" d="M232.7455 269.1050 C232.8655 269.0875 232.9850 269.0675 233.1055 269.0550 C236.2088 268.7300 239.5267 268.9225 242.6500 268.9275 L258.7400 268.9300 C265.8550 268.9300 273.0575 268.7075 280.1650 269.0125 C285.1775 269.2300 290.2300 269.8100 295.2350 270.2175 C318.4650 272.1075 341.7975 275.0975 364.3825 281.0575 C370.9625 282.7925 377.4100 285.0025 383.8600 287.1500 C396.6025 291.3900 408.8500 296.2675 420.5350 302.9250 C426.3300 306.2250 431.9175 309.5850 437.1050 313.8050 C448.0275 322.6950 458.4750 335.3525 459.9050 349.8725 C461.3150 364.1525 452.3575 382.0175 443.4375 392.8350 C440.9225 395.8850 438.0375 398.6200 435.2425 401.4125 C433.0225 403.6300 430.8350 405.9375 428.4775 408.0100 C400.1575 432.9275 360.1025 447.1200 323.5425 454.0400 C309.2750 456.7400 295.0925 458.1725 280.6675 459.6025 C272.4850 460.4825 264.0250 460.0350 255.7950 460.0325 C249.9187 460.0300 243.9780 460.2275 238.1142 459.9275 C192.5055 457.6025 140.7077 446.3400 102.0117 421.3775 C98.3262 419.0000 94.4570 416.7025 91.0015 414.0050 C76.8615 402.9650 63.5853 389.2200 56.7632 372.4075 C55.1245 368.3700 53.7737 364.2525 53.2767 359.9075 C51.5840 345.1000 55.1852 335.8375 64.4760 324.2775 C68.2005 319.6425 72.7507 315.8825 77.4955 312.3425 C94.6890 299.5175 114.8903 291.5275 135.2480 285.2625 C149.4097 280.9025 163.6198 277.2700 178.2660 274.9000 C191.1528 272.8350 204.1183 271.2975 217.1302 270.2900 C222.3407 269.8375 227.5347 269.6575 232.7455 269.1050 Z"></path>
<path id="" fill="#ccd6dd" fill-opacity="1.0" stroke="#000000" stroke-width="0.0" stroke-opacity="1.0" stroke-linecap="round" stroke-linejoin="round"  filling="0" d="M51.9763 334.4475 C51.9193 329.6750 51.1075 325.1000 51.6065 320.3125 C53.3362 303.7250 61.0345 289.9125 71.5923 277.3725 C75.9745 272.1700 80.8800 267.0800 86.1655 262.7825 C92.7940 257.3900 99.9082 252.0675 107.2258 247.6500 C142.0495 226.6240 188.0598 215.2220 228.3810 212.1172 C231.3495 211.8885 234.3362 211.9418 237.3082 211.7675 C240.6225 211.5733 243.9153 211.0440 247.2360 210.9483 C253.3450 210.7717 259.6425 210.7225 265.7500 211.0058 C269.0075 211.1570 272.2400 211.6237 275.4950 211.7900 C279.5325 211.9962 283.5575 211.9500 287.5875 212.3655 C297.7925 213.4182 308.1300 214.5643 318.2150 216.4595 C355.1325 223.3955 398.2100 238.8027 426.9425 263.5400 C432.8175 268.5975 438.3900 274.5675 443.2700 280.5750 C454.9100 294.9025 462.0900 313.4775 460.1825 332.0650 C460.3475 338.2225 461.4325 344.3450 460.9500 350.5075 C459.8675 364.4025 450.6325 384.4675 441.0525 394.5475 C434.4750 401.4650 427.6475 408.5325 420.0025 414.2700 C400.9550 428.5675 378.9325 437.9525 356.3900 445.1475 C342.6400 449.5350 329.2675 453.0125 314.9775 455.3175 C310.4250 456.0525 305.8225 456.4700 301.2450 457.0225 C295.7975 457.6825 290.3175 458.4550 284.8425 458.8450 C281.6750 459.0700 278.4900 458.9975 275.3225 459.1775 C271.7100 459.3825 268.1200 459.9275 264.5000 460.0050 C259.2700 460.1175 253.8725 460.2375 248.6548 459.9200 C245.5128 459.7300 242.3940 459.2425 239.2473 459.1050 C236.0025 458.9625 232.7453 459.1025 229.5020 458.9100 C222.0945 458.4700 214.7715 457.4525 207.4243 456.4925 C203.5965 455.9925 199.7320 455.7625 195.9210 455.1425 C171.1675 451.0150 147.0618 443.6625 124.2190 433.2700 C112.0845 427.8500 102.6032 422.5475 91.8885 414.6100 C88.7137 412.2600 85.5527 410.0150 82.6995 407.2600 C77.9120 402.6350 72.7267 397.8400 68.5415 392.6725 C66.0397 389.5825 64.0713 386.1975 62.0660 382.7800 C55.1750 371.0400 51.1490 360.3775 51.0025 346.4850 C50.9603 342.4800 51.4187 338.4125 51.9763 334.4475 Z"></path>
<path id="" fill="#8899a6" fill-opacity="1.0" stroke="#000000" stroke-width="0.0" stroke-opacity="1.0" stroke-linecap="round" stroke-linejoin="round"  filling="0" d="M51.9763 334.4475 C52.1805 335.9250 51.7883 337.4225 52.0360 338.8900 C52.7863 343.3325 56.2400 351.5950 58.2233 355.7300 C74.5890 389.8650 112.6687 411.0775 147.0152 423.0950 C219.8090 448.5650 319.7425 446.6175 389.5825 412.9150 C415.9150 400.2075 443.8300 380.6875 455.4625 352.7250 C457.0100 349.0100 458.8700 344.5575 459.5525 340.6150 C459.8650 338.8175 459.6175 333.2775 460.0650 332.2575 C460.0975 332.1900 460.1425 332.1300 460.1825 332.0650 C460.3475 338.2225 461.4325 344.3450 460.9500 350.5075 C459.8675 364.4025 450.6325 384.4675 441.0525 394.5475 C434.4750 401.4650 427.6475 408.5325 420.0025 414.2700 C400.9550 428.5675 378.9325 437.9525 356.3900 445.1475 C342.6400 449.5350 329.2675 453.0125 314.9775 455.3175 C310.4250 456.0525 305.8225 456.4700 301.2450 457.0225 C295.7975 457.6825 290.3175 458.4550 284.8425 458.8450 C281.6750 459.0700 278.4900 458.9975 275.3225 459.1775 C271.7100 459.3825 268.1200 459.9275 264.5000 460.0050 C259.2700 460.1175 253.8725 460.2375 248.6548 459.9200 C245.5128 459.7300 242.3940 459.2425 239.2473 459.1050 C236.0025 458.9625 232.7453 459.1025 229.5020 458.9100 C222.0945 458.4700 214.7715 457.4525 207.4243 456.4925 C203.5965 455.9925 199.7320 455.7625 195.9210 455.1425 C171.1675 451.0150 147.0618 443.6625 124.2190 433.2700 C112.0845 427.8500 102.6032 422.5475 91.8885 414.6100 C88.7137 412.2600 85.5527 410.0150 82.6995 407.2600 C77.9120 402.6350 72.7267 397.8400 68.5415 392.6725 C66.0397 389.5825 64.0713 386.1975 62.0660 382.7800 C55.1750 371.0400 51.1490 360.3775 51.0025 346.4850 C50.9603 342.4800 51.4187 338.4125 51.9763 334.4475 Z"></path>
<path id="" fill="#f3aab9" fill-opacity="1.0" stroke="#000000" stroke-width="0.0" stroke-opacity="1.0" stroke-linecap="round" stroke-linejoin="round"  filling="0" d="M254.1475 152.1050 C254.8225 152.0157 255.5025 152.0177 256.1825 152.0022 C261.7075 151.8755 267.0475 152.5835 272.5400 152.8638 C300.7900 154.3065 326.3725 158.1985 353.2550 167.4408 C368.5750 172.7080 378.4075 176.8443 391.9625 185.9100 C396.3925 188.8730 401.1775 191.8008 405.0175 195.5195 C410.7350 201.0547 415.6450 209.1930 417.5125 216.9555 C418.8350 222.4512 418.0525 232.5822 418.0475 238.5115 L418.0575 278.0700 C418.0550 284.7550 417.7000 291.5975 418.0775 298.2650 C418.3125 302.3975 419.8850 304.2150 421.4350 307.8400 C423.1575 311.8725 423.9125 316.8550 423.9300 321.2125 C423.9950 336.4200 414.7075 351.4850 404.3225 361.9475 C402.6350 363.6475 400.7175 365.1525 398.8775 366.6875 C391.1575 373.1200 383.2500 377.9225 374.2825 382.4150 C347.3350 395.9175 318.8675 402.6425 288.9750 405.6400 C283.9500 406.1450 278.8575 406.7350 273.8200 406.9800 C268.7850 407.2250 263.6675 407.0425 258.6250 407.0350 C251.5500 407.0450 244.3488 407.3175 237.2885 406.9500 C228.4520 406.4925 219.5253 405.3950 210.7785 404.1125 C206.7552 403.5250 202.6945 403.0575 198.6940 402.3325 C174.1675 397.8825 146.1243 388.8700 125.0417 375.5050 C120.3698 372.5425 115.9498 369.0050 111.6405 365.5350 C99.0058 355.3675 90.0280 340.6200 88.3415 324.3550 C87.7592 318.7350 88.7072 312.0725 90.8557 306.8450 C92.1137 303.7850 93.6915 301.0900 93.9555 297.7075 C94.4435 291.4525 93.9792 284.4400 93.9775 278.1250 L93.9702 237.6873 C93.9698 230.5573 93.2038 222.1925 94.8737 215.3022 C96.2718 209.5343 99.7680 203.8217 103.4853 199.2657 C106.2350 195.8952 109.6783 193.3090 113.0865 190.6490 C137.6805 171.4555 178.0175 159.7590 208.5658 155.5305 C216.6922 154.4055 225.7482 153.4863 233.9108 153.0587 C237.4538 152.8732 241.0165 153.0350 244.5635 152.9200 C247.7625 152.8163 250.9625 152.4117 254.1475 152.1050 Z"></path>
<path id="" fill="#ea596e" fill-opacity="1.0" stroke="#000000" stroke-width="0.0" stroke-opacity="1.0" stroke-linecap="round" stroke-linejoin="round"  filling="0" d="M93.8808 218.3593 L93.8167 218.0457 C92.9617 214.0172 91.1930 210.2560 90.2712 206.2507 C87.1260 192.5847 89.9872 179.0527 97.5168 167.3358 C111.8613 145.0125 137.4655 132.0925 161.6720 123.2103 C171.3690 119.5462 181.3188 116.5902 191.4430 114.3650 C229.1953 106.2387 276.7675 105.5967 314.7450 113.1235 C329.9675 116.2255 344.8700 120.7450 359.2525 126.6230 C368.4675 130.4310 377.5175 134.7198 385.8975 140.1557 C401.7825 150.4610 417.9700 165.3472 422.0825 184.6325 C423.7425 192.4145 423.4975 201.3675 421.0625 208.9555 C420.0575 212.0847 418.5650 215.2670 418.0300 218.5123 C418.0425 235.9235 418.7975 250.6850 411.7825 267.2225 C409.9550 271.5275 407.8750 275.5800 404.5375 278.9275 C404.1925 279.2725 403.8350 279.6075 403.4650 279.9275 C392.4950 289.4500 379.6700 282.7350 367.9775 290.2125 C356.4750 297.5700 356.0375 315.2825 339.3925 315.1100 C333.0400 315.0450 327.9800 310.6700 322.4875 308.0200 C317.8900 305.8050 313.4925 304.7625 308.4000 304.5300 C299.5200 304.1225 293.0850 306.4850 286.6775 312.6750 C277.0225 322.0000 269.3975 328.2775 255.2875 328.0850 C241.1842 327.8925 235.3053 318.7600 225.1333 310.8225 C222.7305 308.9475 220.2023 307.1075 217.3268 306.0300 C214.8633 305.1075 212.1510 304.7475 209.5395 304.5825 C205.2085 304.3050 200.6893 304.5375 196.5302 305.8575 C185.9260 309.2250 176.3635 318.6275 164.5340 314.4175 C161.2045 313.2325 158.5495 311.4725 156.0950 308.9375 C150.6435 303.3075 147.5932 296.0525 141.2960 291.1525 C130.9422 283.0975 117.7950 287.7950 110.7630 282.0725 C107.3800 279.3200 103.0202 273.1275 101.1990 269.2050 C100.4788 267.6525 99.2867 262.3800 98.3160 261.6300 L95.0242 262.0550 C94.9203 258.5200 95.3655 255.4125 96.0145 251.9450 C95.4540 250.5850 95.4375 248.9830 95.2298 247.5352 C93.8275 237.7610 94.0885 228.1893 93.8808 218.3593 Z"></path>
<path id="" fill="#dd2e44" fill-opacity="1.0" stroke="#000000" stroke-width="0.0" stroke-opacity="1.0" stroke-linecap="round" stroke-linejoin="round"  filling="0" d="M93.8808 218.3593 C93.9555 218.3830 94.0307 218.4048 94.1048 218.4300 C94.5013 218.5652 94.9435 218.7195 95.2470 219.0197 C96.5695 220.3290 97.7135 222.9075 98.7303 224.5352 C100.4222 227.2435 102.3250 229.9100 104.4455 232.3017 C111.8412 240.6443 120.6670 247.2572 130.0898 253.1375 C144.9247 262.3975 161.7298 268.7300 178.5408 273.3375 C184.0123 274.8350 189.5287 276.3375 195.0880 277.4725 C248.5903 288.3875 316.2625 285.0075 365.9675 261.5875 C381.9425 254.0625 397.4175 244.6102 408.8950 230.9373 C411.2925 228.0788 415.7925 220.0878 418.0300 218.5123 C418.0425 235.9235 418.7975 250.6850 411.7825 267.2225 C409.9550 271.5275 407.8750 275.5800 404.5375 278.9275 C404.1925 279.2725 403.8350 279.6075 403.4650 279.9275 C392.4950 289.4500 379.6700 282.7350 367.9775 290.2125 C356.4750 297.5700 356.0375 315.2825 339.3925 315.1100 C333.0400 315.0450 327.9800 310.6700 322.4875 308.0200 C317.8900 305.8050 313.4925 304.7625 308.4000 304.5300 C299.5200 304.1225 293.0850 306.4850 286.6775 312.6750 C277.0225 322.0000 269.3975 328.2775 255.2875 328.0850 C241.1842 327.8925 235.3053 318.7600 225.1333 310.8225 C222.7305 308.9475 220.2023 307.1075 217.3268 306.0300 C214.8633 305.1075 212.1510 304.7475 209.5395 304.5825 C205.2085 304.3050 200.6893 304.5375 196.5302 305.8575 C185.9260 309.2250 176.3635 318.6275 164.5340 314.4175 C161.2045 313.2325 158.5495 311.4725 156.0950 308.9375 C150.6435 303.3075 147.5932 296.0525 141.2960 291.1525 C130.9422 283.0975 117.7950 287.7950 110.7630 282.0725 C107.3800 279.3200 103.0202 273.1275 101.1990 269.2050 C100.4788 267.6525 99.2867 262.3800 98.3160 261.6300 L95.0242 262.0550 C94.9203 258.5200 95.3655 255.4125 96.0145 251.9450 C95.4540 250.5850 95.4375 248.9830 95.2298 247.5352 C93.8275 237.7610 94.0885 228.1893 93.8808 218.3593 Z"></path>
<path id="" fill="#dd2e44" fill-opacity="1.0" stroke="#000000" stroke-width="0.0" stroke-opacity="1.0" stroke-linecap="round" stroke-linejoin="round"  filling="0" d="M409.8975 335.1125 C410.7600 333.3500 411.7975 331.6875 412.5925 329.8850 C413.3250 328.2300 413.7900 326.4475 414.3300 324.7200 C416.0125 319.3250 417.1525 314.6700 417.2475 308.9725 C417.2750 307.2375 416.6550 300.1850 417.5525 299.3225 C418.3025 299.5300 418.6275 300.0325 418.9975 300.7025 C423.5850 309.0425 424.0800 324.5525 421.2175 333.5325 C413.6450 357.2900 394.3325 371.6875 373.0700 382.5775 C329.6875 404.8000 272.6525 411.4400 224.4740 406.4775 C212.5140 405.1875 200.6465 403.1500 188.9410 400.3750 C182.1373 398.8100 175.3127 397.1975 168.6653 395.0450 C158.4605 391.7625 148.5490 387.6275 139.0347 382.6875 C120.7807 373.3275 104.1693 361.5175 94.6160 342.8000 C88.3138 330.4525 87.3700 317.1075 91.6608 303.9650 C92.1220 302.5525 92.7135 300.2125 94.0935 299.4600 L94.5677 299.5100 C95.5950 301.9125 94.8640 307.9000 94.9380 310.7400 C95.0048 312.9425 95.2420 315.1375 95.6472 317.3025 C96.2350 320.4175 97.2558 323.3800 98.3925 326.3325 C104.7270 342.7725 117.4115 354.0650 132.1840 362.9675 C135.6537 365.0575 139.3610 367.5625 143.1285 369.0650 C145.1575 369.8725 147.3775 370.1425 149.4235 370.9025 C152.3815 372.0050 155.0690 373.8025 158.0347 374.9250 C169.4198 379.1925 181.1370 382.5150 193.0677 384.8600 C199.7450 386.2375 206.4337 387.0000 213.1803 387.8850 C216.0060 388.2550 218.8000 388.8400 221.6355 389.1475 C234.6360 390.5500 249.3997 391.3000 262.4500 390.9925 C266.0525 390.9075 269.6325 390.4825 273.2300 390.3100 C295.0200 389.2625 316.6675 386.3175 337.6950 380.3775 C345.0875 378.2900 352.4875 376.1275 359.5225 373.0050 C361.0700 372.3175 362.5400 371.5550 363.9925 370.6850 C368.1375 368.2175 370.3800 366.6025 375.2225 365.6200 C384.9075 360.8825 393.4975 353.9800 401.1500 346.4800 C401.3825 346.0950 401.3125 346.2375 401.4725 345.8875 C403.3175 341.8075 405.9325 339.6050 406.2500 334.8875 L409.8975 335.1125 Z"></path>
<path id="" fill="#f3a9b8" fill-opacity="1.0" stroke="#000000" stroke-width="0.0" stroke-opacity="1.0" stroke-linecap="round" stroke-linejoin="round"  filling="0" d="M406.2500 334.8875 L409.8975 335.1125 C409.7600 337.6225 404.3000 344.0275 402.3075 345.8375 C401.9175 346.1925 401.6825 346.3775 401.1500 346.4800 C401.3825 346.0950 401.3125 346.2375 401.4725 345.8875 C403.3175 341.8075 405.9325 339.6050 406.2500 334.8875 Z"></path>
<path id="" fill="#fef7e7" fill-opacity="1.0" stroke="#000000" stroke-width="0.0" stroke-opacity="1.0" stroke-linecap="round" stroke-linejoin="round"  filling="0" d="M243.2155 153.0345 C251.8075 153.0650 260.3975 153.0412 268.9900 152.9633 C268.5275 159.6252 268.9550 166.5612 268.9575 173.2580 L268.9625 214.3407 C268.9725 219.9527 269.5775 230.0690 268.6150 235.2475 C268.2050 237.4520 266.6925 239.4288 265.2925 241.1160 C265.2325 241.1815 265.1725 241.2487 265.1100 241.3130 C262.6550 243.8385 260.1225 245.0405 256.5400 245.0558 C252.8575 245.0712 249.4653 244.0488 246.8562 241.3205 C245.2283 239.6180 243.8785 237.3395 243.4998 234.9917 C242.9297 231.4620 243.1600 227.6908 243.1588 224.1217 L243.1555 207.9205 C243.1548 189.6335 242.9527 171.3183 243.2155 153.0345 Z"></path>
<path id="" fill="#fef7e7" fill-opacity="1.0" stroke="#000000" stroke-width="0.0" stroke-opacity="1.0" stroke-linecap="round" stroke-linejoin="round"  filling="0" d="M330.4125 116.6570 C333.7500 117.1728 336.9550 118.4175 340.1625 119.4362 C345.9475 121.2735 350.6900 122.5670 356.0100 125.6255 L355.9875 175.2088 C355.9875 180.7563 356.6575 193.5462 355.5975 198.3640 C355.0975 200.6407 353.6425 202.5872 352.1050 204.2765 C351.9825 204.3813 351.8625 204.4875 351.7375 204.5907 C348.9875 206.8915 345.7675 208.2408 342.1275 207.8463 C338.7750 207.4830 335.3625 205.8105 333.2925 203.1235 C332.0675 201.5358 330.7650 199.1593 330.4950 197.1853 C329.8575 192.5482 330.2025 187.5425 330.2025 182.8658 L330.2075 157.4552 L330.1875 130.9035 C330.1825 126.2455 329.8400 121.2750 330.4125 116.6570 Z"></path>
<path id="" fill="#fef7e7" fill-opacity="1.0" stroke="#000000" stroke-width="0.0" stroke-opacity="1.0" stroke-linecap="round" stroke-linejoin="round"  filling="0" d="M180.5860 116.7480 C180.9290 116.7533 181.1505 116.8257 181.4745 116.9280 C181.6057 117.2145 181.6410 117.2592 181.7157 117.6147 C182.1687 119.7650 181.8310 122.5583 181.8285 124.7915 L181.8293 141.2937 L181.8480 175.8525 C181.8533 182.0210 182.2057 188.4220 181.7265 194.5605 C181.5190 197.2162 181.0810 199.8965 179.5555 202.1375 C177.5443 205.0440 174.4642 207.0363 170.9885 207.6785 C166.9680 208.4230 163.8438 207.2050 160.6285 204.9305 C160.2637 204.6082 159.9295 204.2592 159.5965 203.9050 C157.9470 202.1510 156.7585 200.0287 156.3495 197.6400 C155.7880 194.3620 156.0200 190.7895 156.0270 187.4720 L156.0600 172.1395 L156.0522 142.8553 C156.0515 136.9993 155.9382 131.1180 156.1645 125.2665 C162.9122 122.0105 173.2968 118.6933 180.5860 116.7480 Z"></path>
<path id="" fill="#f9a935" fill-opacity="1.0" stroke="#000000" stroke-width="0.0" stroke-opacity="1.0" stroke-linecap="round" stroke-linejoin="round"  filling="0" d="M253.9600 89.0332 C256.5100 88.8530 258.0075 88.8712 260.0700 90.5630 C271.0850 99.5990 284.6700 119.8170 285.9525 133.8475 C286.6400 141.3672 285.0650 148.3780 280.1500 154.2435 C274.7500 160.6855 266.5750 163.2737 258.4700 164.0205 C254.4075 164.0802 250.5850 163.8922 246.6183 162.9320 C239.8050 161.2830 233.3958 157.3260 229.7538 151.2193 C224.0128 141.5927 225.4305 130.2693 229.8412 120.4260 C231.3627 117.0307 233.6622 113.5425 234.5437 109.9225 C234.5610 109.8517 234.5757 109.7807 234.5918 109.7097 C237.0278 107.7695 238.9342 105.1192 240.8630 102.6905 C244.6335 97.9427 248.9075 92.4735 253.9600 89.0332 Z"></path>
<path id="" fill="#f9aa35" fill-opacity="1.0" stroke="#000000" stroke-width="0.0" stroke-opacity="1.0" stroke-linecap="round" stroke-linejoin="round"  filling="0" d="M341.9725 51.7988 C344.2200 51.6868 345.9775 52.0612 347.7800 53.4153 C350.4525 55.4243 352.5625 58.2550 354.7100 60.7968 C362.7650 70.3370 371.1575 81.6860 372.8225 94.4195 C373.8400 102.1762 372.8075 109.8568 367.8975 116.1545 C362.2925 123.3418 353.5725 125.6940 344.9525 126.7678 C338.4400 126.8970 331.4775 125.6608 325.7850 122.3545 C319.8725 118.9207 315.8400 113.4810 314.1025 106.9085 C311.2325 96.0415 315.5900 84.5800 321.0175 75.2372 C324.0100 70.0858 336.5075 53.2565 341.9725 51.7988 Z"></path>
<path id="" fill="#f9aa35" fill-opacity="1.0" stroke="#000000" stroke-width="0.0" stroke-opacity="1.0" stroke-linecap="round" stroke-linejoin="round"  filling="0" d="M167.9538 51.8195 C170.3585 51.7365 171.4742 52.3013 173.3440 53.7997 C175.0517 55.1682 176.5948 56.8932 178.1205 58.4637 C187.8002 68.4272 197.1187 82.2312 198.6998 96.3335 C199.4433 102.9670 197.9185 110.6113 193.6562 115.9035 C187.5780 123.4503 179.5160 125.7247 170.2650 126.7462 C162.7620 126.8365 155.1740 125.1495 149.0245 120.6800 C143.7388 116.8383 140.2440 111.2783 139.2547 104.8005 C137.2103 91.4113 143.7640 78.3593 151.5400 67.9080 C154.6235 63.7635 161.3010 55.1232 165.3820 52.5898 C166.1888 52.0887 167.0282 51.9557 167.9538 51.8195 Z"></path>
</svg>