<svg xmlns="http://www.w3.org/2000/svg" viewBox="0 0 512 512" height="512.0px" width="512.0px">
<path id="" fill="#292f33" fill-opacity="1.0" stroke="#000000" stroke-width="0.0" stroke-opacity="1.0" stroke-linecap="round" stroke-linejoin="round"  filling="0" d="M378.7075 240.9290 C422.5875 239.5522 459.2850 273.9800 460.7100 317.8575 C462.1375 361.7325 427.7500 398.4700 383.8750 399.9450 C339.9300 401.4225 303.1225 366.9700 301.6950 323.0225 C300.2675 279.0775 334.7600 242.3078 378.7075 240.9290 Z M382.8825 377.3475 C414.2700 376.3725 438.9300 350.1475 437.9775 318.7600 C437.0275 287.3725 410.8225 262.6925 379.4350 263.6200 C348.0125 264.5475 323.2975 290.7875 324.2500 322.2100 C325.2025 353.6300 351.4600 378.3250 382.8825 377.3475 Z"></path>
<path id="" fill="#292f33" fill-opacity="1.0" stroke="#000000" stroke-width="0.0" stroke-opacity="1.0" stroke-linecap="round" stroke-linejoin="round"  filling="0" d="M129.3907 240.9895 C173.2968 240.2360 209.5007 275.2175 210.2558 319.1225 C211.0108 363.0300 176.0310 399.2350 132.1250 399.9900 C88.2168 400.7475 52.0092 365.7650 51.2542 321.8575 C50.4993 277.9500 85.4825 241.7430 129.3907 240.9895 Z M133.1335 377.3700 C164.4803 376.1100 188.8845 349.7000 187.6703 318.3525 C186.4560 287.0025 160.0820 262.5625 128.7315 263.7300 C97.3167 264.9025 72.8132 291.3425 74.0300 322.7550 C75.2470 354.1675 101.7223 378.6325 133.1335 377.3700 Z"></path>
<path id="" fill="#e9596e" fill-opacity="1.0" stroke="#000000" stroke-width="0.0" stroke-opacity="1.0" stroke-linecap="round" stroke-linejoin="round"  filling="0" d="M376.8775 218.1098 C384.8150 217.8495 392.7375 218.3535 400.5175 220.0055 C417.7975 223.6747 434.7550 231.9070 448.0225 243.6387 C450.2975 245.6503 453.1950 247.9982 454.7450 250.6050 C455.1575 251.3000 455.3975 251.7975 455.1125 252.5875 C454.2200 255.0475 442.8275 265.2775 440.2375 266.0225 C439.4350 266.2525 438.7725 265.8000 438.1450 265.3325 C435.5550 263.4075 433.5075 260.6475 431.0775 258.5025 C426.6250 254.5725 418.7300 250.3850 413.2450 247.9830 C393.7625 239.4480 373.0275 238.4650 353.1225 246.2598 C339.0800 251.5900 325.8325 261.6875 317.0250 273.8475 C314.0775 277.9150 311.7200 282.2975 309.2475 286.6550 C307.6025 286.0725 290.0625 277.8550 289.4500 277.3350 C289.0975 277.0350 289.0500 276.9150 289.0325 276.4625 C288.8450 271.9225 300.2125 256.7075 303.7025 252.8600 C322.4175 231.8922 348.8000 219.3630 376.8775 218.1098 Z"></path>
<path id="" fill="#e9596e" fill-opacity="1.0" stroke="#000000" stroke-width="0.0" stroke-opacity="1.0" stroke-linecap="round" stroke-linejoin="round"  filling="0" d="M124.9358 218.1120 C139.4408 217.0983 155.9872 220.4662 169.4180 225.9243 C191.1792 234.7677 212.2450 253.7575 221.4433 275.4775 C214.8177 278.0575 208.3395 281.9100 202.0522 285.2400 C199.5045 280.0350 196.1130 275.1700 192.4365 270.7100 C190.4950 268.3750 188.5482 265.9200 186.3728 263.8025 C183.9545 261.4500 181.1655 259.4875 178.4675 257.4725 C175.0258 254.9000 171.5200 252.3850 167.7352 250.3350 C151.2997 241.5815 132.2925 238.9393 114.0925 242.8780 C110.8073 243.6150 107.4495 244.4570 104.3058 245.6633 C102.6235 246.3090 101.0017 247.2533 99.2787 247.7623 C98.7620 247.9147 98.3615 247.9615 97.8213 247.8725 C96.4945 246.4935 89.3310 229.5782 88.4960 227.0700 C98.9702 221.7825 113.2448 218.6658 124.9358 218.1120 Z"></path>
<path id="" fill="#66757f" fill-opacity="1.0" stroke="#000000" stroke-width="0.0" stroke-opacity="1.0" stroke-linecap="round" stroke-linejoin="round"  filling="0" d="M254.0175 296.6025 C266.8925 295.2475 278.4250 304.5900 279.7700 317.4650 C281.1150 330.3400 271.7625 341.8625 258.8850 343.1975 C246.0258 344.5300 234.5182 335.1900 233.1750 322.3325 C231.8318 309.4725 241.1608 297.9575 254.0175 296.6025 Z"></path>
<path id="" fill="#dc2e44" fill-opacity="1.0" stroke="#000000" stroke-width="0.0" stroke-opacity="1.0" stroke-linecap="round" stroke-linejoin="round"  filling="0" d="M147.8127 112.0098 C154.5370 112.6492 168.8475 121.7053 174.1715 126.0713 C187.5960 137.0807 196.7770 154.1250 198.4800 171.3898 C199.1042 177.7182 198.5300 184.1418 199.2032 190.4097 C199.2153 190.5208 199.2295 190.6315 199.2425 190.7425 C200.3745 192.3580 201.7980 193.7280 203.1855 195.1192 C210.2688 195.4120 217.4500 195.1775 224.5415 195.1745 L264.6525 195.1797 L278.6775 195.1980 C281.7625 195.2035 284.9450 195.0598 288.0075 195.4803 C292.0900 187.9297 293.3400 178.9690 298.0150 171.8210 C299.8075 171.9957 317.5075 177.2170 318.8225 178.0500 C319.7700 179.8158 315.7275 187.9915 314.9125 190.2445 C314.4800 191.4365 314.2075 192.6405 313.9700 193.8835 C317.1850 198.0520 319.8050 202.4677 322.6200 206.9060 C326.2975 212.6070 329.9250 218.3420 333.4975 224.1102 C335.8025 227.8618 337.9600 231.7207 340.3550 235.4140 L359.7125 264.8050 C361.1100 266.9450 362.1000 269.3150 363.5125 271.4475 C369.6575 280.6325 375.6425 289.9225 381.4625 299.3125 C384.2475 303.7225 387.2900 308.0500 389.8350 312.6000 C391.1750 314.9950 392.6075 317.5925 392.4675 320.4200 C392.3000 323.7750 390.5050 327.1800 387.9500 329.3500 C385.8650 331.1200 383.2525 331.5875 380.6125 331.8475 C375.1750 332.3825 369.4300 332.0225 363.9625 332.0175 L334.2075 332.0300 L296.4975 332.0200 C289.8925 332.0125 283.0175 332.3825 276.4475 331.8550 C275.0900 330.9725 277.7175 325.7075 278.0000 324.1925 C278.9775 318.9575 277.2325 313.9425 275.7275 309.0150 C282.1150 309.2425 288.5650 309.0700 294.9625 309.0725 L329.8575 309.0800 L348.6650 309.0550 C352.5350 309.0775 356.5800 309.4050 360.4225 308.9450 C355.9125 302.7500 351.9225 296.0500 347.8225 289.5750 C345.5425 285.9700 343.0275 282.5050 340.7725 278.8925 C339.0800 276.1800 337.6200 273.3400 335.8825 270.6500 C333.9300 267.6300 331.7825 264.7300 329.8725 261.6850 C327.4200 257.7725 325.3075 253.6800 322.7825 249.7953 C319.8150 245.7057 317.3075 241.5343 314.6175 237.2702 C311.0500 231.6187 307.4550 226.0052 303.9575 220.3082 C302.8775 222.4270 302.1875 224.9158 301.4125 227.1670 L297.3725 238.7982 L281.1350 284.1900 C279.2575 289.3875 277.4125 294.5775 275.4300 299.7400 C274.6525 301.7675 274.0225 303.8800 273.0600 305.8300 C272.8150 305.8375 266.4475 300.7225 264.8825 299.9375 C262.1750 298.5775 259.0850 297.8725 256.0725 298.3975 C255.1375 298.5625 253.9100 298.9925 252.9775 298.8250 C252.5700 298.7525 252.5450 298.5150 252.3375 298.1975 C252.1800 295.3275 254.0300 291.8475 254.9375 289.1275 C250.8125 285.4600 247.1675 280.7175 243.5335 276.5500 L223.4198 253.4950 C216.6495 245.8878 209.9295 238.2350 203.2603 230.5385 C200.0052 226.8040 196.1970 223.0555 193.5078 218.9200 C190.6590 224.8313 188.8470 231.2088 186.0070 237.1415 C183.0247 243.3720 179.6642 249.3687 176.4460 255.4750 L163.4595 280.6125 C160.3350 286.7175 141.1837 326.8975 138.4775 329.2075 C136.3593 331.0150 132.5690 331.9925 129.8665 331.7875 C126.7175 331.5500 123.7812 329.7475 121.7937 327.3425 C120.1367 325.3375 118.9798 322.5650 119.2880 319.9275 C119.8770 314.8875 136.1665 284.0575 139.3273 277.7875 C142.4017 271.6875 145.2720 265.4975 148.3700 259.4100 C149.4982 257.1950 154.1620 249.0565 154.3038 247.0098 C154.3253 246.6985 154.3342 245.5910 154.4730 245.3705 C154.8983 244.6947 156.4238 244.2182 157.0208 243.4080 C158.4588 241.4570 159.5168 238.8468 160.6837 236.7043 C161.7675 234.7142 163.0497 232.7917 163.9915 230.7315 C176.6215 203.0997 185.9605 163.8853 157.5455 142.1543 C152.5485 138.3327 141.7420 134.7457 139.6622 128.6718 C138.5872 125.5325 139.7660 121.9622 141.1653 119.1008 C142.5615 116.2450 144.6920 113.0880 147.8127 112.0098 Z M261.9625 261.9100 L264.6725 262.4250 C265.9525 258.5250 267.2600 254.6350 268.8075 250.8300 C272.4425 239.8015 276.5425 228.9255 280.3600 217.9585 C273.5525 218.5690 266.3550 218.1055 259.5100 218.0960 L222.9470 218.0123 C225.1593 221.3545 228.4895 224.0002 231.0900 227.0515 C241.1340 238.8360 251.3050 250.6800 261.9625 261.9100 Z"></path>
<path id="" fill="#292f33" fill-opacity="1.0" stroke="#000000" stroke-width="0.0" stroke-opacity="1.0" stroke-linecap="round" stroke-linejoin="round"  filling="0" d="M358.7075 143.7847 C359.5125 143.7285 360.3200 143.7888 361.1075 143.9633 C363.1125 144.4117 364.9425 145.2988 366.0350 147.1107 C367.4550 149.4655 367.3250 152.1893 366.7200 154.7680 C365.8200 158.5945 364.2300 162.3530 362.9850 166.0890 C361.5625 170.3700 360.4775 175.2153 358.4175 179.2155 C357.7600 180.4890 356.1450 182.5647 354.8325 183.1490 C353.3500 183.8080 350.6850 183.7173 349.0775 183.6167 C341.0050 183.1118 332.8425 181.5490 324.7875 180.6693 L303.4375 178.2153 C300.3000 177.8395 297.1500 177.7603 294.0800 176.9597 C290.1650 176.2655 285.5100 176.3257 282.0000 174.2690 C280.0400 173.1203 278.7975 171.3147 278.3025 169.1062 C277.8725 167.1922 278.5275 165.1790 279.5775 163.5775 C280.3050 162.4628 281.2925 161.4545 282.4775 160.8262 C285.8675 159.0282 295.9800 159.2728 300.1700 159.0175 C303.3600 158.8045 306.5450 158.5253 309.7225 158.1805 C315.6725 157.5175 321.5850 156.5775 327.4450 155.3635 C333.9725 153.9470 340.5000 152.1687 346.6175 149.4498 C350.7050 147.6325 354.2900 144.7728 358.7075 143.7847 Z"></path>
<path id="" fill="#292f33" fill-opacity="1.0" stroke="#000000" stroke-width="0.0" stroke-opacity="1.0" stroke-linecap="round" stroke-linejoin="round"  filling="0" d="M145.3288 134.7433 C141.7148 131.7753 138.4540 129.7018 137.9825 124.5355 C137.6900 121.3325 138.3947 118.2625 140.5603 115.8027 C142.5125 113.5853 145.0385 112.2445 147.9940 112.0902 C153.3208 111.8125 160.0540 113.5768 165.3540 114.4747 L193.0742 119.1367 L210.3333 121.9628 C213.4485 122.4642 216.7305 122.7793 219.7742 123.6057 C221.9458 124.1953 223.8290 125.1892 225.5030 126.6947 C227.4232 128.4215 228.6693 131.3008 228.7905 133.8665 C228.9330 136.8760 227.7747 140.2433 225.7145 142.4555 C223.6808 144.6393 220.9220 145.6987 217.9818 145.7315 C214.4370 145.7708 210.9187 145.0175 207.4368 144.4315 L193.3875 142.0683 C189.7800 141.4890 186.1505 141.1325 182.5400 140.5943 C177.4450 139.8345 172.3578 138.8282 167.2755 137.9715 C162.7032 137.2007 158.0652 136.5880 153.5205 135.6857 C153.3655 136.3560 153.2668 137.0550 152.8305 137.6080 C152.5410 137.9750 151.9670 138.1875 151.5132 138.2188 C149.2800 138.3732 146.8885 136.0957 145.3288 134.7433 Z"></path>
<path id="" fill="#db3146" fill-opacity="1.0" stroke="#000000" stroke-width="0.0" stroke-opacity="1.0" stroke-linecap="round" stroke-linejoin="round"  filling="0" d="M145.3288 134.7433 C145.8618 134.2940 146.1297 134.3223 146.8185 134.3905 C148.6893 134.5765 151.8400 134.8965 153.5205 135.6857 C153.3655 136.3560 153.2668 137.0550 152.8305 137.6080 C152.5410 137.9750 151.9670 138.1875 151.5132 138.2188 C149.2800 138.3732 146.8885 136.0957 145.3288 134.7433 Z"></path>
</svg>