<svg xmlns="http://www.w3.org/2000/svg" viewBox="0 0 512 512" height="512.0px" width="512.0px">
<path id="" fill="#cbd6dd" fill-opacity="1.0" stroke="#000000" stroke-width="0.0" stroke-opacity="1.0" stroke-linecap="round" stroke-linejoin="round"  filling="0" d="M83.0100 95.9652 C90.3108 95.6192 97.7625 95.9305 105.0788 95.9485 L105.0592 324.7975 L105.0612 413.3850 C105.0620 429.2575 104.8520 445.1675 105.1243 461.0350 L83.0117 461.0450 C82.8235 444.5350 82.9745 428.0075 82.9742 411.4950 L82.9733 318.9025 L83.0100 95.9652 Z"></path>
<path id="" fill="#66757f" fill-opacity="1.0" stroke="#000000" stroke-width="0.0" stroke-opacity="1.0" stroke-linecap="round" stroke-linejoin="round"  filling="0" d="M92.2150 347.0850 C97.4727 346.6975 102.8990 346.9550 108.1718 346.9575 L136.7507 346.9575 L168.3073 346.9375 C173.7018 346.9350 179.2515 346.6725 184.6293 347.0150 C186.8225 347.1550 189.3375 347.4875 191.2238 348.6750 C193.7995 350.2975 195.6515 353.3050 196.2275 356.2700 C196.7993 359.2100 196.0712 362.5825 194.3087 365.0050 C192.1743 367.9425 189.5397 369.1350 186.0567 369.7125 C181.9500 370.3350 177.4935 370.0200 173.3385 370.0200 L151.5500 370.0225 L114.6062 370.0275 C107.9212 370.0375 101.1443 370.2750 94.4673 370.0000 C92.8155 369.9325 90.7645 369.9225 89.2815 369.1425 C84.7110 366.7350 83.2855 362.7025 81.8825 358.0800 C82.4688 355.8500 83.3343 353.7950 84.6895 351.9175 C86.6265 349.2350 88.9430 347.6025 92.2150 347.0850 Z"></path>
<path id="" fill="#66757f" fill-opacity="1.0" stroke="#000000" stroke-width="0.0" stroke-opacity="1.0" stroke-linecap="round" stroke-linejoin="round"  filling="0" d="M92.5400 165.0652 C97.6435 164.6472 102.9625 164.9470 108.0945 164.9483 L137.4323 164.9583 L168.3743 164.9427 C173.8367 164.9402 179.4650 164.6497 184.9062 165.0562 C187.1842 165.2265 189.3772 165.5400 191.3282 166.8220 C193.8992 168.5115 195.8885 171.3203 196.4303 174.3667 C197.0065 177.6050 196.1407 180.6505 194.1788 183.2450 C192.1090 185.9823 189.1470 187.2328 185.8622 187.7498 C180.2827 188.1812 174.4917 187.8678 168.8885 187.8663 L137.0650 187.8642 L110.1455 187.8622 C104.6625 187.8995 98.9810 188.2795 93.5222 187.8058 C91.0818 187.5940 88.7462 187.0435 86.6923 185.6313 C84.2510 183.9530 82.7890 181.2635 82.2850 178.3785 C81.7545 175.3403 82.6715 171.9787 84.4915 169.5130 C86.4883 166.8075 89.3008 165.5245 92.5400 165.0652 Z"></path>
<path id="" fill="#f3aab9" fill-opacity="1.0" stroke="#000000" stroke-width="0.0" stroke-opacity="1.0" stroke-linecap="round" stroke-linejoin="round"  filling="0" d="M158.9100 290.0975 C159.0067 290.0825 159.1030 290.0650 159.2005 290.0550 C161.6320 289.7850 164.2455 289.9350 166.6918 289.9425 L179.6995 289.9700 L221.7025 289.9725 L360.6100 289.9700 L419.5725 289.9825 L438.5800 289.9475 C441.8850 289.9400 445.2550 289.8075 448.5550 289.9650 C449.3450 290.0050 450.5825 290.0075 451.1850 290.5600 C451.8500 291.1725 452.1775 292.1750 452.1625 293.0675 C452.1425 294.4325 451.4850 295.7125 450.7475 296.8250 C447.7400 301.3500 443.4175 305.1850 439.5825 309.0000 L425.4075 323.1050 C421.9075 326.5925 418.7225 330.1625 415.4500 333.8525 C409.3925 340.6825 401.1400 349.6500 401.3250 359.4750 C401.5400 370.9350 418.2975 386.7575 426.1175 394.5675 L439.6425 408.0725 C444.2350 412.6100 448.6300 416.9475 452.2525 422.3450 C451.9200 423.9450 451.4225 425.3950 450.8350 426.9175 C443.5725 427.2150 436.2525 427.0350 428.9850 427.0350 L390.9825 427.0375 L275.1450 427.0350 L197.0355 427.0275 L173.4325 427.0375 C168.7032 427.0550 163.8135 427.3275 159.1053 426.9200 C153.8427 426.4625 148.2867 424.8325 144.1410 421.4475 C140.8412 418.7550 139.5553 415.4975 139.1308 411.3375 C138.5193 405.3450 138.9568 398.9925 138.9625 392.9575 L138.9880 357.1600 L138.9747 322.1575 C138.9727 316.3200 138.4995 310.0675 139.1290 304.2875 C139.4315 301.5150 140.0845 299.6625 141.8755 297.4950 C146.3620 292.0600 152.1680 290.7825 158.9100 290.0975 Z"></path>
<path id="" fill="#bbddf5" fill-opacity="1.0" stroke="#000000" stroke-width="0.0" stroke-opacity="1.0" stroke-linecap="round" stroke-linejoin="round"  filling="0" d="M156.2290 108.0918 C156.3777 108.0710 156.5260 108.0465 156.6752 108.0298 C160.3445 107.6180 164.2598 107.8930 167.9545 107.9195 L185.9868 107.9365 L252.4275 107.9283 L382.4825 107.9312 C403.6075 107.9315 424.7800 107.6227 445.8975 107.9120 C447.2000 107.9297 449.4800 107.8597 450.4850 108.7605 C451.3750 109.5560 452.0825 110.6945 452.0875 111.9140 C452.1050 116.3488 445.1625 121.0717 442.1125 123.7640 C440.4425 125.2632 438.8125 126.8047 437.2225 128.3873 C434.8150 130.7352 432.3250 133.0630 430.0600 135.5485 C427.8700 137.9525 425.9050 140.5618 423.6625 142.9170 C415.3600 151.6313 401.1075 162.9235 401.0500 176.0065 C401.0275 181.3175 403.9425 186.6888 406.8250 190.9698 C409.0100 194.2130 411.6850 197.0773 414.2675 200.0022 C421.7600 208.4883 429.9025 216.3318 437.9150 224.3225 C443.7850 230.1682 449.3775 234.4467 452.5325 242.3002 C451.1750 243.4258 449.4700 244.5675 447.7000 244.8322 C444.2850 245.3438 440.4625 245.0340 436.9975 245.0315 L417.4950 245.0115 L349.3050 245.0132 L261.4700 245.0237 C246.7925 245.0233 232.0712 245.2608 217.3990 245.0100 C213.1450 244.9373 208.9323 244.0715 204.6743 244.0108 C201.0805 243.9595 197.4380 243.9205 193.8492 244.1315 C191.0222 244.2980 188.2003 244.7088 185.3715 244.8042 C182.8725 244.8887 180.3793 244.4792 177.8815 244.5692 C171.9948 244.7810 166.1998 245.2728 160.2908 244.9277 C155.1125 244.6255 150.3147 243.8683 146.0128 240.7812 C143.2205 238.7775 141.8748 236.4382 141.3318 233.0578 C140.3890 227.1862 140.9775 220.6710 140.9877 214.7148 L140.9840 181.9120 L140.9920 140.4090 C140.9908 133.7415 140.4657 126.7130 141.0833 120.0923 C141.3058 117.7337 142.1740 115.4825 143.5923 113.5853 C146.4710 109.7655 151.7617 108.6787 156.2290 108.0918 Z"></path>
<path id="" fill="#dc2e44" fill-opacity="1.0" stroke="#000000" stroke-width="0.0" stroke-opacity="1.0" stroke-linecap="round" stroke-linejoin="round"  filling="0" d="M161.6100 290.1125 C176.6000 289.7625 191.6430 290.0875 206.6400 290.0700 L220.4312 290.0125 C223.8360 289.9975 227.4337 289.7400 230.7843 290.4225 C232.7912 292.2825 234.5505 294.7400 236.3297 296.8350 C248.6185 311.2975 258.0750 329.2550 260.1725 348.3125 C263.4525 378.0725 248.6065 404.4600 230.6040 426.8775 L228.3055 426.9125 C214.2377 427.2125 200.1087 426.9475 186.0347 426.9700 L171.2298 426.9950 C166.0880 427.0100 160.9875 427.1950 155.9093 426.2200 C150.1525 425.1150 144.8607 422.8900 140.4913 418.8950 C131.3123 410.5025 128.7320 397.1850 128.2180 385.2800 C127.7758 375.0425 128.0383 364.6700 128.0695 354.4200 C128.1225 337.1725 125.8605 313.0325 138.5680 299.4150 C144.5770 292.9775 153.0753 290.3875 161.6100 290.1125 Z"></path>
<path id="" fill="#55aced" fill-opacity="1.0" stroke="#000000" stroke-width="0.0" stroke-opacity="1.0" stroke-linecap="round" stroke-linejoin="round"  filling="0" d="M159.1452 108.0995 C162.0233 107.6762 165.3575 107.9723 168.2665 107.9720 L186.7018 107.9690 L215.6680 107.9600 C219.8845 107.9603 225.8325 107.4453 229.8463 108.2285 C232.1025 108.6687 241.2330 121.5132 242.9505 123.9080 C251.2225 135.4442 257.8950 149.9090 259.7050 164.1080 C260.1750 167.7977 260.0850 171.5378 260.0825 175.2502 C260.0750 179.6555 259.9525 183.8513 259.2300 188.2142 C257.6000 198.0647 253.8200 208.9763 248.9382 217.7270 C245.9987 222.9965 242.4753 228.0130 239.1033 233.0135 C236.8822 236.3070 232.5152 242.6635 229.3797 244.9105 C216.4930 245.2153 203.5270 244.8728 190.6285 244.9037 L174.1245 244.9420 C167.7985 244.9530 161.2685 245.1240 155.0397 243.8772 C150.0618 242.8808 144.8112 240.5290 140.8925 237.2847 C132.5735 230.3975 129.5845 219.1763 128.5768 208.8575 C127.5237 198.0735 128.0853 186.9532 128.0567 176.1105 L128.0287 158.0770 C128.0325 152.2787 127.9258 146.4532 128.8765 140.7133 C130.1575 132.9792 132.3618 125.2452 137.4577 119.1165 C142.9335 112.5307 150.6945 108.8922 159.1452 108.0995 Z"></path>
<path id="" fill="#fefefe" fill-opacity="1.0" stroke="#000000" stroke-width="0.0" stroke-opacity="1.0" stroke-linecap="round" stroke-linejoin="round"  filling="0" d="M181.0360 301.3425 C199.9445 299.1425 217.0643 312.6675 219.2988 331.5725 C221.5330 350.4775 208.0385 367.6200 189.1380 369.8900 C170.1895 372.1625 152.9925 358.6275 150.7522 339.6750 C148.5123 320.7225 162.0795 303.5500 181.0360 301.3425 Z"></path>
<path id="" fill="#fefefe" fill-opacity="1.0" stroke="#000000" stroke-width="0.0" stroke-opacity="1.0" stroke-linecap="round" stroke-linejoin="round"  filling="0" d="M183.4730 119.4100 C202.3825 118.5500 218.4115 133.1767 219.2812 152.0860 C220.1512 170.9950 205.5330 187.0318 186.6243 187.9115 C167.7015 188.7923 151.6503 174.1605 150.7795 155.2372 C149.9090 136.3140 164.5493 120.2705 183.4730 119.4100 Z"></path>
<path id="" fill="#f4900c" fill-opacity="1.0" stroke="#000000" stroke-width="0.0" stroke-opacity="1.0" stroke-linecap="round" stroke-linejoin="round"  filling="0" d="M92.4503 51.0833 C111.3330 50.2128 127.3532 64.7995 128.2515 83.6808 C129.1497 102.5623 114.5865 118.6040 95.7063 119.5298 C76.7870 120.4575 60.7050 105.8575 59.8047 86.9370 C58.9048 68.0163 73.5285 51.9555 92.4503 51.0833 Z"></path>
<path id="" fill="#dd2e44" fill-opacity="1.0" stroke="#000000" stroke-width="0.0" stroke-opacity="1.0" stroke-linecap="round" stroke-linejoin="round"  filling="0" d="M266.1300 256.1050 C273.4325 255.4175 281.4525 256.5050 288.6350 257.9225 C306.3300 261.4125 340.7775 275.3325 351.0200 290.6400 C339.4275 291.0925 327.7275 290.7525 316.1250 290.7350 L231.0400 290.2325 C232.1983 281.9550 235.2417 273.0625 240.9017 266.7825 C247.2160 259.7750 256.9450 256.6350 266.1300 256.1050 Z"></path>
<path id="" fill="#55acee" fill-opacity="1.0" stroke="#000000" stroke-width="0.0" stroke-opacity="1.0" stroke-linecap="round" stroke-linejoin="round"  filling="0" d="M264.1450 74.0997 C266.0700 73.8288 268.2075 73.9392 270.1600 73.9377 C281.6375 73.9290 292.3375 76.2770 303.2200 79.7780 C317.6625 84.4238 333.4750 92.0910 344.9550 102.0995 C346.2300 103.2122 348.7250 105.1217 349.3400 106.7473 C349.5650 107.3412 349.5225 107.4310 349.2625 107.9557 C345.6200 108.2995 341.7875 108.0530 338.1200 108.0500 L316.6250 108.0332 L260.3850 108.0318 C250.8500 108.0320 240.3630 107.5573 230.9373 108.1762 C232.2920 100.1152 234.7847 92.0912 240.0465 85.6705 C245.9427 78.4753 255.1175 74.9928 264.1450 74.0997 Z"></path>
<path id="" fill="#000000" fill-opacity="1.0" stroke="#000000" stroke-width="0.0" stroke-opacity="1.0" stroke-linecap="round" stroke-linejoin="round"  filling="0" d="M177.0905 313.2100 C186.3140 312.0075 194.7760 318.4850 196.0233 327.7025 C197.2705 336.9200 190.8340 345.4125 181.6225 346.7025 C172.3488 348.0025 163.7865 341.5125 162.5307 332.2350 C161.2753 322.9550 167.8050 314.4225 177.0905 313.2100 Z"></path>
<path id="" fill="#000000" fill-opacity="1.0" stroke="#000000" stroke-width="0.0" stroke-opacity="1.0" stroke-linecap="round" stroke-linejoin="round"  filling="0" d="M178.5932 131.0753 C187.8887 130.6915 195.7455 137.8950 196.1678 147.1890 C196.5898 156.4830 189.4187 164.3695 180.1265 164.8300 C170.7800 165.2932 162.8372 158.0708 162.4128 148.7225 C161.9880 139.3740 169.2430 131.4612 178.5932 131.0753 Z"></path>
</svg>