<svg xmlns="http://www.w3.org/2000/svg" viewBox="0 0 512 512" height="512.0px" width="512.0px">
<path id="" fill="#ffffff" fill-opacity="0.027451" stroke="#000000" stroke-width="0.0" stroke-opacity="1.0" stroke-linecap="round" stroke-linejoin="round"  filling="0" d="M0.6766 0.0000 L511.3225 0.0000 C508.2025 0.6650 504.4600 0.3195 501.2650 0.3163 L484.2875 0.2973 L415.9925 0.2969 L147.6600 0.2999 L40.7298 0.2926 L15.1412 0.3109 C10.7615 0.3248 4.9184 0.8886 0.6766 0.0000 Z"></path>
<path id="" fill="#ffffff" fill-opacity="0.0196078" stroke="#000000" stroke-width="0.0" stroke-opacity="1.0" stroke-linecap="round" stroke-linejoin="round"  filling="0" d="M1.3091 512.0000 C3.3875 511.2775 25.6402 511.7425 29.6990 511.7425 L108.8480 511.7450 L408.0800 511.7525 L481.9375 511.7525 L501.0200 511.7350 C504.2850 511.7300 508.1175 511.3450 511.2925 512.0000 L1.3091 512.0000 Z"></path>
<path id="" fill="#ffffff" fill-opacity="0.027451" stroke="#000000" stroke-width="0.0" stroke-opacity="1.0" stroke-linecap="round" stroke-linejoin="round"  filling="0" d="M0.0000 0.9172 C0.7097 3.9909 0.2566 8.0218 0.2535 11.1965 L0.2509 30.6735 L0.2530 111.2188 L0.2531 439.7300 L0.2509 490.8325 C0.2507 494.5500 0.7518 508.0600 0.0000 510.5825 L0.0000 0.9172 Z"></path>
<path id="" fill="#fecc4d" fill-opacity="1.0" stroke="#000000" stroke-width="0.0" stroke-opacity="1.0" stroke-linecap="round" stroke-linejoin="round"  filling="0" d="M436.9200 51.0970 C439.0825 50.7695 441.8275 50.8370 443.9500 51.3830 C446.7375 52.1005 448.7125 53.7878 450.1675 56.2395 C452.7475 60.5845 454.1025 66.3645 455.0775 71.3020 C461.6975 104.8630 451.6350 149.9442 443.0750 182.9473 C441.6675 188.3740 439.3475 193.5533 438.0175 198.9837 L437.9275 199.3655 C438.9050 202.4088 440.7650 205.2693 442.0950 208.1750 C444.1800 212.7233 445.8000 217.5495 447.3450 222.3015 C452.2675 237.4427 454.7825 253.3325 456.7300 269.0900 C457.7325 277.2075 458.6900 285.4900 458.9900 293.6700 C459.1550 298.0900 459.0575 302.5450 459.0475 306.9675 C459.0275 315.2450 457.9850 323.7275 456.6250 331.8900 C451.9475 359.9350 443.6275 368.2375 424.1350 387.6100 C415.6625 396.0300 406.3475 404.6900 396.8500 411.9275 C366.4975 435.0575 329.3775 449.0725 292.1450 456.2625 C283.3075 457.9700 274.7525 459.5625 265.7675 460.3850 C262.9125 460.6450 260.0350 460.9825 257.1675 460.9600 C245.1313 460.8700 229.7003 458.2500 217.8475 455.8925 C194.2328 451.4000 171.3163 443.8025 149.6958 433.2975 C147.3410 432.1275 145.0903 430.7425 142.7740 429.5000 C135.6260 425.6625 128.7745 421.7275 122.1283 417.0550 C110.5430 408.9075 99.7595 399.3600 89.8075 389.3150 C80.7150 380.2625 68.9330 369.3850 63.0085 357.9925 C60.4480 353.0700 58.8350 347.4275 57.4800 342.0550 C54.9492 332.0200 53.4912 321.2250 53.0400 310.8900 C51.9723 286.4350 56.5128 252.0925 62.8710 228.4270 C64.7997 221.2485 67.2363 213.8882 70.0967 207.0290 C70.9170 205.0618 73.9012 200.9722 73.9117 199.1370 C73.9265 196.6008 71.2145 190.1750 70.4092 187.3353 C68.1485 179.3955 66.0397 171.4133 64.0845 163.3930 C59.7467 145.5573 55.9385 122.6873 55.0428 104.3142 C54.3980 91.0895 55.1527 62.4505 64.2552 52.3400 C67.0365 51.4902 70.2835 51.1172 73.1868 51.1900 C77.4585 51.2975 81.8825 52.4050 86.0218 53.4305 C109.7387 59.3067 136.7973 72.3163 157.9368 84.7507 C164.0185 88.3280 170.9930 92.1387 175.8915 97.2863 C181.5103 95.2225 187.6090 94.1082 193.4633 92.9498 C198.8862 91.8767 204.2860 90.7832 209.7502 89.9377 C221.2993 88.1510 232.6255 86.6772 244.2880 85.8390 C247.9093 85.5788 251.4825 85.0715 255.1225 85.0153 C259.9925 84.9400 264.7800 85.4985 269.6250 85.8670 C290.5600 87.4590 314.7575 90.9975 334.7675 97.1175 C337.7325 95.9417 340.5525 93.3582 343.1725 91.5342 C346.4525 89.2105 349.8400 87.0392 353.3225 85.0277 C371.7000 74.2560 391.0350 65.2055 411.0775 57.9915 C419.3650 55.0098 428.1125 52.0060 436.9200 51.0970 Z"></path>
<path id="" fill="#ffcc4d" fill-opacity="1.0" stroke="#000000" stroke-width="0.0" stroke-opacity="1.0" stroke-linecap="round" stroke-linejoin="round"  filling="0" d="M424.6925 81.0997 C426.7075 80.8395 429.1500 80.7452 431.1750 80.9167 C433.3675 81.1028 435.5800 81.7043 436.9925 83.5115 C440.6850 88.2303 441.2800 104.1053 441.0750 110.4358 C440.9175 115.2337 440.2950 120.1765 439.7450 124.9485 C438.8550 132.6450 432.0025 168.5435 426.8175 172.6570 C425.4050 172.5025 422.8900 166.9917 422.1675 165.5900 C419.8175 161.0370 416.9150 157.3578 413.8175 153.3212 C410.2475 148.6660 407.0775 144.6175 402.9225 140.4235 C402.7525 140.2617 402.6900 140.2155 402.5350 140.0058 C401.9550 139.2173 401.8600 138.4498 401.9075 137.4900 C402.0600 134.3900 403.0825 131.1845 403.6900 128.1378 C404.5475 123.8197 405.2025 119.4463 405.9900 115.1125 C405.1750 113.1418 404.3725 111.3650 402.2950 110.4585 C398.0225 108.5950 387.5850 111.2795 383.2800 112.8483 C380.8350 113.7400 378.5250 115.0730 376.0575 115.8790 C375.2025 116.1588 374.5225 116.3330 373.6925 115.8737 C372.0750 114.9760 370.6575 113.3835 369.2250 112.1978 C368.3300 111.4557 367.2725 110.8915 366.3050 110.2462 C365.9575 110.0147 365.6275 109.7787 365.3325 109.4795 C364.9775 109.1178 364.8350 108.7513 364.7000 108.2643 C364.7900 107.4660 364.9375 106.9713 365.4500 106.3400 C367.4125 103.9325 371.0775 102.1292 373.7575 100.5822 C385.0325 94.0765 396.6725 89.1705 408.9975 85.0730 C414.1775 83.3510 419.2250 81.6557 424.6925 81.0997 Z"></path>
<path id="" fill="#ffcc4d" fill-opacity="1.0" stroke="#000000" stroke-width="0.0" stroke-opacity="1.0" stroke-linecap="round" stroke-linejoin="round"  filling="0" d="M79.4325 81.0240 C83.2480 80.8525 87.0360 80.8832 90.8087 81.5508 C93.9232 82.1015 96.9590 83.0847 99.9845 83.9933 C107.2180 86.1220 114.2920 88.7585 121.1540 91.8832 C123.9585 93.1850 126.6575 94.7120 129.4195 96.1005 C133.8765 98.3410 138.3732 100.4893 142.5575 103.2230 C144.1927 104.2915 147.0323 105.9180 147.4575 107.9475 C146.6770 110.4480 140.0797 114.8325 137.7287 116.3163 C129.1947 113.0705 119.8102 108.2028 110.3842 110.4122 C109.2517 110.6777 108.1663 111.2272 107.5695 112.2672 C106.1718 114.7032 107.2507 124.1758 107.8132 127.1273 C108.3625 130.0092 109.2330 132.8645 110.0013 135.6953 C110.1210 136.2637 110.2560 136.8497 110.2872 137.4310 C110.4410 140.3112 105.6647 143.9360 103.7702 145.9075 C99.2045 150.6588 95.0620 156.7948 91.9035 162.5725 C90.1797 165.7260 88.0620 171.2292 85.7122 173.6810 L85.1508 173.4962 C83.2462 171.2325 79.9528 159.6360 78.9693 156.2652 C75.9658 145.9705 73.5425 135.4245 72.3245 124.7538 C71.9977 121.8907 71.9203 119.0013 71.6990 116.1290 C71.4570 112.9860 70.9590 109.7863 70.9872 106.6328 C71.0208 102.9082 71.6113 99.1955 72.0253 95.4995 C72.4373 91.8225 72.6550 87.5253 74.5430 84.2540 C75.6530 82.3307 77.3483 81.5397 79.4325 81.0240 Z"></path>
<path id="" fill="#f18f26" fill-opacity="1.0" stroke="#000000" stroke-width="0.0" stroke-opacity="1.0" stroke-linecap="round" stroke-linejoin="round"  filling="0" d="M81.0245 81.0723 C91.6170 79.9125 103.5955 84.2060 113.3492 88.0440 C119.3473 90.4043 144.8862 101.3485 147.0098 106.8335 C147.3192 107.6335 147.2903 108.4920 146.9113 109.2637 C146.0078 111.1045 143.9258 112.0680 142.2758 113.1093 C140.9238 113.9625 139.0005 115.8865 137.5157 116.2010 C135.7598 116.5728 133.3477 115.4475 131.6703 114.8822 C124.6168 112.5065 115.8947 109.3743 108.5667 112.0850 L108.1673 112.2347 C107.4707 121.0665 109.9828 129.7070 111.4225 138.3345 C111.2875 138.8880 111.0505 139.3777 110.6902 139.8203 C109.1862 141.6678 107.3457 143.2968 105.7665 145.0918 C100.7753 150.7652 89.7365 163.7855 87.4648 170.5403 C87.1122 171.5890 86.7085 172.6008 85.8932 173.3743 C85.3585 173.4530 85.2567 173.4820 84.7850 173.1543 C81.0738 170.5742 73.9822 137.5300 72.8070 131.3568 C70.5193 119.3400 69.6447 101.5980 72.7755 89.7715 C73.3058 87.7688 73.8913 85.5228 75.1192 83.8215 C76.6732 81.6687 78.5955 81.4420 81.0245 81.0723 Z"></path>
<path id="" fill="#f18f26" fill-opacity="1.0" stroke="#000000" stroke-width="0.0" stroke-opacity="1.0" stroke-linecap="round" stroke-linejoin="round"  filling="0" d="M423.5525 81.0858 C426.4150 80.6335 430.4425 80.6328 433.2325 81.5533 C435.5275 82.3105 436.8450 83.5898 437.8625 85.7527 C440.5425 91.4617 441.0900 99.8123 441.1050 106.1010 C441.1150 109.9940 441.2400 113.9577 440.9725 117.8405 C440.7300 121.3992 440.1175 124.9920 439.5550 128.5128 C437.6750 140.2888 435.0800 150.1107 431.6375 161.4272 C430.6800 164.5830 429.9700 167.9265 428.7650 170.9922 C428.3725 171.9930 427.8850 173.1535 426.8475 173.6140 C425.0200 173.2740 423.1400 168.4662 422.3075 166.8255 C417.8850 158.1183 411.0850 149.9310 404.3250 142.9130 L402.2825 140.8755 C401.8125 140.4025 401.1000 139.7473 400.9350 139.0805 C400.3950 136.8575 403.1900 124.9405 403.5775 121.5497 C403.9300 118.4380 403.9800 115.3522 403.9875 112.2263 C392.5875 108.0510 377.0900 117.6070 373.6650 115.9355 C371.9275 115.0875 365.1825 110.5128 364.7875 108.7400 C364.5600 107.7080 365.0575 106.6565 365.6725 105.8568 C367.9175 102.9362 372.3200 100.9130 375.5075 99.1348 C389.1900 91.5013 407.9075 83.0638 423.5525 81.0858 Z"></path>
<path id="" fill="#292f33" fill-opacity="1.0" stroke="#000000" stroke-width="0.0" stroke-opacity="1.0" stroke-linecap="round" stroke-linejoin="round"  filling="0" d="M322.9075 176.3385 C322.9725 176.3268 323.0375 176.3103 323.1025 176.3035 C327.2650 175.8630 331.5275 177.8215 334.6600 180.4200 C342.5800 186.9913 345.7575 199.8183 346.6600 209.5983 C347.8825 222.8553 346.0025 238.8188 337.1150 249.3737 C333.9125 253.1775 330.3225 255.4325 325.3125 255.8850 C321.6975 256.2075 318.2775 255.1950 315.3550 253.0750 C307.0800 247.0717 303.5475 235.8082 302.1025 226.1658 C300.1200 212.9355 301.8325 195.5665 310.0800 184.5935 C313.3500 180.2433 317.4425 177.0965 322.9075 176.3385 Z"></path>
<path id="" fill="#292f33" fill-opacity="1.0" stroke="#000000" stroke-width="0.0" stroke-opacity="1.0" stroke-linecap="round" stroke-linejoin="round"  filling="0" d="M186.3130 176.3172 C190.0723 175.8678 193.8783 177.2645 196.8548 179.5095 C205.3510 185.9170 208.6028 197.5875 209.9815 207.6407 C211.8698 221.4082 209.5547 237.8783 200.9158 249.1175 C198.0825 252.8025 194.3550 255.2125 189.7027 255.8025 C185.7888 256.1725 182.3080 255.4650 179.0570 253.1950 C171.2430 247.7390 167.5725 237.4258 165.9843 228.4545 C163.4978 214.4120 164.9828 196.5400 173.3842 184.6593 C176.5755 180.1465 180.8550 177.2637 186.3130 176.3172 Z"></path>
<path id="" fill="#292f33" fill-opacity="1.0" stroke="#000000" stroke-width="0.0" stroke-opacity="1.0" stroke-linecap="round" stroke-linejoin="round"  filling="0" d="M377.6025 119.3305 C380.2150 118.9075 383.4625 119.2762 385.8500 120.3698 C388.7750 121.7095 391.0225 124.3138 392.0575 127.3455 C393.0875 130.2770 392.8500 133.5058 391.4000 136.2540 C390.3000 138.3165 388.6275 140.2088 386.4275 141.0847 C381.9950 142.8480 376.6850 142.6315 371.9975 143.4410 C362.5775 145.0677 353.1525 148.1745 344.4975 152.2122 C335.9125 156.2088 327.7075 160.9707 319.9775 166.4410 C315.7000 169.4960 311.5600 172.7355 307.5625 176.1500 C303.2925 179.8285 299.1950 185.6130 293.6600 187.4050 C290.8850 188.1472 287.3900 188.1065 284.8225 186.7397 C280.8325 184.6140 279.4325 180.7943 278.1100 176.7928 C278.9425 173.5647 279.7275 170.8330 281.7575 168.1160 C283.6150 165.6275 285.9750 163.9210 288.2900 161.9097 C291.0575 159.5040 293.7275 157.0590 296.6025 154.7717 C316.3075 139.1000 338.7650 127.0807 363.4800 121.6462 C368.1525 120.6190 372.8700 119.9885 377.6025 119.3305 Z"></path>
<path id="" fill="#292f33" fill-opacity="1.0" stroke="#000000" stroke-width="0.0" stroke-opacity="1.0" stroke-linecap="round" stroke-linejoin="round"  filling="0" d="M131.5143 119.0945 C134.9225 119.2242 138.3495 119.8900 141.7100 120.4478 C164.0765 124.1598 185.7693 133.5703 204.3302 146.4982 C209.7802 150.3445 215.0555 154.4325 220.1405 158.7500 C222.3460 160.6345 224.4020 162.6797 226.6113 164.5668 C230.1142 167.5587 233.1142 171.3378 233.3910 176.1455 C233.5757 179.3542 232.1300 182.3300 229.9577 184.6180 C227.5035 187.2030 224.8760 187.7543 221.4515 187.8100 C219.0773 187.7815 217.2207 187.0332 215.2630 185.7383 C210.7012 182.7205 207.2990 178.3047 203.1675 174.7787 C195.0242 167.9677 186.2343 161.9695 176.9232 156.8695 C164.2740 149.8922 149.3717 144.1355 134.9200 142.7773 C131.1848 142.4260 126.9460 142.2785 123.7935 139.9852 C121.3177 138.1842 119.5602 135.2015 119.2128 132.1560 C118.8717 129.1857 119.7298 126.2020 121.5970 123.8668 C124.2783 120.5165 127.4710 119.6015 131.5143 119.0945 Z"></path>
<path id="" fill="#e75a6f" fill-opacity="1.0" stroke="#000000" stroke-width="0.0" stroke-opacity="1.0" stroke-linecap="round" stroke-linejoin="round"  filling="0" d="M242.4207 273.1025 C245.7610 272.7425 249.3390 272.9550 252.7025 272.9500 C261.7725 272.9400 270.9300 272.5525 279.8350 274.6175 C283.3475 275.4325 286.9750 276.7425 288.8975 280.0375 C290.9400 283.5425 290.5000 291.2225 289.4700 295.1575 C286.6725 305.8525 277.1425 315.7925 267.8050 321.2325 C265.1450 322.6000 262.6250 323.7875 259.6150 324.1150 C250.7275 325.0800 244.0965 322.1050 237.2795 316.5275 C230.6135 311.0725 222.7572 300.6175 221.9698 291.7650 C221.5907 287.5050 221.1393 282.1850 224.1125 278.7350 C228.0395 274.1750 236.7540 273.6175 242.4207 273.1025 Z"></path>
<path id="" fill="#292f33" fill-opacity="1.0" stroke="#000000" stroke-width="0.0" stroke-opacity="1.0" stroke-linecap="round" stroke-linejoin="round"  filling="0" d="M335.7175 341.0450 C337.2325 341.1875 338.5675 341.6425 339.7000 342.6900 C340.8475 343.7550 341.4575 345.1800 341.4650 346.7450 C341.4875 351.6725 334.7300 362.3175 331.7725 366.2025 C330.1550 368.3175 328.3750 370.2975 326.4450 372.1325 C319.3225 379.0250 310.7750 383.5025 301.1325 385.7150 C294.6850 387.1925 288.0400 386.9650 281.4675 386.9675 L264.1025 386.9675 C246.3970 386.9675 228.6675 387.1700 210.9648 386.9400 C208.9368 386.7700 207.2030 386.5950 205.8423 384.8875 C204.8147 383.5975 204.5405 381.7850 204.8230 380.1950 C205.2357 377.8700 206.5885 376.6125 208.4590 375.3375 C213.4805 374.7325 218.6740 375.2025 223.7275 374.9925 C226.6152 374.8750 229.4848 374.4300 232.3695 374.2550 C235.0753 374.0925 237.7908 374.1100 240.4953 373.9325 C253.8025 373.0700 271.9150 370.9175 284.2250 365.9375 C289.0625 363.9800 293.7200 361.4550 298.3825 359.1175 L322.1775 347.2075 C326.6000 345.0300 330.9250 342.3150 335.7175 341.0450 Z"></path>
<path id="" fill="#fee6b7" fill-opacity="1.0" stroke="#000000" stroke-width="0.0" stroke-opacity="1.0" stroke-linecap="round" stroke-linejoin="round"  filling="0" d="M143.5030 296.1475 C148.5320 295.5625 153.9693 295.9475 159.0450 295.9350 C164.3768 295.9200 170.1815 295.4050 175.4290 296.1450 C176.8305 296.3425 178.1005 296.7375 179.2160 297.6400 C180.2835 298.5050 180.9745 299.6525 181.0690 301.0375 C181.1738 302.5775 180.5802 304.1675 179.5428 305.3000 C178.4950 306.4450 177.0955 307.0125 175.5530 307.0125 C173.1378 307.0100 168.8475 305.8975 167.1452 304.1975 C167.0735 304.1250 167.0038 304.0525 166.9330 303.9800 C160.0795 306.2225 156.8492 305.8200 150.0010 306.2850 C145.8398 306.5675 141.6557 307.0400 137.5072 307.4850 C117.6195 309.6225 100.6772 314.5500 82.3850 322.5150 C79.4782 323.7525 76.6602 325.1900 73.9510 326.8150 C70.3085 328.9550 62.4085 334.4200 58.6380 335.2800 C58.0260 335.4200 57.4572 335.3325 56.9427 334.9500 C55.5765 333.9350 55.0912 331.4775 54.8867 329.8625 C54.7363 328.6725 54.5790 327.1900 55.4065 326.2000 C56.9498 324.3525 63.5370 320.8350 65.8400 319.4850 C84.8723 308.3200 106.0543 301.4075 127.8285 298.0075 C133.0202 297.1975 138.2810 296.7300 143.5030 296.1475 Z"></path>
<path id="" fill="#fee6b7" fill-opacity="1.0" stroke="#000000" stroke-width="0.0" stroke-opacity="1.0" stroke-linecap="round" stroke-linejoin="round"  filling="0" d="M335.2875 296.0100 C340.3350 295.7500 345.4725 295.9350 350.5325 295.9350 C355.8875 295.9325 361.3400 295.7425 366.6850 296.0450 C387.5825 297.3825 408.1200 302.1325 427.4800 310.1100 C433.3050 312.4650 442.8600 316.7025 447.7475 320.3350 C448.8100 321.1250 449.7850 322.0825 449.9550 323.4575 C450.1750 325.2275 448.4425 329.6750 447.3750 331.1225 C446.5800 331.4375 446.0075 331.1800 445.2350 330.9425 C442.1225 329.4500 439.2025 327.4525 436.1550 325.8175 C432.0575 323.6175 427.6875 321.7225 423.4300 319.8450 C405.3175 311.8650 380.0650 307.0850 360.3150 306.0900 C354.6800 305.8050 348.7000 305.8125 343.0725 306.1550 C340.4875 306.3125 337.4250 307.2225 334.8875 306.9050 C333.7000 306.7575 332.5950 306.2400 331.8550 305.2775 C330.3700 303.3475 330.8425 300.8525 331.1800 298.6375 C332.4300 297.4075 333.6550 296.6525 335.2875 296.0100 Z"></path>
<path id="" fill="#fee6b7" fill-opacity="1.0" stroke="#000000" stroke-width="0.0" stroke-opacity="1.0" stroke-linecap="round" stroke-linejoin="round"  filling="0" d="M84.5137 263.1475 C89.0757 262.6125 93.9920 262.9400 98.5880 262.9475 C103.9467 262.9550 109.3955 262.7400 114.7437 263.0325 C122.1355 263.4350 159.6890 268.5375 163.9852 273.6975 C164.8398 274.7225 165.2057 276.1325 165.0570 277.4500 C164.8830 278.9900 164.0325 280.1925 162.7968 281.0800 C162.0237 281.6350 161.0058 282.1600 160.0293 282.1575 C157.3460 282.1500 151.3180 279.8975 148.3870 279.1425 C143.6163 277.8900 138.7957 276.8325 133.9377 275.9750 C111.6855 272.5475 95.4315 272.0925 73.0270 275.1725 C70.0432 275.5825 67.1137 276.1025 64.1633 276.7100 C61.9470 277.1675 59.5383 277.9275 57.2795 277.9550 C56.0860 277.9700 54.8878 277.7825 53.8602 277.1400 C52.6850 276.4075 51.7050 274.8375 51.4950 273.4750 C51.3280 272.3900 51.6735 271.2850 52.3667 270.4425 C56.2563 265.7125 77.7685 263.9125 84.5137 263.1475 Z"></path>
<path id="" fill="#fee6b7" fill-opacity="1.0" stroke="#000000" stroke-width="0.0" stroke-opacity="1.0" stroke-linecap="round" stroke-linejoin="round"  filling="0" d="M395.5150 263.1475 C395.8425 263.1100 396.1650 263.0750 396.4950 263.0550 C401.1525 262.7775 405.9000 262.9400 410.5675 262.9375 C415.7550 262.9350 421.0000 262.7875 426.1825 263.0225 C429.2550 263.1625 444.4250 264.4275 446.0775 266.0725 C448.0875 268.0725 448.2100 273.5950 448.2975 276.2850 C438.8850 275.5550 429.5775 273.8475 420.1425 273.1325 C411.8875 272.5075 403.2750 273.0550 395.0625 273.9675 C384.6475 274.6900 374.3200 276.3600 364.2100 278.9525 C361.0125 279.7525 357.8925 280.8275 354.7050 281.6400 C352.6825 282.1575 350.5875 282.1900 348.7650 281.0400 C347.6525 280.3400 346.8650 279.2725 346.6275 277.9700 C346.3700 276.5700 346.8100 275.0625 347.6875 273.9550 C350.0225 271.0025 355.5450 270.3500 359.0200 269.4625 C371.2350 266.3450 383.0175 264.5775 395.5150 263.1475 Z"></path>
</svg>