<svg xmlns="http://www.w3.org/2000/svg" viewBox="0 0 512 512" height="512.0px" width="512.0px">
<path id="" fill="#31373d" fill-opacity="1.0" stroke="#000000" stroke-width="0.0" stroke-opacity="1.0" stroke-linecap="round" stroke-linejoin="round"  filling="0" d="M94.4145 142.1060 C94.4785 142.0985 94.5420 142.0885 94.6062 142.0838 C101.2767 141.5923 108.2195 141.9933 114.9265 141.9982 L154.3407 142.0120 L278.1525 142.0058 L371.5775 142.0058 L399.5850 142.0005 C406.3450 142.0005 413.1700 141.7533 419.8900 142.5860 C429.7775 143.8115 439.3875 147.6348 446.9575 154.1840 C455.8850 161.9090 459.9025 172.6922 460.7375 184.2838 C461.1150 189.5630 460.9250 194.9138 460.9225 200.2052 L460.9000 226.6422 L460.8900 306.1250 L460.9025 363.5025 C460.9175 374.2975 461.6325 387.1400 460.2175 397.6950 C459.0050 406.7425 455.9250 416.5225 449.8025 423.5175 C441.6550 432.8250 430.4600 437.0725 418.3125 437.9075 C412.0175 438.4700 405.0875 438.0625 398.7400 438.0600 L361.7500 438.0450 L245.5615 438.0475 L142.1797 438.0450 L111.0525 438.0550 C104.7968 438.0550 98.3545 438.3825 92.1345 437.6925 C83.1650 436.6975 72.7913 433.0300 65.8210 427.1600 C56.6353 419.4250 52.3898 407.6125 51.4265 395.9575 C50.9785 390.5350 51.1695 385.0600 51.1833 379.6225 L51.2035 355.4125 L51.1930 275.9850 L51.1855 214.2705 L51.1865 196.3282 C51.1888 191.3922 51.0630 186.4510 51.7388 181.5485 C52.9410 172.8255 56.3208 163.9588 62.0835 157.2115 C70.1947 147.7142 82.1432 143.0235 94.4145 142.1060 Z"></path>
<path id="" fill="#cbd5dc" fill-opacity="1.0" stroke="#000000" stroke-width="0.0" stroke-opacity="1.0" stroke-linecap="round" stroke-linejoin="round"  filling="0" d="M282.0825 176.3640 C344.8450 171.9642 399.3125 219.2238 403.8075 281.9800 C408.3025 344.7350 361.1275 399.2750 298.3775 403.8650 C235.4953 408.4650 180.8118 361.1650 176.3067 298.2750 C171.8020 235.3848 219.1855 180.7733 282.0825 176.3640 Z M295.1250 380.8200 C345.1400 378.0750 383.4975 335.3625 380.8700 285.3400 C378.2450 235.3177 335.6250 196.8587 285.5950 199.3660 C235.3980 201.8817 196.7805 244.6767 199.4160 294.8700 C202.0515 345.0600 244.9385 383.5750 295.1250 380.8200 Z"></path>
<path id="" fill="#feab33" fill-opacity="1.0" stroke="#000000" stroke-width="0.0" stroke-opacity="1.0" stroke-linecap="round" stroke-linejoin="round"  filling="0" d="M153.8183 75.3625 C156.1785 76.9825 158.2787 79.5943 160.1430 81.7632 C162.7612 84.8100 165.1250 88.0892 167.6263 91.2347 L183.3522 110.9030 L193.2850 123.2498 C195.3277 125.7750 197.5862 128.2040 199.2767 130.9815 L199.5840 130.8585 C210.6710 126.4620 222.3125 123.0635 233.6280 119.2840 L251.3775 113.3863 C255.2525 112.0720 259.1425 110.5713 263.0850 109.4798 C263.9800 109.2322 265.2475 108.8150 266.0975 109.1812 C266.2150 110.3083 265.6550 111.4337 265.2075 112.4440 C261.4425 120.8978 256.8175 128.9973 252.8350 137.3522 L239.9913 163.7672 C237.9485 167.8780 236.0148 172.5842 233.4557 176.3748 C238.8273 180.0312 243.5598 184.2668 248.5720 188.3743 C252.8425 191.8730 257.2875 195.1992 261.6000 198.6565 L278.1725 211.9017 C281.2450 214.3457 284.4875 216.6855 287.4050 219.3127 C288.3400 220.1540 289.0350 221.0725 289.7225 222.1163 C284.8675 223.6510 279.3750 224.1113 274.3450 224.9055 L251.8850 228.5533 C242.2798 230.0638 231.9020 232.5148 222.2790 233.1133 C222.8333 240.2422 224.0780 247.2865 224.9453 254.3800 L230.4523 299.2400 C231.2168 305.2325 232.3435 311.2575 232.8342 317.2750 C232.9530 318.7325 233.4547 322.0075 232.5870 323.1975 C229.9467 322.4825 207.2657 303.2375 203.7605 300.2200 C200.9978 297.8400 198.4097 295.2650 195.6115 292.9250 C191.2615 289.2875 186.6595 285.9975 182.3443 282.3050 C176.2990 277.7600 170.6582 272.4750 164.8717 267.6050 C159.9430 270.4975 154.6895 272.9675 149.5777 275.5200 L126.0370 287.2650 L108.1722 296.2150 C105.1443 297.7450 102.0565 299.5975 98.9187 300.8575 C98.3410 301.0875 97.7592 301.1575 97.1803 300.9000 C96.7545 299.8400 97.7238 297.1550 98.0590 296.0550 C100.3360 288.5800 103.2623 281.3050 105.7007 273.8825 L112.5050 253.3775 C114.6345 246.7505 116.6220 240.1075 119.0078 233.5607 L74.0060 233.5955 L58.4323 233.5903 C56.5072 233.5927 54.5502 233.7538 52.6325 233.6885 C51.9480 233.6653 51.6475 233.6980 51.0505 233.3423 C51.3385 232.6808 51.8412 232.2440 52.3898 231.7932 C54.6183 229.9608 57.0318 228.3430 59.2770 226.5213 C75.4398 213.3760 91.7282 200.3865 108.1407 187.5547 C103.0342 180.9960 98.7140 173.8022 94.1265 166.8732 C87.6390 157.0745 81.0067 147.3905 74.6340 137.5143 C72.4200 134.0912 70.1625 130.6967 67.8618 127.3318 C66.6255 125.5005 65.1170 123.5770 64.1673 121.5912 C63.8698 120.9685 63.8177 120.7015 64.0555 120.0610 C65.8077 119.4685 123.9280 129.6042 130.5075 131.0455 C135.5875 119.8260 140.0298 107.4423 144.6217 95.9398 C146.5945 90.9983 150.7973 78.6617 153.8183 75.3625 Z"></path>
<path id="" fill="#3a87c2" fill-opacity="1.0" stroke="#000000" stroke-width="0.0" stroke-opacity="1.0" stroke-linecap="round" stroke-linejoin="round"  filling="0" d="M287.4750 233.1333 C318.9825 231.6565 345.7100 256.0300 347.1350 287.5400 C348.5600 319.0525 324.1425 345.7400 292.6300 347.1125 C261.1900 348.4825 234.5773 324.1350 233.1552 292.6975 C231.7332 261.2575 256.0375 234.6068 287.4750 233.1333 Z"></path>
<path id="" fill="#fffefe" fill-opacity="1.0" stroke="#000000" stroke-width="0.0" stroke-opacity="1.0" stroke-linecap="round" stroke-linejoin="round"  filling="0" d="M164.8358 120.5793 C164.9310 120.5992 165.0275 120.6137 165.1215 120.6393 C165.9585 120.8670 166.5640 121.6560 167.0840 122.3080 C171.7375 128.1438 175.5820 134.9048 179.6980 141.1450 C182.3513 145.1678 185.6402 149.1585 187.8100 153.4425 C192.6857 151.9642 215.1275 143.8172 217.9247 143.9095 C218.5160 143.9292 218.5530 143.9170 218.9830 144.3520 C219.1370 145.3242 219.0185 146.3200 218.6407 147.2290 C217.5773 149.7242 215.6478 152.1400 214.1345 154.3963 L205.3705 167.4445 C203.4062 170.3695 201.1905 173.3220 199.6723 176.5052 L199.5045 176.8618 C206.2965 183.8633 213.2950 190.6812 220.1990 197.5730 C223.4023 200.7705 226.9145 203.9010 229.8288 207.3497 C230.6868 208.3650 231.3817 209.4948 231.2630 210.8595 C229.7375 213.0520 204.7433 219.3618 199.9408 222.1562 C199.8607 222.2030 199.7825 222.2525 199.7032 222.3008 C200.3605 230.4960 210.5318 260.2225 208.9350 265.1325 L208.5330 265.2600 C207.6730 265.0900 206.8983 264.8075 206.1458 264.3475 C203.0825 262.4775 200.1255 259.8200 197.2388 257.6500 L176.7565 242.3033 C172.8528 239.3300 168.9787 236.3013 164.9245 233.5340 C159.4910 235.9775 135.8992 254.4050 132.3380 254.0700 C130.8490 251.7125 140.5025 227.0310 141.4595 222.2012 L141.5435 221.7672 C136.9120 220.1355 113.6573 213.2130 111.5378 211.1230 C111.0453 210.6373 110.9362 210.2860 110.8692 209.6155 C111.0723 208.7395 111.4495 208.3410 112.1198 207.7525 C114.7940 205.4057 118.1263 203.5395 121.0935 201.5688 C127.9800 196.9955 135.0468 192.5730 141.7645 187.7598 C138.8568 184.0957 135.4328 180.8898 132.1288 177.5890 L118.3683 163.8645 C115.8947 161.3980 112.8700 158.8683 110.7840 156.0802 C110.2380 155.3505 109.8152 154.5558 109.7975 153.6305 C110.8160 152.8127 148.8143 153.1565 153.8297 153.1995 C154.3430 148.8580 162.7428 124.2077 164.8358 120.5793 Z"></path>
<path id="" fill="#fefefe" fill-opacity="1.0" stroke="#000000" stroke-width="0.0" stroke-opacity="1.0" stroke-linecap="round" stroke-linejoin="round"  filling="0" d="M418.5500 165.0170 C427.9050 163.6700 436.5950 170.1322 437.9950 179.4810 C439.3975 188.8300 432.9850 197.5558 423.6450 199.0115 C414.2275 200.4795 405.4150 194.0033 404.0000 184.5773 C402.5875 175.1512 409.1150 166.3752 418.5500 165.0170 Z"></path>
</svg>