<svg xmlns="http://www.w3.org/2000/svg" viewBox="0 0 512 512" height="512.0px" width="512.0px">
<path id="" fill="#77b255" fill-opacity="1.0" stroke="#000000" stroke-width="0.0" stroke-opacity="1.0" stroke-linecap="round" stroke-linejoin="round"  filling="0" d="M341.9375 54.0363 C343.5175 53.9405 345.0675 53.9405 346.5825 54.4713 C356.0450 57.7890 362.1525 78.8773 364.0550 87.8805 C364.6150 90.5315 364.6450 95.4005 365.8600 97.6237 C366.0550 97.9782 366.3425 98.0567 366.7275 98.1462 C367.3800 98.2972 367.9050 98.2190 368.3850 97.7395 C370.3025 95.8300 371.7900 93.1487 373.6325 91.0883 C377.0275 87.2870 383.7425 82.0015 387.9850 79.1135 C403.7600 68.3725 429.6175 58.5265 448.8875 57.9665 C451.5425 57.8895 454.2525 57.8315 456.8675 58.3338 C457.3800 58.7533 457.8475 59.1965 458.2675 59.7135 C459.9950 61.8495 459.8700 64.8235 459.6075 67.4025 C457.0400 92.4665 444.4400 121.4778 426.9000 139.7133 C424.0225 142.7025 420.4950 145.2693 417.2850 147.8943 C417.5025 148.5977 417.6775 149.3183 417.8700 150.0295 C430.3200 151.5620 447.1025 155.2283 456.9425 163.2525 C458.4900 164.8510 460.0050 166.3842 460.6600 168.5807 C461.3525 170.9028 460.7925 173.3513 459.5950 175.4048 C458.0300 178.0892 455.4200 180.4673 452.8925 182.2355 C442.3225 189.6333 414.5300 200.3240 401.4925 203.8678 C393.4600 206.0513 385.0250 207.5723 376.6900 207.7968 C363.6225 208.1487 347.2025 204.6825 335.8275 198.0988 C322.6150 190.4525 313.7500 178.1348 309.9475 163.4575 C305.7800 147.3665 306.7550 129.2650 310.8800 113.2405 C312.6575 106.3347 315.1350 99.6185 317.6000 92.9350 C320.9725 83.7880 324.7875 74.4005 329.7500 65.9918 C332.6325 61.1080 336.1150 55.5435 341.9375 54.0363 Z"></path>
<path id="" fill="#f3900c" fill-opacity="1.0" stroke="#000000" stroke-width="0.0" stroke-opacity="1.0" stroke-linecap="round" stroke-linejoin="round"  filling="0" d="M308.6325 122.6212 C310.0050 122.4682 311.6375 122.8142 313.0325 122.9000 C321.2975 123.4077 328.1825 124.9455 335.7275 128.3943 C355.0725 137.2348 375.5650 158.3517 382.8550 178.3427 C385.7850 186.3800 387.3575 195.2287 386.8900 203.8042 C386.3775 213.1650 382.0025 227.1740 378.0300 235.7475 C366.5800 260.4600 349.1750 281.6200 331.0225 301.6575 C329.2100 303.6550 327.5400 305.7775 325.7025 307.7525 C322.0025 311.7275 318.0375 315.5000 314.1950 319.3375 C310.3900 323.1425 306.6450 327.0850 302.7000 330.7400 C261.9300 368.0725 216.2485 399.6525 166.9220 424.6050 C150.9942 432.8200 134.5950 440.0875 117.8100 446.3700 C103.2542 451.5750 88.0665 456.7825 72.5355 457.9200 C67.0383 458.3225 59.8245 458.2525 55.4557 454.3100 C52.1387 451.3175 51.3692 446.3100 51.1650 442.0675 C50.6290 430.9225 54.2188 417.6350 57.4552 406.9900 C62.0703 391.8100 68.0670 377.1325 74.6335 362.6975 C93.0375 323.0350 115.5153 285.3950 141.7043 250.3825 C150.8260 238.1487 160.4908 226.3302 170.6695 214.9615 C172.8490 212.5332 175.2798 210.3392 177.4848 207.9337 C179.3822 205.8635 181.1322 203.6602 183.0388 201.5975 C187.0630 197.2433 191.4068 192.9182 195.7722 188.9048 C197.9500 186.9025 200.2765 185.0627 202.4320 183.0372 C204.8440 180.7708 207.0867 178.3262 209.5282 176.0895 C229.6732 157.6337 256.8750 136.3463 282.7925 127.4835 C291.2300 124.5977 299.7200 122.9770 308.6325 122.6212 Z"></path>
<path id="" fill="#d67503" fill-opacity="1.0" stroke="#000000" stroke-width="0.0" stroke-opacity="1.0" stroke-linecap="round" stroke-linejoin="round"  filling="0" d="M157.1195 231.6333 C157.5802 231.6483 157.9693 231.7023 158.3777 231.9388 C159.0490 232.3273 159.6405 233.3058 160.0415 233.9420 C161.1967 235.7753 162.0875 237.8062 163.1475 239.6987 C164.9243 242.8715 166.9677 245.9993 168.8975 249.0883 C178.5210 264.5500 189.3700 279.2125 201.3398 292.9375 C203.9393 295.9700 206.5065 298.9300 209.3390 301.7500 C211.8418 304.2450 214.7130 306.6525 216.9390 309.3875 C217.6575 310.2700 218.1635 310.9975 218.3817 312.1225 C218.2133 312.7200 218.1875 312.9575 217.5448 313.2125 C214.1422 314.5600 204.7448 310.4225 201.3585 309.0250 C178.2745 300.1225 157.3440 284.6125 140.2843 266.8750 C138.6420 265.1700 135.6068 262.0150 135.8090 259.4900 C136.0488 256.5025 144.1220 247.4300 146.1138 244.8715 C149.4442 240.5927 152.7650 234.9212 157.1195 231.6333 Z"></path>
<path id="" fill="#d67503" fill-opacity="1.0" stroke="#000000" stroke-width="0.0" stroke-opacity="1.0" stroke-linecap="round" stroke-linejoin="round"  filling="0" d="M247.2578 247.6795 C247.3050 247.6850 247.3522 247.6910 247.3995 247.6960 C247.9150 247.7495 248.4535 247.7953 248.9335 248.0058 C251.7100 249.2238 254.9525 253.4625 257.3150 255.5700 C263.7075 261.2750 269.9925 267.1350 276.6300 272.5600 C286.6750 280.6525 297.1450 288.2100 307.9925 295.1950 C313.2675 298.5400 318.9100 301.3925 324.0525 304.9350 C324.8600 305.4925 325.2100 305.8000 325.3950 306.7875 C324.4375 310.3325 316.6450 316.9700 313.8350 319.7575 C309.9500 323.6575 306.1200 328.0200 301.8325 331.4500 C301.5450 331.3600 301.2625 331.2600 300.9850 331.1525 C297.9625 329.9650 295.6775 327.1975 293.2850 325.0900 C275.9400 309.8125 261.4300 287.7450 252.3275 266.5400 C250.8300 263.0500 245.9142 251.0525 247.2578 247.6795 Z"></path>
<path id="" fill="#d67503" fill-opacity="1.0" stroke="#000000" stroke-width="0.0" stroke-opacity="1.0" stroke-linecap="round" stroke-linejoin="round"  filling="0" d="M249.6410 144.7400 C251.5275 144.9435 253.8700 150.0193 254.8800 151.7222 C266.2000 170.8095 279.7825 188.2370 294.4850 204.8145 C297.6650 208.4028 301.4825 211.4250 304.6125 215.0605 C305.5350 216.1310 306.4275 217.0205 306.3075 218.5282 C306.1025 218.8315 306.0900 218.9753 305.7150 219.0972 C302.1050 220.2702 289.9525 214.9165 285.9225 213.2705 C282.6650 211.9615 279.4975 210.3978 276.3825 208.7798 C258.7300 199.6090 240.1805 186.6308 227.2417 171.4447 C225.8335 169.7920 223.4662 167.5540 222.8073 165.4670 C224.3842 162.5785 246.5110 146.1812 249.6410 144.7400 Z"></path>
<path id="" fill="#d67503" fill-opacity="1.0" stroke="#000000" stroke-width="0.0" stroke-opacity="1.0" stroke-linecap="round" stroke-linejoin="round"  filling="0" d="M142.2425 341.6500 C143.2643 341.7375 143.9955 341.9075 144.8553 342.4850 C147.4470 344.2300 149.7355 347.2000 152.0155 349.3850 C154.1458 351.4275 156.4828 353.2450 158.6687 355.2275 C168.5925 364.2250 179.1055 372.8700 190.2088 380.3875 C194.9942 383.6275 199.7973 386.8975 204.6922 389.9700 C206.8225 391.3050 212.4540 394.1850 214.0208 395.7625 C214.4588 396.2050 214.3987 396.3575 214.3565 396.9250 C212.7238 399.7775 206.5130 402.6600 203.5827 404.4925 L203.3850 404.6125 C201.2095 405.9450 185.6920 415.5850 183.9937 415.0225 C181.4965 414.2000 179.1920 410.3550 177.5177 408.3750 C166.5235 395.3625 157.1373 382.2375 149.8205 366.7875 C147.3765 361.6300 140.4182 346.7675 142.2425 341.6500 Z"></path>
</svg>