<svg xmlns="http://www.w3.org/2000/svg" viewBox="0 0 512 512" height="512.0px" width="512.0px">
<path id="" fill="#55acee" fill-opacity="1.0" stroke="#000000" stroke-width="0.0" stroke-opacity="1.0" stroke-linecap="round" stroke-linejoin="round"  filling="0" d="M77.2097 80.0632 C81.4595 79.7988 85.7245 80.2003 89.8503 81.2535 C98.3918 83.4620 106.6315 87.8135 114.2750 92.1120 C127.8587 99.5885 140.7487 108.2610 152.7923 118.0267 C161.2490 124.7765 168.6605 131.5497 176.5697 138.8833 C178.4807 140.6550 180.5347 142.2695 182.4585 144.0280 C185.5992 146.8983 188.6175 150.0087 191.5845 153.0598 C194.1712 155.7198 196.3945 158.6967 198.9545 161.3750 C211.5193 174.3282 223.3605 187.9640 234.4247 202.2202 C236.4045 204.7760 241.5363 210.1545 242.3322 213.0710 C243.3878 216.9382 243.0290 222.4275 243.3692 226.5312 C244.2360 236.3768 245.0038 246.2307 245.6725 256.0925 C246.1195 262.7325 246.3080 269.4050 247.0513 276.0225 C241.9082 276.3700 236.7592 276.8075 231.6017 276.7875 C199.9518 276.8175 130.4108 269.1500 104.1208 252.2375 C97.9958 248.2970 93.1995 242.7202 89.4807 236.4998 C87.4585 233.1170 85.9503 229.3990 84.4395 225.7680 C77.7085 209.5895 73.1057 192.2693 69.4187 175.1658 C65.5002 156.6772 63.0030 137.9160 61.9487 119.0460 C61.6787 114.4930 61.1118 109.9222 61.3570 105.3570 C61.6727 99.4788 62.7105 92.5658 66.0042 87.5420 C68.5890 83.6510 72.6248 80.9575 77.2097 80.0632 Z"></path>
<path id="" fill="#55acee" fill-opacity="1.0" stroke="#000000" stroke-width="0.0" stroke-opacity="1.0" stroke-linecap="round" stroke-linejoin="round"  filling="0" d="M430.2500 80.1017 C435.3275 79.8557 440.1650 80.4772 444.0675 84.0405 C449.1450 88.6750 450.7350 97.7100 450.9925 104.2377 C451.2650 111.1093 450.7775 117.7513 450.2900 124.5807 C448.4600 148.7525 444.3075 172.6922 437.8900 196.0688 C435.4550 204.9510 432.8525 213.7072 429.4850 222.2928 C427.9450 226.2198 426.4025 230.2670 424.4150 233.9925 C422.3450 237.9263 419.7800 241.5788 416.7825 244.8605 C412.6550 249.3158 408.3975 252.6550 402.9825 255.4750 C398.3600 257.8825 393.3850 259.4500 388.4550 261.0900 C369.4425 267.4200 349.8625 270.8100 330.0225 273.2325 C315.8550 274.9975 301.6200 276.1825 287.3575 276.7850 C280.2350 276.8400 273.3000 276.5850 266.1950 276.1375 C265.9900 271.0800 266.5300 266.2775 266.8625 261.2475 L267.9625 243.4980 C268.3225 238.3288 269.2175 215.7750 270.6275 212.4270 C272.3600 208.3020 281.6875 197.6265 284.9150 193.7153 C297.4250 178.2595 310.7850 163.5123 324.9350 149.5420 C329.3600 145.1122 333.7050 140.5247 338.2900 136.2617 C356.1525 119.5275 375.9000 104.9272 397.1350 92.7550 C407.2275 87.1028 418.6050 81.2142 430.2500 80.1017 Z"></path>
<path id="" fill="#55abed" fill-opacity="1.0" stroke="#000000" stroke-width="0.0" stroke-opacity="1.0" stroke-linecap="round" stroke-linejoin="round"  filling="0" d="M228.1165 285.1100 C234.4238 284.8675 240.7478 285.1450 247.0598 284.9750 C246.9957 290.7550 246.4913 296.3950 246.1615 302.1525 C245.9908 305.1325 246.0330 308.1250 245.8922 311.1075 C245.7782 313.5275 245.4518 315.9400 245.2643 318.3550 C245.0300 321.3725 245.3095 324.4975 244.7460 327.4750 C243.6995 333.0050 241.2545 338.6950 239.2035 343.9200 C230.7563 365.9325 219.6770 386.8425 206.2075 406.1950 C197.8407 418.1900 186.7105 429.8750 171.6865 432.4700 C168.6165 433.0000 165.4835 433.0800 162.3740 433.0475 C149.2885 432.9100 139.9660 428.0300 129.6050 420.6300 C128.8748 420.0900 128.1880 419.5050 127.5100 418.9025 C112.1527 405.2375 98.8108 384.9775 97.6250 363.9950 C96.8383 350.0775 104.1877 336.4750 113.2217 326.3550 C116.9342 322.1950 121.3960 318.8750 125.8645 315.5825 C134.1402 309.4850 142.7590 305.0350 152.2018 301.0325 C176.8920 290.5625 201.5143 286.6275 228.1165 285.1100 Z"></path>
<path id="" fill="#55acee" fill-opacity="1.0" stroke="#000000" stroke-width="0.0" stroke-opacity="1.0" stroke-linecap="round" stroke-linejoin="round"  filling="0" d="M265.9700 285.0000 C278.7975 285.0650 291.6550 285.3250 304.4225 286.7400 C334.3250 290.0500 368.6025 300.1925 392.0025 319.8025 C403.7450 329.6425 413.4125 343.8400 414.7000 359.4625 C416.2225 377.9125 404.6100 397.4075 393.0850 411.0050 C392.5925 411.5400 392.1050 412.0825 391.5925 412.6025 C380.6050 423.7800 366.9150 432.8550 350.7550 433.0350 C338.5200 433.1725 327.8175 429.2550 319.0400 420.5975 C300.7075 402.5225 286.1775 375.3925 276.2850 351.7375 C273.2375 344.4525 269.8125 336.0850 268.3000 328.3225 C267.2375 322.8675 267.3325 317.2975 267.0400 311.7725 C266.5675 302.8150 266.0500 293.9775 265.9700 285.0000 Z"></path>
<path id="" fill="#292f33" fill-opacity="1.0" stroke="#000000" stroke-width="0.0" stroke-opacity="1.0" stroke-linecap="round" stroke-linejoin="round"  filling="0" d="M277.8500 189.0047 C278.9675 187.2233 280.6650 185.5968 282.0225 183.9702 C285.6550 179.6198 289.3325 175.3655 293.0750 171.1142 C301.3450 161.7222 309.7400 152.6053 318.7250 143.8878 C342.6050 120.7177 373.2000 95.6227 403.1725 80.9983 C409.8450 77.7433 416.9150 74.6180 424.1650 72.9345 C432.8725 70.9125 441.7125 70.5738 449.5450 75.5520 C455.3700 79.2535 458.5325 85.6103 459.9350 92.1738 C462.0900 102.2695 461.0800 113.9210 460.2475 124.1655 C457.6950 155.5935 451.4275 191.5927 441.4550 221.5070 C437.7375 232.6557 433.0975 244.3353 426.6675 254.1950 C425.3375 256.2325 423.7700 258.1125 421.8775 259.6500 C411.9950 267.6825 391.7475 272.5150 379.3750 275.0650 C368.0025 277.4125 356.5925 278.8675 345.0900 280.3500 C341.6450 280.7950 338.1950 281.1400 334.7500 281.5550 C332.3675 281.8425 330.0075 282.2850 327.6050 282.3450 C327.6425 283.0500 327.7300 283.5950 327.3425 284.2250 L327.5075 284.6725 C329.7250 285.8675 335.0975 286.4400 337.7925 287.0600 C341.6950 287.9625 345.5725 288.9750 349.4175 290.0925 C378.9925 298.7850 414.3600 315.3975 423.9250 347.4050 C429.2375 365.1800 424.5750 381.6325 415.9925 397.4075 C405.6650 416.3975 387.7200 431.4575 366.8875 437.5300 C352.6275 441.6875 336.2600 442.1050 322.9100 434.7875 C319.2500 432.7800 315.6350 430.1450 312.6350 427.2500 C299.9175 414.9850 285.6075 390.9350 277.7900 374.9775 C275.8575 371.0325 273.9800 367.0275 272.1950 363.0175 C270.9050 360.1225 269.7775 357.1400 268.2100 354.3800 C268.1725 354.4675 268.1350 354.5525 268.1025 354.6375 C266.9050 357.6000 266.3850 360.9300 265.5275 364.0100 C263.8725 369.8300 261.5325 375.4325 258.5600 380.7000 C257.9875 381.6925 257.0275 383.7000 255.9175 384.1450 C255.7600 384.2075 255.5875 384.2150 255.4225 384.2500 C255.1825 383.9250 255.1100 383.7200 254.9625 383.3300 C254.1825 381.2825 252.2675 379.6625 251.3325 377.6400 C248.0542 370.5575 245.2630 361.5650 243.8275 353.9250 C234.1033 375.7100 223.4260 397.5375 208.7012 416.4450 C204.9707 421.2375 201.1458 425.8900 196.4628 429.8050 C193.0855 432.6275 189.1362 435.0800 185.0267 436.6725 C169.0327 442.8775 150.9325 441.0800 135.4603 434.1175 C114.5675 424.7150 97.7433 405.7350 89.7420 384.3800 C84.3845 370.0800 84.3315 354.0500 90.7435 340.0950 C101.2995 317.1200 126.1755 302.6900 148.9755 294.3375 C159.9182 290.4100 171.1465 287.3275 182.5615 285.1200 C182.3200 284.2375 182.3185 283.3475 182.2802 282.4375 C182.0335 281.9175 177.0960 281.5875 176.3215 281.5000 C156.0388 279.2050 135.5150 276.5925 115.8118 271.0750 C111.0630 269.7450 106.1842 268.3825 101.7145 266.2750 C97.6420 264.3525 93.0692 262.1300 89.6803 259.1500 C80.6638 251.2225 74.8270 233.5022 70.7805 222.2558 C67.9807 214.4742 65.9413 206.2065 63.9388 198.1905 C57.6215 173.2198 53.5045 147.7433 51.6345 122.0537 C51.0605 114.2260 50.3870 104.5690 51.2480 96.8532 C51.7227 92.5985 52.8188 88.3325 54.6707 84.4620 C57.3087 78.9488 61.8752 74.9023 67.6422 72.8918 C78.0390 69.2672 89.9553 73.1510 99.7018 77.0935 C131.0293 89.7655 162.9475 115.7010 187.3935 138.8010 C192.0423 143.1940 196.8248 147.4967 201.2337 152.1320 C209.7360 160.9075 217.9755 169.9337 225.9415 179.1987 C227.7827 181.3573 233.0208 188.5553 235.1600 189.5830 C235.9877 189.3138 236.6622 189.1973 237.5305 189.1602 L237.9158 189.0538 C236.7997 183.6835 235.1203 177.1523 236.2235 171.7108 C236.7527 169.0995 238.4610 167.2137 240.6687 165.8200 C247.2880 161.6413 258.5575 162.1195 265.8575 163.8307 C269.3000 164.6375 272.8675 166.2643 274.7175 169.4402 C277.4250 174.0925 275.4575 183.4933 274.2450 188.5000 C275.4425 189.0180 276.5575 189.0907 277.8500 189.0047 Z M74.0110 86.0090 C71.6705 86.7968 68.7580 90.4535 67.6313 92.6273 C65.8325 96.0973 65.9890 101.1808 65.8783 104.9937 C65.2783 125.6387 69.1973 146.8922 73.3945 167.0423 C76.1745 180.3893 79.3118 194.1073 83.8383 206.9818 C85.5717 211.9128 87.7712 216.7888 90.0862 221.4722 C97.9368 237.3548 106.3240 245.9303 122.4145 253.6000 C134.7467 259.4775 148.3690 261.5825 161.7055 263.9175 C172.1557 265.7475 182.5878 267.7800 193.1300 269.0250 C206.8180 270.6425 220.6050 271.0350 234.3750 270.9500 C236.2835 270.9675 240.2245 271.4250 241.8132 270.3300 C242.3858 269.9350 242.2740 269.1750 242.2725 268.5625 C242.2630 264.3475 235.0265 215.1877 234.0105 212.9760 C232.1022 208.8223 228.1022 205.0685 225.2050 201.5323 C217.5067 192.1365 209.5742 182.6855 201.2965 173.7865 C192.6447 164.4855 183.3288 155.5262 174.2207 146.6580 C169.3720 141.9368 164.0737 137.5968 158.9433 133.1825 C156.9510 131.4685 155.1480 129.5448 153.1265 127.8610 C136.8177 114.2767 109.9085 94.6973 89.8640 88.3757 C84.6413 86.7288 79.7120 85.9153 74.2505 86.0042 L74.0110 86.0090 Z M269.8150 270.2175 C274.6875 271.6050 280.3675 271.0150 285.4250 270.9900 C290.0725 270.9575 294.6700 270.5850 299.3050 270.3000 C302.9100 270.0800 306.5200 270.0900 310.1225 269.7600 C323.7550 268.5100 337.2325 266.1125 350.7025 263.7275 C360.4400 262.0025 370.4150 260.5425 379.7875 257.2700 C390.6225 253.4850 401.3825 248.1300 409.5200 239.8777 C418.8950 230.3740 424.8100 217.2682 429.2050 204.8330 C431.1300 199.3842 432.4100 193.6187 433.8575 188.0267 C440.2725 163.2725 446.5350 131.8183 446.2300 106.3727 C446.1525 100.0697 445.9275 93.1290 441.1225 88.4438 C440.3100 87.6505 439.4525 86.9150 438.4850 86.3165 C435.9250 86.0090 433.2450 85.9758 430.6675 86.0887 C417.1100 88.9275 407.7050 93.8763 396.0225 100.9352 C387.0200 106.3517 378.3850 112.3565 370.1750 118.9102 C368.0425 120.6035 366.0675 122.4755 363.9625 124.1998 C345.3075 139.3435 327.7200 155.7560 311.3250 173.3208 C309.5150 175.2397 307.9675 177.3788 306.1875 179.3205 C304.6650 180.9825 303.0050 182.5172 301.4975 184.1933 C296.1350 190.1562 291.0250 196.4335 285.9550 202.6500 C283.5550 205.5950 280.8425 208.5285 278.7825 211.7122 C278.1750 212.6543 277.8025 213.5025 277.5450 214.5970 C276.8925 217.3620 276.6000 220.2722 276.1875 223.0850 L274.0500 237.7040 C272.9600 244.8860 271.9700 252.0825 271.0825 259.2925 C270.6175 262.9150 269.9575 266.5675 269.8150 270.2175 Z M134.3338 414.8125 C142.8645 422.9075 154.2530 427.2975 166.0108 427.0225 C179.9328 426.6550 188.3768 420.5175 197.6068 410.7850 C213.7122 393.8025 227.8947 365.4975 235.5700 343.3975 C237.1705 338.7900 238.8125 334.0250 239.7415 329.2275 C241.1913 321.7425 240.9232 313.0400 241.1127 305.4050 C241.2085 301.5525 241.5940 297.6100 241.4630 293.7700 C241.4408 293.1200 241.4198 292.5875 241.1375 291.9900 C238.6958 289.7525 230.2368 290.5775 226.8975 290.6100 C222.0217 290.8600 216.9662 290.7300 212.1322 291.2400 C177.8275 294.8625 142.1180 307.1000 118.4297 333.2500 C109.7000 342.8850 105.6515 352.8625 106.3590 365.9225 C107.0125 377.9825 115.6212 394.5550 123.4772 403.7750 C126.8125 407.6875 130.7908 411.0825 134.3338 414.8125 Z M270.4200 290.6100 C270.5325 296.1425 270.8350 301.6650 270.9825 307.1950 C271.1875 314.9325 271.0525 322.9900 272.5475 330.5975 C273.3950 334.9025 275.0100 339.1125 276.4400 343.2500 C283.8675 364.8775 294.7250 385.1700 308.5950 403.3525 C312.0975 407.9075 315.5625 412.2300 319.7250 416.2125 C328.1500 424.2775 337.3250 427.3500 348.8525 427.0425 C359.0050 426.7675 368.6950 422.3375 376.4125 415.8200 C379.1825 413.4800 381.7025 410.7575 384.2400 408.1700 C394.6900 397.9125 405.8575 379.2125 406.0225 364.4025 C406.1725 351.0450 400.3225 339.9250 391.0725 330.5575 C386.8825 326.3125 382.5000 322.3325 377.6600 318.8250 C355.4500 302.7275 325.9075 294.0800 298.9050 291.3825 C290.8150 290.5750 282.3800 290.4050 274.2475 290.3525 C272.9750 290.4500 271.6975 290.5750 270.4200 290.6100 Z"></path>
<path id="" fill="#fbfcfc" fill-opacity="1.0" stroke="#000000" stroke-width="0.0" stroke-opacity="1.0" stroke-linecap="round" stroke-linejoin="round"  filling="0" d="M182.2802 282.4375 C182.6947 282.0475 182.4713 282.1025 182.9068 282.1150 C187.2880 282.2400 191.6995 282.5775 196.0730 282.8800 C191.8565 284.0425 186.9230 284.8300 182.5615 285.1200 C182.3200 284.2375 182.3185 283.3475 182.2802 282.4375 Z"></path>
<path id="" fill="#fbfcfc" fill-opacity="1.0" stroke="#000000" stroke-width="0.0" stroke-opacity="1.0" stroke-linecap="round" stroke-linejoin="round"  filling="0" d="M272.1475 196.3183 C272.8950 193.6158 273.5675 190.9458 274.0900 188.1888 L274.2450 188.5000 C275.4425 189.0180 276.5575 189.0907 277.8500 189.0047 C277.7350 190.0530 273.1850 195.4093 272.1475 196.3183 Z"></path>
<path id="" fill="#f7f9f9" fill-opacity="1.0" stroke="#000000" stroke-width="0.0" stroke-opacity="1.0" stroke-linecap="round" stroke-linejoin="round"  filling="0" d="M316.8000 282.8600 C320.3300 282.8525 324.1300 281.9750 327.6050 282.3450 C327.6425 283.0500 327.7300 283.5950 327.3425 284.2250 C327.1750 284.4350 327.2050 284.4725 326.9650 284.5425 C325.6050 284.9425 318.3225 283.4525 316.8000 282.8600 Z"></path>
<path id="" fill="#fafbfb" fill-opacity="1.0" stroke="#000000" stroke-width="0.0" stroke-opacity="1.0" stroke-linecap="round" stroke-linejoin="round"  filling="0" d="M237.9158 189.0538 C239.1888 190.8145 239.5380 194.0865 240.3075 196.2112 C238.5340 194.4500 236.5855 192.5052 235.3158 190.3440 C235.7940 189.6945 236.7620 189.3898 237.5305 189.1602 L237.9158 189.0538 Z"></path>
<path id="" fill="#1c6399" fill-opacity="1.0" stroke="#000000" stroke-width="0.0" stroke-opacity="1.0" stroke-linecap="round" stroke-linejoin="round"  filling="0" d="M440.8000 87.8880 C441.8250 87.9283 442.5175 88.1373 443.2575 88.8875 C445.3650 91.0242 447.0875 96.4885 445.8900 99.3043 C444.2100 103.2572 436.7125 109.6415 433.6025 113.0837 L397.3200 152.4312 C395.1625 154.7710 393.2175 157.3080 391.0375 159.6277 C389.1000 161.6888 386.9925 163.5858 385.0925 165.6845 C383.0075 167.9902 381.0900 170.4585 378.9475 172.7122 C375.1600 176.6987 371.4375 180.5425 367.8425 184.7258 C366.5650 186.2120 365.1125 187.7035 363.9875 189.3065 C363.3200 190.2605 362.9325 191.4603 362.9525 192.6275 C362.9625 193.3150 363.2250 193.9205 363.7275 194.3922 C365.0225 195.6062 367.2675 195.8562 368.9750 195.9455 C373.8275 196.1995 378.6425 195.3280 383.4725 195.0825 C395.6600 194.4635 407.8125 193.4885 420.0000 192.7993 C424.4250 192.5490 428.7600 192.0005 433.2075 191.9012 C432.6150 195.8958 431.1025 200.0508 429.9025 203.9218 C424.4850 204.6760 419.2025 204.8573 413.7650 205.2735 L375.8575 207.9173 C369.6850 208.3490 363.0325 207.9225 357.0025 209.4445 C354.2050 210.1503 351.9575 211.7280 349.9300 213.7218 C346.2750 217.3150 343.5675 221.8180 340.7525 226.0660 C335.1400 234.5388 329.9325 243.1810 324.7350 251.9125 C322.4575 256.1600 316.2900 265.0075 315.6925 269.2900 C315.6800 269.3850 315.6675 269.4800 315.6550 269.5750 C314.3200 270.5900 303.6075 270.1200 301.5600 270.0750 C300.7525 270.0575 300.3475 269.9150 299.7950 269.3350 C299.6600 268.6400 299.9000 268.1250 300.2375 267.5325 C301.3400 265.6100 302.7225 263.7950 303.9175 261.9200 L314.8575 244.9890 L346.2525 195.9875 C350.6850 189.0907 355.4000 182.3053 359.6425 175.2910 C360.5550 173.7820 361.0975 172.4012 361.1325 170.6160 C361.2825 163.0417 350.3875 136.9600 352.2300 133.5033 C353.5325 131.0590 357.1600 128.4902 359.7725 127.7045 C363.3125 128.5733 366.5325 149.0445 371.4025 153.9818 L371.6550 154.2332 C373.5050 154.2253 375.6350 154.2858 377.2875 153.3340 C381.3625 150.9880 386.4475 144.8978 389.8850 141.4563 C398.4225 132.9048 407.1775 124.5088 415.5450 115.7937 C418.0925 113.1410 420.2700 110.1645 422.8250 107.5197 C428.1625 101.9945 434.1950 96.8477 439.2050 91.0460 C440.0525 90.0652 440.4250 89.1158 440.8000 87.8880 Z"></path>
<path id="" fill="#1c6399" fill-opacity="1.0" stroke="#000000" stroke-width="0.0" stroke-opacity="1.0" stroke-linecap="round" stroke-linejoin="round"  filling="0" d="M69.8940 88.6628 C70.3622 88.6902 70.6770 88.7790 71.0298 89.1137 C73.2328 91.2040 75.2337 93.6048 77.3870 95.7655 C81.6508 100.0445 86.1013 104.2225 90.2025 108.6517 C92.2980 110.9150 94.1405 113.4025 96.2705 115.6355 C103.4807 123.1945 111.0555 130.4688 118.4447 137.8562 C123.0352 142.4458 127.9252 147.9815 132.8362 152.0833 C135.4783 154.2895 137.0030 154.3372 140.3452 154.0403 C145.9280 149.3002 148.3445 129.7115 151.4620 127.7442 C153.2047 127.5163 154.5742 128.4433 155.9108 129.4680 C157.3103 130.5408 159.5395 132.3980 160.0013 134.1373 C161.3158 139.0898 150.1073 162.6685 151.0038 171.4875 C151.1698 173.1205 151.8540 174.5970 152.7083 175.9790 C156.7513 182.5185 161.1743 188.8770 165.3293 195.3517 L198.1970 246.5550 C202.3355 253.0850 206.9518 259.4325 210.7855 266.1400 C211.5355 267.4525 212.3873 269.0700 212.5805 270.5750 L212.3358 270.8375 C207.7798 271.6425 202.5677 269.9300 197.8958 270.0475 L197.4978 270.0600 C195.1283 264.6675 190.8580 258.0175 187.7215 252.8575 C185.3705 249.0213 183.2355 245.0338 180.9245 241.1685 C177.5525 235.5282 173.9973 230.0600 170.3492 224.5945 C167.9410 220.9865 165.6288 217.1370 162.5480 214.0527 C160.5290 212.0315 158.1520 210.1830 155.3398 209.4710 C149.4885 207.9895 143.0323 208.2923 137.0302 207.8865 L106.6277 205.8965 C101.3083 205.5788 95.9388 205.1980 90.6245 204.7730 C87.8152 204.5485 85.0052 204.0815 82.1848 204.0840 C81.2540 199.9715 80.1710 196.1362 79.7357 191.9080 C83.8142 192.0040 87.8148 192.5595 91.8750 192.8112 L129.7505 195.1700 C134.9100 195.4745 139.9795 196.4455 145.1687 195.6900 C146.7395 195.4612 148.0448 194.4140 149.2672 193.4742 C149.1915 192.5155 149.0587 191.5058 148.7190 190.6035 C147.2603 186.7267 136.3045 176.0193 132.9355 172.4310 L120.6550 159.1313 L84.6758 120.1557 C82.7460 118.0642 81.0178 115.7885 79.0757 113.7115 C76.9488 111.4370 74.6407 109.3282 72.5555 107.0150 C70.7785 105.0437 69.1288 102.7428 67.2148 100.9133 C66.5020 100.2322 65.6982 99.8455 64.8062 99.4465 C65.7245 95.5822 66.7955 91.3817 69.8940 88.6628 Z"></path>
<path id="" fill="#1c6399" fill-opacity="1.0" stroke="#000000" stroke-width="0.0" stroke-opacity="1.0" stroke-linecap="round" stroke-linejoin="round"  filling="0" d="M230.3242 290.1175 C234.3025 289.9675 238.2910 290.1500 242.2730 290.0675 C242.1815 291.1175 242.1885 292.8950 241.5130 293.7350 C240.6293 294.8300 238.9823 295.6825 237.9185 296.6725 C236.0258 298.4350 234.2498 300.4175 232.4198 302.2550 C226.1772 308.5175 220.0632 315.0975 213.5670 321.0775 C211.2320 323.2275 208.6718 325.1250 206.3660 327.3100 C201.3293 332.0800 196.5403 337.1550 191.6155 342.0450 C188.4442 345.1950 184.7377 348.3575 182.0440 351.9075 C181.9840 353.3725 181.8333 354.8375 182.3513 356.2400 C183.5855 359.5750 186.0915 363.0750 187.8520 366.2225 C191.8553 373.3775 195.6738 380.6350 199.6198 387.8225 C201.5137 391.2700 203.6900 394.6225 205.4557 398.1325 C205.7835 398.7850 206.1673 399.4850 206.1033 400.2325 C205.8465 403.2125 201.0710 407.7575 198.9410 409.6450 C197.9877 410.4900 196.8400 411.6050 195.5180 411.5175 C191.8670 408.6400 177.8147 378.5925 174.1705 372.1150 C172.1230 368.4950 170.6185 364.3750 167.0983 361.9275 C158.3992 361.4050 146.7708 363.7225 137.9252 364.9350 C127.2835 366.3925 116.5875 367.5850 105.9825 369.2850 C105.9235 364.4375 105.2645 358.8325 106.9277 354.2400 C121.8647 352.2450 136.7827 350.1075 151.6792 347.8275 C155.7405 347.2025 163.7892 346.6550 167.1015 345.0550 C171.2153 343.0675 174.3080 338.7850 177.6317 335.7475 L210.3355 305.9725 C215.4695 301.2325 220.8205 295.2300 226.5405 291.2550 C227.7193 290.4350 228.9260 290.2675 230.3242 290.1175 Z"></path>
<path id="" fill="#1c6399" fill-opacity="1.0" stroke="#000000" stroke-width="0.0" stroke-opacity="1.0" stroke-linecap="round" stroke-linejoin="round"  filling="0" d="M274.3550 290.1250 C277.3200 290.0600 281.8775 289.4875 284.5775 290.7550 C286.4575 291.6375 288.1150 293.5350 289.6775 294.9125 C291.6750 296.6750 293.7875 298.3275 295.7200 300.1600 C298.0000 302.3175 300.1425 304.6175 302.4500 306.7450 L334.4300 335.8425 C336.8225 338.0325 338.9275 340.5300 341.3475 342.6975 C342.5325 343.7600 344.0925 345.0400 345.6250 345.5050 C350.2750 346.9200 357.0150 347.2800 361.9525 348.0200 C371.2125 349.4700 380.4825 350.8450 389.7650 352.1450 C395.0475 352.9050 400.7175 354.1825 406.0525 353.9075 C406.0175 359.0375 406.0500 364.1675 406.1550 369.2950 C396.4375 367.2825 386.2750 366.3900 376.4200 365.1075 L363.5125 363.4350 C357.3300 362.5725 350.9175 361.3775 344.6650 361.9975 C343.0650 363.4650 341.8100 365.0200 340.6825 366.8725 C338.5375 371.0900 336.0750 375.1400 333.9350 379.3575 C330.3375 386.4525 321.0650 406.9250 316.6025 411.6275 C316.1750 411.6700 316.1200 411.7075 315.6850 411.5375 C313.2050 410.5625 306.0775 401.8025 305.1175 399.3375 C308.2550 395.7325 310.3200 391.4425 312.6125 387.2800 L321.4350 371.0900 C323.9200 366.5925 327.4400 361.4600 329.3750 356.8125 C329.8875 355.5800 330.5250 353.7925 329.9600 352.4800 C328.5250 349.1325 322.7125 344.2750 319.9725 341.5350 C314.7750 336.3325 309.6400 331.0375 304.3425 325.9375 C301.7125 323.4050 298.7950 321.2075 296.1350 318.7125 C293.0350 315.8050 271.7075 294.9250 271.0325 293.0125 C270.7775 292.2875 270.5950 291.1850 270.9550 290.4900 C271.9700 290.0375 273.2575 290.1500 274.3550 290.1250 Z"></path>
<path id="" fill="#292f33" fill-opacity="1.0" stroke="#000000" stroke-width="0.0" stroke-opacity="1.0" stroke-linecap="round" stroke-linejoin="round"  filling="0" d="M213.4790 102.8265 C214.6520 102.7840 215.7730 102.7377 216.8793 103.1930 C217.8670 103.5995 218.7063 104.4178 219.3163 105.2773 C221.6675 108.5902 223.4305 112.4270 225.3880 115.9790 C228.9540 122.3627 232.4820 128.7677 235.9718 135.1935 L246.1455 153.6967 C248.0370 157.1980 250.1075 160.7202 251.5800 164.4225 C249.1098 164.2793 246.7892 164.5627 244.3672 165.0282 C242.8785 165.4640 241.7595 166.3905 240.5365 167.3062 C238.9685 165.6995 237.8765 163.1095 236.7545 161.1543 C232.9203 154.4742 229.3183 147.6845 225.5992 140.9420 L214.3570 120.5455 C212.1895 116.6267 209.8355 112.9003 208.0788 108.7625 C208.3723 107.7770 208.7475 106.7665 209.2753 105.8825 C210.2920 104.1787 211.5685 103.2730 213.4790 102.8265 Z"></path>
<path id="" fill="#292f33" fill-opacity="1.0" stroke="#000000" stroke-width="0.0" stroke-opacity="1.0" stroke-linecap="round" stroke-linejoin="round"  filling="0" d="M296.0250 102.7943 C297.8875 102.8940 299.6050 103.0000 301.1525 104.1592 C302.4825 105.1552 302.9600 106.6492 303.0875 108.2500 C303.2025 109.6810 302.3450 111.4948 301.7375 112.7802 C299.7800 116.9262 297.2850 120.9815 295.0525 124.9952 L284.4275 144.3005 C281.9775 148.8062 279.5025 153.2995 277.0075 157.7795 C275.3625 160.7615 273.7975 164.1313 271.6025 166.7455 C270.8150 166.2975 269.9925 165.9102 269.1800 165.5092 C266.6450 164.3015 263.4350 164.4250 260.6800 164.3568 C260.8675 163.4928 261.1150 162.7125 261.4875 161.9088 C263.7275 157.0670 266.5475 152.3593 269.1275 147.6845 L281.3525 125.4500 L288.5425 112.3630 C289.8975 109.8882 291.2250 106.9965 292.9525 104.7630 C293.8025 103.6650 294.7425 103.2542 296.0250 102.7943 Z"></path>
</svg>