<svg xmlns="http://www.w3.org/2000/svg" viewBox="0 0 512 512" height="512.0px" width="512.0px">
<path id="" fill="#662113" fill-opacity="1.0" stroke="#000000" stroke-width="0.0" stroke-opacity="1.0" stroke-linecap="round" stroke-linejoin="round"  filling="0" d="M220.3902 364.8450 C228.1285 365.3950 236.1590 365.0050 243.9260 365.0050 L292.1750 364.9550 C293.2575 380.6475 294.5550 396.3250 296.0625 411.9800 C296.5900 418.0825 297.7500 424.3800 297.7675 430.4900 C297.7750 432.9875 297.3750 435.4250 296.7450 437.8375 C294.8375 445.1550 291.4375 450.1800 284.9175 453.9850 C275.1350 459.6550 262.3900 461.4375 251.2000 460.7375 C240.7747 460.0850 227.8640 457.0300 220.6805 448.8175 C217.3723 444.9775 215.2507 440.2625 214.5745 435.2400 C213.7112 428.9875 214.7103 422.8350 215.3777 416.6175 C215.8460 412.1300 216.2668 407.6375 216.6405 403.1425 L218.8728 377.1175 C219.1630 373.5900 219.2365 369.9850 219.6195 366.4800 C219.7092 365.6575 219.7590 365.3850 220.3902 364.8450 Z"></path>
<path id="" fill="#3e721d" fill-opacity="1.0" stroke="#000000" stroke-width="0.0" stroke-opacity="1.0" stroke-linecap="round" stroke-linejoin="round"  filling="0" d="M256.5600 81.5375 C259.5200 84.0973 261.9725 87.3808 264.7550 90.1642 C271.5125 96.9218 278.4500 103.5912 284.9425 110.6003 C289.3100 115.3112 293.3350 120.3427 297.6875 125.0635 C303.3850 131.2457 311.0425 137.5295 316.1225 143.8947 C316.9275 144.9017 317.1775 145.9490 317.2475 147.2173 C317.3275 148.6698 316.7275 149.6920 315.7575 150.7275 C315.2100 151.3147 314.5950 151.7430 313.9450 152.2080 C313.5225 152.5108 313.6875 152.3715 313.3300 152.8080 C315.1000 154.7917 317.6700 157.6945 317.4275 160.5638 C317.3275 161.7465 316.5575 162.6295 315.6400 163.3118 C314.3075 164.3013 310.6475 165.6812 309.9000 166.4577 L310.1150 166.7928 C312.9975 171.2283 318.8925 176.4543 322.8375 180.1275 C326.7425 183.7652 337.8800 191.6850 336.5450 197.5565 C335.9900 199.9967 333.9600 202.0790 331.8450 203.2917 C329.6825 204.5332 326.6475 204.6573 324.7075 206.0072 C324.8050 206.1395 324.9000 206.2745 325.0025 206.4040 C325.7350 207.3398 326.9700 208.0345 327.9075 208.7733 C331.0000 211.2100 336.7500 215.6707 336.4500 220.1217 C336.3175 222.0898 335.1025 223.9707 334.1325 225.6463 L334.3400 225.8862 C339.7500 232.0200 356.4250 242.4283 355.7975 251.2100 C355.6175 253.7600 354.0850 255.8350 352.1725 257.4175 C349.3350 259.7650 346.0600 260.2825 342.5900 261.0800 C341.7000 261.2850 340.6600 261.4375 339.8425 261.8475 L340.1100 262.1825 C345.1775 268.3975 356.2150 273.1850 355.5600 282.6125 C355.4725 283.8750 355.0700 285.1125 354.7150 286.3175 C360.4350 291.1150 365.5875 296.2675 371.0350 301.3600 C373.8400 303.9800 376.9625 306.2050 379.3525 309.2425 C381.4250 311.8750 383.4950 315.3950 383.8000 318.7925 C384.0425 321.4900 383.1300 324.0375 381.3975 326.1000 C376.9150 331.4400 368.4225 332.9300 361.9350 334.2200 C365.6400 338.1575 370.0275 341.4175 373.8225 345.3125 C377.3775 348.9625 380.1200 353.0575 383.3725 356.9350 C388.1000 361.9300 393.3125 366.2600 398.3575 370.8925 C404.2950 376.3425 412.6175 384.0525 412.8275 392.7450 C412.8975 395.8700 411.7050 398.8950 409.5200 401.1325 C399.1475 411.7800 366.9600 407.8725 352.8750 406.3450 C337.3450 404.6600 321.9200 401.9650 306.4025 400.2425 C301.3850 399.6875 296.3225 399.4675 291.2925 399.0175 C287.9325 398.7175 284.5650 398.1300 281.1975 397.9925 C276.7950 397.8125 272.3700 398.0550 267.9650 397.8850 C264.8800 397.7675 261.9000 396.9625 258.7900 396.9425 C254.7500 396.9175 250.9175 397.7100 246.9288 397.8600 C242.0170 398.0450 237.0788 397.7525 232.1727 398.0375 C229.4888 398.1925 226.8228 398.6300 224.1420 398.8450 C218.7632 399.2800 213.3837 399.5575 208.0123 400.1075 C197.9102 401.1375 187.8335 402.6050 177.7702 403.9550 C162.8022 405.9600 147.4135 408.2250 132.3000 408.2850 C122.8897 408.3225 109.2200 407.9550 102.2028 400.8875 C100.1888 398.8600 98.9670 396.5600 99.0312 393.6375 C99.2855 382.0425 112.0323 372.7075 119.7943 365.5900 C122.9433 362.7025 125.8322 359.5450 128.9595 356.6350 C132.7400 352.0100 139.0130 346.2050 143.4000 341.9625 C145.6272 339.8100 148.1057 337.7925 149.8858 335.2425 C148.4742 334.5325 146.8340 334.1875 145.3190 333.7425 C140.9622 332.4625 136.2550 331.0625 132.6732 328.1575 C130.3855 326.3000 128.4090 323.7850 128.1465 320.7575 C127.7160 315.7925 132.0058 309.7825 135.3220 306.4300 C137.0205 304.7125 138.9622 303.2475 140.7442 301.6200 C143.0125 299.5475 145.1225 297.3000 147.4125 295.2500 C150.6170 292.3850 154.1660 289.7900 156.9592 286.4975 C157.0210 286.4225 157.0815 286.3500 157.1425 286.2750 C156.8333 285.2075 156.4792 284.1025 156.4155 282.9850 C155.9195 274.3025 165.6215 269.0725 170.5538 263.4575 L170.7945 263.1800 L171.3642 262.0100 C170.4370 261.1050 165.9955 260.4650 164.4600 259.9250 C163.1418 259.4575 161.8862 258.8325 160.7213 258.0575 C158.6207 256.6525 156.6617 254.6275 156.2092 252.0500 C155.1835 246.2043 161.4155 240.8997 165.1487 237.2968 C167.0090 235.5015 168.8353 233.6548 170.7908 231.9622 C172.9825 230.0647 175.7230 228.2157 177.3233 225.7735 C177.3732 225.6973 177.4210 225.6192 177.4700 225.5423 C176.3618 224.5325 175.6543 222.2110 175.0995 220.8208 C176.7750 214.8978 181.1228 209.9325 185.9130 206.2372 C183.6555 204.1830 179.9612 204.3407 177.6350 202.1078 C176.3692 200.8925 175.7545 199.1365 175.7328 197.4043 C175.7055 195.2365 176.4240 193.1695 177.6160 191.3777 C180.7287 186.6987 185.8172 183.2015 189.9355 179.4377 C192.6810 176.9288 195.2867 174.2383 197.8645 171.5590 C198.9345 170.4470 201.5505 168.0448 201.5202 166.4597 C200.2767 165.7930 198.9595 165.2670 197.7292 164.5810 C196.5045 163.8983 195.3882 162.7755 195.0295 161.3878 C194.2518 158.3788 196.8790 155.0457 198.3613 152.6183 C198.3143 152.5502 198.2725 152.4785 198.2207 152.4142 C197.7478 151.8280 197.0180 151.4198 196.4540 150.9155 C194.5128 149.1797 194.9030 147.3680 195.0450 145.0015 C196.9055 142.0647 199.7502 139.6322 202.2165 137.2025 C205.7270 133.7440 209.3053 130.3310 212.7125 126.7705 C215.3295 124.0358 217.5992 120.9995 220.2173 118.2715 C224.7348 113.5640 229.5827 109.1527 234.0035 104.3557 C235.8898 102.3090 237.5780 100.0843 239.4783 98.0510 C242.8158 94.4800 246.3873 91.0810 249.8550 87.6320 C251.9175 85.5793 254.0600 83.0488 256.5600 81.5375 Z"></path>
<path id="" fill="#5c913b" fill-opacity="1.0" stroke="#000000" stroke-width="0.0" stroke-opacity="1.0" stroke-linecap="round" stroke-linejoin="round"  filling="0" d="M256.5600 81.5375 C259.5200 84.0973 261.9725 87.3808 264.7550 90.1642 C271.5125 96.9218 278.4500 103.5912 284.9425 110.6003 C289.3100 115.3112 293.3350 120.3427 297.6875 125.0635 C303.3850 131.2457 311.0425 137.5295 316.1225 143.8947 C316.9275 144.9017 317.1775 145.9490 317.2475 147.2173 C317.3275 148.6698 316.7275 149.6920 315.7575 150.7275 C315.2100 151.3147 314.5950 151.7430 313.9450 152.2080 C313.5225 152.5108 313.6875 152.3715 313.3300 152.8080 C315.1000 154.7917 317.6700 157.6945 317.4275 160.5638 C317.3275 161.7465 316.5575 162.6295 315.6400 163.3118 C314.3075 164.3013 310.6475 165.6812 309.9000 166.4577 L310.1150 166.7928 C312.9975 171.2283 318.8925 176.4543 322.8375 180.1275 C326.7425 183.7652 337.8800 191.6850 336.5450 197.5565 C335.9900 199.9967 333.9600 202.0790 331.8450 203.2917 C329.6825 204.5332 326.6475 204.6573 324.7075 206.0072 C324.8050 206.1395 324.9000 206.2745 325.0025 206.4040 C325.7350 207.3398 326.9700 208.0345 327.9075 208.7733 C331.0000 211.2100 336.7500 215.6707 336.4500 220.1217 C336.3175 222.0898 335.1025 223.9707 334.1325 225.6463 L334.3400 225.8862 C339.7500 232.0200 356.4250 242.4283 355.7975 251.2100 C355.6175 253.7600 354.0850 255.8350 352.1725 257.4175 C349.3350 259.7650 346.0600 260.2825 342.5900 261.0800 C341.7000 261.2850 340.6600 261.4375 339.8425 261.8475 C336.5875 262.8200 332.2850 262.6875 328.8750 262.7600 C312.9750 263.1000 295.6025 259.2900 280.9975 253.0550 C276.6400 251.1950 272.3475 248.7900 268.1700 246.5428 C263.7125 244.1450 259.9425 240.6700 255.6500 238.0117 C238.5078 252.2950 212.5453 260.7450 190.4605 262.2875 C186.5050 262.5650 182.3378 262.7775 178.3895 262.4350 C176.7032 262.2875 174.0493 261.6525 172.4353 262.0775 C172.0188 262.1875 171.1800 262.9200 170.7945 263.1800 L171.3642 262.0100 C170.4370 261.1050 165.9955 260.4650 164.4600 259.9250 C163.1418 259.4575 161.8862 258.8325 160.7213 258.0575 C158.6207 256.6525 156.6617 254.6275 156.2092 252.0500 C155.1835 246.2043 161.4155 240.8997 165.1487 237.2968 C167.0090 235.5015 168.8353 233.6548 170.7908 231.9622 C172.9825 230.0647 175.7230 228.2157 177.3233 225.7735 C177.3732 225.6973 177.4210 225.6192 177.4700 225.5423 C176.3618 224.5325 175.6543 222.2110 175.0995 220.8208 C176.7750 214.8978 181.1228 209.9325 185.9130 206.2372 C183.6555 204.1830 179.9612 204.3407 177.6350 202.1078 C176.3692 200.8925 175.7545 199.1365 175.7328 197.4043 C175.7055 195.2365 176.4240 193.1695 177.6160 191.3777 C180.7287 186.6987 185.8172 183.2015 189.9355 179.4377 C192.6810 176.9288 195.2867 174.2383 197.8645 171.5590 C198.9345 170.4470 201.5505 168.0448 201.5202 166.4597 C200.2767 165.7930 198.9595 165.2670 197.7292 164.5810 C196.5045 163.8983 195.3882 162.7755 195.0295 161.3878 C194.2518 158.3788 196.8790 155.0457 198.3613 152.6183 C198.3143 152.5502 198.2725 152.4785 198.2207 152.4142 C197.7478 151.8280 197.0180 151.4198 196.4540 150.9155 C194.5128 149.1797 194.9030 147.3680 195.0450 145.0015 C196.9055 142.0647 199.7502 139.6322 202.2165 137.2025 C205.7270 133.7440 209.3053 130.3310 212.7125 126.7705 C215.3295 124.0358 217.5992 120.9995 220.2173 118.2715 C224.7348 113.5640 229.5827 109.1527 234.0035 104.3557 C235.8898 102.3090 237.5780 100.0843 239.4783 98.0510 C242.8158 94.4800 246.3873 91.0810 249.8550 87.6320 C251.9175 85.5793 254.0600 83.0488 256.5600 81.5375 Z"></path>
<path id="" fill="#5b903a" fill-opacity="1.0" stroke="#000000" stroke-width="0.0" stroke-opacity="1.0" stroke-linecap="round" stroke-linejoin="round"  filling="0" d="M256.5600 81.5375 C259.5200 84.0973 261.9725 87.3808 264.7550 90.1642 C271.5125 96.9218 278.4500 103.5912 284.9425 110.6003 C289.3100 115.3112 293.3350 120.3427 297.6875 125.0635 C303.3850 131.2457 311.0425 137.5295 316.1225 143.8947 C316.9275 144.9017 317.1775 145.9490 317.2475 147.2173 C317.3275 148.6698 316.7275 149.6920 315.7575 150.7275 C315.2100 151.3147 314.5950 151.7430 313.9450 152.2080 C313.5225 152.5108 313.6875 152.3715 313.3300 152.8080 C315.1000 154.7917 317.6700 157.6945 317.4275 160.5638 C317.3275 161.7465 316.5575 162.6295 315.6400 163.3118 C314.3075 164.3013 310.6475 165.6812 309.9000 166.4577 C309.5200 166.2608 298.3350 167.1008 296.3200 167.0282 C287.6575 166.7165 279.1525 163.9845 271.1600 160.7997 C266.2925 158.8600 259.0525 155.5905 256.8575 150.4637 C252.1925 154.8152 246.8197 158.3375 240.9685 160.8785 C230.6313 165.3412 220.1270 167.2758 208.8732 167.0972 C206.9820 167.0672 203.9673 167.1885 202.2267 166.4117 C202.1120 166.3605 202.0005 166.3030 201.8873 166.2487 L201.5202 166.4597 C200.2767 165.7930 198.9595 165.2670 197.7292 164.5810 C196.5045 163.8983 195.3882 162.7755 195.0295 161.3878 C194.2518 158.3788 196.8790 155.0457 198.3613 152.6183 C198.3143 152.5502 198.2725 152.4785 198.2207 152.4142 C197.7478 151.8280 197.0180 151.4198 196.4540 150.9155 C194.5128 149.1797 194.9030 147.3680 195.0450 145.0015 C196.9055 142.0647 199.7502 139.6322 202.2165 137.2025 C205.7270 133.7440 209.3053 130.3310 212.7125 126.7705 C215.3295 124.0358 217.5992 120.9995 220.2173 118.2715 C224.7348 113.5640 229.5827 109.1527 234.0035 104.3557 C235.8898 102.3090 237.5780 100.0843 239.4783 98.0510 C242.8158 94.4800 246.3873 91.0810 249.8550 87.6320 C251.9175 85.5793 254.0600 83.0488 256.5600 81.5375 Z"></path>
<path id="" fill="#3e721d" fill-opacity="1.0" stroke="#000000" stroke-width="0.0" stroke-opacity="1.0" stroke-linecap="round" stroke-linejoin="round"  filling="0" d="M198.3613 152.6183 C202.4565 155.5847 219.3725 154.5182 224.5105 153.6797 C231.2720 152.5762 238.1740 150.2850 244.3780 147.3723 C247.1263 146.0820 249.8670 144.3370 252.7400 143.3698 C254.0325 142.9337 255.2100 142.7677 256.5750 142.8860 C260.9025 143.2603 265.1125 145.4068 269.0725 147.0502 C280.3275 151.7195 289.4975 154.8087 301.9425 154.5150 C305.4450 154.4325 310.1050 154.2965 313.3300 152.8080 C315.1000 154.7917 317.6700 157.6945 317.4275 160.5638 C317.3275 161.7465 316.5575 162.6295 315.6400 163.3118 C314.3075 164.3013 310.6475 165.6812 309.9000 166.4577 C309.5200 166.2608 298.3350 167.1008 296.3200 167.0282 C287.6575 166.7165 279.1525 163.9845 271.1600 160.7997 C266.2925 158.8600 259.0525 155.5905 256.8575 150.4637 C252.1925 154.8152 246.8197 158.3375 240.9685 160.8785 C230.6313 165.3412 220.1270 167.2758 208.8732 167.0972 C206.9820 167.0672 203.9673 167.1885 202.2267 166.4117 C202.1120 166.3605 202.0005 166.3030 201.8873 166.2487 L201.5202 166.4597 C200.2767 165.7930 198.9595 165.2670 197.7292 164.5810 C196.5045 163.8983 195.3882 162.7755 195.0295 161.3878 C194.2518 158.3788 196.8790 155.0457 198.3613 152.6183 Z"></path>
<path id="" fill="#5b903b" fill-opacity="1.0" stroke="#000000" stroke-width="0.0" stroke-opacity="1.0" stroke-linecap="round" stroke-linejoin="round"  filling="0" d="M256.8575 150.4637 C259.0525 155.5905 266.2925 158.8600 271.1600 160.7997 C279.1525 163.9845 287.6575 166.7165 296.3200 167.0282 C298.3350 167.1008 309.5200 166.2608 309.9000 166.4577 L310.1150 166.7928 C312.9975 171.2283 318.8925 176.4543 322.8375 180.1275 C326.7425 183.7652 337.8800 191.6850 336.5450 197.5565 C335.9900 199.9967 333.9600 202.0790 331.8450 203.2917 C329.6825 204.5332 326.6475 204.6573 324.7075 206.0072 C324.6125 206.0412 324.5225 206.0892 324.4225 206.1087 C322.4750 206.4915 316.2800 206.1000 313.8025 206.0785 C296.8025 205.9560 280.1375 201.3455 265.4925 192.7137 C261.8175 190.5205 258.4050 187.8505 254.8750 185.4280 C238.6483 195.9883 223.5985 204.5260 203.8698 206.4060 C201.3788 206.6503 198.8757 206.7505 196.3732 206.7057 C193.5075 206.6290 189.5278 205.7552 186.8168 206.3898 C186.6517 206.4283 186.4888 206.4755 186.3248 206.5185 L185.9130 206.2372 C183.6555 204.1830 179.9612 204.3407 177.6350 202.1078 C176.3692 200.8925 175.7545 199.1365 175.7328 197.4043 C175.7055 195.2365 176.4240 193.1695 177.6160 191.3777 C180.7287 186.6987 185.8172 183.2015 189.9355 179.4377 C192.6810 176.9288 195.2867 174.2383 197.8645 171.5590 C198.9345 170.4470 201.5505 168.0448 201.5202 166.4597 L201.8873 166.2487 C202.0005 166.3030 202.1120 166.3605 202.2267 166.4117 C203.9673 167.1885 206.9820 167.0672 208.8732 167.0972 C220.1270 167.2758 230.6313 165.3412 240.9685 160.8785 C246.8197 158.3375 252.1925 154.8152 256.8575 150.4637 Z"></path>
<path id="" fill="#3e721d" fill-opacity="1.0" stroke="#000000" stroke-width="0.0" stroke-opacity="1.0" stroke-linecap="round" stroke-linejoin="round"  filling="0" d="M185.9130 206.2372 L186.3248 206.5185 C186.4888 206.4755 186.6517 206.4283 186.8168 206.3898 C189.5278 205.7552 193.5075 206.6290 196.3732 206.7057 C198.8757 206.7505 201.3788 206.6503 203.8698 206.4060 C223.5985 204.5260 238.6483 195.9883 254.8750 185.4280 C258.4050 187.8505 261.8175 190.5205 265.4925 192.7137 C280.1375 201.3455 296.8025 205.9560 313.8025 206.0785 C316.2800 206.1000 322.4750 206.4915 324.4225 206.1087 C324.5225 206.0892 324.6125 206.0412 324.7075 206.0072 C324.8050 206.1395 324.9000 206.2745 325.0025 206.4040 C325.7350 207.3398 326.9700 208.0345 327.9075 208.7733 C331.0000 211.2100 336.7500 215.6707 336.4500 220.1217 C336.3175 222.0898 335.1025 223.9707 334.1325 225.6463 C333.6600 225.8270 333.7850 225.7310 333.4600 225.9987 C329.2250 229.4900 324.1575 230.0930 318.8350 230.1650 C313.1450 230.2420 307.0725 230.0952 301.4475 229.2510 C286.5125 227.0103 266.9475 220.2105 255.9625 209.6293 C248.3935 217.1455 236.8297 221.8257 226.8515 225.1870 C215.2860 229.0833 196.2222 232.1370 184.4925 228.7937 C182.0527 228.0985 180.1487 226.8443 177.9187 225.7578 L177.4700 225.5423 C176.3618 224.5325 175.6543 222.2110 175.0995 220.8208 C176.7750 214.8978 181.1228 209.9325 185.9130 206.2372 Z"></path>
<path id="" fill="#5c903b" fill-opacity="1.0" stroke="#000000" stroke-width="0.0" stroke-opacity="1.0" stroke-linecap="round" stroke-linejoin="round"  filling="0" d="M170.7945 263.1800 C171.1800 262.9200 172.0188 262.1875 172.4353 262.0775 C174.0493 261.6525 176.7032 262.2875 178.3895 262.4350 C182.3378 262.7775 186.5050 262.5650 190.4605 262.2875 C212.5453 260.7450 238.5078 252.2950 255.6500 238.0117 C259.9425 240.6700 263.7125 244.1450 268.1700 246.5428 C272.3475 248.7900 276.6400 251.1950 280.9975 253.0550 C295.6025 259.2900 312.9750 263.1000 328.8750 262.7600 C332.2850 262.6875 336.5875 262.8200 339.8425 261.8475 L340.1100 262.1825 C345.1775 268.3975 356.2150 273.1850 355.5600 282.6125 C355.4725 283.8750 355.0700 285.1125 354.7150 286.3175 C360.4350 291.1150 365.5875 296.2675 371.0350 301.3600 C373.8400 303.9800 376.9625 306.2050 379.3525 309.2425 C381.4250 311.8750 383.4950 315.3950 383.8000 318.7925 C384.0425 321.4900 383.1300 324.0375 381.3975 326.1000 C376.9150 331.4400 368.4225 332.9300 361.9350 334.2200 C357.3675 332.7050 351.7425 333.9075 346.9950 334.1425 C344.0800 334.2575 341.1625 334.2725 338.2450 334.1875 C320.6150 333.7175 302.9100 328.3275 286.8275 321.3825 C282.4825 319.5075 278.1800 317.6375 274.0850 315.2525 C270.7250 313.2950 267.2675 311.3075 264.1325 309.0075 C261.3925 306.9950 258.8475 304.6850 256.0675 302.7450 C231.1655 323.2925 196.7628 333.7850 164.8452 335.5375 C159.7945 335.8150 154.9065 335.2275 149.8858 335.2425 C148.4742 334.5325 146.8340 334.1875 145.3190 333.7425 C140.9622 332.4625 136.2550 331.0625 132.6732 328.1575 C130.3855 326.3000 128.4090 323.7850 128.1465 320.7575 C127.7160 315.7925 132.0058 309.7825 135.3220 306.4300 C137.0205 304.7125 138.9622 303.2475 140.7442 301.6200 C143.0125 299.5475 145.1225 297.3000 147.4125 295.2500 C150.6170 292.3850 154.1660 289.7900 156.9592 286.4975 C157.0210 286.4225 157.0815 286.3500 157.1425 286.2750 C156.8333 285.2075 156.4792 284.1025 156.4155 282.9850 C155.9195 274.3025 165.6215 269.0725 170.5538 263.4575 L170.7945 263.1800 Z"></path>
<path id="" fill="#3e721d" fill-opacity="1.0" stroke="#000000" stroke-width="0.0" stroke-opacity="1.0" stroke-linecap="round" stroke-linejoin="round"  filling="0" d="M170.7945 263.1800 C171.1800 262.9200 172.0188 262.1875 172.4353 262.0775 C174.0493 261.6525 176.7032 262.2875 178.3895 262.4350 C182.3378 262.7775 186.5050 262.5650 190.4605 262.2875 C212.5453 260.7450 238.5078 252.2950 255.6500 238.0117 C259.9425 240.6700 263.7125 244.1450 268.1700 246.5428 C272.3475 248.7900 276.6400 251.1950 280.9975 253.0550 C295.6025 259.2900 312.9750 263.1000 328.8750 262.7600 C332.2850 262.6875 336.5875 262.8200 339.8425 261.8475 L340.1100 262.1825 C345.1775 268.3975 356.2150 273.1850 355.5600 282.6125 C355.4725 283.8750 355.0700 285.1125 354.7150 286.3175 C354.6475 286.3775 354.5775 286.4350 354.5125 286.5000 C353.3400 287.7000 352.7825 289.0975 351.3975 290.2375 C348.3950 292.7150 340.8675 293.5025 337.0150 293.6925 C315.5050 294.8325 294.0625 290.3850 274.7800 280.7800 C268.1775 277.5525 261.6150 273.7375 256.0825 268.8500 C251.5925 273.1825 245.8120 276.4675 240.2960 279.3375 C221.6570 289.0350 202.4357 294.1550 181.3810 293.7975 C174.6732 293.6825 167.3045 293.0675 161.4297 289.5225 C159.8630 288.5775 158.6390 287.1900 157.1425 286.2750 C156.8333 285.2075 156.4792 284.1025 156.4155 282.9850 C155.9195 274.3025 165.6215 269.0725 170.5538 263.4575 L170.7945 263.1800 Z"></path>
<path id="" fill="#5c903b" fill-opacity="1.0" stroke="#000000" stroke-width="0.0" stroke-opacity="1.0" stroke-linecap="round" stroke-linejoin="round"  filling="0" d="M256.1175 343.9400 C262.6375 350.8425 270.6375 355.8650 278.9575 360.3225 C299.9575 371.8400 323.3900 378.2175 347.3325 378.9300 C356.9675 379.2150 373.1700 377.7275 380.3125 370.7900 C382.7875 368.3875 383.2750 365.5200 383.2575 362.2175 C383.2475 360.4225 383.2575 358.7275 383.3725 356.9350 C388.1000 361.9300 393.3125 366.2600 398.3575 370.8925 C404.2950 376.3425 412.6175 384.0525 412.8275 392.7450 C412.8975 395.8700 411.7050 398.8950 409.5200 401.1325 C399.1475 411.7800 366.9600 407.8725 352.8750 406.3450 C337.3450 404.6600 321.9200 401.9650 306.4025 400.2425 C301.3850 399.6875 296.3225 399.4675 291.2925 399.0175 C287.9325 398.7175 284.5650 398.1300 281.1975 397.9925 C276.7950 397.8125 272.3700 398.0550 267.9650 397.8850 C264.8800 397.7675 261.9000 396.9625 258.7900 396.9425 C254.7500 396.9175 250.9175 397.7100 246.9288 397.8600 C242.0170 398.0450 237.0788 397.7525 232.1727 398.0375 C229.4888 398.1925 226.8228 398.6300 224.1420 398.8450 C218.7632 399.2800 213.3837 399.5575 208.0123 400.1075 C197.9102 401.1375 187.8335 402.6050 177.7702 403.9550 C162.8022 405.9600 147.4135 408.2250 132.3000 408.2850 C122.8897 408.3225 109.2200 407.9550 102.2028 400.8875 C100.1888 398.8600 98.9670 396.5600 99.0312 393.6375 C99.2855 382.0425 112.0323 372.7075 119.7943 365.5900 C122.9433 362.7025 125.8322 359.5450 128.9595 356.6350 C129.1355 358.0800 127.9272 358.2575 127.7038 359.4825 C126.9863 363.4175 129.7733 369.1525 132.8008 371.5175 C143.8958 380.1925 164.9055 379.4800 178.4110 377.7225 C201.9100 374.6650 224.9263 366.9450 244.5505 353.4750 C248.5587 350.7250 253.0325 347.7150 256.1175 343.9400 Z"></path>
<path id="" fill="#ffffff" fill-opacity="0.027451" stroke="#000000" stroke-width="0.0" stroke-opacity="1.0" stroke-linecap="round" stroke-linejoin="round"  filling="0" d="M0.6766 0.0000 L511.3225 0.0000 C508.2025 0.6650 504.4600 0.3195 501.2650 0.3163 L484.2875 0.2973 L415.9925 0.2969 L147.6600 0.2999 L40.7298 0.2926 L15.1412 0.3109 C10.7615 0.3248 4.9184 0.8886 0.6766 0.0000 Z"></path>
<path id="" fill="#ffffff" fill-opacity="0.0196078" stroke="#000000" stroke-width="0.0" stroke-opacity="1.0" stroke-linecap="round" stroke-linejoin="round"  filling="0" d="M1.3091 512.0000 C3.3875 511.2775 25.6402 511.7425 29.6990 511.7425 L108.8480 511.7450 L408.0800 511.7525 L481.9375 511.7525 L501.0200 511.7350 C504.2850 511.7300 508.1175 511.3450 511.2925 512.0000 L1.3091 512.0000 Z"></path>
<path id="" fill="#ffffff" fill-opacity="0.027451" stroke="#000000" stroke-width="0.0" stroke-opacity="1.0" stroke-linecap="round" stroke-linejoin="round"  filling="0" d="M0.0000 0.9172 C0.7097 3.9909 0.2566 8.0218 0.2535 11.1965 L0.2509 30.6735 L0.2530 111.2188 L0.2531 439.7300 L0.2509 490.8325 C0.2507 494.5500 0.7518 508.0600 0.0000 510.5825 L0.0000 0.9172 Z"></path>
<path id="" fill="#feac33" fill-opacity="1.0" stroke="#000000" stroke-width="0.0" stroke-opacity="1.0" stroke-linecap="round" stroke-linejoin="round"  filling="0" d="M231.4328 103.9717 C232.5765 94.2715 215.7287 86.1622 215.7480 80.0310 C215.7505 79.2425 215.8665 78.8360 216.5603 78.3817 C220.3867 75.8757 232.6848 75.6682 238.4453 73.1917 C244.3890 70.6365 247.8837 61.7907 250.8800 56.4320 C251.8200 54.7552 252.8300 52.7827 254.2500 51.4547 C254.5950 51.1302 255.0975 50.7725 255.5900 50.8383 C259.3325 51.3362 264.0075 63.3282 265.8700 66.4795 C267.1575 68.6600 268.9100 70.9285 270.8550 72.5652 C276.0625 76.9507 291.6775 75.9417 295.2825 80.1042 C296.2900 84.2412 284.7200 93.3022 282.0300 96.7818 C280.7250 98.4705 280.0075 100.1355 279.3200 102.1373 C279.3525 102.2705 279.3800 102.4048 279.4150 102.5370 C279.8775 104.2643 282.7375 105.6785 282.0300 107.5318 C281.0100 108.2925 280.1275 108.3105 278.9100 108.3798 C279.4575 112.2442 281.0925 120.7582 280.7975 124.2645 C280.7100 125.2925 280.4825 126.0075 279.9125 126.8615 C278.6850 127.5475 277.4500 127.2020 276.1575 126.8230 C269.0350 124.7345 260.3375 116.8307 252.6425 118.5400 C247.3030 119.7260 236.0095 126.8767 232.1330 126.8630 C231.1382 126.8595 230.3658 126.2460 229.8855 125.4163 C228.3880 122.8300 230.2815 114.9467 230.9175 111.9008 C230.6960 110.4323 230.0745 110.1223 229.0390 109.1097 C228.8027 107.4423 230.5470 105.2972 231.4328 103.9717 Z"></path>
<path id="" fill="#5c913b" fill-opacity="1.0" stroke="#000000" stroke-width="0.0" stroke-opacity="1.0" stroke-linecap="round" stroke-linejoin="round"  filling="0" d="M279.3200 102.1373 C279.3525 102.2705 279.3800 102.4048 279.4150 102.5370 C279.8775 104.2643 282.7375 105.6785 282.0300 107.5318 C281.0100 108.2925 280.1275 108.3105 278.9100 108.3798 C278.5825 106.2282 278.9475 104.2520 279.3200 102.1373 Z"></path>
<path id="" fill="#65943d" fill-opacity="1.0" stroke="#000000" stroke-width="0.0" stroke-opacity="1.0" stroke-linecap="round" stroke-linejoin="round"  filling="0" d="M230.9175 111.9008 C230.6960 110.4323 230.0745 110.1223 229.0390 109.1097 C228.8027 107.4423 230.5470 105.2972 231.4328 103.9717 C231.5125 106.5320 231.5330 109.4085 230.9175 111.9008 Z"></path>
<path id="" fill="#dc2e43" fill-opacity="1.0" stroke="#000000" stroke-width="0.0" stroke-opacity="1.0" stroke-linecap="round" stroke-linejoin="round"  filling="0" d="M327.1775 212.2928 C328.8025 215.4673 330.4950 218.6180 331.3050 222.1172 C333.0900 229.8255 331.4850 237.4288 327.3300 244.0825 C322.9975 251.0200 316.3925 255.2825 308.4725 257.0700 C301.3400 258.6800 293.1850 256.9775 287.0700 252.9625 C280.1875 248.4082 275.4300 241.2753 273.8675 233.1723 C272.4075 225.8575 274.6450 217.8335 278.7800 211.7242 C283.2900 205.0625 289.9775 201.0590 297.8500 199.5972 C306.8050 197.9342 314.2550 200.8477 321.5850 205.8418 C322.9975 205.9557 325.5075 205.8635 326.4150 207.1642 C327.3250 208.4715 326.9550 210.7507 327.1775 212.2928 Z"></path>
<path id="" fill="#40711d" fill-opacity="1.0" stroke="#000000" stroke-width="0.0" stroke-opacity="1.0" stroke-linecap="round" stroke-linejoin="round"  filling="0" d="M321.5850 205.8418 C322.9975 205.9557 325.5075 205.8635 326.4150 207.1642 C327.3250 208.4715 326.9550 210.7507 327.1775 212.2928 C325.3450 210.1178 323.3675 208.0580 321.5850 205.8418 Z"></path>
<path id="" fill="#dc2e44" fill-opacity="1.0" stroke="#000000" stroke-width="0.0" stroke-opacity="1.0" stroke-linecap="round" stroke-linejoin="round"  filling="0" d="M153.8470 327.0725 C162.2057 325.6675 170.6715 328.8900 175.9815 335.4950 C181.2912 342.1025 182.6165 351.0625 179.4462 358.9250 C176.2760 366.7850 169.1050 372.3175 160.6973 373.3925 C148.0475 375.0100 136.4300 366.2075 134.5645 353.5900 C132.6987 340.9750 141.2708 329.1875 153.8470 327.0725 Z"></path>
<path id="" fill="#a5d287" fill-opacity="1.0" stroke="#000000" stroke-width="0.0" stroke-opacity="1.0" stroke-linecap="round" stroke-linejoin="round"  filling="0" d="M347.4700 291.6075 C347.7450 291.5300 348.0875 291.4425 348.3725 291.4600 C349.2450 291.5175 350.3900 292.3550 351.1525 292.7925 C355.4275 295.2425 359.2075 297.7950 362.1775 301.8175 C365.5600 306.3950 367.4825 312.6425 366.5675 318.3200 C365.5725 324.4950 362.4025 330.5300 357.2325 334.2050 C352.5350 337.5450 346.2125 339.5150 340.4625 338.5725 C337.1475 337.9400 333.9375 337.1575 331.0975 335.2475 C325.7875 331.6725 321.6375 326.2575 320.4450 319.9250 C319.1900 313.2825 320.4750 307.4825 324.2800 301.9100 C327.6700 296.9425 333.5925 293.0575 339.6025 292.2900 C342.1350 291.9650 344.7675 292.1300 347.2700 291.6500 C347.3375 291.6375 347.4025 291.6225 347.4700 291.6075 Z"></path>
<path id="" fill="#fecb4c" fill-opacity="1.0" stroke="#000000" stroke-width="0.0" stroke-opacity="1.0" stroke-linecap="round" stroke-linejoin="round"  filling="0" d="M270.3150 315.4225 C283.1400 313.5075 295.0725 322.4075 296.8900 335.2475 C298.7100 348.0875 289.7200 359.9500 276.8675 361.6725 C264.1500 363.3750 252.4400 354.5025 250.6425 341.7975 C248.8420 329.0950 257.6275 317.3200 270.3150 315.4225 Z"></path>
<path id="" fill="#a5d287" fill-opacity="1.0" stroke="#000000" stroke-width="0.0" stroke-opacity="1.0" stroke-linecap="round" stroke-linejoin="round"  filling="0" d="M199.7993 246.0670 C212.3913 243.6495 224.5733 251.8500 227.0717 264.4275 C229.5700 277.0025 221.4480 289.2375 208.8880 291.8150 C196.2137 294.4200 183.8430 286.2050 181.3217 273.5150 C178.8005 260.8250 187.0925 248.5067 199.7993 246.0670 Z"></path>
<path id="" fill="#fecb4c" fill-opacity="1.0" stroke="#000000" stroke-width="0.0" stroke-opacity="1.0" stroke-linecap="round" stroke-linejoin="round"  filling="0" d="M230.2175 171.0680 C233.6835 170.7453 237.2832 170.7960 240.5050 172.2465 C246.3645 174.8842 249.0570 180.4012 251.0950 186.1283 C251.3375 186.8060 251.7875 187.8692 251.7175 188.5788 C251.5125 190.7065 249.9507 193.8415 248.9935 195.8002 C246.4050 201.0972 242.6263 203.5697 237.1918 205.4227 C232.4075 206.3338 227.7805 205.8763 223.6685 203.0807 C220.0318 200.6085 216.9303 196.3565 216.1295 191.9930 C215.2908 187.4235 215.8765 182.1068 218.5980 178.2620 C221.3938 174.3123 225.4957 171.8987 230.2175 171.0680 Z"></path>
</svg>