<svg xmlns="http://www.w3.org/2000/svg" viewBox="0 0 512 512" height="512.0px" width="512.0px">
<path id="" fill="#f4abba" fill-opacity="1.0" stroke="#000000" stroke-width="0.0" stroke-opacity="1.0" stroke-linecap="round" stroke-linejoin="round"  filling="0" d="M161.4668 296.6475 C158.3683 295.9450 155.2173 296.0575 152.0630 295.8900 C149.2872 295.7425 146.5217 295.4050 143.7480 295.2225 C140.7495 295.0250 137.7238 295.0375 134.7360 294.7125 C115.7290 292.6525 100.0335 288.5875 82.8605 279.9800 C72.3593 274.7175 63.2028 268.9575 56.7660 258.7625 C48.1930 245.1860 51.3343 228.7135 54.7168 214.0185 C58.3450 198.2550 67.0312 174.5222 78.1127 162.6223 C80.5432 160.0123 83.5082 157.8255 86.5180 155.9325 C100.8755 146.9020 118.5283 149.9110 134.0822 153.5085 C148.0327 156.7355 163.1265 163.3785 175.5092 170.5013 C180.0170 173.0920 184.4575 175.7980 188.8265 178.6165 C190.7355 179.8472 192.5692 181.3610 194.5397 182.4715 C195.2628 182.8790 195.9275 183.1718 196.7343 183.3638 L197.0015 183.1610 C197.3887 179.3675 194.1895 172.0193 193.0200 168.1540 C192.4543 166.2843 192.0400 164.3670 191.6198 162.4603 C189.3290 152.4975 187.8210 142.3705 187.1100 132.1723 C185.9023 112.5262 188.0975 83.5595 204.3435 70.2210 C216.2122 60.4765 232.9483 58.6763 247.7007 57.7572 C250.7050 57.5700 253.7325 57.0565 256.7425 57.0620 C262.6775 57.0728 268.9650 57.8432 274.8775 58.4510 C288.8475 59.8862 303.5400 64.0900 312.7025 75.4320 C320.5300 85.1178 324.0200 101.0107 324.9050 113.2647 C325.2075 117.4595 325.0825 121.7085 325.0750 125.9128 C325.0650 130.3110 325.1525 134.7018 324.6650 139.0800 C323.4550 149.2165 321.5225 159.2535 318.8825 169.1142 C318.0900 172.0655 314.6625 181.1365 315.0650 183.6035 C315.5975 183.9043 315.9400 184.1265 316.5650 183.9668 C318.1950 183.5482 330.5775 174.2620 333.5700 172.4510 C338.1925 169.6540 343.0250 166.8240 347.9050 164.5075 C366.7375 155.5643 400.6700 143.9990 420.7200 153.2930 C425.2375 155.3873 428.8675 158.2915 432.3975 161.7545 C434.4025 163.7225 436.4625 165.7130 438.1975 167.9258 C444.7275 176.2493 448.8900 186.7695 452.4500 196.6435 C456.5350 207.9730 461.1025 225.3412 460.9350 237.4435 C460.8525 243.3103 459.7975 249.3590 457.2725 254.6725 C449.2075 271.6375 431.2450 280.6425 414.2975 286.6175 C403.1050 290.5650 386.4125 294.3625 374.5875 294.9575 C371.5650 295.1100 368.5325 295.0700 365.5150 295.2875 C362.7750 295.4875 359.9975 295.9700 357.2550 295.9700 C355.3475 295.9675 351.1225 294.6725 349.8000 295.6600 C349.6850 296.0525 349.5325 296.2000 349.7450 296.5900 C350.1550 297.3300 365.7750 307.9075 368.0775 309.8125 C371.2575 312.4450 374.1100 315.4950 377.0225 318.4150 C380.1675 321.5675 383.5350 324.6600 386.4400 328.0350 C390.3050 332.5200 393.7550 337.5150 397.0400 342.4325 C405.0100 354.3675 412.5775 367.4025 413.5750 382.0750 C413.8200 385.6725 413.2875 389.4825 412.5275 392.9925 C411.3200 398.5625 408.1075 404.9275 404.6825 409.4800 C402.8450 411.9225 400.5875 414.0275 398.4325 416.1825 C390.4650 424.1575 381.8950 431.5250 372.3675 437.6025 C368.9950 439.7550 365.4525 441.6575 361.9600 443.6000 C350.5125 449.9650 337.4250 456.3075 323.9600 453.2800 C303.6025 448.7025 286.7075 426.5675 276.1650 409.6875 C270.5200 400.6475 265.9650 390.5175 262.1175 380.6000 C260.5750 376.6300 258.8700 369.0975 256.7500 365.8775 L255.2325 365.7075 C254.5300 366.1225 254.4000 366.5175 254.1950 367.3025 C248.2440 390.1150 237.2040 410.3700 222.1910 428.4850 C216.1927 435.7225 209.9435 442.4425 201.7905 447.3250 C191.5782 453.4425 181.9330 455.6625 170.3443 452.6550 C150.7782 447.5775 114.1715 421.8275 103.9733 404.4850 C98.6430 395.4225 97.4798 382.2575 100.1747 372.1425 C101.4580 367.3250 103.4918 363.0375 105.6783 358.5975 C107.5810 354.7325 109.4677 350.8775 111.7083 347.1925 C118.6480 335.7850 130.1255 321.8950 140.3362 313.3150 C143.7348 310.4600 147.1295 307.5100 150.6980 304.8700 C154.0372 302.4000 158.1882 300.0625 161.0455 297.0850 C161.1330 296.9925 161.2233 296.9050 161.3110 296.8125 C161.3638 296.7600 161.4150 296.7025 161.4668 296.6475 Z"></path>
<path id="" fill="#fffbfc" fill-opacity="1.0" stroke="#000000" stroke-width="0.0" stroke-opacity="1.0" stroke-linecap="round" stroke-linejoin="round"  filling="0" d="M255.8700 359.8050 C256.2725 361.2025 257.4300 364.4025 257.0200 365.6925 L256.7500 365.8775 L255.2325 365.7075 C254.5500 364.3975 255.5550 361.2200 255.8700 359.8050 Z"></path>
<path id="" fill="#fefefe" fill-opacity="1.0" stroke="#000000" stroke-width="0.0" stroke-opacity="1.0" stroke-linecap="round" stroke-linejoin="round"  filling="0" d="M447.9600 188.7357 C448.4800 188.6853 448.7125 188.7068 449.1825 188.9362 C452.1650 193.3370 456.8050 209.3630 457.4325 214.8105 C451.1000 215.2325 447.5200 216.4160 441.0600 215.1300 C440.0375 214.8943 439.0475 214.5697 438.0650 214.1990 C434.6525 212.9082 432.3550 210.8087 430.8675 207.4727 C430.9875 205.3350 431.4300 203.3350 432.3450 201.3922 C435.1400 195.4583 441.9525 190.8665 447.9600 188.7357 Z"></path>
<path id="" fill="#fefefe" fill-opacity="1.0" stroke="#000000" stroke-width="0.0" stroke-opacity="1.0" stroke-linecap="round" stroke-linejoin="round"  filling="0" d="M63.5495 188.6695 C65.0723 188.9075 66.5723 189.6402 67.9297 190.3542 C73.0275 193.0358 79.1325 197.9677 80.7855 203.7465 C81.3548 205.7372 81.2598 207.7603 80.2165 209.5785 C78.5710 212.4460 75.1332 214.1252 72.0778 215.0320 C65.5010 216.3665 61.4730 215.6470 54.9275 214.7153 C55.1772 208.8300 60.0770 193.2103 63.5495 188.6695 Z"></path>
<path id="" fill="#fefefe" fill-opacity="1.0" stroke="#000000" stroke-width="0.0" stroke-opacity="1.0" stroke-linecap="round" stroke-linejoin="round"  filling="0" d="M254.1325 57.0975 C258.9275 56.2935 264.2775 57.9272 269.1300 58.0465 C269.1050 61.9705 268.9350 65.7787 267.5450 69.4928 C265.5050 74.9440 262.4550 78.5705 257.1125 80.9770 C256.9675 81.0002 256.8225 81.0267 256.6750 81.0468 C254.7725 81.3087 252.6825 80.2455 251.2150 79.1042 C244.7640 74.0837 242.9855 65.6147 241.8890 57.9805 C246.0035 58.0180 250.0550 57.5945 254.1325 57.0975 Z"></path>
<path id="" fill="#fefefe" fill-opacity="1.0" stroke="#000000" stroke-width="0.0" stroke-opacity="1.0" stroke-linecap="round" stroke-linejoin="round"  filling="0" d="M368.1525 412.9800 C368.2650 412.9675 368.3750 412.9550 368.4875 412.9475 C374.1125 412.5225 382.0025 417.8775 386.0500 421.3450 C387.0725 422.2200 387.9825 423.1450 388.0850 424.5475 C387.0475 428.1375 379.1000 432.9150 375.8775 435.2000 C373.4675 436.9275 369.2500 440.4775 366.0875 440.1425 C364.8675 439.4175 364.1225 437.4325 363.5875 436.1550 C361.4950 431.1475 359.5100 423.4825 361.8125 418.2625 C363.0950 415.3550 365.3200 414.0525 368.1525 412.9800 Z"></path>
<path id="" fill="#fefefe" fill-opacity="1.0" stroke="#000000" stroke-width="0.0" stroke-opacity="1.0" stroke-linecap="round" stroke-linejoin="round"  filling="0" d="M141.6060 413.0200 C143.2490 412.8600 144.7280 413.1675 146.2495 413.8125 C148.2140 414.6475 149.7180 416.3825 150.4030 418.3850 C152.3855 424.1775 150.2140 433.2600 147.3950 438.4575 C147.0500 439.0925 146.5103 440.0425 145.7263 440.1750 C143.2620 440.5900 140.0315 437.6000 138.1295 436.1875 C135.0148 433.8475 124.9780 428.1800 123.9398 424.8875 C123.7798 424.3800 124.0172 423.8675 124.2845 423.4350 C127.7125 417.9075 135.6073 414.5800 141.6060 413.0200 Z"></path>
<path id="" fill="#fefefe" fill-opacity="1.0" stroke="#000000" stroke-width="0.0" stroke-opacity="1.0" stroke-linecap="round" stroke-linejoin="round"  filling="0" d="M264.6175 164.7953 C271.9825 165.5675 278.9675 168.2957 286.2250 169.4240 C285.6075 179.1087 282.7625 188.8370 280.5550 198.2733 C277.1825 212.6953 273.7025 227.0988 270.8075 241.6237 L271.1775 241.5195 C280.0175 238.9810 309.4275 214.8205 314.2800 215.8375 C316.4125 217.7312 324.5150 230.9953 325.6175 233.7890 C325.5450 233.8627 325.4725 233.9375 325.3975 234.0103 C321.7175 237.5988 316.4925 240.1570 312.1800 242.9390 C306.7525 246.4385 301.4700 250.1650 296.0200 253.6250 C293.1625 255.4400 289.7125 257.1150 287.2250 259.3925 C286.8250 259.7575 286.6075 260.0925 286.4900 260.6200 C286.7775 261.3175 286.9425 261.3900 287.6350 261.6700 C291.7500 263.3250 296.7400 264.0000 301.0750 264.9550 C312.0750 267.3800 323.3125 269.4000 334.1625 272.4150 C333.9675 280.1125 331.0275 286.8100 329.6525 294.2525 C323.2675 293.7325 317.4575 292.0450 311.2550 290.6350 C305.4325 289.3100 299.5850 288.1475 293.7725 286.7700 C289.5975 285.7800 285.1850 284.4850 280.9250 284.0300 C280.5775 284.4200 280.5650 284.4350 280.5950 284.9400 C280.8050 288.5275 287.8325 298.1275 290.0075 301.5175 C294.9725 309.2600 299.5625 317.2200 304.4350 325.0075 C307.7425 330.2950 312.9375 336.6950 314.9050 342.5675 C315.2300 343.5450 315.3075 344.1375 314.6425 344.9875 C313.2475 346.7700 299.6750 356.1450 297.8475 356.1875 C296.9700 356.2075 296.3975 355.4300 295.9000 354.8100 C292.2375 350.2325 288.8925 343.9475 285.8725 338.8350 C280.6775 330.0375 275.1675 321.4200 269.9400 312.6450 C267.4775 308.5125 265.3800 304.0125 262.6275 300.0750 C261.9550 299.1125 261.2175 298.1275 260.1875 297.5375 C259.6575 297.6525 259.8125 297.5200 259.5200 297.9375 C257.9375 300.1875 256.4675 308.4800 255.7725 311.6275 C253.9200 320.1625 252.0150 328.6850 250.0550 337.1950 C249.2910 340.4550 248.7620 343.9425 247.7272 347.1225 C247.5603 347.6350 247.1908 348.9050 246.6078 349.0575 C245.1763 349.4300 227.7040 344.7775 225.9455 343.6450 C225.6465 343.4525 225.4085 343.2200 225.1548 342.9750 C224.4890 338.7275 226.9200 332.0375 227.9763 327.7975 C229.6225 321.1150 231.3078 314.4425 233.0320 307.7800 C234.5853 301.9775 236.4440 296.2150 237.3020 290.2550 C232.3135 292.0100 227.9795 295.8475 223.6905 298.8675 C216.7173 303.7775 209.5445 308.5650 202.3788 313.1875 C199.6608 314.9425 196.8958 317.0825 194.0115 318.5075 C191.4427 314.7025 183.4575 302.9225 182.7780 299.0400 C183.0412 297.9825 184.1075 297.0750 184.9285 296.4225 C187.8472 294.0975 191.2725 292.2775 194.4303 290.2850 C198.9807 287.4100 203.4507 284.4150 208.0112 281.5525 C211.4057 279.4225 215.2935 277.1725 218.2068 274.4050 C217.9555 273.1000 217.9973 271.7500 217.9725 270.4225 C214.7092 269.8225 211.5145 268.8900 208.2895 268.1150 C203.0072 266.8750 197.7108 265.7000 192.4015 264.5825 L172.8410 260.6000 C170.2782 260.0550 167.4738 259.7350 165.0078 258.8600 C165.4850 255.3100 168.6570 239.0400 170.4238 237.1085 C174.3398 236.0690 183.3140 238.7610 187.5780 239.7135 L211.7498 245.1465 C216.2867 246.1862 221.0295 247.5975 225.6523 248.1537 C226.3257 248.2348 226.6395 248.1073 227.1862 247.7425 C227.5900 246.6510 227.2060 245.7357 226.7433 244.7218 C224.3277 239.4288 219.7265 233.3410 216.4767 228.3398 C212.5170 222.2455 208.8325 215.9830 204.8757 209.8860 C202.6237 206.4158 198.8565 201.6322 197.6628 197.7120 C200.9863 195.0282 213.3268 187.6248 216.9770 186.3938 C217.0385 186.4570 217.1010 186.5190 217.1615 186.5833 C219.7250 189.3070 221.5123 193.2770 223.4755 196.4710 L240.2055 223.4035 C242.0990 226.4240 243.6823 229.7668 245.7903 232.6335 C246.3338 233.3723 246.7473 234.0720 247.6845 234.3022 C248.4247 234.1857 248.5728 234.2435 249.0047 233.5782 C249.5208 232.7835 249.7585 231.6435 249.9705 230.7233 C251.5850 223.7198 252.6425 216.5590 254.1675 209.5258 C256.0900 200.6562 258.4475 191.8650 260.2800 182.9775 C261.2900 178.0827 262.6325 168.8065 264.6175 164.7953 Z"></path>
<path id="" fill="rgb(249,155,175)" fill-opacity="1.0" stroke="#000000" stroke-width="0.0" stroke-opacity="1.0" stroke-linecap="round" stroke-linejoin="round"  filling="0" d="M217.9725 270.4225 C219.8065 270.7400 221.6512 271.0325 223.4738 271.4100 L218.2068 274.4050 C217.9555 273.1000 217.9973 271.7500 217.9725 270.4225 Z"></path>
<path id="" fill="#fecc4d" fill-opacity="1.0" stroke="#000000" stroke-width="0.0" stroke-opacity="1.0" stroke-linecap="round" stroke-linejoin="round"  filling="0" d="M253.6675 219.3940 C279.0325 218.0838 300.6750 237.5517 302.0475 262.9150 C303.4200 288.2800 284.0050 309.9675 258.6450 311.4025 C233.1965 312.8425 211.4158 293.3450 210.0388 267.8925 C208.6617 242.4420 228.2117 220.7090 253.6675 219.3940 Z"></path>
<path id="" fill="#ea596e" fill-opacity="1.0" stroke="#000000" stroke-width="0.0" stroke-opacity="1.0" stroke-linecap="round" stroke-linejoin="round"  filling="0" d="M180.9998 287.1750 C193.7270 285.1350 205.6865 293.8325 207.6655 306.5700 C209.6445 319.3075 200.8880 331.2250 188.1415 333.1425 C175.4818 335.0475 163.6630 326.3625 161.6975 313.7125 C159.7320 301.0625 168.3587 289.2000 180.9998 287.1750 Z"></path>
<path id="" fill="#ea596e" fill-opacity="1.0" stroke="#000000" stroke-width="0.0" stroke-opacity="1.0" stroke-linecap="round" stroke-linejoin="round"  filling="0" d="M274.0050 131.1305 C286.6450 128.7025 298.8550 137.0050 301.2425 149.6532 C303.6300 162.3015 295.2900 174.4840 282.6350 176.8325 C270.0350 179.1705 257.9175 170.8748 255.5400 158.2825 C253.1625 145.6902 261.4200 133.5475 274.0050 131.1305 Z"></path>
<path id="" fill="#ea596e" fill-opacity="1.0" stroke="#000000" stroke-width="0.0" stroke-opacity="1.0" stroke-linecap="round" stroke-linejoin="round"  filling="0" d="M341.0775 263.2425 C353.8450 262.0025 365.2025 271.3400 366.4550 284.1075 C367.7100 296.8725 358.3825 308.2425 345.6175 309.5075 C332.8350 310.7775 321.4450 301.4325 320.1900 288.6475 C318.9350 275.8625 328.2900 264.4850 341.0775 263.2425 Z"></path>
<path id="" fill="#ea596e" fill-opacity="1.0" stroke="#000000" stroke-width="0.0" stroke-opacity="1.0" stroke-linecap="round" stroke-linejoin="round"  filling="0" d="M199.0392 166.1427 C211.6712 163.7145 223.8720 172.0115 226.2570 184.6517 C228.6418 197.2920 220.3027 209.4645 207.6545 211.8060 C195.0675 214.1360 182.9668 205.8463 180.5935 193.2672 C178.2200 180.6882 186.4682 168.5592 199.0392 166.1427 Z"></path>
<path id="" fill="#ea596e" fill-opacity="1.0" stroke="#000000" stroke-width="0.0" stroke-opacity="1.0" stroke-linecap="round" stroke-linejoin="round"  filling="0" d="M233.7605 333.3575 C246.6000 333.1050 257.2100 343.3175 257.4475 356.1575 C257.6850 368.9975 247.4617 379.5950 234.6217 379.8175 C221.8017 380.0425 211.2242 369.8375 210.9868 357.0175 C210.7490 344.1975 220.9413 333.6100 233.7605 333.3575 Z"></path>
<path id="" fill="#ea596e" fill-opacity="1.0" stroke="#000000" stroke-width="0.0" stroke-opacity="1.0" stroke-linecap="round" stroke-linejoin="round"  filling="0" d="M313.0100 339.1000 C325.7550 337.9225 337.0500 347.2850 338.2600 360.0300 C339.4675 372.7725 330.1350 384.0900 317.3925 385.3300 C304.6075 386.5750 293.2400 377.2025 292.0275 364.4125 C290.8150 351.6250 300.2175 340.2825 313.0100 339.1000 Z"></path>
<path id="" fill="#ea596e" fill-opacity="1.0" stroke="#000000" stroke-width="0.0" stroke-opacity="1.0" stroke-linecap="round" stroke-linejoin="round"  filling="0" d="M147.9195 221.1145 C160.5753 218.7708 172.7210 227.1735 174.9905 239.8427 C177.2598 252.5125 168.7858 264.6075 156.1033 266.8025 C143.5260 268.9800 131.5517 260.5900 129.3013 248.0267 C127.0508 235.4625 135.3687 223.4390 147.9195 221.1145 Z"></path>
<path id="" fill="#ea596e" fill-opacity="1.0" stroke="#000000" stroke-width="0.0" stroke-opacity="1.0" stroke-linecap="round" stroke-linejoin="round"  filling="0" d="M326.9425 194.1285 C339.5800 191.8268 351.6850 200.2315 353.9450 212.8785 C356.2050 225.5255 347.7600 237.6020 335.1075 239.8205 C322.5125 242.0285 310.5025 233.6317 308.2525 221.0435 C306.0050 208.4555 314.3600 196.4195 326.9425 194.1285 Z"></path>
</svg>