<svg xmlns="http://www.w3.org/2000/svg" viewBox="0 0 512 512" height="512.0px" width="512.0px">
<path id="" fill="#ccd6dd" fill-opacity="1.0" stroke="#000000" stroke-width="0.0" stroke-opacity="1.0" stroke-linecap="round" stroke-linejoin="round"  filling="0" d="M371.0025 175.9698 C374.9150 175.7000 378.9650 175.9232 382.8900 175.9350 L404.1275 175.9565 C404.0600 181.2975 403.1175 186.5510 403.0675 191.8732 C403.0350 195.3177 403.6625 198.7005 403.7325 202.1257 C403.7850 204.6617 403.1150 207.1935 403.1500 209.7357 C403.2025 213.2728 403.8525 216.8013 403.8700 220.3280 C403.8825 222.9540 403.3700 225.5683 403.3600 228.1925 L403.0550 265.2800 C403.0475 273.4350 402.8875 281.6325 403.1025 289.7825 C403.1875 293.0475 403.6750 296.3075 403.7075 299.5675 C403.7325 302.1275 403.2825 304.6800 403.3275 307.2475 C403.3775 310.0000 403.8925 312.7450 403.8975 315.4975 C403.9025 317.8950 403.4650 320.2975 403.3450 322.6925 C403.2450 324.6650 403.4850 326.6400 403.4575 328.6125 C403.4225 331.1275 403.1150 333.6250 403.1350 336.1450 C403.1600 339.5325 403.6725 342.8675 403.8625 346.2400 C404.0025 348.7500 403.6575 351.2450 403.6725 353.7525 C403.6900 356.5750 404.1100 359.4025 404.1400 362.2325 C404.1800 365.7000 402.8150 369.4100 403.2925 372.7925 C403.8325 373.3150 415.9825 376.3550 418.3225 377.1725 C423.6050 379.0175 428.3150 381.5325 432.8275 384.8525 C442.1700 391.7275 447.0700 398.9650 448.8350 410.3650 C449.0900 412.2450 449.1550 414.1425 449.2525 416.0350 C430.5275 415.7150 411.7275 415.9275 393.0000 416.0175 C388.6000 416.0400 384.2475 417.0900 379.8550 416.9500 C377.0075 416.8600 374.2475 415.9025 371.3975 415.7750 C371.3025 415.7700 371.2075 415.7675 371.1125 415.7650 C370.8350 412.3875 370.9625 408.9300 370.9650 405.5400 L370.9775 389.2650 L370.9775 337.1975 L371.0025 175.9698 Z"></path>
<path id="" fill="#5d9040" fill-opacity="1.0" stroke="#000000" stroke-width="0.0" stroke-opacity="1.0" stroke-linecap="round" stroke-linejoin="round"  filling="0" d="M232.0970 200.3922 C233.6082 200.2585 235.1325 200.2417 236.6490 200.2130 C243.6540 200.0797 250.5875 200.5525 257.5700 201.0475 C286.3750 203.0895 315.1625 208.7162 341.1300 221.7720 C350.2050 226.3355 359.0600 231.8105 366.3825 238.9272 C372.7600 245.1257 378.3075 253.3900 380.4150 262.1125 C382.2050 269.5175 381.8000 277.4425 381.8100 285.0100 L381.8225 306.0025 L381.7900 389.4600 C381.7925 394.0875 381.8550 398.7300 381.7225 403.3550 C381.6325 406.4750 381.2700 409.6025 381.3300 412.7225 L381.3400 413.0450 C365.2775 412.3675 349.0200 412.8275 332.9375 412.8300 L246.8125 412.8325 L146.0485 412.8350 L114.4553 412.8325 C108.6703 412.8325 102.6667 412.5075 96.9092 413.0150 C97.2285 408.5525 97.0277 403.9675 97.0285 399.4925 L97.0273 375.6050 L97.0233 300.8475 L96.9980 279.8600 C96.9780 274.8350 96.6280 269.5800 97.5082 264.6175 C98.8213 257.2200 102.5975 249.3435 107.5908 243.7258 C116.2930 233.9350 126.6633 227.1125 138.2940 221.3190 C167.5988 206.7218 199.7563 202.1577 232.0970 200.3922 Z"></path>
<path id="" fill="#3f7123" fill-opacity="1.0" stroke="#000000" stroke-width="0.0" stroke-opacity="1.0" stroke-linecap="round" stroke-linejoin="round"  filling="0" d="M376.6150 395.8875 L381.3675 395.7150 C381.9550 403.2850 382.6950 419.5100 379.3925 425.9525 C377.5125 429.6200 373.8950 432.0650 370.0000 433.2500 C365.6750 434.5650 356.0250 433.9400 351.2000 433.9400 L327.3425 433.9225 L244.0635 433.9175 L155.8780 433.9275 L127.8033 433.9650 C122.5590 433.9750 117.2360 434.1625 112.0000 433.8875 C108.8900 433.7250 106.3392 432.7300 103.6230 431.2825 C100.8310 429.5925 98.3398 426.7500 97.5202 423.5300 C96.5955 419.8950 96.2988 398.8875 97.8570 396.3525 C99.8240 395.4375 155.2988 395.9675 162.2823 395.9675 L301.4725 395.9575 C326.5000 395.9625 351.5925 396.3300 376.6150 395.8875 Z"></path>
<path id="" fill="#77b058" fill-opacity="1.0" stroke="#000000" stroke-width="0.0" stroke-opacity="1.0" stroke-linecap="round" stroke-linejoin="round"  filling="0" d="M387.5450 283.3525 C392.6625 282.9150 397.9950 284.2450 402.7475 286.0575 C412.1350 289.5850 419.6875 296.7750 423.6750 305.9775 C427.8100 315.4150 427.9900 325.3200 424.1950 334.8825 C419.9050 345.7000 412.5350 351.9300 402.0525 356.4600 C401.7150 374.7075 402.0775 393.0300 402.0525 411.2850 C402.0425 418.9750 402.4825 427.0075 401.8625 434.6650 C401.2775 441.8875 398.5650 448.8275 392.8975 453.5825 C387.7850 457.8725 380.8725 459.8350 374.2625 459.2625 C367.9475 458.7125 361.6550 455.5950 357.5700 450.7075 C350.2250 441.9175 350.9650 429.8025 351.0075 419.0350 C351.0250 414.6575 350.8125 410.1275 351.2100 405.7750 C348.7175 406.0475 346.1150 405.9100 343.6100 405.9125 L330.8225 405.9125 L289.0850 405.9075 L183.6597 405.9125 C164.7798 405.9125 145.8020 405.5250 126.9330 406.0200 C125.7215 410.3100 126.9165 414.6575 126.9807 419.0425 C127.1480 430.4850 127.6765 442.8450 119.0287 451.6550 C114.4200 456.2575 108.1902 458.8700 101.6765 458.9325 C94.9713 458.9475 88.5973 456.4525 83.8380 451.7150 C76.9222 444.8300 76.0525 437.0800 76.0410 427.7750 L76.0493 416.1250 C76.0457 396.2925 75.5738 376.3225 76.2255 356.5075 C74.7737 356.0075 73.3550 355.4825 71.9723 354.8100 C63.1450 350.5075 56.4140 342.8425 53.2880 333.5325 C49.9650 323.7725 50.4287 313.6500 55.0485 304.3525 C59.5602 295.2700 67.1403 288.7875 76.7442 285.5725 C87.0757 282.1125 95.9733 282.8400 105.6655 287.7225 C115.7603 292.8100 123.6568 302.6700 125.7140 313.8850 C126.5107 318.2300 126.1200 322.9900 126.1125 327.4025 L126.0827 349.0000 C126.0830 352.2725 125.5955 358.1625 126.5663 361.0800 L127.0800 361.1650 C129.8140 359.8750 131.7560 355.6800 133.8513 353.4725 C139.2305 347.8075 148.2400 346.0825 155.6870 345.9600 C167.6497 345.7675 179.6460 345.9375 191.6125 345.9350 C200.1487 345.9350 209.1975 345.3250 217.6265 346.6300 C221.3062 347.2000 224.2890 348.1350 227.3880 350.2500 C231.3085 352.9225 234.4698 356.5625 236.5627 360.8200 C237.0615 361.8450 237.4388 363.5075 238.2375 364.2800 C238.8318 364.3775 239.0215 364.4775 239.5125 364.0300 C240.1998 363.4050 240.8123 361.9050 241.2930 361.0650 C243.9080 356.4975 246.3595 352.8775 250.9200 350.0175 C254.6800 347.6600 259.1925 346.7200 263.5500 346.2250 C267.3225 345.7975 271.1825 345.9425 274.9750 345.9375 L291.1950 345.9300 L312.2050 345.9325 C318.9650 345.9350 325.9950 345.4925 332.6125 347.0750 C338.7800 348.5500 343.8200 352.2150 347.4250 357.4100 C348.3325 358.7175 348.9600 360.4325 349.9225 361.6300 C350.3300 362.1400 350.7800 362.1825 351.3900 362.2775 C353.0850 359.8275 350.8800 320.8000 352.4025 313.4650 C353.6150 307.6375 356.6425 301.5350 360.5025 297.0100 C367.1550 289.2075 377.3525 284.1925 387.5450 283.3525 Z"></path>
<path id="" fill="#fcab40" fill-opacity="1.0" stroke="#000000" stroke-width="0.0" stroke-opacity="1.0" stroke-linecap="round" stroke-linejoin="round"  filling="0" d="M356.3700 52.6017 C356.4400 52.5865 356.5125 52.5632 356.5850 52.5558 C359.6625 52.2323 362.9925 52.4615 366.0950 52.4600 L384.1075 52.4583 L404.7875 52.4652 C409.1750 52.4680 413.9075 52.1000 418.2225 52.9265 C421.5800 53.5692 424.4450 55.0510 426.9725 57.3440 C430.9250 60.9303 433.5050 65.0285 435.5750 69.9140 C438.3225 76.3935 439.9875 83.3108 441.9175 90.0670 L450.5250 120.2220 L457.2850 143.8103 C458.5250 148.1460 460.9375 154.7250 461.0425 159.0918 C461.1475 163.4695 458.8950 167.5860 455.8700 170.6280 C448.7325 177.8030 438.9725 178.0553 429.5300 178.0500 L416.8750 178.0290 L359.1175 178.0242 L343.0575 178.0545 C339.0850 178.0623 334.9300 178.2915 331.0050 177.5950 C326.7800 176.8450 322.3350 174.5753 318.9800 171.9390 C315.2750 169.0278 312.3925 165.1795 311.8825 160.3785 C311.6450 158.1400 312.0725 155.6978 312.5575 153.5085 C313.6975 148.3600 315.4000 143.2395 316.8500 138.1655 L324.8700 110.1060 L331.9275 85.4092 C333.5250 79.7960 334.9650 74.0545 337.0250 68.5890 C338.1950 65.4843 339.6325 62.7962 341.7425 60.2247 C345.5675 55.5645 350.4375 53.1890 356.3700 52.6017 Z"></path>
</svg>