<svg xmlns="http://www.w3.org/2000/svg" viewBox="0 0 512 512" height="512.0px" width="512.0px">
<path id="" fill="#66757f" fill-opacity="1.0" stroke="#000000" stroke-width="0.0" stroke-opacity="1.0" stroke-linecap="round" stroke-linejoin="round"  filling="0" d="M221.3445 70.3163 C305.4100 69.5570 374.1950 137.0493 375.0325 221.1142 C375.8675 305.1800 308.4375 374.0250 224.3743 374.9400 C140.2012 375.8525 71.2455 308.3175 70.4082 224.1440 C69.5710 139.9702 137.1698 71.0762 221.3445 70.3163 Z"></path>
<path id="" fill="rgb(0,0,0)" fill-opacity="0.027451" stroke="#000000" stroke-width="0.0" stroke-opacity="1.0" stroke-linecap="round" stroke-linejoin="round"  filling="0" d="M0.6766 0.0000 L511.3225 0.0000 C508.2025 0.6650 504.4600 0.3195 501.2650 0.3163 L484.2875 0.2973 L415.9925 0.2969 L147.6600 0.2999 L40.7298 0.2926 L15.1412 0.3109 C10.7615 0.3248 4.9184 0.8886 0.6766 0.0000 Z"></path>
<path id="" fill="rgb(0,0,0)" fill-opacity="0.0196078" stroke="#000000" stroke-width="0.0" stroke-opacity="1.0" stroke-linecap="round" stroke-linejoin="round"  filling="0" d="M1.3091 512.0000 C3.3875 511.2775 25.6402 511.7425 29.6990 511.7425 L108.8480 511.7450 L408.0800 511.7525 L481.9375 511.7525 L501.0200 511.7350 C504.2850 511.7300 508.1175 511.3450 511.2925 512.0000 L1.3091 512.0000 Z"></path>
<path id="" fill="rgb(0,0,0)" fill-opacity="0.027451" stroke="#000000" stroke-width="0.0" stroke-opacity="1.0" stroke-linecap="round" stroke-linejoin="round"  filling="0" d="M0.0000 0.9172 C0.7097 3.9909 0.2566 8.0218 0.2535 11.1965 L0.2509 30.6735 L0.2530 111.2188 L0.2531 439.7300 L0.2509 490.8325 C0.2507 494.5500 0.7518 508.0600 0.0000 510.5825 L0.0000 0.9172 Z"></path>
<path id="" fill="#ffffff" fill-opacity="0.027451" stroke="#000000" stroke-width="0.0" stroke-opacity="1.0" stroke-linecap="round" stroke-linejoin="round"  filling="0" d="M0.6766 0.0000 L511.3225 0.0000 C508.2025 0.6650 504.4600 0.3195 501.2650 0.3163 L484.2875 0.2973 L415.9925 0.2969 L147.6600 0.2999 L40.7298 0.2926 L15.1412 0.3109 C10.7615 0.3248 4.9184 0.8886 0.6766 0.0000 Z"></path>
<path id="" fill="#ffffff" fill-opacity="0.0196078" stroke="#000000" stroke-width="0.0" stroke-opacity="1.0" stroke-linecap="round" stroke-linejoin="round"  filling="0" d="M1.3091 512.0000 C3.3875 511.2775 25.6402 511.7425 29.6990 511.7425 L108.8480 511.7450 L408.0800 511.7525 L481.9375 511.7525 L501.0200 511.7350 C504.2850 511.7300 508.1175 511.3450 511.2925 512.0000 L1.3091 512.0000 Z"></path>
<path id="" fill="#ffffff" fill-opacity="0.027451" stroke="#000000" stroke-width="0.0" stroke-opacity="1.0" stroke-linecap="round" stroke-linejoin="round"  filling="0" d="M0.0000 0.9172 C0.7097 3.9909 0.2566 8.0218 0.2535 11.1965 L0.2509 30.6735 L0.2530 111.2188 L0.2531 439.7300 L0.2509 490.8325 C0.2507 494.5500 0.7518 508.0600 0.0000 510.5825 L0.0000 0.9172 Z"></path>
<path id="" fill="#f4f7f9" fill-opacity="1.0" stroke="#000000" stroke-width="0.0" stroke-opacity="1.0" stroke-linecap="round" stroke-linejoin="round"  filling="0" d="M199.7943 100.1400 C201.4360 100.0202 203.1030 100.0023 204.7490 99.9825 C209.7428 99.9230 214.8022 99.8370 219.7812 100.2357 C239.4102 101.8080 262.4525 107.7402 278.7500 119.2063 C282.3450 121.7357 285.6925 124.8110 288.8175 127.8980 C298.2150 137.1772 301.7175 149.6443 299.4975 162.5385 C298.3450 169.2328 295.5375 176.0950 293.0275 182.3927 C288.3725 194.0825 283.0800 205.7753 280.6025 218.1710 C278.4825 228.7872 278.6550 239.9655 279.1600 250.7500 C279.3700 255.2450 279.7500 259.7050 279.7825 264.2100 C279.8150 269.1450 279.5375 273.9425 279.1650 278.8625 C278.0350 293.7175 274.9325 307.5500 264.0025 318.5300 C249.4665 333.1325 225.4223 339.9550 205.2307 340.0075 C179.7198 340.1000 155.7253 330.4200 136.5728 313.6875 C119.4297 298.7075 105.8683 277.4050 104.4522 254.2475 C104.2830 251.4775 104.5370 248.7408 104.8643 245.9917 C105.2855 242.4525 105.8500 239.0430 107.0445 235.6675 C109.7678 227.9725 114.6190 221.4617 118.9165 214.6220 C122.5663 208.8132 126.0580 201.9527 128.0985 195.4017 C129.7162 190.2075 130.0788 185.1342 130.3347 179.7533 C130.5035 176.2055 130.8438 172.6510 130.9115 169.1005 C130.9967 164.6142 130.8302 160.0862 131.2410 155.6133 C132.1295 145.9368 136.3062 136.6255 142.5410 129.2063 C142.7920 128.9077 143.0475 128.6133 143.3080 128.3230 C156.7827 113.2907 179.4810 101.2162 199.7943 100.1400 Z"></path>
<path id="" fill="#292f33" fill-opacity="1.0" stroke="#000000" stroke-width="0.0" stroke-opacity="1.0" stroke-linecap="round" stroke-linejoin="round"  filling="0" d="M217.2270 51.1118 C247.0665 50.6187 276.5425 57.7200 302.8825 71.7487 C342.3975 92.8402 371.9125 128.7710 384.9275 171.6310 C397.1800 211.2720 394.4600 254.0300 377.2900 291.8000 C374.7500 297.3675 372.0000 303.0275 368.8500 308.2775 C366.6300 311.9750 363.9825 315.4950 361.9775 319.3050 L361.8000 319.6425 C367.9975 322.2000 375.5375 327.1300 381.4775 330.5650 C393.9925 337.7375 406.3150 345.2325 418.4375 353.0450 C424.6125 357.0200 431.1475 361.0125 436.8450 365.6525 C441.6925 369.6025 446.2075 374.5000 449.5950 379.7525 C452.0850 383.6500 454.1875 387.7800 455.8775 392.0850 C458.1525 397.9000 461.8475 411.4950 460.3475 417.7575 C457.0800 431.3800 438.9975 448.6925 427.3400 455.8700 C417.2000 462.1125 411.0425 461.5000 399.7125 458.7750 C389.1650 456.2375 376.7925 450.0225 369.0075 442.2525 C365.5100 438.7625 362.6150 434.4900 359.7950 430.4500 C355.0950 423.6250 350.5750 416.6775 346.2400 409.6175 C341.2950 402.4400 337.0250 394.4850 332.6175 386.9650 C327.8900 378.8975 322.6775 370.6775 318.7075 362.2075 C291.0975 380.7375 262.1550 390.5250 228.9480 392.3500 C184.5110 394.7925 139.0580 377.2950 106.2242 347.6250 C99.9538 341.8550 94.1548 335.5900 88.8830 328.8950 C65.9685 300.3025 52.7802 265.1400 51.2390 228.5293 C49.1275 185.8293 65.5638 139.8947 94.2690 108.1898 C126.5782 72.5042 169.3610 53.4980 217.2270 51.1118 Z M233.3645 357.6050 C308.2950 351.2725 363.9175 285.4150 357.6250 210.4803 C351.3325 135.5462 285.5050 79.8878 210.5685 86.1390 C135.5725 92.3950 79.8613 158.2838 86.1588 233.2762 C92.4560 308.2700 158.3755 363.9450 233.3645 357.6050 Z"></path>
<path id="" fill="#feac33" fill-opacity="1.0" stroke="#000000" stroke-width="0.0" stroke-opacity="1.0" stroke-linecap="round" stroke-linejoin="round"  filling="0" d="M198.0465 210.3565 C223.1725 209.7585 244.0558 229.5827 244.7645 254.7050 C245.4735 279.8300 225.7413 300.8000 200.6215 301.6200 C175.3445 302.4450 154.2142 282.5625 153.5010 257.2800 C152.7878 232.0007 172.7632 210.9585 198.0465 210.3565 Z"></path>
</svg>