<svg xmlns="http://www.w3.org/2000/svg" viewBox="0 0 512 512" height="512.0px" width="512.0px">
<path id="" fill="#be1931" fill-opacity="1.0" stroke="#000000" stroke-width="0.0" stroke-opacity="1.0" stroke-linecap="round" stroke-linejoin="round"  filling="0" d="M175.9475 155.1110 C190.2765 154.3350 203.7077 156.3342 216.5905 162.8660 C225.1167 167.1890 231.3400 172.6280 234.3230 181.9190 C239.3568 197.5977 232.4800 216.8875 225.2625 230.9303 C206.9670 266.5275 172.2690 298.8200 133.8078 311.0675 C129.1958 312.3075 124.5135 313.7100 119.7247 314.0050 C108.4408 314.7000 98.1100 311.8575 89.5992 304.2900 C80.1633 295.9000 77.4893 282.6025 76.8613 270.5125 C75.3997 242.3907 88.0075 207.6070 106.9420 186.7928 C122.5488 169.6365 152.9158 156.1172 175.9475 155.1110 Z"></path>
<path id="" fill="#be1931" fill-opacity="1.0" stroke="#000000" stroke-width="0.0" stroke-opacity="1.0" stroke-linecap="round" stroke-linejoin="round"  filling="0" d="M323.4025 155.1082 C328.9625 154.7448 334.9050 154.8215 340.4300 155.4845 C365.3150 158.4718 393.8925 171.7643 409.5325 191.7970 C426.5000 213.5318 438.3725 248.9320 434.8825 276.4875 C433.4975 287.4325 430.0000 299.2675 420.8800 306.2575 C412.2025 312.9075 400.8875 315.0825 390.1925 313.6925 C365.7975 310.0900 343.7475 295.5150 325.4725 279.7025 C304.4575 261.5150 278.8250 225.8488 276.8150 197.3030 C276.1425 187.7660 277.9875 178.5095 284.4250 171.1758 C293.0925 161.3022 310.5150 155.8878 323.4025 155.1082 Z"></path>
<path id="" fill="#292f33" fill-opacity="1.0" stroke="#000000" stroke-width="0.0" stroke-opacity="1.0" stroke-linecap="round" stroke-linejoin="round"  filling="0" d="M253.9175 54.0485 C255.7550 53.9073 257.5575 53.9445 259.3625 54.3345 C261.7900 54.8587 263.6225 55.7995 265.1350 57.8000 C268.1750 61.8205 270.2500 69.9470 272.2125 74.7653 C274.5750 80.5165 277.4475 86.0450 280.7925 91.2855 C282.8400 94.5013 285.0475 97.2855 287.4625 100.2173 C298.6075 113.7455 312.2700 123.1038 329.7775 126.2708 C331.7175 126.6220 333.7150 126.9577 335.6900 127.0220 C339.2600 127.1378 343.1525 126.7458 346.6425 127.5995 C348.5525 128.0670 350.1175 129.0605 351.0975 130.7993 C352.3725 133.0627 352.3875 135.9010 351.6125 138.3335 C350.8650 140.6772 349.4350 142.2852 347.2275 143.3465 C337.5975 147.9772 316.0375 145.6435 306.0875 142.1353 C290.0625 136.4855 276.2250 124.0970 266.2725 110.6202 C264.0000 107.5437 261.6700 104.3380 260.0250 100.8788 C258.8150 98.8033 257.5425 96.7440 256.5175 94.5692 C253.6575 99.1105 251.3800 103.9918 248.4698 108.5150 C239.9635 121.7368 225.2170 138.1013 209.7480 142.7965 C205.5165 144.0810 201.1700 144.4648 196.7968 144.9527 C188.9350 145.8305 178.9382 147.5455 171.6645 143.4682 C169.4420 142.2225 167.6983 140.1577 167.0453 137.6743 C166.5007 135.5397 166.8432 133.2758 167.9948 131.3978 C168.8483 130.0013 170.2428 128.7242 171.8158 128.2080 C174.8237 127.2210 178.6495 127.7060 181.8125 127.4767 C185.1257 127.2363 188.5895 126.5298 191.7912 125.6732 C214.8873 119.4955 230.4160 97.8160 239.6575 76.9863 C240.8825 74.1917 241.9985 71.3510 243.0027 68.4698 C244.0475 65.4705 244.9308 62.2428 246.5403 59.4890 C248.2965 56.4852 250.5900 54.9375 253.9175 54.0485 Z"></path>
<path id="" fill="#feab33" fill-opacity="1.0" stroke="#000000" stroke-width="0.0" stroke-opacity="1.0" stroke-linecap="round" stroke-linejoin="round"  filling="0" d="M146.9998 129.1118 C150.1678 129.0025 153.3395 129.0760 156.4993 129.3320 C171.7487 130.5730 184.3943 134.3305 197.6998 141.7480 C199.8200 142.9300 202.0652 144.0060 204.0745 145.3670 C208.6152 148.4433 213.1703 152.6582 217.1207 156.4850 C219.6605 158.9450 222.2402 161.3938 224.5205 164.1013 C225.6848 165.4832 228.5330 168.5645 228.2390 170.4713 C228.1732 170.8980 227.9798 170.9258 227.6650 171.1707 C224.8488 171.3990 221.6667 168.6585 218.9820 167.7298 C204.0172 162.5538 186.8217 168.5473 173.2283 175.1463 C138.1158 192.1920 104.2225 228.4360 91.3978 265.4375 C88.2003 274.3225 86.6722 285.1350 88.7418 294.4000 C89.3813 297.2625 93.7645 303.7075 93.1712 306.0300 L92.7040 306.1750 C88.6775 305.2725 84.1267 301.2475 81.1892 298.5425 C78.3435 295.9250 75.8865 292.9025 73.4587 289.9025 C59.7110 272.9800 51.8650 252.0325 51.1145 230.2445 C50.2165 207.7755 59.2385 180.3172 74.7620 163.7650 C78.8690 159.3858 83.2647 154.7278 87.9033 150.9195 C104.2688 137.4840 125.8767 129.7318 146.9998 129.1118 Z"></path>
<path id="" fill="#feab33" fill-opacity="1.0" stroke="#000000" stroke-width="0.0" stroke-opacity="1.0" stroke-linecap="round" stroke-linejoin="round"  filling="0" d="M335.7875 133.4485 C338.5825 131.1260 345.7750 132.4348 348.0800 129.8900 C348.2475 129.7043 348.4050 129.5085 348.5825 129.3307 C350.5425 127.3587 352.7475 129.6107 354.9025 129.9258 C356.4475 130.1517 358.2000 130.0278 359.7700 130.0457 C364.0325 129.9982 368.2525 129.9523 372.5000 130.3750 C394.7275 132.7092 415.5300 142.4323 431.5775 157.9883 C450.1975 176.3472 460.7875 201.3358 461.0250 227.4837 C461.1925 253.5400 450.9925 278.5925 432.6725 297.1175 C430.3425 299.4950 423.7500 305.9300 420.4575 306.2500 L419.9275 306.0350 C419.5050 304.0175 423.0325 297.5900 423.7625 295.2250 C425.1950 290.5625 425.3100 285.4825 424.8625 280.6575 C422.8775 259.2925 409.3650 238.0690 396.3025 221.7135 C393.2200 217.8555 390.1700 214.0132 386.7675 210.4300 C384.3225 207.8535 381.5950 205.5473 378.9750 203.1515 C371.4150 196.2448 363.6400 189.5748 355.0325 183.9722 C351.7700 181.8500 348.3325 180.0480 344.9100 178.2052 C341.8375 176.5510 338.8150 174.7610 335.6375 173.3125 C324.7875 168.3658 309.3850 163.9857 297.5000 166.5745 C294.7500 167.1735 292.0425 168.2730 289.6150 169.6930 C288.4000 170.4037 287.2025 171.3387 285.8925 171.8565 C285.3600 172.0675 284.9500 172.1588 284.3750 172.0435 C283.9400 171.6065 283.8350 171.5145 283.8575 170.8470 C283.9075 169.4155 285.6750 167.4020 286.5150 166.2665 C293.4050 156.9487 300.6550 151.5895 309.9750 145.0945 C317.7550 139.6735 326.8325 136.3880 335.7875 133.4485 Z"></path>
<path id="" fill="#2f3333" fill-opacity="1.0" stroke="#000000" stroke-width="0.0" stroke-opacity="1.0" stroke-linecap="round" stroke-linejoin="round"  filling="0" d="M335.7875 133.4485 C338.5825 131.1260 345.7750 132.4348 348.0800 129.8900 C348.2475 129.7043 348.4050 129.5085 348.5825 129.3307 C350.5425 127.3587 352.7475 129.6107 354.9025 129.9258 C356.4475 130.1517 358.2000 130.0278 359.7700 130.0457 C356.2600 130.3430 352.7875 130.1690 349.2950 130.7320 C346.3425 131.2195 343.4025 131.7910 340.4825 132.4462 C339.0525 132.7600 337.2075 133.4438 335.7875 133.4485 Z"></path>
<path id="" fill="#aa8dd8" fill-opacity="1.0" stroke="#000000" stroke-width="0.0" stroke-opacity="1.0" stroke-linecap="round" stroke-linejoin="round"  filling="0" d="M312.2900 253.0850 C314.3575 252.9625 316.4850 253.1350 318.5225 253.4775 C327.2400 254.9425 337.2975 259.3150 342.5625 266.7250 C346.1425 271.7700 348.5150 277.9450 347.6175 284.1925 C347.2700 286.6125 346.4800 288.9475 346.0100 291.3425 C345.8025 292.3925 346.1500 293.3875 345.9450 294.4025 C345.8400 294.9175 345.9525 294.7300 345.5150 295.0250 L344.4225 294.4125 C343.7075 295.0825 343.2425 296.0950 342.6275 296.8700 C341.1950 298.6825 339.4525 300.2850 337.6025 301.6650 C327.8200 308.9625 318.5150 307.9275 307.0600 308.0050 C303.9750 308.0250 300.2825 308.2400 297.5100 309.7550 C296.8000 310.1450 296.5650 310.4950 296.3250 311.2525 C297.2625 316.2250 308.2475 317.0375 312.2775 317.7450 C314.2775 318.0925 316.2525 318.5675 318.1900 319.1725 C323.7475 320.9050 329.4800 323.9200 333.5100 328.1925 C337.9025 332.8450 341.2150 340.0550 340.9925 346.5325 C340.7600 353.3100 337.4900 359.6125 332.5575 364.1575 C326.4875 369.7450 317.7100 372.3700 309.5825 372.5000 C306.7725 372.5450 303.9775 372.1450 301.1725 372.0575 C298.4975 371.9750 291.7025 372.1525 289.9300 374.4275 C289.5875 374.8700 289.4200 375.3000 289.5800 375.8575 C290.8600 380.3575 301.8325 380.7850 305.5450 382.7600 C308.3250 384.2375 310.5075 386.6325 311.3275 389.7100 C312.0675 392.4825 311.5800 396.0300 310.0925 398.5175 C308.3375 401.4475 305.5875 403.1025 302.3600 403.9575 C297.7325 404.1750 293.2925 403.6475 288.8450 402.3275 C280.7275 399.9200 272.8400 394.3625 268.8275 386.7775 C265.9000 381.2400 265.0925 374.5775 267.0050 368.5675 C271.1375 355.5850 283.4400 349.4075 296.4300 348.9850 C301.7325 348.8125 311.2750 350.1675 315.8200 347.6850 C316.5850 347.2675 316.9775 346.8600 317.2350 346.0050 C316.6800 340.6025 300.3600 339.6600 295.8650 338.2025 C288.7450 335.8925 282.4450 332.2125 277.9375 326.1150 C273.9800 320.7625 272.2375 314.2375 273.2475 307.6300 C274.0575 302.3200 276.5275 297.7225 280.3525 293.9750 C295.8800 278.7550 316.3075 288.8575 323.3900 283.1025 C324.0375 282.5750 324.1450 282.1200 324.2050 281.3150 C322.3025 276.4700 310.8550 276.5800 306.7625 273.8750 C304.3550 272.2850 302.8150 269.6325 302.2800 266.8250 C301.6725 263.6175 302.5750 260.4875 304.4675 257.8750 C306.4525 255.1350 308.9650 253.5825 312.2900 253.0850 Z"></path>
<path id="" fill="#77b255" fill-opacity="1.0" stroke="#000000" stroke-width="0.0" stroke-opacity="1.0" stroke-linecap="round" stroke-linejoin="round"  filling="0" d="M194.2433 308.3525 C198.5950 307.7500 203.6880 308.4750 207.8845 309.7050 C214.9048 311.7675 220.7095 315.8800 224.1985 322.3900 C227.2380 328.0625 227.7133 334.3700 225.8483 340.4900 C222.8290 350.4000 214.8717 357.5775 205.3795 361.3325 C201.6880 362.7900 197.7495 363.5250 194.2375 365.4325 C192.1910 366.5450 188.8640 368.4800 188.1647 370.8075 C188.3135 371.4700 188.3927 371.7925 188.9735 372.1975 C193.0862 375.0575 204.3387 371.4250 208.9538 370.7400 C217.8107 369.4225 227.4583 370.8975 234.7417 376.3900 C239.5190 379.9950 243.1085 385.5225 243.9330 391.4875 C245.8192 405.1350 237.3810 416.7000 225.2920 422.3325 C220.2600 424.6775 209.4615 426.8175 206.2925 431.3300 C205.8618 431.9425 205.6790 432.5850 205.8660 433.3225 C206.0565 434.0750 206.8940 434.5050 207.4950 434.9125 C211.9800 435.5150 215.7815 434.7650 220.1913 434.2050 C223.6393 433.7675 226.7928 434.3300 229.5570 436.5725 C231.9455 438.5475 233.4435 441.3975 233.7162 444.4850 C233.9707 447.6500 232.7993 450.6375 230.6965 452.9850 C226.8700 457.2550 220.1732 457.9700 214.7238 458.2575 C209.4303 458.4125 204.3398 458.0350 199.3335 456.1825 C193.0750 453.8675 187.4630 449.3750 184.6780 443.2050 C181.8163 436.8675 181.8508 430.1750 184.3525 423.7125 C188.0100 414.2650 196.1367 408.3825 205.3407 404.9275 C208.3253 403.8075 211.6875 403.0325 214.5465 401.6650 C216.4775 400.7400 220.7595 398.1650 221.2285 395.9400 C221.3013 395.5950 221.2847 395.2025 221.0562 394.9200 C218.0047 391.1800 203.6370 395.5200 199.6107 396.0000 C195.8277 396.4400 192.0022 396.3600 188.2410 395.7600 C180.1788 394.4200 173.6297 390.7575 168.8855 383.9950 C165.4495 379.0950 164.4357 372.4350 165.4660 366.6125 C167.4465 355.4200 176.6283 347.3525 186.7578 343.2950 C191.5397 341.3775 196.5410 340.3075 200.8197 337.2925 C201.9953 336.4650 203.9490 335.2050 204.2005 333.7075 C203.9990 333.2050 203.9438 332.9775 203.4603 332.6725 C199.4283 330.1400 194.6053 331.6150 190.3615 332.4000 C186.6947 333.0800 183.3065 333.0050 180.1500 330.7475 C177.6210 328.9425 175.7563 326.0875 175.2578 323.0075 C174.7702 319.9950 175.7175 316.6700 177.5872 314.2775 C181.2405 309.6050 188.7860 308.9400 194.2433 308.3525 Z"></path>
<path id="" fill="#9266cc" fill-opacity="1.0" stroke="#000000" stroke-width="0.0" stroke-opacity="1.0" stroke-linecap="round" stroke-linejoin="round"  filling="0" d="M389.5425 333.0575 C402.1175 331.0525 413.9275 339.6450 415.8900 352.2275 C417.8500 364.8100 409.2175 376.5925 396.6275 378.5100 C384.1000 380.4175 372.3900 371.8350 370.4375 359.3150 C368.4850 346.7950 377.0275 335.0525 389.5425 333.0575 Z"></path>
<path id="" fill="#9266cc" fill-opacity="1.0" stroke="#000000" stroke-width="0.0" stroke-opacity="1.0" stroke-linecap="round" stroke-linejoin="round"  filling="0" d="M127.4482 378.5600 C139.9870 376.5850 151.7563 385.1425 153.7415 397.6800 C155.7267 410.2175 147.1770 421.9925 134.6407 423.9850 C122.0927 425.9800 110.3045 417.4200 108.3173 404.8725 C106.3303 392.3225 114.8975 380.5400 127.4482 378.5600 Z"></path>
<path id="" fill="#fecb4d" fill-opacity="1.0" stroke="#000000" stroke-width="0.0" stroke-opacity="1.0" stroke-linecap="round" stroke-linejoin="round"  filling="0" d="M130.7655 287.1100 C143.4175 286.9650 153.7980 297.0925 153.9657 309.7425 C154.1333 322.3950 144.0250 332.7925 131.3735 332.9825 C118.6908 333.1725 108.2613 323.0350 108.0930 310.3525 C107.9250 297.6675 118.0822 287.2575 130.7655 287.1100 Z"></path>
<path id="" fill="#fecb4c" fill-opacity="1.0" stroke="#000000" stroke-width="0.0" stroke-opacity="1.0" stroke-linecap="round" stroke-linejoin="round"  filling="0" d="M191.5200 196.1240 C201.0590 194.9292 209.7482 201.7258 210.8862 211.2717 C212.0242 220.8177 205.1760 229.4665 195.6232 230.5475 C186.1508 231.6195 177.5905 224.8412 176.4620 215.3752 C175.3338 205.9093 182.0607 197.3087 191.5200 196.1240 Z"></path>
<path id="" fill="#fecb4c" fill-opacity="1.0" stroke="#000000" stroke-width="0.0" stroke-opacity="1.0" stroke-linecap="round" stroke-linejoin="round"  filling="0" d="M361.4925 219.0680 C370.8750 217.2935 379.9175 223.4642 381.6850 232.8472 C383.4525 242.2300 377.2775 251.2675 367.8925 253.0300 C358.5175 254.7900 349.4900 248.6210 347.7225 239.2470 C345.9575 229.8730 352.1200 220.8405 361.4925 219.0680 Z"></path>
<path id="" fill="#5c913b" fill-opacity="1.0" stroke="#000000" stroke-width="0.0" stroke-opacity="1.0" stroke-linecap="round" stroke-linejoin="round"  filling="0" d="M78.0703 344.2625 C87.5342 343.3575 95.9405 350.2925 96.8530 359.7575 C97.7653 369.2200 90.8390 377.6325 81.3767 378.5550 C71.9012 379.4775 63.4735 372.5400 62.5598 363.0625 C61.6460 353.5875 68.5927 345.1650 78.0703 344.2625 Z"></path>
<path id="" fill="#5c913b" fill-opacity="1.0" stroke="#000000" stroke-width="0.0" stroke-opacity="1.0" stroke-linecap="round" stroke-linejoin="round"  filling="0" d="M339.0200 390.0275 C348.4350 388.4550 357.3300 394.8450 358.8475 404.2700 C360.3650 413.6925 353.9250 422.5500 344.4925 424.0150 C335.1375 425.4650 326.3650 419.0875 324.8600 409.7400 C323.3550 400.3925 329.6825 391.5850 339.0200 390.0275 Z"></path>
<path id="" fill="#5c913b" fill-opacity="1.0" stroke="#000000" stroke-width="0.0" stroke-opacity="1.0" stroke-linecap="round" stroke-linejoin="round"  filling="0" d="M249.5703 253.0375 C258.9825 252.4275 267.1300 259.5100 267.8325 268.9150 C268.5350 278.3200 261.5325 286.5375 252.1350 287.3350 C242.6050 288.1425 234.2467 281.0200 233.5332 271.4825 C232.8200 261.9425 240.0258 253.6550 249.5703 253.0375 Z"></path>
</svg>