<svg xmlns="http://www.w3.org/2000/svg" viewBox="0 0 512 512" height="512.0px" width="512.0px">
<path id="" fill="#bb1a34" fill-opacity="1.0" stroke="#000000" stroke-width="0.0" stroke-opacity="1.0" stroke-linecap="round" stroke-linejoin="round"  filling="0" d="M300.7850 53.3435 C301.0825 53.3980 301.3050 53.5355 301.5725 53.6725 C303.2200 56.2783 309.1975 89.8318 310.3125 95.4800 L324.0825 165.2285 C328.0750 163.7612 332.3525 162.9140 336.4800 161.9128 L354.5050 157.4270 L430.2325 138.3850 C433.6500 137.5125 458.2750 130.8635 459.1450 131.0290 L459.2650 131.4010 C458.8425 132.8607 457.6450 134.1440 456.6900 135.2953 C454.6900 137.7020 452.4525 139.9050 450.3925 142.2615 C442.7000 151.1500 434.8925 159.9370 426.9675 168.6200 L384.6050 216.5290 C381.7550 219.7855 378.8725 223.0513 375.9675 226.2575 C373.9800 228.4503 371.4025 230.7103 369.9275 233.2572 C369.8775 233.3430 369.8325 233.4310 369.7825 233.5180 C388.3900 246.6670 406.4425 260.7300 424.6275 274.4575 L449.1725 292.9400 C452.1350 295.2000 455.2450 297.3000 458.1075 299.6825 C458.6525 300.1375 459.3400 300.6400 459.5050 301.3575 C455.7150 302.1450 451.1175 301.7575 447.2375 301.7550 L427.2375 301.7325 C400.5050 301.8050 373.7750 301.7350 347.0450 301.5225 C347.7100 305.5350 348.7550 309.5400 349.5800 313.5275 C351.1850 321.6825 352.8650 329.8225 354.6175 337.9450 L371.2500 416.1300 C374.4125 430.8850 378.0175 445.5850 380.5175 460.4675 L294.9025 382.3775 C281.7900 370.6775 268.8175 358.8225 255.9875 346.8150 C251.0350 350.9825 245.0403 354.2500 239.6700 357.8750 L200.1125 384.4200 C195.1788 388.0325 189.9045 391.3000 184.7970 394.6700 L161.8255 409.9450 C150.5347 417.4425 139.5365 425.4850 128.0525 432.6825 C126.7120 433.5200 124.2117 435.3075 122.5895 435.3175 C122.1527 435.3225 122.3142 435.3550 121.9912 435.0075 C122.1208 433.1025 123.2950 431.0450 124.0957 429.3250 C126.1625 424.8875 128.5955 420.6225 130.7605 416.2300 C137.7940 401.8775 144.9102 387.5675 152.1093 373.2975 C164.0383 349.4300 175.5850 325.2950 188.0233 301.6900 C175.5777 301.4325 163.0485 301.6575 150.5938 301.6950 L92.2115 301.7025 C84.8662 301.6675 77.5208 301.6850 70.1758 301.7575 C65.8400 301.7950 61.2977 302.0800 56.9860 301.7050 C56.2023 301.6375 55.1348 301.6025 54.5948 300.9550 C54.6080 300.8800 54.6102 300.8050 54.6345 300.7325 C54.9162 299.9000 56.0797 299.2450 56.7970 298.8025 C58.9928 297.4450 61.4375 296.3500 63.7140 295.1175 C69.2475 292.1500 74.7610 289.1450 80.2545 286.1050 L145.3663 250.2650 C150.3217 247.5485 155.2263 244.7162 160.2130 242.0600 C165.3920 239.3013 170.9957 236.6328 175.8112 233.2795 L176.1862 233.0155 C170.8520 226.7408 164.5845 221.4402 158.7912 215.6340 L118.6185 175.0375 L100.2097 156.5920 C97.2377 153.6135 94.1280 150.7312 91.2613 147.6543 C90.3503 146.6763 88.8825 145.1707 88.5325 143.8770 C88.4138 143.4388 88.4265 143.6240 88.6858 143.1670 C91.3270 142.7370 121.4933 149.4510 126.6410 150.4868 C150.9077 155.3692 175.3412 159.7415 199.4545 165.3320 L199.1588 86.0725 C200.6087 86.8633 201.9095 87.7288 203.1378 88.8335 C206.6118 91.9585 209.8403 95.4658 213.1463 98.7733 L232.0892 117.7272 L246.0083 131.6620 C249.1422 134.8027 253.9100 138.7445 256.0625 142.5490 C258.0400 137.0770 261.0350 131.7108 263.6350 126.5042 L277.1275 99.5547 C282.3050 89.0250 287.5375 78.5212 292.8225 68.0443 C295.2475 63.2405 297.3925 57.5063 300.7850 53.3435 Z"></path>
<path id="" fill="#fbaa40" fill-opacity="1.0" stroke="#000000" stroke-width="0.0" stroke-opacity="1.0" stroke-linecap="round" stroke-linejoin="round"  filling="0" d="M234.2025 197.4340 L234.1025 165.3347 C234.0980 161.9427 233.5827 153.6015 234.3605 150.8200 C235.5250 150.6710 236.5388 151.4440 237.4315 152.1458 C240.7052 154.7190 243.6440 158.1512 246.5883 161.1175 L263.3500 177.9390 C265.1725 179.7708 267.6000 182.9865 269.8650 184.1653 C270.2525 184.3672 270.7775 184.2840 271.1925 184.2575 C272.0275 183.8438 272.4675 183.0345 272.9250 182.2592 C275.0850 178.6118 276.7575 174.5598 278.6550 170.7605 C283.4425 161.1680 288.0925 151.5033 293.0300 141.9895 C294.2950 139.5502 295.4475 136.1570 297.3800 134.1985 C297.9575 133.6135 298.2275 133.6085 298.9500 133.7995 C300.1500 134.9547 300.6375 138.8040 301.0100 140.4498 C301.7900 143.8947 302.2925 147.4218 302.9600 150.8920 L308.2775 178.1022 C309.0375 181.7408 309.8275 185.3725 310.6500 188.9970 C311.1375 191.0853 311.9450 193.3265 312.0175 195.4698 C312.0200 195.5712 312.0175 195.6730 312.0200 195.7745 C312.0250 195.8853 312.0325 195.9960 312.0375 196.1065 C312.0425 196.1730 312.0425 196.2397 312.0450 196.3062 C317.4550 196.4937 322.4100 194.4348 327.6075 193.2195 C339.6700 190.4670 351.6900 187.5217 363.6600 184.3845 C369.3500 182.8935 375.0400 181.5233 380.7450 180.1062 C383.3075 179.4700 385.8725 178.5295 388.4675 178.0907 C389.4900 177.9180 390.3175 177.7637 391.1850 178.3902 C391.3350 179.2205 390.9875 179.7930 390.5225 180.4465 C389.2950 182.1745 387.5625 183.6295 386.0825 185.1400 C384.2900 186.9662 382.5650 188.8590 380.9125 190.8140 C372.4975 200.5972 363.8825 210.3127 355.2350 219.8925 C350.4925 225.1465 345.5650 230.3092 340.9475 235.6628 C340.8325 236.6205 340.7175 237.5550 340.7225 238.5208 L373.4400 263.1700 C377.0925 265.9000 380.7250 268.6625 384.3325 271.4525 C385.4950 272.3350 386.7850 273.0675 387.9125 273.9750 C388.5275 274.4700 388.9650 274.9525 389.2975 275.6650 C389.3025 276.2475 389.4125 276.1475 388.9675 276.6150 C386.1975 277.3175 373.3400 276.8675 369.6325 276.8675 C354.3125 276.8675 338.9550 277.0925 323.6425 276.8150 C325.1225 285.6700 327.4725 294.4375 329.3375 303.2225 L341.9700 363.2575 C342.9300 367.9325 346.1750 379.1375 345.8550 383.1825 L345.6175 383.3800 C342.5150 382.3625 335.6075 374.8600 332.7725 372.3000 L284.9050 329.0175 C281.2125 325.7300 277.7100 322.2050 274.0750 318.8500 C272.5200 317.4150 270.9575 315.8100 269.2150 314.6100 C268.1300 313.8625 267.2625 313.4625 266.0125 314.0725 C263.9600 315.0725 262.0175 316.5625 260.1225 317.8400 L249.7168 324.8875 L215.3950 347.6925 C211.7080 350.1425 207.9750 352.5425 204.3270 355.0475 C202.8338 356.0750 201.4475 357.2925 199.8845 358.2100 C198.8200 358.8325 197.9608 359.2075 196.7240 359.2650 C196.3712 359.1025 196.1628 359.0475 195.9230 358.7325 C196.4445 354.6700 201.1880 347.1425 203.1973 343.1025 L224.7270 299.6225 L231.2897 286.5050 C232.8685 283.3650 234.6350 280.2000 235.7643 276.8675 L189.2117 276.8625 C184.7360 276.8650 165.7890 277.4200 162.7357 276.3800 C162.5225 275.9525 162.4742 276.0700 162.6237 275.6475 C162.9978 274.5900 164.0807 273.7900 164.9905 273.2075 C167.6053 271.5300 170.6152 270.3275 173.3520 268.8425 C178.8952 265.8325 184.3342 262.6175 189.8783 259.5925 L210.9080 248.1345 C215.2170 245.7945 219.4198 243.3528 223.8472 241.2330 C223.9760 240.9115 224.1175 240.5870 224.1823 240.2440 C224.7360 237.3070 221.8067 235.5970 220.3927 233.4655 C220.3548 233.4082 220.3185 233.3497 220.2815 233.2917 C213.8275 227.2637 208.1698 220.6065 201.9465 214.3750 L180.6378 193.0708 C179.2758 191.6990 177.6537 190.5733 176.3265 189.1780 C175.7245 188.5450 175.0043 187.7725 174.8947 186.8712 C174.8450 186.4633 175.0350 186.3658 175.2603 186.0560 C176.5895 185.8183 178.0307 186.0262 179.3610 186.2105 C182.5748 186.6552 185.7465 187.4753 188.9288 188.1013 L206.6313 191.6413 C215.8423 193.5468 225.0833 195.0827 234.2025 197.4340 Z"></path>
<path id="" fill="#bb1a34" fill-opacity="1.0" stroke="#000000" stroke-width="0.0" stroke-opacity="1.0" stroke-linecap="round" stroke-linejoin="round"  filling="0" d="M220.2815 233.2917 C222.7657 235.0925 224.9792 237.5035 227.2580 239.5677 C226.1375 240.2233 225.0903 240.8260 223.8472 241.2330 C223.9760 240.9115 224.1175 240.5870 224.1823 240.2440 C224.7360 237.3070 221.8067 235.5970 220.3927 233.4655 C220.3548 233.4082 220.3185 233.3497 220.2815 233.2917 Z"></path>
<path id="" fill="#f5f7f9" fill-opacity="1.0" stroke="#000000" stroke-width="0.0" stroke-opacity="1.0" stroke-linecap="round" stroke-linejoin="round"  filling="0" d="M288.8250 189.6635 C289.2875 189.6940 289.9575 189.7220 290.3825 189.9402 C290.9225 190.2162 291.2150 190.6797 291.4275 191.2303 C292.3700 193.6935 292.7075 196.5345 293.2100 199.1255 C294.1250 203.8490 294.9675 208.5990 296.2075 213.2502 C300.9625 211.9973 322.5600 205.6158 325.7900 206.0477 L326.1275 206.5262 C326.1400 207.3483 325.9700 207.9442 325.5550 208.6615 C324.0700 211.2320 321.6600 213.6525 319.6425 215.8338 C317.3450 218.3192 315.1850 220.9175 312.9075 223.4170 C311.0950 225.4050 309.0750 227.3067 307.5175 229.5035 C307.4550 229.5918 307.3950 229.6817 307.3325 229.7710 C311.4650 233.8672 322.5550 239.8488 325.1250 244.1512 C325.4500 244.6965 325.4750 244.9390 325.3075 245.5350 C323.6400 246.4735 304.0175 246.0195 300.8550 246.0267 C301.6450 252.9425 309.6525 283.2000 308.9425 286.9675 C305.9725 288.0900 297.4100 278.8175 294.9050 276.5100 C292.6200 274.4075 290.1700 272.4875 287.9250 270.3425 C285.6750 268.1925 280.4175 262.2775 277.6075 261.7950 C275.8925 261.5000 273.8200 263.3925 272.5300 264.2925 C267.9650 267.4525 263.3125 270.5000 258.6975 273.5825 C256.6350 274.9600 254.3625 276.8225 252.1200 277.8550 C251.5550 278.1150 251.0850 278.1075 250.4925 278.0450 C247.1577 275.1125 264.5125 250.6925 263.1775 246.4845 C262.6825 244.9317 240.1010 247.1622 237.3665 245.5838 C237.0818 245.4195 237.1240 245.0485 237.0688 244.7513 C237.1930 244.2397 237.2950 243.9270 237.6508 243.5205 C240.2705 240.5270 257.9175 233.2587 259.0600 231.1385 C261.1625 227.2295 243.1682 215.3825 241.9740 210.4870 C241.8325 209.9073 241.9015 209.6305 242.2060 209.1400 C244.2770 208.6450 260.7425 212.4628 263.9950 213.1548 C263.9600 210.1588 263.2800 197.5420 264.6425 195.7007 C268.0850 195.8112 275.2100 205.4340 278.8325 207.6232 C278.9250 207.6783 279.0150 207.7305 279.1075 207.7843 C282.9550 202.6888 285.5650 195.3492 288.8250 189.6635 Z"></path>
</svg>