<svg xmlns="http://www.w3.org/2000/svg" viewBox="0 0 512 512" height="512.0px" width="512.0px">
<path id="" fill="#fecc4d" fill-opacity="1.0" stroke="#000000" stroke-width="0.0" stroke-opacity="1.0" stroke-linecap="round" stroke-linejoin="round"  filling="0" d="M251.2500 51.2425 C364.3250 48.5980 458.1400 138.1147 460.7975 251.1900 C463.4525 364.2675 373.9450 458.0900 260.8700 460.7600 C147.7762 463.4275 53.9362 373.9050 51.2795 260.8100 C48.6230 147.7180 138.1557 53.8873 251.2500 51.2425 Z"></path>
<path id="" fill="#664500" fill-opacity="1.0" stroke="#000000" stroke-width="0.0" stroke-opacity="1.0" stroke-linecap="round" stroke-linejoin="round"  filling="0" d="M179.5910 199.0663 C186.0587 198.5797 191.4795 200.3080 196.6337 204.2328 C205.0385 210.6325 209.0605 222.3342 210.3970 232.4162 C212.0677 245.0197 209.0895 258.9300 201.2050 269.0875 C197.5267 273.8275 191.2433 277.9950 185.2105 278.7350 C185.0875 278.7600 184.9648 278.7875 184.8412 278.8100 C179.4267 279.8175 173.4205 277.7800 169.0055 274.7200 C160.7838 269.0250 156.0018 258.8425 154.3008 249.2245 C151.8983 235.6415 153.9510 221.3310 162.0405 209.9032 C166.2943 203.8940 172.3768 200.2925 179.5910 199.0663 Z"></path>
<path id="" fill="#664500" fill-opacity="1.0" stroke="#000000" stroke-width="0.0" stroke-opacity="1.0" stroke-linecap="round" stroke-linejoin="round"  filling="0" d="M327.0275 199.0775 C332.7575 198.7610 337.6325 199.7518 342.5375 202.8095 C350.2550 207.6210 355.1225 217.0323 357.0775 225.6905 C360.1675 239.3802 359.0350 253.7325 351.3550 265.8125 C347.1350 272.4475 341.4675 276.9675 333.7075 278.6775 L333.3900 278.7300 C327.0350 279.7075 321.1000 277.8150 316.0025 274.0200 C307.5350 267.7150 303.2750 256.9475 301.8200 246.7928 C299.9675 233.8530 302.5675 219.7455 310.5575 209.1738 C314.4675 203.9975 320.5575 200.0060 327.0275 199.0775 Z"></path>
<path id="" fill="#664500" fill-opacity="1.0" stroke="#000000" stroke-width="0.0" stroke-opacity="1.0" stroke-linecap="round" stroke-linejoin="round"  filling="0" d="M283.2325 321.1025 C295.4625 320.5525 308.3375 321.1225 320.2375 324.1225 C326.0075 325.5775 332.4300 327.4925 335.5500 333.0250 C336.0775 333.9575 336.5700 335.1800 336.1300 336.2450 C335.5750 337.5750 333.6925 338.2125 332.4375 338.5850 C325.5150 340.6450 316.5175 339.9550 309.2375 339.9550 C301.9450 339.9525 294.6400 339.8800 287.3500 340.0350 C266.3025 340.4575 245.4142 343.8150 225.2937 350.0125 C217.9940 352.7575 210.9908 355.7950 204.0703 359.4100 C201.7290 360.6325 192.5273 367.0175 191.0278 367.2525 C190.7997 367.2900 190.5685 367.2100 190.3387 367.1875 C190.0323 366.8850 189.8050 366.7825 189.7340 366.3300 C189.3557 363.9275 192.5338 359.9900 193.8817 358.1250 C195.7623 355.5225 198.0143 353.2575 200.3030 351.0175 C216.7125 334.9675 240.3987 327.5075 262.5400 323.6975 C269.4150 322.5125 276.3650 322.2025 283.2325 321.1025 Z"></path>
</svg>