<svg xmlns="http://www.w3.org/2000/svg" viewBox="0 0 512 512" height="512.0px" width="512.0px">
<path id="" fill="#da9f83" fill-opacity="1.0" stroke="#000000" stroke-width="0.0" stroke-opacity="1.0" stroke-linecap="round" stroke-linejoin="round"  filling="0" d="M221.6785 51.1055 C229.1243 50.0625 241.2337 52.5273 249.1293 52.9837 C256.9525 53.4362 264.8950 52.8715 272.7425 53.0992 C289.1300 53.5748 324.4400 57.2955 338.5975 64.7303 C347.7075 69.5155 354.6900 77.2275 362.7225 83.5195 C369.1750 88.5748 376.2850 92.4012 383.4150 96.3790 C387.2850 98.5380 391.3200 100.8532 394.7925 103.6152 C398.3325 106.4317 401.4700 109.8687 404.6575 113.0730 C406.9425 115.3685 409.3225 117.6015 411.5000 119.9975 C424.1700 133.9328 440.1500 155.7540 447.4200 172.9810 C448.7850 176.2157 449.8500 179.6310 450.8050 183.0080 C455.4125 199.3190 457.7375 216.2912 459.2475 233.1373 C459.7450 238.6938 459.9300 244.2182 460.2675 249.7770 C460.7050 256.9350 461.2725 263.9575 461.0025 271.1475 C459.9925 297.8050 450.9475 325.7450 437.9475 348.9150 C431.2750 361.0100 423.8425 372.6725 415.6975 383.8275 C411.3050 389.9450 406.9000 396.0000 401.8625 401.6125 C381.4800 424.3175 354.3575 437.2925 325.5525 445.9250 C312.4650 449.8450 299.0400 452.2900 285.8850 455.9875 C277.0525 458.4675 267.8475 459.9150 258.7175 460.7325 C239.7753 462.4275 215.2570 458.8275 197.5428 451.8100 C189.2165 448.5125 181.2977 444.1225 173.0117 440.9725 C167.0853 438.7200 160.9665 437.2825 154.9415 435.3575 C144.1138 431.9000 135.3090 426.1800 126.6998 418.9250 C123.8997 416.5650 121.3710 413.9000 118.7795 411.3175 C115.5853 408.1350 112.2990 404.9925 109.3457 401.5825 C102.1940 393.3225 96.4275 384.2850 90.8622 374.9250 C87.6820 369.5750 84.5195 364.1900 81.7785 358.6000 C77.5650 350.0075 73.9845 341.0750 70.1315 332.3200 C68.7935 329.2800 67.1295 326.3750 65.7030 323.3750 C63.1810 318.0700 60.9033 312.3350 59.1845 306.7075 C55.1625 293.5375 52.9427 279.9275 51.7977 266.2250 C50.3660 249.0887 49.9713 218.9792 56.2105 203.3645 C59.2198 195.8333 64.1085 189.1767 67.4272 181.8100 C71.7988 172.1057 75.1212 162.0765 80.1880 152.6495 C84.6475 144.3525 89.8508 136.0063 95.9247 128.7892 C97.5365 126.8745 99.3477 125.1267 101.0107 123.2563 C102.7770 121.2695 104.3958 119.1267 106.2310 117.2050 C108.3857 114.9490 110.9937 113.1653 113.1192 110.8775 C117.7700 105.8727 121.8887 100.5565 126.3095 95.3725 C131.3975 89.4060 136.5607 84.0898 143.4315 80.1725 C154.1082 74.0850 166.8345 72.0930 178.2085 67.5132 C188.0545 63.5488 197.0267 57.6893 207.0830 54.2025 C211.7965 52.5530 216.7012 51.5123 221.6785 51.1055 Z"></path>
<path id="" fill="#8a4b38" fill-opacity="1.0" stroke="#000000" stroke-width="0.0" stroke-opacity="1.0" stroke-linecap="round" stroke-linejoin="round"  filling="0" d="M316.4625 242.0907 C317.6150 241.9353 318.8350 241.9485 320.0000 241.9397 C327.5175 241.8830 334.1575 244.4345 339.4975 249.7592 C345.0925 255.3400 347.2000 261.9125 347.2025 269.6750 C347.2075 276.9975 344.8500 283.1200 339.5675 288.3200 C329.7900 297.9450 319.4200 297.1475 306.7375 297.0600 C298.1375 297.0350 288.5225 295.1050 281.5575 289.7750 C278.6575 287.5575 276.5975 284.4825 276.1875 280.7900 C275.5450 275.0275 279.3125 268.6200 282.6975 264.2600 C290.0325 254.8075 304.4025 243.6355 316.4625 242.0907 Z"></path>
<path id="" fill="#8a4b38" fill-opacity="1.0" stroke="#000000" stroke-width="0.0" stroke-opacity="1.0" stroke-linecap="round" stroke-linejoin="round"  filling="0" d="M219.4020 166.0720 C222.9592 165.6840 227.0493 165.7935 230.5168 166.6760 C236.8788 168.2953 242.6450 172.7603 245.9425 178.4095 C252.1400 189.0280 253.6825 207.4390 250.5050 219.2363 C249.3132 223.6630 247.3793 228.2620 243.1615 230.5818 C239.2003 232.7605 234.7210 232.3360 230.5605 231.0992 C226.4335 229.7410 222.1580 227.3020 218.6615 224.7310 C209.4645 217.9680 198.9645 206.6738 197.3127 195.0115 C196.3943 188.5260 198.5473 181.4133 202.4865 176.2408 C206.5918 170.8505 212.6398 166.9950 219.4020 166.0720 Z"></path>
<path id="" fill="#8a4b38" fill-opacity="1.0" stroke="#000000" stroke-width="0.0" stroke-opacity="1.0" stroke-linecap="round" stroke-linejoin="round"  filling="0" d="M119.5388 253.0650 C124.4430 252.8250 129.3497 252.6325 133.9880 254.5100 C140.4267 257.1150 145.0643 261.8750 147.7538 268.2550 C150.4100 274.5550 150.1920 281.4725 147.6192 287.7575 C143.3365 298.2225 130.3192 305.0975 120.4030 309.2650 C117.8150 310.2975 115.1350 311.0850 112.3990 311.6125 C107.7265 312.4800 101.4005 312.7175 97.3785 309.8175 C94.2560 307.5650 92.6795 303.9850 92.1653 300.2725 C90.5835 288.8550 96.7020 272.0975 103.7133 263.0100 C107.5315 258.0625 113.2160 253.8850 119.5388 253.0650 Z"></path>
<path id="" fill="#8a4b38" fill-opacity="1.0" stroke="#000000" stroke-width="0.0" stroke-opacity="1.0" stroke-linecap="round" stroke-linejoin="round"  filling="0" d="M227.3862 363.0700 C231.5580 362.6025 236.3223 362.7650 240.2843 364.2275 C245.8045 366.2650 250.5750 371.0350 252.9950 376.3525 C255.7325 382.3650 255.7025 388.7475 253.3900 394.8775 C249.8925 404.1450 237.9727 412.7275 229.2455 416.7375 C226.0845 418.0475 222.8970 419.2875 219.5013 419.8325 C215.9917 420.3950 212.4055 420.2875 209.4635 418.0375 C206.3335 415.6450 204.6617 411.9675 204.1532 408.1425 C202.6635 396.9350 205.7993 380.9825 212.7330 371.9550 C216.4555 367.1075 221.2880 363.8975 227.3862 363.0700 Z"></path>
<path id="" fill="#8a4b38" fill-opacity="1.0" stroke="#000000" stroke-width="0.0" stroke-opacity="1.0" stroke-linecap="round" stroke-linejoin="round"  filling="0" d="M304.0575 92.0677 C304.4700 92.0237 304.8650 92.0063 305.2800 92.0040 C311.7375 91.9727 317.7750 95.2238 322.2825 99.7202 C328.3775 105.7975 335.2650 115.7125 335.1450 124.6568 C335.1125 127.0735 334.3475 129.2620 332.5475 130.9267 C328.8825 134.3152 322.6475 135.0945 317.8800 134.9657 C310.5575 134.4110 301.2800 132.6295 295.1400 128.3645 C290.4900 125.1342 287.3475 120.3907 286.3875 114.7993 C285.5825 110.0955 286.9500 104.8680 289.7050 100.9970 C293.1850 96.1028 298.1700 93.0658 304.0575 92.0677 Z"></path>
<path id="" fill="#8a4b38" fill-opacity="1.0" stroke="#000000" stroke-width="0.0" stroke-opacity="1.0" stroke-linecap="round" stroke-linejoin="round"  filling="0" d="M339.0100 335.0750 C339.4250 335.0300 339.8275 334.9900 340.2450 334.9700 C347.4125 334.6500 351.5800 336.4300 356.8625 341.2725 C362.3775 346.3275 368.9775 356.3400 369.1975 364.0275 C369.2650 366.4325 368.7075 368.7325 367.0025 370.5100 C363.9700 373.6700 359.0150 374.0675 354.9100 374.0500 C347.3475 374.0100 338.6150 372.2900 332.2800 367.9475 C328.1250 365.0975 325.1025 360.8525 324.2225 355.8475 C323.4050 351.1975 324.7650 346.0725 327.4900 342.2500 C330.2100 338.4100 334.3625 335.8225 339.0100 335.0750 Z"></path>
<path id="" fill="#8a4b38" fill-opacity="1.0" stroke="#000000" stroke-width="0.0" stroke-opacity="1.0" stroke-linecap="round" stroke-linejoin="round"  filling="0" d="M145.8107 125.0658 C146.9140 124.9317 148.0715 124.8885 149.1823 124.8783 C151.1098 124.8605 153.1790 125.0327 154.5835 126.5070 C156.2518 128.2578 156.8963 131.1465 156.8633 133.4965 C156.7850 139.0513 153.5375 148.3342 149.3595 152.2300 C146.3250 155.0595 143.0647 156.1175 138.9355 155.9925 C136.8788 155.6370 134.8225 155.0103 133.0085 153.9620 C130.0710 152.2617 127.9785 149.4105 127.2377 146.0983 C126.4780 142.7737 126.9445 138.9225 128.7812 136.0287 C132.2807 130.5155 139.5332 126.3548 145.8107 125.0658 Z"></path>
<path id="" fill="#8a4b38" fill-opacity="1.0" stroke="#000000" stroke-width="0.0" stroke-opacity="1.0" stroke-linecap="round" stroke-linejoin="round"  filling="0" d="M411.8775 209.0448 C412.3850 208.9910 412.8875 208.9498 413.4000 208.9288 C415.6925 208.8353 417.6575 208.9890 419.3975 210.6862 C421.2600 212.5027 421.9550 215.2852 421.8700 217.8165 C421.6475 224.5397 418.4525 232.7408 413.3975 237.2948 C410.1500 240.2215 407.0150 240.1770 402.8975 239.9740 C401.1350 239.6535 399.5475 239.1573 398.0150 238.2085 C395.0600 236.3585 392.9750 233.3952 392.2325 229.9888 C391.4600 226.4512 392.0975 222.9557 394.0650 219.9170 C397.7000 214.3027 405.5100 210.3772 411.8775 209.0448 Z"></path>
</svg>