<svg xmlns="http://www.w3.org/2000/svg" viewBox="0 0 512 512" height="512.0px" width="512.0px">
<path id="" fill="#e1e8ed" fill-opacity="1.0" stroke="#000000" stroke-width="0.0" stroke-opacity="1.0" stroke-linecap="round" stroke-linejoin="round"  filling="0" d="M244.9113 63.0975 C247.8268 62.6602 251.1075 62.9122 254.0575 62.9360 C257.5350 62.9642 261.0200 62.8690 264.4975 62.9863 C274.1500 63.3115 283.7350 65.4498 292.9075 68.3882 C318.2800 76.5175 334.1300 88.2408 352.1875 107.6248 C357.9375 113.7975 362.6875 121.5587 366.5725 129.0347 C375.5525 146.3210 380.1050 163.7897 381.0375 183.2027 C381.2950 188.6118 381.0900 194.1212 381.0825 199.5390 C381.0750 206.3535 381.3025 213.2345 381.0800 220.0395 C382.8900 220.0490 384.5750 219.9803 386.3225 219.4670 C388.5200 218.8210 390.6000 217.7793 392.6225 216.7165 C405.0600 210.1795 412.2675 198.0360 414.5025 184.3943 C415.6075 177.6597 414.7850 171.4682 418.2800 165.2680 C421.0750 160.3050 426.2225 156.0367 431.7550 154.5220 C437.5375 152.9385 444.4850 153.8972 449.6525 156.9060 C454.5300 159.7453 458.4750 164.7430 459.8950 170.2155 C462.1700 178.9872 460.4725 186.1205 460.1325 194.7745 C459.9600 199.1415 460.2225 203.5325 460.0025 207.8963 C458.8350 231.1703 453.8025 256.0000 441.8125 276.1900 C435.4525 286.9025 424.7350 297.6125 413.6375 303.2100 C407.9300 306.0875 401.8600 307.8825 395.6925 309.4675 C396.2100 314.2525 400.4850 323.9625 402.4000 328.8250 C408.2625 343.8275 414.4325 358.7075 420.9050 373.4575 C424.2700 381.1150 427.8925 388.6700 431.2825 396.3200 C433.7725 401.9400 436.7300 407.4950 437.7150 413.6375 C438.4125 417.9800 437.3475 422.7550 435.9050 426.8475 C433.0725 434.8850 426.8550 442.2950 419.1000 445.9325 C413.1650 448.7175 407.2000 449.1075 400.7575 449.0700 C384.9150 448.9750 377.4275 445.1200 365.0250 436.2250 C361.1500 433.4450 357.4125 430.7550 352.8650 429.1550 C340.4800 424.7975 326.2350 425.9825 314.4775 431.5550 C310.8050 433.5725 307.5300 436.5750 304.2325 439.1525 C295.6275 445.8800 285.8200 448.7425 274.9250 449.0100 C265.5975 449.2400 256.1850 449.3050 247.0755 447.0150 C242.6750 445.9075 238.0977 444.1850 234.1243 441.9825 C231.7725 440.6775 229.5668 439.0800 227.3192 437.6050 C221.8268 434.0025 216.3755 431.0575 210.0087 429.2600 C205.9985 428.1275 201.8878 427.2375 197.7135 427.0575 C185.9010 426.5475 173.5220 429.7525 164.1590 420.7100 C160.6755 417.3450 158.4505 413.0600 156.3228 408.7725 C145.2323 386.4225 141.1035 360.0750 137.5592 335.5775 C136.9315 331.2400 136.4532 326.8975 135.8955 322.5500 C135.5275 319.6825 135.0002 316.8025 134.9365 313.9075 C131.0675 314.0050 127.6325 314.4825 123.9763 315.8300 C109.3295 321.2300 99.8268 334.8900 97.5640 350.0875 C96.6200 356.4275 97.1208 362.6300 94.2923 368.6175 C91.9045 373.6700 87.7880 377.6050 82.4980 379.4600 C76.1565 381.6850 69.9480 381.4350 63.8792 378.4575 C58.6227 375.8775 54.9660 371.7825 53.1235 366.2050 C50.8042 359.1825 51.3508 351.8675 51.9905 344.6475 C53.7645 324.6275 59.9430 299.8775 69.0185 281.8875 C83.1078 253.9625 100.8163 234.5375 131.3010 224.6230 C131.2242 224.2155 131.1650 223.8047 131.1230 223.3922 C130.8237 220.5340 130.9550 217.5705 130.9597 214.6970 L130.9662 201.5047 C130.9585 194.4928 130.6450 187.3135 131.1360 180.3217 C132.7162 157.8262 139.3448 137.7405 151.6638 118.9077 C153.7063 115.7855 155.7180 112.5335 158.0762 109.6378 C179.6530 83.1608 210.9165 66.4050 244.9113 63.0975 Z"></path>
<path id="" fill="#292f33" fill-opacity="1.0" stroke="#000000" stroke-width="0.0" stroke-opacity="1.0" stroke-linecap="round" stroke-linejoin="round"  filling="0" d="M310.0725 142.2925 C335.1475 140.7545 356.7225 159.8378 358.2575 184.9145 C359.7925 209.9910 340.7050 231.5630 315.6300 233.0940 C290.5575 234.6250 268.9900 215.5432 267.4550 190.4713 C265.9225 165.3995 285.0000 143.8302 310.0725 142.2925 Z"></path>
<path id="" fill="#292f33" fill-opacity="1.0" stroke="#000000" stroke-width="0.0" stroke-opacity="1.0" stroke-linecap="round" stroke-linejoin="round"  filling="0" d="M251.8050 256.1025 C270.4225 254.9175 290.4075 262.5950 305.0025 273.9100 C307.5450 275.8800 310.1875 277.8850 312.5025 280.1200 C324.3600 291.5700 333.3725 307.5875 335.3525 324.0525 C336.7400 335.8675 333.3775 347.7500 326.0025 357.0850 C318.6000 366.4200 305.6650 370.3625 294.3100 371.6825 C273.1075 373.5025 252.5500 363.3675 236.5598 350.3050 C222.8610 339.1125 212.1655 320.5375 210.4545 302.8775 C209.3452 291.4275 212.3930 279.5975 219.8483 270.6775 C227.5445 261.4725 240.2027 257.1600 251.8050 256.1025 Z"></path>
<path id="" fill="#99a9b3" fill-opacity="1.0" stroke="#000000" stroke-width="0.0" stroke-opacity="1.0" stroke-linecap="round" stroke-linejoin="round"  filling="0" d="M309.6775 176.3138 C322.3125 174.5123 334.0000 183.3403 335.7200 195.9868 C337.4425 208.6333 328.5400 220.2640 315.8825 221.9052 C303.3375 223.5318 291.8350 214.7265 290.1275 202.1930 C288.4225 189.6593 297.1550 178.0992 309.6775 176.3138 Z"></path>
<path id="" fill="#292f33" fill-opacity="1.0" stroke="#000000" stroke-width="0.0" stroke-opacity="1.0" stroke-linecap="round" stroke-linejoin="round"  filling="0" d="M196.5542 165.1070 C209.0305 163.7253 220.2688 172.7090 221.6690 185.1832 C223.0692 197.6575 214.1022 208.9090 201.6300 210.3277 C189.1317 211.7493 177.8515 202.7595 176.4483 190.2590 C175.0453 177.7587 184.0517 166.4917 196.5542 165.1070 Z"></path>
</svg>