<svg xmlns="http://www.w3.org/2000/svg" viewBox="0 0 512 512" height="512.0px" width="512.0px">
<path id="" fill="#f4900c" fill-opacity="1.0" stroke="#000000" stroke-width="0.0" stroke-opacity="1.0" stroke-linecap="round" stroke-linejoin="round"  filling="0" d="M220.6752 250.1100 C232.4518 249.1925 238.9935 255.8050 248.4390 261.2725 C252.8650 263.8575 257.6575 265.7575 262.6500 266.9100 C273.6150 269.5075 286.1000 268.5525 297.1325 266.5700 C301.5300 265.7775 305.9450 264.4900 310.4400 264.4925 C316.4150 264.4925 321.8550 267.7675 325.9325 271.9175 C333.7300 279.8550 343.3675 294.5525 347.0700 305.0875 C348.6175 309.4925 349.5175 313.9650 349.4325 318.6325 C349.3400 323.7250 348.3050 328.8275 347.5825 333.8600 C346.3000 342.5150 345.0650 351.1775 343.8725 359.8475 C341.2700 379.8875 338.3550 399.8850 335.1300 419.8350 C333.9200 427.4550 333.1125 436.3700 331.2950 443.7175 C330.6075 446.4925 329.3950 449.3500 327.2650 451.3175 C325.8800 452.5950 323.8750 453.9975 321.9175 453.8800 C318.4475 453.6725 300.6350 440.5225 297.8925 437.2925 C298.4950 433.1200 299.4500 428.9425 300.1975 424.7875 C301.4600 417.7000 302.6725 410.6025 303.8325 403.4975 C306.2800 389.0600 309.0800 373.4950 304.7425 359.1625 C302.7375 352.5475 299.4400 347.0500 293.1925 343.7150 C291.7200 343.1050 290.1675 342.4125 288.6150 342.0550 C280.3350 340.1450 245.4115 349.6150 235.7807 352.7325 C227.5052 355.4125 219.4755 358.8075 211.4595 362.1650 C207.7617 363.7150 203.5850 365.1050 200.2392 367.3025 C198.6252 370.8925 198.5370 376.2275 197.8013 380.2225 L189.7478 425.4475 C188.6803 431.4900 188.1438 437.7750 186.6723 443.7225 C186.1608 445.7900 185.4970 447.7200 184.2580 449.4800 C182.9447 451.3450 180.7495 453.7100 178.4017 454.0225 C175.0635 454.4700 156.6718 440.2000 152.9035 437.3225 C155.9175 426.5100 157.2945 415.1675 159.4297 404.1475 C163.8060 382.0050 167.8947 359.8050 171.6947 337.5575 C174.1908 322.2425 175.5765 306.6725 180.3405 291.8300 C183.2815 282.6650 188.8687 271.5325 195.2600 264.3100 C202.4090 256.2300 209.5592 250.7750 220.6752 250.1100 Z"></path>
<path id="" fill="#fecb4d" fill-opacity="1.0" stroke="#000000" stroke-width="0.0" stroke-opacity="1.0" stroke-linecap="round" stroke-linejoin="round"  filling="0" d="M184.1432 76.1837 C186.4785 74.1168 188.5663 71.7940 190.9023 69.7380 C193.2990 67.6285 195.9710 65.9617 198.8050 64.5058 C205.3805 61.1273 209.3418 60.6220 216.6703 61.0235 C220.0140 61.2065 223.9108 62.1557 226.1590 64.8012 C228.2950 67.3148 228.3775 70.9365 228.0228 74.0630 C227.0453 82.6768 219.8978 93.1322 213.6353 98.9033 C210.3835 101.8997 206.8468 104.3757 203.9373 107.7477 C206.1387 120.7645 207.5833 133.8925 210.3257 146.8197 C214.0615 164.4275 219.7083 181.6940 225.4585 198.7283 C228.7060 208.3490 232.2193 219.4560 236.9045 228.4227 C239.9863 234.3208 243.2717 239.6940 248.8118 243.5965 C256.7650 249.1998 266.2350 250.4075 275.6675 251.3075 C281.8575 251.8900 288.0525 252.4175 294.2525 252.8900 C310.0500 253.9400 324.0050 254.6825 338.1500 262.5975 C343.0375 265.3300 347.4825 268.5925 351.2925 272.7150 C357.0525 278.9525 361.5050 286.8350 363.0125 295.2425 C364.1450 301.5650 363.8850 307.8475 364.4075 314.2075 C365.5575 328.2125 366.9400 342.3550 369.4275 356.1900 C371.9575 370.2775 375.1500 384.3575 378.3900 398.2975 L384.9750 426.4475 C385.9025 430.4600 387.1675 434.4300 387.7600 438.5100 C388.1800 441.3900 388.3100 444.4050 387.9675 447.3025 C384.3900 452.1775 377.2625 454.5250 371.5100 455.4200 C367.1850 456.0950 360.4800 457.0975 356.7225 454.3075 C355.3775 453.3075 355.2500 451.4250 355.0600 449.8500 C354.7675 447.3925 354.6525 444.9300 354.2800 442.4775 C352.9375 433.6650 346.1200 396.2850 343.0925 391.2600 C342.3650 390.6875 341.3425 390.8125 340.4650 390.8525 C340.0550 390.9975 339.7950 391.0025 339.3675 391.0100 L339.0075 390.6300 C338.5700 388.6575 339.6675 386.4825 340.0500 384.5375 L340.1000 384.2725 C339.9600 383.9650 339.8275 383.6925 339.6350 383.4150 C338.6150 381.9500 337.1875 380.6700 335.9250 379.4150 C331.5225 375.0350 327.0675 371.3450 321.0500 369.3950 C310.7825 366.0700 299.1225 367.1875 288.4900 366.9825 C284.4175 366.9025 280.3800 366.4825 276.3350 366.0175 C267.9425 365.0550 259.3900 363.6850 251.1300 361.9175 C245.0397 360.6150 239.0428 358.9750 232.9125 357.8425 C233.4413 367.1075 235.7702 376.3750 237.4357 385.4900 C239.6835 397.7900 241.6853 410.1425 243.8000 422.4675 C245.0237 429.6000 248.1882 439.6425 246.5080 446.5950 C245.9348 448.9675 243.8550 450.6725 241.8188 451.8225 C235.8965 455.1700 225.4738 457.9000 218.7470 456.0200 C213.7352 454.6200 213.0137 453.3975 212.9975 448.3575 C212.9653 438.3625 210.4583 428.0725 208.7245 418.2650 C204.4288 393.9650 200.2635 372.6525 188.9495 350.4325 C185.0522 342.7775 180.4250 335.5125 176.1772 328.0525 C175.3660 328.1550 174.5515 328.3825 173.8030 327.9675 C172.4362 326.4300 173.0100 323.3025 173.0430 321.3575 C172.2285 311.4200 171.5045 301.4600 172.1127 291.4825 C172.4995 285.1375 173.9453 278.9725 173.9795 272.5975 C174.0030 268.2300 174.0788 263.8175 173.8670 259.4550 C173.6877 255.7625 173.2587 252.0825 173.0895 248.3910 C172.9503 245.3477 173.0275 242.2975 172.8587 239.2545 C171.5242 215.1685 167.2137 163.1147 148.1418 146.8385 C136.5773 136.9693 114.9830 146.1370 104.6645 139.7253 C101.5537 137.7923 99.3752 134.5200 97.1633 131.6780 C90.7663 129.7345 84.9442 127.7688 81.6195 121.5130 C79.8170 118.1215 79.6208 114.6068 80.7805 110.9715 C82.2600 106.2688 85.5575 102.3525 89.9398 100.0940 C97.7812 96.0973 106.9847 97.3915 115.0033 94.1110 C122.0307 91.2360 127.5765 85.0290 133.9460 80.9473 C145.8125 73.3427 159.5742 73.6605 173.0105 74.7028 C176.5968 74.9807 180.4810 74.9585 183.9035 76.1020 L184.1432 76.1837 Z"></path>
<path id="" fill="#754c29" fill-opacity="1.0" stroke="#000000" stroke-width="0.0" stroke-opacity="1.0" stroke-linecap="round" stroke-linejoin="round"  filling="0" d="M210.7675 100.7865 C211.4978 100.7467 212.1330 100.5447 212.7352 101.0560 C215.7180 103.5885 221.4010 129.2680 222.4823 134.1935 C226.2558 151.3815 230.0867 168.5785 235.0453 185.4718 C237.0703 192.3715 239.1675 199.3517 241.8423 206.0312 C244.0210 211.4722 246.4390 217.1348 249.2860 222.2615 C251.1100 225.5440 253.5425 228.5788 255.0500 232.0208 C255.7025 233.5095 256.1700 235.1280 256.1525 236.7652 C256.1125 240.6470 253.6800 243.7422 251.0200 246.2685 L249.1265 245.1990 C245.2005 242.5670 242.2835 239.9730 239.6105 236.0470 C229.6780 221.4580 222.4985 194.5598 217.8027 177.4608 C216.8887 174.1325 215.8060 170.8562 214.9385 167.5148 C212.4745 158.0237 210.4062 148.4785 208.3225 138.9008 C206.5970 130.9690 204.8492 122.9767 203.7122 114.9375 C203.3590 112.4388 201.7637 107.6640 202.1725 105.4865 C203.8845 103.4167 208.2710 101.7753 210.7675 100.7865 Z"></path>
<path id="" fill="#f4900c" fill-opacity="1.0" stroke="#000000" stroke-width="0.0" stroke-opacity="1.0" stroke-linecap="round" stroke-linejoin="round"  filling="0" d="M295.8775 252.9275 C298.5425 252.9025 301.2175 253.4025 303.8725 253.6325 C311.8675 254.3275 319.3875 254.7675 327.1575 257.1675 C330.6700 258.2500 334.0100 260.6550 337.5325 261.4075 C341.0125 262.1500 345.9700 261.4425 349.7200 261.6800 C363.6075 262.5600 377.7475 266.2225 389.4450 273.9600 C402.7375 282.7025 412.5400 295.8325 417.1450 311.0600 C418.5750 315.6375 419.4275 320.2500 420.3700 324.9425 L419.9800 325.0775 C414.9550 322.3550 410.1850 320.9125 404.5525 322.5575 C401.5325 323.4400 398.7925 325.0875 396.3675 327.0675 L395.8025 327.1350 C396.2250 326.5125 396.8250 326.0100 397.3650 325.4900 C394.0850 309.1700 385.8150 296.4750 370.4300 289.4600 C367.7250 288.2275 362.3825 287.2825 360.2800 285.6200 C358.1975 283.9775 357.2175 281.1700 355.3900 279.2700 C354.9900 278.8525 354.7300 278.5925 354.1350 278.5925 C353.2400 280.0550 352.9700 282.3775 352.5225 284.0525 C351.2050 288.9975 349.0425 294.2850 345.7375 298.2500 C339.6325 305.5775 331.1525 309.8275 321.6775 310.5725 C313.6650 311.2025 304.9025 308.5850 298.8025 303.3275 C291.4300 296.9700 286.6075 289.0600 285.9325 279.2000 C285.2200 268.8025 289.2000 260.5550 295.8775 252.9275 Z"></path>
<path id="" fill="#f4900c" fill-opacity="1.0" stroke="#000000" stroke-width="0.0" stroke-opacity="1.0" stroke-linecap="round" stroke-linejoin="round"  filling="0" d="M212.2303 293.0750 C217.5340 292.4075 223.3715 292.6000 228.0058 295.4850 C232.3475 298.1875 235.1328 302.6300 236.2652 307.5700 C237.7685 314.1275 235.7802 321.7950 232.2168 327.3850 C227.0668 335.4650 219.0185 341.6150 209.6250 343.6700 C203.7450 344.7650 197.8228 344.2100 192.8075 340.7200 C188.5765 337.7750 186.1647 333.4850 185.2903 328.4550 C184.0280 321.1925 186.6025 313.0025 190.8582 307.1050 C195.7710 300.2975 203.8145 294.3925 212.2303 293.0750 Z"></path>
<path id="" fill="#754c29" fill-opacity="1.0" stroke="#000000" stroke-width="0.0" stroke-opacity="1.0" stroke-linecap="round" stroke-linejoin="round"  filling="0" d="M395.8025 327.1350 L396.3675 327.0675 C398.7925 325.0875 401.5325 323.4400 404.5525 322.5575 C410.1850 320.9125 414.9550 322.3550 419.9800 325.0775 L420.3700 324.9425 C422.2050 326.6650 424.1375 328.3750 425.7175 330.3425 C429.7175 335.3275 431.6925 342.4775 431.9250 348.7800 C432.2100 356.5525 429.3500 365.8725 423.9225 371.5800 C420.2975 375.3925 415.0075 377.8550 409.7325 377.9925 C404.6750 378.1275 399.2100 375.6925 395.5875 372.2250 C389.7975 366.6850 387.1050 358.3300 386.9825 350.4775 C386.8625 342.9350 389.6875 332.5475 395.5150 327.3450 C395.6050 327.2675 395.7075 327.2050 395.8025 327.1350 Z"></path>
<path id="" fill="#f3900c" fill-opacity="1.0" stroke="#000000" stroke-width="0.0" stroke-opacity="1.0" stroke-linecap="round" stroke-linejoin="round"  filling="0" d="M250.3175 245.6427 C250.9775 245.9503 251.5675 246.4575 252.2150 246.8100 C253.7625 247.6532 255.5675 248.2603 257.2700 248.7122 C259.2725 249.2455 267.0300 249.9090 268.0175 250.4800 C268.2575 251.1275 268.3775 251.3975 268.1425 252.0950 C267.1750 254.9500 259.6900 260.1000 256.8950 261.6100 C248.4950 266.1500 240.4707 266.9975 231.3320 264.2650 C222.7612 261.7000 215.5715 255.8150 211.3627 247.9200 C207.0030 239.8147 206.0745 230.8752 208.7960 222.0788 C211.4178 213.5748 217.3288 206.4707 225.2145 202.3465 C227.3078 207.8288 229.4512 213.1880 231.3335 218.7527 C233.2180 221.2815 234.3777 224.9990 235.6945 227.8970 C236.8223 230.3795 240.5665 236.6927 242.2330 238.7145 C244.5660 241.5448 247.8195 243.1017 250.3175 245.6427 Z"></path>
<path id="" fill="#f4900c" fill-opacity="1.0" stroke="#000000" stroke-width="0.0" stroke-opacity="1.0" stroke-linecap="round" stroke-linejoin="round"  filling="0" d="M167.9185 153.3550 C169.9835 153.0898 172.8143 153.7715 174.8288 154.2305 C181.7708 155.8100 187.7960 160.0932 191.5688 166.1308 C195.6142 172.6918 197.2640 180.1803 195.4512 187.7603 C193.5567 195.6810 188.9048 201.5250 182.0770 205.7425 C177.9765 207.8610 174.6543 209.3635 169.9673 209.3087 C168.7810 205.5205 168.5658 201.1620 167.9093 197.2335 C166.3255 187.7598 164.4580 177.6135 161.0245 168.6133 C160.0795 166.1358 156.2272 158.4545 157.0773 156.3698 C159.1935 153.9570 164.8248 153.7320 167.9185 153.3550 Z"></path>
<path id="" fill="#f3900c" fill-opacity="1.0" stroke="#000000" stroke-width="0.0" stroke-opacity="1.0" stroke-linecap="round" stroke-linejoin="round"  filling="0" d="M201.4422 112.7968 C202.3200 112.7477 202.8277 112.6555 203.5703 113.1478 C205.1283 118.0573 205.8907 124.2590 206.9155 129.3793 C208.8452 139.0193 210.9815 148.4913 212.4715 158.2258 C206.7935 158.2287 202.1300 158.2875 196.8220 156.0312 C196.3880 155.8000 195.9603 155.5578 195.5385 155.3050 C190.3450 152.1758 185.9160 146.8342 184.4538 140.8960 C183.0220 135.0822 183.7632 128.2205 186.9572 123.1003 C190.2050 117.8587 195.4255 114.1452 201.4422 112.7968 Z"></path>
<path id="" fill="#754c29" fill-opacity="1.0" stroke="#000000" stroke-width="0.0" stroke-opacity="1.0" stroke-linecap="round" stroke-linejoin="round"  filling="0" d="M353.5000 437.9200 C357.4350 437.6225 368.3325 440.8525 372.5225 442.2800 C375.4800 443.2900 384.8000 447.0375 385.8850 450.0000 C386.1775 450.7950 386.0675 451.4875 385.6950 452.2250 C384.1225 455.3425 379.9575 457.2875 376.8125 458.3525 C376.6125 458.4225 376.4100 458.4925 376.2075 458.5550 C370.2850 460.3525 354.2250 462.5125 348.8500 459.3625 C348.0600 458.8975 347.5600 458.3025 347.3325 457.4075 C346.1600 452.7850 350.9975 442.0850 353.5000 437.9200 Z"></path>
<path id="" fill="#754c29" fill-opacity="1.0" stroke="#000000" stroke-width="0.0" stroke-opacity="1.0" stroke-linecap="round" stroke-linejoin="round"  filling="0" d="M155.0723 432.7000 C160.9828 433.6625 169.8752 439.5675 174.5560 443.3400 C176.6170 445.0025 178.6390 447.3400 180.9198 448.6575 C181.6548 449.0800 182.7272 449.1675 183.5590 449.2950 L183.3735 449.5700 C180.0193 454.4775 176.8342 455.6225 171.2215 456.6825 C165.2905 457.5000 157.4523 457.4275 151.5332 456.5050 C149.3438 456.1650 144.5883 455.5100 143.3505 453.4375 C142.8427 452.5900 142.9035 451.6850 143.1095 450.7550 C144.0708 446.4050 151.3075 435.0075 155.0723 432.7000 Z"></path>
<path id="" fill="#754c29" fill-opacity="1.0" stroke="#000000" stroke-width="0.0" stroke-opacity="1.0" stroke-linecap="round" stroke-linejoin="round"  filling="0" d="M212.2030 438.0125 C217.7915 437.6200 232.0578 442.2300 237.0565 444.6325 C239.3497 445.7325 242.4550 447.3850 243.2632 449.9650 C243.6008 451.0425 243.4375 452.1975 242.9130 453.1850 C241.4880 455.8725 237.6480 457.3350 234.9050 458.2675 C228.5992 460.4750 214.0358 462.4975 207.9998 459.4925 C207.1048 459.0450 206.3455 458.4500 206.0643 457.4475 C204.7640 452.8100 209.8710 441.9850 212.2030 438.0125 Z"></path>
<path id="" fill="#754c29" fill-opacity="1.0" stroke="#000000" stroke-width="0.0" stroke-opacity="1.0" stroke-linecap="round" stroke-linejoin="round"  filling="0" d="M298.6950 432.7100 C304.6350 433.4825 311.7300 438.5000 316.6200 442.0450 C319.4025 444.0625 324.8400 447.8050 325.2750 451.5025 C325.3550 452.1650 325.1925 452.7450 324.7650 453.2625 C322.5575 455.9450 316.5150 456.6300 313.3100 456.9800 C309.1350 457.0875 304.9250 457.1700 300.7525 457.0100 C297.9425 456.9025 289.2600 456.2175 287.4875 453.9000 C286.7775 452.9725 286.7975 451.8150 287.0100 450.7200 C287.8125 446.6025 295.1025 435.1575 298.6950 432.7100 Z"></path>
<path id="" fill="#292f33" fill-opacity="1.0" stroke="#000000" stroke-width="0.0" stroke-opacity="1.0" stroke-linecap="round" stroke-linejoin="round"  filling="0" d="M157.0180 86.0980 C163.2555 85.3112 168.9495 89.7300 169.7360 95.9675 C170.5225 102.2050 166.1037 107.8990 159.8663 108.6855 C153.6290 109.4717 147.9350 105.0530 147.1485 98.8158 C146.3620 92.5785 150.7807 86.8845 157.0180 86.0980 Z"></path>
<path id="" fill="#754c29" fill-opacity="1.0" stroke="#000000" stroke-width="0.0" stroke-opacity="1.0" stroke-linecap="round" stroke-linejoin="round"  filling="0" d="M151.8500 51.2912 C153.3777 51.0967 154.8650 51.1592 156.3593 51.5620 C158.3557 52.1003 159.9485 53.3835 160.9500 55.1865 C161.6272 56.4060 161.9852 57.7405 162.1577 59.1180 C162.4288 61.2807 162.2680 73.1793 161.7070 75.0405 C160.4995 75.9885 156.8020 75.3115 155.1853 75.2640 C151.7690 75.3650 148.4877 75.7582 145.1225 76.3410 C145.2055 71.0515 143.9798 59.7988 146.3622 55.5200 C147.5585 53.3715 149.5018 51.9458 151.8500 51.2912 Z"></path>
<path id="" fill="#754c29" fill-opacity="1.0" stroke="#000000" stroke-width="0.0" stroke-opacity="1.0" stroke-linecap="round" stroke-linejoin="round"  filling="0" d="M178.4742 51.2975 C179.3500 51.1765 180.2860 51.1120 181.1662 51.2032 C183.5440 51.4498 185.5623 52.6015 186.9815 54.5230 C189.5910 58.0560 189.4787 67.2490 188.7840 71.5963 C187.9715 72.7170 186.9397 73.9400 185.8530 74.8027 C184.7080 75.7120 183.8808 75.8652 182.4487 75.7450 C178.9312 75.0030 175.4978 75.4275 171.9447 75.6842 C171.9560 70.5988 170.7625 59.6967 172.9180 55.5320 C174.1415 53.1678 176.0370 52.0648 178.4742 51.2975 Z"></path>
<path id="" fill="#f4900c" fill-opacity="1.0" stroke="#000000" stroke-width="0.0" stroke-opacity="1.0" stroke-linecap="round" stroke-linejoin="round"  filling="0" d="M207.3392 70.0200 C208.7968 69.8903 210.6495 70.2722 211.8230 71.1985 C212.7130 71.9010 213.1415 72.9735 213.2733 74.0745 C213.7425 77.9970 212.0853 81.8828 209.6300 84.8585 C207.3850 87.5797 202.6160 93.1110 199.1115 93.4348 C198.9108 90.7057 199.4577 87.6495 198.9277 85.0117 C198.3053 81.9122 193.7925 82.2678 192.6995 79.8668 C192.6940 79.3885 192.7385 79.1348 192.9700 78.7007 C194.8090 75.2533 203.5242 71.0740 207.3392 70.0200 Z"></path>
</svg>