<svg xmlns="http://www.w3.org/2000/svg" viewBox="0 0 512 512" height="512.0px" width="512.0px">
<path id="" fill="#feab33" fill-opacity="1.0" stroke="#000000" stroke-width="0.0" stroke-opacity="1.0" stroke-linecap="round" stroke-linejoin="round"  filling="0" d="M93.9700 108.1072 C99.9080 107.5520 106.1935 108.0095 112.1755 108.0155 L147.0692 108.0165 L261.7875 108.0095 L369.2225 108.0125 L401.9400 107.9942 C408.3750 107.9890 415.0200 107.6260 421.4125 108.3290 C430.1550 109.2835 438.4275 112.7700 445.2150 118.3600 C454.7975 126.1653 459.4925 137.9215 460.6475 149.9888 C461.1900 155.6492 461.0300 161.3593 461.0300 167.0390 L461.0150 191.1452 L461.0125 267.6950 L461.0200 330.1625 L461.0225 347.8450 C461.0300 353.2075 461.1750 358.5250 460.4100 363.8500 C459.0675 373.2025 455.6175 381.3100 449.5825 388.5825 C441.9125 397.8225 429.7750 402.8225 418.0300 403.9000 C417.9050 403.9150 417.7775 403.9350 417.6525 403.9475 C411.9575 404.4775 405.6575 404.0375 399.8875 404.0350 L363.8425 404.0225 L247.7720 404.0200 L142.4612 404.0200 L111.6953 404.0250 C105.2865 404.0350 98.6245 404.4175 92.2572 403.6925 C82.7613 402.6125 74.1568 399.1250 66.8683 392.9125 C57.1485 384.6300 52.1105 372.6650 51.1810 360.0950 C50.8035 354.9900 51.0040 349.7975 51.0137 344.6800 L51.0225 320.5250 L51.0230 242.8800 L51.0148 183.2153 C51.0120 171.3248 50.2125 157.6150 52.0437 145.9735 C53.4113 137.2795 56.9268 129.4975 62.7453 122.8288 C70.3517 114.1110 82.5430 108.8678 93.9700 108.1072 Z"></path>
<path id="" fill="#f3f6f8" fill-opacity="1.0" stroke="#000000" stroke-width="0.0" stroke-opacity="1.0" stroke-linecap="round" stroke-linejoin="round"  filling="0" d="M103.0692 267.1175 C113.9637 266.7775 124.9788 267.0825 135.8837 267.0850 L199.6808 267.0800 L415.0800 267.0250 C414.8200 280.9950 415.0675 295.0175 415.0725 308.9925 C415.0725 317.7575 414.5900 327.3700 415.1925 336.0325 L408.6250 335.9800 L182.8602 335.9700 L122.2012 335.9725 L105.9837 336.0050 C103.0340 336.0125 99.7137 336.2925 96.8138 335.8000 C96.6793 335.5025 96.5620 335.2375 96.4928 334.9175 C95.7875 331.6600 96.0762 327.8475 96.0725 324.5125 L96.0725 309.4700 L96.0640 285.0275 C96.0545 280.3750 95.8842 275.6675 96.0927 271.0200 C96.1382 270.0075 96.1403 268.3125 96.7003 267.4625 C98.4368 266.7875 101.1770 267.1225 103.0692 267.1175 Z"></path>
<path id="" fill="#282e33" fill-opacity="1.0" stroke="#000000" stroke-width="0.0" stroke-opacity="1.0" stroke-linecap="round" stroke-linejoin="round"  filling="0" d="M456.0400 164.8882 L460.9500 164.6832 C461.0800 183.8488 460.6200 203.0813 461.0875 222.2363 C456.5850 221.6938 451.7500 222.0120 447.2150 222.0125 L421.8025 222.0220 L337.0900 222.0222 L55.1875 222.0152 C53.8158 221.9933 52.4465 222.0768 51.0765 222.1410 C51.2395 218.7793 51.0945 215.3508 51.0925 211.9830 L51.0867 192.4492 C51.0860 183.4563 51.5677 173.7818 51.0197 164.8890 C71.0732 165.2543 91.1875 164.9395 111.2465 164.9395 L226.8405 164.9377 L375.8650 164.9415 L456.0400 164.8882 Z"></path>
<path id="" fill="#8899a6" fill-opacity="1.0" stroke="#000000" stroke-width="0.0" stroke-opacity="1.0" stroke-linecap="round" stroke-linejoin="round"  filling="0" d="M157.8907 279.0975 C158.2397 279.0400 158.0875 279.0550 158.4875 279.0375 C166.8730 278.6550 176.0330 278.0825 182.6087 284.2425 C187.3103 288.6450 188.9175 295.2925 189.1163 301.5025 C193.0605 300.2200 196.7518 298.7325 200.4020 296.7325 C203.4740 295.0500 206.3420 293.0050 209.3002 291.1350 C214.7680 287.6775 221.0060 284.3525 227.2095 282.5025 C234.4920 280.3300 246.5728 279.8825 253.4025 283.6675 C259.6475 287.1300 260.9350 294.6625 262.7850 300.9225 C267.6250 301.1400 272.6575 301.5500 277.4625 300.7925 C282.8500 299.9450 288.1025 297.8850 293.1850 295.9650 C306.7500 290.8400 320.0150 284.9825 334.8050 284.9750 C353.7700 284.9675 374.8050 289.9575 388.5300 303.8175 C391.2075 306.5200 393.1900 309.4400 393.0800 313.4200 C392.9950 316.3800 391.6700 319.1175 389.5275 321.1400 C387.7925 322.7800 385.5600 323.9875 383.2075 324.4375 C376.2400 325.7675 372.3525 320.0575 367.4600 316.4550 C365.5975 315.0825 363.4800 314.0425 361.3750 313.1000 C353.4850 309.5675 344.6550 308.3225 336.0750 308.0400 C321.4975 308.6425 309.1825 315.4375 295.4650 319.5550 C282.2275 323.5300 264.3850 327.6075 251.5800 320.6050 C245.3150 317.1800 240.7408 310.5075 238.7300 303.7350 C235.3842 304.6150 232.1543 305.6150 229.0168 307.0950 C214.9035 313.7450 204.6752 324.3450 187.8765 324.3100 C181.6105 324.2975 175.4323 322.8525 170.9315 318.2450 C166.1050 313.3025 164.9110 306.0675 165.0080 299.4400 C155.1370 300.2825 146.3975 303.7825 138.7318 310.1175 C134.4230 313.6775 129.3622 320.4800 125.0885 322.9575 C124.0872 323.5375 123.0510 323.8050 121.9117 323.9675 C118.6010 324.4400 115.1660 324.0800 112.4583 321.9825 C110.0858 320.1450 108.3288 317.5475 107.9595 314.5300 C107.4693 310.5200 109.0128 307.0600 111.4877 304.0325 C114.4507 300.4075 118.1212 297.3425 121.8337 294.5175 C132.6150 286.3075 144.2283 280.5050 157.8907 279.0975 Z"></path>
</svg>