<svg xmlns="http://www.w3.org/2000/svg" viewBox="0 0 512 512" height="512.0px" width="512.0px">
<path id="" fill="#fecc4d" fill-opacity="1.0" stroke="#000000" stroke-width="0.0" stroke-opacity="1.0" stroke-linecap="round" stroke-linejoin="round"  filling="0" d="M252.2250 51.2133 C365.3300 49.0802 458.7425 139.0513 460.8525 252.1550 C462.9625 365.2600 372.9750 458.6525 259.8700 460.7425 C146.7968 462.8325 53.4335 372.8725 51.3230 259.8000 C49.2122 146.7265 139.1532 53.3460 252.2250 51.2133 Z"></path>
<path id="" fill="#664500" fill-opacity="1.0" stroke="#000000" stroke-width="0.0" stroke-opacity="1.0" stroke-linecap="round" stroke-linejoin="round"  filling="0" d="M250.9725 324.1025 C252.7350 324.0200 254.5000 323.9775 256.2625 323.9750 C273.1325 323.9675 289.3000 330.7225 301.1525 342.7275 C306.9750 348.6450 319.0650 367.6275 318.8000 375.8875 C318.7500 377.4225 318.2375 378.9700 317.0450 379.9975 C315.4125 381.4050 313.1000 381.4950 311.1425 380.8525 C306.8650 379.4500 302.9725 376.7725 298.6550 375.2700 C288.1450 371.6150 277.4775 371.4500 266.5600 370.3125 C250.5375 369.4400 229.7030 370.3750 214.2733 374.5150 C208.3560 376.1050 202.9990 379.1750 197.0148 380.4825 C196.4485 369.4900 206.2865 350.5625 213.4075 342.1550 C222.8015 331.0650 236.6797 325.2725 250.9725 324.1025 Z"></path>
<path id="" fill="#5dadeb" fill-opacity="1.0" stroke="#000000" stroke-width="0.0" stroke-opacity="1.0" stroke-linecap="round" stroke-linejoin="round"  filling="0" d="M175.0495 289.9675 C175.6597 289.9250 176.2527 289.9025 176.8515 290.0525 C184.8432 292.0350 199.4395 317.1750 203.7840 324.9525 C206.3795 329.5975 208.6707 334.3950 211.3290 339.0125 C212.4555 338.9850 213.6945 338.7775 214.6483 339.4675 C215.1570 340.9000 214.1285 342.3900 213.5135 343.6850 C215.0627 347.4525 217.0412 351.0375 218.7190 354.7475 C223.8578 366.1150 232.0878 386.0625 232.9395 398.3675 C233.2767 403.2375 233.3893 408.6125 232.7035 413.4400 C231.3168 423.2025 226.1317 433.7850 219.6355 441.1800 C208.6913 453.6375 194.7100 459.9300 178.3118 460.9225 C174.1823 461.1150 169.8480 460.6500 165.7895 459.9150 C151.0168 457.2650 137.9250 448.7975 129.4498 436.4100 C120.9512 423.9750 117.5315 409.3150 120.3318 394.4775 C123.0725 379.9525 129.0618 365.5850 135.0845 352.1375 C142.3180 335.9850 161.1850 299.4300 175.0495 289.9675 Z"></path>
<path id="" fill="#664500" fill-opacity="1.0" stroke="#000000" stroke-width="0.0" stroke-opacity="1.0" stroke-linecap="round" stroke-linejoin="round"  filling="0" d="M178.5898 205.0632 C183.6743 204.6922 188.5367 204.9110 193.0375 207.5197 C201.4400 212.3898 206.5777 221.2383 208.9370 230.4275 C212.3172 243.5935 211.3985 258.0225 204.3725 269.9100 C199.7247 277.7750 194.2425 282.1625 185.3997 284.4400 C185.2263 284.4775 185.0522 284.5150 184.8775 284.5475 C179.6068 285.5400 173.4760 283.4150 169.1825 280.3950 C160.1895 274.0750 155.8557 264.0375 154.0730 253.5250 C151.9303 240.8875 154.2595 226.4590 161.8510 215.8980 C166.0043 210.1203 171.5635 206.2135 178.5898 205.0632 Z"></path>
<path id="" fill="#664500" fill-opacity="1.0" stroke="#000000" stroke-width="0.0" stroke-opacity="1.0" stroke-linecap="round" stroke-linejoin="round"  filling="0" d="M326.0200 205.0815 C331.4325 204.7157 336.5850 204.9617 341.3800 207.7560 C349.3575 212.4060 354.6300 221.6580 356.8425 230.3987 C360.1500 243.4642 359.3575 258.1725 352.3075 269.9750 C348.0175 277.1600 341.9225 282.2375 333.8100 284.3200 C333.2950 284.4525 332.7775 284.5825 332.2500 284.6650 C327.2325 285.4700 321.0175 283.2475 317.0025 280.2950 C308.1375 273.7775 303.4600 263.7500 301.8675 253.0450 C300.0375 240.7388 302.0225 226.2230 309.6650 216.0570 C313.6675 210.7312 319.2450 206.0040 326.0200 205.0815 Z"></path>
<path id="" fill="#664500" fill-opacity="1.0" stroke="#000000" stroke-width="0.0" stroke-opacity="1.0" stroke-linecap="round" stroke-linejoin="round"  filling="0" d="M197.0335 136.0870 C199.4108 136.0500 201.6590 136.2360 203.8587 137.2180 C206.8432 138.5728 209.1548 141.0745 210.2700 144.1562 C211.3075 146.9460 211.2357 149.8078 209.9515 152.5040 C207.6207 157.3972 203.4780 159.2425 198.3293 159.7420 C175.0668 162.0753 153.4642 172.8468 137.6025 190.0222 C132.6537 195.2985 129.2543 202.3578 122.0690 204.8215 C118.7697 205.2855 115.4767 204.8995 112.6710 202.9677 C110.2710 201.3155 108.4843 198.8375 108.0095 195.9390 C107.3605 191.9745 108.4260 188.6750 110.7702 185.4635 C125.7932 164.8833 148.8440 148.1053 173.3372 140.7937 C181.1585 138.4590 189.0005 137.3407 197.0335 136.0870 Z"></path>
<path id="" fill="#664500" fill-opacity="1.0" stroke="#000000" stroke-width="0.0" stroke-opacity="1.0" stroke-linecap="round" stroke-linejoin="round"  filling="0" d="M312.3600 136.0540 C315.7850 136.0985 319.2900 136.6732 322.6700 137.2122 C338.8775 139.8183 354.3750 145.7402 368.1900 154.6082 C379.5350 161.8717 389.6275 170.9252 398.0775 181.4173 C400.4150 184.2955 403.1175 187.2745 403.8775 191.0168 C404.4975 194.0677 404.1075 197.5892 402.2900 200.1877 C400.1375 203.2675 396.8925 204.4232 393.3650 205.0453 C391.5525 205.0108 390.0425 204.9368 388.3300 204.2473 C383.0700 202.1305 379.6625 195.9698 376.0425 191.8295 C373.8975 189.3775 371.5550 187.0730 369.1825 184.8412 C364.2450 180.1978 358.2425 175.7455 352.3900 172.3183 C344.0625 167.4238 335.0725 163.7567 325.6975 161.4308 C323.8175 160.9622 321.8950 160.4807 319.9725 160.2518 C315.2725 159.6922 310.3400 160.1630 306.1725 157.4660 C303.5250 155.7520 302.0525 153.0883 301.3975 150.0607 C300.7400 147.0312 301.3625 144.3930 303.0725 141.8233 C305.4600 138.2325 308.2675 136.8802 312.3600 136.0540 Z"></path>
</svg>