<svg xmlns="http://www.w3.org/2000/svg" viewBox="0 0 512 512" height="512.0px" width="512.0px">
<path id="" fill="#bbdcf4" fill-opacity="1.0" stroke="#000000" stroke-width="0.0" stroke-opacity="1.0" stroke-linecap="round" stroke-linejoin="round"  filling="0" d="M245.7388 270.8125 C246.5132 270.7750 247.2888 270.7575 248.0643 270.7575 C255.5250 270.7750 256.9375 275.3925 261.5200 279.9925 C269.1850 280.1075 270.4975 280.7900 276.2675 275.2400 C277.4250 274.1300 278.6000 273.0800 280.0925 272.4350 C281.8075 271.6925 283.6450 271.6250 285.4825 271.7250 C294.8475 272.2300 291.7250 280.2300 297.7925 282.4500 C305.8425 285.3950 309.4100 279.2175 315.7575 276.5775 C318.1150 275.5950 320.9875 275.4025 323.3650 276.4450 C326.6100 277.8725 327.1225 281.3000 328.3500 284.2200 C329.2825 286.4325 330.5850 287.4900 332.8175 288.3775 C341.1650 291.6925 342.4875 285.6825 348.3800 283.3425 C350.7125 282.4175 354.0325 282.5150 356.3000 283.5500 C360.2750 285.3675 360.5800 289.2050 362.0950 292.7375 C362.9925 294.8325 364.5200 296.3700 366.6475 297.2175 C367.9825 297.7475 369.4550 297.9725 370.8900 297.9900 C375.7550 298.0425 377.3150 295.4225 381.3275 293.7425 C382.8450 293.1075 384.6925 292.3000 386.2950 293.0400 C389.5500 294.5475 390.9800 298.9350 392.0525 302.0225 C394.7375 301.9075 397.6550 301.7150 399.8825 303.5175 C401.1200 304.5200 401.8000 305.9775 401.9375 307.5500 C402.2900 311.6450 399.0325 320.4675 397.8900 324.7775 C396.7725 329.1000 395.6800 333.4275 394.6125 337.7625 C391.0875 351.6100 387.8350 365.5250 384.8575 379.5000 L381.5325 396.2175 C380.6875 400.5100 379.9500 404.8375 378.5750 409.0025 C376.6525 414.8300 373.3400 420.3750 369.3925 425.0575 C362.1775 433.6175 353.6150 439.7200 343.7125 444.7375 C319.6650 456.9250 295.9150 458.7625 269.5750 460.9725 C260.8075 461.0400 251.8975 461.3000 243.1405 460.9475 C240.0748 460.8250 237.0140 460.4600 233.9547 460.2275 C209.6625 458.3875 184.0343 454.0525 162.8800 441.2325 C152.8775 435.1700 142.6367 426.0675 137.1293 415.6250 C132.0755 406.0425 130.9360 395.6775 128.8528 385.2300 C127.0717 376.5250 125.2057 367.8350 123.2550 359.1650 C120.2845 346.4400 117.0247 333.7300 113.7525 321.0775 C112.7393 317.1600 111.5413 313.2800 110.5932 309.3475 C110.2315 307.8475 109.5425 305.4125 110.4017 304.0675 C111.2660 302.7175 112.4958 301.6300 114.0843 301.2375 C116.0730 300.7450 118.2747 301.4025 120.2647 301.6375 C123.6605 302.0375 128.5538 302.5925 131.8658 301.7375 C136.9787 300.4200 136.9610 294.4400 139.2832 290.6500 C141.2255 287.4800 143.8310 286.5550 147.2603 285.7600 C151.8568 287.2225 154.6263 290.5875 158.6228 292.9675 C173.4560 293.6025 168.9715 282.6350 178.7375 279.1800 C183.5830 277.4650 187.0462 281.9700 191.0412 283.8525 C193.7623 285.1325 196.3160 285.2800 199.1305 284.2075 C202.6900 282.8500 203.6190 279.9800 205.0805 276.8075 C206.0267 274.7550 207.2238 272.9700 209.4677 272.2225 C218.5643 269.1925 220.4190 277.2700 226.9032 280.1700 C228.6017 280.9275 230.4848 281.1725 232.3200 280.8725 C239.1955 279.8150 239.8125 272.9050 245.4252 270.9200 C245.5295 270.8825 245.6342 270.8475 245.7388 270.8125 Z"></path>
<path id="" fill="#662113" fill-opacity="1.0" stroke="#000000" stroke-width="0.0" stroke-opacity="1.0" stroke-linecap="round" stroke-linejoin="round"  filling="0" d="M247.1715 267.3325 C247.2598 267.3200 247.3477 267.3025 247.4365 267.2950 C258.1400 266.2250 256.0500 275.1900 261.5625 279.1775 C263.2875 280.4225 265.6350 280.6375 267.6725 280.2075 C271.3700 279.4275 272.9550 276.0100 274.9000 273.1850 C276.6175 270.6950 278.9625 268.7700 282.0100 268.2675 C283.6025 268.0050 285.2375 268.1575 286.7975 268.5425 C294.4100 270.4175 291.6350 278.1850 296.8700 281.7550 C299.1550 283.3125 301.9125 282.8400 304.4575 282.3975 C308.4825 279.2875 310.9750 273.7150 316.2150 272.3175 C318.6100 271.6775 322.1225 272.0650 324.2525 273.3325 C327.9975 275.5600 327.6800 279.9875 328.7200 283.6450 C329.2100 285.3700 330.1425 286.8575 331.7500 287.7250 C339.3300 291.8125 344.5500 281.7125 351.0200 279.8225 C353.4475 279.1125 355.8525 279.6025 358.0225 280.8225 C363.2500 283.7650 361.1500 288.7450 362.5875 293.4050 C362.6225 293.5225 362.6625 293.6375 362.6975 293.7550 C364.0350 294.8725 365.3100 295.9400 366.9825 296.5325 C371.9225 298.2775 375.9000 294.1175 380.0100 292.1125 C382.0550 291.1125 384.4175 290.4800 386.6350 291.3050 C390.0575 292.5750 391.6275 296.1950 393.0950 299.2500 C395.8925 299.3200 398.2175 299.3075 400.8900 300.2850 C400.9500 300.4200 401.0125 300.5525 401.0725 300.6900 C402.7625 304.6525 402.0925 309.4700 400.4525 313.3575 C399.2050 316.3100 397.0600 318.9375 394.0025 320.1200 C389.8825 321.7150 386.5775 319.3650 382.9325 317.7525 C380.9125 316.8600 378.9500 316.3675 376.8275 317.2675 C369.8675 320.2125 374.5050 327.2675 372.5400 332.3750 L372.4125 332.6950 C355.5050 343.4400 354.6700 327.5450 343.1950 328.7600 C335.7800 329.5425 337.3800 337.3250 333.6725 341.6100 C332.5400 342.9200 331.0575 343.6150 329.4175 344.0825 C320.0200 346.7675 315.1875 334.6850 304.8600 335.8675 C296.5250 336.8225 296.6925 342.4600 292.3725 347.5200 C290.2575 349.9975 286.4525 351.4075 283.2500 351.5150 C273.9200 351.8250 271.6400 345.7350 265.7500 340.4350 L265.4675 340.1850 C262.7425 337.9175 259.8550 336.1300 256.1850 335.9950 C248.6455 335.7175 244.6232 343.5250 239.7253 347.7800 C236.4408 350.6150 232.1315 351.9650 227.8168 351.5150 C221.0555 350.8225 219.9207 345.5300 216.3365 341.0650 C214.3750 338.6200 211.8513 336.8875 208.7820 336.1550 C197.7567 333.5225 194.2080 345.7275 183.6995 344.4525 C175.9640 343.5150 177.1743 334.8825 173.3900 330.0275 L173.1812 329.7650 C163.1008 325.8975 158.9325 336.7100 149.9897 336.4825 C147.1370 336.4100 142.5910 334.8725 140.5997 332.6700 C138.3082 330.1350 140.5365 325.3375 140.6532 322.2600 L140.6658 321.8600 C139.1895 318.9525 137.4117 317.7900 134.5188 316.4625 C129.6935 316.7125 126.1718 319.9850 121.6292 320.5600 C119.7020 320.8050 117.6898 320.2950 116.1805 319.0525 C113.0902 316.5025 110.8712 309.9000 110.6920 306.0025 C110.5757 303.4775 111.5222 299.6075 113.3452 297.7075 C117.3582 293.5225 125.2328 299.9350 129.8065 299.7850 C132.4235 299.7000 134.3675 298.5150 136.1398 296.6950 L136.3922 296.4325 C136.8938 292.7400 135.9787 288.5525 138.8342 285.6325 C140.1770 284.2600 142.0265 283.5200 143.9185 283.3400 C152.5372 282.5125 155.6118 291.9900 162.0278 291.5925 C163.1523 291.5225 164.3460 291.0350 165.3145 290.4825 C170.6450 287.4425 167.6528 281.3625 171.1888 277.4775 C172.8448 275.6600 176.1720 274.7600 178.5605 274.7225 C183.6707 274.6450 186.8335 279.0350 190.2032 282.2000 C191.9915 283.8775 193.9765 284.9850 196.5063 284.8350 C203.2285 284.4325 202.9385 276.1050 206.5347 272.1925 C208.2148 270.3650 210.4978 269.5075 212.9500 269.4775 C221.4265 269.3775 221.7117 275.3700 226.5753 280.0700 C226.6492 280.1425 226.7247 280.2100 226.7995 280.2825 C228.5547 280.7175 230.2888 281.0375 232.1055 280.7350 C237.5325 279.8325 238.1795 274.3300 241.0428 270.6875 C242.7153 268.5600 244.5320 267.6350 247.1715 267.3325 Z"></path>
<path id="" fill="#c0694f" fill-opacity="1.0" stroke="#000000" stroke-width="0.0" stroke-opacity="1.0" stroke-linecap="round" stroke-linejoin="round"  filling="0" d="M127.9948 313.0850 L127.6730 312.9050 C125.2272 311.5525 122.6113 310.5400 120.0948 309.3275 C117.9828 308.3125 115.9402 307.1100 113.8022 306.1550 C112.9530 305.7775 111.9027 305.8800 111.1397 305.4675 C109.4140 304.5325 107.8425 302.1875 106.2353 300.9200 C104.4173 299.4875 102.4320 298.3000 100.6290 296.8275 C94.3225 291.6775 88.7195 284.8375 86.3695 276.9350 C82.8463 265.0850 85.6010 250.1075 91.4140 239.4025 C92.9782 236.5220 95.0967 233.7845 96.3330 230.7598 C98.4045 225.6915 98.0595 223.0920 101.3002 217.8995 C113.5912 198.2060 140.9375 186.7175 162.4250 180.4760 C216.2185 164.8503 282.3175 163.7498 336.7425 177.0632 C353.3000 181.1138 369.4550 186.3650 384.4525 194.6082 C394.8025 200.2965 406.5625 209.4458 411.9750 220.1670 C413.6675 223.5180 414.2225 227.3045 415.8950 230.6185 C417.0675 232.9390 418.5925 235.1042 419.8625 237.3785 C422.2625 241.7740 424.1550 246.4285 425.5050 251.2525 C428.5675 262.0075 428.3750 274.4075 422.7425 284.3275 C419.6925 289.7000 414.7950 294.3775 409.9650 298.1725 C406.9525 300.5400 403.8025 302.6800 401.4850 305.7875 C400.5200 305.8875 399.6375 306.0225 398.7150 306.3375 C395.7775 307.3500 392.9650 308.9875 390.1650 310.3375 C387.7625 311.4950 385.1850 312.4400 382.9075 313.8375 C379.9550 315.6500 376.3500 318.7000 372.9725 319.5125 C371.6050 319.8425 369.7975 318.8050 368.2200 319.1975 C364.8775 320.0275 361.5500 321.3025 358.2275 322.2625 C354.7600 323.2650 351.0600 323.9950 347.6850 325.2325 C345.5550 326.0125 343.7700 327.8300 341.5500 328.2475 C339.4575 328.6400 337.2875 327.9725 335.1350 328.2825 C325.9475 329.6050 316.8175 331.4800 307.6475 332.9350 C307.5800 332.9625 307.5150 332.9925 307.4500 333.0200 C306.4950 333.4125 305.0950 333.4025 304.3675 334.0250 C303.7975 336.0875 303.3225 336.3075 301.5375 337.3450 C301.3125 336.4600 301.1450 335.1800 300.3600 334.6175 C299.2600 333.8300 296.8850 334.4775 295.5625 334.4050 C290.1900 335.2650 284.0100 335.7525 278.5600 335.9300 C274.5625 336.0625 270.4975 335.8900 266.5350 336.4850 C265.3475 336.6650 264.3875 337.0075 263.3300 337.5725 C260.6975 337.2375 258.0800 337.0975 255.4325 336.9750 C252.9250 336.9700 251.0550 337.4500 248.9243 338.8100 L248.7125 338.9475 C248.0052 338.5575 248.1842 337.5975 247.6738 336.9650 C247.2585 336.4500 245.1348 336.3250 244.4260 336.2375 C240.6167 335.9175 236.7478 336.0975 232.9263 335.9250 C229.4277 335.7700 225.9295 335.2325 222.4337 334.9600 C220.0375 335.2650 212.8163 333.7950 211.4462 334.6625 C211.3690 335.1075 211.3342 335.5125 211.3445 335.9650 L211.3578 336.4450 L210.9675 336.8075 C209.0948 336.9350 206.6515 336.0475 204.7700 335.7000 C204.1565 334.7625 203.5305 333.8300 202.8920 332.9075 C201.6380 332.6350 200.3947 332.3175 199.1650 331.9500 C195.8143 331.6550 192.4102 330.9275 189.0862 330.3875 C185.9760 329.8825 182.6460 329.5675 179.6223 328.7125 C168.1115 328.9375 171.6953 329.1700 162.2095 324.1225 C156.4865 322.5800 150.7767 321.2950 145.0842 319.5800 C143.0140 319.1950 141.8985 319.2250 139.9155 320.0575 C135.6230 318.0875 131.5298 316.3000 127.9948 313.0850 Z"></path>
<path id="" fill="#662113" fill-opacity="1.0" stroke="#000000" stroke-width="0.0" stroke-opacity="1.0" stroke-linecap="round" stroke-linejoin="round"  filling="0" d="M199.1650 331.9500 C200.3895 331.9050 222.3107 334.8775 222.4337 334.9600 C220.0375 335.2650 212.8163 333.7950 211.4462 334.6625 C211.3690 335.1075 211.3342 335.5125 211.3445 335.9650 L211.3578 336.4450 L210.9675 336.8075 C209.0948 336.9350 206.6515 336.0475 204.7700 335.7000 C204.1565 334.7625 203.5305 333.8300 202.8920 332.9075 C201.6380 332.6350 200.3947 332.3175 199.1650 331.9500 Z"></path>
<path id="" fill="#682214" fill-opacity="1.0" stroke="#000000" stroke-width="0.0" stroke-opacity="1.0" stroke-linecap="round" stroke-linejoin="round"  filling="0" d="M127.9948 313.0850 C130.3810 314.2050 133.0005 314.5950 135.4828 315.4625 C138.7932 316.6175 141.8765 318.1950 145.0842 319.5800 C143.0140 319.1950 141.8985 319.2250 139.9155 320.0575 C135.6230 318.0875 131.5298 316.3000 127.9948 313.0850 Z"></path>
<path id="" fill="#662113" fill-opacity="1.0" stroke="#000000" stroke-width="0.0" stroke-opacity="1.0" stroke-linecap="round" stroke-linejoin="round"  filling="0" d="M162.2095 324.1225 C168.0222 325.4650 173.7380 327.7275 179.6223 328.7125 C168.1115 328.9375 171.6953 329.1700 162.2095 324.1225 Z"></path>
<path id="" fill="#672214" fill-opacity="1.0" stroke="#000000" stroke-width="0.0" stroke-opacity="1.0" stroke-linecap="round" stroke-linejoin="round"  filling="0" d="M295.5625 334.4050 C296.5000 333.8250 305.9800 333.0125 307.6475 332.9350 C307.5800 332.9625 307.5150 332.9925 307.4500 333.0200 C306.4950 333.4125 305.0950 333.4025 304.3675 334.0250 C303.7975 336.0875 303.3225 336.3075 301.5375 337.3450 C301.3125 336.4600 301.1450 335.1800 300.3600 334.6175 C299.2600 333.8300 296.8850 334.4775 295.5625 334.4050 Z"></path>
<path id="" fill="#6c2617" fill-opacity="1.0" stroke="#000000" stroke-width="0.0" stroke-opacity="1.0" stroke-linecap="round" stroke-linejoin="round"  filling="0" d="M244.4260 336.2375 C245.8987 336.0950 254.4650 336.3425 255.4325 336.9750 C252.9250 336.9700 251.0550 337.4500 248.9243 338.8100 L248.7125 338.9475 C248.0052 338.5575 248.1842 337.5975 247.6738 336.9650 C247.2585 336.4500 245.1348 336.3250 244.4260 336.2375 Z"></path>
<path id="" fill="#fee7b6" fill-opacity="1.0" stroke="#000000" stroke-width="0.0" stroke-opacity="1.0" stroke-linecap="round" stroke-linejoin="round"  filling="0" d="M243.3333 52.6875 C246.3895 52.6582 255.9350 61.7530 260.8425 63.2842 C264.3500 64.3788 268.4650 64.4238 272.1175 64.7460 C282.5250 65.6653 291.8950 68.3473 300.7075 74.1048 C303.3925 75.8595 305.7450 78.0185 307.9900 80.2993 C315.3900 87.8138 317.2325 94.9975 319.3250 105.0293 C320.6675 104.9463 322.0350 104.9048 323.3800 104.9655 C328.9175 105.2158 334.3700 106.6407 339.6300 108.3095 C350.2225 111.6693 360.4700 116.1635 368.0950 124.5765 C376.2950 133.5870 380.6075 145.4688 380.0975 157.6407 C385.0400 158.3130 389.5350 160.3250 393.6325 163.1425 C397.0550 165.4960 400.3350 168.3420 402.9475 171.5802 C409.7275 179.9795 414.3550 192.8150 416.2875 203.3640 C417.2075 208.3867 418.0675 213.8300 418.0250 218.9348 C418.0000 221.9165 417.3225 224.7600 416.7825 227.6730 C414.9100 237.7693 412.9700 243.9600 406.9525 252.5900 C385.0375 284.0275 340.2425 297.5350 303.9675 301.7825 C297.8150 302.5025 291.4900 303.4625 285.3125 303.7525 C279.9425 304.0050 274.1250 303.4875 268.8450 304.4650 C268.7725 304.4775 268.6975 304.4925 268.6250 304.5075 C264.3650 304.7950 260.0550 304.9175 255.7900 304.6925 C252.8100 304.5375 249.8450 304.1275 246.8600 304.0650 C242.4868 303.9700 238.1003 304.0675 233.7318 303.8325 C222.4260 303.1575 211.1605 301.9225 199.9767 300.1325 C170.3770 295.5050 139.0643 287.3000 116.3770 266.6125 C110.1458 260.9525 104.8593 254.3300 100.7177 247.0005 C99.7870 245.3622 96.6155 237.8273 95.4585 237.1335 C95.0420 236.8837 94.7563 236.6698 94.4187 236.3085 C94.7845 232.7090 95.0208 229.1938 94.8720 225.5760 C94.7640 222.9518 94.3992 220.3528 94.4760 217.7193 C94.8293 205.6013 100.1580 188.6743 107.7185 179.0562 C116.6025 167.7552 130.7202 159.4603 145.0280 157.7140 C144.9568 154.6865 144.8712 151.6497 145.0098 148.6232 C145.4690 138.5977 149.7543 127.0218 155.5585 118.8235 C158.1962 115.0977 161.4427 111.7377 164.8078 108.6588 C179.2213 95.4700 200.7375 91.2083 219.7357 91.9993 C219.7773 91.7742 219.8242 91.5505 219.8763 91.3278 C222.3797 80.2168 233.5235 58.9025 243.3333 52.6875 Z"></path>
<path id="" fill="#88c9f8" fill-opacity="1.0" stroke="#000000" stroke-width="0.0" stroke-opacity="1.0" stroke-linecap="round" stroke-linejoin="round"  filling="0" d="M208.4685 343.7050 C209.0205 343.8150 209.6020 344.0025 210.0955 344.2775 C211.8797 345.2650 213.2270 347.6475 213.7095 349.5675 C214.7467 353.6950 214.8578 360.4825 215.1275 364.8400 C215.4735 369.9375 215.8855 375.0300 216.3630 380.1175 L220.2775 427.2175 C220.8075 433.6875 221.7312 440.2000 222.0582 446.6700 C222.1140 447.7750 221.9950 448.5900 221.3978 449.5350 C220.2970 451.2750 218.4532 451.8450 216.5595 452.2675 C215.9595 452.2825 215.3387 452.3100 214.7413 452.2450 C213.4790 452.1075 212.1783 451.0700 211.4905 450.0475 C210.6758 448.8400 210.3965 447.7675 210.2310 446.3525 C209.8407 443.0150 209.9877 439.6050 209.7023 436.2525 L206.0533 391.3675 C205.4615 384.2700 201.8288 351.8850 203.0865 347.6950 C203.6593 345.7875 206.7932 344.4700 208.4685 343.7050 Z"></path>
<path id="" fill="#88c9f8" fill-opacity="1.0" stroke="#000000" stroke-width="0.0" stroke-opacity="1.0" stroke-linecap="round" stroke-linejoin="round"  filling="0" d="M305.6850 343.7475 C306.3325 343.7500 306.9075 343.7575 307.4950 344.0650 C308.9750 344.8450 310.4275 347.1150 310.8250 348.7050 C311.4100 351.0525 309.5975 364.0625 309.3400 367.2450 L304.2925 427.4675 C303.7575 433.5125 303.6775 439.6425 302.9825 445.6775 C302.8250 447.0675 302.5525 448.4325 301.7850 449.6275 C300.7675 451.2075 299.6150 451.8825 297.8275 452.3100 C295.2550 452.2525 294.2675 452.0025 292.4575 450.1125 C291.7450 447.0350 291.8800 443.6375 292.0200 440.5050 C292.1525 437.5350 292.5575 434.5925 292.7800 431.6300 L295.7875 395.6225 C296.4250 387.3125 297.2950 378.9975 297.8750 370.6875 C298.2900 364.7125 298.4275 358.5800 299.2075 352.6450 C299.4150 351.0600 299.7775 349.3925 300.4600 347.9400 C301.5850 345.5425 303.3050 344.5775 305.6850 343.7475 Z"></path>
<path id="" fill="#88c9f8" fill-opacity="1.0" stroke="#000000" stroke-width="0.0" stroke-opacity="1.0" stroke-linecap="round" stroke-linejoin="round"  filling="0" d="M256.6900 345.7450 C257.4475 345.7500 258.2975 345.9675 258.9875 346.2775 C260.2600 346.8450 261.0875 347.7975 261.5650 349.0975 C261.8925 349.9850 262.0400 350.9475 262.0825 351.8925 C262.3025 356.5650 262.0650 361.3600 262.0625 366.0475 L262.0575 395.7125 L262.0475 429.5000 C262.0625 435.8825 262.2850 442.3325 262.0775 448.7075 C262.0350 450.0575 261.9175 451.5300 261.2800 452.7425 C260.2500 454.7075 258.2575 455.5850 256.2700 456.2725 C256.0650 456.2675 255.8600 456.2550 255.6550 456.2325 C253.7950 456.0300 252.3575 453.9625 251.2900 452.5900 C250.7150 448.4825 250.9750 444.1375 250.9750 439.9925 L250.9750 419.1400 C250.9775 396.9850 250.7300 374.8025 250.9750 352.6525 C250.9850 351.6625 250.8425 350.2025 251.2925 349.2950 C252.1975 347.4800 254.8800 346.4175 256.6900 345.7450 Z"></path>
<path id="" fill="#88c9f8" fill-opacity="1.0" stroke="#000000" stroke-width="0.0" stroke-opacity="1.0" stroke-linecap="round" stroke-linejoin="round"  filling="0" d="M168.3257 338.7750 C170.7802 339.3250 172.4150 340.7375 173.9675 342.6225 C174.4845 351.1950 175.8752 359.5800 177.0010 368.0825 L182.0797 406.2000 C182.7610 411.1650 183.2908 416.1400 183.8825 421.1175 C184.5780 426.9600 185.3570 432.5550 185.0213 438.4725 C183.5343 440.3075 182.5668 440.8950 180.2473 441.3300 C179.4595 441.3025 178.6215 441.2775 177.8703 441.0125 C176.6862 440.5925 175.8728 439.6850 175.3330 438.5825 C173.3138 434.4525 171.6935 416.5825 171.0115 411.1150 L166.8228 377.5675 C165.7615 369.2875 164.2355 361.0250 163.3850 352.7250 C163.1622 350.5525 162.3855 344.3850 163.1555 342.5350 C163.9153 340.7075 166.6210 339.5425 168.3257 338.7750 Z"></path>
<path id="" fill="#88c9f8" fill-opacity="1.0" stroke="#000000" stroke-width="0.0" stroke-opacity="1.0" stroke-linecap="round" stroke-linejoin="round"  filling="0" d="M343.3500 338.6900 C343.8450 338.7400 344.3325 338.8325 344.8125 338.9625 C346.5000 339.4025 348.9175 340.7325 349.7775 342.3175 C350.3525 343.3750 350.0350 345.3475 349.9100 346.5300 C349.1700 353.6500 348.0200 360.7550 347.0200 367.8425 L341.4475 406.8075 L338.9275 424.5925 C338.4675 427.9850 338.2700 431.8050 337.2875 435.0850 C336.5950 437.3925 334.8825 439.0825 332.7750 440.1500 C332.0625 440.2675 331.3600 440.3775 330.6475 440.1925 C328.9825 439.7650 327.3425 438.4000 326.5000 436.9200 C325.7475 435.5950 326.0700 434.0275 326.2375 432.5725 C327.1250 424.8000 328.5400 416.9900 329.7000 409.2450 L335.2475 371.1225 C336.0575 365.5925 336.9125 360.0325 337.5975 354.4850 C338.0375 350.9400 338.0850 346.8500 339.0625 343.4325 C339.7050 341.1875 341.4025 339.8175 343.3500 338.6900 Z"></path>
<path id="" fill="#88c9f8" fill-opacity="1.0" stroke="#000000" stroke-width="0.0" stroke-opacity="1.0" stroke-linecap="round" stroke-linejoin="round"  filling="0" d="M130.3550 324.7400 C131.8282 324.7275 133.3497 325.1975 134.3873 326.2825 C135.4837 327.4275 135.8590 328.9850 136.2310 330.4800 C137.3687 335.0500 137.9745 339.8250 138.8983 344.4525 C141.1985 355.6500 143.4060 366.8650 145.5205 378.0975 C146.8375 384.9125 148.3398 391.7100 149.7202 398.5150 C150.9317 404.4875 152.2245 410.2725 152.2133 416.4075 C151.0365 417.1275 149.9155 417.6200 148.6230 418.0825 C148.2057 418.1650 147.6755 418.2875 147.2457 418.2075 C146.1080 417.9950 145.4108 417.2700 144.8525 416.2975 C142.9375 412.9675 142.9592 408.0550 142.1613 404.3300 C138.4105 386.8275 134.8720 369.2825 131.5470 351.6950 C130.1682 344.5425 128.5925 337.4375 127.3190 330.2575 C127.1827 329.4900 126.8662 328.2375 127.1533 327.5150 C127.6743 326.2025 129.1970 325.3925 130.3550 324.7400 Z"></path>
<path id="" fill="#88c9f8" fill-opacity="1.0" stroke="#000000" stroke-width="0.0" stroke-opacity="1.0" stroke-linecap="round" stroke-linejoin="round"  filling="0" d="M379.9725 324.7000 C382.0125 324.8325 383.2350 325.4225 384.9400 326.4450 C385.2350 329.3325 385.1900 332.3975 384.8100 335.2750 C384.0250 341.1925 382.4375 347.1425 381.3125 353.0200 L374.5075 388.7125 C373.5150 393.8475 372.5450 398.9900 371.6050 404.1350 C370.9625 407.6450 370.4925 411.2325 369.3175 414.6175 C368.6225 416.6200 367.7125 417.3000 365.8275 418.2200 C365.4425 418.2550 365.4325 418.2625 364.9875 418.2650 C363.8675 418.2725 362.6950 417.5425 361.9825 416.7100 C361.2025 415.8000 361.0000 414.8625 361.1475 413.6950 C362.0375 406.7225 363.8050 399.3200 365.1825 392.3925 L371.2975 360.6825 C372.5000 354.4900 373.7050 348.2550 374.7600 342.0375 C375.4475 338.0000 375.8775 333.8050 376.9575 329.8575 C377.5250 327.7850 378.2025 326.0275 379.9725 324.7000 Z"></path>
<path id="" fill="#fecc4d" fill-opacity="1.0" stroke="#000000" stroke-width="0.0" stroke-opacity="1.0" stroke-linecap="round" stroke-linejoin="round"  filling="0" d="M94.2560 235.2527 L94.3775 234.8390 C95.5648 230.7320 94.2465 215.4210 95.2040 213.9975 C95.2995 213.8557 95.4828 213.7997 95.6223 213.7007 C97.0472 213.6775 98.2258 214.7177 99.2080 215.6532 C101.2600 217.6070 103.1805 219.7020 105.2620 221.6245 C108.8607 224.9490 113.1992 228.1390 117.3190 230.7850 C120.0370 232.5307 122.9252 233.9545 125.8127 235.3932 C146.9245 245.9142 171.2170 250.2975 194.7000 249.9803 C198.6235 249.9272 202.4775 249.4245 206.3783 249.0872 C218.9227 248.0030 231.4700 246.1440 243.6223 242.7657 C252.8000 240.2142 261.6975 236.6510 270.3900 232.7827 C296.8125 221.0242 320.0825 206.0748 340.2750 185.2115 C350.8850 174.2500 360.6800 157.6962 364.0100 142.8545 C364.5200 140.5742 364.8700 138.2895 364.9575 135.9527 C365.0425 133.6730 364.5500 125.6472 365.0550 124.2498 C365.2900 123.6028 365.4175 123.7905 366.0050 123.7210 C368.9100 124.6497 371.7325 130.0385 373.0525 132.6133 C378.9675 144.1490 382.5875 157.8540 378.4450 170.5522 C377.1175 174.6185 375.5950 178.7547 373.6850 182.5827 C360.6800 208.6647 332.7725 234.6842 308.9075 251.0600 C299.4650 257.5400 289.1575 263.4675 278.9375 268.6275 C256.6725 279.8725 229.2587 288.1375 204.3275 289.9225 C199.2943 290.2825 194.1093 290.0550 189.0587 290.0425 C179.1783 290.0175 167.6350 289.2375 158.0643 286.8000 C157.8112 287.6950 157.7717 288.1250 157.1113 288.8000 C154.8528 289.4675 147.6255 286.1200 145.2765 285.0100 C139.3557 282.4825 134.3723 279.0500 128.8885 275.7775 C126.1573 274.1500 123.2812 272.8175 120.7458 270.8750 C115.4427 266.8125 105.7312 256.5650 102.6710 250.8050 C100.2145 246.1837 98.1248 238.6133 94.2560 235.2527 Z"></path>
<path id="" fill="#ffcc4d" fill-opacity="1.0" stroke="#000000" stroke-width="0.0" stroke-opacity="1.0" stroke-linecap="round" stroke-linejoin="round"  filling="0" d="M309.3300 82.3775 C311.4700 83.0623 313.0125 85.2477 314.0875 87.1257 C318.9675 95.6585 319.7350 107.8438 317.1600 117.2105 C312.9650 132.4640 302.1525 143.8020 289.7100 152.9393 C286.7975 155.0773 283.8525 157.2990 280.7100 159.0912 C269.9075 165.2160 258.5350 170.2753 246.7540 174.1978 C240.3820 176.2502 233.6695 177.7157 227.0948 178.9470 C208.9178 182.3510 190.5403 183.6215 172.5123 178.6497 C161.6243 175.6470 152.1695 171.1785 146.4117 160.9965 C145.9470 160.0392 145.5110 159.0473 145.3008 157.9987 C144.5645 154.3250 144.7657 149.7478 145.1328 146.0282 C145.5640 141.6595 147.8327 130.0735 150.2843 126.7233 C150.7490 126.0880 151.1682 125.8390 151.9312 125.7135 C153.0607 126.9800 154.3650 135.2767 156.3750 138.5788 C161.0125 146.1967 168.5818 150.8120 177.1573 152.8805 C184.8103 154.7263 191.2883 155.0330 199.1317 155.0293 C225.2847 154.9870 250.9300 147.8130 273.3100 134.2793 C288.4125 125.0160 303.3450 112.5847 308.1850 94.7872 C309.3525 90.4868 308.3275 86.0027 309.1925 82.8402 C309.2350 82.6850 309.2850 82.5318 309.3300 82.3775 Z"></path>
<path id="" fill="#dd2e44" fill-opacity="1.0" stroke="#000000" stroke-width="0.0" stroke-opacity="1.0" stroke-linecap="round" stroke-linejoin="round"  filling="0" d="M138.7185 195.0457 C141.4480 194.7668 144.0835 195.0155 146.5760 196.2575 C149.4023 197.6658 151.4505 200.0610 152.3570 203.0890 C153.3615 206.4447 152.6790 209.4597 150.9825 212.4295 C148.6118 216.5793 139.0582 229.8910 135.5915 232.9967 C133.9993 234.4230 132.5182 235.3362 130.4438 235.9145 C127.6378 236.4767 124.8223 236.5063 122.2190 235.1492 C119.5210 233.7430 117.1533 231.0547 116.3275 228.1187 C115.3780 224.7435 116.1042 221.5108 117.8327 218.5620 C120.2180 214.4925 130.3763 200.3253 133.6087 197.5510 C135.1472 196.2307 136.7908 195.5533 138.7185 195.0457 Z"></path>
<path id="" fill="#aa8dd7" fill-opacity="1.0" stroke="#000000" stroke-width="0.0" stroke-opacity="1.0" stroke-linecap="round" stroke-linejoin="round"  filling="0" d="M385.7700 194.0412 C388.2325 193.8082 390.9000 194.4730 393.0600 195.6500 C395.8325 197.1602 397.9475 199.6795 398.7850 202.7413 C399.2475 204.4545 399.2775 206.2563 398.8725 207.9837 C397.7275 212.6613 390.9275 223.3635 388.1525 228.1230 C385.7050 232.3185 383.1450 235.7045 378.2125 236.9980 C375.2600 237.1147 372.7300 237.0470 370.1550 235.3882 C367.3400 233.5737 365.1025 230.4707 364.4775 227.1590 C364.2575 225.9995 364.2350 224.7832 364.5525 223.6407 C366.0300 218.3350 369.6650 213.1588 372.4025 208.4182 C374.0450 205.5742 375.5750 202.6073 377.4025 199.8813 C379.4900 196.7677 382.0400 194.7677 385.7700 194.0412 Z"></path>
<path id="" fill="#77b255" fill-opacity="1.0" stroke="#000000" stroke-width="0.0" stroke-opacity="1.0" stroke-linecap="round" stroke-linejoin="round"  filling="0" d="M229.2115 208.8340 C232.8268 208.8775 235.0742 209.6625 237.7815 212.0152 C241.1962 214.9830 252.9150 228.1560 254.9875 231.9510 C255.8300 233.4953 256.2200 235.1147 256.3150 236.8687 C256.4900 240.0923 255.6375 242.8900 253.4100 245.2632 C250.9125 247.9260 248.6715 249.0005 245.0417 249.0925 C242.6615 248.9935 240.8630 248.7637 238.8692 247.2990 C235.1405 244.5598 222.1880 230.1305 219.7713 226.1033 C218.9267 224.7070 218.3878 223.1478 218.1895 221.5280 C217.8163 218.5435 218.8862 215.2072 220.8065 212.9117 C222.9583 210.3398 225.9655 209.1820 229.2115 208.8340 Z"></path>
<path id="" fill="#f4900c" fill-opacity="1.0" stroke="#000000" stroke-width="0.0" stroke-opacity="1.0" stroke-linecap="round" stroke-linejoin="round"  filling="0" d="M324.0475 160.0620 C326.6475 159.8685 329.2100 160.7072 331.3475 162.1617 C333.9725 163.9510 336.0100 166.7800 336.5825 169.9365 C337.1050 172.8132 336.2250 175.9440 334.5275 178.2943 C333.4775 179.7510 332.0925 180.8533 330.5475 181.7478 C326.5100 184.0860 309.6300 190.3360 304.7100 191.1645 C302.1800 191.4232 299.5925 190.9995 297.4275 189.6048 C294.7250 187.8635 292.6925 184.6373 292.1500 181.4807 C291.6525 178.5768 292.5650 175.4848 294.2500 173.1060 C295.3625 171.5360 296.7775 170.3415 298.4475 169.4062 C301.4925 167.7015 320.6125 160.6868 324.0475 160.0620 Z"></path>
<path id="" fill="#55aced" fill-opacity="1.0" stroke="#000000" stroke-width="0.0" stroke-opacity="1.0" stroke-linecap="round" stroke-linejoin="round"  filling="0" d="M200.5782 117.0920 C206.4162 117.5258 211.9568 119.1840 217.6523 120.3757 C220.8147 121.0372 224.0995 121.4023 227.1720 122.4270 C228.4283 122.8457 229.6230 123.4240 230.6837 124.2227 C233.2213 126.1340 234.8448 128.8175 235.1910 131.9857 C235.5453 135.2278 234.8578 138.2405 232.7655 140.7908 C230.5130 143.5370 228.1245 144.6070 224.7043 144.9940 C219.8535 144.7888 215.2773 143.4335 210.5515 142.4680 C206.4823 141.6367 202.2325 141.0515 198.2865 139.7500 C196.9365 139.3047 195.6432 138.7190 194.4935 137.8728 C192.0220 136.0535 190.5363 133.3783 190.1087 130.3568 C189.6602 127.1885 190.4625 124.1192 192.4102 121.5768 C194.4920 118.8590 197.2560 117.5255 200.5782 117.0920 Z"></path>
</svg>