<svg xmlns="http://www.w3.org/2000/svg" viewBox="0 0 512 512" height="512.0px" width="512.0px">
<path id="" fill="#fecc4d" fill-opacity="1.0" stroke="#000000" stroke-width="0.0" stroke-opacity="1.0" stroke-linecap="round" stroke-linejoin="round"  filling="0" d="M251.5825 112.0988 C346.3950 109.6165 425.2525 184.4957 427.6800 279.3100 C430.1050 374.1250 355.1800 452.9375 260.3650 455.3100 C165.6277 457.6775 86.8938 382.8275 84.4695 288.0925 C82.0455 193.3570 156.8485 114.5788 251.5825 112.0988 Z"></path>
<path id="" fill="#664500" fill-opacity="1.0" stroke="#000000" stroke-width="0.0" stroke-opacity="1.0" stroke-linecap="round" stroke-linejoin="round"  filling="0" d="M203.4173 56.3448 C205.7287 56.0800 208.0838 56.3105 210.3932 56.5018 C219.2348 57.2337 227.4377 59.3862 235.6537 62.7000 C241.9095 65.2230 248.2672 68.5417 255.1425 68.6995 C264.3475 68.9108 272.4025 64.0000 280.8400 61.0225 C287.1800 58.7850 293.5725 57.2500 300.2675 56.5412 C309.3875 55.5755 317.2825 57.3325 324.4825 63.1842 C339.2775 75.2115 349.5050 105.6740 354.3100 124.0000 C355.6150 128.9828 357.1300 134.2350 357.6500 139.3590 C361.6200 138.4167 365.8075 138.1313 369.8400 137.4715 C379.8225 135.8385 389.5800 133.0965 398.6325 128.5072 C403.2875 126.1462 407.5850 122.8350 411.3100 119.1942 C419.3750 111.3125 425.2525 102.6600 437.5100 101.1390 C442.9900 100.4590 449.0200 101.6160 453.4325 105.0740 C457.7775 108.4790 460.0300 113.9355 460.6650 119.3043 C462.3775 133.7685 450.6600 151.0965 442.0150 162.0725 C439.2475 165.5855 436.2625 169.1628 433.0775 172.3047 C421.9450 183.2795 405.1175 195.0282 391.0850 202.0058 C370.3800 212.3013 340.1375 220.7888 317.1950 223.4970 C304.5275 226.0482 291.2600 226.5862 278.3850 227.1530 C274.6875 227.3158 271.0075 227.8160 267.3075 227.9155 C259.6800 228.1205 251.8750 228.1532 244.2495 227.8370 C241.0448 227.7040 237.8578 227.3277 234.6552 227.1727 C225.4575 226.7278 216.2505 226.3517 207.0980 225.2410 C166.6470 220.3315 126.6055 209.9872 93.7487 184.8195 C84.3690 177.6350 75.9635 169.6815 68.6827 160.3427 C60.2745 149.5582 49.4890 133.4740 51.3302 119.2900 C52.0318 113.8855 54.5457 108.1722 58.9917 104.8378 C62.6930 102.0618 67.2665 100.8175 71.8595 100.9740 C90.3305 101.6032 95.9948 118.4800 110.1280 126.5663 C124.6747 134.8890 138.0720 136.9660 154.2905 139.2565 C155.1215 133.6910 156.6048 128.1033 158.0733 122.6745 C162.9247 104.7387 169.7507 84.6022 181.2525 69.7783 C186.9390 62.4487 194.0965 57.4975 203.4173 56.3448 Z"></path>
<path id="" fill="#815c0d" fill-opacity="1.0" stroke="#000000" stroke-width="0.0" stroke-opacity="1.0" stroke-linecap="round" stroke-linejoin="round"  filling="0" d="M212.6933 80.0375 C224.4820 78.9723 233.0540 81.9262 243.5385 86.7105 C247.1560 88.3610 251.6650 90.5940 255.6925 90.6552 C260.6400 90.7305 265.8950 87.8508 270.3050 85.8443 C279.2200 81.7858 288.1250 79.0700 298.0575 79.9955 C303.6600 80.5175 308.0275 84.4200 311.4850 88.5980 C313.1500 90.6097 314.7100 92.7363 316.0250 94.9937 C318.3550 98.9872 326.5575 115.5618 326.1975 119.2485 C324.1725 122.6205 307.9275 128.0110 303.7175 129.3633 C289.3625 133.2883 274.5975 135.5323 259.7250 136.0508 C254.3875 136.2120 249.2948 135.7478 243.9960 135.3223 C232.3305 134.3853 221.2977 132.9263 209.9973 129.7057 C207.0033 128.8522 203.9592 128.0307 201.0645 126.8780 C198.6078 125.8997 186.4865 121.3597 185.9377 119.1155 C185.1600 115.9337 194.0688 98.1143 196.4555 94.2122 C200.2778 87.9630 205.2160 81.7990 212.6933 80.0375 Z"></path>
<path id="" fill="#664500" fill-opacity="1.0" stroke="#000000" stroke-width="0.0" stroke-opacity="1.0" stroke-linecap="round" stroke-linejoin="round"  filling="0" d="M170.0862 335.7975 C171.5793 335.8275 172.8150 336.0825 174.1803 336.6900 C177.0645 337.9750 179.7230 340.0700 182.4435 341.6850 C187.4453 344.7150 192.6122 347.4625 197.9205 349.9150 C213.4645 357.3250 230.2130 361.8850 247.3685 363.3750 C251.1300 363.6850 254.8750 363.9825 258.6550 363.8100 C277.8000 362.9125 296.5750 358.2225 313.8925 350.0200 C319.1000 347.5925 324.1800 344.8975 329.1075 341.9475 C331.8125 340.3325 334.4250 338.3850 337.2225 336.9550 C338.2425 336.4375 339.2975 336.0075 340.4450 335.8950 C341.7650 335.7675 343.0025 336.2550 343.9775 337.1450 C344.8325 337.9250 345.2125 338.9350 345.2475 340.0775 C345.3925 344.8275 337.1625 353.9350 333.9425 357.5425 C322.0875 370.6200 304.9675 381.9225 288.1125 387.3850 C261.9800 395.9900 233.4868 393.7150 209.0495 381.0800 C199.1552 376.0100 188.4565 368.1250 180.6763 360.1975 C177.4775 356.9400 174.6235 353.3600 171.7905 349.7850 C169.9005 347.4025 167.2007 344.4375 166.3333 341.4925 C166.0117 340.4000 165.9772 339.1475 166.5785 338.1400 C167.3825 336.7925 168.6015 336.1200 170.0862 335.7975 Z"></path>
<path id="" fill="#815c0d" fill-opacity="1.0" stroke="#000000" stroke-width="0.0" stroke-opacity="1.0" stroke-linecap="round" stroke-linejoin="round"  filling="0" d="M179.3223 140.6268 C183.5618 141.0282 187.3810 144.0638 191.1062 145.9580 C193.4865 147.1682 195.8992 148.1540 198.3967 149.0903 C211.7318 154.0887 226.9373 157.9393 241.1865 158.8235 C246.2945 159.1405 251.4900 158.9373 256.6075 158.9418 C261.4050 158.9462 266.2300 159.0748 271.0225 158.8725 C279.7375 158.5043 297.6425 154.8360 305.9375 152.0197 C310.5850 150.4425 315.3275 148.7095 319.7250 146.5367 C323.0725 144.8840 326.2900 142.8667 329.6900 141.3483 C330.5375 140.9700 331.3850 140.6370 332.3250 140.7103 C333.4500 142.5170 334.8625 152.0160 335.4300 154.8435 C334.6125 157.5332 333.1125 159.3465 331.1300 161.2470 C330.4825 161.8265 329.8125 162.3593 329.1150 162.8790 C312.8450 175.0190 290.6800 180.0115 270.6625 181.0228 C265.8525 181.2657 260.9475 181.0887 256.1275 181.0905 C250.5475 181.0925 244.8870 181.2758 239.3175 180.9442 C235.3017 180.7052 231.1980 180.0612 227.2140 179.4733 C212.0105 177.2287 193.0340 172.1552 181.6820 161.4088 C180.3837 160.1797 178.9775 158.9035 177.9420 157.4370 C177.4065 156.6785 177.0395 155.9265 176.9597 154.9917 C176.6905 151.8307 178.6938 144.2215 179.3223 140.6268 Z"></path>
<path id="" fill="#664500" fill-opacity="1.0" stroke="#000000" stroke-width="0.0" stroke-opacity="1.0" stroke-linecap="round" stroke-linejoin="round"  filling="0" d="M315.4150 237.3205 C318.8100 236.7630 323.0750 238.0170 326.0400 239.6660 C332.9350 243.5010 337.0675 250.5100 339.1425 257.9325 C342.2825 269.1500 341.4125 280.9800 335.5925 291.1925 C331.5575 298.2700 327.1525 301.3650 319.3375 303.4775 C319.1500 303.5225 318.9600 303.5650 318.7700 303.6025 C314.6775 304.3975 309.2400 302.0375 305.9450 299.7225 C299.1550 294.9550 295.3800 286.3650 294.0250 278.4000 C292.1250 267.2425 293.9325 255.6975 300.6350 246.3855 C304.3050 241.2852 309.2250 238.3387 315.4150 237.3205 Z"></path>
<path id="" fill="#664500" fill-opacity="1.0" stroke="#000000" stroke-width="0.0" stroke-opacity="1.0" stroke-linecap="round" stroke-linejoin="round"  filling="0" d="M193.4235 237.3270 C197.0517 236.7510 201.2878 238.2218 204.4178 239.9895 C210.8138 243.6015 215.1225 251.1025 216.9982 258.0275 C220.1172 269.5425 219.1178 281.3725 213.1187 291.7950 C209.2375 298.5400 204.3022 301.5900 196.8915 303.5925 C192.5137 304.2825 187.0253 302.1100 183.4985 299.5625 C176.8695 294.7750 172.9580 285.8250 171.7495 277.9550 C170.1008 267.2225 171.8143 255.2300 178.4198 246.3530 C182.2072 241.2628 187.1915 238.2722 193.4235 237.3270 Z"></path>
</svg>