<svg xmlns="http://www.w3.org/2000/svg" viewBox="0 0 512 512" height="512.0px" width="512.0px">
<path id="" fill="#d99d81" fill-opacity="1.0" stroke="#000000" stroke-width="0.0" stroke-opacity="1.0" stroke-linecap="round" stroke-linejoin="round"  filling="0" d="M372.4750 90.7545 C374.8450 90.6470 376.2125 91.7993 377.8925 93.3245 C380.4750 95.6687 382.8875 98.2753 385.3525 100.7487 L399.2300 114.6805 C406.3550 121.8073 414.0500 128.8168 420.7850 136.2547 C421.3825 136.9155 422.1675 137.6640 422.2175 138.5688 C420.1500 141.9583 416.8250 144.7780 414.0275 147.5755 L402.7900 158.8115 L359.8650 201.7240 L333.5550 228.0365 C329.2100 232.3967 323.9575 238.4252 319.1575 242.0430 L318.1025 242.3513 C317.6475 242.2617 317.2825 242.1585 316.8825 241.9155 C315.5400 241.1022 314.3050 239.9328 313.1075 238.9178 C311.0850 237.2023 308.9650 235.5027 307.1300 233.5858 C304.7525 231.1005 302.6650 228.3160 300.1975 225.9178 C298.1050 223.8830 295.7500 222.1240 293.6350 220.1050 C290.9100 217.5030 288.4200 214.6705 285.7875 211.9798 C282.4350 208.5530 270.5100 197.6760 269.6525 193.7482 C270.2125 192.3548 271.4325 191.1013 272.4500 190.0095 C276.3875 185.7782 280.6375 181.7710 284.7300 177.6832 L308.1400 154.2945 C325.2150 137.2157 342.0675 119.8195 359.4150 103.0182 C361.6850 100.8177 364.2425 98.9507 366.5550 96.8067 C368.6225 94.8887 369.8275 91.9662 372.4750 90.7545 Z"></path>
<path id="" fill="#ccd6dd" fill-opacity="1.0" stroke="#000000" stroke-width="0.0" stroke-opacity="1.0" stroke-linecap="round" stroke-linejoin="round"  filling="0" d="M268.6650 187.7242 C269.0225 187.7428 269.1900 187.7173 269.5125 187.8432 C272.1750 188.8870 287.5825 204.1367 290.4650 207.1180 C292.2925 209.0087 293.8775 211.1393 295.7450 212.9892 C300.4775 217.6715 319.8825 234.7730 321.8700 239.8757 C322.6925 241.9917 321.2700 245.1600 320.4250 247.1275 C316.9450 255.2100 312.4225 262.8950 307.9100 270.4300 C302.0675 280.1900 296.1200 289.5525 289.3750 298.7250 C274.6300 319.0125 257.9625 337.8300 239.6062 354.9200 C237.6908 356.7075 235.5935 358.2825 233.6528 360.0400 C232.0120 361.5250 230.4865 363.1375 228.8390 364.6150 C222.5267 370.2750 215.8845 375.7150 209.2385 380.9775 C204.8390 384.4625 200.1660 387.6700 195.6147 390.9525 C192.4180 393.2575 189.3078 395.7075 186.0567 397.9350 C157.4970 417.5025 126.2165 432.9300 94.1915 445.8875 C89.3853 447.8175 84.4035 449.3825 79.5023 451.0450 C73.7643 452.9925 68.0902 454.9725 62.2783 456.6925 C59.4433 457.5325 56.2315 458.7925 53.3027 459.0750 L53.0193 458.8325 C52.0293 454.2150 62.4012 425.9650 64.4660 420.6850 C84.4342 368.1650 114.1510 319.8950 152.0508 278.4150 C157.9688 272.0525 164.3525 265.8825 170.5782 259.8175 C174.2383 256.2500 177.7278 252.4825 181.4665 249.0013 C191.1393 240.1712 201.1785 231.7515 211.5580 223.7643 C226.7283 211.8770 242.9377 201.3793 259.9900 192.3978 C262.8875 190.8633 265.6600 189.0405 268.6650 187.7242 Z"></path>
<path id="" fill="#bf6952" fill-opacity="1.0" stroke="#000000" stroke-width="0.0" stroke-opacity="1.0" stroke-linecap="round" stroke-linejoin="round"  filling="0" d="M297.6750 164.9187 C299.4975 164.9753 301.9925 166.3400 304.0975 166.7422 L333.2550 172.4705 C337.7900 173.4082 342.2875 174.5515 346.8325 175.4342 L365.6975 179.0457 C368.0200 179.4742 376.1900 180.5520 377.8375 181.4220 C378.1650 181.5940 378.1275 181.8290 378.2200 182.1585 C377.9350 183.2668 377.4275 183.9843 376.6975 184.8590 C374.9200 186.9823 372.7100 188.8080 370.7575 190.7695 C367.6450 193.8922 364.3900 198.0890 360.7275 200.5343 C359.9800 201.0323 359.1875 201.1082 358.3150 201.1918 C354.8300 201.0335 351.3850 200.2650 347.9625 199.6358 C341.7825 198.4993 335.7000 197.1670 329.5525 195.8808 C317.3425 193.3268 304.8925 191.0445 292.6250 188.6933 C289.5325 188.1005 286.3875 187.4970 283.2550 187.1535 C281.5175 186.9630 279.7600 187.2247 278.0650 186.7150 C277.8500 186.4995 277.6125 186.4090 277.6500 186.0760 C277.9450 183.5607 294.7700 167.6835 297.6750 164.9187 Z"></path>
<path id="" fill="#bf6952" fill-opacity="1.0" stroke="#000000" stroke-width="0.0" stroke-opacity="1.0" stroke-linecap="round" stroke-linejoin="round"  filling="0" d="M338.1775 124.7827 C340.0000 125.2830 341.5625 126.5663 343.4900 127.0658 C348.2925 128.3103 353.2475 129.0723 358.1275 129.9535 C363.7175 130.9690 369.2975 132.0490 374.8625 133.1935 C384.8375 135.2215 394.7275 137.4653 404.7500 139.2740 C408.6600 139.9798 412.5625 140.8005 416.5200 141.1882 C416.0525 142.9490 415.4675 144.6120 414.3325 146.0652 C411.8400 149.2540 408.5125 152.1150 405.6475 154.9745 C403.4650 157.1515 401.1850 159.8680 398.7175 161.6992 C398.2650 162.0360 397.9200 162.1443 397.3650 162.2130 C389.2500 160.0980 381.0750 158.5688 372.8575 156.9427 C359.8625 154.3710 346.8250 151.9247 333.8700 149.1763 C330.2925 148.4173 322.2550 147.4150 319.4475 145.9460 C318.9100 145.6645 318.8450 145.6330 318.6925 145.0632 C319.0500 143.9382 319.7675 142.9597 320.5175 142.0582 C322.9075 139.1880 335.6050 126.2972 338.1775 124.7827 Z"></path>
<path id="" fill="#bf6952" fill-opacity="1.0" stroke="#000000" stroke-width="0.0" stroke-opacity="1.0" stroke-linecap="round" stroke-linejoin="round"  filling="0" d="M296.4475 212.8015 C298.6500 212.6830 300.9800 213.0522 303.1600 213.3633 C309.9725 214.3355 316.7500 215.7750 323.5350 216.9397 C326.4750 217.4445 335.5550 218.3940 337.7425 219.4422 C338.6600 219.8828 338.9475 220.3505 339.2225 221.2700 C338.6950 223.8717 333.4350 228.2538 331.4875 230.1610 C329.1400 232.5135 325.2450 237.2780 322.2350 238.4045 C321.8550 238.3338 321.5475 238.2298 321.2125 238.0345 C318.2600 236.3175 302.0100 219.9102 298.9900 216.4700 C298.0950 215.4515 296.7750 214.1410 296.4475 212.8015 Z"></path>
<path id="" fill="rgb(192,101,89)" fill-opacity="1.0" stroke="#000000" stroke-width="0.0" stroke-opacity="1.0" stroke-linecap="round" stroke-linejoin="round"  filling="0" d="M373.1700 89.6248 C373.6200 89.7697 374.0025 89.9702 374.3925 90.2397 C377.4700 92.3798 380.3050 95.7932 382.9875 98.4563 C386.7425 102.1827 391.0850 105.9195 394.3400 110.0757 C394.7975 110.6610 395.2800 111.3238 395.3075 112.1010 C395.3275 112.6940 395.2150 112.8183 394.7825 113.1797 C392.2250 113.5960 386.5350 111.7702 383.6875 111.1873 C380.5750 110.6525 359.9500 106.9495 358.5475 105.2770 C359.0375 102.6422 370.4100 91.8310 373.1700 89.6248 Z"></path>
<path id="" fill="#9aaab4" fill-opacity="1.0" stroke="#000000" stroke-width="0.0" stroke-opacity="1.0" stroke-linecap="round" stroke-linejoin="round"  filling="0" d="M296.3775 215.6817 C296.8625 215.7010 297.3225 215.7888 297.7750 215.9673 C298.8900 216.4075 299.9075 217.3465 300.7825 218.1545 C306.6525 223.5692 312.0700 229.6158 317.8075 235.1905 C319.1050 236.4492 323.6125 239.8555 324.1100 241.2787 C324.3025 241.8220 323.9125 242.9353 323.7025 243.4608 C322.9700 245.2897 321.7900 246.9628 320.8975 248.7207 C319.9500 250.5875 319.2100 252.5650 318.2775 254.4450 C311.4525 268.2350 302.7650 280.9425 293.6500 293.2825 C286.3925 303.1050 279.0450 312.5525 270.9700 321.7300 C266.6550 326.6350 262.4975 331.7750 258.0450 336.5450 C247.8503 347.4650 236.7915 357.5300 225.5367 367.3175 C180.7572 406.2625 134.5443 433.4900 78.3297 452.7650 C74.2032 454.1400 59.4528 459.7550 56.1465 458.8725 C55.8398 458.3050 55.7790 458.1800 55.8992 457.5125 C56.2605 455.5050 59.1333 452.3650 60.4975 450.8750 C63.6787 447.3950 67.1982 444.1500 70.5385 440.8175 L89.8895 421.4800 L150.1660 361.2025 L257.6000 253.7525 C267.6125 243.5585 277.7525 233.4935 288.0225 223.5600 C290.7350 220.9552 293.0950 217.5805 296.3775 215.6817 Z"></path>
<path id="" fill="#feac33" fill-opacity="1.0" stroke="#000000" stroke-width="0.0" stroke-opacity="1.0" stroke-linecap="round" stroke-linejoin="round"  filling="0" d="M229.6268 126.3232 C230.5363 126.1950 231.4512 126.1950 232.3687 126.1895 C240.4225 126.2195 248.1335 129.4540 253.7975 135.1790 C260.7825 142.1413 262.0675 150.1723 262.0650 159.5470 C264.6850 162.6407 267.8350 165.4420 270.7200 168.3000 C276.1775 173.7057 281.6725 179.1122 287.0375 184.6080 C289.4300 187.0595 291.4825 189.8195 293.8875 192.2648 C300.1350 198.6172 306.3975 205.0255 312.8300 211.1913 C315.3400 213.5972 318.1350 215.6855 320.6175 218.1198 C332.7050 229.9710 344.5650 242.0855 356.4875 254.1025 C364.5025 253.9825 371.1400 254.9675 377.8275 259.7100 C384.1425 264.2700 388.3700 271.1700 389.5625 278.8675 C390.8150 286.6825 388.6625 294.7050 384.0075 301.0775 C379.1175 307.7700 372.0250 311.1475 364.0050 312.4375 C362.6525 312.6425 361.2975 312.7775 359.9275 312.7250 C351.8375 312.4900 344.1925 308.9800 338.7425 302.9975 C332.5875 296.2825 330.8825 287.8700 331.3075 279.0175 C325.9050 272.9500 319.7575 267.4925 314.0125 261.7475 L283.0875 230.6150 C272.3950 219.8513 261.6400 209.1467 250.8275 198.5025 C246.2287 193.9700 241.9218 189.0910 237.0625 184.8338 C229.2310 185.1545 221.7693 183.8752 215.3105 179.1520 C209.1015 174.6113 204.8130 167.2900 203.6610 159.7177 C202.4527 151.7750 204.7165 144.0755 209.4583 137.6800 C214.3723 131.0517 221.5887 127.4905 229.6268 126.3232 Z"></path>
<path id="" fill="#ffcb4c" fill-opacity="1.0" stroke="#000000" stroke-width="0.0" stroke-opacity="1.0" stroke-linecap="round" stroke-linejoin="round"  filling="0" d="M231.3107 138.1207 C240.9035 137.3618 249.3000 144.5128 250.0775 154.1040 C250.8550 163.6955 243.7222 172.1062 234.1322 172.9035 C224.5152 173.7032 216.0753 166.5445 215.2950 156.9258 C214.5148 147.3070 221.6905 138.8815 231.3107 138.1207 Z"></path>
<path id="" fill="#ffcb4c" fill-opacity="1.0" stroke="#000000" stroke-width="0.0" stroke-opacity="1.0" stroke-linecap="round" stroke-linejoin="round"  filling="0" d="M358.0500 266.1200 C367.5725 264.7450 376.4125 271.3350 377.8100 280.8525 C379.2100 290.3725 372.6375 299.2250 363.1225 300.6450 C353.5775 302.0700 344.6900 295.4725 343.2875 285.9250 C341.8850 276.3750 348.5000 267.5025 358.0500 266.1200 Z"></path>
<path id="" fill="#8a4633" fill-opacity="1.0" stroke="#000000" stroke-width="0.0" stroke-opacity="1.0" stroke-linecap="round" stroke-linejoin="round"  filling="0" d="M369.3675 84.4045 C369.3975 84.3400 369.4300 84.2758 369.4600 84.2110 C370.6800 81.5990 371.4150 78.8150 372.7300 76.2100 C378.0900 65.5983 386.8375 58.2152 397.9475 54.0927 C409.6475 49.7705 422.5875 50.2960 433.8975 55.5525 C445.0950 60.8053 453.7825 69.8140 457.9875 81.5293 C462.3950 93.4785 461.7500 106.7065 456.2025 118.1707 C451.8100 127.2930 445.2450 134.4620 436.1125 138.9705 C433.3500 140.3342 430.4250 141.2930 427.6675 142.6362 C428.3250 143.6662 428.9700 144.6610 429.3675 145.8262 C430.5200 149.2060 430.7450 153.4942 429.0750 156.7310 C427.5500 159.6890 424.5675 161.8150 421.4075 162.7210 C418.3175 163.6065 414.8075 163.3520 411.9825 161.7650 C407.5975 159.3000 403.4025 154.0130 399.8750 150.4113 C396.0800 146.5370 392.1200 142.8125 388.3825 138.8855 C386.2700 136.6655 384.3900 134.2307 382.3200 131.9693 C379.8925 129.3145 377.2650 126.8040 374.7175 124.2630 C370.0525 119.6570 365.3300 115.1068 360.5575 110.6130 C357.9925 108.2253 355.2150 105.9720 352.8275 103.4105 C351.3475 101.8245 349.9150 100.1240 349.3275 97.9933 C348.4025 94.6252 348.5475 90.4317 350.4175 87.4180 C352.1750 84.5815 355.3800 82.2690 358.6550 81.5472 C362.5550 80.6875 366.1800 82.3142 369.3675 84.4045 Z"></path>
<path id="" fill="#feab33" fill-opacity="1.0" stroke="#000000" stroke-width="0.0" stroke-opacity="1.0" stroke-linecap="round" stroke-linejoin="round"  filling="0" d="M427.6675 142.6362 C428.3250 143.6662 428.9700 144.6610 429.3675 145.8262 C430.5200 149.2060 430.7450 153.4942 429.0750 156.7310 C427.5500 159.6890 424.5675 161.8150 421.4075 162.7210 C418.3175 163.6065 414.8075 163.3520 411.9825 161.7650 C407.5975 159.3000 403.4025 154.0130 399.8750 150.4113 C396.0800 146.5370 392.1200 142.8125 388.3825 138.8855 C386.2700 136.6655 384.3900 134.2307 382.3200 131.9693 C379.8925 129.3145 377.2650 126.8040 374.7175 124.2630 C370.0525 119.6570 365.3300 115.1068 360.5575 110.6130 C357.9925 108.2253 355.2150 105.9720 352.8275 103.4105 C351.3475 101.8245 349.9150 100.1240 349.3275 97.9933 C348.4025 94.6252 348.5475 90.4317 350.4175 87.4180 C352.1750 84.5815 355.3800 82.2690 358.6550 81.5472 C362.5550 80.6875 366.1800 82.3142 369.3675 84.4045 C377.7175 93.3880 386.7525 101.8767 395.4250 110.5565 C406.1275 121.2663 416.6650 132.2385 427.6675 142.6362 Z"></path>
</svg>