<svg xmlns="http://www.w3.org/2000/svg" viewBox="0 0 512 512" height="512.0px" width="512.0px">
<path id="" fill="#ffffff" fill-opacity="0.027451" stroke="#000000" stroke-width="0.0" stroke-opacity="1.0" stroke-linecap="round" stroke-linejoin="round"  filling="0" d="M0.6766 0.0000 L511.3225 0.0000 C508.2025 0.6650 504.4600 0.3195 501.2650 0.3163 L484.2875 0.2973 L415.9925 0.2969 L147.6600 0.2999 L40.7298 0.2926 L15.1412 0.3109 C10.7615 0.3248 4.9184 0.8886 0.6766 0.0000 Z"></path>
<path id="" fill="#ffffff" fill-opacity="0.0196078" stroke="#000000" stroke-width="0.0" stroke-opacity="1.0" stroke-linecap="round" stroke-linejoin="round"  filling="0" d="M1.3091 512.0000 C3.3875 511.2775 25.6402 511.7425 29.6990 511.7425 L108.8480 511.7450 L408.0800 511.7525 L481.9375 511.7525 L501.0200 511.7350 C504.2850 511.7300 508.1175 511.3450 511.2925 512.0000 L1.3091 512.0000 Z"></path>
<path id="" fill="#ffffff" fill-opacity="0.027451" stroke="#000000" stroke-width="0.0" stroke-opacity="1.0" stroke-linecap="round" stroke-linejoin="round"  filling="0" d="M0.0000 0.9172 C0.7097 3.9909 0.2566 8.0218 0.2535 11.1965 L0.2509 30.6735 L0.2530 111.2188 L0.2531 439.7300 L0.2509 490.8325 C0.2507 494.5500 0.7518 508.0600 0.0000 510.5825 L0.0000 0.9172 Z"></path>
<path id="" fill="#feac33" fill-opacity="1.0" stroke="#000000" stroke-width="0.0" stroke-opacity="1.0" stroke-linecap="round" stroke-linejoin="round"  filling="0" d="M176.6597 245.0878 C181.2595 244.3667 186.6098 245.4382 190.8010 247.3537 C199.7695 251.4525 206.9203 260.0175 212.3922 268.0125 C214.7110 271.4025 216.8250 275.1250 219.9653 277.8325 C227.4820 284.3175 236.9397 285.7925 244.2705 293.6075 C251.0425 300.8250 250.3500 311.5425 256.1750 319.1325 C258.6675 322.3775 262.3700 324.7050 265.7425 326.9375 C275.0225 333.0725 285.1275 339.7475 289.2225 350.6600 C289.0550 351.1000 288.8850 351.5400 288.6800 351.9650 C287.6125 354.1800 285.8900 355.6000 283.4225 355.9250 C278.4775 356.5775 265.0625 353.4450 259.2550 352.6375 C254.2575 351.9450 223.0760 351.3025 219.4060 352.5475 L219.2660 352.9050 C220.2287 355.7075 225.6857 358.3225 228.0510 360.0425 C229.5745 361.1650 231.0148 362.3950 232.3605 363.7250 C233.3155 364.6750 234.1783 365.4425 234.1758 366.8650 C233.7865 367.6575 233.3215 368.2950 232.6608 368.8875 C227.7507 373.2925 213.9945 371.7425 207.7287 371.2275 C205.0170 370.9050 202.2318 371.0050 199.5022 370.7700 C191.8210 370.1150 184.1942 369.3750 176.5002 368.8275 C166.3282 368.1050 156.1080 366.8725 145.9020 367.0375 C139.5948 367.1375 133.3092 368.0575 127.0320 368.6375 C120.3763 369.2525 113.7490 369.5750 107.0918 370.3025 C101.2978 370.9350 95.2230 371.9325 89.4128 372.0000 C87.7665 372.0175 85.5925 371.9775 84.1435 371.1675 C82.8197 370.4250 80.2278 368.4925 79.9897 366.9325 C79.6837 364.9275 83.2892 356.0050 84.0847 353.2050 C85.8375 347.0325 87.0222 340.6300 89.3705 334.6450 C94.3485 321.9625 102.8575 317.3875 112.7343 309.3750 C116.2795 306.4975 119.6277 303.0825 122.6982 299.7075 C129.2278 292.5300 133.7910 283.8350 139.7823 276.2625 C147.1125 266.9975 158.6055 252.1025 169.2280 247.0505 C171.6367 245.9048 174.0265 245.3970 176.6597 245.0878 Z"></path>
<path id="" fill="#f4900c" fill-opacity="1.0" stroke="#000000" stroke-width="0.0" stroke-opacity="1.0" stroke-linecap="round" stroke-linejoin="round"  filling="0" d="M195.6823 298.6450 C195.8965 298.6550 196.1922 298.6650 196.3975 298.6950 C196.9885 298.7875 197.3508 298.8800 197.6543 299.4425 C198.5108 301.0275 198.6625 305.5075 199.0995 307.5400 C199.4995 309.4025 200.1328 311.2400 200.7063 313.0550 C201.4080 315.2750 203.9928 320.1775 204.2012 321.9800 C204.2153 322.1000 204.0188 322.6125 203.9850 322.6750 C203.3400 323.8450 201.7108 324.0725 200.5395 324.2675 C199.2990 324.3000 198.0793 324.3425 196.9108 323.8600 C194.8305 323.0000 193.3712 321.2825 192.5815 319.2050 C190.6300 314.0675 193.4702 303.6600 195.6823 298.6450 Z"></path>
<path id="" fill="#f4900c" fill-opacity="1.0" stroke="#000000" stroke-width="0.0" stroke-opacity="1.0" stroke-linecap="round" stroke-linejoin="round"  filling="0" d="M144.3273 300.7075 C144.9895 300.7675 145.3770 300.7750 145.9413 301.1650 C145.9872 301.3850 146.0190 301.4850 146.0287 301.7000 C146.1163 303.5800 144.9362 306.1900 144.2880 307.9450 C140.9695 316.9275 135.8040 328.4100 129.2623 335.3875 C127.1967 337.5925 125.4705 339.2400 122.3195 339.3425 C121.6808 339.2350 121.5325 339.2375 121.0508 338.8200 C120.3288 337.0500 121.3100 334.4200 121.7462 332.6225 C122.8167 328.2150 125.3980 323.5875 127.8062 319.7400 C130.8203 314.9275 139.5805 303.5975 144.3273 300.7075 Z"></path>
<path id="" fill="#f4900c" fill-opacity="1.0" stroke="#000000" stroke-width="0.0" stroke-opacity="1.0" stroke-linecap="round" stroke-linejoin="round"  filling="0" d="M178.7802 267.5825 C179.0793 267.6225 179.3217 267.6425 179.6130 267.7300 C180.5955 268.0275 181.1922 268.8925 181.6075 269.7850 C182.2428 271.1525 182.2133 272.8450 182.2188 274.3275 C182.2563 284.5075 176.7070 290.3775 174.0412 299.4900 C172.7805 303.7975 173.4645 308.6400 171.8365 312.8175 C171.0957 313.2775 170.6310 313.2175 169.7713 313.2650 C168.8490 313.1500 167.9377 312.9900 167.0222 312.8300 C166.7780 312.2050 166.5468 311.5775 166.3757 310.9275 C165.9238 309.1975 165.7995 307.4000 166.0095 305.6225 C166.9128 298.0325 174.9982 273.8725 178.7802 267.5825 Z"></path>
<path id="" fill="#f4900c" fill-opacity="1.0" stroke="#000000" stroke-width="0.0" stroke-opacity="1.0" stroke-linecap="round" stroke-linejoin="round"  filling="0" d="M194.9470 313.0600 C197.1212 313.3075 199.3288 313.8575 201.4778 314.2825 C203.0697 317.0675 205.0867 319.6050 206.8362 322.2975 C205.6548 322.7975 204.4043 323.1525 203.1840 323.5475 C201.8615 323.9525 200.5092 324.2825 199.1172 324.1125 C196.7838 323.8275 194.5335 322.6450 193.1250 320.7375 C191.5745 318.6400 191.7182 316.7675 192.0450 314.3400 C193.0140 313.7575 193.8432 313.3250 194.9470 313.0600 Z"></path>
<path id="" fill="#f4900c" fill-opacity="1.0" stroke="#000000" stroke-width="0.0" stroke-opacity="1.0" stroke-linecap="round" stroke-linejoin="round"  filling="0" d="M206.0050 347.9325 C206.9453 347.9825 207.8927 347.9475 208.6877 348.5125 C209.1788 349.2525 208.9987 349.9800 208.9165 350.8150 C208.7375 350.8250 208.5582 350.8325 208.3790 350.8375 C207.5255 350.8625 206.9857 350.8600 206.3340 350.2500 C205.9900 349.4425 205.9962 348.8000 206.0050 347.9325 Z"></path>
<path id="" fill="#f4900c" fill-opacity="1.0" stroke="#000000" stroke-width="0.0" stroke-opacity="1.0" stroke-linecap="round" stroke-linejoin="round"  filling="0" d="M149.2745 291.6525 L150.2747 291.8075 C150.8262 292.2750 150.9332 292.5875 151.0665 293.3000 C151.3932 295.0450 151.2018 296.9075 151.0043 298.6550 C150.4073 303.9375 148.9350 307.4200 145.8980 311.7350 C145.3150 312.5650 144.1897 314.1825 143.0632 314.1975 C142.4612 314.2050 142.2863 314.1100 141.8842 313.6925 L141.9037 312.6900 C142.7693 309.9275 143.6055 307.1975 144.2318 304.3700 C142.9240 304.2850 141.0477 304.3750 139.9902 303.5450 C140.2363 302.1875 148.0083 292.8575 149.2745 291.6525 Z"></path>
<path id="" fill="#f4900c" fill-opacity="1.0" stroke="#000000" stroke-width="0.0" stroke-opacity="1.0" stroke-linecap="round" stroke-linejoin="round"  filling="0" d="M176.0765 262.9400 C176.4753 262.9300 176.8757 262.9175 177.2747 262.9225 C177.7878 262.9275 178.2397 262.9750 178.5795 263.3925 C179.1183 264.0550 179.1497 264.7750 179.0972 265.5950 C179.0225 266.7600 179.0827 267.9125 179.1297 269.0775 C178.2155 269.0950 177.3745 269.2275 176.5872 268.6800 C175.4245 267.1825 175.9560 264.7475 176.0765 262.9400 Z"></path>
<path id="" fill="#feab32" fill-opacity="1.0" stroke="#000000" stroke-width="0.0" stroke-opacity="1.0" stroke-linecap="round" stroke-linejoin="round"  filling="0" d="M119.2535 335.9650 C119.7315 335.9300 120.3225 335.8300 120.7937 335.8950 C121.4122 335.9775 121.6665 336.2900 121.9568 336.8200 C122.4818 337.7825 122.1602 339.8225 121.9212 340.8700 C121.4585 340.9200 120.9187 341.0250 120.4570 340.9950 C119.9052 340.9575 119.5245 340.7375 119.2110 340.2700 C118.5352 339.2650 119.0900 337.1200 119.2535 335.9650 Z"></path>
<path id="" fill="#f4900c" fill-opacity="1.0" stroke="#000000" stroke-width="0.0" stroke-opacity="1.0" stroke-linecap="round" stroke-linejoin="round"  filling="0" d="M212.7925 348.0750 C216.7420 347.8500 232.7320 347.9500 235.9155 349.4425 C236.0412 349.7125 236.1172 349.8425 236.1835 350.1525 C236.3147 350.7700 236.2207 351.2100 235.8468 351.6875 C235.3253 351.7325 234.8047 351.7900 234.2855 351.8525 C228.8370 352.3300 223.5278 353.6150 218.1090 354.1225 C217.0750 353.5575 216.1175 352.8025 215.2003 352.0650 C213.7130 350.8700 212.9868 349.9775 212.7925 348.0750 Z"></path>
<path id="" fill="#f4900c" fill-opacity="1.0" stroke="#000000" stroke-width="0.0" stroke-opacity="1.0" stroke-linecap="round" stroke-linejoin="round"  filling="0" d="M168.6682 286.6475 C169.5375 286.7675 170.2135 286.9100 171.0117 287.2800 C171.0765 287.9250 166.9207 302.4225 166.4930 303.1025 C165.8723 303.1050 165.2758 303.1000 164.6633 302.9825 C164.0708 302.8675 164.2965 303.0100 163.9592 302.5150 C163.5670 298.9000 166.9523 289.8450 168.6682 286.6475 Z"></path>
<path id="" fill="#f4900c" fill-opacity="1.0" stroke="#000000" stroke-width="0.0" stroke-opacity="1.0" stroke-linecap="round" stroke-linejoin="round"  filling="0" d="M168.5365 311.8150 L172.1933 311.9450 C172.0775 313.8950 172.6922 317.5025 171.7155 319.1700 L170.8952 319.3800 C169.2920 318.4925 168.1512 317.1175 167.3112 315.5000 C166.7780 314.4750 166.5573 313.5575 166.9108 312.4450 C167.4800 311.8850 167.7640 311.9400 168.5365 311.8150 Z"></path>
<path id="" fill="#f4900c" fill-opacity="1.0" stroke="#000000" stroke-width="0.0" stroke-opacity="1.0" stroke-linecap="round" stroke-linejoin="round"  filling="0" d="M174.2717 266.7550 L177.1767 267.0600 C177.1098 269.0850 177.1232 271.1550 176.8080 273.1575 C175.8465 272.9625 174.9060 273.0550 173.9353 273.1100 C173.5720 271.5475 173.9095 268.3200 174.2717 266.7550 Z"></path>
<path id="" fill="#f4900b" fill-opacity="1.0" stroke="#000000" stroke-width="0.0" stroke-opacity="1.0" stroke-linecap="round" stroke-linejoin="round"  filling="0" d="M173.3387 273.7625 C174.2400 273.8600 175.1390 273.8700 175.9203 274.3775 C176.3940 275.4375 175.9487 276.9400 175.7840 278.1025 C174.7047 278.1700 173.9660 278.3275 173.1082 277.5800 C172.7025 276.4300 173.1495 274.9475 173.3387 273.7625 Z"></path>
<path id="" fill="#f4900c" fill-opacity="1.0" stroke="#000000" stroke-width="0.0" stroke-opacity="1.0" stroke-linecap="round" stroke-linejoin="round"  filling="0" d="M171.3777 279.9250 C172.3070 279.9450 173.1995 279.8700 173.9750 280.4000 C174.1953 281.1725 173.8992 281.8550 173.6817 282.5975 C173.2787 282.7250 172.7630 282.9400 172.3457 282.9650 C171.7363 283.0025 171.6300 282.8350 171.2518 282.4350 C171.0408 281.5825 171.2402 280.7775 171.3777 279.9250 Z"></path>
<path id="" fill="#77b255" fill-opacity="1.0" stroke="#000000" stroke-width="0.0" stroke-opacity="1.0" stroke-linecap="round" stroke-linejoin="round"  filling="0" d="M278.7725 289.7075 L278.8325 289.3225 C279.3650 285.6075 279.0800 281.6025 279.0725 277.8500 L279.0450 258.1600 L279.0375 190.2370 C279.0375 180.7375 278.0475 167.9445 280.6575 158.9240 C283.3375 149.6602 289.5375 141.4630 297.1525 135.6562 C307.1450 128.0352 319.6725 125.6472 331.9100 127.3717 C343.1450 128.9545 354.8925 135.5190 361.7275 144.6638 C365.2350 149.3578 368.5050 155.8295 369.5300 161.6390 C370.4275 166.7343 370.0900 172.1755 370.0875 177.3333 L370.0775 199.7533 C370.0775 205.5363 369.9925 211.3335 370.1150 217.1145 C370.2000 221.0977 370.4825 225.0735 370.5325 229.0582 C370.6050 235.0027 370.3200 240.9380 370.3450 246.8745 C370.3775 254.5025 370.5825 262.1175 370.5125 269.7525 C370.4725 273.9375 370.1675 278.1125 370.0950 282.2950 C369.9675 289.7325 370.0625 297.1850 370.0750 304.6225 C370.0800 309.6800 369.8725 314.8750 370.3475 319.9150 C373.9300 318.2675 378.7450 315.8800 380.2850 311.9775 C381.7850 308.1725 381.2200 303.0550 381.2050 299.0275 C381.1575 291.4850 381.1500 283.9425 381.1800 276.4000 C381.2000 270.7725 380.8875 264.9350 381.7975 259.3675 C383.1725 250.4100 388.9075 242.7198 397.1025 238.8470 C404.1050 235.6170 412.7450 234.8712 420.0325 237.6463 C427.4425 240.4677 433.0825 246.1095 436.2300 253.3400 C437.5150 256.2425 438.3350 259.3300 438.6575 262.4875 C439.5025 270.6450 438.8475 281.0600 438.8350 289.4750 L438.8175 305.9800 C438.8200 310.0350 438.9525 314.1300 438.5025 318.1675 C438.1050 321.8525 437.2025 325.4650 435.8225 328.9025 C431.3400 340.2075 421.5850 348.1300 410.6350 352.8075 C401.1600 356.8575 380.8500 361.6325 370.6550 362.0675 C370.9125 369.0675 371.0325 376.0725 371.0150 383.0775 C371.0200 388.0200 371.3525 393.3675 370.0850 398.1825 C369.5425 400.2350 368.5950 401.9975 367.1075 403.5250 C359.2675 411.5725 335.3025 413.9225 324.4575 413.8425 C312.6250 413.7525 290.3225 411.6800 281.7600 403.0025 C280.1800 401.4050 279.5825 399.8900 279.2325 397.6900 C278.4475 392.7775 278.9850 386.3475 278.9875 381.2975 L278.9850 347.8375 C278.9850 345.0325 279.5925 339.7650 278.6950 337.2350 C277.2925 335.5175 275.4900 334.2400 273.7350 332.9125 C269.1775 331.3825 264.3500 330.9500 259.6725 329.8925 C254.5400 328.7325 249.1420 327.5975 244.1817 325.8525 C232.2092 321.6400 220.0477 313.0900 214.3103 301.5300 C209.1422 291.1200 210.6710 280.5775 210.1135 269.4650 C210.0058 267.3200 209.0675 264.8700 209.2482 262.7850 C209.6835 262.3875 209.8905 262.3750 210.4505 262.2425 C211.5692 260.8025 210.9783 255.1400 210.9770 253.2250 L210.9740 223.3537 C210.9688 216.6735 210.3127 207.0748 211.5307 200.6738 C213.7970 188.7650 224.3282 180.0027 236.0677 178.5235 C243.8607 177.5415 251.2825 179.7000 257.4550 184.5525 C263.2550 189.1093 266.9325 196.1387 267.7725 203.4465 C268.5300 210.0542 268.0575 217.1055 268.0550 223.7648 L268.0475 261.0125 C268.0475 264.2725 267.4750 273.2075 268.4800 275.7500 C270.1575 279.9950 275.9125 285.8400 278.7725 289.7075 Z"></path>
<path id="" fill="#ffac33" fill-opacity="1.0" stroke="#000000" stroke-width="0.0" stroke-opacity="1.0" stroke-linecap="round" stroke-linejoin="round"  filling="0" d="M273.7350 332.9125 C275.3975 332.7100 277.3100 333.2275 278.9625 333.5125 C278.9825 334.6275 279.2275 336.2475 278.6950 337.2350 C277.2925 335.5175 275.4900 334.2400 273.7350 332.9125 Z"></path>
<path id="" fill="#ffcc4d" fill-opacity="1.0" stroke="#000000" stroke-width="0.0" stroke-opacity="1.0" stroke-linecap="round" stroke-linejoin="round"  filling="0" d="M142.6655 62.5000 C174.1410 61.1533 200.7380 85.5997 202.0432 117.0770 C203.3485 148.5542 178.8667 175.1190 147.3880 176.3828 C115.9677 177.6440 89.4633 153.2180 88.1605 121.7995 C86.8578 90.3810 111.2487 63.8443 142.6655 62.5000 Z"></path>
<path id="" fill="#ffac33" fill-opacity="1.0" stroke="#000000" stroke-width="0.0" stroke-opacity="1.0" stroke-linecap="round" stroke-linejoin="round"  filling="0" d="M144.7912 74.0212 C169.8882 73.8658 190.3610 94.0815 190.5222 119.1785 C190.6835 144.2753 170.4720 164.7525 145.3750 164.9190 C120.2705 165.0858 99.7858 144.8667 99.6245 119.7623 C99.4633 94.6575 119.6868 74.1772 144.7912 74.0212 Z"></path>
<path id="" fill="#3e721d" fill-opacity="1.0" stroke="#000000" stroke-width="0.0" stroke-opacity="1.0" stroke-linecap="round" stroke-linejoin="round"  filling="0" d="M417.5550 336.9175 C419.4275 335.1575 421.0275 333.9400 423.7375 334.0225 C425.9025 334.0875 428.2050 334.8700 430.3325 335.3025 C429.9625 338.3625 428.7375 339.2200 427.9650 341.7300 C428.1350 344.1975 428.3175 346.7575 426.6325 348.8025 C425.5025 350.1700 423.8250 350.8550 422.0825 350.9850 C419.9425 351.1450 417.9750 350.5750 416.0000 349.8375 L413.0225 351.2475 C412.9650 349.4175 412.9600 347.5875 413.0100 345.7550 C413.0175 345.5100 413.0250 345.2625 413.0475 345.0175 C413.3925 341.4475 414.8175 339.1925 417.5550 336.9175 Z"></path>
<path id="" fill="#76b155" fill-opacity="1.0" stroke="#000000" stroke-width="0.0" stroke-opacity="1.0" stroke-linecap="round" stroke-linejoin="round"  filling="0" d="M417.5550 336.9175 C419.4275 335.1575 421.0275 333.9400 423.7375 334.0225 C425.9025 334.0875 428.2050 334.8700 430.3325 335.3025 C429.9625 338.3625 428.7375 339.2200 427.9650 341.7300 C427.4275 341.5625 427.4700 341.5200 427.1950 341.0300 C423.3075 334.1150 420.0300 338.7850 417.5550 336.9175 Z"></path>
<path id="" fill="#76b053" fill-opacity="1.0" stroke="#000000" stroke-width="0.0" stroke-opacity="1.0" stroke-linecap="round" stroke-linejoin="round"  filling="0" d="M413.0100 345.7550 C413.9700 346.1600 414.2225 347.1700 414.6025 348.1050 L414.7000 348.3475 C415.2825 348.7175 416.1550 349.0325 416.3300 349.7025 L416.0000 349.8375 L413.0225 351.2475 C412.9650 349.4175 412.9600 347.5875 413.0100 345.7550 Z"></path>
<path id="" fill="#3e721d" fill-opacity="1.0" stroke="#000000" stroke-width="0.0" stroke-opacity="1.0" stroke-linecap="round" stroke-linejoin="round"  filling="0" d="M390.7875 286.1450 C394.8825 285.3025 398.8975 287.8975 399.8100 291.9775 C400.7250 296.0575 398.2000 300.1175 394.1350 301.1000 C391.4425 301.7525 388.6100 300.9000 386.7225 298.8725 C384.8350 296.8450 384.1875 293.9575 385.0300 291.3200 C385.8750 288.6800 388.0750 286.7025 390.7875 286.1450 Z"></path>
<path id="" fill="#3e721d" fill-opacity="1.0" stroke="#000000" stroke-width="0.0" stroke-opacity="1.0" stroke-linecap="round" stroke-linejoin="round"  filling="0" d="M310.8575 286.2175 C314.5300 285.2975 318.3225 287.2025 319.7750 290.7000 C320.6400 292.7850 320.5400 295.1475 319.5000 297.1525 C318.4600 299.1575 316.5875 300.6000 314.3825 301.0925 C310.3000 302.0050 306.2400 299.4675 305.2750 295.3950 C304.3100 291.3250 306.7975 287.2325 310.8575 286.2175 Z"></path>
<path id="" fill="#3e721d" fill-opacity="1.0" stroke="#000000" stroke-width="0.0" stroke-opacity="1.0" stroke-linecap="round" stroke-linejoin="round"  filling="0" d="M354.8000 257.0200 C356.4500 256.8975 357.9250 257.1900 359.4000 257.9700 C361.4650 259.0625 363.1450 261.1125 363.7475 263.3750 C364.2425 265.2325 363.8825 267.1625 362.8800 268.7900 C361.9900 270.2325 360.1725 271.5900 358.5350 272.0050 C356.4175 272.2600 354.4775 272.1525 352.3775 271.8250 C351.0475 270.8575 349.9525 269.8400 349.3250 268.3000 C348.4850 266.2375 348.4175 263.5925 349.3575 261.5500 C350.3875 259.3175 352.5775 257.8825 354.8000 257.0200 Z"></path>
<path id="" fill="#3e721d" fill-opacity="1.0" stroke="#000000" stroke-width="0.0" stroke-opacity="1.0" stroke-linecap="round" stroke-linejoin="round"  filling="0" d="M224.8042 257.2350 C228.9037 256.3575 232.9442 258.9475 233.8598 263.0400 C234.7753 267.1300 232.2240 271.1950 228.1418 272.1500 C224.0045 273.1175 219.8725 270.5225 218.9447 266.3775 C218.0168 262.2300 220.6492 258.1225 224.8042 257.2350 Z"></path>
<path id="" fill="#3e721d" fill-opacity="1.0" stroke="#000000" stroke-width="0.0" stroke-opacity="1.0" stroke-linecap="round" stroke-linejoin="round"  filling="0" d="M302.8375 207.3165 C306.7950 205.7870 311.2425 207.7760 312.7400 211.7460 C313.4800 213.7097 313.3800 215.8915 312.4650 217.7795 C311.5475 219.6675 309.8950 221.0952 307.8925 221.7275 C303.9600 222.9707 299.7475 220.8652 298.3825 216.9718 C297.0175 213.0782 298.9900 208.8038 302.8375 207.3165 Z"></path>
<path id="" fill="#3e721d" fill-opacity="1.0" stroke="#000000" stroke-width="0.0" stroke-opacity="1.0" stroke-linecap="round" stroke-linejoin="round"  filling="0" d="M297.6125 369.6900 C298.9750 369.5450 300.3525 369.7700 301.5975 370.3400 C304.7125 371.7650 306.4950 375.0950 305.9550 378.4775 C305.4150 381.8625 302.6850 384.4700 299.2775 384.8550 C295.0825 385.3300 291.3000 382.3050 290.8400 378.1075 C290.3775 373.9100 293.4150 370.1375 297.6125 369.6900 Z"></path>
<path id="" fill="#3e721d" fill-opacity="1.0" stroke="#000000" stroke-width="0.0" stroke-opacity="1.0" stroke-linecap="round" stroke-linejoin="round"  filling="0" d="M363.0175 329.0300 C364.2575 329.0475 365.4625 329.4550 366.5500 330.0350 C369.2275 331.4625 370.5075 334.1150 371.2800 336.9075 C370.9550 338.5875 370.2050 340.5700 369.1075 341.8950 C367.6400 343.6700 366.0275 343.9625 363.8725 344.1550 C362.3025 344.2875 360.7400 344.0675 359.1950 343.8050 C357.7800 342.6025 356.6650 341.0425 356.1250 339.2525 C355.4900 337.1900 355.7375 334.9575 356.8125 333.0850 C358.2700 330.5775 360.3825 329.7550 363.0175 329.0300 Z"></path>
<path id="" fill="#3e721d" fill-opacity="1.0" stroke="#000000" stroke-width="0.0" stroke-opacity="1.0" stroke-linecap="round" stroke-linejoin="round"  filling="0" d="M245.8058 315.1525 C248.4498 314.4175 251.2850 315.1675 253.2200 317.1125 C255.1575 319.0575 255.8925 321.8975 255.1425 324.5375 C254.3925 327.1775 252.2775 329.2075 249.6080 329.8475 C245.5838 330.8100 241.5293 328.3725 240.4925 324.3675 C239.4560 320.3600 241.8192 316.2625 245.8058 315.1525 Z"></path>
<path id="" fill="#3e721d" fill-opacity="1.0" stroke="#000000" stroke-width="0.0" stroke-opacity="1.0" stroke-linecap="round" stroke-linejoin="round"  filling="0" d="M290.4475 141.0320 C292.0300 140.9348 293.4125 141.0465 294.8550 141.7612 C296.6200 142.6358 298.0400 144.1622 298.6700 146.0430 C299.3275 148.0100 299.0275 150.1573 298.0575 151.9695 C296.8525 154.2238 295.0200 155.3358 292.6375 156.0587 C292.5400 156.0748 292.4425 156.0960 292.3450 156.1070 C289.0800 156.4650 286.6350 154.2840 284.1875 152.4750 C283.8775 149.8205 283.6000 146.9258 285.0350 144.5260 C286.2475 142.4962 288.2550 141.5918 290.4475 141.0320 Z"></path>
<path id="" fill="#3e721d" fill-opacity="1.0" stroke="#000000" stroke-width="0.0" stroke-opacity="1.0" stroke-linecap="round" stroke-linejoin="round"  filling="0" d="M253.7950 221.0253 C255.2025 220.8820 256.4600 221.0915 257.7325 221.7180 C260.4550 223.0578 262.2525 225.5845 263.2375 228.3793 C262.7300 230.1590 262.2375 231.8508 261.1675 233.3947 C260.1550 234.8568 258.9250 235.7428 257.1900 236.0980 C255.4775 236.2773 253.5850 236.2420 251.9775 235.5720 C250.2950 234.8695 249.0428 233.6165 248.3525 231.9275 C247.5560 229.9780 247.4495 227.4930 248.3415 225.5575 C249.3703 223.3255 251.5800 221.8898 253.7950 221.0253 Z"></path>
<path id="" fill="#3f731e" fill-opacity="1.0" stroke="#000000" stroke-width="0.0" stroke-opacity="1.0" stroke-linecap="round" stroke-linejoin="round"  filling="0" d="M210.1158 200.0505 C211.1545 199.9445 212.2310 199.8922 213.2713 199.9990 C215.6785 200.2457 217.2830 201.5443 218.8033 203.2973 C219.2465 205.3190 219.6100 208.1085 218.8768 210.0948 C217.9940 212.4860 215.5047 214.0035 213.2948 215.0140 C211.9085 215.2870 210.3452 214.6575 209.1122 214.0235 C207.2068 213.0437 205.5390 211.1215 204.8893 209.0742 C204.3105 207.2513 204.5892 205.2525 205.4823 203.5768 C206.5265 201.6170 208.0485 200.6770 210.1158 200.0505 Z"></path>
<path id="" fill="#3e721d" fill-opacity="1.0" stroke="#000000" stroke-width="0.0" stroke-opacity="1.0" stroke-linecap="round" stroke-linejoin="round"  filling="0" d="M367.9900 185.2518 C369.9050 185.1720 372.0475 185.5367 373.7450 186.4330 C375.5075 187.3630 376.9275 188.8848 377.5025 190.8143 C378.0525 192.6552 377.8375 194.7830 376.8675 196.4485 C375.7900 198.2965 374.1750 199.2170 372.1750 199.7688 C371.0500 200.0652 369.5375 200.2385 368.4025 199.9413 C366.3700 199.4093 364.6600 197.9852 363.6800 196.1387 C362.7500 194.3900 362.6325 192.4520 363.2125 190.5705 C364.0000 188.0170 365.7275 186.4855 367.9900 185.2518 Z"></path>
<path id="" fill="#3e721d" fill-opacity="1.0" stroke="#000000" stroke-width="0.0" stroke-opacity="1.0" stroke-linecap="round" stroke-linejoin="round"  filling="0" d="M441.8150 272.0700 C443.4500 272.0525 445.1075 272.4050 446.5150 273.2600 C448.2075 274.2675 449.3900 275.9475 449.7625 277.8800 C450.1325 279.8025 449.6800 281.7900 448.5200 283.3650 C447.0400 285.3975 445.1675 286.0425 442.8100 286.4475 C441.4300 286.5200 439.3850 285.9475 438.1825 285.2875 C436.6600 284.4475 435.5375 283.0325 435.0675 281.3600 C434.5450 279.5375 434.6625 277.3750 435.6050 275.7075 C436.9350 273.3525 439.3775 272.6875 441.8150 272.0700 Z"></path>
</svg>