<svg xmlns="http://www.w3.org/2000/svg" viewBox="0 0 512 512" height="512.0px" width="512.0px">
<path id="" fill="#fecc4d" fill-opacity="1.0" stroke="#000000" stroke-width="0.0" stroke-opacity="1.0" stroke-linecap="round" stroke-linejoin="round"  filling="0" d="M254.9975 51.2802 C368.0700 50.6900 460.2100 141.8770 460.7975 254.9500 C461.3850 368.0225 370.1975 460.1625 257.1225 460.7475 C144.0542 461.3325 51.9187 370.1475 51.3315 257.0775 C50.7440 144.0080 141.9272 51.8703 254.9975 51.2802 Z"></path>
<path id="" fill="#664500" fill-opacity="1.0" stroke="#000000" stroke-width="0.0" stroke-opacity="1.0" stroke-linecap="round" stroke-linejoin="round"  filling="0" d="M176.7655 324.7200 C179.4863 325.0775 182.2760 326.5275 184.8535 327.4700 C187.4795 328.4350 190.1675 329.2225 192.8992 329.8250 C206.0475 332.8400 219.4180 333.9425 232.8383 334.8725 C239.5692 335.3400 246.4758 334.9825 253.2325 334.9725 L290.9175 334.9550 C299.2800 334.9550 308.6100 334.1600 316.7375 336.2575 C319.3500 336.9325 321.8525 338.6175 323.1875 341.0050 C324.6275 343.5725 324.6475 347.1450 323.7900 349.9050 C322.3475 354.5500 317.9575 357.9650 313.8250 360.1400 C311.1200 361.6575 307.6850 362.7325 304.7275 363.7150 C294.5800 367.0900 284.0450 369.1675 273.3750 369.8950 C268.8425 370.1625 264.2650 370.0625 259.7250 370.0575 C254.2675 370.0525 248.8463 370.0725 243.4207 369.3675 C218.5782 366.1450 198.9328 357.4600 183.3972 337.1775 C181.4942 334.6950 176.3353 327.9200 176.7655 324.7200 Z"></path>
<path id="" fill="#88c9f8" fill-opacity="1.0" stroke="#000000" stroke-width="0.0" stroke-opacity="1.0" stroke-linecap="round" stroke-linejoin="round"  filling="0" d="M277.7300 347.0575 C281.9150 346.7850 286.1925 346.9350 290.3875 346.9300 L310.1475 346.9325 C315.2475 346.9775 318.4625 347.5975 322.1500 351.3650 L322.4250 351.2925 L322.8475 350.5400 L323.2625 350.7175 C323.3250 350.8925 323.4100 351.1200 323.4575 351.3050 C324.6675 356.1025 324.0725 365.4300 324.0725 370.6350 L324.0625 402.3125 L324.0775 430.6075 C324.0800 435.7075 324.3550 440.9600 323.9475 446.0350 C323.7350 448.6800 323.1950 450.8500 321.7425 453.0900 C319.0875 457.1900 314.5900 459.7425 309.8975 460.7575 C309.0000 460.9150 308.1100 461.0125 307.1975 460.9950 C302.0200 460.9075 298.2000 459.0000 294.6400 455.2725 C292.8550 453.4025 291.4375 451.2500 290.7600 448.7300 C289.2875 443.2475 289.9950 436.4675 290.0100 430.8150 C290.0225 425.0200 289.9225 419.2125 290.0525 413.4200 C290.0725 412.5400 290.1950 411.4250 289.5575 410.7625 C286.7600 410.7725 284.3625 414.4600 281.5050 415.0100 C278.5375 415.5800 274.6825 415.1875 272.1775 413.4725 C269.3700 411.5550 268.0575 408.6675 267.5125 405.4325 C266.8875 401.7250 267.1375 397.7700 267.1350 394.0200 L267.1650 377.0225 C267.1875 371.0750 266.6775 362.8650 267.4350 357.1900 C267.7275 354.9925 268.2350 353.2150 269.5975 351.4125 C271.5900 348.7750 274.5475 347.5200 277.7300 347.0575 Z"></path>
<path id="" fill="#664500" fill-opacity="1.0" stroke="#000000" stroke-width="0.0" stroke-opacity="1.0" stroke-linecap="round" stroke-linejoin="round"  filling="0" d="M326.9475 210.1070 C332.1425 209.6930 337.6775 210.6120 342.6775 211.9902 C358.3025 216.2970 370.8700 229.2745 378.6225 243.0938 C380.5650 246.5540 381.8450 249.8465 380.7050 253.8375 C380.5450 254.0075 380.3800 254.1750 380.2150 254.3375 C378.5250 255.9750 376.5025 256.4075 374.2125 255.9500 C371.0775 255.3225 368.4125 252.9275 365.4775 251.6875 C355.1000 247.3455 343.9700 245.0788 332.7175 245.0163 C320.0350 244.8995 308.1050 246.3720 296.2100 250.9775 C292.4925 252.4175 289.0125 255.2950 285.0925 256.0750 C283.6200 256.3675 282.0000 256.1575 280.7450 255.2925 C279.7275 254.5900 279.1275 253.5775 278.9425 252.3625 C278.0400 246.5140 283.2825 239.6517 286.5575 235.1358 C293.5800 225.4455 303.2575 216.6142 314.7650 212.7518 C318.7375 211.4187 322.8250 210.7632 326.9475 210.1070 Z"></path>
<path id="" fill="#664500" fill-opacity="1.0" stroke="#000000" stroke-width="0.0" stroke-opacity="1.0" stroke-linecap="round" stroke-linejoin="round"  filling="0" d="M178.9093 210.1150 C179.6828 210.0683 180.4570 210.0367 181.2318 210.0202 C194.5018 209.7923 207.4170 216.0072 216.7940 225.1113 C222.1235 230.2852 233.3100 243.4135 233.2498 251.1275 C233.2392 252.4775 232.9355 253.9050 231.8890 254.8450 C230.3850 256.1950 227.6322 256.2600 225.7680 255.8250 C222.7448 255.1225 219.8945 252.6575 216.9960 251.4575 C206.9265 247.2900 196.4512 245.2795 185.5625 245.0233 C173.1955 244.9145 161.0072 245.9588 149.4135 250.5750 C145.5457 252.1125 141.2965 255.2475 137.3078 255.9975 C135.8002 256.2800 133.8132 256.0675 132.5325 255.1625 C131.5480 254.4675 131.0603 253.4100 130.8915 252.2400 C130.1095 246.8060 135.0980 239.8865 138.2047 235.6223 C145.5025 225.6048 155.1420 216.5757 167.1320 212.6382 C170.9750 211.3763 174.9275 210.7430 178.9093 210.1150 Z"></path>
<path id="" fill="#664500" fill-opacity="1.0" stroke="#000000" stroke-width="0.0" stroke-opacity="1.0" stroke-linecap="round" stroke-linejoin="round"  filling="0" d="M315.9500 137.1093 C325.7800 136.2957 341.8450 139.0278 351.5225 141.7865 C368.7850 146.7072 384.3300 155.2030 398.2075 166.5390 C401.0000 168.8205 404.2975 171.0470 406.0500 174.2617 C407.5950 177.0990 408.2950 180.0827 407.3150 183.2413 C406.3400 186.3895 403.9875 189.3378 401.0075 190.7932 C397.5475 192.4828 394.5000 191.9915 391.0350 190.7665 C386.9225 188.5643 383.6175 184.8438 379.9375 182.0092 C370.1025 174.4583 359.0425 168.6512 347.2425 164.8415 C341.7000 163.0918 335.8300 161.7265 330.0450 161.1325 C324.7800 160.5923 319.2625 160.9505 313.9725 161.0137 C311.5400 161.0428 308.9725 161.2117 306.5675 160.8035 C305.2675 160.5833 304.2675 160.2505 303.1850 159.4888 C300.5600 157.6378 298.5525 155.3038 298.0625 152.0285 C297.6050 148.9543 297.8825 145.3105 299.7950 142.7635 C303.5525 137.7550 310.3600 137.9798 315.9500 137.1093 Z"></path>
<path id="" fill="#664500" fill-opacity="1.0" stroke="#000000" stroke-width="0.0" stroke-opacity="1.0" stroke-linecap="round" stroke-linejoin="round"  filling="0" d="M194.9855 119.1078 C197.7173 118.9098 200.5305 118.8020 203.1695 119.6570 C206.0867 120.6022 208.7745 122.5983 210.1090 125.4098 C211.4515 128.2380 211.7213 131.8947 210.6675 134.8460 C209.6690 137.7030 207.5392 140.0230 204.7780 141.2620 C199.9413 143.4215 194.0240 142.7155 188.8423 143.5055 C182.0925 144.5343 175.5470 146.6360 169.2363 149.2020 C158.4215 153.5995 147.7980 160.3395 139.3245 168.3477 C137.0912 170.4585 134.7940 172.6212 132.7300 174.8975 C129.2787 178.7035 127.1487 182.1065 122.3177 184.3825 C121.7477 184.5672 121.1762 184.7352 120.5853 184.8392 C117.4275 185.3947 114.0900 184.5282 111.4960 182.6590 C109.0805 180.9187 107.6313 178.1873 107.1470 175.2830 C106.5562 171.7372 107.2487 168.8517 109.3775 165.9507 C112.2533 162.0318 115.6580 158.6990 119.0878 155.2825 C134.6730 139.7563 152.7870 128.7610 174.0880 122.9023 C180.9420 121.0172 187.9832 120.2003 194.9855 119.1078 Z"></path>
</svg>