<svg xmlns="http://www.w3.org/2000/svg" viewBox="0 0 512 512" height="512.0px" width="512.0px">
<path id="" fill="#fecb4c" fill-opacity="1.0" stroke="#000000" stroke-width="0.0" stroke-opacity="1.0" stroke-linecap="round" stroke-linejoin="round"  filling="0" d="M348.1375 183.1147 C365.9175 182.7665 383.8725 182.6275 400.7475 189.1013 C420.1425 196.5412 435.6350 212.1345 444.0075 231.0140 C446.9875 237.7310 449.3800 247.0530 449.9375 254.3775 C450.2600 258.5775 450.0275 262.8900 450.0350 267.1075 C450.2875 290.2650 446.1425 313.2600 437.8250 334.8750 C424.3325 370.8950 400.4275 402.0875 369.1525 424.4800 C359.2925 431.6400 348.5125 438.3050 337.3350 443.2250 C294.3300 462.1575 248.8192 466.3025 203.4390 453.5400 C195.4155 451.2825 187.5825 448.2775 179.8203 445.2600 C176.5997 443.8950 173.4820 442.2500 170.3530 440.6875 C154.3320 432.6850 139.2940 422.9575 126.1913 410.6725 C120.2975 405.1450 113.5383 398.5175 108.3627 392.3800 C84.6010 364.3525 69.2205 330.1950 63.9855 293.8250 C63.0340 287.2825 62.1777 280.3650 62.0095 273.7475 C61.8687 268.2100 61.6475 262.3375 62.2835 256.8425 C64.1233 240.9535 71.9315 224.1178 82.9317 212.5453 C85.2805 210.0742 87.9570 207.9335 90.6263 205.8220 C99.7728 198.5865 109.5410 193.3443 120.9415 190.6300 C135.4162 187.1840 150.1597 188.1950 164.8900 187.9937 L210.6635 186.9815 L348.1375 183.1147 Z"></path>
<path id="" fill="#f26c24" fill-opacity="1.0" stroke="#000000" stroke-width="0.0" stroke-opacity="1.0" stroke-linecap="round" stroke-linejoin="round"  filling="0" d="M111.5587 136.0305 C116.0017 135.7207 120.6647 136.0058 125.1270 136.0148 L152.4733 136.0400 L237.9320 136.0448 L346.8425 136.0430 L382.0075 136.0408 C387.8775 136.0350 393.8850 135.7572 399.7425 136.0233 C400.4025 136.0533 400.6450 136.0443 401.1075 136.5290 C401.0650 137.2960 400.6625 137.8430 400.2225 138.4467 C397.7200 141.8820 394.8325 145.1360 392.1575 148.4450 L379.1625 164.8027 C375.1275 169.8463 370.9450 174.8355 367.2400 180.1335 C360.1925 190.2160 354.6100 201.3678 349.7225 212.6225 C348.1675 216.2538 347.0650 220.7280 344.9725 224.0358 C343.2700 226.7287 339.3850 227.2802 336.6150 228.4377 C335.0525 229.0915 333.5550 229.9070 332.0975 230.7702 C328.8275 232.7092 325.7900 235.0182 322.5650 237.0280 C319.2275 239.1075 314.4450 241.6633 310.4800 242.0502 C303.8750 242.6945 294.5775 237.5690 288.5100 234.9097 C285.5100 233.5945 281.7400 231.9815 278.3975 232.1013 C269.7225 232.4125 259.9475 240.5708 251.2425 242.5632 C239.0253 245.3590 230.5892 236.7160 221.0762 230.7762 C207.6985 222.4240 194.9055 227.4130 181.4688 232.7425 C178.1050 234.0768 174.6317 235.6962 171.0985 236.4937 C171.0013 236.5157 170.9035 236.5352 170.8060 236.5558 C168.8882 233.1707 167.4470 229.6037 165.8568 226.0630 C163.7855 221.4505 161.6622 216.8020 159.4985 212.2325 C157.7153 208.4665 155.4665 204.8375 153.4300 201.1975 C151.0830 197.0025 148.8418 192.6992 146.3660 188.5833 C138.9825 176.3073 130.3110 164.6723 122.0820 152.9520 C119.0573 148.6440 115.7057 144.3777 113.0000 139.8685 C112.2628 138.6400 111.7108 137.4750 111.5587 136.0305 Z"></path>
<path id="" fill="#f19020" fill-opacity="1.0" stroke="#000000" stroke-width="0.0" stroke-opacity="1.0" stroke-linecap="round" stroke-linejoin="round"  filling="0" d="M357.7425 195.8290 C359.5225 195.9115 361.3100 195.8445 363.0875 195.9758 C364.7050 196.0950 367.1475 196.4998 368.1725 197.9235 C369.9375 200.3748 365.2350 203.8817 364.9925 206.4370 C364.9300 207.0725 365.1650 207.5325 365.5900 207.9860 C366.3200 208.7648 367.7125 209.1512 368.7050 209.4158 C377.1450 211.6662 384.2100 205.3855 391.6025 206.0367 C394.1575 206.2615 397.9400 207.1013 399.5675 209.1995 C400.4550 210.3415 400.4075 211.6460 400.2575 213.0205 C399.5475 219.5010 392.7475 224.8720 387.9275 228.6113 C387.0675 229.2157 386.2050 229.8228 385.3125 230.3793 C371.9225 238.7402 367.1375 230.4610 354.7275 226.7900 C351.1525 225.7325 347.4700 226.5237 343.9275 225.7227 C343.7350 225.2910 343.6650 225.1662 343.6825 224.7145 C343.7025 224.1422 343.8500 223.7088 344.0775 223.1882 C345.3300 220.3333 347.1375 217.6605 348.5200 214.8530 C350.2175 211.4012 355.7200 197.6183 357.7425 195.8290 Z"></path>
<path id="" fill="#f18f20" fill-opacity="1.0" stroke="#000000" stroke-width="0.0" stroke-opacity="1.0" stroke-linecap="round" stroke-linejoin="round"  filling="0" d="M129.8435 203.0403 C137.4635 202.5480 139.4110 205.3253 145.1698 209.0412 C149.9382 209.0685 151.7810 207.3418 155.6378 206.9325 C156.0905 206.8845 156.2328 206.8210 156.5842 207.1430 C157.5735 208.0495 166.8987 227.1517 167.7950 229.7097 C168.3350 231.2515 168.3293 232.7858 168.3385 234.3943 C165.7250 234.1792 163.1348 233.6240 160.5573 233.1532 C158.0177 232.2620 154.9393 232.0265 152.2840 231.4212 C143.8717 229.5035 135.2330 226.8553 127.7888 222.4193 C123.9547 220.1348 120.0163 216.4625 118.9635 211.9535 C118.6400 210.5672 119.0375 209.2390 119.8255 208.0697 C121.8840 205.0150 126.4440 203.7820 129.8435 203.0403 Z"></path>
<path id="" fill="#ccd6dc" fill-opacity="1.0" stroke="#000000" stroke-width="0.0" stroke-opacity="1.0" stroke-linecap="round" stroke-linejoin="round"  filling="0" d="M201.1953 51.0943 C202.6432 50.9100 204.1243 50.9150 205.5800 51.0015 C219.2930 51.8167 231.3270 58.3600 239.2368 69.6370 C240.4570 71.3767 243.5578 77.5753 244.2440 78.2682 C245.0712 79.1032 249.6080 75.2422 250.4850 74.6285 C254.5500 71.7845 260.0200 69.9120 265.0125 70.0508 C271.6350 70.2345 277.4700 72.8183 282.1250 77.4825 C283.8125 79.1745 285.2900 81.1322 287.0150 82.7702 C287.5425 83.2715 287.7700 83.3132 288.4875 83.3087 C291.1275 82.0330 293.1700 78.4763 295.1100 76.3037 C302.5875 67.9262 314.8475 62.5410 326.0125 61.9655 C335.6175 61.4700 345.8825 64.7995 353.7475 70.2473 C356.5375 72.1810 359.0350 74.4423 361.5550 76.7055 C365.9825 77.1900 370.5475 77.5115 374.8925 78.5155 C383.2425 80.4455 392.9850 85.8968 397.6025 93.2907 C400.4875 92.7285 403.4475 91.9945 406.3950 91.9512 C413.2325 91.8513 421.0025 95.3997 425.8325 100.1438 C430.9425 105.1625 434.1050 112.1712 434.1600 119.3620 C434.2225 127.4075 431.6325 134.1150 425.9350 139.7997 C416.6200 149.0932 409.7450 147.9987 397.6850 148.0253 C394.4425 150.9153 385.4675 159.3870 381.7575 160.6910 C380.5500 161.1152 372.5400 162.4852 371.0675 162.6690 C358.0575 164.2903 347.3325 160.8358 337.1000 152.8022 C333.8075 153.8140 330.4850 154.1075 327.0450 153.7790 C325.6100 161.7735 319.5100 170.5672 313.4350 175.7737 C307.2325 180.9955 299.7600 184.9800 291.7050 186.3313 C280.2275 188.2567 267.3600 185.9785 257.9225 178.9155 C255.0825 176.7900 252.9300 173.8085 250.0825 171.7710 C247.8898 171.4272 246.8770 173.7725 245.6900 175.3180 C241.0802 181.3217 234.3675 186.3087 227.6685 189.7385 C214.2253 196.6210 199.0830 197.5160 184.8092 192.8095 C174.1435 189.2925 160.9422 179.9245 155.7552 169.7290 C147.6825 170.1965 143.8118 169.4102 136.5898 165.7950 C135.5610 166.0638 134.6255 166.3730 133.6600 166.8188 C131.7950 167.6797 129.6875 167.8262 127.6703 168.1228 C119.9337 169.2592 111.5997 169.8200 104.0667 167.2575 C94.7737 164.0965 86.6548 156.6020 82.3798 147.8533 C78.1285 139.1535 77.2053 127.6743 80.4320 118.4902 C83.8925 108.5425 91.1902 100.3935 100.6975 95.8607 C107.3850 92.7215 116.1295 90.6308 123.2560 93.2272 C126.6428 89.9088 128.6752 85.5445 132.1492 82.1892 C142.6832 72.0150 154.2413 69.7775 168.3772 69.9958 C170.3865 68.2460 171.6470 65.7863 173.5188 63.8965 C181.2372 56.1028 190.4980 52.5533 201.1953 51.0943 Z"></path>
<path id="" fill="#65471b" fill-opacity="1.0" stroke="#000000" stroke-width="0.0" stroke-opacity="1.0" stroke-linecap="round" stroke-linejoin="round"  filling="0" d="M251.8150 320.1000 C263.7625 319.5625 274.4125 322.2500 283.9350 329.6750 C296.4525 339.4350 303.4975 353.9100 305.3850 369.5050 C307.3650 386.2100 302.5475 403.0075 292.0125 416.1225 C284.6375 425.4650 272.7700 431.5975 261.0625 433.0075 C248.4583 433.4875 239.4787 431.9450 229.0188 424.3175 C216.3492 415.0750 209.2715 401.1000 206.9530 385.8075 C204.5345 369.8550 208.4445 352.8350 218.0945 339.8325 C224.2433 331.5450 233.3457 324.7850 243.2515 321.8150 C246.0605 320.9725 248.9247 320.5425 251.8150 320.1000 Z"></path>
<path id="" fill="#65471b" fill-opacity="1.0" stroke="#000000" stroke-width="0.0" stroke-opacity="1.0" stroke-linecap="round" stroke-linejoin="round"  filling="0" d="M323.4300 254.0600 C327.3400 254.0825 330.9475 255.0850 334.2975 257.1050 C340.7325 260.9800 344.7200 267.8875 346.4450 275.0600 C348.8150 284.9075 347.9525 295.4775 342.5375 304.2300 C338.3275 311.0325 333.3600 314.0375 325.7800 315.7850 C321.8300 315.9125 317.5025 314.5950 314.2200 312.4075 C307.6700 308.0375 303.6775 300.2700 302.2275 292.7025 C300.4350 283.3350 301.6425 272.7275 307.1600 264.7125 C311.2300 258.8000 316.4300 255.3600 323.4300 254.0600 Z"></path>
<path id="" fill="#65471b" fill-opacity="1.0" stroke="#000000" stroke-width="0.0" stroke-opacity="1.0" stroke-linecap="round" stroke-linejoin="round"  filling="0" d="M186.4215 254.0600 C190.1517 254.0875 193.6613 255.0100 196.8680 256.9275 C203.1693 260.6925 207.4615 267.4925 209.2318 274.5100 C211.7765 284.5975 210.7592 295.4175 205.3300 304.4100 C201.1037 311.4100 196.3665 313.9375 188.7522 315.8100 C184.7628 315.8650 180.5282 314.6400 177.2115 312.4100 C170.7305 308.0525 166.5880 300.4575 165.1322 292.9150 C163.2015 282.9125 164.7765 272.3750 170.5918 263.8850 C174.4755 258.2150 179.7285 255.2925 186.4215 254.0600 Z"></path>
</svg>