<svg xmlns="http://www.w3.org/2000/svg" viewBox="0 0 512 512" height="512.0px" width="512.0px">
<path id="" fill="#be1931" fill-opacity="1.0" stroke="#000000" stroke-width="0.0" stroke-opacity="1.0" stroke-linecap="round" stroke-linejoin="round"  filling="0" d="M58.3795 306.0025 C58.6680 305.9600 58.8163 305.9325 59.1243 305.9175 C59.6255 305.8950 60.3257 305.8875 60.6252 306.3725 C61.1107 307.1600 60.9772 308.7200 61.0052 309.6450 C61.2065 316.2625 62.6665 321.6325 67.4585 326.3925 C75.1113 333.9925 92.8658 339.2175 103.5660 340.8775 C106.6200 341.3500 109.7060 341.5750 112.7740 341.9350 C115.8040 342.2925 118.8647 342.7950 121.9122 342.9475 C132.5547 343.4850 143.3295 343.1700 153.9892 343.1525 L207.4660 342.9500 C219.5018 342.9350 231.5375 343.0400 243.5712 343.2675 C248.8020 343.4125 254.0200 343.8900 259.2500 343.9900 C274.8350 344.1400 290.4225 344.1650 306.0100 344.0700 C310.5525 344.0500 315.0525 343.5725 319.5825 343.3400 C341.1225 342.2350 369.7850 339.4350 386.7275 325.0275 C388.8325 323.2400 390.9550 321.0500 392.4000 318.6825 C393.8575 316.2925 395.0100 313.3275 397.0500 311.3775 C397.9225 310.5425 398.9800 309.9800 400.2150 310.0250 C401.5025 310.0725 403.1200 310.8125 403.9900 311.7650 C405.6850 313.6275 405.7800 316.9125 405.6025 319.3125 C405.1250 325.6925 403.4675 332.3100 401.6250 338.4250 C394.2950 362.7525 382.6000 373.9425 364.1000 390.0225 C358.5150 394.3100 352.9875 398.7450 347.2500 402.8250 C322.1125 420.6975 294.4500 436.5750 265.3650 447.0550 C235.5152 457.8150 209.6367 463.0525 177.8850 458.0850 C162.8513 455.7775 148.2425 451.2575 134.5343 444.6675 C122.4027 438.9425 110.5770 431.1200 100.4312 422.3600 C98.6852 420.8525 97.1010 419.1575 95.4043 417.5950 C94.0208 416.3225 92.3802 415.3550 91.0450 414.0325 C89.2288 412.2375 87.6413 409.9200 85.9662 407.9600 C73.6985 393.5975 64.0437 377.7275 57.7307 359.8575 C53.2563 347.1925 49.7787 329.0725 51.8265 315.7875 C52.1285 313.8275 52.4755 311.6850 53.3792 309.9000 C54.5222 307.6425 56.0583 306.7400 58.3795 306.0025 Z"></path>
<path id="" fill="#feac33" fill-opacity="1.0" stroke="#000000" stroke-width="0.0" stroke-opacity="1.0" stroke-linecap="round" stroke-linejoin="round"  filling="0" d="M64.3435 314.4650 C66.1577 300.0175 68.6605 292.7600 79.1413 282.2925 C81.7120 279.7250 84.2693 277.1375 87.1475 274.9100 C92.7298 270.5850 99.0748 266.9325 105.3745 263.7700 C132.5845 250.1100 163.2940 245.0280 193.4885 243.8570 C197.2487 243.7112 200.9872 243.4150 204.7538 243.4212 C209.1015 243.4288 213.4117 243.7502 217.7515 243.9520 C229.8090 244.4625 241.8362 245.5358 253.7925 247.1682 C293.9375 252.4325 341.0475 267.4125 375.5050 288.9625 C382.2050 293.1525 389.2975 297.4300 394.1750 303.8025 C395.1025 305.0150 396.7375 309.4925 397.5775 310.0850 C397.6625 310.1450 398.2350 310.2525 398.2725 310.2575 C398.5825 310.2950 398.9950 310.2425 399.3000 310.2250 C399.7175 310.5375 399.6350 310.3575 399.7175 310.8525 C399.9425 312.1875 399.4775 313.8350 399.2150 315.1600 C398.0425 321.1100 396.0825 327.2075 392.2375 332.0150 C387.4500 338.0000 379.1475 343.9850 372.4175 347.7075 C369.7550 349.1800 366.9125 350.3400 364.1950 351.7025 C360.3275 353.6425 356.8450 355.9750 352.8400 357.7200 C349.3575 359.2375 345.7300 360.3750 342.1500 361.6275 C335.9225 363.8075 329.7375 365.8900 323.4275 367.8225 C317.2725 369.7050 311.2850 371.9175 305.0500 373.5950 C299.7775 375.0150 294.2725 375.9425 288.9275 377.0975 C274.2375 380.2750 259.3250 383.2725 244.3670 384.8500 C231.0932 386.3725 217.7383 387.0725 204.3780 386.9450 C199.2895 386.9375 194.2705 387.2250 189.2708 386.0800 C187.9507 386.3350 186.2960 386.1475 184.9328 386.1350 C175.4865 386.0925 166.0785 384.9350 156.9030 382.6900 C153.2892 382.2300 149.5992 381.3125 146.0165 380.6150 C141.8672 379.8100 137.5600 379.1675 133.4872 378.0400 C130.0420 377.0875 126.6655 375.7650 123.2513 374.6925 C119.0233 373.3625 114.7168 372.3375 110.5493 370.8050 C107.9520 369.8525 105.5363 368.5675 103.0205 367.4350 C100.7623 366.4200 98.4165 365.5775 96.2093 364.4525 C89.8887 361.2275 81.2168 355.5850 76.4595 350.3475 C72.9113 346.4400 68.6275 340.7875 66.5810 335.9275 C65.7500 333.9525 65.2600 331.8475 64.4983 329.8500 C63.2755 326.6400 62.0367 325.2300 62.2137 321.5825 C61.7815 319.5050 61.3412 317.4450 61.1252 315.3300 C62.2450 315.1175 63.2870 314.9150 64.3435 314.4650 Z"></path>
<path id="" fill="rgb(253,240,238)" fill-opacity="1.0" stroke="#000000" stroke-width="0.0" stroke-opacity="1.0" stroke-linecap="round" stroke-linejoin="round"  filling="0" d="M61.1252 315.3300 C62.2450 315.1175 63.2870 314.9150 64.3435 314.4650 C64.6703 316.8350 64.5992 319.2650 64.8655 321.6550 C65.1610 324.3050 65.9362 327.0575 65.8905 329.7175 L65.6158 330.0400 C63.6998 328.7200 63.0963 323.6725 62.2137 321.5825 C61.7815 319.5050 61.3412 317.4450 61.1252 315.3300 Z"></path>
<path id="" fill="#be1931" fill-opacity="1.0" stroke="#000000" stroke-width="0.0" stroke-opacity="1.0" stroke-linecap="round" stroke-linejoin="round"  filling="0" d="M156.9030 382.6900 C159.0197 382.5500 188.0095 385.6000 189.2708 386.0800 C187.9507 386.3350 186.2960 386.1475 184.9328 386.1350 C175.4865 386.0925 166.0785 384.9350 156.9030 382.6900 Z"></path>
<path id="" fill="#7f031e" fill-opacity="1.0" stroke="#000000" stroke-width="0.0" stroke-opacity="1.0" stroke-linecap="round" stroke-linejoin="round"  filling="0" d="M51.4055 318.4400 C51.1575 316.4750 51.2077 314.3800 51.1625 312.3975 C50.9507 303.1400 52.0740 294.3250 56.5188 286.0375 C66.6862 267.0850 89.7718 253.9200 109.1812 246.3017 C115.0720 243.9897 121.1385 242.1450 127.2018 240.3452 C164.3443 229.3205 199.2997 228.5818 237.6268 231.7015 C249.1145 232.6365 260.6275 233.4350 271.9575 235.6803 C287.3300 238.7270 302.2475 243.6190 317.1275 248.4365 C325.0875 251.0125 332.8200 254.0525 340.6650 256.9375 C344.0800 258.1925 348.1250 259.1900 351.3025 260.9100 C357.6400 262.7300 363.9775 265.6050 370.0525 268.1675 C383.9625 274.0300 397.5625 280.5025 411.2875 286.7750 C416.0525 288.9525 420.7975 291.1925 425.5950 293.2950 C428.4675 294.5550 431.7000 295.5725 434.3750 297.2125 C435.5225 297.9150 436.5850 299.0525 437.2625 300.2150 C438.6575 302.6100 437.9350 305.8500 437.1825 308.3575 C433.0275 322.2100 420.0225 338.3900 410.4100 348.9175 C407.0025 352.6500 403.2900 356.1575 399.7100 359.7275 C396.5700 362.8575 389.7325 369.6650 385.9275 371.6925 C385.3700 371.9900 384.8625 372.2175 384.2225 372.0525 C383.8775 371.6700 383.6150 371.4650 383.6625 370.8950 C383.7100 370.3075 384.0525 369.7450 384.3850 369.2775 C385.9900 367.0100 387.9175 364.9225 389.5775 362.6800 C391.4650 360.1300 393.1325 357.3100 394.6850 354.5425 C398.0150 348.6075 404.7250 329.8425 403.9450 323.3750 C403.6200 322.9200 403.8225 323.0625 403.3925 322.8875 C397.1625 322.9475 398.7625 325.3350 395.0450 327.0350 C391.7200 332.1350 387.6850 336.4550 382.8775 340.2225 C376.9050 344.9075 370.5200 348.3600 363.7525 351.7450 C360.0000 353.6250 356.2525 355.6075 352.4075 357.2950 C343.0525 361.4050 333.4225 364.4850 323.7025 367.5775 C312.2950 371.2075 301.0350 374.4875 289.3050 376.9600 C280.8975 378.7300 272.3475 380.5975 263.8700 381.9575 C256.4300 383.1500 248.9967 383.9025 241.5140 384.7250 C237.8878 385.1250 234.2825 385.7275 230.6438 386.0100 C226.7693 386.3100 222.8842 386.1275 219.0078 386.3175 C214.4003 386.5425 209.9100 387.2400 205.2737 387.2650 C201.3717 387.2850 197.6310 386.4850 193.7648 386.2850 C190.1938 386.1000 186.5883 386.3850 183.0247 386.1175 C177.1113 385.6725 171.1763 384.6075 165.3140 383.7200 C162.5287 383.3000 159.7155 383.0600 156.9380 382.5875 C134.6525 378.8150 107.0002 371.4550 88.0450 359.1625 C84.2527 356.7025 80.6953 353.7250 77.7217 350.3100 C76.3962 349.5450 75.0915 348.0125 73.9197 347.0050 C68.3333 342.1925 63.0892 338.0025 58.7695 331.8850 C57.2600 329.7475 56.1747 326.4950 54.4115 324.6900 C53.8922 324.1600 52.5717 324.2725 51.8333 324.1875 C51.6283 322.2775 51.5240 320.3575 51.4055 318.4400 Z M387.1700 326.0825 C389.8925 323.7200 394.0250 319.2150 394.2075 315.4775 C394.3025 313.5350 392.5900 311.6850 391.3150 310.3825 C383.9250 302.8250 369.9525 295.8275 360.3450 291.0550 C318.7125 270.2150 273.4250 257.6650 227.0038 254.1025 C222.2112 253.7700 217.3938 254.0300 212.5965 253.8550 C209.4240 253.7375 206.2753 253.2600 203.0983 253.2450 C199.6675 253.2300 196.2917 253.7650 192.8745 253.8975 C187.9603 254.0900 183.0343 253.7075 178.1235 254.1275 C172.5190 254.6075 166.8985 255.5550 161.3420 256.4275 C157.5112 257.0275 153.6378 257.4475 149.8342 258.2075 C126.6087 262.8525 98.7190 272.6700 81.7563 289.7550 C76.8053 294.7425 71.4440 302.2800 70.1407 309.3200 C69.5255 312.6450 69.6687 316.3900 69.7083 319.7600 C69.7730 325.2825 72.0440 329.4625 74.5218 334.2625 C75.6198 336.3900 76.7288 338.7275 78.2112 340.6150 C80.6260 343.6875 83.9050 346.4325 86.7200 349.1650 C88.8307 351.2125 91.2065 353.2000 93.6780 354.8075 C95.0580 355.7075 96.5430 356.3325 97.8155 357.3950 C102.6428 359.8650 107.4587 362.5375 112.4665 364.6250 C128.8760 371.4675 146.7290 374.8600 164.2608 377.3025 C172.6927 378.4775 181.0443 378.7900 189.5193 379.2025 C193.2695 379.3850 196.9572 379.9300 200.7258 379.8575 C203.7275 379.8000 206.6998 379.3050 209.6970 379.1625 C253.0750 377.1175 295.8450 368.1250 336.3750 352.5275 C340.7975 350.8750 345.2975 349.3150 349.6500 347.4900 C355.6525 344.9725 361.3925 342.0375 367.1525 339.0350 C370.0575 337.5200 373.0425 336.0925 375.8425 334.3850 C379.9125 331.9000 383.3900 328.9425 387.1700 326.0825 Z"></path>
<path id="" fill="#bd1930" fill-opacity="1.0" stroke="#000000" stroke-width="0.0" stroke-opacity="1.0" stroke-linecap="round" stroke-linejoin="round"  filling="0" d="M387.1700 326.0825 C387.1575 326.1700 387.1550 326.2600 387.1300 326.3425 C385.9225 330.5250 375.5150 334.6125 374.6375 336.6775 C374.5175 336.9625 374.3825 337.2425 374.2600 337.5250 L373.8050 337.7175 L373.0725 337.2225 C372.6750 337.3850 372.5300 337.3325 372.3650 337.8100 C372.3200 337.9375 372.2175 338.6000 372.1950 338.7500 L371.8050 338.9675 C371.3825 338.7975 371.1350 338.6950 370.7825 338.3950 L370.7125 338.6650 L371.1450 339.2300 C370.6475 340.2000 368.9700 340.0925 368.9675 341.2175 L369.3050 341.5300 C370.2025 341.3175 374.0175 339.5650 374.6175 339.7425 C374.8900 339.8225 375.1350 339.8575 375.4150 339.8900 C375.4575 339.8175 375.4975 339.7450 375.5400 339.6750 C375.7050 339.3925 375.8875 339.1300 376.0725 338.8625 C376.1450 338.8950 376.2175 338.9275 376.2900 338.9575 C376.5675 339.0700 376.7850 339.1025 377.0800 339.1300 C377.5350 338.7375 378.4800 337.7050 379.0300 337.7150 C379.0450 337.7475 379.0575 337.7825 379.0775 337.8125 C379.2025 338.0025 379.3425 338.1800 379.4750 338.3625 C379.4800 338.2900 379.4725 338.2175 379.4850 338.1450 C379.6150 337.4025 380.0500 336.8175 380.5450 336.2800 C381.1125 336.0800 381.1350 335.9950 381.7525 336.1375 C382.1300 336.6300 382.1700 336.8850 382.2000 337.5025 L382.8700 337.5750 C382.9375 337.1975 382.9825 336.8875 382.9800 336.5025 C383.9775 336.6300 384.5400 337.1600 385.0875 337.2175 C386.3275 336.1900 387.5425 335.1325 388.7325 334.0500 C389.9600 332.9450 393.0125 330.0600 393.1675 328.3800 C391.9675 327.9300 389.9725 329.0825 388.8450 329.5975 C387.5125 330.2050 384.7050 331.9650 383.3925 331.5325 L383.3050 331.1100 C383.9450 330.6700 394.3625 327.0200 395.0450 327.0350 C391.7200 332.1350 387.6850 336.4550 382.8775 340.2225 C376.9050 344.9075 370.5200 348.3600 363.7525 351.7450 C360.0000 353.6250 356.2525 355.6075 352.4075 357.2950 C343.0525 361.4050 333.4225 364.4850 323.7025 367.5775 C312.2950 371.2075 301.0350 374.4875 289.3050 376.9600 C280.8975 378.7300 272.3475 380.5975 263.8700 381.9575 C256.4300 383.1500 248.9967 383.9025 241.5140 384.7250 C237.8878 385.1250 234.2825 385.7275 230.6438 386.0100 C226.7693 386.3100 222.8842 386.1275 219.0078 386.3175 C214.4003 386.5425 209.9100 387.2400 205.2737 387.2650 C201.3717 387.2850 197.6310 386.4850 193.7648 386.2850 C190.1938 386.1000 186.5883 386.3850 183.0247 386.1175 C177.1113 385.6725 171.1763 384.6075 165.3140 383.7200 C162.5287 383.3000 159.7155 383.0600 156.9380 382.5875 C134.6525 378.8150 107.0002 371.4550 88.0450 359.1625 C84.2527 356.7025 80.6953 353.7250 77.7217 350.3100 C80.5960 349.9225 95.2923 360.9450 98.0965 358.6575 C98.0945 358.1450 98.0293 357.8575 97.8155 357.3950 C102.6428 359.8650 107.4587 362.5375 112.4665 364.6250 C128.8760 371.4675 146.7290 374.8600 164.2608 377.3025 C172.6927 378.4775 181.0443 378.7900 189.5193 379.2025 C193.2695 379.3850 196.9572 379.9300 200.7258 379.8575 C203.7275 379.8000 206.6998 379.3050 209.6970 379.1625 C253.0750 377.1175 295.8450 368.1250 336.3750 352.5275 C340.7975 350.8750 345.2975 349.3150 349.6500 347.4900 C355.6525 344.9725 361.3925 342.0375 367.1525 339.0350 C370.0575 337.5200 373.0425 336.0925 375.8425 334.3850 C379.9125 331.9000 383.3900 328.9425 387.1700 326.0825 Z"></path>
<path id="" fill="#bd1931" fill-opacity="1.0" stroke="#000000" stroke-width="0.0" stroke-opacity="1.0" stroke-linecap="round" stroke-linejoin="round"  filling="0" d="M351.3025 260.9100 C357.6400 262.7300 363.9775 265.6050 370.0525 268.1675 C383.9625 274.0300 397.5625 280.5025 411.2875 286.7750 C416.0525 288.9525 420.7975 291.1925 425.5950 293.2950 C428.4675 294.5550 431.7000 295.5725 434.3750 297.2125 C435.5225 297.9150 436.5850 299.0525 437.2625 300.2150 C438.6575 302.6100 437.9350 305.8500 437.1825 308.3575 C433.0275 322.2100 420.0225 338.3900 410.4100 348.9175 C407.0025 352.6500 403.2900 356.1575 399.7100 359.7275 C396.5700 362.8575 389.7325 369.6650 385.9275 371.6925 C385.3700 371.9900 384.8625 372.2175 384.2225 372.0525 C383.8775 371.6700 383.6150 371.4650 383.6625 370.8950 C383.7100 370.3075 384.0525 369.7450 384.3850 369.2775 C385.9900 367.0100 387.9175 364.9225 389.5775 362.6800 C391.4650 360.1300 393.1325 357.3100 394.6850 354.5425 C398.0150 348.6075 404.7250 329.8425 403.9450 323.3750 C403.6200 322.9200 403.8225 323.0625 403.3925 322.8875 C402.6450 322.7475 401.8600 322.6900 401.1050 322.5975 C401.3800 322.1500 401.2550 322.2300 401.6175 321.9875 C407.1525 318.2675 412.6450 313.7550 415.9675 307.8500 C416.9650 306.0800 417.3250 304.6325 416.7025 302.6575 C416.2650 301.2625 415.4875 300.0900 414.4100 299.1125 C410.9825 296.0075 406.6050 293.7100 402.7200 291.2225 C395.6350 286.6900 388.3275 281.8100 380.9800 277.7825 C371.2150 272.4300 361.0850 267.6350 351.2525 262.3950 L351.4800 262.2425 C354.4400 263.0200 357.8175 265.3075 360.4500 266.8875 L360.6250 266.4650 L360.9400 266.7225 L360.6300 266.9300 L361.3050 267.1175 C361.4525 266.8300 361.4325 266.6000 361.4500 266.2825 C360.0950 263.6600 353.9925 262.3925 351.2900 261.2675 L351.3025 260.9100 Z"></path>
<path id="" fill="#bc1830" fill-opacity="1.0" stroke="#000000" stroke-width="0.0" stroke-opacity="1.0" stroke-linecap="round" stroke-linejoin="round"  filling="0" d="M51.4055 318.4400 C52.7733 319.0325 52.9258 319.4375 53.4662 320.8050 C53.7892 321.6225 54.3293 322.7775 54.0107 323.6550 C53.9850 323.7250 53.9390 323.7875 53.9033 323.8525 L51.8333 324.1875 C51.6283 322.2775 51.5240 320.3575 51.4055 318.4400 Z"></path>
<path id="" fill="#000000" fill-opacity="1.0" stroke="#000000" stroke-width="0.0" stroke-opacity="1.0" stroke-linecap="round" stroke-linejoin="round"  filling="0" d="M416.9725 250.8475 C417.0400 250.8400 417.1075 250.8275 417.1750 250.8225 C418.5075 250.7150 419.9625 250.7525 421.0350 251.6275 C423.1800 255.5475 416.5950 271.8200 414.6450 276.2500 C413.3150 279.2675 410.9450 282.7850 410.5900 286.0725 C410.8700 286.5325 410.7450 286.3775 411.0875 286.7575 C411.1625 286.8425 411.2425 286.9250 411.3225 287.0075 L411.2925 287.3725 C410.7950 287.6950 410.6800 287.7400 410.0900 287.7850 L409.9425 287.2100 L409.6750 287.0950 C407.8700 289.1900 406.7500 291.7625 405.0350 293.9175 C401.5075 298.3525 397.4025 302.1425 393.3975 306.1175 C393.0775 306.4350 392.4750 306.9075 392.2425 307.2825 C391.8875 307.8575 392.2925 308.1500 391.6425 308.6850 L391.0300 307.7675 C389.6400 307.6775 382.0075 313.1425 380.2925 314.1150 C372.1350 318.7300 344.2900 328.7475 334.9875 329.1500 C333.6700 329.2050 332.5675 328.9525 331.3175 328.6000 C330.2350 328.2075 329.2000 327.7200 328.2525 327.0625 C326.1050 325.5725 324.6125 323.5650 324.1600 320.9625 C323.3675 316.4050 324.8925 312.1550 328.7400 309.4925 C332.3525 306.9925 337.9125 306.4100 342.0950 305.2575 C354.8475 301.7400 367.6575 297.5725 378.3275 289.4825 C380.1850 288.0750 382.3625 286.4700 383.6975 284.5250 C384.4950 283.3600 384.5200 282.7050 384.2450 281.3550 C384.1550 280.9100 384.2575 280.8875 384.4600 280.5000 C385.2900 280.0625 385.7100 280.2775 386.6225 280.4175 C387.5175 280.0625 388.3800 278.8275 388.9850 278.0825 C392.6625 273.5300 395.3950 267.4850 397.5250 262.0675 C398.7850 258.8675 399.7400 255.5250 401.7500 252.6925 C402.3225 252.3150 402.8650 252.2375 403.5300 252.1500 C405.4375 251.9000 407.4300 251.9950 409.3525 251.8475 C411.9100 251.6525 414.4325 251.1950 416.9725 250.8475 Z"></path>
<path id="" fill="#f4900c" fill-opacity="1.0" stroke="#000000" stroke-width="0.0" stroke-opacity="1.0" stroke-linecap="round" stroke-linejoin="round"  filling="0" d="M409.1375 52.6220 C410.2600 52.7905 411.0500 53.5635 411.8475 54.3180 C416.1775 58.4245 423.8575 70.4203 427.2050 75.9295 C430.0625 80.6288 432.9475 85.3305 435.5225 90.1913 C451.3350 119.5302 460.0450 152.1698 460.9475 185.4865 C461.3200 204.0850 457.0200 226.1673 443.7025 239.9425 C434.5225 249.4390 423.7125 255.3775 410.3100 255.6000 C408.9600 255.6150 407.5950 255.5850 406.2500 255.4675 C394.1725 254.4150 381.6525 247.3212 373.9825 238.0415 C358.8475 219.7345 356.8800 194.6275 359.0400 171.8777 C362.8975 134.2348 376.2225 98.1808 397.7700 67.0760 C401.1500 62.2623 404.5950 56.3815 409.1375 52.6220 Z"></path>
<path id="" fill="#ffcb4c" fill-opacity="1.0" stroke="#000000" stroke-width="0.0" stroke-opacity="1.0" stroke-linecap="round" stroke-linejoin="round"  filling="0" d="M184.3535 278.1000 C185.5323 277.9350 186.8000 277.9675 187.9902 277.9525 C191.3783 277.9075 194.7360 278.4650 198.1087 278.7050 C201.1958 278.9250 204.2977 279.0275 207.3750 279.3675 C224.3898 281.2525 247.9288 286.3925 260.4775 298.7700 C264.3650 302.6050 267.2750 306.9675 267.2825 312.6000 C267.2875 317.4675 264.2325 322.4650 260.8500 325.8050 C247.2493 339.2400 218.6560 344.8225 200.0865 345.9625 C197.1320 346.1450 194.1300 346.0550 191.1700 346.0450 C185.3788 346.0600 179.4670 346.3075 173.6918 345.8775 C157.3793 344.6650 131.7872 339.4500 118.7750 329.1000 C114.0095 325.3075 108.6840 319.7175 108.1137 313.3100 C107.7135 308.8125 110.0608 304.1525 112.8360 300.7675 C122.8033 288.6050 146.4742 282.3700 161.6133 280.2350 C169.1712 279.1700 176.7670 278.8775 184.3535 278.1000 Z"></path>
<path id="" fill="#fecb4c" fill-opacity="1.0" stroke="#000000" stroke-width="0.0" stroke-opacity="1.0" stroke-linecap="round" stroke-linejoin="round"  filling="0" d="M400.1325 254.1075 C399.3050 253.3150 398.4850 252.5175 397.6725 251.7125 C385.5150 239.4783 380.9075 221.3087 380.9175 204.4710 C380.9250 189.6817 384.6225 170.5688 395.4850 159.8242 C399.3875 155.9622 404.0800 152.7965 409.7750 152.8595 C415.2525 152.9200 419.9950 155.6167 423.7375 159.4863 C432.7025 168.7583 436.8875 183.3058 437.9225 195.9393 C438.2525 199.9585 438.1250 204.0872 438.0725 208.1172 C437.9000 221.5148 433.1300 239.9108 423.3575 249.4280 C423.2050 250.9075 423.3025 252.5775 422.0750 253.6150 C420.4300 255.0075 416.9775 254.9500 414.9150 254.9850 C409.7875 255.7650 405.1500 255.6700 400.1325 254.1075 Z"></path>
<path id="" fill="#f29210" fill-opacity="1.0" stroke="#000000" stroke-width="0.0" stroke-opacity="1.0" stroke-linecap="round" stroke-linejoin="round"  filling="0" d="M414.9150 254.9850 C417.8950 253.2750 420.5050 251.3000 423.3575 249.4280 C423.2050 250.9075 423.3025 252.5775 422.0750 253.6150 C420.4300 255.0075 416.9775 254.9500 414.9150 254.9850 Z"></path>
</svg>