<svg xmlns="http://www.w3.org/2000/svg" viewBox="0 0 512 512" height="512.0px" width="512.0px">
<path id="" fill="#55aced" fill-opacity="1.0" stroke="#000000" stroke-width="0.0" stroke-opacity="1.0" stroke-linecap="round" stroke-linejoin="round"  filling="0" d="M257.0900 101.4857 C258.7050 98.6712 260.3075 96.0760 262.6175 93.7595 C278.3550 77.9912 324.3150 74.0847 346.3175 73.9705 C345.6000 80.9940 342.1625 87.5350 339.8550 94.1530 C333.1475 113.1505 326.2700 132.0872 319.2225 150.9608 L313.5775 166.4140 C311.2025 172.9005 308.1600 179.9973 307.7225 186.9447 C311.4625 192.1897 316.1650 196.2782 320.5025 200.9628 L342.2950 224.8712 L428.8250 320.1775 L439.4900 331.8575 C442.9225 335.5775 447.2600 338.7975 449.3175 343.5475 C446.5975 349.0375 440.6100 356.6725 436.7850 361.7175 C430.3575 370.1925 422.7525 379.4500 415.4450 387.1350 C397.8175 405.6625 372.3000 426.0900 349.4325 437.3650 C343.7550 440.2250 338.1225 443.1425 332.2425 445.5725 C285.1125 465.0550 230.5315 466.5325 183.1497 446.8050 C139.9792 428.8300 107.8020 402.4925 78.7565 366.1075 C74.8765 361.2475 71.3430 356.3475 67.7807 351.2550 C66.0380 348.7650 63.8743 346.1650 62.7145 343.3525 C65.4310 338.3875 70.2960 334.5250 74.0348 330.3350 L103.9105 297.4400 C105.6675 295.5150 107.2530 293.4375 109.0233 291.5225 C110.7785 289.6250 112.6875 287.8725 114.4385 285.9725 L166.9345 228.4243 L187.5970 205.7865 C189.6452 203.5550 191.4747 201.1293 193.5632 198.9320 C197.3427 194.9550 201.3500 191.1487 205.2970 187.3392 C201.6767 173.4845 196.3310 160.2527 191.3672 146.8455 L176.1962 105.0200 C174.5340 100.4247 172.8457 95.8390 171.1315 91.2630 C169.0513 85.7428 166.2510 79.9605 165.8333 74.0197 C171.8715 73.8995 177.8347 74.4095 183.8483 74.8655 C202.6505 76.2917 225.6305 79.0332 242.2500 88.4075 C245.0665 89.9925 247.6450 91.9675 249.9085 94.2742 C252.1075 96.5090 253.8875 100.1115 256.7800 101.3557 C256.8825 101.4003 256.9850 101.4425 257.0900 101.4857 Z"></path>
<path id="" fill="#bbddf5" fill-opacity="1.0" stroke="#000000" stroke-width="0.0" stroke-opacity="1.0" stroke-linecap="round" stroke-linejoin="round"  filling="0" d="M198.9825 175.9605 C207.8600 175.8233 216.7630 175.9908 225.6440 175.9920 C254.7975 175.9962 283.9850 176.3087 313.1325 175.9288 C313.0025 179.4875 313.5725 197.7255 312.9400 199.0485 C303.3425 198.8613 293.7200 199.0165 284.1175 199.0165 L229.6718 199.0228 C219.5092 199.0260 209.2623 199.2953 199.1087 198.9445 C198.8170 198.1395 198.4243 197.2265 198.3720 196.3675 C198.2287 194.0085 198.8130 191.4247 198.9180 189.0412 C199.1090 184.7012 198.9852 180.3062 198.9825 175.9605 Z"></path>
<path id="" fill="#3b88c3" fill-opacity="1.0" stroke="#000000" stroke-width="0.0" stroke-opacity="1.0" stroke-linecap="round" stroke-linejoin="round"  filling="0" d="M254.2600 207.6862 C254.9550 207.7355 255.7700 207.7875 256.4225 208.0323 C257.0375 208.2630 257.4225 208.6545 257.6475 209.2655 C258.2500 210.8873 258.3300 212.9082 258.6050 214.6230 C259.4525 219.8757 260.2000 225.1438 260.8475 230.4245 C263.4500 250.5450 270.4350 300.5750 262.6825 318.6625 C261.6175 321.1450 260.1175 323.1700 257.5575 324.1900 C256.6325 324.2900 255.6525 324.4300 254.7325 324.2325 C252.8175 323.8175 251.2525 322.0800 250.2825 320.4750 C245.2798 312.2000 245.5455 289.8525 246.0355 280.3650 C246.1857 277.4525 246.6400 274.5625 246.8425 271.6550 C247.0080 269.2750 246.9990 266.8875 247.1720 264.5075 C247.6850 257.4500 248.5335 250.2175 249.4100 243.1925 C249.9933 238.5168 250.7925 233.8672 251.4000 229.1938 L253.5075 213.9892 C253.7825 211.9555 253.7500 209.6400 254.2600 207.6862 Z"></path>
<path id="" fill="#3b88c3" fill-opacity="1.0" stroke="#000000" stroke-width="0.0" stroke-opacity="1.0" stroke-linecap="round" stroke-linejoin="round"  filling="0" d="M216.0465 206.7255 C216.2885 206.7255 216.6415 206.7207 216.8732 206.7448 C217.5228 206.8120 217.6510 206.8365 218.0542 207.3030 C218.2433 208.3663 218.0770 209.2200 217.8110 210.2603 C216.5565 215.1685 214.1362 220.1172 212.3255 224.8635 C205.8678 241.7903 185.6288 292.7025 170.8150 301.0925 C168.6250 302.3325 166.6328 302.5675 164.2298 301.8825 C163.8605 301.5425 163.5045 301.2050 163.1870 300.8150 C161.6860 298.9725 161.0383 296.9325 161.3025 294.5825 C163.5265 274.8250 190.9642 239.2663 203.1805 222.9430 C206.2103 218.8947 212.5725 209.5205 216.0465 206.7255 Z"></path>
<path id="" fill="#3b88c3" fill-opacity="1.0" stroke="#000000" stroke-width="0.0" stroke-opacity="1.0" stroke-linecap="round" stroke-linejoin="round"  filling="0" d="M295.3125 206.7027 C296.0250 206.7207 296.7025 206.7140 297.3325 207.0992 C299.1825 208.2312 303.9800 215.2142 305.5700 217.2420 C319.3725 234.8370 347.0850 271.7525 351.6400 292.6625 C352.3450 295.9050 351.7575 297.9450 349.9900 300.6925 C349.4825 301.2425 349.0200 301.6650 348.3125 301.9450 C346.6425 302.6050 344.9075 302.4275 343.2850 301.7200 C326.8650 294.5500 303.3525 231.7900 296.5600 214.0995 C295.7275 211.9342 294.3075 208.9475 295.3125 206.7027 Z"></path>
<path id="" fill="#55abee" fill-opacity="1.0" stroke="#000000" stroke-width="0.0" stroke-opacity="1.0" stroke-linecap="round" stroke-linejoin="round"  filling="0" d="M335.7425 50.8878 C335.7525 50.8943 335.7650 50.8975 335.7700 50.9073 C336.5050 52.0867 335.8000 71.6200 336.2025 75.1805 C330.2575 74.4035 319.7100 75.8873 313.7775 77.0665 L313.3175 76.9807 C313.2200 76.8705 313.0775 76.7872 313.0250 76.6500 C312.6500 75.6772 312.9700 53.8775 312.9375 50.9545 C320.5275 51.0258 328.1575 51.1418 335.7425 50.8878 Z"></path>
<path id="" fill="#55abee" fill-opacity="1.0" stroke="#000000" stroke-width="0.0" stroke-opacity="1.0" stroke-linecap="round" stroke-linejoin="round"  filling="0" d="M176.0728 50.9422 C183.7795 51.0358 191.4872 51.0298 199.1940 50.9238 C198.7558 57.1443 199.0880 63.5358 199.1017 69.7728 C199.1070 72.2350 199.2592 74.8438 198.9527 77.2852 C193.7925 75.9062 181.3952 74.9532 176.0710 75.1387 C176.3103 72.4475 176.1257 69.6137 176.1165 66.9060 L176.0728 50.9422 Z"></path>
</svg>