<svg xmlns="http://www.w3.org/2000/svg" viewBox="0 0 512 512" height="512.0px" width="512.0px">
<path id="" fill="#ffd983" fill-opacity="1.0" stroke="#000000" stroke-width="0.0" stroke-opacity="1.0" stroke-linecap="round" stroke-linejoin="round"  filling="0" d="M249.1302 104.3150 C249.7255 104.2493 250.3125 104.2110 250.9100 104.2070 C259.8200 104.0803 268.3175 107.9612 274.0550 114.7790 C276.0925 117.1830 277.7250 119.9373 279.9875 122.1480 C281.1925 123.3235 282.6025 124.4240 284.2675 124.8250 C291.8450 126.6495 306.5250 118.6490 314.7400 116.6445 C316.9650 116.1015 319.2100 115.9010 321.4975 115.8842 C330.3825 115.8188 335.2100 119.7462 340.1325 126.7947 C341.6525 128.9738 343.0675 131.2567 344.9800 133.1223 C348.5100 136.5632 354.1025 138.4568 358.9775 137.6285 C363.6325 136.8375 366.9650 134.9625 372.0100 134.9120 C376.1150 134.8707 379.7950 135.5995 383.3675 137.6662 C395.9900 144.9733 387.0325 159.0992 394.4625 166.0997 C399.5525 170.8950 404.0600 169.3208 410.1100 169.0475 C415.8675 168.7875 421.1300 169.6950 425.4925 173.7160 C430.3150 178.1588 430.5175 183.6178 429.7725 189.7173 C429.5600 191.4393 429.1425 193.2440 429.2525 194.9830 C429.9200 205.5927 445.8150 208.3783 452.6775 214.2625 C457.3525 218.2717 460.6100 224.6467 460.9950 230.8070 C461.6450 241.1810 453.5200 250.6550 446.3500 257.1450 C443.9175 259.3475 441.1300 261.2025 438.9700 263.6875 L438.7000 264.0000 C439.2825 265.7525 440.5900 267.5025 441.4375 269.1650 C443.0475 272.3175 444.4625 275.5975 445.9975 278.7900 C452.1825 291.6650 456.9150 306.3575 457.9350 320.6725 C458.9575 335.0075 454.5450 349.6475 444.9800 360.5050 C438.1075 368.2375 429.9825 374.7550 420.9425 379.7850 C418.2175 381.3275 415.2700 382.5825 412.4300 383.9000 C378.9225 399.4675 334.3250 404.8350 297.5700 406.9300 C291.8725 407.2525 286.0850 406.9600 280.3750 407.0650 C276.3775 407.1400 272.4250 407.6000 268.4375 407.8350 C259.8325 408.5325 251.9150 407.4250 243.4453 407.0900 C239.2487 406.9250 235.0367 407.1400 230.8423 406.8900 C203.4785 405.2600 175.7270 401.1850 149.2785 393.9700 C145.4150 392.9150 141.4818 391.9375 137.6747 390.6975 C132.9828 389.1675 128.3300 387.3050 123.7357 385.5025 C98.1647 375.4675 69.7028 359.7425 58.2700 333.2875 C50.2590 314.7525 53.9605 294.5550 61.7377 276.6350 C63.6675 272.1900 66.3562 268.0275 68.1093 263.5200 L68.2363 263.1875 C66.9027 260.3075 64.6040 257.8475 62.6300 255.3825 C57.3392 248.7815 52.3087 241.1355 51.2535 232.5542 C50.8585 229.3425 51.5737 226.2990 52.6407 223.2870 C56.5415 212.2765 62.7975 209.1413 71.6162 202.7480 C77.7730 198.2847 83.6980 193.3005 87.9120 186.9057 C93.8995 177.8197 92.1275 169.1505 99.3197 159.8995 C106.3968 150.7968 116.6082 146.3910 127.7040 150.9068 C131.8460 152.5925 136.8460 156.6788 141.4837 155.9510 C148.4920 154.8510 150.8910 144.1447 153.2988 138.7157 C154.3058 136.4450 155.6220 134.3040 157.0473 132.2737 C165.5700 120.1338 179.2670 113.9117 193.7535 118.7437 C197.6662 120.0490 201.2350 122.8280 205.1740 123.7270 C208.9738 124.5943 213.5957 124.1915 217.3033 123.0780 C225.6342 120.5762 226.4880 118.0007 232.2263 112.4658 C237.0415 107.8210 242.6093 105.4370 249.1302 104.3150 Z"></path>
<path id="" fill="#ffac33" fill-opacity="1.0" stroke="#000000" stroke-width="0.0" stroke-opacity="1.0" stroke-linecap="round" stroke-linejoin="round"  filling="0" d="M258.7000 178.8230 C260.0625 178.7660 261.2950 178.8695 262.6425 179.0558 C263.0250 179.5105 263.3850 179.9803 263.7050 180.4840 C271.3550 192.5867 272.3700 211.0323 273.2925 224.9982 C273.7925 232.5765 274.2500 239.9885 274.0125 247.5915 C273.9300 250.2600 273.5550 252.9100 273.3700 255.5725 C272.6900 265.3175 271.8400 274.9225 269.7025 284.4850 C268.3000 290.7525 266.5250 298.6125 260.7700 302.2725 C259.7750 302.3925 258.8125 302.4875 257.9175 301.9450 C253.6850 299.3725 251.2850 290.0900 250.1800 285.5200 C247.6625 275.0975 246.4438 262.5325 246.0015 251.8125 C245.3095 235.0370 246.1562 196.0940 254.9875 181.9500 C255.9900 180.3420 256.8200 179.2617 258.7000 178.8230 Z"></path>
<path id="" fill="#ffac33" fill-opacity="1.0" stroke="#000000" stroke-width="0.0" stroke-opacity="1.0" stroke-linecap="round" stroke-linejoin="round"  filling="0" d="M217.8412 185.8010 C218.5840 185.7440 219.3660 185.6837 220.0835 185.9300 C221.2370 186.3262 222.0788 187.2215 222.5918 188.3053 C228.1198 199.9832 215.7020 246.4767 211.1970 260.2075 C208.4520 268.5750 201.4142 288.2400 193.3335 292.3325 C192.4798 292.3600 191.7475 292.4200 190.9388 292.1150 C189.5290 290.7625 188.8177 289.1325 188.2590 287.2925 C184.0485 273.4275 190.7525 240.5302 194.7728 226.5065 C197.3760 217.4263 200.4872 208.3745 204.9458 200.0225 C207.8168 194.6443 211.6268 187.6935 217.8412 185.8010 Z"></path>
<path id="" fill="#ffac33" fill-opacity="1.0" stroke="#000000" stroke-width="0.0" stroke-opacity="1.0" stroke-linecap="round" stroke-linejoin="round"  filling="0" d="M304.0325 187.7267 C304.6825 187.7365 305.3775 187.8320 306.0075 187.9942 C309.4700 188.8875 312.3150 193.7380 313.9050 196.6577 C323.2675 213.8407 329.4900 242.2060 330.9175 261.6125 C331.1800 265.1525 331.0975 268.7425 331.1050 272.2900 C331.1175 277.1175 331.3575 281.9875 329.9275 286.6625 C329.0075 289.6625 327.7000 291.8850 324.8700 293.3900 C324.7875 293.3750 324.7025 293.3650 324.6200 293.3450 C321.9200 292.6275 318.6950 288.3925 317.2250 286.1525 C314.2825 281.6700 312.1425 276.2975 310.2825 271.2750 C303.9300 254.1125 300.4125 236.2355 298.8025 218.0365 C298.5150 214.7823 298.0875 211.4362 298.0925 208.1703 C298.0975 204.0253 298.5500 199.3870 299.4400 195.3365 C300.1050 192.3150 301.3375 189.4438 304.0325 187.7267 Z"></path>
<path id="" fill="#ffac33" fill-opacity="1.0" stroke="#000000" stroke-width="0.0" stroke-opacity="1.0" stroke-linecap="round" stroke-linejoin="round"  filling="0" d="M341.1925 204.7908 C342.1500 204.8013 343.0925 204.8110 344.0125 205.1062 C351.0475 207.3650 362.3875 223.4438 366.0550 230.1633 C373.2275 243.3013 380.1575 257.6700 382.3700 272.6025 C382.8225 275.6600 383.3300 278.8225 382.3800 281.8375 C381.7075 283.9625 380.7625 285.2075 378.8050 286.2475 C377.4850 286.3150 376.2800 286.3600 375.0075 285.9100 C366.9000 283.0450 355.7575 265.5100 351.8250 257.7625 C349.4250 253.0375 346.8900 248.2980 344.7975 243.4300 C341.5175 235.7975 334.8575 216.6535 337.5500 208.9795 C338.2300 207.0443 339.3475 205.6970 341.1925 204.7908 Z"></path>
<path id="" fill="#ffac33" fill-opacity="1.0" stroke="#000000" stroke-width="0.0" stroke-opacity="1.0" stroke-linecap="round" stroke-linejoin="round"  filling="0" d="M171.7330 201.8120 C172.5117 201.7760 173.3225 201.7043 174.0658 201.9868 C175.5265 202.5420 176.5932 203.6983 177.2307 205.1003 C180.2592 211.7603 174.6743 226.5298 172.0163 233.2272 C166.6695 246.6998 154.8995 272.7750 141.2332 278.6525 C140.9648 278.7425 140.6965 278.8325 140.4227 278.9075 C139.3390 279.2025 138.3645 278.8000 137.4325 278.2500 C136.0647 277.4400 135.4427 275.9200 135.1375 274.4250 C134.7343 272.4475 134.8353 270.3225 134.8580 268.3125 C135.0410 252.0325 143.6470 230.9142 152.8275 217.6138 C156.0293 212.9753 162.4755 205.8200 167.4832 203.1777 C168.8647 202.4487 170.2160 202.0920 171.7330 201.8120 Z"></path>
<path id="" fill="#ffcc4d" fill-opacity="1.0" stroke="#000000" stroke-width="0.0" stroke-opacity="1.0" stroke-linecap="round" stroke-linejoin="round"  filling="0" d="M320.7225 122.8253 C323.0275 122.6858 325.0100 122.7117 327.1575 123.7130 C330.8850 125.4492 333.1125 129.1772 334.4875 132.8978 C337.0025 139.5220 336.7350 146.8830 333.7400 153.3055 C332.2050 156.5245 330.0925 158.8760 326.6800 160.0822 C324.6475 160.4603 322.6825 160.2855 320.7900 159.4397 C316.9800 157.7357 314.1300 153.9088 312.7475 150.0618 C310.4425 143.6472 310.2375 136.6595 313.1950 130.4215 C314.7950 127.0460 317.1075 124.1110 320.7225 122.8253 Z"></path>
<path id="" fill="#ffcc4d" fill-opacity="1.0" stroke="#000000" stroke-width="0.0" stroke-opacity="1.0" stroke-linecap="round" stroke-linejoin="round"  filling="0" d="M68.3965 223.8530 C71.0782 223.7448 73.7733 223.9942 76.3228 224.8660 C82.2567 226.8947 87.9182 232.1212 90.5927 237.7670 C91.9788 240.6930 93.0885 245.6082 91.8315 248.7180 C90.8748 251.0850 87.8513 252.2250 85.6590 253.1300 C82.0470 253.3775 77.6490 251.6050 74.6008 249.7457 C67.5912 245.4705 63.8780 239.2838 61.9565 231.5055 C62.3715 229.5477 63.0680 227.4920 64.3842 225.9415 C65.5307 224.5912 66.6487 223.9883 68.3965 223.8530 Z"></path>
<path id="" fill="#ffcc4d" fill-opacity="1.0" stroke="#000000" stroke-width="0.0" stroke-opacity="1.0" stroke-linecap="round" stroke-linejoin="round"  filling="0" d="M183.3997 126.8155 C185.9130 126.7340 188.2205 127.4057 190.4227 128.5725 C195.4755 131.2493 199.8947 136.1268 201.5267 141.6650 C202.4535 144.8092 202.8987 148.9388 201.2030 151.8768 C199.7150 154.4555 197.3127 155.3602 194.6035 156.0995 C191.7930 156.1013 188.7360 154.5650 186.4147 153.0775 C181.3280 149.8175 177.2988 143.8105 176.1272 137.8775 C175.6122 135.2690 176.1288 132.4258 177.6497 130.2250 C179.0977 128.1295 180.9525 127.2100 183.3997 126.8155 Z"></path>
<path id="" fill="#ffcc4d" fill-opacity="1.0" stroke="#000000" stroke-width="0.0" stroke-opacity="1.0" stroke-linecap="round" stroke-linejoin="round"  filling="0" d="M249.1885 117.2913 C251.2475 116.9190 253.6500 117.5545 255.5600 118.3335 C261.1725 120.6257 265.1925 125.3343 267.4775 130.8670 C268.9100 134.3375 269.5400 137.8318 267.9625 141.4035 C266.8875 143.8325 265.3625 145.1245 262.9225 146.0325 C259.6000 146.5658 257.0575 145.8130 254.1825 144.1853 C248.9700 141.2363 245.0332 136.8087 243.4368 130.9633 C242.5875 127.8535 242.1947 123.7312 243.9155 120.8737 C245.1265 118.8630 246.9735 117.8473 249.1885 117.2913 Z"></path>
<path id="" fill="#ffcc4d" fill-opacity="1.0" stroke="#000000" stroke-width="0.0" stroke-opacity="1.0" stroke-linecap="round" stroke-linejoin="round"  filling="0" d="M109.6103 161.0185 C111.3148 160.8053 112.9255 161.1628 114.4800 161.8830 C118.7460 163.8600 122.3310 168.4525 123.8207 172.8505 C125.4035 177.5230 126.1610 184.2565 123.8248 188.7782 C122.5705 191.2057 120.9010 192.3987 118.3717 193.2285 C117.0025 193.2975 115.8705 193.2348 114.5605 192.8035 C110.4290 191.4430 107.6010 188.2885 105.6732 184.5160 C103.2838 179.8398 101.8140 172.9877 103.5462 167.8845 C104.6373 164.6698 106.6212 162.5135 109.6103 161.0185 Z"></path>
<path id="" fill="#ffcc4d" fill-opacity="1.0" stroke="#000000" stroke-width="0.0" stroke-opacity="1.0" stroke-linecap="round" stroke-linejoin="round"  filling="0" d="M368.3550 149.8268 C369.5725 149.7652 370.8075 149.7255 372.0175 149.9190 C375.0725 150.4077 377.5025 152.5320 379.2050 155.0060 C382.3075 159.5175 383.9225 166.6243 382.8475 172.0132 C381.9975 176.2570 379.7575 179.5640 376.1900 181.9795 C374.5225 182.4957 372.7850 182.3190 371.1775 181.6763 C367.5450 180.2233 364.9375 176.5620 363.4975 173.0482 C361.4900 168.1500 360.9050 160.5813 363.0325 155.6812 C364.0650 153.3017 365.8750 150.8062 368.3550 149.8268 Z"></path>
<path id="" fill="#ffcc4d" fill-opacity="1.0" stroke="#000000" stroke-width="0.0" stroke-opacity="1.0" stroke-linecap="round" stroke-linejoin="round"  filling="0" d="M435.1675 225.0618 C437.8200 224.7702 440.3975 225.1362 442.7350 226.4897 C445.2500 227.9455 447.1775 230.3885 447.8900 233.2153 C448.8350 236.9745 448.2350 241.3282 446.2775 244.6535 C443.8700 248.7450 440.2725 250.7775 435.8100 251.9650 C433.7475 252.3350 431.6050 251.8100 429.7725 250.8275 C426.6850 249.1723 424.5300 246.0213 423.5850 242.6920 C422.5725 239.1308 423.6350 235.2498 425.4600 232.1203 C427.7025 228.2705 430.9250 226.1772 435.1675 225.0618 Z"></path>
<path id="" fill="#ffcc4d" fill-opacity="1.0" stroke="#000000" stroke-width="0.0" stroke-opacity="1.0" stroke-linecap="round" stroke-linejoin="round"  filling="0" d="M412.4525 182.7943 C413.7500 182.9070 414.8350 183.2330 415.9875 183.8573 C418.4425 185.1868 419.9850 187.2908 420.6900 189.9785 C421.9825 194.9165 420.4350 200.4195 417.9250 204.7292 C415.3250 209.1918 411.7600 211.7047 406.8150 213.0110 C405.2825 212.9945 403.3675 212.2988 402.0700 211.4812 C399.9025 210.1175 398.7775 207.9158 398.2425 205.4740 C397.1900 200.6655 398.6075 194.6568 401.3050 190.5932 C403.8900 186.6940 407.8275 183.6983 412.4525 182.7943 Z"></path>
</svg>