<svg xmlns="http://www.w3.org/2000/svg" viewBox="0 0 512 512" height="512.0px" width="512.0px">
<path id="" fill="#99aab5" fill-opacity="1.0" stroke="#000000" stroke-width="0.0" stroke-opacity="1.0" stroke-linecap="round" stroke-linejoin="round"  filling="0" d="M174.4523 51.0440 C183.8913 50.6527 197.3240 62.2467 204.2368 68.1040 C206.0972 69.6803 208.1272 72.0042 210.1945 73.2148 C210.2018 73.0267 210.1978 72.8058 210.2710 72.6292 C212.5128 67.2258 211.8065 61.5850 215.3345 55.8467 C217.3475 52.5730 219.6705 51.6565 223.2318 50.8055 L223.5343 50.8940 C225.6995 51.5468 227.2253 52.6232 228.7467 54.2892 C234.4495 60.5340 240.9125 78.5423 243.6025 86.9540 C244.5943 90.0558 245.1605 93.8945 246.7035 96.7300 C248.1562 96.5273 252.4475 90.2957 255.2750 88.7985 C257.2425 87.7567 259.3975 87.5520 261.5075 88.2765 C265.8675 89.7740 269.0375 94.9272 270.9400 98.8710 C285.3575 128.7583 294.1300 175.5430 294.1150 208.8177 C294.1125 219.1775 294.3525 226.0473 290.8125 236.1873 C286.9400 245.6160 279.5050 250.9850 270.3650 255.0050 C256.4075 261.1450 238.1277 264.4175 223.6440 258.6775 C217.9760 256.4300 212.8575 253.3400 209.6178 248.0370 C206.7408 243.3282 205.4120 237.1463 205.2710 231.6777 C205.1013 225.1042 206.4700 218.0320 207.5525 211.5610 C208.8978 203.5197 210.3127 195.2825 210.8730 187.1413 C211.4860 178.2377 210.5505 169.4475 209.1275 160.6690 C205.3647 137.4970 199.1788 114.7842 190.6712 92.9048 C188.8165 88.1465 187.1140 83.3065 184.8960 78.6998 C182.6953 74.1290 180.0695 69.6827 177.2608 65.4577 C175.3078 62.5200 172.4935 59.4073 171.1922 56.1400 C170.8125 55.1865 170.6447 53.5988 171.1678 52.6720 C171.8110 51.5325 173.2962 51.3025 174.4523 51.0440 Z"></path>
<path id="" fill="#ccd6dd" fill-opacity="1.0" stroke="#000000" stroke-width="0.0" stroke-opacity="1.0" stroke-linecap="round" stroke-linejoin="round"  filling="0" d="M244.2350 261.0525 C244.3717 260.9675 244.5108 260.8875 244.6455 260.8000 C252.4100 255.7950 252.3975 237.5997 261.3950 231.1682 C265.9550 227.9088 272.7125 228.7450 277.9675 227.3885 C282.0775 226.3277 285.9500 224.5335 289.7800 222.7420 C293.9625 220.7860 298.2650 218.9153 302.2850 216.6445 C338.2525 196.3183 379.8175 156.4750 387.4075 114.1588 C388.1225 110.1808 388.7175 106.0738 388.9075 102.0365 C389.0925 98.1472 388.8975 94.2467 389.0350 90.3568 C389.3475 81.5233 390.7975 63.9500 398.4350 58.3885 C400.4150 56.9463 402.7575 56.5128 405.1475 56.9595 C410.5850 57.9755 415.0900 62.8898 417.9700 67.3225 C421.6450 72.9807 423.8925 79.3763 424.2350 86.1160 C424.2575 86.5472 424.2475 86.3983 424.4350 86.8635 C424.5125 86.8540 424.5925 86.8430 424.6725 86.8347 C427.8700 86.5015 432.4275 89.5908 434.8150 91.5570 C437.1000 93.4400 438.9075 95.8457 440.5375 98.2962 C444.9875 104.9835 447.2100 111.7393 447.9450 119.7643 C448.8200 129.3472 447.8475 140.5265 442.9925 148.9707 C441.3750 151.7825 438.9550 154.1407 437.4825 157.0015 C437.5550 157.0665 437.6275 157.1325 437.7000 157.1962 C439.5250 158.7762 441.7450 159.7525 443.6600 161.2015 C448.9000 165.1678 452.4650 171.9595 453.0000 178.4818 C453.2700 181.8400 452.6475 185.2097 451.1975 188.2507 C450.3275 190.1045 449.0925 191.9747 449.0125 194.0775 C448.8325 198.6987 450.9750 203.3795 451.1375 208.0723 C451.6150 227.0907 444.9550 245.5990 432.4700 259.9525 C429.2100 263.7675 424.3125 268.9675 420.0900 271.6675 C417.5925 273.2625 414.7250 274.3950 412.3875 276.2050 C410.9475 284.7075 405.6125 291.1000 398.7275 295.9625 C391.9350 300.7625 383.0375 304.1975 374.6150 302.6900 C371.1925 302.0775 368.0750 300.9300 364.5550 300.7550 C361.1100 309.4400 355.4850 320.1025 346.5275 324.1675 C344.2825 325.1875 340.7650 325.3400 338.8475 326.5050 L338.8825 327.9725 C339.1250 328.4475 339.0200 328.3225 339.4250 328.7325 C341.4200 330.7425 347.7075 333.3575 350.4650 334.9150 C373.8775 348.1475 394.5425 353.1450 421.0800 356.4100 C433.7450 358.0725 446.5025 358.9400 459.2750 359.0025 C458.5525 366.8825 451.3500 373.2150 445.1100 377.3225 C442.3975 379.1050 439.2375 380.5975 436.7825 382.7125 C436.7075 382.7775 436.6325 382.8475 436.5575 382.9125 C437.8950 386.0250 440.4350 388.2875 440.9950 391.7975 C441.6975 396.2025 440.5750 400.5000 438.0125 404.1200 C432.6325 411.7275 421.9400 416.7775 412.9900 418.3675 C413.3150 419.7150 413.6450 421.0675 413.8550 422.4400 C414.2625 425.1100 414.4500 428.3250 412.6950 430.5800 C411.5550 432.0450 409.8350 432.7325 408.0375 432.9700 C401.3100 433.8600 394.2550 431.7625 387.9925 429.5300 C367.8925 422.3625 349.9300 410.2500 333.5300 396.7875 C330.5500 394.3425 327.4725 391.7875 324.6950 389.1150 C322.6350 387.1350 320.6850 384.8125 318.4200 383.0800 C318.3600 383.0350 318.3000 382.9900 318.2400 382.9450 C314.2725 383.1375 310.2925 383.8500 306.3400 384.2800 C301.8925 384.7650 297.4600 384.9575 293.0025 385.2675 C289.8725 385.4875 286.7625 385.9025 283.6250 386.0000 C277.9000 386.1750 272.3225 385.7100 266.6300 385.2125 C244.7352 383.2975 223.9360 378.0250 204.6925 367.1625 C201.3960 365.3025 198.0925 363.4600 195.0038 361.2650 C184.0585 353.4875 174.4673 344.7900 165.9948 334.3900 C162.5072 330.1100 158.9543 325.7425 156.0638 321.0300 C154.4442 318.3875 153.1130 315.5525 151.7578 312.7675 C143.3440 295.4850 139.0730 276.8150 135.8725 257.9450 C129.7370 258.0000 124.1777 259.7350 118.2420 260.9700 C109.8190 262.7225 100.6062 264.0950 92.0145 264.0050 C91.5997 260.0175 94.0827 258.0350 96.8002 255.5050 C102.4535 250.2425 108.6020 246.6422 115.7773 243.8480 C117.6738 243.1095 119.5805 242.4198 121.5595 241.9335 C123.5048 241.4555 125.6805 241.1780 127.5482 240.4790 C128.1752 240.2442 128.3300 240.1265 128.6868 239.5945 C128.9110 235.0370 131.1897 230.4655 134.2617 227.1517 C140.6520 220.2580 152.0180 217.2142 161.1158 216.9368 C173.6082 216.5555 184.4215 221.8282 193.5963 230.0690 C195.8768 232.1170 197.8830 234.4570 200.1297 236.5408 C202.6147 238.8452 203.1017 239.3005 206.5320 239.1557 L206.5612 239.2765 C206.6895 239.8273 206.8215 240.3755 206.9815 240.9182 C208.2605 245.2620 210.4740 250.2925 214.1203 253.1525 C215.5757 254.2925 217.4230 255.1450 219.0490 256.0300 C224.9190 258.9525 230.3022 260.6450 236.9212 260.9025 C239.3535 260.9950 241.8092 260.9000 244.2350 261.0525 Z"></path>
<path id="" fill="#d7dee4" fill-opacity="1.0" stroke="#000000" stroke-width="0.0" stroke-opacity="1.0" stroke-linecap="round" stroke-linejoin="round"  filling="0" d="M331.8100 324.7625 C333.7000 324.9875 337.4875 325.1500 338.8475 326.5050 L338.8825 327.9725 C336.6625 328.0425 333.7150 325.8775 331.8100 324.7625 Z"></path>
<path id="" fill="#5c913b" fill-opacity="1.0" stroke="#000000" stroke-width="0.0" stroke-opacity="1.0" stroke-linecap="round" stroke-linejoin="round"  filling="0" d="M124.9985 252.5225 C126.0298 252.4750 126.9933 252.4800 127.9855 252.8050 C131.2693 253.8825 134.3548 255.9025 137.3565 257.5975 C144.1975 261.3750 150.8768 265.4400 157.3765 269.7800 C168.6970 277.2875 179.8165 285.2875 189.8990 294.4150 C192.6085 296.8675 195.1560 299.5525 197.7425 302.1350 C200.7155 305.1025 203.7745 308.0350 206.5098 311.2275 C211.6693 317.2500 216.8810 323.9050 221.0363 330.6425 C228.2650 342.3650 233.7205 354.9100 239.1402 367.5250 C243.9753 378.7775 248.7392 390.0275 252.8975 401.5575 C257.5600 414.4875 261.3175 427.8600 264.6375 441.1950 C265.8475 446.0550 267.1600 450.9325 268.1525 455.8400 C266.3125 456.8100 264.3350 457.3000 262.3300 457.8025 C261.3800 458.0275 260.4700 458.3250 259.4925 458.1300 C258.3975 457.1750 254.7550 440.9625 254.0750 438.4125 C248.2840 416.5650 240.9462 395.1575 232.1172 374.3500 C226.5762 361.3375 221.2298 348.9650 213.7285 336.8650 C199.9563 314.6525 177.4547 294.8375 155.8622 280.4325 C146.7142 274.3300 137.3995 267.8825 127.4255 263.1800 C125.5447 262.2950 120.8737 260.8175 119.9478 258.8900 C119.6557 258.2825 119.6758 257.6625 119.8952 257.0350 C120.6137 254.9825 123.1728 253.5000 124.9985 252.5225 Z"></path>
<path id="" fill="#5c913b" fill-opacity="1.0" stroke="#000000" stroke-width="0.0" stroke-opacity="1.0" stroke-linecap="round" stroke-linejoin="round"  filling="0" d="M55.2122 230.2210 C55.5650 230.2083 55.8978 230.1995 56.2505 230.2253 C62.3590 230.6705 68.5878 232.3022 74.5128 233.8053 C84.4528 236.2275 94.2578 239.1735 103.8870 242.6305 C105.9147 243.3575 109.9603 244.3302 111.3907 245.9300 L111.3213 246.3520 C110.0475 247.7915 108.1280 248.8580 106.5420 249.9445 C105.2097 250.7400 103.9368 251.4275 102.4920 251.9975 C97.6257 250.0675 92.3503 248.6810 87.2982 247.2965 C78.9447 245.0072 70.7852 242.8627 62.1647 241.8457 C59.5405 241.5360 54.7350 241.5120 52.8625 239.4942 C52.0850 238.6565 51.8210 237.5735 51.9135 236.4525 C52.1035 234.1510 53.4917 231.7263 55.2122 230.2210 Z"></path>
<path id="" fill="#5c913b" fill-opacity="1.0" stroke="#000000" stroke-width="0.0" stroke-opacity="1.0" stroke-linecap="round" stroke-linejoin="round"  filling="0" d="M160.8477 284.0150 C161.2227 283.9775 161.6425 283.9325 162.0135 284.0225 C164.1160 284.5275 165.8793 287.0575 166.8318 288.8675 C172.1293 298.9325 175.2097 318.7500 171.6413 329.7250 C167.9925 340.9475 158.4390 348.9250 148.3625 354.3775 C145.2105 356.0850 141.8992 357.5050 138.7077 359.1400 L135.4453 360.4075 C132.9698 356.6525 131.0770 352.4575 129.6747 348.1925 C125.2493 334.7350 126.1087 320.2650 132.5177 307.6125 C138.4150 295.9700 148.5200 288.0050 160.8477 284.0150 Z"></path>
<path id="" fill="#5c913b" fill-opacity="1.0" stroke="#000000" stroke-width="0.0" stroke-opacity="1.0" stroke-linecap="round" stroke-linejoin="round"  filling="0" d="M212.7265 319.7325 C225.0658 309.3225 241.2112 299.1100 257.9825 300.5275 C271.0700 301.6350 285.0900 310.2375 295.3975 318.0400 C297.4325 319.5800 299.8950 321.1275 301.5325 323.0675 C301.9575 323.5675 302.1525 323.9475 302.2550 324.6100 C301.5375 327.2450 294.7975 330.8600 292.4300 332.2075 C276.9675 341.0200 260.1800 343.6025 242.9147 338.8025 C236.9445 337.1425 230.9993 334.7300 225.6277 331.6150 C224.4225 331.9925 223.3513 332.7875 222.2865 333.4550 C221.0820 331.3775 219.7592 329.4600 218.3203 327.5350 C216.1622 325.6100 214.0038 322.3400 212.7265 319.7325 Z"></path>
<path id="" fill="#c9d4d9" fill-opacity="1.0" stroke="#000000" stroke-width="0.0" stroke-opacity="1.0" stroke-linecap="round" stroke-linejoin="round"  filling="0" d="M218.3203 327.5350 L218.7650 327.1300 C220.4538 327.2150 224.0163 330.2875 225.5000 331.2900 L225.6277 331.6150 C224.4225 331.9925 223.3513 332.7875 222.2865 333.4550 C221.0820 331.3775 219.7592 329.4600 218.3203 327.5350 Z"></path>
<path id="" fill="#5c913b" fill-opacity="1.0" stroke="#000000" stroke-width="0.0" stroke-opacity="1.0" stroke-linecap="round" stroke-linejoin="round"  filling="0" d="M266.4825 456.5275 C266.3525 450.1525 264.6650 444.2825 263.1450 438.1525 C259.9350 425.2875 256.1175 412.5775 251.7050 400.0725 C249.7205 394.6100 247.2128 389.2525 245.4323 383.7325 C244.9953 382.3775 244.5110 380.8800 244.7682 379.4550 C245.0652 379.1850 245.0582 379.1000 245.4883 379.0650 C246.4492 378.9925 247.6447 379.5450 248.5508 379.8675 C254.3150 381.9250 259.4975 384.9950 263.9550 389.2000 C270.9700 395.8175 275.6700 403.4375 277.9825 412.8425 C278.5725 415.2425 279.1550 417.9325 279.2250 420.4075 C280.1375 424.3575 279.9600 431.3950 279.1800 435.3325 C279.0350 439.8125 275.8925 457.4600 273.2250 460.4050 C272.9425 460.4825 272.9100 460.5150 272.5725 460.4850 C270.7175 460.3300 267.5950 457.8725 266.4825 456.5275 Z"></path>
<path id="" fill="#5c913b" fill-opacity="1.0" stroke="#000000" stroke-width="0.0" stroke-opacity="1.0" stroke-linecap="round" stroke-linejoin="round"  filling="0" d="M235.6283 383.3400 C235.8992 383.4675 236.1155 383.5475 236.3438 383.7650 C237.8855 385.2350 239.3732 391.1450 240.1693 393.3350 C241.7272 397.6225 243.5592 401.8100 245.0230 406.1300 C246.8978 411.6625 257.8675 446.8750 257.4200 450.4775 C257.3500 451.0275 257.3500 451.0575 256.9050 451.4125 C255.8625 451.1175 254.9375 450.1900 254.0975 449.5200 C250.1800 446.9275 246.2705 443.8625 242.9420 440.5550 C234.2880 431.9550 229.4960 422.9250 229.4965 410.5500 C229.4967 405.1425 231.5700 387.3975 235.6283 383.3400 Z"></path>
</svg>