<svg xmlns="http://www.w3.org/2000/svg" viewBox="0 0 512 512" height="512.0px" width="512.0px">
<path id="" fill="#ffffff" fill-opacity="1.0" stroke="#000000" stroke-width="0.0" stroke-opacity="1.0" stroke-linecap="round" stroke-linejoin="round"  filling="0" d="M224.4187 116.3647 C225.8873 116.3228 227.2988 116.5010 228.6890 116.9945 C231.8515 118.1168 234.5318 120.4030 237.0320 122.5805 C239.9642 125.1345 242.6565 128.0150 245.4068 130.7637 L258.7575 144.1085 L277.1225 162.4753 C283.1800 168.5338 293.6575 177.7677 297.2900 185.3338 C298.2725 187.3775 298.9700 189.7820 299.5250 191.9738 C301.7725 200.8715 299.7200 207.8848 296.7625 216.3013 C298.6750 217.8960 300.7600 219.2050 302.5475 220.9702 C304.6775 223.0750 306.4075 225.5710 308.5750 227.6413 C311.1500 230.0990 313.9475 232.2543 316.4600 234.8022 C318.8025 237.1765 320.7800 239.8985 323.1500 242.2335 C326.1775 245.2175 329.4450 247.9122 332.4225 250.9775 C335.4550 254.1000 338.1125 257.5350 341.2100 260.6025 L412.0900 330.3750 C414.6400 332.9325 416.6575 335.9775 419.1900 338.5650 C421.7500 341.1800 424.6150 343.4800 427.2025 346.0675 C429.6475 348.5075 431.8575 351.1875 434.2675 353.6650 C438.3725 357.8875 442.6650 361.9350 446.8175 366.1125 C449.2775 368.5875 451.9725 371.0350 454.1625 373.7500 C458.7925 379.4900 461.2125 387.5075 461.1550 394.8200 C461.1125 400.2625 459.9300 405.9450 457.3550 410.7675 C452.9050 419.1025 444.8900 425.7250 438.2775 432.3500 L421.9750 448.6950 C414.4450 456.1100 405.5325 460.7950 394.7750 460.6550 C383.4150 460.5050 375.0200 455.8425 367.3175 447.8650 L266.2475 346.7975 L233.8595 314.4125 C227.8055 308.3575 221.2530 302.4350 215.7578 295.8850 C212.0210 297.7600 207.5370 298.6375 203.3910 298.9425 C199.8822 299.1750 196.3580 298.9550 192.9048 298.2900 C183.7925 296.5650 178.9470 292.3325 172.1613 286.4375 C166.0110 281.0950 160.3765 274.9550 154.6198 269.1850 C146.1203 260.6700 137.4960 252.2650 129.2778 243.4772 C126.0545 240.0307 122.4145 237.3400 119.5912 233.4653 C117.5810 230.7063 116.1947 227.7962 115.9830 224.3355 C115.6978 219.6785 117.2142 216.5468 120.2538 213.1550 C126.1250 206.6035 133.4690 199.8878 139.7617 193.5957 L178.8010 154.5600 L201.5395 131.8262 C205.5437 127.8087 209.5242 123.0665 214.0547 119.6783 C217.1897 117.3337 220.5735 116.5732 224.4187 116.3647 Z"></path>
<path id="" fill="#8899a6" fill-opacity="1.0" stroke="#000000" stroke-width="0.0" stroke-opacity="1.0" stroke-linecap="round" stroke-linejoin="round"  filling="0" d="M216.5010 296.3800 C216.6705 295.9900 221.1658 293.1800 221.9160 292.6050 C225.5020 289.8475 228.6033 286.2775 231.8038 283.0750 L267.8400 247.0412 L283.7550 231.1272 C286.4850 228.3965 289.4950 225.7047 292.0125 222.7823 C293.7250 220.7965 294.8300 218.4565 296.3975 216.4272 L296.7050 216.5205 C296.8450 216.9892 296.9725 217.3273 297.3150 217.6902 C298.5150 218.9640 300.0275 219.9863 301.3300 221.1608 C304.0050 223.5705 306.6975 226.1255 309.2275 228.6812 C312.8250 232.3107 315.6150 237.2555 320.1975 239.7940 C320.2675 239.8315 320.3375 239.8640 320.4050 239.8990 C325.4825 234.8622 330.1925 229.2320 337.9750 229.3008 C340.5450 229.3235 343.4050 230.0095 345.6300 231.3362 C350.6575 234.3350 354.9475 239.4160 359.0825 243.5465 C362.9300 247.3902 366.8325 251.1950 370.6175 255.1000 C373.9600 258.5475 377.4575 263.9450 377.3650 268.9350 C377.2600 274.7100 374.0600 278.5875 370.1650 282.4475 C368.9875 283.6100 367.6250 284.7475 366.7025 286.1275 L366.9675 286.4375 C368.9675 288.7600 371.4575 290.8775 373.6400 293.0550 L388.4950 307.8725 L433.7475 353.1250 L444.8050 364.1875 C448.7750 368.1525 452.7950 371.7925 455.8125 376.5850 C459.5000 382.5175 461.2325 389.4600 460.7650 396.4300 C460.4175 402.0350 458.1425 409.2500 455.0525 413.9550 C452.3200 418.1175 447.9925 421.7425 444.4475 425.2475 L428.4175 441.1750 C425.1225 444.4850 422.3175 448.2350 418.7750 451.2925 C411.2700 457.7775 402.9200 461.2525 392.8950 460.4925 C386.3500 459.9950 380.4975 458.0300 375.2325 454.0650 C368.0700 448.6700 362.0450 441.5775 355.7225 435.2475 L320.3800 399.9275 L250.5250 330.0450 C246.4415 325.9700 242.1130 322.1825 238.0193 318.1325 C234.8990 315.0450 232.0208 311.6700 228.8620 308.6400 C227.2413 307.0850 225.4550 305.7100 223.8270 304.1625 C221.2648 301.7275 218.9037 298.9775 216.5010 296.3800 Z"></path>
<path id="" fill="#66757f" fill-opacity="1.0" stroke="#000000" stroke-width="0.0" stroke-opacity="1.0" stroke-linecap="round" stroke-linejoin="round"  filling="0" d="M320.4050 239.8990 C325.4825 234.8622 330.1925 229.2320 337.9750 229.3008 C340.5450 229.3235 343.4050 230.0095 345.6300 231.3362 C350.6575 234.3350 354.9475 239.4160 359.0825 243.5465 C362.9300 247.3902 366.8325 251.1950 370.6175 255.1000 C373.9600 258.5475 377.4575 263.9450 377.3650 268.9350 C377.2600 274.7100 374.0600 278.5875 370.1650 282.4475 C368.9875 283.6100 367.6250 284.7475 366.7025 286.1275 L366.6700 286.0100 C362.3000 282.1150 358.2325 277.8075 354.0950 273.6675 L333.8925 253.4650 C331.6775 251.2525 321.5575 241.7518 320.4050 239.8990 Z"></path>
<path id="" fill="#8798a5" fill-opacity="1.0" stroke="#000000" stroke-width="0.0" stroke-opacity="1.0" stroke-linecap="round" stroke-linejoin="round"  filling="0" d="M130.8225 245.3225 C130.8110 245.3132 130.7988 245.3047 130.7880 245.2943 C128.6828 243.2765 126.6308 241.1938 124.5592 239.1407 C119.8425 234.4657 115.2168 229.9182 114.9960 222.8555 C114.8470 218.0948 116.9215 214.6545 120.0580 211.3067 C126.2715 204.6747 133.0002 198.4085 139.4317 191.9772 L179.7668 151.6322 L202.0338 129.3407 C205.6975 125.6728 209.4017 121.3398 213.4883 118.1622 C215.9970 116.2112 218.6528 115.0072 221.8820 114.9317 C226.8520 114.8250 231.6650 116.6755 235.2832 120.0843 C239.5345 123.3530 243.2878 127.8058 247.1265 131.5912 C256.4525 140.8000 265.7100 150.0768 274.9025 159.4207 L286.2225 170.7430 C288.5900 173.1078 291.2750 175.4410 293.1650 178.2070 C298.7200 185.6620 301.8250 194.9888 300.4200 204.3192 C299.8700 207.9705 298.4625 213.2663 296.7050 216.5205 L296.3975 216.4272 C294.8300 218.4565 293.7250 220.7965 292.0125 222.7823 C289.4950 225.7047 286.4850 228.3965 283.7550 231.1272 L267.8400 247.0412 L231.8038 283.0750 C228.6033 286.2775 225.5020 289.8475 221.9160 292.6050 C221.1658 293.1800 216.6705 295.9900 216.5010 296.3800 C211.5717 298.5525 206.6848 300.0825 201.2580 300.1075 C185.5278 300.1775 179.2540 293.8325 168.9635 283.5000 L154.8940 269.4225 L130.8225 245.3225 Z"></path>
<path id="" fill="#66757f" fill-opacity="1.0" stroke="#000000" stroke-width="0.0" stroke-opacity="1.0" stroke-linecap="round" stroke-linejoin="round"  filling="0" d="M154.8940 269.4225 C155.0975 268.4250 155.5095 267.9400 156.1828 267.2275 C163.4120 259.5625 171.1068 252.2500 178.5578 244.7973 L221.9455 201.4135 L252.5550 170.7995 C257.9325 165.4150 263.1675 159.6665 268.8450 154.6120 C270.9225 156.2648 272.7800 158.3790 274.6650 160.2530 L287.7950 173.2985 C289.4375 174.9317 290.9600 176.7668 292.6850 178.2968 L293.1650 178.2070 C298.7200 185.6620 301.8250 194.9888 300.4200 204.3192 C299.8700 207.9705 298.4625 213.2663 296.7050 216.5205 L296.3975 216.4272 C294.8300 218.4565 293.7250 220.7965 292.0125 222.7823 C289.4950 225.7047 286.4850 228.3965 283.7550 231.1272 L267.8400 247.0412 L231.8038 283.0750 C228.6033 286.2775 225.5020 289.8475 221.9160 292.6050 C221.1658 293.1800 216.6705 295.9900 216.5010 296.3800 C211.5717 298.5525 206.6848 300.0825 201.2580 300.1075 C185.5278 300.1775 179.2540 293.8325 168.9635 283.5000 L154.8940 269.4225 Z"></path>
<path id="" fill="#66757f" fill-opacity="1.0" stroke="#000000" stroke-width="0.0" stroke-opacity="1.0" stroke-linecap="round" stroke-linejoin="round"  filling="0" d="M130.8225 245.3225 C130.8110 245.3132 130.7988 245.3047 130.7880 245.2943 C128.6828 243.2765 126.6308 241.1938 124.5592 239.1407 C119.8425 234.4657 115.2168 229.9182 114.9960 222.8555 C114.8470 218.0948 116.9215 214.6545 120.0580 211.3067 C126.2715 204.6747 133.0002 198.4085 139.4317 191.9772 L179.7668 151.6322 L202.0338 129.3407 C205.6975 125.6728 209.4017 121.3398 213.4883 118.1622 C215.9970 116.2112 218.6528 115.0072 221.8820 114.9317 C226.8520 114.8250 231.6650 116.6755 235.2832 120.0843 C235.5250 122.0970 244.1167 129.4875 245.7953 131.5383 C239.7775 138.2930 233.0320 144.5645 226.6302 150.9600 L192.3735 185.1995 L153.0547 224.5085 C146.6628 230.9005 140.4297 237.6685 133.7820 243.7820 C132.8420 244.6463 132.0293 244.9745 130.8225 245.3225 Z"></path>
<path id="" fill="#ffcc4d" fill-opacity="1.0" stroke="#000000" stroke-width="0.0" stroke-opacity="1.0" stroke-linecap="round" stroke-linejoin="round"  filling="0" d="M96.3952 85.3130 C99.1048 85.0948 101.9828 86.2135 104.1263 87.8188 C107.0822 90.0323 109.7200 93.0955 112.3353 95.7122 L126.5367 109.9258 L142.7182 126.0912 C145.7453 129.1113 149.0945 132.0715 151.7790 135.3910 C153.3725 137.3615 154.6475 139.2402 154.9545 141.8262 C155.3177 144.8873 154.0340 147.9863 152.0822 150.3017 C149.9525 152.8285 147.5168 153.8492 144.3168 154.1605 C141.6290 154.3763 138.9642 154.0343 136.6910 152.4740 C133.1658 150.0540 130.0980 146.5092 127.0755 143.4840 L112.5033 128.8905 L97.6447 114.0583 C94.7582 111.1765 91.6202 108.3457 89.0745 105.1610 C87.5307 103.2298 86.4405 101.4885 85.9798 99.0078 C85.4030 95.8220 86.1812 92.5403 88.1273 89.9528 C90.1693 87.2430 93.0910 85.7710 96.3952 85.3130 Z"></path>
<path id="" fill="#ffcc4d" fill-opacity="1.0" stroke="#000000" stroke-width="0.0" stroke-opacity="1.0" stroke-linecap="round" stroke-linejoin="round"  filling="0" d="M60.6160 142.5338 C62.3490 142.3297 63.9900 142.4265 65.6570 142.9690 C72.5070 145.1978 79.7790 149.5225 86.2793 152.7708 C94.9765 157.1167 103.9505 161.2190 112.4735 165.8822 C116.0397 167.8335 118.7350 169.8825 119.8535 174.0267 C120.6670 177.0423 120.4557 180.5332 118.8180 183.2448 C117.0202 186.2205 113.8522 187.9390 110.5847 188.7908 C107.3830 189.3570 104.1687 187.9280 101.3440 186.5675 C92.3260 182.2245 83.4293 177.5865 74.4668 173.1260 C68.5475 170.1803 60.5330 166.9110 55.4052 162.9410 C53.5870 161.5332 52.1005 159.6075 51.3910 157.4008 C50.5027 154.6387 50.9890 151.2003 52.3570 148.6690 C54.1183 145.4093 57.1940 143.6135 60.6160 142.5338 Z"></path>
<path id="" fill="#ffcc4d" fill-opacity="1.0" stroke="#000000" stroke-width="0.0" stroke-opacity="1.0" stroke-linecap="round" stroke-linejoin="round"  filling="0" d="M152.7255 51.2972 C155.3595 51.0542 157.9738 51.4450 160.3277 52.6963 C162.4147 53.8055 163.6340 55.3647 164.8890 57.3027 C166.8390 60.3135 168.3383 63.6362 169.9323 66.8465 L176.3965 79.7625 L183.5505 94.0522 C185.2980 97.5485 187.2940 101.0695 188.4520 104.8170 C189.4610 108.0820 189.4550 110.7578 187.7590 113.8618 C185.9178 117.2307 183.0050 118.8815 179.4818 119.9522 C176.8127 120.3765 174.0782 119.8983 171.7117 118.5932 C169.6465 117.4713 168.4445 115.9247 167.2157 113.9863 C165.4505 111.2010 164.0878 108.0745 162.6147 105.1237 L155.2200 90.3090 L148.2085 76.2997 C146.5493 72.9843 144.5985 69.5833 143.5555 66.0135 C142.7590 63.2867 142.6105 60.4588 144.0565 57.9232 C145.9317 54.6335 149.0590 52.2433 152.7255 51.2972 Z"></path>
</svg>