<svg xmlns="http://www.w3.org/2000/svg" viewBox="0 0 512 512" height="512.0px" width="512.0px">
<path id="" fill="#744eaa" fill-opacity="1.0" stroke="#000000" stroke-width="0.0" stroke-opacity="1.0" stroke-linecap="round" stroke-linejoin="round"  filling="0" d="M367.2300 168.1062 C377.4100 167.3905 388.1875 168.4235 398.1350 170.5885 C419.0300 175.1358 437.8625 186.2475 449.5100 204.4595 C456.7000 215.7007 461.1400 229.8712 460.8925 243.2737 C460.7975 248.3105 459.9375 253.4525 458.8575 258.3700 C455.3700 274.9225 445.3150 289.3525 430.9950 298.3575 C429.4475 299.3475 427.6775 300.6525 425.7525 300.2250 C425.2300 299.4650 426.1750 291.9900 426.2100 290.1975 C426.3025 285.5825 426.3500 280.9300 425.2950 276.4075 C422.9850 266.4925 416.4300 257.6800 407.7800 252.3350 C395.0675 244.4783 378.3375 243.6223 363.9975 246.9590 C346.9200 250.9325 330.9100 259.9050 321.5225 275.2000 C309.7200 294.4300 308.3825 322.8925 313.4950 344.3800 C316.4225 356.6825 321.3075 368.4675 332.4500 375.2975 C342.7725 381.6250 351.9075 382.1800 363.5100 379.3925 C372.6075 375.9925 379.7475 371.3500 385.1950 363.1525 C386.5525 361.1100 388.0350 358.0325 389.9525 356.5275 L390.5975 356.8600 C391.9175 358.6850 392.0450 362.1625 392.2875 364.4050 C393.9650 379.9700 388.1000 395.9075 378.2825 407.8750 C376.4100 410.1600 374.1900 412.0250 371.8900 413.8575 C362.5325 421.3250 351.6000 425.4775 339.7025 426.5525 C323.7025 427.9975 306.6525 421.3700 294.5250 411.1000 C290.6900 407.8525 287.3925 404.1650 284.2300 400.2725 C266.3075 378.2250 260.6100 349.8175 258.4225 322.1925 C257.6225 312.1250 258.7150 302.5025 260.0825 292.5425 C262.9600 271.5900 268.4950 252.9650 278.0475 234.0210 C280.9400 228.2818 284.0100 222.6317 287.6500 217.3233 C291.7275 211.3748 296.4500 205.9390 301.1400 200.4760 C304.1925 196.9218 307.8650 194.0872 311.5075 191.1808 C314.5425 188.7592 317.5575 186.2865 320.8125 184.1620 C334.3325 175.3383 351.0975 169.2840 367.2300 168.1062 Z"></path>
<path id="" fill="#744eaa" fill-opacity="1.0" stroke="#000000" stroke-width="0.0" stroke-opacity="1.0" stroke-linecap="round" stroke-linejoin="round"  filling="0" d="M130.8640 168.1075 C141.4828 167.5903 152.0833 168.3777 162.3548 171.2057 C192.9928 179.6413 216.0018 201.0672 231.2632 228.4190 C243.7080 250.7225 250.7850 276.1600 253.1100 301.5000 C253.6500 307.3825 254.0700 313.3025 253.9200 319.2150 C253.7950 324.0625 253.1175 328.8150 252.4875 333.6175 C251.3250 342.4650 249.9138 351.1400 247.4835 359.7450 C242.5830 377.0950 233.5880 395.8600 220.2617 408.3250 C215.8770 412.4250 210.4413 416.1350 205.1885 419.0425 C191.3062 426.7250 175.5092 428.8000 160.2145 424.3675 C145.4937 420.1000 133.6037 410.7775 126.2265 397.2900 C120.6185 387.0375 116.8060 370.5200 120.4948 359.1225 C120.7635 358.2900 121.0267 357.8775 121.7988 357.4775 C123.2975 357.8875 127.8435 365.2025 129.3220 366.8700 C131.9892 369.8775 135.1825 373.1275 138.6192 375.2175 C145.5302 379.9125 154.5690 381.6650 162.8058 380.8800 C173.3307 379.8725 182.5262 374.3200 189.1040 366.1775 C200.4945 352.0800 202.6355 324.4850 200.6030 306.8750 C198.5578 289.1550 191.8177 271.8975 177.5055 260.5450 C162.6777 248.7845 142.9285 243.4805 124.1797 245.7068 C111.4872 247.2137 100.6555 252.7650 92.7742 262.9650 C84.6055 273.5375 85.1447 288.4350 86.8320 301.0225 C81.3400 298.8250 76.5170 295.4250 72.1068 291.5050 C69.5280 289.2125 67.3398 286.5225 65.2387 283.7975 C56.5145 272.4775 52.1705 259.4850 51.3223 245.2973 C50.2575 227.4837 57.6338 208.3105 69.4608 195.0805 C84.6770 178.0590 108.4515 169.4335 130.8640 168.1075 Z"></path>
<path id="" fill="#aa8dd8" fill-opacity="1.0" stroke="#000000" stroke-width="0.0" stroke-opacity="1.0" stroke-linecap="round" stroke-linejoin="round"  filling="0" d="M255.4250 51.6645 C255.5875 51.6817 255.7525 51.6885 255.9150 51.7158 C258.5075 52.1512 261.3875 55.7060 263.1975 57.5160 C273.8325 68.1390 282.1075 78.6020 290.2200 91.2523 C294.6625 98.1837 298.3350 105.4467 301.5700 113.0033 C315.9200 146.5103 314.5650 178.0033 309.8050 213.3723 C307.4950 231.7518 304.0075 249.9642 299.3650 267.8975 C296.4150 279.1325 292.5750 290.1125 289.6975 301.3850 C288.5175 306.0075 287.1225 310.7000 287.0125 315.4975 C286.8350 323.3500 288.4925 331.6000 290.3675 339.2075 C294.8325 357.3225 301.0600 371.6325 301.0975 390.7500 C301.1025 393.7375 301.1675 396.7700 300.8350 399.7450 C300.4950 402.7525 299.5700 405.5175 298.9800 408.4525 C298.7375 409.6575 298.7425 410.8725 298.4775 412.0850 C298.0900 412.2025 297.5075 412.3800 297.2525 412.7250 C296.1575 414.2125 295.5025 416.7525 294.6625 418.4875 C293.3625 421.1825 291.7525 423.7825 290.1525 426.3100 C287.8625 429.9300 285.4025 433.4950 282.6325 436.7650 C278.3675 441.7975 261.4350 459.0775 255.6650 460.3750 C251.3675 458.8375 247.2520 454.6025 243.9427 451.5175 C241.3610 449.1100 238.5117 446.9500 236.0172 444.4650 C230.1122 438.5800 224.6947 431.3850 220.2895 424.2950 C219.8695 423.6175 219.4550 422.9375 219.0462 422.2525 C218.5200 421.3725 218.0018 420.4900 217.4915 419.6000 L217.1777 419.0500 C216.9832 418.7075 216.7905 418.3650 216.5997 418.0200 C215.8777 416.7175 215.1700 415.4000 214.5490 414.0450 C213.2365 411.1825 212.4478 408.1575 211.7332 405.1025 C210.8073 401.1425 210.1410 397.2225 210.0258 393.1450 C209.5525 376.3775 215.6698 359.8825 219.9840 343.9125 C221.1125 339.6375 222.0853 335.3250 222.9000 330.9800 C223.9227 325.8025 225.3788 320.0425 224.7298 314.7475 C223.0005 300.6425 218.0935 286.7725 213.9470 273.2375 C212.6467 268.9925 211.5570 264.6650 210.3950 260.3800 C204.7507 239.5675 201.7100 215.7975 199.8050 194.2685 C199.6405 192.4093 198.6573 190.6362 198.5640 188.8915 C198.4068 185.9518 199.0423 182.3540 199.0470 179.2838 C199.0715 164.0103 198.4592 153.1975 201.9917 138.0935 C208.5208 110.1775 222.4780 85.2410 242.0112 64.3125 C246.1585 59.8692 250.1900 54.9115 255.4250 51.6645 Z"></path>
<path id="" fill="#9266cc" fill-opacity="1.0" stroke="#000000" stroke-width="0.0" stroke-opacity="1.0" stroke-linecap="round" stroke-linejoin="round"  filling="0" d="M216.9575 290.1025 C217.0267 290.0925 217.0955 290.0800 217.1647 290.0725 C221.0140 289.6225 225.1962 289.9250 229.0858 289.9300 L251.7525 289.9450 L279.9325 289.9325 C286.8425 289.9275 294.0125 289.5075 300.8400 290.6400 C307.8725 291.8075 315.1125 294.1825 320.7675 298.6200 C329.0650 305.1325 334.2900 315.3775 335.5050 325.7675 C336.7650 336.5250 333.0225 347.5450 326.2925 355.9050 C318.6750 365.3700 306.9750 368.7775 295.3050 369.9900 C278.4325 370.3150 261.5100 370.0350 244.6322 370.0375 L227.8165 370.0525 C221.8015 370.0600 215.8340 370.2100 209.8860 369.1175 C202.9707 367.8475 195.6967 365.0550 190.2038 360.5825 C182.3675 354.2000 177.2550 344.2500 176.2672 334.2525 C175.2392 323.8475 177.8895 313.0950 184.6167 304.9475 C194.1970 293.3475 202.7733 291.4000 216.9575 290.1025 Z"></path>
</svg>