<svg xmlns="http://www.w3.org/2000/svg" viewBox="0 0 512 512" height="512.0px" width="512.0px">
<path id="" fill="#ffffff" fill-opacity="0.027451" stroke="#000000" stroke-width="0.0" stroke-opacity="1.0" stroke-linecap="round" stroke-linejoin="round"  filling="0" d="M0.6766 0.0000 L511.3225 0.0000 C508.2025 0.6650 504.4600 0.3195 501.2650 0.3163 L484.2875 0.2973 L415.9925 0.2969 L147.6600 0.2999 L40.7298 0.2926 L15.1412 0.3109 C10.7615 0.3248 4.9184 0.8886 0.6766 0.0000 Z"></path>
<path id="" fill="#ffffff" fill-opacity="0.0196078" stroke="#000000" stroke-width="0.0" stroke-opacity="1.0" stroke-linecap="round" stroke-linejoin="round"  filling="0" d="M1.3091 512.0000 C3.3875 511.2775 25.6402 511.7425 29.6990 511.7425 L108.8480 511.7450 L408.0800 511.7525 L481.9375 511.7525 L501.0200 511.7350 C504.2850 511.7300 508.1175 511.3450 511.2925 512.0000 L1.3091 512.0000 Z"></path>
<path id="" fill="#ffffff" fill-opacity="0.027451" stroke="#000000" stroke-width="0.0" stroke-opacity="1.0" stroke-linecap="round" stroke-linejoin="round"  filling="0" d="M0.0000 0.9172 C0.7097 3.9909 0.2566 8.0218 0.2535 11.1965 L0.2509 30.6735 L0.2530 111.2188 L0.2531 439.7300 L0.2509 490.8325 C0.2507 494.5500 0.7518 508.0600 0.0000 510.5825 L0.0000 0.9172 Z"></path>
<path id="" fill="#ccd6dd" fill-opacity="1.0" stroke="#000000" stroke-width="0.0" stroke-opacity="1.0" stroke-linecap="round" stroke-linejoin="round"  filling="0" d="M237.4203 161.1015 C237.5140 161.0850 237.6073 161.0635 237.7018 161.0515 C242.0040 160.5110 246.7490 160.9187 251.0925 160.9460 C257.3825 160.9855 263.7000 160.7685 269.9850 160.9730 C273.2975 161.0810 276.5900 161.5535 279.8975 161.7522 C282.6525 161.9178 285.4175 161.9045 288.1700 162.0940 C329.1950 164.9142 374.0800 171.1192 411.8750 187.8590 C421.0900 191.9405 430.4425 196.7018 438.3450 203.0440 C449.0500 211.6362 454.3050 220.8468 455.7000 234.5033 C456.3900 241.2855 454.7800 252.5125 453.6100 259.4150 C452.2250 267.5725 450.1225 275.3750 447.8400 283.3150 C438.7375 316.1600 422.8025 346.7100 401.0775 372.9700 C397.5975 377.2375 393.5775 381.0250 389.6825 384.9075 C376.0500 398.4950 363.6650 407.2225 346.4600 415.8100 C321.9425 428.0500 300.7750 432.9125 273.5600 435.6625 L273.1750 435.7075 C266.4775 436.4900 259.3725 436.0450 252.6275 436.0400 C247.5480 436.0375 242.3913 436.2075 237.3220 435.9025 C230.5285 435.4950 223.6905 434.4425 216.9780 433.3400 C184.6755 428.0275 155.9093 416.4700 130.0892 396.0375 C116.8788 385.5850 103.9998 372.1400 94.2865 358.3625 C92.1720 355.3625 90.2825 352.1575 88.3463 349.0375 C70.7650 320.7050 59.5830 288.8750 55.5813 255.7700 C55.0385 251.0400 54.9380 246.3835 54.9340 241.6248 C54.9245 230.2135 56.0740 220.5010 63.4800 211.2652 C82.3435 187.7405 126.5867 175.4807 155.0573 170.0052 C171.4778 166.8472 188.1908 164.8367 204.8330 163.2453 C215.6630 162.2095 226.6155 162.3005 237.4203 161.1015 Z"></path>
<path id="" fill="rgb(219,226,234)" fill-opacity="1.0" stroke="#000000" stroke-width="0.0" stroke-opacity="1.0" stroke-linecap="round" stroke-linejoin="round"  filling="0" d="M232.1765 129.0997 C232.2903 129.0815 232.4032 129.0585 232.5177 129.0448 C235.6877 128.6667 239.1250 128.8905 242.3185 128.9040 L259.0625 128.9395 C265.2925 128.9345 271.6275 128.6860 277.8475 128.9995 C282.7575 129.2470 287.6950 129.8358 292.5925 130.2955 C330.0125 133.8085 370.0875 142.6330 402.8875 161.5635 C411.9375 166.7863 419.9475 172.7535 427.8325 179.5740 C435.5200 186.2225 441.3500 195.6003 446.3400 204.3562 C447.3800 206.1823 449.3600 209.0273 449.4450 211.1353 C449.4500 211.2453 449.4475 211.3555 449.4500 211.4657 C449.5025 214.3660 448.6275 217.2345 448.3725 220.1217 C448.1200 222.9673 448.0700 225.8412 447.6700 228.6710 C445.5250 243.8465 438.8425 254.1350 428.9225 265.4075 C423.1300 271.9950 412.5150 279.3775 404.9025 284.0375 C376.5100 301.4150 343.0625 311.3900 310.2475 316.0825 C299.1625 317.6675 287.9150 318.5450 276.7400 319.2275 C272.7300 319.3225 268.7825 319.9975 264.7500 320.0175 C257.7425 320.0550 250.6125 320.2975 243.6190 319.9800 C240.6573 319.8475 237.7065 319.4225 234.7495 319.2025 C232.2440 319.0200 229.7285 319.0050 227.2235 318.8075 C214.4277 317.7250 201.6875 316.0600 189.0425 313.8225 C153.9280 307.2875 109.1725 291.7650 83.4142 265.9150 C75.1617 257.6325 66.4755 243.3717 64.6285 231.7935 C63.7025 225.9883 63.9577 219.9787 63.9603 214.1147 C63.1292 214.0847 62.2428 214.1015 61.4212 213.9823 C60.7807 213.8893 60.5318 213.7770 60.1430 213.2700 C59.8997 209.5867 67.4615 197.9108 69.7278 195.0282 C75.4593 187.7380 81.9140 180.5782 89.0803 174.6735 C92.3748 171.9588 95.9345 169.5945 99.4857 167.2345 C104.1195 164.1552 108.7945 161.1467 113.7170 158.5440 C117.1035 156.7535 120.6552 155.2708 124.1523 153.7108 C147.1990 143.6630 171.4805 136.7275 196.3573 133.0865 C203.7920 131.9315 211.2580 130.9875 218.7465 130.2558 C223.2258 129.8260 227.7040 129.6517 232.1765 129.0997 Z"></path>
<path id="" fill="#66757f" fill-opacity="1.0" stroke="#000000" stroke-width="0.0" stroke-opacity="1.0" stroke-linecap="round" stroke-linejoin="round"  filling="0" d="M53.2260 245.5833 C52.8737 243.1302 53.2110 240.7052 52.9470 238.2720 C52.4187 233.4035 51.3365 228.6687 51.1850 223.7450 C50.7225 208.7318 57.2200 194.5580 66.0673 182.7917 C94.7168 144.6895 159.3678 128.7105 204.1882 122.5017 C216.5900 120.7838 229.0525 120.0983 241.5538 119.7057 C246.0865 119.5632 250.6425 119.2693 255.1750 119.2607 C299.2075 119.1770 346.7425 126.3132 387.5700 143.1010 C401.5375 148.8445 415.0850 155.7070 427.1375 164.9100 C442.9300 176.9685 456.8925 194.8082 459.4800 215.0038 C460.7050 224.5638 458.9850 231.1665 457.3050 240.3712 C456.9900 242.0972 457.1300 243.9368 456.7575 245.6127 C456.2300 249.0358 455.7875 252.3875 454.6500 255.6750 C453.3000 255.8375 452.5025 255.5800 451.2350 255.2800 C451.2275 255.2775 450.6550 255.1750 450.6050 255.1950 C449.9775 255.4600 446.8875 260.8425 446.2975 261.7400 C438.7525 273.2025 428.4075 282.8050 417.2825 290.7275 C373.2275 322.0975 309.2325 334.6925 255.8650 334.6675 C235.4473 334.5125 215.0742 332.7400 194.9377 329.3600 C152.9077 322.2200 101.1868 304.2650 72.2535 271.6000 C68.6590 267.5400 65.0200 262.9400 62.3118 258.2400 C60.4540 255.0175 59.0240 251.4275 56.8727 248.3967 L55.8338 249.4080 C55.2605 249.3800 54.8230 249.3118 54.2795 249.1263 C53.1667 248.0797 53.2962 247.0092 53.2260 245.5833 Z M271.1250 317.0125 C280.2025 316.8425 289.5250 315.8150 298.5225 314.6775 C327.8975 310.9650 356.8975 303.4675 383.6175 290.5600 C387.8050 288.5375 391.9975 286.5425 396.0100 284.1850 C402.6200 280.2300 408.9375 275.8100 414.9200 270.9575 C418.2775 268.2550 421.8800 265.4950 424.8750 262.4125 C436.4375 250.5150 444.9550 236.4715 444.5575 219.4128 C444.2025 204.0352 434.6875 190.6577 423.9075 180.4290 C417.8200 174.6548 410.5025 169.8183 403.3150 165.5103 C357.6000 138.1080 294.2600 131.3930 241.8065 132.8170 C241.4082 132.8275 241.0100 132.8405 240.6120 132.8560 C195.0215 134.9905 140.6400 143.5050 102.0770 169.2637 C95.3522 173.7558 88.6472 178.7402 83.1923 184.7657 C73.1220 195.8895 66.2100 208.2870 67.0623 223.7108 C68.0583 241.7417 80.6947 256.4950 93.6048 267.9600 C125.6040 296.3750 177.9888 311.1375 219.8633 315.4875 C224.0383 315.9200 228.2970 316.3675 232.4915 316.5025 C235.4353 316.5975 238.3850 316.4825 241.3285 316.5725 C244.6870 316.6775 248.0340 317.0800 251.3950 317.1800 C257.9475 317.3700 264.5725 317.1600 271.1250 317.0125 Z"></path>
<path id="" fill="#cdd6dd" fill-opacity="1.0" stroke="#000000" stroke-width="0.0" stroke-opacity="1.0" stroke-linecap="round" stroke-linejoin="round"  filling="0" d="M454.6500 255.6750 C453.8250 255.5625 452.9850 255.4500 452.1825 255.2150 C451.5675 255.0350 451.0775 254.7800 450.7800 254.2025 C453.1050 250.1525 454.8300 245.7713 456.7625 241.5242 C456.7225 242.8867 456.7200 244.2500 456.7575 245.6127 C456.2300 249.0358 455.7875 252.3875 454.6500 255.6750 Z"></path>
<path id="" fill="#ccd6dd" fill-opacity="1.0" stroke="#000000" stroke-width="0.0" stroke-opacity="1.0" stroke-linecap="round" stroke-linejoin="round"  filling="0" d="M53.2742 238.5125 C54.0300 240.7170 56.8018 245.4953 56.5293 247.5963 C56.4485 248.2173 56.1005 248.8432 55.8338 249.4080 C55.2605 249.3800 54.8230 249.3118 54.2795 249.1263 C53.1667 248.0797 53.2962 247.0092 53.2260 245.5833 C53.2883 243.2270 53.3045 240.8695 53.2742 238.5125 Z"></path>
<path id="" fill="#77b155" fill-opacity="1.0" stroke="#000000" stroke-width="0.0" stroke-opacity="1.0" stroke-linecap="round" stroke-linejoin="round"  filling="0" d="M316.2925 124.0600 C316.3775 124.0345 316.4600 124.0103 316.5425 123.9837 C320.2875 122.7728 327.9875 113.5065 329.8775 109.7533 C331.8625 105.8163 333.0325 101.7150 333.1900 97.3005 C333.4525 89.8815 329.1475 78.7940 338.9250 75.7325 C344.2350 74.0703 350.3175 76.7292 354.8950 79.2588 C367.8450 86.4175 382.6550 100.6325 389.9025 113.6162 C393.0300 119.2225 395.1200 125.2412 396.8725 131.3920 C397.2425 132.6925 397.6200 134.0282 397.8275 135.3663 C405.5450 135.8440 411.3650 136.2923 417.5400 130.8457 C424.4575 124.7430 426.8250 111.6298 438.1375 112.2883 C441.5025 112.4843 444.2150 114.4642 446.3300 116.9525 C449.5300 120.7150 451.0950 125.8840 452.6475 130.4940 C458.7825 148.7075 462.4725 169.0833 460.7275 188.3383 C460.1775 194.4073 458.7650 200.3350 458.1600 206.3593 C457.9000 208.9377 458.5225 211.4353 458.2100 214.0397 C455.7800 215.9922 454.7400 218.4440 453.6050 221.2450 C452.7200 222.5018 452.3075 224.4337 451.9650 225.9235 C451.5100 229.2790 447.8025 234.4682 446.1700 237.7060 C445.2350 239.5575 444.5875 241.7135 443.4500 243.4427 C442.2700 245.2408 440.3875 246.5825 439.2875 248.4312 C438.4400 249.8515 437.7875 251.9750 436.7050 253.1800 C435.6650 254.3375 434.2150 255.1425 433.1000 256.2400 C430.4425 258.8525 427.9900 261.9125 425.6850 264.8375 C423.9800 267.0000 422.4275 271.0475 420.4325 272.5650 C419.5400 273.2425 418.4500 273.6225 417.5275 274.2775 C415.5325 275.7025 413.8225 277.4900 411.7750 278.8625 C407.4125 281.7900 402.6825 283.9125 398.0950 286.4300 C394.4925 288.4075 391.0875 290.8600 387.3900 292.6450 C379.6750 296.3700 371.4100 299.1025 363.3250 301.8975 C360.3100 302.9400 357.3625 304.1975 354.3350 305.1975 C352.2700 305.8775 350.1050 306.2375 348.0125 306.8350 C345.4200 307.5750 342.8625 308.5125 340.2450 309.1550 C337.7725 309.7600 335.2100 310.0775 332.7100 310.5525 C329.2650 311.2075 325.8375 311.9850 322.4100 312.7150 C316.9075 313.8900 311.4175 314.8225 305.8875 315.8250 C302.7500 316.3925 299.6075 317.1175 296.4375 317.4850 C293.4675 317.8300 290.4575 317.8875 287.4750 318.1200 C285.1750 318.3000 282.8725 318.7100 280.5650 318.7550 C277.3350 319.2425 273.6925 318.9275 270.4075 318.9250 L251.3600 318.9150 C248.1525 318.9175 244.7245 318.6850 241.5782 319.3825 C240.5655 319.6075 239.7775 320.1525 238.9380 320.7300 C234.0558 320.7650 228.7043 319.2825 224.1085 317.7050 C216.1765 316.1200 208.0210 315.3475 200.0338 314.0650 C196.2267 313.4525 192.4605 312.5100 188.6800 311.7500 C185.6715 311.1450 182.6060 310.8025 179.6113 310.1425 C174.6950 309.0625 169.6658 307.5300 164.8390 306.0625 C160.7932 305.9725 158.1483 305.2475 154.6975 303.1100 C152.3972 301.8350 149.9230 300.8325 147.4710 299.8900 C146.3910 299.8250 145.3288 299.9700 144.2558 300.0825 C144.1550 301.0300 144.1450 301.8800 143.6053 302.6900 C143.2778 302.9050 143.1565 303.1000 142.7435 303.0375 C141.7200 302.8850 141.2080 301.9675 140.6590 301.1925 C135.6817 298.8175 131.2977 300.0225 126.8213 298.6250 C125.9730 298.3575 125.3022 297.8900 124.7552 297.1900 C122.9467 294.8725 123.2173 291.4950 121.5650 289.0175 C120.9102 288.0350 119.8360 287.1550 118.9845 286.3325 C118.9115 286.2825 118.8390 286.2300 118.7655 286.1800 L118.3962 285.9350 C115.9215 284.2450 113.0988 283.3200 110.6000 281.7225 C105.1533 278.2450 99.2303 273.4775 94.3000 269.2700 C91.0695 267.5125 89.1990 265.7900 87.1750 262.7075 L87.0923 262.6200 C85.2668 261.1225 83.1032 260.1350 81.3040 258.6550 C79.3495 257.0450 79.2142 255.7950 79.0375 253.4225 C71.2487 244.9585 59.9837 228.8138 57.6828 217.5045 C57.5177 217.4303 57.2912 217.3160 57.1127 217.2965 C56.7650 217.2583 56.4125 217.3140 56.1548 217.5535 C54.9108 218.7110 55.1008 221.6240 55.0448 223.2188 C54.4055 223.1913 53.7565 223.1720 53.1208 223.0972 C52.4883 223.0233 51.9555 222.8260 51.6013 222.2660 C49.5002 218.9422 53.5258 205.4455 54.4098 201.1662 C55.0348 196.2730 54.5760 191.1998 55.1823 186.2422 C57.1350 170.2733 63.9052 152.6548 73.7350 139.8387 C75.2697 137.8375 76.8535 135.8647 78.6267 134.0685 C80.3483 132.3248 86.3655 127.3203 88.6777 127.1265 C91.8022 126.8650 94.4113 135.3855 95.4948 137.8387 C96.2018 139.4393 97.0140 141.0517 97.9498 142.5327 C99.8662 145.5660 102.5880 148.2785 105.2560 150.6492 C105.9150 150.5290 106.7643 150.2960 107.4297 150.4265 C108.2242 150.5822 108.5753 150.8995 109.0088 151.5490 C109.2935 151.9758 109.5457 152.3062 109.9247 152.6617 C110.5242 152.8020 110.5973 152.9317 111.1803 152.6667 C111.3637 150.9818 109.6695 149.2453 110.1825 147.6098 C111.0247 146.7982 112.4005 146.3860 113.4710 145.9283 C116.9652 144.2032 120.6223 142.7740 124.2628 141.3918 C123.7185 131.9110 124.9435 122.9228 127.5723 113.8285 C130.1640 104.8627 135.5910 95.3668 144.0370 90.7625 C148.1615 88.4905 153.0300 87.9840 157.5338 89.3582 C170.1095 93.0865 180.2823 107.4425 186.3407 118.4287 C189.3310 115.1205 193.0793 112.1585 196.8335 109.7542 C208.2957 102.4133 223.6467 99.8990 236.8663 102.7903 C246.0375 104.7960 253.6050 108.8903 260.2325 115.5395 C261.5325 116.8425 263.0500 118.2300 264.0475 119.7750 C266.4650 119.7620 275.7025 119.4543 277.1000 120.7595 C277.4375 121.0748 277.3825 121.2923 277.4550 121.7210 C277.1125 122.5518 276.4525 123.4423 275.6175 123.8337 C274.1525 124.5193 271.6000 124.2787 269.9875 124.2253 C269.9775 125.9270 269.6800 127.9245 270.6900 129.3873 C272.0225 129.7953 273.3500 130.2160 274.7000 130.5582 C275.1400 131.5927 275.4125 132.4950 276.5825 132.8620 C277.3625 133.1065 278.0325 132.8362 278.6850 132.4212 C280.5025 131.2660 281.7750 129.4775 284.1650 129.8785 C287.3650 130.4153 290.1475 133.4655 293.0100 133.7425 C295.7175 134.0045 299.0750 132.9680 301.8250 132.6888 C304.8225 131.5038 308.1425 128.9633 310.7400 127.0468 C311.0775 125.9455 311.1550 124.7233 311.3125 123.5805 C312.9825 123.8987 314.5975 123.9980 316.2925 124.0600 Z"></path>
<path id="" fill="#66757e" fill-opacity="1.0" stroke="#000000" stroke-width="0.0" stroke-opacity="1.0" stroke-linecap="round" stroke-linejoin="round"  filling="0" d="M270.6900 129.3873 C272.0225 129.7953 273.3500 130.2160 274.7000 130.5582 C275.1400 131.5927 275.4125 132.4950 276.5825 132.8620 C277.3625 133.1065 278.0325 132.8362 278.6850 132.4212 C280.5025 131.2660 281.7750 129.4775 284.1650 129.8785 C287.3650 130.4153 290.1475 133.4655 293.0100 133.7425 C295.7175 134.0045 299.0750 132.9680 301.8250 132.6888 C301.6275 132.9705 301.4375 133.2415 301.2050 133.4953 C297.8975 137.1073 282.2225 141.7713 277.3150 142.1295 C273.1850 138.5320 271.4925 135.7863 269.6325 130.6487 C270.0050 130.2485 270.3425 129.8090 270.6900 129.3873 Z"></path>
<path id="" fill="#66757e" fill-opacity="1.0" stroke="#000000" stroke-width="0.0" stroke-opacity="1.0" stroke-linecap="round" stroke-linejoin="round"  filling="0" d="M118.9845 286.3325 C119.6458 286.3925 120.2467 286.5500 120.8508 286.8250 C125.3225 288.8625 129.5880 291.4050 134.0332 293.5200 C138.3757 295.5850 143.5098 297.1925 147.4710 299.8900 C146.3910 299.8250 145.3288 299.9700 144.2558 300.0825 C144.1550 301.0300 144.1450 301.8800 143.6053 302.6900 C143.2778 302.9050 143.1565 303.1000 142.7435 303.0375 C141.7200 302.8850 141.2080 301.9675 140.6590 301.1925 C135.6817 298.8175 131.2977 300.0225 126.8213 298.6250 C125.9730 298.3575 125.3022 297.8900 124.7552 297.1900 C122.9467 294.8725 123.2173 291.4950 121.5650 289.0175 C120.9102 288.0350 119.8360 287.1550 118.9845 286.3325 Z"></path>
<path id="" fill="#66757e" fill-opacity="1.0" stroke="#000000" stroke-width="0.0" stroke-opacity="1.0" stroke-linecap="round" stroke-linejoin="round"  filling="0" d="M55.0448 223.2188 C54.4055 223.1913 53.7565 223.1720 53.1208 223.0972 C52.4883 223.0233 51.9555 222.8260 51.6013 222.2660 C49.5002 218.9422 53.5258 205.4455 54.4098 201.1662 C54.9222 204.1277 55.3630 207.1268 56.0165 210.0595 C56.5443 212.4272 57.5692 215.1138 57.6828 217.5045 C57.5177 217.4303 57.2912 217.3160 57.1127 217.2965 C56.7650 217.2583 56.4125 217.3140 56.1548 217.5535 C54.9108 218.7110 55.1008 221.6240 55.0448 223.2188 Z"></path>
<path id="" fill="#66747e" fill-opacity="1.0" stroke="#000000" stroke-width="0.0" stroke-opacity="1.0" stroke-linecap="round" stroke-linejoin="round"  filling="0" d="M264.0475 119.7750 C266.4650 119.7620 275.7025 119.4543 277.1000 120.7595 C277.4375 121.0748 277.3825 121.2923 277.4550 121.7210 C277.1125 122.5518 276.4525 123.4423 275.6175 123.8337 C274.1525 124.5193 271.6000 124.2787 269.9875 124.2253 C269.9775 125.9270 269.6800 127.9245 270.6900 129.3873 C270.3425 129.8090 270.0050 130.2485 269.6325 130.6487 C268.3300 126.9512 265.8925 123.2515 264.0475 119.7750 Z"></path>
<path id="" fill="#66757e" fill-opacity="1.0" stroke="#000000" stroke-width="0.0" stroke-opacity="1.0" stroke-linecap="round" stroke-linejoin="round"  filling="0" d="M113.4710 145.9283 C114.1082 146.9713 115.0305 146.6848 115.2270 147.1308 C115.8900 148.6355 114.5645 153.9702 114.4868 155.9430 C111.0417 154.8642 107.5720 153.5907 105.2560 150.6492 C105.9150 150.5290 106.7643 150.2960 107.4297 150.4265 C108.2242 150.5822 108.5753 150.8995 109.0088 151.5490 C109.2935 151.9758 109.5457 152.3062 109.9247 152.6617 C110.5242 152.8020 110.5973 152.9317 111.1803 152.6667 C111.3637 150.9818 109.6695 149.2453 110.1825 147.6098 C111.0247 146.7982 112.4005 146.3860 113.4710 145.9283 Z"></path>
<path id="" fill="#66757f" fill-opacity="1.0" stroke="#000000" stroke-width="0.0" stroke-opacity="1.0" stroke-linecap="round" stroke-linejoin="round"  filling="0" d="M224.1085 317.7050 C234.0753 318.0100 243.9303 318.7425 253.9125 318.7475 L271.0975 318.6725 C274.2075 318.6500 277.4850 318.4100 280.5650 318.7550 C277.3350 319.2425 273.6925 318.9275 270.4075 318.9250 L251.3600 318.9150 C248.1525 318.9175 244.7245 318.6850 241.5782 319.3825 C240.5655 319.6075 239.7775 320.1525 238.9380 320.7300 C234.0558 320.7650 228.7043 319.2825 224.1085 317.7050 Z"></path>
<path id="" fill="#66757e" fill-opacity="1.0" stroke="#000000" stroke-width="0.0" stroke-opacity="1.0" stroke-linecap="round" stroke-linejoin="round"  filling="0" d="M79.0375 253.4225 C80.8315 254.9150 86.7845 260.1250 87.0612 262.2400 C87.0778 262.3675 87.0820 262.4925 87.0923 262.6200 C85.2668 261.1225 83.1032 260.1350 81.3040 258.6550 C79.3495 257.0450 79.2142 255.7950 79.0375 253.4225 Z"></path>
<path id="" fill="#66757e" fill-opacity="1.0" stroke="#000000" stroke-width="0.0" stroke-opacity="1.0" stroke-linecap="round" stroke-linejoin="round"  filling="0" d="M87.1750 262.7075 C89.0805 262.7725 91.2485 265.1200 92.4970 266.4625 C93.1730 267.1900 93.7835 267.7625 94.1017 268.7125 C94.1390 268.8250 94.1833 268.9325 94.2225 269.0425 C94.2495 269.1175 94.2742 269.1950 94.3000 269.2700 C91.0695 267.5125 89.1990 265.7900 87.1750 262.7075 Z"></path>
<path id="" fill="#66757f" fill-opacity="1.0" stroke="#000000" stroke-width="0.0" stroke-opacity="1.0" stroke-linecap="round" stroke-linejoin="round"  filling="0" d="M154.6975 303.1100 C158.8858 303.4700 161.0623 304.4200 164.8390 306.0625 C160.7932 305.9725 158.1483 305.2475 154.6975 303.1100 Z"></path>
<path id="" fill="#66777e" fill-opacity="1.0" stroke="#000000" stroke-width="0.0" stroke-opacity="1.0" stroke-linecap="round" stroke-linejoin="round"  filling="0" d="M311.3125 123.5805 C312.9825 123.8987 314.5975 123.9980 316.2925 124.0600 C314.6150 125.2678 312.6850 126.3390 310.7400 127.0468 C311.0775 125.9455 311.1550 124.7233 311.3125 123.5805 Z"></path>
<path id="" fill="#66757f" fill-opacity="1.0" stroke="#000000" stroke-width="0.0" stroke-opacity="1.0" stroke-linecap="round" stroke-linejoin="round"  filling="0" d="M451.9650 225.9235 C452.3075 224.4337 452.7200 222.5018 453.6050 221.2450 L453.9025 221.8132 C455.7750 221.9685 457.6725 221.6302 459.5575 221.6452 C459.5700 224.8497 459.4475 228.7563 458.3850 231.7953 L457.9650 232.0983 C455.8800 230.7995 455.4100 225.6593 452.5125 225.4942 L451.9650 225.9235 Z"></path>
<path id="" fill="#66757f" fill-opacity="1.0" stroke="#000000" stroke-width="0.0" stroke-opacity="1.0" stroke-linecap="round" stroke-linejoin="round"  filling="0" d="M71.9048 256.0050 C73.3165 255.9375 74.8987 255.7300 76.2972 255.8775 C76.9685 255.9500 77.3618 256.1525 77.8035 256.6675 C78.2635 258.1950 77.3173 259.5775 76.6588 260.9125 C76.3435 261.3200 76.0082 261.6625 75.5813 261.9525 C74.9073 262.4100 74.4280 262.4025 73.6577 262.2375 C73.0742 261.7800 72.7928 261.4300 72.5023 260.7400 C72.4577 260.6350 72.4178 260.5275 72.3740 260.4200 C71.8005 259.0225 71.9085 257.4925 71.9048 256.0050 Z"></path>
<path id="" fill="#ea586e" fill-opacity="1.0" stroke="#000000" stroke-width="0.0" stroke-opacity="1.0" stroke-linecap="round" stroke-linejoin="round"  filling="0" d="M180.9055 186.8320 C187.5502 183.5180 193.5903 184.0148 200.7100 184.9263 C203.2440 185.2505 205.7860 185.4382 208.2285 186.2405 C210.1118 186.8593 211.8573 187.8360 213.6985 188.5638 C215.5675 189.3022 217.6763 189.7623 219.4340 190.7280 C226.3400 194.5215 241.0475 205.8735 244.5335 212.8060 C244.9753 213.6848 245.1575 214.3177 245.0130 215.2908 C244.5895 216.0565 244.1535 216.4357 243.3290 216.7007 C241.3938 217.3223 239.0665 216.9420 237.0412 217.2663 C230.7007 218.2823 224.2652 219.6597 217.9798 220.9810 C214.4738 221.7180 211.0833 222.8575 207.5932 223.6302 C193.8960 226.6635 180.1478 229.4295 166.4662 232.5453 C158.8800 234.2730 151.4545 236.5910 143.7402 237.7997 C142.5927 237.9798 141.4190 238.0063 140.2793 237.7590 C139.8237 237.4020 139.4760 237.0592 139.2932 236.4888 C138.9395 235.3835 139.6760 233.9480 139.9120 232.8513 C140.1857 231.5788 140.2388 230.2672 140.5437 228.9980 C141.8380 223.6145 144.3983 217.3642 147.4325 212.7470 C150.1025 208.6845 153.7052 205.2623 156.8390 201.5740 C158.2168 199.9527 159.3813 197.9750 161.0125 196.6080 C164.2630 193.8848 176.9150 187.6752 180.9055 186.8320 Z"></path>
<path id="" fill="#77b155" fill-opacity="1.0" stroke="#000000" stroke-width="0.0" stroke-opacity="1.0" stroke-linecap="round" stroke-linejoin="round"  filling="0" d="M180.9055 186.8320 C187.5502 183.5180 193.5903 184.0148 200.7100 184.9263 C203.2440 185.2505 205.7860 185.4382 208.2285 186.2405 C210.1118 186.8593 211.8573 187.8360 213.6985 188.5638 C215.5675 189.3022 217.6763 189.7623 219.4340 190.7280 C226.3400 194.5215 241.0475 205.8735 244.5335 212.8060 C244.9753 213.6848 245.1575 214.3177 245.0130 215.2908 C244.5895 216.0565 244.1535 216.4357 243.3290 216.7007 C241.3938 217.3223 239.0665 216.9420 237.0412 217.2663 C230.7007 218.2823 224.2652 219.6597 217.9798 220.9810 C214.4738 221.7180 211.0833 222.8575 207.5932 223.6302 C193.8960 226.6635 180.1478 229.4295 166.4662 232.5453 C158.8800 234.2730 151.4545 236.5910 143.7402 237.7997 C142.5927 237.9798 141.4190 238.0063 140.2793 237.7590 C142.9733 237.7930 145.9340 236.2043 148.5733 235.5742 C150.5285 235.1073 152.5267 234.8250 154.4880 234.3790 L172.9895 230.0285 C180.1862 228.3805 187.5002 227.1840 194.7148 225.5815 C203.7973 223.5638 212.8050 221.1447 221.9102 219.2615 C224.3130 218.7645 226.7630 218.5013 229.1700 218.0237 C231.4270 217.5760 233.6432 216.9430 235.9062 216.5150 C238.3665 216.0497 241.6300 216.1223 243.8240 214.9520 C243.8203 214.8112 243.8362 214.6685 243.8127 214.5298 C243.3947 212.0735 237.0570 205.6322 235.0988 203.8480 C229.3760 198.6328 222.7030 193.2283 215.5135 190.1947 C214.3625 189.7090 213.1673 189.6842 212.0470 189.2473 C210.9170 188.8067 209.9688 187.9690 208.8293 187.5363 C203.5675 185.5390 197.2697 185.3230 191.6908 185.4648 C189.7558 185.5140 187.7787 185.6355 185.8710 185.9775 C184.2883 186.2612 182.7385 186.7693 181.1250 186.8280 C181.0517 186.8305 180.9787 186.8307 180.9055 186.8320 Z"></path>
<path id="" fill="#66757e" fill-opacity="1.0" stroke="#000000" stroke-width="0.0" stroke-opacity="1.0" stroke-linecap="round" stroke-linejoin="round"  filling="0" d="M124.0390 141.7643 L124.7355 141.9277 C125.5475 144.7515 125.1895 156.9375 124.0135 159.5005 C123.2840 160.1232 117.0827 160.7555 115.9065 160.8737 C115.0627 160.9588 114.2515 161.0912 113.6340 160.4005 C112.6600 159.3112 112.9962 157.4515 113.1295 156.1320 C113.3925 154.7025 114.0580 152.5220 113.8177 151.1220 C113.7328 150.6257 113.6555 150.6880 113.2840 150.4093 C112.1288 150.4888 111.1122 151.1823 110.0793 151.6665 C109.3427 152.0117 108.9402 152.1505 108.1695 151.8737 C107.6927 150.8533 107.8018 149.8855 108.1115 148.8387 C109.9128 146.5765 120.8145 142.3435 124.0390 141.7643 Z"></path>
<path id="" fill="#77b155" fill-opacity="1.0" stroke="#000000" stroke-width="0.0" stroke-opacity="1.0" stroke-linecap="round" stroke-linejoin="round"  filling="0" d="M113.1295 156.1320 C116.5985 157.5508 119.4908 158.3840 123.2545 158.3930 C123.7655 158.8215 123.8255 158.8660 124.0135 159.5005 C123.2840 160.1232 117.0827 160.7555 115.9065 160.8737 C115.0627 160.9588 114.2515 161.0912 113.6340 160.4005 C112.6600 159.3112 112.9962 157.4515 113.1295 156.1320 Z"></path>
<path id="" fill="#76b155" fill-opacity="1.0" stroke="#000000" stroke-width="0.0" stroke-opacity="1.0" stroke-linecap="round" stroke-linejoin="round"  filling="0" d="M124.0390 141.7643 L124.7355 141.9277 C125.5475 144.7515 125.1895 156.9375 124.0135 159.5005 C123.8255 158.8660 123.7655 158.8215 123.2545 158.3930 C124.8303 154.3630 123.3940 146.5332 124.0390 141.7643 Z"></path>
<path id="" fill="#66757e" fill-opacity="1.0" stroke="#000000" stroke-width="0.0" stroke-opacity="1.0" stroke-linecap="round" stroke-linejoin="round"  filling="0" d="M233.5935 316.1225 C235.6380 316.2825 237.7782 316.1050 239.8335 316.0800 C243.6413 316.0400 247.4490 316.0250 251.2575 316.0350 C253.4100 316.0450 255.7475 315.9225 257.8650 316.3375 L258.1900 316.8700 C258.2200 317.5775 258.2825 318.1225 257.9500 318.7775 C254.4625 318.7125 234.7823 319.5200 233.2875 318.7275 C232.7750 317.9050 232.8793 317.3500 233.0753 316.4125 L233.5935 316.1225 Z"></path>
<path id="" fill="#66757e" fill-opacity="1.0" stroke="#000000" stroke-width="0.0" stroke-opacity="1.0" stroke-linecap="round" stroke-linejoin="round"  filling="0" d="M262.1875 316.0750 C266.8950 316.1975 271.6425 316.0475 276.3525 316.0525 C278.4800 316.0550 280.7325 315.9125 282.8350 316.2175 C282.9950 316.4225 283.0575 316.4675 283.1375 316.7550 C283.3200 317.3925 283.1675 318.2975 282.9275 318.8925 C277.4800 318.3675 266.9300 319.8075 262.2125 318.6975 L261.9550 318.2600 C261.9275 317.4425 261.9800 316.8675 262.1875 316.0750 Z"></path>
<path id="" fill="#66757e" fill-opacity="1.0" stroke="#000000" stroke-width="0.0" stroke-opacity="1.0" stroke-linecap="round" stroke-linejoin="round"  filling="0" d="M271.1700 136.8560 C273.0475 136.9860 274.9425 138.9787 276.2175 140.2820 C277.2425 141.3313 278.2200 142.1700 278.1925 143.7193 C276.5025 143.8925 273.2500 144.5740 271.9200 143.3362 C270.5425 142.0500 271.0525 138.5915 271.1700 136.8560 Z"></path>
<path id="" fill="#5c913b" fill-opacity="1.0" stroke="#000000" stroke-width="0.0" stroke-opacity="1.0" stroke-linecap="round" stroke-linejoin="round"  filling="0" d="M185.0315 169.1667 C185.0615 169.0865 185.1008 169.0090 185.1210 168.9258 C185.7085 166.5235 178.9388 155.5670 177.7710 152.2722 C176.1100 147.5853 174.6685 139.4877 175.1335 134.4700 C175.5665 129.7957 177.3002 125.0867 179.1255 120.7960 C182.3905 112.9440 187.8242 106.1845 194.7908 101.3080 C205.4660 93.7943 219.7200 90.7090 232.5285 93.0327 C244.6875 95.2390 256.8050 101.6585 263.8975 112.0085 C267.4050 117.1302 272.0000 123.6840 272.0875 130.1210 C272.1125 132.1100 271.4475 134.1100 271.5700 136.0493 C271.7975 139.6620 272.5750 143.2928 271.8625 146.9043 C269.6975 157.8620 261.4750 169.4088 252.1625 175.5742 C248.4688 178.0197 244.5150 179.2218 240.6560 181.1975 C240.2065 181.4277 240.0482 181.5535 239.7910 181.9742 C240.0027 184.4297 244.8598 189.4837 246.4735 191.7110 C248.1187 193.9815 249.7980 196.3740 251.1425 198.8288 C252.3900 201.1093 253.3200 203.7442 253.8050 206.2973 C254.1900 208.3228 254.1325 210.3837 254.0725 212.4348 C251.6950 215.1803 248.3375 216.7735 244.7545 217.2445 L246.0267 216.0647 C244.4438 215.7402 243.4070 214.5513 242.1008 213.6730 L241.7850 214.0627 C238.3360 209.0513 230.0490 200.6207 224.5267 197.9710 C222.7320 198.0307 219.1252 198.6747 217.7558 197.3555 C216.8168 196.4510 217.0193 194.9595 217.0825 193.7900 C216.9685 193.5047 216.8273 193.2935 216.5965 193.0775 C212.8320 189.5530 201.6470 187.5043 196.6170 187.3398 C194.0905 187.2570 191.6120 187.6975 189.1480 188.2128 C180.6405 189.9913 173.8297 194.1265 167.5270 200.0388 C162.3285 204.9153 153.1122 218.2397 151.2608 225.2190 C150.9583 226.3598 151.8375 227.2995 151.7937 228.4722 C151.7023 230.9128 150.8537 233.2915 150.7795 235.8165 C145.4815 236.6740 144.7617 238.0963 138.6107 237.8770 C138.3997 237.7270 138.1865 237.5795 137.9855 237.4165 C134.8685 234.8865 132.8970 231.4993 132.4965 227.4792 C132.2063 224.5632 132.9527 221.4037 133.5485 218.5453 C136.0245 206.6678 139.7500 198.8078 147.4550 189.4370 C155.6065 179.5233 172.2617 170.4478 185.0315 169.1667 Z"></path>
<path id="" fill="#dc2e44" fill-opacity="1.0" stroke="#000000" stroke-width="0.0" stroke-opacity="1.0" stroke-linecap="round" stroke-linejoin="round"  filling="0" d="M185.0315 169.1667 L185.4727 169.1642 C187.1562 169.1385 188.9480 168.7250 190.6252 168.5013 C193.4062 168.1302 196.2345 167.8460 199.0415 167.7812 C211.4275 167.4962 223.3605 172.2470 233.2085 179.5010 C234.7965 180.6707 236.5103 181.8320 237.9467 183.1848 C243.7587 188.6585 253.2325 200.5985 253.2975 209.0070 C253.3125 210.6537 252.8125 212.0950 251.6150 213.2505 C250.0950 214.7168 247.9922 215.4210 246.0267 216.0647 C244.4438 215.7402 243.4070 214.5513 242.1008 213.6730 L241.7850 214.0627 C238.3360 209.0513 230.0490 200.6207 224.5267 197.9710 C222.7320 198.0307 219.1252 198.6747 217.7558 197.3555 C216.8168 196.4510 217.0193 194.9595 217.0825 193.7900 C216.9685 193.5047 216.8273 193.2935 216.5965 193.0775 C212.8320 189.5530 201.6470 187.5043 196.6170 187.3398 C194.0905 187.2570 191.6120 187.6975 189.1480 188.2128 C180.6405 189.9913 173.8297 194.1265 167.5270 200.0388 C162.3285 204.9153 153.1122 218.2397 151.2608 225.2190 C150.9583 226.3598 151.8375 227.2995 151.7937 228.4722 C151.7023 230.9128 150.8537 233.2915 150.7795 235.8165 C145.4815 236.6740 144.7617 238.0963 138.6107 237.8770 C138.3997 237.7270 138.1865 237.5795 137.9855 237.4165 C134.8685 234.8865 132.8970 231.4993 132.4965 227.4792 C132.2063 224.5632 132.9527 221.4037 133.5485 218.5453 C136.0245 206.6678 139.7500 198.8078 147.4550 189.4370 C155.6065 179.5233 172.2617 170.4478 185.0315 169.1667 Z"></path>
<path id="" fill="#ea596e" fill-opacity="1.0" stroke="#000000" stroke-width="0.0" stroke-opacity="1.0" stroke-linecap="round" stroke-linejoin="round"  filling="0" d="M217.0825 193.7900 C217.7478 193.5547 217.8175 193.6517 218.4650 193.9538 C220.3680 194.8412 223.2115 196.3318 224.5267 197.9710 C222.7320 198.0307 219.1252 198.6747 217.7558 197.3555 C216.8168 196.4510 217.0193 194.9595 217.0825 193.7900 Z"></path>
<path id="" fill="#e0e7ec" fill-opacity="1.0" stroke="#000000" stroke-width="0.0" stroke-opacity="1.0" stroke-linecap="round" stroke-linejoin="round"  filling="0" d="M316.8100 191.9585 C317.7725 190.7135 318.1425 189.1645 318.7750 187.7405 C320.0700 184.8225 323.5925 182.4247 326.1875 180.7475 C332.9950 176.3492 335.2175 175.8425 342.9675 175.0527 C350.4125 174.2940 353.3225 174.5860 360.6900 176.1725 C370.2825 177.8208 380.3425 183.4702 387.0775 190.4990 C389.2975 192.8145 391.2900 195.5920 393.1525 198.2060 C394.2950 199.8120 395.3275 201.4727 396.1725 203.2563 C397.2750 205.5932 398.6750 211.4675 400.4475 212.9238 C402.4650 213.0052 405.3000 209.6902 407.4950 209.0810 C409.6925 208.4715 412.6600 208.8870 414.9650 208.9630 C415.0200 213.2603 417.2700 218.1888 413.7550 221.6662 C410.9975 224.3930 406.3725 225.2965 402.7550 226.3233 C402.9850 229.2227 403.1225 232.2847 402.9450 235.1897 C402.9500 236.2728 402.9825 237.3627 402.9525 238.4447 C400.1525 241.6283 396.6775 245.2457 393.1475 247.6008 C389.9725 249.8578 386.7450 251.2125 383.3525 253.0525 C380.3600 254.6750 377.6000 256.7200 374.5700 258.2800 C372.3075 259.4475 369.7875 260.2000 367.4250 261.1450 C364.7125 262.2300 362.0700 263.4550 359.3075 264.4150 C357.8825 261.5150 357.4775 258.1950 356.5150 255.1250 C354.9325 250.0725 352.0575 244.8038 349.1150 240.3995 C342.3550 230.2787 332.8550 224.4810 321.9250 219.7182 C315.4525 216.8980 308.2000 215.1447 304.0350 208.9830 C303.9850 208.0735 303.9075 207.1297 304.0175 206.2233 C304.7300 200.4475 312.5500 195.2932 316.8100 191.9585 Z"></path>
<path id="" fill="#e0e7ed" fill-opacity="1.0" stroke="#000000" stroke-width="0.0" stroke-opacity="1.0" stroke-linecap="round" stroke-linejoin="round"  filling="0" d="M316.8100 191.9585 C317.7725 190.7135 318.1425 189.1645 318.7750 187.7405 C320.0700 184.8225 323.5925 182.4247 326.1875 180.7475 C332.9950 176.3492 335.2175 175.8425 342.9675 175.0527 C350.4125 174.2940 353.3225 174.5860 360.6900 176.1725 C370.2825 177.8208 380.3425 183.4702 387.0775 190.4990 C389.2975 192.8145 391.2900 195.5920 393.1525 198.2060 C394.2950 199.8120 395.3275 201.4727 396.1725 203.2563 C397.2750 205.5932 398.6750 211.4675 400.4475 212.9238 C402.4650 213.0052 405.3000 209.6902 407.4950 209.0810 C409.6925 208.4715 412.6600 208.8870 414.9650 208.9630 C415.0200 213.2603 417.2700 218.1888 413.7550 221.6662 C410.9975 224.3930 406.3725 225.2965 402.7550 226.3233 C402.9850 229.2227 403.1225 232.2847 402.9450 235.1897 C402.9500 236.2728 402.9825 237.3627 402.9525 238.4447 C400.1525 241.6283 396.6775 245.2457 393.1475 247.6008 C392.8125 247.1515 392.6025 246.8002 392.5400 246.2315 C392.3075 244.1420 392.4425 241.9340 392.3550 239.8260 C392.1975 235.4807 391.5725 231.1647 390.4900 226.9535 C386.8825 213.2850 379.0975 200.8867 366.6525 193.6975 C355.0175 186.9758 342.0250 185.0477 328.9800 188.2375 C324.9100 189.2332 321.0550 190.8347 317.0250 191.9030 L316.8100 191.9585 Z"></path>
<path id="" fill="rgb(109,233,44)" fill-opacity="1.0" stroke="#000000" stroke-width="0.0" stroke-opacity="1.0" stroke-linecap="round" stroke-linejoin="round"  filling="0" d="M360.6900 176.1725 C370.2825 177.8208 380.3425 183.4702 387.0775 190.4990 C389.2975 192.8145 391.2900 195.5920 393.1525 198.2060 C394.2950 199.8120 395.3275 201.4727 396.1725 203.2563 C397.2750 205.5932 398.6750 211.4675 400.4475 212.9238 C402.4650 213.0052 405.3000 209.6902 407.4950 209.0810 C409.6925 208.4715 412.6600 208.8870 414.9650 208.9630 C415.0200 213.2603 417.2700 218.1888 413.7550 221.6662 C410.9975 224.3930 406.3725 225.2965 402.7550 226.3233 C402.9850 229.2227 403.1225 232.2847 402.9450 235.1897 C402.7525 234.8805 402.7725 235.0033 402.7550 234.6803 C402.6725 233.1198 402.3150 231.6228 402.1800 230.0683 C401.8425 226.2390 401.9250 222.6277 400.8850 218.8837 C396.3575 202.5485 388.5225 189.3242 372.9925 181.2930 C369.2400 179.3530 364.6725 178.5508 361.0850 176.4162 C360.9500 176.3370 360.8200 176.2538 360.6900 176.1725 Z"></path>
<path id="" fill="#dc2e44" fill-opacity="1.0" stroke="#000000" stroke-width="0.0" stroke-opacity="1.0" stroke-linecap="round" stroke-linejoin="round"  filling="0" d="M278.6525 224.1232 C293.0925 223.9820 302.0750 226.6472 313.9400 235.0360 C319.0225 238.6293 324.6200 245.8010 327.1850 251.5075 C328.4400 254.2975 329.2750 257.5000 329.7625 260.5150 C330.1400 262.8700 330.1500 265.5000 328.6350 267.4800 C327.4275 269.0600 324.9575 270.4175 323.0050 270.7825 C321.6225 271.0400 320.2100 269.8750 318.7600 269.8575 C314.1750 269.8025 309.5850 269.9000 305.0000 269.9250 C301.7475 269.9400 298.4500 269.8175 295.2050 270.0125 C292.8175 270.1575 290.4325 270.5800 288.0575 270.8625 C285.5775 270.8350 283.1000 270.8275 280.6300 271.0625 C277.9150 271.3225 275.1425 271.9275 272.4100 271.8575 C270.2050 271.8000 268.0375 270.9850 265.7950 270.9075 C260.9750 270.7400 256.1000 271.2075 251.2900 270.8750 C248.6820 270.6925 246.2088 269.8250 243.5685 269.8275 C240.6845 267.2850 236.3743 263.4775 236.2518 259.3025 C236.0520 252.5150 241.7688 243.2225 246.2250 238.3997 C252.1725 231.9633 269.8050 224.4342 278.6525 224.1232 Z"></path>
<path id="" fill="#e8596c" fill-opacity="1.0" stroke="#000000" stroke-width="0.0" stroke-opacity="1.0" stroke-linecap="round" stroke-linejoin="round"  filling="0" d="M241.7850 214.0627 L242.1008 213.6730 C243.4070 214.5513 244.4438 215.7402 246.0267 216.0647 L244.7545 217.2445 C240.3570 218.2943 236.4835 218.9565 231.9650 219.0435 C231.9460 218.0870 231.8468 217.1272 231.7735 216.1735 C234.1460 215.7560 240.1205 215.4340 241.7850 214.0627 Z"></path>
<path id="" fill="#a5d287" fill-opacity="1.0" stroke="#000000" stroke-width="0.0" stroke-opacity="1.0" stroke-linecap="round" stroke-linejoin="round"  filling="0" d="M148.8030 230.3525 C149.3087 229.8275 149.9702 229.3360 150.5985 228.9597 C152.5108 227.8147 154.9470 227.0108 157.0137 226.1395 C167.6305 221.6625 176.8392 219.6978 188.1712 222.6640 C192.0310 223.6110 195.8802 223.8212 199.8273 224.0665 C200.0500 224.6635 200.0335 225.0380 199.9695 225.6678 C199.9360 227.4535 200.0155 228.4220 201.2995 229.7592 C202.9332 231.4605 204.7405 232.9487 206.2923 234.7402 C210.5975 239.7105 212.6845 245.5745 215.4088 251.4075 C219.0305 250.9350 222.4707 249.5358 226.0190 248.7100 C229.5320 247.8925 233.0335 247.9492 236.6122 247.8900 C238.8777 245.8770 241.2370 241.2547 243.9382 240.8825 L244.7395 241.0725 C245.1960 241.8763 245.0977 242.4175 244.8525 243.2880 C244.5340 244.4173 244.1515 245.5395 243.8743 246.6790 C246.8237 247.7715 249.8730 248.3225 252.8900 249.1718 C262.2500 251.8075 270.9975 255.6675 278.0825 262.5125 C280.1225 264.4825 282.3750 266.5700 283.6125 269.1575 C284.1625 270.3250 284.5775 271.5500 284.8450 272.8100 C285.1450 274.7450 286.6500 277.3025 287.3675 279.1875 C289.7425 285.4025 290.6650 292.0775 290.0650 298.7025 C279.8125 303.1025 267.3800 302.0375 256.4300 302.0275 C249.2153 302.0225 241.9575 302.2000 234.7495 301.9825 C231.5872 301.8850 228.4495 301.4025 225.2950 301.1925 C213.7977 300.4225 202.2720 299.4300 190.9062 297.4650 C169.1857 293.7100 150.8995 288.1425 131.1633 278.1475 C122.7935 273.9075 114.5567 269.0175 107.4707 262.8175 C104.4420 260.1675 101.1335 257.2300 98.8420 253.9250 C97.1180 251.4375 96.4362 248.6942 97.0193 245.7030 C98.0683 240.3203 103.4455 235.2543 107.8213 232.3407 C113.5692 228.5135 120.2720 227.3793 126.9633 228.8208 C129.1902 229.3005 131.4045 230.1410 133.6160 230.5468 L133.9700 230.6085 L134.2500 230.6842 C137.5430 231.5490 139.5350 233.6617 143.1362 234.0527 C144.9557 232.5513 146.5607 231.1777 148.8030 230.3525 Z"></path>
<path id="" fill="#db3145" fill-opacity="1.0" stroke="#000000" stroke-width="0.0" stroke-opacity="1.0" stroke-linecap="round" stroke-linejoin="round"  filling="0" d="M243.9382 240.8825 L244.7395 241.0725 C245.1960 241.8763 245.0977 242.4175 244.8525 243.2880 C244.5340 244.4173 244.1515 245.5395 243.8743 246.6790 C246.8237 247.7715 249.8730 248.3225 252.8900 249.1718 C262.2500 251.8075 270.9975 255.6675 278.0825 262.5125 C280.1225 264.4825 282.3750 266.5700 283.6125 269.1575 C284.1625 270.3250 284.5775 271.5500 284.8450 272.8100 C284.5875 272.2900 284.2875 271.7925 283.9475 271.3225 C275.5075 259.5525 263.3275 251.9950 249.1280 249.2218 C245.8802 248.5875 242.5645 248.7100 239.3098 248.1545 L238.9445 248.0905 C240.4160 245.5553 242.5988 243.4035 243.9382 240.8825 Z"></path>
<path id="" fill="#dd2e44" fill-opacity="1.0" stroke="#000000" stroke-width="0.0" stroke-opacity="1.0" stroke-linecap="round" stroke-linejoin="round"  filling="0" d="M148.8030 230.3525 C147.2513 233.2340 144.1013 235.3593 141.7547 237.5918 C139.4055 234.9645 136.2227 233.2157 133.9700 230.6085 L134.2500 230.6842 C137.5430 231.5490 139.5350 233.6617 143.1362 234.0527 C144.9557 232.5513 146.5607 231.1777 148.8030 230.3525 Z"></path>
<path id="" fill="#e9596e" fill-opacity="1.0" stroke="#000000" stroke-width="0.0" stroke-opacity="1.0" stroke-linecap="round" stroke-linejoin="round"  filling="0" d="M188.1712 222.6640 C192.0310 223.6110 195.8802 223.8212 199.8273 224.0665 C200.0500 224.6635 200.0335 225.0380 199.9695 225.6678 C198.7592 225.6853 198.3165 226.0208 197.4538 226.8050 C194.5355 225.3455 190.7092 224.7375 188.1712 222.6640 Z"></path>
<path id="" fill="#a5d287" fill-opacity="1.0" stroke="#000000" stroke-width="0.0" stroke-opacity="1.0" stroke-linecap="round" stroke-linejoin="round"  filling="0" d="M413.8100 207.9913 C417.6600 200.7855 422.7175 193.3455 430.9925 190.8885 C433.5025 190.1432 440.4475 189.1588 442.7825 190.2343 C443.4625 190.5475 443.6725 190.9408 443.8825 191.6342 C444.3675 193.2507 444.0900 195.4277 444.0350 197.1187 C443.6075 209.9462 438.8950 223.3030 432.2350 234.2177 C417.7275 257.9875 391.5150 272.9475 365.7425 281.6800 C361.3875 283.1550 356.8550 284.7700 352.3700 285.7800 C351.4800 285.9800 350.0300 286.2775 349.2025 285.7225 C347.8400 284.8100 347.2075 282.6850 347.1550 281.1450 C346.8425 271.7575 357.3875 255.0075 363.9450 248.3752 C370.7150 241.5262 377.9025 237.2225 387.2400 234.9453 C389.6975 234.3460 392.2875 233.7005 394.8325 233.6645 C397.8775 233.6215 401.6800 234.8855 404.5900 233.9787 C404.7850 233.6505 404.8550 233.5275 404.9050 233.1387 C404.8625 232.5060 404.8575 231.8070 404.7175 231.1885 C404.4600 230.0412 403.6750 229.6803 402.7500 229.0960 C401.9450 224.5143 401.3125 220.2520 399.8850 215.7920 C400.4325 213.7142 401.3200 210.7510 402.9225 209.2415 C405.3025 206.9987 410.7750 207.9020 413.8100 207.9913 Z"></path>
<path id="" fill="#77b255" fill-opacity="1.0" stroke="#000000" stroke-width="0.0" stroke-opacity="1.0" stroke-linecap="round" stroke-linejoin="round"  filling="0" d="M399.8850 215.7920 C400.4325 213.7142 401.3200 210.7510 402.9225 209.2415 C405.3025 206.9987 410.7750 207.9020 413.8100 207.9913 C411.1575 213.0310 406.6300 224.7408 405.2675 230.2612 C405.0300 231.2255 405.0775 232.1790 404.9050 233.1387 C404.8625 232.5060 404.8575 231.8070 404.7175 231.1885 C404.4600 230.0412 403.6750 229.6803 402.7500 229.0960 C401.9450 224.5143 401.3125 220.2520 399.8850 215.7920 Z"></path>
<path id="" fill="#77b255" fill-opacity="1.0" stroke="#000000" stroke-width="0.0" stroke-opacity="1.0" stroke-linecap="round" stroke-linejoin="round"  filling="0" d="M326.5500 142.0885 C333.7900 141.2660 341.4225 143.6712 347.4875 147.5435 C352.1525 150.5225 355.1800 154.5480 356.3625 159.9685 C357.6025 165.6500 356.3350 170.5643 353.2250 175.4267 C350.4500 175.8513 347.4950 175.7737 344.6850 175.8930 C336.3500 176.2470 331.4225 178.5190 324.3700 182.7165 C320.4775 185.3420 320.9775 189.8282 318.3050 191.3145 C317.6450 191.2950 317.5400 191.3405 317.0275 190.9458 C316.7550 189.3710 318.0725 187.9442 317.8650 186.4000 C317.6850 185.0582 313.7425 183.3302 312.5275 182.4238 C307.5475 178.7080 304.0350 172.5505 303.1700 166.4100 C302.5150 161.7620 303.5850 156.4825 306.4975 152.7442 C311.6125 146.1797 318.4250 143.0810 326.5500 142.0885 Z"></path>
<path id="" fill="#77b255" fill-opacity="1.0" stroke="#000000" stroke-width="0.0" stroke-opacity="1.0" stroke-linecap="round" stroke-linejoin="round"  filling="0" d="M132.2993 214.0185 C125.4850 212.1573 120.2580 210.6622 115.4840 205.1393 C110.9050 199.8418 110.4415 194.5055 110.9433 187.6967 C111.4088 181.3785 114.7955 175.8455 119.5872 171.7985 C126.1187 166.2820 133.8205 165.3515 142.0533 166.0680 C147.7925 166.5675 154.2820 169.8810 157.9498 174.3550 C159.4720 176.2117 160.4328 178.3327 160.2092 180.7740 C159.0508 183.4000 152.6288 188.9210 150.3070 191.3423 C147.9142 193.8443 145.8813 196.0022 144.0703 198.9917 C142.4765 202.0887 140.1200 205.7440 139.7713 209.2793 C138.4905 212.1382 137.1438 215.0237 136.4317 218.0875 C135.8675 218.4055 135.8913 218.3143 135.2895 218.2298 C134.5412 216.6200 133.4328 215.3658 132.2993 214.0185 Z"></path>
<path id="" fill="#dd2e44" fill-opacity="1.0" stroke="#000000" stroke-width="0.0" stroke-opacity="1.0" stroke-linecap="round" stroke-linejoin="round"  filling="0" d="M143.5285 197.5480 C143.7925 198.0468 143.9815 198.4320 144.0703 198.9917 C142.4765 202.0887 140.1200 205.7440 139.7713 209.2793 C138.4905 212.1382 137.1438 215.0237 136.4317 218.0875 C135.8675 218.4055 135.8913 218.3143 135.2895 218.2298 C135.5607 215.0400 136.6780 212.5117 137.8465 209.5723 C139.3290 205.3085 141.1503 201.3910 143.5285 197.5480 Z"></path>
<path id="" fill="#dd2e44" fill-opacity="1.0" stroke="#000000" stroke-width="0.0" stroke-opacity="1.0" stroke-linecap="round" stroke-linejoin="round"  filling="0" d="M148.5795 190.5890 C150.6857 187.7455 156.9017 181.7655 160.2092 180.7740 C159.0508 183.4000 152.6288 188.9210 150.3070 191.3423 C149.8905 191.1653 150.0963 191.2218 149.5645 191.1577 C148.9925 191.0887 148.9908 190.9657 148.5795 190.5890 Z"></path>
<path id="" fill="#dd2e44" fill-opacity="1.0" stroke="#000000" stroke-width="0.0" stroke-opacity="1.0" stroke-linecap="round" stroke-linejoin="round"  filling="0" d="M148.5795 190.5890 C148.9908 190.9657 148.9925 191.0887 149.5645 191.1577 C150.0963 191.2218 149.8905 191.1653 150.3070 191.3423 C147.9142 193.8443 145.8813 196.0022 144.0703 198.9917 C143.9815 198.4320 143.7925 198.0468 143.5285 197.5480 C145.2247 195.2000 146.5985 192.7337 148.5795 190.5890 Z"></path>
<path id="" fill="#c5e4b2" fill-opacity="1.0" stroke="#000000" stroke-width="0.0" stroke-opacity="1.0" stroke-linecap="round" stroke-linejoin="round"  filling="0" d="M199.3763 163.8228 C191.8520 156.6350 187.3517 149.6955 187.1070 138.9590 C186.8958 129.6973 190.0293 121.6690 196.4600 115.0050 C203.5550 107.6527 212.8732 103.3720 223.1823 103.2140 C233.1930 103.0608 243.3455 106.9970 250.5025 114.0140 C256.7475 120.1378 260.7550 128.9877 260.8300 137.7735 C260.9050 146.3728 257.0075 155.4180 250.9900 161.5095 C245.9830 166.5795 240.0865 169.7368 233.2778 171.6410 C231.8257 172.2235 230.5780 172.4368 229.0340 172.5567 L229.0182 176.3380 C225.7007 175.1718 221.6655 173.9967 218.6792 172.1033 C215.2380 170.8503 211.7140 169.8362 208.1330 169.0690 C205.6040 168.9193 203.0177 168.3217 200.5318 167.8358 C199.9028 166.9320 199.9128 165.1523 199.4698 164.0470 C199.4395 163.9718 199.4073 163.8975 199.3763 163.8228 Z"></path>
<path id="" fill="#618e3c" fill-opacity="1.0" stroke="#000000" stroke-width="0.0" stroke-opacity="1.0" stroke-linecap="round" stroke-linejoin="round"  filling="0" d="M218.6792 172.1033 C223.4830 173.3650 228.4733 172.1113 233.2778 171.6410 C231.8257 172.2235 230.5780 172.4368 229.0340 172.5567 L229.0182 176.3380 C225.7007 175.1718 221.6655 173.9967 218.6792 172.1033 Z"></path>
<path id="" fill="#5c913b" fill-opacity="1.0" stroke="#000000" stroke-width="0.0" stroke-opacity="1.0" stroke-linecap="round" stroke-linejoin="round"  filling="0" d="M199.3763 163.8228 C201.8103 165.8160 205.0945 168.1557 208.1330 169.0690 C205.6040 168.9193 203.0177 168.3217 200.5318 167.8358 C199.9028 166.9320 199.9128 165.1523 199.4698 164.0470 C199.4395 163.9718 199.4073 163.8975 199.3763 163.8228 Z"></path>
<path id="" fill="#292f33" fill-opacity="1.0" stroke="#000000" stroke-width="0.0" stroke-opacity="1.0" stroke-linecap="round" stroke-linejoin="round"  filling="0" d="M317.9925 190.6608 C317.9950 190.3887 318.0100 190.1413 317.9475 189.8698 C317.5275 188.0455 313.0950 185.9478 311.5550 184.8430 C306.8200 181.4442 303.1225 176.3800 302.1800 170.5590 C301.2025 164.5250 302.2125 158.8022 305.8125 153.8188 C310.4750 147.3610 317.6525 143.6358 325.4200 142.3882 C333.6225 141.0708 341.5025 143.6082 348.1000 148.3828 C353.6175 152.3760 356.9200 158.4473 357.0075 165.3505 C357.0450 168.1353 356.6400 171.1978 357.1575 173.9380 C357.1750 174.0253 357.1975 174.1110 357.2175 174.1975 C370.0500 174.8353 382.0075 181.6328 390.5125 191.0180 C399.4750 200.9048 403.7125 213.3647 403.0400 226.5968 C402.9125 229.1313 402.4925 231.6243 402.0400 234.1175 C398.1925 233.9438 394.3200 234.1653 390.4750 234.3325 C390.5300 231.1432 390.0025 228.0872 389.3125 224.9807 C387.2200 215.5658 382.8925 207.8932 376.1975 200.9495 C368.3950 192.8553 356.6100 186.6935 345.2275 186.5087 C338.5750 186.4008 330.4800 186.8050 324.2200 189.1922 C322.6600 189.7872 319.6075 191.6848 317.9925 190.6608 Z"></path>
<path id="" fill="#9266cb" fill-opacity="1.0" stroke="#000000" stroke-width="0.0" stroke-opacity="1.0" stroke-linecap="round" stroke-linejoin="round"  filling="0" d="M317.9925 190.6608 C318.4575 188.0485 323.4600 184.3983 325.6000 182.8542 C333.3975 177.2292 342.2050 174.4982 351.7675 174.1705 C353.5375 174.1098 355.4725 173.9142 357.2175 174.1975 C370.0500 174.8353 382.0075 181.6328 390.5125 191.0180 C399.4750 200.9048 403.7125 213.3647 403.0400 226.5968 C402.9125 229.1313 402.4925 231.6243 402.0400 234.1175 C398.1925 233.9438 394.3200 234.1653 390.4750 234.3325 C390.5300 231.1432 390.0025 228.0872 389.3125 224.9807 C387.2200 215.5658 382.8925 207.8932 376.1975 200.9495 C368.3950 192.8553 356.6100 186.6935 345.2275 186.5087 C338.5750 186.4008 330.4800 186.8050 324.2200 189.1922 C322.6600 189.7872 319.6075 191.6848 317.9925 190.6608 Z"></path>
<path id="" fill="#292f33" fill-opacity="1.0" stroke="#000000" stroke-width="0.0" stroke-opacity="1.0" stroke-linecap="round" stroke-linejoin="round"  filling="0" d="M132.9353 166.3237 C135.1723 166.0380 142.2275 166.2753 144.4422 166.5970 C145.5603 166.7595 146.6045 167.1980 147.6277 167.6568 C151.2015 169.2585 159.9848 174.0965 161.2290 178.0282 C161.7233 179.5898 159.6930 181.2153 158.6638 182.1667 C151.2357 189.0332 144.8380 194.4430 140.3045 203.8302 C138.8873 206.7648 138.1777 209.9710 136.7233 212.8797 L136.3305 213.6515 C135.9365 213.9685 135.6565 214.1653 135.1508 214.2767 C134.3593 214.4515 133.2433 214.2385 132.4413 214.1447 C127.7753 213.6000 123.9803 211.9415 120.1313 209.2533 C114.6015 205.3915 110.8640 200.3082 109.6793 193.6013 C108.6673 187.8730 110.4980 181.8293 113.8272 177.1263 C118.1718 170.9888 125.6845 167.5493 132.9353 166.3237 Z"></path>
<path id="" fill="#dc2e44" fill-opacity="1.0" stroke="#000000" stroke-width="0.0" stroke-opacity="1.0" stroke-linecap="round" stroke-linejoin="round"  filling="0" d="M133.5720 226.7278 C134.3568 226.7100 134.9920 226.7923 135.7315 227.0737 C137.6085 227.7880 140.3092 229.1300 141.1198 231.0237 C141.1568 232.2575 140.4193 233.5582 139.9640 234.6890 L139.8310 234.9285 C139.2670 235.1783 139.1178 235.0573 138.5440 234.8620 C136.4707 234.1562 134.2643 232.2672 133.3922 230.2437 C132.8958 229.0920 133.1062 227.8457 133.5720 226.7278 Z"></path>
<path id="" fill="#dd2e44" fill-opacity="1.0" stroke="#000000" stroke-width="0.0" stroke-opacity="1.0" stroke-linecap="round" stroke-linejoin="round"  filling="0" d="M235.2682 181.6165 C235.6465 181.7320 236.0195 181.8450 236.3862 181.9940 C238.7587 182.9585 241.6235 186.6650 242.6090 188.9980 L242.3180 189.6020 C240.0515 188.7685 235.8223 186.4467 234.9702 184.0887 C234.6110 183.0943 234.8410 182.5045 235.2682 181.6165 Z"></path>
</svg>