<svg xmlns="http://www.w3.org/2000/svg" viewBox="0 0 512 512" height="512.0px" width="512.0px">
<path id="" fill="#d99e82" fill-opacity="1.0" stroke="#000000" stroke-width="0.0" stroke-opacity="1.0" stroke-linecap="round" stroke-linejoin="round"  filling="0" d="M240.4767 293.3950 C241.9935 293.2425 243.5270 293.2050 245.0508 293.1800 C251.9850 293.0600 259.0075 292.9825 265.9375 293.2200 C269.6700 293.3500 273.3925 293.7575 277.1250 293.9125 C304.6550 295.0550 332.3800 297.7000 359.4075 303.1900 C363.3650 303.9925 367.2775 305.0750 371.2100 306.0025 C385.9900 309.4900 400.8050 313.8150 414.8500 319.6275 C417.6600 320.7900 420.3800 322.1875 423.1400 323.4675 C431.5875 327.3850 441.2475 331.7450 447.9475 338.3050 C449.2725 339.6025 450.3975 340.9925 451.2275 342.6650 C453.8450 347.9400 454.7875 357.8125 454.7950 363.5550 C454.8150 379.2500 449.2150 395.9650 439.6850 408.4200 C437.5450 411.2200 435.0000 413.7750 432.5075 416.2650 C405.9775 442.7800 355.0850 451.4225 318.9700 454.6800 C315.4025 455.0025 311.8250 455.0625 308.2525 455.3175 C296.5550 456.1575 284.8075 457.0225 273.0775 457.0325 C258.8875 457.0375 244.5860 457.4150 230.4065 456.9675 C226.4635 456.8425 222.5410 456.3375 218.6013 456.1300 C215.7193 455.9775 212.8285 456.0075 209.9485 455.8250 C172.7227 453.4750 120.8928 446.9375 90.5430 424.5525 C74.2917 412.5675 62.6808 395.8750 59.7020 375.6025 C58.5587 367.8225 58.1147 346.1050 63.1140 339.7650 C66.3475 335.6650 74.3080 331.6400 78.9875 328.8700 C83.4410 326.2325 87.9255 324.1625 92.6170 322.0150 C127.5537 306.0300 169.5280 298.8850 207.5742 295.4175 C213.4863 294.8800 219.5612 294.4300 225.4948 294.1550 C230.5195 293.9250 235.4572 293.8600 240.4767 293.3950 Z"></path>
<path id="" fill="#662113" fill-opacity="1.0" stroke="#000000" stroke-width="0.0" stroke-opacity="1.0" stroke-linecap="round" stroke-linejoin="round"  filling="0" d="M66.5765 327.1975 C66.3692 324.2800 65.5300 321.2800 65.0253 318.3900 C63.9212 312.0650 63.1452 303.9200 64.2085 297.5475 C64.6920 294.6525 65.8503 292.7375 68.2762 291.0700 C75.3650 286.2050 96.7513 280.4900 105.8438 278.0650 C135.8795 270.0575 166.6930 265.7175 197.6248 263.1100 C206.7637 262.3400 216.0007 261.4800 225.1647 261.1400 C234.3027 260.8000 243.4900 261.0350 252.6350 261.0175 C263.2075 260.9975 273.8325 260.7550 284.3975 261.1225 C315.9275 262.2800 347.3275 265.7850 378.3350 271.6075 C387.0825 273.2450 395.7300 275.4250 404.3425 277.6475 C412.9400 279.8650 421.4200 282.1075 429.8475 284.9275 C434.0650 286.3375 438.6225 287.6675 442.5275 289.8150 C444.3500 290.8150 445.9850 292.1100 447.1350 293.8675 C452.7175 302.3900 448.5425 317.3350 446.5925 326.5900 C447.5600 329.2000 451.4650 336.6500 450.8325 338.9675 C450.3475 339.2225 450.2925 339.2325 449.7425 339.0500 C447.6275 338.3475 445.2850 336.0550 442.9450 337.3700 C442.5950 337.5675 442.5375 337.6250 442.2450 337.8525 C441.3850 339.8525 440.0900 341.7650 438.9575 343.6300 C429.6750 358.8975 414.6575 368.8600 398.9075 376.5500 C385.0875 383.3000 369.8775 387.5825 354.8725 390.7475 C346.6875 392.4775 338.3325 394.2150 330.0425 395.3800 C314.9700 397.4950 299.8575 398.3750 284.6750 399.1225 C281.4350 399.2825 278.2100 399.6625 274.9675 399.7850 C263.4025 400.2275 251.5750 400.1900 240.0095 399.8400 C236.7025 399.7400 233.4255 399.2550 230.1232 399.1100 C226.6783 398.9575 223.2258 398.9900 219.7818 398.7975 C217.4975 398.6700 215.2280 398.3525 212.9475 398.1775 C203.1360 397.4275 193.3432 396.7100 183.5887 395.3325 C179.6212 394.7725 175.6905 393.8600 171.7345 393.2050 C158.6125 391.0375 145.7400 388.4325 133.1432 384.0675 C114.7672 377.7000 98.6595 370.4025 84.7345 356.3700 C78.9045 350.4950 74.1250 344.2200 70.4977 336.7575 C68.5283 337.0900 66.0258 338.0000 64.0518 337.7650 C63.3630 337.6825 63.1685 337.5200 62.7575 336.9850 C62.5287 334.6925 65.6938 329.9900 66.4857 327.4975 C66.5175 327.3975 66.5462 327.2975 66.5765 327.1975 Z"></path>
<path id="" fill="#d89e82" fill-opacity="1.0" stroke="#000000" stroke-width="0.0" stroke-opacity="1.0" stroke-linecap="round" stroke-linejoin="round"  filling="0" d="M442.2450 337.8525 C442.1475 337.5375 442.1700 337.3450 442.2650 337.0175 C442.9300 334.7325 444.7000 331.8875 445.5900 329.0500 C445.7950 328.3975 446.0275 326.9325 446.5925 326.5900 C447.5600 329.2000 451.4650 336.6500 450.8325 338.9675 C450.3475 339.2225 450.2925 339.2325 449.7425 339.0500 C447.6275 338.3475 445.2850 336.0550 442.9450 337.3700 C442.5950 337.5675 442.5375 337.6250 442.2450 337.8525 Z"></path>
<path id="" fill="#d89e82" fill-opacity="1.0" stroke="#000000" stroke-width="0.0" stroke-opacity="1.0" stroke-linecap="round" stroke-linejoin="round"  filling="0" d="M66.5765 327.1975 L66.8748 327.0700 C67.2762 328.1125 67.4967 329.2000 67.9062 330.2325 C68.7270 332.3050 70.0245 334.5925 70.4977 336.7575 C68.5283 337.0900 66.0258 338.0000 64.0518 337.7650 C63.3630 337.6825 63.1685 337.5200 62.7575 336.9850 C62.5287 334.6925 65.6938 329.9900 66.4857 327.4975 C66.5175 327.3975 66.5462 327.2975 66.5765 327.1975 Z"></path>
<path id="" fill="#fecb4d" fill-opacity="1.0" stroke="#000000" stroke-width="0.0" stroke-opacity="1.0" stroke-linecap="round" stroke-linejoin="round"  filling="0" d="M235.8732 240.1098 C242.9957 239.8370 250.2025 240.0430 257.3325 240.0363 C264.9500 240.0290 272.6425 239.8212 280.2500 240.1200 C283.9325 240.2648 287.5925 240.7982 291.2775 240.9460 C294.8650 241.0900 298.4625 240.9698 302.0500 241.1503 C304.9100 241.2943 307.7600 241.6537 310.6200 241.8295 C338.7450 243.5573 367.2475 246.2337 394.8800 251.9450 C401.2725 253.2675 407.6925 254.7125 413.9525 256.5575 C416.9475 257.4400 419.8450 258.7775 422.8600 259.5350 C425.7050 260.2475 428.6075 259.9750 431.5075 260.0700 C434.9325 260.1800 438.4375 261.2725 441.6000 262.5225 C444.3825 263.6225 448.9750 265.5150 450.1325 268.5075 C450.7375 270.0700 450.8125 271.7625 450.9775 273.4125 C451.1375 275.0000 451.3250 276.5750 452.0950 278.0025 C453.6525 280.8900 456.4550 282.5750 457.8250 285.7975 C459.3500 289.3900 459.8625 294.8350 458.2675 298.4850 C457.9325 299.2600 457.4900 299.9825 456.9500 300.6300 C455.9100 301.8600 454.6175 302.4975 453.1450 303.0675 C448.9250 304.6975 444.2300 305.5150 439.8700 306.7650 C431.1125 309.2675 422.4025 311.9375 413.7450 314.7725 C365.8475 330.4900 318.4325 347.6375 271.5600 366.1900 C267.2450 367.8975 261.7875 371.1550 257.2325 371.6050 C256.8225 371.6450 256.4100 371.6550 255.9975 371.6300 C251.3850 371.3450 244.1355 367.2000 239.7057 365.3025 C235.9250 363.7275 232.1220 362.2050 228.2975 360.7375 C218.4590 356.9825 208.4323 353.6700 198.5592 349.9875 C164.3553 337.4375 129.9555 325.4250 95.3730 313.9575 C88.7473 311.7625 82.0342 309.6450 75.3327 307.6900 C71.4090 306.5450 67.3582 305.6050 63.5083 304.2400 C61.5035 303.5300 59.5545 302.5000 57.8862 301.1750 C55.6435 299.3925 54.2287 297.0225 53.9495 294.1525 C53.7530 292.1325 54.0587 290.1200 54.7225 288.2100 C56.0880 284.2825 59.0428 281.3125 60.5482 277.5125 C61.8573 274.2100 61.2617 269.4125 63.6617 266.7650 C66.9922 263.0950 76.9975 260.2675 81.8203 260.0250 C84.7495 259.8750 87.7835 260.4000 90.6650 259.7450 C93.6833 259.0600 96.5728 257.5925 99.5847 256.7900 C107.2670 254.7450 115.3135 253.2025 123.1240 251.6800 C147.4483 247.1795 172.0013 244.0168 196.6718 242.2057 C199.6095 242.0005 202.5595 242.0500 205.4975 241.8615 C208.5347 241.6665 211.5488 241.2560 214.5938 241.1467 C218.2090 241.0170 221.8322 241.0923 225.4462 240.9285 C228.9295 240.7708 232.3817 240.2580 235.8732 240.1098 Z"></path>
<path id="" fill="#77b255" fill-opacity="1.0" stroke="#000000" stroke-width="0.0" stroke-opacity="1.0" stroke-linecap="round" stroke-linejoin="round"  filling="0" d="M239.0050 235.1268 C270.8500 234.9345 302.6925 235.6727 334.4925 237.3400 C350.7050 238.4008 366.8775 240.0115 382.9800 242.1695 C399.4325 244.2845 423.2375 247.2175 438.3075 254.1375 C445.8250 257.5900 451.7125 262.4075 457.1475 268.6125 C458.5625 270.2250 461.4625 273.6800 461.0175 275.9600 C460.9325 276.3950 460.6650 276.7975 460.3900 277.1375 C457.1550 281.1600 450.5950 280.5975 446.3775 283.2375 C440.7275 286.7725 437.2075 292.9525 431.1325 295.8525 C416.7875 302.7000 396.7750 291.7450 381.1375 298.1225 C369.6700 302.8000 365.8175 315.4000 355.7350 321.7550 C349.1075 325.9325 339.8100 324.8250 332.7425 322.4900 C326.5325 320.4375 320.9000 317.3800 314.4450 315.9125 C302.6050 313.2200 293.7700 317.7950 284.7225 325.2275 C282.8650 326.7525 281.1475 328.4400 279.2625 329.9375 C276.2325 332.3425 272.8825 334.3725 269.6200 336.4425 C267.2000 338.0325 264.6175 339.0550 261.7700 339.5875 C244.4365 342.8350 235.2247 329.9625 222.4767 321.3050 C212.6252 314.6150 201.5842 313.1075 190.5155 317.9750 C185.8085 320.0475 181.3080 322.6400 176.1920 323.6000 C173.5770 324.0900 170.8938 324.1150 168.2410 324.0850 C166.0615 324.0625 163.6537 324.0050 161.5403 323.4350 C148.1565 319.8375 144.7780 302.9925 130.6687 298.1125 C124.2455 295.8925 116.9405 295.5800 110.2263 296.2600 C100.5480 297.2400 90.3683 300.6975 81.1035 296.0275 C75.1690 293.0350 72.2410 286.9575 66.7165 283.5150 C62.1150 280.6475 56.1212 280.5925 51.8200 277.3900 C51.2422 276.9600 50.8992 276.2525 50.8597 275.5400 C50.6922 272.5175 55.6398 267.7025 57.6422 265.6975 C62.3763 260.9550 67.3748 257.3625 73.5488 254.6675 C92.2030 246.5255 114.1957 243.7467 134.2888 241.4085 C156.6877 238.8775 179.1700 237.1467 201.6925 236.2198 C207.5195 236.0027 213.3590 236.0840 219.1882 235.9365 C225.8745 235.7670 232.1893 235.1400 239.0050 235.1268 Z"></path>
<path id="" fill="#dc2e44" fill-opacity="1.0" stroke="#000000" stroke-width="0.0" stroke-opacity="1.0" stroke-linecap="round" stroke-linejoin="round"  filling="0" d="M238.5685 184.1217 C290.3775 183.7215 343.0375 185.4128 393.4725 198.2937 C407.8175 201.9577 426.6800 207.5567 437.5025 218.0625 C442.0525 222.4810 444.2150 227.5830 444.3225 233.9167 C444.4550 241.7258 444.5425 246.3613 440.4300 253.2725 C438.8775 255.9275 437.0050 258.3825 434.8525 260.5800 C415.5200 280.3450 353.9200 288.4125 326.8175 290.7175 C324.4225 290.9225 322.0225 290.9100 319.6300 291.0925 C317.1825 291.2775 314.7525 291.7375 312.2975 291.8325 C308.7875 291.9675 305.2650 291.8075 301.7575 292.0325 C298.8575 292.2175 295.9750 292.7100 293.0725 292.8425 C287.3225 293.1025 281.4575 292.8700 275.6900 292.9400 C257.7625 293.0450 239.6693 293.4575 221.7560 292.8275 C218.9730 292.7275 216.2142 292.3075 213.4388 292.1100 C210.6210 291.9100 207.7900 291.9375 204.9710 291.7550 C202.8492 291.6175 200.7402 291.3050 198.6200 291.1425 C191.7945 290.6250 184.9077 290.3350 178.0952 289.6875 C165.4928 288.3725 152.9543 286.5025 140.5168 284.0825 C124.2108 280.9350 107.5163 277.3050 92.5430 269.8325 C86.7355 266.9350 80.7425 262.6700 76.0560 258.1825 C70.8748 253.2200 69.1670 244.8672 69.0378 237.9843 C68.8928 230.2635 69.9983 223.9330 75.5518 218.2287 C78.3475 215.3568 81.7915 213.1790 85.2408 211.1812 C96.3620 204.7397 108.7712 201.0820 121.1552 197.9465 C153.4043 189.7818 186.7625 186.6118 219.9075 184.9438 C226.1342 184.6302 232.3305 184.2272 238.5685 184.1217 Z"></path>
<path id="" fill="#d99e82" fill-opacity="1.0" stroke="#000000" stroke-width="0.0" stroke-opacity="1.0" stroke-linecap="round" stroke-linejoin="round"  filling="0" d="M70.1162 220.9158 C67.0253 215.9690 63.9828 210.8958 62.0260 205.3725 C57.5872 192.8427 58.1393 175.3802 61.1135 162.4985 C62.0675 158.3675 63.0845 154.2258 64.5240 150.2337 C74.0530 123.8085 94.9870 103.6562 118.3765 89.0753 C127.2525 83.5420 136.5975 79.0793 146.2507 75.0872 C201.7845 52.1217 271.6575 49.4473 329.8575 63.1187 C371.5250 72.9060 416.8825 94.6190 440.0850 132.1795 C452.1400 151.6978 458.4250 177.5717 452.9800 200.2440 C452.1150 203.8517 450.8025 207.2530 449.2725 210.6268 C447.9775 213.4820 443.8900 219.0150 443.7625 221.7672 C443.8125 223.1850 443.8675 224.6028 443.9325 226.0200 L439.3975 226.2025 C437.7225 227.8152 436.0075 229.7115 434.0100 230.9140 C430.4775 234.5040 425.0475 237.0482 420.5750 239.2603 C405.9075 246.5145 392.1500 249.8270 376.0500 252.5100 C368.0600 253.8425 359.9225 254.9775 351.8525 255.7000 C348.9725 255.9575 346.0725 255.9750 343.1900 256.2125 C338.4475 256.6000 333.7100 256.8600 328.9700 257.2250 C326.0000 257.4550 323.0650 257.8275 320.0825 257.9125 C308.8025 258.2300 297.4925 257.9200 286.2075 258.0300 C283.2100 258.0600 280.2775 258.7075 277.2975 258.8250 C275.0975 258.9125 272.9625 258.1800 270.7600 258.1975 C267.4350 258.2250 264.1275 258.9325 260.7775 258.9475 C257.9750 258.9625 255.2725 258.1800 252.4950 258.2125 C249.6127 258.2450 246.7370 258.8625 243.8412 258.9325 C241.0018 259.0000 238.1953 258.2725 235.3703 258.0850 C231.9987 257.8625 228.5157 258.0250 225.1348 258.0275 C215.0818 258.0375 204.9747 258.2275 194.9277 257.9350 C191.8407 257.8475 188.8185 257.3975 185.7478 257.1725 C183.1698 256.9825 180.5765 257.0325 177.9962 256.8700 C175.6628 256.7250 173.3412 256.3875 171.0110 256.1950 C168.2643 255.9700 165.5015 256.0200 162.7547 255.7775 C140.0143 253.7850 113.7688 249.9518 93.2590 239.6035 C86.2383 236.0610 80.2380 231.5870 74.5785 226.1568 C72.9815 226.0705 71.2935 226.2478 69.6882 226.2950 C69.7205 224.4688 69.8510 222.7233 70.1162 220.9158 Z"></path>
<path id="" fill="#dc3045" fill-opacity="1.0" stroke="#000000" stroke-width="0.0" stroke-opacity="1.0" stroke-linecap="round" stroke-linejoin="round"  filling="0" d="M434.0100 230.9140 C434.3525 230.3197 442.7175 221.3842 442.9950 221.2812 L443.7625 221.7672 C443.8125 223.1850 443.8675 224.6028 443.9325 226.0200 L439.3975 226.2025 C437.7225 227.8152 436.0075 229.7115 434.0100 230.9140 Z"></path>
<path id="" fill="#dc2f44" fill-opacity="1.0" stroke="#000000" stroke-width="0.0" stroke-opacity="1.0" stroke-linecap="round" stroke-linejoin="round"  filling="0" d="M70.1162 220.9158 C71.6645 222.3705 73.7148 224.2182 74.5785 226.1568 C72.9815 226.0705 71.2935 226.2478 69.6882 226.2950 C69.7205 224.4688 69.8510 222.7233 70.1162 220.9158 Z"></path>
<path id="" fill="#fee7b5" fill-opacity="1.0" stroke="#000000" stroke-width="0.0" stroke-opacity="1.0" stroke-linecap="round" stroke-linejoin="round"  filling="0" d="M113.6530 135.0717 C115.4940 135.1492 117.3215 135.6893 118.9830 136.4720 C122.3668 138.0663 124.9788 140.8865 126.1990 144.4385 C127.2325 147.4465 126.8915 150.2270 125.4782 153.0448 C122.6760 158.6325 116.2733 162.4020 110.5608 164.3470 C107.6227 165.2027 104.7535 165.1602 101.7265 164.9787 C99.7585 163.6795 98.4390 162.2035 97.9868 159.8212 C96.9490 154.3565 99.5200 146.6300 102.6370 142.1870 C105.3805 138.2767 108.9470 135.9165 113.6530 135.0717 Z"></path>
<path id="" fill="#fee7b5" fill-opacity="1.0" stroke="#000000" stroke-width="0.0" stroke-opacity="1.0" stroke-linecap="round" stroke-linejoin="round"  filling="0" d="M165.4590 89.8415 C169.8510 89.9948 173.0030 91.7168 176.1020 94.7450 C179.9592 98.5143 184.3862 105.0015 184.3517 110.6248 C184.3420 112.2125 183.8745 113.7372 182.6750 114.8290 C179.9718 117.2897 175.3233 117.0618 171.9362 116.9942 C167.1687 116.2050 162.0323 115.2990 158.0600 112.3355 C155.2980 110.2380 153.5273 107.0908 153.1687 103.6413 C152.8233 100.4880 153.9883 97.1322 155.9705 94.6845 C158.3952 91.6902 161.6855 90.2000 165.4590 89.8415 Z"></path>
<path id="" fill="#fee7b5" fill-opacity="1.0" stroke="#000000" stroke-width="0.0" stroke-opacity="1.0" stroke-linecap="round" stroke-linejoin="round"  filling="0" d="M316.8300 183.0388 C320.4325 183.0143 323.5800 184.4812 326.2900 186.7603 C330.6025 190.3842 335.6625 197.3972 336.0350 203.1970 C336.1475 204.9560 335.6700 206.6735 334.4200 207.9538 C331.7750 210.6628 327.3950 210.0887 323.9450 210.0282 C319.7400 210.0172 315.5000 209.0878 311.8650 206.9315 C308.7375 205.0782 306.0100 202.2453 305.1450 198.6212 C304.3525 195.3107 305.0675 191.7305 306.9475 188.9113 C309.3325 185.3327 312.7800 183.8047 316.8300 183.0388 Z"></path>
<path id="" fill="#fee7b5" fill-opacity="1.0" stroke="#000000" stroke-width="0.0" stroke-opacity="1.0" stroke-linecap="round" stroke-linejoin="round"  filling="0" d="M288.7450 79.0527 C289.2875 79.0163 289.8325 78.9828 290.3725 79.0017 C293.8625 79.1250 297.0575 80.9518 299.3050 83.5543 C301.7725 86.4108 302.5275 89.8050 302.2100 93.4940 C301.9400 96.6280 300.3925 99.3165 297.9500 101.2805 C293.9825 104.4690 288.3650 105.2022 283.4550 104.7555 C280.5350 104.5885 276.8375 103.8138 274.2400 102.4095 C272.3450 101.3860 270.6800 99.7995 270.1025 97.6673 C269.5325 95.5535 270.1625 93.4203 271.3125 91.6183 C274.9050 85.9782 282.1200 80.3905 288.7450 79.0527 Z"></path>
<path id="" fill="#fee7b5" fill-opacity="1.0" stroke="#000000" stroke-width="0.0" stroke-opacity="1.0" stroke-linecap="round" stroke-linejoin="round"  filling="0" d="M187.7202 183.0165 C190.8403 182.7948 193.7425 183.7450 196.3335 185.4328 C202.4677 189.4288 206.5717 196.7802 208.0590 203.7923 C207.5423 205.2663 206.9288 206.5547 205.8188 207.6873 C203.5598 209.9922 200.7850 210.0670 197.7717 210.0777 C192.5883 210.0575 187.5275 209.2713 182.9950 206.6013 C180.0535 204.8685 178.0035 202.2487 177.1885 198.9155 C176.4348 195.8318 176.5788 192.2665 178.2835 189.5228 C180.3333 186.2235 183.9960 183.9113 187.7202 183.0165 Z"></path>
<path id="" fill="#fee7b5" fill-opacity="1.0" stroke="#000000" stroke-width="0.0" stroke-opacity="1.0" stroke-linecap="round" stroke-linejoin="round"  filling="0" d="M363.5150 101.8405 C367.7875 101.7038 370.5200 102.9843 373.5925 105.8813 C377.5325 109.5967 382.7625 115.9775 382.7500 121.7165 C382.7475 123.4890 382.0800 125.1752 380.7900 126.4015 C378.6375 128.4480 374.8200 129.0390 371.9400 128.9453 C366.8575 128.4815 361.2275 127.3420 357.0100 124.2985 C354.3725 122.3965 352.4125 119.8538 351.9350 116.5717 C351.4100 112.9877 352.1475 109.2115 354.4350 106.3415 C356.7325 103.4608 359.9425 102.1693 363.5150 101.8405 Z"></path>
<path id="" fill="#fee7b5" fill-opacity="1.0" stroke="#000000" stroke-width="0.0" stroke-opacity="1.0" stroke-linecap="round" stroke-linejoin="round"  filling="0" d="M407.4200 160.2810 C407.9000 160.2287 408.3925 160.1777 408.8750 160.2010 C410.7025 160.2890 412.5150 160.9668 413.7725 162.3212 C415.4525 164.1328 415.9700 166.6635 415.8625 169.0650 C415.6125 174.7465 412.9200 183.0510 408.4925 186.8647 C405.1225 189.7657 401.5675 190.3307 397.2875 189.9532 C396.0225 189.5312 394.7450 189.0700 393.5925 188.3865 C390.7650 186.7085 389.0275 184.1693 388.2475 181.0022 C387.4600 177.8078 387.5875 174.2923 389.3775 171.4500 C393.1425 165.4738 400.8025 161.8735 407.4200 160.2810 Z"></path>
<path id="" fill="#fee7b5" fill-opacity="1.0" stroke="#000000" stroke-width="0.0" stroke-opacity="1.0" stroke-linecap="round" stroke-linejoin="round"  filling="0" d="M239.3703 124.0400 C241.1532 123.8700 242.8013 123.8680 244.5415 124.3715 C247.9917 125.3828 250.8950 127.7290 252.6100 130.8900 C254.1700 133.7348 254.5450 136.9187 253.6150 140.0352 C251.9250 145.6908 245.4978 149.9240 240.5517 152.5332 C240.2480 152.6653 239.9427 152.7940 239.6360 152.9190 C237.0135 153.9880 233.3495 154.9420 230.6602 153.7023 C229.0545 152.9622 228.0022 151.4675 227.4545 149.8240 C225.6967 144.5513 227.3867 136.8395 229.8687 132.0172 C232.0332 127.8120 234.8840 125.4705 239.3703 124.0400 Z"></path>
</svg>