<svg xmlns="http://www.w3.org/2000/svg" viewBox="0 0 512 512" height="512.0px" width="512.0px">
<path id="" fill="#55acee" fill-opacity="1.0" stroke="#000000" stroke-width="0.0" stroke-opacity="1.0" stroke-linecap="round" stroke-linejoin="round"  filling="0" d="M240.8420 185.1192 C253.4900 184.9870 266.2400 184.7845 278.8800 185.1820 C282.5750 185.2980 286.2525 185.6908 289.9425 185.8775 C316.6250 187.0813 343.1925 190.0797 369.4725 194.8528 C384.1425 197.6540 397.6775 200.5132 411.6075 206.1673 C417.7700 208.6678 429.7700 213.5790 432.2975 219.9402 C433.4200 222.7637 433.2525 226.3230 432.9325 229.3002 C432.3500 234.7202 430.6975 240.1662 429.4425 245.4685 C428.2950 250.3200 427.1775 257.0550 425.1550 261.5125 C424.1075 263.8150 422.0350 264.6250 420.3050 266.2900 C419.2400 267.3125 418.4750 268.7650 417.7800 270.0550 C410.9375 282.7425 403.0275 295.2225 393.8050 306.3275 C370.0825 334.8975 337.0200 357.0375 303.0150 371.5025 C298.1175 373.5850 293.0625 375.5675 287.9950 377.1925 C285.1275 378.1125 282.1450 378.7200 279.3325 379.7875 L279.0450 379.9000 C278.9025 384.2100 279.0150 388.5600 279.0050 392.8775 C285.1200 396.5450 291.8875 399.4975 298.2650 402.6950 C305.0975 406.1200 312.0150 409.4350 318.7625 413.0225 C322.8900 415.2175 326.9200 417.6125 330.9975 419.8975 C336.2425 422.8350 341.5275 425.3450 346.2575 429.1300 C348.7225 431.1050 350.7825 433.1625 351.0875 436.4775 C351.3650 439.5100 350.1925 442.8325 348.2025 445.1450 C342.1425 452.1900 301.1800 457.8875 290.0375 459.1275 C284.4025 459.7525 278.7125 459.9775 273.0625 460.4625 C266.5825 460.9450 260.0700 460.8650 253.5775 460.8675 C232.2858 460.8700 210.2525 459.8675 189.5430 454.5750 C182.0435 452.6600 167.4657 449.2575 163.5135 442.1425 C162.3008 439.9575 161.5445 436.9650 162.3407 434.5425 C163.2400 431.8075 165.6700 429.6350 167.9662 428.0150 C171.1922 425.7425 174.8305 424.1500 178.3123 422.3200 C182.2278 420.2600 186.1037 418.0975 189.9945 415.9900 L216.1853 401.8700 C221.5925 398.9650 226.9065 395.9850 232.4585 393.3525 C232.1328 388.8950 232.2265 384.4150 232.2343 379.9450 C229.3853 378.6150 225.9540 378.0625 222.9532 377.0550 C218.6463 375.6075 214.4418 373.6900 210.2755 371.8800 C182.6475 360.0900 157.3237 343.5025 135.4750 322.8875 C122.5017 310.8475 111.4460 296.3950 102.0845 281.4225 C99.5033 277.2950 97.3987 272.8675 94.7945 268.7650 C92.7325 265.5200 89.4348 263.4325 87.6580 259.8925 C84.3922 253.3825 79.3232 236.6362 79.0577 229.3545 C78.8733 224.2935 80.9252 219.8100 84.3562 216.1387 C88.4285 211.7815 94.6367 209.3347 100.0407 207.0910 C122.1908 197.8952 146.3030 193.8712 169.9693 190.8675 C189.0988 188.3710 208.3288 186.7177 227.6033 185.9125 C232.0230 185.7035 236.4130 185.2352 240.8420 185.1192 Z"></path>
<path id="" fill="#f4abba" fill-opacity="1.0" stroke="#000000" stroke-width="0.0" stroke-opacity="1.0" stroke-linecap="round" stroke-linejoin="round"  filling="0" d="M252.8800 51.1037 C253.0850 51.0717 253.2900 51.0432 253.4950 51.0287 C258.1750 50.6990 262.9250 51.2460 267.5825 51.6605 C288.6200 53.5327 306.9650 59.5938 323.4450 73.2623 C328.5850 77.5253 332.9075 82.9608 336.4025 88.6385 C345.4900 103.4035 348.1475 117.2965 349.7325 134.2750 C351.0350 148.2292 347.6550 165.1160 341.8825 177.9040 C340.4225 181.1402 338.5400 184.2482 336.8125 187.3503 C334.6150 191.2980 332.3550 195.4220 329.4375 198.8893 C311.8425 219.8080 289.7175 230.1642 262.7275 232.6240 C260.6775 232.5813 258.6325 232.2720 256.5800 232.1715 C253.3000 232.0108 249.9755 232.0865 246.7097 231.7368 C227.8168 229.7140 212.0285 222.4770 197.4642 210.4902 C178.8000 195.1288 167.5755 170.4453 165.2728 146.6432 C163.8678 132.1210 167.6333 111.1460 173.5383 97.6475 C176.1808 91.6740 179.6080 86.0797 183.7295 81.0125 C196.2850 65.8448 216.3225 56.5470 235.4238 53.0453 C241.1658 51.9925 247.0712 51.6552 252.8800 51.1037 Z"></path>
<path id="" fill="#3b88c3" fill-opacity="1.0" stroke="#000000" stroke-width="0.0" stroke-opacity="1.0" stroke-linecap="round" stroke-linejoin="round"  filling="0" d="M96.3123 266.7450 C98.8195 267.1125 101.1410 268.4775 103.5443 269.2550 C108.1718 270.7525 113.0023 271.8525 117.6957 273.1550 C129.9888 276.5700 142.4045 279.1550 154.9243 281.5975 C179.0112 286.1275 203.3875 288.9550 227.8717 290.0575 C230.9795 290.2225 234.0607 290.7400 237.1740 290.8725 C243.8995 291.1575 250.7125 290.9475 257.4450 290.9450 C264.4700 290.9400 271.5575 291.1325 278.5750 290.8800 C297.0525 290.0525 315.4950 288.5675 333.8650 286.4275 C353.7925 284.1300 373.5475 280.5375 393.0075 275.6775 C398.0525 274.3875 402.9775 272.8475 407.9025 271.1600 C410.9350 270.1200 414.7375 267.9175 417.8875 267.6850 L418.1300 267.9375 C418.5900 271.0425 412.6550 279.8200 410.8300 282.8900 C409.0700 285.4875 404.1550 294.4275 401.4275 295.1475 C400.5200 295.0550 399.9025 294.4975 399.1850 293.9825 C393.9425 295.5675 388.4900 296.6400 383.1325 297.7825 C372.3725 300.0700 361.5525 302.0575 350.6850 303.7450 C283.5725 314.5175 215.0885 313.3600 148.3802 300.3275 C138.7487 298.5175 129.3320 296.0825 119.8123 293.7825 C116.8645 293.0700 112.9615 292.7350 110.2630 291.3775 C106.2230 289.3450 97.4417 273.4600 96.0785 268.8275 C95.8185 267.9450 95.8637 267.5400 96.3123 266.7450 Z"></path>
<path id="" fill="#8a4b38" fill-opacity="1.0" stroke="#000000" stroke-width="0.0" stroke-opacity="1.0" stroke-linecap="round" stroke-linejoin="round"  filling="0" d="M253.3475 251.9350 C248.1958 253.0850 236.3503 252.1925 230.5927 251.9250 C187.0320 249.8835 143.8250 243.0860 101.7420 231.6535 C97.7607 230.5300 87.7368 228.4695 85.2368 225.4700 C84.2523 224.2885 82.0212 219.7085 82.1490 218.2278 C82.6740 212.1393 82.8285 205.9937 83.7462 199.9498 C87.2433 176.5282 99.8643 155.4415 118.8540 141.2925 C138.4560 126.8300 162.9868 120.7162 187.0835 124.2875 C211.9895 128.1675 234.1487 142.2598 248.2245 163.1703 C250.2400 166.1435 252.2475 169.2350 253.8200 172.4680 C254.8525 174.5905 255.5750 177.4292 256.9500 179.3005 C257.6775 178.9905 258.1475 178.3172 258.6700 177.7330 C258.3125 178.7993 257.8100 179.3560 257.0350 180.1593 C258.5275 185.1147 260.2275 189.9500 261.3050 195.0233 C264.7950 211.4917 264.3825 231.4097 256.8575 246.6235 C257.4675 247.4682 257.9575 248.2905 258.4075 249.2305 C257.6150 248.8875 256.7025 248.6808 255.8725 248.4240 C255.0650 249.6172 254.1975 250.7700 253.3475 251.9350 Z"></path>
<path id="" fill="#fee7b6" fill-opacity="1.0" stroke="#000000" stroke-width="0.0" stroke-opacity="1.0" stroke-linecap="round" stroke-linejoin="round"  filling="0" d="M258.6700 177.7330 C268.2625 155.7630 286.2275 138.5298 308.5775 129.8568 C331.1100 121.0927 356.2175 121.7440 378.2650 131.6650 C400.4800 141.4075 417.2875 160.3295 426.0350 182.7680 C429.6250 191.9727 431.0750 201.8887 431.1275 211.7142 C431.1500 215.6313 431.2475 219.3000 429.6475 222.9625 C428.4500 225.7095 426.9325 227.5895 424.0725 228.6868 C417.8375 231.0813 410.1025 232.7332 403.6250 234.4915 C364.5050 244.8890 324.3300 250.8000 283.8750 252.1075 C276.3375 252.4125 268.9375 253.2300 261.3600 252.8075 C260.2775 251.6675 259.3350 250.4975 258.4075 249.2305 C257.9575 248.2905 257.4675 247.4682 256.8575 246.6235 C264.3825 231.4097 264.7950 211.4917 261.3050 195.0233 C260.2275 189.9500 258.5275 185.1147 257.0350 180.1593 C257.8100 179.3560 258.3125 178.7993 258.6700 177.7330 Z"></path>
</svg>