<svg xmlns="http://www.w3.org/2000/svg" viewBox="0 0 512 512" height="512.0px" width="512.0px">
<path id="" fill="#fecc4d" fill-opacity="1.0" stroke="#000000" stroke-width="0.0" stroke-opacity="1.0" stroke-linecap="round" stroke-linejoin="round"  filling="0" d="M251.4275 51.2280 C351.9150 48.6675 435.4475 128.0645 437.9900 228.5540 C440.5300 329.0425 361.1175 412.5600 260.6275 415.0825 C160.1645 417.6025 76.6755 338.2150 74.1353 237.7540 C71.5950 137.2925 150.9653 53.7880 251.4275 51.2280 Z"></path>
<path id="" fill="#f4900c" fill-opacity="1.0" stroke="#000000" stroke-width="0.0" stroke-opacity="1.0" stroke-linecap="round" stroke-linejoin="round"  filling="0" d="M411.9225 278.0100 C412.2050 277.9775 412.4875 277.9650 412.7725 277.9725 C415.9750 278.0550 419.0900 279.7250 421.1975 282.0700 C423.0150 284.0950 424.4075 286.9700 424.1800 289.7475 C423.9950 292.0025 422.8900 293.5575 421.4150 295.1700 C416.3350 300.7275 408.2625 306.4450 402.2925 311.2450 C391.9725 319.5475 381.6900 327.9950 371.6050 336.5750 C368.9350 338.8450 366.0675 340.8675 363.4500 343.2000 C362.4675 344.0725 360.9725 345.2475 360.8975 346.6025 C361.8325 348.9350 364.4750 351.0500 366.4750 352.5075 C371.9375 350.5550 382.0325 340.9275 386.7500 336.9675 C395.0875 329.9675 403.7250 323.3200 412.0925 316.3575 L423.5050 306.8325 C425.9025 304.8275 428.2400 302.7100 430.8175 300.9350 C432.6975 299.6400 434.8600 298.1025 437.2150 298.0250 C440.0375 297.9325 442.8975 299.6525 444.8200 301.6025 C446.7700 303.5800 448.2000 306.5250 448.0675 309.3450 C447.9600 311.6500 446.9625 313.3125 445.4750 314.9975 C440.9875 320.0875 432.2075 326.3450 426.7475 330.7500 C416.5075 339.0075 406.4425 347.5050 396.2750 355.8550 L384.9050 365.3125 C383.2000 366.7175 381.3225 367.9200 379.7100 369.4325 C379.6425 369.4950 379.5775 369.5600 379.5100 369.6225 C381.3275 371.8750 382.9925 374.1450 384.5400 376.5900 C389.8025 371.9375 395.3075 367.6450 400.7475 363.2100 L422.6600 345.2700 C429.0075 340.1050 435.0225 334.0900 441.8350 329.5525 C443.3550 328.5400 444.4950 327.9800 446.3575 327.9100 C449.1225 327.8050 451.6450 329.0975 453.6125 330.9600 C455.7675 333.0025 457.2175 335.6800 457.2625 338.6925 C457.2975 341.0550 456.3800 343.0650 454.9100 344.8725 C451.6700 348.8550 446.6575 351.9300 442.7125 355.2175 L407.6625 384.2475 C403.8100 387.4550 397.9150 391.4475 394.6500 394.9125 L394.3975 395.1825 C395.8975 398.3125 397.6475 401.2500 399.0300 404.4475 C401.3225 401.7050 404.5925 399.4075 407.3625 397.1575 C411.1200 394.0425 414.8975 390.9500 418.6925 387.8825 C426.1850 381.7850 433.9225 374.8700 441.6100 369.1650 C442.9475 368.1750 444.2775 367.3350 445.7675 366.5975 C446.3400 366.4975 446.9175 366.4125 447.4950 366.3400 C449.9025 366.0575 452.0125 366.8050 453.8725 368.3200 C456.3225 370.3150 458.7525 373.1025 458.9700 376.3850 C459.1500 379.1125 457.8325 381.4550 456.1025 383.4500 C453.2150 386.7775 449.4325 389.4700 446.0175 392.2350 L431.2375 404.2625 L396.2175 433.0625 C388.2700 439.6025 380.3000 447.1625 371.2425 452.1275 C362.0575 457.0850 351.9125 460.0100 341.5000 460.7050 C324.2800 461.9375 305.2225 455.9250 292.1650 444.5100 C275.6650 430.0875 268.5750 412.8150 267.1775 391.2625 C266.8700 386.4975 267.8250 380.9375 268.8525 376.2900 C274.2575 351.8300 289.4450 341.2825 303.0675 322.1000 L319.1550 299.0250 C321.6650 295.3950 323.9525 291.3550 326.8825 288.0550 C329.1375 285.5175 332.0025 283.9650 335.4300 283.8150 C338.8400 283.6675 341.5625 284.9350 343.9825 287.2600 C346.0250 289.2225 348.0225 291.9225 347.9975 294.8750 C347.9700 298.1025 345.6675 301.9100 344.2500 304.7550 C340.0800 313.1300 335.4700 321.2325 331.2650 329.5825 C329.4675 333.1500 327.3850 336.7400 326.2300 340.5750 C325.9050 341.6575 326.0125 342.9225 326.0325 344.0425 C327.7250 344.0425 329.8400 344.1350 331.3475 343.2650 C333.8225 341.8350 335.9600 339.5750 338.1250 337.7175 L349.4675 328.0650 C357.2025 321.4100 365.3750 315.2475 373.2275 308.7350 C381.5575 301.8225 389.8525 294.9100 398.2900 288.1225 C402.6375 284.6250 406.7900 280.3100 411.9225 278.0100 Z"></path>
<path id="" fill="#f4900c" fill-opacity="1.0" stroke="#000000" stroke-width="0.0" stroke-opacity="1.0" stroke-linecap="round" stroke-linejoin="round"  filling="0" d="M96.8457 277.9925 C99.2997 277.8600 101.5318 278.7325 103.5878 280.0100 C106.4280 281.7750 108.8822 284.1650 111.4727 286.2675 C116.8385 290.6225 122.1808 294.9300 127.4330 299.4250 C136.7535 307.3975 146.5285 314.9025 155.9780 322.7325 L168.5110 333.0275 C172.5932 336.4275 176.6772 340.0225 181.1090 342.9575 C182.8297 343.0300 184.5683 342.9800 186.2910 342.9750 C185.7390 337.1875 182.8067 333.1600 180.1165 328.2050 C178.0285 324.3600 176.2083 320.3700 174.1503 316.5100 C171.2980 311.1550 166.5200 304.2850 165.1740 298.4600 C164.5875 295.9225 164.8410 293.2775 165.0165 290.7050 C165.6210 289.9075 166.2522 289.1550 166.9418 288.4275 C169.5388 285.6925 172.1535 283.8275 176.0858 283.7675 C179.4145 283.7175 181.9245 284.7075 184.2980 287.0150 C188.4805 291.0850 191.6265 296.8200 194.8573 301.6625 C197.3530 305.4025 199.9902 309.0275 202.5345 312.7300 C204.8800 316.1450 207.1102 319.6450 209.5527 322.9925 C212.4545 326.9650 215.4780 330.9175 218.6695 334.6625 C225.3345 342.4900 232.6042 350.0050 237.2345 359.3025 C242.0482 368.9650 244.9122 380.2275 244.9312 391.0475 C244.9362 393.8550 244.5020 396.6825 244.1360 399.4600 C242.0770 415.0850 235.4028 429.1875 224.2258 440.3650 C210.8565 453.4725 192.8848 460.8225 174.1622 460.8375 C162.9765 460.6900 151.9787 457.9425 142.0380 452.8100 C132.1862 447.6025 120.6435 437.0325 111.8467 429.7225 L80.1452 403.6300 L66.1240 392.2075 C63.0535 389.7325 59.7500 387.3075 56.9915 384.4825 C54.9238 382.3650 52.9153 380.1975 53.0570 377.0300 C53.1890 374.0725 54.9630 371.2950 57.0875 369.3400 C59.2765 367.3275 61.7350 366.1275 64.7330 366.2225 L65.0772 366.2350 C67.1933 366.8400 69.0300 368.1025 70.7955 369.3750 C76.7733 373.6875 82.2978 378.8550 88.0383 383.5000 C93.3735 387.8125 98.6873 392.1525 103.9792 396.5200 C107.0600 399.0675 110.3135 401.5450 113.1097 404.4025 C114.8438 401.3525 116.5822 398.3125 117.8257 395.0225 C114.6443 392.2100 111.2077 389.6350 107.8905 386.9850 C103.7957 383.7000 99.7290 380.3775 95.6905 377.0225 C84.6963 368.0250 73.9365 358.8075 62.8223 349.9425 C59.6215 347.3900 55.2617 344.1750 54.8587 339.7950 C54.5992 336.9725 55.2482 334.4600 57.0827 332.2775 C58.9263 330.0875 61.5457 328.1950 64.4847 328.0400 C66.7290 327.9200 68.8115 328.8550 70.6680 330.0300 C74.3272 332.3500 77.7028 335.3950 81.0453 338.1575 C86.0667 342.2700 91.0667 346.4075 96.0450 350.5725 C101.2430 354.8700 106.3740 359.2925 111.6140 363.5325 C116.9262 367.8300 122.4845 372.0250 127.4740 376.6900 C128.8800 374.1750 130.6385 371.7700 132.2325 369.3650 C125.8183 363.2125 117.2455 357.1200 110.2340 351.4200 C108.4958 350.0075 106.9450 348.3725 105.2122 346.9650 L84.8795 330.3375 C79.3770 325.9100 73.3322 321.6100 68.2718 316.6900 C66.0478 314.5300 63.9247 312.3775 63.9688 309.0800 C64.0090 306.0575 65.7470 303.2100 67.8725 301.1550 C70.1595 298.9425 73.3320 297.4500 76.5480 298.2850 C81.1410 299.4725 93.5753 310.8625 97.6852 314.3000 L114.5302 328.1375 C120.1155 332.7850 125.5813 337.5375 131.2318 342.1075 C134.9588 345.1225 138.4810 348.5125 142.3405 351.3400 C143.2965 352.0400 144.8145 353.1525 146.0015 353.1700 C148.2507 351.9275 150.0378 348.4925 151.3760 346.3500 C147.8553 341.4975 142.2820 337.9025 137.6850 334.1200 L104.8002 307.0450 C100.5840 303.5350 95.9110 300.2550 91.9473 296.4975 C90.6598 295.2775 89.1875 293.7650 88.4218 292.1450 C87.5677 290.3375 87.6475 288.0575 88.3463 286.2200 C89.7937 282.4175 93.2480 279.6375 96.8457 277.9925 Z"></path>
<path id="" fill="#664500" fill-opacity="1.0" stroke="#000000" stroke-width="0.0" stroke-opacity="1.0" stroke-linecap="round" stroke-linejoin="round"  filling="0" d="M168.8443 233.0013 C169.6015 232.9105 170.6492 232.9258 171.3378 233.2730 C173.8650 234.5480 177.2565 237.6530 179.7275 239.4323 C184.7872 243.0408 190.0125 246.4110 195.3870 249.5315 C216.0497 261.2675 240.4162 268.8725 264.3650 266.7475 C273.6250 265.9275 282.5125 263.7450 291.3000 260.8000 C300.9825 257.5900 310.2850 253.3350 319.0425 248.1068 C321.9900 246.3542 324.9700 244.5963 327.8025 242.6597 C330.7775 240.6250 338.7600 233.6660 341.5325 233.0327 C342.6525 232.7770 343.7525 233.1738 344.6700 233.8075 C346.0500 234.7610 346.8475 235.9135 347.0875 237.5898 C347.9050 243.3033 338.7725 254.7925 335.2425 259.4025 C333.4225 262.0175 331.2425 264.2425 329.1150 266.5950 C327.5325 268.3475 326.0425 270.1975 324.3875 271.8825 C316.7800 279.6200 307.3750 286.6375 297.6950 291.5825 C276.4150 302.6550 251.6000 304.7775 228.7498 297.4825 C212.2865 292.1975 200.1460 283.7875 187.9877 271.7350 C183.2462 267.0350 178.8607 262.2475 174.8678 256.8925 C171.7505 252.7125 168.6087 248.2705 166.2635 243.6030 C165.1817 241.4500 164.3230 238.7205 165.2103 236.3540 C165.8805 234.5663 167.1705 233.7320 168.8443 233.0013 Z"></path>
<path id="" fill="#664500" fill-opacity="1.0" stroke="#000000" stroke-width="0.0" stroke-opacity="1.0" stroke-linecap="round" stroke-linejoin="round"  filling="0" d="M193.8978 142.0960 C194.3333 142.0635 194.7695 142.0440 195.2060 142.0380 C206.7348 141.7945 217.1080 145.7445 225.4523 153.7800 C227.5520 155.8020 229.7075 157.8800 231.5627 160.1300 C234.4810 163.6687 241.8630 174.1650 241.7990 178.6158 C241.7793 179.9868 241.1815 181.1877 240.1897 182.1205 C239.2222 183.0307 237.7080 184.1365 236.2975 183.9440 C233.8768 183.6135 228.8788 179.8010 226.3262 178.6387 C219.0018 175.3035 209.4235 173.9670 201.4413 173.6515 C198.6037 173.2682 195.6562 173.4655 192.8060 173.6497 C183.8560 174.2285 175.3080 175.7307 167.0960 179.5105 C164.1922 180.8470 161.6272 182.8435 158.6885 184.1250 C158.5872 184.1690 158.4850 184.2108 158.3835 184.2538 C155.3650 182.9922 154.1930 181.7790 152.7820 178.8870 C154.4483 172.8100 158.1893 167.1985 161.8788 162.1480 C169.7872 151.3223 180.5972 144.1348 193.8978 142.0960 Z"></path>
<path id="" fill="#664500" fill-opacity="1.0" stroke="#000000" stroke-width="0.0" stroke-opacity="1.0" stroke-linecap="round" stroke-linejoin="round"  filling="0" d="M318.8075 142.1100 C319.4575 142.0697 320.1075 142.0405 320.7575 142.0222 C331.6375 141.6325 342.2000 145.7182 349.9850 153.3270 C352.3575 155.6025 354.7650 157.9232 356.8775 160.4450 C359.6300 163.7315 366.9700 174.1398 366.9200 178.3835 C366.9000 179.9635 366.1400 181.3380 364.9950 182.3938 C363.9725 183.3342 362.4050 184.2157 360.9650 183.8990 C358.3800 183.3307 355.5275 180.6953 353.1100 179.4848 C345.0625 175.4563 335.5450 173.9538 326.6400 173.7055 C323.9425 173.1927 320.9500 173.4563 318.2225 173.6270 C309.4850 174.1745 301.3150 175.5465 293.2425 179.0912 C289.9600 180.5320 287.0550 182.7672 283.7200 184.0753 L283.3925 184.2015 C282.6950 183.9315 281.9750 183.6667 281.3425 183.2608 C280.0775 182.4475 279.1775 181.0050 278.9050 179.5343 C278.0150 174.7007 283.3925 167.1435 286.0900 163.4252 C294.4875 151.8578 304.5375 144.3737 318.8075 142.1100 Z"></path>
<path id="" fill="#b55005" fill-opacity="1.0" stroke="#000000" stroke-width="0.0" stroke-opacity="1.0" stroke-linecap="round" stroke-linejoin="round"  filling="0" d="M332.7400 341.7225 C333.1500 341.7350 333.3700 341.7200 333.6450 342.0675 C334.5750 343.2400 335.2350 345.1750 335.9625 346.5225 C336.9325 348.3200 338.0275 350.0325 338.8850 351.8950 C342.7300 360.2475 344.7675 370.1350 345.0650 379.3250 C345.5200 393.3475 339.8075 408.2275 332.5125 419.9000 C330.9450 422.4100 329.3925 425.2000 327.3200 427.3350 C326.0675 428.6250 325.1025 429.3075 323.2850 429.3250 C322.3925 428.9925 321.3775 428.4175 320.9975 427.4850 C320.6675 426.6725 321.1650 425.4875 321.5125 424.7450 C322.9825 421.6175 325.2825 418.7650 326.9850 415.7425 C329.4975 411.2750 331.5350 405.9225 333.1825 401.0700 C337.9400 387.0475 338.7975 370.9250 332.9300 357.0925 C331.1425 352.8725 328.5450 349.1025 326.5450 345.0000 L326.4050 344.7075 C328.4825 343.6400 330.5950 342.6450 332.7400 341.7225 Z"></path>
<path id="" fill="#b55005" fill-opacity="1.0" stroke="#000000" stroke-width="0.0" stroke-opacity="1.0" stroke-linecap="round" stroke-linejoin="round"  filling="0" d="M177.9040 341.7475 C180.3282 341.8950 182.2360 342.4700 184.4255 343.4950 C183.5750 346.7700 181.6393 349.4850 180.0907 352.4500 C179.0997 354.3475 178.2970 356.3625 177.5670 358.3750 C171.0440 376.3500 174.9612 395.3300 183.1310 412.0600 C183.8145 413.4600 184.4738 414.9500 185.2878 416.2750 C186.8033 418.7425 190.0455 422.1150 190.3053 425.0350 C190.4133 426.2475 189.5470 427.2375 188.8065 428.0775 L187.9698 428.3675 C186.3427 428.1425 185.2510 427.4175 184.0995 426.2625 C181.9397 424.0925 180.2932 421.3000 178.6662 418.7200 C170.6918 406.0800 166.8853 393.0225 166.8695 378.0900 C166.8663 374.9100 166.8692 371.7400 167.3237 368.5850 C168.4068 361.0775 172.5415 347.1175 177.9040 341.7475 Z"></path>
</svg>