<svg xmlns="http://www.w3.org/2000/svg" viewBox="0 0 512 512" height="512.0px" width="512.0px">
<path id="" fill="#d4ab88" fill-opacity="1.0" stroke="#000000" stroke-width="0.0" stroke-opacity="1.0" stroke-linecap="round" stroke-linejoin="round"  filling="0" d="M95.2760 160.1062 C105.6395 159.1102 121.7320 160.7323 131.9310 162.9967 C140.4868 164.8963 149.2397 167.4340 157.3483 170.7660 C184.2245 182.0592 207.0083 201.2953 222.6480 225.8975 C242.5185 257.3100 249.8950 294.6025 241.7563 330.9975 C233.5985 366.9025 211.5125 398.0975 180.3560 417.7200 C163.3557 428.6525 141.6172 436.1775 121.4658 437.9375 C117.1985 438.3100 112.7790 438.7125 108.4977 438.7175 C92.3047 438.6150 76.2563 435.6625 61.0872 429.9950 C58.2050 428.9375 53.6750 427.8800 51.3313 425.9075 C50.7430 423.0725 50.9735 419.9200 50.9723 417.0275 L50.9763 404.1975 L50.9857 356.9775 L50.9388 169.5957 C65.1905 164.3370 80.1205 161.1418 95.2760 160.1062 Z"></path>
<path id="" fill="#f6dece" fill-opacity="1.0" stroke="#000000" stroke-width="0.0" stroke-opacity="1.0" stroke-linecap="round" stroke-linejoin="round"  filling="0" d="M403.3875 160.1008 C407.5800 159.3725 412.6425 159.9975 416.8775 160.4025 C428.2200 161.4877 439.1750 163.2715 450.1625 166.3797 C453.8250 167.4160 457.5025 168.4368 460.9625 170.0495 C461.2700 173.4240 461.1025 176.8940 461.0950 180.2838 L461.0825 196.2050 L461.0775 249.5788 L461.1200 425.3000 C456.5200 428.0850 450.9375 429.9900 445.8075 431.6000 C411.3125 442.7825 373.7675 439.6150 341.6325 422.8150 C333.2475 418.1925 325.1400 413.0625 317.7450 406.9625 C289.7200 384.0550 271.9300 350.9625 268.2825 314.9500 C265.0475 277.2850 276.8275 239.8680 301.0600 210.8508 C317.4875 190.9470 342.5100 174.3683 367.1825 166.7525 C379.0325 163.0957 391.0900 161.2865 403.3875 160.1008 Z"></path>
<path id="" fill="#963b22" fill-opacity="1.0" stroke="#000000" stroke-width="0.0" stroke-opacity="1.0" stroke-linecap="round" stroke-linejoin="round"  filling="0" d="M50.9895 166.8457 C82.5927 150.7350 119.8033 146.6795 154.4340 153.6808 C161.7300 155.1557 168.9377 157.3795 176.0112 159.6727 C195.9785 166.1460 222.3468 181.4978 232.1980 200.6633 C236.8378 209.6895 238.1080 219.2908 234.9297 228.9948 C229.4485 245.7315 212.9870 258.0425 197.7990 265.6425 C183.4905 272.8025 166.4653 276.8700 150.5300 277.9125 C144.5980 278.3025 138.5108 278.1000 132.5650 278.0925 C126.4760 278.0850 120.2825 278.2550 114.2047 277.8800 C109.8540 277.6100 105.4973 276.9650 101.1740 276.4175 C96.7050 275.8525 88.7513 275.3150 84.6752 273.9900 C84.3672 273.8875 84.1205 273.7450 83.8440 273.5825 C83.5795 272.2475 84.8795 270.2900 85.6147 269.1825 C87.7295 265.9975 98.5388 251.8475 101.3037 250.2650 C101.2800 249.8030 101.2765 249.3060 101.1833 248.8530 C101.0348 248.1317 100.7265 247.9413 100.1438 247.5488 L99.7625 247.7225 C96.8047 249.0495 93.5573 249.9890 90.5385 251.2350 C83.8983 254.0000 77.3845 257.0575 71.0163 260.4025 C64.7422 263.6525 57.3140 269.4250 51.2040 271.7100 C50.8903 265.8575 51.0163 259.9675 51.0165 254.1075 L51.0202 227.2498 L51.0228 185.7790 C51.0220 179.4747 50.8815 173.1463 50.9895 166.8457 Z"></path>
<path id="" fill="#d2a885" fill-opacity="1.0" stroke="#000000" stroke-width="0.0" stroke-opacity="1.0" stroke-linecap="round" stroke-linejoin="round"  filling="0" d="M100.1438 247.5488 L99.6935 247.4203 C100.1657 247.2153 100.5770 247.0825 101.0785 246.9690 C103.0325 246.5270 105.1870 245.5425 107.0338 244.7453 C105.5955 246.2820 103.1615 249.5443 101.3037 250.2650 C101.2800 249.8030 101.2765 249.3060 101.1833 248.8530 C101.0348 248.1317 100.7265 247.9413 100.1438 247.5488 Z"></path>
<path id="" fill="#292f33" fill-opacity="1.0" stroke="#000000" stroke-width="0.0" stroke-opacity="1.0" stroke-linecap="round" stroke-linejoin="round"  filling="0" d="M429.4675 273.3850 C429.2075 273.4525 428.9475 273.5150 428.6850 273.5750 C422.6100 274.9900 414.0600 275.7700 407.6925 276.4875 C373.3325 280.3550 335.2575 279.0375 305.1850 260.0675 C292.3375 251.9675 279.9425 241.6105 276.5250 226.0103 C274.2925 215.8132 277.4300 205.1370 282.9450 196.5372 C297.6875 173.5587 330.7700 159.4215 356.5700 153.9345 C385.7325 147.7502 416.0375 149.7802 444.1125 159.7985 C449.6550 161.7835 455.9550 163.9745 460.8950 167.2112 C460.7600 170.5510 460.9750 173.9733 460.9825 177.3237 L460.9950 200.7800 L461.0400 272.0150 C456.2725 269.1375 451.6750 265.9925 446.8750 263.1675 C439.0250 258.5550 430.8500 254.5200 422.4125 251.0950 C419.0175 249.6820 414.8825 247.7513 411.1775 247.6792 L410.5100 249.4288 C410.7700 250.7300 419.1400 259.6025 420.7025 261.5450 C423.7875 265.3925 426.6750 269.3225 429.4675 273.3850 Z"></path>
<path id="" fill="#f3daca" fill-opacity="1.0" stroke="#000000" stroke-width="0.0" stroke-opacity="1.0" stroke-linecap="round" stroke-linejoin="round"  filling="0" d="M404.8125 244.8265 L411.6225 246.9815 L411.5800 247.3533 L412.1225 247.3123 C411.9250 247.6050 411.5125 247.5960 411.1775 247.6792 L410.5100 249.4288 L410.4900 249.8770 L410.2450 250.0250 C408.2875 248.7405 406.5425 246.4595 404.8125 244.8265 Z"></path>
<path id="" fill="#dc2e44" fill-opacity="1.0" stroke="#000000" stroke-width="0.0" stroke-opacity="1.0" stroke-linecap="round" stroke-linejoin="round"  filling="0" d="M209.2495 73.8930 C212.7870 73.4945 216.6082 73.6705 220.1265 74.1825 C231.7430 75.8733 243.2120 81.5432 251.3325 90.0765 C253.0950 91.9283 254.5925 94.0390 256.1175 96.0865 C258.1150 92.8640 260.5625 89.9440 263.3850 87.4142 C274.3050 77.6608 288.7225 72.7680 303.3250 73.8603 C317.2850 74.8030 330.9900 81.3572 340.2100 91.9438 C350.1400 103.3475 354.0300 117.6455 352.9525 132.5290 C350.9250 160.6033 331.2225 189.7690 311.9825 209.4180 C307.4625 214.0323 302.5050 218.3078 297.6050 222.5135 C295.2100 224.5105 292.8225 226.5535 290.3325 228.4323 C288.2325 230.0157 283.6225 232.8172 282.2025 234.5685 C281.6600 235.2400 281.9300 236.8867 281.7425 237.7838 L281.4575 237.8992 C280.6875 237.3602 280.2075 236.6107 279.6600 235.8595 C272.1975 240.0358 263.9650 245.7928 255.6625 248.0220 C248.4020 245.3755 237.2057 239.4390 230.7948 235.0208 C229.0878 233.8445 227.5002 232.4603 225.8392 231.2150 C220.6158 227.2985 215.5202 223.3170 210.6005 219.0193 C207.5508 216.3550 204.7385 213.3333 201.8777 210.4673 C198.8885 207.4720 195.7708 204.5315 192.9543 201.3723 C176.3700 182.7708 160.5255 156.4950 159.0235 131.0845 C158.1560 116.4095 162.6865 102.0455 172.6010 91.0443 C181.8615 80.7693 195.4863 74.5565 209.2495 73.8930 Z"></path>
<path id="" fill="#c1694f" fill-opacity="1.0" stroke="#000000" stroke-width="0.0" stroke-opacity="1.0" stroke-linecap="round" stroke-linejoin="round"  filling="0" d="M164.1313 353.0175 C167.1693 352.7125 170.4020 353.2150 173.1508 354.5700 C176.9455 356.4400 180.0380 359.9450 181.3143 363.9850 C183.3155 370.3200 181.7482 375.8700 178.7830 381.5575 C180.4888 384.6500 181.9467 387.4175 182.1902 391.0200 C182.5025 395.6400 181.5907 400.6425 178.4227 404.1850 C175.5777 407.3675 170.4830 409.8975 166.2040 410.0750 C163.8687 410.1725 162.2872 409.5075 160.5655 407.9750 C159.8060 406.9575 159.1873 405.8750 158.8885 404.6300 C157.5230 398.9400 165.9730 398.5750 168.4830 396.9825 C169.1517 396.5575 169.5625 395.8925 169.9825 395.2400 C170.1640 393.0950 170.1510 391.0925 169.8615 388.9600 C166.8635 387.4325 163.0247 387.5150 160.4360 385.1800 C159.3985 384.2450 158.8407 383.0150 158.8092 381.6175 C158.6758 375.6750 166.6285 376.1075 169.7388 372.8375 C169.8098 372.7625 169.8790 372.6850 169.9492 372.6100 C170.1345 370.9975 170.1512 369.5500 170.0517 367.9275 C168.4220 365.1050 165.9062 364.9475 163.1167 363.9000 C161.8318 363.4150 160.7470 362.6275 160.2027 361.3325 C159.5640 359.8125 159.4877 357.1225 160.1645 355.6175 C160.8715 354.0475 162.6420 353.5650 164.1313 353.0175 Z"></path>
<path id="" fill="#c1694f" fill-opacity="1.0" stroke="#000000" stroke-width="0.0" stroke-opacity="1.0" stroke-linecap="round" stroke-linejoin="round"  filling="0" d="M346.2300 352.8550 C347.6950 352.8900 349.4000 352.9925 350.5650 353.9825 C351.8650 355.0900 352.7400 356.8900 352.8300 358.5900 C353.1125 363.7525 347.1250 363.9725 343.8575 365.7250 C343.1900 366.0825 342.6900 366.7050 342.2025 367.2700 L341.9875 367.5250 C341.5800 369.2400 341.6150 370.6375 341.8800 372.3550 C344.2725 376.1150 349.2700 374.7475 352.1225 378.0025 C352.9775 378.9775 353.3575 380.1475 353.2350 381.4400 C352.6075 388.0875 346.3825 385.8875 342.9500 389.0175 C341.9650 389.9125 341.5325 391.1025 341.5350 392.4175 C341.5400 399.9825 348.2850 396.4775 351.7225 400.3600 C353.0400 401.8475 353.1025 403.9250 353.0100 405.8050 C352.2175 407.3925 351.2000 408.7275 349.5575 409.4875 C346.8900 410.7250 343.4850 410.0225 340.8475 408.9775 C336.6650 407.3200 332.9050 404.3550 331.1125 400.1375 C329.5100 396.3675 329.2850 390.3875 330.7450 386.5625 C331.4225 384.7800 332.5375 383.1875 333.2575 381.4125 L333.3525 381.1725 C331.5450 378.3425 330.2925 375.6700 329.9800 372.2850 C329.5225 367.3025 330.2875 362.7100 333.6125 358.8050 C336.9775 354.8550 341.1675 353.2925 346.2300 352.8550 Z"></path>
<path id="" fill="#662113" fill-opacity="1.0" stroke="#000000" stroke-width="0.0" stroke-opacity="1.0" stroke-linecap="round" stroke-linejoin="round"  filling="0" d="M130.2795 295.8125 C131.4950 295.9000 132.6930 295.9275 133.7832 296.5375 C135.2185 297.3425 136.1920 298.5975 136.6348 300.1775 C138.0117 305.0925 134.8913 313.7075 132.3150 317.9800 C128.6658 324.0300 123.0510 328.0025 116.1400 329.5050 C113.7637 330.0225 111.3318 330.1550 108.9725 330.7675 C108.8687 330.7925 108.7655 330.8225 108.6620 330.8500 C107.5577 330.7975 106.6395 330.4425 105.6835 329.8900 C103.9983 328.9125 102.3985 327.3700 101.9335 325.4125 C101.6302 324.1375 101.8863 322.9125 102.6390 321.8450 C105.3423 318.0075 109.1628 318.4575 113.2117 317.6675 C119.6125 316.4200 123.2280 311.4900 124.3353 305.3875 C124.7715 302.9825 124.8555 300.1300 126.3215 298.0875 C127.3265 296.6850 128.6348 296.1300 130.2795 295.8125 Z"></path>
<path id="" fill="#662113" fill-opacity="1.0" stroke="#000000" stroke-width="0.0" stroke-opacity="1.0" stroke-linecap="round" stroke-linejoin="round"  filling="0" d="M187.3180 295.8225 C188.7715 295.9175 190.3842 295.9625 191.5510 296.9550 C193.1050 298.2800 193.8505 300.4725 193.8995 302.4625 C194.0650 309.2125 190.1630 317.7975 185.6232 322.6850 C180.3208 328.3975 173.2420 329.9300 165.7843 330.1550 C163.5712 330.0350 162.2728 329.8550 160.3575 328.6150 C160.0090 328.0000 159.6492 327.3750 159.3992 326.7125 C158.5903 324.5650 159.0215 322.8900 159.9438 320.9025 C164.3020 317.6200 166.9297 318.7950 171.5235 317.3200 C173.5350 316.6750 175.2233 315.5175 176.7270 314.0600 C182.6130 308.3500 180.1085 303.6400 183.0570 297.8725 C183.0983 297.7900 183.1425 297.7125 183.1853 297.6300 C184.5295 296.5975 185.6835 296.1675 187.3180 295.8225 Z"></path>
<path id="" fill="#662113" fill-opacity="1.0" stroke="#000000" stroke-width="0.0" stroke-opacity="1.0" stroke-linecap="round" stroke-linejoin="round"  filling="0" d="M379.4950 296.0400 C381.4200 295.8775 382.7775 296.1475 384.5625 296.7900 C388.3125 301.0625 386.7200 307.1125 390.3975 312.5650 C394.3700 318.4550 399.0525 317.5550 404.8375 318.8750 C406.5675 319.2725 408.2475 320.1250 409.1550 321.7125 C409.8875 322.9900 410.0050 324.8125 409.5950 326.2100 C408.9950 328.2550 407.2875 329.3000 405.5025 330.2000 C400.3800 330.4775 394.9225 329.7025 390.2850 327.4275 C383.7000 324.2000 379.1900 318.5175 376.8925 311.6150 C375.6850 307.9825 374.1600 302.2900 376.0975 298.7175 C376.8425 297.3450 378.0150 296.4775 379.4950 296.0400 Z"></path>
<path id="" fill="#662113" fill-opacity="1.0" stroke="#000000" stroke-width="0.0" stroke-opacity="1.0" stroke-linecap="round" stroke-linejoin="round"  filling="0" d="M322.4250 296.0675 C324.4075 295.8800 325.7550 296.0850 327.5925 296.7750 C331.3925 300.9650 329.9850 307.3750 333.5725 312.5325 C337.3350 317.9500 341.7950 317.6850 347.4975 318.8350 C349.3175 319.2000 351.1475 320.0075 352.1475 321.6550 C352.8875 322.8725 353.0575 324.5950 352.6625 325.9575 C352.0675 327.9950 350.2950 329.2500 348.5150 330.1900 C343.4800 330.3825 338.3325 329.7400 333.7325 327.5725 C327.3200 324.5550 322.6725 318.9475 320.2875 312.3350 C318.9400 308.5975 317.2050 302.6375 319.0875 298.8750 C319.8050 297.4450 320.9375 296.5825 322.4250 296.0675 Z"></path>
</svg>