<svg xmlns="http://www.w3.org/2000/svg" viewBox="0 0 512 512" height="512.0px" width="512.0px">
<path id="" fill="#58595b" fill-opacity="1.0" stroke="#000000" stroke-width="0.0" stroke-opacity="1.0" stroke-linecap="round" stroke-linejoin="round"  filling="0" d="M164.3058 383.1250 C163.6805 372.0275 166.5668 360.6925 174.1322 352.2725 C180.9095 344.7300 191.4102 339.6800 201.5538 339.2175 C211.7103 338.7550 222.9182 343.1475 230.4105 349.9725 C237.7215 356.6300 241.4970 367.2500 241.8553 376.9575 C242.0710 382.7975 240.4317 390.5475 237.2207 395.4925 C235.8192 397.6525 234.0172 399.5775 232.9953 401.9600 C232.1035 404.0400 231.7713 406.4325 231.1718 408.6125 C229.9165 413.1775 227.0005 418.2400 223.7495 421.6600 C217.8817 427.8350 209.4300 431.8050 200.8793 431.9525 C191.5945 432.1125 182.0820 428.8625 175.3568 422.3100 C172.4940 419.5200 169.9520 415.6150 168.4987 411.8975 C167.8777 410.3100 167.5018 408.7075 166.7040 407.1875 C166.2713 406.3625 166.2635 405.5300 165.4592 404.9525 L164.7697 404.8850 C162.9365 406.4650 162.0305 410.7450 160.9370 412.9975 C159.3692 416.2275 157.3642 419.5450 154.8943 422.1675 C148.2825 429.1900 138.0027 432.6725 128.5155 431.9275 C119.8457 431.2450 110.8307 426.7800 105.2065 420.1100 C99.5095 413.2575 96.7220 404.4475 97.4402 395.5625 C98.1992 387.0000 102.1103 377.6800 108.8692 372.1425 C115.9510 366.3425 125.3680 363.1850 134.5253 364.0875 C143.3300 365.0450 151.4037 369.4300 156.9995 376.2950 C157.8098 377.2950 158.6953 378.2875 159.3833 379.3750 C160.0605 380.4475 160.5423 381.7300 161.3038 382.7325 C161.5697 383.0825 161.7448 383.2100 162.1510 383.3725 C162.8590 383.2325 163.5875 383.1925 164.3058 383.1250 Z"></path>
<path id="" fill="#4f5052" fill-opacity="1.0" stroke="#000000" stroke-width="0.0" stroke-opacity="1.0" stroke-linecap="round" stroke-linejoin="round"  filling="0" d="M164.3058 383.1250 C165.9800 386.9450 165.5920 392.4875 165.3590 396.5450 C164.1760 392.2425 162.8040 387.9175 161.7380 383.5925 L162.1510 383.3725 C162.8590 383.2325 163.5875 383.1925 164.3058 383.1250 Z"></path>
<path id="" fill="#58595b" fill-opacity="1.0" stroke="#000000" stroke-width="0.0" stroke-opacity="1.0" stroke-linecap="round" stroke-linejoin="round"  filling="0" d="M348.7600 378.3525 C351.1425 366.6450 356.8200 356.0450 366.9125 349.3125 C372.7950 345.3900 378.8075 343.6025 385.3775 341.3525 C388.1575 340.4000 390.8175 339.0900 393.5700 338.0600 C399.7100 335.8025 406.3500 335.2725 412.7725 336.5250 C423.0575 338.5875 433.0450 344.2725 438.8575 353.1625 C444.8725 362.3625 447.3525 373.7850 444.9975 384.5800 C443.6925 390.5675 441.3075 396.8450 437.4875 401.7050 C435.9625 403.6425 434.1625 405.3775 432.7225 407.3750 C431.0000 409.7650 429.6625 412.4375 428.0250 414.8850 C425.0550 419.3300 420.4175 422.5575 415.9725 425.3925 C406.4550 431.4600 393.8825 433.4550 382.8950 430.9425 C371.3575 428.3075 361.2500 421.7200 354.9500 411.6425 C352.4925 407.7075 350.2575 403.0850 349.5725 398.4550 C349.4100 397.3625 349.4225 395.0875 348.3825 394.5450 C347.7675 394.5975 347.1525 394.6500 346.5375 394.7225 L346.2050 394.7350 L345.5875 394.6100 C345.5650 391.5575 346.1450 388.5225 346.0900 385.4325 C346.0475 382.9375 345.0975 380.0850 345.3925 377.6850 C346.5075 377.9125 347.6325 378.1900 348.7600 378.3525 Z"></path>
<path id="" fill="rgb(246,245,246)" fill-opacity="1.0" stroke="#000000" stroke-width="0.0" stroke-opacity="1.0" stroke-linecap="round" stroke-linejoin="round"  filling="0" d="M345.3925 377.6850 C346.5075 377.9125 347.6325 378.1900 348.7600 378.3525 C348.4325 381.7550 348.1475 385.1300 348.2525 388.5550 C348.3000 390.1475 348.6650 391.7850 348.6275 393.3600 C348.6150 393.9175 348.6650 393.8825 348.2175 394.2625 C348.0500 394.2775 347.8825 394.2900 347.7150 394.3075 C347.2275 394.3525 346.9500 394.4425 346.5375 394.7225 L346.2050 394.7350 L345.5875 394.6100 C345.5650 391.5575 346.1450 388.5225 346.0900 385.4325 C346.0475 382.9375 345.0975 380.0850 345.3925 377.6850 Z"></path>
<path id="" fill="#58585a" fill-opacity="1.0" stroke="#000000" stroke-width="0.0" stroke-opacity="1.0" stroke-linecap="round" stroke-linejoin="round"  filling="0" d="M346.2050 394.7350 C345.7675 395.0100 345.6775 395.1000 345.4550 395.5500 C344.7250 397.0225 344.3650 398.9000 343.8425 400.4700 C343.0300 402.8875 342.0500 405.2450 340.9125 407.5275 C335.5850 418.4150 326.7175 425.7950 315.2550 429.7100 C304.2625 433.4600 291.3525 432.3075 280.9900 427.1500 C270.6075 422.0950 262.7375 413.0225 259.2025 402.0300 C255.0650 389.3225 255.7250 376.3850 261.9400 364.4125 C267.5425 353.6200 276.6600 346.7775 288.1650 343.1575 C299.3975 339.6175 311.5800 340.7525 321.9625 346.3100 C335.9900 353.7675 340.9700 363.0825 345.3925 377.6850 C345.0975 380.0850 346.0475 382.9375 346.0900 385.4325 C346.1450 388.5225 345.5650 391.5575 345.5875 394.6100 L346.2050 394.7350 Z"></path>
<path id="" fill="#231f20" fill-opacity="1.0" stroke="#000000" stroke-width="0.0" stroke-opacity="1.0" stroke-linecap="round" stroke-linejoin="round"  filling="0" d="M110.2923 335.9225 C110.5788 335.9925 110.8660 336.0550 111.1530 336.1225 C115.1777 337.0700 120.2575 336.4150 124.4258 336.3550 C129.6248 336.2925 134.8240 336.2600 140.0235 336.2525 L218.5948 336.2450 L374.3825 336.2675 L423.4350 336.2300 C431.9525 336.2500 441.7775 336.8550 450.0800 336.1575 C449.3575 340.0125 449.6650 344.1925 449.7000 348.1100 C449.7425 352.5475 449.7575 356.9850 449.7450 361.4225 L449.7450 384.3175 C449.7450 388.8450 449.5600 393.4700 449.9050 397.9825 C448.1475 397.9300 436.9475 397.7250 436.1300 398.1925 C435.5375 398.5325 436.2775 398.2300 435.5575 398.4900 C435.2075 396.6850 436.3075 394.6225 436.9375 392.9550 C437.0875 392.5600 437.2575 392.1600 437.3475 391.7450 C437.6600 390.2725 437.6425 388.5900 437.7200 387.0850 C438.1600 378.4275 435.7300 370.9125 431.0875 363.6225 C429.1875 360.6400 426.8800 357.4375 424.3800 354.9500 C418.6575 349.2575 409.8375 344.7275 402.0225 343.0025 C389.6950 340.2825 377.9175 343.0350 367.4350 349.7075 C357.7675 356.4300 350.6550 367.1825 349.1475 378.9475 C348.6775 382.6000 348.8750 386.5850 349.1050 390.2600 C349.2550 392.6400 350.6250 396.2950 350.0125 398.4600 C349.5200 398.4900 349.4500 398.5700 349.0050 398.2925 C348.2425 397.8150 347.9425 397.7150 347.0200 397.7075 C346.3175 397.7000 345.8425 397.6850 345.1825 397.4550 C344.1700 395.9700 345.6800 387.1550 345.7875 384.8925 C346.0675 379.0150 343.2375 370.1000 340.4725 364.8975 C338.6650 361.4950 336.2025 358.1275 333.6025 355.2750 C326.5725 347.5600 315.2650 342.4425 304.8750 342.0625 C292.9300 341.6250 280.7825 345.2975 271.9150 353.5500 C269.6450 355.6625 267.3150 357.9025 265.4325 360.3675 C259.3000 368.4075 256.4250 379.0450 257.2300 389.0825 C257.3375 390.4150 257.4725 391.7625 257.7875 393.0650 C258.2225 394.8675 259.1000 396.3850 259.0350 398.3000 L258.7275 398.5825 C254.3850 396.8100 240.0573 398.8275 233.5923 397.5925 C233.1602 397.2375 232.9520 397.1025 232.7717 396.5525 C232.4060 395.4350 232.4520 393.9200 232.3022 392.7300 C232.0175 390.5475 231.5282 388.3950 230.8415 386.3050 C228.2693 378.6275 221.3873 371.7250 214.2125 368.1800 C206.7230 364.4775 196.4702 363.8100 188.5627 366.4975 C180.7040 369.1700 173.1650 375.6975 169.0493 382.8725 C167.9170 384.8450 167.7000 387.3600 166.6465 389.3975 C166.1790 390.3000 165.7335 390.8375 164.7337 391.1325 C162.5885 390.5800 161.8670 386.1725 161.1228 384.2850 C158.8873 378.6125 153.6078 373.1475 148.6358 369.7675 C140.5063 364.2375 129.5448 363.4725 120.4642 366.9500 C117.5725 368.0575 114.3880 370.0750 111.3995 370.6500 C110.2255 369.4500 111.3297 341.1850 110.3913 336.4050 L110.2923 335.9225 Z"></path>
<path id="" fill="#929497" fill-opacity="1.0" stroke="#000000" stroke-width="0.0" stroke-opacity="1.0" stroke-linecap="round" stroke-linejoin="round"  filling="0" d="M361.3000 419.5075 C362.9150 420.0500 364.9275 422.3525 366.4175 423.3850 C371.1000 426.6325 376.3225 429.0250 381.8400 430.4525 C392.7300 433.2700 405.3800 431.7850 414.9650 425.6925 C417.3500 424.1775 419.9500 421.5550 422.7825 421.1300 C426.4125 420.5850 430.6000 420.9775 434.2850 420.9925 C443.2350 421.0250 452.2475 421.2550 461.1900 420.9600 C460.9350 428.4075 461.0000 435.9800 461.1300 443.4275 C458.0775 443.1725 454.8100 443.4475 451.7350 443.4675 L432.9750 443.5025 L363.4650 443.4925 L125.5788 443.5075 L73.7498 443.5300 C66.2408 443.5425 58.4670 443.1275 50.9893 443.6125 C50.8123 436.1100 51.0185 428.5775 50.9478 421.0700 L85.5575 421.0625 C90.7142 421.0650 100.7408 421.7025 105.3423 420.4350 C107.2965 421.6625 109.0610 423.3225 110.8652 424.7675 C114.9335 428.0625 119.7697 430.2725 124.9235 431.1950 C133.8573 432.7525 141.8600 431.3325 149.3265 426.1200 C151.5323 424.5825 153.5087 422.7525 155.7180 421.2300 L155.9498 421.0725 C161.8765 420.7950 168.5538 420.5475 174.4218 421.3150 C176.3333 422.6800 178.0692 424.2925 179.9815 425.6625 C184.2598 428.7325 189.8848 430.6300 195.0358 431.5175 C202.5435 432.8100 213.6070 430.2200 219.4402 425.2275 C220.8660 424.0050 222.6582 421.2550 224.4050 420.6800 C225.1420 420.4375 233.1828 421.0525 234.5943 421.0625 C245.1797 421.1475 255.7900 420.7550 266.3700 421.1250 C268.1475 421.1850 268.7225 421.1525 270.2150 420.0925 C270.4450 419.9300 270.5025 419.8000 270.8200 419.9375 C272.1450 420.5075 276.2525 423.9425 278.0475 425.0375 C284.3625 428.8925 291.3000 430.9800 298.6550 431.7950 C306.5250 432.6650 315.5150 430.0850 322.4425 426.4350 C324.4675 425.3675 330.8350 419.7575 332.4950 419.9225 L332.4700 420.7025 C334.0900 421.2900 358.3750 421.3275 360.6350 420.9125 C361.1800 420.4925 361.1350 420.1500 361.3000 419.5075 Z"></path>
<path id="" fill="#231f20" fill-opacity="1.0" stroke="#000000" stroke-width="0.0" stroke-opacity="1.0" stroke-linecap="round" stroke-linejoin="round"  filling="0" d="M100.8080 193.4353 L101.4620 193.5835 C101.8445 194.0603 101.8932 194.4433 101.9122 195.0330 C102.0283 198.6393 101.7275 202.3365 101.7200 205.9565 L101.7410 234.6918 L102.0052 297.9575 C101.9887 305.5975 101.6885 313.2200 101.7168 320.8650 C101.7288 324.1325 101.6175 327.4400 101.9778 330.6900 C96.4735 328.6875 92.3423 322.6425 89.0323 318.0650 C87.5457 316.2025 86.2442 313.9100 85.0957 311.8250 C83.1565 308.3025 81.7578 304.6225 80.4167 300.8475 C72.4977 278.5450 71.7650 250.7100 78.4420 228.0100 C81.9305 216.1508 86.5925 206.4830 95.6243 197.8610 C97.2010 196.3557 98.8938 194.4850 100.8080 193.4353 Z"></path>
<path id="" fill="#f4900c" fill-opacity="1.0" stroke="#000000" stroke-width="0.0" stroke-opacity="1.0" stroke-linecap="round" stroke-linejoin="round"  filling="0" d="M381.5625 370.8750 C385.8475 368.8550 389.0125 368.2850 393.7550 368.7750 C395.0450 368.9075 396.4300 369.0225 397.6600 369.4425 C399.5925 370.1050 400.7975 371.1875 401.6850 373.0225 C401.9800 373.9500 402.0550 374.5675 402.7650 375.2475 C405.1925 374.6650 407.2250 375.1575 409.3300 376.4475 C412.2150 378.2175 413.7675 380.7550 414.4925 384.0050 C415.4525 388.3025 414.0375 392.7275 411.6975 396.3750 C409.1250 400.3850 404.8175 402.5300 400.2700 403.4650 C393.7300 404.8100 385.6550 403.1150 379.8800 399.8425 C379.1000 399.4400 378.3200 399.0200 377.5825 398.5450 C373.8875 396.1625 370.8900 392.4300 369.9625 388.0925 C369.4050 385.4900 368.8950 380.9150 370.5025 378.6675 C371.1450 377.7650 372.3050 377.0775 373.1450 376.3525 C376.2700 373.6500 377.1975 371.7125 381.5625 370.8750 Z"></path>
<path id="" fill="#e77a0f" fill-opacity="1.0" stroke="#000000" stroke-width="0.0" stroke-opacity="1.0" stroke-linecap="round" stroke-linejoin="round"  filling="0" d="M402.7650 375.2475 C405.1925 374.6650 407.2250 375.1575 409.3300 376.4475 C412.2150 378.2175 413.7675 380.7550 414.4925 384.0050 C415.4525 388.3025 414.0375 392.7275 411.6975 396.3750 C409.1250 400.3850 404.8175 402.5300 400.2700 403.4650 C393.7300 404.8100 385.6550 403.1150 379.8800 399.8425 C384.6350 398.0525 390.9350 400.7500 396.8475 397.8475 C399.9650 396.3175 402.5000 393.5525 403.6075 390.2450 C405.1350 385.6825 403.6325 380.7225 401.5025 376.6225 C401.8750 376.1300 402.3400 375.6950 402.7650 375.2475 Z"></path>
<path id="" fill="rgb(168,23,34)" fill-opacity="1.0" stroke="#000000" stroke-width="0.0" stroke-opacity="1.0" stroke-linecap="round" stroke-linejoin="round"  filling="0" d="M381.5625 370.8750 C385.8475 368.8550 389.0125 368.2850 393.7550 368.7750 C395.0450 368.9075 396.4300 369.0225 397.6600 369.4425 C399.5925 370.1050 400.7975 371.1875 401.6850 373.0225 C401.9800 373.9500 402.0550 374.5675 402.7650 375.2475 C402.3400 375.6950 401.8750 376.1300 401.5025 376.6225 C400.4025 375.4500 399.5250 374.1525 398.3375 373.0400 C392.7975 370.0675 391.0750 371.3225 385.3050 371.7275 C383.7300 371.8375 382.7775 371.9350 381.5625 370.8750 Z"></path>
<path id="" fill="#a0041e" fill-opacity="1.0" stroke="#000000" stroke-width="0.0" stroke-opacity="1.0" stroke-linecap="round" stroke-linejoin="round"  filling="0" d="M300.3000 371.0450 C310.0150 370.6425 318.2100 378.2100 318.5775 387.9275 C318.9450 397.6425 311.3475 405.8100 301.6275 406.1425 C291.9600 406.4725 283.8450 398.9225 283.4800 389.2550 C283.1150 379.5875 290.6350 371.4450 300.3000 371.0450 Z"></path>
<path id="" fill="#f38f0c" fill-opacity="1.0" stroke="#000000" stroke-width="0.0" stroke-opacity="1.0" stroke-linecap="round" stroke-linejoin="round"  filling="0" d="M279.0175 390.6200 C273.9100 389.1300 268.8250 386.5700 263.9500 384.4625 C260.4400 382.9425 256.8475 381.6250 253.3400 380.1025 C249.8707 378.5950 245.7705 376.2300 242.0038 375.7250 C237.1483 375.0775 231.7867 375.7950 226.8732 375.8400 L186.9458 375.8700 L172.2500 375.7450 C169.6593 375.7300 166.9885 375.9550 164.4093 375.7200 C163.1973 375.6075 162.0695 375.3850 160.9590 374.8700 C157.7820 373.3975 155.1647 370.0900 153.9460 366.8450 C153.0323 364.4125 153.1865 362.2950 154.2988 359.9425 C155.4595 357.4875 158.2108 354.2025 160.8557 353.2850 C161.7585 352.9725 162.6505 352.7850 163.6055 352.7500 C168.5260 352.5800 173.5847 352.8900 178.5255 352.8875 L217.6735 352.9075 C223.0315 352.9325 228.3898 352.9100 233.7473 352.8400 C238.3873 352.7750 243.5890 352.1150 248.1178 353.1150 C252.9575 354.1850 257.6400 356.9475 262.2450 358.7725 L278.3650 365.2250 C281.7875 366.5875 285.3050 367.8200 288.6300 369.4050 C288.7875 369.3875 288.9450 369.3725 289.1025 369.3500 C290.5425 369.1275 292.2100 367.6000 293.5725 366.9375 C300.4275 363.6025 307.5175 365.3775 313.6575 369.4375 C315.8850 370.9075 315.8625 373.9350 317.3925 374.9225 C318.7500 375.7975 353.5050 374.7250 359.1425 375.2650 L373.2475 375.2700 C371.8725 381.5475 369.0975 386.5200 372.9775 392.6925 C373.9650 394.2625 376.2100 396.2700 376.0850 398.1500 C380.4700 398.0325 384.8575 397.9600 389.2450 397.9375 C389.0650 399.6300 389.0850 401.3650 389.0375 403.0650 C393.1900 402.8950 398.5100 403.7850 402.3725 402.2150 C404.6475 401.2925 406.6850 399.5575 409.0000 398.8025 C409.6775 398.5825 410.1625 398.5900 410.8000 398.8900 C411.1175 399.6600 411.1150 400.1675 410.7875 400.9500 C409.4500 404.1575 405.3025 406.8275 402.1775 408.0725 C396.4200 410.3675 388.5000 410.8825 382.7700 408.2750 C378.9225 406.5225 376.0575 402.6850 374.6400 398.8050 C369.5550 399.2400 364.2700 398.9500 359.1625 398.9625 L327.0075 398.9275 C318.9475 398.9350 322.1975 399.3850 317.1525 404.3675 C312.5825 408.8875 306.9600 410.1700 300.7300 410.1100 C290.9775 410.0175 283.5200 405.7700 280.6425 395.9900 C280.1400 394.2875 280.2375 391.8600 279.0175 390.6200 Z M299.1050 398.4775 C295.6575 397.7575 292.4425 396.3950 289.2900 394.8425 C288.9200 394.9400 288.5425 394.9175 288.3300 395.2675 C287.7175 396.2700 288.2150 398.2425 288.3750 399.3700 C291.7200 402.8175 296.0675 404.9200 300.9275 404.9875 C303.4125 405.0225 308.8175 403.9025 310.4950 402.1050 C311.0450 401.5150 311.0650 400.8050 310.9800 400.0175 C310.9425 399.6800 310.9025 399.6050 310.8050 399.3225 C308.4675 398.1575 302.3975 399.5900 299.1050 398.4775 Z"></path>
<path id="" fill="#5a5658" fill-opacity="1.0" stroke="#000000" stroke-width="0.0" stroke-opacity="1.0" stroke-linecap="round" stroke-linejoin="round"  filling="0" d="M279.0175 390.6200 C281.5175 391.0975 287.4125 393.1800 289.2900 394.8425 C288.9200 394.9400 288.5425 394.9175 288.3300 395.2675 C287.7175 396.2700 288.2150 398.2425 288.3750 399.3700 C291.7200 402.8175 296.0675 404.9200 300.9275 404.9875 C303.4125 405.0225 308.8175 403.9025 310.4950 402.1050 C311.0450 401.5150 311.0650 400.8050 310.9800 400.0175 C310.9425 399.6800 310.9025 399.6050 310.8050 399.3225 C308.4675 398.1575 302.3975 399.5900 299.1050 398.4775 C301.7375 398.3900 304.3900 398.5350 307.0250 398.5050 C320.1700 398.3600 333.2875 398.6650 346.4275 398.7150 C350.0775 398.7300 353.7300 398.5000 357.3825 398.4650 C363.4525 398.4050 370.0900 399.0800 376.0850 398.1500 C380.4700 398.0325 384.8575 397.9600 389.2450 397.9375 C389.0650 399.6300 389.0850 401.3650 389.0375 403.0650 C393.1900 402.8950 398.5100 403.7850 402.3725 402.2150 C404.6475 401.2925 406.6850 399.5575 409.0000 398.8025 C409.6775 398.5825 410.1625 398.5900 410.8000 398.8900 C411.1175 399.6600 411.1150 400.1675 410.7875 400.9500 C409.4500 404.1575 405.3025 406.8275 402.1775 408.0725 C396.4200 410.3675 388.5000 410.8825 382.7700 408.2750 C378.9225 406.5225 376.0575 402.6850 374.6400 398.8050 C369.5550 399.2400 364.2700 398.9500 359.1625 398.9625 L327.0075 398.9275 C318.9475 398.9350 322.1975 399.3850 317.1525 404.3675 C312.5825 408.8875 306.9600 410.1700 300.7300 410.1100 C290.9775 410.0175 283.5200 405.7700 280.6425 395.9900 C280.1400 394.2875 280.2375 391.8600 279.0175 390.6200 Z"></path>
<path id="" fill="#a0041d" fill-opacity="1.0" stroke="#000000" stroke-width="0.0" stroke-opacity="1.0" stroke-linecap="round" stroke-linejoin="round"  filling="0" d="M288.6300 369.4050 C288.7875 369.3875 288.9450 369.3725 289.1025 369.3500 C290.5425 369.1275 292.2100 367.6000 293.5725 366.9375 C300.4275 363.6025 307.5175 365.3775 313.6575 369.4375 C315.8850 370.9075 315.8625 373.9350 317.3925 374.9225 C318.7500 375.7975 353.5050 374.7250 359.1425 375.2650 C355.4475 376.1125 344.7275 375.4750 340.2450 375.4800 L317.7000 375.5025 C313.1425 375.5225 307.9750 376.0025 303.4850 375.1925 C298.5400 374.3000 293.2300 371.3900 288.6300 369.4050 Z"></path>
<path id="" fill="#9f041e" fill-opacity="1.0" stroke="#000000" stroke-width="0.0" stroke-opacity="1.0" stroke-linecap="round" stroke-linejoin="round"  filling="0" d="M385.9500 365.1150 C390.1400 364.8825 395.1350 364.5375 399.2450 365.4050 C404.7050 366.5550 409.7950 371.1025 412.7500 375.6900 C413.4525 376.7825 414.4575 378.3275 414.1700 379.6650 C413.8050 379.9975 413.8150 380.0900 413.2925 380.1500 C411.1775 380.3925 408.6975 377.3075 407.1550 376.0225 C406.1000 376.1050 405.0325 376.2925 403.9800 376.4300 L403.7975 376.3900 C402.9350 376.7650 403.3100 378.3750 402.6025 379.1450 C400.1825 379.5050 397.1350 376.6500 394.6150 376.1875 C392.1875 375.7400 389.4675 375.9650 387.0025 375.9775 C382.9400 375.9825 378.8775 376.0225 374.8150 376.1000 L375.0400 372.6325 C377.5050 369.6150 382.0550 365.7525 385.9500 365.1150 Z"></path>
<path id="" fill="#808285" fill-opacity="1.0" stroke="#000000" stroke-width="0.0" stroke-opacity="1.0" stroke-linecap="round" stroke-linejoin="round"  filling="0" d="M121.1472 336.5150 C120.0063 332.1800 119.2217 327.8575 121.7032 323.7775 C122.9435 321.7375 124.9440 319.8750 127.3285 319.3400 C131.7108 318.3525 142.8882 318.9600 147.9243 318.9625 L194.3570 318.9650 L381.2950 318.9550 L428.4925 318.9525 L443.2100 318.9500 C445.9950 318.9500 448.8850 318.8050 451.6550 319.0675 C453.2150 319.2175 454.6950 319.6175 456.0225 320.4725 C458.3650 321.9850 460.2400 324.6350 460.7500 327.3900 C461.3300 330.5225 460.4600 334.4900 458.5450 337.0300 C456.1425 340.2150 452.4525 341.0225 448.7775 341.7725 C444.8200 342.6875 435.8525 342.0625 431.3250 342.0550 C417.3125 342.0350 403.2550 341.8225 389.2475 342.0750 C385.2975 342.1450 381.5025 343.7650 377.6200 343.7725 C376.4825 343.7750 376.2800 343.3325 375.4875 342.5800 C371.1100 341.4525 357.4725 342.0575 352.0750 342.0550 C341.8125 342.0500 331.4525 341.7575 321.2000 342.0650 C318.6725 342.1400 316.2225 342.8450 313.6700 342.8500 C308.5150 342.8625 303.5025 341.7500 298.2775 342.0700 C294.1575 342.3225 290.2950 343.8900 286.2400 344.4925 C285.5275 344.6000 284.7350 344.8250 284.1450 344.3850 C284.1000 343.9775 284.0950 343.4050 283.9475 343.0300 C283.4075 341.6375 273.5700 342.0625 271.6350 342.0650 L173.6890 342.0525 L144.6755 342.0750 C139.5410 342.0900 134.0493 342.4825 128.9532 341.9875 C127.3683 341.8325 126.0512 341.0700 124.7527 340.2000 C123.6390 339.4550 121.4147 337.8325 121.1472 336.5150 Z"></path>
<path id="" fill="#231f20" fill-opacity="1.0" stroke="#000000" stroke-width="0.0" stroke-opacity="1.0" stroke-linecap="round" stroke-linejoin="round"  filling="0" d="M121.1472 336.5150 C121.2215 336.5575 121.2985 336.5925 121.3698 336.6400 C121.7310 336.8750 121.9660 337.1400 122.2655 337.4450 C125.9815 341.2300 128.0128 341.8550 133.2258 341.8775 L347.4950 341.8200 L416.5675 341.7925 L438.4150 341.7975 C441.8550 341.7975 445.3425 341.6550 448.7775 341.7725 C444.8200 342.6875 435.8525 342.0625 431.3250 342.0550 C417.3125 342.0350 403.2550 341.8225 389.2475 342.0750 C385.2975 342.1450 381.5025 343.7650 377.6200 343.7725 C376.4825 343.7750 376.2800 343.3325 375.4875 342.5800 C371.1100 341.4525 357.4725 342.0575 352.0750 342.0550 C341.8125 342.0500 331.4525 341.7575 321.2000 342.0650 C318.6725 342.1400 316.2225 342.8450 313.6700 342.8500 C308.5150 342.8625 303.5025 341.7500 298.2775 342.0700 C294.1575 342.3225 290.2950 343.8900 286.2400 344.4925 C285.5275 344.6000 284.7350 344.8250 284.1450 344.3850 C284.1000 343.9775 284.0950 343.4050 283.9475 343.0300 C283.4075 341.6375 273.5700 342.0625 271.6350 342.0650 L173.6890 342.0525 L144.6755 342.0750 C139.5410 342.0900 134.0493 342.4825 128.9532 341.9875 C127.3683 341.8325 126.0512 341.0700 124.7527 340.2000 C123.6390 339.4550 121.4147 337.8325 121.1472 336.5150 Z"></path>
<path id="" fill="#413f41" fill-opacity="1.0" stroke="#000000" stroke-width="0.0" stroke-opacity="1.0" stroke-linecap="round" stroke-linejoin="round"  filling="0" d="M117.0092 182.0723 C121.0650 181.8215 125.2242 181.9950 129.2910 181.9995 L151.3497 182.0235 L217.1228 181.9810 L275.1475 181.9690 L293.8175 181.9612 C297.7325 181.9617 301.6925 181.8360 305.5975 182.1535 C309.9925 182.5110 314.1875 183.6155 317.9425 185.9885 C322.4400 188.8305 325.2750 193.3290 326.3925 198.4885 C327.9625 205.7352 327.1375 213.8110 327.0500 221.1830 C326.9600 228.5408 327.0250 235.9052 327.0300 243.2637 L327.0425 292.1900 C327.0350 300.3400 327.3625 308.6525 326.9700 316.7850 C326.9275 317.6775 326.8600 318.4650 326.3675 319.2275 C325.4675 319.6075 318.4025 319.0400 316.7000 319.0350 L283.1250 319.0275 L176.6467 319.0175 L146.1078 318.9925 C140.8090 318.9875 135.2510 318.6575 129.9738 319.1275 C129.2267 319.1950 128.5013 319.3975 127.7972 319.6525 C124.8992 320.6950 122.3815 322.5650 121.0988 325.4350 C119.1835 329.7225 120.8188 335.1075 122.3860 339.3125 C115.0132 338.9025 110.2997 340.0700 104.2473 334.6875 C103.2307 333.7825 96.4225 326.6225 96.1992 325.7400 C95.8365 324.3100 96.7780 321.7000 96.8978 320.1325 C97.2180 315.9350 96.9538 311.5350 96.9512 307.3200 L96.9583 239.5165 C96.9585 226.8922 97.4210 214.0618 96.6870 201.4635 C96.0577 200.9527 95.5280 200.5117 95.0663 199.8412 C95.0482 199.3488 95.1103 198.9580 95.4090 198.5470 C95.9812 197.7603 96.9788 197.1785 97.6298 196.4082 C98.9587 194.8353 99.9398 192.8987 101.1842 191.2435 C105.0302 186.1285 110.6982 182.9800 117.0092 182.0723 Z"></path>
<path id="" fill="#9f041e" fill-opacity="1.0" stroke="#000000" stroke-width="0.0" stroke-opacity="1.0" stroke-linecap="round" stroke-linejoin="round"  filling="0" d="M401.3875 367.6925 C401.9225 367.6975 402.4525 367.7200 402.9750 367.8525 C406.4050 368.7225 409.0175 371.2250 410.8050 374.1725 C414.3750 380.0675 415.8075 385.0825 414.0975 391.9050 C412.7000 397.4825 409.7650 402.5875 404.7675 405.5800 C398.9750 409.0475 392.8850 410.0500 386.3150 408.3625 C383.1675 407.4475 380.0925 406.1500 377.7625 403.7625 C376.7975 402.7750 375.6675 401.0200 375.7200 399.5900 C375.8375 399.4625 375.9125 399.2750 376.0700 399.2050 C377.6925 398.4625 389.5575 399.1450 392.7975 398.6625 C395.9175 398.2000 398.6400 397.1300 401.4250 395.6875 C402.6675 391.5700 404.0900 387.6425 402.6075 383.3575 C402.0675 381.7975 401.2125 380.3350 400.5925 378.8025 C399.1100 375.1450 399.8925 371.2175 401.3875 367.6925 Z"></path>
<path id="" fill="#9f041e" fill-opacity="1.0" stroke="#000000" stroke-width="0.0" stroke-opacity="1.0" stroke-linecap="round" stroke-linejoin="round"  filling="0" d="M304.9125 398.0550 C308.8075 397.9825 314.5400 397.2150 317.9350 399.2675 C318.2075 399.7525 318.2850 399.8550 318.1625 400.4300 C317.6825 402.6975 313.3475 406.6375 311.4000 407.8450 C307.9925 409.9550 298.9675 409.2550 295.0775 408.3800 C293.1700 407.8800 291.3700 407.0225 289.6125 406.1450 C287.4175 405.0475 285.1475 403.3075 284.4950 400.8000 C284.3325 400.1750 284.4550 399.8975 284.7650 399.3650 C288.3125 397.2325 291.5575 401.2375 294.9750 401.7550 C298.1925 402.2425 301.7275 401.9975 304.9900 402.0100 C304.8825 400.6725 304.7925 399.3975 304.9125 398.0550 Z"></path>
<path id="" fill="#9f041e" fill-opacity="1.0" stroke="#000000" stroke-width="0.0" stroke-opacity="1.0" stroke-linecap="round" stroke-linejoin="round"  filling="0" d="M299.0525 364.0850 C301.7875 363.9650 304.4950 364.1750 307.2150 364.4325 C306.5375 368.1875 305.5800 366.0000 303.8775 367.9425 C302.7125 369.2725 303.0900 371.8150 303.1525 373.4375 C301.8950 373.3750 300.6425 373.2825 299.3900 373.1650 C296.6400 372.9100 295.5700 371.3400 293.2125 370.4700 C292.3625 370.1550 291.3525 370.3000 290.5100 370.0050 C289.8800 369.7850 289.6250 369.3650 289.3225 368.8125 C289.3050 368.3375 289.3425 368.1100 289.6525 367.7350 C291.5675 365.4275 296.2025 364.4000 299.0525 364.0850 Z"></path>
<path id="" fill="#a0041e" fill-opacity="1.0" stroke="#000000" stroke-width="0.0" stroke-opacity="1.0" stroke-linecap="round" stroke-linejoin="round"  filling="0" d="M380.8775 368.6900 C380.9425 368.7175 381.0150 368.7325 381.0775 368.7725 C382.2925 369.5450 383.1100 373.6325 383.5500 375.0925 C381.6375 375.1325 379.7250 375.1500 377.8125 375.1500 C376.8200 375.2500 376.1450 375.3200 375.2075 374.9550 C374.7700 374.4900 374.7475 374.5150 374.7275 373.8850 C375.6750 372.0075 379.1175 369.8300 380.8775 368.6900 Z"></path>
<path id="" fill="#9f041e" fill-opacity="1.0" stroke="#000000" stroke-width="0.0" stroke-opacity="1.0" stroke-linecap="round" stroke-linejoin="round"  filling="0" d="M307.9125 364.8975 C308.2450 364.9125 308.4250 364.9100 308.7350 364.9500 C310.7775 365.2150 313.5200 366.4125 314.7775 368.0650 C315.3475 368.8150 315.2600 369.4425 315.1475 370.3125 C313.0825 369.9875 310.4550 370.0900 308.8975 368.4575 C307.8225 367.3325 307.8975 366.3525 307.9125 364.8975 Z"></path>
<path id="" fill="#bd1830" fill-opacity="1.0" stroke="#000000" stroke-width="0.0" stroke-opacity="1.0" stroke-linecap="round" stroke-linejoin="round"  filling="0" d="M312.7050 109.3508 C322.2075 109.7572 331.8175 109.4745 341.3350 109.4747 L393.3450 109.4725 L429.1250 109.5218 C436.0500 109.5453 443.1875 109.9160 450.0800 109.3372 C449.4500 114.4333 449.7400 119.8665 449.7375 125.0078 L449.7275 150.8805 L449.7150 260.8275 L449.7325 296.3825 C449.7350 303.4150 449.9350 310.5450 449.5750 317.5625 C449.5425 318.2025 449.6050 318.3750 449.2000 318.8900 L448.5600 318.8875 C443.8475 318.5725 438.9825 318.8200 434.2525 318.8275 L408.4900 318.8300 C376.7250 318.8275 344.9175 319.2550 313.1600 318.9150 C312.8425 318.0775 312.3675 317.0550 312.3150 316.1625 C312.1625 313.5775 313.0600 309.6300 313.0275 306.5400 L312.9875 254.5725 L312.7050 109.3508 Z"></path>
<path id="" fill="#6d6d70" fill-opacity="1.0" stroke="#000000" stroke-width="0.0" stroke-opacity="1.0" stroke-linecap="round" stroke-linejoin="round"  filling="0" d="M121.0985 81.1048 C124.3962 80.8980 127.7940 81.0645 131.1053 81.0635 L150.4995 81.0585 L172.5132 81.0590 C178.9055 81.0608 186.5350 80.2760 192.6980 82.0697 C194.8770 82.7040 196.8300 85.0938 197.8418 87.0338 C198.3858 88.0768 198.7440 89.1277 198.9095 90.2923 C199.4283 93.9410 199.1342 97.9742 199.1350 101.6610 C199.1355 105.9983 199.4733 110.6963 198.8250 114.9887 C197.7835 121.8863 195.4552 128.8960 193.7903 135.6973 C190.2320 150.2295 186.7923 164.8650 182.4775 179.1930 C182.3370 179.8533 182.1985 181.0027 181.8143 181.5570 C181.7380 181.6667 181.6463 181.7657 181.5502 181.8590 C180.9657 182.4272 132.1530 181.7168 125.0908 182.2267 C123.8002 175.9332 121.9095 169.6545 120.3365 163.4185 L112.7322 132.6297 C111.0985 126.1105 108.7005 119.3918 108.2270 112.6665 C107.9893 109.2878 107.7988 92.0855 108.3445 89.8152 C108.7145 88.2747 109.6133 86.8483 110.6678 85.6842 C113.5700 82.4810 116.8520 81.3508 121.0985 81.1048 Z"></path>
<path id="" fill="#9f041e" fill-opacity="1.0" stroke="#000000" stroke-width="0.0" stroke-opacity="1.0" stroke-linecap="round" stroke-linejoin="round"  filling="0" d="M196.1065 381.1775 C205.4707 379.5550 214.3850 385.8050 216.0495 395.1625 C217.7142 404.5200 211.5030 413.4625 202.1537 415.1675 C192.7448 416.8850 183.7328 410.6275 182.0578 401.2100 C180.3825 391.7925 186.6828 382.8100 196.1065 381.1775 Z"></path>
<path id="" fill="#9f041e" fill-opacity="1.0" stroke="#000000" stroke-width="0.0" stroke-opacity="1.0" stroke-linecap="round" stroke-linejoin="round"  filling="0" d="M130.1075 381.0300 C139.5370 380.5100 147.6133 387.7100 148.1710 397.1375 C148.7287 406.5650 141.5578 414.6700 132.1322 415.2625 C122.6565 415.8600 114.4998 408.6400 113.9392 399.1625 C113.3785 389.6850 120.6273 381.5550 130.1075 381.0300 Z"></path>
<path id="" fill="#55abed" fill-opacity="1.0" stroke="#000000" stroke-width="0.0" stroke-opacity="1.0" stroke-linecap="round" stroke-linejoin="round"  filling="0" d="M345.9475 136.3540 C350.7700 136.0425 355.6975 136.2397 360.5300 136.2422 L385.4275 136.2285 L405.3850 136.2258 C408.7900 136.2267 412.3875 135.9978 415.7700 136.3215 C417.7950 136.5155 419.7550 137.0760 421.4900 138.1613 C423.6275 139.4962 426.0175 142.1823 426.5275 144.7298 C427.2500 148.3233 426.9200 152.4303 426.9200 156.0875 L426.9225 173.3485 L426.9200 193.9837 C426.9175 197.9093 427.1200 201.9698 426.7475 205.8757 C426.5400 208.0267 426.2025 209.5098 424.9350 211.3110 C422.6625 214.5365 419.5325 215.7747 415.8100 216.4385 C411.5625 217.0643 407.1375 216.8185 402.8475 216.8170 L383.7875 216.8123 L361.2325 216.8223 C356.7400 216.8230 352.1000 217.0390 347.6275 216.6048 C345.0675 216.3562 342.1550 215.7840 340.0400 214.2498 C337.5300 212.4312 335.9450 209.3177 335.4975 206.2840 C335.0300 203.1090 335.2450 199.6967 335.2475 196.4883 L335.2575 180.0545 L335.2425 159.6015 C335.2400 155.4975 335.0000 151.2080 335.5075 147.1353 C335.8100 144.7280 336.2800 143.0025 337.7875 141.0215 C339.7775 138.4097 342.7200 136.7805 345.9475 136.3540 Z"></path>
<path id="" fill="#ea596d" fill-opacity="1.0" stroke="#000000" stroke-width="0.0" stroke-opacity="1.0" stroke-linecap="round" stroke-linejoin="round"  filling="0" d="M334.9700 238.9530 L427.1725 238.9503 C426.6450 248.5485 427.0325 258.3500 427.0325 267.9675 C427.0325 277.2950 426.6475 286.8150 427.1675 296.1225 C424.9425 296.5650 421.9225 296.1400 419.6200 296.1200 L403.2950 296.0850 L335.0125 296.1600 C335.2150 288.8675 335.0425 281.5225 335.0425 274.2275 L334.9700 238.9530 Z"></path>
<path id="" fill="#414042" fill-opacity="1.0" stroke="#000000" stroke-width="0.0" stroke-opacity="1.0" stroke-linecap="round" stroke-linejoin="round"  filling="0" d="M120.8043 68.1072 C124.9753 67.8593 129.2745 68.0567 133.4597 68.0550 L158.3613 68.0493 L176.3562 68.0530 C180.7585 68.0555 185.3237 67.8652 189.6823 68.5478 C191.8110 68.8810 193.7778 69.7630 195.4023 71.1908 C197.0307 72.6223 198.0318 74.4130 198.5652 76.4990 C199.4892 80.1118 199.1335 84.2298 199.1257 87.9355 C199.1093 96.0372 198.5938 104.9360 199.1942 112.9225 L199.2260 113.3217 C195.4552 112.7053 191.1868 113.0652 187.3510 113.0740 L136.3972 113.0740 C126.9503 113.0748 117.4185 112.8207 107.9835 113.2103 C108.1070 105.5293 107.9902 97.8330 107.9795 90.1505 C107.9733 85.9055 107.5300 81.0522 108.4395 76.9040 C108.8503 75.0302 109.5502 73.5285 110.8177 72.0762 C113.5020 69.0010 116.9530 68.3760 120.8043 68.1072 Z"></path>
<path id="" fill="#dc2e44" fill-opacity="1.0" stroke="#000000" stroke-width="0.0" stroke-opacity="1.0" stroke-linecap="round" stroke-linejoin="round"  filling="0" d="M110.0992 339.2425 L109.3000 338.5150 L109.3538 338.1100 C111.1113 337.5100 122.9940 338.4000 124.5648 339.4300 C124.9167 339.6600 125.1585 340.2875 125.3358 340.6600 C126.2863 341.1250 130.9308 340.6925 131.1393 341.4225 C131.2632 341.8575 131.1602 342.2275 131.0885 342.6625 C130.7433 347.3725 130.9998 352.2675 131.0035 356.9950 L131.0400 384.3725 C131.0517 390.4450 131.8138 397.6425 130.0925 403.4775 C128.9693 407.2850 123.9427 409.2125 120.7258 410.9650 C116.1322 409.3975 110.9225 410.0300 106.1115 409.9925 C96.7253 409.8775 87.3385 409.8400 77.9518 409.8800 C72.1732 409.8950 66.0952 410.3200 60.3640 409.6350 C58.2498 409.3800 54.3203 408.7400 52.8692 407.1125 C51.9225 406.0500 51.6890 404.3875 51.7842 403.0150 C51.9890 400.0750 53.5703 397.2350 55.2545 394.8775 C56.7458 392.7925 58.5327 390.9000 60.2160 388.9675 C66.7888 381.4175 74.1013 374.5075 81.1755 367.4300 C90.6390 357.9600 99.8830 347.8925 110.0992 339.2425 Z"></path>
<path id="" fill="#424042" fill-opacity="1.0" stroke="#000000" stroke-width="0.0" stroke-opacity="1.0" stroke-linecap="round" stroke-linejoin="round"  filling="0" d="M110.0992 339.2425 L109.3000 338.5150 L109.3538 338.1100 C111.1113 337.5100 122.9940 338.4000 124.5648 339.4300 C124.9167 339.6600 125.1585 340.2875 125.3358 340.6600 C126.2863 341.1250 130.9308 340.6925 131.1393 341.4225 C131.2632 341.8575 131.1602 342.2275 131.0885 342.6625 C131.0485 342.2875 131.0120 342.0000 130.8598 341.6500 C130.6430 341.1500 129.3935 341.2300 128.8707 341.2275 C122.3452 341.1750 116.2978 341.7400 110.0992 339.2425 Z"></path>
<path id="" fill="#c0694f" fill-opacity="1.0" stroke="#000000" stroke-width="0.0" stroke-opacity="1.0" stroke-linecap="round" stroke-linejoin="round"  filling="0" d="M253.6300 170.8035 C254.3025 170.7462 254.9750 170.7063 255.6475 170.6840 C258.7600 170.5755 261.9150 171.6075 264.1750 173.7985 C266.6725 176.2190 267.3350 179.0148 267.6975 182.3268 C268.2425 187.2920 267.9125 192.5585 267.9125 197.5595 L267.9100 224.7525 L267.9300 319.1100 C265.0325 318.9600 262.1125 319.0225 259.2125 319.0125 C254.2100 318.9625 249.2088 319.0025 244.2085 319.1350 L244.1933 229.4577 L244.1755 200.0840 C244.1670 194.6710 243.9093 189.1255 244.2595 183.7285 C244.4227 181.2168 244.7612 178.5585 245.9588 176.3098 C247.6195 173.1913 250.3675 171.7325 253.6300 170.8035 Z"></path>
<path id="" fill="#c1694f" fill-opacity="1.0" stroke="#000000" stroke-width="0.0" stroke-opacity="1.0" stroke-linecap="round" stroke-linejoin="round"  filling="0" d="M186.3880 170.5352 C189.5343 170.4105 192.8737 171.3710 195.3092 173.4043 C197.1647 174.9317 198.4190 177.0670 198.8495 179.4312 C199.5065 183.0773 199.1090 187.0765 199.0932 190.7750 L199.0650 210.0363 L199.0690 283.1050 L199.0645 306.0225 C199.0652 310.3475 198.8443 314.8525 199.2838 319.1525 C195.9990 318.9150 192.6682 319.0125 189.3750 319.0150 C184.9473 318.9650 180.5188 319.0050 176.0925 319.1325 L176.1205 227.8040 L176.1082 199.8695 C176.0992 194.5910 175.8788 189.2198 176.1967 183.9560 C176.3500 181.4190 176.5502 178.7260 177.8970 176.5125 C179.6557 173.6215 183.1308 171.3488 186.3880 170.5352 Z"></path>
<path id="" fill="#a0041e" fill-opacity="1.0" stroke="#000000" stroke-width="0.0" stroke-opacity="1.0" stroke-linecap="round" stroke-linejoin="round"  filling="0" d="M312.1950 91.0927 C315.0325 90.7923 318.0125 90.9475 320.8650 90.9490 L335.6800 90.9525 L384.1250 90.9568 L428.2350 90.9490 C435.5350 90.9398 444.9150 90.3262 452.0050 91.3710 C454.6700 91.7632 457.2525 93.5595 458.8000 95.7188 C460.5450 98.1495 461.2450 101.1790 460.7400 104.1290 C460.2250 107.2775 458.3675 109.9130 455.7575 111.7047 C453.6850 113.1277 451.1125 114.2318 448.5725 113.7845 C447.9300 113.2507 447.9850 112.9628 447.8050 112.1657 C447.7600 111.6355 447.6725 111.1305 447.5675 110.6085 C447.0200 110.1750 446.1900 110.2318 445.5200 110.2125 C433.5550 109.8665 421.4600 110.2103 409.4850 110.2087 L336.2450 110.2045 C331.8875 110.1902 327.5275 110.2035 323.1675 110.2445 C320.2900 110.3002 317.1875 110.7383 314.3500 110.3155 C314.3175 111.6758 314.3275 113.0403 314.3200 114.4012 C311.2075 113.6705 308.2500 113.1440 305.6650 111.1087 C303.3825 109.3105 301.6825 106.5132 301.3525 103.6040 C301.0250 100.7120 302.0325 97.5695 303.8475 95.3135 C306.0200 92.6137 308.8450 91.4570 312.1950 91.0927 Z"></path>
</svg>