<svg xmlns="http://www.w3.org/2000/svg" viewBox="0 0 512 512" height="512.0px" width="512.0px">
<path id="" fill="#292f33" fill-opacity="1.0" stroke="#000000" stroke-width="0.0" stroke-opacity="1.0" stroke-linecap="round" stroke-linejoin="round"  filling="0" d="M125.2247 292.6825 C169.0850 289.6000 207.1230 322.6950 210.1375 366.5600 C213.1517 410.4250 179.9982 448.4125 136.1285 451.3575 C92.3553 454.2975 54.4700 421.2325 51.4622 377.4625 C48.4545 333.6950 81.4605 295.7575 125.2247 292.6825 Z M132.8732 428.9575 C164.2962 427.8400 188.8725 401.4750 187.7845 370.0525 C186.6967 338.6275 160.3565 314.0250 128.9312 315.0825 C97.4630 316.1425 72.8203 342.5250 73.9095 373.9925 C74.9990 405.4600 101.4070 430.0775 132.8732 428.9575 Z"></path>
<path id="" fill="#292f33" fill-opacity="1.0" stroke="#000000" stroke-width="0.0" stroke-opacity="1.0" stroke-linecap="round" stroke-linejoin="round"  filling="0" d="M376.4900 292.6100 C392.1375 292.2875 404.8825 294.8975 418.8500 302.1650 C423.0650 304.3575 427.4700 306.8850 431.2150 309.8200 C447.5925 322.6525 457.3600 342.0025 460.0075 362.4425 C462.7675 383.7650 455.9900 405.2825 442.8625 422.1350 C430.8200 437.5975 409.2850 448.9450 390.0000 451.1650 C368.4775 453.6425 347.4250 446.9150 330.5975 433.4925 C315.2625 421.2675 305.4300 403.4400 303.2675 383.9500 C302.6850 378.6800 302.1225 373.0525 302.2800 367.7575 C302.7275 352.6350 308.1375 336.3450 317.6150 324.4625 C320.7150 319.7675 325.2750 314.7975 329.7300 311.3675 C332.1775 315.3750 334.6600 319.3625 337.1700 323.3325 C338.7925 325.9075 340.5575 328.4650 341.9600 331.1675 C338.5050 335.5875 334.5450 338.6300 331.7975 343.7450 C329.8475 347.3775 328.1050 350.9900 326.8900 354.9400 C323.7050 365.2875 323.6550 378.3125 326.7950 388.6725 C331.0275 402.6375 341.4325 415.3475 354.3250 422.2225 C368.3425 429.6950 383.3875 430.9050 398.4975 426.2200 C413.1650 421.6700 425.1700 410.8175 432.1775 397.2650 C438.9525 384.1675 439.9000 367.7850 435.3850 353.7700 C431.0550 340.3275 419.4600 327.4850 406.9175 321.1650 C395.5350 315.4300 381.6925 313.3750 369.1925 316.2300 C366.5400 316.8350 363.9925 317.8975 361.4125 318.7525 C361.0250 318.4425 360.7200 318.1475 360.4200 317.7500 C358.8500 315.6575 349.8675 300.9100 350.1000 299.2575 C352.0825 297.2225 364.5250 294.2925 367.8075 293.6925 C370.6550 293.1725 373.6025 292.8325 376.4900 292.6100 Z"></path>
<path id="" fill="#aab8c1" fill-opacity="1.0" stroke="#000000" stroke-width="0.0" stroke-opacity="1.0" stroke-linecap="round" stroke-linejoin="round"  filling="0" d="M117.1175 223.7962 C120.0515 223.7105 122.5395 224.0915 125.1598 225.4633 C127.7858 226.8383 129.6760 229.2168 132.0110 230.9823 C140.5665 237.4515 149.3472 243.6545 157.7623 250.3175 C160.4180 252.4200 164.7287 256.6775 167.9603 257.6325 C171.1967 258.5900 177.5293 258.0100 181.1220 258.0025 L201.7080 257.9775 L296.3050 257.9525 C299.9025 255.0300 302.5650 251.1025 306.5900 248.6645 C309.2175 247.0728 312.4325 246.1597 315.4725 246.9880 C318.3400 247.7700 320.6325 250.0900 322.0300 252.6500 C323.8075 255.9100 322.7325 259.1650 320.9225 262.1625 C317.0325 268.5925 309.0050 270.8300 306.9475 273.9475 C305.1950 276.6000 304.0800 280.3475 302.8450 283.2900 C299.1000 292.1925 295.4900 301.1525 292.0125 310.1625 L278.7625 343.7250 C276.6900 349.0825 274.3250 354.4825 272.6750 359.9800 L327.2150 360.2100 C331.5550 360.1975 335.8750 360.8025 340.1925 360.7825 C341.8925 360.7750 343.6000 360.5425 345.2925 360.4075 C349.9900 360.0350 355.4725 360.2375 359.1925 363.5425 C361.4900 365.5800 362.1200 368.1850 362.2300 371.1425 C362.3475 374.2725 361.6075 377.1475 359.3800 379.4400 C357.8750 380.9850 355.9375 382.1825 353.8275 382.6800 C349.7025 383.6525 344.7825 382.9400 340.5250 383.0575 C336.0850 383.1800 331.6725 383.8125 327.2300 383.8300 C323.7850 383.8425 320.3400 383.6700 316.8950 383.6425 C313.4200 383.6150 309.9425 383.7600 306.4675 383.6625 C303.5075 383.5800 300.5625 383.1900 297.6000 383.0750 C293.4550 382.9125 289.2750 383.0150 285.1250 383.0175 L264.0875 383.0450 C260.5000 383.0500 256.6000 383.3625 253.0625 382.8550 C250.2650 382.4525 247.9430 380.6825 246.3372 378.4050 C245.1237 376.6825 244.1795 374.4400 244.2137 372.3025 C244.2995 366.9375 250.1800 357.3750 251.1650 351.3725 C251.1825 351.2700 251.1950 351.1675 251.2100 351.0650 C246.7825 347.4725 242.1673 344.0775 237.6613 340.5775 L204.9615 315.2650 L184.1995 299.1075 C180.6630 296.3675 177.2135 293.4825 173.5408 290.9200 C172.7177 290.3475 171.9230 289.8650 170.9490 289.5950 C170.1100 289.9400 169.9267 290.5825 169.5898 291.3975 C167.9785 295.2975 167.3130 299.6975 165.9008 303.7000 C159.8345 321.0050 153.9733 338.3800 148.3185 355.8225 C146.1438 362.3425 144.1788 370.1125 141.2003 376.2300 C140.3223 378.0325 139.1738 379.6825 137.5950 380.9450 C134.8273 383.1575 131.3717 383.4250 127.9770 382.9475 C125.4605 382.5925 123.2838 381.3250 121.7623 379.2725 C119.6678 376.4475 119.6568 372.4300 120.1555 369.0825 C121.0560 363.0400 123.9695 357.2875 125.8557 351.5225 L142.4657 300.7650 C144.5388 294.7975 146.5603 288.8125 148.5293 282.8100 C149.4538 280.0275 150.7253 277.1275 151.1777 274.2325 C151.1933 274.1325 151.2052 274.0325 151.2193 273.9350 C147.6922 269.6450 142.8315 266.7350 138.4115 263.4600 C132.5262 259.0275 126.6915 254.5275 120.9080 249.9640 C117.5695 247.3132 113.9438 244.7213 111.0340 241.5990 C109.7915 240.2657 108.6353 238.8005 108.1520 237.0110 C107.3855 234.1740 108.5058 231.3513 109.9930 228.9563 C111.7370 226.1475 113.9410 224.5587 117.1175 223.7962 Z M201.8435 282.5550 C201.8725 282.6150 201.9073 282.6750 201.9310 282.7375 C201.9738 282.8525 202.0007 282.9725 202.0425 283.0875 C202.4940 284.3325 204.4323 285.8325 205.4297 286.6750 C209.4147 290.0425 213.7487 293.1275 217.8772 296.3275 L239.8375 313.4150 C245.5338 317.8075 254.1875 325.5375 260.2250 328.6550 C262.6725 325.3775 267.2325 311.0250 269.1425 306.1825 C271.7675 299.5225 274.8725 293.0000 277.2075 286.2300 C277.8100 284.4800 278.1300 282.8800 278.3250 281.0400 C271.6200 280.9475 203.0378 280.7900 202.3715 281.0725 C202.2263 281.1350 202.1228 281.2675 201.9985 281.3650 L201.8435 282.5550 Z"></path>
<path id="" fill="#fdfdfd" fill-opacity="1.0" stroke="#000000" stroke-width="0.0" stroke-opacity="1.0" stroke-linecap="round" stroke-linejoin="round"  filling="0" d="M201.8435 282.5550 C201.6925 283.0275 201.8365 282.8425 201.4030 283.1025 C201.1543 283.0200 200.9035 282.9425 200.6608 282.8425 C199.9705 282.5600 199.3797 282.1825 199.0980 281.4700 L199.3105 281.1075 C199.7450 281.0050 200.2130 280.8625 200.6560 280.8150 C201.3850 280.7425 201.4530 280.9150 201.9985 281.3650 L201.8435 282.5550 Z"></path>
<path id="" fill="#aab8c2" fill-opacity="1.0" stroke="#000000" stroke-width="0.0" stroke-opacity="1.0" stroke-linecap="round" stroke-linejoin="round"  filling="0" d="M322.2375 259.3425 C325.5875 261.9300 335.1400 278.4000 338.0775 283.0225 L371.1300 335.0650 C374.4575 340.2650 377.7650 345.5100 381.1700 350.6550 C384.1625 355.1800 387.3150 359.6275 390.0400 364.3200 C391.2850 366.4675 392.6525 368.9150 392.9250 371.4250 C393.2300 374.2150 391.7725 377.4175 389.9750 379.5050 C387.8250 382.0000 384.4725 383.5750 381.1925 383.7650 C377.6125 383.9725 373.9700 383.2500 370.3900 383.0875 C366.6150 382.9175 362.8000 383.1975 359.0375 382.9575 C358.5500 382.9275 358.2725 382.8575 357.8750 382.5450 C357.6375 379.8175 362.7650 374.7650 362.1025 370.2850 C361.6000 366.8925 357.6875 364.0225 357.0700 361.9050 C356.9600 361.5200 357.1500 360.9125 357.3325 360.5675 C357.7625 359.7000 358.0250 358.8175 358.3025 357.8900 C358.2650 357.8075 358.2300 357.7250 358.1925 357.6425 C355.8900 352.6750 352.2375 347.9700 349.3000 343.3325 L319.3975 296.0475 C315.9725 290.5575 311.9625 285.1850 308.8350 279.5500 C308.0700 278.1700 306.6425 275.7200 306.7950 274.1400 C308.1750 271.1425 314.3850 268.8350 317.2275 266.1200 C319.3275 264.1125 320.6150 261.7050 322.2375 259.3425 Z"></path>
<path id="" fill="#fefefe" fill-opacity="1.0" stroke="#000000" stroke-width="0.0" stroke-opacity="1.0" stroke-linecap="round" stroke-linejoin="round"  filling="0" d="M358.3025 357.8900 C358.9650 358.4050 359.7150 358.9825 359.7950 359.8875 C359.8275 360.2450 359.6600 360.4325 359.5025 360.7375 C358.8100 361.0500 358.6175 361.0200 357.8500 360.9550 C357.6925 360.8450 357.4525 360.7150 357.3325 360.5675 C357.7625 359.7000 358.0250 358.8175 358.3025 357.8900 Z"></path>
<path id="" fill="#292f33" fill-opacity="1.0" stroke="#000000" stroke-width="0.0" stroke-opacity="1.0" stroke-linecap="round" stroke-linejoin="round"  filling="0" d="M313.9175 240.2250 C313.8750 240.1250 313.8400 240.0225 313.7925 239.9250 C312.9125 238.0830 309.0575 236.7318 307.1550 236.2023 C300.3625 234.3110 286.3625 234.9377 282.6125 228.2680 C281.7500 226.7343 280.8600 224.2410 281.4475 222.4875 C282.4750 219.4272 286.7675 217.6390 289.4800 216.4052 C292.8675 214.8633 296.4475 213.3305 300.2050 213.0550 C304.5325 212.7377 308.9475 213.3475 313.2525 213.7725 L327.5000 215.1277 C334.9800 215.7935 342.4550 216.3887 349.9250 217.1362 C354.1825 217.5623 359.1600 217.5182 363.1550 219.0777 C364.7275 219.6918 366.1225 221.1815 366.8125 222.7052 C367.4200 224.0462 367.3625 225.5878 367.1450 227.0123 C366.5200 231.1165 364.7000 235.4088 363.3775 239.3460 C361.9800 243.5128 360.7300 247.8290 359.0550 251.8925 C358.1500 254.0850 356.4875 256.6075 354.2250 257.5800 C350.4825 259.1900 331.9925 255.8875 327.4900 254.5825 C325.8900 255.2725 324.7250 257.3675 322.9000 257.2825 C321.6925 255.6825 322.3375 252.9950 319.9525 250.3450 C317.3125 247.4065 314.1975 246.9720 310.4975 246.7168 C310.5350 246.6190 310.5725 246.5220 310.6050 246.4235 C311.3725 244.1908 312.7775 242.2835 313.9175 240.2250 Z"></path>
<path id="" fill="rgb(180,193,204)" fill-opacity="1.0" stroke="#000000" stroke-width="0.0" stroke-opacity="1.0" stroke-linecap="round" stroke-linejoin="round"  filling="0" d="M313.9175 240.2250 L314.1425 239.8302 C318.0825 241.5705 320.9600 250.7650 324.6175 253.4675 C325.5600 254.1625 326.4825 254.1525 327.4900 254.5825 C325.8900 255.2725 324.7250 257.3675 322.9000 257.2825 C321.6925 255.6825 322.3375 252.9950 319.9525 250.3450 C317.3125 247.4065 314.1975 246.9720 310.4975 246.7168 C310.5350 246.6190 310.5725 246.5220 310.6050 246.4235 C311.3725 244.1908 312.7775 242.2835 313.9175 240.2250 Z"></path>
<path id="" fill="#292f33" fill-opacity="1.0" stroke="#000000" stroke-width="0.0" stroke-opacity="1.0" stroke-linecap="round" stroke-linejoin="round"  filling="0" d="M181.2298 223.6255 C181.4012 223.6053 181.5730 223.5867 181.7450 223.5703 C182.4835 223.4990 183.0615 223.4250 183.6552 223.9185 C184.3260 227.9162 183.7993 232.5878 183.9490 236.6760 C178.8970 236.7375 149.4023 236.3172 146.7258 237.3282 C145.2798 237.8745 144.0835 239.2940 142.7555 240.1142 C138.0340 243.0315 132.2413 245.6795 126.8347 246.8460 C121.8513 247.9212 117.9780 247.6495 113.6118 244.8310 C112.9810 244.4380 112.3485 244.0400 111.7825 243.5558 C109.6508 241.7415 108.3390 239.1455 108.1428 236.3530 C107.9012 233.1435 109.0713 230.0380 111.2298 227.6743 C112.7117 226.0513 114.8012 224.6990 116.9810 224.2705 C121.0785 223.4653 130.4075 223.9960 135.0490 223.9925 C150.3945 223.9807 165.9142 224.4207 181.2298 223.6255 Z"></path>
<path id="" fill="#ffffff" fill-opacity="1.0" stroke="#000000" stroke-width="0.0" stroke-opacity="1.0" stroke-linecap="round" stroke-linejoin="round"  filling="0" d="M230.5757 120.9057 C231.1665 121.1328 242.4772 118.2688 244.1732 117.9760 C248.9780 117.1277 253.8600 116.7982 258.7350 116.9935 C272.4250 117.5762 285.4375 121.4503 297.9400 126.8175 C300.6800 127.9935 303.5100 129.1042 306.1500 130.4880 C316.6475 135.9872 326.6275 142.4982 337.3100 147.6478 C340.4100 149.1328 343.5800 150.4653 346.8100 151.6407 C349.4125 152.5872 353.9650 153.5600 356.1300 155.0753 C356.3750 155.8900 356.3075 156.4828 355.9225 157.2290 C354.7250 159.5522 351.7775 161.4865 349.7325 163.0605 C345.1100 165.6812 340.8600 169.0535 336.3875 171.9330 C325.1625 179.1608 313.8775 186.2433 302.1575 192.6430 C299.2175 194.2482 293.5125 197.6003 290.5475 198.6048 C289.3500 197.9115 287.6625 198.3013 286.3675 198.5350 C286.0750 198.8587 286.1100 198.7018 286.0850 198.9275 C284.7725 199.3248 282.5250 198.8525 281.1825 198.5585 C268.9500 195.8793 258.9275 183.7380 249.6008 175.9570 C247.3165 174.0513 244.9832 171.9653 242.3120 170.6135 C241.1975 170.0495 239.7908 169.4890 238.5598 170.0388 C235.3430 171.4750 233.0397 183.2487 232.0080 186.6297 C231.2095 189.2470 230.3010 191.7995 229.1860 194.3010 C227.1653 192.9507 201.7915 185.9075 197.7717 185.3250 C198.0553 182.8743 197.9803 180.3582 198.0870 177.8907 C198.2235 174.7345 198.6918 171.6028 198.8672 168.4498 C199.1557 163.2690 199.0013 158.3585 199.9592 153.2063 C200.3837 150.9247 200.8510 148.7213 201.7815 146.5830 C202.9120 143.9852 204.7298 141.3938 205.2482 138.5997 C205.2650 138.5085 205.2785 138.4167 205.2937 138.3253 C205.6090 138.5105 205.4105 138.4400 205.9190 138.4195 C208.3170 135.2285 211.0650 132.0038 214.3045 129.6390 C218.6003 126.5033 223.3930 124.3053 228.2730 122.2675 C229.1497 121.9012 229.9800 121.6852 230.5757 120.9057 Z"></path>
<path id="" fill="#357baa" fill-opacity="1.0" stroke="#000000" stroke-width="0.0" stroke-opacity="1.0" stroke-linecap="round" stroke-linejoin="round"  filling="0" d="M290.5475 198.6048 C293.5125 197.6003 299.2175 194.2482 302.1575 192.6430 C313.8775 186.2433 325.1625 179.1608 336.3875 171.9330 C340.8600 169.0535 345.1100 165.6812 349.7325 163.0605 C358.0650 167.1102 365.5575 173.2350 368.6250 182.2660 C371.5400 190.8468 368.5500 197.9917 364.6900 205.7150 C357.2075 220.6950 345.6400 233.3310 334.8825 245.9810 C332.7900 248.4418 330.9850 251.1500 328.8900 253.5950 C327.7525 254.9200 326.0775 255.4775 324.9600 256.7875 C321.4775 260.8650 317.7975 267.1075 313.0150 269.5775 C310.5750 268.4200 308.4825 266.6725 306.3525 265.0325 C301.9500 269.3750 294.1450 282.6275 290.2775 285.0825 C287.6575 286.7425 284.5550 287.4825 281.6925 288.6125 C279.4200 289.5075 277.3250 290.9050 274.9500 291.5175 C273.1975 290.7325 271.4550 289.9250 269.6300 289.3175 C267.7475 289.5325 266.2175 290.6700 264.4175 290.8800 C262.3950 291.1150 254.4650 284.6800 252.6175 283.1775 C255.3850 278.8425 257.0825 274.3950 259.2175 269.7500 C260.7725 266.3725 262.6500 263.1475 263.6025 259.5300 C266.9875 257.5100 271.2825 245.0635 274.6450 241.5725 C272.0825 239.8130 269.6800 237.8330 267.4625 235.6550 C265.7900 234.0152 260.8050 228.5085 259.2725 227.6255 C258.5250 227.0773 257.6450 226.0245 257.1950 225.2168 C256.8600 224.6160 256.8050 224.2300 257.1150 223.6015 C258.8225 220.1438 285.5800 203.2932 286.4900 200.7865 L286.0850 198.9275 C286.1100 198.7018 286.0750 198.8587 286.3675 198.5350 C287.6625 198.3013 289.3500 197.9115 290.5475 198.6048 Z"></path>
<path id="" fill="#f6ddcd" fill-opacity="1.0" stroke="#000000" stroke-width="0.0" stroke-opacity="1.0" stroke-linecap="round" stroke-linejoin="round"  filling="0" d="M274.6450 241.5725 C282.1425 246.9120 289.5825 252.3325 296.9600 257.8350 C300.0250 260.1000 303.4725 262.2075 306.3250 264.7100 L306.3525 265.0325 C301.9500 269.3750 294.1450 282.6275 290.2775 285.0825 C287.6575 286.7425 284.5550 287.4825 281.6925 288.6125 C279.4200 289.5075 277.3250 290.9050 274.9500 291.5175 C273.1975 290.7325 271.4550 289.9250 269.6300 289.3175 C267.7475 289.5325 266.2175 290.6700 264.4175 290.8800 C262.3950 291.1150 254.4650 284.6800 252.6175 283.1775 C255.3850 278.8425 257.0825 274.3950 259.2175 269.7500 C260.7725 266.3725 262.6500 263.1475 263.6025 259.5300 C266.9875 257.5100 271.2825 245.0635 274.6450 241.5725 Z"></path>
<path id="" fill="rgb(250,226,212)" fill-opacity="1.0" stroke="#000000" stroke-width="0.0" stroke-opacity="1.0" stroke-linecap="round" stroke-linejoin="round"  filling="0" d="M286.0850 198.9275 C286.1100 198.7018 286.0750 198.8587 286.3675 198.5350 C287.6625 198.3013 289.3500 197.9115 290.5475 198.6048 C289.6875 199.2755 287.6225 201.2097 286.5925 201.2210 L286.4900 200.7865 L286.0850 198.9275 Z"></path>
<path id="" fill="#f6dece" fill-opacity="1.0" stroke="#000000" stroke-width="0.0" stroke-opacity="1.0" stroke-linecap="round" stroke-linejoin="round"  filling="0" d="M197.7717 185.3250 C201.7915 185.9075 227.1653 192.9507 229.1860 194.3010 C224.1568 205.5237 217.1680 216.7560 208.5403 225.5965 C206.4568 227.7312 204.0853 229.5795 201.9100 231.6187 C200.1777 233.2430 198.6350 235.0558 196.8862 236.6650 C194.6283 238.7430 192.0748 240.6045 189.6617 242.4993 C183.9395 246.9922 170.3927 255.4975 163.4043 257.0925 C158.6042 258.1900 153.5230 258.0500 148.6308 258.0450 C144.9297 258.0425 141.1147 258.1950 137.4365 257.7350 C135.6353 257.5125 133.1130 257.1575 131.9868 255.5675 C130.4462 253.3875 130.7040 246.3092 131.1842 243.8112 C133.2668 232.9805 148.3400 236.6938 156.0000 234.7490 C158.8110 234.0352 161.6405 232.1605 163.9967 230.5235 C174.9108 222.8595 184.1345 213.0355 191.0963 201.6608 C192.7410 198.9967 194.4023 196.3073 195.5827 193.3992 C196.6455 190.7815 197.2623 188.0957 197.7717 185.3250 Z"></path>
<path id="" fill="#f7dece" fill-opacity="1.0" stroke="#000000" stroke-width="0.0" stroke-opacity="1.0" stroke-linecap="round" stroke-linejoin="round"  filling="0" d="M172.8858 84.1833 C176.0903 84.3853 179.3418 84.2418 182.5525 84.2245 C187.5470 84.2045 192.5415 84.2108 197.5360 84.2435 C205.8475 84.2800 215.3143 84.8432 223.4807 84.2470 C220.9935 94.8282 220.3983 105.7850 217.2730 116.2087 C220.8075 117.8645 228.1865 118.1140 230.5757 120.9057 C229.9800 121.6852 229.1497 121.9012 228.2730 122.2675 C223.3930 124.3053 218.6003 126.5033 214.3045 129.6390 C211.0650 132.0038 208.3170 135.2285 205.9190 138.4195 C205.4105 138.4400 205.6090 138.5105 205.2937 138.3253 C205.2555 137.6127 205.2015 136.8932 204.9860 136.2085 C204.3168 134.0805 201.9560 132.4195 200.0672 131.4040 C198.5070 130.5650 196.7950 130.0400 195.0105 130.1613 C191.1877 130.4215 187.0453 132.9357 183.5607 134.4175 C180.9897 135.5110 178.3260 136.4960 175.6348 137.2520 C172.8698 138.0287 170.2332 138.4245 167.6375 136.8770 C166.6935 136.3143 165.7328 135.5540 165.3420 134.4910 C164.7157 132.7867 164.9722 130.5320 164.6288 128.7108 C163.9260 124.9832 162.6865 121.3058 161.7925 117.6127 C161.0018 114.3455 158.9840 106.8848 160.9138 103.9355 C162.7170 101.1800 167.6815 100.7710 170.6885 100.0725 C171.7852 99.7288 173.9227 99.3820 174.7182 98.6478 C175.6480 95.7575 173.5938 87.3380 172.8858 84.1833 Z"></path>
<path id="" fill="#292f33" fill-opacity="1.0" stroke="#000000" stroke-width="0.0" stroke-opacity="1.0" stroke-linecap="round" stroke-linejoin="round"  filling="0" d="M172.8858 84.1833 C176.0903 84.3853 179.3418 84.2418 182.5525 84.2245 C187.5470 84.2045 192.5415 84.2108 197.5360 84.2435 C205.8475 84.2800 215.3143 84.8432 223.4807 84.2470 C220.9935 94.8282 220.3983 105.7850 217.2730 116.2087 L217.1427 116.1495 C216.7852 116.9330 216.3788 117.6638 215.9003 118.3788 C214.8280 119.9812 213.6135 121.0898 211.6593 121.4262 C209.1297 121.8615 206.4720 121.5590 204.2575 120.2068 C197.3960 116.0170 192.8882 101.0293 186.2493 96.4790 C186.1617 96.4187 186.0730 96.3605 185.9848 96.3015 C183.6678 97.0332 181.1735 97.3410 178.8110 97.9450 C176.0695 98.6458 173.5267 99.7640 170.6885 100.0725 C171.7852 99.7288 173.9227 99.3820 174.7182 98.6478 C175.6480 95.7575 173.5938 87.3380 172.8858 84.1833 Z"></path>
<path id="" fill="#f6ddce" fill-opacity="1.0" stroke="#000000" stroke-width="0.0" stroke-opacity="1.0" stroke-linecap="round" stroke-linejoin="round"  filling="0" d="M302.1300 284.4300 C302.2300 284.4750 302.3350 284.5150 302.4350 284.5675 C302.9175 284.8225 303.2575 285.1475 303.5725 285.5875 C305.1575 287.8200 306.4975 290.2300 308.0875 292.4675 C310.4575 295.8025 313.0950 298.9400 315.3375 302.3700 C316.5600 304.2400 317.8950 306.2700 318.7275 308.3500 C320.1475 311.8950 319.9275 315.6725 320.9150 319.2875 L321.0100 319.6250 C319.5300 321.4950 318.0225 323.3750 316.7050 325.3650 C315.2950 327.4975 314.0600 329.7450 312.4800 331.7600 C308.6925 332.1575 306.4200 334.2725 303.3925 336.3450 C301.7350 337.0425 300.0125 337.1675 298.2350 337.0975 C294.1000 336.9350 288.9750 335.1275 286.2050 331.9300 C285.2825 330.8625 284.9300 329.7625 285.0575 328.3625 C285.5025 323.4725 288.7425 318.0025 290.6325 313.4775 C291.8300 310.6075 292.7200 307.6175 293.8875 304.7350 C295.1175 301.7025 296.6125 298.7450 297.7300 295.6750 C298.7650 292.8250 299.0475 289.6875 300.1950 286.8875 C300.6475 285.7825 301.2275 285.1900 302.1300 284.4300 Z"></path>
<path id="" fill="#eec2ad" fill-opacity="1.0" stroke="#000000" stroke-width="0.0" stroke-opacity="1.0" stroke-linecap="round" stroke-linejoin="round"  filling="0" d="M259.2725 227.6255 C260.8050 228.5085 265.7900 234.0152 267.4625 235.6550 C269.6800 237.8330 272.0825 239.8130 274.6450 241.5725 C271.2825 245.0635 266.9875 257.5100 263.6025 259.5300 C262.4750 258.6250 253.7200 258.1175 251.9425 258.1350 C245.8307 258.2000 240.0332 259.3325 233.8520 258.7650 C233.8515 258.5800 233.8475 258.3975 233.8450 258.2125 C233.7255 249.4207 247.5945 238.9890 254.0325 233.8927 C255.5675 232.6772 257.6100 231.6438 258.8750 230.1645 C259.4625 229.4778 259.2975 228.4778 259.2725 227.6255 Z"></path>
<path id="" fill="#fefefe" fill-opacity="1.0" stroke="#000000" stroke-width="0.0" stroke-opacity="1.0" stroke-linecap="round" stroke-linejoin="round"  filling="0" d="M303.7775 273.9050 C304.3850 273.9600 304.8950 273.9700 305.4175 274.3250 C305.8350 274.6075 306.0700 275.1400 306.0750 275.6375 C306.0900 277.4900 304.3875 279.2900 303.2300 280.5925 C302.7175 280.7100 302.3400 280.8225 301.8100 280.7475 C301.3975 280.6900 301.3850 280.5375 301.1375 280.2375 C300.8050 278.2075 302.7525 275.5825 303.7775 273.9050 Z"></path>
<path id="" fill="#4288c0" fill-opacity="1.0" stroke="#000000" stroke-width="0.0" stroke-opacity="1.0" stroke-linecap="round" stroke-linejoin="round"  filling="0" d="M198.3140 185.1300 C199.4967 172.0305 197.4410 153.7310 203.5712 141.9447 C206.0822 137.1170 209.9385 133.0440 214.0757 129.5668 C228.1472 117.7397 247.9577 114.7068 265.7625 116.3418 C281.7250 117.8075 296.1700 122.9325 309.9125 131.0925 C317.6025 135.6595 325.1000 140.7230 333.0375 144.8602 C337.5275 147.2010 342.1225 149.4360 346.8050 151.3647 C350.3875 152.8400 354.2475 153.9985 357.6175 155.9243 C355.3550 158.6902 352.7600 160.7003 349.7850 162.6525 C350.9600 163.3387 351.9050 164.0760 352.9150 164.9780 C350.8875 165.0688 348.4475 164.9337 346.5650 165.7122 C341.2350 167.9150 336.4575 172.5807 331.8950 176.0533 C329.1175 178.1678 326.1250 179.9772 323.2800 181.9975 C312.9600 189.3285 299.5175 199.7605 286.7225 201.7610 C284.1100 200.3457 281.2950 199.4185 278.6900 197.9600 C275.8225 196.3560 273.2875 194.0640 270.3850 192.5777 C269.6525 192.2023 268.8175 192.1308 268.0500 191.8225 C263.3625 188.9390 258.7175 183.9840 254.6725 180.2475 C251.1375 176.9805 247.3110 173.7660 243.5432 170.7697 L241.8675 169.8990 C239.9745 170.1065 237.5675 170.1995 236.2018 171.7263 C234.3810 173.7617 232.0092 191.5002 229.1817 193.3573 C226.7660 193.5047 223.4870 192.1608 221.1540 191.4955 L207.3250 187.5067 C204.3795 186.6575 201.3400 185.6243 198.3140 185.1300 Z"></path>
<path id="" fill="#fefefe" fill-opacity="1.0" stroke="#000000" stroke-width="0.0" stroke-opacity="1.0" stroke-linecap="round" stroke-linejoin="round"  filling="0" d="M243.5432 170.7697 C249.1897 170.9227 258.4700 181.1030 262.5375 185.0170 C264.4775 186.8813 266.5900 188.6110 268.4650 190.5278 C268.7200 190.7878 268.9300 191.0575 269.1500 191.3455 L269.0700 191.5130 C268.7475 191.6068 268.3575 191.6875 268.0500 191.8225 C263.3625 188.9390 258.7175 183.9840 254.6725 180.2475 C251.1375 176.9805 247.3110 173.7660 243.5432 170.7697 Z"></path>
<path id="" fill="#f6dece" fill-opacity="1.0" stroke="#000000" stroke-width="0.0" stroke-opacity="1.0" stroke-linecap="round" stroke-linejoin="round"  filling="0" d="M262.7275 318.2150 C262.8850 311.2200 257.1525 296.3400 258.0325 290.9375 C258.1375 290.2825 258.2450 290.2350 258.7425 289.8525 C262.4350 289.7175 266.5025 297.5225 270.3175 298.3525 C272.3750 297.7200 274.0400 293.6050 275.6425 291.9900 C279.0675 288.5425 285.5025 286.7850 290.2525 286.8400 C289.0225 292.5900 287.7750 295.2850 288.1325 301.3250 C289.3725 302.9300 290.7725 304.3200 292.2200 305.7400 C292.3750 305.7925 292.5275 305.8475 292.6825 305.8975 C295.3100 306.7375 299.4250 306.6200 301.7975 305.2425 C304.7200 303.5425 310.1350 295.8550 313.1625 296.3450 C315.2100 296.6750 316.8075 299.2225 317.7725 300.8950 C320.0700 304.8875 322.7850 313.1500 323.4875 317.7850 L323.1825 318.0900 C320.2225 321.0750 318.0200 324.7200 315.1125 327.7300 C310.9325 332.0575 302.6775 338.0275 297.6550 341.7150 C296.5875 344.6475 296.3250 348.2950 295.7775 351.3800 C294.7275 357.2950 293.3475 363.3200 292.8625 369.3100 C290.8225 372.5925 285.6525 375.8675 281.8650 376.6825 C278.3525 377.4375 274.0825 376.7400 271.0300 374.7775 C270.0300 374.1375 268.4450 373.0350 268.2475 371.7800 C268.2250 371.6450 268.2275 371.5050 268.2100 371.3700 C268.1825 371.1825 268.1350 370.9975 268.0950 370.8100 C267.8925 366.4600 267.3325 362.1375 267.1025 357.7900 C266.9100 354.0975 267.0300 350.3925 266.8250 346.7000 C266.6025 342.7125 266.0050 338.7200 265.4925 334.7625 C265.1725 332.2925 264.9700 329.6950 264.2675 327.3000 C263.2125 327.0200 262.0675 327.0125 260.9825 326.9350 C260.9550 323.7550 261.7075 321.2050 262.7275 318.2150 Z M291.5775 310.9425 C290.4950 314.1850 289.4225 317.4300 288.1850 320.6200 C287.2175 323.1200 285.8725 325.7250 285.2550 328.3250 C285.0600 329.1375 285.0100 329.8075 285.3725 330.5850 C286.6200 333.2625 290.9750 335.8375 293.7625 336.6475 C294.4950 336.8625 295.2850 336.9775 296.0425 337.0500 L297.5825 336.8425 C299.1375 333.8375 297.0275 318.3925 296.2000 315.1925 C295.8875 313.9900 295.3125 311.4725 294.2150 310.8275 L291.5775 310.9425 Z"></path>
<path id="" fill="#2a6797" fill-opacity="1.0" stroke="#000000" stroke-width="0.0" stroke-opacity="1.0" stroke-linecap="round" stroke-linejoin="round"  filling="0" d="M292.2200 305.7400 C292.3750 305.7925 292.5275 305.8475 292.6825 305.8975 C295.3100 306.7375 299.4250 306.6200 301.7975 305.2425 C304.7200 303.5425 310.1350 295.8550 313.1625 296.3450 C315.2100 296.6750 316.8075 299.2225 317.7725 300.8950 C320.0700 304.8875 322.7850 313.1500 323.4875 317.7850 L323.1825 318.0900 C320.2225 321.0750 318.0200 324.7200 315.1125 327.7300 C310.9325 332.0575 302.6775 338.0275 297.6550 341.7150 C297.4300 340.3225 297.8925 339.0425 297.6050 337.6675 C297.1200 337.0725 296.7825 337.1650 296.0425 337.0500 L297.5825 336.8425 C299.1375 333.8375 297.0275 318.3925 296.2000 315.1925 C295.8875 313.9900 295.3125 311.4725 294.2150 310.8275 L294.4075 310.5025 C294.2150 309.0400 293.1200 306.9100 292.2200 305.7400 Z"></path>
<path id="" fill="#aab8c2" fill-opacity="1.0" stroke="#000000" stroke-width="0.0" stroke-opacity="1.0" stroke-linecap="round" stroke-linejoin="round"  filling="0" d="M262.7275 318.2150 C262.6575 321.2050 263.8925 324.3325 264.2675 327.3000 C263.2125 327.0200 262.0675 327.0125 260.9825 326.9350 C260.9550 323.7550 261.7075 321.2050 262.7275 318.2150 Z"></path>
<path id="" fill="#4289c0" fill-opacity="1.0" stroke="#000000" stroke-width="0.0" stroke-opacity="1.0" stroke-linecap="round" stroke-linejoin="round"  filling="0" d="M192.3528 60.3968 C201.9778 59.3622 214.5285 61.0437 222.6967 66.5905 C225.3318 68.3798 227.4778 70.8300 228.0370 74.0547 C229.1777 80.6325 223.8975 85.2448 220.4705 90.0918 C215.7735 90.7632 211.1797 94.0635 206.6452 95.5997 C195.3645 99.3235 183.8627 102.3412 172.2068 104.6355 C168.4227 105.6602 164.4473 106.3163 160.5990 107.0795 C154.3963 108.3092 148.2765 109.5340 141.9837 110.2025 C142.9690 100.1093 147.4263 90.8873 153.7440 83.0440 C160.1110 75.1395 169.0177 67.3190 178.5300 63.5643 C182.8885 61.8440 187.7035 60.9080 192.3528 60.3968 Z"></path>
<path id="" fill="#4289c1" fill-opacity="1.0" stroke="#000000" stroke-width="0.0" stroke-opacity="1.0" stroke-linecap="round" stroke-linejoin="round"  filling="0" d="M268.0950 370.8100 C268.1350 370.9975 268.1825 371.1825 268.2100 371.3700 C268.2275 371.5050 268.2250 371.6450 268.2475 371.7800 C268.4450 373.0350 270.0300 374.1375 271.0300 374.7775 C274.0825 376.7400 278.3525 377.4375 281.8650 376.6825 C285.6525 375.8675 290.8225 372.5925 292.8625 369.3100 L293.1700 369.7275 C294.5400 369.7700 295.6650 369.5150 296.6925 370.6125 C298.8475 372.9150 300.9925 379.0625 301.4450 382.2075 C303.3225 386.0600 303.9875 390.4100 304.8375 394.5825 C303.7850 394.7150 302.6200 394.7650 301.6125 395.0850 L301.3450 395.2625 C285.5425 405.6850 255.8450 421.0600 236.6358 416.8850 C234.8223 416.4900 232.6995 415.8150 231.6945 414.1200 C230.8797 412.7475 231.1520 411.0950 231.7620 409.7000 C234.3420 403.8025 247.4755 390.6775 252.7725 385.7950 C255.3875 383.3875 267.4575 373.1975 268.0950 370.8100 Z"></path>
<path id="" fill="#fbfcfd" fill-opacity="1.0" stroke="#000000" stroke-width="0.0" stroke-opacity="1.0" stroke-linecap="round" stroke-linejoin="round"  filling="0" d="M301.4450 382.2075 C303.3225 386.0600 303.9875 390.4100 304.8375 394.5825 C303.7850 394.7150 302.6200 394.7650 301.6125 395.0850 C301.4800 392.7850 300.4400 383.9075 301.4450 382.2075 Z"></path>
</svg>