<svg xmlns="http://www.w3.org/2000/svg" viewBox="0 0 512 512" height="512.0px" width="512.0px">
<path id="" fill="#7c533e" fill-opacity="1.0" stroke="#000000" stroke-width="0.0" stroke-opacity="1.0" stroke-linecap="round" stroke-linejoin="round"  filling="0" d="M255.5500 87.8838 C258.5150 87.6823 261.5650 87.8590 264.5300 88.0023 C302.4850 89.8347 339.4300 105.4040 365.1325 133.6962 C388.3150 159.2125 399.6525 199.2993 397.9975 233.3147 C400.0175 233.8913 402.0875 234.3248 404.0275 235.1445 C412.3500 238.6595 416.9000 246.3895 420.1000 254.4275 C426.7175 271.0600 426.2775 290.9900 419.1900 307.3750 C416.2150 314.2525 412.3850 321.2350 405.4450 324.7800 C402.6225 326.2225 399.4500 327.2425 396.4925 328.4100 C390.6975 361.8400 375.2950 395.6350 351.4050 420.0400 C326.2775 445.6825 292.0525 460.3850 256.1550 460.9600 C225.5360 460.8150 197.9635 450.4300 173.8520 431.8275 C143.6205 408.5050 120.2787 365.3975 115.4308 327.7450 C111.6338 326.8750 107.5742 325.8050 104.3477 323.5225 C94.9420 316.8750 89.9463 302.5675 88.1730 291.6800 C85.6995 276.4925 88.0215 256.7100 97.2578 244.0457 C101.6940 237.9625 107.1190 234.5985 114.5193 233.4490 C114.3000 231.1535 114.1705 228.8503 114.1308 226.5445 C114.0117 219.7177 114.7630 212.9973 115.7365 206.2490 C119.6560 179.0777 130.1760 150.9065 149.5618 130.8862 C174.5968 105.0323 208.1028 90.9742 243.7740 88.2122 C247.6772 87.9100 251.6375 87.9425 255.5500 87.8838 Z"></path>
<path id="" fill="#fee41e" fill-opacity="1.0" stroke="#000000" stroke-width="0.0" stroke-opacity="1.0" stroke-linecap="round" stroke-linejoin="round"  filling="0" d="M171.5485 160.1220 C153.6720 173.3407 141.0270 193.5880 132.6752 213.9142 C129.9917 220.4455 127.7588 227.4037 126.0190 234.2490 C125.0348 238.1220 124.4693 242.2153 123.1045 245.9740 C122.6550 247.2122 122.0447 248.7430 120.8822 249.4760 C119.7755 250.1800 118.4268 250.3950 117.1560 250.0700 C114.0745 249.2672 111.7437 245.6862 110.2063 243.1068 C104.0137 232.7170 101.0945 214.7847 100.1573 202.6855 C99.9195 199.6147 99.9520 196.5287 99.7885 193.4540 C99.5910 189.7397 99.1183 185.9720 99.2428 182.2515 C99.6110 172.6082 100.9583 163.0273 103.2632 153.6562 C111.2550 121.5898 133.5225 92.2117 161.8427 75.3020 C166.3490 72.6115 170.9843 69.8798 175.7182 67.6180 C196.3158 57.7780 218.5160 53.4577 241.1225 51.8220 C244.5708 51.5725 247.9985 51.1455 251.4575 51.0530 C266.6725 50.6465 285.1825 52.7018 299.9225 56.4433 C338.1600 66.1485 374.5975 90.5573 394.8750 124.8503 C404.6075 141.3073 410.5575 157.3898 412.2800 176.4570 C412.5725 179.7198 412.9125 183.0217 412.9225 186.3000 C412.9350 190.3578 412.2050 194.4077 412.1150 198.4727 C411.8200 211.9408 410.9275 225.5775 407.5050 238.6735 C406.4400 242.7465 404.2050 250.4625 400.2300 252.6225 C398.7825 253.4100 397.1750 253.3725 395.6450 252.8575 C393.3850 252.1000 391.4725 249.2260 390.2200 247.3062 C386.3900 241.4252 383.5100 234.7045 380.3700 228.4220 L364.1950 195.9588 C339.1725 195.6360 306.2250 192.3647 283.3825 182.0155 C280.3850 180.6573 277.6025 179.0103 274.8000 177.2997 C273.9600 177.1138 273.1950 176.8395 272.3575 177.1570 C271.9575 177.6628 271.8950 177.9120 271.9850 178.5635 C272.0975 179.3987 272.3750 180.2640 272.5825 181.0827 C274.6250 186.3465 276.7900 191.8660 277.1525 197.5517 C277.2650 199.3130 277.2125 201.5712 275.9200 202.9283 C275.2125 203.6707 274.2075 203.9438 273.2100 203.9580 C264.7300 204.0780 242.0045 181.7740 235.5215 175.7617 L232.7953 175.8042 C233.2007 178.7165 232.9492 182.0145 231.7453 184.7185 C230.7222 187.0165 229.0570 188.6962 226.6552 189.5150 C214.5950 193.6263 189.6803 174.1025 180.2940 166.8918 C177.5175 164.7587 174.9450 161.8500 171.8370 160.2637 C171.7415 160.2150 171.6447 160.1693 171.5485 160.1220 Z"></path>
<path id="" fill="#7d543d" fill-opacity="1.0" stroke="#000000" stroke-width="0.0" stroke-opacity="1.0" stroke-linecap="round" stroke-linejoin="round"  filling="0" d="M268.0500 171.8013 C270.1475 173.8338 272.4625 175.5590 274.8000 177.2997 C273.9600 177.1138 273.1950 176.8395 272.3575 177.1570 C271.9575 177.6628 271.8950 177.9120 271.9850 178.5635 C272.0975 179.3987 272.3750 180.2640 272.5825 181.0827 C270.9200 178.1183 269.6650 174.8277 268.0500 171.8013 Z"></path>
<path id="" fill="#3d2e24" fill-opacity="1.0" stroke="#000000" stroke-width="0.0" stroke-opacity="1.0" stroke-linecap="round" stroke-linejoin="round"  filling="0" d="M194.3370 376.0450 C200.7852 375.5375 206.1568 381.2975 212.0760 383.1450 C224.3073 386.9625 237.2435 387.9625 249.9765 387.9950 C257.6675 388.0125 265.5275 388.2975 273.2025 387.8400 C280.5550 387.4025 288.2450 386.1550 295.3800 384.3600 C298.1125 383.6725 300.8500 382.9050 303.4150 381.7175 C307.5825 379.7875 311.6575 375.7875 316.4775 375.9375 C317.0900 375.9575 317.7000 376.0325 318.3000 376.1625 C321.6650 376.8675 324.7600 378.5850 326.6300 381.5475 C328.3700 384.3075 328.7300 388.6075 327.9625 391.7650 C326.8700 396.2550 322.2950 399.3100 318.5675 401.5075 C315.0900 403.4475 311.3575 404.8450 307.5925 406.1125 C297.8750 409.3875 287.2200 411.1675 277.0025 411.9325 C274.6650 412.1075 272.3175 412.0975 269.9775 412.2450 C266.9875 412.4325 264.0175 412.9050 261.0200 412.9950 C257.3625 413.1050 253.5875 413.1700 249.9342 412.9450 C247.4505 412.7925 244.9807 412.4250 242.4970 412.2650 C239.9178 412.0975 237.3253 412.1175 234.7498 411.9000 C221.2897 410.7700 207.3645 408.2900 195.1922 402.2450 C191.1265 400.2275 185.7108 397.2100 184.3065 392.5275 C183.4492 389.6700 183.5038 384.6400 185.0587 382.0375 C187.0773 378.6600 190.6455 376.9000 194.3370 376.0450 Z"></path>
<path id="" fill="#000000" fill-opacity="1.0" stroke="#000000" stroke-width="0.0" stroke-opacity="1.0" stroke-linecap="round" stroke-linejoin="round"  filling="0" d="M193.0428 244.0550 C196.1820 243.8188 199.2457 243.8658 202.0450 245.5098 C204.8405 247.1515 206.8500 249.8575 207.6138 253.0075 C208.3010 255.8775 208.3200 279.1250 207.8652 282.0200 C207.6003 283.7900 206.9718 285.4875 206.0195 287.0025 C204.2903 289.7225 201.4283 291.2900 198.3320 291.9275 C195.1463 292.2450 191.9297 292.2800 189.1362 290.4625 C186.3362 288.6425 184.5780 285.7925 183.8640 282.5650 C182.9173 278.2900 182.9868 259.1525 183.6020 254.8800 C183.8920 252.8625 184.3833 250.8850 185.5363 249.1725 C187.3203 246.5242 189.9180 244.6828 193.0428 244.0550 Z"></path>
<path id="" fill="#000000" fill-opacity="1.0" stroke="#000000" stroke-width="0.0" stroke-opacity="1.0" stroke-linecap="round" stroke-linejoin="round"  filling="0" d="M313.6950 244.0428 C316.9800 243.8135 320.2150 243.8090 323.0800 245.6910 C326.0175 247.6225 327.6800 250.6475 328.3125 254.0475 C329.0675 258.1025 329.0150 277.7025 328.2975 281.8825 C327.9525 283.8900 327.2600 285.7925 326.0600 287.4550 C324.2800 289.9175 321.8625 291.4600 318.8675 291.9275 C315.6700 292.2700 312.5450 292.1325 309.6750 290.5075 C307.0475 289.0175 305.3425 286.5100 304.5425 283.6275 C303.8200 281.0250 303.7275 257.6350 304.1675 254.0850 C304.3475 252.6300 304.7875 251.2950 305.5425 250.0350 C307.3825 246.9608 310.2825 244.9565 313.6950 244.0428 Z"></path>
<path id="" fill="#3d2e24" fill-opacity="1.0" stroke="#000000" stroke-width="0.0" stroke-opacity="1.0" stroke-linecap="round" stroke-linejoin="round"  filling="0" d="M242.7150 328.0525 C247.3625 327.8325 252.0400 327.9775 256.6925 327.9525 C260.8700 327.9325 265.5275 327.4825 269.6175 328.2450 C271.7850 328.6575 273.8250 329.5750 275.5700 330.9250 C278.2950 333.0225 279.6900 335.9125 280.0975 339.2775 C280.5125 342.7075 279.1100 346.0750 276.9350 348.6900 C275.1175 350.8750 273.0100 351.8475 270.2175 352.0600 C264.4625 352.2475 258.6500 352.0925 252.8900 352.1125 C248.9495 352.1250 244.5220 352.5200 240.6277 351.9325 C239.5137 351.7650 238.5282 351.4275 237.5612 350.8450 C234.8555 349.2150 232.9532 346.0675 232.2360 343.0425 C231.5397 340.1075 231.9527 336.5725 233.6158 334.0175 C235.6387 330.9075 239.1505 328.8275 242.7150 328.0525 Z"></path>
</svg>