<svg xmlns="http://www.w3.org/2000/svg" viewBox="0 0 512 512" height="512.0px" width="512.0px">
<path id="" fill="#292f33" fill-opacity="1.0" stroke="#000000" stroke-width="0.0" stroke-opacity="1.0" stroke-linecap="round" stroke-linejoin="round"  filling="0" d="M208.7930 57.0655 C211.8175 56.9417 214.6770 57.4258 217.5052 58.5185 C232.7610 64.4117 249.5645 88.2083 256.0725 102.7815 C260.8100 93.0587 266.8100 83.5033 273.6675 75.1300 C279.5700 67.9230 289.6525 57.9967 299.3425 57.1185 C303.0850 56.7793 306.7125 57.4940 309.6575 59.9707 C319.5850 68.3245 322.4200 88.7032 323.3975 101.0675 C323.7450 105.4538 323.7000 109.8562 324.0950 114.2365 C328.3050 113.2897 332.4625 112.0855 336.6675 111.1095 C356.2050 106.5768 376.5475 102.5240 396.6650 104.5332 C402.5450 105.1202 408.6100 106.0430 413.7900 109.0915 C416.5050 110.6885 418.3100 113.0115 419.0225 116.0960 C421.1600 125.3600 414.1275 135.1600 408.7175 141.9815 C407.2150 143.8740 405.2825 145.6328 404.0650 147.6983 C404.0200 147.7728 403.9800 147.8490 403.9375 147.9245 C406.8800 150.7383 413.7675 154.4880 417.5325 157.0360 C429.3525 165.0318 446.8800 180.3180 450.3550 194.4320 C451.8825 200.6375 451.1050 206.3615 447.7925 211.8270 C443.9600 218.1525 433.3250 225.5233 426.1625 227.2965 C428.6550 231.0750 431.7150 234.5403 434.3075 238.2765 C442.2325 249.6973 450.7375 264.9650 453.2900 278.7850 C454.8625 287.3150 454.3975 296.6825 449.3400 304.0050 C444.2175 311.4200 435.0675 315.2675 426.4875 317.0200 C422.9825 317.7350 419.3800 318.0425 415.8500 318.6750 C425.3075 323.7700 435.9975 331.2225 443.3275 338.9800 C452.7525 348.9600 461.1825 362.0375 460.7150 376.2975 C460.5050 382.7025 458.9475 389.6650 454.0725 394.1825 C444.6375 402.9250 422.0600 399.8200 410.0525 398.7975 C404.2175 398.3100 398.3750 397.9400 392.5250 397.6850 C394.2425 400.5475 396.4250 403.1700 398.3525 405.8975 C400.4950 408.9325 402.3950 412.1625 404.1650 415.4275 C407.2850 421.1875 411.5775 430.7225 409.4450 437.3900 C408.5225 440.2800 406.2900 442.4750 403.6275 443.8325 C390.2225 450.6800 359.4375 444.1625 345.0775 439.6325 C345.0500 439.7000 345.0225 439.7675 344.9925 439.8325 L344.8475 440.1625 C344.7375 440.4125 344.6325 440.6625 344.5175 440.9075 C342.5950 445.0200 338.7075 447.5850 334.5525 449.0400 C326.9375 451.3925 311.6950 449.4225 303.4675 449.1350 C297.1675 448.9175 290.8450 449.0625 284.5550 448.6875 C279.2225 448.3700 272.7175 447.3500 267.4700 448.0700 C264.6600 450.1650 261.9600 453.3100 259.6250 455.9450 C258.7800 456.8975 257.9675 458.1125 257.0150 458.9325 C256.5450 459.3375 256.3250 459.3600 255.7350 459.4450 C253.7075 458.6400 246.8562 450.0700 244.5822 447.8325 C238.4597 447.5825 232.0312 448.5775 225.8952 448.8850 C218.1557 449.2725 210.4138 449.1025 202.6562 449.5325 C195.5462 449.9300 187.1272 450.7475 180.0862 449.6450 C177.1065 449.1775 174.2993 448.1300 171.8390 446.3650 C169.2717 444.5200 167.6353 442.3675 167.1180 439.2100 C160.6495 441.9725 153.0562 443.3625 146.1510 444.5525 C134.9767 446.4750 115.9575 449.6000 106.3067 442.4825 C103.9068 440.7125 102.5165 438.2300 102.1422 435.2875 C100.6170 423.2975 112.4293 406.9675 119.6458 397.9625 L119.2470 397.9475 C115.5738 397.7600 111.8510 398.1550 108.1817 398.3975 C97.8922 399.0750 87.3720 400.4725 77.0642 400.0325 C70.1298 399.7350 61.3018 397.9525 56.4455 392.5300 C52.1370 387.7200 50.7767 380.0775 51.1232 373.8200 C52.1615 355.0650 66.4165 339.1150 80.8340 328.5250 C82.9583 326.9475 85.1527 325.4650 87.4105 324.0850 C89.2793 322.9275 91.4973 321.8150 93.1200 320.3575 L93.1575 319.6575 C92.8165 318.7650 92.3370 318.3725 91.4503 318.0850 C89.2585 317.3800 86.6608 317.3475 84.3855 316.8700 C79.3092 315.8025 71.3367 312.3950 67.4330 308.9775 C61.7852 304.0325 58.5010 297.8725 58.0107 290.3325 C57.7300 285.6300 58.1407 280.9100 59.2298 276.3250 C63.0123 260.6100 75.2322 239.7473 85.8192 227.5538 C77.0640 224.2003 68.3683 219.4745 63.6313 211.0150 C60.5715 205.5508 59.9750 199.6205 61.7275 193.6243 C66.9985 175.5907 92.2913 157.0692 108.3853 148.3342 C104.8217 144.6158 101.4092 140.2032 98.6700 135.8503 C95.2288 130.3822 90.9910 122.6107 92.6885 115.8748 C93.4283 112.9398 95.3593 110.7355 97.9040 109.1750 C117.6510 97.0660 166.2130 108.8705 188.0137 114.2450 C188.1095 99.1397 189.6170 75.5610 198.7623 63.1655 C201.3288 59.6870 204.5247 57.7337 208.7930 57.0655 Z"></path>
<path id="" fill="#4d2e36" fill-opacity="1.0" stroke="#000000" stroke-width="0.0" stroke-opacity="1.0" stroke-linecap="round" stroke-linejoin="round"  filling="0" d="M130.9577 238.5960 C131.1050 235.9815 131.5538 233.3910 131.7935 230.7847 C132.0343 228.1660 131.9785 225.5330 132.3022 222.9180 C134.4120 205.8725 139.2923 187.9207 147.6033 172.8188 C153.0085 162.9967 160.0915 153.9870 167.6803 145.7648 C171.1313 142.0255 175.0510 139.0220 179.1215 136.0120 C197.0835 122.6730 218.6248 115.0113 240.9755 114.0117 C246.5020 113.7947 252.0900 113.9435 257.6225 113.9457 C263.2075 113.9480 268.9475 113.6755 274.5100 114.0780 C293.5250 115.4745 311.8375 121.8585 327.6000 132.5862 C332.7700 136.0757 337.9250 139.6935 342.4650 143.9980 C344.1675 145.6110 345.5375 147.6017 347.1100 149.3403 C349.1850 151.6308 351.3925 153.7625 353.2950 156.2090 C366.9625 173.7892 374.7325 194.9637 378.4125 216.7635 C378.9775 220.0997 379.6250 223.4705 379.9500 226.8383 C380.3000 230.4580 380.0575 234.2355 380.1500 237.8817 C383.2200 239.8720 386.8350 240.9702 389.6050 243.4572 C398.9350 251.8400 403.2550 270.5225 403.9750 282.5925 C405.0125 300.0250 399.8925 319.7875 388.8075 333.5100 C386.3350 336.5700 382.9400 338.3700 380.4025 341.2675 L380.1625 341.5450 C379.8825 345.7775 380.4000 350.0850 379.8625 354.3025 C378.2950 366.5950 374.0300 378.2275 368.4975 389.2375 C362.1025 401.9650 355.9900 411.1900 346.2100 421.5775 C345.8150 427.4050 346.4525 433.2925 345.8625 439.1050 C343.6225 441.9275 341.9750 445.1825 339.0600 447.4175 C335.0475 450.4950 330.0850 451.9425 325.1675 452.7775 C318.1450 453.9700 311.1825 453.8450 304.0875 453.8425 L282.4200 453.8300 L268.9950 453.8500 C266.4950 453.8525 263.8475 454.0200 261.3700 453.6750 C260.3500 455.4825 259.0525 458.4800 256.8000 459.0100 C255.8025 459.2475 254.8550 458.9075 254.0250 458.3625 C252.3350 457.2575 250.8550 455.3150 249.4763 453.8400 C237.7287 453.6750 225.9572 453.8150 214.2077 453.8475 C204.1283 453.8725 193.5247 454.5250 183.6435 452.1625 C179.2645 451.1150 174.9272 449.2250 171.7075 446.0025 C169.8712 444.1625 167.6387 441.6225 166.5972 439.2325 C164.4628 434.3275 164.9940 426.4000 164.9665 421.0150 C161.8732 416.0125 157.2567 411.8375 153.8098 406.9100 C144.5585 393.6875 136.8678 378.6825 133.4485 362.8225 C132.5777 358.7825 132.1342 354.6825 131.7115 350.5775 C131.3610 347.1725 130.9785 343.8700 130.9555 340.4400 C118.9003 332.2825 112.2498 317.8875 109.2230 304.0100 C108.0420 298.5950 107.9400 293.5250 107.9430 288.0150 C107.9447 284.6375 107.8303 281.1900 108.1008 277.8225 C108.9150 267.6825 112.5242 256.7600 118.0518 248.2632 C121.1752 243.4615 125.2365 239.8013 130.9577 238.5960 Z"></path>
<path id="" fill="#ffffff" fill-opacity="1.0" stroke="#000000" stroke-width="0.0" stroke-opacity="1.0" stroke-linecap="round" stroke-linejoin="round"  filling="0" d="M249.4763 453.8400 C251.3075 453.3675 259.4600 453.3725 261.3700 453.6750 C260.3500 455.4825 259.0525 458.4800 256.8000 459.0100 C255.8025 459.2475 254.8550 458.9075 254.0250 458.3625 C252.3350 457.2575 250.8550 455.3150 249.4763 453.8400 Z"></path>
<path id="" fill="#dc2d43" fill-opacity="1.0" stroke="#000000" stroke-width="0.0" stroke-opacity="1.0" stroke-linecap="round" stroke-linejoin="round"  filling="0" d="M239.1560 114.1180 C249.8290 114.0125 260.5025 113.9855 271.1750 114.0375 C299.7000 114.2858 327.3800 127.5287 347.1525 147.7915 C366.6500 167.7740 377.5675 199.7200 380.1325 227.1625 C380.4950 231.0547 380.9175 234.8208 380.8650 238.7440 C385.4450 239.8135 389.1900 242.2787 392.1350 245.9380 C402.4825 258.8025 405.4950 280.6225 403.6000 296.6300 C401.5900 313.6350 394.6775 330.7300 380.9525 341.5150 C380.9025 344.9500 380.9400 348.4675 380.5325 351.8800 C378.2425 371.0875 369.8400 390.5400 358.9775 406.4150 C355.6150 411.3300 349.8675 416.2475 347.4425 421.5250 C346.6825 423.1825 346.8250 425.1875 346.7975 426.9700 C346.6900 433.8500 346.5975 440.8250 341.4825 446.0125 C331.2975 456.3375 308.4900 455.0900 294.9450 455.0325 L272.6250 455.0325 L222.4015 455.1200 C212.1520 455.1325 201.3943 455.8075 191.2487 454.2650 C183.9250 453.1525 175.8470 451.3300 170.3248 446.0725 C163.7213 439.7875 165.1640 429.8025 164.9568 421.5375 C163.6965 419.8875 162.1758 418.3700 160.8215 416.7925 C158.8045 414.4050 156.8730 411.9475 155.0302 409.4225 C143.9122 394.4200 137.3257 379.2225 132.8800 361.1775 C132.2133 358.4725 131.6978 355.7975 131.4243 353.0200 C131.1220 349.9525 131.6415 345.0600 130.4755 342.4075 C129.2320 339.5800 125.8213 337.4325 123.8225 335.1225 C118.5948 329.0850 114.3765 321.5625 111.8145 314.0150 C110.3817 309.7950 109.1365 305.1775 108.4902 300.7650 C107.9300 296.9375 107.9755 292.9600 107.9615 289.1025 C107.9163 276.7075 108.9530 265.2050 114.5797 253.9175 C118.3613 246.3288 122.9710 240.8347 131.1595 238.1220 C130.6283 216.3915 138.2587 188.7227 148.7518 169.7610 C153.2872 161.6918 158.7923 154.2072 165.1443 147.4742 C167.7888 144.7142 170.7012 142.2903 173.6325 139.8475 C176.7490 137.2502 179.8828 134.5890 183.2513 132.3215 C199.2867 121.5260 219.7740 114.4587 239.1560 114.1180 Z"></path>
<path id="" fill="#fecc4d" fill-opacity="1.0" stroke="#000000" stroke-width="0.0" stroke-opacity="1.0" stroke-linecap="round" stroke-linejoin="round"  filling="0" d="M225.8935 282.5675 C223.9300 284.8950 221.4108 287.2475 219.0148 289.1250 C211.8230 294.7575 206.3250 295.8025 197.4267 295.8425 C194.6805 295.8525 191.8208 295.9700 189.0952 295.6175 C181.3817 294.6200 159.9308 290.1900 153.4012 286.4525 C149.2312 284.0675 145.5177 280.3750 142.5957 276.5975 C137.2148 269.6400 134.3132 260.1900 135.4695 251.4000 C136.7932 241.3335 141.2090 233.2318 149.0990 226.7802 C151.2363 225.0327 153.5890 223.5195 155.8123 221.8813 C157.8992 220.3432 159.8365 218.5997 161.9295 217.0768 C163.1797 216.1670 163.9328 215.9925 165.4657 216.2500 C170.0505 216.8315 173.8775 219.0115 178.2580 220.1895 C191.0650 223.6335 204.4232 227.0360 217.6512 228.3898 C219.1245 229.7900 220.3380 231.4815 221.5870 233.0795 C227.4653 240.6003 232.7695 249.9532 232.9688 259.7325 C233.0137 261.9325 233.0185 264.4025 232.5237 266.5500 C232.1480 268.4025 231.9747 270.6425 231.1848 272.3475 C229.9738 275.0850 228.5375 277.7475 227.4707 280.5400 C226.9985 281.2850 226.4877 281.9175 225.8935 282.5675 Z"></path>
<path id="" fill="#55abed" fill-opacity="1.0" stroke="#000000" stroke-width="0.0" stroke-opacity="1.0" stroke-linecap="round" stroke-linejoin="round"  filling="0" d="M225.8935 282.5675 C223.9300 284.8950 221.4108 287.2475 219.0148 289.1250 C211.8230 294.7575 206.3250 295.8025 197.4267 295.8425 C194.6805 295.8525 191.8208 295.9700 189.0952 295.6175 C181.3817 294.6200 159.9308 290.1900 153.4012 286.4525 C149.2312 284.0675 145.5177 280.3750 142.5957 276.5975 C137.2148 269.6400 134.3132 260.1900 135.4695 251.4000 C136.7932 241.3335 141.2090 233.2318 149.0990 226.7802 C151.2363 225.0327 153.5890 223.5195 155.8123 221.8813 C157.8992 220.3432 159.8365 218.5997 161.9295 217.0768 C163.1797 216.1670 163.9328 215.9925 165.4657 216.2500 C168.4875 217.9953 172.0565 218.6680 175.2080 220.1633 L175.0643 220.4877 C172.6185 225.8865 167.5805 228.5748 163.2507 232.2457 C152.6715 241.2157 148.0695 252.7300 153.0145 266.1800 C155.5748 273.1425 160.0700 278.0500 166.8318 281.1775 C172.3985 283.7500 195.9665 289.2200 202.0375 289.3050 C205.4913 289.3525 209.0285 288.6475 212.2598 287.4450 C215.3805 286.2825 218.1385 284.4725 220.7388 282.4125 C221.4653 281.8375 222.2507 280.9050 223.0087 280.4600 C224.2677 278.8950 225.4690 277.4150 226.4798 275.6700 C228.2498 272.1325 229.2878 268.7775 229.8372 264.8675 C230.3880 265.1525 230.5180 265.7350 230.6760 266.3275 C231.1927 268.2600 230.6650 270.3800 231.1848 272.3475 C229.9738 275.0850 228.5375 277.7475 227.4707 280.5400 C226.9985 281.2850 226.4877 281.9175 225.8935 282.5675 Z"></path>
<path id="" fill="#dd2e44" fill-opacity="1.0" stroke="#000000" stroke-width="0.0" stroke-opacity="1.0" stroke-linecap="round" stroke-linejoin="round"  filling="0" d="M230.9295 252.6825 C231.1958 253.0400 231.4785 253.4450 231.6030 253.8775 C231.8135 254.6125 231.7070 255.5975 231.7682 256.3775 C232.0312 259.7375 232.1057 263.2200 232.5237 266.5500 C232.1480 268.4025 231.9747 270.6425 231.1848 272.3475 C230.6650 270.3800 231.1927 268.2600 230.6760 266.3275 C230.5180 265.7350 230.3880 265.1525 229.8372 264.8675 C230.0005 262.2100 229.8652 259.6125 229.7125 256.9600 C230.7960 255.1675 230.9093 254.7150 230.9295 252.6825 Z"></path>
<path id="" fill="#babf8e" fill-opacity="1.0" stroke="#000000" stroke-width="0.0" stroke-opacity="1.0" stroke-linecap="round" stroke-linejoin="round"  filling="0" d="M229.7125 256.9600 C229.4167 254.9750 229.1682 252.9150 228.5768 250.9925 C227.5490 247.6515 225.8700 244.3115 225.8410 240.7545 L226.0793 240.8875 C227.7733 244.6537 230.1160 248.6432 230.9295 252.6825 C230.9093 254.7150 230.7960 255.1675 229.7125 256.9600 Z"></path>
<path id="" fill="#fecb4d" fill-opacity="1.0" stroke="#000000" stroke-width="0.0" stroke-opacity="1.0" stroke-linecap="round" stroke-linejoin="round"  filling="0" d="M337.1100 219.0655 C337.2100 219.0415 337.3125 219.0188 337.4150 218.9935 C340.4375 218.2417 346.5525 213.6313 349.3575 215.3403 C351.5325 216.6658 353.5550 218.6057 355.6675 220.0885 C364.3150 226.1523 373.5600 232.0310 375.7650 243.2225 C378.1500 255.3375 377.5700 262.9000 370.5300 273.2975 C366.6000 279.1075 359.7625 284.2550 353.0950 286.4300 C349.4975 287.6025 345.6675 288.1575 341.9775 288.9875 C335.9050 290.3350 329.8100 291.5900 323.6975 292.7525 C321.0200 293.2550 318.1000 293.9300 315.3775 294.0025 C308.1825 294.1925 299.0800 290.9050 293.2300 286.8725 C289.1750 284.0750 286.8450 280.9900 284.2550 276.8600 C283.3950 275.6525 282.7375 274.2400 282.1600 272.8775 C280.3325 268.5650 277.9150 261.1650 279.7800 256.5950 C279.9250 254.2250 280.6900 251.5900 281.2850 249.2957 C283.0400 243.4608 285.8750 238.3020 289.0225 233.1315 C289.8275 231.6992 291.0825 230.2735 292.3425 229.2213 C295.8575 226.2860 299.9225 227.5197 304.0400 226.7278 C308.9950 225.7747 314.0750 224.7420 318.9750 223.5405 C322.6550 222.6375 334.1525 218.7980 337.1100 219.0655 Z"></path>
<path id="" fill="#55aced" fill-opacity="1.0" stroke="#000000" stroke-width="0.0" stroke-opacity="1.0" stroke-linecap="round" stroke-linejoin="round"  filling="0" d="M337.1100 219.0655 C337.2100 219.0415 337.3125 219.0188 337.4150 218.9935 C340.4375 218.2417 346.5525 213.6313 349.3575 215.3403 C351.5325 216.6658 353.5550 218.6057 355.6675 220.0885 C364.3150 226.1523 373.5600 232.0310 375.7650 243.2225 C378.1500 255.3375 377.5700 262.9000 370.5300 273.2975 C366.6000 279.1075 359.7625 284.2550 353.0950 286.4300 C349.4975 287.6025 345.6675 288.1575 341.9775 288.9875 C335.9050 290.3350 329.8100 291.5900 323.6975 292.7525 C321.0200 293.2550 318.1000 293.9300 315.3775 294.0025 C308.1825 294.1925 299.0800 290.9050 293.2300 286.8725 C289.1750 284.0750 286.8450 280.9900 284.2550 276.8600 C285.1325 277.3875 286.0850 277.8825 286.8525 278.5600 L286.9625 278.6475 C287.7425 281.9600 293.4975 286.3600 296.2625 288.0300 C296.5750 288.2200 296.8750 288.3375 297.2150 288.4700 L297.5700 287.9275 C296.9675 287.2925 296.3450 286.7100 295.6900 286.1275 C296.5050 286.2675 296.9550 286.4875 297.6400 286.9525 C298.0575 287.2350 298.7275 287.1550 299.2350 287.1850 C301.3500 288.2225 303.6225 288.6100 305.9425 288.9225 C315.1000 290.1500 320.8675 287.9900 329.6100 286.0100 C333.9825 285.0175 338.6150 284.2450 342.8575 282.7875 C350.1325 280.2900 354.9150 274.7325 358.1550 267.9500 C360.4050 263.2400 361.3575 258.6075 360.9750 253.3800 C360.1375 241.9783 352.0675 235.6595 344.1800 228.5735 C341.6250 226.2775 338.7900 223.5490 337.6525 220.2238 C337.6225 220.1345 337.5950 220.0448 337.5650 219.9555 L337.1100 219.0655 Z"></path>
<path id="" fill="#db2f46" fill-opacity="1.0" stroke="#000000" stroke-width="0.0" stroke-opacity="1.0" stroke-linecap="round" stroke-linejoin="round"  filling="0" d="M337.1100 219.0655 C337.2100 219.0415 337.3125 219.0188 337.4150 218.9935 C340.4375 218.2417 346.5525 213.6313 349.3575 215.3403 C351.5325 216.6658 353.5550 218.6057 355.6675 220.0885 C364.3150 226.1523 373.5600 232.0310 375.7650 243.2225 C378.1500 255.3375 377.5700 262.9000 370.5300 273.2975 C366.6000 279.1075 359.7625 284.2550 353.0950 286.4300 C349.4975 287.6025 345.6675 288.1575 341.9775 288.9875 C335.9050 290.3350 329.8100 291.5900 323.6975 292.7525 C321.0200 293.2550 318.1000 293.9300 315.3775 294.0025 C308.1825 294.1925 299.0800 290.9050 293.2300 286.8725 C289.1750 284.0750 286.8450 280.9900 284.2550 276.8600 C285.1325 277.3875 286.0850 277.8825 286.8525 278.5600 L286.9625 278.6475 C287.7425 281.9600 293.4975 286.3600 296.2625 288.0300 C296.5750 288.2200 296.8750 288.3375 297.2150 288.4700 C298.0875 288.9225 298.9675 289.3600 299.8550 289.7850 C304.0025 291.7350 310.0550 292.7475 314.6250 292.7075 C321.7475 292.6450 329.2300 290.5350 336.1750 289.1100 C341.8700 287.9425 347.9100 287.0650 353.3800 285.0925 C362.2375 281.9025 369.5975 274.7275 373.4750 266.2150 C377.0675 258.3200 376.7925 248.2832 373.7650 240.2650 C371.4425 234.1127 366.5275 228.4498 361.2225 224.6125 C359.0975 223.0742 356.7400 221.8750 354.5950 220.3663 C352.6725 219.0117 350.7925 216.9705 348.6075 216.0872 C346.7750 215.3465 339.6925 219.0807 337.5650 219.9555 L337.1100 219.0655 Z"></path>
<path id="" fill="#d83249" fill-opacity="1.0" stroke="#000000" stroke-width="0.0" stroke-opacity="1.0" stroke-linecap="round" stroke-linejoin="round"  filling="0" d="M284.2550 276.8600 C283.3950 275.6525 282.7375 274.2400 282.1600 272.8775 C280.3325 268.5650 277.9150 261.1650 279.7800 256.5950 C279.8300 256.7375 279.8850 256.8800 279.9325 257.0225 C280.5675 258.9550 279.4100 261.7925 280.7100 263.4300 L281.1525 263.3275 C281.7475 262.2750 281.6525 260.9125 282.1450 260.0625 C282.2850 265.0775 283.2925 270.0325 285.1225 274.7050 C285.6250 276.0025 286.4200 277.2725 286.8525 278.5600 C286.0850 277.8825 285.1325 277.3875 284.2550 276.8600 Z"></path>
<path id="" fill="rgb(135,192,200)" fill-opacity="1.0" stroke="#000000" stroke-width="0.0" stroke-opacity="1.0" stroke-linecap="round" stroke-linejoin="round"  filling="0" d="M281.2850 249.2957 C283.0400 243.4608 285.8750 238.3020 289.0225 233.1315 C289.5000 233.1057 290.1900 232.9442 290.5950 233.1882 C288.3300 238.4913 286.1475 243.8828 284.1500 249.2925 L283.6000 248.7122 C284.0700 248.1880 284.1600 247.8008 284.3350 247.1370 L284.1125 246.8960 C283.8250 247.3655 283.5450 247.8485 283.2275 248.2977 C282.6075 249.1740 282.2900 249.1198 281.2850 249.2957 Z"></path>
<path id="" fill="#56aaec" fill-opacity="1.0" stroke="#000000" stroke-width="0.0" stroke-opacity="1.0" stroke-linecap="round" stroke-linejoin="round"  filling="0" d="M281.2850 249.2957 C282.2900 249.1198 282.6075 249.1740 283.2275 248.2977 C283.5450 247.8485 283.8250 247.3655 284.1125 246.8960 L284.3350 247.1370 C284.1600 247.8008 284.0700 248.1880 283.6000 248.7122 L284.1500 249.2925 C283.0200 252.8325 282.5600 256.3825 282.1450 260.0625 C281.6525 260.9125 281.7475 262.2750 281.1525 263.3275 L280.7100 263.4300 C279.4100 261.7925 280.5675 258.9550 279.9325 257.0225 C279.8850 256.8800 279.8300 256.7375 279.7800 256.5950 C279.9250 254.2250 280.6900 251.5900 281.2850 249.2957 Z"></path>
<path id="" fill="#60a8e2" fill-opacity="1.0" stroke="#000000" stroke-width="0.0" stroke-opacity="1.0" stroke-linecap="round" stroke-linejoin="round"  filling="0" d="M286.9625 278.6475 C289.6225 281.5800 295.6525 285.1575 299.2350 287.1850 C298.7275 287.1550 298.0575 287.2350 297.6400 286.9525 C296.9550 286.4875 296.5050 286.2675 295.6900 286.1275 C296.3450 286.7100 296.9675 287.2925 297.5700 287.9275 L297.2150 288.4700 C296.8750 288.3375 296.5750 288.2200 296.2625 288.0300 C293.4975 286.3600 287.7425 281.9600 286.9625 278.6475 Z"></path>
<path id="" fill="#292f33" fill-opacity="1.0" stroke="#000000" stroke-width="0.0" stroke-opacity="1.0" stroke-linecap="round" stroke-linejoin="round"  filling="0" d="M332.4600 350.3350 C335.7350 348.2250 341.2350 346.3075 345.1025 347.1600 C348.0000 347.8000 350.3625 349.7900 351.9125 352.2700 C357.2325 360.7800 353.7375 373.3725 351.4825 382.3850 C348.6050 393.8800 343.8475 409.0075 333.0525 415.3700 C328.3775 418.1250 321.9150 418.9250 316.6775 417.4975 C314.9000 417.0125 309.5425 414.9450 308.4475 413.6550 C299.3650 408.4850 289.6300 404.0250 279.4900 401.4000 C259.4700 396.2225 238.8103 398.2500 219.6523 405.5975 C214.7612 407.4750 209.8345 409.5950 205.3172 412.2625 C203.4942 414.1400 195.0130 417.3375 192.3347 417.7775 C186.2677 418.7775 180.3310 417.7975 175.3022 414.1925 C162.3050 404.8800 157.0318 382.5525 154.6035 367.5800 C153.7838 362.5275 154.8415 355.9025 157.9052 351.6875 C159.5903 349.3700 162.0365 347.4250 164.9485 347.0425 C167.8385 346.6650 172.9635 347.5950 175.2843 349.3550 C184.5255 353.3625 194.4265 355.8975 204.2100 358.1975 C218.3050 361.5900 232.6745 363.7150 247.1478 364.5475 C250.5650 364.7375 253.9800 365.0250 257.4050 364.9575 C271.1600 364.6900 284.7375 362.5750 298.2025 359.9025 C309.4325 357.6725 321.1775 354.8275 331.8375 350.6150 C332.0475 350.5300 332.2550 350.4350 332.4600 350.3350 Z"></path>
<path id="" fill="#fefefe" fill-opacity="1.0" stroke="#000000" stroke-width="0.0" stroke-opacity="1.0" stroke-linecap="round" stroke-linejoin="round"  filling="0" d="M195.4418 363.2500 L189.9957 380.4450 C188.7035 384.5000 187.6512 389.2325 185.4775 392.8950 C183.9550 395.4625 181.2765 397.1825 178.4133 397.8950 C175.6040 398.5875 172.6342 398.1200 170.1732 396.5975 C167.4560 394.9550 165.5250 392.2750 164.8240 389.1775 C164.4928 387.6675 164.5545 386.2525 164.8242 384.7425 C165.4375 381.3075 173.7795 350.2200 174.2457 349.6050 C174.4967 349.2725 174.9008 349.3800 175.2843 349.3550 C184.5255 353.3625 194.4265 355.8975 204.2100 358.1975 C218.3050 361.5900 232.6745 363.7150 247.1478 364.5475 C250.5650 364.7375 253.9800 365.0250 257.4050 364.9575 C271.1600 364.6900 284.7375 362.5750 298.2025 359.9025 C309.4325 357.6725 321.1775 354.8275 331.8375 350.6150 C332.0475 350.5300 332.2550 350.4350 332.4600 350.3350 C333.1725 350.1225 333.8450 349.9300 334.5850 349.8425 C334.7625 350.0125 334.8150 350.0425 334.9425 350.2950 C335.4600 351.3150 344.0375 384.5425 344.1625 386.0550 C344.3500 388.1550 343.9100 390.2625 342.8950 392.1100 C341.4050 394.8975 338.8375 396.9525 335.7900 397.8000 C332.9575 398.5825 329.9325 398.2000 327.3825 396.7400 C325.4800 395.6650 323.9300 394.0600 322.9175 392.1225 C321.7000 389.7700 321.3375 387.1425 320.6275 384.6200 C318.6150 377.5200 316.7125 370.3900 314.9200 363.2300 C286.3250 373.4575 224.1215 373.0800 195.4418 363.2500 Z"></path>
<path id="" fill="#fefefe" fill-opacity="1.0" stroke="#000000" stroke-width="0.0" stroke-opacity="1.0" stroke-linecap="round" stroke-linejoin="round"  filling="0" d="M200.5573 414.4425 C199.5462 410.0175 196.6187 398.9125 196.7827 394.9500 C196.8265 393.6050 197.2128 392.2950 197.9055 391.1400 C199.1647 389.0825 201.2045 387.6250 203.5582 387.1000 C205.9332 386.5725 208.4205 387.0350 210.4483 388.3775 C214.2710 390.9125 215.1638 396.7750 216.2835 400.9125 C238.3613 391.4325 270.1700 391.2875 292.4600 400.2150 C293.0125 400.4375 293.5650 400.6650 294.1150 400.8950 C294.7300 396.6800 294.8775 391.5550 298.5050 388.7175 C300.3625 387.2575 302.7425 386.6325 305.0775 386.9875 C307.2925 387.3325 309.2775 388.5425 310.5975 390.3525 C312.3025 392.7125 312.4525 395.2825 311.9450 398.0425 C311.4775 400.5925 309.2625 411.9750 308.4475 413.6550 C299.3650 408.4850 289.6300 404.0250 279.4900 401.4000 C259.4700 396.2225 238.8103 398.2500 219.6523 405.5975 C214.7612 407.4750 209.8345 409.5950 205.3172 412.2625 C203.6758 412.8250 202.1138 413.6775 200.5573 414.4425 Z"></path>
<path id="" fill="#f38f0c" fill-opacity="1.0" stroke="#000000" stroke-width="0.0" stroke-opacity="1.0" stroke-linecap="round" stroke-linejoin="round"  filling="0" d="M378.7950 57.0280 C382.1400 56.8183 385.2350 57.1410 387.9925 59.2637 C390.6600 61.3160 392.2525 64.3275 392.6825 67.6382 C393.1700 71.3678 392.7400 75.3473 392.3700 79.0797 C390.3850 99.0902 383.2550 119.9185 373.0750 137.2280 C368.5500 144.9203 363.0400 151.6435 357.6050 158.6830 C357.7525 159.5650 357.7800 160.4695 357.8450 161.3610 C356.7600 161.6353 355.6675 161.8640 354.5750 162.0977 C352.1575 164.1330 350.0125 166.5562 347.7350 168.7533 C341.9925 174.2917 334.4450 180.4203 326.4275 181.8265 C322.2050 182.5670 319.5925 180.9140 314.9800 181.9292 C312.1600 182.0497 309.7050 181.8033 307.2250 180.3355 C304.4725 178.7072 302.1625 176.0408 301.3850 172.8952 C300.6425 169.8875 301.9575 167.8692 302.0325 164.9998 C302.0975 162.4258 300.9350 159.9272 301.3500 157.3313 C301.5900 155.8367 302.2675 154.4353 303.0625 153.1615 C305.2500 149.6600 310.0700 147.8257 313.4625 145.6723 C316.1400 143.9727 318.8225 142.1832 321.2675 140.1635 C324.0900 137.8300 325.9575 135.0428 328.4050 132.3867 C329.9400 130.7205 331.7650 129.3837 333.2375 127.6295 C344.4850 114.2385 353.7025 98.5770 361.5225 82.9755 C364.6675 76.6985 367.1325 69.9113 370.7525 63.9020 C372.7750 60.5475 374.8550 58.0273 378.7950 57.0280 Z"></path>
<path id="" fill="#f38f0c" fill-opacity="1.0" stroke="#000000" stroke-width="0.0" stroke-opacity="1.0" stroke-linecap="round" stroke-linejoin="round"  filling="0" d="M128.8398 57.0208 C130.7173 56.8750 132.5683 56.8918 134.3825 57.4698 C136.2112 58.0522 137.6243 59.0560 138.8505 60.5228 C142.4933 64.8805 144.3480 70.3452 146.7535 75.4082 C149.0683 80.2798 151.5030 85.1275 153.9863 89.9155 C160.9000 103.0935 169.0668 115.5750 178.3737 127.1870 C179.4913 128.5712 181.4105 131.5327 183.0470 132.0505 C183.4698 131.7800 183.7945 131.5813 184.2863 131.4673 C184.7697 132.0815 184.7055 132.4495 184.7740 133.2210 C184.9140 134.7915 186.3027 135.9232 187.3715 136.9888 C189.6660 139.2765 192.1145 141.4550 194.7645 143.3210 C199.0697 146.3525 207.7005 149.8485 209.5885 154.9460 C210.6947 157.9325 209.7988 161.4780 210.0217 164.6062 C210.1788 166.8070 210.8963 169.0247 210.8407 171.2298 C210.8100 172.4492 210.4498 173.6155 209.9028 174.7000 C207.9770 178.5185 204.6263 180.6228 200.6965 181.8947 C198.0282 182.2485 195.7617 181.3652 193.1862 181.4275 C191.3412 181.4722 189.5260 182.0200 187.6788 182.0660 C180.6432 182.2410 171.3607 175.2910 166.4312 170.8465 C162.8717 167.6370 159.6535 164.0465 156.1175 160.7975 C155.3443 160.6548 154.3060 160.5988 153.7860 160.0112 C154.0558 159.6715 154.3320 159.3367 154.6147 159.0078 C153.4617 156.6447 150.7695 154.1362 149.0995 152.0440 C147.0395 149.4637 145.1210 146.7495 143.2462 144.0320 C133.0567 129.2635 126.4020 111.9583 122.2165 94.5957 C120.2990 86.6415 116.8538 68.9885 121.3018 62.0182 C123.0765 59.2372 125.6950 57.7445 128.8398 57.0208 Z"></path>
<path id="" fill="#292f33" fill-opacity="1.0" stroke="#000000" stroke-width="0.0" stroke-opacity="1.0" stroke-linecap="round" stroke-linejoin="round"  filling="0" d="M138.1200 193.3613 C140.7670 193.1990 143.0365 193.0540 145.5970 193.9155 C150.6670 195.6212 155.2617 199.1472 160.1305 201.4317 C173.9920 208.0150 188.7547 212.5022 203.9350 214.7467 C207.7870 215.3000 211.7920 215.6255 215.6805 215.8040 C218.4772 215.9325 221.4193 215.7995 224.1640 216.3715 C226.1658 216.7885 228.1147 217.5750 229.6535 218.9505 C232.0890 221.1275 233.1443 224.0460 233.2435 227.2495 C233.3503 230.6953 232.3783 233.2018 229.9970 235.6868 C229.2430 236.4738 228.0963 237.6800 227.0545 237.9917 C225.9800 238.1555 224.7677 238.4093 223.7592 238.8273 C222.5132 238.7948 220.8837 238.5590 219.7388 239.0970 C217.0150 238.4357 213.7287 238.8188 210.9100 238.6232 C206.3158 238.3050 201.7198 237.6775 197.1718 236.9635 C186.8313 235.2498 176.6602 232.6362 166.7745 229.1530 C162.9215 227.7863 159.1983 226.0620 155.3322 224.7335 C154.2920 225.1678 152.7810 226.0540 151.6992 225.7948 C151.0793 224.9102 151.1160 223.7802 150.8805 222.7415 C147.8452 221.8168 141.2560 217.6432 138.0872 215.8777 C137.1700 215.3667 136.0200 214.4758 135.0385 214.1500 C134.5047 213.9727 134.3407 214.0457 133.8625 214.2733 C133.3485 214.5175 133.5643 214.4608 133.1432 214.5202 C132.4957 211.6365 137.0213 197.0735 138.1200 193.3613 Z"></path>
<path id="" fill="#dc2e45" fill-opacity="1.0" stroke="#000000" stroke-width="0.0" stroke-opacity="1.0" stroke-linecap="round" stroke-linejoin="round"  filling="0" d="M150.8805 222.7415 C152.3005 223.1217 154.1998 223.7875 155.3322 224.7335 C154.2920 225.1678 152.7810 226.0540 151.6992 225.7948 C151.0793 224.9102 151.1160 223.7802 150.8805 222.7415 Z"></path>
<path id="" fill="#292f33" fill-opacity="1.0" stroke="#000000" stroke-width="0.0" stroke-opacity="1.0" stroke-linecap="round" stroke-linejoin="round"  filling="0" d="M285.4100 239.5910 C285.0175 237.5358 282.3750 236.0070 281.0075 234.5200 C279.2175 232.5750 278.8550 230.0208 278.9000 227.4778 C278.9625 223.8260 279.7275 221.5580 282.3975 219.0092 C286.5075 215.0875 292.2675 216.1232 297.4450 215.8087 C300.8225 215.6035 304.3275 215.1685 307.6850 214.7437 C318.4450 213.3822 329.2000 210.5052 339.3350 206.6755 C344.7775 204.6190 350.5375 202.3480 355.6950 199.6588 C359.2775 197.7923 362.6150 194.9017 366.4950 193.7045 C368.9425 192.9492 371.3475 193.0145 373.8825 193.0668 C374.4575 196.2137 379.2650 213.0330 379.0150 214.3790 C378.9800 214.5753 378.8425 214.7383 378.7550 214.9178 C378.0350 214.9210 377.7225 214.5010 377.1625 214.0790 C372.5750 216.2430 368.2850 219.2222 363.6800 221.4310 C348.1800 228.8517 331.7275 234.0930 314.7900 237.0058 C310.3675 237.7612 305.8375 238.4073 301.3575 238.6610 C298.5800 238.8183 295.3450 238.4975 292.6600 239.0185 C292.5450 239.0410 292.4300 239.0665 292.3125 239.0905 C290.8050 238.5370 287.7700 238.3667 286.1925 238.6625 C285.8350 238.9850 285.6600 239.1653 285.4100 239.5910 Z"></path>
<path id="" fill="#be1931" fill-opacity="1.0" stroke="#000000" stroke-width="0.0" stroke-opacity="1.0" stroke-linecap="round" stroke-linejoin="round"  filling="0" d="M247.6348 408.0775 C264.7825 406.0050 282.0875 410.3900 296.1750 420.3825 C300.9175 423.6825 305.1850 427.7750 310.2500 430.5750 C326.5850 439.6050 325.7625 428.9075 336.9675 425.7150 C338.2525 426.6775 340.6275 428.4275 341.1525 429.9650 C341.3875 430.6500 341.2950 430.7825 341.0350 431.4200 C339.5825 432.5400 337.7450 432.2725 336.0000 432.2800 C336.1300 433.0750 336.2900 433.8825 336.5250 434.6525 C336.7800 435.4900 337.0025 436.2350 336.8675 437.1225 C336.7225 438.0750 336.2950 438.6125 335.5450 439.1675 C324.2450 447.5450 311.9400 444.9025 301.0425 437.3250 C296.7250 434.3250 292.9200 430.6825 288.4750 427.8425 C281.7100 423.5175 274.7925 420.5300 266.8100 419.2625 C249.1865 416.5950 233.7747 419.5775 219.6147 430.6525 C213.1395 435.7150 207.0067 440.6375 198.8175 442.6000 C191.4057 444.3775 183.8055 442.0375 177.4673 438.1125 C175.4950 436.8900 171.3078 434.4925 170.8670 432.0325 C170.6562 430.8575 171.9320 428.6875 172.6205 427.7775 C176.2915 422.9225 181.7240 428.9125 185.4133 430.7425 C189.4953 432.7675 193.9500 433.2825 198.3025 431.9225 C204.3098 430.0425 209.0320 425.5950 213.9115 421.8200 C223.7795 414.1900 235.3060 409.7050 247.6348 408.0775 Z"></path>
<path id="" fill="#a0041e" fill-opacity="1.0" stroke="#000000" stroke-width="0.0" stroke-opacity="1.0" stroke-linecap="round" stroke-linejoin="round"  filling="0" d="M199.1633 312.7900 C200.1817 312.7775 201.0605 312.9125 201.9590 313.4275 C205.2505 315.3150 204.6105 319.6775 205.5538 322.8125 C206.0058 324.3175 206.9673 325.5225 208.3873 326.2100 C213.5773 328.7275 222.6115 325.5400 227.7323 323.9300 C228.3350 324.1200 228.9080 324.3350 229.4792 324.6100 C234.0695 326.8100 232.8985 330.7950 234.4162 334.8175 C236.0132 339.1400 239.2710 342.6475 243.4655 344.5600 C250.7675 347.8425 260.3500 347.7425 267.7500 344.8475 C272.1925 343.1100 276.8550 338.9150 277.9225 334.1475 C278.4050 331.9925 278.4850 329.3175 279.4225 327.3275 C280.2525 325.5700 282.2600 324.6450 283.9875 324.0050 L284.3175 323.8850 C289.6400 325.6875 294.7150 327.1750 300.3925 327.0400 C308.9400 326.8325 304.9025 318.4750 309.2725 314.1425 C310.1275 313.2925 311.0975 312.7725 312.3250 312.7975 C313.5900 312.8225 316.4025 313.6525 317.2150 314.6475 C318.9050 316.7200 318.1525 321.1600 318.0625 323.7475 C317.6275 327.8725 315.3425 331.7800 312.1175 334.3525 C307.5075 338.0350 302.7800 338.2850 297.1025 338.2500 C294.4750 338.2325 291.8600 338.2275 289.2425 337.9275 C284.3050 345.9400 284.5100 349.0800 275.4725 354.0675 C267.2400 358.6150 252.5125 359.6275 243.5058 356.9625 C237.0130 355.0425 230.9297 351.1850 227.0522 345.5550 C225.4050 343.1625 224.1127 340.4600 222.7295 337.9075 C218.5635 338.3100 214.0598 338.4575 209.8835 338.1650 C205.0940 337.8275 200.8293 335.8750 197.7060 332.1725 C193.5085 327.2000 193.5658 321.2800 194.0417 315.1000 C195.6860 313.9600 197.2555 313.3175 199.1633 312.7900 Z"></path>
<path id="" fill="#292f33" fill-opacity="1.0" stroke="#000000" stroke-width="0.0" stroke-opacity="1.0" stroke-linecap="round" stroke-linejoin="round"  filling="0" d="M194.6090 241.1520 C204.0558 240.3135 212.4077 247.2592 213.3053 256.7000 C214.2027 266.1425 207.3092 274.5375 197.8735 275.4925 C188.3542 276.4575 179.8687 269.4900 178.9633 259.9650 C178.0578 250.4400 185.0785 241.9982 194.6090 241.1520 Z"></path>
<path id="" fill="#292f33" fill-opacity="1.0" stroke="#000000" stroke-width="0.0" stroke-opacity="1.0" stroke-linecap="round" stroke-linejoin="round"  filling="0" d="M314.2000 241.1900 C323.6800 240.3132 332.0750 247.2915 332.9475 256.7725 C333.8175 266.2550 326.8350 274.6475 317.3525 275.5125 C307.8775 276.3775 299.4950 269.4025 298.6250 259.9275 C297.7525 250.4525 304.7250 242.0660 314.2000 241.1900 Z"></path>
<path id="" fill="#59aae8" fill-opacity="1.0" stroke="#000000" stroke-width="0.0" stroke-opacity="1.0" stroke-linecap="round" stroke-linejoin="round"  filling="0" d="M229.4630 267.6000 L230.5980 267.7250 C230.7860 267.9375 230.8147 267.9425 230.9397 268.2475 C231.6730 270.0375 230.2230 273.7075 229.4925 275.4300 C228.5390 277.6800 227.4145 280.4575 225.9085 282.3675 C223.9005 284.9125 218.0520 289.1775 215.0850 290.3700 C215.0083 290.3425 214.9267 290.3250 214.8550 290.2850 C214.2070 289.9350 213.9902 289.5225 213.8130 288.8225 C213.7063 288.4025 213.7213 287.9050 213.8165 287.4825 C213.9368 286.9500 214.2110 286.5150 214.6102 286.1400 C218.4755 282.5125 221.9162 280.5125 225.5260 276.1025 C227.5233 273.6600 227.7168 270.6800 229.2125 268.0300 C229.2940 267.8850 229.3795 267.7425 229.4630 267.6000 Z"></path>
<path id="" fill="#57abeb" fill-opacity="1.0" stroke="#000000" stroke-width="0.0" stroke-opacity="1.0" stroke-linecap="round" stroke-linejoin="round"  filling="0" d="M285.4100 239.5910 C285.6600 239.1653 285.8350 238.9850 286.1925 238.6625 C287.7700 238.3667 290.8050 238.5370 292.3125 239.0905 C289.1875 242.2258 286.1850 245.7807 284.5575 249.9585 C283.9375 251.5450 283.6975 253.5475 282.6725 254.9225 C281.9275 255.9225 281.0550 256.1150 279.8925 256.3775 L278.8775 256.2775 C278.3150 255.9450 278.0700 255.6750 277.8575 255.0400 C277.5975 254.2600 277.8725 253.3000 278.2275 252.5975 C278.8000 251.4575 279.4650 250.9725 280.6500 250.5775 C281.1175 248.3822 280.6775 244.5112 282.1900 242.7863 C283.2075 241.6237 284.3575 241.3055 285.2425 239.8712 C285.3000 239.7785 285.3550 239.6842 285.4100 239.5910 Z"></path>
<path id="" fill="#db2f45" fill-opacity="1.0" stroke="#000000" stroke-width="0.0" stroke-opacity="1.0" stroke-linecap="round" stroke-linejoin="round"  filling="0" d="M279.8925 256.3775 L278.8775 256.2775 C278.3150 255.9450 278.0700 255.6750 277.8575 255.0400 C277.5975 254.2600 277.8725 253.3000 278.2275 252.5975 C278.8000 251.4575 279.4650 250.9725 280.6500 250.5775 C280.4050 252.5075 280.1975 254.4550 279.8925 256.3775 Z"></path>
<path id="" fill="#dd2e44" fill-opacity="1.0" stroke="#000000" stroke-width="0.0" stroke-opacity="1.0" stroke-linecap="round" stroke-linejoin="round"  filling="0" d="M281.7800 269.5350 C282.3825 269.7125 282.9825 269.8875 283.4575 270.3225 C285.5975 272.2800 286.8475 275.5200 288.3400 277.9575 C289.1575 279.2925 290.1075 280.5625 290.8850 281.9175 C291.2375 282.5325 291.2625 283.0700 291.2000 283.7675 C291.0850 283.9600 290.8900 284.1300 290.7375 284.2950 C290.3575 284.3525 290.0025 284.4000 289.6200 284.3250 C287.9275 283.9875 286.1625 282.5675 285.1700 281.2050 C283.3900 278.9475 281.0200 275.9650 280.7750 273.0100 C280.6650 271.6900 280.9100 270.5400 281.7800 269.5350 Z"></path>
<path id="" fill="#5caae6" fill-opacity="1.0" stroke="#000000" stroke-width="0.0" stroke-opacity="1.0" stroke-linecap="round" stroke-linejoin="round"  filling="0" d="M281.7800 269.5350 C282.3825 269.7125 282.9825 269.8875 283.4575 270.3225 C285.5975 272.2800 286.8475 275.5200 288.3400 277.9575 C289.1575 279.2925 290.1075 280.5625 290.8850 281.9175 C291.2375 282.5325 291.2625 283.0700 291.2000 283.7675 C288.9800 282.0200 287.4875 279.7850 285.6425 277.6875 C284.1675 275.0300 282.6275 272.4800 281.7800 269.5350 Z"></path>
<path id="" fill="#57abeb" fill-opacity="1.0" stroke="#000000" stroke-width="0.0" stroke-opacity="1.0" stroke-linecap="round" stroke-linejoin="round"  filling="0" d="M316.6475 288.3400 C318.0675 288.1450 319.8325 288.1975 321.2150 288.6250 C322.0600 288.8850 322.6725 289.3000 323.1075 290.0850 C323.1125 290.7725 323.1450 290.9775 322.6675 291.5300 C321.1975 293.2350 317.0200 292.9900 314.9800 293.0175 C313.2050 293.0350 310.5100 293.3675 308.8775 292.7700 C308.2275 292.5300 308.0750 292.3350 307.7850 291.7250 C307.8475 291.2175 307.8825 290.7975 308.1875 290.3625 C309.5225 288.4575 314.5350 288.5725 316.6475 288.3400 Z"></path>
<path id="" fill="#57aaeb" fill-opacity="1.0" stroke="#000000" stroke-width="0.0" stroke-opacity="1.0" stroke-linecap="round" stroke-linejoin="round"  filling="0" d="M228.7988 254.2600 C228.5215 252.5850 227.5412 250.7900 228.1395 249.1293 C228.6140 248.7323 228.7230 248.6593 229.3260 248.5392 C230.0025 249.1285 230.3237 249.6600 230.7283 250.4550 C232.4325 254.9550 232.2885 260.5350 231.8830 265.3125 C231.4770 265.7825 231.2518 266.0450 230.5663 266.0800 C230.3360 266.0925 230.0052 265.9875 229.7795 265.9275 C229.2133 264.8900 229.1302 256.4800 228.7988 254.2600 Z"></path>
<path id="" fill="#58acea" fill-opacity="1.0" stroke="#000000" stroke-width="0.0" stroke-opacity="1.0" stroke-linecap="round" stroke-linejoin="round"  filling="0" d="M223.7592 238.8273 C224.7677 238.4093 225.9800 238.1555 227.0545 237.9917 C226.9153 241.7830 228.8922 243.6295 229.2710 247.0457 C229.3483 247.5117 229.3362 247.2985 229.3115 247.8302 C229.2855 248.3893 229.3790 248.1483 228.9230 248.5640 C228.3200 248.5163 227.7782 248.3740 227.3005 247.9865 C225.2435 246.3188 222.2737 241.5520 219.7388 239.0970 C220.8837 238.5590 222.5132 238.7948 223.7592 238.8273 Z"></path>
<path id="" fill="#dc2e44" fill-opacity="1.0" stroke="#000000" stroke-width="0.0" stroke-opacity="1.0" stroke-linecap="round" stroke-linejoin="round"  filling="0" d="M223.7592 238.8273 C224.7677 238.4093 225.9800 238.1555 227.0545 237.9917 C226.9153 241.7830 228.8922 243.6295 229.2710 247.0457 C227.3817 244.2820 226.0547 241.3313 223.7592 238.8273 Z"></path>
<path id="" fill="#57a9ea" fill-opacity="1.0" stroke="#000000" stroke-width="0.0" stroke-opacity="1.0" stroke-linecap="round" stroke-linejoin="round"  filling="0" d="M295.7600 285.9125 C297.1825 285.9250 298.5700 286.4275 299.9150 286.8500 C301.4775 287.3425 303.3775 287.9450 304.1750 289.4850 C304.2475 290.2850 304.2175 290.6425 303.9100 291.3825 C303.1000 291.2300 302.2875 291.0625 301.4975 290.8250 C299.5800 290.2525 296.3825 288.9050 295.5100 287.0125 C295.3150 286.5850 295.5875 286.3125 295.7600 285.9125 Z"></path>
</svg>