<svg xmlns="http://www.w3.org/2000/svg" viewBox="0 0 512 512" height="512.0px" width="512.0px">
<path id="" fill="#f6dece" fill-opacity="1.0" stroke="#000000" stroke-width="0.0" stroke-opacity="1.0" stroke-linecap="round" stroke-linejoin="round"  filling="0" d="M244.3455 67.1013 C245.2448 66.9650 246.2030 66.9818 247.1120 66.9597 C253.6825 66.8008 260.5700 66.6443 267.1150 67.0765 C283.9600 68.1890 306.0175 72.2165 321.6150 78.8400 C332.1050 83.2940 341.6625 89.2552 350.5500 96.3445 C353.2950 98.5355 356.1875 100.6815 358.7125 103.1230 C361.6050 105.9170 364.1125 109.1768 366.6725 112.2725 C373.9925 121.1263 379.8025 130.4920 384.9525 140.7430 C386.9000 144.6200 388.9600 148.4913 390.6350 152.4953 C398.1075 170.3472 402.4950 191.0880 404.2150 210.3192 C404.6175 214.8022 405.1500 219.3305 405.2150 223.8322 C408.1450 225.6933 411.1150 227.5940 413.7625 229.8432 C422.8800 237.5890 425.8825 252.3725 426.7900 263.7975 C427.0700 267.3175 426.6450 270.7750 426.2000 274.2625 C424.8800 284.6100 422.5050 294.1775 416.1350 302.6475 C414.9050 304.2800 413.6475 306.0125 412.0500 307.3125 C409.7675 309.1700 403.1300 311.6175 401.9500 313.7975 C401.4475 314.7275 401.3050 316.0925 401.1575 317.1350 C400.1700 324.2000 398.8975 329.7175 397.1825 336.5850 C390.3425 364.4225 377.0525 390.2625 358.3850 412.0175 C356.1900 414.5750 353.6750 416.9250 351.2925 419.3100 C348.8525 421.7525 346.4425 424.2575 343.8375 426.5275 C322.6125 445.0050 295.0275 458.2025 266.7475 460.3400 C258.0350 461.3850 250.1000 460.8275 241.4702 459.7025 C221.5925 457.1150 207.0785 452.2950 189.7660 442.0025 C186.4718 440.0425 183.0352 438.1425 179.9422 435.8800 C157.0428 418.8900 138.7585 396.4425 126.7550 370.5800 C124.8585 366.5150 123.2610 362.2975 121.6450 358.1150 C120.0898 354.0925 118.4875 350.0400 117.2177 345.9150 C114.3903 336.7300 112.5385 327.5950 110.8520 318.1625 C110.5210 316.3125 110.0052 314.5025 109.7207 312.6450 C101.5420 309.8425 96.4012 304.5225 92.4315 297.0125 C84.7072 282.4025 83.1233 264.0300 88.0193 248.2520 C91.6945 236.4073 95.9650 229.6080 107.1803 223.6938 C107.1535 223.4895 107.1265 223.2850 107.1078 223.0800 C106.5793 217.3132 107.9265 210.2567 108.6342 204.4487 C112.6540 171.4642 123.9365 137.9897 145.5590 112.2357 C148.3530 108.9080 151.4897 105.8925 154.5632 102.8260 C159.3760 98.0237 164.3210 93.4677 169.8865 89.5302 C184.7955 78.9822 202.8765 73.7505 220.6342 70.5290 C228.4820 69.1053 236.3958 67.7980 244.3455 67.1013 Z"></path>
<path id="" fill="#292f33" fill-opacity="1.0" stroke="#000000" stroke-width="0.0" stroke-opacity="1.0" stroke-linecap="round" stroke-linejoin="round"  filling="0" d="M170.2270 160.0360 C166.6905 162.7812 163.6830 165.8950 160.5150 169.0323 C144.8895 184.5065 134.0647 201.6313 127.0480 222.5475 C125.6665 226.6107 124.4438 230.7263 123.3822 234.8848 C122.5195 238.3565 121.8800 241.9622 120.7728 245.3590 C120.1357 247.3135 119.4677 249.2310 117.4778 250.1600 C116.5615 250.5875 115.6277 250.6025 114.6882 250.2350 C110.5898 248.6250 107.2495 242.5598 105.5355 238.7770 C96.8073 219.5130 94.9998 186.6440 98.0850 166.0112 C99.3365 157.6425 101.6575 149.2337 104.6520 141.3255 C117.9440 106.2200 143.0715 81.9125 177.0477 66.7018 C220.1730 47.3950 276.2950 46.0132 320.3575 62.9115 C357.5775 77.1850 389.3400 104.2928 405.6675 141.0650 C409.7900 150.3457 412.6600 160.1328 414.2050 170.1693 C416.8575 188.2650 414.7600 227.2558 408.1900 244.1568 C406.9950 247.2348 405.1775 251.8575 401.8800 253.1900 C400.6275 253.6975 399.3200 253.6100 398.0975 253.0650 C395.8450 252.0600 394.1625 249.9005 392.8400 247.8813 C390.8325 244.8132 389.2425 241.3647 387.5850 238.0970 L379.9650 223.0890 L371.1250 205.8200 C369.5300 202.6942 367.7150 199.5355 366.4125 196.2790 L366.2975 195.9875 C359.9925 196.1732 353.5275 195.6110 347.2375 195.1155 C325.6425 193.4133 299.2300 189.9438 279.8075 179.9158 C277.8225 178.8900 275.5150 177.7980 273.7750 176.3987 L271.1150 177.2775 C273.2750 183.5745 276.2175 189.4442 277.2650 196.1015 C277.5825 198.1310 277.8675 201.1458 276.5250 202.8475 C276.0075 203.5043 275.2150 203.8810 274.3925 203.9693 C267.1800 204.7402 248.6232 188.3728 243.0318 183.2385 C240.2515 180.6855 237.6817 177.5952 234.6465 175.3692 C234.5627 175.3078 234.4772 175.2487 234.3927 175.1885 L232.4857 176.2077 C232.5352 179.5865 232.1732 183.7173 230.2888 186.6203 C229.1740 188.3372 227.5547 189.3412 225.5575 189.7193 C212.5605 192.1797 190.3452 175.4418 180.4503 167.9198 C177.1225 165.3902 173.9325 162.5417 170.4780 160.2032 L170.2270 160.0360 Z"></path>
<path id="" fill="#f0d8c9" fill-opacity="1.0" stroke="#000000" stroke-width="0.0" stroke-opacity="1.0" stroke-linecap="round" stroke-linejoin="round"  filling="0" d="M268.1150 171.6765 C269.7025 173.0565 272.5975 174.7518 273.7750 176.3987 L271.1150 177.2775 L270.9025 177.3710 L268.1150 171.6765 Z"></path>
<path id="" fill="#292f33" fill-opacity="1.0" stroke="#000000" stroke-width="0.0" stroke-opacity="1.0" stroke-linecap="round" stroke-linejoin="round"  filling="0" d="M224.1900 335.0975 C237.0940 334.6175 250.1750 335.0275 263.0975 335.0300 L278.2375 335.0350 C282.2925 335.0400 286.4575 334.9300 290.4800 335.4925 C293.2425 335.8775 295.8125 336.4775 297.9075 338.4375 C300.6800 341.0325 301.4600 344.6750 301.5575 348.3000 C310.1375 350.9975 319.5750 353.3300 328.3025 355.7925 C332.4125 356.9500 337.0825 357.8425 340.8650 359.8300 C342.6350 360.7625 344.0500 362.1325 345.0975 363.8400 C346.6700 366.4025 347.0275 369.3900 346.3200 372.2925 C345.6350 375.1000 344.2450 377.7800 341.6800 379.2800 C335.6100 382.8350 327.6750 379.3450 321.5975 377.6050 C318.3450 376.6725 315.0925 375.9225 311.8100 375.1175 C312.4150 377.8150 313.0325 380.5500 312.6550 383.3300 C312.2550 386.2650 310.8150 388.6925 308.4050 390.4175 C300.7800 395.8725 291.6300 389.1275 284.7150 385.5450 C282.8150 384.5600 280.9775 383.4725 278.8500 383.0800 C278.3550 384.3925 277.8075 385.6375 277.1800 386.8925 C276.8650 387.3875 276.5500 387.8825 276.2025 388.3525 C272.9225 392.7775 267.3075 393.6975 262.4875 391.2800 C260.5450 390.3075 258.3400 387.7425 256.1525 387.7075 C253.6800 387.6675 249.9368 392.0900 246.1225 392.5600 C243.3587 392.9025 239.9745 392.0050 237.7780 390.2600 C236.2442 389.0400 233.5332 385.9250 233.3997 383.8925 C233.3540 383.1975 233.5193 384.0250 233.2858 383.1075 C231.2750 382.8175 218.3698 390.3125 215.2010 391.5175 C212.0170 392.7275 208.6358 392.9325 205.4922 391.4450 C202.8960 390.2175 200.6142 388.0925 199.6780 385.3250 C199.1010 383.6200 198.7565 377.5325 199.7153 375.9825 C199.7750 375.8875 199.8448 375.7975 199.9095 375.7025 C199.4987 375.0525 197.6860 375.5500 196.9942 375.7250 C189.4043 377.6400 177.4310 383.3800 170.1378 379.2725 C167.7825 377.9475 166.1970 375.8175 165.4872 373.2200 C164.6840 370.2775 164.7912 366.7325 166.3488 364.0675 C167.1772 362.6500 168.0533 361.2550 169.4993 360.4200 C174.1978 357.7025 180.5755 356.6450 185.7892 355.1650 C194.0052 352.8325 202.2005 350.3775 210.5020 348.3625 C210.4525 345.1300 211.1767 341.7025 213.3472 339.2050 C216.1102 336.0250 220.2122 335.3075 224.1900 335.0975 Z"></path>
<path id="" fill="#c1694f" fill-opacity="1.0" stroke="#000000" stroke-width="0.0" stroke-opacity="1.0" stroke-linecap="round" stroke-linejoin="round"  filling="0" d="M243.5345 301.3175 C247.0340 300.8250 250.9525 301.1275 254.4900 301.1275 C259.2025 301.1275 264.3250 300.7525 268.9825 301.4650 C270.7775 301.7400 272.5300 302.2500 274.0650 303.2500 C276.5450 304.8700 278.2675 307.3000 278.8650 310.2150 C279.5075 313.3450 279.0000 316.5350 277.1475 319.1675 C274.9550 322.2825 271.9825 323.8850 268.3025 324.5025 C264.1700 325.1600 247.4520 325.2050 243.3358 324.4475 C241.4085 324.0925 239.5665 323.4300 237.9305 322.3325 C235.4568 320.6750 233.6322 318.1700 233.1212 315.2075 C232.5560 311.9325 233.2572 308.3025 235.3030 305.6475 C237.3698 302.9650 240.2953 301.7875 243.5345 301.3175 Z"></path>
<path id="" fill="#662113" fill-opacity="1.0" stroke="#000000" stroke-width="0.0" stroke-opacity="1.0" stroke-linecap="round" stroke-linejoin="round"  filling="0" d="M198.7363 233.0970 C201.3065 233.2103 203.6817 233.6550 205.8300 235.1860 C208.4913 237.0830 210.0253 239.9765 210.5378 243.1605 C211.1860 247.1895 211.1152 265.3300 210.4218 269.0200 C210.0605 270.9425 209.3565 272.7975 208.1700 274.3700 C205.8895 277.3900 202.8000 278.4650 199.2115 278.9950 C196.5423 278.8775 193.9110 277.9825 191.8325 276.2850 C189.2110 274.1450 187.8330 271.1275 187.4980 267.8100 C187.0225 263.0975 186.8983 246.8620 187.7775 242.6447 C188.2070 240.5845 188.9908 238.6570 190.3680 237.0428 C192.5932 234.4342 195.4265 233.4117 198.7363 233.0970 Z"></path>
<path id="" fill="#662113" fill-opacity="1.0" stroke="#000000" stroke-width="0.0" stroke-opacity="1.0" stroke-linecap="round" stroke-linejoin="round"  filling="0" d="M310.6225 233.2778 C313.0425 232.9872 315.6725 233.1707 317.9125 234.1965 C320.6425 235.4470 322.5675 237.8618 323.5975 240.6420 C325.3025 245.2413 325.0075 263.0225 324.2725 268.1675 C324.0325 269.8575 323.6100 271.5650 322.8375 273.0950 C321.3275 276.0925 318.2225 277.6800 315.1725 278.6500 C312.3100 279.1725 309.7025 278.8250 307.1625 277.3525 C304.3825 275.7425 302.3475 273.2800 301.6200 270.1175 C300.9200 267.0775 300.8875 246.5815 301.3625 243.1017 C301.5925 241.4252 302.1175 239.9247 303.0250 238.4905 C304.7825 235.7090 307.4575 234.0078 310.6225 233.2778 Z"></path>
</svg>