<svg xmlns="http://www.w3.org/2000/svg" viewBox="0 0 512 512" height="512.0px" width="512.0px">
<path id="" fill="#55aced" fill-opacity="1.0" stroke="#000000" stroke-width="0.0" stroke-opacity="1.0" stroke-linecap="round" stroke-linejoin="round"  filling="0" d="M140.2343 271.3875 C151.5400 270.7450 162.9592 271.4075 174.2522 271.9100 C193.2545 272.6175 212.2088 274.2925 231.0412 276.9250 C268.1850 281.9675 305.0375 289.3100 342.4950 291.8800 C347.8200 292.2450 353.2000 292.2700 358.5375 292.3800 C362.9150 292.4675 367.3375 292.7100 371.7100 292.6625 C387.7275 292.4925 403.6175 291.1275 419.5225 289.2950 C424.2750 288.7475 429.0375 288.2075 433.7525 287.3825 C438.6175 286.5325 443.7300 285.2125 448.6625 285.0650 C451.8375 284.9700 455.3225 285.9775 457.6125 288.2775 C460.2600 290.9350 460.9525 294.3875 461.0100 297.9900 C461.4050 322.0700 461.0125 346.2250 461.0175 370.3125 L461.0200 393.1550 C461.0225 398.0950 461.3500 403.2350 460.5900 408.1225 C459.7825 413.3075 458.0700 418.5675 454.3100 422.3850 C451.3425 425.4000 447.3275 427.3775 443.2075 428.2450 C437.2200 429.5075 427.2875 428.8375 420.8550 428.8350 L379.3750 428.8300 L166.4450 428.8300 L102.4222 428.8200 L84.0437 428.8450 C79.6017 428.8550 75.0815 429.0225 70.6647 428.4850 C65.8922 427.9025 61.2315 425.5325 57.7223 422.2775 C52.6320 417.5575 51.3990 411.9275 51.1590 405.2575 C50.8362 396.2825 51.0757 387.2300 51.0785 378.2475 L51.0710 330.4250 L51.0735 305.2950 C51.0522 300.7075 50.6155 295.7600 51.2182 291.2200 C51.6048 288.3650 52.8825 285.7025 54.8703 283.6150 C55.9747 282.4450 57.2668 281.3775 58.7670 280.7675 C63.0320 279.0350 68.1940 278.5650 72.7267 277.7825 C95.0443 274.0150 117.6065 271.8775 140.2343 271.3875 Z"></path>
<path id="" fill="#c0694f" fill-opacity="1.0" stroke="#000000" stroke-width="0.0" stroke-opacity="1.0" stroke-linecap="round" stroke-linejoin="round"  filling="0" d="M117.5932 272.9400 C113.3037 270.2075 85.1158 233.8163 83.8200 228.2823 C83.7340 227.9147 83.7485 227.6215 83.8255 227.2558 C85.1537 226.5977 139.1837 227.0215 145.8295 227.0213 L339.3075 227.0197 L403.0850 227.0177 C414.7775 227.0170 426.4900 227.1770 438.1775 226.9563 C435.9025 236.2150 429.9100 284.5500 426.5500 288.5175 C423.4375 289.6625 418.8600 289.5100 415.5050 289.8000 L397.3175 291.3700 C396.8350 291.3925 396.3550 291.4275 395.8725 291.4550 C392.4675 291.6600 389.2050 292.7450 385.8000 292.9350 C378.5300 293.3425 371.0800 293.0300 363.7925 293.0325 C358.6350 293.0375 352.0875 293.5750 347.0800 292.7150 C346.2075 292.5650 345.6825 292.1400 345.0400 291.5600 C341.1700 291.5300 337.2475 291.4300 333.4275 290.7575 C316.7025 289.2175 300.0550 286.9975 283.3725 285.0950 C274.5175 284.0850 265.5900 283.5500 256.7550 282.4275 C241.4492 280.4800 226.1720 278.5000 210.8233 276.9025 C207.1508 276.5200 203.4965 275.8875 199.8172 275.5975 C193.5392 275.1050 187.2357 274.8775 180.9498 274.5025 C175.2063 274.1575 169.6610 273.6600 163.8920 273.6475 C154.1690 273.7225 144.4458 273.7175 134.7227 273.6375 C129.0083 273.5750 123.2737 273.6375 117.5932 272.9400 Z"></path>
<path id="" fill="#55abed" fill-opacity="1.0" stroke="#000000" stroke-width="0.0" stroke-opacity="1.0" stroke-linecap="round" stroke-linejoin="round"  filling="0" d="M333.4275 290.7575 C339.8775 290.3950 346.5600 291.1125 353.0125 291.3575 C360.6400 291.6450 368.3175 291.5625 375.9500 291.5475 C379.3800 291.5400 395.6075 290.8750 397.3175 291.3700 C396.8350 291.3925 396.3550 291.4275 395.8725 291.4550 C392.4675 291.6600 389.2050 292.7450 385.8000 292.9350 C378.5300 293.3425 371.0800 293.0300 363.7925 293.0325 C358.6350 293.0375 352.0875 293.5750 347.0800 292.7150 C346.2075 292.5650 345.6825 292.1400 345.0400 291.5600 C341.1700 291.5300 337.2475 291.4300 333.4275 290.7575 Z"></path>
<path id="" fill="#f4900c" fill-opacity="1.0" stroke="#000000" stroke-width="0.0" stroke-opacity="1.0" stroke-linecap="round" stroke-linejoin="round"  filling="0" d="M79.1517 212.1207 L325.5750 212.1565 L400.0825 212.1370 L424.2250 212.1360 C428.6325 212.1385 433.1250 211.9763 437.5250 212.2522 C440.5325 212.4410 442.8850 213.0177 445.2875 214.9545 C447.6400 216.8503 449.5550 219.8058 449.7950 222.8658 C450.0225 225.7785 448.8550 229.0930 446.9725 231.2937 C443.7850 235.0185 438.7425 235.4105 434.1875 235.8175 C433.6125 235.8777 433.0400 235.9075 432.4625 235.9303 C424.8775 236.2280 417.2075 235.9953 409.6125 235.9937 L366.5400 235.9872 L236.8205 235.9880 L136.8107 235.9917 C122.5237 235.9920 108.1665 236.3060 93.8863 235.9733 C90.7047 235.8990 87.5482 235.4715 84.3715 235.3600 C80.9030 235.2383 77.4445 235.4062 73.9747 235.1523 C70.9810 234.9330 68.6955 234.5875 66.4268 232.4073 C64.1650 230.2337 63.0325 227.3833 62.9405 224.2782 C62.8477 221.1475 63.2865 218.2693 65.5770 215.9427 C69.3305 212.1308 74.2170 212.1808 79.1517 212.1207 Z"></path>
<path id="" fill="#77b155" fill-opacity="1.0" stroke="#000000" stroke-width="0.0" stroke-opacity="1.0" stroke-linecap="round" stroke-linejoin="round"  filling="0" d="M245.0092 134.3040 C248.7790 135.4105 253.2100 135.6212 257.1300 136.0275 C267.3800 139.3110 268.5250 144.1555 275.0325 151.3940 C277.7225 154.3880 280.9700 156.9570 283.4025 160.1735 C283.3075 160.1548 283.2100 160.1405 283.1150 160.1175 C282.6825 160.0128 282.3700 159.8285 281.9925 159.6075 C280.7100 160.0330 269.9450 173.2315 268.9975 175.0217 C268.7250 175.5365 268.6050 176.1255 268.4825 176.6905 C265.9175 175.4055 263.2675 174.1710 260.8475 172.6260 C257.8575 170.7142 255.0775 168.5185 252.0400 166.6595 C250.5300 168.9538 249.2587 171.2715 248.3517 173.8737 C245.3902 182.3687 245.3233 193.7620 238.5502 200.3385 C236.5318 202.2985 233.9017 204.0213 231.1300 204.6410 C227.1060 205.5410 222.3353 204.7608 218.2518 204.3703 C214.0035 203.9637 209.7185 203.6355 205.4910 203.0558 C198.4475 202.0898 191.7230 200.8710 184.5710 200.8188 C185.9597 194.9200 191.3520 187.8318 194.2583 182.3022 C196.8850 177.3047 198.9500 172.0365 201.7030 167.0985 C212.1610 148.3387 224.5063 140.1393 245.0092 134.3040 Z"></path>
<path id="" fill="#7c533e" fill-opacity="1.0" stroke="#000000" stroke-width="0.0" stroke-opacity="1.0" stroke-linecap="round" stroke-linejoin="round"  filling="0" d="M245.0092 134.3040 C245.7360 134.0370 245.8432 133.8353 246.1505 133.1268 C247.6297 129.7175 248.4062 124.6180 246.9082 121.1760 C246.2660 119.7007 245.4395 118.2670 244.9405 116.7357 C243.7522 113.0872 244.2753 108.7110 245.6295 105.1870 C247.5712 100.1345 251.3200 97.1038 256.1950 94.9905 C261.1625 92.8370 266.6375 92.2500 271.7500 94.2923 C276.0075 95.9925 279.9925 99.1940 281.7850 103.5202 C284.5825 110.2672 282.7375 119.2745 279.9225 125.6965 C278.3550 129.2728 275.8200 132.9445 272.0475 134.4135 C267.6425 136.1293 259.0750 132.7295 258.4000 133.0668 C258.1975 133.1687 258.0650 133.3750 257.8950 133.5293 L257.8550 133.7540 C257.6975 134.5690 257.4875 135.2742 257.1300 136.0275 C253.2100 135.6212 248.7790 135.4105 245.0092 134.3040 Z"></path>
<path id="" fill="#7c533e" fill-opacity="1.0" stroke="#000000" stroke-width="0.0" stroke-opacity="1.0" stroke-linecap="round" stroke-linejoin="round"  filling="0" d="M268.4825 176.6905 C268.6050 176.1255 268.7250 175.5365 268.9975 175.0217 C269.9450 173.2315 280.7100 160.0330 281.9925 159.6075 C282.3700 159.8285 282.6825 160.0128 283.1150 160.1175 C283.2100 160.1405 283.3075 160.1548 283.4025 160.1735 L283.5450 160.3185 C284.9750 161.8025 286.0950 163.5730 287.7075 164.8783 C294.1525 170.0975 307.1000 173.2905 314.7400 177.8295 C317.9850 176.9142 321.2700 176.2773 324.4050 178.0055 C326.5275 179.1908 328.0825 181.1832 328.7175 183.5310 C329.5375 186.5375 328.8975 190.0125 327.3350 192.6770 C326.0750 194.8300 324.1975 196.3313 321.7500 196.8890 C319.4500 197.4125 316.7275 197.2363 314.7025 195.9483 C312.5125 194.5555 311.3200 192.2507 310.5275 189.8610 C300.9525 189.9003 286.5325 186.1217 277.9025 181.9750 C274.6650 180.4200 271.7275 178.2798 268.4825 176.6905 Z"></path>
<path id="" fill="#1d6399" fill-opacity="1.0" stroke="#000000" stroke-width="0.0" stroke-opacity="1.0" stroke-linecap="round" stroke-linejoin="round"  filling="0" d="M305.0600 189.0065 C305.2675 188.9872 305.4775 188.9680 305.6875 188.9590 C307.8100 188.8685 310.3450 190.4950 311.8825 191.8545 C313.1350 192.9628 315.0425 194.6790 315.0050 196.4747 C314.9850 197.4812 313.6800 198.6568 313.0150 199.3698 C308.5450 204.1732 303.7425 208.7182 299.0975 213.3573 L256.1450 255.4400 C248.0960 263.4825 239.8080 271.2500 232.8372 280.2750 C224.8793 290.5775 225.7807 297.7800 221.4930 308.6375 C219.0807 314.7475 214.7570 320.5725 210.3123 325.3650 C207.3890 328.5175 204.2150 331.4825 201.1667 334.5150 L184.3468 351.3175 L174.9450 360.7475 C173.1115 362.5925 171.2328 364.7675 169.1355 366.3125 C168.2545 366.9625 167.0592 367.3300 165.9635 367.3275 C162.4090 367.3200 156.7908 360.4150 154.2943 357.8750 C150.4420 354.0425 138.0052 342.7825 136.8212 338.7025 C136.8645 337.8625 137.3795 337.0450 137.7962 336.3250 C139.9795 332.5500 144.1127 329.2025 147.1882 326.1400 L159.7982 313.5325 L172.3840 300.9375 C174.8865 298.4350 177.3440 295.8075 180.0080 293.4750 C183.3568 290.5425 187.2485 287.7675 191.0660 285.4775 C196.4538 282.2475 202.8315 280.9225 208.8475 279.3300 C208.8900 278.5725 208.9295 277.9125 209.1770 277.1850 C211.1090 275.0125 213.4800 277.4675 215.9775 276.8400 C220.4668 275.7175 226.6835 270.1900 230.2657 267.0250 C236.7610 261.2825 242.7775 254.7000 248.9130 248.5610 L283.3250 214.1220 L299.4225 197.9337 C301.7300 195.6113 304.9000 193.2253 306.6075 190.4628 L306.3125 190.2632 L306.4875 190.2355 C306.0325 189.9563 305.6575 189.7280 305.3100 189.3147 C305.2250 189.2133 305.1425 189.1093 305.0600 189.0065 Z"></path>
<path id="" fill="#0b0200" fill-opacity="1.0" stroke="#000000" stroke-width="0.0" stroke-opacity="1.0" stroke-linecap="round" stroke-linejoin="round"  filling="0" d="M245.3220 127.0545 C244.4433 126.9675 243.5225 126.9003 242.6698 126.6595 C241.2157 126.2490 240.3353 125.2832 239.6695 123.9742 C235.8127 116.3910 234.6042 106.9105 237.2815 98.7428 C239.2845 92.6320 243.4500 88.5927 249.1532 85.7932 C255.7450 82.5573 262.5300 83.1322 269.3000 85.5153 C275.2100 87.5963 282.8800 90.9595 285.6400 97.0565 C286.6075 99.1935 286.8675 101.6577 285.9100 103.8483 C285.3425 105.1458 284.7375 106.3152 283.3850 106.8882 C282.3600 106.5932 281.5525 105.2640 280.7550 104.4900 C278.3850 102.1898 276.3700 101.7175 273.2025 101.7498 C272.3500 103.0095 271.4275 104.2737 270.7350 105.6288 C269.6850 107.6830 268.8425 109.9850 267.5275 111.8825 C267.0475 112.5770 266.6325 113.1038 265.7725 113.2807 C263.5950 112.3033 263.3100 108.4185 261.2850 106.7217 C260.1775 105.7928 259.2775 105.8350 257.9075 106.0007 L257.5725 106.0440 C256.4675 106.9853 254.9875 108.0985 254.3075 109.3915 C252.4150 112.9912 256.5775 118.2275 254.2225 122.8075 C253.2075 124.7830 250.8650 125.8795 248.8492 126.5605 C247.7925 126.5365 246.2675 126.5667 245.3220 127.0545 Z"></path>
<path id="" fill="#000000" fill-opacity="1.0" stroke="#000000" stroke-width="0.0" stroke-opacity="1.0" stroke-linecap="round" stroke-linejoin="round"  filling="0" d="M187.7980 199.9418 C190.5228 199.6763 195.0670 201.1770 197.8835 201.6353 C201.3932 202.2060 205.0100 202.5533 208.5567 202.8273 C214.0883 203.2547 219.6362 203.0875 225.1783 203.0575 C228.4122 203.0403 231.8717 202.7725 235.0453 203.4532 C238.1223 204.1135 241.1313 205.4635 244.0703 206.5692 C248.7910 208.3163 253.4900 210.1245 258.1625 211.9935 C256.9000 212.2103 255.6200 212.2900 254.3450 212.4000 C241.1720 212.5957 227.9780 212.4500 214.8035 212.4563 C205.0618 212.4608 195.2700 212.6915 185.5340 212.4243 C186.6003 209.2433 187.9612 205.8230 188.7493 202.5865 C189.0405 201.3893 188.4138 200.9440 187.7980 199.9418 Z"></path>
<path id="" fill="#1d6499" fill-opacity="1.0" stroke="#000000" stroke-width="0.0" stroke-opacity="1.0" stroke-linecap="round" stroke-linejoin="round"  filling="0" d="M322.3450 175.1613 C323.8650 173.4547 325.2925 171.6588 327.7650 171.5040 C329.1475 171.4170 330.5075 171.8905 331.5375 172.8175 C332.5175 173.6913 333.1000 174.9245 333.1550 176.2355 C333.2350 178.7235 331.2275 180.2193 329.9850 182.1243 C329.8975 183.2352 329.8350 184.5195 329.0650 185.3842 L328.6275 185.3763 C328.0375 183.8403 327.4425 181.6785 326.4275 180.3878 C325.2500 178.8925 322.9625 178.5567 321.8925 176.9883 C321.8050 176.2340 322.0275 175.8168 322.3450 175.1613 Z"></path>
<path id="" fill="#7c533e" fill-opacity="1.0" stroke="#000000" stroke-width="0.0" stroke-opacity="1.0" stroke-linecap="round" stroke-linejoin="round"  filling="0" d="M322.3450 175.1613 C325.9250 176.7077 327.2650 179.6922 329.9850 182.1243 C329.8975 183.2352 329.8350 184.5195 329.0650 185.3842 L328.6275 185.3763 C328.0375 183.8403 327.4425 181.6785 326.4275 180.3878 C325.2500 178.8925 322.9625 178.5567 321.8925 176.9883 C321.8050 176.2340 322.0275 175.8168 322.3450 175.1613 Z"></path>
<path id="" fill="#7d543f" fill-opacity="1.0" stroke="#000000" stroke-width="0.0" stroke-opacity="1.0" stroke-linecap="round" stroke-linejoin="round"  filling="0" d="M245.3220 127.0545 C246.2675 126.5667 247.7925 126.5365 248.8492 126.5605 C247.9815 129.4052 247.2890 132.5020 246.9230 135.4550 C245.7287 135.4297 244.4568 135.5163 243.3230 135.1078 C242.9135 134.6048 242.9215 134.2973 243.0175 133.6532 C243.3503 131.4207 244.3027 129.0553 245.3220 127.0545 Z"></path>
</svg>