<svg xmlns="http://www.w3.org/2000/svg" viewBox="0 0 512 512" height="512.0px" width="512.0px">
<path id="" fill="#a6d288" fill-opacity="1.0" stroke="#000000" stroke-width="0.0" stroke-opacity="1.0" stroke-linecap="round" stroke-linejoin="round"  filling="0" d="M229.6925 82.1068 C234.1780 81.5950 239.0757 81.9543 243.5960 81.9590 C286.6150 82.0048 332.6600 98.9082 367.3775 123.9642 C375.5150 129.8378 383.1450 136.3867 390.1825 143.5420 C393.4725 146.8228 396.9025 150.0432 399.9250 153.5712 C421.2300 178.4525 434.6700 209.6870 439.8925 241.9175 C448.0575 291.5000 436.2775 342.3000 407.1200 383.2275 C381.8600 417.7925 345.5700 442.7125 304.2375 453.8700 C296.3675 456.0550 288.2825 457.6225 280.2275 458.9275 C275.7050 459.6875 271.0650 460.1225 266.4975 460.5350 C257.1425 461.3750 247.8817 460.9625 238.5502 460.1375 C202.4485 457.3000 168.1532 443.1800 140.5175 419.7800 C127.8398 409.0850 116.9135 395.9450 107.7428 382.1900 C86.1367 350.1625 73.2372 313.0625 70.3125 274.5375 C66.9085 229.6172 79.7907 184.9735 106.6025 148.7730 C109.5710 144.7815 113.0745 141.1517 116.3110 137.3690 C123.1762 129.3452 131.6380 122.1927 140.0525 115.8605 C143.9030 112.9628 147.7335 110.0338 151.7832 107.4163 C175.6078 92.0185 201.5530 84.3130 229.6925 82.1068 Z"></path>
<path id="" fill="#5c913b" fill-opacity="1.0" stroke="#000000" stroke-width="0.0" stroke-opacity="1.0" stroke-linecap="round" stroke-linejoin="round"  filling="0" d="M161.6422 81.2825 C163.5703 81.1065 165.4503 81.4128 167.0165 82.6322 C171.1407 85.8432 179.2395 104.6732 179.8033 109.7762 C180.0683 112.1747 179.0835 114.4065 177.5340 116.1930 C175.6727 118.3390 173.9823 118.9960 171.2753 119.2325 C169.6090 119.1100 167.7410 119.0283 166.2507 118.2093 C159.8452 114.6890 154.9552 102.9625 153.2097 96.2917 C152.2925 92.7865 152.2287 89.4717 154.2027 86.2655 C155.8975 83.5128 158.5520 81.9772 161.6422 81.2825 Z"></path>
<path id="" fill="#77b255" fill-opacity="1.0" stroke="#000000" stroke-width="0.0" stroke-opacity="1.0" stroke-linecap="round" stroke-linejoin="round"  filling="0" d="M176.7240 94.2943 C183.4815 90.9262 191.0468 88.7205 198.3490 86.8907 C234.9362 77.7235 273.7225 81.9983 309.1825 93.8515 C339.5950 104.0178 371.5275 123.2523 393.8900 146.3188 C396.7200 149.2363 399.3000 152.4117 401.9000 155.5312 C405.8300 160.2465 410.3375 165.4410 413.0675 170.9715 C415.9125 176.7350 425.1275 199.0338 423.1350 204.5652 C422.9225 205.1537 422.8250 205.2815 422.3200 205.5755 C420.8200 205.2455 419.3500 203.4125 418.3925 202.2578 C414.8850 198.0385 411.9800 193.1447 408.7675 188.6832 C404.1875 182.3930 399.3300 176.3112 394.2075 170.4563 C390.0425 165.5990 385.5925 161.1427 381.0700 156.6248 C361.8075 137.3795 341.4225 122.1438 315.0325 114.3280 C308.0750 112.2670 301.1200 110.7077 293.8750 110.0833 C288.7350 109.6403 279.5800 108.7372 275.0675 111.6208 C274.1250 112.2227 273.2625 113.0550 273.0400 114.1927 C272.7250 115.8075 273.6725 117.5090 274.5950 118.7558 C278.9800 124.6790 289.6725 130.6772 295.7725 135.6365 C300.1425 139.1882 304.0175 143.3513 307.9950 147.3293 C311.5250 150.8593 315.2725 154.3212 318.4625 158.1602 C336.0450 179.3245 352.2750 205.3425 359.8350 231.9230 C361.2000 236.7177 362.6125 241.6345 363.5700 246.5258 C364.4500 251.0250 364.9050 255.8350 366.2200 260.2225 C367.1875 263.4450 368.8275 266.3925 370.0675 269.5075 C371.9450 274.2325 373.6025 279.3475 374.9475 284.2500 C378.4925 297.1600 380.5250 311.0800 381.0675 324.4550 C381.3825 332.2325 381.0675 340.1100 381.0925 347.9025 C381.1075 352.1700 381.6050 360.2575 381.0000 364.0050 C380.9300 364.4300 380.8675 364.7850 380.4775 365.0150 C379.9875 365.3025 379.6575 365.2850 379.1075 365.3100 C378.5300 364.8700 378.4725 364.5525 378.2525 363.8725 C376.2375 357.6600 374.8950 351.2775 373.0500 345.0200 C370.7875 337.3400 368.0300 329.7400 365.9325 322.0300 C364.9075 318.2675 363.8925 314.3725 363.3725 310.5050 C362.7650 305.9600 363.1225 301.4275 362.8400 296.8725 C362.4025 289.8625 360.4100 282.4275 358.1650 275.7850 C356.5650 271.0425 353.6550 267.8200 350.9100 263.7400 C349.0500 260.9725 347.3400 258.0475 345.6925 255.1475 C337.8050 241.2657 330.6025 227.1860 321.2800 214.1622 C315.1525 205.6060 307.6300 197.6500 299.8725 190.5412 C297.9025 188.7345 295.7725 187.1062 293.7950 185.3085 C291.6675 183.3740 289.7300 181.2360 287.5975 179.3042 C281.2925 173.5880 274.6150 168.0825 267.8800 162.8810 C258.9825 156.0095 235.6028 138.8562 224.7413 140.1030 C223.0273 140.2997 221.4832 141.0745 220.4135 142.4498 C218.2090 145.2838 219.1190 151.0273 219.6497 154.3297 C221.0013 162.7348 224.1503 170.9035 226.9023 178.9325 C237.1070 208.7047 251.4200 236.8565 261.5175 266.6600 C265.9950 279.5725 269.8750 292.6825 273.1450 305.9525 C274.5650 311.8700 275.6650 317.8975 276.8350 323.8725 C277.5125 327.3350 278.1475 330.8500 278.4950 334.3650 C278.8375 337.8600 278.8325 341.6750 279.7475 345.0575 C280.6400 348.3600 282.4275 351.7100 283.6425 354.9475 C287.4350 365.0650 292.7900 377.9925 293.1300 388.7625 C293.2400 392.2650 292.5750 395.7025 292.2900 399.1800 C292.0400 402.2275 292.5400 405.9025 291.8475 408.8325 C291.2550 409.2875 290.8200 409.3075 290.1075 409.3625 C286.9350 407.3400 279.0400 375.5975 277.2100 369.5250 C275.9950 365.4900 274.5700 361.5750 273.0125 357.6575 C271.7950 354.5925 270.5975 351.4850 269.1675 348.5125 C267.3450 344.7200 265.2575 341.0175 263.6000 337.1525 C258.6575 325.6250 254.0625 313.9500 249.0245 302.4525 C233.3815 266.6950 216.3537 231.5610 197.9800 197.1275 C194.0910 189.9323 190.1725 182.7843 185.9122 175.7995 C183.7090 172.1873 181.5247 168.3983 178.6695 165.2567 C176.2733 162.6203 173.4543 160.2105 169.6320 161.1240 C163.9460 162.4828 159.4662 170.3165 156.7578 175.0210 C152.9608 181.6163 150.1765 189.1130 147.5115 196.2340 C144.2330 204.9942 140.9730 213.5688 139.6175 222.8703 C138.7807 228.6122 139.0872 234.6353 139.0842 240.4303 C139.0818 245.7088 138.9427 251.0425 139.1763 256.3125 C139.5712 265.2400 140.6908 274.2325 141.7765 283.0975 C143.3505 296.8325 145.4113 310.5050 147.9552 324.0925 L151.1662 341.6300 C152.4397 348.3125 154.6543 355.4475 154.0295 362.2850 C158.4605 366.8900 160.8980 372.3000 164.4267 377.5150 C171.1723 387.4875 178.8022 396.5675 183.9052 407.5825 C184.3600 408.5650 185.2545 410.0700 185.2670 411.1525 C185.2717 411.5525 185.0712 411.6375 184.8220 411.9100 C182.9922 412.5125 181.4780 411.8900 179.8248 411.0600 C163.8760 403.0650 154.6087 381.8750 146.3602 366.9950 C143.9778 362.6975 140.6328 359.0125 138.2713 354.6425 C132.1288 343.2775 127.2180 331.4325 122.4805 319.4350 C119.3272 311.4500 116.1552 303.4625 113.5082 295.2900 C104.2458 266.6975 99.4893 237.6755 103.2140 207.6835 C104.5310 197.0773 108.1183 186.7270 108.0295 175.9920 C101.4557 176.2500 96.5502 178.9220 91.5805 183.0977 C90.4400 184.0560 88.9785 185.5862 87.5932 186.1508 C86.9557 186.4108 86.8497 186.2962 86.2617 186.0282 C85.7700 185.2253 85.9427 184.2870 86.1695 183.4167 C87.3100 179.0415 90.4368 174.0462 92.7200 170.0932 C94.6630 166.7290 96.5527 163.2917 98.6740 160.0372 C109.3470 143.8760 122.4652 129.4702 137.5598 117.3355 C139.8703 115.4905 154.7482 105.1557 155.2993 104.3935 C157.9735 106.7985 157.9020 116.1145 165.0220 120.4262 C167.7580 122.0833 171.0470 122.3313 174.0952 121.4595 C177.1308 120.5912 179.9655 118.5155 181.4730 115.7103 C185.6835 107.8765 178.8925 101.3838 176.7240 94.2943 Z"></path>
<path id="" fill="#5c913b" fill-opacity="1.0" stroke="#000000" stroke-width="0.0" stroke-opacity="1.0" stroke-linecap="round" stroke-linejoin="round"  filling="0" d="M165.3053 82.0275 C157.8615 81.8112 155.0450 83.2905 153.3027 90.7533 C153.0737 91.7332 152.9380 92.8555 152.1752 93.5707 L151.7790 93.4668 C151.4617 93.1425 151.2182 92.8495 151.0083 92.4430 C148.2652 87.1277 144.1185 63.9733 145.9470 58.6772 C146.8893 55.9485 149.7567 53.2598 152.3627 52.1342 C155.5432 50.7838 159.1342 50.7730 162.3228 52.1050 C165.0938 53.2910 167.3080 55.4890 168.5150 58.2510 C170.0417 61.7852 170.2110 68.5703 170.9065 72.6295 C172.1615 79.9528 174.0428 87.3603 176.7240 94.2943 C178.8925 101.3838 185.6835 107.8765 181.4730 115.7103 C179.9655 118.5155 177.1308 120.5912 174.0952 121.4595 C171.0470 122.3313 167.7580 122.0833 165.0220 120.4262 C157.9020 116.1145 157.9735 106.7985 155.2993 104.3935 C155.7180 103.9877 155.6057 103.9467 156.2340 103.9252 C157.6447 105.1170 158.3810 107.7250 159.2787 109.3575 C160.4420 111.4733 161.7377 113.4410 163.4595 115.1468 C165.5462 117.2140 168.1645 119.1050 171.2337 119.0242 C173.7120 118.9593 175.7785 117.6830 177.4175 115.8910 C178.8065 114.3725 179.0640 112.1048 178.9225 110.1350 C178.5310 104.6923 172.3457 90.8027 169.0988 86.0898 C167.9978 84.4918 166.7650 83.2907 165.3053 82.0275 Z"></path>
</svg>