<svg xmlns="http://www.w3.org/2000/svg" viewBox="0 0 512 512" height="512.0px" width="512.0px">
<path id="" fill="#4289c1" fill-opacity="1.0" stroke="#000000" stroke-width="0.0" stroke-opacity="1.0" stroke-linecap="round" stroke-linejoin="round"  filling="0" d="M221.3652 271.7750 C222.5010 269.5125 224.2255 264.7275 226.3858 263.5025 C231.2065 263.4950 236.3078 264.6600 241.2175 264.8900 C252.4200 265.4150 263.5550 264.4000 274.6150 262.6900 C274.9175 279.4450 279.3825 296.1225 283.1250 312.3525 C284.3575 317.7050 286.4450 330.9575 290.2500 334.5575 C293.2850 337.4250 296.6475 339.6375 299.3600 342.9100 C305.0225 349.7475 309.6800 357.4225 314.5950 364.7975 C317.4500 369.0825 320.5600 373.3075 323.7100 377.3800 C327.7900 382.6550 332.3050 387.7150 336.7000 392.7325 C338.4650 394.7475 340.5800 396.7325 342.1275 398.9025 C342.6475 399.6300 343.1850 400.3850 343.1775 401.3150 C343.1450 405.4075 335.4000 414.3500 332.2800 417.1150 C328.6000 420.3300 324.4150 422.9150 319.8925 424.7650 C317.8300 425.5875 315.6025 426.2450 313.6325 427.2625 C311.0200 424.2775 309.2050 420.7175 306.9425 417.4800 C303.3150 412.2850 299.0325 407.1675 294.8200 402.4375 C286.3325 393.0325 277.5475 383.9025 268.4775 375.0600 C261.7450 368.4950 254.0075 362.6650 248.7460 354.7500 C246.9382 352.0300 245.5992 349.1925 244.4780 346.1300 C243.8750 344.4825 243.3878 342.7050 242.5603 341.1525 C241.9297 339.9725 240.7207 339.6650 240.1490 338.4875 L240.1455 338.1100 C240.3047 337.8200 240.4577 337.5275 240.6195 337.2375 C240.8090 336.9000 241.0858 336.5100 241.1842 336.1325 C241.3918 335.3400 236.8610 322.8150 236.2740 320.9925 C231.9373 307.2400 228.0100 293.3600 224.4973 279.3725 C224.0215 277.4375 223.6870 273.9250 222.5733 272.3575 C222.1950 271.8275 221.9778 271.8850 221.3652 271.7750 Z"></path>
<path id="" fill="#2a6797" fill-opacity="1.0" stroke="#000000" stroke-width="0.0" stroke-opacity="1.0" stroke-linecap="round" stroke-linejoin="round"  filling="0" d="M221.3652 271.7750 C221.9778 271.8850 222.1950 271.8275 222.5733 272.3575 C223.6870 273.9250 224.0215 277.4375 224.4973 279.3725 C228.0100 293.3600 231.9373 307.2400 236.2740 320.9925 C236.8610 322.8150 241.3918 335.3400 241.1842 336.1325 C241.0858 336.5100 240.8090 336.9000 240.6195 337.2375 C240.4577 337.5275 240.3047 337.8200 240.1455 338.1100 L240.1490 338.4875 C237.5810 341.9625 227.8793 358.4075 226.9710 362.2200 C226.2108 365.4150 227.7943 375.4675 227.7598 379.6350 C227.7095 385.7175 227.1745 391.7850 227.0298 397.8675 L226.2840 444.9300 C222.5907 444.5850 218.7643 444.8600 215.0555 444.8875 C207.1602 444.9450 198.0018 444.4600 190.5172 441.8800 C189.8087 441.6350 188.4008 441.2100 188.1555 440.4275 C187.4973 438.3225 188.0132 431.5675 187.9485 428.9125 C187.7485 420.7225 187.4693 412.4150 186.8692 404.2450 C186.1658 394.4250 185.2343 384.6225 184.0755 374.8450 C183.3353 368.5000 181.9153 361.9850 182.1870 355.5775 C182.3615 351.4600 183.5915 347.2750 185.0000 343.4300 C186.8663 338.3375 189.3995 333.6525 191.6980 328.7525 C200.8103 309.3375 211.4922 290.7950 221.3652 271.7750 Z"></path>
<path id="" fill="#9b6a49" fill-opacity="1.0" stroke="#000000" stroke-width="0.0" stroke-opacity="1.0" stroke-linecap="round" stroke-linejoin="round"  filling="0" d="M260.9725 174.5335 C262.1575 174.7000 263.5025 175.5845 264.5425 176.1638 C279.6150 184.5562 286.3075 194.7030 290.4725 211.1602 C291.5125 215.2705 292.1075 219.6628 293.3950 223.6855 C294.8900 228.3692 298.0100 232.1925 299.3800 237.0027 C301.1625 243.2552 301.8075 249.7153 303.2800 256.0225 C305.2625 264.5225 309.3925 276.3075 309.9875 284.4775 C310.1450 286.6525 309.7700 288.1825 308.7100 290.0800 C308.0175 290.7650 307.3450 291.3300 306.3125 291.3100 C303.4625 291.2500 299.2725 287.7100 297.3075 285.7450 C292.9300 281.3700 289.6450 275.2700 287.4875 269.5200 C284.8800 262.5625 284.3050 255.3100 283.1725 248.0417 C282.5525 244.0172 281.6775 240.0360 280.5525 236.1217 C274.7875 215.5092 261.0250 196.4897 260.9725 174.5335 Z"></path>
<path id="" fill="#ae7e57" fill-opacity="1.0" stroke="#000000" stroke-width="0.0" stroke-opacity="1.0" stroke-linecap="round" stroke-linejoin="round"  filling="0" d="M222.7527 58.1048 C225.4418 57.9690 228.1455 57.8940 230.8360 58.0253 C239.0675 58.4272 247.0423 61.7697 252.5900 67.9965 C258.6200 74.7620 261.5850 84.8173 261.0100 93.7848 C260.3250 104.4327 256.4925 111.7295 248.6167 118.6728 C250.9725 128.2097 250.0400 142.4418 250.1375 152.5703 C247.1727 151.8500 244.5800 150.1013 241.5870 149.4500 C236.3862 148.3180 232.7515 151.0945 228.6418 153.7410 C227.9805 154.1167 227.5225 154.4068 226.7332 154.4032 C225.2558 152.4505 226.5045 137.8853 226.3687 134.3392 L226.3535 134.0072 C222.1685 134.0995 217.9948 135.5948 213.8075 135.9637 C208.8265 136.4030 204.3040 136.0777 200.3082 132.7075 C192.7012 126.2910 190.0352 113.4503 189.2628 104.0537 C188.9365 100.0867 188.9665 96.1170 188.9555 92.1397 C188.9303 83.1103 188.9755 76.7397 195.1915 69.5080 C201.5000 62.1685 213.4592 58.7955 222.7527 58.1048 Z"></path>
<path id="" fill="rgb(61,129,192)" fill-opacity="1.0" stroke="#000000" stroke-width="0.0" stroke-opacity="1.0" stroke-linecap="round" stroke-linejoin="round"  filling="0" d="M259.0425 254.8925 C260.8325 254.7250 262.6350 254.7075 264.4275 254.8425 C267.2425 255.0475 271.7450 255.5525 273.6200 257.8850 C274.9175 259.5025 274.2500 262.3175 274.0675 264.2450 C268.2125 264.2600 262.1300 264.7850 256.2875 265.2475 C253.8300 265.4425 251.3125 265.8325 248.8468 265.8225 C246.9928 265.8175 245.1602 265.4050 243.3127 265.2400 C240.2453 265.0125 237.1552 265.1225 234.0842 264.9300 C231.5755 264.7725 229.0430 264.2750 226.5618 263.8725 C227.0098 261.4675 227.8975 258.4300 229.4990 256.5425 C230.1320 256.1800 230.8315 256.1675 231.5432 256.1200 C235.3768 255.8625 239.2818 256.0700 243.1275 255.9375 C248.4283 255.7550 253.7400 255.1750 259.0425 254.8925 Z"></path>
<path id="" fill="#9b6a49" fill-opacity="1.0" stroke="#000000" stroke-width="0.0" stroke-opacity="1.0" stroke-linecap="round" stroke-linejoin="round"  filling="0" d="M286.0750 196.5815 C286.3075 196.6090 286.3500 196.6070 286.6050 196.6770 C289.2775 197.4075 291.7350 201.9900 292.9925 204.2397 C297.2800 211.9125 302.1625 227.8248 299.7450 236.4350 C298.7200 236.0790 298.4450 235.3622 297.9225 234.4753 C296.1650 231.4922 294.4500 228.3045 293.2775 225.0445 C291.7125 220.6938 290.9125 215.8960 289.7100 211.4187 C288.5375 207.0567 286.8750 202.6842 285.9725 198.2690 C285.8425 197.6367 285.9150 197.2000 286.0750 196.5815 Z"></path>
<path id="" fill="#77b155" fill-opacity="1.0" stroke="#000000" stroke-width="0.0" stroke-opacity="1.0" stroke-linecap="round" stroke-linejoin="round"  filling="0" d="M283.9775 201.8862 C284.1650 211.4710 285.4100 221.0295 285.9325 230.5960 C286.2350 236.1337 285.8500 241.7077 286.1675 247.2460 C286.3450 250.3650 286.7675 253.4675 286.9250 256.5900 C287.1450 260.9100 286.9925 265.2375 286.8575 269.5575 C286.7825 271.9950 286.8375 274.5450 286.2900 276.9350 C285.6275 279.8225 283.1225 282.1275 280.6600 283.6400 C277.8375 285.3725 274.5000 286.3200 271.2250 286.7025 C265.8200 287.3350 210.2648 287.3850 207.8395 286.5025 C207.2700 286.2950 207.1095 286.0825 206.8600 285.5475 C204.2965 280.0325 204.8582 240.4515 205.1210 232.0650 C205.2815 226.9445 205.7835 221.8398 205.9565 216.7207 C206.3203 205.9597 206.1700 195.2570 207.5182 184.5428 C208.3125 178.2215 209.8970 172.0250 212.2348 166.0983 C215.4205 157.8550 221.4725 148.1068 228.4442 142.5388 C230.4935 140.9023 232.9235 139.6152 235.3242 138.5790 C240.7540 136.2352 248.0527 136.1783 253.5250 138.4162 C255.6100 139.2693 257.4550 140.5222 259.3025 141.7962 C270.7150 149.6712 276.5700 163.1472 279.7775 176.2722 C280.8825 180.8027 281.0900 185.8302 282.9375 190.1265 C282.9775 190.2213 283.0225 190.3150 283.0650 190.4095 C284.2200 191.8435 285.4825 193.2635 286.5050 194.7935 C285.7950 195.4117 285.1000 196.0515 284.3450 196.6120 C284.0850 198.3745 284.0175 200.1065 283.9775 201.8862 Z"></path>
<path id="" fill="#9a6e4b" fill-opacity="1.0" stroke="#000000" stroke-width="0.0" stroke-opacity="1.0" stroke-linecap="round" stroke-linejoin="round"  filling="0" d="M283.0650 190.4095 C284.2200 191.8435 285.4825 193.2635 286.5050 194.7935 C285.7950 195.4117 285.1000 196.0515 284.3450 196.6120 C284.0850 198.3745 284.0175 200.1065 283.9775 201.8862 C283.6475 200.4410 282.9250 191.7550 283.0650 190.4095 Z"></path>
<path id="" fill="#292f33" fill-opacity="1.0" stroke="#000000" stroke-width="0.0" stroke-opacity="1.0" stroke-linecap="round" stroke-linejoin="round"  filling="0" d="M187.8850 437.3675 C189.9465 437.7900 192.0587 438.8425 194.0180 439.6050 C198.6772 441.4150 204.2410 443.4275 209.2530 443.7200 C212.9715 443.9375 217.3253 443.0900 220.9925 442.4500 C222.2210 442.2350 224.0502 441.6500 225.2595 441.7550 C226.0898 441.8275 227.0343 442.2650 227.8130 442.5575 C228.4930 445.6575 228.7765 448.7850 228.9745 451.9475 C229.0755 453.5550 229.5717 456.9825 228.4865 458.2100 C224.9348 460.0775 211.0570 460.2200 206.9837 459.3725 C206.4153 458.5025 205.9597 457.5475 205.4763 456.6275 C202.5410 457.1250 199.6897 457.8700 196.8120 458.6200 C195.2948 459.1000 193.5905 459.3350 192.0240 459.6350 C181.4745 461.6550 173.2668 459.7725 163.3455 456.3350 C161.3935 455.6575 159.3342 455.1100 157.4505 454.2625 C156.5515 453.8575 155.9382 453.5000 155.5785 452.5600 C156.2522 450.9025 156.9515 448.7375 158.0605 447.3350 C158.5293 446.7425 159.0403 446.4000 159.8125 446.4025 C161.2677 446.4100 163.2878 447.7050 164.6568 448.2400 C167.7065 449.4375 171.8435 449.7975 175.0813 449.3375 C179.1443 448.7625 183.6243 446.7400 185.3640 442.7925 C186.1570 440.9925 186.7045 438.9525 187.8850 437.3675 Z"></path>
<path id="" fill="#292f33" fill-opacity="1.0" stroke="#000000" stroke-width="0.0" stroke-opacity="1.0" stroke-linecap="round" stroke-linejoin="round"  filling="0" d="M338.4825 394.0150 C340.7075 394.5975 353.7425 403.4225 355.4750 405.5475 C355.9500 406.1275 356.0750 406.6000 355.9225 407.3400 C355.2750 410.5175 347.6825 420.0300 345.2075 422.4025 C344.4750 423.1025 343.6525 423.6425 342.8000 424.1825 L339.8375 423.9725 C335.7900 430.4825 327.1100 440.7375 320.8850 445.0625 C318.4150 446.6525 316.1725 448.7300 313.7175 450.3900 C312.7825 451.0225 311.4500 452.0675 310.2725 451.8350 C309.4775 450.5300 311.2075 442.3225 311.3450 440.3575 C311.7575 434.5450 311.9350 428.3950 311.5525 422.5825 C313.6375 422.6650 315.8000 422.6700 317.8850 422.5225 C323.3925 422.1275 327.6475 419.3950 331.1900 415.2675 C334.9825 410.8475 335.3875 406.1575 336.8900 400.8125 C337.4950 398.6600 338.6625 396.2625 338.4825 394.0150 Z"></path>
<path id="" fill="#60352a" fill-opacity="1.0" stroke="#000000" stroke-width="0.0" stroke-opacity="1.0" stroke-linecap="round" stroke-linejoin="round"  filling="0" d="M225.1435 51.3423 C230.1640 50.7340 235.6450 51.3548 240.4863 52.7695 C250.2575 55.6248 260.1500 62.9590 265.0250 72.0305 C270.7825 82.7435 270.4775 95.6390 267.0150 107.0280 C264.7150 114.5970 260.8650 124.2570 253.5225 128.1520 C247.0130 125.9050 239.8465 120.6930 236.5590 114.5358 C234.1625 110.0470 238.5585 109.2303 240.9050 106.3260 C242.4555 104.4070 243.0010 102.5258 243.6815 100.2040 C243.9675 98.9522 244.0327 97.6267 243.9270 96.3480 C243.5725 92.0680 241.3062 89.5388 238.1630 86.9398 C236.9483 86.9293 235.7235 87.0625 234.5120 87.1523 C229.6335 91.1072 230.7413 95.1890 227.6105 98.6357 C226.0085 100.3997 224.2733 100.2940 222.0712 100.3538 C221.8318 96.6980 222.0780 92.9518 221.3522 89.3435 C220.7025 86.1150 219.5473 83.2735 216.6285 81.4453 C212.6687 78.9645 202.9045 79.5145 198.5903 81.3890 C196.2260 82.4160 193.6272 84.4325 191.1127 84.8938 C189.9935 85.0990 188.9130 84.5862 188.0335 83.9348 C185.2298 81.8582 182.6855 77.8562 182.2045 74.3825 C181.7587 71.1630 182.0137 67.1633 184.0710 64.5253 C184.8768 63.4920 185.9175 62.7688 187.1320 62.2885 C190.3492 61.0168 194.4870 60.8670 197.9310 59.8085 C201.1402 58.8220 204.1190 57.3078 207.2300 56.0672 C212.9753 53.7347 218.9953 52.1470 225.1435 51.3423 Z"></path>
<path id="" fill="#ae7e57" fill-opacity="1.0" stroke="#000000" stroke-width="0.0" stroke-opacity="1.0" stroke-linecap="round" stroke-linejoin="round"  filling="0" d="M225.1995 180.8290 C226.9543 180.8488 228.7473 180.9877 230.4812 181.2543 C233.2233 181.6760 249.9377 184.9117 251.5275 185.8638 C251.9675 186.1268 251.8925 186.0155 252.0025 186.5618 C252.3625 188.3418 250.4325 202.3667 250.0425 205.1355 C247.4577 223.5247 241.6280 242.7315 227.7535 255.8525 C221.4917 261.7750 214.4312 266.9300 208.4355 273.1400 C203.0643 278.7050 199.8403 284.7725 195.0432 290.6825 C194.1842 291.7975 193.3290 292.9050 192.6508 294.1425 C191.4718 296.2925 190.6402 299.5400 188.7603 301.1750 C187.7735 302.0325 186.5658 302.3875 185.2695 302.2575 C183.4400 302.0725 181.6362 301.0375 180.5345 299.5725 C178.7170 297.1550 178.9138 293.3500 179.1008 290.4700 C179.5462 283.6100 182.4108 275.2350 186.7318 269.8475 C190.5285 265.1125 204.6358 255.6500 205.4147 250.1225 C208.5128 248.2465 218.9557 236.1678 220.1048 232.9563 C221.7513 228.3537 221.7175 222.8268 222.1775 217.9895 C223.0780 208.5170 223.7245 199.0325 224.7467 189.5697 C225.0453 186.8055 224.4337 183.4515 225.1995 180.8290 Z"></path>
<path id="" fill="#292f33" fill-opacity="1.0" stroke="#000000" stroke-width="0.0" stroke-opacity="1.0" stroke-linecap="round" stroke-linejoin="round"  filling="0" d="M331.0025 433.5650 C331.9250 433.5025 332.8200 433.4000 333.7375 433.5700 C333.9100 434.0875 333.9700 434.2775 333.8325 434.8300 C333.3925 436.6225 331.8550 438.5550 330.8100 440.0675 C323.9550 449.9850 315.3825 455.1575 305.1450 460.9875 C303.6525 458.9475 301.5625 456.7825 300.6300 454.4475 C300.0050 452.8775 300.3500 451.8525 300.9675 450.3450 C302.8600 447.4425 305.2150 444.8450 307.2075 442.0075 C308.1525 440.6600 309.5600 437.6375 310.8700 436.7675 C311.1050 436.6125 311.3150 436.7100 311.5775 436.7425 C313.2800 438.8300 311.4875 445.4275 311.3900 448.0475 C311.3650 448.6650 311.2375 449.2975 311.6675 449.7600 C312.6725 449.7150 313.6850 448.9500 314.5450 448.4525 C317.5875 446.7250 320.3325 444.5200 322.6750 441.9200 C325.2150 439.1425 327.3500 435.6475 330.6675 433.7550 L331.0025 433.5650 Z"></path>
<path id="" fill="#292f33" fill-opacity="1.0" stroke="#000000" stroke-width="0.0" stroke-opacity="1.0" stroke-linecap="round" stroke-linejoin="round"  filling="0" d="M185.4115 438.0225 C185.5977 437.9975 185.8310 437.9625 186.0148 437.9625 C186.6840 437.9675 186.7247 438.0175 187.1483 438.4900 C187.2928 439.1825 187.2085 439.6800 187.0030 440.3450 C185.9585 443.7200 183.7762 446.3350 180.6790 448.0200 C175.0185 451.1000 169.7455 450.3825 163.8095 448.5775 C162.8215 448.2925 161.4620 447.9200 160.8050 447.0575 C160.3913 446.5150 160.4628 446.3650 160.5737 445.7400 C160.9825 445.3200 161.1503 445.1150 161.7375 444.9625 C165.7020 443.9350 170.8418 444.5725 175.0735 443.4275 C178.8342 442.4100 181.7635 439.9150 185.1577 438.1525 L185.4115 438.0225 Z"></path>
<path id="" fill="#292f33" fill-opacity="1.0" stroke="#000000" stroke-width="0.0" stroke-opacity="1.0" stroke-linecap="round" stroke-linejoin="round"  filling="0" d="M225.1215 433.6700 L225.7348 433.7675 C227.6113 435.2175 228.0075 441.1000 228.3887 443.3975 C225.7215 442.8550 222.7552 443.0725 220.0305 443.0600 L205.9792 443.0675 C205.3152 443.0850 204.6510 443.1000 203.9868 443.1100 C203.2812 443.1250 202.9133 443.1450 202.3065 442.7125 C201.9402 442.0075 201.9008 441.6400 201.8978 440.8700 C202.7890 439.6875 207.4048 439.9550 208.9642 439.8525 C215.0488 439.4500 220.1530 436.9875 225.1215 433.6700 Z"></path>
</svg>