<svg xmlns="http://www.w3.org/2000/svg" viewBox="0 0 512 512" height="512.0px" width="512.0px">
<path id="" fill="#fefefe" fill-opacity="1.0" stroke="#000000" stroke-width="0.0" stroke-opacity="1.0" stroke-linecap="round" stroke-linejoin="round"  filling="0" d="M99.9098 81.0468 L348.7975 81.0450 L425.0675 81.0428 L447.7425 81.0555 C452.2025 81.0780 456.7525 81.3560 461.2000 80.9962 C460.9925 85.8857 461.8675 100.5965 460.4825 104.1628 C458.0425 104.8293 454.4250 104.5305 451.8725 104.5560 L434.6725 104.6158 L377.2425 104.5705 L119.8300 104.5660 C120.2213 112.6777 120.0543 120.8538 120.0555 128.9742 C120.0902 139.6715 120.0602 150.3687 119.9655 161.0658 C129.1040 160.8477 138.2795 161.0055 147.4223 161.0060 L197.6102 161.0075 L370.4650 161.0132 L427.7200 161.0115 C438.8650 161.0105 450.0300 161.1467 461.1700 160.9135 C461.0000 164.9527 461.0950 169.0300 461.0925 173.0737 C461.0900 176.7348 460.9525 180.4615 461.3050 184.1053 C448.1400 183.5755 434.7900 184.0247 421.6000 184.0247 L345.6050 184.0235 L119.9190 184.0448 C120.2848 191.8390 120.0537 199.7435 120.0558 207.5477 C120.0583 218.6940 120.1817 229.8635 119.9630 241.0075 C151.4075 240.5640 182.9088 240.9478 214.3585 240.9498 L461.1425 240.8967 C460.9700 244.9175 461.0825 248.9825 461.0875 253.0075 C461.0900 256.6625 460.9475 260.3875 461.2700 264.0275 C454.8625 263.6300 448.2925 263.8900 441.8725 263.8875 L407.2500 263.8800 L300.1875 263.8800 L119.9402 263.9525 C120.1568 272.2150 120.0550 280.5025 120.0543 288.7675 C120.0850 299.2375 120.0565 309.7050 119.9688 320.1725 C129.6315 319.8350 139.3510 320.0275 149.0195 320.0250 L198.1890 320.0250 L372.7250 320.0225 L429.3200 320.0325 C439.9175 320.0375 450.5725 320.2675 461.1675 319.9525 C460.9325 327.8525 461.1200 335.7975 461.1125 343.7025 C452.3625 343.4125 443.5100 343.7400 434.7475 343.7325 L376.9875 343.7275 L208.6288 343.7150 L148.9580 343.7375 L130.4483 343.7450 C126.9705 343.7450 123.3817 343.9200 119.9182 343.6450 C120.0618 352.7250 120.1075 361.8075 120.0558 370.8875 C120.0880 380.6025 120.0575 390.3175 119.9642 400.0325 C145.3257 399.6275 170.7420 399.9625 196.1115 399.9625 L368.7875 399.9675 C399.5600 399.9725 430.3850 400.3750 461.1500 399.9125 C460.9750 403.9675 461.0900 408.0650 461.0900 412.1250 C461.0900 415.7625 460.9275 419.4800 461.3075 423.0950 C454.4325 422.8500 447.5000 423.0125 440.6200 423.0125 L403.7475 423.0175 L291.5625 423.0175 L164.9580 423.0150 L123.1250 423.0175 C114.8195 423.0175 106.4855 422.8900 98.1837 423.1275 C98.2620 420.2300 98.0810 417.3075 98.0570 414.4050 L98.0520 398.3725 L98.0567 335.7425 L98.0527 149.1693 L98.0650 102.8125 C98.0648 98.7720 97.4365 84.7997 98.3485 81.9235 C98.8073 81.3272 99.2217 81.2380 99.9098 81.0468 Z"></path>
<path id="" fill="#8899a6" fill-opacity="1.0" stroke="#000000" stroke-width="0.0" stroke-opacity="1.0" stroke-linecap="round" stroke-linejoin="round"  filling="0" d="M284.7000 81.6848 C289.0125 71.1530 297.4900 60.6390 308.1625 56.1825 C310.7950 55.0835 313.6675 54.5652 316.3975 55.6560 C323.4525 58.4725 332.2525 74.3465 334.7600 81.6360 C334.8000 81.7500 334.8250 81.8683 334.8575 81.9845 C336.6075 86.6378 338.3500 91.3853 339.5425 96.2180 C340.0200 98.1600 340.3000 103.0335 341.2675 104.4702 C344.0125 120.9837 343.0425 137.4868 339.3275 153.7480 C338.7850 156.1260 338.3850 158.6983 337.6725 161.0135 C336.6700 162.0553 335.7225 167.0168 335.1525 168.6545 C333.9650 172.0733 332.4450 175.4523 330.9000 178.7235 C330.0825 180.4520 328.7300 182.5658 328.2675 184.3952 C324.4075 192.4930 313.6425 207.6120 306.8275 213.2535 C307.5800 217.1160 311.6350 239.1882 312.7050 241.2242 C312.6400 241.8268 312.6475 241.8700 312.9375 242.4025 C314.8125 243.2193 319.8825 242.5825 322.1975 242.6675 C328.7300 242.9073 338.2600 246.7218 343.7500 250.1025 C349.5900 253.7000 354.4250 258.2825 358.4350 263.8225 C358.7250 264.2250 359.0125 264.7925 359.5650 264.7275 C367.8600 277.4425 372.3450 292.8775 371.4850 308.1025 C371.2425 312.4175 370.0625 316.6300 369.7100 320.9100 C368.4475 322.3475 367.9975 325.9025 367.2475 327.7600 C365.4175 332.2100 363.1300 336.4625 360.4275 340.4450 C359.2575 342.1325 354.4150 346.5525 354.1000 348.1725 C349.9100 352.7575 342.0250 356.7375 336.4175 359.4450 C336.7850 361.8600 344.8700 400.7675 344.9550 400.9050 L345.4425 401.0875 L344.8850 401.3450 C344.6950 403.4800 345.4675 408.6700 345.4875 411.3950 C345.5175 415.4800 344.6850 419.1575 344.3025 423.1575 C343.8925 424.4550 343.4625 425.7475 343.0100 427.0325 C338.8150 438.6625 331.6775 446.8525 320.4475 452.0275 C307.3775 458.0500 292.9325 458.6825 279.4200 453.6175 C268.8500 449.6550 259.6050 442.5625 255.2675 431.9125 C254.6475 430.3950 254.1200 428.8425 253.6850 427.2625 C253.3950 426.2075 253.3250 424.6700 252.8125 423.7300 C252.5450 423.2400 252.3150 423.2525 251.8175 423.1075 C238.9055 422.6425 225.8448 423.0300 212.9205 423.0300 L139.1720 423.0300 L81.5830 423.0250 C71.4463 423.0250 61.0843 422.5600 50.9790 423.1725 C51.1882 408.7000 51.0000 394.2025 51.0005 379.7275 L51.0030 295.2100 L50.9610 81.2310 C55.1620 81.5293 59.5600 81.1172 63.7795 81.0825 C73.3535 81.0038 82.9538 80.9525 92.5267 81.0738 C97.9110 81.1420 103.2600 81.8665 108.6425 81.9352 C120.3750 82.0853 132.1295 81.9488 143.8645 81.9492 L213.1485 81.9470 L262.9525 81.9430 L276.1850 81.9585 C278.9475 81.9587 281.9750 82.1605 284.7000 81.6848 Z M257.1950 400.8550 C257.0625 402.2225 255.8000 404.1775 255.2850 405.5075 C254.2125 408.2800 253.2450 411.2525 252.7725 414.1950 C252.4400 416.2775 253.1250 421.6575 252.4425 423.0150 L251.8175 423.1075 C252.3150 423.2525 252.5450 423.2400 252.8125 423.7300 C253.3250 424.6700 253.3950 426.2075 253.6850 427.2625 C254.1200 428.8425 254.6475 430.3950 255.2675 431.9125 C259.6050 442.5625 268.8500 449.6550 279.4200 453.6175 C292.9325 458.6825 307.3775 458.0500 320.4475 452.0275 C331.6775 446.8525 338.8150 438.6625 343.0100 427.0325 C343.4625 425.7475 343.8925 424.4550 344.3025 423.1575 C344.6850 419.1575 345.5175 415.4800 345.4875 411.3950 C345.4675 408.6700 344.6950 403.4800 344.8850 401.3450 L345.4425 401.0875 L344.9550 400.9050 C344.8700 400.7675 336.7850 361.8600 336.4175 359.4450 C342.0250 356.7375 349.9100 352.7575 354.1000 348.1725 C354.4150 346.5525 359.2575 342.1325 360.4275 340.4450 C363.1300 336.4625 365.4175 332.2100 367.2475 327.7600 C367.9975 325.9025 368.4475 322.3475 369.7100 320.9100 C370.0625 316.6300 371.2425 312.4175 371.4850 308.1025 C372.3450 292.8775 367.8600 277.4425 359.5650 264.7275 C359.0125 264.7925 358.7250 264.2250 358.4350 263.8225 C354.4250 258.2825 349.5900 253.7000 343.7500 250.1025 C338.2600 246.7218 328.7300 242.9073 322.1975 242.6675 C319.8825 242.5825 314.8125 243.2193 312.9375 242.4025 C312.6475 241.8700 312.6400 241.8268 312.7050 241.2242 C311.6350 239.1882 307.5800 217.1160 306.8275 213.2535 C313.6425 207.6120 324.4075 192.4930 328.2675 184.3952 C328.7300 182.5658 330.0825 180.4520 330.9000 178.7235 C332.4450 175.4523 333.9650 172.0733 335.1525 168.6545 C335.7225 167.0168 336.6700 162.0553 337.6725 161.0135 C338.3850 158.6983 338.7850 156.1260 339.3275 153.7480 C343.0425 137.4868 344.0125 120.9837 341.2675 104.4702 C340.3000 103.0335 340.0200 98.1600 339.5425 96.2180 C338.3500 91.3853 336.6075 86.6378 334.8575 81.9845 C334.8250 81.8683 334.8000 81.7500 334.7600 81.6360 C332.2525 74.3465 323.4525 58.4725 316.3975 55.6560 C313.6675 54.5652 310.7950 55.0835 308.1625 56.1825 C297.4900 60.6390 289.0125 71.1530 284.7000 81.6848 C284.2750 83.6585 281.8250 88.4467 280.9850 90.8045 C279.4025 95.2588 278.4350 99.9798 277.3550 104.5753 C273.0525 104.4760 268.7600 104.6793 264.4550 104.7217 L245.4812 104.7385 L163.4577 104.7408 L136.4740 104.7387 C130.9433 104.7350 125.2858 104.8828 119.7697 104.5143 C118.7290 118.3197 119.0645 132.1630 119.0790 146.0000 C119.0840 150.9665 119.4157 156.1353 119.0710 161.0720 C130.6670 160.8605 142.2825 161.0058 153.8815 161.0047 L216.1835 161.0047 L254.9975 161.0070 C262.3000 161.0070 269.7175 160.7233 277.0025 161.1653 C277.7750 162.7612 277.9850 166.4055 278.3725 168.3145 C279.1300 172.0035 279.9950 175.6695 280.9675 179.3078 C278.6950 181.5915 275.9925 185.0060 273.4175 186.7733 C273.8375 186.1105 274.0925 185.6240 274.2400 184.8505 C273.8350 184.3215 273.2975 184.3438 272.6500 184.2545 C268.9675 183.7478 264.8950 184.0378 261.1650 184.0347 L239.2930 184.0312 L156.8955 184.0330 L132.3810 184.0408 C128.3055 184.0515 123.9540 184.4220 119.9113 184.0063 C119.0485 190.7787 119.0608 197.3215 119.0635 204.1315 L119.0750 228.3705 C119.0772 232.5603 119.2418 236.8260 119.0435 241.0070 C142.3233 240.7290 165.6272 240.9425 188.9095 240.9420 L216.7177 240.9415 C221.7165 240.9408 226.7560 240.7912 231.7498 240.9913 C230.1398 245.7307 227.7420 250.2100 226.1322 254.9850 C225.3900 257.1875 224.8398 262.4650 223.7750 264.0225 C208.6020 263.6175 193.3717 263.8875 178.1905 263.8900 L119.0705 263.9200 L119.0810 300.8100 C119.0840 307.5350 119.2100 314.2875 119.0435 321.0075 C145.9400 320.6875 172.8667 320.9425 199.7668 320.9425 L220.8290 320.9375 C223.7550 320.9350 227.2527 321.3025 230.1118 320.8225 C230.7337 320.7775 231.4442 320.5850 231.9888 320.8975 C236.4640 328.7900 240.7260 334.8675 246.8047 341.6550 C247.1820 342.0775 247.8455 342.5175 247.7092 343.0775 C233.2682 342.7800 218.7715 343.0250 204.3240 343.0275 L119.0225 343.0375 L119.0645 379.0050 C119.0640 384.9250 118.7775 391.0150 119.1478 396.9175 C119.2247 398.1475 119.3112 399.4975 119.7715 400.6450 C121.1172 401.3650 148.9277 400.9500 152.4408 400.9500 L222.7888 400.9475 L245.4283 400.9475 C249.3045 400.9450 253.3400 401.1675 257.1950 400.8550 Z"></path>
<path id="" fill="#31373d" fill-opacity="1.0" stroke="#000000" stroke-width="0.0" stroke-opacity="1.0" stroke-linecap="round" stroke-linejoin="round"  filling="0" d="M284.7000 81.6848 C289.0125 71.1530 297.4900 60.6390 308.1625 56.1825 C310.7950 55.0835 313.6675 54.5652 316.3975 55.6560 C323.4525 58.4725 332.2525 74.3465 334.7600 81.6360 C334.8000 81.7500 334.8250 81.8683 334.8575 81.9845 C336.6075 86.6378 338.3500 91.3853 339.5425 96.2180 C340.0200 98.1600 340.3000 103.0335 341.2675 104.4702 C344.0125 120.9837 343.0425 137.4868 339.3275 153.7480 C338.7850 156.1260 338.3850 158.6983 337.6725 161.0135 C336.6700 162.0553 335.7225 167.0168 335.1525 168.6545 C333.9650 172.0733 332.4450 175.4523 330.9000 178.7235 C330.0825 180.4520 328.7300 182.5658 328.2675 184.3952 C324.4075 192.4930 313.6425 207.6120 306.8275 213.2535 C307.5800 217.1160 311.6350 239.1882 312.7050 241.2242 C312.6400 241.8268 312.6475 241.8700 312.9375 242.4025 C314.8125 243.2193 319.8825 242.5825 322.1975 242.6675 C328.7300 242.9073 338.2600 246.7218 343.7500 250.1025 C349.5900 253.7000 354.4250 258.2825 358.4350 263.8225 C358.7250 264.2250 359.0125 264.7925 359.5650 264.7275 C367.8600 277.4425 372.3450 292.8775 371.4850 308.1025 C371.2425 312.4175 370.0625 316.6300 369.7100 320.9100 C368.4475 322.3475 367.9975 325.9025 367.2475 327.7600 C365.4175 332.2100 363.1300 336.4625 360.4275 340.4450 C359.2575 342.1325 354.4150 346.5525 354.1000 348.1725 C349.9100 352.7575 342.0250 356.7375 336.4175 359.4450 C336.7850 361.8600 344.8700 400.7675 344.9550 400.9050 L345.4425 401.0875 L344.8850 401.3450 C344.6950 403.4800 345.4675 408.6700 345.4875 411.3950 C345.5175 415.4800 344.6850 419.1575 344.3025 423.1575 C343.8925 424.4550 343.4625 425.7475 343.0100 427.0325 C338.8150 438.6625 331.6775 446.8525 320.4475 452.0275 C307.3775 458.0500 292.9325 458.6825 279.4200 453.6175 C268.8500 449.6550 259.6050 442.5625 255.2675 431.9125 C254.6475 430.3950 254.1200 428.8425 253.6850 427.2625 C253.3950 426.2075 253.3250 424.6700 252.8125 423.7300 C252.5450 423.2400 252.3150 423.2525 251.8175 423.1075 L252.4425 423.0150 C253.1250 421.6575 252.4400 416.2775 252.7725 414.1950 C253.2450 411.2525 254.2125 408.2800 255.2850 405.5075 C255.8000 404.1775 257.0625 402.2225 257.1950 400.8550 C259.4875 395.4800 266.4550 389.8975 271.8225 387.7750 C278.2425 385.2850 285.3850 385.4275 291.7000 388.1700 C298.6275 391.2375 301.3350 394.9725 305.4075 400.9825 L306.7300 400.9600 C312.5325 400.3575 319.4800 400.8550 325.4175 400.7350 C324.1800 388.8600 320.6225 377.3775 318.0800 365.7450 C317.1075 365.9850 316.0875 366.1175 315.0925 366.2275 C294.5650 368.5175 275.6350 363.7950 258.6625 351.9600 C254.8125 349.2775 251.3700 346.0100 247.7092 343.0775 C247.8455 342.5175 247.1820 342.0775 246.8047 341.6550 C240.7260 334.8675 236.4640 328.7900 231.9888 320.8975 C231.4442 320.5850 230.7337 320.7775 230.1118 320.8225 C230.3085 320.7000 231.0367 320.2850 231.1245 320.1250 C231.3627 319.6925 226.4280 308.0250 225.8542 306.0775 C222.0618 293.2050 220.1200 277.1450 223.7750 264.0225 C224.8398 262.4650 225.3900 257.1875 226.1322 254.9850 C227.7420 250.2100 230.1398 245.7307 231.7498 240.9913 C234.1900 237.1042 235.9868 232.7510 238.4370 228.8197 C244.0087 219.8800 250.5150 211.0200 257.4900 203.1118 C259.9075 200.3705 262.6100 197.8622 265.1150 195.2005 C267.8400 192.3070 270.0600 189.0298 273.4175 186.7733 C275.9925 185.0060 278.6950 181.5915 280.9675 179.3078 C279.9950 175.6695 279.1300 172.0035 278.3725 168.3145 C277.9850 166.4055 277.7750 162.7612 277.0025 161.1653 C274.0600 146.0202 273.5625 130.5020 275.5275 115.1995 C275.9800 111.6418 276.4075 108.0423 277.3550 104.5753 C278.4350 99.9798 279.4025 95.2588 280.9850 90.8045 C281.8250 88.4467 284.2750 83.6585 284.7000 81.6848 Z M299.5875 436.0400 L298.9550 435.4975 C297.4300 435.9175 296.1650 437.1825 294.8225 438.0075 C296.3875 438.0150 299.5800 438.3975 300.9175 437.7850 C303.8625 437.1925 306.5450 437.0125 309.4125 435.9000 C315.2750 433.6225 320.9325 429.1400 323.5025 423.3150 C318.1025 423.1850 312.7575 423.0525 307.3525 423.1150 C305.8425 426.4950 304.1025 429.7375 301.7850 432.6325 C300.9625 433.6600 299.5425 434.6725 299.5875 436.0400 Z M296.4475 161.4377 C297.7325 161.2448 298.9650 161.2823 300.2225 160.8975 C301.8475 158.1642 304.3250 155.6743 306.1725 153.0375 C312.3875 144.1638 318.3025 133.3740 320.6850 122.7445 C321.4450 119.3525 322.8550 107.2135 321.0225 104.3155 C317.7775 104.5105 313.6025 104.7572 310.3975 104.2990 C308.6150 104.6758 307.4450 106.2923 306.4650 107.7777 C298.6675 119.5960 294.8125 139.1873 295.0775 153.1593 C295.1225 155.5188 295.0525 158.1690 295.6025 160.4705 C295.6725 160.7737 295.8150 160.9973 295.9725 161.2610 L296.4475 161.4377 Z M255.2025 321.0050 C259.9050 320.8775 264.6100 320.8475 269.3150 320.9150 C269.4900 320.7450 269.6650 320.5925 269.8000 320.3850 C270.0725 319.9700 269.9550 319.3875 269.8150 318.9475 C269.3600 317.5075 268.3850 316.0675 267.7550 314.6750 C266.2325 311.3175 265.1925 307.6200 264.6050 303.9825 C262.4200 290.4225 266.8475 275.2725 274.8750 264.2400 C272.8375 263.4325 262.8325 263.8475 260.1700 263.8500 C258.5750 264.4525 256.8750 268.4500 256.1950 269.9575 C249.8030 284.1175 246.8625 300.5000 252.5075 315.4075 C253.2275 317.3075 254.0900 319.3000 255.2025 321.0050 Z M279.5175 238.8055 C279.6625 239.6405 279.6275 240.1975 280.1975 240.8398 C284.3725 241.2830 288.7950 240.8378 293.0100 240.9750 C291.9825 236.7668 291.4450 232.3000 290.6800 228.0293 C287.0075 230.6105 283.1550 235.6210 279.5175 238.8055 Z M313.2675 343.2200 C308.1450 343.2200 303.0275 343.0175 297.9025 343.0550 C293.5175 343.0850 289.1400 343.3700 284.7550 343.3200 C284.7350 344.1475 284.7575 345.0000 284.6450 345.8200 C294.2975 349.2800 304.5450 348.9250 314.4575 347.0375 C314.2525 346.1075 313.9800 343.7800 313.2675 343.2200 Z M343.6075 320.7375 C345.0650 312.3425 344.4000 304.5550 340.2175 297.0325 C335.5225 288.5925 329.4875 284.3200 320.4175 281.7250 C321.8525 290.0300 323.7100 298.2950 325.3900 306.5525 C326.3175 311.1025 326.8775 316.3050 328.4750 320.6325 C332.0175 321.4025 339.8025 321.0750 343.6075 320.7375 Z M301.8250 284.2225 C295.6900 289.1350 289.7325 294.7600 288.8175 302.9900 C288.1650 308.8550 290.3200 315.2275 294.0350 319.7875 C294.4900 320.3475 294.9100 320.9075 295.6575 321.0475 C300.1150 320.7875 304.6000 320.9950 309.0625 320.8150 C307.0650 308.5550 304.0350 296.4425 301.8250 284.2225 Z"></path>
<path id="" fill="#f8f8f9" fill-opacity="0.984314" stroke="#000000" stroke-width="0.0" stroke-opacity="1.0" stroke-linecap="round" stroke-linejoin="round"  filling="0" d="M294.8225 438.0075 C296.1650 437.1825 297.4300 435.9175 298.9550 435.4975 L299.5875 436.0400 C299.7400 436.6150 299.8650 437.0900 300.1600 437.6100 L300.9175 437.7850 C299.5800 438.3975 296.3875 438.0150 294.8225 438.0075 Z"></path>
<path id="" fill="#8899a6" fill-opacity="1.0" stroke="#000000" stroke-width="0.0" stroke-opacity="1.0" stroke-linecap="round" stroke-linejoin="round"  filling="0" d="M325.6700 401.0250 C325.9300 405.6900 326.2625 419.6675 323.6100 423.2350 C323.5825 423.2700 323.5375 423.2900 323.5025 423.3150 C318.1025 423.1850 312.7575 423.0525 307.3525 423.1150 C307.4275 421.9425 307.8750 420.6425 308.0750 419.4625 C308.7400 415.5275 308.6875 411.4450 307.6725 407.5700 C307.1200 405.4650 305.9275 403.4500 305.4800 401.3525 C305.4550 401.2300 305.4325 401.1075 305.4075 400.9825 L306.7300 400.9600 C312.9975 401.2700 319.3900 401.0450 325.6700 401.0250 Z"></path>
<path id="" fill="#8798a5" fill-opacity="1.0" stroke="#000000" stroke-width="0.0" stroke-opacity="1.0" stroke-linecap="round" stroke-linejoin="round"  filling="0" d="M269.3150 320.9150 L270.7050 320.4350 C272.2675 322.5400 273.7300 324.8900 275.4800 326.8325 C280.9550 332.9050 290.2725 339.4425 298.5125 340.7275 C300.8775 341.0950 303.2875 340.5825 305.2000 339.1075 C306.7350 337.9225 307.7675 336.2075 307.9500 334.2650 C308.1450 332.1225 307.4325 329.9950 305.9850 328.4025 C303.9000 326.1000 296.3550 323.8100 295.4675 321.3300 L295.6575 321.0475 C300.1150 320.7875 304.6000 320.9950 309.0625 320.8150 C309.7875 322.7750 313.5325 341.3900 313.4250 343.0775 L313.3850 342.9075 L313.2675 343.2200 C308.1450 343.2200 303.0275 343.0175 297.9025 343.0550 C293.5175 343.0850 289.1400 343.3700 284.7550 343.3200 C284.7350 344.1475 284.7575 345.0000 284.6450 345.8200 C282.6700 345.1375 280.7350 344.3750 278.7925 343.6100 C277.2400 343.1600 275.1675 341.7500 273.7700 340.8875 C267.1250 336.7825 261.1625 331.1800 257.0200 324.5250 C256.3425 323.4400 255.5000 322.2625 255.2025 321.0050 C259.9050 320.8775 264.6100 320.8475 269.3150 320.9150 Z"></path>
<path id="" fill="#dadfe3" fill-opacity="1.0" stroke="#000000" stroke-width="0.0" stroke-opacity="1.0" stroke-linecap="round" stroke-linejoin="round"  filling="0" d="M278.7925 343.6100 C280.2200 342.8750 283.1300 343.1850 284.7550 343.3200 C284.7350 344.1475 284.7575 345.0000 284.6450 345.8200 C282.6700 345.1375 280.7350 344.3750 278.7925 343.6100 Z"></path>
<path id="" fill="#8798a5" fill-opacity="1.0" stroke="#000000" stroke-width="0.0" stroke-opacity="1.0" stroke-linecap="round" stroke-linejoin="round"  filling="0" d="M260.1700 263.8500 L259.9925 263.7425 L259.8975 263.3525 C262.5025 259.0500 275.8575 240.9012 279.5175 238.8055 C279.6625 239.6405 279.6275 240.1975 280.1975 240.8398 C284.3725 241.2830 288.7950 240.8378 293.0100 240.9750 C293.8325 243.0332 293.8925 245.6138 294.4425 247.7930 C289.2175 250.3800 284.4675 253.8300 280.3925 258.0000 C279.0025 259.4075 276.2700 263.5600 274.8750 264.2400 C272.8375 263.4325 262.8325 263.8475 260.1700 263.8500 Z"></path>
<path id="" fill="#8798a5" fill-opacity="1.0" stroke="#000000" stroke-width="0.0" stroke-opacity="1.0" stroke-linecap="round" stroke-linejoin="round"  filling="0" d="M332.3100 340.4625 C331.7575 337.7300 328.0425 321.9650 328.4750 320.6325 C332.0175 321.4025 339.8025 321.0750 343.6075 320.7375 C343.6075 320.8100 343.6150 320.8850 343.6075 320.9575 C342.9675 328.8550 338.0250 335.4425 332.3100 340.4625 Z"></path>
<path id="" fill="#8999a6" fill-opacity="1.0" stroke="#000000" stroke-width="0.0" stroke-opacity="1.0" stroke-linecap="round" stroke-linejoin="round"  filling="0" d="M310.3975 104.2990 L309.7800 104.1598 L309.8850 103.8125 C311.5525 102.0218 314.1750 100.6158 316.6275 100.4312 C317.7550 100.3465 318.9200 100.5323 319.7750 101.3320 C320.5850 102.0915 320.9450 103.2402 321.0225 104.3155 C317.7775 104.5105 313.6025 104.7572 310.3975 104.2990 Z"></path>
<path id="" fill="#3c4349" fill-opacity="1.0" stroke="#000000" stroke-width="0.0" stroke-opacity="1.0" stroke-linecap="round" stroke-linejoin="round"  filling="0" d="M300.2225 160.8975 C299.8525 162.2525 297.3475 164.3078 296.3975 165.5080 C296.2225 164.4230 295.6750 162.7200 295.9650 161.6602 L296.4475 161.4377 C297.7325 161.2448 298.9650 161.2823 300.2225 160.8975 Z"></path>
<path id="" fill="#8798a5" fill-opacity="1.0" stroke="#000000" stroke-width="0.0" stroke-opacity="1.0" stroke-linecap="round" stroke-linejoin="round"  filling="0" d="M337.6725 161.0135 C340.2225 161.3842 343.0475 161.0560 345.6375 161.0250 C350.2075 160.9707 354.7800 161.0013 359.3500 161.0020 L423.6950 161.0112 L441.0325 161.0005 C447.4425 160.9915 453.7400 160.6840 460.0425 162.0985 C459.9475 166.1270 460.7225 170.1163 460.9775 174.1293 C461.1875 177.4360 460.8675 180.8880 461.3150 184.1550 C457.5800 183.9003 453.7925 184.0247 450.0500 184.0270 L432.3425 184.0310 L375.6650 184.0320 L344.2175 184.0225 C339.6000 184.0197 332.6100 183.4750 328.2675 184.3952 C328.7300 182.5658 330.0825 180.4520 330.9000 178.7235 C332.4450 175.4523 333.9650 172.0733 335.1525 168.6545 C335.7225 167.0168 336.6700 162.0553 337.6725 161.0135 Z"></path>
<path id="" fill="#8798a5" fill-opacity="1.0" stroke="#000000" stroke-width="0.0" stroke-opacity="1.0" stroke-linecap="round" stroke-linejoin="round"  filling="0" d="M334.8575 81.9845 C360.7900 81.6817 386.7500 81.9530 412.6875 81.9507 L441.8175 81.9325 C445.7075 81.8932 449.6175 81.4645 453.4975 81.5330 C456.0575 81.5785 458.6100 81.8685 461.1700 81.9603 C460.9475 89.3900 460.7475 97.0950 461.1450 104.5115 L379.8900 104.7425 L357.4500 104.7363 C352.0925 104.7325 346.6100 104.8285 341.2675 104.4702 C340.3000 103.0335 340.0200 98.1600 339.5425 96.2180 C338.3500 91.3853 336.6075 86.6378 334.8575 81.9845 Z"></path>
<path id="" fill="#8798a5" fill-opacity="1.0" stroke="#000000" stroke-width="0.0" stroke-opacity="1.0" stroke-linecap="round" stroke-linejoin="round"  filling="0" d="M312.7050 241.2242 C317.2775 240.7930 321.9700 240.9715 326.5650 240.9563 L350.5425 240.9397 L423.5975 240.9525 L447.5050 240.9492 C452.0300 240.9445 456.6250 241.0840 461.1425 240.8378 C461.0175 244.9020 461.7625 260.2875 460.6475 263.0725 C459.7800 263.8150 458.8525 263.8175 457.7575 263.8800 C454.2350 264.0875 450.6350 263.9275 447.1050 263.9125 L429.0875 263.8925 L369.8500 263.8950 C368.5275 263.8925 359.9525 263.7475 359.6375 264.1725 C359.5250 264.3225 359.5875 264.5425 359.5650 264.7275 C359.0125 264.7925 358.7250 264.2250 358.4350 263.8225 C354.4250 258.2825 349.5900 253.7000 343.7500 250.1025 C338.2600 246.7218 328.7300 242.9073 322.1975 242.6675 C319.8825 242.5825 314.8125 243.2193 312.9375 242.4025 C312.6475 241.8700 312.6400 241.8268 312.7050 241.2242 Z"></path>
<path id="" fill="#8899a6" fill-opacity="1.0" stroke="#000000" stroke-width="0.0" stroke-opacity="1.0" stroke-linecap="round" stroke-linejoin="round"  filling="0" d="M345.4425 401.0875 C354.6375 400.4500 364.1525 400.9400 373.3850 400.9450 L430.8850 400.9525 C440.9050 400.9500 451.1475 401.3850 461.1425 400.8375 C460.9775 407.0975 460.6375 417.1025 461.3175 423.1525 C455.8200 422.7750 450.1675 423.0225 444.6500 423.0250 L415.5525 423.0275 L371.7175 423.0300 C362.5825 423.0275 353.4325 422.9050 344.3025 423.1575 C344.6850 419.1575 345.5175 415.4800 345.4875 411.3950 C345.4675 408.6700 344.6950 403.4800 344.8850 401.3450 L345.4425 401.0875 Z"></path>
<path id="" fill="#8798a5" fill-opacity="1.0" stroke="#000000" stroke-width="0.0" stroke-opacity="1.0" stroke-linecap="round" stroke-linejoin="round"  filling="0" d="M369.7100 320.9100 L429.0275 320.9525 L449.4775 320.9475 C453.3325 320.9475 457.3025 321.1100 461.1425 320.8375 C461.0600 325.1850 461.0400 329.5350 461.0825 333.8850 C461.0900 336.9525 460.9400 340.1050 461.3175 343.1550 C454.7525 342.7125 447.9850 343.0275 441.3975 343.0275 L403.7275 343.0300 L374.5000 343.0175 C369.9075 343.0175 364.9375 342.6425 360.3925 343.1025 C359.4500 343.1975 358.6075 343.7900 357.9150 344.3950 C356.5650 345.5725 355.4625 347.0100 354.1000 348.1725 C354.4150 346.5525 359.2575 342.1325 360.4275 340.4450 C363.1300 336.4625 365.4175 332.2100 367.2475 327.7600 C367.9975 325.9025 368.4475 322.3475 369.7100 320.9100 Z"></path>
</svg>