<svg xmlns="http://www.w3.org/2000/svg" viewBox="0 0 512 512" height="512.0px" width="512.0px">
<path id="" fill="#feab33" fill-opacity="1.0" stroke="#000000" stroke-width="0.0" stroke-opacity="1.0" stroke-linecap="round" stroke-linejoin="round"  filling="0" d="M235.8045 83.1103 C241.5672 82.7263 247.5190 82.9985 253.3050 82.9945 C275.9075 82.7552 298.4875 84.4525 320.7975 88.0673 C361.9400 95.0130 420.4675 114.4788 445.4050 149.8370 C451.9300 159.0918 456.0300 168.8845 457.9150 180.0595 C459.2050 187.7210 458.9850 195.3150 458.9875 203.0480 C458.9875 212.9438 458.8575 222.8638 459.0200 232.7563 C459.1225 238.9572 459.8500 245.1435 459.9600 251.3550 C460.1475 261.7950 459.7100 272.2775 460.0600 282.7075 C460.2125 287.2175 460.6725 291.7175 460.8325 296.2275 C461.2150 307.5300 461.0700 318.8425 460.3950 330.1300 C460.0925 334.8225 459.9600 339.4475 459.1325 344.0900 C454.9050 367.7925 440.6900 382.7825 421.4350 396.0350 C400.7750 410.2550 373.7425 421.1625 349.6025 427.5775 C343.7625 429.1300 335.4525 431.4975 329.5275 430.2725 C325.8425 429.5100 321.2450 427.3975 318.4875 424.8525 C314.6875 421.3500 311.8225 416.6050 308.9600 412.3325 C305.1325 406.6200 301.4350 400.8375 297.7000 395.0650 C295.6500 391.9000 293.4150 388.8625 291.3225 385.7275 L280.1825 368.7325 C275.9850 362.2225 271.6075 355.8200 267.3250 349.3650 C263.4700 343.5550 259.7575 337.6050 255.4100 332.1475 C252.7875 333.4800 249.6638 334.2600 246.8865 335.2875 L228.2433 342.2150 L136.3040 375.9425 L110.9575 385.2800 C106.8530 386.7875 97.8248 390.7600 93.9942 390.9250 C88.2487 391.1700 82.0413 386.2400 78.0392 382.6050 C57.9175 364.3225 53.4210 349.1400 52.1447 322.7850 C51.8802 317.3200 51.9825 311.8000 51.9782 306.3300 L51.9720 280.5325 C51.9740 259.7375 51.7097 238.8797 52.2428 218.0927 C52.3345 214.5110 52.7135 210.9388 52.8505 207.3593 C52.9967 203.5312 52.6235 199.6430 52.4985 195.8132 C52.2655 188.6797 52.7915 181.3277 54.5615 174.3960 C58.1140 160.4852 65.2870 150.1192 74.8528 139.6743 C78.8210 135.3410 83.7595 131.6992 88.4243 128.1540 C125.4333 100.0260 180.3033 87.1862 226.0210 83.9012 C229.2892 83.6665 232.5267 83.2565 235.8045 83.1103 Z"></path>
<path id="" fill="#f4900c" fill-opacity="1.0" stroke="#000000" stroke-width="0.0" stroke-opacity="1.0" stroke-linecap="round" stroke-linejoin="round"  filling="0" d="M227.8553 84.1035 C231.3907 83.8885 235.0555 83.7943 238.5912 84.0397 C240.8578 84.1973 243.1305 84.6357 245.4012 84.6675 C247.3950 84.6953 249.3873 84.3668 251.3825 84.3565 C254.6950 84.3398 258.0250 84.9015 261.3550 84.9453 C268.3200 85.0367 275.4375 84.5805 282.3750 85.0673 C284.6450 85.2265 291.0900 85.5205 292.5525 87.3473 C293.0200 87.9297 295.7375 87.3477 296.4700 87.2505 C302.1725 86.4937 306.9075 88.1328 312.5025 88.6803 C314.0400 88.8310 315.5800 88.1805 317.1400 88.3343 C322.7825 88.8905 328.3025 90.2230 333.8050 91.5375 C334.5225 92.7462 335.1100 93.8580 335.5750 95.1920 C341.1000 94.1842 346.3725 94.1665 351.8800 95.4628 C354.9025 96.1743 357.7825 97.5615 360.7675 98.4333 C363.3075 99.1747 365.9125 99.7357 368.4250 100.5590 C370.9200 101.3765 373.3150 102.4900 375.7950 103.3520 C380.9975 105.1600 386.0325 106.8280 391.0750 109.0865 C394.1700 110.4738 397.1225 112.1635 400.1250 113.7428 C404.0600 115.8140 408.0625 117.8177 411.8175 120.2090 C414.3600 121.8307 416.7025 123.7865 419.1375 125.5700 C429.2250 132.9640 439.1475 140.8155 445.7725 151.6590 C447.4350 154.3835 448.7075 157.3385 450.1725 160.1718 C453.7250 167.0473 456.9500 173.7287 457.7875 181.5587 C458.1475 184.9460 458.0900 188.4660 458.2050 191.8777 C458.3675 196.6305 458.4900 201.8452 457.3625 206.4915 C453.1925 210.7652 451.1050 217.5553 448.1525 222.7255 C441.9250 233.6322 429.8775 244.4568 419.9150 251.9400 C417.1550 254.0125 414.0550 255.7175 411.1325 257.5525 C388.7050 271.6350 363.7275 280.8200 338.0050 286.8075 C334.5550 287.6100 327.5275 289.8025 324.2100 289.1675 C323.0150 288.9375 322.0425 287.4675 321.3400 286.5525 C315.5250 278.9725 310.6825 270.5150 305.4500 262.5225 C302.5925 258.1600 299.3700 254.0175 296.4500 249.6920 C291.5250 242.4045 286.8325 234.9462 281.9225 227.6402 C278.0025 221.0500 273.1650 214.6460 268.8550 208.2890 C266.8875 205.3850 264.9075 202.4620 263.0200 199.5060 C260.6775 195.8387 258.6200 191.8002 255.2650 188.9430 C250.1425 188.9560 243.2272 193.0000 238.0905 194.8200 C230.1167 197.6452 222.2968 200.7560 214.3750 203.7012 L183.4527 215.0242 C179.9420 216.3205 176.1090 216.6557 172.6830 217.9902 C170.1255 218.9865 167.7552 220.5202 165.2265 221.6085 C159.9545 223.8772 154.4252 225.8090 149.0280 227.7700 C145.5445 229.0355 141.9585 230.3355 138.3670 231.2552 C135.2820 232.0453 132.0390 232.4473 129.0513 233.5680 C124.5157 235.2690 120.3275 237.8265 115.8795 239.7475 C112.4800 241.2157 90.2093 249.4270 87.8490 249.2198 C85.4887 249.0125 82.9875 245.5100 81.3720 243.9490 C77.7393 240.4385 74.0822 238.0685 70.8715 233.9920 C67.1210 229.2303 63.7025 224.0067 60.6288 218.7880 C59.2807 216.4990 57.1220 211.5683 55.5325 209.8562 C54.9565 209.2357 53.4893 208.8203 52.6987 208.5067 C52.1440 206.6152 52.9640 203.6780 52.9147 201.6115 C52.8520 198.9792 52.3833 196.3553 52.2552 193.7222 C52.0983 190.4940 52.2767 187.2160 52.3600 183.9857 C54.2455 183.9032 56.1362 183.7695 58.0170 183.9815 C57.9258 182.4232 57.9652 180.8463 57.9635 179.2850 C56.5443 179.2380 55.1342 179.1180 53.7195 178.9985 C54.1833 167.7320 62.6407 153.3717 69.7278 144.9505 C72.2205 141.9888 75.1523 139.2847 77.9193 136.5775 C97.6580 117.2630 130.1940 103.4583 156.5290 96.0527 C159.7363 95.1510 163.0405 94.5403 166.2818 93.7615 C171.5140 92.5048 176.8565 90.9630 182.1832 90.2380 C184.4645 89.9272 186.6000 90.9635 188.7888 90.7513 C189.7420 90.6590 189.8598 89.3112 190.4655 88.6592 C192.3848 86.5938 223.3605 84.5067 227.8553 84.1035 Z M453.6975 179.5867 C452.9400 178.4917 451.9875 176.7240 450.6400 176.3140 C450.2350 176.1908 449.7575 176.2100 449.3400 176.2035 C449.0000 179.0567 449.9425 186.0748 451.2375 188.6322 C452.0400 189.1365 453.0775 189.0065 454.0125 188.9892 C453.9525 185.8578 453.8850 182.7137 453.6975 179.5867 Z M353.6600 274.7725 C353.4550 275.6950 353.1125 276.6725 353.3900 277.6025 C354.0925 278.1150 354.4825 278.0550 355.3325 277.9275 C355.8075 277.8575 356.2850 277.7650 356.7575 277.6775 C357.9075 277.4500 358.9725 277.1450 360.0775 276.7550 C360.0050 275.2125 360.3200 272.1425 359.2825 270.9500 C358.6075 270.1750 357.6300 270.3000 356.7125 270.3400 C356.2375 272.1975 355.0575 273.5175 353.6600 274.7725 Z"></path>
<path id="" fill="rgb(215,122,23)" fill-opacity="1.0" stroke="#000000" stroke-width="0.0" stroke-opacity="1.0" stroke-linecap="round" stroke-linejoin="round"  filling="0" d="M75.6783 163.8418 C76.3683 163.8760 76.8640 163.9673 77.5193 164.1860 C78.2298 165.1015 77.6685 166.2155 77.3095 167.2173 C76.0335 170.7782 76.3235 173.9877 75.9525 177.6812 C74.9742 178.7177 74.0910 179.9435 72.5623 180.0157 L69.8223 180.0267 C69.4297 178.4255 74.6217 166.2397 75.6783 163.8418 Z"></path>
<path id="" fill="rgb(215,122,23)" fill-opacity="1.0" stroke="#000000" stroke-width="0.0" stroke-opacity="1.0" stroke-linecap="round" stroke-linejoin="round"  filling="0" d="M69.2595 180.6110 C70.1577 180.8945 71.1180 180.8685 71.8972 181.4433 C72.0455 183.6548 72.1248 185.8855 72.3873 188.0862 C72.7085 190.7810 73.2762 193.5372 73.2855 196.2522 C71.8825 196.0892 70.4180 196.2235 69.0072 196.2665 C68.9140 191.0270 68.9037 185.8412 69.2595 180.6110 Z"></path>
<path id="" fill="rgb(215,122,23)" fill-opacity="1.0" stroke="#000000" stroke-width="0.0" stroke-opacity="1.0" stroke-linecap="round" stroke-linejoin="round"  filling="0" d="M276.6625 212.0630 C279.1750 211.8995 281.7000 211.9400 284.2175 211.9355 L284.2525 216.1665 C282.9725 216.0428 281.7200 216.0697 280.4375 216.1060 C278.7800 216.2312 277.1050 216.8508 275.4825 216.8757 C274.6975 216.8880 273.8825 216.7422 273.3500 216.1062 C272.7800 215.4235 272.7925 214.6280 272.8775 213.8045 C273.6775 212.5270 275.3000 212.3780 276.6625 212.0630 Z"></path>
<path id="" fill="rgb(215,122,23)" fill-opacity="1.0" stroke="#000000" stroke-width="0.0" stroke-opacity="1.0" stroke-linecap="round" stroke-linejoin="round"  filling="0" d="M309.9725 267.9825 C310.8750 267.9500 311.8850 267.8900 312.7750 268.0350 C313.4575 268.1450 313.6975 268.4025 314.0875 268.9325 C314.1425 269.6675 314.0350 270.1375 313.8425 270.8350 L312.1200 270.9975 C311.3850 271.0725 310.9525 271.2050 310.2825 270.7925 C309.7875 269.9600 309.9500 268.9225 309.9725 267.9825 Z"></path>
<path id="" fill="#662112" fill-opacity="1.0" stroke="#000000" stroke-width="0.0" stroke-opacity="1.0" stroke-linecap="round" stroke-linejoin="round"  filling="0" d="M160.7780 93.8288 C167.2860 91.6115 174.3190 90.3087 181.0380 88.8670 C198.5115 85.1180 215.9315 82.9950 233.7478 81.8702 C237.3095 81.6452 240.8463 81.2250 244.4165 81.1022 C266.9975 80.3260 289.6525 82.2533 311.9725 85.5485 C319.8350 86.7057 327.6525 88.1562 335.4075 89.8975 C339.5075 90.7895 343.6750 91.6022 347.6800 92.8650 L356.1150 95.1888 C359.2950 96.3275 362.6000 97.1090 365.7900 98.2437 C370.5500 99.9382 375.1675 102.0015 379.8500 103.9008 C382.9925 105.1760 386.4750 106.2495 389.2900 108.1783 C390.5100 109.0132 391.4325 110.1438 392.3875 111.2542 C393.9225 112.3320 395.4950 113.1277 397.1900 113.9200 C399.3800 113.9660 402.2325 113.6673 403.9025 115.3477 C404.4525 115.9008 404.8000 116.6690 405.1525 117.3557 C405.2125 118.2015 405.0875 119.2995 405.7025 119.9308 C407.1225 121.3870 409.3525 122.5345 411.0150 123.7607 C414.2125 126.1210 417.3650 128.6223 420.4275 131.1540 C423.9025 134.0247 426.7175 137.2323 429.5950 140.6800 C437.6900 150.3817 444.6050 161.3925 445.9075 174.2535 C446.3500 178.6237 446.5475 188.0925 445.9150 192.3427 C444.2425 203.5465 437.4400 215.8647 430.3250 224.5465 C425.3850 230.5735 421.0850 234.3082 415.0400 239.1678 C392.4700 257.3050 365.1075 267.9550 337.2225 274.8625 C331.6525 276.2425 323.3675 278.5500 317.9150 279.1175 C317.0575 279.2075 315.8175 279.3000 315.1300 278.6925 C313.2875 277.0675 306.7400 266.4500 304.7075 263.4700 C294.3675 248.2885 284.2050 232.9857 274.2225 217.5655 L264.4550 202.8257 C261.4475 198.2640 258.6325 193.7715 255.2350 189.4742 C245.0345 192.8618 235.0103 196.9073 224.9117 200.5865 L150.5030 228.0067 L126.9258 236.4837 C120.3080 238.9308 113.7038 241.7182 106.9065 243.6212 C105.3983 244.0432 103.3387 244.7702 101.8765 243.9857 C99.5072 242.7145 97.5810 240.2697 95.5320 238.5172 C83.0270 227.8223 70.5975 213.9382 66.1728 197.6695 C61.8420 181.7453 64.5905 166.7580 72.7835 152.5742 C79.2182 141.4348 88.5957 132.0515 99.0017 124.5565 C98.8167 123.4485 98.5170 121.4893 99.2247 120.5202 C100.5210 118.7458 103.8712 117.3077 105.7883 116.2263 C120.6817 107.8290 136.4388 101.0650 152.7850 96.0520 C154.1772 95.5765 155.6203 95.1988 157.0325 94.7832 L160.7780 93.8288 Z"></path>
<path id="" fill="#f18f0e" fill-opacity="1.0" stroke="#000000" stroke-width="0.0" stroke-opacity="1.0" stroke-linecap="round" stroke-linejoin="round"  filling="0" d="M99.0017 124.5565 C98.8167 123.4485 98.5170 121.4893 99.2247 120.5202 C100.5210 118.7458 103.8712 117.3077 105.7883 116.2263 C120.6817 107.8290 136.4388 101.0650 152.7850 96.0520 C153.0607 96.8037 152.8935 97.4520 152.7682 98.2152 C142.0390 101.6200 131.5885 106.1710 121.4912 111.1162 C118.6355 112.5150 115.7120 113.8015 112.9482 115.3785 C109.8855 117.1260 106.9295 119.0930 104.0380 121.1090 C102.4488 122.2170 100.7380 123.7305 99.0017 124.5565 Z"></path>
<path id="" fill="#934103" fill-opacity="1.0" stroke="#000000" stroke-width="0.0" stroke-opacity="1.0" stroke-linecap="round" stroke-linejoin="round"  filling="0" d="M354.3175 96.6152 C353.8925 96.2590 353.5650 95.9850 353.2875 95.5002 L353.5375 95.2125 C354.4025 95.2422 355.2500 95.2240 356.1150 95.1888 C359.2950 96.3275 362.6000 97.1090 365.7900 98.2437 C370.5500 99.9382 375.1675 102.0015 379.8500 103.9008 C382.9925 105.1760 386.4750 106.2495 389.2900 108.1783 C390.5100 109.0132 391.4325 110.1438 392.3875 111.2542 L392.1850 111.6747 C390.9775 111.7428 384.5175 108.6747 383.3300 107.7582 C385.1875 107.7595 388.2150 109.8285 389.8450 109.3387 C388.1500 107.1635 375.2750 102.5522 371.9975 101.1862 C371.6650 101.6655 371.8825 101.5358 371.3900 101.6458 L370.1450 100.3242 L369.6625 100.4287 L369.3925 100.1407 L368.9850 100.7420 L368.5225 100.8307 C367.8475 100.4760 367.3200 100.2032 366.5450 100.1143 L366.2725 100.4102 C367.8325 100.7790 368.9200 101.7480 370.3425 102.3897 C371.1925 102.7730 372.1650 102.8575 373.0450 103.2643 C375.1400 104.2322 388.0075 111.2370 389.2250 112.3737 C388.4500 112.3515 380.4275 107.7550 379.1375 107.0488 C371.2125 102.7905 362.9025 99.2970 354.3175 96.6152 Z"></path>
<path id="" fill="#f3900d" fill-opacity="1.0" stroke="#000000" stroke-width="0.0" stroke-opacity="1.0" stroke-linecap="round" stroke-linejoin="round"  filling="0" d="M397.1900 113.9200 C399.3800 113.9660 402.2325 113.6673 403.9025 115.3477 C404.4525 115.9008 404.8000 116.6690 405.1525 117.3557 L404.9500 119.3138 L404.5400 119.3145 C402.7700 118.3893 398.0150 115.6462 397.1900 113.9200 Z"></path>
<path id="" fill="#954204" fill-opacity="1.0" stroke="#000000" stroke-width="0.0" stroke-opacity="1.0" stroke-linecap="round" stroke-linejoin="round"  filling="0" d="M347.6800 92.8650 L356.1150 95.1888 C355.2500 95.2240 354.4025 95.2422 353.5375 95.2125 L353.2875 95.5002 C353.5650 95.9850 353.8925 96.2590 354.3175 96.6152 C351.9475 95.8207 349.3150 95.0745 347.1125 93.9062 C347.7550 93.8185 348.3050 94.0242 348.9150 94.1990 L349.0300 94.0545 L347.4550 93.1302 L347.6800 92.8650 Z"></path>
<path id="" fill="#ef9118" fill-opacity="1.0" stroke="#000000" stroke-width="0.0" stroke-opacity="1.0" stroke-linecap="round" stroke-linejoin="round"  filling="0" d="M152.7850 96.0520 C154.1772 95.5765 155.6203 95.1988 157.0325 94.7832 C157.3200 95.6403 157.1837 95.9950 157.0235 96.8700 C155.5748 97.2200 154.1767 97.7312 152.7682 98.2152 C152.8935 97.4520 153.0607 96.8037 152.7850 96.0520 Z"></path>
<path id="" fill="#823508" fill-opacity="1.0" stroke="#000000" stroke-width="0.0" stroke-opacity="1.0" stroke-linecap="round" stroke-linejoin="round"  filling="0" d="M157.0325 94.7832 L160.7780 93.8288 C161.1163 94.3188 161.1060 94.2895 161.0233 94.8798 C160.1908 95.9048 158.2677 96.3890 157.0235 96.8700 C157.1837 95.9950 157.3200 95.6403 157.0325 94.7832 Z"></path>
<path id="" fill="#662113" fill-opacity="1.0" stroke="#000000" stroke-width="0.0" stroke-opacity="1.0" stroke-linecap="round" stroke-linejoin="round"  filling="0" d="M254.9875 206.7578 C255.1925 206.8237 255.2875 206.8407 255.4800 206.9835 C256.6600 207.8665 257.8225 210.0750 258.6450 211.3548 C272.4925 232.8920 285.8050 254.8225 299.3850 276.5325 L311.8575 296.4975 C314.4600 300.6300 317.5625 304.9000 319.5675 309.3550 C322.9650 316.9000 323.6375 325.7425 324.3700 333.8975 C325.8375 350.2425 324.9625 367.2550 324.2025 383.6250 C323.9825 388.3650 323.9125 404.0450 320.8675 407.2300 C320.4625 407.6550 320.1725 407.7825 319.6000 407.8325 C317.7450 406.9775 316.0250 404.6700 314.8125 403.0675 C312.6350 400.1900 310.7250 397.0875 308.6650 394.1225 C301.5950 383.9475 294.8075 373.6025 287.8200 363.3725 C280.4650 352.7525 273.2400 342.0425 266.1500 331.2475 C262.5000 325.7675 258.5225 320.3275 255.2625 314.6125 C249.4780 317.0575 243.4820 319.0475 237.5827 321.1950 C229.4357 324.2450 221.2708 327.2475 213.0887 330.2000 C212.9698 330.2575 212.8525 330.3175 212.7315 330.3700 C207.5047 332.6425 201.8800 334.3425 196.5287 336.3200 C185.2677 340.4775 174.0293 344.6975 162.8143 348.9775 C151.6490 353.1850 140.5148 357.4750 129.4122 361.8450 C121.8955 364.8675 114.4807 368.3175 106.8385 371.0050 C105.2943 371.5500 103.0577 372.3775 101.4662 371.6900 C99.1543 370.6925 97.5825 367.9975 96.7435 365.7275 C93.0818 355.8250 93.3885 337.1900 92.9147 326.3725 C92.3385 313.2100 91.3275 299.4450 92.3188 286.2975 C92.7563 280.4925 93.5985 274.0050 96.0988 268.7100 C96.9690 266.8675 98.0543 265.0725 99.9070 264.0800 C103.3733 262.2200 107.7790 261.1575 111.5017 259.7750 L142.8692 248.2767 C180.1562 234.2060 217.5300 220.3660 254.9875 206.7578 Z M254.6925 305.8475 C254.7750 305.8625 254.8575 305.8775 254.9400 305.8925 C258.6450 306.6475 261.7600 311.4375 264.5975 313.8275 C268.4550 317.0800 275.7375 320.9175 280.5100 317.7000 C285.8100 314.1275 287.9575 306.9075 288.9750 300.9600 C292.7150 279.0775 281.8475 258.6350 269.5050 241.3913 C267.7350 238.9180 258.2750 227.0827 256.5650 226.2558 C239.6150 231.5490 224.3410 240.0050 215.7865 256.2850 C210.8460 265.6900 209.0555 281.5050 212.2117 291.7400 C214.1543 298.0400 217.5592 302.8200 223.4283 305.8800 C230.8808 309.7675 238.8870 309.0025 246.8310 307.3325 C249.4280 306.7850 252.0400 306.0400 254.6925 305.8475 Z"></path>
<path id="" fill="#f4900c" fill-opacity="1.0" stroke="#000000" stroke-width="0.0" stroke-opacity="1.0" stroke-linecap="round" stroke-linejoin="round"  filling="0" d="M254.2425 254.8325 C255.2825 254.7575 256.0850 254.9725 256.9475 255.5375 C262.6175 259.2550 269.2025 270.1350 270.5725 276.7375 C271.6325 281.8525 271.8925 288.9525 268.7575 293.4625 C267.9625 294.6075 266.3700 296.0850 264.8825 296.1250 C262.2225 296.1975 258.4050 292.9425 256.4700 291.3100 C255.5675 291.0000 254.5450 291.0500 253.6000 291.0375 C248.9077 290.9700 243.6640 292.1850 239.6465 289.1700 C236.8568 287.0775 235.4100 284.2600 234.9840 280.8350 C234.1935 274.4800 235.0660 268.6325 239.0860 263.5125 C242.7923 258.7300 248.2415 255.6075 254.2425 254.8325 Z"></path>
<path id="" fill="#984400" fill-opacity="1.0" stroke="#000000" stroke-width="0.0" stroke-opacity="1.0" stroke-linecap="round" stroke-linejoin="round"  filling="0" d="M243.2015 93.8250 C244.6485 93.8480 246.0043 94.0020 247.3418 94.5940 C249.3290 95.4738 251.1625 97.0345 251.9275 99.1183 C252.7500 101.3582 252.5025 104.1208 251.4950 106.2613 C250.4325 108.5202 248.4498 110.2565 246.5298 111.7872 C238.8315 117.9245 229.7800 120.6610 220.6365 123.8033 C218.7335 129.2682 217.4738 135.0643 215.9223 140.6465 C214.5325 145.6465 212.7475 150.6845 211.8095 155.7875 C214.5570 155.9155 217.2567 156.4085 219.9922 156.6425 C224.5302 157.0310 235.5760 156.7925 239.1873 159.6487 C241.0275 161.1042 242.0677 163.4622 242.2790 165.7643 C242.4747 167.8990 241.9823 170.0562 240.5408 171.6880 C236.0352 176.7885 228.9690 174.6837 223.1628 174.2422 C220.6483 174.0510 218.1232 174.1585 215.6065 174.2500 C218.0500 182.8452 224.6250 189.9173 227.5282 198.3802 C223.9085 200.4588 220.2790 201.6678 216.3775 203.0340 C215.2708 203.4215 214.1223 204.0895 212.9635 204.2565 C209.8307 204.7080 206.3860 193.0392 203.9660 191.0140 C203.1980 190.8090 203.0175 190.8613 202.2372 191.0575 C200.5233 193.1958 197.5672 206.2003 196.7318 209.6828 C193.8268 211.2405 180.8175 216.7962 178.2988 216.1755 C175.8035 213.1620 183.3748 198.2535 181.8290 194.2778 C181.6775 193.8878 181.4653 193.8997 181.1147 193.7410 C180.4795 193.8445 180.0175 194.0632 179.4953 194.4275 C178.0275 195.4505 176.6945 196.7695 175.2905 197.8943 L164.7475 206.3225 C160.4390 209.4292 151.7818 217.6235 147.3455 218.9365 C145.3067 219.5397 142.9677 219.5110 141.0710 218.4705 C138.0623 216.8197 136.7722 213.6790 135.8783 210.5590 C136.3147 208.9260 136.6740 207.2063 137.7425 205.8492 C140.1640 202.7733 149.8985 195.8033 153.4998 193.0293 C161.3745 186.9635 169.2975 180.7900 176.9980 174.5040 C177.9973 173.6885 180.1015 172.2060 180.2430 170.8573 C178.8783 169.9037 170.2725 170.1783 166.9825 168.7688 C164.9130 167.8822 163.3212 166.3760 162.4960 164.2663 C161.6662 162.1450 161.3495 159.4953 162.3225 157.3660 C163.4162 154.9727 166.6195 152.9140 169.1613 152.4855 C172.9902 151.8395 183.7092 153.6010 188.2320 153.9438 C190.0485 154.0815 191.9292 154.4000 193.6687 153.7328 C195.0332 152.3983 199.8100 134.2035 200.5493 130.8132 C200.8793 129.2990 201.0508 127.7700 201.1870 126.2280 C196.7485 126.0890 192.3075 126.0553 187.8675 126.1267 C185.0245 126.1520 182.0228 126.3690 179.2000 126.0237 C177.9745 125.8737 176.7870 125.5432 175.7057 124.9382 C172.7612 123.2907 171.7685 120.6340 170.8780 117.5785 C171.9090 113.6735 173.4610 111.3185 176.7800 109.0295 C183.7460 108.5707 190.8712 109.0277 197.8613 108.9370 C207.8022 108.8077 218.4402 106.8943 227.6640 103.0685 C233.0358 100.8408 238.3463 94.7787 243.2015 93.8250 Z"></path>
<path id="" fill="#984400" fill-opacity="1.0" stroke="#000000" stroke-width="0.0" stroke-opacity="1.0" stroke-linecap="round" stroke-linejoin="round"  filling="0" d="M319.2500 100.0160 C319.7100 100.0742 320.1700 100.1418 320.6225 100.2487 C323.3025 100.8832 325.6325 102.3637 327.0300 104.7928 C327.8375 106.1957 328.1625 107.7278 328.2050 109.3340 C328.2675 111.6198 327.7750 113.9970 327.5375 116.2753 C326.1750 129.4270 323.7550 143.3253 320.3550 156.0965 C319.3100 160.0255 318.2525 163.9765 317.0075 167.8477 C315.7350 171.8098 314.2400 175.7227 313.1775 179.7473 C314.7375 184.7480 315.0825 190.0293 316.0275 195.1590 C317.8375 204.9900 320.4100 214.4218 324.1575 223.6940 C325.8575 227.9025 328.3625 232.1992 331.0725 235.8383 C334.8525 240.9162 337.3150 242.0145 339.2175 248.6360 C338.0100 251.8125 336.7650 254.3675 333.5625 255.9825 C331.6775 256.9350 329.7975 257.2650 327.7750 256.5525 C321.1175 254.2150 313.8800 241.8692 310.8125 235.8365 C307.8350 229.8700 305.6150 223.7235 303.5350 217.3995 C302.9975 215.7645 301.8450 210.9620 300.8500 209.9255 C300.6175 209.6837 300.2800 209.6460 299.9575 209.6897 C297.5400 210.0170 294.3600 216.2437 293.0175 218.1703 C291.6375 220.1535 285.4400 229.1588 283.4800 229.4962 C281.6125 228.4048 275.5425 219.0067 274.8800 216.6515 C274.8200 216.4425 274.7700 216.2072 274.7450 215.9905 C274.4825 213.4850 277.6850 209.7120 279.0200 207.7635 C286.5725 196.7377 292.3250 184.9090 296.9050 172.3647 C301.8800 158.5220 305.6375 144.2717 308.1350 129.7758 C308.9750 124.6500 310.4850 107.3148 312.2475 104.4043 C313.8375 101.7802 316.4275 100.7405 319.2500 100.0160 Z"></path>
<path id="" fill="#984400" fill-opacity="1.0" stroke="#000000" stroke-width="0.0" stroke-opacity="1.0" stroke-linecap="round" stroke-linejoin="round"  filling="0" d="M370.0825 110.8450 C371.5625 110.8225 373.0025 110.9395 374.4175 111.3952 C379.8075 113.1335 390.2375 120.1187 395.0025 123.4218 C410.1825 133.9478 425.2550 149.2320 428.6025 168.1030 C430.9825 181.5200 426.0150 194.7323 418.4200 205.6060 C407.1000 221.8145 388.5650 232.6008 370.5300 239.9442 C366.5900 241.5477 362.5150 243.4565 358.3125 244.2075 C357.1400 244.1918 355.8325 244.1215 354.7525 243.6270 C353.4425 243.0280 352.4675 241.7872 352.0525 240.4255 C351.6450 239.0923 351.7025 237.6382 352.3125 236.3752 C353.0350 234.8770 354.3100 234.0027 355.7600 233.2717 C357.7800 232.2522 360.0850 231.6767 362.2275 230.9487 C364.5950 230.1263 366.9275 229.2032 369.2175 228.1817 C385.7625 220.9928 403.6600 210.0488 412.5175 193.7445 C417.3550 184.8390 419.1625 175.4142 416.2425 165.6362 C413.9725 158.0300 407.6150 148.9175 401.7325 143.4792 C399.3325 141.2598 396.6350 139.2668 394.0875 137.2122 C391.7925 135.3582 389.5000 133.3098 387.0400 131.6855 C381.8050 128.2295 376.3350 125.5505 370.8725 122.5320 C368.7325 121.3505 366.5375 119.7935 365.9075 117.2943 C365.5625 115.9350 365.6325 114.0585 366.4575 112.8723 C367.3425 111.5940 368.6050 111.0995 370.0825 110.8450 Z"></path>
<path id="" fill="#984400" fill-opacity="1.0" stroke="#000000" stroke-width="0.0" stroke-opacity="1.0" stroke-linecap="round" stroke-linejoin="round"  filling="0" d="M143.1960 107.9717 C144.1165 107.9075 144.8672 107.9465 145.7457 108.2592 C147.3865 108.8435 148.8500 110.0163 149.5685 111.6277 C150.5318 113.7892 149.7215 115.9317 148.0655 117.4825 C145.0367 120.3188 138.8542 122.7015 135.0378 124.9557 C121.2168 133.1185 102.7997 147.6987 97.2993 163.0975 C92.2527 177.2255 97.2350 189.9848 106.3920 201.0380 C108.2100 203.2328 110.0147 205.5677 112.1062 207.5103 C115.1815 210.3670 120.2982 213.1035 121.9987 217.0190 C122.5200 218.2190 122.4600 219.5117 121.9175 220.6895 C121.0677 222.5343 119.8083 223.3663 117.9860 224.0988 C116.7548 224.3092 115.6330 224.2982 114.4503 223.8365 C111.8900 222.8367 109.9320 220.5445 107.9362 218.7258 C106.1930 217.1370 104.2710 215.7770 102.5908 214.1082 C96.5185 208.0782 90.8647 199.9430 87.5658 192.1017 C82.7487 180.6523 82.6970 168.7137 87.4362 157.1978 C96.0673 136.2255 122.5912 116.6298 143.1960 107.9717 Z"></path>
<path id="" fill="#f4900c" fill-opacity="1.0" stroke="#000000" stroke-width="0.0" stroke-opacity="1.0" stroke-linecap="round" stroke-linejoin="round"  filling="0" d="M355.1900 294.8325 C355.9425 294.8150 356.7625 294.7625 357.5075 294.8950 C358.6925 295.1050 359.6975 295.8150 360.3525 296.8125 C363.3550 301.3675 364.8400 329.6575 365.3075 336.3750 C365.5075 339.2175 365.8850 342.0525 366.0100 344.9000 C366.2125 349.4650 365.9050 354.0525 366.1475 358.6200 C366.3825 363.0475 367.1550 367.4400 367.1200 371.8825 C367.0900 375.8775 366.4100 379.7750 366.1925 383.7500 C365.7825 391.2375 366.0975 396.8775 364.4850 404.4975 C363.5050 409.1250 363.1125 411.1525 359.0175 413.8250 C357.6850 414.2350 356.7675 414.1175 355.5200 413.4625 C354.0600 412.6925 352.6025 411.3675 352.2125 409.7000 C351.8800 408.2900 354.1325 398.3900 354.5000 395.6375 C355.0525 391.4950 354.9350 387.3400 354.9375 383.1725 L354.9350 358.7425 C354.9325 354.0325 355.0775 349.2725 354.8275 344.5700 C354.3075 335.4675 353.5625 326.3825 352.5875 317.3175 C352.0325 312.0925 351.2950 306.8650 350.8675 301.6275 C350.7300 299.9550 350.7075 298.0575 351.7125 296.6275 C352.5475 295.4425 353.8325 295.0725 355.1900 294.8325 Z"></path>
<path id="" fill="#f4900c" fill-opacity="1.0" stroke="#000000" stroke-width="0.0" stroke-opacity="1.0" stroke-linecap="round" stroke-linejoin="round"  filling="0" d="M403.4350 272.7825 C404.6800 272.7950 405.9125 272.9800 407.0850 273.4000 C408.2600 273.8225 409.2325 274.4525 409.7275 275.6375 C412.5225 282.3000 413.7125 306.8875 414.3075 315.3725 C414.5200 318.3900 414.9350 321.4050 415.0350 324.4275 C415.3300 333.2575 415.0575 342.1950 415.0650 351.0375 C415.0725 357.9950 415.4550 365.1950 414.9625 372.1300 C414.6125 377.0625 413.9200 382.7625 412.1475 387.3725 C411.2750 389.6500 409.7175 391.3925 407.4850 392.3950 C406.5325 392.2325 405.6275 391.9775 404.7575 391.5475 C403.2025 390.7775 401.2925 389.1600 401.1100 387.2975 C400.9025 385.1800 402.2225 381.5950 402.5975 379.3525 C403.1900 375.8200 403.7150 372.0700 403.9050 368.4975 C404.2300 362.3750 403.9400 356.0750 403.9400 349.9275 C403.9375 341.4925 404.1825 332.9800 403.8675 324.5525 C403.7500 321.4000 403.3300 318.2675 403.1025 315.1225 C402.6925 309.4600 402.3550 303.8350 401.8325 298.1800 C401.2950 292.3425 400.7775 283.5900 398.8225 278.2275 C398.9075 278.0100 398.9900 277.7900 399.0850 277.5750 C400.0200 275.4450 401.2175 273.6725 403.4350 272.7825 Z"></path>
<path id="" fill="#f4900c" fill-opacity="1.0" stroke="#000000" stroke-width="0.0" stroke-opacity="1.0" stroke-linecap="round" stroke-linejoin="round"  filling="0" d="M71.4940 248.7838 C72.5635 248.7325 73.3873 248.7182 74.3683 249.2072 C76.0205 250.0300 77.5623 251.3600 78.0598 253.2025 C78.2355 253.8525 78.2265 254.5550 78.1695 255.2200 C77.9520 257.7525 77.2712 260.4075 76.9130 262.9450 C76.2182 267.8700 75.7380 272.9050 75.3188 277.8625 C75.0285 281.2925 75.1468 284.7300 74.9745 288.1650 C74.8148 291.3500 74.2617 294.5050 74.1230 297.6975 C73.8705 303.5150 74.0410 309.4025 74.0440 315.2275 C74.0475 321.6300 73.8987 328.0800 74.1107 334.4775 C74.3012 340.2250 74.9218 346.1425 75.4287 351.8850 C75.6030 353.8600 76.1350 355.9350 76.0520 357.9075 C76.0033 359.0650 75.7292 360.2100 75.1380 361.2150 C74.4770 362.3400 73.7730 362.9150 72.5190 363.2550 C70.6280 363.3225 68.8855 363.2575 67.0222 362.9275 C66.7247 362.5150 66.4410 362.1075 66.2045 361.6550 C63.9382 357.3250 64.0902 351.3450 63.7410 346.5775 C63.5088 343.4075 63.0802 340.2375 62.9568 337.0625 C62.6657 329.5775 62.9128 321.9900 62.9193 314.4950 C62.9243 308.7675 62.7773 302.9925 62.9710 297.2675 C63.0843 293.9225 63.6752 290.6175 63.8427 287.2800 C63.9993 284.1600 63.8627 281.0275 64.0388 277.9075 C64.3358 272.6450 65.0123 267.2850 65.6200 262.0525 C65.9590 259.1325 66.1497 255.8725 67.1185 253.0850 C67.8557 250.9625 69.5170 249.6885 71.4940 248.7838 Z"></path>
<path id="" fill="#f4900c" fill-opacity="1.0" stroke="#000000" stroke-width="0.0" stroke-opacity="1.0" stroke-linecap="round" stroke-linejoin="round"  filling="0" d="M442.5475 244.0327 C443.9650 243.8415 445.1675 243.9620 446.4875 244.5508 C447.9775 245.2153 448.9100 246.2630 449.4575 247.7872 C451.5900 253.7050 451.8650 268.8325 452.2600 275.7050 C452.4500 279.0150 452.9375 282.3075 453.0325 285.6250 C453.2425 292.9500 453.0725 300.3250 453.0750 307.6575 C453.0775 314.4875 453.2700 321.3875 453.0400 328.2100 C452.9600 330.6500 452.5725 333.0725 452.3725 335.5050 C451.9750 340.3525 451.8375 351.5475 449.7100 355.5975 C448.9400 357.0700 447.8700 357.7775 446.3250 358.2825 C445.4925 358.3050 444.5475 358.3850 443.7425 358.1775 C442.0525 357.7375 440.2225 356.5250 439.4350 354.9325 C439.1375 354.3300 439.0450 353.7675 439.1000 353.1025 C439.3725 349.7600 440.0200 346.4125 440.4025 343.0775 C441.0100 337.7800 441.3900 332.3700 441.8125 327.0500 C442.2975 320.9525 441.9375 314.5825 441.9400 308.4600 C441.9425 301.4450 442.1200 294.3825 441.8950 287.3750 C441.5450 278.0100 440.8700 268.6575 439.8700 259.3400 C439.4900 255.8525 438.1700 250.5850 439.2575 247.2547 C439.8125 245.5590 441.0475 244.8385 442.5475 244.0327 Z"></path>
<path id="" fill="#984400" fill-opacity="1.0" stroke="#000000" stroke-width="0.0" stroke-opacity="1.0" stroke-linecap="round" stroke-linejoin="round"  filling="0" d="M267.1400 136.9985 C268.8375 136.7935 270.5350 136.8365 272.1250 137.5202 C273.2250 137.9925 274.1950 138.7120 275.0950 139.4928 C277.4750 141.5612 279.5500 144.0262 281.7950 146.2455 C284.7600 149.1767 288.1275 151.9945 290.7725 155.2025 C291.6075 156.2155 292.3175 157.3338 292.7575 158.5762 C293.5050 160.6902 293.4925 163.5473 292.4800 165.5740 C291.3400 167.8517 289.2375 169.1815 286.9100 169.9993 C285.2725 170.3515 283.5600 170.3510 282.0125 169.6425 C280.8425 169.1075 279.8025 168.2993 278.8425 167.4530 C276.5425 165.4263 274.5150 163.0392 272.3350 160.8813 C269.3150 157.8938 265.8725 155.0105 263.1950 151.7318 C262.4150 150.7765 261.7325 149.6975 261.3100 148.5352 C260.5000 146.3098 260.5875 143.5180 261.6300 141.3795 C262.7475 139.0842 264.8125 137.8175 267.1400 136.9985 Z"></path>
<path id="" fill="#984400" fill-opacity="1.0" stroke="#000000" stroke-width="0.0" stroke-opacity="1.0" stroke-linecap="round" stroke-linejoin="round"  filling="0" d="M349.6700 147.8635 C351.6425 147.8295 353.5700 147.8553 355.5275 148.1305 C357.3900 149.5423 359.1675 151.3522 359.9225 153.6172 C360.5925 155.6223 360.3925 157.7318 359.3800 159.5847 C358.5800 161.0460 357.3975 162.2485 356.1150 163.2915 C352.6875 166.0785 348.6275 168.1888 344.8825 170.5282 C342.6525 171.9220 340.5725 173.5900 338.2725 174.8675 C337.3500 175.3800 336.4625 175.7587 335.4425 176.0495 C333.0750 176.4713 330.3975 176.5408 328.3500 175.0835 C326.4250 173.7135 325.0625 170.6035 324.7650 168.3205 C324.5425 166.6135 324.7900 164.6930 325.8750 163.3060 C329.1150 159.1555 334.6300 156.7088 338.9500 153.8740 C341.7325 152.0485 344.5750 149.7940 347.5850 148.3780 C348.2475 148.0663 348.9500 147.9565 349.6700 147.8635 Z"></path>
<path id="" fill="#f3910f" fill-opacity="1.0" stroke="#000000" stroke-width="0.0" stroke-opacity="1.0" stroke-linecap="round" stroke-linejoin="round"  filling="0" d="M122.4110 110.5930 C121.8593 110.8835 121.2343 110.9928 120.6322 111.1480 C120.0457 110.9778 120.0925 111.1152 119.7650 110.5360 C119.7507 109.8760 119.8940 109.4715 120.3135 108.9680 C122.2823 106.6048 127.1783 105.0883 130.1328 104.7545 C130.2117 106.5140 130.2043 108.2827 130.3078 110.0392 C127.6842 110.0350 124.9895 110.0470 122.4110 110.5930 Z"></path>
<path id="" fill="#994501" fill-opacity="1.0" stroke="#000000" stroke-width="0.0" stroke-opacity="1.0" stroke-linecap="round" stroke-linejoin="round"  filling="0" d="M130.1328 104.7545 C130.2117 106.5140 130.2043 108.2827 130.3078 110.0392 C127.6842 110.0350 124.9895 110.0470 122.4110 110.5930 C124.3530 109.0312 126.6888 108.2815 128.7510 106.9270 C129.8273 106.2202 129.8873 105.9780 130.1328 104.7545 Z"></path>
<path id="" fill="#f39212" fill-opacity="1.0" stroke="#000000" stroke-width="0.0" stroke-opacity="1.0" stroke-linecap="round" stroke-linejoin="round"  filling="0" d="M374.2600 101.6785 C376.8675 102.3062 384.8525 105.8365 387.0200 107.3668 C387.3450 108.0307 387.1300 108.3158 386.9500 109.0153 C385.9875 109.0228 384.9375 109.0840 383.9875 108.9358 C381.5975 108.5635 375.5525 105.4605 374.1725 103.5242 C373.9725 102.7405 374.0050 102.4470 374.2600 101.6785 Z"></path>
<path id="" fill="#f4900d" fill-opacity="1.0" stroke="#000000" stroke-width="0.0" stroke-opacity="1.0" stroke-linecap="round" stroke-linejoin="round"  filling="0" d="M390.3175 108.7235 C390.6525 108.7802 390.9825 108.8490 391.3125 108.9290 C392.4950 109.2290 394.6075 110.0235 395.1225 111.2872 C395.4050 111.9820 395.1825 112.3643 394.9425 113.0137 C393.8875 113.0052 392.8200 113.1420 391.7700 113.0935 C390.9775 113.0567 390.4200 112.8445 389.8950 112.2360 C389.5100 111.1310 389.8750 109.7750 390.3175 108.7235 Z"></path>
</svg>