<svg xmlns="http://www.w3.org/2000/svg" viewBox="0 0 512 512" height="512.0px" width="512.0px">
<path id="" fill="#744eaa" fill-opacity="1.0" stroke="#000000" stroke-width="0.0" stroke-opacity="1.0" stroke-linecap="round" stroke-linejoin="round"  filling="0" d="M272.1725 51.1015 C281.8975 50.6480 291.8275 51.0527 301.5750 51.0562 L359.5375 51.0635 L396.9025 51.0462 C405.2375 51.0412 413.7775 50.6135 422.0450 51.7995 C428.6975 52.8200 435.0500 55.2607 440.6750 58.9560 C450.4600 65.3842 457.8375 76.4180 460.1150 87.8905 C461.4325 94.5275 461.0100 101.5665 461.0050 108.3065 L460.9900 134.4557 L460.9850 187.8257 C460.9850 196.4215 461.1950 205.0675 460.9950 213.6568 C460.9725 214.6525 460.9925 216.2395 460.3950 217.0500 C457.4625 221.0225 446.0725 223.0235 441.3075 223.8740 C439.5375 222.5208 437.4925 220.6248 435.3400 219.9883 C432.1250 219.0365 428.5150 222.5132 425.8825 224.0070 C420.1500 222.0213 413.7175 221.2695 407.7975 219.8557 C393.2100 216.3720 376.2675 209.5550 361.2250 212.5618 C358.5275 213.1005 355.9100 213.9305 353.5175 215.2997 C342.1300 221.8165 333.0350 238.3248 325.7925 249.0900 C319.0650 259.0900 311.4450 269.5750 302.6350 277.8075 C285.8000 293.5300 262.8450 301.7000 240.0797 302.7350 C229.2758 303.2275 218.8520 300.9350 208.0652 303.0875 C177.4465 309.1975 164.5143 338.7475 148.7995 362.1200 C144.5632 368.0425 138.4272 372.5725 133.6008 378.0150 C129.9640 382.1175 127.1550 386.9000 123.9025 391.3050 C120.4772 395.9425 116.6065 400.2450 112.7932 404.5675 C108.9680 408.9025 104.6015 412.5350 100.4225 416.4875 C97.2978 419.4400 93.8495 423.2525 91.0788 426.5200 C86.7993 431.5675 86.7080 437.4075 81.1190 442.5025 C77.6420 445.6750 73.6780 447.1525 68.9597 446.8675 C64.9532 446.6250 61.9608 444.8200 59.3610 441.8775 C54.9735 436.9100 52.3492 429.9900 51.5432 423.4675 C50.9850 418.9475 51.1440 414.3525 51.1468 409.8075 L51.1460 392.1700 L51.1425 331.2575 L51.1370 239.6107 L51.1290 210.2693 C51.1263 204.4660 50.9360 198.5923 51.2722 192.7988 C51.3557 192.7090 51.4375 192.6175 51.5228 192.5295 C53.7235 190.2578 57.2238 188.5935 60.2137 187.6975 C72.1252 184.1277 85.2022 191.5013 95.2885 197.2832 C101.7485 200.9863 108.5920 205.6427 116.3510 205.3110 C127.8135 204.8205 136.6452 192.7085 143.7007 184.9037 C146.7838 181.4935 150.1687 178.2975 153.4225 175.0450 C156.5155 171.9532 159.5632 168.6365 162.9617 165.8808 C176.5412 154.8685 193.9725 147.4942 211.5520 146.8445 C214.9357 146.7195 218.3692 146.7070 221.7457 146.9730 C226.5360 147.3503 231.3553 148.0915 236.1715 147.7993 C240.2758 147.5500 243.8488 146.2880 246.6210 143.0840 C248.1740 141.2892 249.1848 139.1205 249.6975 136.8130 C251.9250 126.7872 248.3358 108.9040 247.4507 98.2840 C246.3030 84.5082 246.4375 70.6882 255.9375 59.5992 C259.9400 54.9290 266.0350 51.5780 272.1725 51.1015 Z"></path>
<path id="" fill="#292f33" fill-opacity="1.0" stroke="#000000" stroke-width="0.0" stroke-opacity="1.0" stroke-linecap="round" stroke-linejoin="round"  filling="0" d="M141.9710 371.5925 C142.0335 371.6750 142.0948 371.7575 142.1585 371.8375 C146.0000 376.7475 156.4142 385.4300 162.6890 386.0575 C167.0120 386.4925 170.2587 384.5425 173.4153 381.8725 C177.1075 378.7500 179.8115 375.0325 183.1068 371.5725 C192.8130 361.3800 214.5453 339.4525 229.4128 340.7325 C238.4863 341.5150 245.3630 349.8775 250.7475 356.3950 C257.3000 364.3275 265.8600 380.0725 276.8750 381.1525 C282.5925 381.7125 287.9425 378.4725 292.9575 376.1900 C295.8675 374.8750 298.8150 373.6475 301.7950 372.5050 C309.3575 369.6875 317.7075 367.7400 325.8025 368.0025 C337.6600 368.3875 343.6650 373.5025 353.5125 378.7525 C362.2825 383.4275 372.1850 386.7875 382.1725 387.0225 C386.0775 387.1150 390.1850 387.1275 393.8725 385.6750 C395.9925 384.8375 397.8975 383.6075 399.6725 382.1925 C400.0700 381.8750 400.4600 381.5500 400.8450 381.2175 C403.7875 378.6850 406.4800 375.8600 409.4425 373.3500 C415.4175 368.2875 425.0325 361.7975 433.2625 362.3625 C440.3300 362.8450 445.8950 368.0575 451.0625 372.3300 C453.6300 374.4500 456.2125 376.4575 458.4100 378.9875 C459.4225 380.1575 460.2150 381.2900 460.5400 382.8275 C461.3975 386.8975 460.9375 391.8000 460.9450 395.9575 C460.9600 403.3025 461.2125 410.7625 460.6400 418.0825 C459.7650 429.2775 454.5450 441.9075 445.8225 449.2725 C438.7350 455.2600 429.2850 459.3125 420.0875 460.4175 C413.3725 461.2250 406.4400 460.9550 399.6850 460.9450 L371.3700 460.9100 L273.6425 460.8925 L153.3040 460.9150 L115.8242 460.9075 C108.0985 460.9050 100.3293 461.2325 92.6252 460.5225 C82.2028 459.5625 69.9293 454.5250 63.1725 446.2775 C52.2063 432.8925 51.0307 423.8525 51.0063 407.1425 C50.9995 402.5375 50.7372 397.8325 51.2207 393.2550 C51.2880 392.6150 51.4030 391.9900 51.5262 391.3600 C51.6395 390.7800 51.7527 390.3250 51.6665 389.7300 C52.3508 389.2675 63.0960 387.1950 64.3590 387.1975 C66.4648 386.8500 68.3605 386.1000 70.3983 385.5375 C71.7838 385.1550 73.2710 385.0175 74.6800 384.6950 C78.0943 383.9125 81.2820 382.3800 84.3027 380.6400 C96.7220 373.4825 105.4993 360.8400 120.9905 360.8700 C127.0612 360.8800 130.3110 362.0000 135.2182 365.5250 C138.1445 367.6275 138.6557 369.2400 142.6178 369.0950 C143.1573 369.0750 143.1530 368.9175 143.4877 369.3625 C143.2592 370.2625 142.5685 370.9100 141.9710 371.5925 Z"></path>
<path id="" fill="#724da7" fill-opacity="1.0" stroke="#000000" stroke-width="0.0" stroke-opacity="1.0" stroke-linecap="round" stroke-linejoin="round"  filling="0" d="M51.6665 389.7300 C52.3508 389.2675 63.0960 387.1950 64.3590 387.1975 C63.1735 388.5225 54.8717 390.6350 52.9518 390.7225 C52.4417 390.7450 52.4717 390.7650 51.9883 390.5075 L51.6665 389.7300 Z"></path>
<path id="" fill="#cab6e9" fill-opacity="1.0" stroke="#000000" stroke-width="0.0" stroke-opacity="1.0" stroke-linecap="round" stroke-linejoin="round"  filling="0" d="M261.6600 200.4523 C268.5625 199.7085 275.3350 202.7318 279.3900 208.3683 C283.4450 214.0047 284.1575 221.3853 281.2575 227.6945 C278.3575 234.0038 272.2925 238.2682 265.3750 238.8615 C254.8375 239.7648 245.5380 232.0195 244.5200 221.4942 C243.5020 210.9688 251.1450 201.5847 261.6600 200.4523 Z"></path>
<path id="" fill="#cab6e9" fill-opacity="1.0" stroke="#000000" stroke-width="0.0" stroke-opacity="1.0" stroke-linecap="round" stroke-linejoin="round"  filling="0" d="M157.3898 248.1463 C166.6280 246.8745 175.1543 253.3150 176.4568 262.5500 C177.7592 271.7825 171.3470 280.3300 162.1175 281.6650 C152.8445 283.0025 144.2475 276.5550 142.9388 267.2775 C141.6302 258.0000 148.1078 249.4240 157.3898 248.1463 Z"></path>
<path id="" fill="#f4f7f9" fill-opacity="1.0" stroke="#000000" stroke-width="0.0" stroke-opacity="1.0" stroke-linecap="round" stroke-linejoin="round"  filling="0" d="M218.7990 241.6560 C227.2265 240.6070 234.9113 246.5810 235.9735 255.0075 C237.0358 263.4325 231.0740 271.1275 222.6500 272.2025 C214.2072 273.2800 206.4917 267.3025 205.4272 258.8575 C204.3627 250.4125 210.3528 242.7072 218.7990 241.6560 Z"></path>
<path id="" fill="#a98cd7" fill-opacity="1.0" stroke="#000000" stroke-width="0.0" stroke-opacity="1.0" stroke-linecap="round" stroke-linejoin="round"  filling="0" d="M297.5475 97.1988 C305.5875 94.9520 313.9150 99.6868 316.0950 107.7428 C318.2775 115.7990 313.4750 124.0885 305.4000 126.2030 C297.4200 128.2932 289.2475 123.5577 287.0900 115.5948 C284.9350 107.6315 289.6025 99.4197 297.5475 97.1988 Z"></path>
<path id="" fill="#a98cd7" fill-opacity="1.0" stroke="#000000" stroke-width="0.0" stroke-opacity="1.0" stroke-linecap="round" stroke-linejoin="round"  filling="0" d="M119.5360 216.1675 C126.8358 215.1465 133.5878 220.2177 134.6415 227.5128 C135.6953 234.8080 130.6545 241.5827 123.3643 242.6693 C116.0275 243.7625 109.2003 238.6825 108.1397 231.3410 C107.0793 223.9995 112.1900 217.1950 119.5360 216.1675 Z"></path>
<path id="" fill="#f4f7f9" fill-opacity="1.0" stroke="#000000" stroke-width="0.0" stroke-opacity="1.0" stroke-linecap="round" stroke-linejoin="round"  filling="0" d="M294.0650 166.0683 C301.2575 164.4993 308.3575 169.0733 309.9000 176.2715 C311.4425 183.4698 306.8450 190.5517 299.6400 192.0695 C292.4725 193.5797 285.4325 189.0085 283.8975 181.8465 C282.3625 174.6842 286.9075 167.6293 294.0650 166.0683 Z"></path>
<path id="" fill="#a98cd7" fill-opacity="1.0" stroke="#000000" stroke-width="0.0" stroke-opacity="1.0" stroke-linecap="round" stroke-linejoin="round"  filling="0" d="M407.4625 162.2177 C414.5525 160.8245 421.4475 165.3898 422.9325 172.4622 C424.4175 179.5347 419.9400 186.4872 412.8875 188.0635 C408.2450 189.1013 403.4000 187.5605 400.2100 184.0298 C397.0200 180.4993 395.9750 175.5253 397.4775 171.0098 C398.9775 166.4940 402.7925 163.1355 407.4625 162.2177 Z"></path>
<path id="" fill="#a98cd7" fill-opacity="1.0" stroke="#000000" stroke-width="0.0" stroke-opacity="1.0" stroke-linecap="round" stroke-linejoin="round"  filling="0" d="M218.4733 164.2375 C225.1970 163.2973 231.4478 167.8797 232.5740 174.5750 C233.7003 181.2700 229.2928 187.6455 222.6315 188.9568 C218.1550 189.8380 213.5533 188.2182 210.6160 184.7272 C207.6785 181.2363 206.8692 176.4255 208.5027 172.1655 C210.1362 167.9057 213.9547 164.8695 218.4733 164.2375 Z"></path>
<path id="" fill="#cab6e9" fill-opacity="1.0" stroke="#000000" stroke-width="0.0" stroke-opacity="1.0" stroke-linecap="round" stroke-linejoin="round"  filling="0" d="M427.4800 74.1747 C433.6525 72.6313 439.9075 76.3737 441.4650 82.5407 C443.0250 88.7080 439.2975 94.9730 433.1350 96.5465 C426.9500 98.1252 420.6575 94.3825 419.0950 88.1940 C417.5300 82.0055 421.2875 75.7235 427.4800 74.1747 Z"></path>
<path id="" fill="#a98cd7" fill-opacity="1.0" stroke="#000000" stroke-width="0.0" stroke-opacity="1.0" stroke-linecap="round" stroke-linejoin="round"  filling="0" d="M263.1225 264.5075 C269.3825 263.7100 275.1100 268.1150 275.9425 274.3700 C276.7750 280.6225 272.4025 286.3750 266.1525 287.2425 C259.8550 288.1175 254.0475 283.7025 253.2075 277.4000 C252.3675 271.0950 256.8150 265.3125 263.1225 264.5075 Z"></path>
<path id="" fill="#f4f7f9" fill-opacity="1.0" stroke="#000000" stroke-width="0.0" stroke-opacity="1.0" stroke-linecap="round" stroke-linejoin="round"  filling="0" d="M366.7675 133.3840 C370.7700 132.6703 374.8450 134.1673 377.4300 137.3013 C380.0175 140.4350 380.7175 144.7198 379.2575 148.5128 C377.8000 152.3058 374.4100 155.0185 370.3900 155.6115 C364.3025 156.5092 358.6200 152.3545 357.6325 146.2810 C356.6425 140.2077 360.7100 134.4648 366.7675 133.3840 Z"></path>
<path id="" fill="#aa8dd8" fill-opacity="1.0" stroke="#000000" stroke-width="0.0" stroke-opacity="1.0" stroke-linecap="round" stroke-linejoin="round"  filling="0" d="M402.4975 272.7775 C408.3825 271.9825 413.8125 276.0675 414.6775 281.9425 C415.5425 287.8150 411.5225 293.2925 405.6575 294.2275 C401.8025 294.8425 397.9150 293.3375 395.4800 290.2875 C393.0450 287.2350 392.4350 283.1125 393.8875 279.4875 C395.3400 275.8650 398.6300 273.3025 402.4975 272.7775 Z"></path>
<path id="" fill="#cab6e9" fill-opacity="1.0" stroke="#000000" stroke-width="0.0" stroke-opacity="1.0" stroke-linecap="round" stroke-linejoin="round"  filling="0" d="M117.3640 330.5550 C123.1885 329.7950 128.5520 333.8300 129.4393 339.6350 C130.3268 345.4425 126.4122 350.8925 120.6273 351.9075 C116.7697 352.5850 112.8483 351.1200 110.3777 348.0825 C107.9075 345.0425 107.2753 340.9050 108.7253 337.2675 C110.1752 333.6300 113.4807 331.0600 117.3640 330.5550 Z"></path>
<path id="" fill="#f4f7f9" fill-opacity="1.0" stroke="#000000" stroke-width="0.0" stroke-opacity="1.0" stroke-linecap="round" stroke-linejoin="round"  filling="0" d="M70.0033 315.5500 C75.6030 314.9150 80.6608 318.9300 81.3127 324.5275 C81.9648 330.1250 77.9652 335.1950 72.3695 335.8650 C66.7485 336.5375 61.6505 332.5175 60.9958 326.8950 C60.3408 321.2700 64.3783 316.1850 70.0033 315.5500 Z"></path>
<path id="" fill="#f4f7f9" fill-opacity="1.0" stroke="#000000" stroke-width="0.0" stroke-opacity="1.0" stroke-linecap="round" stroke-linejoin="round"  filling="0" d="M405.7100 107.3660 C409.0525 106.6280 412.5325 107.7558 414.8075 110.3140 C417.0825 112.8723 417.7950 116.4610 416.6725 119.6945 C415.5475 122.9283 412.7625 125.3012 409.3925 125.8978 C404.3300 126.7930 399.4800 123.4772 398.4775 118.4350 C397.4775 113.3928 400.6900 108.4745 405.7100 107.3660 Z"></path>
<path id="" fill="#cbb7ea" fill-opacity="1.0" stroke="#000000" stroke-width="0.0" stroke-opacity="1.0" stroke-linecap="round" stroke-linejoin="round"  filling="0" d="M183.6790 71.1252 C188.7693 70.4052 193.4823 73.9395 194.2175 79.0275 C194.9527 84.1152 191.4330 88.8390 186.3472 89.5898 C183.0533 90.0757 179.7498 88.7693 177.6795 86.1615 C175.6093 83.5535 175.0860 80.0400 176.3065 76.9420 C177.5378 73.8173 180.3535 71.5955 183.6790 71.1252 Z"></path>
<path id="" fill="#cbb7ea" fill-opacity="1.0" stroke="#000000" stroke-width="0.0" stroke-opacity="1.0" stroke-linecap="round" stroke-linejoin="round"  filling="0" d="M366.9650 337.8825 C372.0250 336.9350 376.8925 340.2675 377.8425 345.3250 C378.7900 350.3850 375.4600 355.2550 370.4000 356.2050 C365.3400 357.1550 360.4675 353.8225 359.5200 348.7625 C358.5700 343.7025 361.9050 338.8300 366.9650 337.8825 Z"></path>
<path id="" fill="#a98cd7" fill-opacity="1.0" stroke="#000000" stroke-width="0.0" stroke-opacity="1.0" stroke-linecap="round" stroke-linejoin="round"  filling="0" d="M328.1200 141.3630 C332.9725 140.9680 337.2625 144.4965 337.8100 149.3338 C338.3575 154.1712 334.9675 158.5697 330.1500 159.2700 C326.8950 159.7430 323.6400 158.4062 321.6575 155.7820 C319.6775 153.1580 319.2800 149.6625 320.6250 146.6615 C321.9700 143.6605 324.8425 141.6300 328.1200 141.3630 Z"></path>
<path id="" fill="#cab6e9" fill-opacity="1.0" stroke="#000000" stroke-width="0.0" stroke-opacity="1.0" stroke-linecap="round" stroke-linejoin="round"  filling="0" d="M368.3475 94.2353 C372.8825 93.5985 377.0825 96.7318 377.7675 101.2595 C378.4500 105.7872 375.3600 110.0210 370.8400 110.7515 C367.8750 111.2307 364.8800 110.0800 362.9975 107.7380 C361.1150 105.3960 360.6375 102.2235 361.7425 99.4303 C362.8500 96.6367 365.3725 94.6533 368.3475 94.2353 Z"></path>
<path id="" fill="#f4f7f9" fill-opacity="1.0" stroke="#000000" stroke-width="0.0" stroke-opacity="1.0" stroke-linecap="round" stroke-linejoin="round"  filling="0" d="M334.8900 197.1933 C339.2250 196.7245 343.1375 199.8172 343.6800 204.1438 C344.2225 208.4702 341.1975 212.4335 336.8800 213.0505 C334.0225 213.4590 331.1650 212.2937 329.4075 210.0020 C327.6500 207.7103 327.2675 204.6487 328.4025 201.9940 C329.5400 199.3392 332.0200 197.5038 334.8900 197.1933 Z"></path>
<path id="" fill="#cbb7ea" fill-opacity="1.0" stroke="#000000" stroke-width="0.0" stroke-opacity="1.0" stroke-linecap="round" stroke-linejoin="round"  filling="0" d="M106.5748 111.0075 C110.7357 110.5335 114.5128 113.4720 115.0765 117.6220 C115.6405 121.7718 112.7842 125.6115 108.6475 126.2647 C105.9140 126.6965 103.1590 125.6283 101.4310 123.4665 C99.7032 121.3047 99.2682 118.3820 100.2917 115.8108 C101.3410 113.1745 103.7552 111.3288 106.5748 111.0075 Z"></path>
<path id="" fill="#cbb7ea" fill-opacity="1.0" stroke="#000000" stroke-width="0.0" stroke-opacity="1.0" stroke-linecap="round" stroke-linejoin="round"  filling="0" d="M295.5350 314.0975 C299.5925 313.0675 303.7225 315.5050 304.7825 319.5550 C305.8400 323.6025 303.4350 327.7500 299.3950 328.8400 C295.5800 329.8675 291.6125 327.8100 290.2550 324.1000 C289.6500 322.4425 289.6375 320.6275 290.2200 318.9625 C291.0650 316.5525 293.0600 314.7275 295.5350 314.0975 Z"></path>
<path id="" fill="#f4f7f9" fill-opacity="1.0" stroke="#000000" stroke-width="0.0" stroke-opacity="1.0" stroke-linecap="round" stroke-linejoin="round"  filling="0" d="M110.8708 283.5750 C114.8990 282.8775 118.7498 285.5150 119.5543 289.5250 C120.3587 293.5325 117.8245 297.4525 113.8390 298.3625 C111.1645 298.9750 108.3687 298.0875 106.5378 296.0425 C104.7070 294.0000 104.1298 291.1250 105.0302 288.5325 C105.9308 285.9400 108.1673 284.0425 110.8708 283.5750 Z"></path>
<path id="" fill="#f4f6f9" fill-opacity="1.0" stroke="#000000" stroke-width="0.0" stroke-opacity="1.0" stroke-linecap="round" stroke-linejoin="round"  filling="0" d="M185.1422 212.0090 C187.7038 211.2758 190.4590 212.0658 192.2428 214.0448 C194.0265 216.0237 194.5267 218.8460 193.5323 221.3177 C192.6790 223.4380 190.8412 225.0058 188.6130 225.5140 C184.9297 226.3542 181.2470 224.1090 180.3067 220.4500 C179.3665 216.7912 181.5105 213.0488 185.1422 212.0090 Z"></path>
</svg>