<svg xmlns="http://www.w3.org/2000/svg" viewBox="0 0 512 512" height="512.0px" width="512.0px">
<path id="" fill="#88c9f8" fill-opacity="1.0" stroke="#000000" stroke-width="0.0" stroke-opacity="1.0" stroke-linecap="round" stroke-linejoin="round"  filling="0" d="M51.0025 313.0075 L51.0033 156.3920 L50.9967 114.5200 C50.9877 105.2303 50.2912 95.3362 51.9167 86.1780 C53.4182 77.7195 57.4775 70.1608 63.4872 64.0105 C72.4535 54.8350 86.9910 51.1270 99.4305 51.0155 L319.7375 51.0273 L386.3400 51.0175 L406.3225 51.0010 C412.1775 50.9975 418.0075 50.8725 423.8225 51.7180 C432.1875 52.9342 441.2675 56.9673 447.3000 62.9707 C454.1400 69.7810 458.3125 78.6168 459.9450 88.0540 C461.6525 97.9495 461.0350 108.2180 461.0325 118.2227 L461.0325 160.4093 L461.0125 312.7975 L460.9150 381.7575 L460.9250 402.1350 C460.9300 410.5550 461.1750 418.8100 459.2100 427.0700 C457.2650 435.4675 452.9300 443.1225 446.7300 449.1100 C440.7800 455.0175 433.0475 458.7950 424.7300 459.8575 C419.4150 460.5525 413.8925 460.3025 408.5375 460.3025 L384.7225 460.2575 L316.5850 460.2550 L159.7587 460.2000 C138.3765 460.1950 116.9590 460.5500 95.5803 460.3200 C83.5132 460.1875 71.9410 456.6800 63.2783 447.8750 C57.2592 441.7575 53.8633 434.6150 52.1608 426.2350 C50.6755 418.9250 51.0542 411.2350 51.0510 403.8100 L51.0495 378.6175 L51.0388 333.8950 C51.0355 327.0375 50.8035 320.1200 50.9877 313.2725 C50.9902 313.1825 50.9975 313.0950 51.0025 313.0075 Z"></path>
<path id="" fill="#5c903b" fill-opacity="1.0" stroke="#000000" stroke-width="0.0" stroke-opacity="1.0" stroke-linecap="round" stroke-linejoin="round"  filling="0" d="M461.0125 312.7975 L460.9150 381.7575 L460.9250 402.1350 C460.9300 410.5550 461.1750 418.8100 459.2100 427.0700 C457.2650 435.4675 452.9300 443.1225 446.7300 449.1100 C440.7800 455.0175 433.0475 458.7950 424.7300 459.8575 C419.4150 460.5525 413.8925 460.3025 408.5375 460.3025 L384.7225 460.2575 L316.5850 460.2550 L159.7587 460.2000 C138.3765 460.1950 116.9590 460.5500 95.5803 460.3200 C83.5132 460.1875 71.9410 456.6800 63.2783 447.8750 C57.2592 441.7575 53.8633 434.6150 52.1608 426.2350 C50.6755 418.9250 51.0542 411.2350 51.0510 403.8100 L51.0495 378.6175 L51.0388 333.8950 C51.0355 327.0375 50.8035 320.1200 50.9877 313.2725 C50.9902 313.1825 50.9975 313.0950 51.0025 313.0075 C53.0898 313.4825 56.0880 313.1125 58.2832 313.1025 L73.9877 313.0375 L138.2745 313.0400 L405.5250 312.9750 L445.2975 312.9950 C448.4525 312.9975 458.6975 313.4000 461.0125 312.7975 Z"></path>
<path id="" fill="#65757e" fill-opacity="1.0" stroke="#000000" stroke-width="0.0" stroke-opacity="1.0" stroke-linecap="round" stroke-linejoin="round"  filling="0" d="M324.9275 147.1115 C336.6550 146.6805 348.5050 147.0222 360.2475 147.0190 L427.6275 147.0075 C438.7175 147.0052 449.9825 147.4050 461.0525 146.8488 C460.7250 154.8038 460.9900 162.8715 460.9925 170.8362 L460.9925 216.4973 L461.0000 293.9025 C461.0050 300.3400 460.6625 306.7875 460.7300 313.2175 C453.7750 312.8125 446.7300 313.0200 439.7625 313.0200 L405.2575 313.0150 L298.3750 313.0150 L187.6102 313.0250 C184.6543 313.0250 163.6955 313.3500 163.1155 313.1675 C162.5900 312.6850 162.5408 312.7025 162.4470 312.0025 C162.8220 311.3325 163.2782 311.0175 163.9467 310.6675 C165.8040 309.6950 167.8390 309.3175 169.7625 308.5350 C173.0640 307.1900 176.4445 305.2175 179.4332 303.3100 C189.0370 297.1800 197.0155 287.3800 203.1037 277.8450 C208.3273 269.6650 212.3310 260.4925 216.1975 251.6075 C222.3087 237.5647 227.8020 223.3035 233.7275 209.1902 C239.6175 195.1613 246.2640 180.1413 256.6100 168.7580 C272.3875 151.3990 292.3275 149.1658 314.3325 147.9160 C317.8700 147.7150 321.3875 147.2925 324.9275 147.1115 Z"></path>
<path id="" fill="#292f33" fill-opacity="1.0" stroke="#000000" stroke-width="0.0" stroke-opacity="1.0" stroke-linecap="round" stroke-linejoin="round"  filling="0" d="M459.6025 107.8510 C460.0800 107.7810 460.3600 107.7832 460.8225 107.9190 C461.4200 109.6175 460.9900 140.1118 460.9950 145.1797 L461.0050 256.6475 L461.0025 292.1100 C460.9975 299.1600 460.8450 306.2475 461.0675 313.2925 C453.1475 312.6875 444.9750 313.0625 437.0250 313.0600 L394.6375 313.0625 L259.6425 313.0475 L258.3675 312.9700 C257.9400 312.6300 257.8050 312.5075 257.8025 311.9025 C257.7925 310.2275 263.2100 303.9275 264.4825 302.0950 C268.6425 296.1025 272.3175 289.0275 275.1800 282.3300 C280.6200 269.6025 285.2425 256.3975 289.9275 243.3730 C296.7650 224.3728 303.1800 204.9760 314.4675 188.0477 C316.3100 185.2872 318.1200 182.5067 320.3300 180.0205 C322.6325 177.4280 325.2425 174.7543 328.1850 172.8925 C338.2550 166.5180 351.9425 170.3635 359.8325 163.4937 C368.4825 155.9655 371.1275 141.7225 378.8600 132.7238 C389.4800 120.3655 415.5850 113.7825 431.3375 111.0723 C440.6700 109.4665 450.1625 108.5390 459.6025 107.8510 Z"></path>
<path id="" fill="#652113" fill-opacity="1.0" stroke="#000000" stroke-width="0.0" stroke-opacity="1.0" stroke-linecap="round" stroke-linejoin="round"  filling="0" d="M150.9325 337.1100 C156.2133 336.9775 166.3980 336.4725 171.3092 337.4250 C173.0785 337.7675 174.5635 338.4200 176.0645 339.4000 C178.8743 341.2350 180.9082 343.0300 181.6100 346.4600 C182.7617 352.0900 181.8743 360.8800 182.0580 366.9575 C182.1703 370.6625 183.0280 374.5650 182.6290 378.2450 C182.3860 380.6300 181.5580 382.9175 180.2180 384.9050 C177.1288 389.4875 172.5352 391.2850 167.3085 392.2575 C166.4090 392.4050 165.5080 392.5400 164.6057 392.6675 C157.7108 393.5925 147.8370 393.0800 142.1105 388.6400 C139.1658 386.3575 136.7805 382.8975 136.3965 379.1275 C136.1152 376.3625 136.9073 372.7250 136.9725 369.8050 C137.0517 365.3350 137.0482 360.8625 136.9617 356.3925 C136.9300 353.5575 136.7052 350.5200 137.1163 347.7200 C137.3723 345.9750 137.9925 344.7100 139.1230 343.3625 C141.9630 339.9800 146.5508 337.5125 150.9325 337.1100 Z"></path>
<path id="" fill="#55abed" fill-opacity="1.0" stroke="#000000" stroke-width="0.0" stroke-opacity="1.0" stroke-linecap="round" stroke-linejoin="round"  filling="0" d="M369.7050 313.1575 C372.4950 313.0325 391.7025 312.5000 393.0175 313.2825 C385.3225 325.8175 321.3500 334.4400 313.7025 344.9775 C313.1275 345.7725 312.7750 346.9150 312.9975 347.8925 C314.0625 352.5500 341.1725 358.1925 346.9325 359.6825 C351.4625 360.8550 356.0525 362.1075 360.4775 363.6325 C368.2200 366.3000 376.1050 369.5325 382.6950 374.4775 C387.0100 377.7125 391.2250 383.0450 391.9750 388.5100 C396.0125 417.8750 360.3775 429.9975 343.1200 446.5300 C340.4825 449.0575 337.9675 452.4350 336.6925 455.8850 C336.1700 457.2975 335.9800 459.5625 334.9925 460.6925 C334.4925 461.2650 331.9100 461.0425 331.0550 461.0375 L222.8370 460.9925 C196.2040 460.9950 169.5355 460.7125 142.9065 461.0575 C142.8913 459.0775 142.7075 456.7750 143.2993 454.8700 C144.6685 450.4625 147.7843 446.6200 150.9610 443.3725 C161.6985 432.4000 178.6438 424.4275 192.8333 418.6975 C217.1510 408.8800 242.8490 402.1175 267.9350 394.5625 C276.2300 392.0625 284.6350 389.9275 292.7475 386.8425 C295.1475 385.9300 299.6850 384.3925 300.9825 382.0175 C301.3900 381.2700 301.4625 380.4550 301.1950 379.6475 C299.5325 374.5925 282.8950 369.9475 277.8975 368.0325 C274.5950 366.7900 271.3800 365.3300 268.2725 363.6625 C262.8050 360.6875 258.1250 356.6825 256.3650 350.4800 C255.6950 348.1250 255.7525 346.0450 257.0125 343.9000 C258.7000 341.0325 261.9775 338.5900 264.9225 337.1325 C271.9600 333.6475 280.4025 331.7775 288.0475 330.1450 C302.9725 326.9575 318.1700 324.9100 333.2725 322.7400 C343.1125 321.3250 353.3375 320.1525 362.9175 317.4600 C365.6250 316.6975 368.2550 315.7500 369.7050 313.1575 Z"></path>
<path id="" fill="#3e711d" fill-opacity="1.0" stroke="#000000" stroke-width="0.0" stroke-opacity="1.0" stroke-linecap="round" stroke-linejoin="round"  filling="0" d="M128.4275 235.2720 C128.1900 234.1902 127.9547 233.1310 127.6277 232.0723 C126.8910 229.6868 126.3457 222.6740 127.4820 220.4695 C129.0332 217.4603 135.7207 211.9492 138.3878 209.0488 C143.4450 203.5490 147.4410 196.9568 152.7895 191.7583 C154.3325 190.2585 156.0312 188.8562 158.1497 188.2802 C160.0038 187.7762 161.9373 188.3555 163.5225 189.3627 C169.7140 193.2975 179.6055 208.1987 185.9305 214.3607 C187.5692 215.9570 192.6467 220.2065 193.0047 222.1835 C193.1472 222.9713 192.7765 223.6560 192.2812 224.2307 C191.8002 224.7890 191.1895 225.2733 190.6275 225.7478 C191.4740 226.7845 193.0695 228.3695 192.8980 229.8130 C192.6947 231.5267 190.3145 232.5555 189.0432 233.4108 C192.4905 237.0910 199.7425 243.1985 202.1503 246.8590 C202.7830 247.8205 203.3038 249.0177 203.2762 250.1900 C203.2563 251.0450 202.9668 251.6550 202.3375 252.2100 C201.0567 253.3425 199.7285 254.0600 199.4438 255.8675 C200.1492 257.6775 202.5728 259.0525 203.0862 260.9775 C203.4122 262.1975 202.4460 264.0675 202.7493 265.0975 C202.9090 265.6425 203.9390 266.5525 204.3550 266.9900 C206.8273 269.5925 214.6055 276.3500 212.9828 280.2525 C212.0935 282.3925 209.4490 283.4575 207.4180 284.2025 C206.7145 284.4600 206.0083 284.7100 205.3000 284.9525 C207.5770 288.1700 210.7912 290.5450 212.9865 293.7450 L213.1942 298.3825 C214.4325 299.8375 215.7075 301.2150 217.1443 302.4775 C220.8613 305.7400 228.8805 310.8225 228.4702 316.5450 C228.3535 318.1725 227.3690 319.4900 226.1348 320.4900 C223.5735 322.5650 220.6055 322.8725 217.5615 323.6825 C217.6017 323.7800 217.6410 323.8775 217.6825 323.9775 C219.0858 327.2875 221.8860 328.6475 224.2793 331.0625 C226.2190 333.0175 227.3403 335.6775 229.3300 337.6450 C233.9377 342.2025 246.9855 350.5075 243.8723 358.4775 C243.1337 360.3675 241.0280 361.4775 239.2437 362.1850 C235.7665 363.5625 231.8217 364.0100 228.1080 364.0700 C223.5108 364.1450 218.9955 363.6100 214.4345 363.1325 C207.5065 362.4475 200.5960 361.5925 193.7097 360.5700 C189.8562 360.0350 185.7330 359.8300 181.9633 358.9375 C182.0280 361.3250 181.8750 363.6675 181.7018 366.0450 C180.8410 364.0325 180.8185 361.2150 180.5440 359.0300 C178.4050 358.7200 176.1602 358.4625 174.0063 358.7350 C165.1942 356.7975 143.6295 358.4500 134.3282 359.4275 C126.6465 360.2375 119.0085 361.5225 111.3385 362.4475 C102.9283 363.4625 80.6835 367.0125 75.6308 358.7075 C74.7337 357.2350 74.6227 355.5325 75.1050 353.8975 C77.0185 347.4175 83.7505 343.5225 88.3230 339.1225 C90.8142 336.7225 92.8275 333.9250 95.1407 331.3725 C96.7762 329.5700 98.8163 327.8775 100.2780 325.9625 C100.7272 325.3725 100.8045 325.0375 100.7910 324.3100 C98.6013 321.2475 89.6947 322.9100 90.8183 314.8600 C91.0117 313.4725 91.6135 312.2100 92.4467 311.0950 C94.3203 308.5850 96.9297 306.4625 99.1945 304.2975 C101.5092 302.0825 103.7653 299.8100 105.9600 297.4775 C105.6965 294.8250 106.2790 292.8275 107.9413 290.7225 C109.5575 288.6775 111.7415 286.9375 113.6630 285.1750 L113.4555 285.0725 C110.9985 283.8675 106.8660 283.2050 105.8160 280.3075 C105.2855 278.8425 105.8163 277.2675 106.5153 275.9575 C108.9457 271.4025 113.6730 268.8575 117.2742 265.3775 C116.5807 263.8600 115.7805 262.0900 116.3737 260.4000 C117.1835 258.0925 120.7465 257.6650 120.3712 254.6300 C119.0423 252.7550 115.4540 252.4000 115.8873 249.4495 C116.4642 245.5213 125.4295 238.1165 128.4275 235.2720 Z"></path>
<path id="" fill="#f4f7f9" fill-opacity="1.0" stroke="#000000" stroke-width="0.0" stroke-opacity="1.0" stroke-linecap="round" stroke-linejoin="round"  filling="0" d="M144.3927 78.0560 C148.1693 77.6557 152.2283 77.9702 155.8452 79.1628 C163.4993 81.6860 167.8515 87.3838 171.3445 94.3033 C174.1467 93.3450 176.8995 92.9512 179.8598 92.9370 C188.1480 92.8972 195.8575 96.2110 201.7188 102.0862 C207.0870 107.5497 210.1045 114.8970 210.1260 122.5567 C210.1080 131.2185 207.5380 138.8602 201.2600 145.0488 C197.5710 148.6853 192.4310 151.5870 187.4125 152.8735 C180.1935 154.7242 171.8898 154.0115 164.4535 154.0108 L138.6250 153.9960 L98.3730 154.0150 C91.2910 153.9865 84.8337 153.5245 79.6288 148.1992 C75.9572 144.4427 73.8135 139.6438 73.9410 134.3652 C74.0612 129.3972 76.0155 124.2955 79.6555 120.8423 C84.8108 115.9512 90.5527 115.7785 97.2298 115.9922 C96.7452 112.1025 96.4285 106.8112 97.9265 103.1315 C99.6750 98.8360 103.3167 95.8610 107.5417 94.1480 C113.1638 91.8683 118.1730 93.2340 123.4775 95.5245 C125.0715 93.0385 126.2063 90.3035 127.9365 87.8808 C131.9523 82.2580 137.6645 79.1735 144.3927 78.0560 Z"></path>
<path id="" fill="#226598" fill-opacity="1.0" stroke="#000000" stroke-width="0.0" stroke-opacity="1.0" stroke-linecap="round" stroke-linejoin="round"  filling="0" d="M391.9575 165.0180 C395.7575 164.8870 399.5575 164.8720 403.3575 164.9727 C403.3375 165.0797 403.3175 165.1873 403.2950 165.2940 C402.6100 168.5043 400.7050 171.3582 399.7350 174.4967 C397.5050 181.7097 396.3100 189.4190 395.2850 196.8840 C394.5250 202.4193 394.2600 207.8322 393.9125 213.3932 C393.7350 216.2305 393.2675 219.0477 393.1325 221.8885 C392.7325 230.2422 392.9875 238.7162 392.9850 247.0825 L392.9775 288.9225 L393.0050 304.7300 C393.0175 307.5400 393.2200 310.4875 393.0175 313.2825 C391.7025 312.5000 372.4950 313.0325 369.7050 313.1575 C370.2425 309.8600 369.9875 306.2250 369.9800 302.8875 L369.9500 286.0750 L369.9475 257.5725 C369.9525 249.8203 369.7425 241.9892 370.1100 234.2487 C370.2675 230.9162 370.7300 227.5705 371.0575 224.2490 C372.3975 210.7267 374.5450 197.4458 379.3150 184.6630 C381.5375 178.7007 385.8700 169.3750 391.1525 165.5480 C391.4125 165.3605 391.6825 165.1837 391.9575 165.0180 Z"></path>
</svg>