<svg xmlns="http://www.w3.org/2000/svg" viewBox="0 0 512 512" height="512.0px" width="512.0px">
<path id="" fill="#66757f" fill-opacity="1.0" stroke="#000000" stroke-width="0.0" stroke-opacity="1.0" stroke-linecap="round" stroke-linejoin="round"  filling="0" d="M329.3575 378.3350 C330.1925 378.2125 331.0425 378.1050 331.8875 378.2125 C334.1650 378.5025 335.6025 380.0050 336.9200 381.7325 C336.9550 382.1350 336.9850 382.5375 337.0075 382.9400 C337.5775 392.4600 337.0675 402.9100 337.0700 412.5550 L337.0750 424.3900 C337.0750 426.7650 337.2800 429.4400 336.8500 431.7725 C336.5100 433.6150 335.6175 434.9525 334.4050 436.3250 C329.9125 437.7425 321.9500 437.0350 317.0175 437.0350 L296.2125 437.0325 C294.3550 437.0050 292.6100 437.0775 291.1550 435.7175 C290.0525 434.6850 289.0325 432.7650 289.0475 431.2325 C289.0625 429.5075 290.0150 427.9400 291.2700 426.8125 C292.1775 426.0000 293.2750 425.3975 294.4800 425.1875 C297.8575 424.6000 301.7750 425.0175 305.2200 425.0225 C311.8175 425.0275 318.4800 424.8750 325.0725 425.1775 C324.9000 419.9200 324.6475 384.1200 325.4375 382.0000 C326.0925 380.2425 327.7175 379.0850 329.3575 378.3350 Z"></path>
<path id="" fill="#66757f" fill-opacity="1.0" stroke="#000000" stroke-width="0.0" stroke-opacity="1.0" stroke-linecap="round" stroke-linejoin="round"  filling="0" d="M270.2200 377.9950 C270.4300 377.9850 270.6375 377.9725 270.8475 377.9775 C272.4850 378.0100 274.1825 378.7750 275.3025 379.9675 C276.1475 380.8675 276.6425 381.9100 276.8150 383.1300 C277.5925 388.6125 277.0650 395.3750 277.0650 400.9950 C277.0700 411.1075 277.3325 421.3050 276.9775 431.4075 C273.3000 435.8000 268.8750 439.6475 264.9150 443.7950 C262.1050 446.7375 259.7775 450.0675 256.6450 452.7000 C254.3850 454.6000 252.1325 456.0875 249.3470 457.0700 C248.2440 457.0775 247.3217 457.0950 246.3282 456.5675 C243.6190 455.1325 242.7220 452.0800 241.9003 449.3475 C244.1483 442.0675 262.3500 429.9800 264.3325 423.6925 C265.3625 420.4300 264.9875 415.8875 264.9925 412.4650 C265.0000 407.5175 264.4100 383.1350 265.4600 381.1925 C266.3850 379.4900 268.4700 378.5625 270.2200 377.9950 Z"></path>
<path id="" fill="#e9596d" fill-opacity="1.0" stroke="#000000" stroke-width="0.0" stroke-opacity="1.0" stroke-linecap="round" stroke-linejoin="round"  filling="0" d="M325.8025 405.1625 C316.1675 404.4700 306.3725 405.6350 296.7325 404.8425 C289.7425 404.2675 282.7200 402.9550 275.8250 401.7075 C273.0475 401.2050 270.1525 400.9275 267.4200 400.2350 C263.7625 399.3075 260.0925 397.7800 256.4925 396.6125 C237.9673 390.6050 223.3757 384.1100 207.8212 372.2850 C204.0488 369.4175 200.2502 366.4600 196.7957 363.2100 C165.0927 333.3800 150.7230 297.0275 149.5705 253.8200 C148.9742 231.4675 156.0177 201.0378 171.8367 184.5797 C180.5625 175.5013 192.3387 168.9400 205.0535 168.1138 C210.4028 167.7663 215.7485 168.2612 221.0957 168.1497 C220.7728 170.1935 220.6555 172.2897 220.4690 174.3508 C229.4003 175.0692 249.9212 184.7672 257.3225 189.9015 C262.9000 193.7695 267.8825 198.4758 273.4725 202.3795 C277.8475 205.4342 282.5650 207.9800 286.9375 211.0465 C300.3275 220.5833 312.8500 231.2838 324.3575 243.0233 C331.9450 250.8425 340.6650 263.0150 346.7600 272.2325 C354.1125 283.3550 360.4200 295.3650 366.8450 307.0400 C368.6475 310.3200 370.3250 313.6825 372.2275 316.9075 C376.3350 323.8650 380.6850 330.8850 385.3800 337.4575 C386.5275 339.0625 387.6750 340.7025 388.9275 342.2325 C389.7900 343.2850 390.8050 344.2750 391.5700 345.4000 C391.8975 345.8800 392.1050 346.2675 392.0950 346.8650 C390.6800 349.8150 385.3475 354.1300 382.8625 356.6925 C380.6875 358.9375 378.7750 361.4150 376.6150 363.6675 C374.6350 365.7350 372.3275 367.5200 370.2325 369.4725 C364.4975 374.8125 360.1950 379.0975 353.5050 383.3200 C347.8650 386.8800 341.6425 389.5000 336.0675 393.0950 L335.7400 393.3075 C336.8375 394.9100 336.8125 396.5025 336.9100 398.3700 C334.5825 397.4675 332.3025 395.9325 329.7625 395.9475 C329.4575 395.9500 329.1550 395.9500 328.8475 395.9575 C328.1850 396.0900 327.1450 396.1975 326.6300 396.6625 C325.1225 398.0225 325.8250 403.2575 325.8025 405.1625 Z"></path>
<path id="" fill="rgb(103,122,144)" fill-opacity="1.0" stroke="#000000" stroke-width="0.0" stroke-opacity="1.0" stroke-linecap="round" stroke-linejoin="round"  filling="0" d="M328.8475 395.9575 C331.2175 395.4100 333.5150 394.2750 335.7400 393.3075 C336.8375 394.9100 336.8125 396.5025 336.9100 398.3700 C334.5825 397.4675 332.3025 395.9325 329.7625 395.9475 C329.4575 395.9500 329.1550 395.9500 328.8475 395.9575 Z"></path>
<path id="" fill="#3b87c2" fill-opacity="1.0" stroke="#000000" stroke-width="0.0" stroke-opacity="1.0" stroke-linecap="round" stroke-linejoin="round"  filling="0" d="M218.3293 168.2810 C219.0587 168.6670 220.0757 169.0827 220.5610 169.7835 C220.9915 170.4050 220.8582 171.1280 220.7737 171.8270 C220.8775 171.8790 220.9795 171.9345 221.0847 171.9828 C222.4630 172.6152 235.4138 172.1532 238.3768 172.4735 C243.0550 172.9787 247.1970 174.3237 251.5125 176.1212 C260.0350 179.6700 268.1975 184.6055 276.2350 189.1297 C282.6025 192.7135 288.5950 196.6500 294.7600 200.5390 C301.1875 204.5948 307.7950 208.5470 313.7625 213.2672 C330.7125 226.6732 349.9650 249.8737 361.0725 268.4075 C364.5525 274.2150 367.1975 280.2775 370.0825 286.3775 C373.3675 293.3275 376.8150 300.2950 380.4825 307.0500 C386.2225 317.6100 393.2625 327.2925 400.6800 336.7250 C402.4325 338.9525 408.2850 344.1550 409.0075 346.1375 C409.3050 346.9575 409.1125 347.5900 408.7125 348.3175 C406.9350 351.5400 403.7150 354.5125 401.3775 357.3925 C389.1025 372.5150 376.1725 384.7350 358.7400 393.6975 C354.0725 396.0975 349.2025 398.3675 344.1125 399.7050 C338.8725 401.0800 332.9025 400.5625 327.8700 402.4400 C324.6250 403.7150 322.4550 404.5975 318.8700 403.9925 C314.2400 404.0275 302.3775 404.8425 298.5925 403.5800 C296.5550 402.9000 294.8100 401.3525 292.8450 400.4575 C290.8350 399.5400 288.7175 399.2100 286.7225 398.1600 C284.3300 397.1525 281.8000 396.5275 279.4125 395.4850 C267.6050 390.3350 252.8150 382.6625 242.9527 374.3725 C235.3293 367.9650 228.2690 360.9900 222.1390 353.1125 C219.9405 350.2875 217.9852 347.2100 215.9525 344.2575 C213.9840 341.4000 211.8042 338.5400 210.1335 335.4950 C208.5132 332.5425 207.2502 329.2525 205.9073 326.1575 C203.5405 320.7000 201.0620 315.0400 199.1808 309.3975 C198.2465 306.5975 197.7000 303.5975 197.0005 300.7250 C195.8910 296.1675 194.6758 291.6000 193.8913 286.9725 C192.8358 280.7475 192.3978 274.3500 191.8490 268.0650 C191.1257 259.7775 191.2888 251.9700 191.9362 243.7025 C192.1545 240.9200 192.1985 238.0960 192.5587 235.3290 C194.6560 219.8168 199.4825 204.7982 206.8147 190.9685 C209.6425 185.7267 211.2560 182.5938 215.0927 178.0222 C216.7625 174.7525 217.6510 171.8875 218.3293 168.2810 Z"></path>
<path id="" fill="#e75a6e" fill-opacity="1.0" stroke="#000000" stroke-width="0.0" stroke-opacity="1.0" stroke-linecap="round" stroke-linejoin="round"  filling="0" d="M286.7225 398.1600 C288.9550 398.0675 295.6950 400.2725 298.5100 400.8400 C302.2425 401.5925 306.0875 402.0275 309.8825 402.3175 C313.2125 402.4925 316.5500 402.5500 319.8825 402.4900 C322.4325 402.4550 325.4125 401.8425 327.8700 402.4400 C324.6250 403.7150 322.4550 404.5975 318.8700 403.9925 C314.2400 404.0275 302.3775 404.8425 298.5925 403.5800 C296.5550 402.9000 294.8100 401.3525 292.8450 400.4575 C290.8350 399.5400 288.7175 399.2100 286.7225 398.1600 Z"></path>
<path id="" fill="rgb(243,103,97)" fill-opacity="1.0" stroke="#000000" stroke-width="0.0" stroke-opacity="1.0" stroke-linecap="round" stroke-linejoin="round"  filling="0" d="M218.3293 168.2810 C219.0587 168.6670 220.0757 169.0827 220.5610 169.7835 C220.9915 170.4050 220.8582 171.1280 220.7737 171.8270 C218.2555 172.8685 217.7610 176.8042 215.0927 178.0222 C216.7625 174.7525 217.6510 171.8875 218.3293 168.2810 Z"></path>
<path id="" fill="#77b155" fill-opacity="1.0" stroke="#000000" stroke-width="0.0" stroke-opacity="1.0" stroke-linecap="round" stroke-linejoin="round"  filling="0" d="M148.7663 231.6983 C150.0717 216.6075 150.7648 206.4390 140.2680 193.9837 C132.1600 184.3635 124.5550 180.7962 115.1397 173.4707 C96.4015 158.9950 86.2760 136.0095 88.2425 112.4128 C89.5258 96.8260 96.8160 80.0305 108.8997 69.8205 C125.5200 55.7777 148.3265 49.4980 169.8760 51.3783 C193.8595 53.4707 214.5332 67.6100 229.6543 85.6747 C235.5675 92.7650 241.1140 100.1533 246.2717 107.8105 C250.1050 113.5042 253.6150 119.5518 257.9350 124.8945 C260.7800 128.4142 263.8050 131.9467 266.9000 135.2520 C268.7850 137.2645 270.8325 139.1232 272.6525 141.1965 C283.1400 153.0720 293.2700 165.2598 303.0275 177.7433 C327.7350 209.6252 351.0075 242.5965 372.7700 276.5575 C384.7925 295.1825 396.6200 313.8025 407.8700 332.9075 C418.4525 350.8800 429.4175 368.7625 438.7275 387.4425 C441.5400 393.0850 451.5375 411.7425 451.1750 417.0825 C451.1075 418.0850 450.6975 418.9100 449.8900 419.5175 C447.7500 421.1250 444.5300 420.9975 442.0225 420.5475 C428.9775 418.2150 412.3800 404.7175 402.9425 395.4875 C399.0475 391.6750 395.4725 387.6050 391.8500 383.5400 C389.1200 380.4725 385.9575 377.3775 383.6525 373.9825 C380.7000 369.6375 378.3875 356.7650 376.6250 351.2175 C374.7325 345.2650 372.2100 339.3825 369.8700 333.5900 C368.3350 329.7875 366.5625 326.0775 364.9225 322.3200 C361.3850 314.2050 357.8675 306.1550 353.6225 298.3725 C347.5200 287.3750 340.7600 276.7550 333.3850 266.5675 C330.5675 262.6250 327.8400 258.5325 324.7925 254.7625 C322.7025 252.1775 320.3450 249.8423 318.1800 247.3245 C315.3850 244.0740 312.8875 240.5493 309.9475 237.4252 C307.2425 234.5530 304.1325 232.1723 301.2050 229.5412 C299.3700 227.8902 297.6675 226.0770 295.7825 224.4810 C282.9925 213.6382 267.1950 205.0043 250.6775 201.6382 C247.6005 201.0110 244.6205 200.9353 241.4935 200.9490 C230.8822 200.9953 221.7935 203.4505 212.8692 209.4590 C205.2320 214.6013 197.0305 227.3873 195.3220 236.4320 C194.7770 239.3163 194.3528 242.1415 193.2247 244.8760 L192.4328 248.0312 C191.0600 248.1048 189.6342 248.2660 188.2623 248.1980 L188.2068 248.5025 C187.4792 255.7850 184.9780 262.6925 184.2787 269.9700 C183.1360 282.4600 182.7343 295.0050 183.0755 307.5425 C183.1788 311.1825 184.0115 314.7975 184.0090 318.4250 L184.0950 322.3975 C181.8785 322.0000 179.9715 321.5075 178.1147 320.1250 C173.4175 316.6250 165.4422 302.1700 162.9650 296.6950 C160.5233 291.3000 155.6087 277.6775 154.7238 272.0375 C153.2527 272.2725 151.8700 272.2200 150.3990 272.0750 C148.2845 263.2025 147.3647 240.9232 148.7663 231.6983 Z"></path>
<path id="" fill="#e8596d" fill-opacity="1.0" stroke="#000000" stroke-width="0.0" stroke-opacity="1.0" stroke-linecap="round" stroke-linejoin="round"  filling="0" d="M148.7663 231.6983 C149.3735 232.1272 149.7005 232.4433 149.8468 233.1795 C150.7895 237.9255 150.5658 244.9532 151.2145 250.1550 C151.7030 254.2975 152.3297 258.4225 153.0935 262.5250 C153.6435 265.4950 154.7175 269.0325 154.7238 272.0375 C153.2527 272.2725 151.8700 272.2200 150.3990 272.0750 C148.2845 263.2025 147.3647 240.9232 148.7663 231.6983 Z"></path>
<path id="" fill="#e8596e" fill-opacity="1.0" stroke="#000000" stroke-width="0.0" stroke-opacity="1.0" stroke-linecap="round" stroke-linejoin="round"  filling="0" d="M188.2623 248.1980 C188.2348 246.7668 189.5592 241.1033 190.0397 239.6455 C190.3995 238.5542 190.8075 237.7812 191.8448 237.2233 C192.5262 237.1845 192.6560 237.2190 193.2722 237.5163 C194.1573 239.0360 192.9545 241.4590 192.6897 243.1080 C192.5517 243.9660 192.7245 244.1860 193.2247 244.8760 L192.4328 248.0312 C191.0600 248.1048 189.6342 248.2660 188.2623 248.1980 Z"></path>
<path id="" fill="#5c913b" fill-opacity="1.0" stroke="#000000" stroke-width="0.0" stroke-opacity="1.0" stroke-linecap="round" stroke-linejoin="round"  filling="0" d="M137.7162 190.9295 C138.4978 188.2830 139.5013 184.7473 142.1455 183.3575 C144.0612 182.3505 146.4913 182.9680 148.4105 183.6452 C150.7805 184.4818 153.2010 185.7202 155.6420 186.2883 C163.7255 188.1693 175.1582 187.0745 182.6380 183.5225 C184.3698 182.6828 186.0527 181.7465 187.6790 180.7177 C190.3152 179.0645 193.8638 175.8233 197.1678 177.0750 C198.7020 177.6565 200.2682 179.3277 200.9332 180.8103 C201.4937 182.0603 200.9795 183.9138 201.8665 184.8848 C202.3510 184.9095 202.6155 184.9685 202.9825 184.5610 C204.4418 182.9408 206.8700 177.8140 208.1693 175.5570 C213.5710 166.1750 222.3737 155.7643 233.4527 153.4515 C240.3620 152.0095 253.7125 157.6432 259.8825 160.9272 C263.4625 162.8338 266.9200 165.1178 270.2950 167.3655 C275.9825 171.1543 280.8750 175.4595 285.9225 180.0417 C287.3975 181.3802 289.0050 182.6080 290.4050 184.0220 C291.9950 185.6263 293.3550 187.4630 294.8750 189.1333 C296.5000 190.9160 298.2575 192.5777 299.8350 194.4035 C327.7000 226.6837 348.7750 271.5700 363.7775 311.2725 C366.2550 317.9225 368.6475 324.6000 370.9575 331.3100 C372.5900 335.9525 374.5025 340.5900 375.4525 345.4275 C375.8075 347.2300 376.0125 349.1625 376.5625 350.9100 C377.3125 353.2950 378.5950 355.5500 379.4950 357.8900 C380.8425 361.3875 383.2475 369.2900 383.2950 372.8950 C383.3125 374.0500 383.0600 375.2200 382.3725 376.1675 C381.6100 377.2225 380.5550 377.8550 379.2875 378.0725 C378.5350 377.9150 378.0825 377.5875 377.4725 377.1500 C376.0575 377.0825 368.6350 379.4425 366.5000 379.9050 C361.8375 380.9100 352.1525 382.0025 347.4325 381.8625 C345.4450 381.8050 343.4550 381.4900 341.4725 381.3225 C338.7075 381.0875 335.8975 380.9650 333.1525 380.5450 C302.2225 375.8050 274.1775 358.2025 251.1775 337.6950 C247.2030 334.1525 243.5323 330.1450 239.7612 326.3800 C235.9340 322.5600 231.9422 318.8175 228.3103 314.8125 C214.5930 299.6825 203.7590 281.5975 198.2778 261.8600 C196.4507 255.2800 194.6942 247.2645 193.6178 240.5182 C193.5270 239.9498 193.4888 238.3045 192.7665 238.2572 C192.5150 238.2075 191.9980 238.1465 191.7572 238.0117 C191.3763 237.7982 191.1707 237.5972 191.0768 237.1732 C190.6922 235.4353 192.4430 233.3403 193.3500 231.9575 C194.0502 229.8125 193.9165 227.4017 193.9418 225.1665 C194.0347 216.9355 195.3987 208.3480 197.6873 200.4348 C198.7628 196.7157 200.4738 192.9480 201.1500 189.1575 L200.1042 189.0080 C196.9877 188.9082 194.5285 191.7773 191.8687 193.2180 C179.2205 200.2145 164.3235 201.9413 150.4102 198.0235 C146.7575 196.9910 142.0920 196.1263 139.4160 193.2253 C138.7635 192.5180 138.2278 191.7417 137.7162 190.9295 Z"></path>
<path id="" fill="#e8596d" fill-opacity="1.0" stroke="#000000" stroke-width="0.0" stroke-opacity="1.0" stroke-linecap="round" stroke-linejoin="round"  filling="0" d="M193.3500 231.9575 C194.0365 233.1832 193.8615 236.2283 193.4348 237.5965 C193.2858 238.0735 193.1747 238.0205 192.7665 238.2572 C192.5150 238.2075 191.9980 238.1465 191.7572 238.0117 C191.3763 237.7982 191.1707 237.5972 191.0768 237.1732 C190.6922 235.4353 192.4430 233.3403 193.3500 231.9575 Z"></path>
<path id="" fill="#feac33" fill-opacity="1.0" stroke="#000000" stroke-width="0.0" stroke-opacity="1.0" stroke-linecap="round" stroke-linejoin="round"  filling="0" d="M94.0340 204.8203 C93.9887 205.9332 93.9228 207.2175 93.6005 208.2880 C93.3058 209.2670 92.7418 210.0385 91.8213 210.5075 C89.2760 211.8047 84.9775 211.1170 82.3572 210.2120 C75.1957 207.7385 70.2932 200.8875 67.1255 194.3470 C58.9778 177.5233 59.2152 154.1817 65.2240 136.8180 C68.9795 125.9550 75.1860 116.1030 83.3625 108.0253 C84.7205 106.6707 86.4193 104.6915 88.2125 103.9427 C88.8620 103.6715 89.1483 103.6973 89.7900 103.9400 C90.2820 105.2263 89.3622 107.7182 89.1975 109.1243 C88.8460 112.1217 88.9662 115.3015 88.9610 118.3170 C88.9335 134.1413 92.4323 146.6297 102.2712 159.1255 C104.7773 161.8750 107.2080 164.8960 109.9977 167.3528 C113.6900 170.6042 118.9205 174.1873 122.0845 177.6302 C122.7895 178.3975 123.3470 179.0490 123.3033 180.1653 C123.1622 183.7623 116.2827 189.4113 113.6168 191.6783 C108.4810 196.0453 103.2773 199.5638 97.3293 202.7430 C96.2690 203.3098 94.7957 203.8862 94.0340 204.8203 Z"></path>
<path id="" fill="#f3900c" fill-opacity="1.0" stroke="#000000" stroke-width="0.0" stroke-opacity="1.0" stroke-linecap="round" stroke-linejoin="round"  filling="0" d="M102.2712 159.1255 C104.7773 161.8750 107.2080 164.8960 109.9977 167.3528 C113.6900 170.6042 118.9205 174.1873 122.0845 177.6302 C122.7895 178.3975 123.3470 179.0490 123.3033 180.1653 C123.1622 183.7623 116.2827 189.4113 113.6168 191.6783 C108.4810 196.0453 103.2773 199.5638 97.3293 202.7430 C96.2690 203.3098 94.7957 203.8862 94.0340 204.8203 C93.9252 204.5415 93.8262 204.2975 93.7897 203.9975 C93.5367 201.9305 93.6835 199.6450 93.6980 197.5553 C93.7742 186.5813 95.4215 175.8573 99.1960 165.5312 C99.9658 163.4250 100.8285 160.8707 102.2712 159.1255 Z"></path>
<path id="" fill="#292f33" fill-opacity="1.0" stroke="#000000" stroke-width="0.0" stroke-opacity="1.0" stroke-linecap="round" stroke-linejoin="round"  filling="0" d="M132.0717 100.3307 C138.9080 100.0215 144.6960 105.3220 144.9880 112.1588 C145.2800 118.9955 139.9650 124.7702 133.1275 125.0450 C126.3142 125.3190 120.5645 120.0270 120.2735 113.2145 C119.9825 106.4017 125.2600 100.6390 132.0717 100.3307 Z"></path>
<path id="" fill="#66757f" fill-opacity="1.0" stroke="#000000" stroke-width="0.0" stroke-opacity="1.0" stroke-linecap="round" stroke-linejoin="round"  filling="0" d="M316.9625 436.0000 C317.1475 435.9875 317.3350 435.9775 317.5200 435.9700 C319.3300 435.9100 331.2050 435.4625 332.2100 436.4275 C332.2100 436.5400 332.2175 436.6525 332.2050 436.7625 C332.0875 437.8550 331.2825 438.8975 330.6150 439.7325 C328.6100 442.2350 326.1375 444.4600 323.8700 446.7325 C320.1375 450.5050 316.3750 454.2450 312.5825 457.9575 C312.0625 458.4075 311.5400 458.8500 310.9850 459.2550 C309.3975 460.4050 307.5400 461.1675 305.5500 460.7850 C303.7025 460.4275 301.9875 459.0800 301.0200 457.4925 C300.3400 456.3775 299.9425 454.9975 300.2825 453.7050 C301.1025 450.5925 314.0175 437.7700 316.9625 436.0000 Z"></path>
<path id="" fill="#66757f" fill-opacity="1.0" stroke="#000000" stroke-width="0.0" stroke-opacity="1.0" stroke-linecap="round" stroke-linejoin="round"  filling="0" d="M249.3698 437.0100 C246.0355 437.3900 238.9727 437.1075 235.4377 436.8875 C233.2805 436.7550 231.4812 436.3675 230.0370 434.6725 C228.9540 433.4025 227.9823 431.7725 228.1850 430.0350 C228.3700 428.4525 229.6098 426.8350 230.8445 425.8975 C234.4230 423.1800 258.0225 424.5275 263.0700 425.0775 L263.3675 425.5875 C262.8100 427.7875 259.1250 430.4450 257.5350 432.1175 C256.4125 433.2975 255.0750 434.6100 255.1775 436.3525 C255.1875 436.5150 255.2025 436.6775 255.2150 436.8400 C253.8350 436.7750 250.5325 436.3025 249.3698 437.0100 Z"></path>
<path id="" fill="#66757f" fill-opacity="1.0" stroke="#000000" stroke-width="0.0" stroke-opacity="1.0" stroke-linecap="round" stroke-linejoin="round"  filling="0" d="M241.6640 450.7450 C243.1610 450.4175 245.5245 447.6275 246.7057 446.5450 C246.1950 447.3375 245.7272 448.0900 245.9897 449.0825 C246.2010 449.8800 246.9108 450.3150 247.6237 450.6075 C249.2495 451.2775 251.1625 451.4025 252.8600 451.9625 C254.2725 451.0125 255.5200 449.8650 257.3175 450.0975 C257.6225 450.3450 257.8050 450.3725 257.8600 450.7925 C258.0425 452.2050 256.7325 453.7025 255.8575 454.6900 C253.6425 457.1925 250.1650 460.8575 246.5995 460.9725 C245.0100 461.0225 243.6622 460.3725 242.5777 459.2375 C241.3468 457.9475 240.1850 456.3925 240.2410 454.5225 C240.2805 453.2025 241.0773 451.9000 241.6640 450.7450 Z"></path>
<path id="" fill="#fffefe" fill-opacity="1.0" stroke="#000000" stroke-width="0.0" stroke-opacity="1.0" stroke-linecap="round" stroke-linejoin="round"  filling="0" d="M249.3698 437.0100 C250.5325 436.3025 253.8350 436.7750 255.2150 436.8400 C254.6325 439.7900 249.0388 444.4600 246.7057 446.5450 C245.5245 447.6275 243.1610 450.4175 241.6640 450.7450 C242.7072 442.8200 248.8342 442.1250 249.3698 437.0100 Z"></path>
<path id="" fill="#77b155" fill-opacity="1.0" stroke="#000000" stroke-width="0.0" stroke-opacity="1.0" stroke-linecap="round" stroke-linejoin="round"  filling="0" d="M181.1223 316.7750 C182.0123 316.8750 182.9560 316.8875 183.5437 317.6475 C184.2787 318.6000 184.4535 320.0850 184.0645 321.2050 C183.7810 322.0250 183.6370 322.0000 182.8775 322.3400 C181.8338 322.0625 181.1785 321.8500 180.5490 320.9300 C179.9670 320.0800 179.4560 319.0325 179.8245 317.9775 C180.0985 317.1950 180.4275 317.1225 181.1223 316.7750 Z"></path>
<path id="" fill="#e9596e" fill-opacity="1.0" stroke="#000000" stroke-width="0.0" stroke-opacity="1.0" stroke-linecap="round" stroke-linejoin="round"  filling="0" d="M148.4130 244.8780 C149.4413 244.8570 150.0338 244.8172 150.8190 245.5520 C151.2883 246.6965 150.9982 248.1483 150.9120 249.3633 C150.3587 249.2402 149.6125 249.2075 149.1990 248.8082 C148.2233 247.8667 148.4438 246.1382 148.4130 244.8780 Z"></path>
</svg>