<svg xmlns="http://www.w3.org/2000/svg" viewBox="0 0 512 512" height="512.0px" width="512.0px">
<path id="" fill="#edd5a5" fill-opacity="1.0" stroke="#000000" stroke-width="0.0" stroke-opacity="1.0" stroke-linecap="round" stroke-linejoin="round"  filling="0" d="M217.8858 51.6803 C220.7533 51.7300 221.1130 54.8752 221.9415 57.0713 C228.3260 73.9498 239.5045 88.5948 254.1025 99.2045 C261.0525 104.3192 268.1100 109.4120 275.7925 113.3907 C288.9150 120.1877 303.2100 124.5345 316.9800 129.8123 C333.4350 136.1203 349.7775 144.1960 364.4875 153.9235 C374.3125 160.4207 384.3975 167.9595 392.8400 176.2173 C411.7250 194.9945 424.5825 218.9750 429.7725 245.0955 C436.7350 279.7125 428.2200 316.7300 408.7275 345.9025 C405.2825 351.0575 401.5600 356.2425 397.4800 360.9150 C394.3750 364.4725 390.8825 367.7925 387.5350 371.1200 C384.3925 374.2450 381.2900 377.5275 377.9375 380.4250 C350.6625 404.0200 314.7000 420.0925 279.5000 427.1250 C274.8525 428.1800 270.1025 428.9100 265.3850 429.5700 C254.8425 431.0475 246.2787 431.0450 235.7130 431.0475 C230.0222 431.0500 224.2180 431.2700 218.5403 430.8800 C187.0745 428.7775 156.9037 417.5500 131.7180 398.5725 C103.6030 377.1025 85.3118 345.2225 80.9673 310.1150 C77.2765 282.1775 84.2298 253.1325 96.5030 228.0128 C102.3152 216.1165 111.1042 202.3305 118.9333 191.6927 C127.5630 179.9668 137.3900 169.1922 146.2210 157.6405 C160.4713 139.0000 171.3533 115.8508 174.0025 92.4187 C174.3665 89.1988 174.8513 85.8763 174.7835 82.6308 C174.6517 76.3148 172.8593 70.1660 172.0188 63.9375 C180.6832 63.3158 187.5952 72.5143 197.0915 72.0260 C207.5565 71.4880 211.6090 58.4545 217.6890 51.8870 C217.7535 51.8172 217.8203 51.7493 217.8858 51.6803 Z"></path>
<path id="" fill="#e2a759" fill-opacity="1.0" stroke="#000000" stroke-width="0.0" stroke-opacity="1.0" stroke-linecap="round" stroke-linejoin="round"  filling="0" d="M226.2908 101.6670 C226.7230 101.7025 227.2400 101.7160 227.6492 101.8817 C228.6882 102.3022 229.2733 103.3238 229.8712 104.2168 C231.6565 106.8828 232.9783 109.8548 234.5443 112.6508 C236.5072 116.1560 238.7473 119.5140 240.9673 122.8605 C246.0013 130.5703 251.2575 138.1322 256.7300 145.5375 C260.9100 151.2040 265.3275 156.6792 269.5725 162.2968 C278.3275 173.8885 286.9200 185.7643 294.7350 198.0128 C302.6650 210.3902 309.7250 223.3058 315.8600 236.6647 C317.8300 240.8450 319.4300 245.2682 321.1325 249.5640 C328.6375 268.4825 332.6750 284.8175 334.3275 305.1650 C334.7650 310.5475 335.1775 315.8475 335.0800 321.2525 C335.0150 324.8225 334.5225 328.3625 334.2825 331.9200 C332.7800 354.2250 328.1675 373.7100 320.6225 394.6825 C319.5900 397.3250 316.9325 405.7175 314.8450 407.0425 C314.2175 407.4400 314.0525 407.4225 313.3575 407.3300 C312.0250 404.8175 313.7525 396.6925 313.9050 393.5575 C314.1025 389.4500 313.9825 385.2925 313.9700 381.1800 C313.9600 377.0325 314.0525 372.8675 313.8400 368.7275 C312.5900 344.3000 307.9775 319.7650 302.1750 296.0500 C294.8675 266.1650 283.8725 236.8565 270.9750 208.9555 C269.7300 206.2615 268.2400 203.6837 266.9600 201.0067 C265.5500 198.0640 264.3950 195.0038 262.9775 192.0638 C259.5500 184.9665 255.8775 177.9877 252.4225 170.9045 C248.2442 162.3398 244.2652 153.4393 240.6093 144.6330 C237.0760 136.1223 234.0910 127.5205 230.9902 118.8538 C229.7860 115.4877 226.1570 106.2360 225.9828 102.8780 C225.9600 102.4385 226.1268 102.0638 226.2908 101.6670 Z"></path>
<path id="" fill="#e2a759" fill-opacity="1.0" stroke="#000000" stroke-width="0.0" stroke-opacity="1.0" stroke-linecap="round" stroke-linejoin="round"  filling="0" d="M190.0578 111.7598 C190.7802 111.7040 191.4085 111.7050 192.1293 111.7770 C193.8120 113.2712 197.7068 135.3188 198.3930 139.6210 C199.9942 149.6467 201.3090 159.7160 202.3358 169.8168 C204.0445 187.6405 204.8907 205.5262 206.4720 223.3593 C209.2773 254.9975 214.1425 286.7650 223.1805 317.2625 C228.8240 336.3075 235.1500 355.1100 243.2580 373.2700 C245.8047 378.9725 248.8075 384.5525 251.6125 390.1375 C253.6175 394.1275 255.7025 398.0150 258.0325 401.8275 C260.1450 405.2800 267.7025 414.9350 268.2500 418.0050 C268.2675 418.0975 268.2750 418.1900 268.2825 418.2850 C268.3175 418.8100 268.2400 418.8725 267.9100 419.2375 C265.7275 419.4950 262.8600 416.9425 261.2400 415.6900 C253.1125 409.3925 245.8325 402.4475 238.5833 395.1850 C235.5573 392.1525 232.4040 389.1775 229.5938 385.9450 C212.3457 366.1000 197.8350 342.0000 190.0643 316.7925 C184.5383 298.8650 181.8965 279.8625 180.7795 261.1800 C180.5865 257.9475 180.2130 254.7275 180.0412 251.4950 C179.7753 246.4880 179.8503 241.3170 179.9870 236.3025 C180.0862 232.6602 180.6365 229.0547 180.8313 225.4203 C180.9922 222.4150 180.8987 219.4010 181.1200 216.3972 C182.7545 194.2060 186.4860 172.1642 188.6650 150.0157 C188.9505 147.1120 188.9370 144.1890 189.1647 141.2812 C189.4238 137.9772 189.8825 134.6712 189.9255 131.3548 C190.0098 124.8553 189.6075 118.2377 190.0578 111.7598 Z"></path>
<path id="" fill="#e2a759" fill-opacity="1.0" stroke="#000000" stroke-width="0.0" stroke-opacity="1.0" stroke-linecap="round" stroke-linejoin="round"  filling="0" d="M262.5275 124.7563 C263.4400 124.7558 264.2250 124.7907 265.0525 125.2070 C267.9475 126.6615 270.3850 129.3038 273.1175 131.0887 C279.1650 135.0403 285.6850 138.5335 292.0625 141.9295 C303.7625 148.1573 315.7625 153.7298 327.3175 160.2587 C358.5300 177.8970 382.8625 201.1017 394.5600 235.7648 C397.3250 243.9588 399.4300 252.2900 400.4975 260.8825 C401.1425 266.0675 401.1175 271.1950 401.1125 276.4100 C401.1100 280.4750 401.2775 284.6300 400.9600 288.6800 C399.1275 312.0375 391.1725 335.7150 380.8025 356.6050 C379.7025 358.8525 376.8400 365.9175 374.7425 367.0425 C374.1000 367.3850 373.7975 367.3225 373.1225 367.1375 C372.5675 365.1275 374.7325 359.0025 375.2450 356.7775 C377.3925 347.6100 379.0825 338.3425 380.3100 329.0100 C382.6575 310.9800 382.1950 293.3400 379.2125 275.4100 C376.5025 259.9000 371.8100 244.8022 365.2500 230.4892 C363.8000 227.3275 362.4725 224.0473 360.8275 220.9857 C343.3800 188.5332 320.6875 175.8210 292.0400 155.2982 C282.0700 148.1575 271.9600 140.0505 264.3900 130.3165 C263.5900 129.2865 261.8850 127.4090 261.8600 126.0515 C261.8475 125.3710 262.0850 125.1890 262.5275 124.7563 Z"></path>
<path id="" fill="#e2a759" fill-opacity="1.0" stroke="#000000" stroke-width="0.0" stroke-opacity="1.0" stroke-linecap="round" stroke-linejoin="round"  filling="0" d="M170.4462 148.5920 C171.3613 148.8895 172.3197 148.9680 173.2708 149.0870 C172.8225 171.6085 160.5255 193.0847 151.6235 213.2323 C143.9870 230.5165 138.8362 246.6962 137.0055 265.5500 C136.6930 268.7675 136.1978 272.0425 136.2083 275.2800 C136.2207 279.2600 136.7365 283.2125 137.0465 287.1775 C138.9998 312.1525 145.0225 336.0400 156.2700 358.4825 C157.7708 361.4750 159.2075 364.5625 160.8927 367.4575 C166.7930 377.5925 173.6723 386.9900 181.1120 396.0450 C184.1020 399.6825 187.3120 403.2975 190.4740 406.7850 C191.6763 408.1125 193.0910 409.2950 194.1978 410.6975 C194.6245 411.2400 195.1297 411.9925 195.2135 412.6950 C195.2852 413.3025 195.1575 413.6175 194.8310 414.1075 C194.7380 414.1250 194.6463 414.1525 194.5517 414.1600 C192.0957 414.3475 184.1107 408.0550 181.9720 406.5425 C156.4048 387.8925 135.2415 366.0450 122.4473 336.7100 C116.6470 323.4125 113.9788 309.6850 112.7260 295.3100 C112.4485 292.1250 112.0460 288.8725 112.0230 285.6750 C111.9962 281.9075 112.5172 278.1450 112.8805 274.4025 C115.8932 243.3600 129.2397 219.6690 145.5152 193.8307 C152.5627 182.6425 160.3025 171.5705 166.0035 159.6055 C167.7012 156.0420 169.0038 152.2652 170.4462 148.5920 Z"></path>
<path id="" fill="#d39954" fill-opacity="1.0" stroke="#000000" stroke-width="0.0" stroke-opacity="1.0" stroke-linecap="round" stroke-linejoin="round"  filling="0" d="M230.9673 430.9525 C260.2250 432.6200 292.0175 426.2600 319.0975 415.2900 C324.3000 413.1800 329.5800 410.9725 334.6500 408.5600 C337.2300 407.3350 339.6250 405.7300 342.2525 404.6075 C342.3500 404.5650 342.4475 404.5250 342.5475 404.4850 L342.7400 405.3850 C343.3450 408.3625 345.9075 410.3350 347.9650 412.3925 C350.5075 414.9350 355.3250 419.8225 355.1925 423.6725 C355.1375 425.2950 353.9575 426.8750 352.7650 427.8875 C351.7225 428.7750 350.4600 429.3425 349.0675 429.2075 C345.4275 428.8475 342.7325 424.0125 340.7100 421.3800 C339.7750 420.1600 338.7100 419.0325 337.7250 417.8475 C336.4850 419.6150 335.1875 421.4350 333.5225 422.8325 C331.3650 424.6425 329.3050 425.0125 326.5900 424.8150 L326.8575 424.4475 C324.7275 423.2650 322.5200 422.2700 320.4150 421.0325 C321.4525 422.4000 322.5950 424.4575 323.8525 425.5800 L323.6350 425.5375 C323.7375 425.5000 323.8425 425.4625 323.9450 425.4200 C324.6975 425.1200 323.9100 425.4550 324.6000 425.0400 C324.6400 425.0175 324.6925 425.0200 324.7375 425.0075 C323.7175 427.5275 331.0225 435.5200 330.1200 440.2625 C329.8325 441.7375 328.9525 443.0325 327.6850 443.8425 C326.4750 444.6175 324.9225 444.9650 323.5125 444.6125 C318.7500 443.4250 315.9650 434.1225 313.2750 430.2075 C311.9000 428.2050 309.9700 426.6925 308.6850 424.6050 C308.0775 426.8900 307.2150 429.0525 305.9550 431.0600 C303.8975 434.3300 300.7325 436.7950 296.9125 437.5850 C291.6750 438.6675 285.1150 435.8300 280.8125 433.0550 C280.6275 436.6050 282.0950 441.5500 279.5425 444.3925 C278.5125 445.5375 277.0075 446.1950 275.4775 446.2725 C273.9600 446.3500 272.5225 445.7775 271.4300 444.7300 C270.2675 443.6150 269.5175 442.1950 269.4600 440.5800 C269.4450 440.1450 269.4100 439.7175 269.3775 439.2825 C266.1900 442.9175 266.2950 444.9475 260.9325 446.4750 C258.3500 445.8275 256.2700 444.9725 254.2375 443.2150 C253.4275 447.8525 253.2725 452.5100 252.9850 457.1975 C252.3750 458.1075 251.6325 459.1075 250.8000 459.8250 C249.6220 460.8425 248.2843 461.1250 246.7552 460.9825 C245.4028 460.8575 244.2207 460.2650 243.3867 459.1775 C240.3065 455.1650 242.4637 444.6050 243.1992 439.9000 C241.0370 440.8250 238.9518 441.3850 236.6342 441.7675 C235.7440 441.4125 234.7675 441.0325 234.0060 440.4450 C231.2195 438.2875 231.2735 434.1550 230.9673 430.9525 Z"></path>
<path id="" fill="#e2a75a" fill-opacity="1.0" stroke="#000000" stroke-width="0.0" stroke-opacity="1.0" stroke-linecap="round" stroke-linejoin="round"  filling="0" d="M189.5160 106.6712 C190.0058 106.7605 190.5383 106.8372 191.0050 107.0123 C191.5245 107.2072 192.0105 107.7588 192.1682 108.2798 C192.3510 108.8828 192.2790 109.5843 191.9400 110.1050 C191.2675 110.1947 190.7115 110.2830 190.0385 110.1190 C189.7372 109.8715 189.3600 109.6695 189.2157 109.2920 C188.8938 108.4498 189.1390 107.4528 189.5160 106.6712 Z"></path>
<path id="" fill="#e7be7f" fill-opacity="1.0" stroke="#000000" stroke-width="0.0" stroke-opacity="1.0" stroke-linecap="round" stroke-linejoin="round"  filling="0" d="M171.8952 144.6570 C172.5305 144.7685 172.9688 144.8630 173.5445 145.1767 C174.0195 145.9135 173.9933 146.5235 174.0130 147.3652 C173.7038 147.7793 173.8168 147.7467 173.2595 147.9043 C172.3590 147.9633 171.7975 148.1422 170.9967 147.6992 C170.7052 146.6062 171.3865 145.6198 171.8952 144.6570 Z"></path>
<path id="" fill="#d59e5d" fill-opacity="0.988235" stroke="#000000" stroke-width="0.0" stroke-opacity="1.0" stroke-linecap="round" stroke-linejoin="round"  filling="0" d="M320.4150 421.0325 C322.5200 422.2700 324.7275 423.2650 326.8575 424.4475 L326.5900 424.8150 L324.7375 425.0075 C324.6925 425.0200 324.6400 425.0175 324.6000 425.0400 C323.9100 425.4550 324.6975 425.1200 323.9450 425.4200 C323.8425 425.4625 323.7375 425.5000 323.6350 425.5375 L323.8525 425.5800 C322.5950 424.4575 321.4525 422.4000 320.4150 421.0325 Z"></path>
</svg>