<svg xmlns="http://www.w3.org/2000/svg" viewBox="0 0 512 512" height="512.0px" width="512.0px">
<path id="" fill="#f9743e" fill-opacity="1.0" stroke="#000000" stroke-width="0.0" stroke-opacity="1.0" stroke-linecap="round" stroke-linejoin="round"  filling="0" d="M250.3975 147.0850 C251.2825 146.9945 252.2300 146.9962 253.1225 147.0043 C263.2250 147.0932 273.9200 153.6458 280.8275 160.6460 C284.3950 164.2605 287.3550 168.7485 289.6400 173.2685 C299.0700 191.9178 297.3425 212.7318 296.1675 232.8745 C295.9125 237.2258 296.0200 241.5932 295.8025 245.9467 C295.5925 250.1950 295.1175 254.4575 295.1975 258.7125 C295.3575 267.3575 295.7500 276.1500 296.5125 284.7625 C297.2950 293.5825 298.4625 302.4075 298.7700 311.2600 C298.9550 316.6350 298.0800 321.9125 298.0375 327.2700 C293.6525 326.7600 289.0350 327.0275 284.6200 327.0275 L261.3750 327.0375 C245.3362 326.9850 229.2970 327.0125 213.2585 327.1225 C212.7060 317.2075 213.1017 307.2475 212.9798 297.3225 L212.0210 251.1800 C211.9015 242.8390 211.3378 234.4003 210.9625 226.0612 C210.5440 216.7563 210.1232 208.1765 212.3250 199.0055 C214.3990 190.6740 217.9673 182.7880 222.8562 175.7303 C224.8237 172.8685 227.0773 170.1845 228.9325 167.2490 C231.4185 163.3152 233.0390 159.0400 235.9830 155.3635 C239.5640 150.8915 244.6752 147.7400 250.3975 147.0850 Z"></path>
<path id="" fill="#292f33" fill-opacity="1.0" stroke="#000000" stroke-width="0.0" stroke-opacity="1.0" stroke-linecap="round" stroke-linejoin="round"  filling="0" d="M342.4050 405.0550 C343.1650 405.0100 343.9350 404.9625 344.6975 405.0025 C350.7075 405.3350 353.3850 410.5750 357.0200 414.5175 C359.0875 416.7600 361.2350 419.1625 363.5200 421.1800 C364.5100 422.0575 365.7025 422.7300 366.7675 423.5150 C370.1150 425.9850 373.3200 428.3625 376.9850 430.3825 C380.9000 432.5400 389.9950 435.5450 392.5975 438.3700 C392.7500 439.5275 392.6175 440.3175 392.0600 441.3550 C389.4200 446.2850 385.1350 448.5400 379.9450 450.0050 C376.7700 450.6775 373.5100 450.8225 370.2700 450.7800 C363.5975 450.6950 342.3400 448.6950 337.4050 445.5100 C332.7925 442.5375 336.3025 432.1225 335.4050 427.3850 C334.7150 423.7300 330.8025 421.4000 330.2150 418.2575 C329.9400 416.7900 330.7175 415.3225 331.4900 414.1325 C334.1075 410.0925 337.5325 406.1000 342.4050 405.0550 Z"></path>
<path id="" fill="#292f33" fill-opacity="1.0" stroke="#000000" stroke-width="0.0" stroke-opacity="1.0" stroke-linecap="round" stroke-linejoin="round"  filling="0" d="M149.4012 431.8150 C151.0775 432.6775 152.7640 433.5025 154.5038 434.2300 C164.3333 438.3425 169.3712 435.7475 178.6183 431.9950 C183.8813 437.6350 186.4783 444.2825 186.7722 451.9650 C186.8672 454.4475 186.6990 457.2450 184.8582 459.1200 C184.0977 459.8950 183.0838 460.4550 182.0305 460.7150 C178.6505 461.5450 166.0235 460.9400 161.6250 460.9175 L139.3172 460.9575 C134.9360 460.9900 130.4467 461.2475 126.0765 460.9800 C124.7690 460.9000 123.2780 460.7375 122.0723 460.2225 C121.0598 459.7900 120.3788 458.9425 119.9755 457.9350 C118.7337 454.8375 119.8757 450.3975 121.0760 447.3950 C125.9735 435.1525 139.2018 436.1825 149.4012 431.8150 Z"></path>
<path id="" fill="#4289c0" fill-opacity="1.0" stroke="#000000" stroke-width="0.0" stroke-opacity="1.0" stroke-linecap="round" stroke-linejoin="round"  filling="0" d="M179.8675 433.4225 C174.5143 434.6900 169.6492 436.8375 164.0405 436.8825 C158.9258 436.9250 149.7875 434.9275 146.1155 431.3100 C145.7283 430.2650 145.4962 429.2000 145.3740 428.0975 C144.7697 422.6450 144.6057 417.0800 144.2047 411.6025 L141.7072 378.5825 L140.0573 357.4175 C139.5132 350.7725 138.8275 344.1325 139.1237 337.4550 C139.5182 328.5625 141.0352 318.9025 147.9828 312.6425 C150.0872 310.7450 152.5275 309.3150 155.1133 308.1800 C167.1118 302.9225 180.3307 299.9950 193.0083 296.8150 C198.1548 295.5250 203.6163 293.7800 208.8952 293.2650 C213.5075 292.8150 218.2420 293.0925 222.8743 293.1200 L245.8642 293.1775 L278.9800 293.1725 C285.1050 293.1600 291.3175 292.9225 297.4300 293.2025 C297.8050 296.6500 298.6125 300.0850 299.1600 303.5100 C300.5025 311.9300 300.5000 320.6875 298.0175 328.8925 C296.5825 333.6300 294.1725 337.9550 292.8075 342.7825 C292.7100 342.7350 292.6100 342.6900 292.5150 342.6400 C292.1575 342.4575 291.9175 342.2625 291.6225 341.9975 C290.9825 341.9025 290.7575 342.0450 290.2325 342.4225 C287.4775 344.4150 285.0375 346.5550 282.0325 348.2400 C272.5350 353.5625 260.1775 354.9800 249.3967 354.3800 C241.2660 353.9300 233.2545 352.7250 225.0768 353.0175 L191.1915 352.8375 C190.2235 364.9875 188.1625 377.1175 186.6212 389.2125 C185.6055 397.2350 184.5302 405.2525 183.3955 413.2600 C182.6995 418.5075 182.2182 423.8425 181.2253 429.0425 C180.9255 430.6100 180.5793 431.9875 179.8675 433.4225 Z"></path>
<path id="" fill="#2a6797" fill-opacity="1.0" stroke="#000000" stroke-width="0.0" stroke-opacity="1.0" stroke-linecap="round" stroke-linejoin="round"  filling="0" d="M225.0768 353.0175 C233.2545 352.7250 241.2660 353.9300 249.3967 354.3800 C260.1775 354.9800 272.5350 353.5625 282.0325 348.2400 C285.0375 346.5550 287.4775 344.4150 290.2325 342.4225 C290.7575 342.0450 290.9825 341.9025 291.6225 341.9975 C291.9175 342.2625 292.1575 342.4575 292.5150 342.6400 C292.6100 342.6900 292.7100 342.7350 292.8075 342.7825 C291.1350 349.3125 289.0375 355.7700 287.0450 362.2100 L277.4650 393.1275 C275.8700 398.3750 273.7775 403.7975 272.6025 409.1300 C272.3800 410.1375 272.1650 410.9450 272.6525 411.8650 C273.5950 412.5375 274.4425 412.8100 275.5775 413.0275 C281.5550 414.1800 287.8900 414.3950 293.9425 415.1300 L314.2725 417.7000 C317.1400 418.0525 320.0500 418.5550 322.9300 418.7550 C324.3775 418.8575 329.4675 418.1125 330.3500 418.4950 C332.4200 419.3925 336.5150 428.4875 336.9075 430.8900 C337.6750 435.5775 335.5575 440.8775 336.7575 445.2225 C336.0475 446.2400 335.3725 447.3300 334.5400 448.2525 C330.9650 449.3150 327.0700 449.4575 323.3675 449.8575 C318.8750 450.3525 314.3850 450.8825 309.9000 451.4500 L274.5850 455.8200 C267.5525 456.6725 260.1625 458.0350 253.0650 457.7925 C247.3922 457.6000 241.4662 456.2175 236.4690 453.4775 C229.6580 449.7475 225.5148 443.0600 223.3763 435.7350 C220.5822 426.1650 222.4577 408.9175 223.0152 398.6475 L224.0527 375.6175 C224.3853 368.1550 223.8517 360.4100 225.0768 353.0175 Z"></path>
<path id="" fill="#7c533e" fill-opacity="1.0" stroke="#000000" stroke-width="0.0" stroke-opacity="1.0" stroke-linecap="round" stroke-linejoin="round"  filling="0" d="M233.1680 54.1032 C235.0170 53.9915 236.8700 53.9563 238.7220 53.9975 C249.0788 54.2450 260.6425 57.8997 267.9325 65.6022 C275.7850 73.8995 279.4000 85.5033 279.0775 96.7567 C278.5725 114.3245 267.7300 127.1492 255.6875 138.5717 C257.2575 141.6300 258.2725 144.5715 259.2050 147.8607 C249.9442 148.6022 242.2793 154.9975 235.6710 160.9275 C235.2150 161.3145 234.7555 161.7335 234.2615 162.0703 C233.7455 162.4218 233.4353 162.5152 232.8320 162.4115 C232.5392 161.9580 232.4527 161.6073 232.4690 161.0640 C232.5175 159.4390 232.8640 157.7587 233.0397 156.1375 C233.4015 152.8010 233.5630 149.4680 233.2753 146.1212 C230.6738 146.5103 228.0672 146.9120 225.4532 147.2072 C218.0213 148.0460 211.7578 145.6848 205.9937 141.0385 C196.4355 133.3338 191.6142 120.2590 190.3698 108.3780 C189.1355 96.5957 191.2420 85.8867 195.8720 75.0520 C196.8768 72.7015 197.9025 69.9755 199.5777 68.0182 C201.0735 66.2710 203.5432 66.1418 205.4653 65.0963 C207.8882 63.7783 210.1308 62.0665 212.5105 60.6582 C218.6195 57.0430 226.0920 54.6565 233.1680 54.1032 Z"></path>
<path id="" fill="#0b0200" fill-opacity="1.0" stroke="#000000" stroke-width="0.0" stroke-opacity="1.0" stroke-linecap="round" stroke-linejoin="round"  filling="0" d="M188.5720 80.8610 C188.2397 78.8430 188.2272 76.9620 188.5205 74.9413 C189.1918 70.3152 191.3947 65.4615 195.2648 62.6740 C198.0652 60.6568 201.0833 59.7988 204.5050 59.8887 C205.5737 59.9167 206.7615 60.0403 207.7988 59.7592 C210.1308 59.1273 212.1393 57.0740 214.3150 55.9670 C223.2545 51.4185 232.8755 50.4283 242.6825 52.0847 C253.0300 53.8322 268.0600 59.6125 274.2825 68.5030 C280.9875 78.0865 282.3825 90.7775 280.3775 102.0775 C278.6600 111.7510 274.0225 122.2207 266.9725 129.2050 C264.5250 131.6302 261.4750 133.8705 258.6525 135.8557 C258.4650 137.2448 258.4875 139.5578 257.8200 140.7130 C257.0025 140.8788 256.4825 140.5360 255.8050 140.0853 C255.1950 139.6775 254.6275 139.2305 253.9875 138.8640 C253.4350 139.0208 253.0750 139.0542 252.5050 138.9940 C251.5925 137.9753 252.1100 134.3992 251.7575 132.8500 C250.7475 128.4068 248.9388 124.6113 245.8503 121.2460 C242.9970 118.1367 239.9755 116.4057 236.2210 114.5713 C224.3678 108.7798 220.7960 105.3200 215.3983 93.2360 L215.3115 93.0417 C214.7755 92.7125 214.6897 92.7160 214.0555 92.7253 C212.1118 93.8318 212.7310 96.6165 211.3255 97.9738 C210.8875 98.3968 210.5105 98.4408 209.9328 98.4073 C207.8842 98.2888 206.6373 95.0327 205.2515 93.7117 C199.8092 88.5247 193.7580 86.7765 188.5720 80.8610 Z"></path>
<path id="" fill="#7a523d" fill-opacity="1.0" stroke="#000000" stroke-width="0.0" stroke-opacity="1.0" stroke-linecap="round" stroke-linejoin="round"  filling="0" d="M253.9875 138.8640 C255.1275 137.6925 257.2300 136.7225 258.6525 135.8557 C258.4650 137.2448 258.4875 139.5578 257.8200 140.7130 C257.0025 140.8788 256.4825 140.5360 255.8050 140.0853 C255.1950 139.6775 254.6275 139.2305 253.9875 138.8640 Z"></path>
<path id="" fill="#7c533e" fill-opacity="1.0" stroke="#000000" stroke-width="0.0" stroke-opacity="1.0" stroke-linecap="round" stroke-linejoin="round"  filling="0" d="M238.5975 205.0025 C241.1125 204.9495 243.7945 205.5030 246.2897 205.8313 C255.4850 207.0412 264.3000 208.8112 273.2175 211.3692 C273.1325 216.7700 271.6475 222.3483 270.5475 227.6330 C267.5425 242.0875 262.2325 266.5825 254.9950 279.1100 C251.7300 284.7650 246.4485 289.6550 240.6850 292.7075 C230.6938 298.0025 215.3242 300.1500 204.1703 301.6300 C199.1207 302.3000 193.8698 302.7450 188.9212 303.9575 C184.4852 305.0450 180.9360 307.5700 176.8878 309.5250 C174.1310 310.8575 171.2598 311.6525 168.3147 312.4350 C161.1365 314.0200 154.3342 318.2125 146.8683 318.1950 C144.9527 318.1900 142.6935 317.9050 141.3240 316.4125 C140.3950 315.4000 140.0603 313.9300 140.1107 312.5850 C140.3320 306.7125 153.1400 296.6100 158.1330 293.9875 C162.0697 291.9200 166.5370 290.7775 170.7538 289.4250 C175.8203 287.8125 180.8618 286.1225 185.8772 284.3575 C192.5525 282.0250 199.3047 279.6825 205.8472 276.9950 C208.6790 275.8300 211.3445 274.2700 214.1888 273.1525 C219.3248 271.1325 225.7632 269.6100 229.8015 265.7050 C230.2200 261.0325 231.2973 256.4025 231.8315 251.7300 C233.2445 239.3760 234.3642 226.9978 236.0228 214.6727 C236.3150 212.5007 236.5618 208.0083 237.2870 206.1510 C237.5620 205.4473 237.9825 205.3423 238.5975 205.0025 Z"></path>
</svg>