<svg xmlns="http://www.w3.org/2000/svg" viewBox="0 0 512 512" height="512.0px" width="512.0px">
<path id="" fill="#ccd6dd" fill-opacity="1.0" stroke="#000000" stroke-width="0.0" stroke-opacity="1.0" stroke-linecap="round" stroke-linejoin="round"  filling="0" d="M71.7368 265.8675 C76.0455 265.8475 80.2223 266.4625 84.5023 266.7275 L108.1418 268.0950 C111.0048 268.2850 113.8505 268.6600 116.7180 268.8075 L256.7825 276.8200 C260.4375 277.0125 264.1000 276.8300 267.7525 277.0025 C271.6150 277.1825 275.4525 277.7750 279.3225 277.8950 C283.2275 278.0175 287.1450 277.8200 291.0450 278.0200 L400.9450 283.7650 C403.6950 283.9375 406.4575 283.8900 409.2100 284.0375 C411.9800 284.1850 414.7350 284.5400 417.5000 284.7325 C420.4775 284.9400 423.4650 284.9000 426.4425 285.0475 C429.1200 285.1825 431.7900 285.5425 434.4675 285.7275 C437.5375 285.9400 440.6600 285.7600 443.7150 286.1175 C446.6450 286.4625 448.1075 287.2425 449.9775 289.6000 C450.6975 297.3200 448.9250 307.3275 447.9225 315.1800 C446.4400 326.3800 444.6100 337.5300 442.4375 348.6175 C437.9175 372.2475 431.9400 395.2100 420.2650 416.4275 C417.3325 421.5600 413.9050 425.9750 409.6625 430.0725 C405.4250 434.1650 400.8425 436.7700 394.9700 437.6600 C388.6550 438.6200 378.0500 438.0300 371.4050 438.0225 L325.7025 438.0125 L231.5390 438.0175 C215.8522 438.0175 200.0818 438.3775 184.4068 438.0100 C165.1785 437.5600 147.5527 427.9425 132.6608 416.4875 C127.7175 412.6850 123.0510 408.8025 118.7507 404.2725 C91.7383 375.8025 74.4545 338.9050 66.6025 300.6825 C64.5753 290.8150 62.7410 280.8825 63.0148 270.7650 C63.3665 270.2275 63.7323 269.7150 64.1673 269.2400 C66.3702 266.8350 68.5640 266.0150 71.7368 265.8675 Z"></path>
<path id="" fill="#d5ab88" fill-opacity="1.0" stroke="#000000" stroke-width="0.0" stroke-opacity="1.0" stroke-linecap="round" stroke-linejoin="round"  filling="0" d="M151.0677 202.6350 C152.4337 202.8683 153.4795 203.8542 154.4543 204.7870 C159.1582 209.2900 163.4198 215.5403 166.6770 221.1767 C171.2185 229.0360 178.9772 246.5748 179.1750 255.3825 C179.2253 257.6175 179.1073 260.1550 177.4220 261.8175 C172.4003 266.7700 162.8125 266.0325 156.3750 266.0250 C150.3667 266.0300 144.2088 266.3425 138.2330 265.7050 C133.8362 265.2350 131.1263 264.1550 128.3005 260.6275 C127.5153 256.0275 127.6390 248.5397 128.2652 243.8765 C130.0087 230.8940 137.1030 218.8705 145.2923 208.9260 C147.0757 206.7605 148.8297 204.3500 151.0677 202.6350 Z"></path>
<path id="" fill="#963b22" fill-opacity="1.0" stroke="#000000" stroke-width="0.0" stroke-opacity="1.0" stroke-linecap="round" stroke-linejoin="round"  filling="0" d="M128.4753 187.8980 C129.3795 187.7710 130.3027 187.7480 131.2150 187.7218 C137.5140 187.5397 146.6138 189.0620 151.2920 193.6825 C154.4532 196.8050 153.7023 201.0100 152.0797 204.7240 C150.5502 208.2247 147.4382 211.4425 145.1670 214.5378 C140.6732 220.6617 136.3513 227.2920 133.3575 234.2948 C129.3825 243.5930 128.8205 250.5325 129.0242 260.3900 C125.8155 260.0150 122.5675 260.0225 119.3430 259.8450 C112.7300 259.4800 106.0927 259.1250 99.4950 258.5525 C92.8170 258.3425 85.9900 258.4000 80.5728 253.8775 C76.0788 250.1250 73.1940 243.8510 72.7292 238.0647 C71.9998 228.9825 75.9652 220.7470 81.7128 213.9637 C93.0295 200.6080 110.7737 189.3155 128.4753 187.8980 Z"></path>
<path id="" fill="#ccd6dd" fill-opacity="1.0" stroke="#000000" stroke-width="0.0" stroke-opacity="1.0" stroke-linecap="round" stroke-linejoin="round"  filling="0" d="M329.3100 97.0665 C336.1650 96.5835 343.5225 96.5258 350.0750 98.7900 C356.9075 101.1512 364.6675 105.9512 368.2325 112.4855 C369.3450 114.5215 369.5650 117.0210 370.6125 119.1438 C370.6625 119.2420 370.7125 119.3390 370.7625 119.4365 C373.3525 120.1905 375.5400 121.0995 377.5525 122.9510 C379.8850 125.0970 381.2700 127.7567 381.3000 130.9577 C381.3300 134.0002 380.1775 136.4830 378.0375 138.6158 C376.6125 140.0360 375.2475 140.8822 373.2775 141.4102 C369.0600 142.5425 364.0125 142.0430 359.6700 142.0405 L342.3750 142.0165 L315.4575 142.0253 C310.4125 142.0338 305.1000 142.3913 300.0925 141.8090 C298.3150 141.6025 296.4675 141.2155 294.9400 140.2482 C292.3750 138.6252 290.7150 135.5128 290.1675 132.5750 C289.3975 128.4292 292.0300 123.2783 295.6275 121.1718 C297.1475 120.2818 300.2675 120.2055 301.3125 118.9095 C302.2300 117.7725 302.4375 115.0720 303.0700 113.6280 C303.5750 112.4702 304.3350 111.3470 305.0625 110.3158 C310.4075 102.7292 320.4450 98.5428 329.3100 97.0665 Z"></path>
<path id="" fill="#99aab4" fill-opacity="1.0" stroke="#000000" stroke-width="0.0" stroke-opacity="1.0" stroke-linecap="round" stroke-linejoin="round"  filling="0" d="M438.0525 277.9750 C442.2350 278.0375 446.6650 277.9100 450.7900 278.6550 C454.1650 279.2625 457.1775 280.7975 459.1325 283.7150 C460.8900 286.3025 461.4875 289.5050 460.7825 292.5525 C460.0375 295.7100 457.8375 298.5575 455.0825 300.2475 C454.0075 300.9050 452.9975 301.2500 451.7600 301.4475 C448.6450 301.9425 445.5775 301.3625 442.4650 301.1775 L425.4200 300.1675 L391.2300 298.1475 L204.1225 287.1450 L102.2125 281.1500 C91.4733 280.5425 80.7260 280.1325 69.9962 279.3350 C66.5518 279.0800 62.7530 279.2350 59.4073 278.4175 C56.4523 277.7125 53.9295 275.8000 52.4540 273.1450 C50.9538 270.4425 50.5020 267.0200 51.4458 264.0600 C54.8350 253.4300 67.3867 255.8175 75.9187 256.5675 C77.4145 256.7000 79.4297 257.1650 80.8115 256.4600 C81.1447 256.0025 81.4482 255.6100 81.8615 255.2200 C84.3180 255.0750 86.0862 257.0525 88.3660 257.5500 C91.1823 258.1625 94.4975 257.9225 97.3813 258.0550 L116.4980 259.0750 L148.3715 261.0925 C151.6015 261.3025 154.7997 261.7975 158.0403 261.8900 C161.2632 261.9800 164.5410 261.8125 167.7533 262.0350 C169.9930 262.1875 172.2527 262.9400 174.4962 262.8775 C175.0833 262.8625 175.5267 262.6850 176.0047 262.3475 C176.1358 262.2575 176.2628 262.1575 176.3918 262.0625 C177.2717 261.2425 178.0948 260.3325 179.2295 259.8825 C179.7912 259.9700 180.0565 259.9975 180.3392 260.5800 C180.6283 261.1750 180.6823 262.1375 180.7758 262.7975 C183.0777 263.4225 188.4928 263.0500 191.2855 263.2075 L225.1235 265.2475 L353.2725 272.8975 C369.5500 273.6700 385.8200 274.6325 402.0775 275.7850 C405.9775 276.0700 411.3475 275.6450 414.9450 276.3400 C415.7175 277.1925 430.8600 277.6650 433.1075 277.7775 C434.7550 277.8725 436.4025 277.9375 438.0525 277.9750 Z"></path>
<path id="" fill="#d5ab88" fill-opacity="1.0" stroke="#000000" stroke-width="0.0" stroke-opacity="1.0" stroke-linecap="round" stroke-linejoin="round"  filling="0" d="M176.3918 262.0625 C177.2717 261.2425 178.0948 260.3325 179.2295 259.8825 C179.7912 259.9700 180.0565 259.9975 180.3392 260.5800 C180.6283 261.1750 180.6823 262.1375 180.7758 262.7975 C179.2103 262.8375 177.8260 262.7300 176.3918 262.0625 Z"></path>
<path id="" fill="#ccd6dd" fill-opacity="1.0" stroke="#000000" stroke-width="0.0" stroke-opacity="1.0" stroke-linecap="round" stroke-linejoin="round"  filling="0" d="M323.9700 97.9498 C324.0050 94.5255 324.4300 91.1892 325.1225 87.8360 C327.0750 78.3770 331.1975 73.0088 337.9475 66.4027 C348.6075 55.9670 366.5250 50.8188 381.3200 50.9360 C397.2025 51.0618 415.2950 56.5410 426.5925 68.0390 C432.1875 73.7307 436.2875 81.7295 437.5925 89.5973 C438.7075 96.3230 438.0750 103.7340 438.0725 110.5623 L438.0650 148.0460 L438.0675 234.0805 C438.0675 248.4450 438.2150 262.8275 438.0675 277.1900 C438.0650 277.4525 438.0600 277.7125 438.0525 277.9750 C436.4025 277.9375 434.7550 277.8725 433.1075 277.7775 C430.8600 277.6650 415.7175 277.1925 414.9450 276.3400 C415.2600 265.9475 414.9725 255.4625 415.0175 245.0618 C410.0750 244.4453 405.0975 243.8210 400.4250 241.9948 C396.3125 240.3878 393.5475 237.7352 391.7950 233.6832 C392.4850 231.4585 393.4500 229.4735 395.1125 227.7973 C400.1500 222.7195 408.2550 221.9125 415.0075 221.9277 L415.0250 217.1015 C414.7250 206.8675 414.9850 196.5578 414.9850 186.3168 L414.9725 127.2322 L414.9750 105.8570 C414.9950 101.7712 415.3175 97.4417 414.8600 93.3882 C414.5550 90.6758 413.4025 88.2500 411.9100 85.9928 C407.8650 79.8730 398.4475 76.4130 391.5775 75.0140 C380.9225 72.8443 365.9675 74.1608 356.7475 80.3282 C353.6925 82.3723 349.8125 85.9375 348.4650 89.4230 C347.6875 91.4352 347.3750 93.7725 346.9450 95.8870 C346.8225 96.5800 346.8475 97.2635 346.3650 97.7870 C341.4600 97.1110 336.8700 96.4895 331.8950 96.9317 C329.7725 97.1205 325.7875 98.0355 323.9700 97.9498 Z"></path>
<path id="" fill="#99aab5" fill-opacity="1.0" stroke="#000000" stroke-width="0.0" stroke-opacity="1.0" stroke-linecap="round" stroke-linejoin="round"  filling="0" d="M415.0250 217.1015 C415.7375 219.8457 415.5000 241.3885 415.0175 245.0618 C410.0750 244.4453 405.0975 243.8210 400.4250 241.9948 C396.3125 240.3878 393.5475 237.7352 391.7950 233.6832 C392.4850 231.4585 393.4500 229.4735 395.1125 227.7973 C400.1500 222.7195 408.2550 221.9125 415.0075 221.9277 L415.0250 217.1015 Z"></path>
<path id="" fill="#99aab5" fill-opacity="1.0" stroke="#000000" stroke-width="0.0" stroke-opacity="1.0" stroke-linecap="round" stroke-linejoin="round"  filling="0" d="M346.9450 95.8870 C347.0000 96.4948 346.8825 97.4918 347.4250 97.8790 C348.9125 98.9377 351.7900 99.3637 353.5750 100.0123 C362.1000 103.1103 367.1025 108.3423 369.9700 116.8605 C370.2175 117.6003 370.2525 117.9727 370.0375 118.7185 C368.4475 120.3075 365.4875 120.0482 363.3975 120.0453 C342.9325 120.0170 322.4225 119.7072 301.9600 119.9955 C301.8250 114.4685 302.7050 111.0730 306.5775 107.0240 C311.1200 102.2747 317.6975 99.4845 323.9700 97.9498 C325.7875 98.0355 329.7725 97.1205 331.8950 96.9317 C336.8700 96.4895 341.4600 97.1110 346.3650 97.7870 C346.8475 97.2635 346.8225 96.5800 346.9450 95.8870 Z"></path>
<path id="" fill="#99aab5" fill-opacity="1.0" stroke="#000000" stroke-width="0.0" stroke-opacity="1.0" stroke-linecap="round" stroke-linejoin="round"  filling="0" d="M165.4160 434.8175 C167.4167 434.9625 169.4897 435.5100 171.4637 435.8950 C174.9905 436.5850 178.5578 437.2625 182.1360 437.6150 C191.5847 438.5475 201.7218 437.9425 211.2340 437.9025 C210.0242 444.2200 208.5688 449.7275 203.9845 454.4825 C200.8683 457.3250 196.7290 459.6325 192.5860 460.5125 C186.9953 461.7000 180.3042 460.5525 175.5190 457.4075 C170.4547 454.0775 166.6355 449.2550 165.4235 443.2550 C165.0200 441.2575 164.3210 436.4575 165.4160 434.8175 Z"></path>
<path id="" fill="#99aab5" fill-opacity="1.0" stroke="#000000" stroke-width="0.0" stroke-opacity="1.0" stroke-linecap="round" stroke-linejoin="round"  filling="0" d="M389.8825 437.8700 L393.1800 437.8850 C392.7550 442.6475 391.1650 447.6925 388.3875 451.6150 C385.0600 456.3150 379.2000 459.8350 373.5250 460.7350 C367.2900 461.7275 360.9225 459.8475 355.8700 456.1975 C355.1325 455.6150 354.4200 454.9975 353.7375 454.3500 C348.8575 449.7625 347.1075 444.5150 346.9150 437.9425 C361.2375 438.0000 375.5600 437.9750 389.8825 437.8700 Z"></path>
</svg>