<svg xmlns="http://www.w3.org/2000/svg" viewBox="0 0 512 512" height="512.0px" width="512.0px">
<path id="" fill="#99aab5" fill-opacity="1.0" stroke="#000000" stroke-width="0.0" stroke-opacity="1.0" stroke-linecap="round" stroke-linejoin="round"  filling="0" d="M302.8625 246.8472 C303.0675 244.5215 303.0300 242.1645 303.2125 239.8318 C303.7625 233.1232 304.4825 226.4300 305.3750 219.7585 C309.0100 193.4910 317.9125 158.8598 331.9700 136.1250 C339.5975 123.7888 347.2550 115.2148 357.4200 104.9885 C361.2575 101.1270 365.0225 97.0188 369.0650 93.3842 C382.4300 81.3740 397.9025 70.6445 413.3650 61.5235 C420.4050 57.3703 427.9700 52.4713 436.0175 50.5672 C436.2900 61.5567 431.8975 73.2592 429.1650 83.8887 C424.1775 102.8508 418.6750 121.6738 412.6650 140.3370 C410.8800 145.9985 409.2850 151.7220 407.4650 157.3698 C403.4225 169.9102 399.0725 182.3250 394.7125 194.7543 C387.9450 214.5815 380.4950 234.1703 372.3800 253.4850 C369.9000 259.4150 367.5450 265.4225 364.8800 271.2725 C363.0350 275.3225 360.9425 279.2875 358.9375 283.2650 C358.0350 285.0900 357.1500 286.8300 356.5400 288.7825 C360.5300 293.3600 364.6750 297.7950 368.5375 302.4900 C389.6175 328.1200 407.3150 365.8525 403.8525 399.8025 C402.1375 416.5950 395.4075 434.1750 382.0625 445.1025 C371.4950 453.7550 359.4750 459.5200 345.7575 460.7525 C332.0300 461.9850 318.0875 457.6025 304.8600 454.4775 C293.4325 451.6800 281.8550 449.5425 270.1850 448.0750 C265.9475 447.5675 261.6975 447.0275 257.4250 447.0175 C243.3598 446.9850 226.3642 450.1875 212.6290 453.3175 C197.8650 456.6800 180.4008 462.2500 165.3463 460.6850 C160.8965 460.2225 156.3940 459.3075 152.1693 457.8200 C142.3062 454.3525 129.8740 446.4025 123.2935 438.2550 C112.3148 424.6600 108.0642 407.9400 107.9710 390.6800 C107.8455 367.4050 117.3962 342.8050 129.3403 323.1550 C135.8020 312.5225 142.3890 304.0500 150.4020 294.6375 C151.4238 293.4375 155.2350 289.5625 155.0990 288.1800 C154.8100 285.2400 151.0610 279.2150 149.6900 276.2925 C147.4113 271.4350 145.1568 266.5075 142.9982 261.5925 C140.3887 255.5250 137.8802 249.4135 135.4738 243.2617 C114.9340 191.0480 97.3528 137.7182 82.8138 83.5260 C80.5117 74.9043 75.2473 59.1410 76.1523 50.6308 C91.4467 54.2798 121.7475 75.9630 134.4430 86.4525 C139.7543 90.8410 144.7357 95.4693 149.8510 100.0670 C151.6487 101.6827 153.6705 103.1118 155.3893 104.8050 C157.0677 106.4583 158.3710 108.5188 159.9798 110.2530 C181.6405 133.6010 189.9252 151.0063 198.5247 181.3770 C201.6570 192.4393 204.4765 203.8000 206.1183 215.1960 C207.6212 225.6288 208.2917 236.0850 209.3033 246.5675 C211.9100 245.5625 214.4050 244.1862 216.9483 243.0233 C220.9113 241.2108 225.1033 239.5410 229.2195 238.1082 C251.7100 230.2795 269.7900 232.0665 291.4275 241.3268 C295.3125 242.9890 299.0525 245.0185 302.8625 246.8472 Z"></path>
<path id="" fill="#cbd5dc" fill-opacity="1.0" stroke="#000000" stroke-width="0.0" stroke-opacity="1.0" stroke-linecap="round" stroke-linejoin="round"  filling="0" d="M244.9288 336.1000 C245.0202 336.0850 245.1113 336.0675 245.2032 336.0575 C248.9080 335.6600 252.8475 335.8925 256.5700 335.8975 C274.0300 335.9200 286.4475 337.8775 302.2075 346.0200 C306.7525 348.3675 311.2350 350.9400 315.2550 354.1175 C325.6500 362.3325 333.6400 373.9050 335.2400 387.2625 C336.7775 400.1275 332.0525 411.9525 324.1400 421.9575 C312.2475 436.9950 289.4075 446.3850 270.6900 448.5700 L270.2200 448.6225 C266.1975 449.0575 262.1700 449.0250 258.1325 449.0350 C254.4400 449.0450 250.7000 449.1525 247.0210 448.8200 C230.5365 447.3275 213.5258 441.1650 200.6022 430.7200 C188.9215 421.2800 181.9588 409.9275 180.4570 394.9425 C179.2955 383.3500 184.5983 371.6050 191.8533 362.8475 C204.2657 347.8650 225.6738 337.8775 244.9288 336.1000 Z"></path>
<path id="" fill="#f3abb9" fill-opacity="1.0" stroke="#000000" stroke-width="0.0" stroke-opacity="1.0" stroke-linecap="round" stroke-linejoin="round"  filling="0" d="M401.0125 110.6755 L401.6300 110.7872 C402.0325 111.1837 402.0925 111.2598 402.0925 111.8415 C402.0925 113.2755 401.5675 114.9902 401.2925 116.4005 C400.1550 122.2390 398.7375 127.8643 397.2325 133.6147 C393.0825 149.4557 388.2575 165.0237 383.4000 180.6545 C374.7275 208.9837 364.8825 236.9413 353.8925 264.4550 C352.5500 267.7425 349.7375 275.8900 347.4425 278.2575 C345.3300 278.5175 333.9125 267.5625 331.2900 265.6725 L330.9850 265.4550 C326.4075 261.9600 321.3100 258.9425 317.0675 255.0450 C316.6800 249.1163 318.2500 242.7500 319.5125 236.9735 C322.8450 221.4860 327.3700 206.2790 333.0475 191.4888 C339.4550 174.5040 350.5000 158.1055 362.2825 144.3932 C364.2400 142.1152 366.4475 140.0582 368.4775 137.8472 C370.1375 136.0408 371.6225 134.0397 373.3625 132.3123 C375.2425 130.4438 377.4050 128.8492 379.3350 127.0260 C385.7600 120.9600 392.9000 114.3708 401.0125 110.6755 Z"></path>
<path id="" fill="#f3abb9" fill-opacity="1.0" stroke="#000000" stroke-width="0.0" stroke-opacity="1.0" stroke-linecap="round" stroke-linejoin="round"  filling="0" d="M110.0465 110.6070 C116.3145 111.4962 128.4630 123.2250 133.3945 127.6805 C135.3170 129.4175 137.4220 130.9987 139.2583 132.8245 C140.9380 134.4948 142.3927 136.4275 143.9630 138.2025 C145.5810 140.0315 147.3450 141.7285 148.9900 143.5330 C152.1915 147.0455 155.0703 150.9662 157.9227 154.7648 C175.8860 178.6840 183.9635 202.0898 191.0417 230.7648 C192.3480 236.0570 195.5202 248.4230 195.1680 253.4600 C195.1195 254.1525 194.9892 254.7750 194.5688 255.3425 C192.5090 258.1250 185.4872 261.8675 182.4117 264.5400 L182.1125 264.8025 C178.6913 267.3175 175.4252 270.1350 172.1860 272.8825 C170.0150 274.7250 167.7095 277.2325 165.1248 278.4275 C164.5100 278.3100 164.4978 278.2250 164.1272 277.7475 C162.0280 275.0475 159.0635 266.7025 157.6512 263.1975 C141.2975 221.6557 127.2020 179.2587 115.4262 136.1938 C114.0515 131.1495 109.5800 115.1302 110.0465 110.6070 Z"></path>
<path id="" fill="#fefefe" fill-opacity="1.0" stroke="#000000" stroke-width="0.0" stroke-opacity="1.0" stroke-linecap="round" stroke-linejoin="round"  filling="0" d="M245.2985 391.1025 C248.0822 390.7000 251.1625 390.8975 253.9825 390.8975 C262.3625 390.8950 281.0075 390.9525 287.7275 395.9525 C289.2600 397.0925 289.8625 398.4725 290.0675 400.3500 C290.8550 407.5350 289.6450 421.6900 285.0925 427.3050 C280.9125 432.4600 272.8550 432.3750 266.8100 432.9500 C258.2675 433.2950 235.2565 434.0225 228.6727 429.0975 C224.7578 426.1700 223.3242 420.1000 222.6797 415.5500 C222.1223 411.6100 220.7565 399.8200 223.1630 396.9050 C226.6582 392.6700 239.8938 391.5875 245.2985 391.1025 Z"></path>
<path id="" fill="#f3abba" fill-opacity="1.0" stroke="#000000" stroke-width="0.0" stroke-opacity="1.0" stroke-linecap="round" stroke-linejoin="round"  filling="0" d="M251.3875 331.1000 C260.2000 330.3250 273.6875 331.9100 281.7975 335.4900 C284.8400 336.8325 288.4525 338.9450 289.6325 342.2300 C291.2925 346.8550 289.3075 352.6775 287.1950 356.8275 C281.9600 367.1175 272.0775 374.9025 261.1900 378.4600 C260.3625 378.6775 259.5450 378.8600 258.6950 378.9550 C250.8900 379.8325 242.8790 375.9075 236.9147 371.1350 C229.9032 365.5250 222.8795 356.9675 221.9413 347.7025 C221.6523 344.8500 221.8972 342.1675 223.8425 339.9125 C229.7663 333.0475 242.8898 331.8750 251.3875 331.1000 Z"></path>
<path id="" fill="#292f33" fill-opacity="1.0" stroke="#000000" stroke-width="0.0" stroke-opacity="1.0" stroke-linecap="round" stroke-linejoin="round"  filling="0" d="M315.4000 310.9625 C324.8150 309.2200 333.8575 315.4475 335.5875 324.8650 C337.3175 334.2825 331.0800 343.3175 321.6600 345.0350 C312.2575 346.7500 303.2425 340.5250 301.5175 331.1225 C299.7900 321.7225 306.0025 312.7000 315.4000 310.9625 Z"></path>
<path id="" fill="#292f33" fill-opacity="1.0" stroke="#000000" stroke-width="0.0" stroke-opacity="1.0" stroke-linecap="round" stroke-linejoin="round"  filling="0" d="M190.2400 310.9700 C199.6355 309.2300 208.6650 315.4300 210.4133 324.8250 C212.1617 334.2200 205.9677 343.2525 196.5750 345.0100 C187.1718 346.7675 178.1257 340.5650 176.3755 331.1600 C174.6250 321.7550 180.8342 312.7150 190.2400 310.9700 Z"></path>
</svg>