<svg xmlns="http://www.w3.org/2000/svg" viewBox="0 0 512 512" height="512.0px" width="512.0px">
<path id="" fill="#ccd6dd" fill-opacity="1.0" stroke="#000000" stroke-width="0.0" stroke-opacity="1.0" stroke-linecap="round" stroke-linejoin="round"  filling="0" d="M220.3087 52.1008 C220.4138 52.0845 220.5180 52.0645 220.6235 52.0522 C224.2065 51.6400 228.0728 51.9088 231.6775 51.9243 L250.8625 51.9510 C263.6275 51.9422 276.5350 51.5222 289.2825 51.9893 C292.3725 52.1025 295.4350 52.5400 298.5200 52.7307 C301.4425 52.9115 304.3750 52.9368 307.2950 53.1625 C328.0475 54.7668 366.8600 59.4727 383.4225 72.4340 C386.4475 74.8015 389.5475 78.2830 390.0075 82.2300 C390.3025 84.7565 390.1275 87.4303 390.1050 89.9782 C389.9400 109.5760 385.2650 129.9960 378.3475 148.3082 C376.6275 152.8633 374.6925 158.1365 371.6075 161.9240 C367.4300 167.0477 357.6350 168.4645 351.4775 169.8445 C345.1025 171.2737 338.7550 172.6562 332.2900 173.6300 C318.7425 175.6700 305.0575 176.5835 291.4375 177.9810 C287.2075 177.9948 282.9300 177.9015 278.7075 178.1263 C275.1825 178.3140 271.6750 178.8548 268.1475 178.9785 C259.4900 179.2825 250.6350 179.1945 241.9725 179.0070 C238.3873 178.9292 234.8492 178.4052 231.2765 178.1580 C228.1925 177.9447 225.0890 178.0862 222.0027 177.8660 C199.7238 176.2755 176.9235 173.9438 155.2600 168.3508 C151.2408 167.3130 145.6308 166.1605 142.3987 163.5513 C133.6192 156.4633 124.7150 116.2077 123.2910 104.1747 C122.2647 95.5030 119.7018 83.0065 125.6097 75.6420 C129.8273 70.3850 137.0375 67.1693 143.1817 64.8305 C162.9780 57.2948 184.4167 55.0052 205.3817 53.2047 C210.3690 52.7765 215.3223 52.6555 220.3087 52.1008 Z"></path>
<path id="" fill="#a0041e" fill-opacity="1.0" stroke="#000000" stroke-width="0.0" stroke-opacity="1.0" stroke-linecap="round" stroke-linejoin="round"  filling="0" d="M158.4315 151.9165 C161.6700 150.8880 164.4400 149.1348 167.5703 147.9088 C172.2968 146.0578 177.6322 144.9425 182.5867 143.8775 C202.6535 139.5643 223.4897 138.3380 243.9523 137.8670 C266.5000 137.3477 289.0200 137.8732 311.4250 140.5805 C317.7825 141.3485 324.2050 142.0217 330.4625 143.4105 C335.5650 144.5425 341.0050 145.8870 345.8875 147.7307 C349.4125 149.0618 352.8050 150.7815 356.2800 152.2425 C360.0325 153.8235 364.6525 156.0513 366.2425 160.0607 C369.1700 167.4500 363.9950 181.9203 360.9325 189.2525 C350.6200 213.9380 332.9825 235.0262 309.5100 248.1438 C306.1325 250.0300 302.7550 251.9500 299.1700 253.4175 C270.3200 265.2325 241.9575 265.5250 213.1165 253.3050 C184.9187 241.3553 162.2945 215.8710 151.0108 187.6788 C148.4527 181.2878 143.6913 167.0250 146.5603 160.6458 C148.8463 155.5627 153.6075 153.8180 158.4315 151.9165 Z"></path>
<path id="" fill="#dc2e44" fill-opacity="1.0" stroke="#000000" stroke-width="0.0" stroke-opacity="1.0" stroke-linecap="round" stroke-linejoin="round"  filling="0" d="M158.4315 151.9165 C161.6700 150.8880 164.4400 149.1348 167.5703 147.9088 C172.2968 146.0578 177.6322 144.9425 182.5867 143.8775 C202.6535 139.5643 223.4897 138.3380 243.9523 137.8670 C266.5000 137.3477 289.0200 137.8732 311.4250 140.5805 C317.7825 141.3485 324.2050 142.0217 330.4625 143.4105 C335.5650 144.5425 341.0050 145.8870 345.8875 147.7307 C349.4125 149.0618 352.8050 150.7815 356.2800 152.2425 C355.8125 152.4035 355.5975 152.4500 355.3450 152.8975 C354.2475 154.8445 353.9225 156.8270 352.4625 158.6992 C348.4600 163.8277 328.2475 167.2730 321.7950 168.1495 C300.0350 171.0705 278.0950 172.4440 256.1400 172.2603 C234.5660 172.2632 213.1272 171.1458 191.7690 168.0000 C183.4377 166.7730 169.2140 164.6687 162.6335 159.4538 C160.2177 157.5392 158.7770 154.9523 158.4315 151.9165 Z"></path>
<path id="" fill="#8899a6" fill-opacity="1.0" stroke="#000000" stroke-width="0.0" stroke-opacity="1.0" stroke-linecap="round" stroke-linejoin="round"  filling="0" d="M389.2300 91.6892 C389.5975 91.6682 389.8350 91.7412 390.1875 91.8350 C390.3450 92.1093 390.3950 92.1687 390.4900 92.5160 C391.6850 96.8525 390.5150 106.3115 390.2625 111.0745 C388.3500 147.0177 379.7500 183.1763 360.1975 213.8060 C343.6100 239.7950 320.1550 261.2775 291.5925 273.4050 C286.1800 275.7050 280.5775 277.9725 274.8200 279.2425 C275.5375 293.0725 275.0375 307.1500 275.0400 321.0075 L275.0125 395.8675 C277.4950 397.4925 280.2900 398.7200 282.9125 400.1075 C288.0150 402.8100 293.0775 405.5450 298.2100 408.1875 C306.3575 412.3825 314.3400 416.9700 322.3225 421.4650 C326.8325 424.0050 331.7050 426.2725 335.8075 429.4400 C337.8475 431.0175 339.5100 432.7625 340.9575 434.8925 C341.1075 436.7425 341.4075 438.7675 340.9475 440.5925 C340.1600 443.7075 336.5550 446.5650 333.8425 448.0450 C330.1825 450.0425 325.9975 451.3450 322.0425 452.6300 C288.2775 463.6000 226.1908 463.9125 192.1170 453.7600 C185.1727 451.6925 174.4495 448.8850 170.8800 441.8975 C169.8483 439.8775 169.7575 437.7300 170.4605 435.5850 C171.1918 433.3550 172.4120 431.9400 174.2600 430.5650 C177.5143 428.1400 181.3730 426.3700 184.9362 424.4550 C191.4937 420.9275 198.0538 417.5075 204.6795 414.1100 C208.0298 412.3925 211.2733 410.4800 214.6013 408.7200 C220.2652 405.7275 226.0640 402.9625 231.7790 400.0675 C234.6283 398.6225 237.3777 396.9975 240.2390 395.5800 C239.4628 388.0275 239.9830 378.0675 239.9823 370.1925 L239.9880 321.3750 L239.9507 279.2575 C234.9710 278.2750 230.0920 276.2200 225.4433 274.2350 C207.5477 266.5900 194.4115 257.9425 180.0632 244.8517 C177.5188 242.5302 174.8565 240.3418 172.5520 237.7720 C169.6160 234.4980 166.6015 231.2092 163.8700 227.7643 C140.0410 197.7133 128.0425 163.2903 123.7202 125.4603 C122.5663 115.3603 121.4125 104.8062 122.0518 94.6432 C122.0957 93.9425 122.1003 93.2210 122.6332 92.7418 C125.1892 93.9942 127.3958 96.2615 129.6707 97.9840 C134.7095 101.7993 140.6860 103.1240 146.6805 104.5900 C147.7350 112.5360 149.1862 117.3080 151.3513 124.8865 C152.5420 129.0540 153.6630 133.2637 155.0165 137.3815 C156.3675 141.4908 158.0470 145.5527 159.1745 149.7263 C160.6765 155.2858 159.4433 160.9243 160.3537 166.5605 C162.8717 182.1515 170.2988 197.6492 179.1727 210.5820 C180.7598 212.8950 182.6745 215.1055 184.3833 217.3383 C187.6613 221.6212 191.5205 225.1215 195.5517 228.6490 C197.8910 230.6960 200.1645 232.9068 202.6382 234.7812 C213.9848 243.3785 228.3740 249.8378 242.5115 251.6775 C246.8635 252.2425 251.5475 252.9050 255.9250 252.8700 C258.2975 252.8500 260.7275 252.5100 263.0925 252.2700 C281.2750 250.4125 296.9300 242.7513 311.2675 231.7153 C314.5700 229.1735 317.5025 226.2733 320.4525 223.3445 C334.2075 209.6905 345.0475 193.2623 351.3200 174.8703 C352.1150 172.5388 353.0450 170.1565 353.6225 167.7608 C354.7350 163.1235 353.2200 158.2905 354.3150 153.8105 C354.9125 151.3618 356.3575 149.0120 357.2625 146.6460 C358.6150 143.1025 359.6375 139.3822 360.6500 135.7295 C362.5575 128.8477 364.1250 121.6938 365.1950 114.6357 C365.6375 111.7242 365.6650 108.6868 366.1925 105.8155 C366.2250 105.6495 366.3525 105.1093 366.4600 104.9820 C367.2825 104.0063 372.1625 103.1172 373.5100 102.6143 C377.5000 101.1230 381.1475 98.9593 384.2550 96.0558 C385.7850 94.6245 387.2700 93.0260 389.0025 91.8402 C389.0775 91.7888 389.1550 91.7395 389.2300 91.6892 Z"></path>
<path id="" fill="#fefefe" fill-opacity="1.0" stroke="#000000" stroke-width="0.0" stroke-opacity="1.0" stroke-linecap="round" stroke-linejoin="round"  filling="0" d="M366.8700 81.0163 C367.8675 80.8980 368.8300 80.8873 369.8225 81.0797 C373.3350 81.7613 376.2450 83.9077 378.1900 86.8770 C379.7000 89.1820 380.3525 91.8903 379.7150 94.5997 C378.8025 98.4742 375.5475 101.8418 372.1875 103.8255 C368.5500 105.9747 364.1400 106.1638 360.1100 107.1722 L343.7900 111.3375 C291.7150 123.9075 237.5945 125.5200 184.8627 116.0728 C178.2815 114.8783 171.7405 113.4710 165.2502 111.8532 C158.7538 110.1995 152.3372 108.2507 145.8380 106.5927 C143.6980 105.9070 141.3432 105.1743 139.3595 104.1133 C136.7097 102.6957 135.1243 100.3540 134.3510 97.4812 C133.5177 94.3855 133.5022 90.4962 135.2103 87.7060 C136.8515 85.0247 140.9750 81.9293 144.2753 81.8678 C147.6070 81.8055 151.2372 83.6168 154.2930 84.7628 C169.6100 90.5070 190.7690 94.3123 206.9547 96.2953 C249.2668 101.5705 292.1700 99.5172 333.7850 90.2258 C340.8125 88.5918 347.7925 86.7632 354.7175 84.7425 C358.7775 83.5315 362.7600 82.0558 366.8700 81.0163 Z"></path>
</svg>