<svg xmlns="http://www.w3.org/2000/svg" viewBox="0 0 512 512" height="512.0px" width="512.0px">
<path id="" fill="#ffffff" fill-opacity="0.027451" stroke="#000000" stroke-width="0.0" stroke-opacity="1.0" stroke-linecap="round" stroke-linejoin="round"  filling="0" d="M0.6766 0.0000 L511.3225 0.0000 C508.2025 0.6650 504.4600 0.3195 501.2650 0.3163 L484.2875 0.2973 L415.9925 0.2969 L147.6600 0.2999 L40.7298 0.2926 L15.1412 0.3109 C10.7615 0.3248 4.9184 0.8886 0.6766 0.0000 Z"></path>
<path id="" fill="#ffffff" fill-opacity="0.0196078" stroke="#000000" stroke-width="0.0" stroke-opacity="1.0" stroke-linecap="round" stroke-linejoin="round"  filling="0" d="M1.3091 512.0000 C3.3875 511.2775 25.6402 511.7425 29.6990 511.7425 L108.8480 511.7450 L408.0800 511.7525 L481.9375 511.7525 L501.0200 511.7350 C504.2850 511.7300 508.1175 511.3450 511.2925 512.0000 L1.3091 512.0000 Z"></path>
<path id="" fill="#ffffff" fill-opacity="0.027451" stroke="#000000" stroke-width="0.0" stroke-opacity="1.0" stroke-linecap="round" stroke-linejoin="round"  filling="0" d="M0.0000 0.9172 C0.7097 3.9909 0.2566 8.0218 0.2535 11.1965 L0.2509 30.6735 L0.2530 111.2188 L0.2531 439.7300 L0.2509 490.8325 C0.2507 494.5500 0.7518 508.0600 0.0000 510.5825 L0.0000 0.9172 Z"></path>
<path id="" fill="#e9596e" fill-opacity="1.0" stroke="#000000" stroke-width="0.0" stroke-opacity="1.0" stroke-linecap="round" stroke-linejoin="round"  filling="0" d="M394.3450 256.0950 C399.3850 255.8550 404.5875 257.3225 408.6025 260.4050 C410.4175 261.8000 411.9300 263.5250 413.1750 265.4400 C416.8525 271.1000 426.0475 290.9525 426.7850 297.2800 C427.4375 302.8650 425.5400 309.2600 422.0350 313.6425 C419.8875 316.3275 416.9125 318.0300 413.8925 319.5775 C407.8475 322.6725 401.6200 325.3600 395.4525 328.1925 L359.7900 344.4075 L273.3450 384.1950 L185.8015 424.6075 C179.6712 427.4150 173.4458 430.1700 167.3660 433.0775 L156.5343 438.1625 C149.7320 441.4100 142.9200 445.1475 135.3107 445.9550 C130.3318 446.0225 125.0332 444.0050 121.1220 440.9825 C119.1420 439.4550 117.5082 437.5575 116.1315 435.4750 C112.7320 430.3350 103.3220 410.0900 102.6837 404.6050 C102.0520 399.1800 104.0565 392.4375 107.4688 388.1875 C109.9293 385.1225 113.2623 383.4625 116.7065 381.7200 C125.5285 377.2575 134.6825 373.4850 143.6195 369.2675 C179.6325 352.4275 215.7648 335.8425 252.0125 319.5175 L346.2375 276.2175 L372.8225 263.9475 C376.5200 262.2450 380.1575 260.3025 383.9275 258.7675 C387.3175 257.3900 390.7050 256.4700 394.3450 256.0950 Z"></path>
<path id="" fill="#67757f" fill-opacity="1.0" stroke="#000000" stroke-width="0.0" stroke-opacity="1.0" stroke-linecap="round" stroke-linejoin="round"  filling="0" d="M213.7122 294.0000 C213.3615 293.6975 213.0202 293.3925 212.6862 293.0725 C209.3035 289.8275 205.8443 286.6025 202.7495 283.0800 C196.5200 275.9900 187.6777 263.3050 187.5392 253.6425 C187.4498 247.4012 191.7245 236.8058 196.1725 232.3890 C197.0228 231.5445 197.9720 230.9052 199.0513 230.3927 C205.8468 227.1647 213.2242 224.7012 220.2233 221.9165 C226.9725 219.2312 233.6275 216.1328 240.5225 213.8420 C242.1662 213.2957 244.3288 212.6195 246.0790 212.7117 C249.8947 212.9128 259.2000 217.5587 263.0275 219.1617 L276.8575 224.8188 C283.6450 227.5927 305.1425 235.0222 309.5175 238.5773 C311.3200 240.0428 312.7550 241.7425 313.8550 243.7878 C316.8675 249.3878 318.6125 255.3550 320.6550 261.3425 L326.0150 276.6375 C327.3525 280.5450 329.1975 284.4950 330.2950 288.4450 C330.9950 290.9650 331.4150 293.5625 332.0800 296.0950 C333.1150 300.0475 334.4000 303.9400 335.3850 307.9050 C335.8475 309.7700 336.1575 313.4550 337.0050 314.9900 C337.1025 315.1675 337.2850 315.2850 337.4275 315.4300 C339.7250 316.2675 343.2550 311.9450 345.4975 311.0900 C346.7400 310.6175 348.0675 310.5600 349.2900 311.1300 C352.0725 312.4325 354.2175 316.6475 355.2225 319.4225 C356.4150 322.7200 356.7875 329.6225 355.2200 332.8350 C352.5325 338.3400 345.4025 341.5825 339.8975 343.3525 C333.5350 345.4000 327.3850 345.6675 321.3600 342.5400 C318.1725 340.8825 301.3325 329.0650 299.2700 326.4725 C296.1750 322.5800 294.6250 314.8175 292.7150 310.1375 C292.0150 308.4200 289.7350 304.6175 289.4950 303.0800 C289.4350 302.6950 289.7525 302.1200 289.6850 301.7400 C289.4350 300.3900 281.7675 286.0075 280.4800 283.2150 C279.0050 280.0200 278.0175 276.5450 276.9375 273.1950 C272.1950 272.5750 266.1050 270.3025 261.5675 268.6350 C259.7450 267.9625 257.6700 266.9375 255.7800 266.5775 C255.1875 266.4650 254.6850 266.5975 254.1100 266.7425 C253.9300 267.6400 253.7375 268.5175 253.6975 269.4350 C253.7975 269.5325 253.9075 269.6200 254.0025 269.7250 C255.4300 271.3025 256.6175 273.3875 257.7600 275.1925 C267.1475 290.0175 258.5875 301.9550 255.0450 316.8675 C254.1250 320.7325 254.1325 324.5000 253.7125 328.4125 C253.3550 331.7500 252.6250 335.0750 251.8100 338.3300 C250.5175 343.4925 247.9043 348.7900 247.9930 354.1275 C250.9575 359.1475 256.2125 361.3275 259.2000 365.9650 C261.0900 368.9000 261.5600 373.2725 260.7725 376.6450 C259.8050 380.8025 256.1125 383.7650 252.6750 385.9600 C246.6478 389.8125 237.9035 392.3150 230.7798 390.5375 C222.7060 388.5225 206.3983 373.6475 202.2312 366.5075 C200.9270 364.2725 199.1795 361.3325 199.2245 358.6825 C199.3138 353.4425 202.9032 347.5875 204.0892 342.4300 C205.6585 335.6075 206.1727 327.5425 207.3947 320.4775 C208.9425 311.5275 211.4032 302.7750 213.7122 294.0000 Z"></path>
<path id="" fill="#fafbfb" fill-opacity="1.0" stroke="#000000" stroke-width="0.0" stroke-opacity="1.0" stroke-linecap="round" stroke-linejoin="round"  filling="0" d="M247.2137 261.4425 C249.0095 262.4250 250.7100 263.5675 252.4875 264.5775 C253.3525 265.0700 254.3275 265.3475 255.1525 265.9000 C254.8600 266.0850 254.6300 266.2600 254.3725 266.4950 C254.2825 266.5775 254.1975 266.6600 254.1100 266.7425 C253.9300 267.6400 253.7375 268.5175 253.6975 269.4350 C251.1450 267.8400 248.9340 263.9300 247.2137 261.4425 Z"></path>
<path id="" fill="#bbdcf4" fill-opacity="1.0" stroke="#000000" stroke-width="0.0" stroke-opacity="1.0" stroke-linecap="round" stroke-linejoin="round"  filling="0" d="M221.9390 137.1250 C226.1022 136.6808 230.4447 136.9422 234.6320 136.9272 C238.6510 136.9130 242.7575 136.7442 246.7612 137.0833 C259.9225 138.1975 272.9375 143.7307 281.3825 154.0710 C287.8575 162.0010 293.7625 170.9050 302.2775 176.8445 C310.4925 182.5765 317.5000 184.1260 326.8150 187.0007 C329.8225 187.9292 333.1250 189.6187 334.6525 192.5018 C338.5950 193.2957 342.5575 193.4820 346.4975 194.1605 C352.7475 195.2365 359.3675 198.1435 363.9750 202.5768 C366.8850 205.3760 369.3425 209.1367 369.3100 213.3030 C369.3025 214.4747 369.0175 215.6050 368.1325 216.4260 C364.7850 219.5352 358.5450 216.9828 354.5050 217.0300 C346.5725 217.1225 345.9525 223.5150 343.6400 229.5312 C343.2625 230.5125 342.8925 231.7330 342.1100 232.4702 C341.2500 233.2790 339.9275 233.4360 338.7950 233.3342 C335.1775 233.0087 332.5150 228.8918 330.3525 226.3302 C328.8275 228.1647 327.9075 231.2960 325.8625 232.5835 C320.9350 235.6855 295.8025 225.2392 290.3100 222.1670 C286.8050 220.2065 277.0175 212.2095 274.1900 211.7592 C273.7175 211.6837 273.7700 211.7660 273.4200 212.0302 C272.3675 215.2142 273.2800 221.1955 274.2425 224.4165 C268.3700 229.0582 254.9675 232.9532 247.5800 235.7793 C231.1500 242.1203 214.6422 248.2580 198.0605 254.1900 C192.1508 256.3525 187.7285 258.5900 181.4275 260.1425 C179.5347 260.6075 174.5688 261.9350 172.8943 260.5550 C171.8250 259.6750 171.3910 257.7000 171.2255 256.4125 C170.5255 250.9700 171.0013 245.0615 171.0040 239.5675 L170.9973 212.9565 C170.9965 207.5230 171.1415 202.0417 170.8825 196.6170 C167.6983 197.1655 164.8318 198.6935 162.2357 200.5830 C154.9535 205.8837 153.9617 213.0380 154.0245 221.4655 C154.0565 225.7688 154.3248 229.9310 154.7175 234.2155 C155.0515 237.8582 155.1065 241.5055 155.3720 245.1508 C156.1000 255.1450 157.1893 264.0300 150.6752 272.6200 C147.5925 276.6825 143.1747 280.1925 138.0010 280.8900 C133.4815 281.5000 128.2897 281.1775 124.6090 278.2275 C116.7350 271.9150 116.3710 259.6750 115.4572 250.4050 C114.8662 244.4117 114.0977 238.2677 113.9960 232.2460 C113.9315 228.4330 114.3545 224.7365 114.6663 220.9500 C115.6458 209.0505 116.9820 196.4612 121.8253 185.3975 C123.8015 180.8830 126.6387 176.7185 129.7730 172.9323 C132.6217 169.4908 136.1500 166.7227 139.5385 163.8362 C158.1203 148.0095 170.2377 145.0423 193.6487 141.1315 C203.0375 139.5630 212.4605 138.0475 221.9390 137.1250 Z"></path>
<path id="" fill="#fedb5d" fill-opacity="1.0" stroke="#000000" stroke-width="0.0" stroke-opacity="1.0" stroke-linecap="round" stroke-linejoin="round"  filling="0" d="M209.8508 62.0950 C213.9115 61.5663 219.0598 61.7303 223.0940 62.3297 C233.4267 63.8652 243.7242 70.4380 249.8990 78.7960 C253.5825 83.7830 256.3175 90.8067 256.9800 96.9637 C257.2375 99.3560 257.1575 101.8423 257.1300 104.2470 C257.0900 108.0807 256.8950 111.3715 255.6050 115.0290 C254.4150 118.4037 251.3125 122.6613 250.8250 125.8903 C252.3150 127.3288 254.2200 127.4530 255.7275 129.1938 L255.9525 129.4585 C256.0450 130.6568 256.1425 131.8625 256.1425 133.0645 C256.1425 139.0780 253.0700 144.5907 248.8717 148.7628 C244.6460 152.9630 237.7457 156.2160 231.8440 156.9185 C229.6445 157.1803 227.3395 157.0618 225.1250 157.0462 C222.4715 157.0570 219.7295 157.1790 217.0915 156.8887 C210.2587 156.1367 202.5527 152.7275 197.5132 148.0307 C191.8223 142.7267 191.1190 142.4068 190.8675 134.4545 C188.7430 132.2402 186.0152 130.6430 183.6425 128.7040 C176.3705 122.7613 173.0815 113.4572 172.2290 104.3620 C171.3027 94.4818 176.0352 83.8587 182.2415 76.4055 C188.7832 68.5495 199.7023 63.0338 209.8508 62.0950 Z"></path>
<path id="" fill="#1c6398" fill-opacity="1.0" stroke="#000000" stroke-width="0.0" stroke-opacity="1.0" stroke-linecap="round" stroke-linejoin="round"  filling="0" d="M203.1455 341.8975 C203.5060 341.8900 204.0367 341.7500 204.3045 342.0275 C205.0460 342.8050 205.2337 344.9275 205.8508 345.9875 C208.3485 350.2775 216.6922 351.1300 221.1712 351.6375 C229.4937 352.5825 238.1517 350.7475 246.2430 348.8600 C247.4337 352.1200 249.5737 354.6050 251.3475 357.5350 C252.2750 359.0700 253.0725 360.8500 254.1450 362.2750 C254.6075 362.8925 255.2625 363.3700 255.8800 363.8250 C256.3050 363.6775 256.8400 363.3500 257.2575 363.5550 C258.5200 364.1750 259.2950 365.8775 260.0000 367.0400 C260.0100 368.4375 260.0200 369.8325 259.9625 371.2300 C260.4800 373.6600 261.1375 376.5125 260.9025 378.9925 C260.6375 381.7950 258.6925 384.1175 256.6225 385.8725 C250.1950 391.3175 242.4810 393.3825 234.2055 392.6975 C231.3100 392.4575 228.0038 391.8450 225.4577 390.3875 C220.9085 387.7825 217.4128 383.3825 213.5923 379.8950 C212.2467 378.6650 210.6853 377.6800 209.2765 376.5250 C206.7233 374.4300 204.1400 371.8725 202.0338 369.3375 C198.5075 365.0900 197.2213 360.0100 197.7717 354.5225 C197.9422 352.8225 198.3652 351.1625 198.5165 349.4600 L198.5338 349.2500 C198.9180 347.5250 198.8535 345.5750 199.0560 343.8025 C200.3418 342.8675 201.6588 342.4000 203.1455 341.8975 Z"></path>
<path id="" fill="#e95b70" fill-opacity="1.0" stroke="#000000" stroke-width="0.0" stroke-opacity="1.0" stroke-linecap="round" stroke-linejoin="round"  filling="0" d="M199.0560 343.8025 C200.3418 342.8675 201.6588 342.4000 203.1455 341.8975 C203.0380 343.2625 200.2157 348.0400 199.1608 349.1375 C199.0473 349.2550 198.9052 349.3425 198.7775 349.4425 L198.5338 349.2500 C198.9180 347.5250 198.8535 345.5750 199.0560 343.8025 Z"></path>
<path id="" fill="#e9596e" fill-opacity="1.0" stroke="#000000" stroke-width="0.0" stroke-opacity="1.0" stroke-linecap="round" stroke-linejoin="round"  filling="0" d="M255.8800 363.8250 C256.3050 363.6775 256.8400 363.3500 257.2575 363.5550 C258.5200 364.1750 259.2950 365.8775 260.0000 367.0400 C260.0100 368.4375 260.0200 369.8325 259.9625 371.2300 C258.4575 368.8275 257.5175 366.1975 255.8800 363.8250 Z"></path>
<path id="" fill="rgb(59,153,224)" fill-opacity="1.0" stroke="#000000" stroke-width="0.0" stroke-opacity="1.0" stroke-linecap="round" stroke-linejoin="round"  filling="0" d="M243.5440 366.0250 C244.7368 365.9600 245.9150 365.9700 247.0485 366.3950 C247.7545 366.6625 248.0695 366.9425 248.3655 367.6250 C248.2758 368.3675 247.9150 368.8250 247.3970 369.3300 C246.1093 370.5850 244.3893 371.3875 242.9500 372.4675 C240.6967 374.1550 238.2603 377.2650 236.5663 379.5350 L236.3645 379.8075 C236.3015 379.8800 236.2413 379.9550 236.1752 380.0275 C235.5825 380.6600 235.2635 380.8350 234.4277 380.8625 C233.8185 380.5700 233.2420 380.3400 232.9532 379.6700 C232.4467 378.4975 233.2445 376.8100 233.7970 375.7925 C235.4698 372.7075 240.1950 367.0325 243.5440 366.0250 Z"></path>
<path id="" fill="#1c6399" fill-opacity="1.0" stroke="#000000" stroke-width="0.0" stroke-opacity="1.0" stroke-linecap="round" stroke-linejoin="round"  filling="0" d="M249.6682 126.1795 C251.1675 126.2085 252.6800 126.9167 253.9575 127.6722 C257.9975 130.0592 260.6450 134.6483 261.7825 139.0957 C263.3375 145.1760 261.4775 152.3465 258.3250 157.6187 C254.3100 164.3322 248.7905 167.9662 241.2265 169.8432 C228.6330 172.9682 213.3177 169.4495 202.3575 162.8635 C200.9967 162.1158 199.5688 160.9518 198.4057 159.9147 C193.5282 155.5652 189.5010 149.2590 189.1658 142.6252 C189.0712 140.7552 188.7725 136.6638 190.0675 135.2385 C192.4765 135.2543 197.2570 138.8070 199.7533 139.7455 C204.4335 141.5050 209.4303 142.0510 214.3932 142.0990 C225.2137 142.2032 234.9970 139.2285 243.3905 132.1900 C245.5945 130.3418 247.6122 128.1965 249.6682 126.1795 Z"></path>
<path id="" fill="#1c6399" fill-opacity="1.0" stroke="#000000" stroke-width="0.0" stroke-opacity="1.0" stroke-linecap="round" stroke-linejoin="round"  filling="0" d="M332.6125 300.6050 C336.6675 302.3625 343.8875 307.8075 346.7925 311.1150 C348.4425 310.9625 349.9275 310.7100 351.2800 311.9175 C352.5575 313.0550 353.1250 315.2350 353.6225 316.8300 C356.2050 321.5150 359.6000 326.3100 358.3600 332.0200 C357.4025 336.4375 353.5225 340.6250 349.8050 343.0075 C344.3425 346.5100 336.9825 349.9050 330.3575 348.2950 C323.4850 346.6225 299.9475 330.4775 296.4325 324.4000 C295.5350 322.8500 293.8775 319.0650 294.3400 317.2950 C294.7950 317.0125 294.9700 316.9025 295.5300 316.9225 C296.9100 316.9750 298.3550 317.5600 299.7525 317.7350 C303.7000 318.2300 308.6275 318.3450 312.5675 317.6675 C315.8200 317.1075 318.9675 315.6600 321.8475 314.1025 C327.5725 311.0050 330.7800 306.8100 332.6125 300.6050 Z"></path>
<path id="" fill="#e9596e" fill-opacity="1.0" stroke="#000000" stroke-width="0.0" stroke-opacity="1.0" stroke-linecap="round" stroke-linejoin="round"  filling="0" d="M346.7925 311.1150 C348.4425 310.9625 349.9275 310.7100 351.2800 311.9175 C352.5575 313.0550 353.1250 315.2350 353.6225 316.8300 C353.4800 316.8075 353.3350 316.7925 353.1950 316.7575 C351.7525 316.4025 347.5100 312.5100 346.7925 311.1150 Z"></path>
<path id="" fill="#1c6399" fill-opacity="1.0" stroke="#000000" stroke-width="0.0" stroke-opacity="1.0" stroke-linecap="round" stroke-linejoin="round"  filling="0" d="M333.9975 193.5948 C345.0075 193.3692 355.4900 190.2552 365.4000 197.0443 C368.9575 199.4818 371.8350 202.7222 372.5950 207.1140 C373.1050 210.0600 372.7525 214.0527 370.9100 216.5250 C368.6875 219.5035 360.4125 216.7755 357.1325 216.4292 C354.8200 216.1850 352.6925 216.3353 350.3900 216.6322 C349.7200 218.2637 348.1775 219.1755 347.2400 220.6418 C345.9050 222.7298 345.0500 225.1967 344.1425 227.4950 C343.9350 228.3475 343.6875 229.2303 343.3925 230.0567 C342.5325 232.4628 341.2025 233.6353 338.9850 234.7323 C335.4075 232.2220 333.0725 228.2670 329.8050 225.3480 C330.5550 222.5105 331.6275 219.7655 332.3500 216.9068 C334.2575 209.3748 334.6225 201.3315 333.9975 193.5948 Z"></path>
<path id="" fill="#fdfefe" fill-opacity="1.0" stroke="#000000" stroke-width="0.0" stroke-opacity="1.0" stroke-linecap="round" stroke-linejoin="round"  filling="0" d="M344.1425 227.4950 C343.9900 227.1945 343.8625 226.9572 343.8000 226.6215 C343.3525 224.1823 343.3600 221.1795 344.9800 219.1548 C346.3725 217.4145 348.2500 216.8650 350.3900 216.6322 C349.7200 218.2637 348.1775 219.1755 347.2400 220.6418 C345.9050 222.7298 345.0500 225.1967 344.1425 227.4950 Z"></path>
<path id="" fill="#1c6399" fill-opacity="1.0" stroke="#000000" stroke-width="0.0" stroke-opacity="1.0" stroke-linecap="round" stroke-linejoin="round"  filling="0" d="M154.4210 256.7900 L154.7648 256.8550 C155.6342 257.7200 155.7923 260.5750 155.8313 261.8225 C156.0103 267.5300 153.2092 272.1725 149.3922 276.1850 C144.8370 280.9725 138.0525 286.1775 131.1360 286.3100 C127.3438 286.3825 124.3985 284.9350 121.7075 282.3875 C119.6645 279.9450 118.1010 277.2100 117.3055 274.1150 C116.5973 271.3600 116.4417 264.1800 117.9550 261.9675 C118.1760 261.6450 118.0833 261.7200 118.4660 261.6275 C120.6602 261.1075 127.5540 261.9675 130.6517 261.6375 C138.7190 260.7800 146.5193 258.5125 154.4210 256.7900 Z"></path>
<path id="" fill="#9aaab4" fill-opacity="1.0" stroke="#000000" stroke-width="0.0" stroke-opacity="1.0" stroke-linecap="round" stroke-linejoin="round"  filling="0" d="M166.1452 85.4128 C164.6272 80.3132 164.7617 75.9825 167.3082 71.2368 C171.8932 62.6913 181.9880 57.6930 190.8882 55.0540 C209.0352 49.6730 234.2357 48.3455 251.1025 57.5648 C261.0700 63.0128 268.7550 73.0728 271.8525 83.9503 C274.8375 94.4368 274.3500 104.2598 271.6825 114.7028 L271.5100 114.3637 C270.8325 115.2177 270.4700 116.8255 270.5225 117.9182 C270.4625 117.9973 270.4050 118.0757 270.3475 118.1552 C266.4825 123.4995 264.7375 129.5213 257.1425 130.6387 C255.0925 130.9402 253.0375 130.6593 250.9825 130.7272 C245.2583 129.6313 241.3853 127.0707 238.2390 122.1143 C237.4950 120.9423 236.6777 119.1622 235.6862 118.2038 C235.0275 117.5670 234.5457 117.7477 233.6995 117.7663 C233.5980 117.9228 233.6400 117.8672 233.4742 118.0562 C229.7908 122.2498 224.2693 124.6728 218.7595 125.0082 C210.5103 125.5107 205.6832 123.7943 199.5372 118.3037 C194.0643 121.3207 191.3705 124.6667 184.6125 125.0447 C177.8763 125.4218 171.7805 123.9633 166.7088 119.3450 C161.9120 114.9778 159.4122 109.5977 159.1237 103.1212 C158.8678 97.3670 160.9660 91.4190 164.8593 87.1478 C165.2825 86.5655 165.7112 85.9870 166.1452 85.4128 Z"></path>
<path id="" fill="#67757f" fill-opacity="1.0" stroke="#000000" stroke-width="0.0" stroke-opacity="1.0" stroke-linecap="round" stroke-linejoin="round"  filling="0" d="M199.1450 87.3840 C203.3190 82.7645 208.8772 80.0082 215.1255 79.7063 C221.1142 79.4012 226.9772 81.4990 231.4130 85.5340 C235.9037 89.5898 238.5820 95.2760 238.8488 101.3213 C238.9447 103.5305 238.8483 106.1530 238.1945 108.2700 C237.6358 110.0800 236.7897 111.8200 235.8800 113.4750 C235.3952 114.3565 233.8780 116.1690 233.6955 117.0260 C233.6443 117.2675 233.6983 117.5195 233.6995 117.7663 C233.5980 117.9228 233.6400 117.8672 233.4742 118.0562 C229.7908 122.2498 224.2693 124.6728 218.7595 125.0082 C210.5103 125.5107 205.6832 123.7943 199.5372 118.3037 C194.0643 121.3207 191.3705 124.6667 184.6125 125.0447 C177.8763 125.4218 171.7805 123.9633 166.7088 119.3450 C161.9120 114.9778 159.4122 109.5977 159.1237 103.1212 C158.8678 97.3670 160.9660 91.4190 164.8593 87.1478 C164.9603 87.1135 165.0625 87.0820 165.1625 87.0447 C166.6817 86.4785 168.3565 84.1298 169.7275 83.1320 C170.6195 82.4828 171.8268 82.0547 172.8452 81.6390 C178.6107 79.2852 184.7645 78.9555 190.5890 81.3303 C193.8582 82.6823 196.7820 84.7510 199.1450 87.3840 Z"></path>
<path id="" fill="#bcdcf3" fill-opacity="1.0" stroke="#000000" stroke-width="0.0" stroke-opacity="1.0" stroke-linecap="round" stroke-linejoin="round"  filling="0" d="M215.1337 91.1095 C221.3895 90.5305 226.9235 95.1478 227.4750 101.4060 C228.0262 107.6640 223.3848 113.1777 217.1243 113.7018 C210.9028 114.2223 205.4305 109.6158 204.8825 103.3965 C204.3345 97.1772 208.9170 91.6848 215.1337 91.1095 Z"></path>
<path id="" fill="#bcdcf3" fill-opacity="1.0" stroke="#000000" stroke-width="0.0" stroke-opacity="1.0" stroke-linecap="round" stroke-linejoin="round"  filling="0" d="M181.0092 91.1198 C187.2247 90.5598 192.7225 95.1322 193.3045 101.3457 C193.8867 107.5592 189.3340 113.0732 183.1228 113.6777 C176.8797 114.2852 171.3315 109.7043 170.7465 103.4593 C170.1613 97.2142 174.7620 91.6825 181.0092 91.1198 Z"></path>
<path id="" fill="#1c6399" fill-opacity="1.0" stroke="#000000" stroke-width="0.0" stroke-opacity="1.0" stroke-linecap="round" stroke-linejoin="round"  filling="0" d="M274.0675 115.3672 C280.7275 113.7523 310.0250 91.2090 318.5625 85.3950 C336.4175 73.2370 356.8300 63.2798 378.0275 58.7080 C383.4150 57.5465 391.6525 55.3770 396.5950 58.3708 C399.6825 63.4727 402.7325 74.7285 404.7850 80.8795 C406.3150 85.4665 408.2700 90.2110 409.3225 94.9157 C409.5500 95.9327 409.7200 96.8542 409.4850 97.8885 C409.0850 99.6508 407.8375 100.8123 406.5300 101.9595 C401.7375 102.9677 396.6200 102.7725 391.7525 103.4977 C380.6625 105.1503 369.6375 108.8700 359.2850 113.1075 C347.7925 117.8112 336.7125 123.4290 325.6950 129.1407 C315.6025 134.3728 258.9150 166.9223 252.9675 165.9355 C252.6600 165.2227 252.7275 164.7932 253.0350 164.0780 C254.1550 161.4648 256.4600 159.0060 258.0500 156.6382 C258.9775 155.2565 259.5175 153.5915 260.0825 152.0345 C261.9800 146.7985 262.6000 142.8277 260.6375 137.4985 C259.8075 135.2420 258.6775 133.1308 257.5275 131.0235 C255.3075 131.1350 253.1650 131.2325 250.9825 130.7272 C253.0375 130.6593 255.0925 130.9402 257.1425 130.6387 C264.7375 129.5213 266.4825 123.4995 270.3475 118.1552 C270.4050 118.0757 270.4625 117.9973 270.5225 117.9182 C270.4700 116.8255 270.8325 115.2177 271.5100 114.3637 L271.6825 114.7028 C272.4850 114.9942 273.2250 115.2285 274.0675 115.3672 Z"></path>
<path id="" fill="#fefefe" fill-opacity="1.0" stroke="#000000" stroke-width="0.0" stroke-opacity="1.0" stroke-linecap="round" stroke-linejoin="round"  filling="0" d="M270.5225 117.9182 C270.4700 116.8255 270.8325 115.2177 271.5100 114.3637 L271.6825 114.7028 C272.4850 114.9942 273.2250 115.2285 274.0675 115.3672 L274.3450 115.6078 C273.1475 116.5150 271.7575 117.0770 270.5225 117.9182 Z"></path>
<path id="" fill="#1c6399" fill-opacity="1.0" stroke="#000000" stroke-width="0.0" stroke-opacity="1.0" stroke-linecap="round" stroke-linejoin="round"  filling="0" d="M162.8772 240.5200 C163.3190 240.5988 163.7220 240.5575 164.0432 240.9005 C164.6767 241.5762 164.8683 242.5522 164.8927 243.4512 C164.9745 246.4530 163.6008 249.5658 161.5063 251.6650 C160.0620 253.1125 158.5378 253.6175 156.8488 254.6450 C155.1130 255.7025 153.4848 257.0200 151.6220 257.8525 C149.4552 258.8175 147.0590 259.2425 144.7563 259.7700 C141.2787 260.5675 137.7540 261.4675 134.2023 261.8350 C129.7600 262.2975 125.1602 262.0875 120.6935 262.0775 L119.5650 262.0325 C118.9560 261.6575 118.8443 261.6625 118.5960 261.0050 C118.6598 260.6325 118.7500 260.3000 118.9327 259.9675 C119.9255 258.1550 121.8480 256.4200 123.3220 254.9900 C134.9238 243.7245 148.5312 245.3725 162.8772 240.5200 Z"></path>
<path id="" fill="#54abed" fill-opacity="1.0" stroke="#000000" stroke-width="0.0" stroke-opacity="1.0" stroke-linecap="round" stroke-linejoin="round"  filling="0" d="M228.9285 378.0625 C228.3593 377.8025 227.7318 377.4550 227.3685 376.9300 C226.9295 376.2950 226.8967 375.4925 227.1057 374.7700 C228.2295 370.8875 233.7787 366.8025 237.1853 364.9800 C241.3160 362.7700 246.1815 362.1225 250.7475 361.4750 C251.4650 361.3750 252.9175 360.9800 253.5450 361.2350 C254.1650 361.4875 254.5275 362.0175 254.7525 362.6275 C255.0525 363.4400 255.2950 365.1250 254.9250 365.9000 L254.3975 365.9125 C253.0800 365.9975 249.3810 365.7900 248.3635 366.4100 C248.2205 367.5925 248.2960 368.9725 247.2930 369.7525 C246.0883 370.6925 244.7558 371.3550 243.6390 372.4125 C242.0542 373.9150 236.0440 381.6125 234.2507 381.3325 C233.6910 381.2450 233.3537 380.9500 233.0975 380.4525 C232.8050 379.8850 232.6792 378.9200 232.6127 378.2875 C231.4030 378.2650 230.1080 378.3475 228.9285 378.0625 Z"></path>
<path id="" fill="#1c6399" fill-opacity="1.0" stroke="#000000" stroke-width="0.0" stroke-opacity="1.0" stroke-linecap="round" stroke-linejoin="round"  filling="0" d="M228.9285 378.0625 C229.6693 378.0275 230.6250 378.0625 231.2940 377.7100 C234.3073 376.1300 237.9462 370.5225 241.8582 367.9450 C245.7005 365.4125 249.9362 365.0225 254.3975 365.9125 C253.0800 365.9975 249.3810 365.7900 248.3635 366.4100 C248.2205 367.5925 248.2960 368.9725 247.2930 369.7525 C246.0883 370.6925 244.7558 371.3550 243.6390 372.4125 C242.0542 373.9150 236.0440 381.6125 234.2507 381.3325 C233.6910 381.2450 233.3537 380.9500 233.0975 380.4525 C232.8050 379.8850 232.6792 378.9200 232.6127 378.2875 C231.4030 378.2650 230.1080 378.3475 228.9285 378.0625 Z"></path>
<path id="" fill="#54abed" fill-opacity="1.0" stroke="#000000" stroke-width="0.0" stroke-opacity="1.0" stroke-linecap="round" stroke-linejoin="round"  filling="0" d="M330.2650 312.2050 C333.5925 310.8625 339.6150 308.8775 343.0900 310.2750 C343.4500 310.4175 343.6900 310.6675 343.9500 310.9425 C344.1650 311.6000 344.1650 311.8775 343.9775 312.5450 C341.9250 313.1500 339.7750 313.1375 337.7250 313.8150 C329.3100 316.5950 328.5750 321.8850 322.6775 326.8800 C321.9200 327.5225 320.6275 328.6800 319.5425 328.1700 C318.7900 327.8175 318.4100 327.0550 318.2125 326.2850 C317.8750 324.9700 318.0100 323.4600 318.7300 322.2950 C320.3375 319.7050 323.4550 316.5525 325.9600 314.7575 C325.9725 313.8575 325.8750 312.6275 326.2275 311.7850 C326.4725 311.2075 326.5625 311.2025 327.1100 310.9800 C327.8850 311.0825 328.3950 311.2350 329.0875 311.5950 L330.2650 312.2050 Z"></path>
<path id="" fill="#1d649a" fill-opacity="1.0" stroke="#000000" stroke-width="0.0" stroke-opacity="1.0" stroke-linecap="round" stroke-linejoin="round"  filling="0" d="M325.9600 314.7575 C325.9725 313.8575 325.8750 312.6275 326.2275 311.7850 C326.4725 311.2075 326.5625 311.2025 327.1100 310.9800 C327.8850 311.0825 328.3950 311.2350 329.0875 311.5950 L330.2650 312.2050 C328.8500 313.0700 327.4375 314.0100 325.9600 314.7575 Z"></path>
<path id="" fill="#54abec" fill-opacity="1.0" stroke="#000000" stroke-width="0.0" stroke-opacity="1.0" stroke-linecap="round" stroke-linejoin="round"  filling="0" d="M238.8203 354.0900 C242.1970 353.8200 245.6780 354.0225 249.0607 354.1700 C248.9865 355.5350 249.0018 356.8900 249.0197 358.2575 C246.8483 357.6750 244.8898 357.1675 242.6185 357.3825 C236.8075 357.9275 231.7990 362.4075 228.2195 366.6800 C227.3625 367.9125 225.8220 369.5125 224.3893 370.0800 C223.7030 370.3550 222.9640 370.4175 222.3008 370.0275 C221.6703 369.6575 221.3027 368.8450 221.1755 368.1500 C220.8840 366.5575 221.5378 365.0025 222.4037 363.7000 C225.7690 358.6400 233.0813 355.3475 238.8203 354.0900 Z"></path>
<path id="" fill="#54abed" fill-opacity="1.0" stroke="#000000" stroke-width="0.0" stroke-opacity="1.0" stroke-linecap="round" stroke-linejoin="round"  filling="0" d="M341.8050 318.0575 C344.5300 317.8525 347.3025 317.9825 350.0300 318.1125 C350.0950 318.9775 350.0925 319.8625 350.1225 320.7325 C349.0925 320.7350 348.0725 320.7550 347.0525 320.8800 C339.8700 321.7575 335.1700 328.0300 331.0350 333.3475 C330.1125 334.4300 329.1650 335.6225 327.7475 336.0525 C327.0650 336.2600 326.6225 336.1775 325.9850 335.8600 C325.5800 335.4250 325.3400 335.0575 325.1875 334.4850 C324.6725 332.5300 325.3475 330.5350 326.3725 328.8750 C329.4675 323.8650 336.1275 319.3975 341.8050 318.0575 Z"></path>
</svg>