<svg xmlns="http://www.w3.org/2000/svg" viewBox="0 0 512 512" height="512.0px" width="512.0px">
<path id="" fill="#e0e7ec" fill-opacity="1.0" stroke="#000000" stroke-width="0.0" stroke-opacity="1.0" stroke-linecap="round" stroke-linejoin="round"  filling="0" d="M457.6475 220.8020 C458.3450 220.7587 459.0025 220.6170 459.6075 221.0410 C459.9500 221.6613 460.1325 222.2090 460.1825 222.9225 C460.2675 224.1410 460.0725 225.3997 460.0325 226.6205 C459.9650 228.7905 460.0600 230.9970 460.0600 233.1710 L460.0600 259.3275 L460.0550 339.9125 L460.0600 393.9625 L460.0825 409.4475 C460.0850 413.3875 460.2800 417.4250 459.6225 421.3200 C458.2325 429.5550 453.7125 437.8275 448.1150 443.9175 C439.8625 452.8925 429.7875 456.4750 417.7425 456.9700 C409.8350 457.2925 401.8125 457.0300 393.8950 457.0275 L349.1325 457.0150 L212.3038 457.0150 L131.5540 457.0200 L107.8008 457.0375 C101.8553 457.0425 95.8572 457.2625 89.9495 456.4950 C80.2280 455.2300 72.9225 452.2975 65.6707 445.6525 C65.0510 445.0600 64.4413 444.4575 63.8420 443.8450 C57.8825 437.6975 53.2718 428.3800 52.2400 419.8600 C51.7055 415.4475 51.9458 410.8275 51.9440 406.3800 L51.9785 389.3725 C55.1447 386.6950 67.5825 381.8900 72.1808 379.9175 L112.5302 362.8800 C167.0410 339.7400 221.6998 316.9475 276.5025 294.5100 C319.4100 276.1975 362.5575 258.4550 405.9325 241.2843 C417.6275 236.5745 429.1175 231.4048 440.8550 226.7713 C446.2350 224.6465 452.0350 222.1958 457.6475 220.8020 Z"></path>
<path id="" fill="#ffffff" fill-opacity="0.027451" stroke="#000000" stroke-width="0.0" stroke-opacity="1.0" stroke-linecap="round" stroke-linejoin="round"  filling="0" d="M0.6766 0.0000 L511.3225 0.0000 C508.2025 0.6650 504.4600 0.3195 501.2650 0.3163 L484.2875 0.2973 L415.9925 0.2969 L147.6600 0.2999 L40.7298 0.2926 L15.1412 0.3109 C10.7615 0.3248 4.9184 0.8886 0.6766 0.0000 Z"></path>
<path id="" fill="#ffffff" fill-opacity="0.0196078" stroke="#000000" stroke-width="0.0" stroke-opacity="1.0" stroke-linecap="round" stroke-linejoin="round"  filling="0" d="M1.3091 512.0000 C3.3875 511.2775 25.6402 511.7425 29.6990 511.7425 L108.8480 511.7450 L408.0800 511.7525 L481.9375 511.7525 L501.0200 511.7350 C504.2850 511.7300 508.1175 511.3450 511.2925 512.0000 L1.3091 512.0000 Z"></path>
<path id="" fill="#ffffff" fill-opacity="0.027451" stroke="#000000" stroke-width="0.0" stroke-opacity="1.0" stroke-linecap="round" stroke-linejoin="round"  filling="0" d="M0.0000 0.9172 C0.7097 3.9909 0.2566 8.0218 0.2535 11.1965 L0.2509 30.6735 L0.2530 111.2188 L0.2531 439.7300 L0.2509 490.8325 C0.2507 494.5500 0.7518 508.0600 0.0000 510.5825 L0.0000 0.9172 Z"></path>
<path id="" fill="#be1931" fill-opacity="1.0" stroke="#000000" stroke-width="0.0" stroke-opacity="1.0" stroke-linecap="round" stroke-linejoin="round"  filling="0" d="M437.2300 252.5550 C437.3550 252.5425 437.4775 252.5250 437.6025 252.5150 C440.9850 252.2725 443.8450 253.2575 446.3525 255.5925 C448.5225 257.6125 449.8275 260.2750 449.8500 263.2575 C449.8675 266.0525 448.7400 269.5300 446.6275 271.4625 C443.0075 274.7775 427.3675 280.3300 422.1525 282.5050 L389.1325 296.3600 L201.8443 375.1275 C188.3732 380.8150 174.8127 386.4175 161.4377 392.3225 C152.7253 396.1675 144.1200 400.5525 135.2023 403.8875 C128.2450 406.4875 121.1180 408.0175 113.6633 407.8225 C101.2285 407.4950 90.4365 402.1175 81.9438 393.1850 C78.4685 389.4550 74.9810 384.0475 73.9265 379.0050 C73.3710 376.3475 74.0060 373.6325 75.4928 371.3800 C77.2255 368.7575 80.2697 366.8525 83.3460 366.2325 C93.9945 364.0875 96.6468 377.3800 103.7825 382.0700 C109.5565 385.8650 117.8548 385.6275 124.2892 383.9875 C131.9585 382.0325 140.7742 376.8950 148.2395 373.6725 L208.4130 347.7875 C218.7035 343.3525 229.1568 339.2425 239.4812 334.8775 L374.5025 278.2625 L419.5725 259.4525 C425.3350 257.0925 431.1050 253.7725 437.2300 252.5550 Z"></path>
<path id="" fill="#55aced" fill-opacity="1.0" stroke="#000000" stroke-width="0.0" stroke-opacity="1.0" stroke-linecap="round" stroke-linejoin="round"  filling="0" d="M271.6900 88.0265 C273.5575 87.8725 275.4775 87.9430 277.2775 88.5013 C279.9175 89.3205 282.0600 91.1860 283.7325 93.3320 C287.8650 98.6285 291.1225 104.6115 294.4800 110.4092 L306.1925 130.4735 L329.0075 169.9117 C337.3200 184.0510 345.4150 198.3177 353.2875 212.7065 C356.0700 217.8050 358.5000 223.0887 360.5550 228.5205 C363.5750 236.5885 365.5825 245.1415 367.8775 253.4450 C369.1100 257.9000 370.7175 262.2425 371.6800 266.7725 C371.9850 268.2200 372.4475 270.1025 372.0075 271.5475 C369.1775 274.1925 322.4700 293.0525 314.8025 296.2750 L215.4303 338.0550 C210.1335 339.9950 193.3270 347.9900 189.1033 348.0950 C186.9190 345.9100 182.7750 322.7575 182.3802 318.6000 C182.0620 315.2525 181.4312 310.6150 182.7682 307.4775 C183.2648 306.3125 184.2940 305.1900 185.0708 304.1875 C189.6947 298.2250 195.1545 293.9925 200.5710 288.8925 C203.4475 286.1850 206.1358 283.2775 209.0018 280.5575 C211.0443 278.6200 213.2630 276.8750 215.3593 274.9950 C219.3320 271.4350 223.2070 267.8250 227.2560 264.3425 C231.5807 260.6200 237.7437 256.5025 241.2478 252.2050 L241.4595 251.9400 C239.5305 246.4845 234.0760 238.8997 230.9818 233.6942 L197.6223 178.3587 L190.2587 166.1503 C187.5927 161.7802 184.7007 157.5290 183.0300 152.6557 C183.3553 150.9948 183.8387 149.2860 184.6305 147.7863 C185.4552 146.2305 186.6037 144.8695 187.9982 143.7948 C190.0245 142.2057 192.2860 140.8315 194.3945 139.3468 C201.5078 134.3380 208.7572 129.5582 215.9430 124.6615 C227.9830 116.3240 240.1257 108.1357 252.3675 100.0990 C256.8600 97.1005 267.2800 89.3695 271.6900 88.0265 Z"></path>
<path id="" fill="#3b88c3" fill-opacity="1.0" stroke="#000000" stroke-width="0.0" stroke-opacity="1.0" stroke-linecap="round" stroke-linejoin="round"  filling="0" d="M282.2900 93.6255 C282.5350 93.7097 282.6550 93.7395 282.8975 93.8887 C283.9625 94.5455 285.1625 95.8327 285.8750 96.8668 C287.7450 99.5780 289.3300 102.5168 291.1275 105.2815 C297.3675 114.8840 303.4075 124.5107 309.3775 134.2860 C318.8950 149.6985 328.3050 165.1772 337.6075 180.7205 C341.4150 187.1330 345.3650 193.4855 349.2975 199.8223 C351.5875 203.5117 354.1925 207.1602 356.0300 211.0988 C360.2600 220.1565 361.1625 231.8203 364.0075 241.5395 C354.1025 245.5477 344.0700 249.4150 334.0550 253.1350 C328.4775 255.2050 322.5625 256.9300 317.1850 259.4525 C310.1175 261.6625 303.3650 264.4850 296.1125 266.1325 C295.3200 265.8850 294.5150 265.6400 293.7575 265.3000 C291.3975 264.2475 289.4300 262.6000 287.9100 260.5175 C285.6150 257.3700 283.8250 253.8275 281.9400 250.4225 C276.9400 241.3865 272.4475 232.0867 267.8300 222.8490 L257.2725 201.7108 C253.6075 194.3860 249.9427 187.1450 246.9675 179.5005 C243.9722 171.8047 238.6595 158.2142 244.7057 150.9685 C247.1560 148.0323 251.0000 145.9547 254.0300 143.6490 C261.0450 138.3082 269.9800 128.9393 274.5525 121.4450 C278.2075 115.4587 280.4575 108.7215 281.1325 101.7405 C281.3800 99.1862 281.2750 95.9577 282.2900 93.6255 Z"></path>
<path id="" fill="#226699" fill-opacity="1.0" stroke="#000000" stroke-width="0.0" stroke-opacity="1.0" stroke-linecap="round" stroke-linejoin="round"  filling="0" d="M181.2988 359.0800 C179.2798 357.6825 177.4733 356.2825 176.2213 354.1200 C174.8445 351.7425 174.4577 348.6925 175.2440 346.0525 C176.1525 343.0050 178.4520 341.3875 181.1042 339.9375 C184.3177 338.1825 187.7292 336.9475 191.1035 335.5475 C195.1685 333.8625 199.1803 332.0425 203.2465 330.3500 L235.4922 316.6675 C240.7168 314.4825 246.0240 312.4250 251.2125 310.1700 C254.8800 308.5750 258.6850 306.4400 262.5125 305.3525 C264.8500 304.6900 267.3825 304.6025 269.7150 305.3350 C272.0700 306.0725 274.1600 307.6775 275.2950 309.8925 C276.9525 313.1350 276.5275 316.8550 275.4575 320.1900 C272.9925 322.3375 270.1475 322.9200 267.2625 324.2375 L267.0050 324.3575 C262.7775 326.6525 261.3075 327.8675 256.2200 328.4075 C256.0750 329.6350 256.1025 330.8550 256.1100 332.0875 C253.7175 332.0575 250.6150 331.7150 248.3233 332.3425 C246.3945 332.8700 244.4702 333.7825 242.6125 334.5350 C236.0242 337.2025 229.6873 340.4400 223.1823 343.2850 C218.9572 345.1325 214.6362 346.6825 210.3862 348.4475 C208.4753 349.2400 206.6407 350.2150 204.7272 351.0025 C202.4852 351.9225 200.1642 352.5775 197.9438 353.5675 C194.8477 354.9475 191.6458 356.2150 188.5930 357.6775 C187.0815 358.4000 185.6605 359.4450 184.0508 359.9275 C183.2433 360.1700 182.6613 360.2500 181.8683 359.8800 C181.6693 359.6200 181.4525 359.3700 181.2988 359.0800 Z"></path>
<path id="" fill="#bc1932" fill-opacity="1.0" stroke="#000000" stroke-width="0.0" stroke-opacity="1.0" stroke-linecap="round" stroke-linejoin="round"  filling="0" d="M181.2988 359.0800 C186.6048 358.1225 192.0235 354.9025 197.0177 352.8125 L238.9465 335.1600 L250.0575 330.4825 C252.3025 329.5350 254.5825 328.4175 256.9300 327.7625 C259.2225 327.1250 264.4225 323.8775 265.8775 323.7250 C266.2400 323.6875 266.7075 324.1500 267.0050 324.3575 C262.7775 326.6525 261.3075 327.8675 256.2200 328.4075 C256.0750 329.6350 256.1025 330.8550 256.1100 332.0875 C253.7175 332.0575 250.6150 331.7150 248.3233 332.3425 C246.3945 332.8700 244.4702 333.7825 242.6125 334.5350 C236.0242 337.2025 229.6873 340.4400 223.1823 343.2850 C218.9572 345.1325 214.6362 346.6825 210.3862 348.4475 C208.4753 349.2400 206.6407 350.2150 204.7272 351.0025 C202.4852 351.9225 200.1642 352.5775 197.9438 353.5675 C194.8477 354.9475 191.6458 356.2150 188.5930 357.6775 C187.0815 358.4000 185.6605 359.4450 184.0508 359.9275 C183.2433 360.1700 182.6613 360.2500 181.8683 359.8800 C181.6693 359.6200 181.4525 359.3700 181.2988 359.0800 Z"></path>
<path id="" fill="#226699" fill-opacity="1.0" stroke="#000000" stroke-width="0.0" stroke-opacity="1.0" stroke-linecap="round" stroke-linejoin="round"  filling="0" d="M318.8450 301.3525 C316.4350 299.2475 313.6975 297.5150 312.5425 294.3550 C311.6600 291.9450 312.1475 289.5000 313.2250 287.2400 C314.0400 285.5300 315.1200 284.1100 316.7100 283.0525 C320.6000 280.4725 325.5725 278.8450 329.8675 276.9950 L349.3600 268.4900 C356.9150 265.2500 364.4525 261.3025 372.2275 258.6750 C375.6850 257.5075 378.5850 257.3075 381.9550 259.0625 C384.1025 260.1825 385.7775 262.0425 386.4950 264.3750 C387.2575 266.8575 386.9775 271.0675 385.7400 273.3650 C385.4775 274.5325 384.6050 275.0900 383.6350 275.7150 C381.0175 277.4000 377.9475 277.8500 375.2100 279.1950 C372.8600 280.3500 370.7450 282.1350 368.2950 283.0625 C366.4050 283.7800 364.2675 283.8550 362.4175 284.5975 C361.1650 285.1025 360.2250 286.2700 358.9575 286.7475 C356.6250 287.6275 354.0425 287.7150 351.7250 288.7425 C348.3525 290.2375 345.2500 292.3575 341.8525 293.8400 C339.7100 294.7725 337.1725 295.0400 335.1350 296.1650 C333.5000 297.0675 332.1400 298.8625 330.4425 299.5425 C328.8650 300.1750 317.9200 303.3925 316.8050 303.1325 C316.5125 303.0625 316.5150 303.0450 316.2975 302.9075 C316.4100 302.3525 316.4550 302.1950 316.9950 301.9250 C317.3350 301.7575 317.8550 301.6975 318.2250 301.6100 C318.6625 301.5075 318.4875 301.5800 318.8450 301.3525 Z"></path>
<path id="" fill="#bc1931" fill-opacity="1.0" stroke="#000000" stroke-width="0.0" stroke-opacity="1.0" stroke-linecap="round" stroke-linejoin="round"  filling="0" d="M318.8450 301.3525 C319.3150 301.0975 319.1075 301.1650 319.6200 301.0625 C324.5275 300.0675 328.3725 297.8125 332.8775 295.8375 L351.3000 287.9400 C362.5775 283.1475 374.8875 279.0100 385.7400 273.3650 C385.4775 274.5325 384.6050 275.0900 383.6350 275.7150 C381.0175 277.4000 377.9475 277.8500 375.2100 279.1950 C372.8600 280.3500 370.7450 282.1350 368.2950 283.0625 C366.4050 283.7800 364.2675 283.8550 362.4175 284.5975 C361.1650 285.1025 360.2250 286.2700 358.9575 286.7475 C356.6250 287.6275 354.0425 287.7150 351.7250 288.7425 C348.3525 290.2375 345.2500 292.3575 341.8525 293.8400 C339.7100 294.7725 337.1725 295.0400 335.1350 296.1650 C333.5000 297.0675 332.1400 298.8625 330.4425 299.5425 C328.8650 300.1750 317.9200 303.3925 316.8050 303.1325 C316.5125 303.0625 316.5150 303.0450 316.2975 302.9075 C316.4100 302.3525 316.4550 302.1950 316.9950 301.9250 C317.3350 301.7575 317.8550 301.6975 318.2250 301.6100 C318.6625 301.5075 318.4875 301.5800 318.8450 301.3525 Z"></path>
<path id="" fill="#bbddf5" fill-opacity="1.0" stroke="#000000" stroke-width="0.0" stroke-opacity="1.0" stroke-linecap="round" stroke-linejoin="round"  filling="0" d="M381.0575 54.7988 C383.7950 54.6833 386.1775 54.7710 388.5775 56.2995 C390.7925 57.7097 392.3600 60.5205 392.8550 63.0540 C393.3475 65.5815 392.6300 68.3197 391.1225 70.3885 C390.1000 71.7915 388.5225 72.9327 387.0650 73.8595 C384.3425 75.5875 381.3850 77.0135 378.5800 78.6133 C371.5925 82.6500 364.5650 86.6180 357.5000 90.5168 L340.2250 100.2075 C335.2500 103.0623 330.3150 106.0505 325.1975 108.6483 C324.0125 109.2493 322.8950 109.8155 321.5625 110.0117 C318.9700 110.1617 316.3425 110.2940 313.9625 109.0495 C311.6300 107.8307 310.0500 105.4555 309.3300 102.9693 C308.6825 100.7322 308.9550 98.5295 310.0800 96.4955 C311.1375 94.5825 312.7350 93.0835 314.5350 91.8790 C319.0975 88.8272 324.2650 86.4203 329.0675 83.7420 L353.8050 69.7363 C359.0650 66.7875 364.3875 63.8987 369.6175 60.9037 C373.2950 58.7965 376.9900 56.0305 381.0575 54.7988 Z"></path>
<path id="" fill="#bbddf5" fill-opacity="1.0" stroke="#000000" stroke-width="0.0" stroke-opacity="1.0" stroke-linecap="round" stroke-linejoin="round"  filling="0" d="M384.0400 111.8177 C385.6325 111.7055 386.9950 111.7180 388.5125 112.2685 C391.1550 113.2272 393.4375 115.3220 394.5450 117.9170 C395.5425 120.2620 395.5125 122.9170 394.4625 125.2390 C393.6325 127.0945 392.3000 128.5363 390.6950 129.7487 C388.6250 131.3100 386.2225 132.5400 383.9775 133.8340 C379.7500 136.2598 375.5025 138.6470 371.2350 140.9957 C363.9225 145.0660 356.6325 149.9178 348.8300 152.9662 C347.0750 153.3183 345.6325 152.9552 344.0025 152.2370 C341.5825 151.1707 339.3950 149.3098 338.4600 146.7840 C337.5175 144.2350 337.5325 140.8105 338.7475 138.3655 C339.5425 136.7650 340.8375 135.5100 342.2800 134.4843 C344.8725 132.6390 347.9425 131.2782 350.7100 129.6885 C356.6225 126.2888 362.5950 123.0253 368.5425 119.6873 C373.5450 116.8788 378.5600 113.5992 384.0400 111.8177 Z"></path>
<path id="" fill="#226699" fill-opacity="1.0" stroke="#000000" stroke-width="0.0" stroke-opacity="1.0" stroke-linecap="round" stroke-linejoin="round"  filling="0" d="M267.9625 174.8322 C270.1325 174.7445 272.1975 174.8710 274.1275 175.9747 C276.2950 177.2137 278.3800 179.6158 278.9875 182.0497 C279.5850 184.4365 279.3325 187.3378 277.9525 189.4285 C277.0575 190.7872 275.5175 191.9605 274.2250 192.9360 C269.9225 196.1835 265.1575 198.8975 260.6900 201.9133 C256.9725 204.4212 253.5325 207.2195 249.6573 209.5160 C247.1727 210.9883 244.6855 212.5075 241.8542 213.1817 C240.2563 213.3160 238.9017 213.1207 237.4640 212.3768 C234.8503 211.0237 232.0423 208.0788 231.1720 205.2433 C230.5267 203.1410 230.8440 200.9433 231.9115 199.0367 C233.0612 196.9832 234.9447 195.2250 236.7802 193.7827 C241.2782 190.2480 246.6537 187.5350 251.5250 184.5233 C256.5225 181.4332 262.3250 176.3255 267.9625 174.8322 Z"></path>
<path id="" fill="#226699" fill-opacity="1.0" stroke="#000000" stroke-width="0.0" stroke-opacity="1.0" stroke-linecap="round" stroke-linejoin="round"  filling="0" d="M295.5825 223.0535 C298.4200 222.7940 300.9000 223.4180 303.2700 225.0652 C305.3550 226.5137 306.7900 228.5485 307.1975 231.0760 C307.5925 233.5085 307.0500 235.9675 305.5750 237.9518 C304.4025 239.5305 302.8850 240.7190 301.0575 241.4397 C295.7450 243.5355 289.2550 243.8100 283.6325 244.7612 C277.6800 245.7688 271.8000 247.1840 265.8075 247.9758 C263.0950 248.1738 260.8500 247.8205 258.4500 246.4348 C256.3050 245.1958 254.6875 243.3740 254.1225 240.9232 C253.5250 238.3285 253.6900 234.7843 255.1700 232.5262 C256.5200 230.4640 258.7775 229.2283 261.0625 228.4673 C265.7050 226.9220 270.7200 227.1210 275.5200 226.4852 C282.2000 225.6005 288.9700 224.3497 295.5825 223.0535 Z"></path>
<path id="" fill="#bbddf5" fill-opacity="1.0" stroke="#000000" stroke-width="0.0" stroke-opacity="1.0" stroke-linecap="round" stroke-linejoin="round"  filling="0" d="M394.0400 164.8165 C396.3800 164.6398 398.4825 164.9170 400.5075 166.1925 C402.7100 167.5807 404.4750 169.9875 405.0450 172.5383 C405.5950 175.1115 405.0475 177.7975 403.5325 179.9495 C402.5275 181.3642 400.9125 182.5975 399.4850 183.5712 C395.5225 186.2733 391.0725 188.3980 386.8700 190.6973 C383.0025 192.8143 379.1300 195.2385 375.0775 196.9792 C373.7275 197.5590 372.4625 197.9408 371.0050 198.1517 C369.4100 198.3035 367.8250 198.2690 366.3575 197.5605 C363.8675 196.3582 361.5150 193.5195 360.6550 190.9312 C359.8775 188.5855 360.2525 186.2303 361.3600 184.0558 C361.9275 182.9390 362.6825 181.7953 363.6675 181.0040 C367.6650 177.7937 373.0225 175.5358 377.5400 173.0990 C382.8700 170.2220 388.2350 166.6630 394.0400 164.8165 Z"></path>
<path id="" fill="#226699" fill-opacity="1.0" stroke="#000000" stroke-width="0.0" stroke-opacity="1.0" stroke-linecap="round" stroke-linejoin="round"  filling="0" d="M252.3400 268.8350 C258.9025 268.6500 266.9600 273.7850 272.6450 276.9625 C276.4900 279.1100 281.7025 281.2875 282.9150 285.9550 C283.6250 288.6900 283.4200 292.0175 281.9225 294.4675 C280.3075 297.1125 277.7050 298.2700 274.8125 298.9450 C272.5400 299.2675 270.6725 298.5800 268.6400 297.6350 C264.3975 295.6675 249.6382 288.2000 247.0247 285.3650 C245.3985 283.6025 244.5960 281.4875 243.7825 279.2800 C244.2527 276.8475 244.9720 274.2200 246.4445 272.1925 C247.9588 270.1050 249.8545 269.2350 252.3400 268.8350 Z"></path>
</svg>