<svg xmlns="http://www.w3.org/2000/svg" viewBox="0 0 512 512" height="512.0px" width="512.0px">
<path id="" fill="#157569" fill-opacity="1.0" stroke="#000000" stroke-width="0.0" stroke-opacity="1.0" stroke-linecap="round" stroke-linejoin="round"  filling="0" d="M244.5350 51.1633 C252.0825 50.7105 259.7625 51.2693 267.3400 50.9860 C267.9400 56.9473 269.0750 62.9487 269.9475 68.8828 L274.4825 100.6935 C275.4300 107.3545 276.9925 114.4807 276.9175 121.2065 C291.6500 123.3757 306.3350 127.3960 319.5475 134.3795 L372.1900 74.1938 L384.6125 60.0255 C386.7150 57.5890 388.7450 54.8913 391.0225 52.6248 C391.6025 52.0490 392.1950 51.4102 393.0125 51.2182 C395.9625 50.5250 410.2725 51.0587 414.3350 51.0405 C414.1325 52.1825 413.8950 53.2188 413.3700 54.2643 C412.1050 56.7798 410.4750 59.1730 409.0200 61.5853 C406.1925 66.2343 403.4000 70.9048 400.6425 75.5963 L362.4100 139.5278 C360.2000 143.2870 354.5425 151.0805 353.2550 154.6215 C352.8075 155.8545 353.3850 156.1628 354.2300 156.9402 C361.9750 164.0735 369.3425 171.2975 375.3925 179.9642 C376.6225 181.7283 378.0225 183.5777 378.9225 185.5325 C378.9575 185.6080 378.9900 185.6845 379.0225 185.7605 C386.3425 183.0380 394.5150 181.4665 402.1025 179.5685 L442.1225 169.6013 C448.4125 168.0078 454.8525 166.6215 461.0575 164.7318 C460.7575 172.3647 460.9525 180.0968 461.0125 187.7400 C456.3300 189.2628 451.1000 191.9600 446.5100 193.9272 L418.4850 205.8893 C410.5925 209.3472 402.5800 213.3060 394.3950 216.0013 C395.5375 220.0980 397.4275 224.0175 398.5925 228.1415 C402.5675 242.2305 403.8225 256.4075 404.0625 270.9850 C411.1875 271.4100 418.2525 272.6400 425.3000 273.7225 L448.4325 277.0850 C452.6075 277.6725 456.8325 278.3800 461.0400 278.6825 C460.8725 282.5450 460.9975 286.4450 460.9600 290.3125 C460.9250 294.0175 460.6700 297.8450 461.0075 301.5325 C448.6225 301.4075 436.2150 301.5600 423.8250 301.5375 C418.1375 301.5275 412.1625 301.8800 406.5175 301.3525 C407.1925 305.8300 407.5425 310.4050 408.1050 314.9050 C410.1050 330.8475 411.9725 347.0850 415.1200 362.8400 C417.0650 375.6825 419.6575 388.7100 422.7275 401.3375 C424.1725 407.2775 426.5625 413.2775 427.4900 419.2925 C427.8225 421.4525 427.8200 423.6250 427.0900 425.7100 C424.6025 432.8125 416.4900 434.4100 414.2325 440.5925 C412.0925 446.4475 412.6525 455.2300 415.2550 460.8375 C388.8975 460.3775 362.4575 460.7825 336.0925 460.7850 L185.7965 460.7900 L124.6905 460.7900 L107.1022 460.7900 C101.6577 460.7950 96.2198 460.8975 90.8058 460.2000 C81.8062 459.0400 72.2080 455.3900 65.2347 449.4900 C56.4785 442.0775 52.3135 431.4050 51.3785 420.1875 C50.8065 413.3250 51.0925 406.3050 51.0912 399.4200 L51.0920 364.3500 L51.1037 253.5375 L51.1160 227.7598 C51.1125 223.9895 50.8035 219.9807 51.0472 216.2388 C51.0952 215.5018 51.2460 215.1528 51.7135 214.5990 L52.3217 214.6133 C56.8120 217.9303 74.2755 267.2725 76.6902 275.2800 C79.4475 274.5500 82.4535 274.2950 85.2805 273.8875 L100.3578 271.7425 C102.6817 271.4225 105.1913 271.3375 107.4503 270.7275 C107.8130 270.1925 107.9260 269.7300 107.9905 269.0975 C108.4710 264.4000 108.1982 259.1850 108.6885 254.2000 C109.9928 240.9393 112.8655 228.5677 117.7050 216.1700 C114.7087 214.7043 111.5312 213.5188 108.4565 212.2213 L91.1200 204.8163 C82.6322 201.0907 74.1160 197.4305 65.5720 193.8360 C60.8310 191.8270 56.1048 189.6647 51.2583 187.9245 C50.3655 180.4115 51.4375 172.5450 51.0378 164.9680 C78.2437 172.1490 105.6670 178.5632 132.9130 185.6107 C137.0435 178.8145 141.8630 173.0450 147.1615 167.1577 C148.7030 165.4450 150.1828 163.6348 151.8050 161.9993 C154.4065 159.3770 157.4780 157.4045 159.9088 154.5565 C147.5432 131.1110 135.8460 107.2085 124.1535 83.4173 C119.5598 74.0703 114.3985 64.8893 110.0995 55.4170 C109.5648 54.2390 108.8123 52.8100 108.8375 51.4995 L109.3272 51.1003 C116.4085 51.4227 123.7305 50.4482 130.7565 51.2840 C133.9012 54.2825 136.4125 58.3455 138.9957 61.8347 L151.2088 78.1460 L180.5025 117.1852 C184.6562 122.7982 189.0822 128.2815 192.9560 134.0898 C200.9540 128.1375 224.4220 122.5508 234.6503 121.3257 C235.4547 116.6930 235.9223 111.9658 236.5598 107.3033 L240.0522 82.5560 C240.8492 76.8223 241.6800 71.0932 242.5443 65.3692 C243.2715 60.6487 244.1170 55.9232 244.5350 51.1633 Z M96.7343 324.6075 C97.4830 322.8200 98.0640 321.0550 98.5782 319.1875 C100.0713 313.8550 101.7188 306.2700 104.0608 301.4600 C98.2988 301.5300 92.2065 301.8900 86.4717 301.4175 C88.4738 306.0300 90.6068 310.5825 92.5830 315.2050 C93.8900 318.2625 95.0202 321.7700 96.7343 324.6075 Z"></path>
<path id="" fill="#3ec8b8" fill-opacity="1.0" stroke="#000000" stroke-width="0.0" stroke-opacity="1.0" stroke-linecap="round" stroke-linejoin="round"  filling="0" d="M278.6600 313.0000 C284.2975 305.6100 287.1275 292.8175 288.2875 283.6600 C288.6800 280.5475 288.5800 276.6450 289.6200 273.7225 C289.9275 272.8550 290.0300 272.2900 290.8550 271.8725 C293.2450 272.0575 295.0825 274.7325 297.2625 275.6775 C311.3450 281.7850 331.1025 277.2125 345.1700 272.4625 C349.7700 270.9075 354.2575 268.7550 358.9575 267.5500 C358.9325 271.0975 358.2225 274.5925 358.1125 278.1375 C357.9600 283.1550 358.1550 288.1875 357.9325 293.2000 C357.8075 295.9750 357.3975 298.7325 357.2025 301.5025 C357.0225 304.0575 357.0200 306.6275 356.8150 309.1800 C356.1475 316.9125 355.2775 324.6250 354.2075 332.3125 C352.5900 345.0125 348.5075 370.3750 338.4150 379.2000 C336.8325 380.5825 335.0375 381.6100 333.0225 382.2250 C322.5900 385.4150 300.0400 377.0825 288.9300 374.5175 C279.8875 372.4300 270.3800 370.4600 261.0950 370.0600 C247.6355 369.4825 234.3985 371.8225 221.3947 375.1125 C211.3327 377.6575 192.4295 383.7075 182.8073 382.9350 C178.0280 382.5525 174.5128 380.5525 171.4270 376.9100 C159.3642 362.6750 156.1740 321.3525 154.8602 302.5000 C154.6217 299.0750 154.2225 295.6550 154.0737 292.2250 C153.8860 287.8975 154.0343 283.5575 153.9375 279.2275 C153.8510 275.3575 152.8783 271.5525 153.2227 267.6675 C157.3017 268.2150 160.9223 270.4675 164.7910 271.7800 C177.5853 276.1125 190.8455 279.4650 204.4492 278.1925 C206.2812 278.0225 208.4210 277.9575 210.1835 277.4900 C214.4330 276.3575 217.4640 273.0300 221.4590 271.6650 C222.2292 272.3775 222.4875 273.8550 222.6992 274.8650 C223.2032 277.2675 223.1427 279.8600 223.4250 282.3075 C223.9028 286.4475 224.7648 290.7075 225.7502 294.7575 C227.6995 302.7750 229.6767 306.0600 233.5300 313.0275 C239.3410 312.7700 245.2173 312.9450 251.0375 312.9425 C260.2450 312.9150 269.4525 312.9325 278.6600 313.0000 Z M261.1250 335.1625 C264.6700 335.1650 284.5025 335.5950 286.2925 335.0250 C286.4850 334.7150 286.6575 334.6125 286.5725 334.2250 C286.2150 332.6075 283.2100 331.1750 281.8400 330.4450 C270.9550 324.6400 262.9150 324.7925 251.0975 324.8725 C248.6142 324.9825 246.1800 325.1375 243.7310 325.6050 C239.4592 326.4175 229.2583 329.7225 226.5128 332.7075 C226.0385 333.2225 225.7560 333.8875 225.8530 334.5925 C225.8638 334.6725 225.8893 334.7500 225.9075 334.8300 C227.2975 335.5800 256.6250 335.1625 261.1250 335.1625 Z"></path>
<path id="" fill="#3ec8b8" fill-opacity="1.0" stroke="#000000" stroke-width="0.0" stroke-opacity="1.0" stroke-linecap="round" stroke-linejoin="round"  filling="0" d="M255.2875 210.1160 C258.7650 210.0338 262.1425 210.4520 265.5975 210.7007 C279.4225 211.6955 290.9275 214.1192 303.8375 219.2617 C312.8425 222.8488 321.9450 228.4523 329.2875 234.8020 C331.7375 236.9205 333.9975 239.3590 336.2825 241.6565 C337.8500 243.2310 340.6050 245.5220 341.2875 247.6765 C341.4850 248.2930 341.4550 248.3900 341.1800 248.9220 C338.9000 249.9730 334.9100 246.3038 333.0750 245.0802 C323.7150 238.8378 312.3525 233.1570 300.7975 233.4917 C288.0875 233.8602 280.6475 241.7135 279.2150 254.0800 C278.6350 259.0925 279.0150 264.4425 279.0525 269.4900 C279.0775 272.7550 279.4850 276.5175 278.8050 279.7025 C278.3925 281.6250 277.3800 283.3150 276.0100 284.7075 C271.5400 289.2575 263.2000 289.9175 257.1625 290.0300 C250.6775 290.0775 241.8300 289.8200 236.6660 285.2875 C235.1655 283.9725 233.9727 282.3225 233.4130 280.3900 C232.6315 277.6950 232.9490 274.5675 232.9657 271.7875 C232.9990 266.2275 233.3208 260.4875 232.8802 254.9450 C232.4088 249.0163 230.1992 242.3415 225.5372 238.3873 C214.6942 229.1902 196.7478 234.6350 185.7917 240.8550 C182.2462 242.8678 174.5282 248.8192 171.1098 249.0800 L170.7055 248.3310 L170.6438 248.4232 C171.2820 246.1767 172.8638 244.5715 174.4610 242.9557 C178.9113 238.4535 183.3237 234.0762 188.4408 230.3225 C202.5253 219.9900 220.1565 213.7188 237.4005 211.4427 C239.9368 211.1080 242.4965 211.0668 245.0428 210.8443 C248.4628 210.5453 251.8500 210.1342 255.2875 210.1160 Z"></path>
<path id="" fill="#3ec8b8" fill-opacity="1.0" stroke="#000000" stroke-width="0.0" stroke-opacity="1.0" stroke-linecap="round" stroke-linejoin="round"  filling="0" d="M74.1523 315.4200 C75.9710 316.5025 76.9102 318.6400 77.7647 320.5100 C90.6858 348.8125 117.5460 399.9850 144.1435 416.3325 C157.5052 424.5450 172.6510 430.0700 187.3667 435.2925 L213.9388 444.8275 C220.1665 447.1100 239.9592 453.9425 244.1723 457.9875 C244.7652 458.5575 245.1017 459.0675 245.1015 459.9075 C244.7988 460.4075 244.7105 460.5800 244.1512 460.8275 C243.0222 461.3250 241.5468 461.2250 240.3335 461.1650 C233.9328 460.8500 229.1220 458.1075 223.3403 455.6600 C220.4563 454.4675 217.5502 453.3250 214.6237 452.2400 C195.6550 445.0000 170.4410 436.6550 149.9580 439.2475 C144.2417 439.9700 137.3477 442.2600 133.3495 446.5975 C131.6767 448.4125 130.3670 450.5650 128.8415 452.5050 C126.9742 454.8775 123.9102 457.9775 120.7668 458.2425 C119.1752 458.3750 117.7880 457.7425 116.5938 456.7275 C110.3215 451.4000 108.5085 437.3225 108.0625 429.3825 C107.8197 425.0675 108.0403 420.7675 107.6588 416.4450 C107.2090 411.3525 106.7993 404.5025 102.5468 400.9950 C102.4662 400.9300 102.3842 400.8650 102.3030 400.8000 C101.2055 400.8275 100.0428 400.8100 98.9872 401.1425 C91.9545 403.3575 88.5352 413.4800 82.5775 417.6400 C81.7623 417.1175 81.0055 416.5575 80.3047 415.8850 C73.0748 408.9500 70.0768 381.0000 69.9733 370.7050 C69.8740 360.8125 69.6610 350.7625 70.0778 340.8825 C70.2542 336.7025 71.7975 317.8350 74.1523 315.4200 Z"></path>
<path id="" fill="#3ec8b8" fill-opacity="1.0" stroke="#000000" stroke-width="0.0" stroke-opacity="1.0" stroke-linecap="round" stroke-linejoin="round"  filling="0" d="M223.8475 165.0903 C223.9872 165.0742 224.1268 165.0538 224.2670 165.0425 C229.9925 164.5757 237.0408 165.0502 241.4830 169.1600 C243.2657 170.8092 244.9525 173.6100 244.9852 176.1013 C245.0330 179.7320 241.0215 182.3315 238.1615 183.8370 C230.0570 188.1028 220.6127 190.0332 212.0675 193.2935 C205.1447 195.9348 198.0938 198.6248 191.4433 201.9040 C180.3362 207.3805 167.9055 215.8573 158.6337 224.0347 C153.5448 228.5228 148.8192 233.5363 144.0712 238.3805 C142.0920 240.4175 136.3542 248.6660 134.4360 249.2265 C133.7928 249.4145 133.6755 249.3700 133.1443 249.0533 C133.0213 248.7162 132.9967 248.6955 132.9425 248.2855 C132.2973 243.3890 141.4115 226.6723 144.2595 222.1120 C146.8340 217.9750 149.6705 214.0067 152.7518 210.2318 C168.2858 190.9920 198.8902 167.7578 223.8475 165.0903 Z"></path>
<path id="" fill="#3ec8b8" fill-opacity="1.0" stroke="#000000" stroke-width="0.0" stroke-opacity="1.0" stroke-linecap="round" stroke-linejoin="round"  filling="0" d="M280.0000 165.1042 C293.0875 163.8825 305.7600 168.8907 316.9250 175.2962 C340.5200 188.8318 360.3750 206.7007 372.7225 231.2760 C375.0525 235.9093 377.5850 240.7388 378.8450 245.7910 C379.1125 246.8638 379.3125 247.8940 378.7200 248.8870 C378.3525 249.0677 378.1675 249.2485 377.7400 249.1820 C375.6875 248.8622 373.4600 244.9872 372.2900 243.3783 C369.1350 239.1670 365.1525 235.4113 361.4200 231.7068 C349.5975 219.8400 336.0150 209.8685 321.1525 202.1445 C314.2675 198.6463 306.9300 195.7997 299.6775 193.1650 C291.4075 190.1602 278.5700 187.1138 271.5150 182.4243 C269.5300 181.1050 267.4500 179.2705 267.0475 176.7948 C266.7225 174.7932 267.6800 172.8500 268.7975 171.2533 C271.4150 167.5065 275.6825 165.9028 280.0000 165.1042 Z"></path>
</svg>