<svg xmlns="http://www.w3.org/2000/svg" viewBox="0 0 512 512" height="512.0px" width="512.0px">
<path id="" fill="#a0041e" fill-opacity="1.0" stroke="#000000" stroke-width="0.0" stroke-opacity="1.0" stroke-linecap="round" stroke-linejoin="round"  filling="0" d="M335.6500 187.0605 C336.5075 187.1987 337.3200 187.3810 338.0925 187.8000 C339.6500 188.6438 340.3150 189.8595 340.9300 191.4603 C341.8550 193.8695 342.2925 196.5862 342.8950 199.0977 C343.9175 203.4052 344.9850 207.7025 346.0925 211.9890 L358.7675 261.3250 C360.3625 267.3825 361.6075 273.7550 363.5025 279.7075 C359.9075 280.2250 356.0650 281.9050 352.5950 283.0650 C344.0450 285.9225 335.5700 288.9825 327.0450 291.9025 L300.3800 301.0250 C295.5900 302.6450 290.1700 303.9525 285.7125 306.3075 L285.2600 306.2700 C284.4075 305.6600 284.1500 304.7450 283.7975 303.7800 C281.3650 297.1300 257.9150 224.5222 258.3375 223.4740 C258.3950 223.3297 258.4550 223.1848 258.5325 223.0513 C259.2600 221.8385 261.6500 220.7657 262.9075 220.1402 C266.7275 218.2437 270.7550 216.6635 274.6500 214.9158 L297.0100 204.6215 L325.1775 191.6422 C328.6550 190.0795 331.9750 188.1322 335.6500 187.0605 Z"></path>
<path id="" fill="#bd1931" fill-opacity="1.0" stroke="#000000" stroke-width="0.0" stroke-opacity="1.0" stroke-linecap="round" stroke-linejoin="round"  filling="0" d="M348.3925 223.7538 L348.7150 223.8477 C349.1575 224.3837 353.3675 240.2513 353.8275 242.2880 C354.5375 245.4280 354.9800 248.6953 355.8750 251.7825 C357.0750 255.9175 358.7300 259.9700 360.0325 264.0875 C365.0900 280.0525 370.5125 295.7500 377.3350 311.0625 C379.3900 315.6750 381.4150 320.3300 383.8225 324.7700 C391.2925 338.5400 398.9950 350.7800 410.1225 361.9350 C417.8450 369.6775 425.8500 375.7800 436.4850 378.9600 C439.0675 379.7350 442.1325 380.5475 444.8225 380.7625 C448.8400 381.0850 453.5525 380.6475 457.4050 381.8775 C458.6450 382.2750 459.9975 382.9625 460.5500 384.2175 C461.1125 385.5025 460.6200 387.0600 460.0850 388.2700 C457.8375 393.3325 452.0850 396.6900 447.1275 398.5650 C444.1175 399.7025 440.9575 400.5375 437.7525 400.8725 C427.2800 401.9625 407.4250 399.4425 397.8975 395.1000 C398.2675 398.1100 398.7950 401.1050 399.1000 404.1200 C399.8650 411.7050 400.2000 419.3600 400.4775 426.9775 C400.6425 431.5075 401.0750 436.5550 400.1650 441.0025 C399.6350 443.6000 398.0025 444.6150 395.9300 446.0000 C394.2625 446.0950 392.6375 446.0775 390.9675 445.9975 C386.2150 444.8125 381.9075 443.0250 377.5900 440.7175 C339.4025 420.3125 310.2725 367.6200 293.7800 328.7925 C290.9500 322.1300 288.1500 315.3525 285.6700 308.5500 C284.3975 305.0625 283.3875 301.4875 282.1125 298.0000 C280.8325 294.4975 279.2275 291.1225 277.9650 287.6125 C274.5975 278.2525 271.7350 268.6750 268.8525 259.1575 C270.4900 258.9425 272.0375 258.6100 273.5750 258.0025 C279.7450 255.5650 285.9050 252.3800 291.9075 249.5370 C297.4850 246.8963 303.1900 244.4720 308.8125 241.9238 C311.4250 240.7400 313.9550 239.3943 316.5625 238.2060 C327.0875 233.4082 338.3350 229.4928 348.3925 223.7538 Z"></path>
<path id="" fill="#5c913b" fill-opacity="1.0" stroke="#000000" stroke-width="0.0" stroke-opacity="1.0" stroke-linecap="round" stroke-linejoin="round"  filling="0" d="M269.5750 161.9485 C266.6275 165.7052 263.3475 169.2247 260.2775 172.8840 C254.6500 179.5200 249.2650 186.3585 244.1345 193.3860 C216.4453 231.3715 198.2175 272.1375 183.0688 316.3700 C173.5965 344.0275 166.2793 373.6950 160.7323 402.4075 C159.0482 411.2350 157.4577 420.0775 155.9615 428.9375 C155.1475 433.7500 154.6478 438.7550 153.4645 443.4850 C152.6452 446.7600 151.2555 450.0250 148.9147 452.5050 L148.7323 452.6950 C145.5080 455.9950 140.7685 457.9100 136.1750 457.9550 C131.3358 457.9950 126.6805 456.1025 123.2430 452.6975 C119.9700 449.4125 118.0785 444.6750 118.0943 440.0475 C118.1107 435.2050 119.4438 430.0875 120.2305 425.3050 C122.5205 411.3850 125.2075 397.6375 128.1365 383.8425 C145.9005 300.1675 177.0380 217.0750 234.4303 152.2235 C239.7140 146.2530 245.6890 140.6945 251.3600 135.0830 C282.7425 104.0255 324.1775 79.2650 365.7950 64.8268 C374.4775 61.8145 384.3500 57.9960 393.6400 58.0992 C397.9475 58.1472 402.4750 58.7793 405.5775 62.0945 C407.2625 63.8952 408.1875 66.2353 408.0500 68.7103 C408.0325 69.0050 408.0025 69.2990 407.9625 69.5912 C407.3925 73.5753 404.4375 76.9235 401.0875 78.9525 C395.6375 82.2533 389.1225 83.9990 383.1350 86.1172 C378.4600 87.7982 373.8425 89.6363 369.2925 91.6280 C343.2775 103.0338 322.1950 115.8665 300.0025 133.4710 C296.5650 136.1973 292.7875 138.7500 289.5300 141.6575 C285.9975 145.3217 271.0925 158.9565 269.5750 161.9485 Z"></path>
<path id="" fill="#5c913b" fill-opacity="1.0" stroke="#000000" stroke-width="0.0" stroke-opacity="1.0" stroke-linecap="round" stroke-linejoin="round"  filling="0" d="M176.9617 53.5880 C177.9565 53.5150 178.8975 53.4985 179.8822 53.6850 C182.9382 54.2637 185.9178 55.8333 187.5845 58.5348 C190.0575 62.5435 188.8537 67.6233 187.2830 71.7260 C185.0352 77.5985 181.3555 82.9597 178.2578 88.4043 C173.1920 97.3773 168.2230 106.4050 163.3522 115.4855 C160.5302 120.8553 157.9900 126.3828 155.4028 131.8687 C145.8598 151.9303 137.5253 172.5448 130.4442 193.6017 C110.3870 252.1400 99.4790 313.4200 98.1050 375.2850 C97.8503 389.8550 97.8305 404.4300 98.0457 419.0000 C98.1772 426.3375 99.8665 437.8500 98.3045 444.6275 C97.1870 449.3950 94.1855 453.5075 89.9850 456.0225 C85.6568 458.6475 80.9337 458.9950 76.0957 457.7800 C74.1135 457.2075 72.1613 456.3050 70.4745 455.1150 C66.5518 452.3425 64.1115 448.1800 63.3615 443.4600 C62.7670 439.7200 63.0363 435.8500 62.9138 432.0725 C62.5160 419.7925 62.4807 407.6225 62.9507 395.3500 C66.3000 315.9525 83.4580 237.7440 113.6550 164.2355 C119.4665 149.9540 125.8913 136.0630 132.4770 122.1322 C139.5123 107.0963 147.2193 92.3838 155.5745 78.0392 C158.7558 72.5360 161.7823 66.7595 165.5385 61.6273 C168.4742 57.6160 171.8740 54.3790 176.9617 53.5880 Z"></path>
<path id="" fill="#000000" fill-opacity="1.0" stroke="#000000" stroke-width="0.0" stroke-opacity="1.0" stroke-linecap="round" stroke-linejoin="round"  filling="0" d="M289.5300 141.6575 C291.0300 145.6393 291.5800 150.2230 292.3900 154.3950 C293.3700 159.6145 294.5525 164.7932 295.9400 169.9200 C297.7525 176.4405 299.9075 182.8615 302.3925 189.1560 C303.8925 192.9210 305.6450 196.6078 307.0050 200.4225 C301.8375 202.7990 296.3575 204.5188 291.2275 207.0318 C289.6325 207.8140 288.2675 209.4675 286.6725 210.1160 C286.4525 210.2060 286.4575 210.1967 286.2050 210.0782 C282.9950 208.5647 274.8175 181.9917 273.4975 177.2690 C272.5025 173.7117 270.8550 164.5795 269.5750 161.9485 C271.0925 158.9565 285.9975 145.3217 289.5300 141.6575 Z"></path>
<path id="" fill="#a5d288" fill-opacity="1.0" stroke="#000000" stroke-width="0.0" stroke-opacity="1.0" stroke-linecap="round" stroke-linejoin="round"  filling="0" d="M74.3438 102.5468 C76.0623 102.7053 77.2460 103.6492 78.4342 104.8452 C81.1855 107.6145 83.3633 111.1933 85.5973 114.3958 C91.4543 122.7923 96.4847 131.8383 101.0742 140.9800 C107.8885 154.5540 113.7465 167.9648 116.0608 183.0833 C116.4682 185.7455 116.9003 188.4603 116.8867 191.1580 C116.8485 198.7820 114.8635 205.8030 109.4075 211.2278 C108.5695 212.0220 107.6667 212.8040 106.7550 213.5117 C103.8863 215.7385 99.8630 217.5760 96.1608 216.9892 C92.4742 216.4050 89.2307 213.0768 87.1745 210.1263 C77.0242 195.5605 73.9142 163.7920 73.0872 146.1830 C72.8225 140.5437 72.9570 134.8480 72.9530 129.2007 C72.9463 120.2580 72.8075 111.3962 74.3438 102.5468 Z"></path>
<path id="" fill="#a6d388" fill-opacity="1.0" stroke="#000000" stroke-width="0.0" stroke-opacity="1.0" stroke-linecap="round" stroke-linejoin="round"  filling="0" d="M378.6325 87.7993 C379.5100 87.8095 380.3150 87.9052 381.1275 88.2572 C384.4775 89.7110 387.5750 92.5260 390.4675 94.7520 C407.5125 107.8767 422.5375 123.2395 436.2600 139.7660 C438.8650 142.9030 442.6150 146.6243 443.9875 150.4673 C444.2525 151.2045 444.5150 152.0038 444.1800 152.7525 C441.4050 153.5412 423.0575 148.6740 419.0975 147.5392 C403.7325 142.4758 388.8050 137.2020 374.6350 129.2390 C365.6800 124.2072 350.5700 113.6940 347.9675 103.4327 C347.8025 102.7793 347.7075 102.1490 348.0950 101.5560 C349.2700 99.7655 358.9300 95.5233 361.3375 94.5575 C363.6275 93.6403 366.0000 92.9603 368.2800 92.0098 C371.7025 90.5813 374.9775 88.5660 378.6325 87.7993 Z"></path>
<path id="" fill="#feab33" fill-opacity="1.0" stroke="#000000" stroke-width="0.0" stroke-opacity="1.0" stroke-linecap="round" stroke-linejoin="round"  filling="0" d="M344.2950 179.8398 C346.0075 179.7652 347.6925 180.0323 349.2000 180.8755 C351.5675 182.2012 352.9275 184.5838 353.6150 187.1387 C354.6425 190.9625 354.0750 195.0397 352.0400 198.4373 C350.6075 200.8045 348.5900 202.5777 346.2175 203.9595 C342.3450 206.2125 338.1675 207.7120 334.1075 209.5595 L313.0350 219.2725 L280.2675 234.0670 C273.0025 237.3050 265.9225 240.9930 258.1825 242.9295 C256.4225 242.8327 255.1150 242.2245 253.7100 241.1653 C250.8525 239.0117 248.5440 235.3253 248.0612 231.7672 C247.6330 228.6098 248.2745 225.2855 250.2575 222.7413 C251.5525 221.0780 253.3575 219.9577 255.1925 218.9698 C259.5200 216.6375 264.3225 214.7558 268.8225 212.7515 L287.8250 204.0630 C299.0850 198.9195 310.2375 193.5465 321.5400 188.4877 C327.8725 185.6535 337.5900 180.5460 344.2950 179.8398 Z"></path>
<path id="" fill="#a6d288" fill-opacity="1.0" stroke="#000000" stroke-width="0.0" stroke-opacity="1.0" stroke-linecap="round" stroke-linejoin="round"  filling="0" d="M207.7372 129.7865 L208.6120 129.8723 C209.0250 130.3830 209.1508 130.6653 209.1313 131.3378 C209.0300 134.8233 205.2740 140.4610 203.4295 143.4350 C195.5575 156.4130 186.3757 168.5497 176.0282 179.6552 C174.3410 181.4915 172.7923 183.4863 170.9978 185.2193 C161.7865 194.1152 150.5850 204.1297 137.5990 206.5170 C134.5800 207.0720 131.5983 207.0405 128.5448 207.0030 C128.4408 206.9948 128.3360 206.9920 128.2328 206.9783 C127.4625 206.8750 127.3878 206.8952 126.9250 206.3065 C126.7928 205.1562 126.9583 204.0983 127.2200 202.9792 C127.8905 200.1152 129.0165 197.3335 129.9115 194.5335 C132.4255 186.6687 135.1535 179.0320 138.1460 171.3390 C139.3985 168.1198 140.4677 164.0810 142.4433 161.2253 C143.3008 159.9857 145.0140 159.6095 146.2413 158.7737 C153.5797 153.7765 161.5193 149.6228 169.4512 145.6715 C177.4210 141.7012 185.2617 138.0155 193.5332 134.6987 C198.1378 132.8525 202.8602 130.7790 207.7372 129.7865 Z"></path>
<path id="" fill="#3e721d" fill-opacity="1.0" stroke="#000000" stroke-width="0.0" stroke-opacity="1.0" stroke-linecap="round" stroke-linejoin="round"  filling="0" d="M186.6647 200.5923 C189.0307 200.4310 191.3842 200.6512 193.6395 201.4147 C199.9207 203.5417 205.7753 207.6638 211.6410 210.6960 C217.1460 213.5417 224.1118 216.1492 229.0457 219.7325 C233.1655 222.7242 235.6940 226.5745 236.4693 231.6685 C237.1902 236.4085 235.8062 241.6005 232.9203 245.4205 C229.8075 249.5408 225.2770 251.2950 220.3103 251.9800 C217.6557 252.0775 215.1295 251.9275 212.6065 251.0175 C209.2932 249.8248 206.2973 247.9255 203.2193 246.2498 L189.2665 238.7428 C185.0103 236.4630 180.3768 235.0625 176.5440 232.0250 C173.1703 229.3513 170.7790 224.4465 170.3217 220.2085 C169.8082 215.4505 171.4740 210.4330 174.5015 206.7643 C177.5615 203.0560 181.9275 201.0455 186.6647 200.5923 Z"></path>
<path id="" fill="#3e721d" fill-opacity="1.0" stroke="#000000" stroke-width="0.0" stroke-opacity="1.0" stroke-linecap="round" stroke-linejoin="round"  filling="0" d="M134.2478 90.5793 C136.3658 90.4062 138.5838 90.4463 140.6483 90.9890 C146.5117 92.5305 151.8090 95.5480 157.3302 97.9325 C162.3245 100.0892 167.7993 101.7215 172.4323 104.6140 C176.3575 107.0648 178.6760 110.8483 179.6740 115.3215 C180.7258 120.0360 179.8065 124.9758 177.1293 128.9965 C174.2610 133.3790 170.5225 135.7168 165.4420 136.7740 C165.2725 136.8033 165.1022 136.8295 164.9317 136.8525 C162.7077 137.1480 160.1445 137.0825 157.9603 136.5697 C152.7120 135.3380 148.1752 132.6195 143.2940 130.4738 C137.7420 128.0330 130.2865 125.6495 125.5293 122.0525 C121.8857 119.2980 119.6468 115.4615 119.0522 110.9277 C118.4095 106.0275 119.4865 101.1048 122.5222 97.1577 C125.3702 93.4547 129.6552 91.1990 134.2478 90.5793 Z"></path>
<path id="" fill="#3e721d" fill-opacity="1.0" stroke="#000000" stroke-width="0.0" stroke-opacity="1.0" stroke-linecap="round" stroke-linejoin="round"  filling="0" d="M295.8350 80.3155 C299.6900 79.6245 304.6700 80.6237 307.9500 82.7655 C309.7875 83.9652 311.5275 85.5583 312.8875 87.2802 C314.2225 88.9725 315.2675 90.9620 316.4100 92.7915 C318.1400 95.5270 319.9075 98.2380 321.7150 100.9238 C323.9700 104.2125 326.8800 107.1348 328.8425 110.5970 C330.0275 112.6855 330.8975 115.0740 331.3925 117.4215 C332.3775 122.0918 331.3850 126.6543 328.7700 130.6263 C325.7700 135.1780 321.5050 137.3775 316.2675 138.4270 C311.9125 139.2220 307.5425 137.8828 303.9225 135.4688 C302.0750 134.2552 300.4125 132.7802 298.9875 131.0895 C296.7625 128.4512 294.1900 123.4863 292.1200 120.3365 C289.2925 116.0345 285.8875 111.9750 283.4125 107.4775 C282.2725 105.4005 281.3750 103.1575 280.9275 100.8245 C280.0675 96.3457 281.3375 91.3535 283.8975 87.6210 C286.7825 83.4155 290.9325 81.2665 295.8350 80.3155 Z"></path>
<path id="" fill="#3e721d" fill-opacity="1.0" stroke="#000000" stroke-width="0.0" stroke-opacity="1.0" stroke-linecap="round" stroke-linejoin="round"  filling="0" d="M80.2310 241.0703 C82.5293 240.8320 84.8497 240.9235 87.1220 241.3423 C90.3802 241.9563 93.5208 243.2385 96.7247 244.0972 C102.5180 245.6503 113.9605 247.6042 118.5033 250.2850 C122.6998 252.7625 125.4105 256.5425 126.5650 261.2550 C127.7418 266.0575 126.8242 270.8900 124.2605 275.0975 C121.5392 279.5625 117.4225 281.7425 112.4680 282.9350 C110.3640 283.1900 108.3757 283.3100 106.2708 283.0075 C102.2962 282.4375 98.1458 280.8650 94.2380 279.8675 C88.6598 278.4450 82.7878 277.4375 77.3418 275.6200 C75.5963 275.0375 73.9140 274.2775 72.3845 273.2475 C68.6028 270.7050 66.1032 266.6725 65.2742 262.2100 C64.3690 257.3375 65.3207 252.4825 68.1613 248.4105 C71.1257 244.1600 75.1978 241.9700 80.2310 241.0703 Z"></path>
<path id="" fill="#3e721d" fill-opacity="1.0" stroke="#000000" stroke-width="0.0" stroke-opacity="1.0" stroke-linecap="round" stroke-linejoin="round"  filling="0" d="M135.1855 348.3675 C136.5530 348.2300 138.2530 348.5725 139.5995 348.8525 C143.4857 349.6675 147.2955 351.0000 151.1483 351.9750 C156.6552 353.3700 162.3850 354.4225 167.7592 356.2625 C169.8268 356.9725 171.8135 357.8425 173.5750 359.1550 C177.3367 361.9550 179.3672 366.3350 179.9682 370.9025 C180.5482 375.6725 179.1962 380.4750 176.2137 384.2425 C173.0177 388.2900 168.8618 390.2575 163.7905 390.8150 C157.4993 390.8825 151.2355 388.3200 145.1642 386.8350 C139.9207 385.5525 134.2007 384.6300 129.1490 382.7400 C127.4515 382.1125 125.8748 381.2000 124.4877 380.0375 C120.8142 376.9700 118.5137 372.5675 118.0943 367.8000 C117.6905 362.9125 119.2473 358.0650 122.4207 354.3275 C125.6950 350.5250 130.2925 348.7700 135.1855 348.3675 Z"></path>
<path id="" fill="#3e721d" fill-opacity="1.0" stroke="#000000" stroke-width="0.0" stroke-opacity="1.0" stroke-linecap="round" stroke-linejoin="round"  filling="0" d="M82.2945 391.0850 C84.7402 390.8800 87.2442 390.8975 89.6980 390.8825 C95.1400 390.8475 100.2542 390.6925 104.8070 394.1750 C108.6405 397.1100 110.9435 401.3400 111.5420 406.1200 C112.1425 410.9175 110.6015 415.9525 107.6085 419.7300 C102.7165 425.9025 96.2595 425.8850 89.0955 426.2400 C86.4950 426.3700 83.8905 426.7050 81.3060 427.0100 C76.7025 427.0600 67.7135 427.7275 63.5643 426.7725 C61.8813 426.3875 60.2807 425.5675 58.8660 424.5875 C54.9597 421.9000 52.2815 417.7700 51.4200 413.1050 C50.5790 408.3375 51.7055 403.0775 54.5267 399.1275 C61.0598 389.9775 72.6998 392.6875 82.2945 391.0850 Z"></path>
</svg>