<svg xmlns="http://www.w3.org/2000/svg" viewBox="0 0 512 512" height="512.0px" width="512.0px">
<path id="" fill="#4b535c" fill-opacity="1.0" stroke="#000000" stroke-width="0.0" stroke-opacity="1.0" stroke-linecap="round" stroke-linejoin="round"  filling="0" d="M238.8330 195.1370 C241.2878 194.9005 243.7892 195.0320 246.2460 195.2007 C255.8975 195.8635 265.9875 199.5582 273.3425 205.9453 C275.4650 207.7890 277.2950 209.9093 279.1425 212.0190 C282.6075 211.0128 286.3025 210.3707 289.8875 210.0285 C298.9000 209.1673 308.2500 210.7340 316.7650 213.6938 C322.9200 215.8322 328.3150 218.7422 333.6200 222.5007 C352.3900 235.7980 359.8175 255.1975 365.8800 276.4700 C367.6950 282.8425 369.9425 297.4025 373.7475 302.0300 C377.0650 306.0625 388.0525 311.5400 393.1150 314.5525 C397.9225 317.4100 402.6175 320.4550 407.4250 323.3125 C415.2500 327.9650 423.5875 332.5725 430.5925 338.4350 C434.1975 341.4500 437.1975 344.6550 439.2825 348.8975 C442.2725 354.9800 443.8100 361.4975 445.4775 368.0225 C450.1400 386.2725 452.9300 404.7425 455.5350 423.3725 C457.2525 435.6350 459.0975 447.9375 460.2375 460.2700 L274.0450 460.3875 L130.9325 460.3775 C104.4480 460.2675 77.9628 460.3450 51.4792 460.6125 C53.7567 452.5050 56.7995 444.5900 59.6390 436.6675 C62.5685 428.4950 65.3692 420.2500 68.1500 412.0250 L83.4872 366.7075 C91.9203 341.9750 99.5675 318.6425 112.1817 295.6000 C116.0120 288.6025 120.3618 281.1400 126.0587 275.5075 C133.7722 267.8825 143.0935 262.9250 153.1102 259.0025 C160.1777 256.2375 169.0932 255.0500 174.4920 249.3228 C178.2003 245.3887 179.2567 238.9532 181.4925 234.0910 C184.5565 227.4277 189.1492 220.7725 194.1882 215.4370 C204.9285 204.0650 223.1543 195.6205 238.8330 195.1370 Z"></path>
<path id="" fill="#feab33" fill-opacity="1.0" stroke="#000000" stroke-width="0.0" stroke-opacity="1.0" stroke-linecap="round" stroke-linejoin="round"  filling="0" d="M240.8177 186.1075 C249.0038 185.4677 258.2150 185.6325 265.8050 189.0115 C269.9675 190.8652 273.7325 193.5235 277.0950 196.5862 C280.9675 200.1163 283.8425 204.0607 287.1500 208.0545 C288.7100 209.9388 290.4450 211.7320 292.0775 213.5575 C296.7950 218.8268 302.0900 223.6910 306.6400 229.0838 C307.5625 230.1752 308.5250 231.4272 309.0025 232.7802 C309.8575 235.1927 309.7925 237.9040 308.5875 240.1868 C307.8900 241.5100 306.8200 242.7312 305.3425 243.1680 C302.1450 244.1145 297.8500 240.0403 295.4950 238.2272 C290.5550 234.4225 285.4625 230.6172 280.9575 226.2937 C278.3375 223.7690 275.7875 221.1720 273.3125 218.5055 C269.3550 214.1747 265.9675 209.5555 260.6650 206.7357 C250.3250 201.2352 238.2385 204.4642 227.7032 207.6927 C215.0462 211.2162 196.0793 222.1008 189.9425 234.0795 C188.1557 237.5670 187.0005 244.6740 184.0623 246.9203 C181.2122 249.0992 169.9303 254.4250 166.4057 253.9250 C166.1418 253.5425 166.1743 253.7125 166.1548 253.3650 C166.0157 250.8975 166.5683 248.1580 166.8542 245.6840 C168.3553 232.7092 171.7668 221.9552 180.6580 211.9845 C184.3362 207.8598 189.3375 203.8835 194.0948 201.0515 C206.1562 193.8715 226.8783 186.8642 240.8177 186.1075 Z"></path>
<path id="" fill="#feab33" fill-opacity="1.0" stroke="#000000" stroke-width="0.0" stroke-opacity="1.0" stroke-linecap="round" stroke-linejoin="round"  filling="0" d="M293.1425 217.0745 C291.5375 213.3958 284.8275 205.7598 281.9300 202.2283 C267.2325 184.3155 247.2493 183.7202 226.3027 189.0710 C223.1870 189.8670 216.3127 192.5485 213.5460 192.2843 C212.5367 191.4935 212.3665 187.2348 212.1980 185.9285 C211.7145 182.1780 211.2275 178.3593 210.3385 174.6788 C209.3013 170.3855 207.8362 166.1165 207.1147 161.7598 C206.8503 160.1633 206.6068 158.1438 207.6795 156.7793 C210.0105 153.8152 216.9153 152.7115 220.4500 152.3070 C226.6783 151.5945 233.0120 152.4835 239.2122 153.1260 C246.2865 153.8542 253.3500 154.6777 260.4025 155.5963 C270.8250 156.9323 281.3075 158.2610 291.6525 160.1158 C295.0525 160.7255 298.5550 161.2380 301.9000 162.0997 C303.7850 162.5858 306.1300 163.2910 307.6350 164.5627 C310.1600 166.6970 311.0775 170.0513 311.2625 173.2165 C314.5550 172.7547 318.3700 172.7875 321.6300 173.5250 C326.0525 174.5260 330.4350 177.6055 332.8200 181.4790 C334.6225 184.4080 335.2925 187.7908 334.4700 191.1560 C332.8575 197.7535 327.3650 203.1730 321.6725 206.5200 C318.5225 208.3728 315.1575 209.8277 312.0050 211.7027 C312.6350 212.0210 312.6625 212.0018 313.3350 212.0838 C313.4950 212.1037 313.6425 212.1850 313.7975 212.2355 L313.8575 212.6602 C312.4575 213.3353 307.2825 213.0677 305.2850 213.3815 C302.5425 213.8127 299.9675 214.6985 297.3775 215.6685 C297.2075 217.4055 297.0650 219.1440 296.7375 220.8602 C295.3975 220.1777 293.7525 219.5658 293.2625 218.0027 C293.1725 217.7215 293.1650 217.3622 293.1425 217.0745 Z"></path>
<path id="" fill="rgb(38,32,44)" fill-opacity="1.0" stroke="#000000" stroke-width="0.0" stroke-opacity="1.0" stroke-linecap="round" stroke-linejoin="round"  filling="0" d="M293.1425 217.0745 L293.5425 217.0775 C294.8550 216.1655 296.6225 214.9320 298.1675 214.5385 C301.1175 213.7872 310.0825 212.5542 312.0050 211.7027 C312.6350 212.0210 312.6625 212.0018 313.3350 212.0838 C313.4950 212.1037 313.6425 212.1850 313.7975 212.2355 L313.8575 212.6602 C312.4575 213.3353 307.2825 213.0677 305.2850 213.3815 C302.5425 213.8127 299.9675 214.6985 297.3775 215.6685 C297.2075 217.4055 297.0650 219.1440 296.7375 220.8602 C295.3975 220.1777 293.7525 219.5658 293.2625 218.0027 C293.1725 217.7215 293.1650 217.3622 293.1425 217.0745 Z"></path>
<path id="" fill="rgb(254,166,37)" fill-opacity="1.0" stroke="#000000" stroke-width="0.0" stroke-opacity="1.0" stroke-linecap="round" stroke-linejoin="round"  filling="0" d="M234.3503 205.0022 C234.7500 204.9660 235.1763 205.0090 235.5785 205.0200 C236.0540 205.4568 236.0428 205.4315 236.1048 206.0737 C234.9868 208.2677 225.0867 215.8242 222.5677 217.1682 C221.8027 216.6615 221.0770 216.1037 220.3448 215.5520 C218.7632 214.0128 217.5083 212.1355 216.0477 210.4750 C222.1908 208.8663 228.2815 206.8743 234.3503 205.0022 Z"></path>
<path id="" fill="#feab33" fill-opacity="1.0" stroke="#000000" stroke-width="0.0" stroke-opacity="1.0" stroke-linecap="round" stroke-linejoin="round"  filling="0" d="M310.1900 234.5553 C310.7875 234.7270 311.3950 234.9055 311.9500 235.1953 C314.2775 236.4153 316.1875 238.7148 318.0350 240.5580 C324.4525 246.9625 330.7450 253.3950 333.4625 262.3150 C334.7300 266.4700 334.9900 270.6225 334.9550 274.9400 C334.8350 290.0700 330.6375 297.2475 327.3900 310.9325 C325.7675 317.7675 325.8500 324.5200 322.4550 330.8650 C322.0575 331.3200 321.6275 331.8775 321.0525 332.1100 C320.3000 332.4125 319.3950 332.1850 318.7125 331.8175 C316.9900 330.8950 315.6225 328.9500 314.5900 327.3225 C308.2900 317.3800 310.9500 306.0000 312.6800 295.1875 C313.3050 291.1000 313.7900 286.9925 314.1325 282.8725 C314.5375 278.0075 314.1375 272.5850 313.3975 267.7500 C312.5950 262.5150 310.8400 256.4350 307.8725 251.9950 C306.0125 249.2105 303.7400 246.6552 302.6800 243.4330 L302.5675 243.0822 C304.1225 242.9310 305.7050 242.9698 307.2675 242.9550 C308.2825 242.2287 309.0275 241.5112 309.8100 240.5380 C309.8800 238.5415 309.9100 236.5360 310.1900 234.5553 Z"></path>
<path id="" fill="#feab33" fill-opacity="1.0" stroke="#000000" stroke-width="0.0" stroke-opacity="1.0" stroke-linecap="round" stroke-linejoin="round"  filling="0" d="M166.6098 252.9975 L166.9365 252.9850 C169.2915 252.8825 171.3810 252.3375 173.5668 251.4800 C176.2292 250.4375 182.9835 246.1900 185.4928 246.8788 C185.6803 247.1837 185.7920 247.4390 185.8103 247.8027 C186.0335 252.2725 185.2903 257.1075 185.0742 261.5975 C184.8015 267.2650 185.5052 273.6700 184.1857 279.1850 C182.9290 284.4350 179.9655 289.2950 177.9117 294.2575 C172.9012 306.3675 169.5312 319.3650 160.7892 329.5275 C159.5570 330.9600 158.1995 332.6000 156.5842 333.6175 C155.9052 334.0450 155.0785 334.4025 154.2595 334.1925 C153.3503 333.9575 152.7910 333.0775 152.4560 332.2675 C148.8183 323.4600 158.6650 295.8125 161.0497 285.2975 C162.8705 277.2700 164.3038 268.8925 165.0630 260.6900 C164.9645 259.4900 165.0855 258.1950 165.1055 256.9825 C164.9820 256.8925 164.8570 256.8050 164.7348 256.7125 C164.0757 256.2200 163.4810 255.6100 163.4870 254.7225 C163.4908 254.1525 163.7612 253.7350 164.2045 253.3950 C164.9283 252.8400 165.7552 252.9450 166.6098 252.9975 Z"></path>
<path id="" fill="rgb(0,0,0)" fill-opacity="1.0" stroke="#000000" stroke-width="0.0" stroke-opacity="1.0" stroke-linecap="round" stroke-linejoin="round"  filling="0" d="M165.1055 256.9825 C164.9820 256.8925 164.8570 256.8050 164.7348 256.7125 C164.0757 256.2200 163.4810 255.6100 163.4870 254.7225 C163.4908 254.1525 163.7612 253.7350 164.2045 253.3950 C164.9283 252.8400 165.7552 252.9450 166.6098 252.9975 C166.1642 253.2100 165.9890 253.1575 165.8118 253.6475 C165.0723 255.6875 166.0305 258.9125 165.0630 260.6900 C164.9645 259.4900 165.0855 258.1950 165.1055 256.9825 Z"></path>
<path id="" fill="#e95f28" fill-opacity="1.0" stroke="#000000" stroke-width="0.0" stroke-opacity="1.0" stroke-linecap="round" stroke-linejoin="round"  filling="0" d="M312.1850 172.8728 C316.2450 172.5340 320.3625 172.7487 324.2175 174.1693 C328.2600 175.6588 332.3375 178.6422 334.0875 182.6927 C335.5750 186.1313 335.3900 190.3878 334.0550 193.8503 C331.3625 200.8440 323.7400 206.1008 317.1825 209.0710 C311.8275 211.4630 309.6975 212.4825 303.8725 213.7135 C302.6075 213.9810 300.8475 214.5265 299.5800 214.1283 C299.1400 213.9900 299.2200 213.9267 299.0400 213.5430 C299.2900 205.7600 305.3450 192.6098 307.5175 184.3820 C307.9450 182.7617 309.5475 174.3735 310.1300 173.6140 C310.6250 172.9718 311.4425 172.9655 312.1850 172.8728 Z"></path>
<path id="" fill="#e85f28" fill-opacity="1.0" stroke="#000000" stroke-width="0.0" stroke-opacity="1.0" stroke-linecap="round" stroke-linejoin="round"  filling="0" d="M215.9312 201.5858 C224.1845 204.1345 232.4373 205.5098 241.1008 204.7330 C247.9552 202.9043 252.8700 202.0952 259.4350 205.7020 C259.5225 205.7500 259.6075 205.8025 259.6925 205.8528 C265.4325 208.3098 273.5800 206.7587 279.6400 206.2207 C283.1000 205.9135 286.5575 205.6897 290.0050 205.2285 C293.7250 204.7307 297.6125 203.8860 301.3625 203.9315 C301.0525 205.7115 300.4150 207.4530 299.8675 209.1730 C301.2275 210.7510 302.6850 212.1515 303.8000 213.9280 C301.0850 215.5415 297.5700 217.2563 294.5550 218.1920 C291.6150 219.1040 288.4200 219.2782 285.3875 219.7555 C281.2875 220.4008 277.2175 221.3307 273.0825 221.7303 C266.6975 222.3472 259.7975 222.0437 253.3900 221.8605 C250.9000 221.7892 248.4413 221.0700 245.9527 221.0773 C241.8190 221.0890 237.8217 223.0408 233.6862 222.8555 C228.3915 222.6183 219.7890 216.4668 216.2968 212.6210 C215.6487 209.0573 215.9130 205.1947 215.9312 201.5858 Z"></path>
<path id="" fill="#feab32" fill-opacity="1.0" stroke="#000000" stroke-width="0.0" stroke-opacity="1.0" stroke-linecap="round" stroke-linejoin="round"  filling="0" d="M241.1008 204.7330 C247.9552 202.9043 252.8700 202.0952 259.4350 205.7020 C259.5225 205.7500 259.6075 205.8025 259.6925 205.8528 C258.5675 206.4205 257.4525 206.2790 256.2225 206.2502 C253.3300 206.1828 242.7180 206.4270 241.1008 204.7330 Z"></path>
<path id="" fill="#feab32" fill-opacity="1.0" stroke="#000000" stroke-width="0.0" stroke-opacity="1.0" stroke-linecap="round" stroke-linejoin="round"  filling="0" d="M249.2770 137.7425 C250.9800 139.3633 252.1400 142.0282 253.9575 143.3485 C255.5375 144.4950 262.2025 141.1277 263.9700 140.4263 C272.8400 136.9073 281.8600 133.9532 290.8875 130.8828 C302.0400 127.0900 313.0250 122.8245 324.7975 121.3958 C330.7400 120.6745 333.9950 123.3517 338.4500 126.8303 C336.5750 131.9527 330.7325 139.3737 327.5500 144.1703 C321.8150 152.8107 316.3175 162.0013 312.4350 171.6407 C310.8075 173.0835 310.6125 176.5180 308.7150 178.2982 C309.4625 175.0957 310.0625 172.2530 309.9150 168.9450 C309.8575 168.8438 309.8025 168.7417 309.7425 168.6415 C308.5100 166.5185 306.7950 164.8638 304.5425 163.8683 C299.7225 161.7397 293.8725 161.0977 288.7175 160.2035 C275.0775 157.8370 261.3800 156.1910 247.6277 154.6745 C243.5200 154.2215 239.4450 153.5675 235.3228 153.2352 C232.6217 153.0175 223.7330 153.5193 222.2097 152.9790 C221.8410 152.8483 221.7858 152.4885 221.6215 152.1608 C221.6393 151.7312 221.6775 151.4875 221.9122 151.1118 C222.9563 149.4410 241.3165 140.7680 244.3203 139.4740 C245.9380 138.7770 247.5885 138.2385 249.2770 137.7425 Z"></path>
<path id="" fill="#e85f28" fill-opacity="1.0" stroke="#000000" stroke-width="0.0" stroke-opacity="1.0" stroke-linecap="round" stroke-linejoin="round"  filling="0" d="M323.5075 200.6443 C325.2650 201.2055 326.6900 202.2740 328.3375 203.0475 C331.4250 205.4877 334.5950 207.7592 337.5600 210.3622 C347.2850 218.8985 361.6225 234.1105 367.7825 245.4128 C370.8725 251.0850 373.0075 257.0800 375.2700 263.1100 C378.5550 271.8275 381.6375 280.6225 384.5125 289.4850 C386.5700 295.7975 388.4400 302.1650 390.4400 308.4950 C391.1550 310.7600 392.4425 313.1450 392.7200 315.4975 C392.8425 316.5275 392.8975 317.7125 392.2450 318.5825 C391.9675 318.9500 391.6750 319.0225 391.2225 319.0975 C388.5425 319.5500 380.7600 314.9375 378.6750 312.9925 C374.1825 308.8050 372.4050 302.4700 370.2525 296.8975 C367.4225 289.5725 364.5600 282.3325 362.0125 274.8975 C359.7450 268.2750 357.9000 261.4625 355.3925 254.9250 C351.6325 245.1150 343.6925 231.4780 335.9475 224.4480 C334.7550 223.8322 333.6625 222.9003 332.5575 222.1320 C328.4750 219.2990 322.0300 214.0793 317.3575 213.0968 C316.1225 212.8372 314.6650 212.9837 313.4050 213.0160 C312.9425 213.1438 312.7550 213.1445 312.3025 212.9870 C311.9775 212.4275 311.7200 211.8575 311.7525 211.1913 C311.7725 210.8158 311.8675 210.5298 312.1950 210.3488 C313.3850 209.6888 315.0050 209.6062 316.3000 209.1003 C319.1000 208.0058 321.5725 206.3197 324.0425 204.6380 C324.0400 203.2368 324.1050 201.9425 323.5075 200.6443 Z"></path>
<path id="" fill="#e95f28" fill-opacity="1.0" stroke="#000000" stroke-width="0.0" stroke-opacity="1.0" stroke-linecap="round" stroke-linejoin="round"  filling="0" d="M313.4050 213.0160 C316.2500 212.2765 319.7000 212.2795 322.6400 212.1633 C327.1650 215.1777 332.1250 220.4790 335.9475 224.4480 C334.7550 223.8322 333.6625 222.9003 332.5575 222.1320 C328.4750 219.2990 322.0300 214.0793 317.3575 213.0968 C316.1225 212.8372 314.6650 212.9837 313.4050 213.0160 Z"></path>
<path id="" fill="#fefefe" fill-opacity="1.0" stroke="#000000" stroke-width="0.0" stroke-opacity="1.0" stroke-linecap="round" stroke-linejoin="round"  filling="0" d="M308.7150 178.2982 C310.6125 176.5180 310.8075 173.0835 312.4350 171.6407 C319.5650 172.0570 327.2000 173.6788 332.1700 179.1882 C334.5300 181.8047 336.3000 185.7195 336.0200 189.3098 C335.5575 195.2275 330.8750 198.5703 328.3375 203.0475 C326.6900 202.2740 325.2650 201.2055 323.5075 200.6443 C318.0900 198.1382 311.5075 196.6815 305.5750 196.8985 L304.0525 194.3430 C305.0600 188.9145 307.0150 183.5488 308.7150 178.2982 Z"></path>
<path id="" fill="#292f33" fill-opacity="1.0" stroke="#000000" stroke-width="0.0" stroke-opacity="1.0" stroke-linecap="round" stroke-linejoin="round"  filling="0" d="M461.1400 460.9900 C454.6475 460.7125 448.0825 460.9875 441.5800 460.9950 L403.4700 460.9925 C399.6075 460.9825 395.7425 461.0000 391.8775 461.0450 C389.3150 461.0675 386.5775 461.2775 384.0450 460.8625 C383.2200 460.7275 382.5800 460.1850 382.0275 459.5925 C379.9225 457.3325 378.3950 454.0725 377.1975 451.2575 C372.8375 441.0050 372.3400 434.4875 373.0200 423.5100 C373.7375 411.9125 378.3850 397.5025 376.6650 386.3000 C375.8475 380.9750 373.8025 375.5925 372.1475 370.4700 C370.7000 365.9975 369.8300 361.2525 366.6225 357.6350 C364.7225 355.4900 361.8475 354.0000 360.2875 351.5900 C358.4275 348.7150 359.3050 345.1975 356.8700 342.4775 C355.2675 340.6925 353.0575 339.5375 351.3150 337.8925 C345.3825 332.2875 339.6050 326.1075 334.7425 319.5450 C333.7750 318.2375 332.7975 316.7975 332.1625 315.2975 C331.2200 313.0700 331.1775 310.0875 329.3950 308.4300 C328.8850 307.9575 328.7200 307.8650 328.7125 307.1625 C328.6750 303.8900 331.7225 297.1425 332.7250 293.7475 C334.1575 288.8950 334.1850 283.3950 334.4100 278.3875 C334.5750 274.7575 335.1375 271.1125 334.9025 267.4775 C334.3275 258.5200 327.2625 250.6250 321.3500 244.4393 C316.7525 239.6315 310.9300 233.8795 305.8700 229.5925 C302.4075 226.6602 298.6025 224.2852 295.3200 221.1080 C294.4500 220.2652 293.8350 219.4577 293.4800 218.2900 C293.7300 217.5120 294.0750 217.2420 294.8100 216.8848 C301.0200 213.8683 307.9225 213.5152 314.6325 212.7753 C317.1200 212.5007 319.4675 211.8768 321.9875 211.9995 C327.2350 215.3138 330.2725 219.1800 334.6025 223.3105 C338.0700 226.6210 342.2075 229.7482 344.7800 233.8568 C347.7150 238.5477 352.6125 248.1295 354.6275 253.3475 C356.4675 258.1150 358.3125 263.0250 359.8675 267.8900 C361.4900 272.9700 362.8800 278.0950 364.6550 283.1300 C366.2075 287.5275 368.0725 291.8200 369.9150 296.1025 C371.7500 300.3650 373.5625 304.8050 376.3050 308.5750 C378.8525 312.0150 382.1025 314.8750 385.8375 316.9675 C387.2025 317.7450 389.7975 319.2400 391.3825 318.9375 C391.7125 318.8750 391.7200 318.8525 391.9725 318.7125 L392.4325 317.8375 C392.5500 316.3300 392.4300 314.9550 392.2600 313.4600 C394.1400 314.5325 396.1175 315.6350 397.6950 317.1350 C400.9400 319.6675 404.4325 321.3200 407.8750 323.5050 C413.3475 326.9775 418.6425 330.6650 424.0650 334.1925 C427.6200 336.5050 431.2350 338.5175 434.2625 341.5525 C441.2800 348.5925 444.5500 362.2075 446.4350 371.7700 C446.9525 374.4000 447.2200 377.0775 447.7625 379.7000 C448.3375 382.4800 449.4625 385.1300 450.0250 387.9250 C450.6600 391.0925 451.0675 394.3100 451.6325 397.4925 C454.0050 410.8600 455.9400 424.2250 457.8000 437.6750 C458.4150 442.1700 458.9925 446.6725 459.5300 451.1775 C459.9375 454.4600 460.1925 457.8100 461.1400 460.9900 Z"></path>
<path id="" fill="#292f33" fill-opacity="1.0" stroke="#000000" stroke-width="0.0" stroke-opacity="1.0" stroke-linecap="round" stroke-linejoin="round"  filling="0" d="M165.0265 252.4600 C165.4430 252.6500 165.4500 252.5450 165.5850 252.9325 C166.4535 255.4175 163.6378 274.9875 162.4082 278.1025 C160.9050 281.9100 161.0278 286.1000 160.0985 290.1050 C159.2310 293.8425 158.3855 297.5700 157.3435 301.2650 C155.2612 308.6475 152.1610 318.1850 151.6387 325.8175 C151.4707 328.2700 151.7815 330.6275 152.0948 333.0550 C151.1922 334.5450 149.7648 336.0000 149.1500 337.6050 C147.5805 341.6975 146.9718 348.7250 146.2153 353.2075 C145.5332 357.2450 144.5080 361.3125 144.1658 365.3925 C143.8925 368.6500 144.0295 372.0225 144.0290 375.2925 C142.2350 374.9875 140.2057 373.9500 138.4028 374.1950 C136.0562 374.5100 126.6577 385.0825 124.3253 387.3150 C119.0610 392.3525 111.8058 395.6450 107.2910 401.4125 C103.1097 406.7525 99.5045 419.4975 100.1438 426.3675 C100.5147 430.3575 101.9528 434.1550 102.0403 438.2050 C102.1970 445.4700 101.4220 454.0975 102.2895 461.1650 C97.2093 460.6900 91.8900 461.0050 86.7820 461.0075 L57.5625 461.0275 C55.7775 461.0525 53.7815 461.2525 52.0310 460.9375 L52.3100 460.7800 L51.9660 460.5450 C51.9835 460.0400 52.1015 459.5250 52.1987 459.0300 C53.2250 453.8025 55.5493 448.5450 57.2425 443.4825 L67.7053 412.2850 L84.4033 363.9575 C91.2527 344.2850 97.8000 325.2625 106.7767 306.4100 C112.6295 294.1175 118.7440 282.3700 128.3398 272.5400 C136.9848 263.6825 149.0858 261.6775 159.6427 256.2175 C161.5460 255.2325 163.2325 253.6600 165.0265 252.4600 Z"></path>
<path id="" fill="#292f33" fill-opacity="1.0" stroke="#000000" stroke-width="0.0" stroke-opacity="1.0" stroke-linecap="round" stroke-linejoin="round"  filling="0" d="M267.7225 223.9258 C267.9600 223.9115 268.2800 223.8867 268.5125 223.8995 C269.0700 223.9303 269.5300 223.9330 269.8200 224.4747 C270.4625 225.6758 270.0250 227.5350 269.7100 228.7778 C267.5275 237.3728 264.1825 246.8950 261.1400 255.2475 C258.9400 261.2875 256.3775 267.3200 255.2500 273.6850 C254.2375 279.4025 258.3175 289.2750 257.0350 293.3575 C256.8250 294.0300 256.7150 294.0750 256.1350 294.3850 C254.1125 293.9925 251.6325 289.8950 249.9707 288.4350 C249.0125 287.5925 247.8652 286.8525 246.5323 287.0275 C245.0372 287.2250 244.1382 288.3700 243.3185 289.5125 L243.1140 289.8025 C242.5052 297.8375 246.3635 308.2475 249.9430 315.3500 C251.4450 318.3325 253.3950 320.9825 254.4000 324.2075 C256.1050 329.6850 256.2425 335.4500 257.4050 341.0400 C258.4575 346.0550 259.6050 351.0500 260.8425 356.0225 C262.6100 363.0800 264.7950 370.6325 265.0650 377.9325 C265.4350 388.0200 260.6775 397.1200 256.6125 406.0400 C253.4050 413.0825 250.1225 420.0725 246.9790 427.1450 C245.5623 430.3325 243.3560 433.2850 243.0822 436.8575 C242.7510 441.1800 242.9868 445.6300 244.2883 449.7825 C245.5152 453.6975 246.9830 456.9425 247.3610 461.0950 C244.3465 460.8500 241.2420 460.9950 238.2168 460.9950 L221.6250 461.0100 L207.0968 461.0175 C204.1760 461.0150 200.8045 461.3425 197.9700 460.6950 C197.6690 459.8325 198.0443 459.0975 198.4178 458.2950 C199.5598 455.8475 201.2570 453.6250 202.6057 451.2825 C205.8715 445.6125 209.0573 439.9450 212.4205 434.3250 C214.5730 430.7275 216.3275 426.9425 218.4275 423.3250 C222.5270 416.2650 226.8318 409.3325 230.9008 402.2525 C233.5217 397.6925 239.4458 389.2025 240.2148 384.2775 C241.6348 375.1800 241.3165 365.1300 239.2267 356.1375 C238.0255 350.9675 236.0807 345.8925 234.3865 340.8650 C232.7428 335.9700 231.2592 331.0225 229.9382 326.0300 C228.1382 319.3825 226.7370 312.9800 226.9583 306.0400 C227.1497 300.0400 228.4285 292.9525 230.4807 287.3000 C232.6460 281.3375 235.5875 276.1350 238.5652 270.5925 C240.5202 266.9550 242.5700 263.3650 244.5108 259.7225 C245.8100 257.2875 246.9877 254.7625 248.3905 252.3825 C250.5100 248.7885 253.0450 245.4212 255.2425 241.8687 C258.4350 236.7140 263.3875 228.0030 267.7225 223.9258 Z"></path>
<path id="" fill="rgb(254,172,37)" fill-opacity="1.0" stroke="#000000" stroke-width="0.0" stroke-opacity="1.0" stroke-linecap="round" stroke-linejoin="round"  filling="0" d="M242.7323 136.0157 C243.3930 135.9418 243.9357 135.8795 244.5952 136.0332 C244.7945 136.2717 244.8470 136.3103 244.9995 136.6240 C245.3407 137.3257 245.3367 138.2213 244.9850 138.9070 C244.5083 139.8365 243.5795 140.4467 242.7072 140.9645 C240.8683 142.0558 238.7838 142.8042 236.8605 143.7448 C231.2812 146.4730 225.6915 149.0595 220.0475 151.6455 C215.9505 153.5228 212.0038 155.9260 207.7770 157.4730 C205.8448 156.5345 205.3898 154.8060 204.6517 152.9300 C209.8398 148.5818 235.8935 138.3760 242.7323 136.0157 Z"></path>
<path id="" fill="rgb(254,172,37)" fill-opacity="1.0" stroke="#000000" stroke-width="0.0" stroke-opacity="1.0" stroke-linecap="round" stroke-linejoin="round"  filling="0" d="M325.7525 117.3027 C326.2900 117.1882 326.8225 117.1697 327.3550 117.3225 C328.6025 117.6797 330.6450 119.6858 331.2150 120.8733 C331.4400 121.3408 331.3675 121.4433 331.1875 121.8845 C326.6075 122.5965 322.0550 122.0963 317.4350 123.0677 C315.9350 123.4515 313.3650 124.4942 311.9250 123.6712 C311.7550 123.0210 311.7000 122.8870 312.0875 122.2765 C313.3700 120.2607 323.0900 117.9597 325.7525 117.3027 Z"></path>
<path id="" fill="rgb(254,172,37)" fill-opacity="1.0" stroke="#000000" stroke-width="0.0" stroke-opacity="1.0" stroke-linecap="round" stroke-linejoin="round"  filling="0" d="M337.0575 125.9125 C338.1800 125.9207 338.9850 125.8887 339.8550 126.6665 C340.1950 127.5997 339.8950 128.6790 339.7500 129.6382 C339.3550 129.7580 338.8950 129.9390 338.4850 129.9798 C337.8300 130.0453 337.7025 129.9230 337.2125 129.5525 C336.7450 128.4572 336.9950 127.0825 337.0575 125.9125 Z"></path>
<path id="" fill="#e85e28" fill-opacity="1.0" stroke="#000000" stroke-width="0.0" stroke-opacity="1.0" stroke-linecap="round" stroke-linejoin="round"  filling="0" d="M246.2740 221.0078 C248.7540 220.9340 251.2700 220.8310 253.7450 221.0425 C255.9275 221.2292 258.1875 221.6738 260.3750 221.6585 C262.4425 221.6443 264.5500 221.2487 266.6150 221.0850 C270.2150 220.8248 273.8275 220.8217 277.4275 221.0755 C277.3000 221.3215 277.1650 221.5623 277.0350 221.8065 C275.3100 225.0188 272.7625 227.8902 270.6625 230.8813 L258.5550 248.4495 C256.6025 251.2675 254.3125 254.0775 252.8750 257.1925 C254.2400 259.9325 255.9450 262.4875 257.3050 265.2200 C258.7075 268.0300 259.7125 270.9475 261.4125 273.6125 C264.1075 277.8300 267.5500 281.5775 270.3775 285.7200 C272.2350 288.4400 274.0400 291.3425 275.5000 294.2950 C277.9325 299.2150 281.8325 309.5875 280.7225 314.9250 C280.3250 316.8400 279.3425 318.6375 277.6500 319.6850 C276.2250 320.5675 274.7300 320.8575 273.1025 320.5075 C269.9900 319.8350 267.3700 319.4750 264.9175 317.2375 C257.7275 310.6775 258.5175 295.1325 256.8800 286.0925 C255.6050 279.0550 252.7625 270.2075 248.5585 264.4575 L248.2802 264.0800 C244.1947 269.7300 236.4525 281.7150 234.1515 287.8550 C233.1465 290.5350 232.6743 293.2825 232.1965 296.0925 C230.9490 306.4200 234.4608 316.9300 237.0235 326.8200 C239.7425 337.3175 242.5668 348.4550 243.6180 359.2450 C243.9695 362.8575 243.9855 366.4800 243.9978 370.1025 C244.0063 372.6600 244.1225 375.3275 243.7643 377.8650 C243.4883 379.8175 242.8775 382.7225 241.0900 383.8475 C240.3712 384.3025 239.6300 384.3900 238.8143 384.1975 C233.6093 382.9725 228.5220 374.8450 226.0545 370.6075 C221.1497 362.1875 218.6283 350.7725 217.2812 341.1375 C214.5835 321.8400 216.8633 301.2175 222.8743 282.7100 C225.7823 273.7550 229.5578 265.0225 233.2023 256.3500 C236.9052 247.5367 240.4510 238.7840 243.4945 229.7125 C244.4050 226.9985 245.4550 224.2505 246.1580 221.4787 L246.2740 221.0078 Z"></path>
<path id="" fill="#e95f28" fill-opacity="1.0" stroke="#000000" stroke-width="0.0" stroke-opacity="1.0" stroke-linecap="round" stroke-linejoin="round"  filling="0" d="M160.0720 290.4225 C160.8882 286.8075 161.8510 283.1850 162.5123 279.5350 C163.5098 274.0350 164.1670 268.3925 164.9060 262.8475 C165.2955 259.9250 165.3225 256.9400 165.7595 254.0325 C166.0883 251.8475 167.2725 249.8715 167.6638 247.7023 C168.1633 244.9320 168.0500 242.0508 168.4675 239.2605 C169.6723 231.2060 173.0428 220.9890 177.9097 214.4772 C187.3520 201.8435 200.6302 194.9445 216.0477 192.7630 C216.0745 196.7778 218.2753 206.4778 216.7325 209.6927 C216.4182 210.3477 215.8168 210.9117 215.0872 211.0513 C213.8858 211.2810 212.7305 210.4348 211.7420 209.8633 C208.8658 210.5555 206.1885 211.4090 203.6212 212.9113 C199.2435 215.4730 195.8025 219.2897 192.7925 223.3145 C181.0675 238.9930 182.4310 248.8663 178.2832 266.3475 C176.4913 273.9000 173.6815 281.0575 171.6902 288.5350 L171.3627 288.4275 C170.7417 289.4025 169.6825 291.6875 169.7392 292.8300 C168.3320 294.5975 167.4960 297.0800 166.4625 299.0975 C165.2263 301.5125 159.0892 312.1925 157.5825 313.4650 C157.4740 313.5575 157.3685 313.6525 157.2603 313.7425 C157.1918 313.8025 157.1217 313.8575 157.0525 313.9150 C157.1010 315.4475 154.0172 326.8550 153.1068 328.1850 C152.5898 328.9425 152.0745 329.5150 151.1545 329.6775 L150.7823 329.2175 C150.3132 326.3625 154.4095 308.2750 155.4225 304.7575 C155.9855 302.8025 156.7900 300.9075 157.4215 298.9700 C158.3468 296.1350 159.1010 293.2475 160.0720 290.4225 Z"></path>
<path id="" fill="rgb(1,0,0)" fill-opacity="1.0" stroke="#000000" stroke-width="0.0" stroke-opacity="1.0" stroke-linecap="round" stroke-linejoin="round"  filling="0" d="M157.0525 313.9150 C157.1010 315.4475 154.0172 326.8550 153.1068 328.1850 C152.5898 328.9425 152.0745 329.5150 151.1545 329.6775 L150.7823 329.2175 C150.3132 326.3625 154.4095 308.2750 155.4225 304.7575 C155.9855 302.8025 156.7900 300.9075 157.4215 298.9700 C158.3468 296.1350 159.1010 293.2475 160.0720 290.4225 C159.6455 296.6725 156.1480 308.4650 157.0525 313.9150 Z"></path>
<path id="" fill="#e85f28" fill-opacity="1.0" stroke="#000000" stroke-width="0.0" stroke-opacity="1.0" stroke-linecap="round" stroke-linejoin="round"  filling="0" d="M392.1475 318.0600 C391.6300 313.3175 389.7600 309.3075 388.4225 304.7800 C383.5450 288.2750 378.1900 272.0500 371.6800 256.1125 C370.8375 254.0500 368.2600 248.7742 369.0850 246.8118 C369.4225 246.7077 369.5250 246.5927 369.8750 246.7525 C376.0650 249.5932 398.2200 310.1125 402.5675 320.2800 C402.6075 320.3425 402.6475 320.4100 402.6875 320.4725 C403.7225 322.0425 405.7100 322.2975 405.3600 324.4000 C404.7750 327.9150 407.8575 331.9700 408.6150 335.4875 C409.2425 338.7225 411.2275 342.2175 412.3825 345.3525 C417.6725 360.1300 423.6700 374.6475 430.3550 388.8500 C432.3250 392.9950 439.8925 404.1800 440.1875 407.5325 L439.7500 407.9750 C438.7100 408.2300 437.8025 407.9700 436.7850 407.7525 C424.1050 395.3600 414.0500 374.6500 407.3900 358.2800 C404.4775 351.1275 402.1300 343.6150 398.1725 336.9425 C395.3500 332.1875 382.7975 319.5250 382.0150 316.3750 C381.8875 315.8550 381.9050 315.5625 382.1675 315.0925 C384.4400 314.8225 387.0300 317.0900 389.1900 317.7600 C390.1025 318.0425 391.1950 318.0225 392.1475 318.0600 Z"></path>
<path id="" fill="#2c2f32" fill-opacity="1.0" stroke="#000000" stroke-width="0.0" stroke-opacity="1.0" stroke-linecap="round" stroke-linejoin="round"  filling="0" d="M402.5675 320.2800 C402.6075 320.3425 402.6475 320.4100 402.6875 320.4725 C403.7225 322.0425 405.7100 322.2975 405.3600 324.4000 C404.7750 327.9150 407.8575 331.9700 408.6150 335.4875 C406.8075 332.9525 403.6950 323.5375 402.5675 320.2800 Z"></path>
<path id="" fill="#feab33" fill-opacity="1.0" stroke="#000000" stroke-width="0.0" stroke-opacity="1.0" stroke-linecap="round" stroke-linejoin="round"  filling="0" d="M328.6675 305.6425 C329.2700 305.6900 329.6775 305.7725 330.2300 306.0200 C331.5650 307.6400 331.0725 311.3425 331.4850 313.4225 C332.1625 316.8275 333.9175 320.0075 334.5200 323.4225 C335.4775 328.8550 334.6400 335.1200 334.5450 340.6250 C334.3825 349.9525 335.0325 359.2900 333.4250 368.5375 C332.2650 375.2050 328.8025 383.9650 326.6025 390.5675 C323.9850 398.4300 320.5000 412.2300 315.9500 418.8950 C315.2250 419.2325 314.8425 419.1075 314.0575 419.0325 C313.2350 418.2275 312.9025 417.6150 312.6850 416.4800 C311.9750 412.7975 313.1325 400.0550 313.8625 396.0300 C315.2625 388.2875 317.8150 380.8150 319.0350 373.0125 C320.2350 365.3350 320.8600 357.0300 320.6050 349.2650 C320.3925 342.7400 317.1225 337.2050 315.7425 330.9650 C317.6975 330.9000 319.6625 330.9725 321.6175 331.0050 C325.5975 326.2475 325.2700 318.5800 326.3775 312.7700 C326.8450 310.3175 327.6725 307.9300 328.6675 305.6425 Z"></path>
<path id="" fill="#e95f28" fill-opacity="1.0" stroke="#000000" stroke-width="0.0" stroke-opacity="1.0" stroke-linecap="round" stroke-linejoin="round"  filling="0" d="M322.5400 119.0530 L325.5300 118.8438 C323.9675 124.7685 315.8925 136.1355 312.3775 142.0538 C306.4900 151.9680 301.6800 163.1250 298.9000 174.3210 C297.5550 179.7315 293.2050 202.4052 290.2800 205.2457 C289.0900 206.4012 287.8475 206.2760 286.3125 206.2915 L282.9775 206.3260 C282.5875 192.1537 285.8375 182.6745 288.3675 169.2688 C289.6900 162.2675 290.4500 155.1608 292.4100 148.2903 C294.4875 140.9987 297.5100 134.0330 299.6225 126.7527 C303.3775 124.3130 318.0250 119.9150 322.5400 119.0530 Z"></path>
<path id="" fill="#e95f28" fill-opacity="1.0" stroke="#000000" stroke-width="0.0" stroke-opacity="1.0" stroke-linecap="round" stroke-linejoin="round"  filling="0" d="M273.8025 136.7820 C274.3625 136.7635 274.4025 136.6945 274.9125 136.9957 C275.6475 139.0080 274.5000 142.7440 274.2500 144.9037 C273.2275 153.7357 272.2275 162.5160 270.7750 171.2925 C269.3275 180.0397 267.4450 188.7050 266.4425 197.5247 C266.0725 200.7762 265.9875 204.0535 266.1875 207.3195 C264.2450 207.3540 260.4150 207.5677 258.8900 206.2422 C258.2200 205.6617 258.2525 205.2540 258.1025 204.4420 C256.8675 192.3755 256.5625 180.2580 255.5800 168.1628 C254.9000 159.7970 253.5675 151.4730 252.7100 143.1183 L253.7525 143.0883 C260.4500 142.9455 267.1775 138.2895 273.8025 136.7820 Z"></path>
<path id="" fill="#e95f28" fill-opacity="1.0" stroke="#000000" stroke-width="0.0" stroke-opacity="1.0" stroke-linecap="round" stroke-linejoin="round"  filling="0" d="M232.4730 141.5095 L232.8490 141.6353 C233.6237 143.5265 233.4857 146.1300 233.9135 148.1560 L239.6935 176.4710 C241.6910 186.4693 244.5502 196.2535 246.5405 206.2567 C243.5728 206.1873 239.1730 206.9057 236.5230 205.4920 C235.3980 204.8920 235.2255 203.9523 234.8735 202.8143 C234.1042 199.1385 232.9402 195.4467 231.9523 191.8183 C229.2493 181.8898 226.2695 172.1642 222.7682 162.4850 C221.0182 157.6467 218.2292 152.7920 216.9790 147.8438 C221.9920 145.5260 227.2753 143.3783 232.4730 141.5095 Z"></path>
<path id="" fill="#feab33" fill-opacity="1.0" stroke="#000000" stroke-width="0.0" stroke-opacity="1.0" stroke-linecap="round" stroke-linejoin="round"  filling="0" d="M145.0705 364.9300 C146.1727 359.9000 149.5925 335.0425 152.7430 332.8175 C153.2377 332.4700 153.7770 332.2150 154.3938 332.3850 C155.1180 332.5850 155.5710 333.0300 156.0700 333.5550 C156.3607 335.2900 155.9317 337.4625 155.9742 339.2675 C156.0647 343.1325 156.4170 347.0350 156.8215 350.8775 C158.0117 362.1850 164.7945 372.0300 157.2450 382.7400 C155.5228 385.2175 153.2255 387.2400 150.5500 388.6350 C147.9272 390.5375 145.1005 390.0450 142.0655 390.2225 C142.1065 387.8800 141.9538 385.6150 141.6730 383.2900 C140.7018 381.1425 140.8947 377.1150 141.5045 374.8975 C141.9812 373.3100 142.9897 372.3225 143.5875 370.8625 C144.3040 369.1125 144.4095 367.0575 144.9760 365.2275 L145.0705 364.9300 Z"></path>
<path id="" fill="#4b545c" fill-opacity="1.0" stroke="#000000" stroke-width="0.0" stroke-opacity="1.0" stroke-linecap="round" stroke-linejoin="round"  filling="0" d="M141.5045 374.8975 C143.1120 376.3500 142.6515 378.6500 143.2375 380.5775 L143.3645 384.0525 C143.5878 385.3300 143.8078 386.5625 144.2177 387.7975 C145.1693 388.7025 145.9388 389.4475 147.3270 389.4025 C148.3808 389.3675 149.5423 388.9425 150.5500 388.6350 C147.9272 390.5375 145.1005 390.0450 142.0655 390.2225 C142.1065 387.8800 141.9538 385.6150 141.6730 383.2900 C140.7018 381.1425 140.8947 377.1150 141.5045 374.8975 Z"></path>
<path id="" fill="#2b3033" fill-opacity="1.0" stroke="#000000" stroke-width="0.0" stroke-opacity="1.0" stroke-linecap="round" stroke-linejoin="round"  filling="0" d="M141.5045 374.8975 C141.9812 373.3100 142.9897 372.3225 143.5875 370.8625 C144.3040 369.1125 144.4095 367.0575 144.9760 365.2275 L145.0705 364.9300 C144.6142 370.1600 143.6115 375.3225 143.2375 380.5775 C142.6515 378.6500 143.1120 376.3500 141.5045 374.8975 Z"></path>
<path id="" fill="#4b545c" fill-opacity="1.0" stroke="#000000" stroke-width="0.0" stroke-opacity="1.0" stroke-linecap="round" stroke-linejoin="round"  filling="0" d="M174.6575 289.0275 C176.7137 284.6050 178.2798 280.0575 179.6820 275.3950 C180.4485 272.8475 181.0460 269.8775 182.1743 267.4675 C182.5957 266.5675 183.2310 265.8125 184.1783 265.4600 C184.6520 265.6875 184.7560 265.7125 184.9427 266.2400 C185.9008 268.9475 184.9812 276.7275 184.1998 279.6025 C182.5177 285.7925 179.5220 291.7325 177.1020 297.6575 C174.3438 304.4075 172.0363 311.4575 168.6500 317.9275 C166.9625 321.1500 160.3867 332.2950 157.2733 333.6375 L156.7375 333.5950 C156.0818 332.6275 156.4455 330.8950 156.6508 329.7925 C158.3042 320.9100 163.3465 312.1025 167.5155 304.1375 C169.2587 300.8075 171.3210 297.1725 172.4880 293.5975 C171.5865 293.2050 170.7000 293.0250 169.7392 292.8300 C169.6825 291.6875 170.7417 289.4025 171.3627 288.4275 L171.6902 288.5350 C172.6880 288.7925 173.6305 288.9400 174.6575 289.0275 Z"></path>
<path id="" fill="#eca338" fill-opacity="1.0" stroke="#000000" stroke-width="0.0" stroke-opacity="1.0" stroke-linecap="round" stroke-linejoin="round"  filling="0" d="M169.7392 292.8300 C169.6825 291.6875 170.7417 289.4025 171.3627 288.4275 L171.6902 288.5350 C172.6880 288.7925 173.6305 288.9400 174.6575 289.0275 C174.2750 290.3625 173.5150 292.8800 172.5728 293.8100 L172.4880 293.5975 C171.5865 293.2050 170.7000 293.0250 169.7392 292.8300 Z"></path>
<path id="" fill="#feab33" fill-opacity="1.0" stroke="#000000" stroke-width="0.0" stroke-opacity="1.0" stroke-linecap="round" stroke-linejoin="round"  filling="0" d="M334.4650 281.5350 C334.8350 281.6100 335.2025 281.6100 335.5000 281.8625 C335.6200 281.9650 335.7325 282.0775 335.8375 282.1950 C336.7625 283.2400 339.6650 291.9375 340.7850 294.0900 C343.9450 300.1625 351.6025 306.8350 352.5250 312.8325 C353.1625 316.9750 351.8775 320.0225 349.4625 323.2500 C348.7525 323.7600 348.0375 324.2525 347.1050 324.0925 C345.8550 323.8775 344.9275 322.4825 344.4025 321.4325 C341.7575 316.1525 341.0500 308.5675 338.6400 302.8575 C337.1575 299.3425 335.0850 296.1375 332.9925 292.9700 C332.0300 291.5150 334.0550 283.6025 334.4650 281.5350 Z"></path>
<path id="" fill="#ffac33" fill-opacity="1.0" stroke="#000000" stroke-width="0.0" stroke-opacity="1.0" stroke-linecap="round" stroke-linejoin="round"  filling="0" d="M205.2628 154.7352 C205.6317 154.7485 205.9153 154.8477 206.2663 154.9545 C207.6255 156.6232 211.1955 168.5918 211.1455 170.8647 C210.4902 171.3550 210.1628 171.2775 209.3602 171.3240 C207.4120 168.2213 205.7767 164.8190 204.2522 161.4897 C203.5067 159.8618 202.3475 157.5793 203.0168 155.7993 C203.6277 155.1130 204.4138 154.9800 205.2628 154.7352 Z"></path>
<path id="" fill="#ccd6dd" fill-opacity="1.0" stroke="#000000" stroke-width="0.0" stroke-opacity="1.0" stroke-linecap="round" stroke-linejoin="round"  filling="0" d="M186.1875 65.9563 C191.8045 58.0753 199.2487 53.0448 208.8265 51.3985 C216.5805 50.0655 225.8772 52.4973 232.2295 57.0862 C237.6467 61.0000 240.6915 66.1393 244.0825 71.7135 C251.9375 67.9100 256.2700 63.4980 265.7550 66.7217 C267.4325 67.2920 268.9625 68.1703 270.3800 69.2223 C271.6300 70.1485 277.1450 75.7458 278.3350 75.2402 C280.2775 74.4160 282.9725 70.2487 284.6575 68.6308 C286.2925 67.0575 288.3625 65.6995 290.3100 64.5413 C296.6850 60.7513 302.2100 59.7533 309.5325 59.8528 C312.9925 59.9000 316.3075 60.1617 319.6200 61.2253 C320.9850 61.6630 322.5275 62.1510 323.7550 62.8947 C324.7125 63.4738 326.4625 64.9893 327.5575 65.0670 C327.7300 65.0793 328.2075 64.8650 328.3000 64.8188 C330.3150 63.8135 331.9800 61.2422 333.7975 59.8418 C340.3450 54.7948 349.7450 53.7088 357.6500 55.4490 C365.2625 57.1250 369.6400 62.0542 374.9075 67.3015 C380.1550 66.1667 384.7850 64.9705 389.7100 68.1090 C392.3175 69.7702 394.2800 71.9642 395.6100 74.7458 C397.2000 75.3752 399.4750 74.8435 401.2125 75.1250 C406.9025 76.0468 412.6225 81.5730 414.8300 86.7592 C416.8100 91.4077 416.6400 97.7725 414.7325 102.4175 C412.7275 107.2950 408.7975 111.4682 403.8775 113.4590 C399.4350 115.2563 394.4425 114.9630 389.7425 115.0360 C386.4325 118.1017 382.4875 122.2773 377.5825 121.9952 C374.9075 121.8412 372.2300 120.6350 369.7975 119.5927 C368.3750 121.3683 366.9725 123.2030 365.3450 124.7955 C359.6950 130.3257 351.5525 133.9735 343.7150 134.8568 C337.5700 135.5495 331.9275 134.5645 326.5600 131.5090 C324.8825 130.5540 323.1875 129.3533 321.2525 129.0383 C316.6800 128.2945 312.0575 130.3575 307.3700 129.8465 L307.1950 129.8290 C306.0925 136.4460 302.1100 143.4288 296.6250 147.3983 C295.1950 148.4330 293.6225 149.3210 292.1325 150.2720 L291.5625 152.7672 C282.4025 153.3710 273.7900 156.4207 264.5650 154.0522 L264.2550 154.0018 C259.4700 153.2482 258.7150 151.0060 252.3700 151.0270 C251.0950 149.3110 250.0775 146.1022 248.2060 145.0660 C247.5355 144.6945 246.8725 144.9470 246.1955 145.1458 C235.5692 156.8645 228.1560 161.1622 212.0533 161.9805 C209.8392 162.0927 207.5508 162.1615 205.3675 161.7097 C198.8795 160.3675 188.8780 154.8398 184.0282 150.4150 C181.3757 147.9948 178.3902 142.2215 176.4165 140.9855 C174.4700 139.7663 171.7852 139.1523 169.6613 138.1910 C167.2520 137.1008 165.0280 135.5448 162.5948 134.5380 C162.0165 134.2962 161.4080 134.1342 160.7863 134.0565 C156.0957 133.4888 151.6225 134.3943 146.9465 132.9637 C143.0412 131.7693 139.8528 129.9142 136.8470 127.1628 C135.4260 125.8620 134.0482 124.4037 132.3045 123.5290 C130.5157 122.6317 128.2583 122.6250 126.3560 122.0188 C123.9788 121.2607 122.1855 119.2400 119.8668 118.4235 C117.2913 117.5165 114.4585 117.5585 111.8607 116.7173 C103.3245 113.9970 97.3817 106.2527 96.9633 97.3035 C96.7190 90.7777 98.1625 85.6590 102.6890 80.7900 C106.1550 77.0618 112.5137 74.0197 117.6133 73.8735 C119.8913 73.8080 121.9460 74.3337 124.0358 75.2207 C128.5703 70.9420 133.5130 67.6305 140.0148 67.8362 C148.6565 68.1095 150.2522 72.7480 156.5773 76.3972 C158.4265 74.9193 160.1998 73.3092 162.1505 71.9677 C169.4715 66.9335 177.4227 65.3360 186.1875 65.9563 Z"></path>
<path id="" fill="#e9622a" fill-opacity="1.0" stroke="#000000" stroke-width="0.0" stroke-opacity="1.0" stroke-linecap="round" stroke-linejoin="round"  filling="0" d="M247.5352 142.5392 C251.1075 145.7652 254.6125 149.0098 258.8575 151.3508 C260.6975 152.3645 262.8325 152.8775 264.5650 154.0522 L264.2550 154.0018 C259.4700 153.2482 258.7150 151.0060 252.3700 151.0270 C251.0950 149.3110 250.0775 146.1022 248.2060 145.0660 C247.5355 144.6945 246.8725 144.9470 246.1955 145.1458 C246.6328 144.2720 247.0793 143.4030 247.5352 142.5392 Z"></path>
<path id="" fill="#aab8c2" fill-opacity="1.0" stroke="#000000" stroke-width="0.0" stroke-opacity="1.0" stroke-linecap="round" stroke-linejoin="round"  filling="0" d="M210.7695 72.0750 C211.5930 71.9130 212.4820 71.9125 213.3215 71.9150 C220.2455 71.9348 225.0580 76.3503 229.6147 80.9695 C230.1337 80.9362 230.6465 80.9157 231.1667 80.9195 C238.6625 80.9735 243.3195 83.4973 248.4953 88.7780 C248.7355 88.7795 248.9760 88.7783 249.2162 88.7903 C254.2275 89.0405 258.5625 90.5242 261.9950 94.3132 C265.0350 97.6703 267.4175 102.8223 267.0650 107.4265 C266.7200 111.9398 264.0775 116.7545 260.6200 119.6395 C257.6725 122.1008 252.9575 124.0915 249.0643 123.8865 C246.9162 123.7733 244.7385 123.0720 242.5547 122.8745 C240.1790 128.4760 236.9680 133.5188 231.9755 137.1082 C224.3640 142.5805 216.0865 144.7323 206.8660 143.1910 C205.1045 142.8103 203.3270 142.3497 201.6107 141.8013 C193.4142 139.1823 186.8260 132.7140 182.9315 125.1675 C181.7448 125.1120 180.5242 125.0843 179.3620 124.8268 C174.3940 123.7263 169.3400 120.3055 166.6033 116.0090 C161.7315 116.1057 157.8630 116.4015 153.9245 112.8557 C151.4453 110.6235 149.9645 107.7083 149.8817 104.3520 C149.8002 100.8303 151.1438 97.4247 153.6080 94.9073 C156.5728 91.8510 161.1820 90.7110 165.3145 90.5983 C167.9173 87.2210 170.7140 84.4782 174.5580 82.5590 C181.8952 78.8960 187.6647 79.6350 195.2563 82.2050 C201.3125 75.8845 201.2865 73.6548 210.7695 72.0750 Z"></path>
<path id="" fill="#feab33" fill-opacity="1.0" stroke="#000000" stroke-width="0.0" stroke-opacity="1.0" stroke-linecap="round" stroke-linejoin="round"  filling="0" d="M143.0282 344.4300 L120.9577 371.6375 C114.8203 379.1600 108.8520 386.6075 101.8575 393.3750 C100.1443 395.0350 93.8675 400.9950 91.4258 400.5625 C91.0153 400.4900 90.7173 400.3925 90.4605 400.0575 C88.9595 398.1000 91.0025 392.9000 91.8340 390.8350 C94.8200 383.4275 99.2555 376.4250 103.1953 369.4925 C106.9693 362.8525 110.5652 355.9725 114.8318 349.6375 C117.2695 346.0175 120.1797 342.6325 122.8432 339.1700 C127.1687 333.5500 131.2240 327.7925 134.7385 321.6250 C136.6660 318.2200 138.2340 314.6225 139.4167 310.8925 C140.7350 306.7650 141.6895 302.5075 143.8490 298.7075 C146.3715 294.2725 149.8828 290.3300 152.8098 286.1450 C159.4052 276.7125 164.7135 263.6875 165.9270 252.1075 L165.7640 251.9725 C165.3960 252.3250 165.0225 252.6750 164.6435 253.0175 C164.6420 251.6850 166.8525 249.7383 167.3555 248.2645 C168.2148 245.7475 167.9400 242.4885 168.3465 239.8273 C168.8318 236.6492 169.6665 233.4948 170.3790 230.3613 C172.8817 219.3533 174.7415 215.9547 183.3505 208.4265 C185.1958 206.8127 187.0443 205.0302 189.0385 203.6090 C189.7247 203.1203 190.3557 202.6925 191.2258 202.8513 C191.9198 203.6365 192.1413 205.0765 192.4295 206.0795 C194.9365 207.8483 203.2170 208.7128 204.2870 210.9140 C204.7368 211.8392 203.0860 213.0245 202.4810 213.4987 C196.1595 218.4980 190.9388 224.7493 187.1463 231.8607 C181.0510 243.1960 180.8208 256.1950 177.8898 268.4950 C176.3285 275.0475 173.6777 281.3975 171.7513 287.8650 C173.2685 287.9125 174.7852 287.9775 176.3008 288.0625 C175.8562 289.8625 175.2802 291.3325 174.2560 292.8725 C172.6865 293.2375 171.2370 293.0575 169.6870 293.3200 C168.2015 295.1700 167.3945 297.5900 166.2115 299.6500 C163.0470 305.1625 159.3932 310.1300 157.2795 316.2100 C156.0815 319.6550 150.0355 343.2025 149.4622 343.9250 C149.2063 344.2475 148.4225 344.1600 148.0193 344.1850 C147.1120 343.5575 146.1832 342.8850 145.0165 343.0850 C144.1600 343.2325 143.6175 343.8500 143.0282 344.4300 Z"></path>
<path id="" fill="#2b3033" fill-opacity="1.0" stroke="#000000" stroke-width="0.0" stroke-opacity="1.0" stroke-linecap="round" stroke-linejoin="round"  filling="0" d="M143.0282 344.4300 C144.1198 342.2375 146.7253 339.5175 148.2603 337.4650 C148.0100 339.6475 147.6893 342.0000 148.0193 344.1850 C147.1120 343.5575 146.1832 342.8850 145.0165 343.0850 C144.1600 343.2325 143.6175 343.8500 143.0282 344.4300 Z"></path>
<path id="" fill="#aab8c2" fill-opacity="1.0" stroke="#000000" stroke-width="0.0" stroke-opacity="1.0" stroke-linecap="round" stroke-linejoin="round"  filling="0" d="M347.6650 71.8497 C351.4325 71.8022 354.7000 71.9455 358.0275 73.9865 C361.6450 76.2075 364.9050 80.0560 365.8450 84.2640 C367.5275 91.8192 364.7800 94.1697 362.5750 100.6072 C361.5125 103.7043 360.8750 107.0042 359.0275 109.7663 C355.9500 114.3743 350.4200 117.6973 345.0125 118.7198 C339.2275 119.8130 333.6000 117.4167 328.9075 114.1978 C326.2375 111.9710 324.7325 108.8035 322.4475 106.2292 C319.2400 105.2978 315.6325 105.0212 312.8750 102.9945 C310.2225 101.0465 308.5275 98.2533 308.0500 94.9985 C307.5025 91.2740 308.4950 87.7160 310.8425 84.7750 C312.9700 82.1090 316.0975 80.5457 319.4900 80.2780 C322.8500 80.0128 325.7325 81.2128 328.2575 83.3320 C330.2950 82.1845 332.3500 80.9688 334.1875 79.5195 C338.5675 76.0680 341.7125 72.2165 347.6650 71.8497 Z"></path>
<path id="" fill="#feab33" fill-opacity="1.0" stroke="#000000" stroke-width="0.0" stroke-opacity="1.0" stroke-linecap="round" stroke-linejoin="round"  filling="0" d="M188.6005 240.6693 C189.4490 240.8233 190.1568 240.9120 190.8717 241.4162 C190.8463 242.9820 190.3103 244.7320 189.9820 246.2685 C188.9015 251.3275 187.5115 256.2925 186.3582 261.3300 C185.4722 261.2650 184.9170 261.2650 184.1837 260.7475 C182.9547 257.6225 187.2238 244.1965 188.6005 240.6693 Z"></path>
</svg>