<svg xmlns="http://www.w3.org/2000/svg" viewBox="0 0 512 512" height="512.0px" width="512.0px">
<path id="" fill="#c1cdd5" fill-opacity="1.0" stroke="#000000" stroke-width="0.0" stroke-opacity="1.0" stroke-linecap="round" stroke-linejoin="round"  filling="0" d="M97.0157 68.7725 C102.1060 69.5690 106.8167 72.9975 111.4140 75.1980 L140.8235 89.3792 C161.8372 99.5645 183.0383 109.3590 204.4155 118.7575 C207.3175 120.0095 216.7563 124.7823 219.0838 124.9457 C221.9195 125.1447 233.2785 121.0235 237.1805 120.1440 C244.6582 118.4587 253.4375 117.1550 261.1200 116.9413 C299.2075 115.7957 336.1675 129.9323 363.7700 156.2010 C370.3800 162.4487 376.5550 169.1415 382.2500 176.2325 C386.9025 182.0600 390.9875 188.3215 395.1050 194.5302 C406.0175 211.0385 415.7225 228.3135 424.1425 246.2205 C425.3550 248.7415 426.3725 251.3500 427.5525 253.8850 C434.0250 267.6750 440.0875 281.6550 445.7325 295.8025 C446.7850 298.4925 447.6475 301.2550 448.6900 303.9475 C450.8475 309.5075 452.8225 315.1225 454.9450 320.6900 C457.1900 326.5750 460.0525 332.3750 460.8400 338.6950 C461.4175 343.3250 461.1350 348.1800 461.1275 352.8450 C461.1200 357.9225 461.2950 363.0925 460.9850 368.1550 C460.7450 372.0825 460.1550 375.9600 460.0850 379.9050 C459.8425 393.2125 460.0650 406.5625 460.0625 419.8750 C460.0625 433.5850 459.8450 447.3350 460.1425 461.0400 C441.6425 460.7675 423.0975 461.0150 404.5925 461.0150 L310.0125 461.0400 C309.8800 453.3225 309.9800 445.5925 309.9800 437.8750 C309.9575 434.5075 309.8850 431.1125 310.0650 427.7475 C310.2200 424.8025 310.6250 421.8800 310.8325 418.9400 C311.0025 416.5025 310.9550 414.0500 311.0825 411.6075 C311.2300 408.8625 311.5800 406.1175 311.8175 403.3775 C312.1650 399.3100 311.9975 395.1225 311.9975 391.0400 C312.0000 386.2525 312.1300 381.4100 311.7575 376.6325 C310.4675 360.1350 302.4875 305.6650 292.2475 294.1325 C291.6925 293.5075 290.9700 292.8575 290.0850 292.8625 C287.7550 292.8775 287.6375 302.5600 287.3175 304.4175 C286.2325 310.6900 281.2675 318.8225 277.0150 323.5050 C269.8550 331.3950 259.4675 336.2275 249.3423 339.0675 C244.3785 340.4600 239.2340 341.2875 235.1263 344.6425 C233.1715 346.2400 231.3960 348.1375 229.6115 349.9225 C224.2060 355.3250 219.3870 360.6225 215.7878 367.4550 C211.3143 375.9475 209.9435 381.6200 203.0977 389.4125 C195.3360 398.2500 182.7173 404.2200 171.0002 404.9600 C157.9388 405.7875 143.9810 400.3900 134.2790 391.7500 C123.1577 381.8450 116.6590 369.1500 117.0298 353.9925 C117.3897 339.2775 125.1305 325.3900 131.2527 312.3725 C133.3715 307.8650 135.2543 303.2150 137.2117 298.6350 C138.9475 294.5725 140.6890 290.5500 141.8793 286.2850 C145.8987 271.8825 147.3573 257.2050 149.5545 242.4818 C152.5275 222.5592 156.7035 202.5675 164.0338 183.7440 C167.3022 175.3505 171.6378 166.9138 176.6398 159.4332 C177.5607 158.0555 184.1010 149.8835 184.2270 149.4677 C184.2990 149.2295 184.1965 148.5412 184.1788 148.2863 C184.0695 146.7145 183.4783 146.0715 182.3997 144.9677 C180.2872 142.8055 177.7543 140.9205 175.4532 138.9518 C169.7900 134.1062 164.0228 129.4105 158.3358 124.6013 L110.5115 83.8970 C106.9232 80.8950 103.4030 77.8125 99.9535 74.6520 C98.8350 73.6215 97.4807 72.6087 96.5298 71.4327 C96.1633 70.9795 96.0600 70.5717 96.0137 70.0042 C96.3043 69.3098 96.4077 69.2270 97.0157 68.7725 Z"></path>
<path id="" fill="#60379a" fill-opacity="1.0" stroke="#000000" stroke-width="0.0" stroke-opacity="1.0" stroke-linecap="round" stroke-linejoin="round"  filling="0" d="M293.5925 88.2800 C320.0450 85.6673 348.7550 84.6565 372.6925 98.3002 C377.1100 100.8183 381.1475 103.8940 385.0700 107.1137 C389.3450 110.6223 392.7250 114.4207 396.2500 118.6405 C405.4950 129.7135 412.2200 141.5782 416.4750 155.3995 C416.7100 156.1642 417.7600 160.5152 418.2725 160.8338 C418.6600 161.0757 419.6000 161.0363 420.0600 161.0455 C420.5725 160.9955 420.9350 160.8598 421.4200 160.6953 C421.1250 159.1743 421.2250 157.4220 421.1625 155.8627 C421.0200 152.3560 420.9200 148.8085 420.4350 145.3282 C419.5975 139.3143 418.2100 133.3305 416.7200 127.4480 C416.1950 125.3733 415.4925 123.2807 415.0350 121.2040 C414.9000 120.5930 414.9450 120.3278 415.2600 119.8035 C415.3250 119.7905 415.3900 119.7675 415.4575 119.7647 C417.7150 119.6715 430.7975 131.3322 432.9350 133.3887 C443.1050 143.1780 449.7275 155.0985 456.4825 167.3135 C457.8225 169.7360 459.9275 172.3775 460.7050 175.0258 C461.5750 177.9755 461.0000 185.0132 460.9950 188.4570 L460.9750 215.1808 L461.0050 302.2400 C461.0150 318.3725 460.8100 334.5350 461.1150 350.6625 C458.8925 348.6050 457.5325 346.0150 456.2475 343.3050 C452.8775 336.2025 450.3000 328.5125 447.4125 321.1925 C441.5025 305.8825 435.7100 290.5275 430.0375 275.1275 C424.3050 259.6450 418.4700 244.0318 411.2450 229.1723 C400.2150 206.7615 386.0000 186.0663 369.0375 167.7312 C366.1900 164.6707 362.9925 161.9370 359.8925 159.1380 C342.6475 143.5717 321.1050 131.2485 298.1975 126.5000 C290.9550 124.9985 283.2450 124.2937 275.8600 124.0587 C241.6595 122.8767 208.4635 135.7280 183.9753 159.6302 C180.7448 162.7390 177.4908 166.6580 174.7547 170.2153 C172.4225 173.2482 170.3293 176.3590 167.5258 178.9957 C163.8353 179.0870 160.2263 179.4120 156.5233 179.1780 C147.4035 178.6017 138.6378 174.9778 132.5748 168.0135 C130.7875 165.9605 126.8522 161.2325 127.0553 158.3793 C129.0242 157.9778 131.8488 158.6660 133.9000 158.7975 C137.9160 159.0550 142.2390 158.7348 146.1422 157.7318 C161.3233 153.8310 167.7960 143.4315 178.6862 133.9688 C185.2318 128.2810 192.7530 122.7845 200.2077 118.3683 C217.2657 108.2637 239.7137 99.4812 258.8150 94.1942 C264.4650 92.6305 270.4150 90.4767 276.3450 91.4677 C280.2175 92.1150 284.1625 93.8600 287.4425 95.9870 C288.9625 96.9727 292.9800 101.0870 294.1125 101.2725 C294.2400 101.2930 294.3675 101.2990 294.4925 101.3120 L294.6950 101.2560 C295.1225 101.1060 295.8450 100.9937 296.0750 100.5900 C297.2225 98.5822 294.2400 90.5468 293.5925 88.2800 Z"></path>
<path id="" fill="#fdfdfe" fill-opacity="1.0" stroke="#000000" stroke-width="0.0" stroke-opacity="1.0" stroke-linecap="round" stroke-linejoin="round"  filling="0" d="M421.4200 160.6953 L421.6550 160.5730 C422.2225 166.1460 422.0000 173.7670 420.8225 179.2457 C420.5975 177.9745 418.3750 161.4265 418.4175 161.3483 L420.0600 161.0455 C420.5725 160.9955 420.9350 160.8598 421.4200 160.6953 Z"></path>
<path id="" fill="#d3c8e3" fill-opacity="1.0" stroke="#000000" stroke-width="0.0" stroke-opacity="1.0" stroke-linecap="round" stroke-linejoin="round"  filling="0" d="M294.6950 101.2560 C294.8275 101.2563 294.9600 101.2695 295.0925 101.2565 C295.6525 101.2020 296.0075 101.0455 296.5750 101.1760 L296.8925 101.7410 C296.8550 103.1783 296.9750 104.5967 297.0825 106.0285 C296.0025 104.9207 294.4450 103.3443 293.8300 101.9290 L294.3125 101.7903 L294.4925 101.3120 L294.6950 101.2560 Z"></path>
<path id="" fill="#c1cdd5" fill-opacity="1.0" stroke="#000000" stroke-width="0.0" stroke-opacity="1.0" stroke-linecap="round" stroke-linejoin="round"  filling="0" d="M199.2303 84.6687 C203.0312 85.1963 204.0847 88.3050 206.4892 90.9075 C209.8123 94.5045 223.2567 101.2223 228.3445 102.7363 C230.3423 103.3307 232.2838 103.4740 234.3585 103.5655 C235.1413 104.1678 234.5163 104.7818 234.8587 105.5128 C235.0085 105.8320 243.8423 112.7552 245.0222 113.8295 C248.8607 117.3245 251.9250 121.3055 254.6675 125.6902 C249.8885 126.1452 245.2912 126.9108 240.6313 128.0603 C235.0600 129.6387 229.4320 131.3197 224.0855 133.5607 C221.6913 134.5645 218.5715 136.8958 216.0240 137.1315 C214.4105 137.2810 213.1475 135.0807 212.2885 133.9637 C209.8700 130.8180 207.6430 128.0912 205.9292 124.4625 C205.1940 122.9060 204.4045 119.5020 203.1243 118.4700 C201.9075 118.8938 200.5607 118.7670 199.3268 118.4723 C199.2695 118.3232 199.1845 118.1823 199.1550 118.0255 C198.8925 116.6340 200.3203 115.0935 201.1223 114.0990 C200.9998 111.2872 199.9763 108.5005 199.2470 105.7955 C197.9348 100.9260 196.3120 93.6320 197.0650 88.6152 C197.3237 86.8915 197.8165 85.7122 199.2303 84.6687 Z"></path>
<path id="" fill="#ed7c0e" fill-opacity="1.0" stroke="#000000" stroke-width="0.0" stroke-opacity="1.0" stroke-linecap="round" stroke-linejoin="round"  filling="0" d="M207.7575 142.3535 C211.6360 147.9492 212.9025 152.2753 211.7780 159.1675 C210.9600 164.1820 208.2908 168.6185 204.1228 171.5465 C199.6085 174.7180 194.0415 175.8125 188.6172 174.7775 C186.3288 174.3410 184.3975 173.3085 182.4937 172.0140 C175.3915 167.1835 167.7850 160.6030 161.2923 154.9328 C159.1655 153.0755 157.1908 151.0470 155.0190 149.2405 C128.3450 127.0510 101.7785 104.7810 76.4693 81.0277 C69.1588 74.1665 59.0240 65.8640 53.5468 57.6078 C52.6868 56.3115 51.1888 53.7177 51.7852 52.1438 C52.0018 51.5728 52.2970 51.4340 52.8743 51.2815 C58.3867 49.8245 82.6815 64.2657 88.9413 67.6150 C90.1492 66.9325 91.2418 66.3950 92.5772 65.9825 C98.8293 68.2615 104.7230 71.4352 110.7240 74.2747 C113.4945 75.5855 116.3585 76.6938 119.1225 78.0185 C127.3743 81.9730 135.5070 86.2285 143.6927 90.3210 C145.9985 91.4738 148.2968 92.6438 150.6532 93.6900 C153.7590 95.0690 157.0197 96.2130 159.8353 98.1503 C160.3090 102.7350 161.0972 106.8067 162.6862 111.1577 C165.5460 113.7787 169.5305 115.5810 172.7872 117.6975 C176.8870 120.3620 180.9145 123.1407 185.0323 125.7758 C192.0460 130.2640 199.2200 134.6698 205.6152 140.0372 L210.0530 140.2932 L207.7575 142.3535 Z"></path>
<path id="" fill="#fefefe" fill-opacity="1.0" stroke="#000000" stroke-width="0.0" stroke-opacity="1.0" stroke-linecap="round" stroke-linejoin="round"  filling="0" d="M88.9413 67.6150 C90.1492 66.9325 91.2418 66.3950 92.5772 65.9825 C98.8293 68.2615 104.7230 71.4352 110.7240 74.2747 C113.4945 75.5855 116.3585 76.6938 119.1225 78.0185 C127.3743 81.9730 135.5070 86.2285 143.6927 90.3210 C145.9985 91.4738 148.2968 92.6438 150.6532 93.6900 C153.7590 95.0690 157.0197 96.2130 159.8353 98.1503 C160.3090 102.7350 161.0972 106.8067 162.6862 111.1577 C161.7012 111.0150 117.8070 84.0330 113.3735 81.4575 C108.8167 78.8105 104.2787 76.0997 99.6445 73.5923 C96.1543 71.7038 92.1233 69.9837 88.9413 67.6150 Z"></path>
<path id="" fill="#758795" fill-opacity="1.0" stroke="#000000" stroke-width="0.0" stroke-opacity="1.0" stroke-linecap="round" stroke-linejoin="round"  filling="0" d="M209.8642 105.6447 C215.7133 106.3940 228.4397 117.3903 232.4187 121.9427 C236.2337 126.3073 241.8650 134.1228 241.3380 140.3010 C241.2050 141.8602 241.0540 142.8270 239.8535 143.8633 C239.7473 143.8873 239.6415 143.9133 239.5350 143.9350 C236.4852 144.5640 233.6920 143.6573 231.1712 141.9498 C222.7820 136.2672 218.9200 124.3077 214.1353 115.8358 C212.9193 113.6827 209.2880 109.1695 208.9000 107.1068 C209.1198 106.3460 209.3205 106.1942 209.8642 105.6447 Z"></path>
<path id="" fill="#53626c" fill-opacity="1.0" stroke="#000000" stroke-width="0.0" stroke-opacity="1.0" stroke-linecap="round" stroke-linejoin="round"  filling="0" d="M136.4945 344.3325 C138.7543 344.3325 140.7470 345.1100 142.5307 346.5000 C145.9000 349.1250 147.5938 353.1475 148.0435 357.3050 C148.4860 361.3950 148.1322 365.9975 145.3665 369.2700 C143.6118 371.3450 141.7657 371.9100 139.1703 372.0725 C136.7000 372.0575 134.6918 371.6125 132.7153 370.0425 C129.4113 367.4200 127.5870 362.8025 127.1140 358.7025 C126.6592 354.7625 127.3730 350.7225 129.9707 347.5950 C131.7867 345.4100 133.7713 344.6400 136.4945 344.3325 Z"></path>
<path id="" fill="#c43512" fill-opacity="1.0" stroke="#000000" stroke-width="0.0" stroke-opacity="1.0" stroke-linecap="round" stroke-linejoin="round"  filling="0" d="M160.4702 110.6382 C160.8602 110.6965 160.7888 110.6765 161.2507 110.8005 C163.7915 111.4822 168.7047 114.4075 170.0680 116.6870 C170.2858 118.0342 169.9865 119.1395 169.4610 120.3870 C167.2050 125.7422 163.7505 131.5045 159.7937 135.7630 C157.9003 137.8010 155.7610 139.6410 153.9235 141.7220 C152.9283 142.8488 152.0815 144.8732 150.6835 145.4450 C150.3575 145.3233 150.0535 145.2030 149.7467 145.0372 C147.5560 143.8533 141.4178 139.3522 140.6848 137.1345 C140.7985 136.8550 140.8000 136.7990 141.0285 136.5358 C141.8535 135.5853 143.7160 134.7705 144.7758 134.0347 C147.6240 132.0580 150.0683 129.5202 152.0988 126.7205 C154.0930 123.9702 156.0918 120.9272 157.5010 117.8390 C158.5835 115.4670 158.8385 112.7193 160.4702 110.6382 Z"></path>
<path id="" fill="#292f33" fill-opacity="1.0" stroke="#000000" stroke-width="0.0" stroke-opacity="1.0" stroke-linecap="round" stroke-linejoin="round"  filling="0" d="M221.0865 205.0605 C226.9693 203.7162 232.8250 207.4052 234.1528 213.2915 C235.4805 219.1777 231.7755 225.0233 225.8855 226.3347 C220.0188 227.6407 214.2012 223.9535 212.8785 218.0903 C211.5560 212.2272 215.2272 206.3995 221.0865 205.0605 Z"></path>
<path id="" fill="#c43512" fill-opacity="1.0" stroke="#000000" stroke-width="0.0" stroke-opacity="1.0" stroke-linecap="round" stroke-linejoin="round"  filling="0" d="M125.3970 88.5437 C128.9645 89.4668 133.7027 92.4015 136.4512 94.8958 C134.4445 100.8930 130.4608 107.1575 126.3727 111.9133 C124.3220 114.2988 121.8213 116.6370 120.2510 119.3600 C119.9195 119.3727 119.5900 119.3952 119.2630 119.3192 C116.6252 118.7063 111.0432 113.1998 109.4005 110.9178 C109.7395 110.7120 110.0740 110.4985 110.4035 110.2775 C117.7773 105.3760 123.6930 97.2565 125.3970 88.5437 Z"></path>
<path id="" fill="#c43612" fill-opacity="1.0" stroke="#000000" stroke-width="0.0" stroke-opacity="1.0" stroke-linecap="round" stroke-linejoin="round"  filling="0" d="M91.4115 68.6898 C95.7878 69.7043 100.0295 72.6308 103.6670 75.1495 C100.5208 80.5092 95.3652 87.0105 91.3130 91.8010 C91.1577 92.0543 90.9670 92.4250 90.7585 92.6483 C90.3333 93.1035 90.0520 93.2688 89.4185 93.2490 C87.4985 93.1890 82.3355 88.1288 81.2080 86.4983 C80.9985 86.1955 80.6770 85.6422 80.7637 85.2637 C80.9747 84.3420 83.1252 83.0625 83.8132 82.2945 C87.4117 78.2777 90.3822 74.0367 91.4115 68.6898 Z"></path>
</svg>