<svg xmlns="http://www.w3.org/2000/svg" viewBox="0 0 512 512" height="512.0px" width="512.0px">
<path id="" fill="#fefefe" fill-opacity="1.0" stroke="#000000" stroke-width="0.0" stroke-opacity="1.0" stroke-linecap="round" stroke-linejoin="round"  filling="0" d="M234.2973 177.1037 C234.6608 177.0555 234.5522 177.0618 234.8895 177.0450 C241.2383 176.7298 247.6535 176.9608 254.0125 176.9603 C261.2325 176.9600 268.5675 176.6882 275.7725 177.0500 C328.3600 179.6915 392.9700 194.3327 433.0150 230.4568 C435.6500 232.8325 437.7750 235.5208 440.1000 238.1747 C442.0600 240.4115 444.1625 242.5067 445.9475 244.8925 C447.4475 246.8997 448.7000 249.1107 449.9900 251.2575 C455.9575 261.1775 460.5025 272.0000 461.0900 283.7275 C462.0800 303.4550 452.8875 322.3550 439.8250 336.7250 C401.6025 378.7775 333.2750 396.3225 278.3125 399.2450 C275.2975 399.2850 272.2800 399.8275 269.2600 399.9550 C260.9775 400.3075 252.3975 400.2425 244.1152 399.9825 C240.5580 399.8700 237.0140 399.3825 233.4612 399.1650 C182.5350 396.0500 126.2435 382.3150 85.8215 349.7200 C68.2278 335.5325 53.8880 314.8875 51.4825 292.0150 C49.7842 275.8675 57.5573 255.3800 67.7555 242.9570 C70.1300 240.0647 72.8665 237.4772 75.5120 234.8365 C82.4440 227.9178 89.5855 221.9043 97.7420 216.4467 C102.6800 213.1430 108.1898 209.8665 113.5247 207.2465 C115.8330 206.1130 118.2325 205.1625 120.5650 204.0793 C124.2740 202.3570 127.8565 200.3972 131.6435 198.8380 C139.2695 195.6985 146.9612 193.3270 154.8508 190.9775 C169.7767 186.5325 184.6393 182.9690 200.0482 180.5997 C211.4117 178.8525 222.8700 178.2077 234.2973 177.1037 Z"></path>
<path id="" fill="#ccd6dc" fill-opacity="1.0" stroke="#000000" stroke-width="0.0" stroke-opacity="1.0" stroke-linecap="round" stroke-linejoin="round"  filling="0" d="M51.9753 273.3725 C51.9603 266.7075 51.5267 259.7550 52.3273 253.1500 C54.2702 237.1275 64.6852 221.1575 75.8740 209.8548 C77.4398 208.2733 79.2267 206.8853 80.8840 205.3992 C82.8000 203.6810 84.5562 201.7650 86.5435 200.1290 C94.4295 193.6367 103.7065 188.1712 112.7437 183.4770 C115.7960 181.8915 118.8480 180.2085 122.0372 178.9142 C134.3288 173.9263 147.0867 171.2060 160.0755 168.7920 C173.2140 166.3120 186.4335 164.2812 199.7108 162.7038 C204.5515 162.1210 209.4160 161.7518 214.2623 161.2148 C224.0435 160.1305 233.9908 158.5235 243.8092 158.0075 C250.6775 157.6467 257.6825 157.9122 264.5625 157.9433 C271.5325 157.9747 278.2175 159.0375 285.1300 159.6562 C308.0325 161.5075 330.8175 164.6190 353.3775 168.9765 C362.5800 170.6633 372.5000 172.0822 381.3225 175.2547 C397.4825 181.0647 420.4900 194.5300 432.6075 206.6705 C442.9625 217.0455 450.5900 226.0140 456.0600 239.8535 C457.6625 243.9122 459.0625 248.0590 459.6775 252.3950 C460.1400 255.6300 460.1275 258.8775 460.1100 262.1375 C460.0850 266.3875 459.9900 270.5950 459.3525 274.8100 C459.9125 281.8300 461.3325 284.8475 460.3000 292.3650 C458.3050 307.3875 452.0725 321.5325 442.3300 333.1450 C440.0725 335.7975 437.4400 338.2175 434.9775 340.6800 C431.0050 344.6475 427.1775 348.4475 422.6925 351.8500 C414.1050 358.3600 404.9850 364.4100 395.4050 369.3600 C385.9850 374.2300 375.9150 378.6325 365.8925 382.0750 C361.5575 383.5625 357.1225 384.7675 352.7300 386.0725 C327.0725 393.6950 303.3075 397.5225 276.6225 399.2300 C273.6950 399.4175 270.7800 399.7975 267.8475 399.9400 C260.6475 400.2850 253.2100 400.1875 246.0055 399.9825 C242.7453 399.8900 239.4998 399.4625 236.2480 399.2325 C229.8975 398.7800 223.5643 398.5175 217.2290 397.7875 C214.5290 397.4775 211.8983 396.7900 209.2185 396.3675 C206.0753 395.8725 202.8835 395.6475 199.7295 395.2100 C169.9775 391.0800 143.3690 383.0875 116.6537 369.3850 C112.5015 367.2575 108.2420 365.3025 104.2680 362.8450 C97.8987 358.9100 90.6237 353.2825 84.9098 348.4100 C78.5560 342.9950 73.1465 338.0775 68.0850 331.3600 C65.8240 328.3575 64.0088 325.1300 62.0488 321.9325 C60.8412 319.9625 59.4917 318.0525 58.4895 315.9650 C54.4190 307.4925 51.4070 296.7250 51.0137 287.2950 C50.8170 282.5775 51.3152 278.0325 51.9753 273.3725 Z"></path>
<path id="" fill="#939598" fill-opacity="1.0" stroke="#000000" stroke-width="0.0" stroke-opacity="1.0" stroke-linecap="round" stroke-linejoin="round"  filling="0" d="M459.3525 274.8100 C459.9125 281.8300 461.3325 284.8475 460.3000 292.3650 C458.3050 307.3875 452.0725 321.5325 442.3300 333.1450 C440.0725 335.7975 437.4400 338.2175 434.9775 340.6800 C431.0050 344.6475 427.1775 348.4475 422.6925 351.8500 C414.1050 358.3600 404.9850 364.4100 395.4050 369.3600 C385.9850 374.2300 375.9150 378.6325 365.8925 382.0750 C361.5575 383.5625 357.1225 384.7675 352.7300 386.0725 C327.0725 393.6950 303.3075 397.5225 276.6225 399.2300 C273.6950 399.4175 270.7800 399.7975 267.8475 399.9400 C260.6475 400.2850 253.2100 400.1875 246.0055 399.9825 C242.7453 399.8900 239.4998 399.4625 236.2480 399.2325 C229.8975 398.7800 223.5643 398.5175 217.2290 397.7875 C214.5290 397.4775 211.8983 396.7900 209.2185 396.3675 C206.0753 395.8725 202.8835 395.6475 199.7295 395.2100 C169.9775 391.0800 143.3690 383.0875 116.6537 369.3850 C112.5015 367.2575 108.2420 365.3025 104.2680 362.8450 C97.8987 358.9100 90.6237 353.2825 84.9098 348.4100 C78.5560 342.9950 73.1465 338.0775 68.0850 331.3600 C65.8240 328.3575 64.0088 325.1300 62.0488 321.9325 C60.8412 319.9625 59.4917 318.0525 58.4895 315.9650 C54.4190 307.4925 51.4070 296.7250 51.0137 287.2950 C50.8170 282.5775 51.3152 278.0325 51.9753 273.3725 C51.9098 276.2075 53.1478 279.1725 54.0005 281.8575 C58.3723 295.6100 65.7353 307.0300 75.6485 317.4275 C114.4935 358.1775 188.4962 375.6725 243.0520 376.9675 C260.3450 377.4750 277.6525 376.8925 294.8750 375.2275 C303.9625 374.2100 313.0075 372.8500 321.9950 371.1550 C362.1200 363.6950 403.2550 349.3150 433.2650 320.5850 C443.1225 311.1475 451.2225 299.9825 456.4350 287.3425 C457.6825 284.3175 459.1150 280.5875 459.2275 277.2775 C459.2525 276.5475 458.9925 275.4475 459.3525 274.8100 Z"></path>
<path id="" fill="#feac33" fill-opacity="1.0" stroke="#000000" stroke-width="0.0" stroke-opacity="1.0" stroke-linecap="round" stroke-linejoin="round"  filling="0" d="M136.8590 172.0592 C140.2200 170.0797 143.8405 168.5885 147.2153 166.6370 L194.7015 138.8310 L219.3395 124.3680 C225.8633 120.6045 232.1675 116.5180 239.4297 114.3102 C249.8635 111.1380 261.3675 111.2325 271.8875 113.9742 C280.6625 116.2617 288.2025 121.8575 295.9950 126.3060 C314.0625 136.7340 332.0675 147.2745 350.0025 157.9272 C354.8825 160.8190 359.7875 163.6633 364.7225 166.4600 C367.8725 168.2567 371.0100 170.1615 374.3400 171.6033 C374.7200 171.7682 374.5750 171.6842 374.8975 171.9913 C384.3125 171.5878 417.6400 192.7155 425.4550 199.8793 C426.5925 200.9232 427.7100 202.0240 428.7100 203.2015 C434.4025 207.7108 441.7525 211.7460 442.7375 219.7558 C443.2825 224.1918 443.0850 229.1478 442.7825 233.6100 C443.0725 235.5237 442.8900 237.7805 442.8975 239.7328 C442.9425 249.7688 442.8225 262.7225 435.2150 270.2900 C430.5200 274.9650 420.8175 279.6575 414.8750 283.1675 L369.3675 309.7100 L305.5725 347.1100 L289.4200 356.5775 C285.9200 358.6200 282.4275 360.7725 278.7225 362.4225 C271.3875 365.6875 264.0125 366.9975 256.0150 366.9875 C248.5383 366.9775 241.1760 366.0125 234.2908 362.9425 C227.1545 359.7625 220.5865 355.3750 213.8613 351.4325 L176.8607 329.6575 L108.7068 289.9125 C104.2767 287.3275 99.8987 284.6400 95.4522 282.0900 C90.0725 279.0025 81.7917 275.2025 77.5277 270.8725 C68.2122 261.4125 69.2213 241.4073 69.2863 229.0497 C69.1633 225.3020 69.1350 221.3030 70.0082 217.6355 C71.8047 210.0887 79.3968 205.7845 85.4973 201.9828 C86.5137 199.9557 88.1237 198.4485 89.8568 197.0352 C94.5485 193.2092 99.9365 189.7640 105.1048 186.6055 C110.1900 183.4978 131.3647 171.4753 136.8590 172.0592 Z"></path>
<path id="" fill="#f4900c" fill-opacity="1.0" stroke="#000000" stroke-width="0.0" stroke-opacity="1.0" stroke-linecap="round" stroke-linejoin="round"  filling="0" d="M69.2863 229.0497 L69.5927 229.1803 C69.8798 228.4863 69.8970 228.1625 70.5505 227.7635 C72.2663 228.2478 75.2603 232.1600 76.8828 233.4673 C81.0685 236.8398 86.2533 239.4805 90.8882 242.2012 L190.8505 300.5700 L215.2770 314.9925 C223.5078 319.8350 232.2350 325.6875 241.5242 328.1125 C255.5800 331.7300 270.4875 329.8600 283.2150 322.8825 C289.8475 319.1700 296.3325 315.2025 302.9025 311.3825 L364.7250 275.1400 C381.1125 265.7650 397.4300 256.2700 413.6775 246.6573 C419.0075 243.5130 435.0400 234.9353 438.1300 231.1723 C439.1225 229.9637 440.0625 228.4305 441.6900 228.1288 C442.8675 229.2255 442.4375 232.1050 442.7825 233.6100 C443.0725 235.5237 442.8900 237.7805 442.8975 239.7328 C442.9425 249.7688 442.8225 262.7225 435.2150 270.2900 C430.5200 274.9650 420.8175 279.6575 414.8750 283.1675 L369.3675 309.7100 L305.5725 347.1100 L289.4200 356.5775 C285.9200 358.6200 282.4275 360.7725 278.7225 362.4225 C271.3875 365.6875 264.0125 366.9975 256.0150 366.9875 C248.5383 366.9775 241.1760 366.0125 234.2908 362.9425 C227.1545 359.7625 220.5865 355.3750 213.8613 351.4325 L176.8607 329.6575 L108.7068 289.9125 C104.2767 287.3275 99.8987 284.6400 95.4522 282.0900 C90.0725 279.0025 81.7917 275.2025 77.5277 270.8725 C68.2122 261.4125 69.2213 241.4073 69.2863 229.0497 Z"></path>
<path id="" fill="#cdd7dd" fill-opacity="1.0" stroke="#000000" stroke-width="0.0" stroke-opacity="1.0" stroke-linecap="round" stroke-linejoin="round"  filling="0" d="M374.8975 171.9913 C384.3125 171.5878 417.6400 192.7155 425.4550 199.8793 C426.5925 200.9232 427.7100 202.0240 428.7100 203.2015 C427.9900 203.2708 427.3900 202.9830 426.7600 202.6662 C423.3725 200.9585 420.1250 198.8780 416.8525 196.9575 L398.3950 186.0672 L384.5025 178.0403 C381.2675 176.1625 377.8450 174.3030 374.8975 171.9913 Z"></path>
<path id="" fill="#cdd6dc" fill-opacity="1.0" stroke="#000000" stroke-width="0.0" stroke-opacity="1.0" stroke-linecap="round" stroke-linejoin="round"  filling="0" d="M85.4973 201.9828 C86.5137 199.9557 88.1237 198.4485 89.8568 197.0352 C94.5485 193.2092 99.9365 189.7640 105.1048 186.6055 C110.1900 183.4978 131.3647 171.4753 136.8590 172.0592 C135.3033 173.7000 87.9905 201.7485 85.7883 201.9845 C85.6917 201.9948 85.5943 201.9832 85.4973 201.9828 Z"></path>
<path id="" fill="#feab32" fill-opacity="1.0" stroke="#000000" stroke-width="0.0" stroke-opacity="1.0" stroke-linecap="round" stroke-linejoin="round"  filling="0" d="M168.1675 224.3087 C169.2800 224.2525 170.3930 224.4093 171.4467 224.7708 C175.8180 226.2778 186.6785 232.7988 190.8837 235.5545 C192.5485 236.6455 194.4680 237.8848 194.8398 239.9860 C195.0677 241.2668 194.7685 242.5853 194.0098 243.6420 C192.2023 246.2007 177.8475 254.4600 174.2655 256.1075 C172.6325 256.8575 171.0635 257.3750 169.3035 257.7300 C164.8817 257.9675 161.1570 255.7450 157.3860 253.6775 C153.6900 251.6525 146.8882 248.2487 143.9673 245.4265 C143.3110 244.7925 142.8815 244.0625 142.6545 243.1772 C142.2875 241.7467 142.6178 240.3197 143.4028 239.0912 C144.0970 238.0045 145.0818 237.1445 146.1090 236.3828 C148.4855 234.6210 151.1953 233.2600 153.7182 231.7198 C156.7230 229.8853 159.5900 227.8060 162.7558 226.2465 C164.4883 225.3927 166.2733 224.6998 168.1675 224.3087 Z"></path>
<path id="" fill="#f4900c" fill-opacity="1.0" stroke="#000000" stroke-width="0.0" stroke-opacity="1.0" stroke-linecap="round" stroke-linejoin="round"  filling="0" d="M340.2225 224.2843 C342.0800 224.1615 343.7575 224.3412 345.5300 224.9320 C348.6500 225.9715 367.3000 236.6385 368.3425 239.0627 C368.6500 239.7802 368.6500 241.1405 368.2775 241.8315 C367.1450 243.9162 347.2800 255.0225 343.9900 256.3350 C340.5775 257.2700 338.2400 256.5250 335.1625 255.0450 C331.2525 253.1650 321.0075 247.6523 317.9675 245.0605 C316.8400 244.0995 315.8150 242.8920 315.3600 241.4585 C315.0725 240.5485 315.0775 239.6992 315.5700 238.8540 C317.5400 235.4895 335.9675 225.3647 340.2225 224.2843 Z"></path>
<path id="" fill="#f38f0c" fill-opacity="1.0" stroke="#000000" stroke-width="0.0" stroke-opacity="1.0" stroke-linecap="round" stroke-linejoin="round"  filling="0" d="M340.4575 174.3075 C342.4850 174.2448 344.2850 174.6820 346.1675 175.3885 C350.3625 176.9628 354.0025 179.6420 357.8400 181.9017 C360.5225 183.4823 363.5975 184.9310 366.0400 186.8438 C366.8425 187.4710 367.9675 188.4263 368.3050 189.4283 C368.5225 190.0745 368.3575 190.6467 368.0400 191.2258 C366.1950 194.5903 351.5025 203.0725 347.5525 205.0177 C346.1800 205.6927 344.7850 206.1897 343.3300 206.6490 C342.1125 206.8180 340.7075 207.0205 339.4900 206.7875 C335.2250 205.9720 325.7800 199.9840 321.7925 197.4525 C319.5150 196.0060 316.1950 193.9877 315.6675 191.1138 C315.4825 190.1068 315.7375 189.2835 316.3350 188.4693 C318.5525 185.4435 332.1425 177.4575 335.9350 175.7133 C337.4275 175.0267 338.8350 174.5755 340.4575 174.3075 Z"></path>
<path id="" fill="#f4900c" fill-opacity="1.0" stroke="#000000" stroke-width="0.0" stroke-opacity="1.0" stroke-linecap="round" stroke-linejoin="round"  filling="0" d="M296.6775 149.5547 C298.3550 149.3922 300.3850 149.2422 302.0025 149.7682 C305.5625 150.9263 319.7925 159.1280 323.0600 161.5607 C323.9675 162.2375 325.4775 163.4303 325.8425 164.5567 C326.0800 165.2900 325.8875 165.7810 325.5100 166.4207 C324.0375 168.9050 305.0000 180.0980 301.7225 180.8918 C298.2950 181.6342 296.2000 181.1235 293.1550 179.5737 C289.6200 177.7745 286.2050 175.6642 282.7550 173.7040 C280.2700 172.2912 277.4325 170.9698 275.1625 169.2355 C274.0800 168.4070 272.6925 167.2760 272.3075 165.9138 C272.1225 165.2587 272.3150 164.6440 272.6475 164.0670 C274.2950 161.2083 289.2875 152.6485 292.5525 151.0652 C293.8975 150.4130 295.2350 149.9435 296.6775 149.5547 Z"></path>
<path id="" fill="#f38f0c" fill-opacity="1.0" stroke="#000000" stroke-width="0.0" stroke-opacity="1.0" stroke-linecap="round" stroke-linejoin="round"  filling="0" d="M212.5160 149.3295 C213.5295 149.3365 214.5285 149.3660 215.5195 149.6015 C219.2737 150.4937 234.2623 159.1687 237.6452 161.7137 C238.6500 162.4698 239.5417 163.2583 240.1985 164.3450 C240.2695 164.9320 240.1905 165.3017 239.8848 165.8172 C238.0918 168.8372 223.2847 177.2925 219.6017 179.0445 C217.7863 179.9082 216.0095 180.5403 214.0710 181.0705 C212.9010 181.2363 211.8777 181.1155 210.7442 180.7770 C205.7502 179.2855 192.6465 171.8255 188.2168 168.6198 C187.2285 167.9048 186.3405 167.2160 186.1895 165.9373 C186.0940 165.1293 186.1747 164.3935 186.6940 163.7405 C188.9138 160.9500 204.2962 152.2350 208.3910 150.4682 C209.7617 149.8770 211.0403 149.5385 212.5160 149.3295 Z"></path>
<path id="" fill="#f4900c" fill-opacity="1.0" stroke="#000000" stroke-width="0.0" stroke-opacity="1.0" stroke-linecap="round" stroke-linejoin="round"  filling="0" d="M254.7825 124.5730 C256.1825 124.4630 257.4600 124.4180 258.8325 124.7742 C263.9150 126.0940 274.3775 132.5965 278.9750 135.6335 C280.4300 136.5965 282.5650 138.2007 282.8025 140.0768 C282.8925 140.8027 282.7100 141.3353 282.2800 141.9108 C280.6775 144.0437 264.7675 153.1685 261.6850 154.5630 C260.1100 155.2753 258.6200 155.6962 256.9050 155.9140 C254.1550 156.2865 251.4325 155.0365 249.0383 153.8082 C246.3580 152.4328 243.8105 150.7845 241.1910 149.2965 C237.9185 147.4375 234.2513 145.7233 231.3098 143.3830 C230.3960 142.6557 229.2435 141.6028 228.9722 140.4120 C228.8212 139.7495 229.3675 138.8885 229.7608 138.3913 C231.4803 136.2170 247.0080 127.3463 250.3075 125.8832 C251.7850 125.2275 253.1775 124.8055 254.7825 124.5730 Z"></path>
<path id="" fill="#f4900c" fill-opacity="1.0" stroke="#000000" stroke-width="0.0" stroke-opacity="1.0" stroke-linecap="round" stroke-linejoin="round"  filling="0" d="M211.8200 249.2847 C214.8680 248.9825 217.0423 249.6452 219.6910 251.0675 C222.9353 252.8100 226.0222 254.9050 229.1935 256.7825 C232.2923 258.6150 236.0660 260.2550 238.7610 262.6150 C239.3468 263.1275 239.9410 263.8900 240.1087 264.6675 C240.2875 265.5000 240.1980 266.1025 239.7112 266.7925 C239.0813 267.6825 238.1528 268.4125 237.2625 269.0325 C234.5182 270.9400 231.4575 272.3400 228.5750 274.0150 C225.4408 275.8350 222.4138 277.9975 219.1330 279.5400 C217.7015 280.2150 216.3580 280.6875 214.8017 280.9800 C213.0745 281.0925 211.2103 280.9150 209.5765 280.3350 C204.6048 278.5725 199.7137 275.1175 195.1458 272.4600 C193.1780 271.3125 190.9680 270.2975 189.1373 268.9525 C188.2230 268.2800 186.6955 267.0875 186.3288 265.9600 C186.1150 265.3025 186.2225 264.8825 186.5708 264.3075 C187.2587 263.1725 188.3878 262.2550 189.4500 261.4800 C191.7250 259.8250 194.3347 258.5375 196.7525 257.0975 C200.6405 254.7800 204.5135 252.1950 208.6328 250.3150 C209.6707 249.8398 210.7100 249.5432 211.8200 249.2847 Z"></path>
<path id="" fill="#f4900c" fill-opacity="1.0" stroke="#000000" stroke-width="0.0" stroke-opacity="1.0" stroke-linecap="round" stroke-linejoin="round"  filling="0" d="M382.7125 199.3107 C384.3850 199.1783 386.1875 199.2665 387.7875 199.7960 C390.9300 200.8347 405.6975 209.3800 408.6350 211.5695 C409.7075 212.3692 410.5950 213.1877 411.2250 214.3770 C411.3250 215.2728 411.1425 215.8040 410.6575 216.5440 C408.3775 220.0117 389.8975 230.0182 385.7550 230.9315 C383.2350 231.1445 381.0375 230.6918 378.7600 229.6005 C375.7525 228.1600 372.9625 226.2490 370.0825 224.5740 C366.6450 222.5733 362.9425 220.7730 359.7625 218.3810 C358.7650 217.6295 357.5850 216.7535 357.1550 215.5468 C357.2300 215.1122 357.3075 214.7652 357.5400 214.3833 C358.1325 213.4093 359.0300 212.6232 359.9225 211.9332 C362.4725 209.9635 365.6125 208.3983 368.3875 206.7473 C372.0000 204.5988 375.5400 202.2162 379.3550 200.4382 C380.4550 199.9260 381.5325 199.5867 382.7125 199.3107 Z"></path>
<path id="" fill="#f4900c" fill-opacity="1.0" stroke="#000000" stroke-width="0.0" stroke-opacity="1.0" stroke-linecap="round" stroke-linejoin="round"  filling="0" d="M254.8925 274.3375 C256.5650 274.2375 258.1125 274.4625 259.6975 275.0025 C263.5400 276.3075 281.7925 286.5250 282.8275 289.6100 C283.0500 290.2775 282.9250 290.7100 282.5675 291.2925 C280.6975 294.3350 265.2875 302.7950 261.5150 304.4750 C260.2150 305.0525 258.9000 305.4200 257.5225 305.7600 C255.9525 305.8275 254.3675 305.8750 252.8325 305.4750 C249.4375 304.5875 234.5963 295.8975 231.3205 293.4225 C230.3560 292.6925 229.6228 291.9675 229.0332 290.9125 C228.8885 289.9525 229.1965 289.3400 229.7455 288.5825 C231.8740 285.6475 247.6685 277.0075 251.6075 275.3075 C252.6875 274.8425 253.7375 274.5525 254.8925 274.3375 Z"></path>
<path id="" fill="#f4900c" fill-opacity="1.0" stroke="#000000" stroke-width="0.0" stroke-opacity="1.0" stroke-linecap="round" stroke-linejoin="round"  filling="0" d="M127.4385 199.3443 C128.6163 199.3907 129.7255 199.4615 130.8578 199.8098 C134.6497 200.9758 149.1438 209.2533 152.3600 211.7263 C153.3537 212.4902 154.1630 213.2697 154.7415 214.3865 C154.8568 215.5312 154.4075 216.2962 153.6800 217.1483 C151.4543 219.7545 136.5497 228.0655 132.9890 229.5807 C131.4138 230.2513 129.9218 230.7063 128.2100 230.8692 C126.6642 230.8452 125.4165 230.6915 123.9522 230.1490 C119.4950 228.4980 115.4840 225.6950 111.3773 223.3390 C108.7175 221.8132 105.6535 220.3802 103.2393 218.5115 C102.1350 217.6568 100.9272 216.5938 100.7548 215.1355 C100.9803 214.3763 101.2480 213.8505 101.7632 213.2410 C103.6693 210.9870 119.9605 201.8087 123.4473 200.3305 C124.7827 199.7643 126.0067 199.4965 127.4385 199.3443 Z"></path>
<path id="" fill="#f4900c" fill-opacity="1.0" stroke="#000000" stroke-width="0.0" stroke-opacity="1.0" stroke-linecap="round" stroke-linejoin="round"  filling="0" d="M168.2272 174.5220 C170.5473 174.3387 172.7620 174.4088 174.9595 175.2810 C178.1815 176.5598 194.7218 186.0397 195.6163 188.5995 C196.0468 189.8318 195.6915 191.2717 195.0522 192.3630 C192.8735 196.0833 180.2012 202.7250 175.8683 204.5950 C174.3972 205.2300 172.8935 205.6605 171.3448 206.0603 C169.4928 206.3895 167.7267 206.2332 166.0043 205.4660 C162.9657 204.1120 160.1415 202.0287 157.2858 200.3257 C153.5580 198.1025 149.3723 196.0565 145.9507 193.3900 C145.0143 192.6600 143.8260 191.6670 143.4727 190.4880 C143.3255 189.9965 143.6302 189.2665 143.8920 188.8362 C144.4648 187.8952 145.3403 187.1930 146.2227 186.5592 C148.3925 185.0005 150.8910 183.7953 153.1870 182.4260 C156.6715 180.3483 160.1240 178.0425 163.7583 176.2435 C165.2202 175.5200 166.6573 174.9608 168.2272 174.5220 Z"></path>
<path id="" fill="#f4900c" fill-opacity="1.0" stroke="#000000" stroke-width="0.0" stroke-opacity="1.0" stroke-linecap="round" stroke-linejoin="round"  filling="0" d="M298.1350 249.0388 C299.2225 248.9575 300.1900 248.9395 301.2475 249.2530 C305.4875 250.5100 316.0150 257.3050 319.8875 260.0475 C321.7600 261.3700 324.2400 263.4725 324.5375 265.8675 C324.6100 266.4550 324.5175 266.9375 324.1400 267.4100 C322.2650 269.7425 307.2900 278.2750 304.0150 279.7200 C302.2500 280.4975 300.6175 280.9525 298.7025 281.1575 C296.3400 281.2875 294.0150 280.1625 291.9625 279.1125 C288.5800 277.3825 285.3475 275.3200 282.0600 273.4100 C279.7500 272.0675 277.1175 270.8350 275.0225 269.1750 C273.9750 268.3450 272.5525 267.1000 272.1825 265.7600 C272.0300 265.2050 272.2250 264.6875 272.5350 264.2125 C274.2075 261.6450 290.3225 252.1500 293.9875 250.3975 C295.3525 249.7465 296.6525 249.3315 298.1350 249.0388 Z"></path>
<path id="" fill="#d3790d" fill-opacity="1.0" stroke="#000000" stroke-width="0.0" stroke-opacity="1.0" stroke-linecap="round" stroke-linejoin="round"  filling="0" d="M233.0725 177.1910 C238.2530 174.6868 244.8185 169.5603 250.1200 168.2572 C252.0525 167.7820 254.1500 167.8053 256.1275 167.8235 C258.6125 167.8465 261.0100 167.9755 263.3800 168.7810 C266.1725 169.7298 268.7225 171.3965 271.2625 172.8663 C277.3275 176.3752 285.0250 181.5150 291.4025 184.0327 C294.0025 183.9698 296.5625 183.5242 299.1425 183.2315 C303.4925 182.7377 308.0200 182.2935 312.3850 182.0210 C320.2925 181.5278 329.1350 183.1285 336.8425 184.8768 C343.8450 186.4650 355.2325 189.7337 359.2525 196.1030 C359.3450 197.6300 359.6825 200.1008 358.5225 201.2753 C355.3375 204.5010 347.0675 205.0742 342.6425 206.5358 C338.4550 207.9195 333.9575 209.6250 330.0150 211.6115 C325.1950 214.0403 325.4500 216.7563 322.1675 219.0358 C318.7425 221.4122 314.0900 222.7295 311.5925 226.2493 C309.8300 228.7355 309.6250 232.7470 310.2250 235.6877 C311.6300 242.5715 322.2800 246.9543 327.8425 249.8490 C329.9600 250.9675 332.0225 252.1925 334.0175 253.5175 C342.1125 258.8000 348.7600 265.3900 354.3125 273.3025 C355.2925 274.7025 356.8400 276.5400 357.1350 278.2400 C357.2575 278.9525 357.1075 279.3600 356.6575 279.9325 C351.9925 285.8675 339.3350 292.6900 331.7950 293.6325 C331.0275 291.5250 330.2025 289.4975 329.0950 287.5425 C321.3725 273.9400 299.9000 264.1500 285.5500 259.1925 C278.6675 256.8150 271.3975 255.0325 264.3750 253.0725 C257.5925 256.0875 253.4650 256.2350 246.8915 252.3000 C244.7603 251.0225 242.6490 249.7657 240.2682 249.0090 C236.6203 247.8495 228.6835 247.5165 224.6460 247.2758 C217.1605 246.8290 201.7110 249.0688 194.7552 251.3725 C187.7063 253.7050 181.1550 257.4925 174.1337 259.9725 C171.8865 260.7675 169.4640 261.1925 167.1443 261.7275 C163.1098 262.6575 159.4052 263.2950 155.2740 262.5950 C151.1348 261.8925 147.6570 260.2050 145.2130 256.6750 C143.0405 253.5350 141.6630 246.4750 143.4747 242.8790 C144.0327 241.7720 145.5375 240.9550 146.3387 239.9628 C148.0630 237.8273 149.6855 235.6935 151.6700 233.7827 C154.4738 231.0827 157.7175 228.7793 160.7278 226.3123 C166.4073 221.6575 172.0083 215.5470 175.2855 208.9223 C179.7430 199.9115 176.7198 195.3073 178.3618 186.6400 C179.2838 181.7730 181.1987 177.1210 185.4595 174.2818 C188.0612 172.5482 191.1535 171.9045 194.1973 171.4755 C204.8717 169.9713 215.5745 172.7413 225.8913 175.3017 C228.2035 175.8757 230.4783 176.7092 232.8165 177.1458 L233.0725 177.1910 Z M206.3123 200.7750 C205.9125 200.8925 205.5573 200.8525 205.3730 201.2657 C204.4700 203.2912 205.2570 209.9035 206.1505 211.8138 C206.9212 213.4622 208.1980 214.7010 209.6622 215.7433 C211.7920 217.2595 214.2162 218.4677 216.4930 219.7510 L228.8910 226.6800 C234.8555 230.0230 243.9393 236.0948 249.9807 238.1015 C256.0475 240.1167 261.8650 238.5620 267.3700 235.7623 C274.2350 232.2717 280.8700 228.0708 287.5725 224.2660 C291.9050 221.8078 299.4825 218.1288 303.1450 215.0737 C304.6450 213.8212 305.7350 212.3808 306.2950 210.4897 C307.1250 207.7045 306.9975 204.3150 306.9700 201.4292 L306.6775 200.9350 C306.3025 200.9048 305.9850 200.8882 305.6075 200.9195 C302.3550 202.0428 298.9675 204.4755 295.9900 206.2015 L278.1875 216.3887 C273.1025 219.3315 267.8950 222.9065 262.2900 224.7465 C259.2150 225.7558 256.2375 226.2730 253.0150 225.6375 C246.0075 224.2550 239.7137 219.7782 233.5900 216.2800 C224.5505 211.1160 215.5775 205.5105 206.3123 200.7750 Z"></path>
<path id="" fill="#fed882" fill-opacity="1.0" stroke="#000000" stroke-width="0.0" stroke-opacity="1.0" stroke-linecap="round" stroke-linejoin="round"  filling="0" d="M233.0725 177.1910 C238.2530 174.6868 244.8185 169.5603 250.1200 168.2572 C252.0525 167.7820 254.1500 167.8053 256.1275 167.8235 C258.6125 167.8465 261.0100 167.9755 263.3800 168.7810 C266.1725 169.7298 268.7225 171.3965 271.2625 172.8663 C277.3275 176.3752 285.0250 181.5150 291.4025 184.0327 C291.4525 184.0880 291.5000 184.1445 291.5525 184.1983 C295.1475 187.9138 307.5775 190.8955 307.3725 197.0060 C307.3350 198.1308 306.6275 200.0287 305.7750 200.7962 C305.7250 200.8427 305.6625 200.8785 305.6075 200.9195 C302.3550 202.0428 298.9675 204.4755 295.9900 206.2015 L278.1875 216.3887 C273.1025 219.3315 267.8950 222.9065 262.2900 224.7465 C259.2150 225.7558 256.2375 226.2730 253.0150 225.6375 C246.0075 224.2550 239.7137 219.7782 233.5900 216.2800 C224.5505 211.1160 215.5775 205.5105 206.3123 200.7750 C206.2065 200.6695 206.1050 200.5598 205.9950 200.4588 C204.7623 199.3295 204.8118 197.6998 204.6430 196.1315 C204.6540 196.1053 204.6655 196.0790 204.6760 196.0525 C205.1667 194.8205 205.5972 193.8970 206.5640 192.9695 C208.6918 190.9277 211.4250 189.6277 213.9685 188.1882 L225.7717 181.5072 C228.2108 180.1348 230.8242 178.8515 233.0725 177.1910 Z"></path>
</svg>