<svg xmlns="http://www.w3.org/2000/svg" viewBox="0 0 512 512" height="512.0px" width="512.0px">
<path id="" fill="#f3d2a1" fill-opacity="1.0" stroke="#000000" stroke-width="0.0" stroke-opacity="1.0" stroke-linecap="round" stroke-linejoin="round"  filling="0" d="M249.5530 107.1035 C250.9050 106.9258 252.3225 106.9770 253.6875 106.9597 C290.1625 106.4970 323.2200 119.8622 350.4950 143.7538 C353.1500 146.0788 355.8775 148.2988 358.3975 150.7735 C360.7550 153.0900 362.8700 155.7108 365.0175 158.2242 C380.2600 176.1180 391.8075 196.8545 398.9925 219.2363 C403.1200 232.5247 405.1850 246.6665 406.3250 260.5000 C406.6525 264.5050 407.0650 268.4950 407.0875 272.5200 C407.1125 277.4925 406.6225 282.3650 406.2000 287.3150 C403.3325 320.9675 392.3000 353.2250 372.5900 380.7875 C368.0400 387.1500 363.1850 393.3775 357.6650 398.9350 C341.4725 415.2400 321.1700 428.9600 299.3350 436.4050 C295.1975 437.8150 290.9325 438.8650 286.6850 439.8850 C279.3100 441.6575 271.6800 443.0150 264.0800 443.0375 C257.7900 443.0475 251.2950 443.3800 245.0385 442.8450 C215.7332 440.3325 188.4978 427.7375 166.0898 408.9500 C132.2047 380.5375 110.9550 334.9475 107.1310 291.1950 C106.6418 285.5950 105.9682 279.8625 105.9545 274.2400 C105.9430 269.5300 106.4800 264.8950 106.8660 260.2100 C107.3640 254.1650 107.8825 248.1528 108.9163 242.1660 C114.1288 212.0298 127.1215 183.7775 146.6085 160.2057 C149.6617 156.5800 153.1175 153.2905 156.4710 149.9430 C162.1628 144.2617 168.0157 138.8525 174.4950 134.0607 C180.4060 129.6893 186.7940 126.0365 193.3517 122.7375 C196.9763 120.9142 200.6080 118.9912 204.3593 117.4427 C218.6660 111.5370 234.1905 108.4175 249.5530 107.1035 Z"></path>
<path id="" fill="#fee51e" fill-opacity="1.0" stroke="#000000" stroke-width="0.0" stroke-opacity="1.0" stroke-linecap="round" stroke-linejoin="round"  filling="0" d="M230.9023 68.3423 C230.9520 68.3322 231.0010 68.3180 231.0513 68.3118 C240.1308 67.1815 248.6732 71.6512 255.8075 76.7103 C258.4875 75.5117 260.8025 73.6430 263.3225 72.1557 C269.1225 68.7292 276.5775 67.6910 283.1575 68.7170 C294.4325 70.4745 300.6275 74.9160 307.2625 83.9337 C314.0825 81.3690 317.8825 79.8387 325.3400 79.9235 C328.2800 79.9570 331.0975 80.2267 333.9300 81.0530 C342.1400 83.4485 348.7050 88.7372 353.0625 96.0510 C354.7225 98.8358 356.0050 101.7920 357.5750 104.6205 C364.3700 102.7907 372.2775 102.0717 379.1950 103.7535 C387.1325 105.6833 394.6825 111.7385 398.8275 118.6963 C402.3075 124.5372 404.7550 132.3203 403.8675 139.1775 C403.4900 142.0820 402.5325 145.0320 401.8000 147.8752 C404.3875 149.0720 407.3350 149.4563 409.9875 150.5655 C416.6300 153.3418 421.7200 158.7515 424.3825 165.4138 C425.5800 168.4117 426.0525 171.3730 426.1500 174.5887 C426.3825 182.2775 424.3650 186.7863 421.3775 193.7323 C426.0600 194.0160 429.6350 194.2455 433.8775 196.4190 C440.8350 199.9832 445.7450 206.2298 448.1125 213.6640 C448.9825 216.3958 449.1425 219.1888 449.1525 222.0392 C449.1825 230.7953 446.3900 233.4755 442.6425 240.8143 C444.9450 241.8290 447.0925 243.0265 449.1175 244.5280 C455.4000 249.2668 459.5350 256.3100 460.6150 264.1025 C461.5350 270.7100 459.3125 278.6425 455.2750 283.9300 C453.6800 286.0225 451.6425 287.7300 450.0800 289.8525 C450.0200 289.9325 449.9650 290.0125 449.9075 290.0950 C450.8500 291.2825 451.9600 292.3800 452.9725 293.5150 C457.6375 298.7450 461.2700 306.1300 460.8125 313.3075 C460.2825 321.6550 457.0175 329.8525 450.0400 334.8125 C447.7675 336.4300 444.8025 337.8125 442.7700 339.6900 C442.6475 339.8050 442.5275 339.9225 442.4050 340.0375 C444.7950 343.4300 447.3650 346.4350 448.3825 350.5575 C448.9625 352.9150 449.0925 355.2600 449.1275 357.6750 C449.2175 364.1975 448.1350 367.8625 444.7300 373.4875 C440.4375 380.5825 433.8625 384.5025 425.8975 386.4325 C426.4000 394.3875 426.5775 400.4725 422.1475 407.4250 C417.8800 414.1225 411.6550 418.6700 403.8775 420.3350 C394.8000 422.2775 387.2425 419.0375 379.7325 414.2150 C374.0675 422.3175 370.5125 428.6925 360.2200 431.2725 C349.4475 433.9725 342.8325 430.8400 333.8400 425.4225 C332.7600 427.6825 331.5625 429.8500 330.1200 431.9000 C325.4900 438.4700 317.9200 442.4400 310.0825 443.7050 C306.3875 444.3025 297.8725 443.0475 294.9375 440.8100 C294.2725 440.3025 293.7550 439.6300 293.7075 438.7650 C293.6675 438.0775 293.9775 437.5275 294.5500 437.1575 C296.0475 436.1950 298.1325 435.6350 299.8150 435.0000 C303.2100 433.7175 306.6000 432.4900 309.8000 430.7625 C315.8150 427.5125 321.5000 423.2800 326.9600 419.1975 C328.4400 418.0900 330.0125 417.0825 331.4325 415.8950 C333.3775 414.2675 335.0900 412.3250 336.9125 410.5600 C339.5650 407.9900 342.3400 405.5625 344.8425 402.8425 C348.6775 398.6750 351.8500 394.2500 355.2025 389.7075 C370.2100 369.1425 380.9100 345.7600 386.6625 320.9600 C388.3325 313.7725 389.4125 306.6050 390.4750 299.3200 C391.3925 293.0225 392.4175 286.8150 392.8350 280.4500 C393.4025 271.8000 393.0450 260.4000 392.6725 251.6675 C390.2200 253.0675 387.9575 254.7725 385.5325 256.2175 C380.6675 259.1150 374.2700 261.1875 368.5600 260.9150 C365.0600 260.7500 361.2075 259.8950 358.0250 258.4050 C351.9150 255.5375 344.9125 248.6588 341.7725 242.7535 C340.2400 239.8685 338.8900 235.0040 336.8000 232.7193 C333.7400 234.8627 331.4925 238.0610 328.4050 240.3163 C322.2400 244.8220 311.7000 249.6025 304.0200 249.9045 C301.0575 250.0200 297.9400 249.4917 295.0125 249.0417 C282.2025 247.0745 271.4250 239.1548 263.8700 228.8757 C262.2675 226.5750 261.1625 223.9000 260.2450 221.2663 C259.4400 218.9547 258.8800 214.8765 257.3125 213.0745 C255.1175 212.6483 250.9625 217.4830 248.9767 218.8027 C246.8810 220.1950 244.5968 221.2325 242.3015 222.2453 C235.4973 225.2475 230.6167 226.4088 223.1882 226.8277 C211.5080 227.4868 196.0715 221.3875 187.7693 213.1270 C184.7292 210.0635 182.3000 206.4500 180.6107 202.4787 C179.5235 199.9408 178.4515 197.1310 177.9953 194.3990 C177.7807 193.1152 177.9418 191.7442 177.6582 190.4792 C177.5338 189.9238 177.2595 189.6082 176.8472 189.2402 C176.5208 189.1243 176.2325 189.0408 175.8805 189.0885 C174.2663 189.3073 172.3840 190.2323 170.9065 190.8963 C160.7820 195.4450 150.0655 203.9247 143.3235 212.7705 C133.6593 225.4505 128.1525 240.7802 124.4790 256.1200 C123.6845 259.4350 122.7097 262.8300 122.2950 266.2125 C121.7397 270.7425 122.2215 275.3600 122.0298 279.9100 C121.9065 282.8400 121.0967 285.7600 121.1445 288.6900 C121.2675 296.2150 122.4310 304.1200 123.4060 311.5875 C127.0533 339.5175 141.9568 372.4450 159.5975 394.4050 C164.8528 400.9450 171.0182 407.0575 177.2355 412.6775 C180.9283 416.0150 184.6235 419.3175 188.7063 422.1800 C194.5110 426.2500 201.0777 430.0750 207.4753 433.1475 C210.6217 434.6600 215.6250 435.7950 218.2805 437.8375 C218.4235 438.2500 218.6050 438.4875 218.4753 438.9250 C218.1718 439.9500 217.0450 440.5800 216.1505 441.0400 C209.8140 444.2950 202.8972 444.5325 196.2267 442.2850 C187.5525 439.3600 182.0692 433.3900 178.0773 425.3500 C177.0710 426.0675 176.0553 426.7725 175.0302 427.4625 C168.9427 431.4850 160.6330 433.1000 153.4892 431.5750 C142.8300 429.3000 137.7563 422.7800 132.1037 414.1300 C131.2275 414.7875 130.3322 415.4200 129.4195 416.0250 C123.1460 420.1075 115.4275 421.8975 108.0680 420.3125 C100.4815 418.6525 93.8698 414.0375 89.6970 407.4875 C85.6460 401.1350 84.4583 393.6350 86.0275 386.3650 C82.2238 385.5225 78.5983 384.0175 75.3175 381.9150 C69.4373 378.1100 64.8802 371.3325 63.4473 364.4825 C61.4405 354.8850 64.1370 347.5725 69.3135 339.6750 C67.1422 338.3050 64.9095 336.9650 62.8532 335.4275 C56.2070 330.4600 52.5400 323.8875 51.3882 315.7175 C50.4865 309.3200 52.7158 301.9350 56.4507 296.7250 C58.0655 294.4725 60.0670 292.5325 61.7335 290.3200 L61.9043 290.0925 C60.2397 287.4425 57.6122 285.5150 55.9880 282.8675 C51.8070 276.0500 50.2100 268.6450 52.0222 260.8625 C54.2108 251.4625 61.1165 245.6770 68.9540 240.7480 C66.1540 235.0943 63.1703 230.4277 62.9245 223.9402 C62.6175 215.8335 64.4565 208.6472 70.1152 202.6178 C75.7235 196.6420 82.7128 194.0898 90.7493 193.8728 C88.7117 189.5405 86.5468 185.2148 85.7832 180.4418 C84.6633 173.4418 86.6252 165.6685 90.8343 159.9707 C95.5360 153.6062 101.8405 149.7060 109.6170 148.5365 C109.0285 141.2080 107.2825 136.6395 109.0113 129.0550 C110.9535 120.3572 116.2795 112.7910 123.8118 108.0283 C134.7558 101.2377 142.5340 101.7888 154.4865 104.5540 C156.8168 100.4457 158.5075 96.2247 161.4345 92.4345 C166.2660 86.1785 174.0680 81.4460 181.9070 80.2170 C183.9778 79.8925 186.1390 79.9385 188.2323 79.9467 C190.5625 79.9560 192.9442 80.0128 195.2255 80.5395 C197.3130 81.0215 202.8717 83.8802 204.6535 83.2890 C206.2117 82.7718 208.0488 79.6575 209.2003 78.3972 C214.9568 72.0980 222.6763 69.4308 230.9023 68.3423 Z"></path>
<path id="" fill="#df1f32" fill-opacity="1.0" stroke="#000000" stroke-width="0.0" stroke-opacity="1.0" stroke-linecap="round" stroke-linejoin="round"  filling="0" d="M219.7307 364.0325 C227.1808 363.1650 230.8260 368.5000 237.0363 371.2850 C243.4747 374.1750 250.0400 375.2500 257.0775 375.1450 C263.1325 375.0525 268.9400 373.9250 274.4925 371.4650 C276.1450 370.7350 277.8175 369.9100 279.3300 368.9225 C283.5000 366.2050 286.3975 363.2075 291.8650 364.1125 C295.1125 364.6500 297.9450 366.5375 299.8200 369.2275 C301.4950 371.6350 302.1875 374.5550 301.6625 377.4500 C300.7750 382.3350 296.6700 385.4275 292.8475 388.0925 C287.1150 391.7675 281.1000 394.3450 274.5400 396.1425 C257.4800 400.8225 237.6380 398.8400 222.2522 389.9975 C217.5285 387.2825 211.8253 383.4725 210.4045 377.8550 C209.6808 374.9950 210.1860 372.0075 211.7133 369.4850 C213.5098 366.5200 216.4312 364.8000 219.7307 364.0325 Z"></path>
<path id="" fill="#c1694f" fill-opacity="1.0" stroke="#000000" stroke-width="0.0" stroke-opacity="1.0" stroke-linecap="round" stroke-linejoin="round"  filling="0" d="M245.2700 318.1050 C248.9707 317.9300 252.7300 318.0600 256.4350 318.0525 C260.6775 318.0400 265.3850 317.6200 269.5350 318.4425 C271.0125 318.7375 272.3525 319.3200 273.6025 320.1650 C276.2200 321.9275 278.4250 324.6625 278.9775 327.8225 C279.5025 330.8175 278.7275 334.1375 276.9300 336.5875 C274.5375 339.8425 271.0350 341.2425 267.1875 341.8075 C262.3225 342.2900 247.2050 342.4550 242.6945 341.3875 C240.6207 340.8975 238.6727 340.0025 237.0217 338.6400 C234.5002 336.5575 233.1935 333.6925 232.9500 330.4650 C232.7198 327.4125 233.7142 324.9075 235.7077 322.6275 C238.3887 319.5625 241.2583 318.3625 245.2700 318.1050 Z"></path>
<path id="" fill="#662113" fill-opacity="1.0" stroke="#000000" stroke-width="0.0" stroke-opacity="1.0" stroke-linecap="round" stroke-linejoin="round"  filling="0" d="M198.4495 261.3275 C198.5672 261.3100 198.6845 261.2900 198.8027 261.2775 C201.1695 261.0150 204.7392 262.6025 206.5638 264.1000 C209.1955 266.2575 210.4662 269.3350 210.8053 272.6525 C211.1985 276.5050 210.9158 280.5600 210.8972 284.4350 C210.8757 288.8575 211.4040 293.7825 210.4760 298.1200 C210.0530 300.0975 209.2103 301.9925 207.8985 303.5450 C205.6777 306.1700 202.8503 306.8600 199.5815 307.1475 C197.1140 307.3000 194.3285 306.8000 192.2467 305.4350 C189.6068 303.7075 188.1740 300.8500 187.6022 297.8200 C186.8935 294.0650 186.7872 276.0350 187.4360 271.9600 C187.7598 269.9275 188.4082 267.8350 189.6178 266.1475 C191.7408 263.1875 194.9905 261.8850 198.4495 261.3275 Z"></path>
<path id="" fill="#662113" fill-opacity="1.0" stroke="#000000" stroke-width="0.0" stroke-opacity="1.0" stroke-linecap="round" stroke-linejoin="round"  filling="0" d="M312.3800 261.2975 C314.9000 261.0800 318.1175 262.1925 320.0775 263.7275 C322.9900 266.0100 324.3125 269.6575 324.7050 273.2300 C325.1925 277.6700 325.1425 294.0600 324.3425 298.0025 C323.9275 300.0400 323.1975 301.8850 321.8425 303.4900 C319.6125 306.1300 316.7725 306.8225 313.4875 307.1200 C311.0600 307.2675 308.4475 306.8750 306.3650 305.5650 C303.8200 303.9600 302.2350 301.2525 301.5725 298.3675 C300.9125 295.4800 300.7650 275.3950 301.2550 271.9675 C301.5275 270.0375 302.1675 268.2075 303.2550 266.5825 C305.4425 263.3100 308.6575 261.9675 312.3800 261.2975 Z"></path>
</svg>