<svg xmlns="http://www.w3.org/2000/svg" viewBox="0 0 512 512" height="512.0px" width="512.0px">
<path id="" fill="#ffd983" fill-opacity="1.0" stroke="#000000" stroke-width="0.0" stroke-opacity="1.0" stroke-linecap="round" stroke-linejoin="round"  filling="0" d="M248.6217 137.1035 C252.8925 136.5370 257.9525 136.8958 262.2925 136.9830 C267.1675 137.0807 271.8575 137.8542 276.6350 138.7540 C299.2475 143.0140 318.2050 153.8452 334.1200 170.3918 C359.6375 196.9223 369.7125 235.9592 369.0400 271.9425 C374.7350 271.8950 383.3225 274.2700 388.9975 275.6750 C409.2150 280.6850 438.3325 288.5600 453.3125 303.4525 C458.0750 308.1875 460.1750 312.3200 460.1650 319.1200 C460.1575 324.8475 457.1075 329.5725 453.1700 333.4950 C427.9475 358.6300 362.5700 368.0825 327.7775 371.6500 C320.9550 372.3500 314.0875 372.7375 307.2500 373.2575 L292.2500 374.2600 C289.2575 374.4675 286.2700 374.8800 283.2725 374.9850 C276.9150 375.2075 270.4900 375.0325 264.1250 375.0275 C251.9225 375.0300 239.5530 375.4600 227.3675 374.9500 C224.1175 374.8150 220.8875 374.3425 217.6398 374.1525 C175.5853 371.6750 125.0890 366.4550 86.0397 350.0000 C77.7412 346.5025 68.9830 342.2350 62.0455 336.4225 C56.9255 332.1325 52.4413 327.2400 51.9077 320.3175 C51.5925 316.2275 52.3092 312.2175 54.4478 308.6800 C56.5390 305.2200 59.8475 302.5625 63.0135 300.1350 C65.5795 298.1650 68.1890 296.1800 70.9798 294.5375 C87.9283 284.5700 111.8318 278.1325 130.9832 273.8875 C132.3427 273.5850 143.3983 271.5525 143.6340 271.2175 C144.2368 270.3625 143.9165 253.6725 144.0190 251.2000 C144.1237 248.6698 144.3565 246.0807 144.7245 243.5740 C145.4670 238.5165 146.7765 233.5582 148.0130 228.6050 C153.8602 205.1783 162.1358 189.0240 178.0515 170.6740 C195.3660 150.7112 222.5582 138.9657 248.6217 137.1035 Z"></path>
<path id="" fill="#9266cb" fill-opacity="1.0" stroke="#000000" stroke-width="0.0" stroke-opacity="1.0" stroke-linecap="round" stroke-linejoin="round"  filling="0" d="M381.6175 250.7225 C382.6125 256.2400 381.9875 265.5075 381.9300 271.5050 L381.9175 295.8000 C378.8750 298.9575 373.2000 300.8625 369.1800 302.5850 C343.6500 313.5275 316.4400 318.4350 288.8175 320.0725 C285.7475 320.2525 282.6975 320.7650 279.6225 320.8275 C235.1628 321.7375 191.4987 321.2325 149.4200 305.0100 C145.2328 303.3975 133.7787 298.6000 130.8145 296.3250 C130.2270 295.2400 130.1147 294.3050 130.1195 293.0750 C130.1360 288.8425 131.0255 284.5475 131.0643 280.1525 C131.1065 274.0850 131.0930 268.0175 131.0235 261.9525 C130.9948 258.3700 130.7020 254.4450 131.1752 250.8925 C134.2292 251.3525 140.8450 255.2550 142.8158 255.1200 C157.1740 260.9525 171.6020 265.5375 186.8050 268.6525 C202.9442 271.9575 217.9028 273.4600 234.3100 274.3400 C237.2700 274.5000 240.2195 274.8550 243.1823 274.9750 C251.4225 275.3025 259.9025 275.2225 268.1475 274.9575 C271.3100 274.8550 274.4450 274.4275 277.6025 274.2625 C307.7075 272.6950 338.3825 268.3025 366.3325 256.4875 C366.8200 256.2825 367.2650 256.0900 367.7825 255.9775 C371.7000 255.7925 378.8425 250.3800 381.6175 250.7225 Z"></path>
<path id="" fill="#fed883" fill-opacity="1.0" stroke="#000000" stroke-width="0.0" stroke-opacity="1.0" stroke-linecap="round" stroke-linejoin="round"  filling="0" d="M131.1752 250.8925 C131.6552 246.1322 131.7762 241.3367 132.2805 236.5932 C132.7122 232.5332 133.4985 228.4232 134.3820 224.4377 C139.2007 202.7032 153.5335 182.3750 170.5992 168.4402 C178.9210 161.6452 188.7665 155.3898 198.4688 150.7513 C200.3698 149.8425 202.3360 149.1772 204.2533 148.3310 C207.0318 147.1045 209.8568 145.4705 212.9045 145.0448 C212.8495 145.3958 212.9340 145.2705 212.6557 145.4750 C210.0872 147.3622 206.9462 148.3890 204.1475 149.8845 C200.1270 152.0332 196.1230 154.7287 192.4915 157.4783 C168.4560 175.6755 154.3555 201.7030 147.4193 230.6340 C146.4580 234.6432 145.4530 238.7235 144.7955 242.7935 C144.2415 246.2230 144.7032 252.5325 142.8158 255.1200 C140.8450 255.2550 134.2292 251.3525 131.1752 250.8925 Z"></path>
<path id="" fill="#fed983" fill-opacity="1.0" stroke="#000000" stroke-width="0.0" stroke-opacity="1.0" stroke-linecap="round" stroke-linejoin="round"  filling="0" d="M314.9975 153.8920 L314.9000 153.3448 C313.7250 152.2520 312.4175 151.5550 311.0000 150.8325 C310.2575 150.4527 309.3425 150.1120 309.0700 149.2730 C310.1425 149.2040 310.9700 150.2798 312.0750 150.3358 C312.2100 150.3427 312.3450 150.3420 312.4800 150.3450 C318.9000 152.7988 324.7475 156.4500 330.4475 160.2352 C337.6575 165.0240 344.8300 170.3517 350.9875 176.4713 C358.8050 184.2377 367.6825 197.3192 372.1625 207.3515 C376.3825 216.7493 379.0950 226.7535 380.2000 236.9957 C380.6400 241.0972 380.7325 246.9005 381.6175 250.7225 C378.8425 250.3800 371.7000 255.7925 367.7825 255.9775 L368.7425 255.2100 C368.9225 254.8500 368.9550 254.6525 368.9050 254.2475 C367.9200 246.0140 366.7275 237.4698 364.8175 229.4057 C360.0350 209.2065 351.1900 190.2270 337.7375 174.3652 C335.8275 172.1145 333.9275 169.7753 331.8275 167.7003 C326.6175 162.5535 320.7825 158.3228 314.9975 153.8920 Z"></path>
<path id="" fill="#ffd983" fill-opacity="1.0" stroke="#000000" stroke-width="0.0" stroke-opacity="1.0" stroke-linecap="round" stroke-linejoin="round"  filling="0" d="M314.9975 153.8920 C311.2075 151.4937 307.1850 149.3625 303.1575 147.3895 C300.9775 146.3203 297.9800 145.5655 296.1450 144.0505 C297.3950 144.0995 298.9075 144.8990 300.1075 145.3010 C304.4425 146.7560 308.5000 147.9408 312.4800 150.3450 C312.3450 150.3420 312.2100 150.3427 312.0750 150.3358 C310.9700 150.2798 310.1425 149.2040 309.0700 149.2730 C309.3425 150.1120 310.2575 150.4527 311.0000 150.8325 C312.4175 151.5550 313.7250 152.2520 314.9000 153.3448 L314.9975 153.8920 Z"></path>
<path id="" fill="#fefefe" fill-opacity="1.0" stroke="#000000" stroke-width="0.0" stroke-opacity="1.0" stroke-linecap="round" stroke-linejoin="round"  filling="0" d="M255.6425 238.7655 C257.7125 238.9020 259.7350 240.1158 261.1725 241.5607 C268.2150 248.6435 267.1550 261.1225 267.0400 270.2850 C271.8375 263.3650 277.8075 257.4250 285.9525 254.6075 C288.7350 253.6450 292.3100 253.3225 294.9925 254.7475 C296.3700 255.4800 297.2300 256.7050 297.6700 258.1825 C299.0850 262.9350 295.9050 268.9450 293.7625 273.0325 C296.8725 273.1425 306.0425 271.3725 308.0500 272.3275 C303.1900 273.2175 298.3650 273.6450 293.4775 274.2850 C290.3675 277.9575 287.2550 281.5200 283.4375 284.4950 C286.4875 283.9600 289.9475 284.0925 293.0425 284.2250 C298.8325 284.4725 306.9300 286.1575 310.9550 290.7200 C312.9175 292.9425 313.1325 295.0300 313.0025 297.8450 C312.0600 299.6625 310.5425 301.2800 308.9325 302.5350 C304.1825 306.2325 296.2850 307.7125 290.4000 307.6000 C287.9650 307.5525 285.4800 307.1225 283.0650 306.8125 C289.7875 312.8300 295.6550 318.9775 297.7950 328.0575 C298.3225 330.2925 298.5325 332.7125 297.2325 334.7250 C296.1850 336.3475 294.6675 337.5700 292.7500 337.9600 C287.5150 339.0275 279.1375 334.0650 275.3700 330.7400 C272.8600 328.5275 270.5125 325.4150 267.7075 323.6575 C266.9225 324.5050 267.0150 333.1100 266.8100 335.0125 C266.4050 338.7375 265.4375 342.0750 264.0575 345.5500 C263.9675 345.7350 263.8800 345.9200 263.7825 346.1025 C261.7725 349.9250 260.0150 351.7200 255.8575 353.0600 C253.8725 352.2625 252.0750 351.1625 250.5850 349.6150 C244.0087 342.7950 244.9105 331.1875 244.9993 322.4450 C241.5220 326.0575 238.0200 330.1250 233.9420 333.0700 C230.8062 335.3350 223.2462 338.8200 219.4230 338.0850 C217.2315 337.6625 215.2360 334.8325 214.0410 333.0675 C213.8785 331.3025 213.8580 329.7050 214.2388 327.9625 C215.8737 320.4800 222.6825 311.0875 229.1865 306.9050 C226.0310 307.1025 223.1925 307.8000 219.9763 307.5400 C213.3763 307.0050 205.1600 305.7175 200.7135 300.2250 C199.4740 298.6950 198.7750 296.8750 199.0350 294.8925 C199.3600 292.4100 201.0355 290.4825 202.9875 289.0500 C209.8355 284.0275 221.1328 283.3650 229.2533 284.5850 C226.7300 282.7725 224.3922 280.9300 222.2515 278.6675 C218.1915 274.3775 213.6127 266.8225 213.9025 260.6975 C214.0355 257.8800 215.4170 255.8850 217.4540 254.0750 C218.7778 253.8775 220.0260 253.7675 221.3645 253.8650 C232.4028 254.6825 238.3335 261.9650 245.0222 269.6525 C244.8960 261.5400 244.3808 253.3000 248.0260 245.7745 C249.6682 242.3845 252.0400 239.9960 255.6425 238.7655 Z"></path>
<path id="" fill="#ffac33" fill-opacity="1.0" stroke="#000000" stroke-width="0.0" stroke-opacity="1.0" stroke-linecap="round" stroke-linejoin="round"  filling="0" d="M253.1575 273.1150 C265.7525 271.5200 277.2425 280.4825 278.7600 293.0900 C280.2775 305.6975 271.2475 317.1300 258.6325 318.5725 C246.1228 320.0025 234.8062 311.0650 233.3008 298.5650 C231.7953 286.0650 240.6658 274.6950 253.1575 273.1150 Z"></path>
</svg>