<svg xmlns="http://www.w3.org/2000/svg" viewBox="0 0 512 512" height="512.0px" width="512.0px">
<path id="" fill="#292f33" fill-opacity="1.0" stroke="#000000" stroke-width="0.0" stroke-opacity="1.0" stroke-linecap="round" stroke-linejoin="round"  filling="0" d="M209.9512 311.9950 C223.1560 312.4300 236.5977 312.0225 249.8245 312.0225 C266.8625 312.0250 283.9650 312.3275 300.9950 311.9050 C300.8200 315.1300 300.9700 318.3950 300.9875 321.6250 L301.0000 337.3925 L300.9725 392.6175 C301.0925 395.6450 300.9775 398.6775 300.9375 401.7075 C308.9050 402.7350 316.9425 403.1600 324.9200 404.1900 C337.6850 405.8375 350.7625 408.4100 363.6475 408.3500 C374.3875 408.2975 385.4425 404.5900 395.9900 405.1775 C400.1050 405.4050 404.2225 405.7950 408.3325 406.1350 C409.8625 406.2625 411.8800 406.2025 413.3400 406.6050 C413.8950 406.7575 414.2150 407.0600 414.5650 407.4950 C416.6050 410.0175 417.6625 413.9625 418.7300 417.0100 C421.4150 424.6650 423.9650 432.4550 425.6175 440.4075 L428.1650 453.2600 C428.6650 455.8475 429.0200 458.5425 429.8625 461.0425 C424.4225 460.3100 418.3750 460.8050 412.8725 460.8075 L380.1750 460.8225 L268.2375 460.8325 L138.7395 460.8200 L100.9100 460.8200 C95.2150 460.8175 87.5815 460.3150 82.0558 461.0125 C83.6670 452.6700 85.2272 444.2150 87.3692 435.9925 C89.2860 428.6350 91.7572 421.3775 94.3207 414.2225 C94.9320 412.5150 96.3375 407.4700 97.9040 406.5850 C99.2525 405.8250 102.3675 406.2375 103.9770 406.1425 C108.9547 405.8550 114.1017 405.0100 119.0825 405.3375 C122.8010 405.5800 126.5415 406.3075 130.2230 406.8650 C135.8658 407.7200 141.7858 408.4550 147.4980 408.4950 C157.2173 408.5625 167.0060 406.8450 176.6055 405.5225 C187.5587 403.9750 198.5567 402.7650 209.5840 401.8950 C210.5945 398.5475 209.9693 379.4375 209.9655 374.2750 L209.9512 311.9950 Z"></path>
<path id="" fill="#ae7d56" fill-opacity="1.0" stroke="#000000" stroke-width="0.0" stroke-opacity="1.0" stroke-linecap="round" stroke-linejoin="round"  filling="0" d="M209.9512 311.9950 C223.1560 312.4300 236.5977 312.0225 249.8245 312.0225 C266.8625 312.0250 283.9650 312.3275 300.9950 311.9050 C300.8200 315.1300 300.9700 318.3950 300.9875 321.6250 L301.0000 337.3925 L300.9725 392.6175 C300.5250 395.5325 300.7300 398.7725 300.7225 401.7250 C295.2025 400.4025 286.2800 400.2250 280.3800 399.9500 C270.8400 399.5025 261.0875 398.7550 251.5475 399.0950 C242.5225 399.4175 233.3735 399.8300 224.3750 400.5300 C219.4662 400.9125 214.4957 401.7375 209.5840 401.8950 C210.5945 398.5475 209.9693 379.4375 209.9655 374.2750 L209.9512 311.9950 Z"></path>
<path id="" fill="#ae7d56" fill-opacity="1.0" stroke="#000000" stroke-width="0.0" stroke-opacity="1.0" stroke-linecap="round" stroke-linejoin="round"  filling="0" d="M252.5475 85.3530 C255.4925 84.9040 258.8525 85.1663 261.8400 85.3065 C276.1050 85.9755 289.7575 89.0403 302.6600 95.2365 C331.8200 109.0835 354.1075 134.1792 364.4125 164.7715 C366.3125 170.2555 367.6275 176.0202 368.7325 181.7112 C374.3025 210.4393 369.7050 237.3395 356.9250 263.4250 C351.3850 274.7350 345.8500 283.0175 337.8250 292.6725 C335.4100 295.5800 333.0375 298.5875 330.3025 301.2025 C326.4850 304.8525 322.1325 308.1375 317.9950 311.4350 C313.0425 315.3800 306.0400 320.5350 300.0550 322.5875 C299.9075 319.0750 299.9475 315.5825 300.0050 312.0700 L261.8750 312.0525 L210.0550 312.0775 C210.2117 315.8975 210.1053 319.7500 210.1283 323.5750 C203.6420 320.9125 198.0925 317.1225 192.7012 312.6850 C164.0955 289.1325 148.2348 255.1450 144.7663 218.5818 C141.7847 187.1505 152.7173 151.1908 172.9337 126.8745 C175.8913 123.3173 179.0468 119.5208 182.3515 116.3005 C186.1127 112.6357 190.5957 109.2077 194.8675 106.1568 C212.8115 93.3400 230.7077 87.3752 252.5475 85.3530 Z"></path>
<path id="" fill="#bd1931" fill-opacity="1.0" stroke="#000000" stroke-width="0.0" stroke-opacity="1.0" stroke-linecap="round" stroke-linejoin="round"  filling="0" d="M175.3358 349.3950 C190.3525 347.9150 193.4677 353.0025 206.0970 358.4650 C208.9630 359.7050 212.0085 360.4900 214.9057 361.6525 C217.4430 362.6700 219.8707 363.9425 222.4225 364.9300 C229.7320 367.7650 237.8763 370.1600 245.6950 370.8875 C249.2292 371.2175 252.8200 371.1550 256.3650 371.1450 C260.2150 371.1350 264.1825 371.2700 268.0075 370.8225 C274.6875 370.0400 281.6850 368.2725 287.9300 365.8025 C291.0425 364.5725 294.0525 363.0750 297.1350 361.7700 C299.7900 360.6450 302.5525 359.7800 305.1525 358.5200 C311.5700 355.4100 318.0650 351.2575 325.1225 349.7775 C331.5225 348.4375 338.6525 349.8300 345.0425 350.7775 C364.0925 353.6025 383.1475 357.4525 399.4550 368.2850 C407.8250 373.8450 416.0325 380.9925 418.0575 391.3650 C419.5400 398.9525 416.6700 400.8250 412.8225 406.5225 C409.7275 407.7100 406.6400 409.0275 403.3925 409.7350 C395.6050 411.4300 387.3175 411.1150 379.3925 411.0900 C375.3525 411.0775 371.2200 411.1950 367.1975 410.8475 C360.8025 410.2975 354.1550 409.3100 347.8125 408.2775 C339.1900 406.8425 330.4475 405.8850 321.7925 404.6425 C319.2775 404.2825 316.8050 403.6650 314.2875 403.3175 C303.5950 401.8375 292.8525 400.7575 282.0825 400.0825 C277.8475 399.8150 273.5775 400.0575 269.3375 399.8875 C265.7200 399.7400 262.1800 399.0625 258.5425 399.0300 C252.7875 398.9800 247.2202 399.5925 241.4980 399.8575 C233.2145 400.2375 224.9232 400.4825 216.6633 401.3375 C205.0358 402.4525 193.4435 403.9125 181.9023 405.7125 C170.3658 407.4325 158.8833 409.4025 147.2805 410.6900 C144.3880 411.0125 141.4747 411.0275 138.5688 411.1350 C127.2445 411.5550 115.3575 411.5000 104.3980 408.2525 C102.7675 407.7700 100.6480 407.2500 99.3215 406.1375 C96.3897 403.6750 93.6195 400.4275 93.3568 396.4375 C92.8853 389.2825 98.0805 381.4575 102.5172 376.3175 C105.6800 372.6550 109.6315 369.8425 113.6920 367.2600 C128.5222 357.8325 144.2135 354.0575 161.3430 351.3050 C165.9427 350.5650 170.6915 349.7150 175.3358 349.3950 Z"></path>
<path id="" fill="#9b6a49" fill-opacity="1.0" stroke="#000000" stroke-width="0.0" stroke-opacity="1.0" stroke-linecap="round" stroke-linejoin="round"  filling="0" d="M295.6300 326.7650 C295.9250 326.7925 296.0975 326.7950 296.3925 326.9000 C296.9400 327.0975 297.2575 327.5275 297.5025 328.0175 C297.4175 328.8350 297.0800 329.3650 296.5750 329.9925 C293.2575 334.1150 286.1100 338.3500 281.1300 339.9000 C278.5450 340.7050 275.8400 341.0525 273.2200 341.7250 C269.3100 342.7300 265.6975 343.8475 261.6475 344.1975 C261.1550 343.9800 261.1400 343.9525 260.8650 343.4850 C260.7000 341.8475 261.1900 339.7225 261.8400 338.2125 C262.1300 337.5400 262.3025 337.2350 262.9775 336.9475 C264.0775 337.0075 265.0275 337.4875 266.0325 337.9100 C270.7800 336.8950 275.0475 335.1350 279.6125 333.5650 C282.6200 332.5325 285.7800 331.6700 288.6925 330.3925 C291.0900 329.3425 293.1500 327.6475 295.6300 326.7650 Z"></path>
<path id="" fill="#9b6a49" fill-opacity="1.0" stroke="#000000" stroke-width="0.0" stroke-opacity="1.0" stroke-linecap="round" stroke-linejoin="round"  filling="0" d="M216.8570 329.8575 C217.1658 329.8500 217.4685 329.8575 217.7760 329.8925 C220.6517 330.2275 233.3915 334.6325 236.2453 336.0250 C237.4560 336.6150 238.9328 337.4375 239.7290 338.5475 C240.5060 339.6300 240.2810 341.0725 240.0983 342.3000 L237.9263 342.1800 C232.8630 341.8900 220.9705 337.0625 217.7260 333.1550 C216.8095 332.0500 216.7280 331.2525 216.8570 329.8575 Z"></path>
<path id="" fill="#60352a" fill-opacity="1.0" stroke="#000000" stroke-width="0.0" stroke-opacity="1.0" stroke-linecap="round" stroke-linejoin="round"  filling="0" d="M310.9625 53.6718 C317.0175 54.8152 328.3550 62.8723 332.8975 67.2693 C338.9800 73.1562 342.6400 80.0683 342.8075 88.6202 C359.4550 88.7395 378.6650 94.5058 391.5675 105.2205 C395.3825 108.3890 403.8575 118.8022 404.1350 123.7507 C404.1675 124.2978 404.1525 124.2770 403.7575 124.6942 C392.8100 116.8062 382.0350 113.8900 368.6050 113.4015 C370.1250 116.3668 372.8750 118.9447 375.0100 121.5030 C379.3550 126.7045 382.8400 133.1812 385.6625 139.3223 C398.1925 166.5705 400.4800 197.7675 397.7125 227.2993 C396.1775 243.4247 393.3575 259.4025 389.2775 275.0775 C388.6600 277.3800 387.7300 282.3075 385.9275 283.8025 L385.5850 283.6350 C384.1800 279.0500 382.0400 274.2150 379.2675 270.3050 C377.9200 268.4050 376.3400 266.7000 375.0200 264.7725 C370.4525 280.3400 365.6675 293.4225 355.6725 306.4825 C353.4425 309.3950 351.2350 312.2375 348.6525 314.8575 C345.2100 318.3500 341.4125 321.1875 337.7900 324.4450 C334.7425 320.7525 331.5100 317.1950 328.2700 313.6725 C325.9625 311.1675 322.6525 308.3900 321.0350 305.4225 C321.2650 304.4175 323.3650 303.1750 324.1875 302.3225 C325.7425 300.7075 327.1750 298.9225 328.5550 297.1525 C333.1925 291.2125 337.1775 284.5575 340.5650 277.8350 C345.6850 267.6650 346.6375 263.1775 345.6725 251.9150 C345.4500 249.3225 345.3275 246.3853 344.6275 243.8845 C343.4900 239.8152 334.9900 230.8228 331.9775 226.5360 C327.7200 220.4785 323.5550 214.1263 320.1025 207.5692 C318.6350 204.7835 317.3475 201.8920 315.9400 199.0730 C310.9225 189.0228 306.1000 178.8858 302.2950 168.2985 C298.7000 158.3033 296.0125 148.0697 292.6950 137.9973 C284.6975 138.8550 276.8425 139.4052 268.9900 141.3185 C248.9850 146.1915 230.1633 157.3257 217.5298 173.7650 C211.5400 181.5592 206.8550 190.0307 201.7657 198.4000 C196.7240 207.1263 190.8053 217.1725 184.4948 225.0165 C179.6060 231.0932 172.9210 237.1767 168.8822 243.6642 C167.1990 246.3680 161.9885 258.7575 162.0587 261.5925 C162.1405 264.8800 164.4342 268.6300 165.8253 271.5450 C167.1758 274.3750 168.2980 277.3250 169.7510 280.1050 C174.1743 288.5625 179.8418 296.3000 186.0038 303.5450 C187.4410 305.2325 192.6390 310.3875 193.0412 312.1600 C190.3970 317.2800 174.1703 332.1675 168.9760 336.7100 L168.7610 336.4900 C162.0435 329.5850 156.2103 321.5300 150.9785 313.4600 C134.6595 288.2875 123.8167 260.3450 120.4512 230.4377 C119.7435 224.1472 119.2075 217.7303 119.3262 211.3945 C119.9043 180.5542 131.5013 148.7912 151.3595 125.1260 C153.4803 122.5988 155.7230 119.9830 158.1028 117.6957 C160.7130 115.1870 163.5157 112.8960 166.1285 110.3785 L165.9503 110.1373 C164.1520 109.7842 162.1685 109.9597 160.3395 109.9795 C151.3075 110.0762 142.5757 111.5592 134.3330 115.4595 C131.7702 116.6722 126.7790 120.8027 124.2022 120.7970 L123.8528 120.4460 C123.8568 120.1950 123.8457 120.1062 123.8878 119.8750 C124.4212 116.9417 130.3143 110.9633 132.5058 108.7312 C153.2863 87.5667 180.9380 78.8983 209.7487 75.6537 C212.6110 75.3315 215.4503 75.0938 218.3320 75.0250 C221.0690 74.9597 238.2352 75.4763 239.0880 74.9160 L239.3073 73.7462 L239.8322 73.4677 L239.9243 73.1130 C238.9857 71.7947 236.9040 70.9495 235.4725 70.2623 C233.0347 69.0920 230.5838 67.9320 227.9857 67.1615 C226.1740 66.6240 224.3177 66.1375 222.4685 65.7530 C219.7128 65.1800 215.0865 65.2227 212.9108 63.4478 L212.9575 63.0508 C215.7843 61.7227 220.1763 61.7742 223.3268 61.4785 C228.3557 61.0063 233.4300 61.0105 238.4783 61.0090 C258.2675 61.0027 277.6350 63.5130 296.4200 69.9090 C301.1275 71.5115 306.1450 73.2128 310.5825 75.4315 C314.2525 77.2675 317.7100 79.8142 321.5950 81.1663 L321.9325 81.2825 C321.4025 73.5795 318.4300 66.5468 313.9825 60.2888 C313.0175 58.9337 310.9000 56.6552 310.5075 55.1057 C310.3500 54.4750 310.6500 54.1715 310.9625 53.6718 Z"></path>
<path id="" fill="#98a9b4" fill-opacity="1.0" stroke="#000000" stroke-width="0.0" stroke-opacity="1.0" stroke-linecap="round" stroke-linejoin="round"  filling="0" d="M161.9210 424.9250 C165.1710 425.2350 168.4252 426.2400 171.5918 427.0250 L185.7298 430.5050 L238.7592 443.5975 C243.6463 444.7725 252.3675 447.7075 257.0675 447.6225 C259.8875 447.5725 262.8325 446.5475 265.5600 445.8700 L281.7425 441.7175 L325.7750 430.6700 C333.5525 428.7400 341.3275 426.6775 349.1525 424.9725 C348.3275 428.6075 347.3225 432.2075 346.4500 435.8325 C343.7325 444.0550 343.1625 452.6625 341.1400 461.0125 L172.8663 461.0400 C171.1945 453.8075 170.0875 446.1975 167.6048 439.1850 C166.1940 435.2025 162.0105 428.7325 161.9210 424.9250 Z"></path>
<path id="" fill="#99a9b4" fill-opacity="1.0" stroke="#000000" stroke-width="0.0" stroke-opacity="1.0" stroke-linecap="round" stroke-linejoin="round"  filling="0" d="M374.1450 356.9775 C375.6525 357.4875 377.0875 357.9550 378.6650 358.1925 C380.6550 358.4975 382.5975 359.0400 384.4575 359.8100 C389.4575 362.0350 394.9475 364.5500 399.3050 367.8775 C401.8950 369.0200 406.9950 373.1625 408.8375 375.3650 C408.8775 376.9175 409.3075 379.8775 408.3475 381.1325 C407.9900 381.6000 407.4950 381.7375 406.9300 381.8225 C405.0975 382.0975 403.1025 381.9725 401.2525 381.9700 C397.9450 381.9625 394.5050 382.0275 391.2125 381.6600 C388.4675 381.3525 385.7500 380.7100 383.0175 380.3025 C377.4300 379.4725 369.6825 379.1275 365.1150 375.3950 C364.4575 374.8575 363.9275 374.2525 363.8800 373.3650 C363.7250 370.5300 367.2450 367.4300 369.0775 365.5075 C371.9125 361.6175 373.6650 362.3825 374.1450 356.9775 Z"></path>
<path id="" fill="rgb(207,212,209)" fill-opacity="1.0" stroke="#000000" stroke-width="0.0" stroke-opacity="1.0" stroke-linecap="round" stroke-linejoin="round"  filling="0" d="M399.3050 367.8775 L398.9850 368.3925 C397.7975 368.4975 385.5675 361.7775 384.2950 360.7000 C383.8775 360.3475 384.0000 360.5525 383.9500 359.9800 L384.4575 359.8100 C389.4575 362.0350 394.9475 364.5500 399.3050 367.8775 Z"></path>
<path id="" fill="#99aab5" fill-opacity="1.0" stroke="#000000" stroke-width="0.0" stroke-opacity="1.0" stroke-linecap="round" stroke-linejoin="round"  filling="0" d="M374.1450 356.9775 C375.6525 357.4875 377.0875 357.9550 378.6650 358.1925 C377.7425 359.3825 370.6200 364.7125 369.0775 365.5075 C371.9125 361.6175 373.6650 362.3825 374.1450 356.9775 Z"></path>
<path id="" fill="#bd1931" fill-opacity="1.0" stroke="#000000" stroke-width="0.0" stroke-opacity="1.0" stroke-linecap="round" stroke-linejoin="round"  filling="0" d="M223.9718 168.5100 C224.3522 168.7798 224.2153 168.7575 224.6065 168.8103 C230.1610 169.5578 235.9978 170.7595 241.4657 172.0217 C245.0805 172.8562 251.8250 174.8245 255.3550 174.8255 C257.3700 174.8262 259.7175 174.2422 261.7150 173.8958 C268.4175 172.7328 275.0025 171.0840 281.6725 169.7982 C287.3900 168.6967 293.1425 167.5600 298.8825 166.5870 C303.0875 165.8740 307.3150 165.3620 311.4700 164.3755 C313.1850 163.9685 316.6050 163.3000 317.8475 161.9982 C321.7725 157.8822 327.3550 141.3533 330.4700 139.6853 C331.7300 139.7760 332.9450 140.6953 333.8950 141.4715 C337.2575 144.2222 340.2900 147.7715 343.3700 150.8582 C347.3100 154.8073 351.5150 158.6245 355.2200 162.7903 C353.2125 171.2120 343.4375 194.3280 344.0225 200.7812 C344.2950 203.7760 346.4025 207.0790 347.7875 209.6870 C349.7900 213.4555 354.0525 220.2702 354.1625 224.4877 C354.1925 225.6745 353.8100 226.4930 353.0800 227.4055 C351.3900 229.5190 349.1775 231.3455 347.2850 233.2895 C345.4975 235.1280 343.9250 237.1975 342.0400 238.9360 C338.7950 241.9260 335.0875 244.8438 332.3500 248.3115 C328.6600 252.9850 326.2775 258.4450 323.6600 263.7500 C322.3875 266.3250 320.4100 271.6750 318.6375 273.5900 C317.6650 273.4100 316.9275 272.1575 316.3875 271.3850 C312.2600 265.4775 309.6225 255.5475 305.2475 250.6100 C301.8400 246.7620 271.5850 233.1375 265.0450 229.9225 C262.4075 228.6263 259.9700 226.7780 257.2275 225.7320 C257.1425 225.6990 257.0550 225.6690 256.9675 225.6375 C252.6125 226.5405 247.8940 229.5867 243.9142 231.5815 L225.5668 240.7750 C220.5338 243.2948 215.2945 245.5560 210.3470 248.2195 C209.1425 248.8680 207.5790 249.6862 206.6467 250.6850 C204.5640 252.9200 203.2043 256.5675 201.8745 259.2725 C199.3667 264.3725 197.0700 269.6050 193.8423 274.3000 C188.1965 265.8775 185.6792 255.6850 179.2097 247.7988 C175.8380 243.6888 159.2247 228.8992 158.1095 225.9860 C156.6380 222.1420 161.8652 214.7968 163.5615 211.3015 C165.0737 208.1853 167.6250 204.1528 168.0835 200.7385 C168.7007 196.1390 159.0040 170.4783 156.8150 164.1438 C157.4133 162.8100 158.1040 161.7370 159.0515 160.6315 C161.1788 158.1495 177.7558 141.1440 179.9052 140.1487 C180.5965 139.8288 181.7798 139.6355 182.4662 140.0605 C182.8745 140.3132 183.2150 141.0060 183.4350 141.4145 C184.5750 143.5332 185.4223 145.8120 186.5385 147.9487 C188.5445 151.7892 190.7988 155.5473 192.6375 159.4685 C193.1195 160.4967 193.4840 161.5742 193.8285 162.6548 C201.0525 164.5235 212.6735 167.0220 219.9445 167.0365 C221.0137 166.6138 222.2198 165.9540 223.3837 166.0432 C223.8517 166.3920 223.9870 166.4680 224.0560 167.1000 C224.1035 167.5380 224.0110 168.0683 223.9718 168.5100 Z"></path>
<path id="" fill="#af7e57" fill-opacity="1.0" stroke="#000000" stroke-width="0.0" stroke-opacity="1.0" stroke-linecap="round" stroke-linejoin="round"  filling="0" d="M219.9445 167.0365 C221.0137 166.6138 222.2198 165.9540 223.3837 166.0432 C223.8517 166.3920 223.9870 166.4680 224.0560 167.1000 C224.1035 167.5380 224.0110 168.0683 223.9718 168.5100 L223.5030 168.6625 C222.2355 168.4795 220.7567 168.0930 219.9445 167.0365 Z"></path>
<path id="" fill="#99a9b4" fill-opacity="1.0" stroke="#000000" stroke-width="0.0" stroke-opacity="1.0" stroke-linecap="round" stroke-linejoin="round"  filling="0" d="M349.7325 339.7400 C350.9450 339.7525 351.7475 340.0475 352.6775 340.8325 C354.6325 342.4750 361.2400 353.5400 362.0175 355.9875 C362.9100 358.7950 362.9850 362.0000 363.2175 364.9275 C358.1625 365.1025 353.8475 366.5800 348.6900 365.5650 C344.8175 364.2975 340.2500 365.0800 336.4750 363.4875 C335.4025 363.0325 334.5550 362.2500 334.1650 361.1350 C333.3525 358.8150 334.5375 356.2125 335.5575 354.1450 C336.0975 353.0525 336.6925 351.9200 337.4300 350.9475 C338.3575 349.7250 339.5925 348.6925 340.6325 347.5600 C342.6450 345.3650 344.4450 342.8400 346.8525 341.0500 C347.7150 340.4100 348.7275 340.0825 349.7325 339.7400 Z"></path>
<path id="" fill="#99a9b4" fill-opacity="1.0" stroke="#000000" stroke-width="0.0" stroke-opacity="1.0" stroke-linecap="round" stroke-linejoin="round"  filling="0" d="M161.3820 339.7050 C168.0595 340.2100 170.6075 348.5275 173.5052 349.9025 C175.1888 350.7000 176.6050 355.1900 177.2903 356.9650 C177.8197 358.3375 178.4525 360.1700 177.8203 361.5825 C175.0200 364.4850 168.6313 364.6400 164.8140 365.1800 C161.3190 365.9725 154.6330 366.5950 151.1933 365.8575 C150.3770 365.6825 149.7263 365.2825 149.3132 364.5350 C148.1947 362.5125 149.3865 357.7475 150.0793 355.6150 C150.7395 353.5825 151.9948 351.9450 153.0903 350.1400 C155.3517 346.4125 157.3338 341.8050 161.3820 339.7050 Z"></path>
<path id="" fill="#98a9b4" fill-opacity="1.0" stroke="#000000" stroke-width="0.0" stroke-opacity="1.0" stroke-linecap="round" stroke-linejoin="round"  filling="0" d="M255.7025 411.0050 C258.4150 411.5100 277.9825 421.3800 280.3675 423.3000 C280.1325 426.1575 268.4275 443.2300 266.1175 445.6675 C264.1600 447.7275 259.4000 447.9075 256.6975 448.0350 C252.6900 448.1000 249.2798 447.1900 245.6283 445.5950 C242.7750 441.7825 232.7533 427.4250 231.6660 423.5625 C236.0123 420.4800 241.2580 418.3275 246.0388 415.9850 C249.2975 414.3900 252.4500 412.6075 255.7025 411.0050 Z"></path>
<path id="" fill="#99a9b4" fill-opacity="1.0" stroke="#000000" stroke-width="0.0" stroke-opacity="1.0" stroke-linecap="round" stroke-linejoin="round"  filling="0" d="M121.2422 344.6900 C126.0540 345.7450 130.1602 349.6700 133.4783 353.1400 C134.4665 354.1725 135.6115 355.7575 136.7600 356.5675 C137.1405 356.8375 137.7263 356.7675 138.1523 356.7100 C138.9250 357.3600 138.7920 358.9225 139.4052 359.8425 C141.6272 363.1750 147.4178 369.4200 147.8825 373.3350 C147.9707 374.0775 147.7500 374.6375 147.2812 375.2075 C143.7027 379.5450 126.7925 381.4500 121.0085 381.8175 C116.2290 382.1200 111.2770 382.1475 106.5013 381.8075 C105.8467 381.2600 105.1580 380.7325 104.5910 380.0950 L101.5762 377.0025 C102.3248 375.6875 103.1082 374.6275 104.1725 373.5550 C106.6353 370.4375 107.4212 366.0775 108.7085 362.3675 C110.7130 356.5925 114.8930 346.4050 121.2422 344.6900 Z"></path>
<path id="" fill="#bd2037" fill-opacity="1.0" stroke="#000000" stroke-width="0.0" stroke-opacity="1.0" stroke-linecap="round" stroke-linejoin="round"  filling="0" d="M104.1725 373.5550 L104.9488 373.6450 C105.5858 374.8350 104.5735 378.5300 104.5910 380.0950 L101.5762 377.0025 C102.3248 375.6875 103.1082 374.6275 104.1725 373.5550 Z"></path>
<path id="" fill="#915a34" fill-opacity="1.0" stroke="#000000" stroke-width="0.0" stroke-opacity="1.0" stroke-linecap="round" stroke-linejoin="round"  filling="0" d="M293.4175 281.7900 C293.9750 281.7650 294.5850 281.6975 295.1400 281.7450 C295.5575 281.7825 295.8375 281.7925 296.0475 282.1700 C296.6575 283.2575 296.0625 284.8800 295.6950 285.9775 C293.4525 292.6625 289.0950 300.6700 282.4950 303.8875 C281.2075 304.5150 279.9225 304.9150 278.4900 305.0250 C275.6000 305.2425 272.6100 305.0925 269.7100 305.0875 L253.9975 305.0700 C244.5013 305.0650 234.7545 305.5500 225.2858 304.9900 C224.2708 304.9300 223.3517 304.7375 222.3862 304.4100 C222.2750 304.3350 222.1642 304.2575 222.0520 304.1825 C221.4247 303.7650 220.8887 303.3925 220.4052 302.8000 C219.3143 301.4650 218.6268 299.8575 218.8443 298.1100 C219.1432 295.7100 220.8870 294.3650 222.6922 293.0300 C236.9360 292.2000 251.3575 294.1950 265.4550 291.0700 C271.3425 289.7650 277.2050 287.8375 282.8325 285.6950 C286.2025 284.4125 289.5750 282.8225 293.0575 281.8850 L293.4175 281.7900 Z"></path>
<path id="" fill="#000000" fill-opacity="1.0" stroke="#000000" stroke-width="0.0" stroke-opacity="1.0" stroke-linecap="round" stroke-linejoin="round"  filling="0" d="M292.3750 202.0573 C297.1950 201.8002 306.2200 201.1497 310.2275 203.5567 C312.5650 204.9460 314.2425 207.2202 314.8775 209.8635 C315.5400 212.6348 315.2025 215.7352 313.6700 218.1660 C312.0300 220.7670 309.5450 222.1828 306.6250 222.9110 C302.1075 223.3593 293.8300 223.9765 289.6825 222.2648 C287.2850 221.2530 285.4100 219.3015 284.4925 216.8667 C283.4825 214.1882 283.5600 210.2050 284.7850 207.6228 C286.2825 204.4657 289.2525 203.0932 292.3750 202.0573 Z"></path>
<path id="" fill="#000000" fill-opacity="1.0" stroke="#000000" stroke-width="0.0" stroke-opacity="1.0" stroke-linecap="round" stroke-linejoin="round"  filling="0" d="M205.6790 202.0358 C210.9130 201.8480 219.3367 200.9900 223.7598 203.7982 C225.9252 205.1732 227.4128 207.1975 227.9668 209.7097 C228.6232 212.6870 228.3302 216.1138 226.5468 218.6532 C224.7982 221.1430 222.2550 222.4942 219.3062 222.9505 C214.4145 223.2910 207.4530 224.1413 202.9597 222.0907 C200.3902 220.9185 198.3253 218.8465 197.4205 216.1413 C196.4908 213.3602 196.6703 209.8960 198.1033 207.3130 C199.7693 204.3100 202.5070 202.9220 205.6790 202.0358 Z"></path>
<path id="" fill="#99aab5" fill-opacity="1.0" stroke="#000000" stroke-width="0.0" stroke-opacity="1.0" stroke-linecap="round" stroke-linejoin="round"  filling="0" d="M390.1950 344.7600 C391.2150 344.6950 392.0675 344.9400 392.9275 345.4900 C398.3450 348.9500 404.6650 364.3100 405.9850 370.6050 C406.1225 371.2550 406.1700 371.5050 405.8100 372.0675 C403.6700 372.6700 396.0950 367.5450 393.6650 366.3850 C390.8450 364.9175 384.0200 360.0875 381.2500 360.0050 C379.9350 359.9650 378.5275 360.5375 377.3075 360.9550 C376.1175 361.3625 374.4300 362.1550 373.1625 361.9300 C373.1200 361.7675 373.0600 361.6125 373.0350 361.4475 C372.8400 360.2850 372.7725 357.2475 373.4925 356.4000 C374.2525 356.3075 375.0600 356.2825 375.6375 355.7175 C379.8000 351.6525 384.4175 346.3425 390.1950 344.7600 Z"></path>
<path id="" fill="#915a34" fill-opacity="1.0" stroke="#000000" stroke-width="0.0" stroke-opacity="1.0" stroke-linecap="round" stroke-linejoin="round"  filling="0" d="M244.3793 256.0525 C247.6732 255.8750 266.1275 255.3500 268.0325 256.5450 C270.1250 257.8600 270.8350 260.4000 271.4125 262.6450 C271.1400 263.6775 270.8975 264.7625 270.3500 265.6900 C269.4775 267.1650 268.2450 267.5900 266.6575 267.9950 C263.6475 268.1475 244.4702 268.4325 242.7583 267.7900 C241.6832 267.3875 240.8578 266.6175 240.3930 265.5650 C239.7993 264.2200 239.3745 259.8375 240.1228 258.4450 C240.9610 256.8850 242.8135 256.5050 244.3793 256.0525 Z"></path>
<path id="" fill="#292f33" fill-opacity="1.0" stroke="#000000" stroke-width="0.0" stroke-opacity="1.0" stroke-linecap="round" stroke-linejoin="round"  filling="0" d="M342.2775 443.6975 C342.9425 443.8200 343.4700 443.7950 343.9850 444.2550 C344.1650 447.4775 342.3475 457.0000 341.5125 460.3625 L341.3700 460.1450 L341.3925 460.6375 C339.4975 461.5375 335.3650 460.9800 333.1875 460.9425 C332.7675 460.9425 332.5475 460.8650 332.1575 460.7300 C331.8275 460.1700 331.7700 459.8800 331.8800 459.2275 C332.3025 456.7725 340.2750 445.0900 342.2775 443.6975 Z"></path>
<path id="" fill="#292f33" fill-opacity="1.0" stroke="#000000" stroke-width="0.0" stroke-opacity="1.0" stroke-linecap="round" stroke-linejoin="round"  filling="0" d="M169.9745 446.8550 L170.2267 446.8600 C171.8392 446.9125 172.4557 447.3950 173.5150 448.5525 C176.0163 451.2900 180.4720 457.3050 180.2478 461.0600 C177.5645 460.8100 174.7108 460.8900 172.0245 461.0500 C171.8995 456.4050 169.8528 450.4450 169.9745 446.8550 Z"></path>
<path id="" fill="#98a9b3" fill-opacity="1.0" stroke="#000000" stroke-width="0.0" stroke-opacity="1.0" stroke-linecap="round" stroke-linejoin="round"  filling="0" d="M352.5850 424.0650 L353.6575 424.1025 L354.0500 424.5375 C354.0800 424.8925 354.0975 424.9150 354.0375 425.3200 C353.7275 427.3825 350.2375 431.9075 348.6300 433.2700 C348.1700 433.2600 347.9475 433.1850 347.5475 432.9575 C346.5200 430.8725 346.9450 427.7225 346.9850 425.4275 C348.8450 424.8975 350.6825 424.4275 352.5850 424.0650 Z"></path>
<path id="" fill="#97a8b3" fill-opacity="1.0" stroke="#000000" stroke-width="0.0" stroke-opacity="1.0" stroke-linecap="round" stroke-linejoin="round"  filling="0" d="M158.0193 423.9575 C159.4670 424.0025 161.3932 424.1225 162.3690 425.3625 C163.4175 426.6950 162.9810 428.6025 162.7630 430.1400 C162.6902 430.1300 162.6175 430.1200 162.5448 430.1150 C161.2880 429.9850 160.7155 429.6075 159.8490 428.6900 C158.6147 427.3875 157.9317 425.7475 158.0193 423.9575 Z"></path>
<path id="" fill="#be1b33" fill-opacity="1.0" stroke="#000000" stroke-width="0.0" stroke-opacity="1.0" stroke-linecap="round" stroke-linejoin="round"  filling="0" d="M407.0850 374.6075 C407.5350 374.7325 407.5800 374.7300 407.9950 374.9025 C409.3150 375.4525 410.8250 376.9650 411.3725 378.2950 C411.1575 378.8450 411.1850 378.7175 410.6950 378.9425 C410.0425 379.1100 409.0975 379.4350 408.4225 379.3575 C407.7150 379.2750 407.4275 378.9975 406.9825 378.4800 C406.5025 377.2600 406.7675 375.8450 407.0850 374.6075 Z"></path>
</svg>