<svg xmlns="http://www.w3.org/2000/svg" viewBox="0 0 512 512" height="512.0px" width="512.0px">
<path id="" fill="#636b77" fill-opacity="1.0" stroke="#000000" stroke-width="0.0" stroke-opacity="1.0" stroke-linecap="round" stroke-linejoin="round"  filling="0" d="M410.3550 386.2275 C403.2250 386.4200 396.1200 386.5925 388.9850 386.6175 C384.2250 386.6325 379.3000 386.8200 374.6050 385.9325 C370.8800 385.2300 367.1075 383.8350 363.8050 381.9750 C356.9925 378.1775 351.9975 371.7925 349.9525 364.2650 C348.2575 357.9025 348.9925 350.4600 348.9775 343.9100 L348.7550 321.9950 L348.3400 267.6925 C348.3275 258.8850 347.9175 249.8540 348.5100 241.0770 C348.6400 239.1617 348.8425 237.1700 349.8675 235.4960 C350.5250 234.4193 352.0275 232.7000 353.3075 232.4597 C353.4100 232.4402 353.5150 232.4283 353.6200 232.4108 C357.6525 231.7323 361.7575 231.9215 365.8325 231.9267 L380.7725 231.9458 L434.3300 231.9425 C439.5950 232.0245 455.1700 230.7632 458.6550 234.2190 C459.8050 235.3575 460.7175 237.1535 460.9125 238.7620 C461.4725 243.3655 461.0500 248.4575 461.0375 253.1025 L461.0275 280.5975 L461.0250 332.0450 C461.0250 340.2275 461.2950 348.4825 461.0575 356.6575 C460.8100 365.0650 457.7275 373.1175 451.5500 378.8950 C443.3875 386.5325 433.7725 386.0600 423.4150 386.1050 C419.0750 386.1225 414.6875 386.3125 410.3550 386.2275 Z"></path>
<path id="" fill="#373d4c" fill-opacity="1.0" stroke="#000000" stroke-width="0.0" stroke-opacity="1.0" stroke-linecap="round" stroke-linejoin="round"  filling="0" d="M434.3300 231.9425 C439.5950 232.0245 455.1700 230.7632 458.6550 234.2190 C459.8050 235.3575 460.7175 237.1535 460.9125 238.7620 C461.4725 243.3655 461.0500 248.4575 461.0375 253.1025 L461.0275 280.5975 L461.0250 332.0450 C461.0250 340.2275 461.2950 348.4825 461.0575 356.6575 C460.8100 365.0650 457.7275 373.1175 451.5500 378.8950 C443.3875 386.5325 433.7725 386.0600 423.4150 386.1050 C419.0750 386.1225 414.6875 386.3125 410.3550 386.2275 C413.7750 385.3575 417.3775 385.6050 420.8775 385.6275 C420.5725 385.3575 420.1725 385.0600 419.9275 384.7400 C419.4800 384.1525 419.8725 382.9825 419.8900 382.2650 C419.9050 381.5700 419.7125 381.3225 419.2725 380.8175 C417.1975 381.5550 415.4425 383.0050 413.3625 383.7850 L413.1050 383.6550 C415.3000 382.4675 417.6200 381.3325 419.6800 379.9275 C426.1800 375.4975 430.8075 368.5400 432.8175 360.9700 C434.9550 352.9250 434.0750 341.1825 434.0875 332.6875 L434.0350 260.7425 L434.0325 242.6497 C434.0325 239.1750 433.7225 235.3610 434.3300 231.9425 Z"></path>
<path id="" fill="#afd182" fill-opacity="1.0" stroke="#000000" stroke-width="0.0" stroke-opacity="1.0" stroke-linecap="round" stroke-linejoin="round"  filling="0" d="M265.2450 254.0700 C269.1600 253.6675 273.3175 254.1700 276.9975 255.5750 C281.0500 257.1225 284.9700 259.9900 288.2475 262.7825 C294.6125 268.2025 300.3150 274.7675 305.8150 281.0325 C307.6275 283.0975 309.6625 284.9600 311.4625 287.0375 C313.3275 289.1925 314.9675 291.5575 316.7650 293.7725 C320.8000 298.7475 324.8625 303.6475 328.6875 308.7900 C334.1475 316.1300 338.8150 323.8800 344.7800 330.8650 C346.1975 332.5250 347.8475 333.9300 349.2850 335.5525 C350.3150 336.7150 350.9650 338.1550 351.9925 339.3350 C362.2825 351.1500 373.1075 362.5700 385.4150 372.3125 C388.7850 374.9800 392.4475 377.2650 396.1825 379.3825 C398.0025 380.4125 400.0275 381.3500 401.7350 382.5450 C402.4425 383.0400 402.8200 383.4925 403.1750 384.2725 C403.1675 384.9625 403.1750 385.0125 402.7750 385.5675 C401.1575 386.3850 386.6825 386.5000 383.6925 386.5275 C376.4800 386.5975 369.2500 386.0150 362.0175 386.0125 L264.6250 386.0100 L164.7408 386.0100 L137.8867 386.0125 C134.6245 386.0125 129.3505 386.4375 126.3897 385.9425 C126.0485 385.6175 125.9185 385.6075 125.8423 385.1100 C125.5447 383.1575 128.5838 382.2025 130.0225 381.5175 C132.9572 380.1200 136.1510 379.2575 139.1107 377.8975 C148.9210 373.3850 158.6295 367.6475 167.0482 360.8725 C183.4523 347.6675 198.6237 331.4500 209.8865 313.5800 C214.8087 305.7700 219.0400 297.5600 223.8720 289.7100 C226.7500 285.0350 229.9738 280.5475 233.2055 276.1100 C240.6263 265.9250 252.5050 256.0725 265.2450 254.0700 Z"></path>
<path id="" fill="#dce8c4" fill-opacity="1.0" stroke="#000000" stroke-width="0.0" stroke-opacity="1.0" stroke-linecap="round" stroke-linejoin="round"  filling="0" d="M366.3000 125.7198 C366.9625 125.7260 367.6250 125.7420 368.2400 126.0255 C370.3700 127.0070 371.3775 129.3640 372.1850 131.4173 C369.8025 137.5865 365.9400 142.9055 364.4950 149.5013 C361.3825 163.7145 376.8450 169.8808 374.6875 185.6300 C373.9500 191.0185 371.3925 200.3175 368.4075 204.8565 C367.5550 206.1495 366.5700 207.0822 365.3450 208.0095 C364.6525 208.2235 364.1675 208.2995 363.4475 208.1537 C361.9850 207.8575 360.5425 206.8797 359.7575 205.6080 C357.3125 201.6532 362.2550 194.0510 363.3050 189.8395 C363.8550 187.6320 364.0050 185.3118 363.9850 183.0435 C363.9225 175.7652 361.0600 173.2055 357.5925 167.3717 C353.6400 160.7173 353.1275 151.5757 355.1900 144.2247 C355.7400 142.2650 356.8175 140.4065 357.6450 138.5468 C359.8325 133.6285 361.2950 128.5562 366.3000 125.7198 Z"></path>
<path id="" fill="#dce8c4" fill-opacity="1.0" stroke="#000000" stroke-width="0.0" stroke-opacity="1.0" stroke-linecap="round" stroke-linejoin="round"  filling="0" d="M403.4150 126.8083 C404.9750 126.7330 406.4975 126.6267 407.8775 127.4698 C409.3350 128.3602 409.8475 129.9277 409.7100 131.5737 C409.4675 134.5063 407.3300 137.9113 406.1200 140.5813 C404.5025 144.1555 402.9225 148.0570 402.3450 151.9597 C401.0200 160.9563 410.3750 168.0825 412.3375 177.2448 C414.0850 185.4095 411.8275 192.0717 408.8450 199.5925 C408.0175 201.6765 407.3275 204.0598 406.0375 205.9108 C405.4100 206.8100 404.9350 206.8607 403.9225 207.0323 C402.0425 207.0540 400.1900 206.9993 398.3125 206.8882 C397.7850 205.9050 397.1850 204.8622 397.1375 203.7213 C396.9100 198.2750 402.8750 190.0742 402.7725 183.3862 C402.6450 174.9260 395.9600 169.3987 393.5025 161.7753 C389.6850 149.9370 394.0325 141.3740 399.4625 130.9625 C400.4050 129.1570 401.3775 127.4465 403.4150 126.8083 Z"></path>
<path id="" fill="#a7dd68" fill-opacity="1.0" stroke="#000000" stroke-width="0.0" stroke-opacity="1.0" stroke-linecap="round" stroke-linejoin="round"  filling="0" d="M131.2865 307.0200 C124.5462 298.8625 121.2728 288.3875 122.1690 277.8450 C123.8135 258.6325 138.5412 234.1780 150.3810 219.1687 C153.7575 214.8882 157.4235 210.3472 161.6272 206.8410 C162.2693 206.3055 162.8105 205.9518 163.6517 205.8257 C165.8460 206.4158 167.2060 208.6427 168.2875 210.5065 C178.2245 227.6333 179.9718 252.9575 174.8472 271.8575 C171.6223 283.7525 166.0040 293.6575 157.2825 302.3775 C154.3915 305.2675 151.6503 307.8225 148.0745 309.8475 C145.7583 311.1600 143.3793 312.2625 141.2802 313.9225 C139.4230 324.3375 139.7755 335.9150 143.7747 345.7825 C145.0525 348.9350 147.5453 352.6425 148.0052 355.9950 C148.2495 357.7725 147.5867 359.5300 146.1212 360.5925 C143.5310 362.4700 139.9617 361.6800 137.0677 361.1175 C129.4628 359.6450 121.7960 357.4450 114.7322 354.2325 C111.2010 352.6275 107.8700 350.5525 104.2855 349.0800 C101.9698 348.9450 99.6628 348.6900 97.3740 348.3125 C82.5423 345.8750 69.6927 339.0950 60.8220 326.7050 C50.6823 312.5425 49.4985 293.6875 52.3195 277.0175 C52.9305 273.4075 53.7780 265.1325 56.7292 263.0325 C58.0298 262.6850 59.0900 263.1675 60.2328 263.7800 C63.0760 265.3100 65.7328 267.5200 68.3362 269.4275 C86.0465 282.2850 99.7635 299.8850 107.9065 320.1975 C109.4532 324.1250 110.8380 328.2800 111.8880 332.3675 C112.6920 335.4975 113.2193 338.6900 114.1230 341.7950 C118.2725 345.4450 127.8108 348.5150 133.0807 349.8650 C132.3335 346.4800 131.0950 343.2075 130.3495 339.8125 C127.9610 328.9350 128.7457 317.7775 131.2865 307.0200 Z"></path>
<path id="" fill="#a7dd68" fill-opacity="1.0" stroke="#000000" stroke-width="0.0" stroke-opacity="1.0" stroke-linecap="round" stroke-linejoin="round"  filling="0" d="M131.2865 307.0200 C124.5462 298.8625 121.2728 288.3875 122.1690 277.8450 C123.8135 258.6325 138.5412 234.1780 150.3810 219.1687 C153.7575 214.8882 157.4235 210.3472 161.6272 206.8410 C162.2693 206.3055 162.8105 205.9518 163.6517 205.8257 C165.8460 206.4158 167.2060 208.6427 168.2875 210.5065 C178.2245 227.6333 179.9718 252.9575 174.8472 271.8575 C171.6223 283.7525 166.0040 293.6575 157.2825 302.3775 C154.3915 305.2675 151.6503 307.8225 148.0745 309.8475 C145.7583 311.1600 143.3793 312.2625 141.2802 313.9225 C141.1005 309.6000 147.1122 295.1175 148.6915 289.9250 C150.3788 284.3775 151.7543 278.7275 153.1470 273.1000 C153.6545 271.0475 154.6825 268.5400 154.7405 266.4575 C154.7717 265.3400 154.5858 263.6500 153.6252 262.8975 C153.1348 262.5150 152.6882 262.5225 152.1230 262.7075 C151.2578 262.9925 150.4348 264.1375 149.9668 264.8600 C148.3748 267.3150 147.3387 270.2250 146.0225 272.8400 C141.9105 281.0100 137.8110 289.1325 134.4478 297.6550 C133.5087 300.0350 132.6315 304.9200 131.4563 306.7950 C131.4065 306.8750 131.3432 306.9450 131.2865 307.0200 Z"></path>
<path id="" fill="#70933a" fill-opacity="1.0" stroke="#000000" stroke-width="0.0" stroke-opacity="1.0" stroke-linecap="round" stroke-linejoin="round"  filling="0" d="M131.2865 307.0200 C131.3432 306.9450 131.4065 306.8750 131.4563 306.7950 C132.6315 304.9200 133.5087 300.0350 134.4478 297.6550 C137.8110 289.1325 141.9105 281.0100 146.0225 272.8400 C147.3387 270.2250 148.3748 267.3150 149.9668 264.8600 C150.4348 264.1375 151.2578 262.9925 152.1230 262.7075 C152.6882 262.5225 153.1348 262.5150 153.6252 262.8975 C154.5858 263.6500 154.7717 265.3400 154.7405 266.4575 C154.6825 268.5400 153.6545 271.0475 153.1470 273.1000 C151.7543 278.7275 150.3788 284.3775 148.6915 289.9250 C147.1122 295.1175 141.1005 309.6000 141.2802 313.9225 C139.4230 324.3375 139.7755 335.9150 143.7747 345.7825 C145.0525 348.9350 147.5453 352.6425 148.0052 355.9950 C148.2495 357.7725 147.5867 359.5300 146.1212 360.5925 C143.5310 362.4700 139.9617 361.6800 137.0677 361.1175 C129.4628 359.6450 121.7960 357.4450 114.7322 354.2325 C111.2010 352.6275 107.8700 350.5525 104.2855 349.0800 C104.1718 348.6275 104.0818 348.4900 103.7363 348.1575 C102.8375 347.2925 101.5610 346.5500 100.5482 345.8050 C97.9182 343.8675 95.2470 341.9125 92.8867 339.6475 C85.6250 332.6775 79.5488 324.9825 74.6062 316.2050 C73.4620 314.1725 69.9348 308.9225 70.9088 306.6575 C71.1970 305.9875 72.2850 305.2750 73.0088 305.2100 C74.0742 305.1150 74.9490 306.1125 75.6512 306.8075 C78.2745 309.4050 80.4453 312.5975 82.9528 315.3425 C90.0455 323.1000 97.6045 330.5250 106.0595 336.8000 C107.3773 337.7775 112.7385 342.0025 114.1230 341.7950 C118.2725 345.4450 127.8108 348.5150 133.0807 349.8650 C132.3335 346.4800 131.0950 343.2075 130.3495 339.8125 C127.9610 328.9350 128.7457 317.7775 131.2865 307.0200 Z"></path>
<path id="" fill="#76933e" fill-opacity="1.0" stroke="#000000" stroke-width="0.0" stroke-opacity="1.0" stroke-linecap="round" stroke-linejoin="round"  filling="0" d="M280.0675 257.6300 C290.9075 259.0100 326.9425 306.6600 334.5575 316.6700 L341.7825 326.3225 C342.9075 327.8325 343.9775 329.5500 345.2550 330.9225 C345.6800 331.3775 345.8650 331.4225 346.4500 331.5775 C347.1350 331.3425 347.7500 331.0225 348.4700 331.2875 C349.8400 332.7025 349.9250 334.8775 349.8975 336.7375 C349.9450 336.8100 349.9900 336.8825 350.0375 336.9550 L350.2825 337.3125 C351.7900 339.5525 353.9450 341.2550 355.7450 343.2500 C357.4350 345.1250 358.9425 347.1575 360.6400 349.0275 C363.0850 351.7175 365.7600 354.2350 368.3300 356.8100 C371.1625 359.6500 373.9025 362.6250 376.8525 365.3425 C380.2875 368.5075 384.0350 371.3400 387.7875 374.1150 C391.3825 376.7750 400.8500 381.7100 402.9450 384.2525 C402.9975 384.7750 402.9150 384.9925 402.5150 385.3775 C402.1025 385.7775 401.3850 385.9675 400.8250 386.0275 C398.6575 386.2575 396.2675 386.0600 394.0750 386.0500 L381.4150 386.0375 L338.1250 386.0300 L263.0350 386.0250 L249.2142 386.0350 C247.4682 386.0475 244.9888 386.5050 243.3418 386.0450 C242.9715 385.6100 242.6432 385.0800 242.7343 384.4650 C242.9557 382.9675 248.0108 382.5375 249.2920 382.3075 C252.0675 381.8075 254.7775 380.9100 257.4850 380.1275 C268.3200 376.9975 278.3550 372.8575 287.8300 366.6750 C297.6950 360.2375 304.3625 350.8625 306.7650 339.2575 C311.4475 316.6250 303.6000 292.8675 291.0300 274.1425 C289.3500 271.6400 287.6575 269.0075 285.7125 266.7050 C283.9625 264.6300 281.6650 262.6900 280.2500 260.3825 C279.6700 259.4325 279.8175 258.6450 280.0675 257.6300 Z"></path>
<path id="" fill="#dce8c4" fill-opacity="1.0" stroke="#000000" stroke-width="0.0" stroke-opacity="1.0" stroke-linecap="round" stroke-linejoin="round"  filling="0" d="M441.4225 126.8060 C442.8800 126.7655 444.2600 126.6825 445.6275 127.2953 C446.6875 127.7695 447.4950 128.5430 447.8725 129.6550 C449.3400 133.9785 444.6800 140.4585 442.9025 144.4308 C441.5125 147.5383 440.9100 150.3797 441.0775 153.7845 C441.5325 163.0992 446.7675 165.5867 449.8050 173.7290 C453.5225 183.6930 449.9500 194.7433 445.6550 203.8822 C444.6525 206.0177 443.4550 207.5350 441.2150 208.3655 C440.0150 208.2222 438.8275 208.0405 437.7450 207.4670 C436.0850 206.5903 435.1475 205.0495 435.1350 203.1723 C435.1025 198.7962 440.2775 190.1387 440.9300 184.5190 C441.9200 176.0172 433.9300 169.8980 431.5875 162.3740 C427.9375 150.6395 431.7700 141.6512 437.2400 131.3125 C438.2200 129.4625 439.3225 127.4550 441.4225 126.8060 Z"></path>
<path id="" fill="#76933e" fill-opacity="1.0" stroke="#000000" stroke-width="0.0" stroke-opacity="1.0" stroke-linecap="round" stroke-linejoin="round"  filling="0" d="M242.5723 305.8475 C243.8717 305.7750 245.0777 305.9075 246.3613 306.0700 C247.6797 306.8775 249.0170 308.0575 249.6935 309.4700 C250.2500 310.6325 250.3725 311.9175 249.9160 313.1350 C249.1730 315.1225 247.3550 316.3425 245.5293 317.2375 C244.2405 317.2800 242.8830 317.1050 241.7215 316.5200 C240.1905 315.7500 238.8463 314.4275 238.3325 312.7600 C237.9535 311.5300 238.0838 310.0800 238.6962 308.9425 C239.4615 307.5200 241.0310 306.2750 242.5723 305.8475 Z"></path>
<path id="" fill="#76933e" fill-opacity="1.0" stroke="#000000" stroke-width="0.0" stroke-opacity="1.0" stroke-linecap="round" stroke-linejoin="round"  filling="0" d="M227.4182 329.8075 C228.4080 329.8950 229.2610 330.0250 230.0985 330.6000 C231.5788 331.6125 232.6313 333.0000 232.9543 334.7850 C233.1998 336.1450 232.9150 337.4325 232.1115 338.5550 C230.8972 340.2525 229.1445 341.0175 227.1537 341.3675 C226.0145 341.2475 224.9440 341.0950 223.9715 340.4400 C222.5170 339.4625 221.4088 338.0175 221.1665 336.2500 C220.9805 334.8925 221.3882 333.5675 222.2180 332.4900 C223.5800 330.7200 225.2995 330.1275 227.4182 329.8075 Z"></path>
<path id="" fill="#76933e" fill-opacity="1.0" stroke="#000000" stroke-width="0.0" stroke-opacity="1.0" stroke-linecap="round" stroke-linejoin="round"  filling="0" d="M254.6975 329.8025 C256.1175 329.8175 257.2450 330.0150 258.4425 330.8325 C259.8725 331.8125 260.9025 333.2775 261.1400 335.0125 C261.3600 336.6150 260.9150 338.3050 259.8650 339.5450 C258.6900 340.9325 257.8325 341.0700 256.0600 341.2125 C255.1550 341.2050 253.6725 341.2300 252.8400 340.8775 C251.4900 340.3150 250.4550 339.1875 250.0125 337.7950 C249.5143 336.1875 249.7095 334.4425 250.5500 332.9825 C251.4450 331.4275 252.9950 330.3075 254.6975 329.8025 Z"></path>
</svg>