<svg xmlns="http://www.w3.org/2000/svg" viewBox="0 0 512 512" height="512.0px" width="512.0px">
<path id="" fill="#473b37" fill-opacity="1.0" stroke="#000000" stroke-width="0.0" stroke-opacity="1.0" stroke-linecap="round" stroke-linejoin="round"  filling="0" d="M240.3168 119.7470 L241.2563 119.8293 C242.2173 121.3997 242.7235 126.1908 243.2578 128.3047 C243.8002 130.4503 244.4485 132.5545 245.1353 134.6580 C242.8745 136.2227 240.7473 137.8008 238.7535 139.7083 C234.5545 143.7255 232.6035 147.4780 232.4897 153.3533 C232.4368 156.0980 232.5607 158.7473 233.3103 161.4000 C236.5302 172.7945 248.2892 181.0932 258.6000 185.5197 C267.7950 189.4673 272.5650 188.4985 280.2025 196.4688 C279.0750 198.4735 277.4125 200.1895 275.9725 201.9760 C271.7325 207.2390 267.2675 212.9015 265.7850 219.6435 C264.5025 225.4835 266.2225 230.3963 270.8150 234.2225 C275.4650 238.0960 282.2750 239.5923 287.8125 241.8450 C292.9250 243.9247 297.8100 246.5525 302.5700 249.3310 C315.1750 256.6875 325.1850 265.0675 333.1750 277.4675 C347.3750 299.5025 348.8150 321.2825 335.4075 344.2850 C331.7100 350.6275 327.3000 356.2775 323.1100 362.2800 C319.3550 367.7250 315.8350 373.3250 312.5550 379.0675 C301.5000 398.2350 292.5300 418.5325 285.7975 439.6125 C284.3075 444.3500 282.7750 449.0700 281.7350 453.9325 C276.7725 454.2775 271.6775 454.0575 266.6975 454.0575 L239.5188 454.0575 L211.2755 454.0775 C205.0095 454.0800 198.7103 454.2400 192.4557 453.8050 C191.5255 451.6825 190.5468 449.5550 189.8687 447.3350 C185.5875 433.3175 186.4355 416.7200 189.1795 402.4950 C191.5182 390.3675 195.3997 378.5325 200.0840 367.1275 C201.1087 364.6325 202.0240 361.7825 203.5230 359.5375 C204.8800 357.5050 206.4543 356.3700 208.4405 355.0300 C215.6797 349.5900 223.1537 344.5100 230.3042 338.9400 C233.6980 336.2950 237.0768 333.7200 240.0697 330.6100 C234.9167 329.8275 229.5355 329.9900 224.3268 329.4675 C208.5870 327.8850 193.5540 323.1375 180.1447 314.6950 C162.7117 303.7200 148.4525 285.9525 143.8353 265.6125 C140.7737 252.1300 142.6348 237.9770 150.1427 226.2363 C155.3793 218.0473 163.2730 214.9880 172.3780 213.0390 C173.3615 218.3203 174.6492 223.4605 176.1160 228.6277 C174.0685 229.6373 172.3005 230.8730 170.7142 232.5175 C166.8395 236.5345 165.9888 241.6183 166.1115 247.0045 C166.4597 262.2850 173.5990 273.6175 184.4035 283.9475 C194.6237 293.7200 208.0785 298.1125 222.0137 298.5150 C227.1367 298.6625 232.2820 298.2625 237.4043 298.1550 L268.6275 297.3700 C273.3950 282.2850 266.0650 268.1550 256.6050 256.5925 C253.0425 252.2375 249.0453 248.2865 245.5965 243.8225 C242.5800 239.8658 239.9355 235.6385 237.6970 231.1950 C235.7128 227.2383 234.0603 222.8618 233.2137 218.5092 C231.9255 211.8867 231.6870 205.1638 229.1893 198.8080 C225.8503 190.3112 218.4487 184.1085 214.5825 175.6777 C209.7480 165.1360 209.0112 154.2275 213.1045 143.3138 C217.8542 130.6483 228.6750 124.9788 240.3168 119.7470 Z"></path>
<path id="" fill="#473b37" fill-opacity="1.0" stroke="#000000" stroke-width="0.0" stroke-opacity="1.0" stroke-linecap="round" stroke-linejoin="round"  filling="0" d="M385.4350 212.3110 C385.6725 212.3197 385.8625 212.4130 386.0825 212.4930 C387.7000 215.4877 388.9250 229.4337 388.9650 233.3192 C388.9825 235.8582 388.7900 238.3943 388.3900 240.9015 C387.9200 244.1783 387.0775 247.3905 385.8775 250.4750 C382.9525 258.2000 380.7675 258.3750 373.7825 261.6200 C371.0500 262.8900 368.4050 264.3425 365.6650 265.5950 C363.2925 266.6800 360.3750 267.5650 358.3250 269.1325 C358.2625 269.1800 358.2025 269.2300 358.1425 269.2800 C357.1575 268.2800 356.1375 267.5625 354.9675 266.8000 C353.2725 266.0425 351.7850 265.0150 350.3050 263.9100 C351.4125 263.0375 352.2175 261.8500 353.1200 260.7750 C357.6100 255.4200 361.1725 249.8768 364.0750 243.5205 C368.1700 234.5578 370.4150 224.5443 366.8625 215.0323 C370.7150 214.6140 382.1150 213.4227 385.4350 212.3110 Z"></path>
<path id="" fill="#473b37" fill-opacity="1.0" stroke="#000000" stroke-width="0.0" stroke-opacity="1.0" stroke-linecap="round" stroke-linejoin="round"  filling="0" d="M282.0200 120.1127 C282.2275 120.1143 282.3175 120.1053 282.5400 120.1638 C289.0425 121.8777 297.1300 130.8633 300.1350 136.6902 C306.8700 149.7507 305.7325 162.0842 301.4725 175.5950 C299.3575 175.2455 297.3325 174.7247 295.2650 174.1540 C291.6500 173.4085 287.0750 172.0733 283.7500 170.4860 C282.9700 170.1135 281.9675 169.6503 281.6500 168.7915 C281.9025 168.4920 282.1100 168.1918 282.2925 167.8450 C287.1550 158.8670 286.1975 147.8565 279.8625 139.8510 C278.3600 137.9668 275.3975 135.7845 274.7450 133.5033 C275.0525 130.8848 280.4150 122.8067 282.0200 120.1127 Z"></path>
<path id="" fill="#ffffff" fill-opacity="0.0392157" stroke="#000000" stroke-width="0.0" stroke-opacity="1.0" stroke-linecap="round" stroke-linejoin="round"  filling="0" d="M198.3472 457.3525 C200.8250 457.0700 203.4747 457.2450 205.9715 457.2525 L219.9203 457.3000 L264.5475 457.2725 C267.7200 457.2825 276.1575 456.7425 278.5925 457.5050 C276.1900 458.1050 272.9475 457.7500 270.4575 457.7675 C263.9850 457.8075 257.5150 457.8100 251.0425 457.7725 L219.6642 457.7525 C213.3212 457.7775 206.9255 457.9950 200.5880 457.8175 C199.7410 457.7950 199.1033 457.7800 198.3472 457.3525 Z"></path>
<path id="" fill="#e8756d" fill-opacity="1.0" stroke="#000000" stroke-width="0.0" stroke-opacity="1.0" stroke-linecap="round" stroke-linejoin="round"  filling="0" d="M211.0410 358.9900 C222.4458 359.3875 233.9317 359.1250 245.3468 359.1300 L306.9050 359.1650 C310.1975 359.1675 318.3950 359.6800 321.2650 358.9250 C323.2275 358.4100 325.4375 355.9500 327.3575 356.4825 C327.7750 357.3100 326.7100 358.7700 327.7525 359.1125 C328.3100 359.2950 384.6150 359.1600 388.2525 358.9975 C387.9300 366.1200 387.7425 373.1250 382.0775 378.3075 C378.4300 381.6425 374.1450 382.7100 369.3625 383.1850 C368.0225 385.8925 366.7275 388.6025 365.6175 391.4150 C364.9350 393.1500 364.4100 395.0200 363.6475 396.7150 C361.0475 403.5875 358.8175 411.1750 357.2475 418.3575 C354.2800 431.9450 354.4750 445.3125 339.7450 451.9875 C335.9050 453.7300 331.8325 454.5600 327.6425 454.8625 C320.7725 455.3575 313.6200 454.9600 306.7200 454.9600 L265.6875 454.9600 L220.1670 454.9500 C212.6588 454.9475 204.9763 455.3525 197.4970 454.9075 C193.8893 454.6900 190.2555 454.1150 186.8720 452.8050 C180.1947 450.2250 174.9507 445.7225 172.0968 439.0925 C169.1127 432.1600 168.3180 423.0425 166.5733 415.5900 C165.0575 409.1150 162.8080 403.0125 160.8150 396.6925 C159.2655 392.3500 157.1100 388.1000 155.8268 383.6850 C154.5410 382.8825 149.4877 382.4200 146.7925 381.0075 C142.2430 378.6225 138.7965 374.6700 137.2940 369.7500 C136.6490 367.6375 135.2513 361.7150 136.5120 359.7525 C136.8885 359.1650 138.5435 359.1150 139.1873 359.0800 C143.4745 358.8400 147.8700 359.0325 152.1673 359.0350 L177.0055 359.0625 L192.1290 359.1075 C194.9775 359.1150 198.1427 359.3350 200.9500 358.8825 C201.1138 358.8575 201.2767 358.8275 201.4400 358.8000 C202.5508 357.9700 203.9125 356.9200 205.3865 357.1800 C207.4905 357.5525 208.0067 358.7775 211.0410 358.9900 Z"></path>
<path id="" fill="#e8756d" fill-opacity="1.0" stroke="#000000" stroke-width="0.0" stroke-opacity="1.0" stroke-linecap="round" stroke-linejoin="round"  filling="0" d="M211.0410 358.9900 C222.4458 359.3875 233.9317 359.1250 245.3468 359.1300 L306.9050 359.1650 C310.1975 359.1675 318.3950 359.6800 321.2650 358.9250 C323.2275 358.4100 325.4375 355.9500 327.3575 356.4825 C327.7750 357.3100 326.7100 358.7700 327.7525 359.1125 C328.3100 359.2950 384.6150 359.1600 388.2525 358.9975 C387.9300 366.1200 387.7425 373.1250 382.0775 378.3075 C378.4300 381.6425 374.1450 382.7100 369.3625 383.1850 C368.0225 385.8925 366.7275 388.6025 365.6175 391.4150 C364.9350 393.1500 364.4100 395.0200 363.6475 396.7150 C358.5425 396.7200 353.4450 396.5050 348.3400 396.4950 L208.8790 396.5000 L171.0598 396.5325 C169.2422 396.5425 162.3655 396.2575 161.2962 396.4700 C161.0538 396.5200 160.9982 396.5750 160.8150 396.6925 C159.2655 392.3500 157.1100 388.1000 155.8268 383.6850 C154.5410 382.8825 149.4877 382.4200 146.7925 381.0075 C142.2430 378.6225 138.7965 374.6700 137.2940 369.7500 C136.6490 367.6375 135.2513 361.7150 136.5120 359.7525 C136.8885 359.1650 138.5435 359.1150 139.1873 359.0800 C143.4745 358.8400 147.8700 359.0325 152.1673 359.0350 L177.0055 359.0625 L192.1290 359.1075 C194.9775 359.1150 198.1427 359.3350 200.9500 358.8825 C201.1138 358.8575 201.2767 358.8275 201.4400 358.8000 C202.5508 357.9700 203.9125 356.9200 205.3865 357.1800 C207.4905 357.5525 208.0067 358.7775 211.0410 358.9900 Z"></path>
<path id="" fill="#bc4242" fill-opacity="1.0" stroke="#000000" stroke-width="0.0" stroke-opacity="1.0" stroke-linecap="round" stroke-linejoin="round"  filling="0" d="M155.8268 383.6850 C156.3590 383.3725 156.7643 383.3525 157.3647 383.3250 C164.2773 383.0275 171.2790 383.2450 178.2025 383.2475 L216.4140 383.2600 L336.8850 383.2525 L357.4550 383.2650 C361.4100 383.2700 365.4125 383.4025 369.3625 383.1850 C368.0225 385.8925 366.7275 388.6025 365.6175 391.4150 C364.9350 393.1500 364.4100 395.0200 363.6475 396.7150 C358.5425 396.7200 353.4450 396.5050 348.3400 396.4950 L208.8790 396.5000 L171.0598 396.5325 C169.2422 396.5425 162.3655 396.2575 161.2962 396.4700 C161.0538 396.5200 160.9982 396.5750 160.8150 396.6925 C159.2655 392.3500 157.1100 388.1000 155.8268 383.6850 Z"></path>
<path id="" fill="#473b37" fill-opacity="1.0" stroke="#000000" stroke-width="0.0" stroke-opacity="1.0" stroke-linecap="round" stroke-linejoin="round"  filling="0" d="M201.4400 358.8000 C202.5508 357.9700 203.9125 356.9200 205.3865 357.1800 C207.4905 357.5525 208.0067 358.7775 211.0410 358.9900 C207.8585 359.1950 204.6450 358.6750 201.4400 358.8000 Z"></path>
<path id="" fill="#9b7b76" fill-opacity="1.0" stroke="#000000" stroke-width="0.0" stroke-opacity="1.0" stroke-linecap="round" stroke-linejoin="round"  filling="0" d="M281.8425 169.8245 C283.8725 170.2793 285.9725 170.6420 287.9725 171.2007 C292.6750 172.5128 296.9325 173.9305 301.9025 174.1200 C302.2075 174.6008 302.1675 174.3737 302.1675 174.7583 C298.0125 188.6268 292.3575 194.5098 281.7700 203.6315 C279.8225 205.3112 277.7975 206.8728 275.9375 208.6573 C273.5025 210.9925 270.7200 213.7180 269.1450 216.7448 C267.4400 220.2355 266.9275 223.3607 267.0025 227.2283 C265.5150 227.1562 264.0175 226.9730 262.5675 227.3822 C262.1950 227.7948 262.1600 227.9005 262.0200 228.4133 C261.9200 233.2318 262.3075 238.6823 265.7900 242.3925 C267.3000 244.0018 269.2050 245.1662 271.1575 246.1570 C273.7525 247.4725 276.5525 248.3672 279.2550 249.4332 C283.3850 251.0625 287.4650 252.8125 291.4900 254.6825 C293.9625 255.8450 296.4325 257.0200 298.8125 258.3675 C301.6275 259.9625 304.5250 261.9675 307.5600 263.0575 C307.5850 263.0675 307.6100 263.0800 307.6375 263.0900 C312.4250 262.9350 315.0350 263.4950 319.3725 260.9075 C320.7300 261.6275 322.0250 262.3575 323.0600 263.5300 C323.5475 263.7450 324.0675 263.8650 324.5975 263.9250 C327.0500 264.1975 329.6500 264.0425 332.1200 264.0150 C343.1875 263.8975 349.1900 261.2175 357.6525 254.2900 C364.0200 253.4250 370.3700 255.1200 376.6500 255.9325 C378.8700 256.2200 381.0975 256.3000 383.3350 256.3700 C377.9675 267.6675 367.6900 272.9425 358.1800 280.0125 C355.6575 281.8875 353.4350 284.1500 351.0425 286.1875 C348.0125 288.7650 344.9675 291.1050 342.9475 294.6050 C342.8300 299.1300 344.2175 303.6350 344.7750 308.1075 C345.1250 310.9025 344.9325 313.5675 344.7900 316.3675 C344.2025 327.9350 341.1250 335.3375 334.8600 344.9325 C331.0150 345.2250 326.9450 344.9450 323.0750 344.9400 C316.2650 344.9300 309.4325 345.0350 302.6250 344.8450 C302.6450 344.7800 302.6675 344.7175 302.6850 344.6525 C304.6150 337.9850 308.1300 334.3350 309.0125 326.4325 C309.9675 317.8900 306.2275 309.0025 300.8800 302.4700 C295.6825 296.1200 289.0525 291.4700 281.7700 287.8100 C280.2675 287.0550 278.6850 286.1525 277.1000 285.5950 C275.8600 285.1575 274.2425 285.1300 272.9300 284.9925 C272.6425 284.5975 272.7375 284.7675 272.5525 284.3750 C272.1725 283.5725 271.8925 282.9000 271.0225 282.5450 C267.2350 281.0075 263.0150 280.0050 259.1125 278.7400 C249.3180 275.5650 237.4442 270.6600 229.9465 263.5825 C222.4770 256.5300 218.2188 247.4170 217.9812 237.0960 C217.7270 226.0417 223.6028 216.1280 231.0420 208.3472 C231.2478 207.2888 231.1828 206.1933 231.1790 205.1187 C233.1927 205.1693 234.4637 205.0658 236.2870 204.0733 C243.0592 198.2663 250.5775 193.7810 258.4625 189.6660 C258.8000 189.4115 259.1925 189.1440 259.4775 188.8297 C260.3525 187.8600 259.9500 185.7213 259.8775 184.5070 C262.0075 184.6970 264.1400 184.8503 266.2750 184.9662 C270.3675 183.5245 276.6075 176.3537 279.4275 173.0237 C280.2275 171.9590 281.0075 170.8602 281.8425 169.8245 Z"></path>
<path id="" fill="#473b37" fill-opacity="1.0" stroke="#000000" stroke-width="0.0" stroke-opacity="1.0" stroke-linecap="round" stroke-linejoin="round"  filling="0" d="M281.8425 169.8245 C283.8725 170.2793 285.9725 170.6420 287.9725 171.2007 C292.6750 172.5128 296.9325 173.9305 301.9025 174.1200 C302.2075 174.6008 302.1675 174.3737 302.1675 174.7583 C297.3150 173.7015 289.8375 174.2242 284.7700 174.1310 C283.4050 174.1057 281.4700 174.2932 280.1925 173.9187 C279.7000 173.7745 279.6725 173.4490 279.4275 173.0237 C280.2275 171.9590 281.0075 170.8602 281.8425 169.8245 Z"></path>
<path id="" fill="#473b37" fill-opacity="1.0" stroke="#000000" stroke-width="0.0" stroke-opacity="1.0" stroke-linecap="round" stroke-linejoin="round"  filling="0" d="M262.0200 228.4133 C261.6225 227.1693 262.8625 224.4973 263.4400 223.3040 C264.5975 220.9205 266.5525 217.6577 269.1450 216.7448 C267.4400 220.2355 266.9275 223.3607 267.0025 227.2283 C265.5150 227.1562 264.0175 226.9730 262.5675 227.3822 C262.1950 227.7948 262.1600 227.9005 262.0200 228.4133 Z"></path>
<path id="" fill="#493d39" fill-opacity="1.0" stroke="#000000" stroke-width="0.0" stroke-opacity="1.0" stroke-linecap="round" stroke-linejoin="round"  filling="0" d="M259.8775 184.5070 C262.0075 184.6970 264.1400 184.8503 266.2750 184.9662 C263.9925 187.0045 261.4075 188.7375 258.4625 189.6660 C258.8000 189.4115 259.1925 189.1440 259.4775 188.8297 C260.3525 187.8600 259.9500 185.7213 259.8775 184.5070 Z"></path>
<path id="" fill="#493d39" fill-opacity="1.0" stroke="#000000" stroke-width="0.0" stroke-opacity="1.0" stroke-linecap="round" stroke-linejoin="round"  filling="0" d="M319.3725 260.9075 C320.7300 261.6275 322.0250 262.3575 323.0600 263.5300 C318.8600 263.5275 311.5225 264.1700 307.6375 263.0900 C312.4250 262.9350 315.0350 263.4950 319.3725 260.9075 Z"></path>
<path id="" fill="#473b37" fill-opacity="1.0" stroke="#000000" stroke-width="0.0" stroke-opacity="1.0" stroke-linecap="round" stroke-linejoin="round"  filling="0" d="M231.1790 205.1187 C233.1927 205.1693 234.4637 205.0658 236.2870 204.0733 C234.6500 205.6320 232.7148 206.8330 231.0420 208.3472 C231.2478 207.2888 231.1828 206.1933 231.1790 205.1187 Z"></path>
<path id="" fill="#ffffff" fill-opacity="0.027451" stroke="#000000" stroke-width="0.0" stroke-opacity="1.0" stroke-linecap="round" stroke-linejoin="round"  filling="0" d="M0.6766 0.0000 L511.3225 0.0000 C508.2025 0.6650 504.4600 0.3195 501.2650 0.3163 L484.2875 0.2973 L415.9925 0.2969 L147.6600 0.2999 L40.7298 0.2926 L15.1412 0.3109 C10.7615 0.3248 4.9184 0.8886 0.6766 0.0000 Z"></path>
<path id="" fill="#ffffff" fill-opacity="0.0196078" stroke="#000000" stroke-width="0.0" stroke-opacity="1.0" stroke-linecap="round" stroke-linejoin="round"  filling="0" d="M1.3091 512.0000 C3.3875 511.2775 25.6402 511.7425 29.6990 511.7425 L108.8480 511.7450 L408.0800 511.7525 L481.9375 511.7525 L501.0200 511.7350 C504.2850 511.7300 508.1175 511.3450 511.2925 512.0000 L1.3091 512.0000 Z"></path>
<path id="" fill="#ffffff" fill-opacity="0.027451" stroke="#000000" stroke-width="0.0" stroke-opacity="1.0" stroke-linecap="round" stroke-linejoin="round"  filling="0" d="M0.0000 0.9172 C0.7097 3.9909 0.2566 8.0218 0.2535 11.1965 L0.2509 30.6735 L0.2530 111.2188 L0.2531 439.7300 L0.2509 490.8325 C0.2507 494.5500 0.7518 508.0600 0.0000 510.5825 L0.0000 0.9172 Z"></path>
<path id="" fill="#698779" fill-opacity="1.0" stroke="#000000" stroke-width="0.0" stroke-opacity="1.0" stroke-linecap="round" stroke-linejoin="round"  filling="0" d="M304.7600 80.8815 L306.9225 80.8005 C326.9925 80.1075 356.3450 81.9665 375.2975 87.9792 C381.2175 89.8633 386.8625 92.5210 392.0875 95.8838 C396.1475 98.5182 399.7225 101.8305 402.6600 105.6762 C404.2475 107.7982 405.5650 109.9225 407.5200 111.7458 C410.1425 114.1890 413.6425 115.3142 416.1900 117.7870 C418.4900 119.9780 419.7950 123.0130 419.8025 126.1890 C419.8200 130.5932 417.4675 135.0150 414.3450 138.0193 C401.0175 150.8340 376.2850 154.8085 358.4125 155.2920 C351.5025 155.4790 344.3950 154.7747 337.5375 155.3898 C328.9400 156.1608 322.7575 162.4780 314.9950 163.1275 C310.0375 163.5420 304.8975 163.1720 299.9250 163.0948 C293.8925 163.0013 287.8700 163.0148 281.8375 162.8235 C276.7950 162.6635 271.7600 162.3053 266.7200 162.1313 C256.1175 161.7655 245.4550 161.8970 234.8420 161.7090 L200.9375 160.7722 C193.2075 160.3882 185.5485 160.0278 177.8040 160.0205 C165.3990 160.0090 152.7908 160.4785 140.4135 159.8123 C126.0762 159.0405 101.4532 155.9705 90.8322 145.6478 C86.3477 141.2888 83.5395 135.2045 83.4652 128.9150 C83.3755 121.3253 86.7530 113.7130 92.0338 108.3353 C96.6400 103.6447 102.8065 100.9060 109.1185 99.3582 C119.2845 96.8658 130.1198 96.7320 140.5237 96.0155 C148.0300 95.4983 155.5525 94.6418 163.0267 93.7863 C176.2040 92.2780 189.3573 90.1305 202.4915 88.2728 C219.4362 85.8857 236.4360 83.9105 253.4775 82.3485 C256.8125 82.0655 260.1550 82.0455 263.4975 81.8767 C268.0150 81.6487 272.5125 81.2097 277.0350 81.0800 C286.2675 80.8150 295.5225 81.0143 304.7600 80.8815 Z"></path>
<path id="" fill="#698779" fill-opacity="1.0" stroke="#000000" stroke-width="0.0" stroke-opacity="1.0" stroke-linecap="round" stroke-linejoin="round"  filling="0" d="M166.0720 187.8918 C173.0717 187.2677 180.9272 188.2648 187.6860 190.2035 C201.2725 194.1013 218.6860 202.6832 225.7135 215.2845 C224.5338 217.5105 223.2303 219.6805 222.1078 221.9348 C217.7385 230.7095 217.3692 238.5405 220.4235 247.7730 C221.1885 250.0850 222.2755 252.2575 223.0408 254.5650 L223.1382 254.8650 C213.5880 265.2000 199.0098 268.9625 185.3975 270.0725 C181.7397 270.3725 177.9783 270.1725 174.3595 270.5700 L173.9612 271.2625 C173.4837 271.5175 173.2440 271.3575 172.7185 271.2625 C168.0825 270.4225 163.3820 269.8600 158.7758 268.8700 C152.8862 267.6050 147.1622 265.9025 141.1427 265.2875 C137.3633 264.9025 133.5417 265.0025 129.7473 264.9975 L114.0625 264.9875 L84.9138 264.9950 C79.1967 265.0075 73.1557 265.3925 67.4778 264.7275 C62.1857 264.1050 57.5600 262.3500 54.2177 258.0200 C51.6465 254.6900 50.4912 250.1525 51.1427 245.9945 C52.2997 238.6062 58.6065 234.5925 65.1783 232.4650 C67.0025 231.8743 69.6137 231.5128 71.1655 230.4232 C71.2220 230.1752 71.4193 229.6478 71.3945 229.4178 C71.2617 228.1790 66.9200 224.3430 66.0480 222.5813 C64.8870 220.2350 64.1478 217.9310 64.0110 215.3015 C63.8050 211.3410 65.0143 207.6940 67.6915 204.7462 C70.2860 201.8900 74.1105 200.1450 77.8655 199.4583 C81.8855 198.7233 86.1137 199.0520 90.1797 199.1133 C97.4760 199.2233 104.9825 199.5060 112.2230 198.5580 C120.4872 197.4120 128.6880 195.8455 136.7928 193.8647 C146.4442 191.4657 156.0815 188.3575 166.0720 187.8918 Z"></path>
<path id="" fill="#698678" fill-opacity="1.0" stroke="#000000" stroke-width="0.0" stroke-opacity="1.0" stroke-linecap="round" stroke-linejoin="round"  filling="0" d="M414.6275 178.6503 C415.4775 178.5723 416.3275 178.5258 417.1800 178.5108 C427.6475 178.3225 438.7100 180.2583 445.0000 189.4953 C446.7300 192.0358 447.7750 194.9320 449.4350 197.4765 C451.0175 199.8975 453.4125 201.7867 455.4600 203.7997 C459.2000 207.4760 461.0700 211.5972 461.0550 216.8822 C461.0400 222.1582 458.8300 226.9745 455.1000 230.6503 C449.8650 235.8092 442.1550 237.7720 435.0950 238.8947 C425.5775 240.4090 415.4775 239.7728 405.8475 239.7675 L358.8650 239.7715 L358.4375 239.7760 C348.9450 239.6958 335.3300 240.7725 326.3850 238.2617 C323.6325 237.5005 321.0700 236.1730 318.8625 234.3642 C314.8125 231.0038 312.5100 225.9000 312.0450 220.7202 C311.5100 214.7850 312.6300 209.3040 316.5075 204.6727 C331.1475 187.1777 364.8800 183.5460 386.1025 181.3725 L414.6275 178.6503 Z"></path>
<path id="" fill="#9fc2ab" fill-opacity="1.0" stroke="#000000" stroke-width="0.0" stroke-opacity="1.0" stroke-linecap="round" stroke-linejoin="round"  filling="0" d="M269.5250 57.1060 C273.0775 56.7315 276.9125 57.0423 280.4700 57.3260 C292.9475 58.3213 305.0650 60.7223 316.5625 65.8025 C323.9775 69.0800 330.6550 73.1775 338.4575 75.6615 C347.9700 78.6900 357.9950 79.0905 367.5175 82.2363 C374.6450 84.5918 391.6050 92.0233 394.7950 98.8390 C395.1700 99.6422 395.3400 100.4473 395.0300 101.2972 C393.2950 103.3737 389.8650 104.6938 387.4350 105.8767 C374.2950 112.2750 353.5775 115.0197 338.9150 115.8990 C335.3650 116.1118 331.7950 115.9620 328.2400 116.1198 C324.7125 116.2762 321.2075 116.8118 317.6775 116.9140 C301.8850 117.3710 285.5275 116.9435 269.6800 116.9400 C261.6325 116.9380 253.2900 116.5050 245.2745 117.1728 C233.3472 118.1670 221.8313 122.2815 210.4440 125.7343 C206.1263 127.2888 201.6460 128.4982 197.1673 129.4877 C192.0420 130.6260 186.8463 131.4185 181.6147 131.8600 C174.6497 132.3865 167.4760 132.0185 160.4795 132.0230 C147.2050 132.0320 133.7188 132.8760 120.6598 130.1065 C115.9178 129.1313 111.3965 127.2885 107.3238 124.6707 C99.4770 119.6130 97.7130 114.2653 95.8410 105.5358 C99.5058 102.5050 103.5098 99.8750 107.8810 97.9820 C110.9530 96.6517 114.9445 96.0760 117.5225 93.8930 C120.3080 91.5342 122.5417 87.7790 124.8958 84.9423 C127.5535 81.7395 130.6295 79.2970 133.8362 76.6613 C153.8450 60.2165 180.2337 55.6150 205.4572 58.8727 C209.9832 59.4575 214.5815 60.1588 219.0235 61.2140 C222.1175 61.9487 225.5540 63.5600 228.7108 63.6588 C232.2355 63.7693 243.2598 60.3315 247.8372 59.5193 C255.0375 58.2420 262.2550 57.7802 269.5250 57.1060 Z"></path>
<path id="" fill="#9fc1aa" fill-opacity="1.0" stroke="#000000" stroke-width="0.0" stroke-opacity="1.0" stroke-linecap="round" stroke-linejoin="round"  filling="0" d="M117.2235 185.1065 C123.5312 184.3790 131.3698 185.7668 137.5635 187.2595 C141.5553 188.2215 145.6382 189.4568 149.7467 189.7363 C153.1520 189.9680 156.5085 188.8418 159.8610 188.3820 C167.3112 187.4342 174.8692 187.7802 182.2020 189.4048 C185.8038 196.2380 189.7747 202.5150 189.8898 210.5997 C190.0080 218.9258 186.2900 227.3885 180.4645 233.2233 C169.7395 243.9657 154.2368 245.0408 139.8750 245.0195 L114.4430 245.0300 C110.7057 245.0312 102.7405 245.5800 99.5095 244.6200 C96.8690 243.8358 94.2825 241.3645 92.9658 238.9707 C90.6038 234.6765 92.8958 229.9320 94.1927 225.7027 C91.5967 222.7267 83.7920 220.1645 79.9442 217.9270 C77.0123 216.2220 74.2255 214.0822 72.1125 211.4040 C71.2653 210.3300 70.5163 209.1460 69.6122 208.1212 C68.6820 207.0668 67.4305 206.7442 67.0358 205.2722 C67.2095 204.5320 67.4575 204.0455 67.9438 203.4540 C71.1155 199.5955 76.4348 197.1102 80.8635 194.9865 C82.9133 194.0035 84.9037 192.8715 86.9905 191.9693 C96.6328 187.8005 106.8245 186.0260 117.2235 185.1065 Z"></path>
<path id="" fill="#9fc2ab" fill-opacity="1.0" stroke="#000000" stroke-width="0.0" stroke-opacity="1.0" stroke-linecap="round" stroke-linejoin="round"  filling="0" d="M368.8900 174.1033 C368.9575 174.0923 369.0250 174.0765 369.0950 174.0708 C373.5200 173.6947 378.1900 173.9730 382.6400 173.9775 C396.7150 173.9920 410.7825 173.5800 424.5450 177.0833 C426.5525 177.5943 429.0700 178.0397 430.6950 179.3965 C431.7725 180.2962 432.2150 181.5365 432.2525 182.9147 C432.4800 191.3347 423.0775 195.1687 416.2525 196.8152 C412.9400 197.6145 408.8175 197.7690 405.9375 199.7085 C402.4550 202.0533 405.0050 210.3890 400.5025 215.1150 C396.4450 219.3730 389.4525 219.9940 383.9475 220.0143 L362.4600 220.0225 C350.6850 220.0253 335.3325 221.4292 325.4325 213.8810 C322.2125 211.4255 320.3600 208.2910 319.8900 204.2535 C319.7050 202.6645 319.9525 201.6315 320.9975 200.4068 C323.5250 197.4453 327.6375 196.0997 330.6650 193.7083 C333.4025 191.5448 335.5925 188.5335 338.2075 186.1933 C346.8575 178.4580 357.5000 175.0805 368.8900 174.1033 Z"></path>
</svg>