<svg xmlns="http://www.w3.org/2000/svg" viewBox="0 0 512 512" height="512.0px" width="512.0px">
<path id="" fill="#473b37" fill-opacity="1.0" stroke="#000000" stroke-width="0.0" stroke-opacity="1.0" stroke-linecap="round" stroke-linejoin="round"  filling="0" d="M50.9465 114.9450 C66.1520 114.9640 81.6223 117.2947 95.2628 124.4125 C98.4612 126.0815 101.3378 128.3000 104.2823 130.3665 C107.2527 132.4510 110.4382 134.4530 113.2220 136.7755 C117.9755 140.7413 122.1680 145.3622 126.3633 149.8893 C128.1720 151.8412 130.1505 153.6777 131.8575 155.7170 C133.4888 157.6660 134.9308 159.7700 136.5762 161.7100 C138.5473 164.0335 140.7055 166.1947 142.6460 168.5448 C145.3795 171.8555 147.9005 175.3270 150.5390 178.7112 C156.8647 186.8245 163.1005 194.9467 168.9837 203.3915 C176.3087 213.9060 183.0258 224.8412 190.2555 235.4180 C196.6705 244.8027 203.6353 253.9675 210.7640 262.8200 C224.2250 279.5375 240.6060 293.9150 257.7425 306.7350 C272.6400 317.8800 289.6600 327.9425 307.3950 333.7650 C314.3750 336.0550 321.9225 337.3275 329.1675 338.4725 C360.3425 343.4100 393.5425 342.2900 423.0450 330.2950 C427.3475 328.5475 431.6175 326.5500 435.5900 324.1300 C439.6950 321.6275 449.0325 313.5050 452.8075 313.1000 C454.5975 312.9075 456.9875 313.7225 458.3750 314.8475 C459.6525 315.8825 460.2800 317.3700 460.4550 318.9775 C460.9825 323.7950 456.7300 328.9700 453.8875 332.4875 C435.9525 351.7100 411.1825 361.9800 385.4450 365.6225 C357.7875 369.5350 329.3275 366.3675 302.4525 359.3100 C298.0425 358.1525 293.6100 357.0400 289.2800 355.6000 C285.5475 354.3600 281.8925 352.7875 278.2425 351.3150 C261.8150 344.6925 245.7142 336.6775 231.1288 326.5650 C210.7592 312.4375 192.8282 295.0850 178.0410 275.1900 C172.0865 267.1900 166.3898 259.0025 160.9597 250.6375 C147.1490 229.3950 134.2540 207.9855 113.5005 192.5562 C98.5380 181.4325 79.7895 174.6808 61.4512 171.8902 C58.4073 171.4270 54.5088 170.4935 51.4575 170.9402 C50.6605 164.8535 51.0310 158.4345 51.0350 152.3010 C51.0435 139.8720 51.3257 127.3665 50.9465 114.9450 Z"></path>
<path id="" fill="#fedef0" fill-opacity="1.0" stroke="#000000" stroke-width="0.0" stroke-opacity="1.0" stroke-linecap="round" stroke-linejoin="round"  filling="0" d="M121.6657 128.5307 L121.4948 128.1845 C119.6045 124.4043 116.1120 121.6048 113.7993 118.0623 C111.7080 114.8590 109.8343 111.1147 108.5745 107.4883 C106.4290 101.3112 104.0175 88.4405 106.1082 82.1342 C106.9772 79.5125 108.5963 77.2012 111.1407 75.9915 C114.6783 74.3100 118.5120 75.2158 121.9803 76.5600 C132.6840 80.7083 138.1020 85.3127 145.9890 93.3473 C147.4458 94.8310 152.9978 102.1410 153.8788 102.3822 C154.2737 102.0260 154.3465 102.0193 154.5400 101.4863 C154.9760 100.2860 155.1865 98.9830 155.5603 97.7548 C156.5858 94.3845 157.8152 91.1300 159.4280 87.9912 C164.5977 77.9285 174.2057 69.1422 184.9420 65.3850 C187.1593 64.6090 189.7125 63.7572 192.0907 63.9102 C194.3620 64.0565 196.3452 65.5967 197.7685 67.2878 C202.0560 72.3820 201.4473 81.9408 200.7867 88.1647 C200.0448 95.1575 197.9865 103.4170 194.3163 109.4693 C192.4657 112.5205 190.1570 115.2428 188.2047 118.2150 C187.5607 119.1953 186.4902 120.7405 187.3112 121.8515 C187.9155 122.6693 188.7000 122.7660 189.6515 122.8702 C193.3780 123.2790 197.1010 122.9563 200.8470 123.5587 C211.1045 125.2087 225.9940 132.1293 232.7188 140.1950 C235.0903 143.0395 235.4665 145.9342 235.1050 149.5120 C235.0788 149.7827 235.0488 150.0530 235.0157 150.3230 C228.3383 158.3703 218.8340 160.8793 208.7453 161.8092 C206.5813 162.0205 204.4025 162.0372 202.2352 161.8600 C200.0015 161.6788 188.1935 159.5385 187.0197 160.2485 C186.5385 161.7993 190.5428 170.0630 191.2482 172.0945 C191.8400 173.8285 192.3152 175.6000 192.6710 177.3972 C193.1235 179.7708 193.1562 182.2055 193.1427 184.6140 C193.1005 192.0600 191.5960 197.9223 188.3455 204.5983 C187.2750 206.7970 186.1510 209.1345 184.4705 210.9425 C182.6300 212.9225 179.9915 214.3390 177.6125 215.5703 C177.5775 215.5883 177.5415 215.6040 177.5063 215.6210 C168.7258 213.7960 160.9503 205.2003 156.2175 197.9857 C152.0015 191.5590 148.7495 183.7213 147.8970 176.0378 C146.9870 173.8777 143.9223 171.0547 142.4892 168.8115 C142.3245 168.8302 142.1600 168.8505 141.9953 168.8675 C138.8795 169.1888 135.8562 170.6358 132.7975 171.3610 C127.8132 172.5430 117.8108 172.4187 112.6827 171.6660 C109.9983 171.2717 98.9435 169.0573 97.4918 167.0872 C94.3597 165.5853 91.1635 164.0417 88.9847 161.2285 C87.4538 159.2518 86.8065 156.8905 87.1443 154.4095 C88.1267 147.1927 97.6707 138.7775 103.2818 134.6893 C103.8905 134.0323 104.5555 133.5582 105.0745 132.8065 C104.1413 130.6918 100.4232 128.7915 99.1032 126.6810 C98.8940 126.3463 98.9987 126.2708 99.0780 125.9165 C102.1208 124.0360 109.4187 130.1090 113.0375 130.0793 C113.1170 130.0785 113.1965 130.0740 113.2762 130.0715 C115.9247 129.2072 118.9043 128.9265 121.6657 128.5307 Z"></path>
<path id="" fill="#483c38" fill-opacity="1.0" stroke="#000000" stroke-width="0.0" stroke-opacity="1.0" stroke-linecap="round" stroke-linejoin="round"  filling="0" d="M97.4918 167.0872 L97.8165 167.1573 C100.9482 167.8652 103.9658 169.4750 107.1292 170.2455 C116.7900 172.5983 128.5715 172.5708 138.0307 169.4608 C141.3517 168.3690 144.4015 166.8183 147.4892 165.2068 C147.4650 168.7235 147.1873 172.5830 147.8970 176.0378 C146.9870 173.8777 143.9223 171.0547 142.4892 168.8115 C142.3245 168.8302 142.1600 168.8505 141.9953 168.8675 C138.8795 169.1888 135.8562 170.6358 132.7975 171.3610 C127.8132 172.5430 117.8108 172.4187 112.6827 171.6660 C109.9983 171.2717 98.9435 169.0573 97.4918 167.0872 Z"></path>
<path id="" fill="#473b37" fill-opacity="1.0" stroke="#000000" stroke-width="0.0" stroke-opacity="1.0" stroke-linecap="round" stroke-linejoin="round"  filling="0" d="M103.2818 134.6893 C103.8905 134.0323 104.5555 133.5582 105.0745 132.8065 C104.1413 130.6918 100.4232 128.7915 99.1032 126.6810 C98.8940 126.3463 98.9987 126.2708 99.0780 125.9165 C102.1208 124.0360 109.4187 130.1090 113.0375 130.0793 C113.1170 130.0785 113.1965 130.0740 113.2762 130.0715 C109.7682 130.6780 106.5067 133.2518 103.2818 134.6893 Z"></path>
<path id="" fill="#feabd0" fill-opacity="1.0" stroke="#000000" stroke-width="0.0" stroke-opacity="1.0" stroke-linecap="round" stroke-linejoin="round"  filling="0" d="M172.9610 259.5425 C181.4290 248.0000 195.5715 243.3510 209.2065 241.2660 C210.8355 241.0168 212.4610 240.8505 214.1095 240.8240 C213.8638 253.2250 214.7125 262.6800 208.8092 274.1425 C206.4230 278.8675 203.2332 283.1375 199.3825 286.7675 C196.2520 289.7525 192.6322 292.6350 188.9673 294.9400 C199.1255 292.6450 210.6560 295.2075 219.3885 300.6850 C223.7875 303.4450 233.8960 311.8725 235.1203 316.8900 C235.3175 317.7000 235.1783 318.3675 234.7325 319.0600 C231.4130 324.2150 219.8002 328.0075 214.1215 329.0650 C205.1610 330.7375 197.7705 328.7875 188.9785 327.7050 C189.0355 332.8200 189.3783 338.1550 188.8810 343.2425 C188.0538 351.7125 184.1512 361.2725 178.1902 367.4325 C177.2047 368.4500 176.1745 369.5125 175.0753 370.4075 C167.1945 367.5300 160.2988 361.3250 156.7997 353.6975 C152.6590 344.6725 151.7787 333.2450 154.1650 323.6375 L153.7800 323.6925 C149.7467 324.3025 145.8777 326.1725 141.8862 327.0900 C138.2962 327.9175 134.7810 328.1025 131.1130 328.1025 C121.3062 328.0975 113.6080 325.7625 105.6122 320.0225 C103.5675 318.5525 101.2595 316.9800 99.6255 315.0425 C99.6678 314.9450 99.7085 314.8450 99.7523 314.7475 C103.6032 306.0775 111.5635 299.4325 120.3455 296.1725 C124.8550 294.4975 129.8270 293.3750 134.6297 293.0475 C136.7668 292.9000 139.0635 293.1400 141.1515 292.6875 C141.3630 292.1450 141.4440 291.7600 141.1882 291.2025 C140.7200 290.1850 136.5058 287.1450 135.3273 285.9550 C125.9082 276.4450 124.1545 262.5375 127.1938 249.8810 C127.7802 247.4390 128.4395 244.8180 129.5685 242.5600 C141.7805 245.5757 153.5558 250.8125 160.3513 262.0100 C162.3938 265.3775 163.8920 269.0425 165.9747 272.3775 C166.6220 272.3175 166.8400 272.3250 167.3197 271.8250 C168.3322 270.7675 168.5558 267.7225 169.0710 266.2625 C168.6755 265.1425 167.8078 263.2400 167.9905 262.0700 C168.2057 260.6950 171.0190 261.3825 172.7402 259.7550 L172.9610 259.5425 Z"></path>
<path id="" fill="#493d39" fill-opacity="1.0" stroke="#000000" stroke-width="0.0" stroke-opacity="1.0" stroke-linecap="round" stroke-linejoin="round"  filling="0" d="M169.0710 266.2625 C168.6755 265.1425 167.8078 263.2400 167.9905 262.0700 C168.2057 260.6950 171.0190 261.3825 172.7402 259.7550 L172.9610 259.5425 C171.6078 261.7050 170.0943 263.9250 169.0710 266.2625 Z"></path>
<path id="" fill="#feabd1" fill-opacity="1.0" stroke="#000000" stroke-width="0.0" stroke-opacity="1.0" stroke-linecap="round" stroke-linejoin="round"  filling="0" d="M261.9075 349.5100 C261.6325 346.3325 261.1975 343.1875 261.1550 339.9950 C261.0400 331.2150 263.5425 321.7250 269.2775 314.8850 C273.6700 309.6475 279.7300 306.3450 285.3075 302.5900 C284.9825 302.0100 279.7300 299.9050 278.7100 299.3925 C267.0775 293.5325 258.9700 283.0200 257.4175 269.9825 C257.0200 266.6325 256.3475 262.0875 257.1900 258.8325 C257.4525 257.8200 258.0125 257.0550 258.9375 256.5525 C262.7925 254.4500 277.6425 257.2775 281.6000 258.6325 C288.9650 261.1525 294.7950 264.5075 300.4050 269.8675 C301.6425 271.0500 303.4825 273.3550 305.3650 272.9775 C306.5875 271.8725 307.5925 265.7050 308.1650 263.8275 C311.8775 251.9325 320.4900 242.1882 331.8400 237.0420 C334.4100 235.9032 338.1750 233.8307 340.9950 233.8035 C342.2500 234.3817 342.8900 235.7340 343.3475 236.9700 C347.3775 247.8430 347.2900 264.6150 342.3350 275.1450 C341.5250 276.8650 338.6525 280.8475 338.8725 282.5925 C340.6075 283.5850 344.0875 282.9450 346.1150 283.0125 C356.0125 283.3450 365.1400 286.4325 372.8525 292.6125 C374.6550 294.0575 377.3750 295.9975 378.0200 298.3225 C378.4950 300.0225 378.1425 301.6825 377.2150 303.1525 C376.1800 304.7975 374.6125 306.1975 373.1975 307.5150 C367.5875 312.7325 361.4750 315.6175 353.9825 317.1925 C350.2425 317.9775 346.5300 318.1250 342.7350 317.7550 C341.3150 317.6175 336.7250 316.7350 335.6975 317.1475 C335.2350 319.2200 338.4950 328.5100 339.1425 331.3450 C341.0800 339.8175 340.5125 345.9725 340.2850 354.4100 C337.9700 356.4125 337.3900 367.9025 332.0950 370.5500 C329.3300 367.4275 326.0725 365.2025 322.3125 363.4500 C320.5800 362.8750 318.8325 362.3500 317.2175 361.4800 C316.7000 358.7950 315.7325 357.2900 314.3200 354.9750 C310.4325 349.7650 306.6050 344.6375 304.2075 338.5250 C303.4050 336.4825 302.9275 334.4225 302.2425 332.3650 C302.0625 332.3850 295.7450 339.1575 294.9350 339.8700 C290.2700 343.9500 284.7900 346.9900 278.8600 348.7925 C277.2675 349.2700 275.4250 349.2325 273.9425 349.9450 C271.5450 350.4525 263.9225 348.8700 261.9075 349.5100 Z"></path>
<path id="" fill="#483b38" fill-opacity="1.0" stroke="#000000" stroke-width="0.0" stroke-opacity="1.0" stroke-linecap="round" stroke-linejoin="round"  filling="0" d="M314.3200 354.9750 C316.3025 357.0675 321.1825 361.3575 322.3125 363.4500 C320.5800 362.8750 318.8325 362.3500 317.2175 361.4800 C316.7000 358.7950 315.7325 357.2900 314.3200 354.9750 Z"></path>
<path id="" fill="#feddef" fill-opacity="1.0" stroke="#000000" stroke-width="0.0" stroke-opacity="1.0" stroke-linecap="round" stroke-linejoin="round"  filling="0" d="M393.0350 319.5525 C397.5800 323.1775 402.9825 337.4225 403.6525 343.2600 C404.3425 349.2675 403.8125 356.4600 400.9675 361.9025 C405.0375 359.0400 411.2475 358.4800 416.0250 357.1650 C418.2525 356.5275 420.4300 355.7200 422.5350 354.7525 L423.2150 357.4550 C426.8925 358.6600 436.8175 361.5050 438.8700 364.5225 C439.5400 365.5075 439.1100 367.2975 438.7625 368.3200 C436.1600 375.9975 429.0400 382.2400 421.9050 385.6100 C420.1825 386.4275 418.3900 387.0925 416.5525 387.5950 C414.2125 388.2325 409.6200 388.3775 407.8400 389.8500 C407.7525 390.5000 407.8775 390.9550 408.1375 391.5450 C409.0225 393.5550 410.4900 395.4050 411.6450 397.2800 C413.2975 399.9550 414.7275 402.8300 415.9650 405.7200 C417.8250 410.0650 419.2050 414.6175 419.7875 419.3150 C420.4375 424.5550 419.8875 429.3125 418.8175 434.4300 C408.8375 431.2875 399.3825 427.3550 391.7325 419.9825 C390.1675 418.4750 384.4400 410.2250 383.4200 410.8750 C381.6825 411.9800 380.3325 415.4275 379.3225 417.1900 C373.2200 427.8375 363.3100 432.6550 351.4850 434.1675 C347.9200 423.3625 346.7125 413.2425 351.9925 402.7350 C353.1025 400.5300 354.3675 398.4475 355.9175 396.5225 C356.9300 395.2650 360.9225 391.7050 361.2050 390.4925 C360.7675 389.6550 359.9350 389.4950 359.0600 389.2250 C350.0575 386.4350 342.9575 384.8075 336.7250 377.0525 C335.0550 374.9750 333.7375 372.6425 332.0950 370.5500 C337.3900 367.9025 337.9700 356.4125 340.2850 354.4100 C350.2650 352.4250 361.4450 354.3875 369.9800 360.0275 C371.0950 360.7725 372.1725 361.5700 373.2100 362.4200 C370.9950 356.1150 372.0100 345.3625 374.9300 339.3075 C378.8025 331.2775 384.1975 322.9375 392.9050 319.6050 C392.9500 319.5875 392.9925 319.5700 393.0350 319.5525 Z"></path>
<path id="" fill="#fedef0" fill-opacity="1.0" stroke="#000000" stroke-width="0.0" stroke-opacity="1.0" stroke-linecap="round" stroke-linejoin="round"  filling="0" d="M261.9075 349.5100 C263.9225 348.8700 271.5450 350.4525 273.9425 349.9450 C278.5200 350.9350 282.4375 353.7750 287.1275 354.5250 C287.1075 359.4975 286.5625 364.6550 284.6450 369.2875 C283.6375 371.7225 282.2875 374.2200 281.7525 376.8050 C285.2950 377.0175 288.8425 376.8925 292.3800 377.2350 C302.6350 378.2275 308.8225 381.2250 315.4025 389.1625 C314.4050 391.4925 312.6125 393.8425 310.8825 395.6825 C304.9250 402.0225 296.2575 404.9050 287.6650 404.6775 C284.9725 404.6050 282.4925 404.0075 279.7425 404.0925 C281.2075 410.0825 283.9825 415.6825 284.9025 421.8200 C285.8300 428.0200 284.9600 437.1400 283.2425 443.0950 C282.9375 444.1550 282.5575 445.8025 281.8025 446.6075 C281.3025 447.1400 281.0450 447.2475 280.3225 447.2200 C276.4700 447.0700 267.9325 439.5700 265.3425 436.7775 C262.9000 434.1425 260.6150 431.1075 258.6850 428.0675 C257.3900 426.0325 255.8200 421.3050 254.1200 419.9025 C253.6575 419.5200 253.3825 419.7025 252.8875 419.9675 C251.1000 420.9250 247.4897 425.1850 245.1510 426.9075 C237.7888 432.3275 231.0195 433.1800 222.1998 434.1000 C220.2973 429.0800 220.6755 422.6675 221.7160 417.4650 C222.8745 411.6725 226.4215 404.6000 230.9668 400.7275 C232.8922 399.0875 235.1893 397.8400 237.2812 396.4250 C238.0460 395.9075 238.9575 395.4050 239.1358 394.4750 C238.1500 392.7825 231.5663 390.3650 229.4283 388.9950 C227.1817 387.5575 225.1465 385.8075 223.2578 383.9300 C215.6840 376.4000 214.9830 368.2050 214.9645 357.9650 C232.4720 357.8700 237.6277 356.9475 251.6025 369.0800 C252.5775 369.9275 254.0150 371.2900 255.3725 371.1975 C256.3750 368.2750 256.0925 364.8750 256.9700 361.8400 C258.2125 357.5450 260.5750 353.7350 261.9075 349.5100 Z"></path>
<path id="" fill="#ffd2e9" fill-opacity="1.0" stroke="#000000" stroke-width="0.0" stroke-opacity="1.0" stroke-linecap="round" stroke-linejoin="round"  filling="0" d="M428.3200 247.6975 C429.0450 247.7065 429.6650 247.7565 430.3175 248.0990 C434.1825 250.1225 438.8500 258.2850 440.0875 262.3225 C440.4300 263.4350 440.9025 264.6200 441.0700 265.7725 C441.1450 266.2900 441.1900 266.3700 440.8675 266.8000 C436.5700 266.7850 434.4150 259.7325 429.8850 259.0625 C427.5250 258.7125 424.9750 260.2850 423.1625 261.6500 L422.9050 261.8450 C420.4475 264.6700 419.1075 272.4275 417.5850 274.3275 C417.1925 274.8175 416.7550 275.0750 416.1300 275.1275 C415.7000 274.8950 415.7175 274.9925 415.5150 274.6250 C414.6275 273.0200 414.8675 269.1850 415.3650 267.4275 C417.1475 261.1250 422.5150 251.1100 428.3200 247.6975 Z"></path>
<path id="" fill="#ffabd1" fill-opacity="1.0" stroke="#000000" stroke-width="0.0" stroke-opacity="1.0" stroke-linecap="round" stroke-linejoin="round"  filling="0" d="M325.2500 150.3517 C329.7750 149.5955 335.5325 150.7075 339.8875 151.9190 C350.2550 154.8038 359.3825 162.9105 364.6350 172.1455 C355.9150 179.1823 343.1350 183.1650 332.1900 184.7815 C325.8000 185.8335 317.7950 184.3228 311.9925 181.5430 C304.0400 177.7323 295.5000 169.1745 292.5700 160.7973 C301.6325 155.1953 314.7550 151.4145 325.2500 150.3517 Z"></path>
<path id="" fill="#f982aa" fill-opacity="1.0" stroke="#000000" stroke-width="0.0" stroke-opacity="1.0" stroke-linecap="round" stroke-linejoin="round"  filling="0" d="M165.6835 114.7810 C166.3687 114.8272 166.9500 114.8798 167.5660 115.2068 C168.9718 115.9530 170.7307 117.8915 171.1178 119.4498 C171.9355 122.7425 166.9008 126.4740 165.0668 129.6570 C169.3228 130.4605 176.3743 131.0575 179.2785 134.5770 C179.9190 135.3533 180.2605 136.3058 180.1555 137.3160 C179.9715 139.0890 178.6147 140.9527 177.2063 141.9772 C176.5508 142.4540 175.7502 142.8320 174.9265 142.8483 C172.7287 142.8918 169.5140 141.6577 167.3005 141.2145 C165.7390 140.9015 164.1537 140.7832 162.5773 140.5683 C163.2920 143.3898 166.7710 153.3013 165.8500 155.4470 C165.2592 156.8230 162.7383 158.9085 161.3082 159.3490 C160.4082 159.6265 159.4380 159.4812 158.6328 159.0010 C154.9035 156.7760 154.0148 150.6765 153.0013 146.8060 C152.6962 145.5515 152.1543 144.3107 151.7110 143.0970 C151.3015 143.2230 150.8978 143.3615 150.4915 143.4975 C147.4975 144.5005 145.0915 146.7265 142.1240 147.7578 C140.5965 148.2885 138.7283 148.5912 137.2395 147.7697 C135.8975 147.0293 135.2045 145.4845 134.8647 144.0575 C133.2643 137.3345 142.6645 137.3530 145.1747 133.2433 C145.4897 130.0260 139.2863 127.0165 138.0488 124.0283 C137.5408 122.8018 137.7397 121.4277 138.2847 120.2477 C138.9868 118.7282 140.2408 117.5598 141.8387 117.0495 C147.1545 115.3515 149.0220 122.1693 152.8445 124.0535 C153.5457 124.3990 154.1940 124.5023 154.9225 124.1445 C158.2863 122.4928 159.3595 116.9247 165.6835 114.7810 Z"></path>
<path id="" fill="#ffabd1" fill-opacity="1.0" stroke="#000000" stroke-width="0.0" stroke-opacity="1.0" stroke-linecap="round" stroke-linejoin="round"  filling="0" d="M108.0575 382.6600 C109.3865 382.7400 110.7405 383.0925 112.0178 383.4625 C114.7145 384.2450 117.2100 385.5225 119.6892 386.8175 C127.8880 391.1050 134.1320 396.2900 138.6228 404.4725 C142.4763 411.4925 144.2820 421.1025 142.0403 428.8775 C141.5170 429.2325 141.2482 429.2400 140.6378 429.2100 C132.1277 428.8050 123.9915 424.8650 118.1533 418.7550 C108.9857 409.1600 107.7072 395.3050 108.0575 382.6600 Z"></path>
<path id="" fill="#f45885" fill-opacity="1.0" stroke="#000000" stroke-width="0.0" stroke-opacity="1.0" stroke-linecap="round" stroke-linejoin="round"  filling="0" d="M317.9275 279.7825 C318.5875 279.7900 319.3250 279.8350 319.9575 280.0225 C321.1775 280.3850 322.2275 281.2050 322.7525 282.3775 C324.3625 285.9850 321.5750 291.4025 320.2950 294.8675 C322.9775 295.0100 326.2800 294.5825 328.7300 295.8000 C330.8000 296.8275 331.4975 298.5500 332.2375 300.5900 C331.7175 301.9775 331.0100 303.6250 329.9200 304.6550 C327.5525 306.8950 322.8550 306.0475 319.7950 305.9650 C320.4750 309.8325 322.4100 317.7625 320.4425 321.1825 C319.6900 322.4900 318.3700 323.5450 316.9050 323.9200 C315.6050 324.2375 314.2350 324.0200 313.0975 323.3175 C309.2025 320.9475 310.6950 315.1725 309.7125 311.8925 C309.5575 311.3725 309.5350 311.3725 309.0400 311.1000 L308.2500 311.5975 C305.6650 313.4375 303.9775 316.5375 300.7025 317.3700 C299.6575 317.6350 298.5525 317.5250 297.6525 316.8975 C296.2900 315.9450 295.1075 314.1500 294.9025 312.4875 C294.3850 308.2975 301.0025 303.7375 303.4900 300.6350 L303.7775 300.2750 C301.4000 298.4800 296.4025 297.1625 295.1225 294.3525 C294.5800 293.1600 294.7725 291.7650 295.2975 290.6050 C295.9750 289.1100 297.3025 287.6375 298.8750 287.0700 C301.8200 286.0050 307.1500 289.5600 309.7975 290.8025 C311.3750 288.6475 311.9400 285.5650 313.3000 283.2100 C314.5050 281.1250 315.6700 280.3725 317.9275 279.7825 Z"></path>
<path id="" fill="#f982aa" fill-opacity="1.0" stroke="#000000" stroke-width="0.0" stroke-opacity="1.0" stroke-linecap="round" stroke-linejoin="round"  filling="0" d="M383.3375 362.7300 C385.0900 362.9775 386.9000 363.4600 388.1775 364.7625 C390.2425 366.8700 390.0725 369.9950 390.0800 372.7175 C392.7375 372.3550 397.1550 370.3925 399.6800 371.2475 C401.0600 371.7125 402.0725 372.7700 402.6375 374.0900 C403.2325 375.4775 403.5600 377.0050 402.9150 378.4350 C401.3550 381.8900 396.2125 382.3400 393.1050 383.6475 L392.8025 383.7775 C394.3875 385.9925 396.2950 389.7300 396.1475 392.5150 C396.0700 393.9975 395.4700 395.4575 394.3150 396.4225 C393.2850 397.2875 391.9575 397.5675 390.6425 397.3900 C387.8500 397.0075 386.4600 394.7125 384.9500 392.6200 L384.5200 391.6575 C384.4150 391.6325 384.3075 391.5500 384.2050 391.5825 C384.0575 391.6300 380.9350 396.0800 379.4225 396.8575 C378.0525 397.5600 375.5725 397.2175 374.1775 396.6725 C373.2675 396.3175 372.5950 395.6775 372.2475 394.7575 C370.9725 391.3775 374.2175 386.4950 375.6025 383.4975 C373.5425 382.7100 371.3425 382.3150 369.3025 381.4875 C367.8425 380.8925 366.7025 379.9450 366.1525 378.4275 C365.6000 376.9000 365.7700 375.1450 366.5300 373.7175 C369.6050 367.9500 375.1850 373.4900 378.7100 372.4325 C379.1600 370.7950 378.9700 368.7250 378.9875 367.0150 C380.0525 365.0975 381.4025 363.7650 383.3375 362.7300 Z"></path>
<path id="" fill="#f45885" fill-opacity="1.0" stroke="#000000" stroke-width="0.0" stroke-opacity="1.0" stroke-linecap="round" stroke-linejoin="round"  filling="0" d="M173.6590 284.9800 C174.6260 284.9300 175.3757 285.0575 176.2670 285.4500 C178.5098 286.4375 179.4353 288.4425 180.2445 290.5950 C179.0020 293.5900 176.5525 295.7200 175.3963 298.7075 C177.3212 298.8150 179.3290 298.8375 181.2320 299.1425 C183.1723 299.4500 185.2840 300.1800 186.4245 301.8900 C187.2910 303.1875 187.4765 304.9725 187.1700 306.4775 C186.9323 307.6450 186.3302 308.6175 185.3158 309.2675 C182.3740 311.1500 176.3438 309.7400 173.1790 308.9225 C173.3075 311.7200 173.2605 314.6675 172.9605 317.4525 C172.2142 318.4075 171.2932 319.5900 170.2973 320.2800 C169.3500 320.9375 168.1543 321.2700 167.0135 321.0575 C165.0802 320.6975 163.5725 319.0225 162.5365 317.4700 C161.6185 314.6100 162.7400 311.4800 163.0705 308.5725 C160.2038 309.0050 157.9393 310.0550 155.3497 311.2725 C153.3895 310.4575 150.9135 309.1800 150.0665 307.1200 C149.6297 306.0575 149.7003 304.8925 150.1613 303.8525 C151.4892 300.8550 155.0267 299.3750 157.8660 298.2175 C156.7285 296.6750 155.0730 293.9925 154.8865 292.0675 C154.7832 291.0000 155.3095 290.0375 155.9928 289.2550 C157.1082 287.9775 158.8257 286.9000 160.5555 286.8150 C162.8602 286.7050 164.9820 289.2975 166.5985 290.7325 C168.8345 288.6225 170.9280 286.4500 173.6590 284.9800 Z"></path>
<path id="" fill="#f982aa" fill-opacity="1.0" stroke="#000000" stroke-width="0.0" stroke-opacity="1.0" stroke-linecap="round" stroke-linejoin="round"  filling="0" d="M263.4950 375.7450 C264.5275 375.7625 265.5550 375.7675 266.4925 376.2500 C268.5075 377.2875 269.3875 379.3050 270.0275 381.3625 C269.6075 382.8950 269.2075 384.4350 268.8250 385.9775 C271.3700 385.8750 274.0375 385.4950 276.0550 387.3950 C277.0000 388.2825 277.4750 389.4300 277.4625 390.7250 C277.4450 392.3225 276.7650 393.8025 275.6125 394.8950 C273.6675 396.7375 271.3450 397.0200 268.8050 396.9375 C269.1175 398.5025 269.8700 400.2900 269.9450 401.8550 C270.0225 403.4100 269.2300 405.3800 268.1000 406.4500 C267.1425 407.3550 265.8150 407.8900 264.4925 407.8300 C262.2175 407.7275 260.7150 406.2000 259.3200 404.5850 C259.0200 403.8350 258.8150 403.0625 258.5950 402.2875 C257.9850 401.8200 257.7400 402.1650 257.0575 402.4150 C255.1100 403.1300 253.8000 403.0750 251.7375 402.9825 C251.1200 402.5875 250.4300 402.1275 249.9640 401.5575 C248.6370 399.9350 248.8240 397.9575 249.0177 396.0150 C250.1175 394.3600 251.3600 392.8875 252.6600 391.3875 C250.9000 390.0850 248.3418 388.5450 247.3570 386.5375 C246.8607 385.5250 246.6147 384.2525 247.0367 383.1750 C247.5517 381.8575 248.9225 380.9825 250.1925 380.5050 C253.0100 379.4475 255.6050 380.2575 258.2000 381.4475 C259.5425 379.0175 260.8850 376.9525 263.4950 375.7450 Z"></path>
<path id="" fill="#ffabd1" fill-opacity="1.0" stroke="#000000" stroke-width="0.0" stroke-opacity="1.0" stroke-linecap="round" stroke-linejoin="round"  filling="0" d="M322.8400 428.7825 C323.6975 428.8650 324.5050 429.0475 325.2650 429.4750 C326.7000 430.2850 327.7200 431.6675 328.0725 433.2750 C328.3625 434.5825 328.1725 435.9475 327.4375 437.0775 C326.4675 438.5650 325.1275 439.0150 323.4575 439.3100 C322.5600 439.2650 321.6175 439.2275 320.7750 438.8800 C319.5950 438.3950 318.5700 437.3575 318.0975 436.1725 C317.5550 434.8100 317.5675 433.1975 318.2250 431.8775 C319.1900 429.9300 320.9150 429.3850 322.8400 428.7825 Z"></path>
<path id="" fill="#ffabd1" fill-opacity="1.0" stroke="#000000" stroke-width="0.0" stroke-opacity="1.0" stroke-linecap="round" stroke-linejoin="round"  filling="0" d="M69.4795 273.7700 C70.7060 273.7175 71.8185 273.7475 72.8893 274.4250 C74.0818 275.1775 74.8750 276.3825 75.1755 277.7525 C75.5210 279.2625 75.2325 280.8500 74.3775 282.1425 C73.4605 283.5175 72.2498 283.9600 70.6970 284.3050 C69.6035 284.2650 68.4965 284.0750 67.4100 283.9425 C66.7353 283.2200 66.1165 282.3700 65.6600 281.4950 C65.0390 280.3025 64.7785 278.9400 65.2412 277.6475 C65.8922 275.8300 67.8033 274.5400 69.4795 273.7700 Z"></path>
<path id="" fill="#ffdef0" fill-opacity="1.0" stroke="#000000" stroke-width="0.0" stroke-opacity="1.0" stroke-linecap="round" stroke-linejoin="round"  filling="0" d="M237.0228 81.7385 C237.5123 81.7360 238.0298 81.7265 238.5100 81.8325 C239.9085 82.1405 241.5275 83.3568 242.2677 84.5795 C242.9610 85.7253 243.1815 87.0590 242.7740 88.3467 C242.1718 90.2490 240.6927 91.1810 239.0388 92.0710 C238.5705 92.1710 238.1682 92.2490 237.6848 92.2080 C236.6817 92.1233 235.0855 91.1815 234.4260 90.4105 C233.5878 89.4300 233.1152 88.0728 233.3050 86.7848 C233.6255 84.6095 235.3242 82.9637 237.0228 81.7385 Z"></path>
<path id="" fill="#ffdef0" fill-opacity="1.0" stroke="#000000" stroke-width="0.0" stroke-opacity="1.0" stroke-linecap="round" stroke-linejoin="round"  filling="0" d="M394.8925 150.7713 C396.1100 150.8470 397.0450 151.2175 397.8825 152.1422 C399.4375 153.8640 399.2425 156.3922 399.1200 158.5325 C397.5825 159.7478 396.1425 160.6350 394.2625 161.2453 C394.1400 161.1955 394.0150 161.1515 393.8950 161.0955 C392.4625 160.4270 390.6875 158.6452 390.1450 157.1647 C389.7575 156.1033 389.7275 154.9122 390.2175 153.8783 C391.1500 151.9093 392.9725 151.3825 394.8925 150.7713 Z"></path>
</svg>