<svg xmlns="http://www.w3.org/2000/svg" viewBox="0 0 512 512" height="512.0px" width="512.0px">
<path id="" fill="#acb9d4" fill-opacity="1.0" stroke="#000000" stroke-width="0.0" stroke-opacity="1.0" stroke-linecap="round" stroke-linejoin="round"  filling="0" d="M294.9350 233.6998 C295.2275 233.7410 295.4925 233.7815 295.7750 233.8780 C301.1225 235.7122 311.2150 242.2213 316.5275 245.3540 C323.3125 249.3553 330.2850 253.1550 337.1725 256.9875 C366.1750 272.9450 395.0125 289.2050 423.6775 305.7625 L448.3850 319.8575 C450.4925 321.0700 452.6775 322.1650 454.7500 323.4325 C456.2775 324.3675 458.1300 325.4400 458.9225 327.0975 C460.6250 330.6550 461.1575 334.0950 461.1725 338.0325 C461.2075 347.5825 457.4750 358.0600 450.6200 364.8500 C441.7175 373.6700 433.0300 376.0775 420.8750 376.0125 L330.7800 376.0075 L304.1900 376.0275 C298.7725 376.0325 293.1225 376.3525 287.7500 375.6575 C277.8500 374.3750 268.4375 368.4875 262.4400 360.5475 C256.2525 352.3575 253.1000 341.3750 254.5550 331.1525 C256.3450 318.5650 262.0075 307.3725 266.8150 295.7800 L280.4575 262.6350 C282.1775 258.4500 284.0525 254.2925 285.6625 250.0650 C286.9575 246.6595 287.8800 243.0360 289.5750 239.8000 C290.8350 237.3975 292.7825 235.3262 294.9350 233.6998 Z"></path>
<path id="" fill="#e9ebfc" fill-opacity="1.0" stroke="#000000" stroke-width="0.0" stroke-opacity="1.0" stroke-linecap="round" stroke-linejoin="round"  filling="0" d="M275.7250 374.6775 C272.7650 373.7350 264.4250 375.5025 260.9400 375.8125 C258.3350 376.0425 255.7000 376.0850 253.0875 376.0875 C249.2238 376.0900 245.3862 375.3675 241.5610 375.3900 C238.8378 375.4075 236.1245 375.9200 233.3943 375.9150 C230.4982 375.9125 227.6045 375.3800 224.7110 375.4675 C222.2578 375.5450 219.7818 375.9750 217.3313 375.9400 C214.9673 375.9050 212.6118 375.2950 210.2482 375.3050 C207.5155 375.3150 204.7830 375.8525 202.0450 375.8825 C199.3208 375.9125 196.6048 375.3900 193.8793 375.4600 C191.2482 375.5300 188.6170 375.9900 185.9850 375.9600 C183.2195 375.9275 180.4760 375.2575 177.7112 375.1650 C175.1467 375.0800 172.6142 375.7850 170.0615 375.7700 C167.8542 375.7575 165.5797 375.3175 163.3768 375.1200 C161.3360 374.9375 159.2770 374.9750 157.2298 374.9800 C154.1775 374.9900 151.0932 374.9525 148.0493 375.1750 C145.0810 375.3950 142.0887 375.8825 139.1133 375.9125 C136.0250 375.9450 132.9487 375.1525 129.8765 375.2475 C127.0428 375.3375 124.2217 375.8525 121.3842 375.9675 C112.7650 376.3175 104.2697 375.9275 95.6870 375.3200 C91.9480 375.0550 88.2093 374.9425 84.5330 374.1525 C73.9020 371.8700 64.2657 364.4550 58.5065 355.3825 C53.5975 347.6525 51.9362 339.4500 51.9268 330.4050 C51.9238 327.3600 52.0052 324.4375 52.6805 321.4550 C54.3143 314.2350 57.0725 307.2050 59.6082 300.2625 C61.9222 293.9275 64.0960 287.6250 66.6022 281.3550 C71.6550 268.7150 76.7890 256.0475 82.6120 243.7400 C95.8737 215.4767 112.6363 188.9928 132.5047 164.9113 C137.9252 158.3875 146.6480 148.2652 153.6803 143.8235 C164.0878 137.2498 176.8135 134.4812 188.8785 137.2405 C196.0408 138.8788 202.5915 142.4142 208.3027 146.9980 C214.9662 152.3460 220.5330 159.4035 225.9115 165.9942 C236.0820 178.4570 245.7525 191.2820 254.1725 205.0125 C258.7650 212.4995 262.9150 220.3645 267.0750 228.1015 C269.0975 231.8607 271.0550 235.7652 272.8050 239.6582 C275.0550 244.6633 277.0975 249.6503 280.0100 254.3275 C281.4475 254.0425 282.8950 254.0075 284.3525 253.9425 C283.7800 255.9675 283.0475 258.0600 282.8800 260.1650 C287.6400 272.4950 292.7350 284.6600 297.3475 297.0550 C301.1725 307.3400 305.9600 319.1375 306.5200 330.1150 C306.8500 336.5850 305.2675 343.5775 302.6850 349.4725 C299.0525 357.7650 293.9675 363.1950 286.7775 368.4575 C285.5375 369.3625 283.8225 370.9500 282.4500 371.5000 C282.2575 372.6025 282.1825 374.4700 281.1600 375.1175 C279.8625 375.9400 277.1700 374.9675 275.7250 374.6775 Z"></path>
<path id="" fill="#acb9d4" fill-opacity="1.0" stroke="#000000" stroke-width="0.0" stroke-opacity="1.0" stroke-linecap="round" stroke-linejoin="round"  filling="0" d="M275.7250 374.6775 C277.1075 373.0600 280.4550 372.3975 282.4500 371.5000 C282.2575 372.6025 282.1825 374.4700 281.1600 375.1175 C279.8625 375.9400 277.1700 374.9675 275.7250 374.6775 Z"></path>
<path id="" fill="#acb9d4" fill-opacity="1.0" stroke="#000000" stroke-width="0.0" stroke-opacity="1.0" stroke-linecap="round" stroke-linejoin="round"  filling="0" d="M280.0100 254.3275 C281.4475 254.0425 282.8950 254.0075 284.3525 253.9425 C283.7800 255.9675 283.0475 258.0600 282.8800 260.1650 C282.8025 259.7775 282.7375 259.5175 282.5225 259.1775 C281.6075 257.7250 280.5800 255.9425 280.0100 254.3275 Z"></path>
<path id="" fill="#e9ebfb" fill-opacity="1.0" stroke="#000000" stroke-width="0.0" stroke-opacity="1.0" stroke-linecap="round" stroke-linejoin="round"  filling="0" d="M352.4650 178.0885 C357.7225 177.5733 362.8275 178.1975 367.7825 180.0500 C371.6425 181.4935 375.7850 183.5797 379.0275 186.1370 C381.9550 188.4465 384.3325 191.5155 386.9075 194.2023 C392.3100 199.8372 397.0825 205.8383 401.7975 212.0502 C416.7875 231.8548 429.3050 253.4125 439.0750 276.2475 C440.3375 279.1275 441.3975 282.1075 442.6200 285.0075 C444.6600 289.8425 446.8450 294.6550 448.6625 299.5800 C451.8500 308.2050 454.6600 316.9525 458.4850 325.3225 C453.0575 326.3750 450.7825 332.4950 444.6800 334.3675 C436.3525 336.9225 426.8825 336.0350 418.2425 336.0350 L394.1250 336.0200 L359.9225 336.0400 C354.0725 336.0450 347.8250 336.4800 342.0075 335.8900 C339.2550 335.6125 336.5450 334.8800 333.9625 333.8925 C328.7875 331.9125 323.8700 327.3925 320.9575 322.7250 C315.9475 314.7000 312.2725 302.1475 309.1675 293.0225 C307.1375 287.2100 304.9800 281.4400 302.6950 275.7225 C299.0075 266.4675 295.4075 257.0925 291.0750 248.1167 C290.3800 246.6780 288.5000 245.5145 288.1175 244.1330 C287.8100 243.0298 288.8450 241.1862 289.3800 240.2332 C290.7875 237.7230 292.7250 235.4702 294.3200 233.0705 C297.8350 227.7888 301.1525 222.3555 304.9725 217.2840 C310.1375 210.4238 315.5425 203.4547 321.2675 197.0658 C323.5500 194.5180 325.6225 191.7310 328.0750 189.3452 C334.6050 182.9888 343.5625 179.3262 352.4650 178.0885 Z"></path>
<path id="" fill="#636b77" fill-opacity="1.0" stroke="#000000" stroke-width="0.0" stroke-opacity="1.0" stroke-linecap="round" stroke-linejoin="round"  filling="0" d="M156.6432 272.0800 C164.0980 271.7475 171.6490 271.9650 179.1165 271.9625 C185.6445 271.9625 192.2720 271.7100 198.7838 272.0625 C203.7003 272.3275 208.2995 273.3325 211.6718 277.1850 C213.9243 279.7575 215.0515 283.0450 215.5535 286.3825 C216.2092 290.7425 216.0150 295.2850 216.0040 299.6850 L215.9875 316.9625 C215.9928 336.7300 216.4630 356.5550 215.2985 376.2875 C210.9670 376.2125 206.6472 376.0750 202.3125 376.0525 L163.9220 376.0450 C156.6738 376.0450 149.2450 375.7300 142.0210 376.2800 C142.3445 354.9950 142.0267 333.6575 142.0237 312.3675 L142.0210 295.7350 C142.0200 292.0400 141.8075 288.2300 142.3385 284.5675 C142.6873 282.1600 143.9200 279.7575 145.3963 277.8325 C148.2402 274.1275 152.1817 272.6875 156.6432 272.0800 Z"></path>
<path id="" fill="#636b77" fill-opacity="1.0" stroke="#000000" stroke-width="0.0" stroke-opacity="1.0" stroke-linecap="round" stroke-linejoin="round"  filling="0" d="M324.4275 323.2775 C325.3375 322.2625 325.0275 320.2300 325.0200 318.9200 L324.9850 308.6250 C324.9775 305.8275 324.7900 302.8525 325.3700 300.1050 C326.7425 293.6300 331.9600 290.4075 338.2375 290.0625 C343.2275 289.7875 348.3250 290.0375 353.3250 290.0350 C359.9950 290.0325 370.2500 289.3525 376.3825 290.7025 C378.3475 291.1325 380.1625 292.0800 381.6400 293.4425 C385.1950 296.7450 385.9475 301.2625 386.0350 305.8625 C386.1875 313.8050 386.2375 321.9250 385.9800 329.8650 C386.1950 333.3550 386.0375 336.9525 386.0400 340.4525 L386.0225 363.0825 C386.0200 367.4725 385.8800 371.9050 386.1450 376.2875 C383.0225 375.9200 379.7500 376.0775 376.6050 376.0750 L361.3225 376.0700 L339.0600 376.0750 C334.3725 376.0775 329.6525 375.9725 324.9700 376.2325 C325.0000 370.6325 325.4300 330.0850 324.7000 328.2300 C324.0450 327.5000 323.3100 326.6275 323.2325 325.6025 C323.1550 324.5550 323.7325 323.9400 324.4275 323.2775 Z"></path>
<path id="" fill="#373d4c" fill-opacity="1.0" stroke="#000000" stroke-width="0.0" stroke-opacity="1.0" stroke-linecap="round" stroke-linejoin="round"  filling="0" d="M325.1075 326.8625 L325.4575 326.3950 C327.0025 326.9000 328.6625 328.5450 330.0650 329.4500 C333.4500 331.6350 336.8125 333.1775 340.6850 334.2900 C350.3100 337.0575 366.3025 336.0450 376.7600 336.0325 C379.7100 336.0300 382.8000 335.8475 385.7275 336.1850 C385.7600 334.1600 385.5725 331.8400 385.9800 329.8650 C386.1950 333.3550 386.0375 336.9525 386.0400 340.4525 L386.0225 363.0825 C386.0200 367.4725 385.8800 371.9050 386.1450 376.2875 C383.0225 375.9200 379.7500 376.0775 376.6050 376.0750 L361.3225 376.0700 L339.0600 376.0750 C334.3725 376.0775 329.6525 375.9725 324.9700 376.2325 C325.0000 370.6325 325.4300 330.0850 324.7000 328.2300 C324.9125 327.8200 324.9900 327.3075 325.1075 326.8625 Z"></path>
<path id="" fill="#acb9d4" fill-opacity="1.0" stroke="#000000" stroke-width="0.0" stroke-opacity="1.0" stroke-linecap="round" stroke-linejoin="round"  filling="0" d="M324.4275 323.2775 C324.9500 323.6675 325.0125 323.6950 325.1075 324.3750 C325.2225 325.2075 325.0375 326.0350 325.1075 326.8625 C324.9900 327.3075 324.9125 327.8200 324.7000 328.2300 C324.0450 327.5000 323.3100 326.6275 323.2325 325.6025 C323.1550 324.5550 323.7325 323.9400 324.4275 323.2775 Z"></path>
<path id="" fill="#acb9d3" fill-opacity="1.0" stroke="#000000" stroke-width="0.0" stroke-opacity="1.0" stroke-linecap="round" stroke-linejoin="round"  filling="0" d="M132.3423 206.6992 C133.3040 206.7830 134.1767 206.9673 135.0665 207.3550 C137.4240 208.3825 138.3873 210.3228 139.3073 212.5645 C138.2238 215.1228 137.1497 217.0950 134.4913 218.2415 C133.9380 218.2478 133.3655 218.2603 132.8190 218.1635 C131.2500 217.8855 129.6297 216.7677 128.7818 215.4247 C127.9850 214.1625 127.7223 212.6275 128.1360 211.1862 C128.7437 209.0695 130.4857 207.7080 132.3423 206.6992 Z"></path>
<path id="" fill="#acb9d4" fill-opacity="1.0" stroke="#000000" stroke-width="0.0" stroke-opacity="1.0" stroke-linecap="round" stroke-linejoin="round"  filling="0" d="M316.2750 236.7823 C316.8525 236.8850 317.3550 237.0155 317.8925 237.2550 C319.6325 238.0315 321.1725 239.3800 321.8025 241.2193 C322.2325 242.4733 322.1550 243.7905 321.5075 244.9535 C320.5350 246.6980 318.7175 247.7670 316.8700 248.3537 C316.3950 248.3015 315.9225 248.2527 315.4625 248.1152 C313.9100 247.6515 312.2425 246.4715 311.5025 245.0002 C310.9050 243.8082 310.8550 242.4483 311.3225 241.2030 C312.1975 238.8777 314.1025 237.6925 316.2750 236.7823 Z"></path>
<path id="" fill="#acb9d4" fill-opacity="1.0" stroke="#000000" stroke-width="0.0" stroke-opacity="1.0" stroke-linecap="round" stroke-linejoin="round"  filling="0" d="M158.3228 179.7587 C158.8958 179.8920 159.4677 180.0553 160.0065 180.2955 C162.4100 181.3672 163.3602 183.2775 164.2930 185.5788 C163.9505 186.3622 163.6100 187.1550 163.1900 187.9008 C162.0488 189.9285 160.8902 190.7630 158.6718 191.3817 C158.2260 191.3138 157.7798 191.2303 157.3497 191.0910 C155.7560 190.5755 154.0380 189.2543 153.3452 187.6975 C152.8005 186.4733 152.7337 185.0820 153.2478 183.8353 C154.1593 181.6257 156.2755 180.6593 158.3228 179.7587 Z"></path>
<path id="" fill="#acb9d4" fill-opacity="1.0" stroke="#000000" stroke-width="0.0" stroke-opacity="1.0" stroke-linecap="round" stroke-linejoin="round"  filling="0" d="M162.3387 206.7125 C163.8605 206.7365 165.3805 207.2272 166.4662 208.3275 C168.3208 210.2065 168.2940 213.0253 168.2502 215.4780 C166.7545 216.6747 165.2895 217.4693 163.5103 218.1500 C162.9880 218.2225 162.5123 218.1667 162.0043 218.0355 C160.6642 217.6895 159.3420 216.8902 158.6685 215.6497 C157.9487 214.3245 157.7545 212.6310 158.1900 211.1848 C158.8378 209.0343 160.4360 207.7545 162.3387 206.7125 Z"></path>
<path id="" fill="#acb9d4" fill-opacity="1.0" stroke="#000000" stroke-width="0.0" stroke-opacity="1.0" stroke-linecap="round" stroke-linejoin="round"  filling="0" d="M336.6825 214.7467 C337.1700 214.7688 337.6175 214.8285 338.0850 214.9660 C339.5075 215.3840 340.8900 216.3168 341.5625 217.6712 C342.2800 219.1170 342.3575 220.7965 341.7800 222.3035 C340.9775 224.3627 339.5400 225.3282 337.6025 226.1995 C336.8325 226.2070 336.2275 226.1410 335.5025 225.8698 C334.0500 225.3282 332.9300 224.3150 332.3525 222.8655 C331.7150 221.2720 331.7825 219.4823 332.5425 217.9422 C333.4650 216.0805 334.8050 215.4003 336.6825 214.7467 Z"></path>
<path id="" fill="#acb9d4" fill-opacity="1.0" stroke="#000000" stroke-width="0.0" stroke-opacity="1.0" stroke-linecap="round" stroke-linejoin="round"  filling="0" d="M339.7075 237.8253 C340.0775 237.7995 340.4500 237.7818 340.8225 237.7720 C342.3200 237.7405 343.7700 238.0560 344.8500 239.1647 C346.4850 240.8400 346.2775 243.4080 346.1975 245.5520 C344.9350 246.6028 343.5525 247.3042 342.0525 247.9320 C340.9150 248.1365 339.7925 248.3305 338.6850 247.8685 C337.4625 247.3570 336.5550 246.2487 336.1250 245.0163 C335.5775 243.4455 335.6575 241.6350 336.4450 240.1588 C337.1750 238.7925 338.2825 238.2628 339.7075 237.8253 Z"></path>
</svg>