<svg xmlns="http://www.w3.org/2000/svg" viewBox="0 0 512 512" height="512.0px" width="512.0px">
<path id="" fill="#fed2a9" fill-opacity="1.0" stroke="#000000" stroke-width="0.0" stroke-opacity="1.0" stroke-linecap="round" stroke-linejoin="round"  filling="0" d="M315.3450 57.1017 C317.0575 56.8380 318.9875 56.9490 320.7275 56.9417 C328.2850 56.9102 335.5925 57.7175 343.0175 59.0807 C349.8075 60.3270 356.9175 62.5030 363.2500 65.2318 C366.2400 66.5210 369.1050 68.0923 372.0925 69.3777 C381.7825 73.5472 391.1750 77.1252 399.5025 83.8845 C406.4775 89.5430 412.4625 97.3390 417.5325 104.7020 C444.9425 144.4090 459.7725 191.4435 460.0975 239.6910 C460.0875 249.0652 459.9250 258.6200 458.1925 267.8700 C455.0000 284.8875 449.8675 302.2825 441.2825 317.3975 C439.8450 319.9300 438.0450 322.2350 436.4900 324.6925 C431.2675 332.9450 426.5575 339.3725 419.4275 346.1025 C414.3425 350.9025 409.7500 353.9225 404.1100 357.8675 C401.7250 359.5350 399.5000 361.4125 397.0825 363.0425 C390.0125 367.8075 380.5250 371.1150 372.2750 373.0350 C367.5800 374.1275 362.7400 375.4500 357.9300 375.8850 C335.7650 377.8850 309.7550 370.5900 290.9575 358.9250 C286.4000 356.0975 281.6725 353.1750 277.3200 350.0500 C275.1300 348.4750 271.4925 344.2525 269.1550 343.7925 C268.5975 344.0275 268.3600 344.3675 268.0900 344.8900 C266.9250 347.1175 266.1125 349.7000 265.1300 352.0225 C262.6375 357.9150 260.0075 363.8475 256.5525 369.2525 C253.9950 373.2550 251.3225 377.3450 248.2420 380.9650 C241.3922 389.0200 231.4970 396.4675 221.5482 400.1525 C215.4795 402.4000 208.9545 403.6900 202.6427 405.0800 C191.7097 407.4750 180.4305 408.5125 169.2830 409.2550 C166.5067 409.4400 163.7440 409.8500 160.9635 409.9700 C156.4908 410.1675 151.9595 410.0325 147.4818 410.0375 C133.7188 410.0550 119.8448 409.7425 106.2988 407.0050 C102.3557 406.2075 98.5338 404.9925 94.7462 403.6550 C81.4333 398.9500 68.7405 391.2700 62.5165 378.0125 C60.9763 374.7300 60.0335 371.0625 58.9622 367.6050 C52.6590 347.3575 50.5732 326.0325 52.8343 304.9475 C53.6365 297.0950 54.8210 289.6125 57.5135 282.1450 C59.9590 275.3600 62.7300 268.4125 66.3077 262.1275 C68.7250 257.8800 71.5445 254.1225 74.5560 250.2900 C84.3045 237.8830 95.8930 227.2177 110.2872 220.4580 C113.6053 218.8997 116.9165 217.2563 120.3800 216.0453 C128.6635 213.1490 140.7085 210.9820 149.4297 211.0745 C164.0143 211.2295 181.1087 215.7793 194.5468 221.3878 C198.0770 222.8610 201.7697 224.2377 205.1698 225.9885 C208.3760 227.6395 211.4635 230.0070 214.9003 231.1358 C215.6255 231.3740 216.1040 231.4198 216.7888 231.0833 C217.9190 227.4045 215.4640 207.4855 215.0782 202.6322 C214.5992 196.6062 215.1930 190.6432 215.6617 184.6470 C216.0542 179.6277 216.4207 174.6402 217.1090 169.6483 C220.4040 145.7482 229.3240 106.9173 245.3350 88.3043 C262.9950 67.7737 288.9975 59.1378 315.3450 57.1017 Z"></path>
<path id="" fill="#500000" fill-opacity="1.0" stroke="#000000" stroke-width="0.0" stroke-opacity="1.0" stroke-linecap="round" stroke-linejoin="round"  filling="0" d="M230.4648 408.1200 C260.3200 407.4825 290.1875 408.1275 319.9850 410.0550 C331.6600 410.8650 345.8300 411.6100 357.0400 414.7975 C363.4550 416.6225 370.1450 420.0775 375.0700 424.6125 C377.7500 427.0750 380.0725 430.5100 380.1250 434.2550 C380.1700 437.5125 378.5900 440.1200 376.3525 442.3500 C372.0075 446.6725 365.0275 449.3225 359.2450 450.9500 C349.3400 453.7325 339.0850 454.8100 328.8775 455.8075 C304.6375 458.1825 280.2000 458.4100 255.8625 458.4925 C246.2565 458.4375 236.6525 458.2875 227.0505 458.0450 C221.5033 457.9250 215.9422 457.9500 210.3990 457.7350 C190.9187 456.8675 171.4615 455.5400 152.0435 453.7600 C144.0975 452.9975 136.2802 452.0400 128.3985 450.7825 C124.2783 450.1250 120.1240 449.5475 116.1028 448.4075 C113.4175 447.6475 110.5280 446.6025 108.4025 444.7325 C107.2903 443.7525 106.2555 442.4100 106.2390 440.8625 C106.2045 437.6175 108.2015 434.3025 110.3885 432.0100 C115.7093 426.4350 124.4633 423.6075 131.8318 421.9200 C136.6560 420.8175 141.5872 421.0525 146.5002 421.0600 C153.2097 421.0700 159.8515 421.1425 166.5182 420.2400 C173.7408 419.2625 180.7755 417.6125 187.8488 415.9100 C191.1880 415.1050 194.5143 414.4125 197.8090 413.4250 C200.7830 412.5350 203.3667 410.4775 206.4128 409.8250 C209.1548 409.2375 211.9422 409.2350 214.7253 409.0150 C219.9883 408.6000 225.1830 408.2075 230.4648 408.1200 Z"></path>
<path id="" fill="#f2b680" fill-opacity="1.0" stroke="#000000" stroke-width="0.0" stroke-opacity="1.0" stroke-linecap="round" stroke-linejoin="round"  filling="0" d="M102.0072 166.8468 C110.9490 168.8358 124.7643 167.9713 134.2305 167.9693 L183.7717 167.9758 L381.1475 167.9337 C381.0600 175.0542 380.5450 182.1680 380.4850 189.2835 C380.4675 191.5233 380.9200 193.7580 380.8425 195.9993 C380.7325 199.1763 380.1800 202.3237 380.1075 205.5130 C379.8700 216.2298 380.4100 226.9937 380.0250 237.7018 C379.9100 240.9373 379.3950 244.1508 379.2050 247.3835 C379.0000 250.8575 379.1575 254.3475 378.9650 257.8200 C378.5975 264.4300 377.8675 271.0675 377.3375 277.6675 C376.5500 287.5050 376.0025 297.3300 375.0025 307.1550 C372.8550 329.0650 369.4150 350.8300 364.7000 372.3325 C363.4575 378.1000 362.4950 383.7975 360.9100 389.5075 C359.6050 394.2075 357.8525 398.6775 356.2325 403.2725 C354.6600 407.7275 353.2150 412.0700 351.1500 416.3275 C348.5525 421.1025 345.7225 425.6975 341.8750 429.5800 C336.4250 435.0800 331.2050 434.0900 324.2750 435.7325 C317.2550 437.3950 310.3875 439.8750 303.2625 441.0200 C282.4625 444.3575 261.2375 443.1800 240.2997 444.4450 C232.7648 444.8975 225.1945 445.3150 217.6735 445.9575 C210.1487 446.6025 202.6118 447.5300 195.0510 447.5475 C189.2888 447.5600 184.1935 445.8900 178.5610 445.1325 C166.3270 443.4900 148.6360 444.1375 139.3775 434.7950 C131.7088 427.0575 128.5977 415.5375 125.2570 405.4675 C123.6505 400.6225 121.8857 395.7875 120.5250 390.8700 C111.9670 359.9425 108.4967 327.5750 105.8548 295.6900 C105.2357 288.2175 104.5583 280.7275 104.0755 273.2475 C103.8935 270.4250 103.9447 267.5925 103.7758 264.7700 C103.5800 261.5000 103.1165 258.2400 103.0027 254.9650 C102.8167 249.6085 103.0400 244.2363 102.8830 238.8777 C102.7672 234.9255 101.6480 231.0123 101.5918 227.0807 C101.5430 223.6910 102.0017 220.2410 101.9973 216.8197 L102.0072 166.8468 Z"></path>
<path id="" fill="#fefefe" fill-opacity="1.0" stroke="#000000" stroke-width="0.0" stroke-opacity="1.0" stroke-linecap="round" stroke-linejoin="round"  filling="0" d="M233.2505 108.9983 C233.7020 108.9803 234.1535 108.9685 234.6050 108.9630 C243.8273 108.7860 253.2500 108.6175 262.4625 108.9885 C265.9450 109.1288 269.4225 109.5860 272.9050 109.7915 C298.9875 111.3300 324.5475 115.1673 348.7075 125.5847 C356.5325 128.9590 365.7500 133.7430 371.9125 139.7515 C378.4475 146.1252 381.1175 151.4147 381.2675 160.4310 C381.2650 167.1087 377.9000 171.8730 373.3200 176.4622 C365.7875 184.0072 355.4900 188.3293 345.7100 192.1240 C343.2875 193.0638 340.5750 194.3750 338.0250 194.7883 C326.7950 198.1483 315.3250 200.6590 303.7175 202.2993 C293.9950 203.6333 284.1475 204.9850 274.3625 205.7632 C270.9975 206.0310 267.6200 205.9702 264.2525 206.1693 C260.7900 206.3737 257.3500 206.8367 253.8800 206.9445 C244.9937 207.2207 235.0410 207.3230 226.1823 206.9230 C223.0285 206.7807 219.8987 206.3070 216.7480 206.1402 C213.8452 205.9868 210.9332 206.0527 208.0310 205.8703 C183.4005 204.3192 158.3965 201.0318 135.0148 192.9077 C128.1633 190.5273 120.9170 187.7700 115.1328 183.3215 C110.1877 179.5182 105.5262 174.4205 104.7182 168.0345 C108.1230 167.7700 111.6122 167.9203 115.0298 167.9212 L133.0230 167.9292 L189.2945 167.9480 L206.2068 167.9473 C209.1705 167.9465 212.4010 168.1945 215.3253 167.7242 C216.5345 167.5298 216.6565 166.2003 216.8940 165.1463 C219.2973 154.4850 221.5202 143.7015 224.4648 133.1720 C225.7105 128.7168 227.3085 124.3120 228.7688 119.9178 C229.9195 116.4553 230.8992 112.1942 233.0777 109.2270 C233.1342 109.1500 233.1930 109.0745 233.2505 108.9983 Z"></path>
<path id="" fill="#c87f3d" fill-opacity="1.0" stroke="#000000" stroke-width="0.0" stroke-opacity="1.0" stroke-linecap="round" stroke-linejoin="round"  filling="0" d="M381.2675 160.4310 C383.0725 172.7943 381.9175 186.2357 381.2025 198.6745 C380.9300 203.4140 381.1675 208.1658 380.9950 212.9060 C380.8675 216.3783 380.3000 219.8248 380.1475 223.2970 C379.9700 227.2912 380.1725 231.2997 380.0025 235.2928 C379.8650 238.4978 379.3475 241.6795 379.1800 244.8840 C378.9775 248.7705 379.1750 252.6675 378.9925 256.5525 C378.8725 259.1675 378.4950 261.7650 378.3125 264.3750 L376.2900 291.6250 C374.3150 315.3625 372.3225 339.4150 367.5700 362.7875 C366.3300 368.8850 364.7250 374.9625 363.1450 380.9800 C360.5100 391.0075 357.6700 400.6200 353.4975 410.1475 C350.8975 416.0825 349.8150 419.6325 345.7775 425.0575 C343.6500 427.9175 340.7425 431.2800 337.4650 432.8350 C333.7450 434.6000 328.0475 434.9900 323.9250 435.9525 C315.6900 437.8725 307.7675 440.4400 299.3675 441.6275 C296.7850 441.9925 293.7175 442.3650 291.1400 442.0050 C290.7175 441.4625 290.7400 441.0750 290.8125 440.3975 C291.1575 437.1050 293.8625 433.5025 295.5775 430.7575 C305.8275 414.3325 315.2450 397.3050 322.4375 379.3025 C324.0375 375.2975 325.2100 371.2700 326.4850 367.1600 C327.5025 363.8825 328.6425 360.6125 329.5050 357.2900 C332.7525 344.7725 334.6750 331.7450 335.7500 318.8650 C335.9975 315.8950 335.9175 312.9075 336.0875 309.9325 C336.2775 306.5925 336.8125 303.2775 336.9150 299.9325 C337.2200 289.9050 336.9550 279.7825 336.9550 269.7450 L336.9350 219.9492 C336.9250 215.5898 336.8250 211.2225 337.3125 206.8822 C337.6450 203.9102 339.0675 197.8143 338.8975 195.2740 C338.5525 194.9037 338.5225 194.8925 338.0250 194.7883 C340.5750 194.3750 343.2875 193.0638 345.7100 192.1240 C355.4900 188.3293 365.7875 184.0072 373.3200 176.4622 C377.9000 171.8730 381.2650 167.1087 381.2675 160.4310 Z"></path>
<path id="" fill="#500000" fill-opacity="1.0" stroke="#000000" stroke-width="0.0" stroke-opacity="1.0" stroke-linecap="round" stroke-linejoin="round"  filling="0" d="M234.4930 106.1150 C240.2428 105.9625 246.1573 105.7735 251.9000 106.0697 C255.3100 106.2458 258.7000 106.7240 262.1150 106.8822 C266.4350 107.0825 270.7775 106.9543 275.0925 107.2625 C288.7275 108.2357 302.9000 109.9680 316.2250 113.0188 C320.8050 114.0675 325.3425 115.5670 329.8575 116.8752 C340.2125 119.8752 348.9900 122.8795 358.7200 127.6342 C367.2525 131.8047 378.8100 140.2935 381.9000 149.5970 C382.6650 151.9000 383.0725 154.4028 383.2350 156.8203 C383.5325 161.2705 382.9875 165.9580 382.8725 170.4275 C382.7525 175.1582 382.7400 179.8965 382.5000 184.6235 C382.3500 187.6530 382.0125 190.6673 381.8925 193.7010 C381.7525 197.2100 381.8075 200.7292 381.6275 204.2357 C381.4875 206.9090 381.0875 209.5643 380.9475 212.2392 L378.9425 257.0150 C378.7500 261.3025 378.7425 265.6050 378.4875 269.8900 C377.4025 288.1075 375.4100 306.3225 373.3500 324.4550 C371.7650 338.3925 370.0950 352.4725 367.3650 366.2400 C365.8975 373.6475 363.7525 380.9200 361.9325 388.2450 C360.2375 395.0600 358.1925 401.4725 355.8625 408.0875 C355.3775 409.4650 354.9300 411.4725 354.1525 412.6850 C353.8000 413.2325 353.1425 413.5400 352.5200 413.6375 C351.6725 413.7700 350.9025 413.5975 350.2200 413.0800 C349.5725 411.5425 350.3500 409.8275 350.7275 408.2900 C352.4675 401.2400 354.6475 394.2825 356.0850 387.1625 C357.9950 377.6975 358.8825 367.8625 360.2800 358.2975 C366.0450 318.1500 369.9650 277.7600 372.0250 237.2540 L374.0725 198.9353 C374.3475 193.1220 374.1250 187.4308 374.7900 181.6275 C374.4150 181.2047 374.9725 180.8878 374.6800 180.4198 C372.3325 180.5675 363.4525 186.3027 360.6650 187.6695 C356.6875 189.6190 352.5800 191.5450 348.3850 192.9690 C343.1825 194.7343 337.8675 196.0560 332.5425 197.3907 C318.7275 200.8548 305.0150 203.2845 290.8800 205.0955 C283.8250 205.9993 276.7525 207.0975 269.6650 207.6850 C263.6075 208.1873 256.9875 208.5372 250.9050 208.5015 C248.7883 208.4892 246.6792 208.2812 244.5625 208.2340 C235.3025 208.0290 225.9790 208.1263 216.7312 207.7193 C209.4750 207.3997 201.7007 206.4190 194.4388 205.7335 C168.4113 203.2767 137.0270 199.7408 114.7350 185.2395 C113.3685 184.3505 112.0190 183.5840 110.3513 183.9380 C109.5455 186.1965 109.9167 209.3053 110.1038 213.2480 C110.3125 217.6535 110.8517 222.0500 111.0002 226.4538 C111.3582 237.0728 110.4758 247.7623 110.8077 258.4075 C110.9105 261.6975 111.6980 264.9425 111.8183 268.2225 C111.9512 271.8525 111.6322 275.4950 111.7798 279.1300 C111.9167 282.5025 112.3177 285.8675 112.4912 289.2425 C112.6653 292.6275 112.6373 296.0225 112.8318 299.4050 C114.0807 324.4150 116.8805 349.3250 121.2142 373.9900 C122.7057 382.4750 124.3138 391.1625 126.5147 399.4900 C127.6880 403.9300 129.1855 408.3150 130.7330 412.6350 C131.7672 415.5250 133.0237 418.4775 133.6902 421.4775 C133.8850 422.3550 134.0197 423.5000 133.7453 424.3725 C133.5658 424.9400 133.4682 424.9650 132.9698 425.2200 C132.4995 425.0800 132.1505 424.9250 131.7892 424.5900 C130.7680 423.6500 128.7235 417.8625 127.8520 416.0075 C123.7220 407.2150 121.2072 397.6550 118.7500 388.2725 C118.0178 385.4775 117.0965 382.7575 116.4325 379.9400 C113.9795 369.5225 112.3110 358.7650 110.6315 348.1975 C106.4597 322.5475 103.7130 296.6875 102.4043 270.7350 C102.1765 266.2450 102.2240 261.7525 102.0485 257.2625 C101.8757 252.8450 101.3932 248.4453 101.2668 244.0205 C100.9528 233.0365 101.9333 222.0490 101.9625 211.0520 L102.0650 175.3595 C102.1185 168.4850 101.5667 161.0045 103.0332 154.2693 C104.3640 148.1580 107.4883 142.1373 111.8130 137.6107 C131.9162 116.5690 176.4982 110.7290 204.2490 108.1960 C214.2923 107.2793 224.4097 106.3835 234.4930 106.1150 Z M249.8017 201.1842 C262.0025 201.0695 274.1975 200.4953 286.3550 199.4633 C305.1025 197.9532 321.5650 195.8570 339.6575 190.1730 C346.7125 187.9565 353.5850 185.4093 359.9575 181.5980 C363.9425 179.2245 367.5875 176.3257 370.7975 172.9798 C374.9475 168.7315 378.3975 164.7015 378.2725 158.4405 C378.1275 151.1145 373.2425 146.3815 368.2475 141.6675 C363.1300 136.8405 356.4200 133.0912 350.0950 130.0352 C329.2000 119.9355 306.9275 115.9215 283.9950 113.6995 C277.9175 113.1105 271.8350 112.3532 265.7400 112.0002 C261.5500 111.7575 257.3550 111.8200 253.1625 111.7128 C247.6517 111.5715 242.1840 111.2072 236.6662 111.3733 C231.2057 111.6475 225.7250 111.5677 220.2735 111.9295 C214.1035 112.3390 207.9525 113.0573 201.8060 113.7217 C176.7112 116.4342 134.1608 122.4297 116.5795 141.8203 C111.3135 147.6283 108.0038 154.5590 108.4648 162.5240 C108.9033 170.1008 113.4492 175.6678 118.9325 180.5038 C124.2393 185.1842 131.3318 187.8322 137.9730 190.0117 C171.1478 200.8983 214.8385 201.3488 249.8017 201.1842 Z"></path>
<path id="" fill="#500000" fill-opacity="1.0" stroke="#000000" stroke-width="0.0" stroke-opacity="1.0" stroke-linecap="round" stroke-linejoin="round"  filling="0" d="M161.2060 442.0450 C162.4050 442.0475 163.9438 441.8975 164.9317 442.6950 C165.2453 442.9475 165.1808 443.1750 165.2350 443.5475 L165.1130 443.2575 L165.1252 443.8350 C164.8670 444.1400 165.0497 444.0000 164.4917 444.1075 C163.6150 444.3200 162.6752 444.6050 161.7702 444.4000 C161.0903 444.2450 160.9597 444.1225 160.6152 443.5775 C160.6508 442.8675 160.8208 442.6125 161.2060 442.0450 Z"></path>
<path id="" fill="#500000" fill-opacity="1.0" stroke="#000000" stroke-width="0.0" stroke-opacity="1.0" stroke-linecap="round" stroke-linejoin="round"  filling="0" d="M169.0562 442.8625 C170.0957 442.8875 171.1725 442.8375 171.9505 443.6200 C172.0540 444.3050 171.9645 444.4425 171.6938 445.0925 C170.6888 445.2400 169.8398 445.4025 168.9848 444.7675 C168.7110 444.0150 168.8468 443.5975 169.0562 442.8625 Z"></path>
<path id="" fill="#500000" fill-opacity="1.0" stroke="#000000" stroke-width="0.0" stroke-opacity="1.0" stroke-linecap="round" stroke-linejoin="round"  filling="0" d="M234.6478 121.3960 C234.9062 121.3692 235.1653 121.3470 235.4245 121.3290 C241.2198 120.9660 247.1985 121.2117 253.0075 121.3173 C265.2650 121.4498 277.5100 122.1812 289.6975 123.5092 C292.4650 123.7930 295.2525 123.9258 298.0100 124.2883 C301.3975 124.7332 304.7450 125.4738 308.1275 125.9637 C315.0900 126.9723 321.8375 127.4933 328.6450 129.4240 C338.0600 132.0940 348.3100 136.5538 355.7050 143.1438 C360.3000 147.2392 366.3150 152.8858 366.5400 159.5055 C366.6500 162.7578 364.9875 165.9523 362.8150 168.2973 C360.1175 171.2083 356.2600 173.2750 352.7325 174.9843 C344.3250 179.0595 335.2975 181.4440 326.2350 183.5558 C301.2925 189.3675 275.5350 191.8878 249.9735 192.8320 C243.8503 193.1370 237.6660 193.0157 231.5338 193.0245 C223.4370 193.0365 215.2807 193.2018 207.1922 192.8647 C185.6642 191.9673 140.3147 187.6552 123.5967 173.1760 C120.3500 170.3642 118.6602 166.8503 118.3712 162.5797 C117.9710 156.6617 120.8295 151.1715 124.6338 146.8288 C129.0892 141.7425 135.9500 138.1925 142.1633 135.7728 C150.1710 132.6540 158.6743 130.7928 167.0723 129.0835 C183.2312 125.7535 199.5923 123.4915 216.0485 122.3118 C222.2115 121.8235 228.4617 121.8062 234.6478 121.3960 Z M246.8455 187.9710 C272.2425 186.4138 298.9125 186.5058 323.2075 177.9730 C328.8975 175.9740 334.9075 173.5145 338.9775 168.8810 C340.9700 166.6122 342.3025 163.9935 342.0875 160.8963 C341.5625 153.3535 332.3225 145.2865 326.8175 140.7065 C325.0150 139.2090 323.0625 137.6415 320.8950 136.7077 C314.2425 133.8445 299.8125 133.0170 292.1525 131.9458 C286.7675 131.1927 281.5325 129.6792 276.1425 128.9110 C265.1450 127.3435 254.1100 126.9782 243.0170 126.9805 C238.6842 126.9815 234.2957 126.9023 229.9705 127.1387 C216.4933 127.3330 202.9265 128.9855 189.6712 131.3245 C186.8930 131.8147 183.9800 132.0395 181.2455 132.7085 C177.8115 133.5485 174.9128 135.8887 171.6425 137.1770 C168.5083 138.4117 165.0850 139.1797 161.8575 140.1712 C154.1055 142.5533 143.7635 146.4603 138.0927 152.3457 C135.5000 155.0367 134.0247 157.8260 134.1480 161.6608 C134.2937 166.2025 136.6035 170.3890 139.9193 173.4167 C145.8070 178.7928 156.0968 180.3737 163.7043 181.8717 C191.6512 187.3745 218.4685 188.3587 246.8455 187.9710 Z"></path>
<path id="" fill="#500000" fill-opacity="1.0" stroke="#000000" stroke-width="0.0" stroke-opacity="1.0" stroke-linecap="round" stroke-linejoin="round"  filling="0" d="M119.7007 368.8500 C119.6927 368.0250 119.6797 367.2250 119.7858 366.4075 C120.4755 366.3750 120.9553 366.9350 121.5060 367.3350 L121.8945 367.0500 C122.3262 368.7200 122.6515 370.4050 122.9843 372.0975 C123.7702 374.3525 124.1428 376.9150 124.6895 379.2450 C125.6647 383.3200 126.7040 387.3800 127.8075 391.4200 C130.3020 400.5025 139.9120 423.7800 146.0898 430.1450 C148.6743 432.8100 152.1908 434.5525 155.5938 435.9200 C159.0018 437.2900 162.6135 438.2550 166.1638 439.1875 C169.2190 439.9900 175.2635 440.4700 177.6535 442.3325 C178.1562 442.7250 178.2702 442.9875 178.3492 443.6000 C178.1405 443.9325 178.1693 444.0275 177.7693 444.1600 C176.1848 444.6825 158.1380 441.9425 155.3830 441.2950 C152.8800 440.6925 150.4418 439.8450 148.1040 438.7675 C143.3680 436.5675 139.5262 434.0075 136.8568 429.4350 C135.8802 427.7600 135.0380 425.9325 133.8913 424.3725 C132.6228 422.6450 130.4317 421.3400 129.7385 419.2475 C129.1927 417.6000 129.7592 416.4550 130.4685 415.0000 C129.6837 411.8450 128.3578 408.8100 127.5092 405.6575 C124.4120 394.1600 121.6322 382.2250 120.0020 370.4275 L119.7007 368.8500 Z"></path>
<path id="" fill="#500000" fill-opacity="1.0" stroke="#000000" stroke-width="0.0" stroke-opacity="1.0" stroke-linecap="round" stroke-linejoin="round"  filling="0" d="M119.7007 368.8500 C119.6927 368.0250 119.6797 367.2250 119.7858 366.4075 C120.4755 366.3750 120.9553 366.9350 121.5060 367.3350 L121.8945 367.0500 C122.3262 368.7200 122.6515 370.4050 122.9843 372.0975 C122.3932 371.9025 121.7715 371.7025 121.3062 371.2650 C120.5150 370.5250 120.5602 368.9725 120.4922 367.9725 C120.3980 368.3025 120.4190 368.1525 120.4100 368.4950 C120.3952 369.0500 120.3882 369.5050 120.1738 370.0300 C120.1190 370.1625 120.0592 370.2950 120.0020 370.4275 L119.7007 368.8500 Z"></path>
<path id="" fill="#500000" fill-opacity="1.0" stroke="#000000" stroke-width="0.0" stroke-opacity="1.0" stroke-linecap="round" stroke-linejoin="round"  filling="0" d="M350.6625 400.2850 C351.2175 398.5875 351.8725 395.4525 353.0975 394.1400 C353.5550 393.6525 353.8550 393.5325 354.5050 393.4625 L354.8775 393.7850 C355.2850 395.5650 354.5075 397.4300 353.9625 399.1100 C353.0025 407.2900 345.6150 426.6100 339.5200 431.5925 C335.0975 435.2075 325.2125 435.3600 319.4900 436.6575 C316.5100 437.3325 313.7025 438.4600 310.7550 439.1900 C310.2450 438.9050 310.1750 438.8775 310.0000 438.2800 C309.8075 437.6250 309.9275 437.0750 310.2700 436.5100 C311.7325 435.5675 313.4750 435.1925 315.0725 434.5100 C316.9125 433.7225 318.7000 432.7400 320.4725 431.8100 C329.8975 426.8525 339.7425 419.8375 345.6275 410.7875 C347.7450 407.5300 349.3100 403.9200 350.6625 400.2850 Z"></path>
<path id="" fill="#500000" fill-opacity="1.0" stroke="#000000" stroke-width="0.0" stroke-opacity="1.0" stroke-linecap="round" stroke-linejoin="round"  filling="0" d="M350.6625 400.2850 C351.2175 398.5875 351.8725 395.4525 353.0975 394.1400 C353.5550 393.6525 353.8550 393.5325 354.5050 393.4625 L354.8775 393.7850 C355.2850 395.5650 354.5075 397.4300 353.9625 399.1100 C353.8375 398.6525 353.7150 398.1975 353.6050 397.7350 L352.8950 399.0500 C352.3600 399.1500 352.1125 399.1200 351.6000 398.9350 C351.4800 399.3750 351.4375 399.6000 351.4600 400.0675 L350.6625 400.2850 Z"></path>
<path id="" fill="#500000" fill-opacity="1.0" stroke="#000000" stroke-width="0.0" stroke-opacity="1.0" stroke-linecap="round" stroke-linejoin="round"  filling="0" d="M119.7007 368.8500 C119.1038 365.3925 118.1795 361.7375 117.8197 358.2700 C117.7057 357.1700 118.2182 355.8575 118.0237 354.8425 C117.9280 354.3400 117.7263 354.0550 117.4572 353.6375 C116.9102 352.7850 116.5518 352.1525 116.5113 351.1200 C116.4727 350.1375 116.5967 349.2025 117.2787 348.4950 L117.8878 348.5150 C118.0910 348.6875 118.3575 348.8050 118.4973 349.0325 C118.5900 349.1825 121.4993 365.2250 121.8945 367.0500 L121.5060 367.3350 C120.9553 366.9350 120.4755 366.3750 119.7858 366.4075 C119.6797 367.2250 119.6927 368.0250 119.7007 368.8500 Z"></path>
<path id="" fill="#500000" fill-opacity="1.0" stroke="#000000" stroke-width="0.0" stroke-opacity="1.0" stroke-linecap="round" stroke-linejoin="round"  filling="0" d="M115.0522 333.5325 C115.2623 333.5675 115.5730 333.6100 115.7647 333.6875 C116.3540 333.9300 116.6387 334.3175 116.8737 334.8850 C117.3965 336.1475 117.1947 338.3675 116.6555 339.6050 C116.3618 339.5825 116.0178 339.5675 115.7320 339.4975 C115.2455 339.3750 114.9765 338.8750 114.7815 338.4525 C114.1022 336.9850 114.4967 334.9725 115.0522 333.5325 Z"></path>
<path id="" fill="#500000" fill-opacity="1.0" stroke="#000000" stroke-width="0.0" stroke-opacity="1.0" stroke-linecap="round" stroke-linejoin="round"  filling="0" d="M116.1280 341.3750 C116.4883 341.4500 116.8250 341.5075 117.1105 341.7650 C117.6155 342.2175 117.9180 343.0900 118.0190 343.7450 C118.1825 344.8075 118.1313 345.9200 117.4727 346.7925 C117.2410 346.7200 117.1495 346.6975 116.9128 346.5950 C116.3240 346.3350 116.0465 345.9600 115.8220 345.3750 C115.3098 344.0375 115.5595 342.6450 116.1280 341.3750 Z"></path>
<path id="" fill="#500000" fill-opacity="1.0" stroke="#000000" stroke-width="0.0" stroke-opacity="1.0" stroke-linecap="round" stroke-linejoin="round"  filling="0" d="M308.6350 437.0025 L308.8625 437.0475 C309.0000 437.2500 309.0375 437.2775 309.1100 437.5525 C309.2525 438.1150 309.1625 439.0100 308.7725 439.4500 C308.1800 440.1200 307.4600 440.0725 306.6350 440.2050 C306.3700 440.0175 306.1775 439.7675 305.9625 439.5250 C305.8800 439.1900 305.7150 438.8950 305.8675 438.5625 C306.3350 437.5600 307.6800 437.2975 308.6350 437.0025 Z"></path>
<path id="" fill="#500000" fill-opacity="1.0" stroke="#000000" stroke-width="0.0" stroke-opacity="1.0" stroke-linecap="round" stroke-linejoin="round"  filling="0" d="M113.1653 314.5775 C113.4323 314.6425 113.7653 314.7100 114.0125 314.8275 C114.4438 315.0300 114.7493 315.5100 114.8887 315.9525 C115.1877 316.8975 114.9005 317.7575 114.4727 318.6025 L113.6245 318.5075 C113.2688 318.2075 113.0545 318.1000 112.8658 317.6600 C112.4345 316.6525 112.8087 315.5425 113.1653 314.5775 Z"></path>
<path id="" fill="#500000" fill-opacity="1.0" stroke="#000000" stroke-width="0.0" stroke-opacity="1.0" stroke-linecap="round" stroke-linejoin="round"  filling="0" d="M149.8585 371.9725 C150.7210 367.8500 152.3607 363.6700 153.6625 359.6475 L159.7865 340.1600 C161.4052 334.8650 162.9620 329.5500 164.4563 324.2175 C165.7535 319.5200 166.9052 314.7600 168.6543 310.2025 C170.4097 305.6300 172.9238 300.9050 175.8828 296.9900 C182.2968 288.5025 193.6670 279.8250 202.5535 274.0050 C209.1712 269.6725 216.5182 266.3350 222.8997 261.6800 C226.8715 258.7825 230.3335 254.0250 234.9185 252.2325 C238.9375 250.6625 244.1975 250.7950 248.4255 251.0925 C247.6800 254.3550 246.0475 257.0825 244.5055 260.0150 C240.7213 267.2075 236.3690 274.9900 235.4970 283.1975 C234.8783 289.0200 236.2348 293.7450 238.3732 299.0875 C240.1930 303.6350 242.2812 308.3150 243.2812 313.1200 C243.8833 316.0150 244.2535 319.1425 243.8145 322.0850 C242.3712 331.7575 233.4902 343.4600 228.3570 351.8675 C225.0400 357.3000 218.7855 369.3450 213.6475 372.6925 C209.5120 375.3900 203.9223 376.6125 199.2863 378.3300 C197.2800 379.0725 177.9395 386.9250 177.5665 387.2550 C177.4633 387.3475 177.3040 387.8950 177.2943 387.9425 C177.1790 388.5225 177.2168 389.2475 177.1998 389.8425 L177.5312 390.3875 C179.9303 389.4825 182.5753 389.0825 185.0800 388.5300 C189.3070 387.6100 193.5275 386.6625 197.7410 385.6850 C205.8432 383.7675 213.9660 381.8625 222.0403 379.8300 C229.2110 378.0250 236.9865 375.1375 244.4017 375.0200 C252.2175 374.9000 261.1100 377.5450 268.1575 380.7275 C270.7475 381.8975 280.3450 385.9600 281.3025 388.3075 C281.5275 388.8550 281.3200 389.2250 280.9950 389.6725 C279.9050 391.1825 273.5975 394.2750 271.2625 396.3350 C261.5925 404.9900 252.7950 414.5750 245.0035 424.9500 C241.5900 429.5300 238.2150 433.6150 234.0352 437.5200 C233.5672 437.9550 232.8972 438.8000 232.3152 438.9925 C231.9770 440.2700 232.0050 441.4825 232.0430 442.7900 C232.1877 443.3525 232.2955 443.3700 232.0493 443.9275 C230.3595 444.4850 228.1655 444.1325 226.3752 444.2975 C221.8815 444.7075 217.3960 445.6025 212.8698 445.9775 C207.8185 446.3975 202.5890 446.1650 197.5170 446.1725 C194.1955 446.1750 190.7195 446.3875 187.4368 445.8500 C183.2513 445.1625 179.5295 442.9875 175.4872 441.8275 C170.3135 440.3425 164.9982 439.4900 159.8302 437.9075 C147.6933 434.1875 144.6990 430.9300 138.8140 419.8000 C121.6527 387.3425 116.4593 341.7400 113.6705 305.4925 C113.3207 300.9475 111.4200 289.2050 112.5462 285.6750 C113.3842 283.0500 114.8515 280.0075 116.2733 277.6450 C117.9335 274.8850 123.7985 266.9125 126.4977 265.6675 C127.0185 265.4275 127.1195 265.4400 127.6313 265.6125 C128.8033 268.5275 125.9553 278.2975 125.3535 281.7025 C123.8127 290.4250 125.3440 298.1950 131.4348 304.8350 C134.9780 308.6975 138.7275 312.0075 141.7550 316.3700 C151.6407 330.6100 149.7782 355.5800 146.7428 371.9175 L149.8585 371.9725 Z"></path>
<path id="" fill="#f1b57f" fill-opacity="1.0" stroke="#000000" stroke-width="0.0" stroke-opacity="1.0" stroke-linecap="round" stroke-linejoin="round"  filling="0" d="M146.7428 371.9175 L149.8585 371.9725 C149.1573 376.0400 145.2457 386.5350 143.2222 390.3475 C143.4223 388.3325 146.2567 372.8025 146.7428 371.9175 Z"></path>
<path id="" fill="#f1b57f" fill-opacity="1.0" stroke="#000000" stroke-width="0.0" stroke-opacity="1.0" stroke-linecap="round" stroke-linejoin="round"  filling="0" d="M161.3698 393.7600 C165.8613 390.9400 171.6690 389.2150 176.6135 387.3225 L176.8960 387.4925 L177.1998 389.8425 L177.5312 390.3875 C172.3887 392.0350 166.6730 392.7475 161.3698 393.7600 Z"></path>
<path id="" fill="#f1b580" fill-opacity="1.0" stroke="#000000" stroke-width="0.0" stroke-opacity="1.0" stroke-linecap="round" stroke-linejoin="round"  filling="0" d="M226.4227 442.4350 C228.2765 441.4875 230.3468 439.4800 232.3152 438.9925 C231.9770 440.2700 232.0050 441.4825 232.0430 442.7900 C230.1610 442.4400 228.3297 442.3700 226.4227 442.4350 Z"></path>
<path id="" fill="#500000" fill-opacity="1.0" stroke="#000000" stroke-width="0.0" stroke-opacity="1.0" stroke-linecap="round" stroke-linejoin="round"  filling="0" d="M181.4965 111.8460 C180.8723 108.1310 180.8250 104.3423 181.3562 100.6130 C183.2478 87.2885 192.4615 74.8763 203.1458 67.0178 C212.6472 60.0293 223.1645 56.8690 234.5590 54.6275 C237.6465 54.0200 241.1310 53.1297 244.2795 53.6187 C246.1800 55.8062 240.2007 62.8723 241.0827 66.0350 C242.4295 70.8645 261.2200 74.4912 265.9825 75.7112 C270.3825 76.8385 274.8275 78.0325 279.1550 79.4080 C284.5725 81.1290 290.2325 83.3167 295.0800 86.2890 C301.7450 90.3765 306.1425 96.9883 308.0275 104.5638 C308.7025 107.2805 308.9525 110.1017 309.5950 112.8410 C308.0000 112.6877 304.7775 111.9807 303.4850 112.7928 C303.2375 113.4503 303.2175 113.4998 303.3900 114.1787 C304.7750 114.9815 307.6400 115.2855 309.3400 115.8687 C309.1850 117.9553 308.8125 119.8733 308.1025 121.8420 C311.7275 122.7527 319.8725 125.1890 322.9125 127.0332 L323.0250 127.5843 C321.0300 131.0360 314.3050 126.7533 311.5350 128.3867 C311.8200 131.2070 316.2450 131.4885 316.7475 134.1842 C315.9250 134.9527 315.3225 135.4145 314.1575 135.3842 C311.3125 135.3100 308.1800 134.4195 305.3250 134.0150 C299.3150 133.1638 293.1875 132.7790 287.2100 131.7425 C284.2625 131.2312 281.4250 130.1302 278.4675 129.6727 C272.2875 128.7173 266.1200 128.2598 259.8875 127.8408 C256.9850 127.6458 254.0950 127.2093 251.1875 127.0765 C238.7742 126.5092 226.1593 127.3400 213.7990 128.5240 C209.7287 128.9138 205.6013 129.2538 201.5595 129.8723 C197.3745 130.5125 193.2292 131.4158 189.0477 132.0765 C186.0870 132.5443 182.8145 132.5397 179.9543 133.4155 C177.6800 134.1118 175.8333 135.7072 173.7575 136.8092 C172.7600 137.3387 171.6187 137.6885 170.5530 138.0570 C169.3233 138.4825 166.7437 139.4430 165.6160 138.3520 C165.4097 138.1528 165.2235 137.7925 165.0807 137.5565 C165.3353 135.6248 167.5285 134.2090 168.1580 130.5773 C165.6698 130.5047 163.1958 130.4108 160.7133 130.2170 C160.8282 128.5163 161.0030 126.9365 161.8580 125.4285 C164.0650 121.5375 173.0043 117.3835 177.3138 116.2617 C179.3580 115.7298 181.5172 115.6665 183.5405 115.0508 C184.3555 114.8030 184.6485 114.5992 185.0395 113.8470 C185.0220 113.2275 184.9317 112.8643 184.4880 112.4010 C183.8537 111.7390 182.3625 111.8743 181.4965 111.8460 Z M249.8295 79.3893 C245.2567 78.4370 238.9258 77.5237 236.1557 73.3008 C234.4005 70.6250 234.8220 67.5482 235.5117 64.6170 C235.7665 63.5345 236.4260 61.7455 236.2623 60.6752 C220.7720 61.1463 207.6375 67.2180 197.0390 78.3997 C191.5410 84.2000 186.7397 92.1495 187.0545 100.4150 C187.1780 103.6635 188.3757 106.0665 190.1140 108.7075 L193.3793 108.7762 C198.6463 108.4822 203.9043 107.6978 209.1602 107.2272 C212.6745 106.9128 216.2072 106.9450 219.7205 106.6543 C224.7473 106.2385 229.6288 105.6355 234.6908 106.0015 C235.9962 99.3335 241.5117 92.1110 245.8010 86.8813 C247.0582 85.3483 248.7697 83.9572 249.8105 82.2878 C250.3800 81.3750 250.0375 80.3660 249.8295 79.3893 Z M172.3020 125.5020 C172.5000 125.8108 172.7350 126.2647 173.0055 126.5060 C173.6650 127.0943 174.7365 126.8197 175.5323 126.7070 C187.7765 124.9463 200.0605 123.4742 212.3740 122.2923 C218.0030 121.7870 223.6472 121.6330 229.2870 121.1273 C234.6715 120.6443 240.2300 120.9197 245.6393 120.9147 C251.6125 120.9092 257.7050 120.6707 263.6675 120.9742 C266.5325 121.1200 269.3900 121.4955 272.2525 121.6942 C275.5050 121.9197 278.7700 121.9442 282.0200 122.2247 C284.6100 122.4482 297.5625 124.3155 299.2650 123.8640 C300.0925 123.6438 300.1475 123.1118 300.4550 122.4160 C300.2775 120.9073 301.8525 118.3365 302.1525 116.6860 L301.9075 116.4105 C295.2450 114.6028 288.1925 114.3745 281.3425 113.7418 C275.7875 113.2282 270.2075 112.3903 264.6375 112.1055 C244.4937 111.2523 224.3135 111.8530 204.2550 113.9033 C198.5898 114.4700 192.4753 114.7832 187.0197 116.4740 C186.8400 117.4512 186.2572 117.9670 185.4755 118.5245 C181.8295 121.1235 174.5990 121.7767 172.3020 125.5020 Z"></path>
<path id="" fill="#fefefe" fill-opacity="1.0" stroke="#000000" stroke-width="0.0" stroke-opacity="1.0" stroke-linecap="round" stroke-linejoin="round"  filling="0" d="M249.8295 79.3893 C252.2975 79.0500 255.8575 80.1150 258.3675 80.5218 C270.4125 82.4745 284.8500 84.5170 294.8650 92.0397 C299.3200 95.3857 301.5650 100.3190 302.3100 105.7542 C302.7625 109.0460 302.9625 112.9933 302.2375 116.2490 C302.2050 116.3938 302.1800 116.5403 302.1525 116.6860 L301.9075 116.4105 C295.2450 114.6028 288.1925 114.3745 281.3425 113.7418 C275.7875 113.2282 270.2075 112.3903 264.6375 112.1055 C244.4937 111.2523 224.3135 111.8530 204.2550 113.9033 C198.5898 114.4700 192.4753 114.7832 187.0197 116.4740 L186.7510 116.2758 C186.4935 115.7150 186.3685 115.1898 186.3350 114.5757 C186.2505 113.0325 187.1142 111.3557 188.1212 110.2332 C188.9720 109.2848 189.7285 109.0757 190.9682 109.0180 C191.7875 108.9798 192.5685 108.8985 193.3793 108.7762 C198.6463 108.4822 203.9043 107.6978 209.1602 107.2272 C212.6745 106.9128 216.2072 106.9450 219.7205 106.6543 C224.7473 106.2385 229.6288 105.6355 234.6908 106.0015 C235.9962 99.3335 241.5117 92.1110 245.8010 86.8813 C247.0582 85.3483 248.7697 83.9572 249.8105 82.2878 C250.3800 81.3750 250.0375 80.3660 249.8295 79.3893 Z"></path>
<path id="" fill="#510101" fill-opacity="1.0" stroke="#000000" stroke-width="0.0" stroke-opacity="1.0" stroke-linecap="round" stroke-linejoin="round"  filling="0" d="M251.5250 95.0580 C252.7650 94.9235 254.0375 94.9088 255.2750 95.0843 C256.3725 95.2395 257.3100 95.4855 258.0075 96.3940 C258.0725 96.9908 258.1100 97.1617 257.7975 97.7053 C256.1550 100.5553 249.1678 102.3542 246.1017 103.2093 L245.7870 103.3947 C245.8235 104.0510 245.8082 104.6995 245.7920 105.3557 C245.5892 105.7080 245.5748 105.9045 245.1725 106.0627 C244.6297 106.2762 243.9583 106.2867 243.4465 105.9673 C242.9162 105.6363 242.5972 104.9723 242.4780 104.3765 C242.1508 102.7422 242.7742 100.8678 243.6640 99.5080 C245.4982 96.7053 248.3940 95.6640 251.5250 95.0580 Z"></path>
<path id="" fill="#fefefe" fill-opacity="1.0" stroke="#000000" stroke-width="0.0" stroke-opacity="1.0" stroke-linecap="round" stroke-linejoin="round"  filling="0" d="M172.3020 125.5020 C172.5000 125.8108 172.7350 126.2647 173.0055 126.5060 C173.6650 127.0943 174.7365 126.8197 175.5323 126.7070 C187.7765 124.9463 200.0605 123.4742 212.3740 122.2923 C218.0030 121.7870 223.6472 121.6330 229.2870 121.1273 C234.6715 120.6443 240.2300 120.9197 245.6393 120.9147 C251.6125 120.9092 257.7050 120.6707 263.6675 120.9742 C266.5325 121.1200 269.3900 121.4955 272.2525 121.6942 C275.5050 121.9197 278.7700 121.9442 282.0200 122.2247 C284.6100 122.4482 297.5625 124.3155 299.2650 123.8640 C300.0925 123.6438 300.1475 123.1118 300.4550 122.4160 C303.5175 126.7665 312.4575 129.8975 316.7475 134.1842 C315.9250 134.9527 315.3225 135.4145 314.1575 135.3842 C311.3125 135.3100 308.1800 134.4195 305.3250 134.0150 C299.3150 133.1638 293.1875 132.7790 287.2100 131.7425 C284.2625 131.2312 281.4250 130.1302 278.4675 129.6727 C272.2875 128.7173 266.1200 128.2598 259.8875 127.8408 C256.9850 127.6458 254.0950 127.2093 251.1875 127.0765 C238.7742 126.5092 226.1593 127.3400 213.7990 128.5240 C209.7287 128.9138 205.6013 129.2538 201.5595 129.8723 C197.3745 130.5125 193.2292 131.4158 189.0477 132.0765 C186.0870 132.5443 182.8145 132.5397 179.9543 133.4155 C177.6800 134.1118 175.8333 135.7072 173.7575 136.8092 C172.7600 137.3387 171.6187 137.6885 170.5530 138.0570 C169.3233 138.4825 166.7437 139.4430 165.6160 138.3520 C165.4097 138.1528 165.2235 137.7925 165.0807 137.5565 C168.3250 134.5177 169.6295 126.9157 172.1758 125.1332 L172.3020 125.5020 Z"></path>
<path id="" fill="#c77e3c" fill-opacity="1.0" stroke="#000000" stroke-width="0.0" stroke-opacity="1.0" stroke-linecap="round" stroke-linejoin="round"  filling="0" d="M380.9150 199.3350 C391.8575 201.2733 403.0600 205.7710 409.6225 215.2148 C419.9525 230.0797 419.0925 249.6962 415.9575 266.7550 C412.3350 286.4525 401.0050 313.1750 384.0725 324.8075 C381.4100 326.6350 375.7625 330.1075 372.4775 330.1300 C372.1500 329.9550 371.9850 329.9875 371.9050 329.5850 C371.6350 328.2375 372.5975 326.0350 372.7900 324.6025 C373.3800 320.2175 373.5075 312.0275 374.7250 308.2675 L374.7700 308.1225 C375.0050 304.8625 376.0600 301.7750 375.9200 298.4500 C375.7650 296.2925 375.4375 292.6425 376.2050 290.6075 L376.6150 290.5400 C376.7900 290.5100 376.9625 290.4700 377.1375 290.4475 C378.1400 290.3225 378.6900 289.8075 379.4225 289.1700 C380.7850 287.9800 382.2850 286.6200 383.1125 284.9925 C385.8725 279.5500 388.7225 261.1075 389.1225 254.6425 C389.4725 248.9727 389.7750 241.3240 385.8100 236.8082 C383.4100 236.4640 381.1175 236.4390 378.7075 236.6995 C379.1250 230.9492 378.2000 208.7227 379.7125 205.7162 C380.0850 203.6033 380.6850 201.4603 380.9150 199.3350 Z"></path>
<path id="" fill="#510100" fill-opacity="1.0" stroke="#000000" stroke-width="0.0" stroke-opacity="1.0" stroke-linecap="round" stroke-linejoin="round"  filling="0" d="M380.9150 199.3350 C391.8575 201.2733 403.0600 205.7710 409.6225 215.2148 C419.9525 230.0797 419.0925 249.6962 415.9575 266.7550 C412.3350 286.4525 401.0050 313.1750 384.0725 324.8075 C381.4100 326.6350 375.7625 330.1075 372.4775 330.1300 C372.1500 329.9550 371.9850 329.9875 371.9050 329.5850 C371.6350 328.2375 372.5975 326.0350 372.7900 324.6025 C373.3800 320.2175 373.5075 312.0275 374.7250 308.2675 L374.7700 308.1225 C374.8125 312.8475 373.8250 319.7550 373.2450 324.5850 C376.3700 323.2775 379.3600 321.2925 381.9850 319.1675 C398.5250 305.7700 409.6450 276.8450 411.7800 256.1125 C413.0100 244.1555 412.3100 227.1955 404.3850 217.5625 C399.5400 211.6735 391.5100 206.7110 384.0125 205.2305 C383.1525 205.0603 381.9650 204.7155 381.0975 204.7543 C380.3400 204.7880 380.1650 205.1962 379.7125 205.7162 C380.0850 203.6033 380.6850 201.4603 380.9150 199.3350 Z"></path>
<path id="" fill="#510100" fill-opacity="1.0" stroke="#000000" stroke-width="0.0" stroke-opacity="1.0" stroke-linecap="round" stroke-linejoin="round"  filling="0" d="M378.7075 236.6995 C379.1250 230.9492 378.2000 208.7227 379.7125 205.7162 C379.4250 213.8533 379.2575 221.9617 379.1725 230.1048 C382.8200 229.6543 386.5975 229.3103 389.7300 231.6758 C392.3100 233.6235 393.2575 236.3813 393.6175 239.4765 C393.9875 242.6362 393.9850 245.9080 394.0025 249.0878 C394.0650 260.7875 392.5625 271.7900 388.7125 282.8400 C387.6675 285.8450 386.6150 289.1100 384.5650 291.6025 C382.3925 294.2450 376.9200 296.7925 375.9200 298.4500 C375.7650 296.2925 375.4375 292.6425 376.2050 290.6075 L376.6150 290.5400 C376.7900 290.5100 376.9625 290.4700 377.1375 290.4475 C378.1400 290.3225 378.6900 289.8075 379.4225 289.1700 C380.7850 287.9800 382.2850 286.6200 383.1125 284.9925 C385.8725 279.5500 388.7225 261.1075 389.1225 254.6425 C389.4725 248.9727 389.7750 241.3240 385.8100 236.8082 C383.4100 236.4640 381.1175 236.4390 378.7075 236.6995 Z"></path>
<path id="" fill="#500000" fill-opacity="1.0" stroke="#000000" stroke-width="0.0" stroke-opacity="1.0" stroke-linecap="round" stroke-linejoin="round"  filling="0" d="M106.2712 336.8000 C107.0307 336.5075 107.7397 335.9350 108.4153 335.4775 C109.7025 339.9950 110.2923 346.7625 111.1395 351.6700 C112.9577 362.2000 115.0407 372.8075 117.5853 383.1875 C119.4255 390.7350 121.5997 398.1950 124.1020 405.5475 C125.0378 408.2625 126.5988 410.9125 127.3802 413.6425 C127.6300 414.5150 127.5667 415.4850 127.5360 416.3825 C127.7617 416.9625 127.9970 417.1025 128.4948 417.4250 C129.8590 418.3075 130.9295 419.8075 131.3130 421.3975 C131.4778 422.0800 131.5950 422.9575 131.2043 423.5775 C130.4605 423.4750 129.9955 422.8850 129.5530 422.3050 C128.6062 421.0600 127.9062 419.6775 127.0277 418.3900 C124.8327 415.1750 122.6133 412.1025 120.8402 408.6175 C112.8105 392.8325 110.8367 373.2600 108.3930 355.9050 C107.8408 351.9825 105.8970 340.0100 106.2712 336.8000 Z"></path>
<path id="" fill="#500000" fill-opacity="1.0" stroke="#000000" stroke-width="0.0" stroke-opacity="1.0" stroke-linecap="round" stroke-linejoin="round"  filling="0" d="M289.5325 141.1870 C289.6225 141.2280 289.7125 141.2635 289.8000 141.3103 C290.2600 141.5625 290.5050 141.8425 290.6475 142.3560 C291.4025 145.0918 289.8825 149.4487 288.4375 151.8175 C287.0250 154.1308 284.8875 156.1373 282.1275 156.5870 C278.8650 157.1180 274.8500 155.3825 271.6425 154.6035 C267.3950 153.5717 260.5350 152.3497 256.1750 153.1810 C251.1875 154.1310 250.3025 159.3895 247.7912 160.0255 C247.0110 159.6832 246.9290 159.3542 246.4875 158.6443 C246.0748 157.7117 246.0027 157.0250 246.1190 156.0080 C246.4600 153.0240 247.8878 148.8570 250.3875 146.9805 C254.6225 143.8015 266.3775 146.7145 271.0575 148.1842 C274.1525 149.1560 277.8475 150.9175 281.0725 151.2023 C285.5025 151.5938 286.6125 143.7560 289.3275 141.3627 C289.3950 141.3033 289.4650 141.2455 289.5325 141.1870 Z"></path>
<path id="" fill="#500000" fill-opacity="1.0" stroke="#000000" stroke-width="0.0" stroke-opacity="1.0" stroke-linecap="round" stroke-linejoin="round"  filling="0" d="M198.3515 132.9740 C198.8817 133.1700 198.8423 133.2157 199.1662 133.6358 C199.1845 135.9120 195.2485 142.2518 194.3087 144.8060 C189.4935 157.8925 200.9305 155.0340 202.6965 158.8830 L202.4628 159.4285 C200.9998 160.5505 199.6255 160.9980 197.8237 161.2473 C195.6600 161.2640 193.4323 160.8865 191.5225 159.8265 C189.3995 158.6480 187.8958 156.7450 187.2968 154.3865 C186.1085 149.7085 187.7567 143.8427 190.1145 139.7695 C192.0605 136.4080 194.4957 134.0002 198.3515 132.9740 Z"></path>
<path id="" fill="#500000" fill-opacity="1.0" stroke="#000000" stroke-width="0.0" stroke-opacity="1.0" stroke-linecap="round" stroke-linejoin="round"  filling="0" d="M106.2712 336.8000 C106.4700 334.8525 105.0725 330.5300 105.6460 329.0100 C105.7663 328.6900 106.0768 328.6325 106.3585 328.4850 C107.0895 328.5375 107.2022 328.5325 107.7842 328.9650 C108.4702 330.8450 108.3053 333.4825 108.4153 335.4775 C107.7397 335.9350 107.0307 336.5075 106.2712 336.8000 Z"></path>
<path id="" fill="#500000" fill-opacity="1.0" stroke="#000000" stroke-width="0.0" stroke-opacity="1.0" stroke-linecap="round" stroke-linejoin="round"  filling="0" d="M105.6165 320.3450 L106.5070 320.7225 C106.9485 321.2025 107.0730 321.7000 107.1868 322.3275 C107.4395 323.7225 107.2142 325.2375 106.4147 326.4050 L105.1045 324.6400 C105.0338 323.9300 104.9220 323.2250 104.8587 322.5175 C104.7720 321.5475 105.0072 321.0775 105.6165 320.3450 Z"></path>
</svg>