<svg xmlns="http://www.w3.org/2000/svg" viewBox="0 0 512 512" height="512.0px" width="512.0px">
<path id="" fill="#bd7f00" fill-opacity="1.0" stroke="#000000" stroke-width="0.0" stroke-opacity="1.0" stroke-linecap="round" stroke-linejoin="round"  filling="0" d="M417.2100 59.3545 C418.4850 59.1712 420.1275 59.0560 421.3675 59.4115 C422.2900 61.3777 421.7225 89.4770 421.7225 93.9498 L421.7300 186.0538 L421.7500 213.7838 C421.7500 219.2855 421.6075 224.8325 421.8450 230.3280 C416.3575 229.6687 410.1325 229.8855 404.3550 229.3355 C375.7250 226.6098 352.5750 221.1025 328.6425 204.2608 C327.5475 203.4375 326.4675 202.5920 325.4050 201.7247 C311.1100 189.8522 300.1600 173.8412 298.4800 154.9433 C296.8850 136.9742 304.5175 118.4065 315.9400 104.8242 C318.3150 101.9977 320.7500 99.0260 323.4150 96.4695 C325.8325 94.1533 328.5625 92.1215 331.1925 90.0527 C349.6600 75.7060 371.3450 66.0775 394.3725 62.0013 C401.9150 60.5973 409.5750 60.0190 417.2100 59.3545 Z"></path>
<path id="" fill="#bd7f00" fill-opacity="1.0" stroke="#000000" stroke-width="0.0" stroke-opacity="1.0" stroke-linecap="round" stroke-linejoin="round"  filling="0" d="M91.4958 59.1005 C95.8075 59.5975 100.1992 59.4417 104.5293 59.9442 C111.3918 60.7402 118.3920 61.6458 125.1260 63.2290 C151.6175 69.4580 180.3362 84.0675 197.4102 105.7117 C208.6783 119.9958 216.0502 138.0287 213.7975 156.4990 C211.5432 174.9798 200.6195 191.3392 186.1138 202.6122 C179.3565 208.3790 170.3400 213.0900 162.2108 216.5230 C142.1998 224.9740 124.2787 228.1090 102.7422 229.7885 C98.9565 230.0835 95.1552 230.0533 91.3640 230.3472 C91.5553 225.2265 91.3620 220.0087 91.3603 214.8760 L91.3253 182.3450 L91.3257 85.7240 C91.3282 82.8560 90.9803 60.3780 91.4958 59.1005 Z"></path>
<path id="" fill="#feab00" fill-opacity="1.0" stroke="#000000" stroke-width="0.0" stroke-opacity="1.0" stroke-linecap="round" stroke-linejoin="round"  filling="0" d="M196.0658 102.2263 C199.2363 101.4877 202.3085 100.1227 205.3867 99.0605 C209.8607 97.5195 214.4138 96.2182 219.0262 95.1625 C250.3725 87.8683 283.1650 89.8723 313.3875 100.9290 C315.3950 101.6480 317.5425 101.9617 319.5275 102.7188 C322.2825 103.7700 325.0025 105.3925 327.6400 106.7235 C333.0725 109.4640 338.5175 112.0813 343.6725 115.3270 C381.0225 138.3710 407.6400 175.3605 417.6275 218.0972 C418.6700 217.9917 419.6350 217.8663 420.6800 218.0372 C421.0450 218.4050 421.2825 229.2637 421.2950 230.6675 C422.2725 236.7162 421.9475 243.0683 421.9425 249.1823 L421.9300 273.6800 L421.9275 307.0025 C421.9500 318.1400 422.1025 329.1175 420.8400 340.2100 C419.6975 350.0625 417.4625 359.7600 414.1750 369.1200 C407.7675 387.7850 395.1525 406.7350 380.4700 419.9250 C371.1775 428.1100 360.8150 434.9925 349.6675 440.3875 C339.2225 445.4700 327.1550 449.1800 315.6775 450.9550 C298.6075 453.5925 280.8675 452.5975 263.6400 452.6600 L234.2433 452.6525 C223.8008 452.6600 213.2328 452.7375 202.8340 451.6300 C193.9402 450.7100 185.1877 448.7325 176.7623 445.7425 C144.9960 434.8950 118.9005 411.7725 104.3102 381.5425 C88.9883 349.7875 91.4555 323.8900 91.3595 290.0250 L91.2690 253.7150 C91.2405 245.7965 90.6617 237.4203 91.9438 229.5965 C92.6900 225.0420 94.8990 221.0623 96.0360 216.6195 C98.0478 208.7570 100.1552 201.0878 103.1225 193.5155 C109.9342 176.1325 121.7605 157.8082 134.4115 144.1440 C142.9345 134.9382 153.3983 125.9333 163.8820 119.0098 C168.2435 116.1292 172.8320 113.3830 177.3985 110.8398 C179.7240 109.5445 191.0788 104.3875 191.8405 102.9778 C192.0410 102.6068 192.1775 102.1430 192.3138 101.7440 C192.4572 101.3235 192.5065 101.3665 192.8533 101.1233 C194.0137 101.2148 195.0160 101.7570 196.0658 102.2263 Z"></path>
<path id="" fill="#bd7f00" fill-opacity="1.0" stroke="#000000" stroke-width="0.0" stroke-opacity="1.0" stroke-linecap="round" stroke-linejoin="round"  filling="0" d="M417.6275 218.0972 C418.6700 217.9917 419.6350 217.8663 420.6800 218.0372 C421.0450 218.4050 421.2825 229.2637 421.2950 230.6675 C420.8425 229.1602 420.1050 227.7408 419.6200 226.2260 C418.7725 223.5757 418.2250 220.8135 417.6275 218.0972 Z"></path>
<path id="" fill="#bd7f00" fill-opacity="1.0" stroke="#000000" stroke-width="0.0" stroke-opacity="1.0" stroke-linecap="round" stroke-linejoin="round"  filling="0" d="M248.0383 337.9400 C250.9300 339.2275 253.6925 340.9100 256.4850 342.4050 C259.2200 341.0875 261.8775 339.6200 264.5475 338.1750 L264.5225 338.3425 L264.9225 338.0275 L265.0750 340.1050 C265.4375 343.7150 265.1750 347.5550 265.1700 351.1925 L265.1375 371.8675 C265.1250 375.5050 264.7325 379.5475 265.5075 383.1150 C266.0675 385.6875 267.4225 388.3350 269.1325 390.3350 C272.3475 394.0925 277.3975 396.5625 282.3150 396.9150 C285.9950 397.1800 289.5025 396.5525 292.8500 395.0000 C298.4500 392.4025 301.6400 387.4775 302.7400 381.5100 C303.1600 379.2200 303.3700 376.5725 304.4075 374.4725 C305.0425 373.1875 306.2000 371.9975 307.3000 371.1000 C309.4400 369.3525 311.7700 369.7800 314.3025 370.0800 C316.2025 371.4575 317.6000 372.7975 318.9550 374.7150 C319.9950 381.7950 318.5875 388.7025 315.1200 394.9325 C310.7950 402.7100 302.8100 409.4025 294.2200 411.8425 C283.9400 414.7600 271.9550 413.1675 263.3400 406.6625 C261.0550 404.9400 259.2975 402.2850 256.8150 400.8850 C255.0525 400.8975 252.6650 404.0425 251.3575 405.2175 C244.4435 411.4300 235.5920 413.5900 226.4650 413.1050 C216.4783 412.5725 208.7600 408.1350 202.1760 400.7900 C195.1345 392.9325 193.4487 384.8875 193.9985 374.6375 C194.8333 373.4825 195.8972 372.2750 196.9685 371.3375 C198.4405 370.0500 200.3217 369.6100 202.2402 369.7850 C209.8578 370.4850 209.3208 378.5650 210.8230 383.9350 C211.5087 386.3850 212.7650 388.7875 214.4413 390.7050 C217.6628 394.3925 222.7975 396.6450 227.6418 396.9300 C232.7235 397.2300 238.2578 395.6825 242.1017 392.2475 C244.7267 389.9000 246.8050 386.2975 247.5560 382.8575 C248.4790 378.6325 247.9308 373.4700 247.9180 369.1325 C247.8878 358.7750 247.5150 348.2800 248.0383 337.9400 Z"></path>
<path id="" fill="#646467" fill-opacity="1.0" stroke="#000000" stroke-width="0.0" stroke-opacity="1.0" stroke-linecap="round" stroke-linejoin="round"  filling="0" d="M168.2878 350.0425 C170.4960 349.8525 172.7655 349.9650 174.6400 351.2800 C176.5332 352.6125 177.7830 354.6750 178.0865 356.9700 C178.4012 359.2425 177.7720 361.4275 176.3715 363.2350 C175.2023 364.7450 174.2195 365.2850 172.4917 365.9175 C165.3970 368.5175 157.7478 370.2050 150.4795 372.3050 L99.2815 386.7750 L76.1657 393.3950 C71.3087 394.8125 66.2332 396.7250 61.1965 397.2800 C58.9122 397.3950 56.4227 397.0775 54.4393 395.8775 C52.7238 394.8425 51.5950 393.1475 51.1348 391.2100 C50.6797 389.2950 50.9040 387.3100 51.9555 385.6275 C53.0277 383.9100 54.4312 382.9575 56.2737 382.2150 C59.7885 380.8000 63.8365 380.0525 67.4975 379.0275 C75.4398 376.8025 83.3885 374.5500 91.2920 372.1925 C108.4457 366.9225 125.6775 361.9100 142.9812 357.1550 C151.3700 354.7650 159.7713 351.8825 168.2878 350.0425 Z"></path>
<path id="" fill="#646466" fill-opacity="1.0" stroke="#000000" stroke-width="0.0" stroke-opacity="1.0" stroke-linecap="round" stroke-linejoin="round"  filling="0" d="M58.0383 271.8075 C58.7357 271.7325 59.4098 271.7325 60.1085 271.8050 C63.3708 272.1525 66.5883 273.2375 69.7347 274.1300 L82.9082 277.8875 L124.3542 289.3200 L157.3728 298.6300 C162.5865 300.1025 168.2780 301.2600 173.3080 303.2025 C175.6250 304.0975 177.1205 305.4275 178.6443 307.3150 C179.1723 309.7075 179.2300 311.9725 178.9330 314.3925 C177.4475 316.5225 175.6517 317.9000 173.2670 318.9050 C170.8927 319.1600 168.4928 319.0275 166.1613 318.5100 C162.7988 317.7500 159.4892 316.6675 156.1752 315.7200 L138.9140 310.7850 C121.3955 305.9375 103.9438 300.8525 86.5640 295.5275 C80.6355 293.7700 74.6923 292.0625 68.7347 290.4050 C64.9698 289.3425 61.0830 288.4150 57.4677 286.9100 C55.2335 285.9800 53.3095 284.5850 52.4270 282.2350 C51.7320 280.3825 51.8712 278.3100 52.6890 276.5200 C53.8050 274.0775 55.5960 272.7175 58.0383 271.8075 Z"></path>
<path id="" fill="#646466" fill-opacity="1.0" stroke="#000000" stroke-width="0.0" stroke-opacity="1.0" stroke-linecap="round" stroke-linejoin="round"  filling="0" d="M343.7100 326.0975 C349.6375 325.6650 355.7300 325.9625 361.6800 325.9650 L393.7725 325.9725 C401.2800 325.9750 408.7975 325.8800 416.3025 325.9775 C420.3000 326.0275 424.2800 326.3225 428.2800 326.3325 L443.7475 326.4125 C446.6850 326.4350 449.6850 326.3275 452.6100 326.5950 C454.5475 326.7700 456.3225 327.1750 457.9175 328.3500 C459.4650 329.4925 460.5250 331.1750 460.7650 333.0925 C461.0075 335.0450 460.6975 337.3200 459.4575 338.9050 C457.3350 341.6150 455.1425 342.1500 451.9100 342.5050 C428.7200 342.9900 405.5225 343.1275 382.3250 342.9100 C370.0025 342.9100 357.5475 343.3100 345.2375 342.9425 C342.0100 342.8475 338.9150 342.4550 336.6350 339.8825 C334.6700 337.6675 334.9275 334.5525 335.0225 331.8025 C337.2550 328.2975 339.7350 327.0125 343.7100 326.0975 Z"></path>
<path id="" fill="#646466" fill-opacity="1.0" stroke="#000000" stroke-width="0.0" stroke-opacity="1.0" stroke-linecap="round" stroke-linejoin="round"  filling="0" d="M443.1125 271.8150 C445.1700 271.6475 447.3325 271.5850 449.1150 272.7975 C451.0050 274.0850 452.6150 276.2025 452.9425 278.5075 C453.2525 280.6875 452.4100 282.7825 451.0550 284.4625 C449.9225 285.8650 448.8500 286.5125 447.2075 287.1725 C444.8950 288.1000 442.4175 288.7000 440.0325 289.4200 C436.1500 290.6100 432.2750 291.8300 428.4075 293.0750 C411.0175 298.8600 393.5350 304.3700 375.9675 309.6025 L358.2300 315.1700 C353.6150 316.6325 348.8875 318.4100 344.0600 318.9575 C342.9450 319.0000 341.7600 319.1025 340.6550 318.9550 C337.8150 318.5775 336.0225 316.8275 334.3325 314.6900 C334.3000 314.5150 334.2700 314.3425 334.2425 314.1675 C333.8250 311.4775 333.4225 308.4425 335.1600 306.1275 C336.4275 304.4400 339.2050 303.4625 341.1375 302.7575 C345.3975 301.2025 349.8500 300.1150 354.1775 298.7500 L392.2450 287.0425 L428.1300 276.1525 C432.9725 274.7125 438.1350 272.4950 443.1125 271.8150 Z"></path>
<path id="" fill="#646466" fill-opacity="1.0" stroke="#000000" stroke-width="0.0" stroke-opacity="1.0" stroke-linecap="round" stroke-linejoin="round"  filling="0" d="M341.6075 350.0425 C343.5700 350.0225 345.5075 350.5100 347.3875 351.0225 C353.7525 352.7550 360.0375 354.8825 366.3600 356.7850 L422.2650 374.0850 L440.3825 379.5700 C443.4050 380.4800 447.6000 381.2175 450.2575 382.8575 C452.0900 383.9875 453.7200 386.2300 454.0900 388.3575 C454.4275 390.2875 453.8775 392.2525 452.7550 393.8375 C451.6650 395.3750 449.8225 396.8050 447.9400 397.1025 C445.9775 397.3475 443.8350 397.4550 441.9000 397.0075 C438.8075 396.2925 435.7575 395.2200 432.7250 394.2775 L416.8150 389.3550 L368.9125 374.9225 L349.8425 369.0800 C346.5475 368.0775 342.2600 367.2650 339.2625 365.5750 C337.3050 364.4700 335.6875 362.0625 335.1250 359.9200 C334.5300 357.6600 334.9200 355.7575 336.0975 353.7775 C337.4100 351.5725 339.1750 350.6300 341.6075 350.0425 Z"></path>
<path id="" fill="#646467" fill-opacity="1.0" stroke="#000000" stroke-width="0.0" stroke-opacity="1.0" stroke-linecap="round" stroke-linejoin="round"  filling="0" d="M171.2747 326.5575 C173.5815 327.1950 175.3427 328.1100 176.7490 330.1200 C178.0712 332.0100 178.5275 334.5275 178.0310 336.7725 C177.5440 338.9775 176.5103 339.9550 174.7610 341.1950 C172.3073 342.9375 169.6805 342.9325 166.7258 342.9575 C140.5533 343.1475 114.3795 343.0225 88.2097 342.5875 C82.3815 342.4900 76.5400 342.5700 70.7105 342.5700 C67.3828 342.5725 63.9790 342.7100 60.6698 342.3425 C58.1115 342.0575 55.9300 341.7025 54.0560 339.7575 C52.6512 338.2975 51.9370 336.4025 51.9937 334.3825 C52.0515 332.3350 53.0480 330.1775 54.5762 328.8100 C55.7185 327.7875 57.1313 327.1375 58.6265 326.8300 C63.1102 325.9100 68.5493 326.4050 73.1340 326.3775 C79.1065 326.3400 85.1955 326.0650 91.1588 326.2725 C91.9698 326.7875 92.5765 326.9025 93.5325 326.9475 C99.5920 327.2475 105.7255 327.0750 111.7953 327.0775 L144.2473 327.0475 L160.1915 327.0400 C163.5872 327.0425 167.5880 327.3925 170.8898 326.6525 C171.0188 326.6250 171.1465 326.5900 171.2747 326.5575 Z"></path>
<path id="" fill="#bd7f00" fill-opacity="1.0" stroke="#000000" stroke-width="0.0" stroke-opacity="1.0" stroke-linecap="round" stroke-linejoin="round"  filling="0" d="M262.3575 90.8752 C263.3100 90.9073 264.2675 90.8580 265.2200 90.8325 C264.9300 115.7755 265.1450 140.7428 265.1500 165.6885 L265.1700 187.1752 C265.1800 191.0490 265.3950 195.0242 265.1100 198.8840 C264.9500 201.0505 264.6725 203.1625 263.4575 205.0103 C262.1650 206.9815 260.0050 208.6528 257.6425 209.0585 C255.1875 209.4803 253.5725 208.5818 251.6575 207.2083 C251.5875 207.1585 251.5150 207.1130 251.4475 207.0595 C250.7925 206.5417 250.0700 205.8955 249.6925 205.1398 C248.1690 202.0948 248.1390 196.1853 247.9478 192.7278 C247.6520 187.3870 248.9557 182.1010 248.9507 176.7397 L248.9277 133.9155 C248.9267 126.1183 249.1523 118.2415 248.8448 110.4525 C248.7023 106.8395 248.1955 103.2542 247.9753 99.6478 C247.7985 96.7513 248.0663 93.8503 247.8190 90.9603 L262.3575 90.8752 Z"></path>
<path id="" fill="#bd7f00" fill-opacity="1.0" stroke="#000000" stroke-width="0.0" stroke-opacity="1.0" stroke-linecap="round" stroke-linejoin="round"  filling="0" d="M295.8725 95.7285 C301.3225 96.3175 307.2200 98.4408 312.2525 100.5163 L312.1575 147.6400 C312.1600 154.0932 312.7700 163.2640 312.0075 169.3975 C311.7550 171.4205 311.1125 173.1577 309.8800 174.7892 C308.1825 176.6230 306.8275 177.2513 304.2875 177.3307 C301.9950 177.4023 299.2850 176.8667 297.6425 175.1455 C296.7000 174.1605 296.3400 173.1508 296.1625 171.8185 C295.7100 168.4770 295.9075 164.9957 295.9125 161.6295 L295.9175 145.7578 L295.8725 95.7285 Z"></path>
<path id="" fill="#bd7f00" fill-opacity="1.0" stroke="#000000" stroke-width="0.0" stroke-opacity="1.0" stroke-linecap="round" stroke-linejoin="round"  filling="0" d="M216.4230 95.7932 C216.6178 95.7835 216.8070 95.8615 216.9960 95.9090 C217.0658 96.1817 217.1033 96.2917 217.1277 96.6035 C217.4037 100.1230 217.0932 103.9160 217.0842 107.4662 L217.0533 131.4393 L217.0735 157.9320 C217.0840 162.1835 217.3915 166.5635 217.0887 170.7962 C216.9855 172.2402 216.7285 173.4718 215.8087 174.6265 C214.4122 176.3797 212.1597 177.1295 209.9953 177.3160 C207.5737 177.5247 205.6913 177.1922 203.8268 175.6205 C202.3398 173.9925 201.5170 172.1010 201.1832 169.9245 C200.2540 163.8692 200.8947 155.1410 200.9008 148.8160 C200.9160 132.7467 201.2188 116.5980 200.7672 100.5405 C205.9153 98.6038 211.0143 96.8640 216.4230 95.7932 Z"></path>
<path id="" fill="#3e2c26" fill-opacity="1.0" stroke="#000000" stroke-width="0.0" stroke-opacity="1.0" stroke-linecap="round" stroke-linejoin="round"  filling="0" d="M248.0383 337.9400 C242.9077 335.7050 235.8858 333.0525 233.7448 327.4875 C232.6255 324.5800 232.4625 320.0425 233.8087 317.2075 C235.0312 314.6300 237.6605 312.5300 240.3380 311.6350 C243.5140 310.5725 266.0275 310.6375 269.9000 311.0425 C271.3800 311.1975 272.7775 311.4725 274.1050 312.1750 C276.7350 313.5400 278.7125 315.8975 279.5975 318.7250 C280.5650 321.8800 280.2550 326.1600 278.6300 329.0175 C275.3250 334.8325 267.8500 335.0750 265.3825 338.3700 C265.0850 338.7675 265.1275 339.6100 265.0750 340.1050 L264.9225 338.0275 L264.5225 338.3425 L264.5475 338.1750 C261.8775 339.6200 259.2200 341.0875 256.4850 342.4050 C253.6925 340.9100 250.9300 339.2275 248.0383 337.9400 Z"></path>
<path id="" fill="#2d2d2c" fill-opacity="1.0" stroke="#000000" stroke-width="0.0" stroke-opacity="1.0" stroke-linecap="round" stroke-linejoin="round"  filling="0" d="M329.4250 232.3777 C336.0100 231.4408 342.1000 236.0435 342.9975 242.6350 C343.8925 249.2265 339.2525 255.2875 332.6550 256.1425 C326.1150 256.9900 320.1200 252.4000 319.2300 245.8660 C318.3425 239.3318 322.8950 233.3062 329.4250 232.3777 Z"></path>
<path id="" fill="#2d2d2c" fill-opacity="1.0" stroke="#000000" stroke-width="0.0" stroke-opacity="1.0" stroke-linecap="round" stroke-linejoin="round"  filling="0" d="M180.4518 232.3622 C187.0038 231.5652 192.9648 236.2218 193.7780 242.7717 C194.5910 249.3217 189.9495 255.2950 183.4015 256.1225 C176.8305 256.9550 170.8325 252.2950 170.0165 245.7215 C169.2005 239.1485 173.8768 233.1620 180.4518 232.3622 Z"></path>
<path id="" fill="#d6981a" fill-opacity="0.980392" stroke="#000000" stroke-width="0.0" stroke-opacity="1.0" stroke-linecap="round" stroke-linejoin="round"  filling="0" d="M91.1588 326.2725 C94.8708 325.7800 98.7422 325.9750 102.4843 325.9725 L120.3903 325.9650 L150.4478 325.9625 C156.0135 325.9625 161.6185 325.8175 167.1788 326.0200 C168.5457 326.0675 169.9648 326.1300 171.2747 326.5575 C171.1465 326.5900 171.0188 326.6250 170.8898 326.6525 C167.5880 327.3925 163.5872 327.0425 160.1915 327.0400 L144.2473 327.0475 L111.7953 327.0775 C105.7255 327.0750 99.5920 327.2475 93.5325 326.9475 C92.5765 326.9025 91.9698 326.7875 91.1588 326.2725 Z"></path>
</svg>