<svg xmlns="http://www.w3.org/2000/svg" viewBox="0 0 512 512" height="512.0px" width="512.0px">
<path id="" fill="#efc589" fill-opacity="1.0" stroke="#000000" stroke-width="0.0" stroke-opacity="1.0" stroke-linecap="round" stroke-linejoin="round"  filling="0" d="M246.7598 84.1062 C248.0735 83.9615 249.4128 83.9905 250.7325 83.9770 C267.8175 83.7997 283.4725 85.3138 300.0725 89.5875 C303.5150 90.4742 306.9050 91.7238 310.2750 92.8633 C333.1125 100.3965 354.1800 112.4983 372.1950 128.4317 C374.6150 130.5540 377.1525 132.6375 379.4400 134.9037 C381.7325 137.1747 383.7550 139.7937 385.9025 142.2063 C412.6375 171.6823 427.6375 209.9382 428.0625 249.7310 L428.0475 349.4925 L428.0575 378.9325 C428.0625 388.9650 428.5075 399.0050 426.3150 408.8725 C423.5575 421.2750 417.1175 433.4000 408.0850 442.3925 C398.1000 452.3300 382.8975 459.2025 368.9800 460.7575 C363.3450 461.3875 357.4250 461.0475 351.7525 461.0450 C346.3425 461.0400 340.8750 461.1875 335.4700 460.9400 C331.2925 460.7500 327.1575 460.0800 322.9675 460.0375 C303.8625 459.8400 284.7325 460.0250 265.6250 460.0325 C239.5950 460.0300 213.5215 459.7100 187.4962 460.0600 C183.3760 460.1175 179.3160 460.6950 175.2100 460.9325 C170.6622 461.1950 166.0148 461.0350 161.4563 461.0425 C153.8255 461.0550 146.1700 461.3650 138.6255 460.0025 C128.1080 458.1025 117.4930 453.4600 109.2523 446.5625 C94.4545 434.1750 85.9857 417.9750 84.2753 398.8125 C83.4778 389.8725 83.9670 380.5800 83.9665 371.6000 L83.9587 323.2375 L83.9580 275.8100 C83.9590 267.3850 83.6608 258.8425 84.0332 250.4325 C84.1980 246.7065 84.6350 242.9670 84.9727 239.2543 C88.2238 203.5130 98.8075 174.7930 121.9980 147.1130 C148.1217 115.9280 184.1568 94.6530 224.0810 86.8427 C231.5440 85.3938 239.1935 84.7745 246.7598 84.1062 Z"></path>
<path id="" fill="#b19267" fill-opacity="1.0" stroke="#000000" stroke-width="0.0" stroke-opacity="1.0" stroke-linecap="round" stroke-linejoin="round"  filling="0" d="M196.8860 457.8250 C182.5858 450.4775 173.1355 442.7800 168.0000 426.8400 C165.3327 418.5600 165.9410 410.2200 165.9467 401.6475 C165.9520 394.0475 165.5222 386.2200 166.0632 378.6475 C166.8310 367.8950 170.5575 355.5025 175.5287 345.9775 C186.9283 324.1850 206.6022 307.8850 230.1337 300.7325 C247.6897 295.3225 268.1025 295.5750 285.4800 301.5825 C290.1000 303.1800 294.7425 305.5025 299.0550 307.7925 C319.8275 319.0850 335.3975 338.0100 342.4750 360.5700 C344.0650 365.7975 345.2800 371.2750 345.8450 376.7075 C346.5875 383.8400 346.0975 391.2750 346.0950 398.4475 C346.0925 405.5425 346.7775 413.1550 345.6200 420.1375 C344.6575 425.9400 342.6600 431.3375 339.8800 436.5075 C336.1100 443.5225 329.2825 450.4800 322.3350 454.3675 C321.2675 454.9650 315.6575 457.4025 315.2625 457.7675 C315.1000 457.9150 314.9425 458.7225 314.9025 458.9250 C314.9575 459.6575 315.1000 459.9900 314.6950 460.6175 C313.8500 460.9475 312.9975 460.8250 312.1100 460.7800 C306.7350 461.4275 300.6200 461.0175 295.1600 461.0200 L263.1250 461.0325 L226.5750 461.0300 C220.2430 461.0275 213.6080 461.4425 207.3237 460.8150 C204.0250 460.9350 200.7052 460.8000 197.4030 460.8225 C197.3082 459.7850 197.1525 458.8300 196.8860 457.8250 Z"></path>
<path id="" fill="#f0cfa0" fill-opacity="1.0" stroke="#000000" stroke-width="0.0" stroke-opacity="1.0" stroke-linecap="round" stroke-linejoin="round"  filling="0" d="M196.8860 457.8250 C198.2420 457.7875 206.1670 459.7100 207.0500 460.5425 C207.1440 460.6300 207.2325 460.7250 207.3237 460.8150 C204.0250 460.9350 200.7052 460.8000 197.4030 460.8225 C197.3082 459.7850 197.1525 458.8300 196.8860 457.8250 Z"></path>
<path id="" fill="#f2d1a1" fill-opacity="1.0" stroke="#000000" stroke-width="0.0" stroke-opacity="1.0" stroke-linecap="round" stroke-linejoin="round"  filling="0" d="M312.1100 460.7800 C310.1350 460.5250 308.1025 460.8175 306.1325 460.4800 C307.4225 459.1175 312.0000 458.9050 313.9250 458.0625 C314.2925 457.9025 314.0550 457.9275 314.5625 458.0950 L314.9025 458.9250 C314.9575 459.6575 315.1000 459.9900 314.6950 460.6175 C313.8500 460.9475 312.9975 460.8250 312.1100 460.7800 Z"></path>
<path id="" fill="#965500" fill-opacity="1.0" stroke="#000000" stroke-width="0.0" stroke-opacity="1.0" stroke-linecap="round" stroke-linejoin="round"  filling="0" d="M145.9167 51.1125 C160.5945 51.0293 173.7090 55.2012 184.3100 65.6705 C194.4498 75.6837 198.8045 88.9617 198.8913 103.0070 L198.9062 123.5228 C198.9077 128.5185 199.0347 133.5455 198.6525 138.5290 C196.8562 161.9473 187.5977 184.8455 170.9665 201.6625 C168.3785 204.2795 165.7852 206.9640 162.9198 209.2795 C146.9818 222.1577 125.2480 230.9400 104.6250 231.0672 C100.9993 231.1122 97.1590 231.3055 93.5580 230.8887 C84.1718 229.8022 73.9133 225.0250 67.0038 218.5903 C56.5240 208.8302 51.5885 196.1328 51.0820 181.9940 C50.8483 175.4653 51.0358 168.8687 51.0460 162.3330 C51.0570 155.4355 50.8035 148.4305 51.4198 141.5550 C53.3412 119.0042 62.8242 97.7637 78.3310 81.2783 C95.0397 63.5967 121.5645 51.8565 145.9167 51.1125 Z"></path>
<path id="" fill="#965500" fill-opacity="1.0" stroke="#000000" stroke-width="0.0" stroke-opacity="1.0" stroke-linecap="round" stroke-linejoin="round"  filling="0" d="M361.9775 51.1113 C362.1025 51.1082 362.2275 51.1040 362.3500 51.1020 C387.5825 50.7435 413.6425 61.8208 431.6400 79.3005 C451.2225 98.3210 460.7000 124.0088 460.9575 150.9953 L460.9975 170.9317 C461.0025 175.5740 461.1475 180.2747 460.7850 184.9045 C459.8400 197.0110 455.2200 208.3000 446.6300 217.0027 C437.7300 225.9295 425.6675 230.9845 413.0625 231.0703 C408.8375 231.1333 404.5150 231.2220 400.3100 230.7800 C380.3475 228.6810 360.4050 219.4800 345.5700 206.0737 C329.8850 191.6690 319.2275 172.6147 315.1650 151.7080 C313.9225 145.0515 313.5375 138.1777 313.2450 131.4205 C312.9850 125.4228 313.1525 119.3532 313.1500 113.3483 C313.1500 108.3745 312.9750 103.3170 313.3425 98.3565 C314.1550 87.4238 317.8450 76.1670 325.4125 68.0220 C335.3550 57.3213 347.2900 51.6345 361.9775 51.1113 Z"></path>
<path id="" fill="#3e2c27" fill-opacity="1.0" stroke="#000000" stroke-width="0.0" stroke-opacity="1.0" stroke-linecap="round" stroke-linejoin="round"  filling="0" d="M244.8898 288.0800 C251.7575 287.8475 263.8700 287.3800 270.3400 288.6375 C273.8200 289.3150 276.9750 290.8200 278.9375 293.9025 C280.8075 296.8425 281.3600 300.9875 280.4625 304.3600 C278.6125 311.3100 270.3675 314.1275 264.7550 317.3100 C265.0750 336.4175 264.8725 355.5525 264.8725 374.6650 L264.8675 396.2125 C264.8650 400.6950 264.9825 405.2200 264.7025 409.6975 C264.5725 411.7775 264.3550 413.8900 263.5700 415.8375 C263.2275 416.3250 262.8525 416.7525 262.4375 417.1775 C260.6700 418.9925 258.3825 420.0425 255.8325 420.0400 C253.6775 420.0375 251.4800 419.2375 249.9577 417.6875 C248.2345 415.9300 247.7445 413.7800 247.4715 411.4225 C246.9655 407.0550 247.1995 402.5325 247.1975 398.1350 L247.1920 376.8675 C247.1900 357.0000 246.7487 337.0150 247.3183 317.1600 C244.1015 315.5225 240.7827 313.9675 237.7832 311.9500 C234.4515 309.7075 231.9920 307.1200 231.2812 302.9900 C230.6893 299.5300 231.5150 295.9775 233.5723 293.1325 C236.3160 289.3475 240.6060 288.7425 244.8898 288.0800 Z"></path>
<path id="" fill="#2d2d2d" fill-opacity="1.0" stroke="#000000" stroke-width="0.0" stroke-opacity="1.0" stroke-linecap="round" stroke-linejoin="round"  filling="0" d="M183.5547 223.3963 C190.2680 221.8168 196.9857 225.9960 198.5352 232.7160 C200.0850 239.4362 195.8757 246.1353 189.1490 247.6552 C182.4642 249.1655 175.8160 244.9883 174.2760 238.3103 C172.7360 231.6322 176.8837 224.9657 183.5547 223.3963 Z"></path>
<path id="" fill="#2d2d2d" fill-opacity="1.0" stroke="#000000" stroke-width="0.0" stroke-opacity="1.0" stroke-linecap="round" stroke-linejoin="round"  filling="0" d="M324.8225 223.1005 C331.6650 222.6862 337.5500 227.8887 337.9800 234.7300 C338.4100 241.5712 333.2225 247.4695 326.3800 247.9147 C319.5200 248.3615 313.5975 243.1520 313.1675 236.2888 C312.7350 229.4255 317.9575 223.5163 324.8225 223.1005 Z"></path>
</svg>