<svg xmlns="http://www.w3.org/2000/svg" viewBox="0 0 512 512" height="512.0px" width="512.0px">
<path id="" fill="#646467" fill-opacity="1.0" stroke="#000000" stroke-width="0.0" stroke-opacity="1.0" stroke-linecap="round" stroke-linejoin="round"  filling="0" d="M91.8997 79.3488 C96.1555 78.6817 101.1045 79.1283 105.4392 79.1332 C119.8510 79.1497 133.0120 78.3492 145.7747 86.6065 C157.9592 94.4900 163.0002 107.9563 165.9445 121.5632 C168.7207 134.3930 167.9620 144.6460 168.0318 157.4973 C168.0665 163.8607 168.4933 170.3645 167.8427 176.7065 C166.7070 187.7758 162.7705 200.0340 160.3092 211.0285 L154.5790 237.4595 C153.3650 243.1068 152.3223 248.9612 150.5070 254.4500 C148.8570 259.4400 146.4317 264.2325 143.5485 268.6250 C140.1492 273.8025 133.0325 275.5425 127.3607 276.7125 C126.9635 276.8050 126.5615 276.8775 126.1565 276.9300 C123.1560 277.2850 119.9073 277.1675 116.8832 277.1925 C103.7603 277.2950 94.1082 275.2125 83.6865 266.8425 C79.2695 263.2950 75.6732 258.5400 73.2405 253.4275 C70.6758 248.0397 69.3593 241.8587 67.7795 236.1275 L62.0730 215.7580 L55.6543 193.4485 C53.9410 187.4277 52.0930 181.4637 51.4250 175.2142 C50.4795 166.3683 51.0513 157.0845 51.0460 148.1777 L51.0380 131.1942 C51.0338 124.9203 50.8035 118.7108 52.1598 112.5365 C53.5405 106.2523 56.5128 99.8950 60.5975 94.9088 C68.5400 85.2137 79.6465 80.5935 91.8997 79.3488 Z"></path>
<path id="" fill="#646467" fill-opacity="1.0" stroke="#000000" stroke-width="0.0" stroke-opacity="1.0" stroke-linecap="round" stroke-linejoin="round"  filling="0" d="M392.7850 79.1145 L408.2250 79.0965 C419.5300 79.0885 429.6550 79.5015 439.8150 85.1963 C449.5475 90.6520 456.2025 99.5000 459.2050 110.1882 C460.0750 113.2563 460.6275 116.4060 460.8500 119.5875 C461.5375 128.8490 461.0075 138.9088 461.0125 148.2507 L461.0375 163.1458 C461.0425 167.1888 461.1525 171.2480 460.6200 175.2660 C459.5775 183.1127 457.0525 190.7475 454.8850 198.3387 L447.9100 222.9690 C445.3800 231.5925 443.4800 240.5822 440.5125 249.0502 C439.5975 251.6625 438.4025 254.1225 437.0350 256.5250 C431.1900 266.8000 422.3625 272.6750 411.0575 275.7425 C408.8375 276.4225 406.1575 276.8550 403.8425 276.9900 C393.3350 277.5975 379.1000 277.9075 370.8225 270.3475 C367.3450 267.1675 364.9375 262.6225 363.3425 258.2475 C360.9575 251.6950 359.7200 244.4082 358.2825 237.5855 L352.7750 212.2435 C349.9850 199.7220 344.9350 185.2047 344.4125 172.5685 C344.1425 166.0095 344.2825 159.4003 344.2875 152.8342 C344.2900 146.9792 344.1350 141.0847 344.5150 135.2400 C345.4750 120.4655 349.2975 102.9895 359.6375 91.8855 C367.8675 83.0502 381.1225 79.5395 392.7850 79.1145 Z"></path>
<path id="" fill="#87868a" fill-opacity="1.0" stroke="#000000" stroke-width="0.0" stroke-opacity="1.0" stroke-linecap="round" stroke-linejoin="round"  filling="0" d="M251.3525 65.1093 C276.4325 64.4440 301.1325 71.3522 322.2275 84.9327 C341.7975 97.4297 358.3900 117.6875 367.4700 139.0388 C371.7575 149.1163 374.5400 160.5168 375.7775 171.3875 C376.3250 176.2165 376.1075 181.1770 376.1000 186.0323 L376.0700 207.7303 C376.0625 220.4707 376.4275 233.2805 376.0400 246.0095 C375.8650 251.7825 374.7850 257.8975 373.6350 263.5525 C373.2350 265.5200 372.5350 267.5400 372.2725 269.5175 C372.2125 269.9825 372.3225 270.4075 372.4275 270.8600 C372.5300 271.3100 372.6275 271.6575 372.6325 272.1275 C372.6325 272.2250 372.6900 272.3575 372.6150 272.4200 C371.7825 273.0875 371.3900 272.0475 370.6550 274.2450 C368.8175 279.7375 367.3525 285.4050 365.6000 290.9375 L355.9525 322.2250 C354.2725 327.6825 352.8800 333.4475 350.6500 338.7075 C349.8300 340.6400 348.7575 342.7975 347.2350 344.2775 C346.0625 345.4150 344.3725 346.1175 342.8375 346.6325 C336.3650 348.8125 326.0175 350.6650 319.0950 352.0300 C312.8575 353.2575 306.0475 355.0925 299.6825 355.1125 C299.2925 361.6150 298.8025 368.2250 297.6925 374.6475 C294.8475 391.1100 287.6575 407.5200 276.0000 419.6575 C273.6025 422.1500 271.1475 424.7475 268.5025 426.9750 C253.7825 439.3800 234.1938 446.4750 215.0110 446.8475 C207.9985 446.9400 200.8950 447.0500 193.8882 446.7775 C186.8815 446.5025 173.1158 444.5300 168.3418 439.0975 C167.4733 438.1100 166.9713 436.9775 167.0825 435.6475 C167.9695 425.0525 190.0810 426.6175 197.5450 424.6350 C200.9288 423.7075 204.0525 422.0125 206.6723 419.6775 C209.6322 417.0600 211.5215 414.0625 212.4742 410.2300 C213.8640 404.6350 213.1745 397.4000 213.1705 391.6125 C213.1620 379.6000 212.7867 367.4775 213.4840 355.4900 C205.3548 354.4875 170.4082 348.9825 165.2733 344.7025 C163.5482 343.2675 162.3260 340.7825 161.4890 338.7300 C159.6277 334.1675 158.3403 329.3075 156.9150 324.5925 L151.3983 306.8400 L143.2747 280.6350 C142.1967 277.1425 140.8092 273.7100 139.9373 270.1625 C138.0488 262.4800 136.5083 254.2400 136.0728 246.3180 C135.8075 241.4937 135.9780 236.5810 135.9823 231.7473 L135.9815 206.8510 L135.9710 186.6452 C135.9705 182.2428 135.8220 177.7760 136.1958 173.3878 C138.3197 148.4362 149.3958 123.9030 166.1138 105.3920 C187.9832 81.0883 218.6908 66.5762 251.3525 65.1093 Z"></path>
<path id="" fill="#d7d8dc" fill-opacity="1.0" stroke="#000000" stroke-width="0.0" stroke-opacity="1.0" stroke-linecap="round" stroke-linejoin="round"  filling="0" d="M315.7800 319.0925 C320.5975 319.2275 325.2750 321.0150 328.7700 324.3800 C331.3275 326.8400 332.8950 330.0675 333.6025 333.5200 C334.7175 338.9725 334.0925 346.6850 334.0925 352.3650 C334.0950 364.9975 333.9525 377.6525 334.1875 390.2800 C329.0500 389.8950 324.2875 389.2000 319.4950 387.2425 C316.7225 385.9800 314.1675 384.2600 311.8225 382.3250 C306.7600 378.1475 304.2450 374.0925 301.1050 368.4975 C299.5775 365.7750 298.3575 364.8825 298.0500 361.4875 C297.7550 358.2200 298.0075 354.8375 298.0000 351.5525 C297.9900 345.9300 297.2775 338.3250 298.5875 332.9525 C299.2900 330.1550 300.6175 327.5550 302.4675 325.3450 C305.8850 321.2700 310.6150 319.5700 315.7800 319.0925 Z"></path>
<path id="" fill="#d7d8dc" fill-opacity="1.0" stroke="#000000" stroke-width="0.0" stroke-opacity="1.0" stroke-linecap="round" stroke-linejoin="round"  filling="0" d="M195.7835 319.0900 C197.8895 319.1450 199.9747 319.5200 201.9688 320.2000 C206.6110 321.8000 210.1230 325.1200 212.2295 329.5300 C215.7478 336.8925 214.1992 359.2875 211.3350 367.1150 C208.2835 375.4550 201.7545 382.8650 193.6667 386.6525 C189.0267 389.2175 183.2513 390.0700 178.0285 390.1175 C177.7655 378.5350 177.9880 366.9175 177.9695 355.3325 C177.9600 349.4225 177.3578 339.0975 178.3885 333.8000 C179.0170 330.6825 180.4198 327.7750 182.4675 325.3425 C185.8907 321.2675 190.6120 319.5625 195.7835 319.0900 Z"></path>
<path id="" fill="#87868a" fill-opacity="1.0" stroke="#000000" stroke-width="0.0" stroke-opacity="1.0" stroke-linecap="round" stroke-linejoin="round"  filling="0" d="M149.9897 404.0275 C156.8730 404.4525 163.8418 403.6700 170.7295 404.2150 C173.3665 413.7150 175.2708 418.3000 183.7925 423.6525 C184.8470 424.3150 186.5435 425.0925 187.1788 426.1525 C187.1330 426.2125 187.0952 426.2775 187.0410 426.3300 C186.0103 427.3150 179.6192 427.6575 177.8525 427.8475 C176.4970 428.1900 175.1550 428.5800 173.8652 429.1275 C168.7980 431.2750 169.1120 432.8000 167.3158 437.2600 C167.1837 437.2825 167.0540 437.3350 166.9200 437.3300 C165.2767 437.2950 162.7575 434.8875 161.6325 433.7475 C153.8840 425.9025 149.9030 414.9575 149.9897 404.0275 Z"></path>
<path id="" fill="#2d2d2d" fill-opacity="1.0" stroke="#000000" stroke-width="0.0" stroke-opacity="1.0" stroke-linecap="round" stroke-linejoin="round"  filling="0" d="M327.0925 227.1310 C330.8250 226.0403 334.8575 227.0400 337.6475 229.7490 C340.4400 232.4577 341.5600 236.4577 340.5825 240.2225 C339.6025 243.9872 336.6775 246.9355 332.9200 247.9427 C327.2000 249.4758 321.3125 246.1207 319.7150 240.4187 C318.1200 234.7165 321.4075 228.7912 327.0925 227.1310 Z"></path>
<path id="" fill="#2d2d2d" fill-opacity="1.0" stroke="#000000" stroke-width="0.0" stroke-opacity="1.0" stroke-linecap="round" stroke-linejoin="round"  filling="0" d="M179.0145 227.0862 C184.7442 225.5010 190.6780 228.8425 192.2932 234.5638 C193.9088 240.2850 190.5985 246.2363 184.8860 247.8817 C179.1305 249.5395 173.1248 246.1992 171.4975 240.4353 C169.8700 234.6712 173.2420 228.6832 179.0145 227.0862 Z"></path>
</svg>