<svg xmlns="http://www.w3.org/2000/svg" viewBox="0 0 512 512" height="512.0px" width="512.0px">
<path id="" fill="#d8d9dd" fill-opacity="1.0" stroke="#000000" stroke-width="0.0" stroke-opacity="1.0" stroke-linecap="round" stroke-linejoin="round"  filling="0" d="M251.7450 92.1483 C253.3550 91.9798 254.9950 91.9408 256.6150 91.9258 C262.0050 91.8760 267.3500 92.5153 272.7050 93.0757 C311.0675 97.0912 349.1275 114.7865 378.6025 139.4198 C381.3050 141.6803 383.7150 144.2165 386.3075 146.5907 C388.2175 148.3403 390.3450 149.8800 392.1825 151.7045 C393.9450 153.4538 395.4825 155.4820 397.1375 157.3370 C402.8675 163.7558 408.3050 170.2603 413.4650 177.1495 C440.1225 212.7433 457.1650 252.5225 459.9825 297.2975 C460.2725 301.9100 460.0975 306.6350 460.0925 311.2650 C460.0875 314.6325 460.1525 318.0200 459.9200 321.3825 C457.7200 350.2350 446.2075 377.5925 427.1150 399.3375 C424.9675 401.7775 422.5675 404.0525 420.2650 406.3475 C412.0100 414.5775 402.7050 421.2700 392.7600 427.3025 C364.9800 444.1550 337.7725 451.9700 305.8425 456.7625 C296.2100 458.2075 286.5800 459.4775 276.8400 459.9600 C271.3125 460.2350 265.6650 460.0275 260.1250 460.0175 C251.7600 460.0250 243.1723 460.4600 234.8390 459.9375 C213.6418 458.6075 191.3452 455.4150 170.9310 449.4275 C161.7020 446.7225 152.7770 443.3550 143.9147 439.6500 C140.5358 438.2350 137.0775 436.9500 133.7617 435.3950 C123.8783 430.7625 113.9315 424.6375 105.3307 417.9225 C74.4060 393.7800 57.2850 364.5750 52.5680 325.5175 C51.9035 320.0175 51.9630 314.5450 51.9658 309.0150 C51.9682 304.6500 51.8018 300.2075 52.1037 295.8550 C54.1447 266.4100 64.3362 234.0575 78.4205 208.1855 C82.5502 200.5992 87.6040 192.2397 92.5730 185.2018 C96.5320 179.5948 100.8808 174.2047 105.1208 168.8035 C109.8180 162.8190 114.9438 157.4515 120.3125 152.0788 C123.2495 149.1395 126.1432 146.0432 129.2385 143.2758 C141.5907 132.2312 155.9828 122.3213 170.6358 114.6155 C174.5765 112.5430 178.6295 110.7955 182.6723 108.9423 C193.0833 104.1695 203.6985 100.0215 214.8590 97.3300 C222.2410 95.5573 229.7263 94.2455 237.2713 93.4025 C242.0912 92.8968 246.9267 92.7288 251.7450 92.1483 Z"></path>
<path id="" fill="#434347" fill-opacity="1.0" stroke="#000000" stroke-width="0.0" stroke-opacity="1.0" stroke-linecap="round" stroke-linejoin="round"  filling="0" d="M122.8867 51.1078 C135.1565 50.4447 149.6355 55.1768 160.0085 61.4682 C170.7765 67.9995 179.8233 78.0967 184.7092 89.7552 C186.8765 94.9265 188.2648 100.4228 189.5835 105.8572 C182.5925 108.4020 175.9458 111.8970 169.4635 115.5140 C151.5875 125.4890 135.2612 137.3217 120.7762 151.8170 C117.5880 155.0075 114.3978 158.1552 111.5525 161.6628 C107.4060 166.6390 102.0285 171.4458 98.5367 176.8867 C92.6225 174.0957 86.7493 170.6983 81.8475 166.3318 C67.9980 153.9940 60.5365 137.9727 59.4252 119.5208 C58.4110 102.6848 65.4232 84.5285 76.6042 72.0482 C87.9145 59.4238 106.2663 52.0825 122.8867 51.1078 Z"></path>
<path id="" fill="#434347" fill-opacity="1.0" stroke="#000000" stroke-width="0.0" stroke-opacity="1.0" stroke-linecap="round" stroke-linejoin="round"  filling="0" d="M382.9475 51.3557 C383.7025 51.2800 384.4600 51.2370 385.2200 51.2267 C402.4275 50.8593 421.0425 58.0525 433.4125 70.0930 C445.3625 81.7233 452.5525 99.4832 452.7450 116.1003 C452.9375 132.6848 445.4675 150.8945 433.9175 162.7372 C432.0525 164.6495 430.1325 166.4527 428.0225 168.0980 C425.7400 169.8785 415.8525 176.3542 413.2750 176.3858 C410.1450 174.8212 407.0075 168.7298 404.3300 166.0932 C404.2325 165.9967 404.1325 165.9023 404.0325 165.8065 C401.7850 163.1350 399.3550 160.6738 396.9825 158.1167 C394.8800 155.8483 392.9500 153.4215 390.7675 151.2240 C388.7725 149.2142 386.5575 147.4535 384.4675 145.5493 C371.3900 133.6422 358.1175 124.1505 342.8275 115.2650 C338.6550 112.8395 324.7400 107.0627 322.4925 104.8180 C325.3350 93.5905 329.2475 83.4025 336.9025 74.4998 C348.5375 60.9357 365.1225 52.5997 382.9475 51.3557 Z"></path>
<path id="" fill="#434347" fill-opacity="1.0" stroke="#000000" stroke-width="0.0" stroke-opacity="1.0" stroke-linecap="round" stroke-linejoin="round"  filling="0" d="M190.7725 198.6055 C194.2395 198.4642 197.6880 198.6475 201.0690 199.4702 C208.0910 201.1785 214.1200 204.8845 217.8700 211.1832 C225.7807 224.4710 223.7360 241.6230 220.1257 255.9025 C218.8565 260.9225 216.8992 265.7125 214.8022 270.4350 C207.2105 287.5375 196.1223 302.6575 179.8262 312.3125 C166.2188 320.3750 150.1698 323.8925 134.6823 319.9700 C127.8535 318.1050 121.2253 314.7625 115.8067 310.1775 C106.6833 302.3175 101.0797 291.1375 100.2433 279.1250 C98.9812 263.2475 105.9117 247.4830 116.0790 235.5728 C133.2617 215.4445 164.4975 200.7128 190.7725 198.6055 Z"></path>
<path id="" fill="#434347" fill-opacity="1.0" stroke="#000000" stroke-width="0.0" stroke-opacity="1.0" stroke-linecap="round" stroke-linejoin="round"  filling="0" d="M316.3425 198.5905 C327.4925 197.5287 343.3050 202.5542 353.5275 206.7507 C376.1875 216.0505 398.1650 231.6140 407.7525 254.9175 C413.0700 267.8425 413.3250 280.9700 407.8750 293.8575 C402.5675 306.4100 393.6350 313.6725 381.2250 318.7550 C377.8500 320.1900 373.6775 320.9600 370.0625 321.3750 C354.4050 323.1700 337.2425 317.1125 325.0275 307.4000 C322.0200 305.0075 319.0650 302.5850 316.3775 299.8325 C300.9075 283.9850 291.2550 262.1350 288.8675 240.2422 C287.7325 229.8553 289.4050 216.6378 296.1900 208.2645 C301.3900 201.8468 308.3600 199.4420 316.3425 198.5905 Z"></path>
<path id="" fill="#434347" fill-opacity="1.0" stroke="#000000" stroke-width="0.0" stroke-opacity="1.0" stroke-linecap="round" stroke-linejoin="round"  filling="0" d="M255.8250 349.1275 C257.2075 348.6050 263.1825 345.2200 264.0250 345.3850 L264.1400 345.4900 C264.7150 351.3125 264.6000 357.2825 264.6025 363.1325 C264.6850 371.1600 264.5350 379.1900 264.1525 387.2075 C264.4400 387.1675 264.7250 387.1250 265.0125 387.1000 C270.4500 386.5925 276.2125 386.9375 281.6825 386.9325 C286.8125 386.9300 292.4275 386.5000 297.4975 387.1850 C299.3350 387.4350 301.3025 387.8175 302.7450 389.0600 C304.2600 390.3675 304.9325 392.4000 305.0825 394.3450 C305.2750 396.8150 304.4375 399.1625 302.7675 400.9950 C300.9975 402.9325 298.7200 403.5225 296.1875 403.6575 C290.4325 403.9625 284.5575 403.7450 278.7925 403.7450 L247.5510 403.7425 L227.6090 403.7700 C223.7663 403.7775 219.7455 404.0100 215.9290 403.5900 C213.5715 403.3300 210.6320 402.7150 208.8867 401.0200 C207.1613 399.3475 206.8522 396.9075 206.9020 394.6150 C206.9480 392.4925 207.6520 390.5025 209.2440 389.0475 C210.1665 388.2050 211.2735 387.5525 212.5030 387.3025 C216.9818 386.3975 223.8620 386.9300 228.6263 386.9350 C234.9538 386.9400 241.4312 386.6450 247.7363 387.1025 C247.2193 380.2450 247.3978 373.2400 247.3752 366.3625 C247.3528 359.4350 247.1175 352.4000 247.6938 345.4925 C250.6150 345.9850 253.2125 347.8100 255.8250 349.1275 Z"></path>
<path id="" fill="#3e2c27" fill-opacity="1.0" stroke="#000000" stroke-width="0.0" stroke-opacity="1.0" stroke-linecap="round" stroke-linejoin="round"  filling="0" d="M247.6938 345.4925 C245.5050 341.7025 228.1080 340.8900 231.6485 326.8900 C232.4350 323.7800 234.4450 321.2700 237.2530 319.7300 C238.7095 318.9300 240.3095 318.4900 241.9507 318.2850 C246.8385 317.6725 268.6525 317.6950 272.7375 319.0100 C275.6475 319.9450 278.2700 322.0150 279.6150 324.7950 C280.9925 327.6475 280.7925 331.0875 279.6950 334.0000 C276.9750 341.2100 265.9200 342.4375 264.1400 345.4900 L264.0250 345.3850 C263.1825 345.2200 257.2075 348.6050 255.8250 349.1275 C253.2125 347.8100 250.6150 345.9850 247.6938 345.4925 Z"></path>
<path id="" fill="#2d2d2d" fill-opacity="1.0" stroke="#000000" stroke-width="0.0" stroke-opacity="1.0" stroke-linecap="round" stroke-linejoin="round"  filling="0" d="M184.0965 232.1443 C190.4288 230.8383 196.6232 234.9037 197.9447 241.2325 C199.2663 247.5615 195.2160 253.7650 188.8905 255.1025 C182.5428 256.4450 176.3120 252.3775 174.9857 246.0265 C173.6597 239.6755 177.7425 233.4545 184.0965 232.1443 Z"></path>
<path id="" fill="#2d2d2d" fill-opacity="1.0" stroke="#000000" stroke-width="0.0" stroke-opacity="1.0" stroke-linecap="round" stroke-linejoin="round"  filling="0" d="M323.0875 232.1703 C329.4475 230.7760 335.7250 234.8365 337.0575 241.2088 C338.3925 247.5813 334.2750 253.8200 327.8900 255.0950 C321.5900 256.3525 315.4500 252.3000 314.1350 246.0105 C312.8175 239.7218 316.8125 233.5460 323.0875 232.1703 Z M331.3225 248.4337 C332.0950 247.1048 332.0200 245.8488 331.9925 244.3535 C330.6875 244.3313 329.4125 244.3398 328.1300 244.0818 C328.0500 245.4720 327.7625 247.1055 328.2375 248.4305 C328.6075 248.7775 328.7400 248.9785 329.2875 248.9865 C329.9425 248.9960 330.7050 248.6460 331.3225 248.4337 Z"></path>
</svg>