<svg xmlns="http://www.w3.org/2000/svg" viewBox="0 0 512 512" height="512.0px" width="512.0px">
<path id="" fill="#cdcdcd" fill-opacity="1.0" stroke="#000000" stroke-width="0.0" stroke-opacity="1.0" stroke-linecap="round" stroke-linejoin="round"  filling="0" d="M359.1250 50.8735 C376.1150 51.1138 393.1275 50.9382 410.1175 50.9350 C409.9000 59.6140 410.3425 68.3190 410.0350 76.9952 C418.3875 76.8395 426.7575 76.9365 435.1125 76.9305 C434.7325 93.9330 435.6200 111.0027 435.0325 127.9937 C443.7300 127.8550 452.4400 127.9388 461.1375 127.9317 C460.9050 136.3483 461.0975 144.8220 461.0975 153.2437 C461.0975 161.8350 460.9050 170.4785 461.2300 179.0630 C452.2000 178.8748 443.1350 179.0225 434.1025 179.0228 L384.0200 179.0275 C384.3625 197.0907 384.0900 215.2038 384.0925 233.2725 C384.0925 240.8483 383.8925 248.4852 384.2125 256.0550 C375.4875 255.8925 366.7425 256.0250 358.0175 256.0275 C358.3925 273.0150 357.5350 290.0825 358.2050 307.0550 C349.8175 306.8900 341.4050 307.0250 333.0175 307.0250 C333.2000 320.2300 333.0800 333.4475 333.0800 346.6525 L333.0775 417.3300 C333.0750 431.8725 332.7100 446.5225 333.1700 461.0525 C324.4625 460.8475 315.7050 461.0150 306.9950 461.0525 L307.0075 358.0225 L282.0175 358.0275 C282.6525 392.3500 281.4700 426.7300 282.1450 461.0500 C273.4450 460.8600 264.6975 461.0100 255.9950 461.0525 L256.0050 358.0225 L179.0157 358.0300 C179.4355 392.2600 178.8233 426.5125 179.1080 460.7475 C178.4583 461.2750 156.3925 461.0425 153.9885 461.0550 L154.0065 358.0250 L128.0163 358.0275 C128.4045 392.3575 127.4890 426.7300 128.1382 461.0525 C119.4350 460.8625 110.6950 461.0175 101.9872 461.0525 L102.0075 282.0225 L77.0145 282.0275 C77.2955 299.0275 76.7148 316.0575 77.1530 333.0525 C68.4440 332.8575 59.6958 333.0225 50.9828 333.0550 L50.9888 229.9577 C59.6562 229.7838 68.3490 229.9355 77.0195 229.9745 C76.9610 221.6348 76.9547 213.2948 77.0013 204.9550 C85.3163 204.6950 93.6925 204.9382 102.0147 204.9725 C101.8427 196.3107 101.9812 187.6212 102.0035 178.9568 C104.9190 178.7668 107.9272 178.9153 110.8508 178.9205 L127.4595 178.9397 L179.0968 178.9353 C178.9060 187.6158 179.2402 196.3100 179.0300 204.9917 C196.0090 204.7428 213.0345 204.8763 230.0160 204.9700 C229.9628 196.3000 229.9583 187.6300 230.0025 178.9603 C233.1135 178.7643 236.3112 178.9070 239.4305 178.9145 L256.0200 178.9758 C255.9650 170.6370 255.9575 162.2980 255.9925 153.9592 C264.6275 153.6170 273.3775 153.9393 282.0250 153.9772 C281.9600 145.3045 281.9525 136.6313 282.0000 127.9580 C290.2950 127.6180 298.7125 127.9340 307.0200 127.9760 C306.9625 119.3035 306.9575 110.6310 306.9975 101.9587 C315.6400 101.6455 324.3775 101.9317 333.0300 101.9772 C332.8200 93.6503 332.9875 85.2818 333.0125 76.9515 C341.1625 76.4905 349.8075 76.9442 358.0200 76.9742 C357.9675 73.9420 357.6075 52.3073 358.1650 51.2185 C358.3200 50.9160 358.8175 50.9377 359.1250 50.8735 Z"></path>
<path id="" fill="#868583" fill-opacity="1.0" stroke="#000000" stroke-width="0.0" stroke-opacity="1.0" stroke-linecap="round" stroke-linejoin="round"  filling="0" d="M281.9900 127.9557 C290.3550 128.1570 298.8075 128.0383 307.1750 127.9190 C306.8750 136.3480 307.0925 144.8505 307.0925 153.2867 L307.0900 200.0400 L307.0950 235.0723 C307.0950 242.0285 306.8425 249.0838 307.3100 256.0225 C315.9100 255.7900 324.5525 255.9375 333.1575 255.9125 C332.7100 266.2475 333.0900 276.7600 333.0925 287.1125 C333.0950 292.9800 332.5925 301.6375 333.3125 307.1125 C324.5875 306.8500 315.6975 306.8675 306.9725 307.1125 L307.0075 256.2200 C303.5650 255.9250 300.0300 256.0325 296.5775 256.0325 C291.7100 256.0050 286.8400 256.0375 281.9725 256.1250 L281.9900 127.9557 Z"></path>
<path id="" fill="#868584" fill-opacity="1.0" stroke="#000000" stroke-width="0.0" stroke-opacity="1.0" stroke-linecap="round" stroke-linejoin="round"  filling="0" d="M229.9780 178.9453 C238.6765 179.1467 247.4420 178.9877 256.1425 178.9142 C255.7100 188.0365 256.0750 197.3180 256.0725 206.4620 L256.0675 260.0225 L256.0700 307.9375 C256.0725 316.2975 255.7000 324.8200 256.1950 333.1475 C252.7350 332.8625 249.1687 333.0200 245.6942 333.0200 C240.4510 332.9875 235.2072 333.0125 229.9645 333.0975 L229.9780 178.9453 Z"></path>
<path id="" fill="#858583" fill-opacity="1.0" stroke="#000000" stroke-width="0.0" stroke-opacity="1.0" stroke-linecap="round" stroke-linejoin="round"  filling="0" d="M332.9900 76.9803 C341.3450 77.1805 349.8125 77.1152 358.1675 76.9255 C357.9025 83.6373 358.0900 90.4100 358.0900 97.1298 L358.0875 133.8658 L358.0875 161.7332 C358.0875 167.4897 357.9000 173.2985 358.3200 179.0420 C366.9225 178.7835 375.5625 179.0432 384.1725 178.9140 C383.7600 189.0697 384.0925 199.3707 384.0925 209.5415 C384.0950 216.0565 383.5825 223.8338 384.3050 230.1897 C381.0250 229.8435 377.5900 230.0330 374.2875 230.0335 C368.8475 230.0075 363.4100 230.0378 357.9725 230.1243 C358.0775 213.1532 358.0850 196.1817 357.9950 179.2108 C349.7250 178.7307 341.2575 178.9402 332.9725 179.1252 L332.9900 76.9803 Z"></path>
<path id="" fill="#858584" fill-opacity="1.0" stroke="#000000" stroke-width="0.0" stroke-opacity="1.0" stroke-linecap="round" stroke-linejoin="round"  filling="0" d="M178.9865 204.9373 C187.6922 205.0910 196.4320 204.9600 205.1393 204.9133 C204.7795 212.6938 205.0740 220.6260 205.0728 228.4200 L205.0685 274.0025 L205.0708 312.3500 C205.0723 319.2350 204.7623 326.2800 205.1985 333.1475 C201.6830 332.8600 198.0575 333.0200 194.5275 333.0200 C189.3440 333.0200 184.1485 332.9550 178.9673 333.1100 C179.1675 318.4000 178.9880 303.6625 178.9885 288.9500 L178.9865 204.9373 Z"></path>
<path id="" fill="#858483" fill-opacity="1.0" stroke="#000000" stroke-width="0.0" stroke-opacity="1.0" stroke-linecap="round" stroke-linejoin="round"  filling="0" d="M128.0132 178.9323 C136.6990 179.1447 145.4545 178.9890 154.1435 178.9150 C153.7162 188.7175 154.0762 198.6803 154.0768 208.4973 L154.0753 274.4150 C154.0757 285.3025 154.4547 296.2950 154.0770 307.1650 C150.8342 306.7875 147.3418 307.0275 144.0685 307.0300 C138.7108 307.0325 133.3315 306.9450 127.9775 307.1450 C128.2238 292.8300 127.9962 278.4675 127.9967 264.1475 L128.0132 178.9323 Z"></path>
<path id="" fill="#868584" fill-opacity="1.0" stroke="#000000" stroke-width="0.0" stroke-opacity="1.0" stroke-linecap="round" stroke-linejoin="round"  filling="0" d="M77.0052 204.9325 C85.3737 205.0833 93.7685 204.9577 102.1395 204.9135 C101.9438 211.4260 102.0717 217.9698 102.0768 224.4857 L102.1103 256.1550 C99.0063 255.8375 95.7343 256.0275 92.6103 256.0325 C87.4092 255.9975 82.2077 256.0475 77.0085 256.1875 L77.0052 204.9325 Z"></path>
<path id="" fill="#000000" fill-opacity="1.0" stroke="#000000" stroke-width="0.0" stroke-opacity="1.0" stroke-linecap="round" stroke-linejoin="round"  filling="0" d="M388.6375 102.1122 C395.7350 102.0478 402.8325 102.0500 409.9300 102.1190 C409.6975 105.5580 409.8950 109.0488 409.8975 112.4980 C409.8775 117.7070 409.8200 122.9160 409.7275 128.1245 C408.6775 128.1783 407.6150 128.1543 406.5625 128.1633 C399.0325 128.2145 391.5025 128.0415 383.9725 128.0830 C384.1200 123.6015 384.0150 119.0797 384.0025 114.5948 C383.9925 110.5497 384.1125 106.4330 383.8025 102.4000 C385.4050 102.2507 387.0325 102.2063 388.6375 102.1122 Z"></path>
<path id="" fill="#000000" fill-opacity="1.0" stroke="#000000" stroke-width="0.0" stroke-opacity="1.0" stroke-linecap="round" stroke-linejoin="round"  filling="0" d="M438.0325 154.1133 C445.6525 153.8338 453.3475 154.0415 460.9775 154.0320 C460.7575 162.3712 460.9500 170.7343 460.8150 179.0800 C459.8200 179.1345 458.8125 179.1158 457.8150 179.1313 C450.2050 179.2383 442.5825 179.0650 434.9725 179.0825 C435.1375 170.8765 435.1575 162.5315 434.9150 154.3273 L438.0325 154.1133 Z"></path>
</svg>