<svg xmlns="http://www.w3.org/2000/svg" viewBox="0 0 512 512" height="512.0px" width="512.0px">
<path id="" fill="#f56437" fill-opacity="1.0" stroke="#000000" stroke-width="0.0" stroke-opacity="1.0" stroke-linecap="round" stroke-linejoin="round"  filling="0" d="M217.7493 51.9778 C243.3765 52.2925 269.1900 52.2878 294.8200 51.9475 C294.5800 55.9705 294.8075 60.1090 294.8275 64.1418 L294.8575 85.4270 C295.0500 108.1690 294.9275 130.9125 294.4900 153.6512 C299.3600 153.8330 304.3225 154.0453 309.1250 154.9303 C323.5950 157.5968 337.4800 164.9563 347.9900 175.1543 C361.8625 188.6158 370.7550 207.2122 371.0125 226.6840 C371.2275 242.8425 371.0175 259.0300 371.0175 275.1900 L371.0225 369.8150 L371.0050 416.2500 L371.0500 430.0325 C371.0625 433.0275 371.2275 436.1325 370.8450 439.1075 C370.2125 444.0675 367.8250 449.3075 364.2950 452.8775 C360.8700 456.3350 356.0425 459.0325 351.3025 460.1375 C344.4575 461.7350 335.6175 461.0025 328.5050 461.0025 L294.1250 460.9875 L203.0813 460.9875 L178.7680 461.0100 C173.4653 461.0200 167.8695 461.4075 162.6355 460.5375 C157.2915 459.6525 152.2117 457.2675 148.3542 453.4400 C142.8347 447.9650 141.0515 441.8650 140.9852 434.2575 L140.9973 286.5075 L140.9890 244.4370 C140.9888 235.2968 140.3033 225.5430 141.9775 216.5405 C144.4335 203.3355 150.9917 188.6098 160.4805 178.9707 C163.5895 175.8127 166.7195 172.5197 170.1877 169.7603 C183.7835 158.9427 200.5400 153.8853 217.7453 153.7320 C217.2065 139.6820 217.4390 125.5908 217.4483 111.5318 C217.3380 91.6800 217.4382 71.8275 217.7493 51.9778 Z M345.4100 229.4385 C344.9325 225.8380 343.4150 222.6427 340.4525 220.4065 C338.1650 218.6808 335.7275 218.0468 332.9125 217.8700 C328.9325 217.6198 324.8375 217.8500 320.8475 217.8780 L300.6525 217.9073 L231.4888 217.8990 L195.1565 217.8873 C190.1152 217.8685 181.6595 217.2580 177.0567 218.0742 C173.9572 218.6240 170.8525 220.2897 169.0400 222.9245 C167.7305 224.8277 167.0242 226.9780 166.8945 229.2767 C166.6005 234.4877 166.8150 239.8115 166.8253 245.0350 L166.8477 272.5225 L166.8475 359.3500 L166.8375 396.6250 C166.8260 400.3400 166.2453 409.7150 167.0015 412.8425 C167.8013 416.1475 171.0197 419.3525 173.9272 420.9800 C175.5692 421.9000 177.1828 422.1675 179.0363 422.2275 C189.9725 422.5825 201.0488 422.1825 212.0000 422.1825 L282.0000 422.1775 L316.8675 422.1850 C321.2775 422.1925 332.7200 422.7775 336.3125 421.7300 C339.7550 420.7250 342.5750 418.1900 344.1825 415.0175 C344.7825 413.8350 345.1175 412.6525 345.2800 411.3375 C345.8100 404.4975 345.3875 397.3500 345.3800 390.4750 L345.3800 350.8650 L345.4100 229.4385 Z"></path>
<path id="" fill="#db2525" fill-opacity="1.0" stroke="#000000" stroke-width="0.0" stroke-opacity="1.0" stroke-linecap="round" stroke-linejoin="round"  filling="0" d="M217.4160 51.0482 L294.7050 50.9673 C294.2775 54.4685 294.6650 58.1828 294.6200 61.7205 C294.5650 66.1660 294.1075 70.6015 294.1025 75.0470 C294.1000 79.2175 294.5100 83.3863 294.5675 87.5567 C294.6325 92.2660 293.8950 96.9810 294.1775 101.6898 L294.0725 102.1190 C292.6500 102.6527 280.2750 102.2025 277.7800 102.2015 L241.2090 102.2068 C233.3270 102.2112 225.4130 102.0920 217.5370 102.4175 C217.3488 91.0332 217.2915 79.6472 217.3650 68.2620 C217.3830 62.5310 217.6035 56.7755 217.4160 51.0482 Z"></path>
<path id="" fill="#db2626" fill-opacity="1.0" stroke="#000000" stroke-width="0.0" stroke-opacity="1.0" stroke-linecap="round" stroke-linejoin="round"  filling="0" d="M287.1350 283.4825 C289.5750 282.9075 293.0800 282.0200 295.5475 282.4825 C297.5750 282.8625 298.6200 284.6850 300.8050 284.3875 C300.9700 284.3650 301.1375 284.3600 301.3025 284.3475 C304.5825 281.3900 313.9500 268.9250 317.3350 268.7850 C318.0525 268.7550 318.5675 268.9975 319.0675 269.4950 C319.7225 270.1450 320.0825 271.3050 320.0275 272.2100 C319.8475 275.2025 307.2200 287.7650 304.6550 290.4900 C306.5175 292.2875 307.8675 294.2475 307.9600 296.9300 C308.0575 299.7800 306.7550 301.8275 305.7775 304.3400 C306.3925 304.9400 308.1650 306.3900 308.0875 307.2975 C307.9325 309.0975 300.9550 315.5100 299.3700 316.9225 C275.0950 338.5900 247.4250 352.6150 214.9702 357.0425 C209.8027 357.7475 201.4702 358.8775 196.3797 358.4425 C195.5865 358.3750 195.0645 358.2800 194.5340 357.6750 C194.5827 357.4025 194.5665 357.3900 194.7238 357.1075 C195.1138 356.4075 196.2263 355.7625 196.9028 355.3300 C199.0245 353.9725 201.2903 352.8175 203.4390 351.4950 C209.5473 347.7725 215.5285 343.8425 221.3725 339.7175 C232.4520 331.9275 243.0475 323.4725 253.1000 314.3975 C258.0900 309.8150 262.8075 304.8825 267.5900 300.0825 C270.9375 296.7200 274.3625 293.3975 277.5900 289.9200 C279.2000 288.1875 280.4975 286.1250 282.1975 284.4900 C282.8950 283.8200 283.7950 283.0625 284.7700 282.8650 C285.6700 282.6850 286.3900 283.0500 287.1350 283.4825 Z"></path>
<path id="" fill="#38833c" fill-opacity="1.0" stroke="#000000" stroke-width="0.0" stroke-opacity="1.0" stroke-linecap="round" stroke-linejoin="round"  filling="0" d="M287.1350 283.4825 C289.5750 282.9075 293.0800 282.0200 295.5475 282.4825 C297.5750 282.8625 298.6200 284.6850 300.8050 284.3875 C300.9700 284.3650 301.1375 284.3600 301.3025 284.3475 C304.5825 281.3900 313.9500 268.9250 317.3350 268.7850 C318.0525 268.7550 318.5675 268.9975 319.0675 269.4950 C319.7225 270.1450 320.0825 271.3050 320.0275 272.2100 C319.8475 275.2025 307.2200 287.7650 304.6550 290.4900 C306.5175 292.2875 307.8675 294.2475 307.9600 296.9300 C308.0575 299.7800 306.7550 301.8275 305.7775 304.3400 C302.3875 300.7675 299.0225 297.1700 295.6825 293.5500 C292.6700 290.2975 289.6175 287.1775 287.1350 283.4825 Z"></path>
</svg>