<svg xmlns="http://www.w3.org/2000/svg" viewBox="0 0 512 512" height="512.0px" width="512.0px">
<path id="" fill="#85d0bc" fill-opacity="1.0" stroke="#000000" stroke-width="0.0" stroke-opacity="1.0" stroke-linecap="round" stroke-linejoin="round"  filling="0" d="M168.9863 352.0775 C168.9953 344.7775 169.1950 337.4150 168.9478 330.1225 C168.7572 324.5125 168.0522 318.9550 168.0152 313.3300 C167.9718 310.1775 168.0565 307.0225 168.2693 303.8775 C168.4560 301.3350 168.8205 298.7375 168.8017 296.1875 L168.0302 194.9243 C168.0307 184.0345 167.8367 173.1133 168.0505 162.2275 C168.1232 158.5258 168.6605 154.8415 168.7218 151.1485 C168.7635 148.6400 168.3967 146.1320 168.3935 143.6232 C168.3905 141.2122 168.7052 138.7762 168.8607 136.3700 C169.1330 132.1540 169.1845 128.1783 170.0400 124.0045 C172.9685 109.7190 178.7137 97.0952 187.7810 85.6487 C189.5350 83.4342 191.2680 81.1803 193.2645 79.1758 C210.1990 62.3362 233.1200 52.8995 257.0025 52.9350 C280.1275 53.2340 302.2225 62.5587 318.5700 78.9197 C330.8725 91.3285 338.8325 107.2910 342.3825 124.3170 C344.4100 134.0448 344.1025 143.7135 344.0900 153.5850 L344.0775 180.4395 L344.0825 297.0200 L344.0775 332.9925 C344.0775 339.2500 343.6625 345.8375 344.2700 352.0550 C332.9000 351.8950 321.5175 352.0000 310.1450 352.0025 C298.4250 352.0025 286.6975 351.9075 274.9800 352.0600 C262.3325 352.0650 249.6378 352.4050 236.9980 352.0275 C214.3533 351.9700 191.6210 351.5925 168.9863 352.0775 Z"></path>
<path id="" fill="#f9cb99" fill-opacity="1.0" stroke="#000000" stroke-width="0.0" stroke-opacity="1.0" stroke-linecap="round" stroke-linejoin="round"  filling="0" d="M236.9980 352.0275 C249.6378 352.4050 262.3325 352.0650 274.9800 352.0600 C275.2350 372.6250 275.0500 393.2125 275.0600 413.7800 L275.0625 431.9225 C275.0625 435.9475 275.3400 440.1550 274.6525 444.1275 C274.0200 447.7825 272.4375 451.0000 269.8750 453.7075 C266.4400 457.3325 261.2950 459.9475 256.2525 460.0225 C251.4575 460.0950 246.3732 458.0400 242.9920 454.6525 C240.1217 451.7750 238.1967 448.3525 237.4475 444.3600 C236.6915 440.3275 236.9600 436.0450 236.9603 431.9550 L236.9617 415.1800 L236.9980 352.0275 Z"></path>
<path id="" fill="#ffffff" fill-opacity="0.027451" stroke="#000000" stroke-width="0.0" stroke-opacity="1.0" stroke-linecap="round" stroke-linejoin="round"  filling="0" d="M0.6766 0.0000 L511.3225 0.0000 C508.2025 0.6650 504.4600 0.3195 501.2650 0.3163 L484.2875 0.2973 L415.9925 0.2969 L147.6600 0.2999 L40.7298 0.2926 L15.1412 0.3109 C10.7615 0.3248 4.9184 0.8886 0.6766 0.0000 Z"></path>
<path id="" fill="#ffffff" fill-opacity="0.0196078" stroke="#000000" stroke-width="0.0" stroke-opacity="1.0" stroke-linecap="round" stroke-linejoin="round"  filling="0" d="M1.3091 512.0000 C3.3875 511.2775 25.6402 511.7425 29.6990 511.7425 L108.8480 511.7450 L408.0800 511.7525 L481.9375 511.7525 L501.0200 511.7350 C504.2850 511.7300 508.1175 511.3450 511.2925 512.0000 L1.3091 512.0000 Z"></path>
<path id="" fill="#ffffff" fill-opacity="0.027451" stroke="#000000" stroke-width="0.0" stroke-opacity="1.0" stroke-linecap="round" stroke-linejoin="round"  filling="0" d="M0.0000 0.9172 C0.7097 3.9909 0.2566 8.0218 0.2535 11.1965 L0.2509 30.6735 L0.2530 111.2188 L0.2531 439.7300 L0.2509 490.8325 C0.2507 494.5500 0.7518 508.0600 0.0000 510.5825 L0.0000 0.9172 Z"></path>
<path id="" fill="#282b24" fill-opacity="1.0" stroke="#000000" stroke-width="0.0" stroke-opacity="1.0" stroke-linecap="round" stroke-linejoin="round"  filling="0" d="M253.4125 51.1093 C254.0675 51.0750 254.7200 51.0605 255.3750 51.0660 C280.5450 51.2793 304.5875 61.5405 322.1525 79.5680 C333.6375 91.4190 341.5625 107.3790 344.9125 123.4877 C347.7750 137.2620 347.0500 151.4902 347.0500 165.4760 L347.0500 213.8390 L347.0400 306.3725 C347.0325 320.2700 347.3525 334.2275 347.0825 348.1175 C346.9950 352.6775 346.6225 353.6850 343.2850 356.8800 C337.9900 358.2625 331.5775 357.6875 326.1225 357.6925 L304.4175 357.6950 L286.2100 357.6750 C282.5725 357.6675 278.8475 357.8150 275.2275 357.4775 L275.2975 415.7375 L275.2950 431.4725 C275.2925 435.5150 275.4200 439.6150 274.9100 443.6325 C274.5250 446.6675 273.7425 449.3325 272.0475 451.9050 C268.9425 456.6175 264.2575 459.3400 258.8075 460.4650 C257.3650 460.6900 255.9300 460.7800 254.4725 460.6650 C249.3893 460.2675 244.2292 457.8000 240.9245 453.8875 C238.4012 450.9000 237.1638 447.8200 236.5895 443.9900 C235.8537 439.0825 236.1582 433.8725 236.1560 428.9150 L236.1568 405.0875 L236.1565 375.5550 C236.1573 369.5900 235.9030 363.4500 236.4427 357.5100 C222.7635 357.7150 209.0827 357.7800 195.4023 357.7100 C188.2720 357.7150 179.8675 358.2000 172.9138 357.5500 C171.1130 357.3825 168.3145 356.9875 166.9828 355.7300 C165.4015 354.2400 165.1400 352.2925 165.0293 350.2325 C164.7652 345.3100 164.9760 340.2875 164.9895 335.3550 L165.0027 309.8825 L164.9980 227.5435 L164.9917 168.5755 C164.9910 154.0710 163.9957 138.6070 166.8427 124.3698 C169.9662 108.7498 177.3975 93.2207 188.0872 81.3457 C204.8675 62.7050 228.5845 52.4690 253.4125 51.1093 Z M178.1510 344.6400 C183.2950 344.5300 188.4290 344.1925 193.5753 344.1225 C216.2802 343.8050 239.0253 344.0725 261.7350 344.0850 L306.0125 344.0900 C315.2325 344.0950 324.8600 343.6800 334.0250 344.6900 L333.9650 201.0920 L333.9750 162.2090 C333.9775 149.0948 334.7375 135.4473 331.5150 122.6248 C328.8400 111.9835 323.3200 101.2095 316.2350 92.8545 C313.6275 89.7775 310.6350 86.9642 307.7575 84.1360 C293.9075 70.5237 274.4025 64.0803 255.2450 64.2580 C253.6825 64.2725 251.9300 64.1403 250.3950 64.3528 C234.5775 65.4707 219.5925 70.9323 207.4235 81.2960 C205.0822 83.2900 202.9462 85.5683 200.7800 87.7495 C198.9795 89.5630 197.0807 91.3160 195.4057 93.2470 C187.0190 102.9160 181.3992 115.5585 179.2435 128.1163 C177.2603 139.6700 178.0618 152.1125 178.0655 163.8010 L178.0663 216.8530 L178.0665 301.8300 L178.0695 329.3350 C178.0705 334.4075 177.8918 339.5750 178.1510 344.6400 Z M249.5470 444.0600 C250.8800 445.8650 252.3075 447.3475 254.6075 447.7550 C256.4800 448.0850 258.5400 447.5300 260.0475 446.4050 C260.2675 446.2400 260.4800 446.0675 260.6950 445.8975 C260.7200 445.8800 260.7450 445.8625 260.7700 445.8425 C261.5950 444.8975 262.1150 444.0425 262.2775 442.7775 C262.6475 439.9100 262.3100 436.6700 262.2650 433.7725 C262.2150 429.0475 262.1975 424.3225 262.2125 419.5975 C262.2100 398.9700 261.8025 378.2525 262.4250 357.6375 C258.4200 357.8525 253.1150 358.2675 249.2137 357.5200 C249.7020 367.7050 249.6418 377.8875 249.6425 388.0825 L249.6525 422.8275 C249.6475 429.8625 249.1700 437.0525 249.5470 444.0600 Z"></path>
<path id="" fill="#282b24" fill-opacity="1.0" stroke="#000000" stroke-width="0.0" stroke-opacity="1.0" stroke-linecap="round" stroke-linejoin="round"  filling="0" d="M224.4535 130.5938 C225.9292 130.4987 227.3190 130.5968 228.6925 131.1962 C230.3085 131.9017 231.4158 133.2793 232.0070 134.9200 C232.6540 136.7160 232.7050 139.1888 232.7682 141.0935 C233.0545 149.7032 232.8132 158.4028 232.8125 167.0202 L232.8078 216.4637 L232.8017 269.0475 C232.8030 278.5950 233.0172 288.1975 232.7380 297.7400 C232.6625 300.3200 232.7355 303.5600 231.5750 305.9150 C230.6962 307.6975 229.1228 308.5550 227.3313 309.2150 C225.7860 309.2750 224.3510 309.3300 222.8870 308.7425 C221.4162 308.1525 220.3987 307.1450 219.8033 305.6750 C219.1895 304.1575 219.1743 302.2950 219.1263 300.6775 C218.8505 291.4025 219.1080 282.0525 219.1158 272.7700 L219.1180 220.3250 L219.1475 155.9317 C219.1790 150.2818 218.8723 144.6085 219.0128 138.9642 C219.0515 137.4048 219.1817 135.8322 219.8468 134.3965 C220.8197 132.2950 222.3230 131.3350 224.4535 130.5938 Z"></path>
<path id="" fill="#282b24" fill-opacity="1.0" stroke="#000000" stroke-width="0.0" stroke-opacity="1.0" stroke-linecap="round" stroke-linejoin="round"  filling="0" d="M284.4700 130.5925 C286.0550 130.4855 287.5925 130.6200 289.0350 131.3423 C290.4950 132.0725 291.6525 133.4767 292.1125 135.0465 C293.4950 139.7685 292.8175 152.8300 292.8175 158.4355 L292.8125 200.0160 L292.8050 264.9625 C292.8050 276.3500 293.1200 287.8325 292.7350 299.2100 C292.6600 301.4125 292.5725 304.4725 291.4200 306.3950 C290.5600 307.8325 288.9300 308.7700 287.3425 309.1425 C285.7275 309.2650 284.3475 309.3725 282.8125 308.7275 C281.3300 308.1075 280.2825 306.9100 279.7000 305.4250 C278.5600 302.5125 279.1350 269.6300 279.1350 264.1475 L279.1425 190.4190 L279.1400 155.3952 C279.1375 149.5215 278.9175 143.5918 279.1225 137.7250 C279.1600 136.5992 279.2600 135.5425 279.7425 134.5080 C280.7475 132.3445 282.3300 131.4068 284.4700 130.5925 Z"></path>
</svg>