<svg xmlns="http://www.w3.org/2000/svg" viewBox="0 0 512 512" height="512.0px" width="512.0px">
<path id="" fill="#c2ad7e" fill-opacity="1.0" stroke="#000000" stroke-width="0.0" stroke-opacity="1.0" stroke-linecap="round" stroke-linejoin="round"  filling="0" d="M54.2700 85.9195 C55.6577 85.8748 56.6425 86.1970 57.8625 86.8390 C64.2747 90.2130 70.7590 94.4010 77.0450 98.0892 L121.2485 124.2100 L227.0347 185.7585 C227.3640 194.6678 227.0735 203.6885 227.0733 212.6098 L227.0717 264.4900 L227.0820 420.8750 L224.0615 421.4350 C219.1495 422.1625 214.4165 421.3400 209.5052 421.1050 C205.1302 420.8975 200.7018 421.0200 196.3215 421.0200 L101.1990 421.0275 L76.4320 421.0150 C69.0432 421.0125 61.2878 420.4575 54.0513 422.1050 C53.7805 410.4950 53.9620 398.8500 53.9640 387.2375 L53.9677 321.6550 L53.0275 206.8805 L53.0262 128.0493 L52.9995 102.1908 C52.9945 97.6298 52.8105 92.9788 53.0652 88.4260 C53.1263 87.3385 53.6025 86.7390 54.2700 85.9195 Z"></path>
<path id="" fill="#d5c692" fill-opacity="1.0" stroke="#000000" stroke-width="0.0" stroke-opacity="1.0" stroke-linecap="round" stroke-linejoin="round"  filling="0" d="M303.8900 208.1060 C306.9350 207.7730 310.1975 207.9805 313.2675 207.9818 C318.0750 207.9832 322.9200 207.8817 327.7225 208.0830 C331.1375 208.2263 334.5500 208.5943 337.9600 208.8268 C340.8775 209.0255 343.8050 209.0592 346.7200 209.2903 C361.5500 210.5043 376.3325 212.2368 391.0425 214.4845 C396.2800 215.2810 401.5875 215.9715 406.7850 217.0043 C419.1375 219.4583 431.2300 222.9110 443.3225 226.3705 C448.3625 227.8115 454.2450 228.6640 458.9325 230.9465 C459.5625 236.3777 459.1150 242.3197 459.1100 247.8045 L459.1000 280.2175 L459.0975 373.2325 L459.0975 403.9025 C459.0975 409.9300 458.9375 416.0150 459.2200 422.0375 C453.7000 421.9025 448.3425 422.8675 442.8575 422.9750 C430.8700 423.2100 418.8325 422.9950 406.8425 422.9950 C398.1325 422.9925 389.2500 423.3550 380.5625 422.8575 C376.9475 422.7000 373.3775 422.0900 369.7500 422.0400 C365.1075 421.9800 360.4150 421.9025 355.7800 422.1500 C352.2200 422.3400 348.6725 422.8050 345.1100 422.9300 C338.8075 423.1525 332.4425 422.9950 326.1325 422.9975 L226.9818 422.9950 C226.7855 409.4600 226.9510 395.9050 226.9512 382.3675 L226.9540 305.4850 L226.9577 247.6170 C226.9585 238.6225 226.6875 229.5455 226.9210 220.5627 C226.9460 219.6030 227.0410 218.7960 227.4073 217.8990 C228.6295 216.6198 232.8795 216.6950 234.7415 216.3295 C247.7323 213.7068 260.8400 211.6978 274.0200 210.3092 C283.9475 209.3432 293.9450 208.9108 303.8900 208.1060 Z"></path>
<path id="" fill="rgb(221,207,155)" fill-opacity="1.0" stroke="#000000" stroke-width="0.0" stroke-opacity="1.0" stroke-linecap="round" stroke-linejoin="round"  filling="0" d="M172.0115 235.9245 C172.8985 235.9055 173.9885 235.7272 174.7455 236.2518 C176.1150 240.8972 175.3550 245.9133 175.4212 250.6375 C175.4460 252.4050 175.6783 254.1500 175.5923 255.9200 C175.4895 258.0400 175.1283 260.1775 174.9700 262.3050 L174.9560 262.5525 C174.6575 262.9925 174.4978 263.1500 173.9297 263.1850 C173.3720 263.2200 172.8472 263.0500 172.5070 262.5925 C171.3140 260.9900 171.9835 239.9135 172.0115 235.9245 Z"></path>
<path id="" fill="#000000" fill-opacity="1.0" stroke="#000000" stroke-width="0.0" stroke-opacity="1.0" stroke-linecap="round" stroke-linejoin="round"  filling="0" d="M54.0260 84.3425 C54.4395 84.2770 54.8568 84.2258 55.2762 84.2298 C56.7310 84.2437 58.0318 85.0338 59.2580 85.7375 C70.1185 91.9682 80.8018 98.5310 91.5725 104.9178 L170.6985 151.9892 L205.0840 172.4453 C209.3455 174.9730 223.0208 182.2645 225.7928 185.3828 C226.5300 186.2120 226.7368 187.3445 226.8873 188.4138 C227.2565 191.0403 227.0473 193.8602 227.0460 196.5145 C227.0435 201.2312 227.0898 205.9560 226.9090 210.6695 C234.5938 209.5310 242.2225 207.9795 249.9235 206.8788 C264.9225 204.7425 280.0150 203.3033 295.1475 202.5658 C344.1625 199.9828 395.9000 206.9492 443.0725 220.2310 C446.4100 221.1705 458.1000 223.8392 459.8500 226.0952 C460.8225 227.3463 460.8675 231.0612 460.9150 232.6037 C461.2925 244.8978 460.9475 257.3000 460.9475 269.6075 L460.9475 341.8675 L460.9475 393.7350 C460.9450 403.2950 461.3500 413.0300 460.7350 422.5625 C460.6950 424.1125 460.2300 425.4250 459.7000 426.8600 C458.7525 427.3025 457.8025 427.7800 456.7525 427.8900 C453.0350 428.2800 449.0700 428.0100 445.3225 428.0050 L423.7525 427.9825 L352.9050 427.9825 L123.5825 427.9800 L73.4138 427.9825 C69.5157 427.9850 57.1357 428.5050 54.3255 427.7475 C53.2270 427.4500 52.2690 426.9175 51.7230 425.8875 C51.1060 424.7200 51.1100 422.8625 51.0757 421.5525 C50.8378 412.4050 51.0918 403.1800 51.0918 394.0250 L51.0925 336.8700 L51.0918 165.2072 L51.0788 113.6468 C51.0750 108.8148 50.5132 90.0898 51.4830 87.1150 C51.9680 85.6275 52.6720 85.0520 54.0260 84.3425 Z M176.4750 231.6145 C177.3557 242.2708 176.7460 253.7875 176.7440 264.5450 L176.7420 325.6075 L176.7430 386.6925 L176.7442 406.1175 C176.7400 410.5250 176.8392 414.9850 176.4747 419.3800 C193.8143 418.7250 211.2708 419.1525 228.6283 419.1525 L321.3750 419.1600 L406.3325 419.1550 L432.9925 419.1575 C439.4675 419.1600 445.9525 419.0500 452.4175 419.4425 C451.8800 408.9000 452.2725 398.1700 452.2750 387.6050 L452.2800 329.5350 L452.2750 268.0675 C452.2750 255.9075 451.9450 243.6605 452.5175 231.5163 L452.2125 231.4617 C447.5225 230.5777 442.8400 228.8600 438.2300 227.5883 C430.3075 225.3902 422.3300 223.4020 414.3050 221.6252 C387.9600 215.7520 361.1275 212.3573 334.1500 211.4850 C325.6300 211.1248 317.2150 210.6310 308.6700 210.8667 C276.0900 211.9645 245.6730 215.1030 213.8135 222.0683 C206.1565 223.7635 198.5408 225.6398 190.9727 227.6960 C186.1548 229.0100 181.3598 230.5870 176.4750 231.6145 Z M59.4810 419.3450 C82.2152 418.7475 105.0428 419.1400 127.7870 419.1450 L153.0018 419.1500 C158.0865 419.1525 163.3203 418.9400 168.3820 419.4075 C168.0327 413.2850 168.2168 407.0600 168.2148 400.9250 L168.2222 369.3750 L168.2230 273.6975 L168.2025 244.8790 C168.1930 238.5550 167.9125 232.0907 168.5788 225.7962 C169.3492 225.2505 170.0920 224.7672 170.9763 224.4230 C174.4365 223.0760 178.2923 222.2515 181.8768 221.2402 C190.7448 218.6888 199.6800 216.3777 208.6730 214.3098 C211.8347 213.5860 215.3330 212.4920 218.5717 212.4068 C217.8070 206.0513 217.9960 196.5527 218.5092 190.1185 C213.7117 187.9162 209.1820 185.0217 204.6425 182.3362 C198.0505 178.4953 191.4900 174.6005 184.9615 170.6523 L128.9795 137.2948 L85.6970 111.5908 C79.4937 107.9965 73.3345 104.3268 67.2207 100.5822 C64.7820 99.1055 62.0112 97.7513 59.7225 96.0813 C59.9255 122.0413 59.9515 148.0025 59.8010 173.9630 L59.8015 316.5025 L59.8000 385.0550 L59.8085 406.2000 C59.8050 410.5250 60.0123 415.0550 59.4810 419.3450 Z"></path>
<path id="" fill="#000000" fill-opacity="1.0" stroke="#000000" stroke-width="0.0" stroke-opacity="1.0" stroke-linecap="round" stroke-linejoin="round"  filling="0" d="M204.3707 268.2550 C204.7032 268.2275 205.0363 268.2100 205.3698 268.2000 C216.5562 267.8150 227.8845 268.1725 239.0835 268.1750 L305.6950 268.1750 L384.5250 268.1700 C396.9125 268.1675 409.4025 267.8200 421.7775 268.1150 C422.8300 268.1400 423.9425 268.3125 424.9000 268.7675 C425.3850 268.9950 425.8275 269.3075 426.2075 269.6875 C427.7650 271.2600 427.7600 273.4900 427.7200 275.5425 C426.8200 276.7400 426.3250 277.4300 424.8125 277.7900 L285.1075 277.7825 L231.9385 277.7750 C223.1445 277.7750 214.2912 278.0350 205.5060 277.7725 C204.1985 277.7350 202.9650 277.8275 201.9930 276.7950 C200.7235 275.4500 201.1230 273.0225 201.3237 271.3750 C202.2287 270.2425 203.1670 269.0775 204.3707 268.2550 Z"></path>
<path id="" fill="#000000" fill-opacity="1.0" stroke="#000000" stroke-width="0.0" stroke-opacity="1.0" stroke-linecap="round" stroke-linejoin="round"  filling="0" d="M205.8318 335.3250 C209.8277 335.0025 213.9775 335.2050 217.9917 335.2050 L240.4360 335.2125 L310.8850 335.2100 L386.2425 335.2050 L409.9175 335.1925 C414.7900 335.1900 419.7175 335.0050 424.5775 335.3625 C424.6450 335.4150 424.7150 335.4675 424.7800 335.5200 C426.5050 336.9200 427.6275 338.4500 427.8300 340.7350 C427.9225 341.7550 427.7475 342.7975 427.0525 343.5875 C426.2700 344.4750 425.1850 344.7575 424.0475 344.7950 C406.1475 344.5225 388.2100 344.7425 370.3075 344.7425 L270.1200 344.7425 L229.4102 344.7425 C222.2060 344.7450 214.8785 345.0150 207.6893 344.6525 C205.9122 344.5650 204.4142 344.4300 202.7620 343.7025 C202.0060 342.4750 201.4130 341.4400 201.2185 339.9850 C201.0640 338.8275 201.2238 337.6950 202.0030 336.7850 C202.9825 335.6400 204.4207 335.4600 205.8318 335.3250 Z"></path>
<path id="" fill="#000000" fill-opacity="1.0" stroke="#000000" stroke-width="0.0" stroke-opacity="1.0" stroke-linecap="round" stroke-linejoin="round"  filling="0" d="M203.3483 302.2875 C219.7278 301.9325 236.1630 302.1875 252.5500 302.1850 L341.9300 302.1900 L395.8800 302.1800 L413.4450 302.1725 C416.7850 302.1725 420.1925 302.0300 423.5225 302.2725 C424.7975 302.3650 426.1275 302.4625 426.9850 303.5425 C427.8025 304.5750 427.7675 306.0400 427.5450 307.2675 C427.2000 309.1650 426.6250 309.7600 425.0700 310.8475 C420.8150 312.1650 403.1275 311.5250 397.3850 311.5250 L350.3875 311.5300 L256.5775 311.5275 L225.6290 311.5275 C220.3000 311.5300 214.9305 311.6825 209.6078 311.5050 C207.2103 311.4250 204.9320 311.0525 202.5838 310.5950 C201.6710 308.9875 200.9447 307.4025 201.2518 305.4925 C201.4925 303.9950 202.1573 303.1675 203.3483 302.2875 Z"></path>
<path id="" fill="#000000" fill-opacity="1.0" stroke="#000000" stroke-width="0.0" stroke-opacity="1.0" stroke-linecap="round" stroke-linejoin="round"  filling="0" d="M207.0163 369.1175 C212.1127 368.9300 217.2572 369.0900 222.3598 369.0900 L251.6825 369.0925 L340.7575 369.0925 L395.9625 369.0925 L412.4175 369.0775 C415.8200 369.0650 419.3575 368.8625 422.7425 369.1850 C424.2850 369.3325 425.8925 369.5250 426.9000 370.8475 C427.7050 371.9025 427.7725 373.2725 427.5575 374.5350 C427.2750 376.2000 426.6625 376.7600 425.2975 377.6850 L421.9750 377.8975 C418.8450 378.0850 415.6250 377.9225 412.4850 377.9150 L394.8100 377.8925 L338.9175 377.8875 L247.1290 377.8875 L218.4418 377.8975 C214.5383 377.9050 210.6135 378.0650 206.7140 377.9925 C205.1260 377.9650 203.2827 377.8425 202.1552 376.5675 C200.8180 375.0550 201.1905 373.2325 201.3345 371.3925 C201.6147 370.9875 201.8967 370.5700 202.2227 370.2000 C203.3573 368.9075 205.4628 369.1425 207.0163 369.1175 Z"></path>
<path id="" fill="#000000" fill-opacity="1.0" stroke="#000000" stroke-width="0.0" stroke-opacity="1.0" stroke-linecap="round" stroke-linejoin="round"  filling="0" d="M86.1275 176.3750 C88.6707 175.6133 101.9820 176.1100 105.4425 176.1098 C116.2897 176.1085 127.3087 175.7092 138.1382 176.1918 C140.6743 176.3045 143.1102 176.5587 145.5675 177.2065 C146.6365 178.3130 147.3253 179.2925 147.4928 180.8635 C147.8418 184.1378 148.2948 207.5607 147.0410 209.0582 C145.8212 210.5152 143.6868 210.5015 141.9375 210.6028 C130.6823 211.0762 119.2823 210.6830 108.0123 210.6965 L93.1610 210.7222 C90.1680 210.7255 87.1025 210.8550 84.1237 210.5490 C83.0520 210.4390 81.8548 210.2270 80.9975 209.5255 C80.4062 209.0417 80.3305 208.5047 80.2682 207.7753 C79.7697 201.9320 80.2380 194.0050 80.2710 187.9065 C80.2850 185.2615 79.8995 182.2100 80.2347 179.6102 C80.3322 178.8557 80.5508 178.1435 81.1120 177.5950 C82.2130 176.5195 84.6615 176.4003 86.1275 176.3750 Z"></path>
<path id="" fill="#edeae2" fill-opacity="1.0" stroke="#000000" stroke-width="0.0" stroke-opacity="1.0" stroke-linecap="round" stroke-linejoin="round"  filling="0" d="M89.2168 185.5603 C95.0390 185.7730 100.9272 185.5995 106.7570 185.6005 L138.9225 185.5800 C138.3438 190.6920 138.7722 196.3013 138.7770 201.4735 C135.0132 202.0245 127.8232 201.5338 123.7605 201.5305 L89.2130 201.5070 C89.1868 196.1915 89.1880 190.8757 89.2168 185.5603 Z"></path>
<path id="" fill="#000000" fill-opacity="1.0" stroke="#000000" stroke-width="0.0" stroke-opacity="1.0" stroke-linecap="round" stroke-linejoin="round"  filling="0" d="M80.2517 354.4750 C80.8002 353.7000 81.4922 353.1425 82.3740 352.7825 C84.8848 351.7625 137.0925 351.9550 142.7598 352.3300 C143.9722 352.4100 144.9153 352.6200 146.0222 353.1325 C146.7950 354.3175 147.2420 355.3350 147.4552 356.7425 C147.9505 360.0150 148.1248 381.2100 147.4467 384.2825 C147.3522 384.7100 147.1842 385.0525 146.9700 385.4300 C145.4377 386.1350 143.8008 386.4425 142.1297 386.5825 C138.8605 386.8525 135.4933 386.7100 132.2108 386.7125 L114.8643 386.7175 L96.8983 386.7100 C93.0403 386.7075 89.1380 386.8275 85.2913 386.5175 C83.9060 386.4050 82.6837 386.1150 81.3720 385.6500 C80.9770 384.7700 80.6097 383.9175 80.4763 382.9525 C80.0027 379.5325 80.2325 375.9000 80.2325 372.4500 L80.2517 354.4750 Z"></path>
<path id="" fill="#9e8e6a" fill-opacity="1.0" stroke="#000000" stroke-width="0.0" stroke-opacity="1.0" stroke-linecap="round" stroke-linejoin="round"  filling="0" d="M80.2517 354.4750 C80.8002 353.7000 81.4922 353.1425 82.3740 352.7825 C84.8848 351.7625 137.0925 351.9550 142.7598 352.3300 C143.9722 352.4100 144.9153 352.6200 146.0222 353.1325 C142.2567 353.3075 138.3435 352.9875 134.5542 353.0075 L100.1633 353.0250 C94.3733 353.0225 88.0847 352.5150 82.3698 353.4375 C81.7832 354.0075 81.2005 354.7125 80.4482 355.0350 L80.2517 354.4750 Z"></path>
<path id="" fill="#ede9e3" fill-opacity="1.0" stroke="#000000" stroke-width="0.0" stroke-opacity="1.0" stroke-linecap="round" stroke-linejoin="round"  filling="0" d="M89.2137 361.5175 L138.9218 361.5300 C138.4628 366.7375 138.7755 372.2175 138.7733 377.4625 C133.9908 377.9500 127.9885 377.5050 123.0677 377.5050 L89.2050 377.4775 L89.2137 361.5175 Z"></path>
<path id="" fill="#000000" fill-opacity="1.0" stroke="#000000" stroke-width="0.0" stroke-opacity="1.0" stroke-linecap="round" stroke-linejoin="round"  filling="0" d="M138.2263 235.1260 C140.0935 235.0835 145.0765 234.5488 146.3800 235.8315 C147.8873 237.3150 147.7385 240.8220 147.7635 242.7878 C147.8143 246.7785 147.6842 250.7725 147.7128 254.7650 C147.7377 258.2400 148.1438 262.2600 147.5517 265.6875 C147.3870 266.6400 147.1685 267.3450 146.4890 268.0425 C145.1335 268.5950 143.6750 268.8075 142.2195 268.9025 C136.5500 269.2675 130.6687 268.9575 124.9800 268.9550 L89.7298 268.9750 C87.5137 268.9700 83.3185 269.4550 81.5172 267.9550 C80.5778 267.1725 80.3050 265.9125 80.2105 264.7500 C79.9092 261.0550 80.2387 257.0400 80.2345 253.3050 C80.2292 248.4357 79.7628 242.4830 80.3675 237.7312 C80.4475 237.1025 80.7180 236.6492 81.1432 236.1983 C81.6793 235.6297 82.2063 235.3542 82.9850 235.2672 C88.6450 234.6355 95.3800 235.1560 101.1495 235.1548 L138.2263 235.1260 Z"></path>
<path id="" fill="#edeae2" fill-opacity="1.0" stroke="#000000" stroke-width="0.0" stroke-opacity="1.0" stroke-linecap="round" stroke-linejoin="round"  filling="0" d="M89.2097 244.4805 C105.7470 244.1667 122.3622 244.4238 138.9050 244.4945 C138.5493 249.7400 138.7775 255.1150 138.7725 260.3750 C133.1985 260.1325 127.5315 260.3325 121.9445 260.3325 L89.2158 260.2975 L89.2097 244.4805 Z"></path>
<path id="" fill="#000000" fill-opacity="1.0" stroke="#000000" stroke-width="0.0" stroke-opacity="1.0" stroke-linecap="round" stroke-linejoin="round"  filling="0" d="M137.9682 294.1250 C140.1735 294.0975 145.2867 293.5075 146.7363 295.3075 C148.4265 297.4050 147.7070 321.1075 147.7820 325.4950 C147.4620 325.9675 147.1427 326.4175 146.7377 326.8200 C146.2235 327.3350 145.7405 327.6325 145.0160 327.7300 C143.2065 327.9700 141.2007 327.8025 139.3675 327.7975 L128.2115 327.7675 L90.4375 327.7875 L82.6752 327.7525 C82.0790 327.4400 81.4765 327.1200 80.9967 326.6375 C80.4883 326.1275 80.3383 325.5825 80.2643 324.8875 C79.9275 321.7350 80.2135 318.3050 80.2223 315.1225 C80.2397 308.8725 80.1823 302.6100 80.3398 296.3650 C80.6622 295.8900 80.9828 295.4325 81.3895 295.0250 C81.9268 294.4850 82.3100 294.3450 83.0715 294.2600 C88.4470 293.6675 95.7300 294.1400 101.2802 294.1450 L137.9682 294.1250 Z"></path>
<path id="" fill="#ede9e2" fill-opacity="1.0" stroke="#000000" stroke-width="0.0" stroke-opacity="1.0" stroke-linecap="round" stroke-linejoin="round"  filling="0" d="M89.2368 303.0100 L138.8223 303.0225 L138.7835 318.7600 L89.2288 318.7575 C89.1660 313.5075 89.1687 308.2575 89.2368 303.0100 Z"></path>
</svg>