<svg xmlns="http://www.w3.org/2000/svg" viewBox="0 0 512 512" height="512.0px" width="512.0px">
<path id="" fill="#e73a2a" fill-opacity="1.0" stroke="#000000" stroke-width="0.0" stroke-opacity="1.0" stroke-linecap="round" stroke-linejoin="round"  filling="0" d="M76.9948 257.4450 C83.5455 258.1400 90.3887 257.7675 96.9760 257.7625 L130.7545 257.7875 L252.1600 257.7925 L382.8200 257.7750 L419.8400 257.7100 C426.1025 257.7175 432.8375 258.2375 439.0500 257.5500 C438.6850 262.8050 438.9150 268.2275 438.9150 273.4975 L438.9300 302.4125 L438.9575 391.5775 L438.8950 418.5400 C438.8275 426.2000 438.8575 434.3450 437.5700 441.9175 C436.8550 446.1200 435.1700 449.2825 431.6625 451.7925 C429.6650 452.9650 427.3550 453.5225 425.0775 453.8450 C417.1850 454.9550 409.0025 454.9150 401.0550 455.3275 C381.1925 456.4100 361.3075 457.0325 341.4175 457.1950 C286.2700 458.5975 231.0968 458.6000 175.9495 457.2000 C167.2038 457.0550 158.4492 457.1525 149.7065 456.9225 C137.4370 456.6025 125.1300 455.9350 112.8733 455.3325 C105.7540 454.9825 97.1537 455.3500 90.2790 453.9150 C86.5447 453.1375 82.7737 451.1000 80.7007 447.7900 C78.3303 444.0075 78.3070 438.4550 78.0237 434.0825 C77.2322 421.8575 77.2565 409.6400 77.0200 397.4000 C76.6803 364.8225 76.5940 332.2450 76.7607 299.6650 L76.7838 272.1700 C76.7690 268.0600 76.2015 261.2650 76.9948 257.4450 Z M308.9375 417.5100 C322.3250 417.2100 335.7200 417.2350 349.0975 416.6325 C354.0150 416.4125 359.5075 416.5900 364.2825 415.3550 C367.0225 414.6475 369.4100 413.1850 371.3575 411.1450 C373.1225 409.2975 373.9450 407.2750 374.5150 404.8125 C376.1625 397.6925 376.0475 389.6200 376.3550 382.3200 C376.8900 369.5975 377.3875 356.9200 377.0075 344.1800 C376.7750 337.3625 376.4675 330.5450 376.0825 323.7325 C375.8600 319.8300 375.9175 315.5275 374.9175 311.7375 C374.1450 308.7975 372.9275 306.0475 370.6900 303.9175 C368.2675 301.6100 365.3675 300.7125 362.1300 300.2950 C358.7175 299.8550 355.1950 300.0075 351.7575 299.9950 C345.7525 299.9750 339.7375 300.0250 333.7350 299.7900 C328.2275 299.5750 322.7175 299.2275 317.2100 299.1125 C298.0075 298.7175 278.7300 299.0475 259.5225 299.0475 C246.1073 299.0075 232.6918 299.0375 219.2767 299.1375 C215.5475 299.1700 211.7973 299.0125 208.0717 299.1300 C197.6890 299.3175 187.3107 299.8425 176.9292 299.9825 C170.3687 300.0700 159.5258 299.3700 153.4288 300.6900 C150.6113 301.3000 148.4535 302.5675 146.4523 304.6225 C145.0443 306.0700 143.7165 307.8600 143.1158 309.8025 C141.9025 313.7225 141.8880 318.2600 141.5920 322.3450 C140.9252 331.5475 140.8593 340.6575 140.7535 349.8750 C140.6635 357.7275 140.5320 365.5550 140.6990 373.4075 C140.8587 380.9125 141.3390 388.3475 141.9908 395.8225 C142.3020 399.3925 142.3200 403.0075 143.3797 406.4625 C144.0235 408.5625 145.1438 410.5100 146.7448 412.0250 C149.0185 414.1775 151.6633 415.1775 154.6985 415.7125 C159.4370 416.5500 164.3805 416.6750 169.1792 416.8350 C177.5332 417.1125 185.8943 417.0700 194.2487 417.3075 C232.4702 418.3550 270.7125 418.4225 308.9375 417.5100 Z"></path>
<path id="" fill="#191919" fill-opacity="1.0" stroke="#000000" stroke-width="0.0" stroke-opacity="1.0" stroke-linecap="round" stroke-linejoin="round"  filling="0" d="M73.4138 107.2495 C73.9782 107.2630 74.3590 107.2985 74.8343 107.6335 C77.3480 109.4043 79.6803 111.7018 82.1200 113.6110 C87.7045 117.9815 93.4193 122.1938 99.0577 126.4955 C108.2087 133.4778 117.6107 140.1445 126.7838 147.1030 L154.6000 168.0400 C157.2437 170.0260 159.7575 172.1500 162.4418 174.0905 C157.6938 180.4622 151.4633 186.0420 145.8465 191.6575 C138.7840 198.7180 131.8135 205.9052 124.6292 212.8400 C121.9433 215.4328 118.8550 217.4445 116.3213 220.2190 L95.0130 241.3958 C90.4205 245.9987 85.8997 250.8300 80.9577 255.0600 C80.1873 255.7175 78.3215 257.5850 77.2888 257.5050 C77.2310 257.4175 77.1642 257.3375 77.1155 257.2425 C74.7335 252.7025 75.7320 203.1280 76.5790 195.4543 C77.0403 191.2755 78.0818 187.4640 79.4900 183.5242 C78.6400 182.4000 77.8652 181.2210 77.1703 179.9948 C75.6450 177.2587 74.6980 174.2522 74.0178 171.2083 C72.2580 163.3327 66.3058 118.7675 68.2858 112.7428 C69.1065 110.2462 71.1062 108.3685 73.4138 107.2495 Z"></path>
<path id="" fill="#191919" fill-opacity="1.0" stroke="#000000" stroke-width="0.0" stroke-opacity="1.0" stroke-linecap="round" stroke-linejoin="round"  filling="0" d="M209.0038 81.5725 C209.8720 81.4742 211.0558 81.2185 211.8720 81.6292 C213.6882 82.5437 215.5290 84.3127 217.1797 85.5618 L231.3435 96.3497 C248.5665 109.2272 265.6675 122.2670 282.6450 135.4670 C287.9075 139.5262 293.2975 143.4350 298.5375 147.5128 C300.8575 149.3192 302.9200 151.4255 305.3250 153.1248 C296.3000 154.9940 286.8900 155.9787 277.7500 157.2340 C264.6700 159.0305 251.5400 160.9410 238.4978 162.9970 L234.1285 163.0777 C226.9955 157.2800 219.3775 152.0302 212.0892 146.4252 L157.9830 104.8978 C155.2728 102.8335 143.6305 95.0537 142.5468 93.1833 C143.5412 92.4420 202.4543 82.7915 209.0038 81.5725 Z"></path>
<path id="" fill="#191919" fill-opacity="1.0" stroke="#000000" stroke-width="0.0" stroke-opacity="1.0" stroke-linecap="round" stroke-linejoin="round"  filling="0" d="M348.4150 61.1127 C348.5650 61.1097 348.7150 61.0997 348.8625 61.1040 C349.8275 61.1302 350.5950 61.5417 351.3550 62.0892 C358.2675 67.0610 364.9850 72.3640 371.7325 77.5553 L405.5550 103.4937 C413.4250 109.3930 421.2375 115.3665 428.9925 121.4135 C431.6250 123.4435 434.8950 125.2888 437.1400 127.6995 C437.0500 128.1868 436.9350 128.5885 436.6800 129.0132 C435.4025 131.1478 432.3350 132.4828 430.0100 133.0080 C426.0100 133.9115 421.8650 134.4173 417.8125 135.0603 L399.7450 137.9913 C390.9400 139.3955 381.9350 141.3735 373.0575 142.1127 C372.0925 142.1933 371.4150 142.3087 370.5675 141.7682 C367.0200 138.3067 362.5725 135.4440 358.5650 132.5220 C354.5950 129.6265 350.7075 126.5977 346.7800 123.6407 L300.8575 88.5883 C296.3950 85.2440 291.9875 81.8290 287.6350 78.3445 C284.9825 76.2355 282.1450 74.2065 279.9300 71.6265 C280.0200 71.5965 280.1100 71.5683 280.2000 71.5365 C283.5250 70.3570 287.4725 70.3177 290.9750 69.6505 C297.7650 68.3562 304.6800 66.7603 311.5200 65.8053 C315.9800 65.1825 320.5175 65.1452 324.9725 64.5285 C332.7925 63.4458 340.5450 61.8765 348.4150 61.1127 Z"></path>
<path id="" fill="#191919" fill-opacity="1.0" stroke="#000000" stroke-width="0.0" stroke-opacity="1.0" stroke-linecap="round" stroke-linejoin="round"  filling="0" d="M301.7875 175.6465 L302.3500 175.8022 L302.4050 176.1987 C301.1150 179.2007 279.2725 200.0195 275.1475 204.1868 C272.3750 206.9890 270.1450 210.2567 267.4000 213.0672 C260.8425 219.7827 254.2225 226.5643 247.4308 233.0403 C246.3412 234.0790 244.8950 234.5603 243.8160 235.6265 C236.2793 243.0740 229.0330 250.8400 221.1615 257.9450 C202.0462 258.3575 182.8717 257.8975 163.7480 257.9825 C159.9315 257.9975 156.1783 258.6975 152.3813 258.7100 C152.0753 258.2725 151.7910 257.6950 151.8918 257.1500 C152.1180 255.9275 153.1780 254.7375 154.0043 253.8425 C157.9140 249.6075 162.2085 245.6265 166.2640 241.5182 L198.0627 209.4355 L219.3952 188.0685 C223.2867 184.1680 227.0700 179.6945 231.4402 176.3515 C235.9702 175.5000 241.0975 175.8172 245.6983 175.8627 L259.9875 175.9512 C273.9225 175.9427 287.8550 175.8410 301.7875 175.6465 Z"></path>
<path id="" fill="#191919" fill-opacity="1.0" stroke="#000000" stroke-width="0.0" stroke-opacity="1.0" stroke-linecap="round" stroke-linejoin="round"  filling="0" d="M370.6775 176.8327 C384.3175 177.1740 397.9000 177.1140 411.5375 177.8087 C415.3100 178.0010 419.1125 178.1380 422.8750 178.4960 C427.2075 178.9085 431.4775 179.5188 435.8325 179.7222 C432.5075 183.0375 429.5200 186.7368 426.2725 190.1418 C422.6875 193.9005 418.8325 197.4263 415.3250 201.2545 C413.3675 203.3935 411.6275 205.7153 409.6175 207.8145 C402.0425 215.7305 393.9950 223.2108 386.2500 230.9563 C383.5050 233.7027 381.4025 236.9645 378.7125 239.7415 C372.7725 245.8760 366.3850 251.5500 360.4350 257.6825 C358.6025 257.9825 356.8000 257.9950 354.9475 258.0100 L303.7325 257.9750 C301.6200 257.9775 293.1650 258.5600 291.8800 258.2600 C291.2200 258.1050 291.0175 257.9175 290.6500 257.3700 C290.7175 257.0675 290.7050 257.0425 290.8700 256.7225 C291.7975 254.9200 294.4225 253.0825 295.8375 251.5575 C310.0825 236.1848 325.1050 221.4320 339.9575 206.6345 C349.3300 197.2965 358.5050 187.6790 368.0750 178.5520 C368.8900 177.7753 369.5950 177.1890 370.6775 176.8327 Z"></path>
<path id="" fill="#191919" fill-opacity="1.0" stroke="#000000" stroke-width="0.0" stroke-opacity="1.0" stroke-linecap="round" stroke-linejoin="round"  filling="0" d="M161.4933 174.3878 C159.2590 172.2753 148.7050 165.1438 148.2307 163.2103 C148.3220 163.0688 148.3898 162.9088 148.5045 162.7852 C148.9975 162.2558 150.2847 162.0027 150.9670 161.8800 C155.4080 161.0810 159.9580 160.5560 164.4275 159.9090 L189.8297 156.1978 L207.3822 153.6187 C212.0762 152.9035 216.7222 152.0465 221.4592 151.6560 C222.6880 152.7157 223.7157 153.9772 224.9455 155.0417 C227.2608 157.0460 232.2585 159.7643 233.6730 162.2480 C233.9420 162.7205 233.9390 162.7235 233.7760 163.2635 C231.5638 164.7845 209.9382 167.4120 205.6817 168.0140 C204.3268 168.2057 200.7287 168.3268 199.6320 169.0462 C199.0780 169.4100 199.1765 169.9583 199.0960 170.5567 C199.0143 171.2750 198.8862 171.5137 199.2600 172.1510 C200.5510 172.7510 202.1322 172.4662 203.5320 172.5513 C206.3913 172.2725 209.4755 172.4783 212.3542 172.4855 L228.9680 172.5150 L277.0575 172.2818 C302.4100 172.1985 327.7600 172.3640 353.1100 172.7782 C373.8425 172.9500 394.8550 172.8730 415.5450 174.2690 C421.3775 174.6625 428.9350 174.6255 434.1750 177.5465 C438.0850 179.7258 440.2875 183.4158 441.4025 187.6400 C442.5275 191.8898 442.8175 196.3625 443.1375 200.7325 C443.7700 209.3112 443.8925 217.8828 443.9275 226.4800 L444.0925 262.1725 C444.1550 268.4150 444.4400 274.6600 444.5475 280.9050 C444.7100 292.4075 444.7900 303.9100 444.7900 315.4150 C444.7350 333.9725 444.4925 352.5300 444.0625 371.0850 C443.9550 378.1150 444.1175 385.1425 443.9875 392.1750 C443.8850 397.8100 443.5075 403.4350 443.3150 409.0675 C443.1525 413.7275 443.1150 418.4075 442.7900 423.0600 C442.3000 430.1125 441.9950 442.7600 438.4475 448.5325 C436.0300 452.4675 431.7200 454.5850 427.3550 455.5500 C418.5225 457.5000 409.1300 457.8075 400.1175 458.3600 C384.4625 459.2000 368.7950 459.7875 353.1200 460.1225 C348.4075 460.2100 343.6975 460.1025 338.9850 460.2000 C287.5375 461.2650 236.0710 461.2500 184.6230 460.1525 L140.9523 459.1275 C125.7990 458.7400 108.7750 458.3575 93.8630 456.0950 C90.1942 455.5400 86.5332 454.7450 83.3763 452.7075 C79.7003 450.3325 78.1135 446.9175 77.2128 442.7925 C75.0027 432.6700 74.6795 421.8025 74.2582 411.4675 C73.5225 388.6575 73.1537 365.8350 73.1520 343.0125 C73.0780 325.6225 73.1265 308.2350 73.2978 290.8475 C73.4185 283.1950 73.7625 275.5500 73.8995 267.9000 C73.9498 265.0850 73.7790 248.1110 74.6373 246.7807 C75.2570 246.5445 75.3850 246.4337 76.0190 246.5842 C77.6862 248.1020 76.7603 251.7350 76.9990 253.7750 C77.1060 254.6900 77.2923 255.2000 78.0255 255.7675 C81.3285 256.1125 85.7657 247.7385 88.9987 246.2108 C89.0940 246.1658 89.1905 246.1232 89.2863 246.0793 C96.2300 246.7750 103.2377 246.7063 110.2110 246.7855 C117.8310 246.9240 125.4518 247.0050 133.0730 247.0285 C141.9292 247.0625 150.7425 247.0120 159.5842 247.6150 C158.5992 251.4300 156.5685 252.6425 154.6510 255.8100 L154.7888 256.1975 C156.3985 257.2900 158.6870 257.5025 160.5867 257.6800 C167.7457 258.3425 175.3042 257.9000 182.5080 257.9125 C191.4093 257.9300 200.4650 258.2850 209.3500 257.8900 C213.3700 257.7100 217.3427 256.9525 221.3865 256.7900 C224.7450 253.9725 227.4368 249.8340 230.3590 247.5075 C237.6277 247.3850 297.2575 246.7572 299.2575 247.9920 C299.7000 251.0225 293.8975 253.1175 294.1175 255.8550 C294.1475 256.2400 294.3325 256.3850 294.6525 256.5875 C296.0350 257.4725 300.4850 257.7775 302.2400 257.8700 C311.8825 258.3775 322.9175 257.8325 332.7125 257.8175 L348.0275 257.7950 C351.4250 257.7850 355.1150 258.0725 358.4425 257.3550 L358.8925 257.2550 C362.8150 256.4025 366.4375 249.2762 370.0175 247.1552 C370.1050 247.1028 370.1950 247.0527 370.2850 247.0015 C374.4650 247.1467 378.6425 246.9483 382.8225 246.9460 C398.2100 246.9380 413.5850 246.4040 428.9675 246.0835 C429.0500 244.6402 429.1150 243.1958 429.1625 241.7507 C429.6500 229.3188 429.6225 216.8720 429.0850 204.4420 C428.9425 200.7032 429.1450 196.2072 428.3075 192.5715 C427.9450 190.9925 427.2625 190.0335 426.1725 188.8882 L425.8525 188.5558 C425.8600 186.9828 431.5700 183.9750 432.0525 181.7775 C431.9500 181.6670 431.8575 181.5437 431.7400 181.4460 C430.5950 180.4818 415.6550 178.5450 413.4775 178.3670 C408.4100 177.9527 403.2200 178.4982 398.1175 178.2830 C394.5650 178.1333 391.0625 177.5680 387.5200 177.2912 C381.9750 176.8578 376.0375 176.7953 370.5000 177.2115 C368.0400 179.4305 361.0350 187.7337 358.5175 188.4425 L358.9650 187.6017 C358.5275 187.1955 358.0925 187.1783 357.5175 187.1440 C352.9650 186.8723 348.2200 187.1293 343.6375 187.0777 L311.4450 186.7955 C308.7050 186.7863 295.9650 187.0618 294.2725 186.2170 C294.0575 186.1095 293.8900 185.9230 293.7000 185.7762 C293.2600 182.5188 299.1150 180.3615 299.9950 177.3525 C300.1250 176.9080 300.1150 177.0872 299.8750 176.6478 C295.7825 175.5627 280.0200 176.1205 274.8775 176.1122 L249.4560 176.1025 C243.7885 176.1155 238.0522 175.9948 232.4003 176.4620 C229.3300 179.2702 226.5632 182.6387 223.3140 185.2040 C221.9480 186.2823 220.9128 186.5925 219.2075 186.7753 C213.9312 187.3403 208.3065 187.0013 202.9933 187.0182 L174.9990 187.1190 C166.9292 187.1102 158.4207 188.0675 150.4263 187.0692 C149.8813 186.6600 149.5273 186.3490 149.1272 185.7827 C149.7355 184.6842 159.4008 177.3985 161.4933 174.3878 Z M88.0277 260.4975 C88.0600 278.3650 87.9735 296.2325 87.7682 314.1000 C87.6728 335.6025 87.7387 357.1050 87.9662 378.6075 C88.0397 385.2725 87.9250 391.9550 88.1100 398.6175 C88.2060 402.0750 88.6137 405.5150 88.7055 408.9750 C88.9457 418.0175 88.9178 427.4025 90.2467 436.3600 C90.4975 438.0500 90.7387 439.9850 91.8075 441.3700 C97.0800 443.1775 104.6525 443.0025 110.2452 443.3700 C116.5535 443.7825 122.8188 443.9550 129.1232 444.2875 C132.1532 444.4450 135.1690 444.7925 138.2035 444.8900 C145.9690 445.1400 153.7475 445.0775 161.5152 445.2450 C165.2365 445.3250 168.9300 445.8300 172.6550 445.8950 C208.8313 446.1750 245.0087 446.2575 281.1850 446.1400 C299.7000 446.2150 318.2150 446.1625 336.7275 445.9825 C342.5075 445.9325 348.3075 446.0400 354.0800 445.8975 C357.2400 445.8200 360.3675 445.3550 363.5225 445.2475 C370.9450 444.9950 378.3850 445.0925 385.8100 444.8575 C388.6775 444.7650 391.5175 444.3775 394.3775 444.2050 C399.4850 443.9000 422.9200 443.3225 426.1400 441.1850 C427.2775 440.4300 427.3625 437.4275 427.5075 436.1600 C428.0150 431.7225 428.1375 427.3475 428.3600 422.8975 C428.5075 419.9900 428.8550 417.1025 428.9475 414.1875 C429.1875 406.4525 429.0625 398.6975 429.3450 390.9700 C429.4575 387.9225 429.8225 384.8850 429.9100 381.8350 C430.0725 376.2550 429.9875 370.6525 430.0475 365.0675 L430.2525 316.7125 C430.2475 297.9325 430.3600 279.1300 430.0500 260.3550 L429.7025 260.0550 L429.3850 260.0925 C422.3275 261.2100 414.9900 260.9400 407.8525 261.0000 C396.9475 261.1200 386.0425 261.1575 375.1375 261.1100 L293.4250 261.7925 C262.0975 261.9700 230.7708 261.9600 199.4440 261.7625 L159.6248 261.5350 C155.3358 261.5100 151.0397 261.7850 146.7533 261.6975 C143.4565 261.6275 140.1765 261.2300 136.8770 261.1575 C125.6355 260.9125 114.3685 261.0925 103.1215 260.9525 C98.1803 260.8900 92.9238 261.1275 88.0277 260.4975 Z"></path>
<path id="" fill="#fafafa" fill-opacity="1.0" stroke="#000000" stroke-width="0.0" stroke-opacity="1.0" stroke-linecap="round" stroke-linejoin="round"  filling="0" d="M173.8707 172.7910 C176.4645 172.4095 198.0063 168.9750 198.5013 169.1402 C198.6313 169.1837 198.7337 169.2858 198.8500 169.3585 L199.0960 170.5567 C199.0143 171.2750 198.8862 171.5137 199.2600 172.1510 C200.5510 172.7510 202.1322 172.4662 203.5320 172.5513 C200.1575 173.0240 196.4020 172.7578 192.9745 172.8150 C186.7330 172.9187 180.0753 173.4175 173.8707 172.7910 Z"></path>
<path id="" fill="#191919" fill-opacity="1.0" stroke="#000000" stroke-width="0.0" stroke-opacity="1.0" stroke-linecap="round" stroke-linejoin="round"  filling="0" d="M189.4077 297.3425 C189.6895 297.3000 189.9597 297.2625 190.2448 297.2450 C195.2230 296.9600 200.3165 297.1300 205.3030 297.1325 L232.4803 297.1650 C256.5250 297.1625 280.6525 296.7375 304.6875 297.2475 C308.5600 297.3300 312.4100 297.8000 316.2800 297.9050 C326.8500 298.1950 337.4700 297.9325 348.0500 298.0575 C353.0975 298.1150 358.2475 298.0325 363.2600 298.6375 C366.6375 299.0450 369.9250 300.0200 372.4850 302.3725 C379.4050 308.7375 378.7550 322.1975 378.9900 330.8700 C379.2950 342.1625 379.0775 353.5225 379.0725 364.8225 C379.0700 375.0100 379.0175 385.0275 378.2300 395.1900 C377.9925 398.2600 377.9650 401.3550 377.3175 404.3775 C376.6000 407.7200 375.2000 411.0550 372.7675 413.5225 C370.9100 415.4050 368.2600 416.5150 365.7275 417.1625 C362.7200 417.9300 359.5725 418.0525 356.4900 418.2950 C346.8225 419.0600 337.0800 418.9550 327.3850 419.1000 C292.0550 419.8575 256.7175 420.0700 221.3833 419.7400 C217.3353 419.6925 213.3112 419.2050 209.2592 419.1525 L177.8845 418.8750 C172.5110 418.8075 167.2685 418.5525 161.9115 418.2125 C159.2538 418.0450 156.5450 417.9975 153.9113 417.5875 C151.2318 417.1725 148.3533 415.9800 146.1528 414.3900 C142.2543 411.5700 140.7835 406.1550 140.1345 401.6200 C139.0338 393.9300 139.0668 386.1600 138.9707 378.4075 C138.8992 372.6225 138.4805 366.8550 138.4845 361.0725 C138.4872 357.0450 138.8813 353.0475 138.9265 349.0250 C139.0405 338.8750 138.9100 328.6950 139.8748 318.5825 C140.1120 316.0925 140.2350 313.5050 140.7540 311.0575 C141.3383 308.3500 142.5128 305.8050 144.1935 303.6050 C146.1678 301.0400 148.9725 299.6350 152.0465 298.8575 C156.1085 297.8275 160.4665 298.0350 164.6290 297.9975 C172.8695 297.9250 181.2162 298.3300 189.4077 297.3425 Z M154.9082 312.5625 C153.0770 324.2425 153.0658 336.4900 153.0520 348.2925 C152.9698 357.1900 153.0172 366.0850 153.1945 374.9825 C153.3755 384.2850 152.8775 394.2725 154.8795 403.4000 C160.0768 404.2725 165.6455 404.0050 170.9093 404.1600 C181.6257 404.5325 192.3465 404.7700 203.0690 404.8725 C238.0020 405.1625 272.9375 405.2050 307.8700 405.0025 C319.3525 404.9000 330.7900 404.5775 342.2650 404.2525 C349.1925 404.0550 356.1550 404.1675 363.0450 403.3100 C363.2625 400.2625 363.7525 397.2425 363.9550 394.1925 C364.8350 380.9300 364.9575 367.5000 364.9650 354.2175 C364.9725 340.4375 364.9075 326.5825 363.3300 312.8825 C355.4125 311.7575 346.8700 312.0750 338.8700 312.0950 L314.8150 311.9475 C279.8250 311.6750 244.8338 311.6525 209.8438 311.8750 L168.5728 312.1625 C164.0217 312.1975 159.4503 312.5900 154.9082 312.5625 Z"></path>
<path id="" fill="#191919" fill-opacity="1.0" stroke="#000000" stroke-width="0.0" stroke-opacity="1.0" stroke-linecap="round" stroke-linejoin="round"  filling="0" d="M183.4547 334.8500 C189.6925 334.2375 196.3687 334.6525 202.6427 334.6500 L239.3138 334.6500 L295.9925 334.8050 C305.2300 334.8725 314.6450 334.5800 323.8575 335.1350 C326.0975 335.2675 329.5475 335.4300 331.3250 336.9100 C332.5250 337.9075 333.0525 339.2800 333.1250 340.8150 C333.2600 343.6650 332.1725 346.1300 330.3325 348.2225 C328.3625 349.0025 326.4800 349.0675 324.3875 349.2000 C312.1875 349.5400 299.9825 349.6925 287.7775 349.6525 C269.1250 349.7825 250.4700 349.8025 231.8180 349.7125 C221.3715 349.7300 210.9247 349.6675 200.4790 349.5225 C194.9205 349.4625 189.1953 349.6075 183.6640 349.1150 C181.4390 348.9175 179.0745 348.6600 177.2625 347.2275 C176.0108 346.2375 175.2645 344.8225 175.1022 343.2400 C174.8918 341.1825 175.4088 338.9175 176.7953 337.3450 C178.6185 335.2775 180.8972 335.0650 183.4547 334.8500 Z"></path>
<path id="" fill="#191919" fill-opacity="1.0" stroke="#000000" stroke-width="0.0" stroke-opacity="1.0" stroke-linecap="round" stroke-linejoin="round"  filling="0" d="M185.7135 363.8575 C202.3598 363.6700 219.0078 363.6750 235.6540 363.8700 L251.6550 363.9675 C255.3900 363.9925 259.2200 363.8975 262.9275 364.3725 C264.7875 364.6125 266.5825 365.1225 268.0650 366.3150 C269.1250 367.1700 269.8825 368.2925 270.0075 369.6700 C270.2075 371.8750 268.9450 374.5800 267.4775 376.1725 C265.3350 378.4950 262.2050 378.2950 259.3000 378.4600 C243.2620 378.8550 227.2177 378.9725 211.1750 378.8100 C202.0948 378.7775 192.6438 379.2050 183.6255 378.2500 C181.5980 378.0350 178.6837 377.6875 177.0550 376.3750 C175.7392 375.3125 175.2070 373.6175 175.1317 371.9825 C175.0358 369.9000 175.6752 367.5950 177.1490 366.0700 C179.3985 363.7425 182.7337 364.0050 185.7135 363.8575 Z"></path>
<path id="" fill="#191919" fill-opacity="1.0" stroke="#000000" stroke-width="0.0" stroke-opacity="1.0" stroke-linecap="round" stroke-linejoin="round"  filling="0" d="M407.9225 51.3947 C412.0475 50.9600 416.8100 50.9017 420.6925 52.5870 C425.0050 54.4585 427.9750 57.8622 429.6525 62.2018 C433.4150 71.9365 440.2600 109.7318 439.4675 120.0197 C439.3400 121.6815 438.5700 123.5755 437.8950 125.0865 C437.2950 126.4260 436.3100 128.8307 434.8800 129.3760 C434.3875 128.8288 434.2850 127.8375 434.1050 127.1097 C433.6250 125.1570 427.3050 121.0103 425.5125 119.3335 C425.6425 111.9222 419.7550 72.2535 416.2875 66.3105 C415.9800 65.7838 415.7350 65.5300 415.1250 65.3997 C411.9450 64.7207 367.6575 69.4385 366.1775 70.5938 C366.0125 70.7238 366.2800 71.6095 366.2025 72.0088 C366.0550 72.7585 365.7000 73.3333 365.0650 73.7567 C363.3625 73.5375 358.3700 68.3420 356.6875 67.0105 C354.3675 65.1738 351.6850 63.1420 348.9025 62.1008 C339.5150 63.8658 329.8900 65.0905 320.4075 66.2442 C317.2025 66.6342 313.9875 66.8672 310.7925 67.3355 C308.0125 67.7425 284.1175 71.6243 283.1625 72.6440 C283.1700 73.9045 287.1975 77.1365 288.1475 78.5960 C288.5350 79.1933 288.7025 79.6835 288.5650 80.3978 C287.9975 80.9287 287.1625 81.0098 286.4050 81.1397 C275.7050 82.9727 264.7900 84.2227 254.0325 85.7415 C243.5845 87.2165 233.1745 88.9798 222.7103 90.3362 C218.5063 88.2680 215.5688 84.4715 211.3775 82.5428 C207.1528 82.5598 202.8307 83.9928 198.6515 84.6422 C186.2128 86.5082 173.8065 88.5843 161.4377 90.8690 C157.2527 91.4085 152.6413 92.2517 148.6568 93.6965 C147.9243 93.9620 147.3370 94.2765 146.9990 95.0055 C147.2075 96.7765 149.7787 97.9893 150.9320 99.2710 C151.4035 99.7953 151.4645 100.0973 151.4312 100.7780 C150.7883 101.4785 150.1432 101.6070 149.2355 101.8110 C144.9020 102.7845 140.3858 103.1945 135.9982 103.9043 C126.4157 105.4948 116.8455 107.1585 107.2885 108.8955 C100.7280 110.0847 93.9135 111.1357 87.4902 112.9370 C82.7010 114.2800 85.7278 114.4655 84.6630 116.3285 C82.3378 115.9008 78.4885 111.1740 76.1690 109.7928 C74.5923 108.8538 72.3315 108.4702 70.5927 107.7500 L70.4905 107.4060 C70.8303 106.6183 71.1615 105.8307 71.7275 105.1747 C74.1868 102.3232 78.3118 100.8928 81.8337 99.9385 C94.9130 96.3945 108.6143 94.5082 121.9515 92.1908 C150.1590 87.4805 178.4040 82.9962 206.6835 78.7383 C251.7150 71.8238 296.8200 65.3905 341.9900 59.4402 C356.6075 57.5258 371.1775 55.4717 385.8175 53.7175 C393.1475 52.8395 400.5575 51.8550 407.9225 51.3947 Z"></path>
<path id="" fill="#191919" fill-opacity="1.0" stroke="#000000" stroke-width="0.0" stroke-opacity="1.0" stroke-linecap="round" stroke-linejoin="round"  filling="0" d="M355.8700 129.2247 C358.0925 130.2493 360.5600 133.0415 362.5800 134.6150 C364.4050 136.0355 366.4175 137.2350 368.1325 138.7928 C369.1075 139.6785 369.9075 140.6035 370.5775 141.7460 C370.6025 142.0735 370.7200 142.2433 370.4575 142.4917 C370.0750 142.8540 369.5775 143.0435 369.0675 143.1422 C365.2150 143.8893 361.1675 144.2905 357.2775 144.9010 L328.5600 149.3763 L313.5600 151.7128 C310.1600 152.2480 306.6350 152.9872 303.1875 153.0217 C302.9200 152.9925 302.6375 153.0302 302.3875 152.9340 C302.2500 152.8817 297.2400 147.5748 296.1575 146.7225 C294.0425 145.0592 291.6275 143.7287 289.2425 142.4917 C290.2600 141.9155 291.2325 141.3828 292.3625 141.0638 C298.0950 139.4487 305.2025 138.8322 311.1450 137.9227 L345.0575 132.6577 C346.8350 132.3848 348.6575 132.1740 350.4175 131.8020 C351.2600 131.6237 352.0875 131.2802 352.9350 131.1588 C353.9375 131.0150 355.2350 131.2845 356.1400 130.8622 C356.4750 130.7060 356.4300 130.5330 356.5250 130.2128 L355.8700 129.2247 Z"></path>
<path id="" fill="#191919" fill-opacity="1.0" stroke="#000000" stroke-width="0.0" stroke-opacity="1.0" stroke-linecap="round" stroke-linejoin="round"  filling="0" d="M74.7605 216.1475 C75.3467 216.4455 75.6050 216.5135 75.9073 217.1317 C76.9520 219.2688 76.5810 237.2782 75.8690 239.9473 C75.1310 239.7162 74.9505 239.6955 74.4473 239.1245 C73.7742 235.9807 73.7425 218.6070 74.7605 216.1475 Z"></path>
<path id="" fill="#181818" fill-opacity="0.988235" stroke="#000000" stroke-width="0.0" stroke-opacity="1.0" stroke-linecap="round" stroke-linejoin="round"  filling="0" d="M75.9685 196.4260 C76.0388 196.4725 76.1127 196.5143 76.1795 196.5658 C76.8345 197.0690 77.0310 197.6967 77.1497 198.4780 C77.3857 200.0278 77.3295 202.4388 76.3932 203.7625 C76.0218 203.6320 75.7242 203.4818 75.3800 203.2948 C75.1577 202.8867 75.0478 202.5830 74.9822 202.1155 C74.7258 200.2847 74.8293 197.9510 75.9685 196.4260 Z"></path>
</svg>