<svg xmlns="http://www.w3.org/2000/svg" viewBox="0 0 512 512" height="512.0px" width="512.0px">
<path id="" fill="#d8ccbd" fill-opacity="1.0" stroke="#000000" stroke-width="0.0" stroke-opacity="1.0" stroke-linecap="round" stroke-linejoin="round"  filling="0" d="M297.0325 51.3347 C301.2525 50.7460 305.6400 51.9252 309.8875 51.9668 C314.4225 52.0110 319.0125 52.0827 323.5475 51.9057 C326.3100 51.7980 329.0750 51.3503 331.8375 51.3205 C335.2100 51.2840 338.6150 51.8535 342.0025 51.9138 C352.8550 52.1073 359.1625 51.0490 367.5475 59.3920 C371.7275 63.5520 375.1025 69.4425 375.8425 75.3503 C376.3650 79.5168 376.1125 83.8840 376.1000 88.0810 L376.0750 108.3832 L376.0750 178.7595 L376.0950 415.4325 C376.1075 428.7900 378.1500 442.5100 367.6625 452.8525 C363.7900 456.6725 357.9650 459.6275 352.6150 460.5800 C347.6475 461.4650 342.1750 461.0450 337.1375 461.0425 L311.0875 461.0200 L216.3750 461.0250 L180.9580 461.0425 C174.0995 461.0450 166.7108 461.6350 159.9615 460.4500 C155.5670 459.6775 151.5948 458.2150 147.9617 455.5850 C141.3605 450.8075 137.5650 444.0225 136.3703 436.0350 C135.5892 430.8150 135.9615 425.1825 135.9608 419.9075 L135.9685 392.3750 L135.9685 297.1925 L135.9733 149.8895 L135.9680 103.1252 C135.9600 95.0283 135.4940 86.6743 136.0645 78.6100 C136.4812 72.7223 138.2547 67.1520 141.7953 62.3895 C145.0550 58.0045 150.3678 53.8060 155.7570 52.5067 C159.8833 51.5123 164.5110 51.9200 168.7292 51.9333 L185.1575 51.9665 L258.8725 51.9608 L280.0525 51.9730 C285.7200 51.9753 291.4125 52.1712 297.0325 51.3347 Z"></path>
<path id="" fill="#f8e9dd" fill-opacity="1.0" stroke="#000000" stroke-width="0.0" stroke-opacity="1.0" stroke-linecap="round" stroke-linejoin="round"  filling="0" d="M164.9913 107.9755 C171.3545 107.5395 177.9832 107.9480 184.3805 107.9492 L224.3963 107.9522 L348.0750 107.9408 C347.6775 143.4857 348.0650 179.0820 348.0650 214.6315 L348.0925 390.0275 L344.9375 390.0200 L226.1690 390.0250 L187.7348 390.0300 C180.1715 390.0350 172.5677 390.2025 165.0095 389.9400 C162.5435 382.1575 164.8760 373.9450 164.9505 366.0150 L164.9625 329.5350 L164.9913 107.9755 Z"></path>
<path id="" fill="#a3b75c" fill-opacity="1.0" stroke="#000000" stroke-width="0.0" stroke-opacity="1.0" stroke-linecap="round" stroke-linejoin="round"  filling="0" d="M192.0468 220.0018 C196.4353 220.5795 201.3887 220.0665 205.8435 220.0647 L236.5595 220.0773 L290.3800 220.0797 C300.2650 220.0797 310.2350 220.3438 320.1075 219.9518 C319.6525 237.6565 320.0725 255.6575 320.0650 273.3875 L320.0550 302.7275 C320.0550 308.4400 319.9275 314.1875 320.1525 319.8950 C318.7825 320.3275 300.0725 319.9100 296.8150 319.9100 L227.9895 319.9175 L206.3233 319.9025 C201.5570 319.8975 196.7572 319.7700 191.9995 320.0600 C192.1738 316.9625 192.0585 313.8000 192.0710 310.6950 L192.0735 290.9075 L192.0872 242.3155 C192.0900 234.8810 191.9180 227.4337 192.0468 220.0018 Z"></path>
<path id="" fill="#db2027" fill-opacity="1.0" stroke="#000000" stroke-width="0.0" stroke-opacity="1.0" stroke-linecap="round" stroke-linejoin="round"  filling="0" d="M255.9125 206.5968 C263.0475 203.5838 270.2150 200.6445 277.4125 197.7795 C282.0775 195.9012 286.7675 193.7518 291.6325 192.4637 L291.4175 221.1232 C282.0275 220.6772 272.5100 221.0310 263.1000 220.8940 C263.2700 226.7793 263.0675 232.7258 263.0650 238.6198 C263.0600 246.7637 263.2025 254.9275 263.0500 263.0675 C269.6050 262.7875 276.2350 262.9800 282.7975 262.9800 L320.0350 262.9150 C319.6400 267.7700 319.7450 272.9700 319.9925 277.8350 C313.9200 277.7925 264.2875 277.5275 263.2200 278.0225 L263.1325 278.5625 C263.0600 287.3175 263.0350 296.0750 263.0575 304.8300 C263.0550 309.8050 262.6925 315.1100 263.3350 320.0325 C258.6850 319.5800 253.5375 319.8600 248.8635 320.0350 C249.2747 305.9275 248.7032 291.7750 248.9900 277.6575 C243.7153 278.1200 238.1790 277.8225 232.8813 277.8225 C219.3155 277.8225 205.6033 277.3825 192.0618 278.0000 C192.1113 272.9900 192.3038 267.9325 192.0428 262.9275 C211.0210 263.4400 230.0780 262.8200 249.0700 263.0275 C248.6865 257.8275 248.9117 252.5050 248.9122 247.2903 L248.9380 220.7612 C242.3522 221.4673 235.3112 220.9948 228.6650 220.9937 C225.9275 220.9933 223.1322 220.8867 220.4200 221.2990 C220.5890 217.5950 220.3828 213.8340 220.3698 210.1235 C220.3497 204.2885 220.4510 198.4483 220.5193 192.6138 C225.4015 193.7688 230.0968 195.9798 234.7435 197.8468 C241.8560 200.6255 248.9135 203.5428 255.9125 206.5968 Z"></path>
<path id="" fill="#ac8168" fill-opacity="1.0" stroke="#000000" stroke-width="0.0" stroke-opacity="1.0" stroke-linecap="round" stroke-linejoin="round"  filling="0" d="M255.0900 72.0955 C261.5250 71.7175 268.1500 72.0088 274.6050 72.0035 C280.1400 71.9990 285.9650 71.6397 291.4700 72.1543 C292.7950 72.2780 294.1400 72.4872 295.3200 73.1367 C296.9875 74.0665 298.2025 75.6370 298.6850 77.4845 C299.2125 79.5482 298.7050 81.8180 297.5750 83.6010 C296.4600 85.3590 294.8425 86.2467 292.8650 86.7332 C288.0450 87.5505 280.5200 87.0178 275.3275 87.0113 C268.8150 87.0030 261.8550 87.5258 255.3900 86.7715 C254.1950 86.6317 253.0275 86.2605 252.0000 85.6260 C250.3400 84.6025 249.3105 83.0360 248.9563 81.1255 C248.5672 79.0285 248.8672 76.5790 250.1200 74.8092 C251.4125 72.9847 252.9750 72.4280 255.0900 72.0955 Z"></path>
<path id="" fill="#ac8168" fill-opacity="1.0" stroke="#000000" stroke-width="0.0" stroke-opacity="1.0" stroke-linecap="round" stroke-linejoin="round"  filling="0" d="M253.7475 411.2600 C261.6075 409.9875 269.0125 415.3275 270.2850 423.1875 C271.5600 431.0475 266.2225 438.4550 258.3625 439.7300 C250.4975 441.0100 243.0883 435.6675 241.8135 427.8025 C240.5388 419.9375 245.8830 412.5300 253.7475 411.2600 Z"></path>
<path id="" fill="#ac8168" fill-opacity="1.0" stroke="#000000" stroke-width="0.0" stroke-opacity="1.0" stroke-linecap="round" stroke-linejoin="round"  filling="0" d="M226.2555 72.1062 C228.9218 71.5825 231.6630 72.5417 233.4210 74.6135 C235.1790 76.6855 235.6790 79.5462 234.7280 82.0918 C233.8140 84.5385 231.6927 86.3335 229.1285 86.8305 C225.0652 87.6178 221.1320 84.9652 220.3395 80.9030 C219.5468 76.8408 222.1942 72.9043 226.2555 72.1062 Z"></path>
</svg>