<svg xmlns="http://www.w3.org/2000/svg" viewBox="0 0 512 512" height="512.0px" width="512.0px">
<path id="" fill="#cfb1fc" fill-opacity="1.0" stroke="#000000" stroke-width="0.0" stroke-opacity="1.0" stroke-linecap="round" stroke-linejoin="round"  filling="0" d="M88.7355 103.0983 C90.0348 102.9105 91.4250 102.9438 92.7395 102.9358 L320.8050 102.9593 L389.7625 102.9565 L409.8750 102.9535 C414.6800 102.9465 419.5550 102.7552 424.3300 103.3615 C432.0250 104.3387 438.9300 107.2708 444.4600 112.7848 C448.3725 116.6865 452.1000 122.3215 453.3775 127.7552 C454.4225 132.2047 454.0725 137.0363 454.0700 141.5753 L454.0625 157.0835 L454.0875 213.8345 C454.0800 223.3220 450.4525 231.2825 443.6625 237.9837 C434.1075 247.4120 423.0225 248.0625 410.3875 248.0155 C406.4600 248.0280 402.5350 248.0150 398.6100 247.9763 C395.4525 243.6480 392.1725 238.9872 388.6150 234.9933 C384.3100 234.8300 379.9550 234.9637 375.6450 234.9660 L351.5425 234.9753 L278.6000 234.9800 L175.4765 234.9800 C158.2068 234.9795 140.8808 234.6780 123.6175 234.9818 C120.4280 238.1150 115.3265 247.4348 111.0592 247.9722 C108.1495 248.3390 104.8792 248.0205 101.9187 248.0278 C89.8200 248.0567 80.7198 247.7467 70.6772 239.9117 C64.3310 234.9605 59.1515 226.8387 58.2117 218.7583 C57.6155 213.6302 57.9787 208.1920 57.9807 203.0233 L57.9945 173.4605 L57.9733 144.7832 C57.9710 139.7115 57.4660 134.0663 58.3282 129.0918 C59.2072 124.0193 61.6845 119.1565 64.8840 115.1575 C70.6752 107.9195 79.7227 104.0890 88.7355 103.0983 Z"></path>
<path id="" fill="#9966cc" fill-opacity="1.0" stroke="#000000" stroke-width="0.0" stroke-opacity="1.0" stroke-linecap="round" stroke-linejoin="round"  filling="0" d="M92.4182 95.1038 C92.7623 95.0658 92.6400 95.0725 92.9843 95.0610 C101.5392 94.7710 110.1638 94.9855 118.7272 94.9897 L164.9948 94.9977 L306.5800 94.9942 L383.7775 94.9855 L406.5875 94.9865 C412.2800 94.9877 418.0575 94.8015 423.7075 95.5912 C432.4125 96.8077 441.4300 101.3165 447.7925 107.3610 C456.2700 115.4102 460.8250 127.3192 461.0475 138.8568 C461.3350 153.7980 461.0500 168.7970 461.0600 183.7455 L461.0675 202.2270 C461.0700 209.1302 461.3575 215.9212 459.7625 222.6983 C457.9075 230.3692 454.0425 237.4077 448.5650 243.0903 C439.4300 252.4775 428.5050 255.9525 415.7075 256.1350 C416.8175 263.9075 418.8600 272.9200 414.1100 279.8050 C413.4450 280.5175 412.7750 281.2225 412.0350 281.8525 C409.0375 284.4025 405.9100 285.4025 402.0175 285.6625 C396.3325 286.0400 390.4825 285.7400 384.7775 285.7350 L352.3525 285.7225 L250.2275 285.7250 L157.3338 285.7325 L127.6295 285.7375 C121.7982 285.7375 115.8580 285.9775 110.0450 285.5125 C105.2128 285.1250 101.2737 283.8975 98.1053 279.9975 C92.9872 273.7000 95.4958 263.4850 96.2943 256.1025 C85.3355 256.1100 75.6478 253.2225 67.0713 246.2502 C58.2777 239.1212 52.6535 228.8095 51.4212 217.5567 C50.8627 212.0755 51.0018 206.5578 51.0038 201.0562 L51.0160 177.8330 L50.9970 151.7970 C50.9933 144.3595 50.5310 136.5997 52.0818 129.2872 C53.5340 122.4385 57.2227 115.4977 61.6620 110.1185 C69.2043 100.9792 80.8662 96.1868 92.4182 95.1038 Z M98.7740 227.1478 C100.2420 221.6340 101.6940 217.1255 106.8983 214.0695 C109.6697 212.4420 112.3310 212.0920 115.4930 211.9832 C123.1598 211.7195 130.9030 211.9415 138.5755 211.9465 L181.5660 211.9555 L313.5750 211.9590 L370.4825 211.9530 L387.6425 211.9388 C392.1275 211.9373 397.3350 211.4450 401.6750 212.6438 C405.8800 213.8060 408.6725 216.5587 411.0625 220.0468 C412.1775 222.3780 412.6900 224.8212 413.2525 227.3297 C418.7675 226.3905 424.9525 225.5290 428.5250 220.6792 C429.9200 218.7855 430.6925 216.5890 430.9275 214.2583 C431.3825 209.7247 431.0250 204.9060 431.0125 200.3370 L431.0100 174.3135 L431.0200 149.5043 C431.0200 145.1503 431.4600 140.2795 430.7225 135.9993 C430.1175 132.4870 427.9450 129.1537 424.9625 127.2180 C422.5700 125.6653 420.2150 125.1025 417.4175 125.0072 C409.3300 124.7322 401.1600 124.9563 393.0650 124.9617 L347.7800 124.9755 L209.1285 124.9780 L130.4243 124.9750 L106.3185 124.9530 C102.1143 124.9482 97.6490 124.6348 93.4765 125.0915 C89.4545 125.6875 86.1435 127.1418 83.6755 130.5403 C82.0967 132.7140 81.5150 134.8935 81.2375 137.5245 C80.6730 142.8785 81.0392 148.5790 81.0400 153.9713 L81.0505 183.9812 L81.0455 204.6402 C81.0443 208.2202 80.6680 212.2238 81.3058 215.7343 C81.9110 219.0650 84.1350 222.1570 86.9695 223.9668 C90.4358 226.1800 94.7550 226.8047 98.7740 227.1478 Z M126.4970 256.1475 L128.5782 256.0100 L293.1325 255.9625 L353.1000 255.9650 C363.8900 255.9650 374.7975 255.6325 385.5700 256.0625 L385.5350 255.7900 C385.2300 253.2850 385.3975 243.0522 383.9950 241.6337 L383.6925 241.6248 C372.7700 242.0135 361.7825 241.7762 350.8525 241.7760 L294.2800 241.7753 L127.8303 241.7722 C126.8432 246.5650 127.2195 251.3650 126.4970 256.1475 Z"></path>
<path id="" fill="#9966cc" fill-opacity="1.0" stroke="#000000" stroke-width="0.0" stroke-opacity="1.0" stroke-linecap="round" stroke-linejoin="round"  filling="0" d="M332.9150 153.1093 C333.0025 153.1010 333.0925 153.0912 333.1800 153.0850 C339.7150 152.6230 348.8200 152.7657 353.9225 157.4783 C356.6475 159.9940 358.8400 164.3425 358.8650 168.0762 C358.8925 172.0027 357.0475 175.9388 354.2950 178.6795 C350.3550 182.6035 346.2575 183.0560 341.0050 183.0555 C334.4675 183.1013 325.5450 184.3882 320.0950 180.0302 C316.9525 177.5182 314.5325 173.3250 314.1850 169.2943 C313.8625 165.5400 315.4025 161.5493 317.8525 158.7295 C321.8175 154.1642 327.2300 153.4702 332.9150 153.1093 Z"></path>
<path id="" fill="#9966cc" fill-opacity="1.0" stroke="#000000" stroke-width="0.0" stroke-opacity="1.0" stroke-linecap="round" stroke-linejoin="round"  filling="0" d="M390.9425 153.1087 C391.0750 153.0992 391.2075 153.0867 391.3400 153.0800 C398.1475 152.7405 406.9025 152.4362 412.1550 157.4145 C415.0375 160.1480 417.1450 163.8082 417.1925 167.8635 C417.2375 171.7765 415.7400 175.9445 412.9625 178.7270 C409.2300 182.4653 405.1050 183.0822 400.0300 183.0535 C393.0700 183.0660 383.8425 184.4815 378.2250 179.7610 C375.1800 177.2545 373.2850 173.6203 372.9700 169.6900 C372.6325 165.4382 374.0375 161.6687 376.8150 158.4883 C380.7600 153.9738 385.2925 153.5168 390.9425 153.1087 Z"></path>
<path id="" fill="#9966cc" fill-opacity="1.0" stroke="#000000" stroke-width="0.0" stroke-opacity="1.0" stroke-linecap="round" stroke-linejoin="round"  filling="0" d="M210.3347 300.0400 C213.9978 299.8275 217.1772 300.2350 220.3665 302.2350 C223.8638 304.4300 226.5883 307.9100 227.4645 311.9825 C228.5872 317.2000 227.6725 322.6675 227.3015 327.9175 C225.5545 352.6275 219.8860 376.7600 206.2173 397.7200 C201.7137 404.6250 193.9902 414.9850 185.5485 416.7575 C181.8420 417.3450 177.5755 416.4950 174.4150 414.4525 C171.2700 412.4200 169.2005 409.2100 168.3882 405.5800 C166.2043 395.8200 173.0600 391.0650 178.6387 384.6600 C180.7705 382.2125 182.5542 379.3975 184.1580 376.5825 C192.9195 361.2100 196.1557 343.6000 197.5695 326.1725 C197.9475 321.5100 197.4897 315.7850 198.3590 311.3850 C198.7032 309.6350 199.3850 307.9700 200.3658 306.4825 C202.7375 302.8650 206.1788 300.8925 210.3347 300.0400 Z"></path>
<path id="" fill="#9966cc" fill-opacity="1.0" stroke="#000000" stroke-width="0.0" stroke-opacity="1.0" stroke-linecap="round" stroke-linejoin="round"  filling="0" d="M297.1150 300.0625 C299.8400 299.7600 303.5275 300.0525 305.9400 301.4375 C308.0075 302.6225 309.8750 304.0525 311.3175 305.9675 C312.6575 307.7475 313.4150 309.6650 313.8075 311.8450 C314.5300 315.8475 314.2400 321.4375 314.5300 325.6975 C315.3450 337.6550 317.0325 349.8425 320.9550 361.2200 C323.4225 368.3725 326.7600 375.6050 331.1300 381.7950 C335.0825 387.3950 341.9175 391.7500 343.7225 398.6675 C344.7050 402.4325 343.7325 407.1875 341.6725 410.4400 C339.3575 414.0925 335.8050 415.7825 331.7625 416.7400 C327.3900 417.3950 323.4225 416.2175 319.8400 413.7300 C316.4775 411.3950 313.9150 408.1025 311.3450 404.9650 C298.5175 389.2900 291.1125 370.2300 287.5050 350.4075 C285.9575 341.8950 283.2200 321.2125 284.4075 313.1700 C284.7650 310.6275 285.7225 308.2075 287.2050 306.1125 C289.6375 302.6575 292.9825 300.7775 297.1150 300.0625 Z"></path>
<path id="" fill="#9966cc" fill-opacity="1.0" stroke="#000000" stroke-width="0.0" stroke-opacity="1.0" stroke-linecap="round" stroke-linejoin="round"  filling="0" d="M138.3087 300.0450 C142.1803 299.8225 145.6853 300.2250 149.0145 302.3525 C152.4510 304.5500 154.6905 307.9200 155.5155 311.8925 C157.4088 321.0125 145.7115 342.8825 140.5038 350.7675 C137.0237 356.0350 133.0188 361.2150 128.7162 365.8350 C121.9003 373.1550 107.3845 385.7400 97.5525 387.7400 C94.1900 388.2450 90.5255 387.6175 87.5775 385.9050 C83.5210 383.5475 81.4465 379.9800 80.4133 375.5000 C79.5258 371.6500 80.7385 367.5850 83.1125 364.5000 C86.1133 360.6050 90.7560 358.5575 94.7267 355.8300 C99.2923 352.6925 103.7095 349.0575 107.3915 344.9150 C114.3838 337.1950 119.9212 328.2725 123.7368 318.5775 C125.3018 314.5375 126.2603 309.8425 128.6645 306.2125 C130.9645 302.7375 134.3212 300.8575 138.3087 300.0450 Z"></path>
<path id="" fill="#9966cc" fill-opacity="1.0" stroke="#000000" stroke-width="0.0" stroke-opacity="1.0" stroke-linecap="round" stroke-linejoin="round"  filling="0" d="M369.0875 300.0650 C374.2900 299.2950 379.5125 301.3325 382.8200 305.4225 C386.0250 309.3775 386.7425 314.7075 388.6075 319.3300 C393.0175 330.2625 400.2425 341.3575 408.9975 349.3200 C413.3100 353.2425 418.0050 356.4475 422.9500 359.5000 C427.1800 362.1125 430.4375 365.0500 431.5950 370.1350 C432.4675 373.9625 431.4300 378.0575 429.3350 381.3250 C427.0500 384.8900 423.6525 386.8175 419.6075 387.7250 C412.6975 388.7400 407.0500 384.9275 401.5900 381.2400 C383.4375 368.9850 369.8300 351.5400 361.3000 331.4575 C359.4075 327.0050 357.2750 321.8450 356.4025 317.0950 C355.7150 313.3450 356.9250 309.0525 359.1275 305.9600 C361.5550 302.5550 365.0450 300.7725 369.0875 300.0650 Z"></path>
</svg>