<svg xmlns="http://www.w3.org/2000/svg" viewBox="0 0 512 512" height="512.0px" width="512.0px">
<path id="" fill="#4d5166" fill-opacity="1.0" stroke="#000000" stroke-width="0.0" stroke-opacity="1.0" stroke-linecap="round" stroke-linejoin="round"  filling="0" d="M268.4750 51.3537 C278.8725 50.5925 290.4475 52.3783 300.4200 55.4250 C323.2600 62.4020 343.8575 78.3135 355.0350 99.5753 C356.4275 102.2263 362.7075 115.2425 361.9525 117.6783 L361.4200 117.6295 C359.2875 116.0635 356.6625 115.5632 354.2350 114.5780 C344.6225 110.6803 334.9525 107.0835 325.2725 103.3665 L303.4225 94.8440 C299.8025 93.4323 296.2175 91.8465 292.5200 90.6517 C288.9625 89.4945 285.0875 89.8362 281.7900 91.5980 C278.9075 93.1202 276.6000 95.3702 275.6500 98.5488 C274.6825 101.7875 274.6500 105.3880 274.4525 108.7448 C273.9675 117.0180 273.9975 125.2613 274.0000 133.5445 C273.6600 183.2298 282.2500 232.5720 299.3650 279.2175 C301.8625 285.9600 304.3975 292.7700 307.2225 299.3800 C310.9325 308.0550 315.0725 316.5550 318.7700 325.2350 C322.3175 333.5625 326.0025 341.8450 329.4050 350.2350 C331.8975 356.3750 334.0550 362.9975 337.1925 368.8225 C339.5575 370.3575 347.4300 372.9850 350.5050 374.2325 C357.1900 376.9425 363.7025 379.8975 370.2225 382.9875 C397.4500 395.8850 424.9550 415.3775 445.0150 437.8750 C448.4825 441.7625 452.2875 445.5550 454.6625 450.2475 C442.5800 453.3200 429.9875 455.1375 417.6250 456.6725 C395.2100 459.6725 372.6075 461.0425 349.9950 460.7750 C329.4275 460.6450 304.9650 458.3825 284.6100 455.1900 C265.7525 452.2350 247.1345 447.9450 228.2865 444.9600 C212.3835 442.5425 196.3602 440.9925 180.2885 440.3175 C151.3618 438.9775 122.3730 440.1775 93.6562 443.9075 C85.3887 444.9650 77.1557 446.2775 68.9695 447.8425 C65.5358 448.4700 61.5432 449.9150 58.0797 449.8400 C57.8118 449.2775 57.8585 448.9950 58.0985 448.4100 C59.3945 445.2575 63.3513 442.2450 65.5757 439.6500 C77.2905 425.9875 92.2835 412.2275 107.7408 402.9100 C115.3800 398.3025 123.6712 394.4625 131.8828 391.0050 C130.9073 374.9825 131.9653 358.9900 132.8658 343.0025 C134.5785 306.6275 140.7780 270.6050 151.3233 235.7525 C155.2733 223.0435 160.0430 210.6500 164.8300 198.2413 L187.4393 140.9270 C190.2608 133.7343 193.2142 126.5867 195.9685 119.3692 C201.4617 104.9742 206.4200 89.1768 216.4320 77.1503 C229.0400 62.0055 249.1138 53.1460 268.4750 51.3537 Z"></path>
<path id="" fill="#e55c64" fill-opacity="1.0" stroke="#000000" stroke-width="0.0" stroke-opacity="1.0" stroke-linecap="round" stroke-linejoin="round"  filling="0" d="M328.9725 315.7075 C329.5775 316.0700 329.7575 316.6075 330.0275 317.2175 C334.4325 327.1075 337.9800 337.5325 341.8325 347.6625 C344.8525 355.6025 348.2975 363.4900 351.0800 371.5025 L312.8550 385.1700 C305.9300 387.6075 299.0550 390.1825 292.0275 392.3125 C265.8925 400.2250 238.9540 405.1750 211.7153 407.0725 C201.6333 407.8275 191.5488 408.3525 181.4290 407.9275 C176.6447 407.7250 172.0290 406.4950 167.2790 406.1350 C164.1927 405.9025 161.0900 405.9350 158.0045 405.7025 C148.0652 404.8925 138.1600 403.7075 128.3105 402.1500 C123.9360 401.4800 119.0010 399.7225 114.5943 400.0325 C113.0522 400.1425 111.4232 400.6525 109.9283 401.0400 C110.1032 396.4225 111.1938 392.2850 112.1970 387.8125 C113.5688 381.7000 115.0688 375.6475 116.5960 369.5750 C118.8282 360.6950 120.8160 351.7425 122.8822 342.8250 C127.4417 343.6075 132.0715 344.0075 136.6145 344.8325 C148.9388 347.0675 161.1942 349.8075 173.7052 350.8750 C179.2583 351.3475 184.8955 351.2475 190.4645 351.2675 C198.2010 351.2925 206.1115 351.5300 213.8280 350.9425 C236.2912 349.2300 262.9925 343.5925 284.3725 336.5125 C288.2050 335.2425 292.0975 334.0275 295.8300 332.4850 C299.8425 330.8275 304.0925 329.0950 307.9300 327.0700 C310.4075 325.7625 312.7575 324.2150 315.2425 322.9225 C317.1850 321.9150 319.2000 321.0525 321.1350 320.0250 C323.7725 318.6200 326.2825 317.0250 328.9725 315.7075 Z"></path>
<path id="" fill="#e5bf66" fill-opacity="1.0" stroke="#000000" stroke-width="0.0" stroke-opacity="1.0" stroke-linecap="round" stroke-linejoin="round"  filling="0" d="M246.9023 326.4025 C247.0000 326.3900 247.0975 326.3725 247.1958 326.3625 C251.8300 325.8325 257.0875 325.5175 260.9450 328.5325 C262.6825 329.8875 264.4975 332.0500 265.2975 334.1000 C265.8925 335.6275 266.0725 337.6450 266.3500 339.2675 C267.3600 345.1875 268.0050 351.1300 268.7025 357.0900 C270.1300 368.3125 271.4425 379.5475 272.6475 390.7950 C273.0425 394.5025 272.9675 396.6625 270.5100 399.6575 C268.6350 401.9425 266.5625 403.8575 263.7125 404.8225 C259.5300 406.2350 254.6325 406.4025 250.2525 406.9225 L232.6263 409.0725 L206.1382 412.2775 C199.3367 413.1475 192.5160 414.1525 185.6905 414.8100 C184.7160 414.9975 183.7140 415.1050 182.7290 415.2325 C178.5728 415.7650 174.9933 415.4500 171.5717 412.7150 C170.2578 411.6650 168.3837 409.8825 167.6985 408.3575 C165.9297 404.4175 165.8537 400.0925 165.2858 395.8775 C164.3658 389.0475 163.6483 382.2000 162.8585 375.3525 L161.1953 359.6150 C160.7210 355.0350 159.5480 349.4650 160.4540 344.9175 C160.8197 343.0825 161.8555 341.3325 163.0193 339.8925 C164.6767 337.8425 166.7440 336.5000 169.2812 335.8075 C172.6293 334.8925 176.4823 334.7500 179.9303 334.3375 L199.7292 331.9825 C215.4620 330.2125 231.1452 327.9875 246.9023 326.4025 Z M185.7925 356.2200 C185.5152 357.2900 185.2800 358.3075 185.2722 359.4200 C185.2435 363.5325 187.5185 390.4600 188.9115 392.8825 C190.0462 393.2700 191.3927 393.1475 192.5840 393.1625 C201.5152 392.9400 210.3228 391.4100 219.1893 390.4150 L235.0952 388.5450 C237.7977 388.2300 240.6065 388.1025 243.2745 387.5800 C244.9125 387.2600 246.5002 386.8025 247.9357 385.9325 C248.2830 385.0600 248.2502 384.1650 248.2097 383.2375 C247.9715 377.7950 247.1082 372.4100 246.6215 366.9900 C246.2615 362.9775 246.3158 358.8750 245.8555 354.8925 C245.7518 353.9925 245.5527 353.0900 245.2128 352.2500 C244.8797 351.4300 244.4050 350.5950 243.5840 350.1800 C242.9557 349.8625 242.0582 350.0325 241.3805 350.0975 C229.5985 351.8450 217.6700 353.0675 205.8235 354.3050 C202.1992 354.6850 198.6025 355.3075 194.9803 355.7025 C191.9395 356.0325 188.8480 356.0950 185.7925 356.2200 Z"></path>
<path id="" fill="#973d42" fill-opacity="1.0" stroke="#000000" stroke-width="0.0" stroke-opacity="1.0" stroke-linecap="round" stroke-linejoin="round"  filling="0" d="M239.9940 347.0950 C242.1135 347.0600 243.9730 347.4375 245.5513 348.9550 C246.6673 350.0275 247.3310 351.4350 247.7570 352.9050 C248.7120 356.1950 248.7780 359.9700 249.1987 363.3800 C249.8440 368.6150 251.1100 375.2525 251.0000 380.4675 C250.9575 382.5075 250.3750 384.2150 248.8302 385.6175 C247.4895 386.8375 245.6237 387.6200 243.8650 388.0150 C239.6122 388.9725 235.3078 388.8425 231.0115 389.3650 C220.8450 390.6025 210.7825 392.1950 200.5473 392.8450 C198.2885 392.9900 196.0865 393.3500 193.8125 393.2550 C191.5797 393.3450 189.2880 393.1475 187.0825 392.8000 C185.5737 391.3950 184.9070 389.9000 184.4875 387.9000 C183.7325 384.3025 183.8810 380.3950 183.5500 376.7225 C183.1920 372.7500 180.5390 359.7650 182.6703 356.7675 C183.6523 355.3850 185.3622 354.2575 186.9735 353.7750 C192.0103 352.2750 198.4500 352.1950 203.7395 351.5700 C215.8345 350.1625 227.9198 348.6700 239.9940 347.0950 Z"></path>
<path id="" fill="#e5bf67" fill-opacity="1.0" stroke="#000000" stroke-width="0.0" stroke-opacity="1.0" stroke-linecap="round" stroke-linejoin="round"  filling="0" d="M149.3132 225.3808 C151.3732 226.8465 153.5948 234.7863 155.3347 237.6595 C157.7982 241.7278 161.2950 245.5460 164.9625 248.5688 C168.8078 251.7375 172.9485 253.5250 177.5723 255.2375 C179.0177 255.7725 180.8452 256.1950 182.1390 256.9925 C182.5807 257.2650 182.4413 257.1025 182.5695 257.6175 C178.8090 259.6900 174.3322 260.5400 170.4818 262.5875 C159.0715 268.6550 153.7875 278.2475 150.1955 290.1800 C149.9758 290.5975 150.1373 290.4075 149.6602 290.6975 C148.3970 289.8500 147.6230 285.7725 147.0660 284.2225 C145.3845 279.5400 142.6198 274.7825 139.3947 270.9975 C135.7323 266.6975 131.4910 263.5400 126.3430 261.2175 C123.8300 260.0850 119.6205 259.2425 117.7217 257.2475 C118.0302 256.1800 123.0595 254.7375 124.2953 254.2225 C133.9760 250.2075 141.3040 243.8880 145.6938 234.2235 C146.9772 231.3983 147.6560 227.9895 149.3132 225.3808 Z"></path>
<path id="" fill="#e6c067" fill-opacity="1.0" stroke="#000000" stroke-width="0.0" stroke-opacity="1.0" stroke-linecap="round" stroke-linejoin="round"  filling="0" d="M382.0925 145.3570 C383.3050 146.0247 386.6000 155.2095 387.6725 157.1678 C389.1150 159.7990 390.9150 162.4205 393.0100 164.5768 C396.1975 167.8593 400.0575 170.7085 404.0475 172.9350 C405.9325 173.9877 413.6275 176.5927 414.1575 177.0802 C414.3400 177.2475 414.4375 177.4868 414.5800 177.6900 L414.4250 177.2675 C414.5925 177.4397 414.5250 177.3320 414.6025 177.6070 C413.1950 179.2540 408.0625 180.3075 405.8975 181.3615 C392.7250 187.7728 387.7650 195.6902 383.1125 209.1763 C382.7300 209.3155 382.5175 209.3387 382.1175 209.3575 C381.3600 208.8358 379.4025 202.9297 378.9075 201.8098 C374.5900 192.0383 368.0225 185.4435 358.2725 181.0880 C356.2175 180.1703 354.0075 179.7045 351.9850 178.7988 C351.3400 178.5103 351.1750 178.2590 350.9050 177.6290 C351.0450 177.1147 351.0500 176.9583 351.5150 176.6443 C353.2625 175.4640 356.1475 174.9050 358.1550 174.1378 C359.5075 173.6210 360.7925 172.9212 362.0500 172.2112 C369.7500 167.8670 375.4300 161.3253 378.9150 153.2010 C380.0225 150.6245 380.7075 147.7982 382.0925 145.3570 Z"></path>
<path id="" fill="#e6c067" fill-opacity="1.0" stroke="#000000" stroke-width="0.0" stroke-opacity="1.0" stroke-linecap="round" stroke-linejoin="round"  filling="0" d="M96.0608 119.3365 C97.0195 119.9312 97.5742 120.9642 98.0315 121.9685 C99.7148 125.6678 100.9142 129.7292 103.2225 133.1107 C105.5902 136.5793 109.1038 140.3865 112.5235 142.8678 C114.2558 144.1245 116.1363 145.2820 118.0265 146.2843 C119.9005 147.2780 125.4803 149.1460 126.4557 150.6958 C126.3995 151.3548 126.2263 151.7380 125.6545 152.1180 C124.1573 153.1127 122.1113 153.7625 120.4608 154.4978 C116.6380 156.2005 113.3272 158.3112 110.1492 161.0462 C106.5215 164.1212 103.5485 167.8938 101.4068 172.1400 C99.9360 175.0255 98.6085 180.7080 96.3452 182.7080 C94.4525 180.6413 93.1035 175.4805 91.8322 172.7850 C90.1885 169.2995 87.9352 166.3757 85.2480 163.6340 C82.5553 160.8865 79.5975 158.1420 76.2070 156.2675 C73.1192 154.5603 68.2372 153.8200 65.9333 151.1985 C65.8378 150.6060 65.7093 150.4592 66.1957 150.0190 C67.5717 148.7735 70.7125 148.1605 72.4575 147.3237 C75.0007 146.1042 77.5627 144.6938 79.8517 143.0477 C85.3940 139.0625 90.1302 133.4637 92.7827 127.1537 C93.8710 124.5652 94.6455 121.7690 96.0608 119.3365 Z"></path>
<path id="" fill="#e6c067" fill-opacity="1.0" stroke="#000000" stroke-width="0.0" stroke-opacity="1.0" stroke-linecap="round" stroke-linejoin="round"  filling="0" d="M401.9350 272.3325 C402.6850 272.6025 403.1075 273.2075 403.5075 273.8675 C404.3925 275.3275 404.8700 277.1025 405.4925 278.6925 C406.4075 281.0250 407.5450 283.3450 408.8675 285.4725 C412.7200 291.6625 418.8775 296.8525 425.4150 299.9800 C427.6575 301.0500 430.5225 301.8600 432.3725 303.5225 C432.3875 304.2500 432.2150 304.6300 431.6325 305.0950 C430.1025 306.3200 427.3725 306.9925 425.5650 307.8425 C422.2700 309.3875 419.1750 311.4275 416.3400 313.7050 C411.6600 317.4600 408.0325 322.7975 405.7950 328.3350 C404.8725 330.6200 404.0600 333.8600 402.3750 335.6425 C400.6900 334.6675 398.5175 326.9925 397.4050 324.7625 C396.5650 323.0750 395.3850 321.4575 394.2125 319.9850 C390.5775 315.4200 386.1075 311.2475 380.8375 308.6850 C377.9500 307.2800 374.0675 306.3350 371.7925 304.0175 C371.6600 303.4425 371.6425 303.4300 372.1475 303.0150 C373.3650 302.0175 375.4425 301.6325 376.8800 301.0000 C379.8925 299.6800 382.9200 298.1150 385.6125 296.2175 C391.0550 292.3850 396.2175 286.1800 398.7925 280.0250 C399.8775 277.4350 400.4350 274.7450 401.9350 272.3325 Z"></path>
<path id="" fill="#2e303d" fill-opacity="1.0" stroke="#000000" stroke-width="0.0" stroke-opacity="1.0" stroke-linecap="round" stroke-linejoin="round"  filling="0" d="M197.0875 366.0775 C199.8438 365.7500 204.4965 365.4125 206.8873 366.8875 C208.1682 367.6800 208.9538 369.0125 209.2155 370.4775 C209.5470 372.3325 209.1613 374.4300 207.9902 375.9300 C206.8585 377.3800 205.1275 378.1950 203.3958 378.6850 C200.0703 379.6225 196.0145 379.5750 192.5623 379.9925 C189.8147 380.3250 187.1030 380.8450 184.3630 381.2175 C179.2832 381.9075 174.1543 382.3850 169.0587 382.9450 C166.9447 383.1850 164.7572 383.7900 162.6302 383.6225 C160.2980 383.4400 158.7448 382.3200 157.2435 380.6225 C156.8205 378.4675 156.3667 374.8900 157.5745 372.9400 C158.3427 371.7000 161.0355 370.0325 162.4467 369.6675 C165.1805 368.9650 168.3392 369.2750 171.1540 368.9900 C179.8070 368.1125 188.4905 367.4450 197.0875 366.0775 Z"></path>
</svg>