<svg xmlns="http://www.w3.org/2000/svg" viewBox="0 0 512 512" height="512.0px" width="512.0px">
<path id="" fill="#4d5166" fill-opacity="1.0" stroke="#000000" stroke-width="0.0" stroke-opacity="1.0" stroke-linecap="round" stroke-linejoin="round"  filling="0" d="M343.4575 51.3528 C358.6450 49.4552 378.5675 59.2617 390.8775 67.6357 C394.8950 70.3685 398.5950 74.0675 402.8250 76.3978 C407.0150 78.7063 412.3075 79.3002 416.8150 81.0092 C428.6775 85.5070 438.6200 91.7185 448.0550 100.1497 C450.0875 101.9660 452.9800 104.2128 454.0200 106.7965 C454.3650 107.6510 454.2425 108.1080 453.9025 108.9375 C453.7550 109.0168 453.6225 109.1415 453.4575 109.1747 C453.0175 109.2640 446.4200 107.3450 445.3450 107.0902 C442.3000 106.3635 439.2225 105.7780 436.1225 105.3355 C424.7150 103.7747 412.8325 105.0247 401.4925 106.6107 C396.7850 107.2693 390.7175 107.5850 386.8450 110.5860 C384.2500 112.5977 380.9925 115.7278 380.3650 119.0510 C379.3100 124.6565 381.5450 136.1552 382.1350 142.2640 L386.1750 185.4235 C387.7725 201.8082 390.2025 218.3910 388.1500 234.8318 C385.7575 253.9775 380.1575 271.2350 370.7250 288.0525 C367.2600 294.2300 363.5350 300.1250 358.9800 305.5675 C357.1200 307.7875 355.2300 310.3925 353.0950 312.3300 C348.5125 316.4900 343.2600 320.2500 338.0100 323.5200 C335.6875 324.9700 332.9900 326.1400 330.8625 327.8550 C330.7625 327.9350 330.6675 328.0200 330.5675 328.1025 C326.7100 331.3025 321.1600 363.5650 315.0425 371.3525 C312.7600 374.2575 309.0400 376.0150 305.3975 376.4100 C301.2075 376.8625 296.4850 375.5950 293.2575 372.8700 C287.0175 367.6000 287.0800 358.5500 286.5550 351.0800 C286.2225 346.3300 285.9675 341.5800 285.5500 336.8375 C280.9100 337.1625 268.3875 337.5275 264.1000 336.7375 C262.8425 339.7300 262.0475 342.9775 261.1125 346.0825 C259.5875 351.1400 258.0875 356.2075 256.6125 361.2800 C255.3950 365.5550 254.3325 369.9975 252.2375 373.9500 C250.9875 376.3075 249.2005 378.5150 247.0970 380.1650 C244.0963 382.5175 240.4000 383.1800 236.6938 382.6775 C232.5332 382.1275 228.7628 379.9450 226.2153 376.6100 C224.8723 374.9625 224.1455 373.1375 223.5935 371.1125 C222.5343 367.2250 222.2552 362.9425 221.8215 358.9375 C221.0668 351.9700 220.3670 344.9725 220.0712 337.9700 C212.8853 338.3350 205.7880 338.4950 198.6062 339.1275 C173.7190 341.5400 149.0615 345.9150 124.8635 352.2125 C111.4822 355.7350 98.3910 360.2675 85.1042 364.1100 C84.3723 364.3225 83.5095 364.4575 82.8230 364.0725 L82.9442 363.8225 L82.8383 363.5250 L83.1220 363.6025 C86.4268 359.4550 89.9398 355.7550 93.5107 351.8550 C95.0330 350.1925 96.3763 348.3775 97.8828 346.7025 C99.7292 344.6500 101.7125 342.7175 103.5827 340.6850 C134.7272 307.3300 168.7330 276.7700 205.2103 249.3492 C216.7140 240.9120 228.4710 232.8255 240.4653 225.1010 C246.2415 221.3580 252.1450 217.7708 257.9925 214.1393 C266.4700 208.8763 274.4750 204.1745 280.6275 196.0695 C283.6125 192.1365 285.7475 187.8525 287.2975 183.1700 C289.8100 175.5835 290.9400 167.4117 292.0900 159.5255 C294.5325 142.7522 295.7850 125.9775 297.4600 109.1237 C298.2500 101.1512 298.6275 92.6715 300.9650 84.9803 C302.7475 79.1155 305.8275 73.5908 309.6500 68.8062 C318.1050 58.2220 330.1975 52.8123 343.4575 51.3528 Z"></path>
<path id="" fill="#737a99" fill-opacity="1.0" stroke="#000000" stroke-width="0.0" stroke-opacity="1.0" stroke-linecap="round" stroke-linejoin="round"  filling="0" d="M162.9480 281.5500 L162.8230 281.1800 C160.4370 280.5050 118.6700 289.5650 111.7712 290.5800 C110.1805 290.8150 107.3850 291.4775 106.0625 290.4925 C106.0595 289.5100 106.4210 288.7200 106.8532 287.8575 C108.9950 283.5825 111.9990 279.5250 114.5283 275.4550 C118.6947 268.7525 122.6135 261.9775 127.0658 255.4425 C129.3410 252.1725 131.7030 248.9633 134.1492 245.8185 C135.9973 243.4250 138.1390 241.3145 140.1540 239.0680 C142.1400 236.8537 143.9427 234.4837 146.0355 232.3633 C147.9400 230.4337 150.0558 228.7415 152.1062 226.9733 C158.3172 221.6172 164.5585 216.8022 171.4397 212.3212 C178.2845 207.8642 185.9285 204.4332 193.2677 200.8548 C200.2010 197.4745 207.3587 194.5502 214.3358 191.2650 C234.7328 181.4635 255.2300 171.8737 275.8250 162.4973 C279.1800 160.9800 288.9650 155.9670 291.9425 155.7085 C292.4675 155.6628 292.5525 155.6665 292.9775 155.9953 C293.8225 162.2970 289.3125 182.0002 286.7275 188.3728 C284.5950 193.6295 280.8525 199.0853 276.4950 202.7440 C272.9850 205.6905 268.7450 207.4490 265.0500 210.1070 C262.5450 211.9090 260.3400 214.0948 257.8050 215.8613 C251.9675 219.9260 245.8898 223.4905 239.9142 227.3165 C234.3763 230.8622 228.9920 234.6490 223.5233 238.2953 C215.7950 243.4480 207.8392 248.3927 200.2827 253.7950 C197.6170 255.7000 195.1755 257.9800 192.6353 260.0525 C189.5145 262.6000 186.2538 264.9675 183.1920 267.5925 C179.6220 270.6550 171.6638 278.5775 168.0193 280.1025 C167.1090 281.0025 165.7600 282.7675 164.4032 282.8175 C164.0130 282.8325 163.7465 282.6650 163.4645 282.3975 C163.2702 282.2150 163.0685 281.7700 162.9480 281.5500 Z"></path>
<path id="" fill="rgb(244,242,248)" fill-opacity="1.0" stroke="#000000" stroke-width="0.0" stroke-opacity="1.0" stroke-linecap="round" stroke-linejoin="round"  filling="0" d="M162.9480 281.5500 L163.3087 280.9325 C164.7142 280.4000 166.5115 279.9975 168.0193 280.1025 C167.1090 281.0025 165.7600 282.7675 164.4032 282.8175 C164.0130 282.8325 163.7465 282.6650 163.4645 282.3975 C163.2702 282.2150 163.0685 281.7700 162.9480 281.5500 Z"></path>
<path id="" fill="#3c3f50" fill-opacity="1.0" stroke="#000000" stroke-width="0.0" stroke-opacity="1.0" stroke-linecap="round" stroke-linejoin="round"  filling="0" d="M107.9380 356.6425 C111.5520 354.6375 116.6243 353.9800 120.6633 352.9400 C134.6580 349.1850 148.7895 345.9575 163.0270 343.2650 C170.1130 341.9900 177.3365 341.1850 184.4680 340.1750 C187.8503 339.6950 194.4570 338.0575 197.5533 338.9875 C198.1055 339.1550 198.0740 339.2125 198.4215 339.6150 C198.3622 340.4950 197.8425 341.0075 197.2137 341.5750 C194.7150 343.8325 191.4010 345.6375 188.5750 347.4725 L169.8720 359.4625 L119.1545 392.2925 C112.7900 396.3675 106.5902 400.6600 100.1335 404.6025 C98.4915 405.6075 96.5155 407.0875 94.5837 407.2950 C94.1570 406.9925 94.2845 407.1900 94.1890 406.6025 C93.6610 403.3600 94.8378 392.5500 95.6663 389.3900 C90.1292 390.8450 84.4550 391.8950 78.8935 393.3150 C73.3568 394.7300 67.7150 396.6475 62.0970 397.6275 C61.2630 397.7725 60.6252 397.8500 59.8022 397.5875 C59.6005 397.0450 59.5725 396.7225 59.8347 396.1775 C60.7133 394.3500 65.6308 391.3275 67.3890 389.9725 L92.9433 370.5100 C95.5658 368.5125 100.7160 365.1100 102.7880 363.1175 C103.2175 362.7050 103.4163 362.3025 103.5625 361.7350 L103.2357 360.9600 C103.2322 360.2850 103.2712 359.6600 103.3515 358.9900 C104.3495 357.3425 106.2005 357.1550 107.9380 356.6425 Z"></path>
<path id="" fill="#fbfcfc" fill-opacity="1.0" stroke="#000000" stroke-width="0.0" stroke-opacity="1.0" stroke-linecap="round" stroke-linejoin="round"  filling="0" d="M107.9380 356.6425 C109.6512 356.2550 111.3225 355.7600 113.0045 355.2550 C111.6152 356.4325 105.3992 361.7775 103.9798 361.7875 C103.7420 361.5050 103.5200 361.1950 103.2357 360.9600 C103.2322 360.2850 103.2712 359.6600 103.3515 358.9900 C104.3495 357.3425 106.2005 357.1550 107.9380 356.6425 Z"></path>
<path id="" fill="#e55c64" fill-opacity="1.0" stroke="#000000" stroke-width="0.0" stroke-opacity="1.0" stroke-linecap="round" stroke-linejoin="round"  filling="0" d="M297.0000 374.9175 C302.1575 376.0475 304.8275 376.0300 309.9750 374.9875 C311.6300 386.5575 313.3675 398.1175 315.1925 409.6625 C316.1625 416.0525 316.9575 422.5350 318.2775 428.8600 C324.3825 432.3500 330.3500 436.1025 336.4100 439.6725 C341.1975 442.4950 346.5625 445.2225 350.9475 448.6375 C352.2125 449.6250 353.3750 450.6375 353.9650 452.1700 C354.5225 453.6200 354.6275 455.1900 353.9650 456.6275 C352.8200 459.1150 350.2800 460.2250 347.8675 461.1175 C343.0100 460.0650 331.7575 452.5125 327.1150 449.5625 C325.0875 448.3125 323.0750 447.0850 320.9500 446.0000 C321.1225 449.9850 323.1175 454.6325 320.4175 458.1650 C319.1900 459.7725 317.6775 460.8675 315.6275 461.0500 C309.3200 461.6050 310.7275 456.3050 307.5075 453.9275 C307.2500 453.7375 306.6475 453.4500 306.3400 453.4325 C305.7575 453.4000 299.9575 460.3950 296.0500 460.9650 C294.7225 461.1600 293.4675 460.8675 292.4050 460.0400 C291.1200 459.0400 288.9875 455.8900 288.9875 454.1350 C288.9850 449.8400 302.1000 438.6175 305.4150 434.9150 C303.7325 422.0275 301.6350 409.1650 299.6900 396.3125 C298.6200 389.2350 297.0100 382.1050 297.0000 374.9175 Z"></path>
<path id="" fill="#e65c64" fill-opacity="1.0" stroke="#000000" stroke-width="0.0" stroke-opacity="1.0" stroke-linecap="round" stroke-linejoin="round"  filling="0" d="M231.9920 381.9950 C236.1780 382.5225 240.7047 382.1725 244.9425 382.2325 C245.3922 392.4325 246.5473 402.6850 247.3273 412.8700 C247.7380 418.2350 247.3568 424.1825 248.7177 429.3775 C251.0250 431.7125 253.9275 433.0850 256.7125 434.7575 C259.8975 436.6700 263.0300 438.6750 266.2300 440.5650 C271.4375 443.6400 279.0900 446.9925 282.7425 451.7450 C282.8250 453.5825 282.8625 455.2850 282.0275 456.9850 C280.9000 459.2850 278.7225 460.3225 276.4050 461.0525 C270.2825 459.8100 258.4700 450.9925 252.3975 447.6850 C251.4975 447.0825 250.6300 446.4775 249.6452 446.0200 C249.7323 449.5425 251.2725 455.6000 248.7878 458.4225 C247.6135 459.7550 245.4498 460.9950 243.6510 461.0850 C242.2650 461.1550 241.0397 460.5875 240.0320 459.6625 C237.4153 457.2575 236.9252 454.2900 236.7793 450.9375 C235.6387 452.5300 234.2035 454.0300 232.8607 455.4575 C230.6620 457.7975 227.0060 460.9125 223.6370 460.9200 C221.9303 460.9250 220.4803 460.0425 219.3392 458.8275 C218.1967 457.6125 217.0280 456.0000 217.1962 454.2400 C217.7018 448.9500 231.2092 437.5600 235.5255 434.1750 C234.7765 427.0850 234.4828 419.9000 233.9375 412.7875 C233.1520 402.5400 232.1880 392.2725 231.9920 381.9950 Z"></path>
<path id="" fill="#8a92b8" fill-opacity="1.0" stroke="#000000" stroke-width="0.0" stroke-opacity="1.0" stroke-linecap="round" stroke-linejoin="round"  filling="0" d="M133.5762 311.8225 C137.3060 304.6550 140.0430 296.8850 143.6645 289.5900 C144.5415 287.8225 145.3800 285.6325 146.6922 284.1550 C147.1783 283.6100 147.8878 283.2825 148.5690 283.0525 C154.8087 280.9550 162.9142 281.8675 168.7950 278.6700 C171.5918 277.1525 174.3862 274.2775 176.8542 272.2300 L191.3887 260.3150 C193.7210 258.4125 195.9265 256.3550 198.3793 254.6025 C204.1438 250.4850 209.8995 246.2538 215.7910 242.3280 C219.8663 239.6125 224.1017 237.1438 228.1845 234.4385 C231.8878 231.9848 235.4160 229.2350 239.1635 226.8613 C243.3600 224.2030 247.6763 221.7915 251.8075 219.0180 C255.4075 216.6017 258.7900 213.8783 262.3850 211.4653 C266.5525 208.6685 271.0100 206.2255 274.9600 203.1207 C279.1250 199.8445 282.4400 195.4722 284.8875 190.7908 C287.8225 185.1828 290.0425 174.9700 291.0725 168.6738 C291.4325 166.4730 291.3900 162.2363 292.3375 160.3730 C293.3850 158.3185 304.2075 151.5748 306.6200 150.8290 C306.9525 150.7255 307.0750 150.7090 307.4425 150.6288 C307.9475 150.9325 307.8200 150.7272 307.9475 151.2795 C308.4300 153.3432 308.0250 156.4828 307.8150 158.6183 C307.3750 163.0915 306.5875 167.5392 306.0175 171.9987 C304.8750 181.6317 303.6375 191.2533 302.3075 200.8620 C300.9775 210.7840 300.0600 220.7955 298.5625 230.6885 C298.0500 234.0680 297.3725 237.4935 296.5050 240.7997 C294.4325 248.7137 290.8425 256.8225 286.2850 263.6375 C280.4975 272.3000 272.3150 279.6750 263.2450 284.7825 C258.5100 287.4525 253.4975 289.2000 248.4430 291.1300 C243.6367 293.0075 238.8192 294.8550 233.9908 296.6725 L181.4270 316.2150 C167.9427 321.3575 154.4205 326.4025 140.8618 331.3450 C137.0242 332.7275 131.7598 335.2675 127.9362 336.0075 C127.3662 336.1175 126.9070 336.1225 126.3365 336.0375 C125.8992 335.5875 125.8150 335.3575 125.8248 334.7175 C125.8870 330.6000 129.4467 323.0450 131.2000 319.0750 C130.8347 317.5725 128.9835 316.6925 128.7170 315.2525 C129.8830 313.7275 131.9720 312.8075 133.5762 311.8225 Z"></path>
<path id="" fill="#4e5267" fill-opacity="1.0" stroke="#000000" stroke-width="0.0" stroke-opacity="1.0" stroke-linecap="round" stroke-linejoin="round"  filling="0" d="M131.2000 319.0750 C130.8347 317.5725 128.9835 316.6925 128.7170 315.2525 C129.8830 313.7275 131.9720 312.8075 133.5762 311.8225 C133.3680 314.3075 132.1765 316.8075 131.2000 319.0750 Z"></path>
<path id="" fill="#45495b" fill-opacity="1.0" stroke="#000000" stroke-width="0.0" stroke-opacity="1.0" stroke-linecap="round" stroke-linejoin="round"  filling="0" d="M223.1543 233.0080 C224.3533 232.8882 225.5323 232.8757 226.6353 233.4173 C228.6940 234.4285 229.9628 236.2923 230.6960 238.4170 C231.5992 241.0345 231.8105 243.9973 231.9682 246.7420 C232.5705 259.2650 230.0182 271.7375 224.5457 283.0175 C223.0728 286.0700 217.8650 295.0950 215.3595 297.2325 C214.9490 297.5825 214.4495 297.7725 213.9465 297.9450 C211.8983 298.1975 210.1350 298.4150 208.1975 297.4775 C206.7725 296.7875 205.6560 295.6175 205.1440 294.1100 C204.6035 292.5175 204.7220 290.5525 205.2637 288.9750 C206.1573 286.3725 208.3598 283.9325 209.7883 281.5600 C212.4660 277.0850 214.5655 272.2875 216.0360 267.2825 C216.9515 264.2175 217.6660 260.9925 217.9075 257.7950 C218.1803 254.1850 217.4577 237.9565 218.4057 236.1745 C219.3095 234.4758 221.4128 233.5488 223.1543 233.0080 Z"></path>
<path id="" fill="#45495b" fill-opacity="1.0" stroke="#000000" stroke-width="0.0" stroke-opacity="1.0" stroke-linecap="round" stroke-linejoin="round"  filling="0" d="M189.9458 245.9905 C191.8810 245.8427 193.8510 246.0500 195.4957 247.1625 C197.2838 248.3723 198.1203 250.2925 198.5267 252.3500 C199.2000 255.7550 199.0820 259.3150 199.1003 262.7725 C199.1167 265.9350 199.3220 269.2500 199.0063 272.3950 C197.8480 283.9250 192.9355 295.9525 186.5018 305.5025 C184.9783 307.7625 183.0015 310.5625 180.1777 311.1100 C179.1105 311.2225 177.9180 311.2800 176.8622 311.0800 C175.2135 310.7650 173.6443 309.5025 172.8002 308.0800 C171.8670 306.5100 171.6893 304.5425 172.2018 302.7975 C172.9530 300.2400 175.2847 297.8950 176.7027 295.6300 C179.9775 290.3975 182.6725 284.4800 184.1160 278.4550 C185.5128 272.7000 186.1333 266.7825 185.9615 260.8625 C185.8715 257.8350 184.3763 253.7975 185.1235 250.9200 C185.6237 248.9928 188.2482 246.9187 189.9458 245.9905 Z"></path>
<path id="" fill="#45495b" fill-opacity="1.0" stroke="#000000" stroke-width="0.0" stroke-opacity="1.0" stroke-linecap="round" stroke-linejoin="round"  filling="0" d="M254.7350 220.0437 C256.7300 219.8500 258.7050 219.9677 260.4375 221.0840 C262.2175 222.2315 263.1150 224.0903 263.5825 226.0955 C264.3450 229.3655 264.0775 233.0237 264.0875 236.3720 C264.1000 239.5730 264.3050 242.8853 264.0325 246.0733 C263.0825 257.3000 258.2275 268.9450 252.2450 278.3650 C250.6975 280.8025 248.4380 284.3850 245.4402 285.0525 C244.3772 285.1975 243.2912 285.2500 242.2220 285.1350 C240.7343 284.9725 239.2515 284.0875 238.3508 282.9050 C237.1985 281.3900 236.5890 278.9075 237.1035 277.0500 C237.5555 275.4200 241.0820 270.5900 242.1640 268.8250 C248.0862 259.1600 251.6000 246.9967 250.9650 235.6105 C250.7825 232.3465 249.5347 228.1920 250.1050 225.0437 C250.4550 223.1003 253.1850 221.0898 254.7350 220.0437 Z"></path>
<path id="" fill="#e55b64" fill-opacity="1.0" stroke="#000000" stroke-width="0.0" stroke-opacity="1.0" stroke-linecap="round" stroke-linejoin="round"  filling="0" d="M346.1375 77.1673 C353.2750 76.2570 359.8100 81.2758 360.7700 88.4060 C361.7300 95.5360 356.7600 102.1057 349.6350 103.1172 C342.4400 104.1390 335.7900 99.1055 334.8200 91.9035 C333.8475 84.7012 338.9300 78.0865 346.1375 77.1673 Z"></path>
</svg>