<svg xmlns="http://www.w3.org/2000/svg" viewBox="0 0 512 512" height="512.0px" width="512.0px">
<path id="" fill="#4d5166" fill-opacity="1.0" stroke="#000000" stroke-width="0.0" stroke-opacity="1.0" stroke-linecap="round" stroke-linejoin="round"  filling="0" d="M132.7383 345.5875 C135.9393 346.6250 138.9442 350.6125 141.4953 352.7975 C144.4288 355.3100 147.3768 357.7750 150.4422 360.1275 C177.9438 381.3525 211.4187 393.4025 246.1390 394.5725 C289.1375 396.4250 328.6725 382.3375 361.9850 355.4025 C365.8550 352.2750 369.3725 348.6125 373.0400 345.2475 C374.2525 355.1075 374.8825 365.0375 375.8550 374.9225 L381.3275 427.5575 C382.0100 434.2375 382.8875 440.8975 383.5625 447.5775 C384.0025 451.9450 383.9750 456.5725 385.0825 460.8350 C381.0125 460.4800 376.7225 460.7575 372.6300 460.7600 L348.0675 460.7750 L271.5850 460.7600 L171.3783 460.7525 L138.7855 460.7500 C132.5612 460.7500 126.2582 460.5375 120.0460 460.8900 C120.1100 460.6725 120.1685 460.4525 120.2353 460.2350 C121.5027 456.1075 121.6202 451.4350 122.0575 447.1325 L123.4348 434.4975 L129.8320 374.3550 L131.7080 356.3150 C132.0395 352.7975 131.9960 349.0275 132.7383 345.5875 Z"></path>
<path id="" fill="#e2e2e1" fill-opacity="1.0" stroke="#000000" stroke-width="0.0" stroke-opacity="1.0" stroke-linecap="round" stroke-linejoin="round"  filling="0" d="M132.1687 345.3275 C64.4200 278.5100 63.9323 169.3390 131.0810 101.9195 C198.2300 34.5002 307.4025 34.5490 374.4900 102.0287 C441.5800 169.5083 440.9925 278.6800 373.1850 345.4350 C373.1575 345.4975 373.1300 345.5600 373.1050 345.6250 C372.5750 346.9725 372.9000 348.7450 372.2425 349.9250 C370.7675 350.3375 369.1850 350.1050 367.7650 350.5425 C302.3225 409.6075 202.7820 409.5100 137.4518 350.3200 C135.6237 349.6500 133.9475 349.9525 132.0517 350.1350 C132.1922 348.5475 132.1497 346.9200 132.1687 345.3275 Z"></path>
<path id="" fill="#4d5166" fill-opacity="1.0" stroke="#000000" stroke-width="0.0" stroke-opacity="1.0" stroke-linecap="round" stroke-linejoin="round"  filling="0" d="M132.1687 345.3275 C133.8943 347.0275 135.6557 348.6925 137.4518 350.3200 C135.6237 349.6500 133.9475 349.9525 132.0517 350.1350 C132.1922 348.5475 132.1497 346.9200 132.1687 345.3275 Z"></path>
<path id="" fill="#bdbec4" fill-opacity="1.0" stroke="#000000" stroke-width="0.0" stroke-opacity="1.0" stroke-linecap="round" stroke-linejoin="round"  filling="0" d="M367.7650 350.5425 C369.6100 348.8800 371.4150 347.1775 373.1850 345.4350 C373.1575 345.4975 373.1300 345.5600 373.1050 345.6250 C372.5750 346.9725 372.9000 348.7450 372.2425 349.9250 C370.7675 350.3375 369.1850 350.1050 367.7650 350.5425 Z"></path>
<path id="" fill="#e2e2e2" fill-opacity="1.0" stroke="#000000" stroke-width="0.0" stroke-opacity="1.0" stroke-linecap="round" stroke-linejoin="round"  filling="0" d="M270.5675 79.0525 C271.4525 78.9735 272.3625 78.9775 273.2500 79.0000 C277.2550 79.1013 281.2950 80.0075 285.1975 80.8578 C302.4500 84.6168 322.0900 93.4352 336.6350 103.4680 C340.1500 105.8907 343.4600 108.6535 346.7700 111.3435 C350.1925 114.1270 353.6700 116.8597 356.7050 120.0765 C364.9675 128.8358 372.7775 138.9227 378.8875 149.3013 C388.3850 165.4312 398.6175 193.6873 398.0425 212.5298 C396.5800 214.1628 395.0925 215.3772 393.2150 216.5115 C391.7000 217.1272 390.5150 217.1548 388.9775 216.5788 C387.0175 215.8432 385.2625 214.3297 384.4500 212.3732 C382.8875 208.6035 383.2475 203.8025 382.4575 199.7985 C380.3125 188.9212 377.0600 178.6785 372.6300 168.5213 C369.6200 161.6152 365.9350 154.5632 361.4175 148.5240 C359.9475 146.5603 358.1650 144.8465 356.6700 142.9012 C354.2225 139.7133 352.2825 136.2108 349.5750 133.2060 C346.8375 130.1650 343.6925 127.4435 340.6050 124.7685 C338.2225 122.7038 335.9175 120.4863 333.4375 118.5415 C327.9925 114.2672 321.2275 110.0178 315.1150 106.7465 C312.8675 105.5435 310.5125 104.6490 308.2250 103.5415 C305.7200 102.3290 303.3250 100.9145 300.7000 99.9650 C294.7350 97.8075 288.5300 95.6855 282.3550 94.2085 C278.1700 93.2080 273.4825 93.0095 269.4975 91.3640 C267.9800 90.7368 266.7850 89.9108 266.1875 88.3225 C265.4775 86.4285 265.6925 83.9190 266.5900 82.1233 C267.5175 80.2615 268.6350 79.6512 270.5675 79.0525 Z"></path>
<path id="" fill="#e2e2e2" fill-opacity="1.0" stroke="#000000" stroke-width="0.0" stroke-opacity="1.0" stroke-linecap="round" stroke-linejoin="round"  filling="0" d="M116.0143 248.9980 C117.6183 248.8922 119.2838 248.8300 120.7863 249.4905 C122.3310 250.1700 123.4850 251.4800 124.2442 252.9600 C126.3015 256.9725 127.1975 262.4900 128.6020 266.8500 C130.2502 271.9650 132.6075 276.8700 134.9102 281.7175 C137.7560 287.7100 141.2072 293.8825 145.0842 299.2550 C146.1602 300.7450 147.2693 302.2400 148.4970 303.6100 C150.6415 306.0050 154.5715 308.8425 155.6478 311.8650 C156.4045 313.9900 156.5627 316.7600 155.5117 318.8125 C154.6165 320.5625 153.2805 321.3475 151.4805 321.9750 C149.8118 322.2125 148.3013 322.0825 146.6430 321.8725 C138.5647 315.1175 132.6797 306.1125 127.2465 297.1875 C122.9090 290.0625 109.3903 261.3350 111.3685 254.1275 C112.0450 251.6625 113.8625 250.1750 116.0143 248.9980 Z"></path>
<path id="" fill="#e55b64" fill-opacity="1.0" stroke="#000000" stroke-width="0.0" stroke-opacity="1.0" stroke-linecap="round" stroke-linejoin="round"  filling="0" d="M153.3115 394.6025 C156.9885 395.5550 160.5253 397.0575 164.1107 398.3075 C170.3548 400.4875 176.6850 402.5825 183.0858 404.2525 C225.0710 415.5225 269.1650 416.4400 311.5825 406.9250 C320.1175 404.9825 328.5600 402.6600 336.8875 399.9625 C341.7850 398.3375 346.6700 395.8375 351.7275 394.8450 L352.0625 394.7800 C351.9325 398.0125 352.5325 420.4400 351.7375 421.7525 C342.7275 424.8425 333.8875 428.1475 324.7025 430.7075 C308.5225 435.1300 291.9925 438.1450 275.2925 439.7200 C271.9900 440.0125 268.6600 439.9850 265.3475 440.1700 C260.2375 440.4575 255.2525 440.9250 250.1200 440.8625 C246.6420 440.8200 243.1913 440.3300 239.7218 440.1300 C236.8540 439.9650 233.9740 439.9950 231.1107 439.7600 C217.8743 438.5550 204.7315 436.4800 191.7675 433.5475 C183.0590 431.5225 174.4630 429.0400 166.0148 426.1125 C161.9510 424.7300 157.7267 422.5100 153.5110 421.7625 C153.4200 421.7475 153.3282 421.7325 153.2368 421.7175 C153.2133 412.6975 152.9710 403.6125 153.3115 394.6025 Z"></path>
<path id="" fill="#e5c067" fill-opacity="1.0" stroke="#000000" stroke-width="0.0" stroke-opacity="1.0" stroke-linecap="round" stroke-linejoin="round"  filling="0" d="M304.2175 157.3330 C305.2625 157.9532 305.9300 158.5840 306.6175 159.5950 C310.1000 164.7307 313.6525 173.6115 316.3275 179.4657 C317.9400 182.9930 319.8700 186.3635 321.3725 189.9420 C325.0925 190.1333 354.3925 193.9688 356.5025 195.1033 C357.0150 195.3785 357.0425 195.4660 357.2125 195.9880 C356.2250 200.2092 344.9750 208.7982 341.6325 211.9510 C338.3050 215.0878 334.9725 218.3902 331.9175 221.7892 C332.2375 224.4017 332.8375 227.0225 333.2775 229.6220 C334.8875 239.1232 336.9850 249.0652 338.2250 258.5350 C331.2275 256.4475 324.3775 251.9775 317.9450 248.5002 C313.5925 246.1470 309.1325 243.9995 304.7900 241.6230 C299.3275 243.7292 275.1175 258.1325 271.7825 258.1825 C271.3850 258.1900 271.4925 258.1825 271.2300 257.8775 C271.4950 253.3950 272.5925 248.7287 273.3825 244.2970 C274.7300 236.8345 276.0100 229.3602 277.2200 221.8748 C275.1125 219.3230 272.6225 217.0497 270.2750 214.7210 C267.1875 211.6582 264.1300 208.5415 260.9225 205.6062 C258.7175 203.5920 256.3175 201.6845 254.2675 199.5210 C253.3975 198.6055 252.0525 197.1747 251.7000 195.9688 C251.5850 195.5742 251.5700 195.7233 251.7325 195.4115 C254.6675 194.0350 283.4350 190.1573 287.4875 189.9690 C291.3350 182.6662 294.8950 175.1910 298.5725 167.8008 C300.1700 164.5907 301.8450 159.9940 304.2175 157.3330 Z"></path>
<path id="" fill="#999999" fill-opacity="1.0" stroke="#000000" stroke-width="0.0" stroke-opacity="1.0" stroke-linecap="round" stroke-linejoin="round"  filling="0" d="M269.7000 79.0135 C273.1025 78.7993 277.0825 79.7267 280.4975 80.1955 C292.5025 81.8432 303.9225 86.3625 314.8650 91.3737 C317.7125 92.6785 320.6825 93.8643 323.3875 95.4520 C325.6275 96.7663 327.5050 98.6205 329.6525 100.0732 C332.9550 102.3073 336.5150 104.1647 339.7250 106.5363 C342.1250 108.3092 344.3400 110.4395 346.5675 112.4275 C355.0400 119.9857 363.3400 128.2880 370.1800 137.3750 C373.8500 142.2487 376.7550 147.5875 379.6850 152.9205 C381.3200 155.8927 382.7925 158.9200 384.3750 161.9100 C385.5875 164.1942 386.9975 166.4442 388.0075 168.8242 C389.0975 171.3940 389.8575 174.1073 390.6700 176.7742 C391.9075 180.8282 393.1925 184.8760 394.1300 189.0123 C394.8325 192.1158 395.2650 195.2465 395.8875 198.3613 C396.5875 201.8720 398.3075 206.5697 397.7275 210.0923 C397.3300 212.4990 395.8025 214.2168 393.8825 215.6035 C392.3775 216.0858 390.6800 216.3525 389.1025 216.1990 C386.2550 215.9223 384.9525 213.3627 384.1625 210.8947 C382.2875 205.0262 382.1825 198.5033 380.8200 192.4617 C376.6825 174.0972 367.9800 156.8638 356.5550 141.9848 C353.4625 137.9560 349.9800 134.4633 346.3950 130.8875 C343.6100 128.1098 340.8875 125.2217 337.9450 122.6103 C331.9925 117.3270 324.2650 111.8553 317.2125 108.0757 C304.7625 101.4030 291.6575 96.0235 277.6800 93.6028 C274.0900 92.9812 269.2900 92.7363 266.9600 89.5383 C265.8300 87.9875 265.5825 85.9352 265.9400 84.0858 C266.4000 81.6902 267.8100 80.3655 269.7000 79.0135 Z"></path>
<path id="" fill="#e5c067" fill-opacity="1.0" stroke="#000000" stroke-width="0.0" stroke-opacity="1.0" stroke-linecap="round" stroke-linejoin="round"  filling="0" d="M199.3265 248.3707 C201.8412 250.1300 209.9312 267.7950 212.0287 271.9450 C220.9182 272.4750 229.9863 274.2875 238.8143 275.5700 C236.0878 280.5250 231.3797 283.6325 227.2965 287.3425 C224.6763 289.7600 222.1735 292.3000 219.7970 294.9575 C220.1853 303.7750 223.2142 312.3850 224.0247 321.1500 L223.7120 321.3650 C220.2375 321.4325 204.0242 311.9650 199.7770 309.7375 C194.7330 311.4200 179.3370 321.9675 175.4465 321.1625 C175.0925 320.5625 175.1118 320.1250 175.1835 319.4475 C175.3220 318.1350 175.7465 316.7800 175.9765 315.4675 C177.0527 309.3225 178.9540 301.3700 179.3013 295.3250 L179.3203 294.9600 C176.8020 292.1925 174.1523 289.5475 171.3800 287.0325 C167.4350 283.4650 162.9592 280.2900 160.3143 275.5700 C164.9337 274.7300 169.6485 274.2175 174.2997 273.5675 C178.4173 272.9925 182.5925 272.2150 186.7405 271.9575 C189.6475 268.0675 193.3310 259.2625 195.7115 254.4750 C196.7337 252.4200 197.7357 250.0450 199.3265 248.3707 Z"></path>
<path id="" fill="#e5c067" fill-opacity="1.0" stroke="#000000" stroke-width="0.0" stroke-opacity="1.0" stroke-linecap="round" stroke-linejoin="round"  filling="0" d="M139.2348 163.6180 C139.7225 163.6353 140.3215 163.6243 140.7740 163.8220 C142.5202 164.5855 151.2035 183.1990 152.4275 186.1098 C160.1380 186.2657 170.9640 188.4917 178.8170 189.6718 C175.9140 194.9840 164.7300 204.4605 159.9868 209.6767 C161.7708 218.2108 163.4247 226.8497 164.3165 235.5265 C162.7982 235.2270 161.3685 234.7892 159.9433 234.1882 C157.0672 232.9753 154.3655 231.2775 151.6037 229.8245 C148.0210 227.9395 144.1345 226.2272 140.7953 223.9435 C137.2962 223.6760 120.2540 235.8983 116.2978 235.2928 C116.2570 235.2355 116.2072 235.1832 116.1755 235.1205 C115.3678 233.5247 119.3288 212.7937 120.1113 209.5895 C114.9720 204.0163 104.7700 195.6125 101.2437 189.7910 C109.8615 188.2600 118.7972 186.7080 127.5150 185.9962 C129.7003 181.5878 136.6358 166.3107 139.2348 163.6180 Z"></path>
<path id="" fill="#e6c067" fill-opacity="1.0" stroke="#000000" stroke-width="0.0" stroke-opacity="1.0" stroke-linecap="round" stroke-linejoin="round"  filling="0" d="M397.1475 245.3922 C397.5800 245.6655 397.8325 245.9492 398.0475 246.4187 C398.7175 247.8862 399.1100 249.6385 399.5975 251.1825 C400.5225 254.1075 401.5375 256.9375 402.8525 259.7100 C405.3500 264.9800 408.1575 269.4925 412.2225 273.7200 C416.3450 278.0050 421.4975 281.6500 426.8150 284.2950 C428.7175 285.2400 440.0300 289.0850 440.4725 289.7575 C439.5250 291.2475 435.4025 291.9225 433.6650 292.5250 C427.6975 294.5950 421.9775 297.3175 417.1700 301.4900 C412.1025 305.8875 407.2450 311.0925 403.9575 316.9600 C401.1950 321.8925 400.3700 327.4050 398.0900 332.4550 C397.8625 332.9600 397.6525 333.2075 397.2375 333.5575 C395.7150 332.2725 394.5375 325.6550 393.6175 323.4175 C391.0675 317.2225 387.5375 311.1000 382.8550 306.2675 C378.6675 301.9450 373.5650 298.1450 368.1600 295.4900 C365.9750 294.4175 363.6375 293.4025 361.3425 292.5975 C359.0150 291.7850 355.3975 291.6125 353.6550 289.7850 C353.6600 288.9675 354.5025 288.8875 355.2200 288.6575 C362.0075 286.4875 368.4250 284.5500 374.3050 280.3250 C382.3875 274.5200 390.2375 265.7425 393.4750 256.2450 C394.6675 252.7525 395.3225 248.5880 397.1475 245.3922 Z"></path>
<path id="" fill="#e55c64" fill-opacity="1.0" stroke="#000000" stroke-width="0.0" stroke-opacity="1.0" stroke-linecap="round" stroke-linejoin="round"  filling="0" d="M305.3375 288.3550 C306.4850 288.9900 309.3450 298.2350 310.2275 300.0000 C311.4125 302.3800 312.9175 304.7725 314.5550 306.8600 C318.8200 312.2925 324.8400 316.6975 331.2525 319.2300 C333.3275 320.0500 336.0300 320.5175 337.7125 321.9925 C337.5275 322.5075 337.0125 322.7025 336.5250 322.9150 C331.7825 324.9700 326.9150 326.2925 322.6800 329.4475 C316.3475 334.1675 311.2000 340.5100 308.4875 347.9700 C307.5725 350.4875 307.0825 353.2975 305.8675 355.6750 C304.5275 355.0675 304.0775 351.9900 303.6200 350.6400 C301.6125 344.7075 298.9400 339.7000 294.7325 335.0150 C291.0075 330.9025 286.4175 327.6675 281.2925 325.5400 C279.6075 324.8375 274.1900 323.2900 273.3800 321.9350 C273.8000 321.0725 282.0100 318.1950 283.3425 317.5850 C291.4875 313.8425 298.5700 305.8025 302.1125 297.6600 C303.4150 294.6625 304.2200 291.4300 305.3375 288.3550 Z"></path>
<path id="" fill="#e55c64" fill-opacity="1.0" stroke="#000000" stroke-width="0.0" stroke-opacity="1.0" stroke-linecap="round" stroke-linejoin="round"  filling="0" d="M232.3737 111.3030 C232.5242 111.3465 232.6803 111.3743 232.8255 111.4333 C233.9925 111.9062 236.7880 120.0143 237.6333 121.7055 C239.6625 125.7653 241.9925 128.8042 245.2323 131.9483 C251.7900 138.3125 257.8050 140.7345 266.2950 143.5340 C263.3500 144.9857 260.0450 145.8100 257.0200 147.1180 C248.7200 150.7072 241.6792 157.5517 237.5782 165.5838 C235.9760 168.7222 235.1617 172.2112 233.5253 175.3300 L233.3647 175.6315 C232.9267 175.6330 232.5892 175.6665 232.2835 175.2710 C231.3687 174.0867 230.6752 171.3448 230.0898 169.8960 C228.6487 166.3293 227.1085 163.0352 224.8062 159.9243 C220.6670 154.3313 214.5490 149.2793 207.9928 146.8105 C205.3707 145.8233 202.5125 145.2648 200.2055 143.6172 C200.1140 143.5517 200.0242 143.4843 199.9335 143.4178 C203.2982 142.0400 206.7932 141.0220 210.0830 139.4495 C218.5940 135.3392 225.3793 128.3542 229.2402 119.7272 C230.4783 117.0165 231.3880 114.1140 232.3737 111.3030 Z"></path>
<path id="" fill="#e65c64" fill-opacity="1.0" stroke="#000000" stroke-width="0.0" stroke-opacity="1.0" stroke-linecap="round" stroke-linejoin="round"  filling="0" d="M133.6030 58.3232 C134.8972 58.9715 137.8005 67.6185 138.7422 69.4323 C140.1413 72.1265 141.9075 74.9450 143.8825 77.2515 C147.7052 81.7158 153.3590 85.5235 158.7730 87.7473 C160.9608 88.6462 163.4937 89.2755 165.5135 90.4937 L165.6062 90.9090 C163.6075 92.8745 159.7370 93.2473 157.2038 94.4455 C149.1390 98.2598 142.0237 105.4365 138.1665 113.4312 C136.6425 116.5900 135.5753 120.0920 134.3943 123.3983 L133.6320 123.5673 C132.5412 122.8900 131.3805 118.1220 130.8435 116.7087 C127.0595 106.7507 120.3300 99.3730 110.7513 94.7070 C108.5510 93.6355 106.1620 93.1460 103.9847 92.0985 C103.2318 91.7363 102.8062 91.4193 102.5132 90.6345 C102.6185 90.4792 102.6923 90.2970 102.8290 90.1687 C103.8775 89.1840 109.0902 87.5212 110.7448 86.7690 C112.3965 86.0258 113.9883 85.1565 115.5065 84.1690 C119.2505 81.7242 122.7035 78.2995 125.4628 74.7985 C127.9905 71.5915 129.8027 68.1025 131.2120 64.2880 C131.9462 62.3005 132.5578 60.1722 133.6030 58.3232 Z"></path>
<path id="" fill="#999999" fill-opacity="1.0" stroke="#000000" stroke-width="0.0" stroke-opacity="1.0" stroke-linecap="round" stroke-linejoin="round"  filling="0" d="M116.1355 249.8525 C117.0620 249.8277 118.0107 249.7830 118.9333 249.8830 C119.6130 249.9568 120.2575 250.1225 120.8610 250.4500 C121.8047 250.9625 122.5820 251.7900 123.1057 252.7225 C124.2165 254.6975 124.7385 257.2225 125.5275 259.3525 C127.6548 265.1000 129.8510 271.1375 132.4170 276.6925 C138.2713 289.3675 146.1467 301.0275 154.9820 311.8050 C155.2793 313.9950 155.2245 316.1325 154.9953 318.3225 C153.4920 320.3025 152.3450 321.6500 149.8318 322.2650 C146.7027 322.1200 144.8062 320.6325 142.7265 318.4300 C139.9700 315.5150 137.5635 312.1825 135.2195 308.9300 C126.0760 296.4575 118.9303 282.6375 114.0383 267.9675 C112.5435 263.5300 110.8238 258.5475 110.9583 253.8400 C111.0010 253.7725 111.0423 253.7025 111.0865 253.6375 C112.4272 251.6300 113.7047 250.3050 116.1355 249.8525 Z"></path>
<path id="" fill="#e65c64" fill-opacity="1.0" stroke="#000000" stroke-width="0.0" stroke-opacity="1.0" stroke-linecap="round" stroke-linejoin="round"  filling="0" d="M431.5325 356.3850 C431.8600 356.4700 432.0750 356.5275 432.3300 356.7800 C434.4525 358.8800 436.5650 364.8400 439.5650 368.0700 C442.9100 371.6700 447.9350 373.6300 452.4075 375.3600 C452.4425 375.4625 452.5400 375.5600 452.5150 375.6650 C452.4725 375.8400 452.1850 375.8075 452.0200 375.8800 C449.6500 376.9025 447.0250 377.8300 444.8650 379.2500 C438.5650 383.4000 435.2500 388.8425 432.3225 395.5950 C431.0625 395.2800 430.1900 392.8775 429.6100 391.7550 C426.5150 385.7700 423.6200 381.6725 417.4100 378.5950 C415.3725 377.5850 413.2175 376.8325 411.2950 375.6025 C411.2050 375.5450 411.1175 375.4850 411.0275 375.4250 C418.4500 372.4600 423.7350 369.4250 428.0525 362.4750 C429.2875 360.4875 430.2800 358.3650 431.5325 356.3850 Z"></path>
<path id="" fill="#e65c64" fill-opacity="1.0" stroke="#000000" stroke-width="0.0" stroke-opacity="1.0" stroke-linecap="round" stroke-linejoin="round"  filling="0" d="M411.9575 64.1020 C413.3150 65.2487 414.3100 67.8347 415.1700 69.4327 C419.1850 76.8785 425.5800 80.6552 433.2750 83.5270 C426.0050 85.8370 420.4100 89.4310 416.1925 95.9538 C414.7925 98.1190 413.6975 100.4955 412.2125 102.6017 L412.0900 102.7753 C410.8950 101.9893 408.1575 96.2982 407.0575 94.7335 C405.6500 92.7312 403.8850 90.7523 401.9925 89.1955 C398.8025 86.5707 394.9050 85.2865 391.2550 83.4640 C398.3225 79.8027 403.6075 77.9178 408.1675 70.7325 C409.4825 68.6570 410.3650 66.3245 411.7975 64.3188 C411.8500 64.2458 411.9050 64.1743 411.9575 64.1020 Z"></path>
<path id="" fill="#e65c64" fill-opacity="1.0" stroke="#000000" stroke-width="0.0" stroke-opacity="1.0" stroke-linecap="round" stroke-linejoin="round"  filling="0" d="M79.8810 336.3225 C81.8220 337.2350 84.0033 343.4950 85.8062 345.5100 C87.7355 347.6675 90.3792 350.4375 92.8075 351.9500 C94.9745 353.3000 97.3658 354.1700 99.4543 355.6775 C99.5115 356.2800 99.4475 356.2775 98.9293 356.6275 C98.2570 357.0800 97.2343 357.3450 96.4860 357.6950 C94.3842 358.6775 92.2917 359.8925 90.4495 361.3050 C86.8445 364.0725 84.7765 367.6125 82.6447 371.5350 C81.8990 372.9075 81.2233 374.3775 80.2270 375.5900 C78.7060 374.3400 77.1590 370.0950 76.0810 368.2600 C75.1225 366.6325 73.9595 365.0500 72.6552 363.6800 C69.2982 360.1500 64.6760 358.4625 60.6210 355.9700 C61.0800 354.6575 67.8435 351.7500 69.3630 350.6775 C75.5130 346.3250 76.2415 342.1700 79.8810 336.3225 Z"></path>
<path id="" fill="#4d5166" fill-opacity="1.0" stroke="#000000" stroke-width="0.0" stroke-opacity="1.0" stroke-linecap="round" stroke-linejoin="round"  filling="0" d="M372.0000 347.6425 C372.0575 347.6675 372.1250 347.6800 372.1750 347.7200 C372.4850 347.9650 372.5400 348.1900 372.6175 348.5700 C372.8750 349.8125 372.7675 351.7425 371.9500 352.7700 C371.6600 353.1325 371.2350 353.0725 370.8050 353.1425 C370.3275 352.4950 369.6700 351.7075 369.7025 350.8650 C369.7550 349.4425 371.0325 348.5150 372.0000 347.6425 Z"></path>
</svg>