<svg xmlns="http://www.w3.org/2000/svg" viewBox="0 0 512 512" height="512.0px" width="512.0px">
<path id="" fill="#4d5166" fill-opacity="1.0" stroke="#000000" stroke-width="0.0" stroke-opacity="1.0" stroke-linecap="round" stroke-linejoin="round"  filling="0" d="M174.9848 203.8557 C175.9062 203.7415 176.8087 203.7955 177.7278 203.9130 C180.8103 204.3070 184.6940 205.7955 186.5655 208.3508 C188.0020 210.3123 187.8893 212.5343 187.2408 214.7762 C185.7720 219.8542 182.0005 224.4843 179.6617 229.2188 C175.8098 237.0168 172.8118 246.0733 171.2657 254.6425 C170.6127 258.2625 170.3188 261.9700 169.8423 265.6175 C167.7075 268.2250 164.7083 270.1975 162.2207 272.4775 C157.3110 276.9750 152.2117 281.1350 147.2175 285.5250 C144.4162 287.9875 141.8288 290.7125 139.1268 293.2825 C137.4680 294.8625 135.6550 296.2750 134.0143 297.8700 C132.1560 299.6725 130.5383 301.7525 128.7595 303.6400 C126.0612 306.5025 123.1877 309.2325 120.6545 312.2425 C117.4008 316.1075 114.3293 320.5200 110.5050 323.8150 C106.6328 327.1525 101.9970 329.5125 97.1300 331.0275 C87.5797 334.0050 77.3668 332.3975 68.5985 327.8200 C66.7422 326.8025 64.9212 325.4975 63.2997 324.1375 C56.0275 318.0350 51.9998 308.4525 51.2635 299.1225 C50.5567 290.1650 54.2043 280.3475 60.0320 273.5925 C63.8882 269.1225 70.6385 265.0950 75.4942 261.6225 C99.9820 243.8330 125.6738 227.7625 152.3853 213.5273 C158.6495 210.1848 168.0525 204.3938 174.9848 203.8557 Z"></path>
<path id="" fill="#4d5166" fill-opacity="1.0" stroke="#000000" stroke-width="0.0" stroke-opacity="1.0" stroke-linecap="round" stroke-linejoin="round"  filling="0" d="M334.1250 203.8277 C335.3525 203.6953 336.5225 203.6857 337.7425 203.8913 C344.6100 205.0480 351.0025 209.3497 357.0850 212.5233 C384.5050 226.8295 410.8300 243.1440 435.8450 261.3325 C442.2750 266.0425 449.8850 270.8000 454.5150 277.4450 C459.7975 285.1175 461.8375 294.5650 460.1925 303.7325 C458.4425 313.0800 453.2375 321.4600 445.4125 326.8325 C439.7650 329.6875 435.3525 331.8550 428.9575 332.4300 C420.4325 333.1800 411.9075 331.0100 404.7750 326.2800 C399.3325 322.6900 395.4800 317.2650 391.3200 312.3375 C389.0375 309.6450 386.6475 307.0450 384.1550 304.5425 C376.9900 297.2700 369.8200 289.8600 362.3000 282.9575 C355.9700 277.1475 349.2425 271.5900 342.6300 266.1000 C341.6650 253.1550 337.7875 239.2785 331.8875 227.7315 C329.6275 223.3075 325.1900 217.8578 324.3450 213.0925 C324.0700 211.5258 324.5550 209.9568 325.4650 208.6815 C327.3775 206.0033 330.9475 204.2995 334.1250 203.8277 Z"></path>
<path id="" fill="#4d5166" fill-opacity="1.0" stroke="#000000" stroke-width="0.0" stroke-opacity="1.0" stroke-linecap="round" stroke-linejoin="round"  filling="0" d="M205.1472 343.3250 C207.0160 342.9225 209.5590 343.2525 211.4225 343.6250 C216.4948 344.6375 221.6990 347.5175 224.5728 351.9075 C227.2765 356.0375 228.6922 361.8850 227.6545 366.7600 C226.9077 370.2650 225.3027 373.4450 223.7865 376.6675 C219.9317 384.8625 215.2973 392.8600 210.5260 400.5550 C207.8205 404.9200 204.8118 409.2350 202.3717 413.7475 C199.7133 418.6675 198.4357 423.9825 196.6853 429.2425 C195.0440 434.1750 192.7487 439.2375 189.9680 443.6425 C187.1562 448.0950 183.1783 451.7250 178.7630 454.5475 C170.9682 459.5300 161.7027 461.6925 152.5990 459.7150 C148.1195 458.6200 143.8098 457.0525 140.0623 454.3000 C133.4747 449.4575 129.6320 441.7575 128.4875 433.7800 C126.5680 420.3975 131.0567 409.1925 139.0318 398.6075 C141.9368 394.7500 144.9660 390.8450 148.2250 387.2775 C159.1828 375.2850 189.8445 345.4775 205.1472 343.3250 Z"></path>
<path id="" fill="#4d5166" fill-opacity="1.0" stroke="#000000" stroke-width="0.0" stroke-opacity="1.0" stroke-linecap="round" stroke-linejoin="round"  filling="0" d="M301.6375 343.3250 C304.9675 342.9400 308.4550 343.6000 311.5850 344.7375 C319.5875 347.6400 326.4900 353.2375 333.0475 358.5175 C349.4350 371.7175 371.1225 392.3250 379.9650 411.4525 C384.5375 421.3450 385.1275 431.0100 381.2825 441.2125 C378.2425 449.2900 373.2925 454.6050 365.4300 458.1300 C363.4275 458.9100 361.3550 459.4975 359.2400 459.8850 C349.4625 461.6750 339.9600 458.8025 331.9150 453.2200 C327.2600 449.9900 323.6600 446.1675 320.7225 441.3150 C316.5750 434.4700 315.0475 427.0800 312.2775 419.7225 C311.1850 416.8150 309.7600 414.0700 308.2925 411.3400 C306.8925 408.7375 304.9300 406.4625 303.4050 403.9350 C298.2975 395.4700 286.1825 374.9100 284.7025 366.1525 C283.8650 360.8800 285.1450 355.4900 288.2650 351.1550 C291.2950 346.9575 296.5975 344.1300 301.6375 343.3250 Z"></path>
<path id="" fill="#737998" fill-opacity="1.0" stroke="#000000" stroke-width="0.0" stroke-opacity="1.0" stroke-linecap="round" stroke-linejoin="round"  filling="0" d="M189.4187 194.3360 C189.4438 193.6673 189.7880 192.8055 189.5883 192.1673 C188.7897 189.6160 184.6965 185.4162 183.0807 182.8398 C180.3370 178.4642 177.9232 173.5420 176.0330 168.7397 C172.2770 159.1725 170.2620 149.0105 170.0838 138.7337 C169.6832 116.9455 178.1703 93.6490 193.4680 77.9232 C209.7072 61.2185 231.8935 51.6135 255.1875 51.2035 C277.4600 50.9668 300.6475 60.3597 316.4375 76.0178 C342.6450 102.2040 349.2300 142.1910 332.8025 175.3985 C329.9200 181.2547 327.9525 184.3890 324.0375 189.5542 C323.3050 190.5180 322.0700 191.7767 322.1500 193.0627 C322.1600 193.2130 322.1800 193.3625 322.1950 193.5125 C325.6250 197.5000 329.3475 201.6590 332.3400 205.9750 C334.1625 208.6022 335.6875 211.5705 337.2850 214.3445 C349.6325 235.7708 354.9775 257.4100 355.0825 282.0775 C355.1000 286.0675 355.2200 290.1175 354.9275 294.0975 C354.6325 298.1200 353.8875 302.1550 353.1950 306.1225 C348.4750 333.1625 336.0175 360.3400 314.8250 378.4050 C309.9575 382.5550 304.9925 386.4150 299.4725 389.6675 C297.4150 390.8800 295.1825 391.8425 293.0225 392.8625 C279.7000 399.1575 265.4975 402.4550 250.7125 401.2750 C242.9475 400.6550 234.8472 399.1100 227.5120 396.4700 C224.3728 395.3400 218.7300 392.1750 215.9843 391.8700 C213.4445 391.5875 211.0072 388.7400 209.0007 387.2175 C205.6635 384.6900 202.1033 382.5325 198.8210 379.8925 C192.2737 374.6275 186.3867 367.7825 181.2440 361.1425 C178.4218 357.5000 175.9953 353.2650 173.7440 349.2425 C161.9832 328.2300 157.0822 305.3500 156.9980 281.4275 C156.9803 276.3950 156.8712 271.3775 157.5428 266.3750 C159.6820 250.4375 163.7585 235.3338 170.9975 220.9270 C173.7337 215.4815 177.7580 210.4355 179.7580 204.6980 C180.3605 204.4120 181.0020 204.1138 181.4957 203.6575 C182.5870 202.6497 189.0013 195.3983 189.4187 194.3360 Z"></path>
<path id="" fill="#4d5166" fill-opacity="1.0" stroke="#000000" stroke-width="0.0" stroke-opacity="1.0" stroke-linecap="round" stroke-linejoin="round"  filling="0" d="M189.4187 194.3360 C189.4438 193.6673 189.7880 192.8055 189.5883 192.1673 C188.7897 189.6160 184.6965 185.4162 183.0807 182.8398 C180.3370 178.4642 177.9232 173.5420 176.0330 168.7397 C172.2770 159.1725 170.2620 149.0105 170.0838 138.7337 C169.6832 116.9455 178.1703 93.6490 193.4680 77.9232 C209.7072 61.2185 231.8935 51.6135 255.1875 51.2035 C277.4600 50.9668 300.6475 60.3597 316.4375 76.0178 C342.6450 102.2040 349.2300 142.1910 332.8025 175.3985 C329.9200 181.2547 327.9525 184.3890 324.0375 189.5542 C323.3050 190.5180 322.0700 191.7767 322.1500 193.0627 C322.1600 193.2130 322.1800 193.3625 322.1950 193.5125 C322.1350 193.4377 322.0750 193.3645 322.0175 193.2885 C321.7325 192.9138 321.8325 193.0510 321.6025 192.5495 C317.7075 196.1662 314.3725 200.1953 310.2500 203.6053 C294.1750 216.9012 273.7725 223.8203 252.9275 223.0440 C228.1550 222.1638 207.4915 211.0360 190.8250 193.1147 C190.4953 192.7605 190.6918 192.8645 190.2652 192.7685 C189.9695 193.2870 189.6732 193.7953 189.4187 194.3360 Z"></path>
<path id="" fill="#e5bf67" fill-opacity="1.0" stroke="#000000" stroke-width="0.0" stroke-opacity="1.0" stroke-linecap="round" stroke-linejoin="round"  filling="0" d="M76.2957 171.8295 C77.9308 171.7513 79.0423 171.8423 80.4052 172.8250 C81.9775 173.9588 83.0245 175.7160 83.6933 177.5038 C85.2028 181.5380 86.1147 185.8470 87.3578 189.9745 C91.3467 203.2207 94.9405 216.5797 98.9033 229.8315 C100.2060 234.1875 101.8303 238.4433 103.2598 242.7583 C104.9673 247.9122 106.5315 253.1300 108.1283 258.3200 C109.1592 261.6700 110.8645 265.9550 111.0818 269.4425 C111.1728 270.9000 110.2110 272.9150 109.2718 274.0025 C107.9560 275.5275 106.7628 275.9250 104.8112 276.0750 C103.3138 276.0450 101.8882 275.9775 100.5675 275.1900 C99.0197 274.2700 98.1015 272.7175 97.4640 271.0825 C95.9003 267.0750 95.0030 262.7550 93.7473 258.6375 L84.8810 229.3062 C81.7965 219.1698 78.9120 208.9498 75.7613 198.8398 C74.0518 193.3545 71.7515 187.8952 70.4392 182.3053 C69.8190 179.6633 69.4182 177.6695 71.0042 175.2332 C72.3045 173.2357 74.0172 172.2843 76.2957 171.8295 Z"></path>
<path id="" fill="#e5bf67" fill-opacity="1.0" stroke="#000000" stroke-width="0.0" stroke-opacity="1.0" stroke-linecap="round" stroke-linejoin="round"  filling="0" d="M410.3350 358.8250 C411.4975 358.9200 412.5525 359.1025 413.5850 359.6775 C415.3575 360.6650 416.5950 362.4075 417.1025 364.3575 C417.5125 365.9350 417.4875 367.6525 416.7300 369.1250 C414.9675 372.5600 408.5275 378.9675 405.6725 381.9400 C403.4100 384.3000 401.4525 386.9025 399.2200 389.2775 C397.4075 391.2025 395.4425 392.9875 393.6575 394.9375 C391.9800 396.7725 390.4975 398.7750 388.8125 400.6025 C385.7700 403.9000 382.4325 407.0825 380.1275 410.9675 C380.0225 411.5700 380.0650 411.8475 380.3250 412.3850 C380.5500 412.8500 380.5850 412.8750 380.5850 413.4275 C379.7100 413.8250 378.6225 413.7225 377.6750 413.7400 C373.8800 417.2650 367.7025 426.9200 362.9275 428.0300 C361.4300 428.0350 360.0525 427.9800 358.5725 427.7225 C356.7800 426.4600 355.5225 425.0600 355.0675 422.8525 C354.6225 420.6775 355.2025 418.5450 356.4375 416.7375 C358.7200 413.3975 362.2075 410.5800 364.9075 407.5225 L389.9550 379.3750 C392.8325 376.1000 395.6575 372.7775 398.4300 369.4150 C400.6600 366.6525 402.7350 363.6950 405.3175 361.2450 C406.8200 359.8200 408.3200 359.2025 410.3350 358.8250 Z"></path>
<path id="" fill="#e5bf66" fill-opacity="1.0" stroke="#000000" stroke-width="0.0" stroke-opacity="1.0" stroke-linecap="round" stroke-linejoin="round"  filling="0" d="M381.1900 75.9822 C383.2025 75.8347 384.8550 76.6038 386.3625 77.9098 C387.7975 79.1520 389.0275 80.9187 389.0925 82.8757 C389.1425 84.3875 388.4950 85.4280 387.6100 86.5865 C385.6350 89.1707 383.1800 91.3955 380.8775 93.6848 L371.7200 102.8960 C368.8850 105.7888 366.4025 108.9853 363.6175 111.9195 C357.8050 118.0400 351.6650 123.9050 345.6875 129.8658 C345.2775 130.2705 344.8550 130.6615 344.4200 131.0378 C343.6050 131.7395 342.9575 132.3520 341.8375 132.2690 L341.8825 131.9105 L341.7650 132.1115 C340.7225 128.4400 339.8525 120.8400 339.4525 116.8427 C345.5525 110.6835 352.0925 104.8748 357.9700 98.4958 L370.2650 85.1038 C372.1375 83.0245 373.8475 80.5700 375.9875 78.7670 C377.5500 77.4500 379.3150 76.7185 381.1900 75.9822 Z"></path>
<path id="" fill="#e5bf67" fill-opacity="1.0" stroke="#000000" stroke-width="0.0" stroke-opacity="1.0" stroke-linecap="round" stroke-linejoin="round"  filling="0" d="M214.2162 261.0250 C215.3008 260.9775 216.4490 260.9300 217.5315 261.0150 C219.8853 261.1975 221.2348 262.3925 222.7032 264.1225 C223.0898 266.7975 223.5160 272.3075 222.4405 274.7075 C221.7190 276.3200 220.4950 277.8550 219.6142 279.4000 L213.1532 290.8575 C211.4648 293.8375 210.2145 297.2850 208.2742 300.0900 C207.5840 301.0875 206.9085 301.6125 205.7802 302.0425 C203.8652 302.1300 201.7428 302.3425 199.9117 301.6950 C198.4377 301.1725 197.3813 300.1275 196.7800 298.6900 C195.7210 296.1575 196.4925 293.9825 197.4538 291.5575 C198.5985 288.6700 200.1348 285.9275 201.4430 283.1100 C203.2368 279.2500 208.9745 265.5075 211.0423 263.0400 C211.8418 262.0875 213.1028 261.5125 214.2162 261.0250 Z"></path>
<path id="" fill="#fe666f" fill-opacity="1.0" stroke="#000000" stroke-width="0.0" stroke-opacity="1.0" stroke-linecap="round" stroke-linejoin="round"  filling="0" d="M255.5650 262.8275 C257.5225 262.8700 259.6150 263.2775 261.0500 264.7175 C263.7050 267.3850 263.0275 272.5425 263.0000 276.0050 C266.3900 275.9125 271.5850 275.2250 274.1825 277.8075 C275.4250 279.0425 276.0550 280.7700 276.0475 282.5100 C276.0425 284.2500 275.3775 286.0000 274.1225 287.2225 C271.4650 289.8100 266.2825 289.2225 262.8400 289.1725 C262.9800 291.4425 262.9500 293.7350 262.9825 296.0100 C266.0000 295.9400 271.2800 295.1500 273.7000 297.1250 C275.1550 298.3100 275.9000 300.2575 275.9950 302.0950 C276.0925 303.9625 275.4625 305.8725 274.1275 307.2100 C271.5575 309.7825 266.2325 309.1525 262.8675 309.1375 L262.9550 315.2075 C264.3050 315.1750 265.6600 315.1375 267.0100 315.1900 C269.7150 315.2925 272.7600 315.8750 274.6325 318.0075 C275.7350 319.2600 276.1925 321.0275 276.0050 322.6700 C275.6875 325.4625 273.5375 327.2150 271.4550 328.8050 C268.6575 329.2050 265.7250 329.0500 262.9025 329.0500 L262.9750 335.1900 C266.8950 334.9750 271.0400 334.6025 274.1600 337.5125 C275.3250 338.5975 276.0900 340.0050 276.1325 341.6150 C276.1800 343.4000 275.3625 345.1125 274.1425 346.3825 C271.0900 349.5675 266.9100 349.0325 262.9100 349.0175 L262.9825 355.0600 C266.3375 354.9525 270.5500 354.2675 273.3075 356.5675 C274.7975 357.8125 275.9100 359.6200 276.0075 361.5925 C276.0875 363.2650 275.5250 365.0275 274.3675 366.2575 C271.6375 369.1575 266.6275 368.9550 262.9450 368.9775 C263.0025 372.6625 263.4925 377.0275 260.6950 379.9000 C259.2825 381.3500 257.3025 381.9950 255.3225 382.0575 C253.7350 381.6300 251.9625 380.6075 250.9025 379.3375 C248.5805 376.5550 248.9232 372.2075 249.2007 368.8150 C247.8240 368.9025 246.4373 369.0025 245.0582 368.9200 C242.1978 368.7525 239.2690 367.9650 237.3490 365.6950 C236.3470 364.5100 235.7122 363.0250 235.8663 361.4525 C236.1380 358.6750 238.4422 356.8825 240.4823 355.2950 C243.3212 354.8050 246.3362 354.9825 249.2103 355.0150 C249.1455 352.9775 249.1505 350.9525 249.1998 348.9150 C245.5290 349.0200 241.4818 349.6125 238.5055 346.9625 C237.0705 345.6850 236.0505 343.7950 235.9928 341.8525 C235.9442 340.2300 236.5887 338.7575 237.7133 337.6050 C240.7482 334.4925 245.2540 335.0450 249.2110 335.0650 C249.1425 333.0425 249.1608 331.0275 249.1895 329.0025 C246.3398 329.0625 243.3925 329.1700 240.5668 328.7675 C239.8513 328.2175 239.1125 327.6700 238.4610 327.0450 C236.9955 325.6425 235.7962 323.9175 235.8305 321.8100 C235.8553 320.2650 236.6647 318.8875 237.7467 317.8325 C240.8175 314.8375 245.2272 315.1000 249.1835 315.2125 C249.1675 313.1575 249.1698 311.1025 249.1902 309.0475 C245.9888 309.1175 241.0260 309.7300 238.4140 307.6175 C236.9780 306.4550 236.1305 304.6025 236.0410 302.7725 C235.9515 300.9425 236.5378 298.8775 237.8622 297.5625 C240.3670 295.0750 245.9693 295.9150 249.2110 296.0000 C249.1463 293.6875 249.1382 291.3725 249.1873 289.0600 C245.8228 289.2000 240.8545 289.8025 238.1483 287.4050 C236.7682 286.1800 236.0087 284.3375 235.9890 282.5075 C235.9702 280.7775 236.5927 279.0600 237.8455 277.8450 C240.5672 275.2100 245.7413 275.8775 249.2190 275.9775 C249.0320 272.9175 248.4783 268.1450 250.2975 265.5400 C251.5625 263.7300 253.4850 263.1625 255.5650 262.8275 Z"></path>
<path id="" fill="#fe656e" fill-opacity="1.0" stroke="#000000" stroke-width="0.0" stroke-opacity="1.0" stroke-linecap="round" stroke-linejoin="round"  filling="0" d="M210.1113 175.9622 C210.0190 174.9993 209.9848 174.0305 209.9438 173.0640 C209.8338 170.4820 209.5923 167.6933 211.5535 165.6882 C212.8127 164.4008 214.6118 163.7870 216.3898 163.7695 C218.2930 163.7507 220.2068 164.4332 221.5150 165.8463 C223.8480 168.3658 223.2245 173.7815 223.0677 177.0282 C225.1330 176.9702 227.1890 176.9325 229.2550 176.9727 C229.1705 173.3618 228.6512 168.6315 231.2605 165.7595 C232.6212 164.2612 234.5940 163.8302 236.5425 163.8033 C238.2238 163.7800 239.8578 164.2047 241.0345 165.4682 C243.6712 168.2995 243.0570 173.4337 243.0235 177.0193 C245.0960 176.9670 247.1565 176.9430 249.2292 176.9965 C249.1398 173.5092 248.3922 168.2490 250.9950 165.5410 C252.3075 164.1735 254.2475 163.8313 256.0650 163.8045 C257.8400 163.7785 259.6250 164.1048 260.9200 165.4082 C263.6150 168.1200 262.9775 173.4933 262.9725 177.0143 C265.0275 176.9633 267.0825 176.9555 269.1375 176.9913 C268.9500 173.8768 268.5200 169.7323 270.0075 166.9102 C270.7400 165.5215 271.8950 164.4720 273.4100 164.0210 C275.2475 163.4753 277.5325 163.7103 279.2000 164.6613 C281.2350 165.8217 282.0275 167.5775 282.6775 169.7392 C282.8925 172.0025 283.1700 174.7247 282.7125 176.9555 C284.8275 177.0163 286.9475 176.9863 289.0625 176.9828 C288.9000 173.8295 288.8275 170.6695 289.2575 167.5347 C289.6625 166.9182 290.1325 166.3058 290.6400 165.7713 C291.9525 164.3935 294.0675 163.7348 295.9350 163.7637 C297.6175 163.7900 299.2375 164.3618 300.3900 165.6163 C302.8350 168.2702 302.1525 172.7530 302.1150 176.1145 C303.3925 176.6853 304.8225 177.2247 305.9625 178.0383 C307.5850 179.1958 308.7750 180.7965 309.0800 182.7957 C309.3150 184.3375 308.9750 185.9133 308.0250 187.1635 C306.6150 189.0208 304.2600 190.0968 301.9950 190.3815 C302.1775 193.3070 302.1700 196.2415 301.9650 199.1658 C301.6300 199.7612 301.2325 200.3017 300.7875 200.8225 C299.4875 202.3175 297.6300 203.2117 295.6500 203.2950 C293.9775 203.3725 292.2975 202.8627 291.1100 201.6503 C288.2750 198.7558 288.9150 193.7623 288.9925 190.0425 L282.8100 190.0910 C282.8900 193.7810 283.4950 197.9755 280.7725 200.9178 C279.4375 202.3593 277.6125 203.2343 275.6400 203.2812 C273.9150 203.3223 272.2075 202.7485 271.0075 201.4760 C268.3525 198.6555 268.9925 193.6275 269.0375 190.0345 C266.9775 190.1008 264.9125 190.0748 262.8500 190.0773 C262.9400 193.3690 263.4650 198.8095 261.0000 201.3140 C259.7700 202.5632 257.9125 203.1385 256.1925 203.1693 C254.3175 203.2027 252.3175 202.6155 250.9900 201.2388 C248.5827 198.7448 249.1353 193.2690 249.1922 190.0295 C247.1240 190.1115 245.0600 190.0920 242.9908 190.0737 C243.0290 192.1028 243.1763 194.2213 243.0078 196.2420 C242.7708 199.0878 241.7915 200.9040 239.6355 202.7485 C238.5675 203.0103 237.3737 203.2415 236.2722 203.2383 C234.5188 203.2328 232.8483 202.6160 231.6160 201.3497 C228.6922 198.3460 229.1792 193.8887 229.2402 190.0465 C227.1678 190.1170 225.1090 190.1037 223.0360 190.0590 L223.0785 191.6625 C223.1585 195.0085 223.5968 198.8952 220.9995 201.4733 C219.7350 202.7285 218.0595 203.3163 216.2915 203.2997 C214.5800 203.2835 212.9037 202.6673 211.7083 201.4220 C209.1073 198.7120 209.9052 193.8112 209.9825 190.3573 C209.5125 190.2695 209.0493 190.1732 208.5870 190.0488 C206.4965 189.4863 204.6597 188.2513 203.6203 186.3080 C202.8217 184.8158 202.6490 183.0620 203.2245 181.4622 C204.3575 178.3132 207.3485 177.2778 210.1113 175.9622 Z"></path>
<path id="" fill="#e5bf67" fill-opacity="1.0" stroke="#000000" stroke-width="0.0" stroke-opacity="1.0" stroke-linecap="round" stroke-linejoin="round"  filling="0" d="M308.4450 236.0083 C312.9225 236.0038 314.0725 239.6380 317.3400 241.6665 C320.8875 243.8695 323.8350 237.1485 328.5850 236.0152 L328.9425 235.9337 C329.1325 235.9675 329.3225 236.0043 329.5100 236.0440 C331.4175 236.4512 333.4325 237.5853 334.4750 239.2855 C337.9975 245.0403 330.6050 249.4985 329.6950 253.3100 C330.1475 255.3100 331.8875 256.4200 333.2275 257.8375 C334.5025 259.1850 335.6825 260.8725 335.5500 262.8225 C335.4150 264.7900 333.9675 266.9350 332.4425 268.1175 C330.5375 269.5950 328.1000 269.2550 325.8725 268.9175 C324.0300 267.7325 322.3300 264.9375 320.1275 264.7900 C318.6375 265.2050 318.0625 266.5300 317.3225 267.7600 L318.4350 269.0375 C320.2300 271.1125 322.5075 273.7875 322.2075 276.7175 C322.0225 278.5400 320.8475 279.9400 319.4600 281.0375 C313.8750 285.4650 312.7900 280.2500 307.3500 279.6850 L307.0100 279.6525 C304.0200 281.5050 302.4450 285.9875 299.3150 288.1025 C297.1050 289.5975 294.8250 289.2450 292.3775 288.7200 C291.7725 288.1950 291.1525 287.6650 290.6600 287.0300 C284.2475 278.7950 297.2625 274.0575 297.2725 269.0450 C297.2775 266.5575 293.1050 263.5550 291.5175 261.6700 C290.0250 259.9000 288.6400 257.7550 288.9075 255.3350 C289.1175 253.4350 290.3100 251.7800 291.8225 250.6650 C299.1300 245.2847 302.9800 256.4150 307.5725 257.1600 C308.2350 256.9425 308.5650 256.7975 308.9475 256.1850 C311.0500 252.8275 305.6850 249.5177 303.8925 247.2680 C302.8925 246.0148 302.3700 244.8605 301.9875 243.3285 L301.9025 242.9745 C302.1400 241.9393 302.3775 240.9872 302.9125 240.0555 C304.1750 237.8517 306.0375 236.6608 308.4450 236.0083 Z"></path>
<path id="" fill="#e65c64" fill-opacity="1.0" stroke="#000000" stroke-width="0.0" stroke-opacity="1.0" stroke-linecap="round" stroke-linejoin="round"  filling="0" d="M378.6600 64.5312 C389.5975 62.9393 399.7525 70.5202 401.3375 81.4597 C402.9225 92.3990 395.3325 102.5497 384.3925 104.1263 C373.4625 105.7010 363.3250 98.1220 361.7425 87.1938 C360.1600 76.2653 367.7325 66.1215 378.6600 64.5312 Z"></path>
<path id="" fill="#e65c64" fill-opacity="1.0" stroke="#000000" stroke-width="0.0" stroke-opacity="1.0" stroke-linecap="round" stroke-linejoin="round"  filling="0" d="M74.8580 157.0903 C85.7280 155.5343 95.8192 163.0335 97.4648 173.8902 C99.1100 184.7470 91.6940 194.8995 80.8515 196.6345 C69.8815 198.3895 59.5838 190.8675 57.9190 179.8837 C56.2545 168.9000 63.8610 158.6645 74.8580 157.0903 Z"></path>
<path id="" fill="#e5bf66" fill-opacity="1.0" stroke="#000000" stroke-width="0.0" stroke-opacity="1.0" stroke-linecap="round" stroke-linejoin="round"  filling="0" d="M221.3257 97.4295 C232.2655 96.5222 241.8865 104.6147 242.8667 115.5480 C243.8470 126.4815 235.8190 136.1562 224.8925 137.2095 C213.8622 138.2728 204.0755 130.1517 203.0860 119.1147 C202.0965 108.0778 210.2825 98.3455 221.3257 97.4295 Z"></path>
<path id="" fill="#e5bf67" fill-opacity="1.0" stroke="#000000" stroke-width="0.0" stroke-opacity="1.0" stroke-linecap="round" stroke-linejoin="round"  filling="0" d="M287.3600 97.4543 C298.3300 96.5007 308.0000 104.6082 308.9725 115.5755 C309.9475 126.5428 301.8575 136.2283 290.8925 137.2233 C279.8975 138.2210 270.1800 130.1053 269.2050 119.1087 C268.2275 108.1120 276.3625 98.4105 287.3600 97.4543 Z"></path>
<path id="" fill="#e65c64" fill-opacity="1.0" stroke="#000000" stroke-width="0.0" stroke-opacity="1.0" stroke-linecap="round" stroke-linejoin="round"  filling="0" d="M406.4050 355.1675 C413.6975 354.3250 420.3050 359.5125 421.2175 366.7950 C422.1275 374.0775 417.0000 380.7350 409.7250 381.7125 C402.3575 382.7025 395.5950 377.4925 394.6725 370.1150 C393.7475 362.7375 399.0200 356.0225 406.4050 355.1675 Z"></path>
<path id="" fill="#e5bf67" fill-opacity="1.0" stroke="#000000" stroke-width="0.0" stroke-opacity="1.0" stroke-linecap="round" stroke-linejoin="round"  filling="0" d="M195.6795 262.8200 C200.5907 262.8250 204.8090 266.8700 208.4122 269.8550 C207.9330 271.1025 203.1730 280.5125 202.3990 281.5275 C201.5332 281.2575 200.8233 280.8375 200.0797 280.3275 C196.8277 278.1000 190.5372 274.2825 189.8770 270.1375 C189.6095 268.3975 190.0878 266.6250 191.1947 265.2575 C192.3960 263.7500 193.7993 263.0625 195.6795 262.8200 Z"></path>
<path id="" fill="#e5bf67" fill-opacity="1.0" stroke="#000000" stroke-width="0.0" stroke-opacity="1.0" stroke-linecap="round" stroke-linejoin="round"  filling="0" d="M218.6810 279.6950 C219.3815 279.7000 220.1225 279.7525 220.8078 279.9000 C223.6942 280.5200 227.6295 283.6200 229.0465 286.1575 C229.8817 287.6525 230.1022 289.3375 229.5510 290.9700 C228.7605 293.3100 226.8307 294.6325 224.7450 295.7200 C224.1750 295.8700 223.6280 296.0125 223.0335 295.9975 C219.5920 295.9150 215.8590 292.5400 213.6602 290.1200 C214.7888 286.5500 216.8757 282.9750 218.6810 279.6950 Z"></path>
</svg>