<svg xmlns="http://www.w3.org/2000/svg" viewBox="0 0 512 512" height="512.0px" width="512.0px">
<path id="" fill="#fed572" fill-opacity="1.0" stroke="#000000" stroke-width="0.0" stroke-opacity="1.0" stroke-linecap="round" stroke-linejoin="round"  filling="0" d="M317.2325 51.1435 C324.8875 50.3895 333.1000 51.6005 340.7525 52.1575 C344.5750 52.4357 365.2925 54.7675 367.3675 57.1600 C366.7175 58.7965 361.5425 60.6870 359.8675 61.4230 C348.9150 66.2408 338.6625 71.9125 328.7125 78.5430 C283.3675 109.1468 252.1175 156.5903 241.9088 210.3360 C240.7343 216.2300 239.7805 222.3372 239.2920 228.3307 C239.0567 231.2162 239.0955 234.1212 238.8983 237.0092 C238.6223 241.0457 238.0627 244.9942 238.1152 249.0545 C238.1660 252.9925 238.6992 256.9275 238.9397 260.8600 C241.4825 306.0325 259.0450 349.0625 288.8350 383.1175 C292.1600 386.8800 295.8950 390.3700 299.4475 393.9200 C313.0275 407.6525 328.5225 419.3500 345.4475 428.6525 C352.5950 432.5250 359.9900 435.9225 367.5825 438.8275 C372.5600 440.7700 377.6650 442.5200 382.7500 444.1650 C385.1725 444.9500 387.7725 445.5400 390.1275 446.4800 C390.7475 446.7275 391.1200 446.8600 391.4925 447.4175 C391.3925 447.6750 391.3975 447.7125 391.1900 447.9600 C389.6400 449.8050 383.4850 451.4250 381.0850 452.1225 C361.3775 457.9025 340.9575 460.8925 320.4200 461.0050 C316.8200 460.9350 313.2700 460.4775 309.6850 460.2275 C264.9850 457.1225 228.2858 442.9700 193.1747 415.1100 C150.9382 381.0550 124.0100 331.5750 118.3463 277.6150 C112.4600 224.5202 127.7872 171.2498 160.9913 129.4020 C190.8477 91.5358 233.0632 65.3675 280.2575 55.4720 C287.6600 53.9665 295.3475 52.8253 302.8700 52.1732 C307.6700 51.7572 312.4225 51.6805 317.2325 51.1435 Z"></path>
<path id="" fill="#4d5166" fill-opacity="1.0" stroke="#000000" stroke-width="0.0" stroke-opacity="1.0" stroke-linecap="round" stroke-linejoin="round"  filling="0" d="M189.6483 319.5850 C194.8710 319.0275 199.8880 321.4525 204.7310 323.0450 C207.5002 323.9550 210.3002 324.7575 213.0647 325.6950 C214.5132 326.1875 216.7660 326.8125 217.4863 328.2700 C217.3548 328.9575 217.0835 329.2725 216.5618 329.7375 C215.2173 330.9425 213.6300 331.9500 212.2195 333.0900 C208.7920 335.8575 205.6505 339.5475 203.8550 343.5975 C201.9810 347.8250 201.3170 352.7000 202.8248 357.1425 C203.5278 359.2150 204.5560 361.1800 205.3338 363.2300 C200.5710 365.4925 196.4008 368.1850 193.3000 372.5625 C190.4603 376.5700 190.3277 380.5925 191.1420 385.2475 C181.2162 390.6375 173.2843 391.9075 164.9503 400.3850 C162.3500 403.0300 160.4962 405.3850 159.5287 409.0400 C159.0733 410.7625 159.2390 415.2725 158.1430 416.3000 C156.7688 415.9025 155.5358 414.6925 154.3387 413.9050 C152.7295 412.8425 150.9742 412.0200 149.1283 411.4600 C140.3633 408.8725 132.3995 412.2000 124.5325 415.7325 C120.6332 417.4825 116.7077 419.3300 112.9492 421.3625 C111.4557 418.7675 109.1865 416.5050 106.4420 415.2550 C102.1817 413.3175 96.0440 413.7825 91.7563 415.4800 C90.7475 415.8800 89.0403 416.9275 88.0537 417.0450 C87.0170 417.1675 83.8190 410.6875 82.8633 409.6050 C82.8118 409.5475 82.7580 409.4900 82.7053 409.4325 C80.6415 406.9750 78.2872 405.2050 75.3110 403.9900 C67.8425 400.9450 58.9435 402.2275 51.7115 405.2900 C52.6568 400.8500 54.6792 396.9325 56.3593 392.7450 C57.9275 388.8375 59.2805 384.5350 61.3970 380.8875 C64.8062 375.0125 71.4055 371.9650 78.0025 371.4375 C81.2057 371.1800 84.4952 371.4450 87.7090 371.4725 C91.0648 371.4825 94.4197 371.3775 97.7682 371.1575 C100.0630 371.0200 102.4810 370.9175 104.6998 370.2800 C108.0943 369.3050 110.4673 366.7750 112.0898 363.7475 C112.0935 359.5600 109.5592 350.4800 108.7880 345.7200 C120.4553 348.4550 126.5748 348.9725 133.5555 337.9050 C134.4693 336.4550 135.4008 334.5450 136.9840 333.7550 C139.0202 334.3525 146.1970 345.0000 148.5940 347.2950 L148.7830 347.4725 C150.9860 347.6450 153.8820 347.6825 155.9198 346.7450 C158.4142 345.6000 160.3010 343.2350 162.1693 341.2950 C164.8650 338.4975 167.7937 335.8725 170.3698 332.9675 C176.5468 326.0000 179.6467 320.8475 189.6483 319.5850 Z"></path>
<path id="" fill="#4d5166" fill-opacity="1.0" stroke="#000000" stroke-width="0.0" stroke-opacity="1.0" stroke-linecap="round" stroke-linejoin="round"  filling="0" d="M314.2950 150.3573 C318.2000 150.1232 322.4700 151.2135 325.8225 153.2220 C333.6575 157.9180 345.6925 175.1365 354.4825 175.0695 C361.5050 175.0163 364.4950 163.8698 368.8575 159.4935 C368.9275 159.4227 369.0000 159.3540 369.0700 159.2843 C373.0750 162.6050 374.7800 167.8390 379.5450 170.3808 C385.5850 173.6028 392.3075 170.5833 398.2650 168.7372 C397.8800 172.7485 395.6225 184.6523 396.6750 187.7352 C397.6250 190.5140 400.5475 192.2385 403.2750 192.8775 C405.4675 193.3913 407.8250 193.3015 410.0625 193.2845 C413.8825 193.2558 417.7450 193.1712 421.5525 192.8533 C425.0500 192.5612 428.5350 191.9603 432.0525 192.0737 C435.3425 192.1797 438.6400 192.8822 441.6025 194.3398 C448.9875 197.9720 452.0550 206.1580 455.5925 213.0477 C457.2925 216.3633 459.3350 219.8020 460.5300 223.3367 C456.4175 221.9673 452.0950 221.3347 447.7600 221.4677 C440.3475 221.6905 434.9675 224.4090 429.9675 229.7563 C427.9825 231.9315 427.5900 234.8237 425.9550 237.1413 C425.6000 237.6443 425.2675 238.0700 424.5950 237.9915 C423.5925 237.8743 422.3250 237.2715 421.3225 236.9690 C418.1950 236.0230 414.5725 235.8127 411.3575 236.4040 C406.5900 237.2807 402.6875 240.7753 399.9725 244.6485 C399.8425 244.5482 399.7175 244.4450 399.5850 244.3483 C397.5100 242.8293 394.2175 242.0770 391.7950 241.2043 C382.8350 237.9753 372.3075 233.8763 362.9650 238.3995 C361.0225 239.3400 355.2450 244.1360 354.8900 244.1978 L354.6575 243.8875 C354.5250 239.5365 353.1350 235.1888 350.4025 231.7598 C344.1400 223.8958 336.6550 221.4622 327.5600 218.2623 C324.9750 217.3528 322.1100 216.0217 319.3850 215.7020 C319.9625 213.0725 320.0850 210.4182 319.2100 207.8290 C316.7325 200.5045 310.0375 197.7220 303.7375 194.5630 C304.9025 191.4382 305.9150 188.2320 305.9375 184.8665 C305.9825 177.3378 301.1700 170.4012 295.2225 166.1142 C292.9225 164.4552 290.3975 163.2672 288.4050 161.2068 L288.1400 160.9317 C291.5625 158.2550 306.1600 152.1517 310.7475 150.8695 C311.9075 150.5457 313.1000 150.4535 314.2950 150.3573 Z"></path>
<path id="" fill="#cdab5c" fill-opacity="1.0" stroke="#000000" stroke-width="0.0" stroke-opacity="1.0" stroke-linecap="round" stroke-linejoin="round"  filling="0" d="M384.1375 316.3975 C387.8075 319.0350 397.4900 341.7925 400.0525 346.9475 C405.5600 347.0800 411.2300 348.1800 416.6725 348.9750 C421.7425 349.7175 426.9575 350.2775 431.9825 351.2675 C432.6175 351.3925 432.9025 351.4500 433.2800 351.9800 C432.8750 355.9925 413.5400 371.3650 409.9850 375.8525 L409.7675 376.1300 C410.9500 387.1825 413.9475 398.0850 415.1950 409.1400 L415.0150 409.3150 C413.7550 409.3700 412.8775 409.1400 411.7150 408.6800 C406.8325 406.7525 402.2275 403.7925 397.5825 401.3450 C393.4850 399.1850 389.0750 397.2900 385.1825 394.7900 C382.3275 394.4225 361.8575 407.3700 356.9175 408.8625 C356.0725 409.1175 354.9925 409.3900 354.1825 408.9400 C353.8700 408.0450 353.9350 407.1200 354.0250 406.1900 C354.3750 402.6475 355.2400 399.1025 355.8700 395.5975 L359.1000 376.5525 C355.7175 372.8050 335.9875 354.7000 335.6025 351.9050 C337.5125 350.6800 364.5975 347.0625 368.4800 346.9575 C372.0300 340.3225 375.2500 333.4850 378.5975 326.7475 C380.3000 323.3200 381.8800 319.4875 384.1375 316.3975 Z"></path>
<path id="" fill="#cdab5c" fill-opacity="1.0" stroke="#000000" stroke-width="0.0" stroke-opacity="1.0" stroke-linecap="round" stroke-linejoin="round"  filling="0" d="M114.1960 144.4297 C115.1755 145.2103 115.8557 146.0705 116.4832 147.1470 C118.1777 150.0542 119.3080 153.2953 120.7530 156.3327 C123.7787 162.5470 126.8798 168.7245 130.0555 174.8635 C140.5695 176.5213 151.1205 177.9380 161.6995 179.1125 C162.1240 179.4640 162.1758 179.5200 162.2238 180.1053 C162.2827 180.8255 162.0785 181.9312 161.7135 182.5525 C160.2802 184.9935 149.3842 195.4080 146.7348 197.7520 C144.5927 199.6467 142.0898 201.2840 140.2315 203.4612 C140.1617 203.5430 140.0945 203.6268 140.0262 203.7095 C140.2405 211.1568 142.4368 221.1342 143.7462 228.5782 C144.2065 231.1955 145.1857 234.3955 145.0865 237.0010 L144.6125 237.2652 C139.3160 237.5845 121.3425 225.5372 114.9723 222.9570 C114.8160 222.8938 114.6585 222.8335 114.5015 222.7720 C107.8223 225.9515 101.4382 229.7465 94.8505 233.1187 C92.1715 234.4902 89.4438 236.0705 86.5623 236.9668 C85.5858 237.2705 84.9763 237.4650 84.0512 236.9742 C83.6070 234.1270 88.2917 209.4425 89.1057 204.7263 C87.3343 202.4645 85.0475 200.4520 82.9990 198.4353 L72.3293 187.9410 C69.8018 185.4545 67.1227 183.1040 65.3262 180.0123 C75.9405 177.5375 87.7545 176.6877 98.6097 174.9355 C101.9380 168.3940 105.1360 161.7815 108.3985 155.2068 C110.1512 151.6745 111.7880 147.5448 114.1960 144.4297 Z"></path>
<path id="" fill="#e6c067" fill-opacity="1.0" stroke="#000000" stroke-width="0.0" stroke-opacity="1.0" stroke-linecap="round" stroke-linejoin="round"  filling="0" d="M427.5300 89.3522 C430.9175 91.5247 434.5200 100.9900 436.0000 104.9447 C439.3275 105.0055 447.5325 105.5267 450.4775 106.6870 C451.2150 106.9780 451.6050 107.3160 451.9325 108.0573 C451.9450 108.8880 451.7575 109.3750 451.3100 110.0562 C449.4550 112.8820 443.9950 117.5065 441.4225 120.2953 C441.7950 122.8715 444.2475 136.0347 443.8425 137.1190 C440.4550 138.0423 431.7800 131.8670 428.3850 130.2730 L428.1950 130.1853 C423.2225 131.9670 418.9375 135.3000 414.0625 137.0938 C413.3700 137.3483 413.0900 137.3997 412.4200 137.1003 C411.2000 134.7745 413.8800 123.3485 414.2525 120.0247 C411.9775 117.3002 409.0350 115.2852 406.4575 112.8702 C405.2300 111.7217 402.7500 109.4150 402.7050 107.6747 C403.1025 107.1150 403.7050 107.0045 404.3375 106.8508 C408.5575 105.8272 414.5550 106.0410 418.3275 104.7545 C422.2025 103.4337 423.8775 92.5992 427.5300 89.3522 Z"></path>
<path id="" fill="#e65c64" fill-opacity="1.0" stroke="#000000" stroke-width="0.0" stroke-opacity="1.0" stroke-linecap="round" stroke-linejoin="round"  filling="0" d="M427.7200 275.3800 C428.9300 276.0075 430.3425 279.8300 431.0300 281.1250 C432.9600 284.7700 435.6150 287.7100 438.8475 290.2625 C441.9250 292.6925 445.5075 294.1450 449.1000 295.6250 C437.1650 300.7900 433.8700 303.8775 428.3475 315.6175 C427.0850 315.6275 426.2350 313.2575 425.7050 312.2650 C420.0350 301.6750 417.9275 301.5900 407.9600 296.0325 L407.9300 295.8425 C407.5750 295.6975 407.6950 295.8050 407.5250 295.5750 C410.3075 293.5075 413.6900 292.2900 416.5975 290.3950 C422.8525 286.3125 423.7850 280.9125 427.7200 275.3800 Z"></path>
<path id="" fill="#e65c64" fill-opacity="1.0" stroke="#000000" stroke-width="0.0" stroke-opacity="1.0" stroke-linecap="round" stroke-linejoin="round"  filling="0" d="M83.9187 70.3420 C85.2878 70.9427 87.8687 76.8418 88.6965 78.3375 C92.2805 84.8127 98.6635 87.7660 105.0202 90.8770 C103.0270 91.9807 100.9215 92.8678 98.9157 93.9498 C91.3920 98.0080 88.8125 102.8155 84.8568 110.0768 L84.2110 110.3832 C83.6938 110.1823 83.5690 110.0788 83.2550 109.5912 C82.6602 108.6675 82.2943 107.5320 81.7957 106.5455 C80.3915 103.7655 78.6682 101.1750 76.4975 98.9340 C74.6760 97.0363 72.5793 95.4235 70.2775 94.1500 C68.5330 93.1890 66.1340 92.6740 64.7825 91.2035 C64.7430 91.0182 64.6270 90.8335 64.6642 90.6480 C64.8127 89.9108 71.9637 86.4218 73.2805 85.4753 C78.7105 81.5730 81.0437 76.1725 83.9187 70.3420 Z"></path>
<path id="" fill="#e65c64" fill-opacity="1.0" stroke="#000000" stroke-width="0.0" stroke-opacity="1.0" stroke-linecap="round" stroke-linejoin="round"  filling="0" d="M295.5850 268.3650 C297.1875 269.5975 298.5850 273.9850 299.6800 275.9450 C300.5700 277.5325 301.6200 279.1075 302.8425 280.4575 C306.2675 284.2400 310.8300 285.9775 314.8850 288.8650 L315.1400 289.0475 C313.8075 290.0825 312.1900 290.8650 310.7350 291.7225 C306.3500 294.3125 302.5800 297.2375 299.8575 301.6150 C298.2875 304.1400 297.6475 307.3400 295.9125 309.7125 C295.8725 309.7675 295.8300 309.8200 295.7875 309.8725 C293.9125 307.7925 292.5900 303.6425 291.0600 301.1075 C287.1850 294.6850 281.7250 293.3575 276.4475 289.0550 C276.4050 288.5575 276.5700 288.4475 276.9825 288.1250 C277.7400 287.5300 278.9000 287.0875 279.7575 286.6225 C281.6150 285.6175 283.4525 284.5225 285.1175 283.2225 C292.0725 277.7925 291.3500 274.7775 295.5850 268.3650 Z"></path>
</svg>