<svg xmlns="http://www.w3.org/2000/svg" viewBox="0 0 512 512" height="512.0px" width="512.0px">
<path id="" fill="#e55c64" fill-opacity="1.0" stroke="#000000" stroke-width="0.0" stroke-opacity="1.0" stroke-linecap="round" stroke-linejoin="round"  filling="0" d="M189.9935 83.9193 C193.3528 83.9470 196.7213 84.0063 200.0757 83.7907 C203.7052 83.5577 207.3065 83.0623 210.9475 82.9835 C216.1395 82.8715 221.4438 82.8242 226.6308 83.0493 C229.2375 83.1622 231.8652 83.5923 234.4690 83.6048 C237.7980 83.6210 241.1467 83.0155 244.4925 82.9612 C252.2450 82.8360 319.0000 82.5772 321.1625 83.3310 C321.7425 84.1483 321.8625 85.1130 321.9775 86.0883 C322.3975 89.7133 322.0975 93.6690 322.0900 97.3262 C322.0800 102.9010 322.5575 108.9550 321.6200 114.4465 C320.5675 120.5980 317.5600 125.3350 312.4125 128.9433 C309.5725 130.9345 306.1775 131.6237 302.8475 132.3492 C304.0900 138.2230 303.9300 143.7285 304.2450 149.6620 C304.6350 157.0135 305.6375 164.3548 305.9950 171.7100 C306.2525 176.9948 306.6050 182.2247 306.9650 187.5035 C307.1450 190.1580 307.1150 192.8578 307.4225 195.4993 C308.6125 205.6930 312.6125 214.0157 319.8100 221.2637 C322.2375 223.7095 324.6525 226.0968 327.5575 227.9840 C333.6375 231.9365 340.6550 234.2385 347.4550 236.6003 C351.6275 238.0493 355.7400 239.6698 359.9250 241.0775 C365.9100 243.0912 372.0325 244.8837 377.8000 247.4750 C393.4900 254.5225 404.1875 267.0275 407.8325 283.9425 C408.2400 285.8800 408.6125 287.8275 408.9425 289.7800 C409.4600 294.9800 409.2750 300.9325 408.1700 306.0275 C406.9850 311.5050 405.1575 316.7750 403.5475 322.1350 L393.4725 355.3725 C388.1650 373.5775 382.7425 391.7500 377.2025 409.8850 C374.3550 419.4125 371.4200 432.6200 366.9025 441.1450 C362.2875 449.8550 353.9625 456.2375 344.6175 459.0900 C341.1825 460.1400 337.6300 460.7650 334.0425 460.9500 C324.4200 461.4475 313.7225 461.0075 303.9625 461.0050 L244.8237 461.0000 L200.2415 461.0100 C192.4605 461.0175 184.3177 461.5150 176.5777 460.8475 C170.8100 460.3500 165.4113 458.9250 160.2990 456.1775 C153.7405 452.6525 147.9045 446.3500 144.5163 439.7600 C141.8613 434.5950 140.4890 428.3300 138.8340 422.7700 L131.2173 397.2700 L105.7563 312.8200 C102.3073 301.4900 101.0128 286.3450 106.7913 275.5100 C114.3370 259.4875 123.7090 251.0275 140.5172 244.9767 C147.1438 242.5907 153.7955 240.2753 160.4715 238.0307 C177.5435 232.3217 192.4303 227.1427 200.6490 209.6400 C206.0400 198.1595 205.3342 183.7057 206.1082 171.2260 C206.6015 163.2765 207.3880 155.3300 207.8987 147.3825 C208.2280 142.2615 207.8367 137.4677 209.0278 132.3795 C201.5635 130.6447 197.2202 128.5668 192.9865 121.7937 C191.6983 119.7347 190.8200 117.4467 190.3997 115.0547 C189.6788 111.0695 189.9575 106.7890 189.9630 102.7458 L189.9935 83.9193 Z"></path>
<path id="" fill="#bac3f6" fill-opacity="1.0" stroke="#000000" stroke-width="0.0" stroke-opacity="1.0" stroke-linecap="round" stroke-linejoin="round"  filling="0" d="M189.9935 83.9193 C193.3528 83.9470 196.7213 84.0063 200.0757 83.7907 C203.7052 83.5577 207.3065 83.0623 210.9475 82.9835 C216.1395 82.8715 221.4438 82.8242 226.6308 83.0493 C229.2375 83.1622 231.8652 83.5923 234.4690 83.6048 C237.7980 83.6210 241.1467 83.0155 244.4925 82.9612 C252.2450 82.8360 319.0000 82.5772 321.1625 83.3310 C321.7425 84.1483 321.8625 85.1130 321.9775 86.0883 C322.3975 89.7133 322.0975 93.6690 322.0900 97.3262 C322.0800 102.9010 322.5575 108.9550 321.6200 114.4465 C320.5675 120.5980 317.5600 125.3350 312.4125 128.9433 C309.5725 130.9345 306.1775 131.6237 302.8475 132.3492 C304.0900 138.2230 303.9300 143.7285 304.2450 149.6620 C304.6350 157.0135 305.6375 164.3548 305.9950 171.7100 C306.2525 176.9948 306.6050 182.2247 306.9650 187.5035 C307.1450 190.1580 307.1150 192.8578 307.4225 195.4993 C308.6125 205.6930 312.6125 214.0157 319.8100 221.2637 C322.2375 223.7095 324.6525 226.0968 327.5575 227.9840 C333.6375 231.9365 340.6550 234.2385 347.4550 236.6003 C351.6275 238.0493 355.7400 239.6698 359.9250 241.0775 C365.9100 243.0912 372.0325 244.8837 377.8000 247.4750 C393.4900 254.5225 404.1875 267.0275 407.8325 283.9425 C408.2400 285.8800 408.6125 287.8275 408.9425 289.7800 C408.8150 290.2525 408.8175 290.5100 408.3300 290.7425 C406.4725 291.6325 403.4300 291.8525 401.3825 292.2900 C399.1750 292.7600 397.0350 293.4675 394.8200 293.9300 C389.8800 294.9625 384.8775 295.6500 379.8800 296.3550 C344.6775 301.3125 308.1575 298.0375 273.8450 289.0675 C262.6475 286.1400 251.6750 282.5025 240.5060 279.4975 C222.2047 274.5725 203.3010 270.9775 184.3700 269.8525 C167.2465 268.7975 150.0635 269.2375 133.0163 271.1675 C127.4055 271.8225 121.8188 272.9600 116.2858 274.0875 C113.5208 274.6500 110.6855 275.3850 107.8817 275.7025 C107.4390 275.7525 107.1942 275.6750 106.7913 275.5100 C114.3370 259.4875 123.7090 251.0275 140.5172 244.9767 C147.1438 242.5907 153.7955 240.2753 160.4715 238.0307 C177.5435 232.3217 192.4303 227.1427 200.6490 209.6400 C206.0400 198.1595 205.3342 183.7057 206.1082 171.2260 C206.6015 163.2765 207.3880 155.3300 207.8987 147.3825 C208.2280 142.2615 207.8367 137.4677 209.0278 132.3795 C201.5635 130.6447 197.2202 128.5668 192.9865 121.7937 C191.6983 119.7347 190.8200 117.4467 190.3997 115.0547 C189.6788 111.0695 189.9575 106.7890 189.9630 102.7458 L189.9935 83.9193 Z"></path>
<path id="" fill="#64282b" fill-opacity="1.0" stroke="#000000" stroke-width="0.0" stroke-opacity="1.0" stroke-linecap="round" stroke-linejoin="round"  filling="0" d="M201.4642 308.7950 C201.9580 308.7725 202.4523 308.7725 202.9458 308.7925 C204.7585 308.8625 206.2720 309.4375 207.7402 310.4900 C210.2800 312.3150 212.4785 314.8200 214.6775 317.0350 L224.9455 327.3400 L243.4133 345.7975 C247.1710 349.5575 251.0500 353.2525 254.6125 357.1975 L257.3725 356.9825 C261.7100 353.3550 265.6700 348.7850 269.6850 344.7650 L292.8525 321.6250 C296.2150 318.2250 299.4825 314.4400 303.1325 311.3700 C304.2125 310.4575 305.4350 309.6325 306.7800 309.1750 C308.6750 308.5325 310.6025 308.6875 312.3850 309.5875 C314.0350 310.4225 315.1700 311.5775 315.7175 313.3675 C316.2550 315.1275 316.1975 316.6725 315.2800 318.2875 C313.4350 321.5325 310.4875 324.1700 307.8725 326.7825 C303.6200 331.0375 299.2050 335.1200 294.9425 339.3550 C290.8925 343.3800 287.1500 347.8350 282.8975 351.6400 C279.8825 354.3400 268.2025 364.2675 266.9200 366.9950 C266.5750 367.7250 266.5775 368.6700 267.0225 369.3550 C268.5875 371.7625 273.3500 375.7575 275.6350 378.0375 L300.5525 402.9400 C304.7325 407.1175 309.2400 411.1800 313.1675 415.5850 C314.1800 416.7175 315.4550 418.2175 315.9300 419.6675 C316.3325 420.8975 316.0975 422.3725 315.5350 423.5100 C314.3200 425.9725 312.0175 427.3325 309.4975 428.1200 C308.2250 428.1425 307.0000 428.1300 305.8875 427.4325 C300.7775 424.2325 296.8900 418.7350 292.7425 414.4300 C288.7225 410.2550 284.3150 406.4575 280.3100 402.2875 C275.0675 396.8250 269.8375 391.4025 264.4775 386.0500 C262.1725 383.7475 259.9050 381.0900 257.3375 379.0950 C257.1100 378.9200 256.5400 378.5050 256.2350 378.4900 C255.8650 378.4700 252.6675 381.9275 252.1500 382.4025 C249.9480 384.4200 247.4778 386.1775 245.3712 388.2925 C243.5072 390.1650 241.9133 392.3275 240.1600 394.3025 C237.8855 396.8675 235.3922 399.2750 232.9525 401.6825 C230.4908 404.1100 227.7742 406.2000 225.2145 408.5125 C223.1015 410.4225 221.1082 412.4975 219.0938 414.5100 C217.2487 416.3550 215.3415 418.1700 213.5940 420.1075 C211.9427 421.9375 210.5157 424.0325 208.6480 425.6550 C207.3237 426.8050 205.7815 427.8400 203.9913 428.0225 C201.9868 428.2250 200.1125 427.4600 198.5865 426.1925 C197.3943 425.2050 196.9532 424.1125 196.8275 422.5800 C196.6695 420.6475 197.0160 418.4425 198.0733 416.7900 C200.3672 413.2050 205.6825 408.6975 208.8550 405.5450 L237.0505 377.3775 C240.2305 374.2275 243.8627 371.8775 246.7513 368.3900 C234.4500 355.7575 221.8160 343.4225 209.3555 330.9450 C206.1413 327.7250 197.9117 321.0050 196.1337 317.3225 C195.6420 316.3025 195.9615 314.8650 196.3930 313.8800 C197.3260 311.7550 199.2917 309.6450 201.4642 308.7950 Z"></path>
<path id="" fill="#4d5166" fill-opacity="1.0" stroke="#000000" stroke-width="0.0" stroke-opacity="1.0" stroke-linecap="round" stroke-linejoin="round"  filling="0" d="M207.0623 51.0950 C212.8750 50.6852 218.9340 51.0228 224.7742 51.0218 L259.5800 51.0193 L288.6025 51.0215 C294.7800 51.0225 301.1100 50.7242 307.2525 51.4637 C310.0425 51.7995 312.5125 52.7720 314.7625 54.4595 C318.6625 57.3838 321.1025 61.0450 321.7875 65.9092 C322.3100 69.6110 322.1050 73.4815 322.1000 77.2145 L322.0750 94.5035 C322.0650 100.4453 322.6825 109.7572 321.8200 115.2215 C321.3175 118.4023 320.0375 121.8325 318.0500 124.3897 C314.9350 128.3967 310.1950 129.9765 305.3125 130.5060 L236.7253 130.7760 L218.4010 130.7870 C214.5065 130.7878 210.4807 130.9868 206.6172 130.4742 C202.8105 129.9695 199.1325 128.9570 196.1028 126.4973 C192.7518 123.7767 190.6765 120.1957 190.2235 115.8960 C189.4180 108.2498 189.9487 98.4788 189.9547 90.6490 L189.9568 76.2137 C189.9575 71.9133 189.7328 67.5070 190.6420 63.2767 C191.0970 61.1598 192.5968 58.9012 193.9747 57.2318 C197.3752 53.1125 201.9045 51.5847 207.0623 51.0950 Z"></path>
<path id="" fill="#4d5065" fill-opacity="1.0" stroke="#000000" stroke-width="0.0" stroke-opacity="1.0" stroke-linecap="round" stroke-linejoin="round"  filling="0" d="M223.0202 375.2550 C219.0685 375.0075 215.2550 374.1375 212.4673 371.0650 C211.4045 369.8975 210.6550 368.4825 210.2883 366.9475 C209.4705 363.6375 209.7760 353.1525 210.0720 349.2775 C210.8938 338.5100 217.8338 326.4375 226.0505 319.5225 C236.2713 310.9200 248.6828 307.8950 261.7850 309.1325 C272.3025 310.1250 283.9175 316.0675 290.6075 324.2900 C299.6300 335.3850 302.0550 342.4850 302.1300 356.5950 C302.1475 359.5450 302.4025 362.7775 302.0300 365.6950 C301.6600 368.5725 300.1750 371.1275 297.7975 372.8075 C295.1825 374.6525 292.1150 375.0575 289.0100 375.1325 L289.1150 389.2300 C289.1300 392.6025 289.4725 396.3850 288.6850 399.6725 C288.1925 401.7350 287.1925 403.5450 285.7275 405.0750 C283.6000 407.2975 280.8575 408.1800 277.8400 408.2575 C277.2250 408.2725 276.6775 408.1575 276.0925 407.9825 C275.9150 410.0300 275.2425 411.6600 273.6175 412.9900 C272.1375 414.2000 270.5575 414.7425 268.7375 415.1775 C266.3850 414.4050 264.2000 413.3375 263.0300 411.0175 C262.6325 410.2300 262.4500 409.5825 262.3725 408.7100 L262.0425 408.1850 C260.5425 407.8675 251.1075 407.7225 249.7310 408.2300 C249.6125 409.9775 248.8907 411.6075 247.6385 412.8550 C246.3958 414.0925 244.6610 414.8825 242.8958 414.8650 C241.0047 414.8475 239.0033 413.8850 237.7400 412.4900 C236.4953 411.1150 236.0822 409.8075 236.1275 407.9875 C233.3280 408.5450 230.3188 408.0475 227.9410 406.4225 C225.3443 404.6500 223.7295 401.8675 223.2188 398.7925 C222.6875 395.5900 222.9212 392.1525 222.9332 388.9150 C222.9355 384.3625 222.9645 379.8075 223.0202 375.2550 Z M237.3765 361.6000 C244.6160 360.9500 249.9572 354.5525 249.3078 347.3125 C248.6585 340.0725 242.2640 334.7300 235.0240 335.3775 C227.7810 336.0250 222.4355 342.4225 223.0853 349.6650 C223.7348 356.9075 230.1340 362.2525 237.3765 361.6000 Z M276.8750 361.6025 C284.1450 361.0175 289.5525 354.6300 288.9325 347.3625 C288.3100 340.0975 281.9000 334.7200 274.6350 335.3750 C267.4200 336.0250 262.0875 342.3850 262.7025 349.6025 C263.3200 356.8200 269.6525 362.1850 276.8750 361.6025 Z"></path>
<path id="" fill="#2c2f3b" fill-opacity="1.0" stroke="#000000" stroke-width="0.0" stroke-opacity="1.0" stroke-linecap="round" stroke-linejoin="round"  filling="0" d="M236.1275 407.9875 L236.1467 407.7300 C236.5267 402.1300 235.3468 391.0825 236.5188 386.4250 C236.8555 385.0875 237.4877 383.9400 238.5553 383.0500 C239.9377 381.9200 241.7140 381.3900 243.4892 381.5775 C245.2570 381.7625 246.8740 382.6550 247.9705 384.0550 C251.2175 388.2600 248.2047 405.8875 249.7310 408.2300 C249.6125 409.9775 248.8907 411.6075 247.6385 412.8550 C246.3958 414.0925 244.6610 414.8825 242.8958 414.8650 C241.0047 414.8475 239.0033 413.8850 237.7400 412.4900 C236.4953 411.1150 236.0822 409.8075 236.1275 407.9875 Z"></path>
<path id="" fill="#2c2f3b" fill-opacity="1.0" stroke="#000000" stroke-width="0.0" stroke-opacity="1.0" stroke-linecap="round" stroke-linejoin="round"  filling="0" d="M262.3725 408.7100 C263.5750 406.8875 261.3625 389.8000 263.4175 385.2025 C264.1075 383.6600 265.3375 382.4325 266.9575 381.9000 C268.6575 381.3375 270.8575 381.4325 272.4525 382.2750 C273.9975 383.0900 274.9325 384.5875 275.4075 386.2300 C276.5000 390.0225 275.7600 399.6200 275.7625 403.9825 C275.7625 405.0525 275.5800 406.6975 275.9575 407.6675 C276.0000 407.7725 276.0475 407.8775 276.0925 407.9825 C275.9150 410.0300 275.2425 411.6600 273.6175 412.9900 C272.1375 414.2000 270.5575 414.7425 268.7375 415.1775 C266.3850 414.4050 264.2000 413.3375 263.0300 411.0175 C262.6325 410.2300 262.4500 409.5825 262.3725 408.7100 Z"></path>
<path id="" fill="#2c2f3b" fill-opacity="1.0" stroke="#000000" stroke-width="0.0" stroke-opacity="1.0" stroke-linecap="round" stroke-linejoin="round"  filling="0" d="M235.0240 335.3775 C242.2640 334.7300 248.6585 340.0725 249.3078 347.3125 C249.9572 354.5525 244.6160 360.9500 237.3765 361.6000 C230.1340 362.2525 223.7348 356.9075 223.0853 349.6650 C222.4355 342.4225 227.7810 336.0250 235.0240 335.3775 Z M232.1450 347.5150 C233.4147 348.1600 234.4568 348.9575 235.5705 349.8350 C236.7135 349.9125 237.8460 350.0075 238.9928 349.9650 C239.0380 348.2375 238.6438 347.2025 237.8237 345.6975 C236.0160 344.9900 234.0797 344.0475 232.1237 343.9300 C232.0932 345.1300 232.0668 346.3150 232.1450 347.5150 Z"></path>
<path id="" fill="#2c2f3b" fill-opacity="1.0" stroke="#000000" stroke-width="0.0" stroke-opacity="1.0" stroke-linecap="round" stroke-linejoin="round"  filling="0" d="M274.6350 335.3750 C281.9000 334.7200 288.3100 340.0975 288.9325 347.3625 C289.5525 354.6300 284.1450 361.0175 276.8750 361.6025 C269.6525 362.1850 263.3200 356.8200 262.7025 349.6025 C262.0875 342.3850 267.4200 336.0250 274.6350 335.3750 Z M277.4375 349.8600 C278.8475 348.3900 283.0775 344.9275 283.5050 343.3600 C283.3625 342.9900 283.4100 342.8650 283.0175 342.6750 C282.1375 342.2450 280.8550 342.5275 279.9150 342.6250 C278.3300 343.7600 274.4825 346.5850 274.0600 348.5275 C273.9800 348.9000 274.0025 348.9450 274.0250 349.2800 C274.4175 349.7325 274.6425 349.9925 275.2775 350.0125 C275.9475 350.0350 276.7750 349.9700 277.4375 349.8600 Z"></path>
<path id="" fill="#64282b" fill-opacity="1.0" stroke="#000000" stroke-width="0.0" stroke-opacity="1.0" stroke-linecap="round" stroke-linejoin="round"  filling="0" d="M373.6900 84.2747 C373.9275 84.2507 374.1675 84.2272 374.4075 84.2205 C376.3250 84.1660 378.2300 84.5163 379.6225 85.9342 C382.3500 88.7152 381.5600 93.9293 381.4325 97.4935 C383.3475 97.4460 385.2700 97.3708 387.1850 97.3987 C389.4350 97.4315 391.6050 97.8020 393.2000 99.5415 C394.3575 100.8050 394.8275 102.5795 394.7125 104.2665 C394.5350 106.8098 393.3575 108.4498 391.4850 110.0428 C388.1325 110.7625 384.9350 110.9990 381.5175 110.6450 C381.5650 113.6817 382.0625 117.8603 380.6100 120.6225 C379.5425 122.6533 377.9150 123.3177 375.8550 123.9608 C375.6825 123.9720 375.5100 123.9795 375.3375 123.9828 C373.5150 124.0110 371.4625 123.3205 370.1925 121.9755 C367.5000 119.1225 368.1500 114.3808 368.2075 110.7668 C366.8000 110.8127 365.3925 110.8655 363.9850 110.8668 C361.2625 110.8692 358.4400 110.1953 356.5150 108.1548 C355.3525 106.9258 354.6600 105.2997 354.7975 103.5925 C354.9400 101.8565 355.9200 100.2742 357.2625 99.1978 C360.2500 96.7993 364.7000 97.1212 368.2900 97.5240 C368.1775 94.5370 367.5750 90.3322 369.0500 87.5985 C370.0375 85.7705 371.7600 84.8335 373.6900 84.2747 Z"></path>
<path id="" fill="#64282b" fill-opacity="1.0" stroke="#000000" stroke-width="0.0" stroke-opacity="1.0" stroke-linecap="round" stroke-linejoin="round"  filling="0" d="M135.2750 84.2970 C135.8065 84.2460 136.3432 84.1942 136.8775 84.1938 C138.7233 84.1925 140.5853 84.8077 141.8452 86.1992 C144.4507 89.0765 143.8802 93.8578 143.7120 97.4532 C145.7550 97.4365 147.8245 97.3672 149.8645 97.4633 C151.9880 97.5630 153.9772 98.1198 155.3972 99.7895 C156.5275 101.1292 157.0665 102.8698 156.8915 104.6137 C156.6835 106.3955 155.7657 108.0180 154.3460 109.1143 C151.6325 111.1992 147.0595 111.0295 143.8038 110.6910 C143.8220 113.5505 144.2168 117.1110 143.0240 119.7663 C141.9750 122.1017 140.1463 123.1395 137.8638 123.9815 C137.2955 123.9905 136.7115 123.9855 136.1510 123.8815 C133.7608 123.4390 132.1350 121.7915 130.7357 119.9380 C130.2420 116.8372 130.3358 113.8832 130.4655 110.7620 C128.7133 110.8460 126.9090 110.9110 125.1560 110.8517 C122.7007 110.7685 120.3378 110.2072 118.6367 108.3188 C117.4535 107.0307 116.8425 105.3183 116.9433 103.5720 C117.0413 101.8390 117.9350 100.2470 119.2615 99.1500 C122.2105 96.7110 126.9860 97.1360 130.5522 97.5352 C130.3650 94.5330 129.7765 90.7708 131.0320 87.9597 C131.8853 86.0497 133.3627 85.0055 135.2750 84.2970 Z"></path>
<path id="" fill="#64282b" fill-opacity="1.0" stroke="#000000" stroke-width="0.0" stroke-opacity="1.0" stroke-linecap="round" stroke-linejoin="round"  filling="0" d="M82.8618 143.7845 C83.1168 143.7705 83.3720 143.7623 83.6273 143.7645 C85.6930 143.7812 87.6187 144.0735 89.0915 145.6758 C91.6500 148.4592 91.0905 153.4935 90.9165 157.0030 C94.3542 157.0115 99.3002 156.1178 102.0247 158.6655 C103.3180 159.8750 104.0275 161.5898 104.0923 163.3500 C104.1540 165.0300 103.6115 166.7402 102.4175 167.9500 C99.6533 170.7510 94.4693 170.0797 90.8647 170.0235 C90.9577 173.2612 91.5038 177.6458 89.7012 180.4897 C88.7825 181.9395 87.4252 182.5890 85.8127 183.0020 C85.1367 183.0363 84.4603 183.0538 83.7835 183.0540 C82.1998 183.0403 80.4025 182.2988 79.3188 181.1337 C76.8098 178.4368 77.5822 173.5338 77.7148 170.1405 C74.1000 169.9620 69.0085 170.6732 66.1265 168.0318 C64.8975 166.9055 64.2247 165.2750 64.2112 163.6172 C64.1973 161.8800 64.9495 160.1628 66.1695 158.9368 C68.9173 156.1758 74.1357 156.9787 77.7390 156.9753 C77.6107 153.9740 77.1335 149.7040 78.5768 147.0050 C79.5212 145.2390 81.0092 144.3810 82.8618 143.7845 Z"></path>
<path id="" fill="#64282b" fill-opacity="1.0" stroke="#000000" stroke-width="0.0" stroke-opacity="1.0" stroke-linecap="round" stroke-linejoin="round"  filling="0" d="M425.9550 143.8245 C426.4900 143.7850 427.0250 143.7552 427.5625 143.7350 C429.2875 143.6772 431.0400 144.2525 432.2800 145.4863 C435.0525 148.2430 434.3175 153.4105 434.2675 156.9868 C437.8575 157.0228 442.6000 156.1415 445.5050 158.7720 C446.7650 159.9227 447.4950 161.5417 447.5225 163.2478 C447.5600 164.9920 446.8900 166.6770 445.6700 167.9227 C442.8200 170.8260 438.0975 170.0742 434.3950 170.0085 C434.2550 172.8327 434.6850 176.3040 433.7250 178.9740 C432.9875 181.0217 431.4400 182.1615 429.5125 183.0335 C429.0100 183.0605 428.5050 183.0762 428.0000 183.0805 C426.0325 183.0943 424.1225 182.7272 422.7150 181.2397 C420.2450 178.6285 421.0300 173.3610 421.2000 170.0302 C417.7825 170.1037 412.1875 170.6613 409.5350 168.0795 C408.3425 166.9193 407.9425 165.3065 407.9075 163.6920 C407.8675 161.9348 408.2675 160.1562 409.5625 158.8920 C412.3225 156.1960 417.6825 156.9498 421.2250 157.0287 C420.8875 154.2335 420.5375 150.0098 421.6600 147.4308 C422.5000 145.5022 424.0675 144.5578 425.9550 143.8245 Z"></path>
<path id="" fill="#64282b" fill-opacity="1.0" stroke="#000000" stroke-width="0.0" stroke-opacity="1.0" stroke-linecap="round" stroke-linejoin="round"  filling="0" d="M353.4125 335.1175 C360.7100 334.1500 367.4350 339.2175 368.5200 346.4975 C369.6050 353.7800 364.6475 360.5875 357.3825 361.7875 C352.5800 362.5825 347.7200 360.7250 344.6700 356.9300 C341.6225 353.1325 340.8550 347.9875 342.6675 343.4675 C344.4775 338.9475 348.5850 335.7575 353.4125 335.1175 Z"></path>
<path id="" fill="#64282b" fill-opacity="1.0" stroke="#000000" stroke-width="0.0" stroke-opacity="1.0" stroke-linecap="round" stroke-linejoin="round"  filling="0" d="M149.3490 295.3650 C156.7253 294.7975 163.1805 300.2825 163.8087 307.6525 C164.4370 315.0250 159.0030 321.5250 151.6365 322.2100 C144.1868 322.9050 137.5977 317.3975 136.9625 309.9425 C136.3273 302.4850 141.8890 295.9425 149.3490 295.3650 Z"></path>
<path id="" fill="#64282b" fill-opacity="1.0" stroke="#000000" stroke-width="0.0" stroke-opacity="1.0" stroke-linecap="round" stroke-linejoin="round"  filling="0" d="M167.4332 408.0775 C172.1695 407.1175 177.0555 408.7825 180.2190 412.4350 C183.3822 416.0900 184.3320 421.1625 182.7045 425.7125 C181.0768 430.2625 177.1240 433.5850 172.3613 434.4025 C165.1483 435.6400 158.2762 430.8600 156.9295 423.6675 C155.5830 416.4725 160.2603 409.5300 167.4332 408.0775 Z"></path>
<path id="" fill="#e65c64" fill-opacity="1.0" stroke="#000000" stroke-width="0.0" stroke-opacity="1.0" stroke-linecap="round" stroke-linejoin="round"  filling="0" d="M432.0875 229.5970 C439.3525 228.3205 446.2825 233.1685 447.5725 240.4328 C448.8625 247.6967 444.0300 254.6350 436.7675 255.9400 C429.4850 257.2475 422.5250 252.3975 421.2300 245.1133 C419.9350 237.8288 424.8000 230.8770 432.0875 229.5970 Z"></path>
<path id="" fill="#e65c64" fill-opacity="1.0" stroke="#000000" stroke-width="0.0" stroke-opacity="1.0" stroke-linecap="round" stroke-linejoin="round"  filling="0" d="M75.4335 229.5835 C82.7120 228.3698 89.5988 233.2790 90.8250 240.5558 C92.0510 247.8322 87.1535 254.7275 79.8790 255.9650 C72.5870 257.2075 65.6718 252.2950 64.4425 245.0013 C63.2135 237.7072 68.1373 230.8002 75.4335 229.5835 Z"></path>
<path id="" fill="#e65c64" fill-opacity="1.0" stroke="#000000" stroke-width="0.0" stroke-opacity="1.0" stroke-linecap="round" stroke-linejoin="round"  filling="0" d="M345.8825 163.6152 C353.1675 162.1667 360.2375 166.9323 361.6275 174.2283 C363.0175 181.5245 358.1975 188.5560 350.8900 189.8882 C343.6650 191.2055 336.7275 186.4498 335.3525 179.2352 C333.9800 172.0208 338.6800 165.0475 345.8825 163.6152 Z"></path>
<path id="" fill="#e55c64" fill-opacity="1.0" stroke="#000000" stroke-width="0.0" stroke-opacity="1.0" stroke-linecap="round" stroke-linejoin="round"  filling="0" d="M227.5450 229.5847 C234.8505 228.4438 241.6953 233.4480 242.8242 240.7552 C243.9530 248.0627 238.9375 254.9000 231.6283 256.0150 C224.3362 257.1300 217.5195 252.1275 216.3932 244.8385 C215.2670 237.5485 220.2567 230.7233 227.5450 229.5847 Z"></path>
<path id="" fill="#e65c64" fill-opacity="1.0" stroke="#000000" stroke-width="0.0" stroke-opacity="1.0" stroke-linecap="round" stroke-linejoin="round"  filling="0" d="M160.9010 163.6190 C165.6172 162.6723 170.4785 164.3318 173.6310 167.9650 C176.7835 171.5980 177.7415 176.6445 176.1395 181.1803 C174.5375 185.7157 170.6228 189.0412 165.8875 189.8885 C158.6730 191.1795 151.7640 186.4215 150.3972 179.2210 C149.0302 172.0202 153.7153 165.0615 160.9010 163.6190 Z"></path>
<path id="" fill="#e65c64" fill-opacity="1.0" stroke="#000000" stroke-width="0.0" stroke-opacity="1.0" stroke-linecap="round" stroke-linejoin="round"  filling="0" d="M75.9698 64.3525 C83.3285 63.4320 90.0305 68.6770 90.9055 76.0413 C91.7805 83.4055 86.4942 90.0748 79.1248 90.9045 C71.8192 91.7267 65.2202 86.4965 64.3530 79.1960 C63.4855 71.8958 68.6750 65.2647 75.9698 64.3525 Z"></path>
<path id="" fill="#e65c64" fill-opacity="1.0" stroke="#000000" stroke-width="0.0" stroke-opacity="1.0" stroke-linecap="round" stroke-linejoin="round"  filling="0" d="M432.4875 64.3935 C439.8125 63.3515 446.5900 68.4650 447.6000 75.7962 C448.6100 83.1275 443.4650 89.8822 436.1300 90.8590 C428.8400 91.8297 422.1375 86.7255 421.1350 79.4400 C420.1325 72.1545 425.2050 65.4287 432.4875 64.3935 Z"></path>
<path id="" fill="#e55c64" fill-opacity="1.0" stroke="#000000" stroke-width="0.0" stroke-opacity="1.0" stroke-linecap="round" stroke-linejoin="round"  filling="0" d="M294.2725 236.1178 C301.6425 235.3468 308.2325 240.7255 308.9500 248.1010 C309.6700 255.4775 304.2450 262.0275 296.8625 262.6925 C289.5575 263.3525 283.0875 257.9925 282.3750 250.6925 C281.6625 243.3895 286.9775 236.8813 294.2725 236.1178 Z"></path>
<path id="" fill="#64282b" fill-opacity="1.0" stroke="#000000" stroke-width="0.0" stroke-opacity="1.0" stroke-linecap="round" stroke-linejoin="round"  filling="0" d="M188.8423 315.2150 C192.5822 314.5750 196.1375 317.0725 196.8020 320.8100 C197.4668 324.5450 194.9915 328.1150 191.2605 328.8050 C187.4945 329.5000 183.8820 326.9975 183.2110 323.2275 C182.5403 319.4575 185.0675 315.8600 188.8423 315.2150 Z"></path>
<path id="" fill="#64282b" fill-opacity="1.0" stroke="#000000" stroke-width="0.0" stroke-opacity="1.0" stroke-linecap="round" stroke-linejoin="round"  filling="0" d="M334.2350 394.8325 C335.6025 394.7800 337.1025 394.7650 338.3675 395.3475 C340.0125 396.1025 341.2825 397.3800 341.8775 399.1050 C342.5050 400.9175 342.3400 402.9100 341.4225 404.5950 C340.3700 406.4875 338.8525 407.3600 336.8400 407.9775 C335.3100 408.2125 333.9050 408.0725 332.3950 407.8325 C331.1525 406.9150 330.1825 405.8650 329.2150 404.6800 C328.6850 401.9350 328.7025 399.4950 329.8300 396.8825 C331.2575 395.6275 332.4125 395.1975 334.2350 394.8325 Z"></path>
<path id="" fill="#64282b" fill-opacity="1.0" stroke="#000000" stroke-width="0.0" stroke-opacity="1.0" stroke-linecap="round" stroke-linejoin="round"  filling="0" d="M174.9680 361.7950 C177.3440 361.1975 179.8578 361.9225 181.5493 363.6950 C183.2405 365.4675 183.8483 368.0125 183.1400 370.3600 C182.4320 372.7050 180.5175 374.4875 178.1277 375.0300 C175.5715 375.6075 172.9105 374.6650 171.2867 372.6075 C169.6628 370.5525 169.3647 367.7450 170.5205 365.3925 C171.4023 363.5975 173.0287 362.2825 174.9680 361.7950 Z"></path>
<path id="" fill="#64282b" fill-opacity="1.0" stroke="#000000" stroke-width="0.0" stroke-opacity="1.0" stroke-linecap="round" stroke-linejoin="round"  filling="0" d="M315.3025 354.8300 C318.1050 354.7425 320.6725 356.3850 321.7675 358.9675 C322.6300 361.0025 322.4450 363.3325 321.2750 365.2075 C320.1050 367.0850 318.0925 368.2725 315.8825 368.3925 C313.4450 368.5250 311.1225 367.3350 309.8025 365.2775 C308.4850 363.2225 308.3725 360.6150 309.5100 358.4525 C310.6475 356.2925 312.8600 354.9075 315.3025 354.8300 Z"></path>
<path id="" fill="#64282b" fill-opacity="1.0" stroke="#000000" stroke-width="0.0" stroke-opacity="1.0" stroke-linecap="round" stroke-linejoin="round"  filling="0" d="M234.6540 150.3047 C238.3017 149.4965 241.9102 151.8112 242.6970 155.4635 C243.4835 159.1160 241.1475 162.7108 237.4905 163.4755 C233.8640 164.2340 230.3058 161.9218 229.5258 158.3000 C228.7457 154.6780 231.0370 151.1062 234.6540 150.3047 Z"></path>
<path id="" fill="#64282c" fill-opacity="1.0" stroke="#000000" stroke-width="0.0" stroke-opacity="1.0" stroke-linecap="round" stroke-linejoin="round"  filling="0" d="M235.3595 189.8960 C238.9888 189.4210 242.3273 191.9473 242.8568 195.5688 C243.3862 199.1905 240.9108 202.5665 237.2975 203.1508 C234.9113 203.5363 232.5022 202.6065 230.9940 200.7175 C229.4857 198.8285 229.1122 196.2735 230.0165 194.0318 C230.9210 191.7903 232.9628 190.2095 235.3595 189.8960 Z"></path>
<path id="" fill="#64282b" fill-opacity="1.0" stroke="#000000" stroke-width="0.0" stroke-opacity="1.0" stroke-linecap="round" stroke-linejoin="round"  filling="0" d="M280.5600 176.9415 C284.0950 175.9017 287.8050 177.9155 288.8575 181.4455 C289.9125 184.9755 287.9125 188.6930 284.3875 189.7603 C280.8400 190.8333 277.0975 188.8208 276.0400 185.2713 C274.9800 181.7215 277.0075 177.9870 280.5600 176.9415 Z"></path>
<path id="" fill="#64282c" fill-opacity="1.0" stroke="#000000" stroke-width="0.0" stroke-opacity="1.0" stroke-linecap="round" stroke-linejoin="round"  filling="0" d="M261.2575 150.3110 C264.8675 149.5788 268.3875 151.9140 269.1150 155.5253 C269.8450 159.1362 267.5050 162.6537 263.8925 163.3788 C260.2875 164.1025 256.7750 161.7677 256.0475 158.1617 C255.3200 154.5560 257.6525 151.0423 261.2575 150.3110 Z"></path>
<path id="" fill="#64282b" fill-opacity="1.0" stroke="#000000" stroke-width="0.0" stroke-opacity="1.0" stroke-linecap="round" stroke-linejoin="round"  filling="0" d="M261.5700 203.0652 C265.1975 202.4975 268.6000 204.9747 269.1725 208.6017 C269.7475 212.2287 267.2750 215.6348 263.6500 216.2140 C260.0150 216.7945 256.6000 214.3158 256.0250 210.6808 C255.4500 207.0457 257.9350 203.6342 261.5700 203.0652 Z"></path>
</svg>