<svg xmlns="http://www.w3.org/2000/svg" viewBox="0 0 512 512" height="512.0px" width="512.0px">
<path id="" fill="#99a1ca" fill-opacity="1.0" stroke="#000000" stroke-width="0.0" stroke-opacity="1.0" stroke-linecap="round" stroke-linejoin="round"  filling="0" d="M143.9758 262.9675 L335.2650 263.0100 L409.7525 263.0075 C422.5225 263.0075 435.4275 263.4375 448.1725 262.9325 C447.8275 274.0950 448.0725 285.3325 448.0700 296.5050 L448.0875 354.6475 C448.0275 362.4175 448.0125 370.1875 448.0425 377.9575 C448.0425 383.7100 447.9150 389.5000 448.1000 395.2500 C447.8150 408.9200 448.0775 422.6650 448.0725 436.3425 L448.0725 451.3575 C448.0725 454.5725 447.9475 457.8425 448.2825 461.0425 C429.9075 460.7200 411.4825 460.9925 393.1050 460.9900 L288.8450 460.9825 L194.7547 460.9850 C177.8477 460.9825 160.8870 460.7025 143.9855 461.0550 L143.9865 395.2550 L143.9955 354.5075 L143.9758 262.9675 Z"></path>
<path id="" fill="#99a0ca" fill-opacity="1.0" stroke="#000000" stroke-width="0.0" stroke-opacity="1.0" stroke-linecap="round" stroke-linejoin="round"  filling="0" d="M143.9758 262.9675 L335.2650 263.0100 L409.7525 263.0075 C422.5225 263.0075 435.4275 263.4375 448.1725 262.9325 C447.8275 274.0950 448.0725 285.3325 448.0700 296.5050 L448.0875 354.6475 C445.9125 354.5200 443.6550 354.7725 441.4700 354.7775 L424.2925 354.7625 L369.4525 354.7875 L210.5900 354.7525 L166.3045 354.7750 C158.8683 354.7475 151.4200 355.0075 143.9955 354.5075 L143.9758 262.9675 Z"></path>
<path id="" fill="#c6a659" fill-opacity="1.0" stroke="#000000" stroke-width="0.0" stroke-opacity="1.0" stroke-linecap="round" stroke-linejoin="round"  filling="0" d="M448.0875 354.6475 C448.0275 362.4175 448.0125 370.1875 448.0425 377.9575 C448.0425 383.7100 447.9150 389.5000 448.1000 395.2500 C445.2125 395.4475 442.1600 395.2125 439.2500 395.1975 L421.6675 395.1400 L370.9500 395.0975 L217.7493 395.1700 L172.6647 395.1775 C163.1517 395.1450 153.4815 394.8525 143.9865 395.2550 L143.9955 354.5075 C151.4200 355.0075 158.8683 354.7475 166.3045 354.7750 L210.5900 354.7525 L369.4525 354.7875 L424.2925 354.7625 L441.4700 354.7775 C443.6550 354.7725 445.9125 354.5200 448.0875 354.6475 Z"></path>
<path id="" fill="#eba559" fill-opacity="1.0" stroke="#000000" stroke-width="0.0" stroke-opacity="1.0" stroke-linecap="round" stroke-linejoin="round"  filling="0" d="M169.0932 375.5350 C172.2547 373.5525 176.6125 369.1925 179.8705 368.1925 C182.7263 367.3175 186.0155 368.1800 188.6142 369.4925 C193.9158 372.1650 200.4138 377.7425 202.7827 383.3325 C203.7320 385.5725 204.0910 387.9875 204.8975 390.2650 C206.4305 394.5950 208.0145 392.0600 210.8793 393.3775 L210.9377 393.7275 C210.2693 394.4550 209.0965 394.8400 208.2050 395.2500 C209.0703 398.9500 209.4950 402.9750 209.7620 406.7675 C210.1225 411.8825 210.2210 417.3950 209.6373 422.4925 C208.3307 433.9000 203.6280 446.8250 196.0302 455.5700 L196.0157 459.9125 C193.7975 459.7125 191.6192 460.0525 189.4048 460.0050 C185.3423 461.0800 181.5842 461.0650 177.4180 460.9750 C176.8455 460.0450 176.1523 458.5500 175.1535 458.0450 C173.6525 457.2850 171.2590 458.7250 169.7525 459.2525 C169.3550 458.8525 168.3825 457.5800 167.7518 457.6525 C167.2782 457.7050 166.1203 458.4875 165.6195 458.7425 C162.5853 460.2750 159.6225 461.1825 156.1905 461.1850 C149.6783 461.1875 146.2332 455.6900 144.0853 455.7975 C140.7000 455.9650 137.1443 461.6850 129.2052 460.8675 C124.4408 460.3800 120.3343 457.9975 117.3197 454.3300 C114.1703 457.6325 110.6370 460.2475 105.9830 460.7975 C100.2307 461.4775 95.0355 458.5200 90.6642 455.1275 C87.2180 458.0800 82.9300 460.6275 78.2718 460.7825 C73.4648 460.9450 68.5375 458.8050 65.0625 455.5550 C54.9557 446.0975 51.5955 429.4775 51.1223 416.1475 C50.6835 403.7850 54.9860 383.9800 63.6445 374.8200 C67.2135 371.0450 72.7402 368.2675 77.9812 368.1400 C83.4457 368.0075 87.0865 370.5225 90.8765 374.1425 C90.9270 374.0925 90.9767 374.0425 91.0280 373.9925 C96.9207 368.3575 105.4370 366.1350 112.6500 370.5150 C113.7020 371.1525 116.2320 373.6300 117.2920 373.6575 C119.7970 373.7225 123.1905 367.6850 131.1552 367.9675 C136.0720 368.1425 139.9345 370.1525 143.2455 373.7150 C144.5818 373.0400 145.8578 372.2400 147.1855 371.5425 C151.6613 369.1950 157.7838 367.9425 162.6950 369.5925 C165.7083 370.6025 167.6900 372.7775 169.0932 375.5350 Z"></path>
<path id="" fill="#99a1ca" fill-opacity="1.0" stroke="#000000" stroke-width="0.0" stroke-opacity="1.0" stroke-linecap="round" stroke-linejoin="round"  filling="0" d="M189.4048 460.0050 C191.5327 458.4300 193.8685 457.1300 196.0302 455.5700 L196.0157 459.9125 C193.7975 459.7125 191.6192 460.0525 189.4048 460.0050 Z"></path>
<path id="" fill="#fed471" fill-opacity="1.0" stroke="#000000" stroke-width="0.0" stroke-opacity="1.0" stroke-linecap="round" stroke-linejoin="round"  filling="0" d="M262.1500 262.9450 C277.6700 263.2550 293.2450 263.0025 308.7725 262.9975 C314.3525 262.9925 324.0575 262.4650 329.1700 263.2975 C329.5075 263.8075 329.6900 264.2225 329.6825 264.8500 C329.6675 265.7300 329.3900 266.6375 329.2725 267.5150 C329.0850 268.9150 329.0950 270.3825 329.0550 271.7950 C328.8400 279.5050 328.9975 287.2600 329.0025 294.9750 C329.0100 312.8900 329.2900 330.8500 329.0050 348.7600 C328.9425 352.7400 328.3925 356.6550 328.1550 360.6200 C327.9325 364.3425 328.0475 368.1275 328.0475 371.8600 C328.0450 376.9250 327.9275 382.0375 328.1550 387.0975 C328.3600 391.6875 328.9200 396.2450 328.9850 400.8450 C329.2650 420.8950 329.0025 440.9850 329.0175 461.0400 L325.4650 460.9975 C318.9625 461.0000 263.8925 461.5425 262.5225 460.5375 C261.5700 454.1375 262.1625 444.9600 262.1600 438.2725 L262.2050 395.1550 C261.6625 395.0500 261.1225 394.9375 260.5825 394.8175 C259.8300 394.6450 258.9675 394.4425 258.5325 393.7500 L258.8025 393.3450 C260.0650 392.8125 261.3750 392.9175 262.7225 392.9175 C262.9800 382.5650 263.1775 372.1400 262.9050 361.7875 C262.7800 357.0450 262.1975 352.3325 262.1500 347.5875 C262.0175 334.3950 262.1425 321.1875 262.1475 307.9925 L262.1500 262.9450 Z"></path>
<path id="" fill="#4d5065" fill-opacity="1.0" stroke="#000000" stroke-width="0.0" stroke-opacity="1.0" stroke-linecap="round" stroke-linejoin="round"  filling="0" d="M138.6288 229.3613 C148.1353 228.8042 157.8757 229.2233 167.4090 229.2242 L221.5720 229.2230 L389.3100 229.2278 L439.7225 229.2100 C446.8350 229.1987 454.1750 229.8223 461.2475 229.3095 C460.8550 232.5460 461.0200 235.8995 461.0200 239.1568 L461.0250 254.3900 L461.0375 271.7475 C461.0400 275.3075 460.8975 278.9375 461.2375 282.4825 C458.7650 282.4600 456.2850 282.5050 453.8125 282.5175 L231.7235 282.8400 L160.3127 282.8375 C155.7430 282.8675 151.1727 282.8425 146.6035 282.7575 C141.2575 282.6250 135.8873 282.3225 130.5430 282.6375 C130.1965 264.9250 130.1862 247.2103 130.5117 229.4993 C133.2180 229.5022 135.9243 229.4563 138.6288 229.3613 Z"></path>
<path id="" fill="#be4c53" fill-opacity="1.0" stroke="#000000" stroke-width="0.0" stroke-opacity="1.0" stroke-linecap="round" stroke-linejoin="round"  filling="0" d="M295.7600 213.7637 C297.3350 214.0632 298.6550 214.8958 299.9325 215.8330 C303.4850 218.4440 306.7750 221.6290 310.1750 224.4520 C313.2775 227.0255 316.5375 229.4580 319.5525 232.1285 C322.2825 234.5450 324.8100 237.2578 327.3875 239.8383 C338.2350 250.6975 346.6100 260.9875 351.7900 275.6425 C352.9375 278.8825 354.1525 282.2400 354.6375 285.6500 C355.1075 288.9250 354.9850 292.3450 354.9950 295.6500 C355.0025 299.0050 355.0650 302.3875 354.6925 305.7275 C353.5050 316.3975 348.8150 326.9550 342.3925 335.5075 C337.6000 329.3575 333.6300 322.5925 329.2125 316.1725 C323.1000 321.2925 316.5825 326.4175 309.9125 330.7825 C308.9725 331.4000 307.4575 332.3900 306.3000 332.1575 C305.8600 331.6000 305.8275 331.4350 305.9775 330.7325 C306.5350 328.1000 308.3375 325.2975 309.3850 322.7900 C312.3850 315.6175 314.4000 307.8675 314.9050 300.1050 C315.2350 295.0200 314.8050 289.9950 313.9550 284.9825 C311.9550 273.1525 309.3625 267.4175 303.2100 257.3725 C301.2425 254.1575 299.2275 250.8000 296.7325 247.9662 C296.1675 247.7527 295.8050 247.6300 295.1975 247.6772 C293.5875 248.5573 287.2775 258.9925 285.9075 261.3525 C283.7050 265.1475 281.4800 269.4200 280.0550 273.5700 C275.9950 285.3875 275.0600 301.4600 278.7250 313.4750 C279.5250 316.0950 280.3100 318.8725 281.3875 321.3900 C282.5625 324.1350 284.3325 326.8750 285.0375 329.7775 C285.2450 330.6325 285.4325 331.4425 284.9900 332.2100 C282.0525 332.7050 268.6500 319.8150 264.4825 318.0875 C263.3325 317.6100 261.8075 317.7125 260.5725 317.6900 C257.2375 321.7575 252.5400 332.0775 248.9348 334.5675 C248.8587 334.5500 248.7800 334.5450 248.7070 334.5200 C247.0930 333.9300 243.6795 327.9450 242.8685 326.1725 C241.0685 322.2375 239.3257 318.0575 238.2190 313.8750 C234.8882 301.2900 235.3925 286.1100 239.9203 273.9000 C242.0802 268.0775 247.0375 260.0400 250.8900 255.1275 C253.9800 251.1900 257.4750 247.1600 260.9700 243.5797 C263.9900 240.4845 267.2500 237.7758 270.4325 234.8703 C272.2775 233.1885 273.9525 231.3297 275.8025 229.6495 C279.7375 226.0705 283.8925 222.6682 288.0125 219.3050 C290.4075 217.3513 292.9300 215.0482 295.7600 213.7637 Z"></path>
<path id="" fill="#e55c64" fill-opacity="1.0" stroke="#000000" stroke-width="0.0" stroke-opacity="1.0" stroke-linecap="round" stroke-linejoin="round"  filling="0" d="M222.8060 186.3315 C226.8748 185.5420 235.3380 187.7937 239.6548 188.6090 L274.8950 195.3423 L286.5000 197.6835 C288.9575 198.1930 291.4900 198.8783 293.9950 199.0677 C299.0475 199.4492 310.9350 196.3900 316.4075 195.3033 C326.2625 193.3530 336.1300 191.4780 346.0125 189.6780 C351.7200 188.6135 357.4800 187.3375 363.2350 186.5793 C367.8975 185.9645 372.2175 186.4810 376.0250 189.4733 C379.2750 192.0190 381.3625 195.7650 381.8175 199.8670 C382.2300 203.3270 382.0125 206.9003 381.9875 210.3777 L381.8125 228.5450 C381.8000 234.0730 382.5025 242.1865 381.6825 247.2640 C381.2800 249.7603 380.1175 252.1550 378.5475 254.1275 C375.7775 257.6100 371.7000 259.4225 367.3425 259.9175 C362.6100 259.8900 357.8850 258.6475 353.2575 257.7425 C349.4775 257.0025 345.6500 256.5525 341.8750 255.8000 C338.4400 255.1175 335.0750 254.0800 331.6525 253.3200 C321.3625 251.0350 310.9325 249.1440 300.6000 247.0432 C298.7025 246.6575 296.8650 246.3398 294.9175 246.4492 C289.3375 246.7630 283.6025 248.4957 278.1175 249.5513 C270.7825 250.9625 263.1500 251.8925 256.0050 254.1000 C253.6700 254.8200 251.7900 255.7525 249.7520 257.1025 C249.1200 256.7775 248.3755 256.3250 247.6610 256.2375 C243.9760 255.7875 232.9930 258.8000 228.6828 259.5400 C224.0615 260.3325 219.8822 259.8175 216.0117 257.0150 C212.1133 254.1925 210.3033 250.3475 209.6062 245.6718 C209.0278 241.7905 209.7640 238.0120 209.7188 234.1288 C209.6280 226.3517 209.4337 218.5972 209.4507 210.8138 C209.4605 206.3488 209.2592 201.7632 210.0833 197.3570 C210.4442 195.4258 211.5200 193.6135 212.7003 192.0575 C215.2227 188.7315 218.7238 186.8905 222.8060 186.3315 Z"></path>
<path id="" fill="#4d5166" fill-opacity="1.0" stroke="#000000" stroke-width="0.0" stroke-opacity="1.0" stroke-linecap="round" stroke-linejoin="round"  filling="0" d="M325.7750 55.1045 C331.4975 54.7045 345.6600 55.6345 350.7975 58.2323 C351.3600 58.5172 351.6675 58.6820 351.9275 59.2840 C352.6725 61.0033 352.5400 63.7695 352.7575 65.6390 C353.0350 68.0155 353.4400 70.3230 354.1800 72.6032 C355.2900 76.0335 357.7900 82.3637 361.2450 83.9608 C361.9500 84.2870 362.4975 84.2895 363.2200 83.9750 C366.4575 82.5623 369.6175 69.5395 371.0850 66.1510 L371.2075 65.8705 C373.7250 68.4025 376.2850 71.3997 379.3625 73.2455 C384.8650 76.5453 390.5775 75.2387 396.4150 73.8250 C394.3950 79.8080 391.7050 85.8408 390.3975 92.0123 C391.2775 93.6657 391.9150 94.3060 393.5950 95.1657 C400.9825 93.6793 405.6850 89.9330 410.8100 84.6625 C412.2775 83.1535 413.7125 81.4185 415.4825 80.2728 C418.9275 81.3098 422.1150 82.7182 425.2850 84.4163 C445.1875 95.0762 454.2850 109.4252 460.7050 130.5573 L460.4475 130.4362 L460.0175 130.2392 C451.7900 126.3990 441.1475 123.1923 432.1875 125.9258 C426.0300 128.1490 420.9700 132.3172 417.1550 137.6645 C416.0125 139.2672 415.1925 141.1305 413.8725 142.5927 C413.5500 142.6400 413.3175 142.7632 413.0275 142.5570 C412.5475 142.2160 412.1775 141.7050 411.6275 141.4382 C409.2550 140.2867 405.3875 139.3022 402.7450 138.3878 C398.9875 137.0878 395.1800 135.7070 391.2525 135.0392 C379.9525 133.1183 369.0950 136.9105 361.3225 145.2665 C360.1875 146.4850 356.9500 151.1635 355.6200 151.4985 C355.3525 149.5538 355.5225 147.5347 355.5200 145.5728 C355.5175 140.5668 354.4250 135.8525 352.1275 131.3945 C344.3175 116.2480 329.6700 113.4822 314.9100 108.6795 C315.4725 104.4745 316.1125 100.1588 315.5775 95.9167 C314.2200 85.0918 305.2475 77.1480 295.3000 73.9603 C293.0850 73.2507 287.9600 72.3108 286.6575 70.5330 C286.7375 70.3037 286.7425 70.2428 286.9125 70.0230 C288.1350 68.4528 291.0125 67.0843 292.7400 66.0683 C303.1475 59.9507 313.6875 56.0825 325.7750 55.1045 Z"></path>
<path id="" fill="#4d5166" fill-opacity="1.0" stroke="#000000" stroke-width="0.0" stroke-opacity="1.0" stroke-linecap="round" stroke-linejoin="round"  filling="0" d="M161.9122 51.1105 C164.3855 50.9945 166.9255 51.1852 169.3853 51.4415 C177.4763 52.2842 184.9547 54.6310 192.2153 58.2578 C194.0022 59.1505 196.2117 60.1078 197.4965 61.6833 C197.5895 62.6452 196.5710 62.9870 195.7878 63.3890 C193.7402 64.4392 191.5262 65.1758 189.4325 66.1322 C185.1127 68.1057 180.9382 71.7335 178.2985 75.6728 C174.1138 81.9175 174.8233 89.9485 176.1720 96.9740 C166.9612 101.0515 157.2608 104.3715 150.3783 112.0560 C144.1577 119.0010 143.3790 126.9835 143.8853 135.9507 C141.7805 134.9155 140.2210 133.5055 138.4803 131.9727 C134.8205 128.7500 131.3155 126.3553 126.5105 125.1862 C117.2517 122.9337 109.7383 125.9700 101.3865 129.5465 C98.4995 130.7830 95.4342 131.8605 92.7375 133.4798 C91.4212 132.1660 90.3118 130.5542 89.1420 129.1025 C85.4532 124.5245 81.6722 121.8123 75.9440 120.3438 C68.9240 119.1208 63.2030 120.9763 56.8333 123.7332 C55.7162 124.2168 54.0208 125.2193 52.8262 125.2475 C52.3710 125.2582 52.5450 125.2947 52.1900 124.9522 C51.3307 120.7835 56.5080 108.9518 58.4868 105.2745 C64.2225 94.6140 75.0370 83.1490 86.9110 79.5790 C88.7903 80.6827 90.3885 82.2675 91.9990 83.7190 C96.2625 87.5612 100.2328 89.5000 105.7640 91.1048 C106.1848 90.9865 106.6020 90.8557 107.0153 90.7133 C108.5997 90.1548 109.0580 89.0988 109.7500 87.6738 C109.2170 85.9145 108.2957 84.2022 107.5425 82.5253 C106.1250 79.3695 104.7353 76.2282 103.5847 72.9630 C116.3525 73.7777 115.1762 72.1550 124.1633 64.7410 C126.4207 64.9937 129.3135 76.1367 131.4787 78.3085 C132.0390 78.8705 132.6575 79.1910 133.4730 79.1565 C134.3652 79.1185 135.2603 78.4635 135.8358 77.8293 C136.9012 76.6550 137.5108 75.0713 138.0965 73.6190 C140.4523 67.7767 140.5108 62.2735 140.0820 56.0735 C145.8517 53.0180 155.3537 51.4825 161.9122 51.1105 Z"></path>
<path id="" fill="#4d5166" fill-opacity="1.0" stroke="#000000" stroke-width="0.0" stroke-opacity="1.0" stroke-linecap="round" stroke-linejoin="round"  filling="0" d="M218.4973 97.8545 C224.6788 96.8020 232.0220 98.3578 237.9662 100.0407 C238.5115 105.7628 239.2267 110.9668 242.3322 115.9490 C242.9625 116.9603 243.9020 118.2083 245.1855 118.3593 C248.6808 118.7705 249.4223 108.8962 251.6325 106.8557 C253.1775 106.5360 255.8250 109.4847 257.2675 110.3705 C261.0575 112.6975 265.5725 111.9890 269.6725 111.0287 C268.4900 114.2550 265.4375 121.0847 265.7075 124.4088 C265.7775 125.2653 266.0575 125.6537 266.6950 126.1982 C267.9900 126.4918 269.0675 126.0338 270.2550 125.5527 C273.6950 124.1605 276.2700 122.1642 278.9225 119.6155 C280.3025 118.2903 281.7425 116.7015 283.4725 115.8508 C285.6225 116.0307 287.7650 117.2655 289.6525 118.2455 C304.1975 125.7995 310.7050 136.4187 315.5325 151.6380 C309.6050 148.4048 302.0550 146.0745 295.3675 147.9747 C291.2100 148.9637 287.1200 152.7705 284.6825 156.1387 C283.9800 157.1100 283.5325 158.3855 282.7900 159.2860 C282.3300 159.8468 282.1750 159.8008 281.4875 159.6447 C280.1175 159.3338 278.7325 158.6113 277.4125 158.1120 C272.6725 156.3200 267.8000 154.4065 262.6775 154.2115 C248.0745 153.6557 243.7105 164.9695 240.9552 165.4390 C240.6068 164.9928 240.4710 159.1415 240.1645 157.7688 C239.3457 154.0627 237.6365 150.6120 235.1840 147.7153 C233.2045 145.3730 230.9005 143.3438 228.2162 141.8460 C226.3627 140.8120 224.3943 140.0128 222.4052 139.2820 C220.0255 138.4080 213.8970 137.1413 212.4225 135.5715 C211.0995 134.1630 215.2117 120.9140 203.5330 113.6697 C201.3605 112.3223 198.8160 111.3418 196.3698 110.6295 C195.2490 110.3033 193.9810 110.1622 192.9240 109.6687 C192.4603 109.4520 192.4015 109.3053 192.0950 108.9190 C192.1685 108.3060 192.2332 108.1415 192.6577 107.6577 C193.7200 106.4473 195.4512 105.6468 196.8465 104.8607 C203.7012 100.9990 210.6145 98.5150 218.4973 97.8545 Z"></path>
<path id="" fill="#592427" fill-opacity="1.0" stroke="#000000" stroke-width="0.0" stroke-opacity="1.0" stroke-linecap="round" stroke-linejoin="round"  filling="0" d="M315.7625 248.2988 C315.0850 250.6875 313.8875 253.0600 311.8700 254.5825 C310.8900 255.3200 310.0100 255.6700 308.7975 255.8625 C304.1475 256.6050 298.8875 256.1175 294.1625 256.1275 C290.7300 256.1350 286.7425 256.5325 283.3675 256.0075 C281.0450 255.6450 278.6050 254.4450 277.2075 252.5075 C276.2900 251.2350 276.1575 249.8310 276.0375 248.3138 C275.7450 244.6447 275.9275 240.8555 275.9325 237.1747 L275.9275 218.6095 L275.9200 204.1350 C275.9200 201.5918 275.6625 198.6480 276.1500 196.1608 C276.5425 194.1658 278.1725 192.2502 279.8900 191.2340 C281.0125 190.5703 282.3725 190.2325 283.6550 190.0720 C287.3850 189.6053 306.2475 189.6610 309.2250 190.4510 C312.1925 191.2388 313.9200 193.0527 315.3950 195.6570 C315.7750 196.8170 315.8675 197.9877 315.9275 199.1983 C316.4050 208.7773 316.0050 218.5493 315.9975 228.1552 C315.9925 234.2428 316.5000 242.3878 315.7625 248.2988 Z"></path>
<path id="" fill="#74512c" fill-opacity="1.0" stroke="#000000" stroke-width="0.0" stroke-opacity="1.0" stroke-linecap="round" stroke-linejoin="round"  filling="0" d="M103.5742 414.0700 C103.8475 414.0525 104.1210 414.0400 104.3945 414.0300 C115.6830 413.6625 127.0822 413.9900 138.3802 413.9925 C143.6313 413.9925 153.7140 413.4175 158.3425 414.3300 C159.8040 414.6175 160.9840 415.3150 162.0450 416.3675 C163.2785 417.5950 164.0148 419.2750 163.9745 421.0225 C163.9238 423.2225 162.5350 425.3250 160.9645 426.7775 C158.7357 428.8425 153.6248 428.1100 150.7510 428.0075 C150.7598 428.0750 150.7695 428.1425 150.7775 428.2125 C151.1655 431.5125 151.1245 436.1275 148.9200 438.8200 C147.6010 440.4300 146.1275 440.9900 144.1130 441.1775 C142.0638 441.0475 140.0935 440.6600 138.6492 439.0650 C136.2040 436.3600 136.9130 431.4250 137.0143 428.0425 C132.6958 428.1050 128.3768 428.1100 124.0583 428.0600 C124.2950 431.5300 124.8928 436.2175 122.4068 438.9850 C121.1267 440.4100 119.2560 441.1875 117.3525 441.2300 C115.4005 441.2725 113.5905 440.4500 112.2632 439.0325 C109.4225 435.9975 110.0720 431.7875 110.2795 428.0025 C107.3870 428.1500 104.4877 428.0975 101.6022 427.8450 C99.6248 426.5975 97.8510 424.7300 97.2437 422.4150 C96.8070 420.7475 97.1277 419.0375 98.0318 417.5850 C99.3053 415.5400 101.3165 414.5825 103.5742 414.0700 Z"></path>
<path id="" fill="#77ab38" fill-opacity="1.0" stroke="#000000" stroke-width="0.0" stroke-opacity="1.0" stroke-linecap="round" stroke-linejoin="round"  filling="0" d="M119.7045 329.0425 C120.7018 328.9200 121.7790 329.2300 122.7030 329.5850 C130.9418 332.7600 137.8078 341.3225 141.1333 349.2750 C143.7522 355.5375 145.3400 366.0325 142.7165 372.4975 C142.5692 372.6350 142.4668 372.8500 142.2745 372.9125 C141.7980 373.0650 138.0025 370.4775 137.2007 370.1175 C133.7063 368.5575 129.9805 368.9500 126.2595 369.0225 L123.3043 369.3300 C121.3248 359.2275 115.5650 350.0225 106.8445 344.3950 C105.1225 343.2825 99.1135 340.6025 98.3582 339.0025 C98.4030 338.7675 98.4150 338.6225 98.5355 338.3975 C99.3353 336.8975 117.1233 329.6650 119.7045 329.0425 Z"></path>
<path id="" fill="#74512c" fill-opacity="1.0" stroke="#000000" stroke-width="0.0" stroke-opacity="1.0" stroke-linecap="round" stroke-linejoin="round"  filling="0" d="M168.3660 388.0300 C169.9585 387.8200 171.5692 387.8525 173.0825 388.4450 C174.7090 389.0800 175.9668 390.2975 176.6155 391.9250 C177.3313 393.7000 177.2787 395.6900 176.4705 397.4250 C175.8620 398.7150 174.8775 399.7625 173.7440 400.6100 C171.4575 402.3175 161.7177 406.8700 158.8220 407.9400 C157.2173 408.1700 155.5997 408.2375 154.0670 407.6300 C152.4102 406.9850 151.0930 405.6850 150.4263 404.0350 C149.7227 402.2925 149.7547 400.3375 150.5152 398.6175 C151.0533 397.3850 151.9500 396.3675 153.0143 395.5575 C154.9877 394.0575 165.6535 389.0175 168.3660 388.0300 Z"></path>
<path id="" fill="#74512c" fill-opacity="1.0" stroke="#000000" stroke-width="0.0" stroke-opacity="1.0" stroke-linecap="round" stroke-linejoin="round"  filling="0" d="M89.1845 388.0100 C90.5023 387.8825 91.7233 387.9475 93.0023 388.3200 C96.5115 389.3350 104.8020 393.3425 107.7125 395.5525 C108.8467 396.4125 109.8288 397.4500 110.4668 398.7350 C111.2003 400.2125 111.4895 402.0150 110.8625 403.5800 C110.0403 405.6325 107.9528 407.0600 106.0280 407.9575 C101.1438 408.7475 94.9352 404.6350 90.6210 402.4550 C87.8813 401.0700 85.0295 399.3600 84.0950 396.2300 C83.5908 394.5400 83.8350 392.9300 84.6793 391.4000 C85.7558 389.4500 87.0930 388.6500 89.1845 388.0100 Z"></path>
</svg>