<svg xmlns="http://www.w3.org/2000/svg" viewBox="0 0 512 512" height="512.0px" width="512.0px">
<path id="" fill="#939bc3" fill-opacity="1.0" stroke="#000000" stroke-width="0.0" stroke-opacity="1.0" stroke-linecap="round" stroke-linejoin="round"  filling="0" d="M197.4753 428.0450 C197.4455 421.2275 196.4210 412.6750 201.6840 407.4275 C204.2473 404.8725 207.9272 403.1525 211.4660 402.5100 C215.3925 401.7975 219.5645 402.0325 223.5445 402.0375 L240.0275 402.0600 C257.5625 402.0850 275.1150 401.8625 292.6475 402.0650 C299.6425 402.1450 305.2475 402.3900 310.3950 407.6725 C315.4950 412.9025 315.0200 420.9975 314.8600 427.7700 L314.8525 428.0700 C315.8625 428.0650 316.9425 427.9775 317.9425 428.0725 C323.7075 427.7650 330.2625 427.7125 335.5600 430.2850 C343.2275 434.0075 345.8650 440.4625 348.7750 447.9375 C350.4500 452.2300 352.0300 456.5600 353.5125 460.9225 C337.6900 460.7375 321.8300 460.9700 306.0025 460.9650 L199.0590 460.9625 C194.3268 460.9625 160.8375 461.4125 159.0462 460.8350 C158.9837 460.4700 158.9688 460.4750 158.9875 460.0400 C159.0665 458.2200 165.6975 441.6225 167.0555 439.1625 C168.0140 437.4275 169.2413 436.0225 170.6410 434.6325 C178.2785 427.0475 187.5627 428.0125 197.4753 428.0450 Z"></path>
<path id="" fill="#4d5166" fill-opacity="1.0" stroke="#000000" stroke-width="0.0" stroke-opacity="1.0" stroke-linecap="round" stroke-linejoin="round"  filling="0" d="M197.4753 428.0450 C197.4455 421.2275 196.4210 412.6750 201.6840 407.4275 C204.2473 404.8725 207.9272 403.1525 211.4660 402.5100 C215.3925 401.7975 219.5645 402.0325 223.5445 402.0375 L240.0275 402.0600 C257.5625 402.0850 275.1150 401.8625 292.6475 402.0650 C299.6425 402.1450 305.2475 402.3900 310.3950 407.6725 C315.4950 412.9025 315.0200 420.9975 314.8600 427.7700 L314.8525 428.0700 C315.8625 428.0650 316.9425 427.9775 317.9425 428.0725 C316.7225 428.6000 233.6897 428.2525 223.8297 428.2600 L208.3915 428.3350 C205.0275 428.3625 200.7200 428.8500 197.4753 428.0450 Z"></path>
<path id="" fill="#929bc3" fill-opacity="1.0" stroke="#000000" stroke-width="0.0" stroke-opacity="1.0" stroke-linecap="round" stroke-linejoin="round"  filling="0" d="M178.2518 343.1125 C186.0582 342.7375 194.0403 343.0550 201.8620 343.0525 L248.0280 343.0475 L314.8800 343.0550 C327.1700 343.0625 339.4900 342.9050 351.7775 343.1675 C352.8375 343.1900 354.3525 343.1875 355.2900 343.7025 C355.9350 344.0600 355.9375 344.2625 356.1525 344.9225 C355.9675 346.0500 355.4850 346.7250 354.6800 347.5275 C346.5075 355.6700 332.7475 363.0275 321.2725 364.6300 C316.0875 365.3550 310.6050 365.0125 305.3750 364.9975 L275.9525 365.0075 C276.0400 373.0275 276.0800 381.0500 276.0675 389.0725 C276.0875 393.2500 276.4975 397.8325 275.9775 401.9675 C273.4075 404.1250 254.9100 402.0300 250.4900 402.0900 C246.7965 402.1400 243.1902 402.8200 239.5125 402.9225 C238.5547 402.9475 237.2610 403.0400 236.5285 402.3525 C235.4560 398.3825 236.0255 392.4675 236.0233 388.2525 C235.9538 380.4975 236.0157 372.7425 236.2092 364.9900 C227.9552 365.0825 219.6905 364.9800 211.4353 364.9925 C203.9100 365.0050 194.7950 365.8300 187.5323 363.9800 C180.4328 362.1700 170.0220 353.0325 166.4603 346.6825 C166.0733 345.9950 165.8520 345.3900 166.0638 344.5975 C167.1610 343.5175 176.1190 343.2050 178.2518 343.1125 Z"></path>
<path id="" fill="#e55c64" fill-opacity="1.0" stroke="#000000" stroke-width="0.0" stroke-opacity="1.0" stroke-linecap="round" stroke-linejoin="round"  filling="0" d="M320.9300 168.0340 C321.3925 169.2655 321.0350 193.6305 321.0350 197.2558 L321.0350 293.9550 L321.0350 325.5250 C321.0325 331.7100 320.8750 337.9500 321.1575 344.1275 C315.4175 343.8100 309.5800 344.0150 303.8325 344.0200 L273.0475 344.0250 C245.8658 344.0225 218.6492 343.7200 191.4720 344.0775 L191.2482 343.9975 C190.4158 342.7150 191.3783 201.3375 190.8685 187.4617 C198.3067 186.5475 205.7105 185.3315 213.1263 184.2543 C233.2782 181.3235 253.4125 178.2758 273.5300 175.1113 L301.6575 171.0677 C308.0625 170.1780 314.6225 169.4872 320.9300 168.0340 Z"></path>
<path id="" fill="#939ac3" fill-opacity="1.0" stroke="#000000" stroke-width="0.0" stroke-opacity="1.0" stroke-linecap="round" stroke-linejoin="round"  filling="0" d="M363.9125 317.6000 C368.4425 316.5400 374.4675 318.2300 378.7200 319.7000 C386.2775 322.3175 392.6500 328.9325 396.0725 336.0450 C399.5150 343.2025 400.3850 352.0050 397.6900 359.5550 C394.5175 368.4500 389.0675 374.9425 380.5075 378.9850 C372.0250 382.9950 363.0825 382.6650 354.3775 379.5500 C353.5400 379.1975 352.7175 378.8075 351.9125 378.3875 C345.9050 375.2975 339.0125 368.8000 337.0175 362.1625 C336.6825 361.0450 336.5600 359.6150 337.3300 358.6300 C338.4875 357.1550 341.7800 356.0050 343.4800 355.0575 C346.2850 353.4925 353.5300 348.9925 354.8425 346.2500 C355.1425 345.6225 355.1925 345.2975 354.9750 344.6500 C352.8925 343.1675 338.8825 344.4200 335.1750 343.9175 L334.9625 343.3825 C335.3125 338.5525 339.0075 332.5425 342.0000 328.8650 C347.4125 322.2150 355.5325 318.4825 363.9125 317.6000 Z"></path>
<path id="" fill="#4d5166" fill-opacity="1.0" stroke="#000000" stroke-width="0.0" stroke-opacity="1.0" stroke-linecap="round" stroke-linejoin="round"  filling="0" d="M362.2375 318.0875 C367.9275 317.3575 374.1675 318.1925 379.3875 320.5625 C387.7225 324.3500 393.8200 330.0900 397.0375 338.7850 C400.2825 347.5600 399.3675 356.6500 395.4500 365.0275 C391.9525 372.5050 385.7750 377.8750 378.0275 380.6400 C369.4650 383.6950 360.3250 383.4000 352.0975 379.4250 C343.2300 375.1375 338.1950 367.9900 335.0450 358.8900 C328.9400 363.7475 322.5975 366.9725 314.9550 368.6375 C304.8625 370.8325 293.7750 369.8825 283.5025 369.9525 C264.5450 370.0975 245.5842 370.0975 226.6250 369.9550 C213.2677 369.9825 199.3100 371.1150 186.8785 365.2525 C178.0125 361.0700 168.8585 353.5475 165.4628 344.0625 C170.5890 343.6400 175.9145 343.9150 181.0638 343.9200 L208.7390 343.9350 L297.2675 343.9325 L324.1600 343.9400 C326.6725 343.9400 331.3000 344.3525 333.6025 343.8750 C334.1225 343.7675 334.2950 343.6075 334.5550 343.1500 C335.1925 342.0250 335.4625 340.3050 335.9025 339.0575 C337.0725 335.8175 338.7275 332.7700 340.8100 330.0250 C345.9525 323.1825 353.8850 319.2550 362.2375 318.0875 Z M368.6150 362.7075 C375.5125 361.5475 380.1525 355.0025 378.9650 348.1100 C377.7750 341.2175 371.2100 336.6075 364.3225 337.8250 C357.4775 339.0375 352.9025 345.5525 354.0825 352.4025 C355.2650 359.2525 361.7600 363.8575 368.6150 362.7075 Z"></path>
<path id="" fill="#e6c067" fill-opacity="1.0" stroke="#000000" stroke-width="0.0" stroke-opacity="1.0" stroke-linecap="round" stroke-linejoin="round"  filling="0" d="M256.9925 57.3845 C257.2075 57.4895 257.4200 57.6005 257.6250 57.7215 C263.6625 61.2653 277.4100 81.1695 280.9850 87.8920 C283.3400 92.2708 285.2000 96.8962 286.5375 101.6842 C289.1550 111.2610 289.5425 119.6953 286.5575 129.2575 C285.5750 132.4045 284.4100 135.5165 282.7525 138.3752 C278.5075 145.6920 270.9850 152.0400 262.7275 154.2300 C260.2525 154.6680 257.8200 155.0703 255.2975 155.1025 C253.3925 155.1268 251.1225 154.7865 249.2610 155.0972 C243.7888 154.2680 238.2110 152.5880 233.2225 150.1893 C226.4738 146.9440 220.4317 141.8260 217.9583 134.5425 C216.5025 130.2563 216.6532 126.0840 218.2047 121.8505 C220.9420 114.3813 226.8935 108.5197 231.5007 102.1765 C237.0300 94.5632 242.6452 86.6462 247.5213 78.5910 C249.8233 74.7883 252.0350 70.5078 253.6250 66.3595 C254.7650 63.3817 255.5900 60.2538 256.9925 57.3845 Z"></path>
<path id="" fill="#973d42" fill-opacity="1.0" stroke="#000000" stroke-width="0.0" stroke-opacity="1.0" stroke-linecap="round" stroke-linejoin="round"  filling="0" d="M262.5325 176.7300 C273.4600 175.2115 284.3425 173.2682 295.2750 171.8280 C294.9700 175.4190 295.0775 179.0737 295.0700 182.6777 L295.0800 199.1430 C295.1000 202.6260 295.5950 206.6443 294.8375 210.0417 C294.2325 212.7465 292.4825 215.4427 290.4050 217.2540 C287.8075 219.5205 284.2425 220.4612 280.8400 220.1715 C276.1050 219.7688 271.9225 214.9505 269.7575 214.9807 C266.6300 218.4360 273.7000 232.4370 262.1300 238.3080 C260.4175 239.1760 258.4425 239.9580 256.5175 240.0847 C253.2175 240.3017 249.5717 238.6340 247.1840 236.3835 C243.7055 233.1050 242.9422 228.9877 242.8898 224.4487 C242.8557 221.4975 243.3112 203.5242 242.8265 202.1155 C242.5493 201.8927 242.4147 201.6608 242.0338 201.6885 C240.1555 201.8255 238.4985 204.4413 236.9470 205.4160 C232.4532 208.2388 226.2930 207.5945 222.1378 204.4957 C219.3550 202.4337 217.5200 199.3380 217.0470 195.9068 C216.5033 191.8772 217.0052 187.6505 216.7715 183.5802 C227.6458 182.0668 238.7015 180.6698 249.4823 178.6395 C253.0500 178.6472 258.7075 177.2422 262.5325 176.7300 Z"></path>
<path id="" fill="#4d5166" fill-opacity="1.0" stroke="#000000" stroke-width="0.0" stroke-opacity="1.0" stroke-linecap="round" stroke-linejoin="round"  filling="0" d="M229.3075 291.6400 C232.8607 290.9150 239.8127 290.4575 243.2325 291.6275 C251.5850 292.0900 259.9575 292.0950 268.3125 291.6425 C271.8625 290.9100 278.8150 290.4625 282.2350 291.6275 C286.2100 291.8700 290.1900 291.9625 294.1725 291.9000 C293.9625 299.3850 292.2100 307.8325 286.6050 313.1850 C280.1125 319.3850 270.6775 317.8675 262.4725 318.0800 C258.1575 317.9825 253.8300 318.0525 249.5135 318.0550 C241.8483 317.9275 232.5072 319.3675 226.2567 313.9500 C219.9108 308.4475 218.3750 299.9475 217.7520 291.9575 C221.6145 292.0025 225.4520 291.8550 229.3075 291.6400 Z"></path>
<path id="" fill="#323542" fill-opacity="1.0" stroke="#000000" stroke-width="0.0" stroke-opacity="1.0" stroke-linecap="round" stroke-linejoin="round"  filling="0" d="M229.3075 291.6400 C232.8607 290.9150 239.8127 290.4575 243.2325 291.6275 C242.1237 295.1700 243.9523 298.6225 241.5000 302.3775 C240.7155 303.5800 239.6285 304.3325 238.2168 304.6025 C236.4170 304.9475 234.1152 304.6900 232.6207 303.5600 C228.9065 300.7525 230.5323 295.8075 229.8808 291.9425 L229.3075 291.6400 Z"></path>
<path id="" fill="#323542" fill-opacity="1.0" stroke="#000000" stroke-width="0.0" stroke-opacity="1.0" stroke-linecap="round" stroke-linejoin="round"  filling="0" d="M268.3125 291.6425 C271.8625 290.9100 278.8150 290.4625 282.2350 291.6275 C281.1150 295.1550 282.9500 298.6250 280.5025 302.3800 C279.7200 303.5825 278.6275 304.3275 277.2175 304.5975 C275.4150 304.9450 273.1175 304.7000 271.6200 303.5650 C267.9850 300.8100 269.4600 295.7750 268.8800 291.9425 L268.3125 291.6425 Z"></path>
<path id="" fill="#323542" fill-opacity="1.0" stroke="#000000" stroke-width="0.0" stroke-opacity="1.0" stroke-linecap="round" stroke-linejoin="round"  filling="0" d="M249.5135 318.0550 C249.4675 314.5800 248.7112 309.3225 251.4100 306.6625 C252.6425 305.4500 254.4150 304.7850 256.1375 304.8175 C257.8575 304.8500 259.5500 305.5350 260.7400 306.7925 C263.2700 309.4650 262.5350 314.6525 262.4725 318.0800 C258.1575 317.9825 253.8300 318.0525 249.5135 318.0550 Z"></path>
<path id="" fill="#e6c067" fill-opacity="1.0" stroke="#000000" stroke-width="0.0" stroke-opacity="1.0" stroke-linecap="round" stroke-linejoin="round"  filling="0" d="M170.6013 135.8163 C172.1080 135.7350 173.3282 135.7295 174.6817 136.4605 C176.2747 137.3210 177.5590 138.7097 178.0665 140.4707 C178.5058 141.9942 178.2505 143.5550 177.4622 144.9182 C176.6712 146.2860 175.3542 147.4095 174.0890 148.3372 C168.8542 152.1747 162.7485 155.3027 157.1525 158.6215 C152.6463 161.2940 148.2558 164.3237 143.5945 166.7103 C142.2705 167.3882 140.9985 167.8992 139.5598 168.2807 C138.4435 168.3172 137.3840 168.2550 136.3550 167.7720 C133.8765 166.6087 132.6940 163.8602 131.8277 161.4295 C132.1170 160.5408 132.4905 159.6588 133.0065 158.8765 C133.8488 157.6223 134.9062 156.5270 136.1305 155.6413 C140.4085 152.5618 145.3707 150.0345 149.8978 147.3132 C155.7077 143.8205 161.5185 139.8938 167.5565 136.8390 C168.5470 136.3378 169.5193 136.0477 170.6013 135.8163 Z"></path>
<path id="" fill="#e6c067" fill-opacity="1.0" stroke="#000000" stroke-width="0.0" stroke-opacity="1.0" stroke-linecap="round" stroke-linejoin="round"  filling="0" d="M372.1625 50.9888 C373.5100 50.8777 374.6225 51.0970 375.8225 51.7412 C378.0700 52.9485 379.3775 55.0735 380.1200 57.4405 C379.8875 58.1960 379.6525 58.9635 379.3075 59.6775 C378.6650 61.0058 377.8000 62.0788 376.6650 63.0145 C372.2175 66.6777 364.4100 70.7285 359.3300 73.7737 C354.6600 76.5725 346.3100 82.2148 341.5475 84.0007 C340.6525 84.0923 339.7200 84.1468 338.8675 83.8145 C337.0425 83.1022 334.7950 80.7068 334.0725 78.9095 C333.5675 77.6540 333.5825 76.3183 334.1125 75.0748 C334.7250 73.6410 335.8725 72.5692 337.0850 71.6365 C340.0375 69.3678 343.6700 67.6620 346.8575 65.7168 L360.4925 57.5258 C364.3700 55.1820 367.9550 52.7470 372.1625 50.9888 Z"></path>
<path id="" fill="#e6c067" fill-opacity="1.0" stroke="#000000" stroke-width="0.0" stroke-opacity="1.0" stroke-linecap="round" stroke-linejoin="round"  filling="0" d="M137.8390 50.9753 C138.4518 50.9380 139.0217 50.9157 139.6268 51.0425 C140.9272 51.3148 142.2442 51.9532 143.4158 52.5725 C148.3188 55.1638 153.0717 58.3555 157.8438 61.1992 C163.1555 64.3647 168.7750 67.3590 173.8593 70.8700 C175.1450 71.7578 176.7343 72.8727 177.5480 74.2263 C178.2940 75.4673 178.4855 77.0502 178.0765 78.4350 C177.3230 80.9843 174.8658 83.0260 172.5807 84.2075 C171.2177 84.0965 170.1910 83.9155 168.9490 83.3205 C162.9880 80.4650 156.9295 76.2377 151.2198 72.8155 L141.3850 66.9417 C139.3400 65.7177 137.0480 64.5323 135.2465 62.9635 C133.5015 61.4440 132.5538 59.5667 131.7995 57.4337 L131.9648 56.9937 C133.1135 54.0135 134.9742 52.2645 137.8390 50.9753 Z"></path>
<path id="" fill="#e6c067" fill-opacity="1.0" stroke="#000000" stroke-width="0.0" stroke-opacity="1.0" stroke-linecap="round" stroke-linejoin="round"  filling="0" d="M338.9525 135.8250 C340.9350 135.7292 342.7975 136.0070 344.5975 136.8743 C349.4125 139.1970 354.4600 142.7705 359.1050 145.5497 L370.3800 152.2740 C372.5750 153.5860 375.0575 154.8745 377.0050 156.5343 C378.6125 157.9035 379.4825 159.4280 380.1400 161.3913 C379.9825 161.8898 379.8150 162.3845 379.6350 162.8750 C378.6925 165.4328 377.1725 166.9642 374.7400 168.0972 C372.2475 168.5137 370.6450 167.9005 368.4950 166.7400 C362.4150 163.4605 356.5225 159.6065 350.5925 156.0493 C345.9700 153.2765 339.9625 150.3505 335.9925 146.8062 C335.0050 145.9235 334.3650 144.9218 334.0200 143.6353 C333.6150 142.1160 333.7000 140.5397 334.5175 139.1743 C335.5700 137.4102 336.9650 136.3183 338.9525 135.8250 Z"></path>
<path id="" fill="#e6c067" fill-opacity="1.0" stroke="#000000" stroke-width="0.0" stroke-opacity="1.0" stroke-linecap="round" stroke-linejoin="round"  filling="0" d="M431.1900 297.5950 C431.2675 297.6225 431.3500 297.6450 431.4250 297.6825 C432.4475 298.2050 436.3825 306.9900 438.7275 309.3675 C440.9275 311.6000 443.3575 313.3550 446.0950 314.8650 C447.3200 315.5425 448.7300 316.1625 449.8600 316.9725 C450.1675 317.1925 450.3025 317.4550 450.4475 317.7900 C450.2600 318.2625 450.1850 318.4550 449.7550 318.7650 C448.9525 319.3450 447.8150 319.7000 446.9200 320.1500 C444.9550 321.1350 442.9550 322.2550 441.2200 323.6125 C436.6750 327.1725 434.3775 332.2700 432.0275 337.3925 C431.8550 337.3975 431.6700 337.4675 431.5075 337.4050 C430.8150 337.1375 427.1700 329.4800 426.3200 328.2300 C422.5975 322.7600 417.7200 321.8075 413.0100 318.1925 L412.8600 317.8575 L412.7050 317.9125 L412.6050 317.7825 C412.7900 317.2525 412.9975 316.9725 413.4625 316.6625 C414.3950 316.0400 415.4750 315.6975 416.4625 315.1900 C418.0575 314.3700 419.6425 313.2800 421.0575 312.1775 C426.2525 308.1300 428.4800 303.4225 431.1900 297.5950 Z"></path>
<path id="" fill="#e6c067" fill-opacity="1.0" stroke="#000000" stroke-width="0.0" stroke-opacity="1.0" stroke-linecap="round" stroke-linejoin="round"  filling="0" d="M80.2930 297.4575 C82.0218 298.9350 82.9008 302.0250 83.9238 304.0400 C87.7325 311.5350 92.8177 313.2900 99.3293 317.3775 L98.8952 317.5825 L99.4370 317.4675 L99.5395 317.7075 C98.2312 319.8200 93.6957 321.2275 91.5493 322.5525 C90.3740 323.2775 89.2437 324.3175 88.2708 325.3000 C84.7720 328.8325 83.1577 333.3000 80.8058 337.5525 C80.4388 337.4300 80.2775 337.3200 80.0275 337.0025 C79.5085 336.3450 79.1127 335.2675 78.7225 334.5125 C77.2695 331.7000 75.6657 328.1425 73.3805 325.9175 C71.8690 324.4475 70.0323 323.0425 68.2310 321.9450 C66.2975 320.7675 63.4780 319.7875 62.0230 318.0650 C61.6175 317.5825 61.7072 317.8225 61.7693 317.2025 C62.4413 316.5200 63.1190 316.2350 63.9915 315.8600 C69.0472 313.6875 73.8607 309.5925 76.5862 304.7850 C77.9370 302.4025 78.9310 299.8375 80.2930 297.4575 Z"></path>
<path id="" fill="#e6c067" fill-opacity="1.0" stroke="#000000" stroke-width="0.0" stroke-opacity="1.0" stroke-linecap="round" stroke-linejoin="round"  filling="0" d="M372.8150 214.4017 C373.5925 214.5703 373.7850 214.8062 374.1750 215.4875 C377.4975 221.3165 379.6725 225.7088 385.7550 229.2330 C388.0500 230.5623 390.4750 231.6953 392.6700 233.1860 L392.9300 233.3665 C387.2975 236.7782 381.8725 238.5197 378.0750 244.2982 C376.5300 246.6515 375.5050 249.4245 373.4875 251.4375 C373.4225 251.5025 373.3550 251.5650 373.2900 251.6275 C372.1150 251.5000 371.7600 250.4025 371.2300 249.4888 C367.8325 243.6138 366.2550 240.6823 360.2100 237.1933 C358.4800 236.1940 356.5825 235.3375 354.9600 234.1727 C354.4825 233.8307 353.7800 233.4718 353.6850 232.8898 C354.7650 231.5847 358.4975 230.2835 360.1300 229.3520 C361.4500 228.5867 362.6900 227.6915 363.8300 226.6797 C366.2800 224.5047 368.1225 222.3185 369.7125 219.4552 C370.6625 217.7422 371.4950 215.8675 372.8150 214.4017 Z"></path>
<path id="" fill="#e6c067" fill-opacity="1.0" stroke="#000000" stroke-width="0.0" stroke-opacity="1.0" stroke-linecap="round" stroke-linejoin="round"  filling="0" d="M138.5680 214.3740 C141.0845 215.4740 143.3652 221.9012 145.6413 224.3020 C149.8840 228.7778 153.8605 229.9025 158.6655 233.1835 C158.7525 233.2428 158.8383 233.3040 158.9247 233.3642 C153.1615 236.6723 147.3398 238.9230 143.4960 244.6965 C142.1000 246.7935 141.2448 249.2283 139.7220 251.2425 C139.6695 251.3125 139.6150 251.3800 139.5612 251.4475 C139.2612 251.4375 138.9495 251.4975 138.6610 251.4125 C137.3808 251.0425 134.2620 244.6435 133.3505 243.2710 C132.7433 242.3568 131.8710 241.5177 131.0770 240.7630 C127.5650 237.4247 122.7170 236.1205 119.6030 233.0822 C120.4665 231.7207 126.2087 229.3943 127.8730 228.3195 C128.8033 227.7185 129.6068 226.9628 130.4060 226.2025 C132.2543 224.4447 133.9973 222.4940 135.2285 220.2460 C136.2815 218.3228 137.0985 216.0115 138.5680 214.3740 Z"></path>
<path id="" fill="#e6c067" fill-opacity="1.0" stroke="#000000" stroke-width="0.0" stroke-opacity="1.0" stroke-linecap="round" stroke-linejoin="round"  filling="0" d="M86.5820 136.3690 C86.9145 136.5080 87.1390 136.6557 87.4155 136.9037 C89.0837 138.4010 90.2050 141.3692 91.4380 143.2760 C92.4575 144.8530 93.7105 146.3330 94.9908 147.7040 C97.7800 150.6910 101.9568 151.9017 104.9325 154.5915 C105.3305 154.9510 105.5760 155.0723 105.6000 155.6130 C102.4262 158.2850 98.0425 159.5632 95.0468 162.4350 C92.8710 164.5208 91.3337 167.0660 89.8710 169.6680 C89.2985 170.6860 88.7415 171.9277 87.9937 172.8203 C87.6690 173.2080 87.2133 173.4642 86.7735 173.7003 C83.6330 171.0112 82.0748 165.0555 78.3210 161.8845 C76.2510 160.1360 68.4890 156.7092 67.6933 154.9223 C69.0655 153.1712 72.6608 152.2975 74.6422 151.1060 C78.4173 148.8360 81.4413 145.1992 83.5745 141.3885 C84.5165 139.7057 85.3467 137.8553 86.5820 136.3690 Z"></path>
<path id="" fill="#e6c067" fill-opacity="1.0" stroke="#000000" stroke-width="0.0" stroke-opacity="1.0" stroke-linecap="round" stroke-linejoin="round"  filling="0" d="M424.8250 136.3978 C425.0575 136.4787 425.3200 136.4967 425.5200 136.6407 C426.4525 137.3183 429.1675 143.1295 430.4200 144.7493 C434.8100 150.4225 439.1650 151.3997 444.6800 155.1765 C444.7625 155.2325 444.8425 155.2905 444.9250 155.3475 C439.8175 158.3412 434.3400 160.2478 430.8175 165.3100 C429.0800 167.8040 427.6725 170.5320 425.9825 173.0645 C425.5925 173.2798 425.3275 173.4577 424.8675 173.4657 C424.2150 173.4775 419.6800 165.5222 418.7675 164.2865 C415.8025 160.2677 410.2075 158.8412 406.6325 155.5327 C406.7650 154.7590 407.0975 154.3710 407.7150 153.8860 C409.3550 152.5950 411.4625 151.7160 413.2850 150.6942 C415.7750 149.2980 418.2625 146.5302 419.9425 144.2207 C421.7300 141.7650 422.8100 138.6360 424.8250 136.3978 Z"></path>
<path id="" fill="#e6c067" fill-opacity="1.0" stroke="#000000" stroke-width="0.0" stroke-opacity="1.0" stroke-linecap="round" stroke-linejoin="round"  filling="0" d="M138.4393 103.0447 C144.5630 102.6530 150.9272 102.9710 157.0740 102.9688 C161.9515 102.9668 168.3210 102.4350 173.0522 103.2702 C174.0627 103.4488 174.9357 103.8557 175.7375 104.4937 C177.1472 105.6160 178.0875 107.4115 178.1870 109.2142 C178.2912 111.1025 177.1870 113.2465 175.9657 114.6240 C174.9438 115.7767 173.9970 115.9518 172.5105 116.0440 C168.0495 116.1152 138.3347 116.5938 135.9518 115.5103 C133.7320 114.5010 132.5813 111.5250 131.8158 109.3695 C132.1022 108.5397 132.4445 107.7745 132.9060 107.0250 C134.2473 104.8470 135.9608 103.6118 138.4393 103.0447 Z"></path>
<path id="" fill="#e6c067" fill-opacity="1.0" stroke="#000000" stroke-width="0.0" stroke-opacity="1.0" stroke-linecap="round" stroke-linejoin="round"  filling="0" d="M339.8325 103.0462 C345.7600 102.7798 351.7750 102.9803 357.7125 102.9840 C362.3925 102.9870 367.2050 102.7418 371.8650 103.0367 C373.1775 103.1198 374.9200 103.2505 376.0675 103.9005 C378.2175 105.1185 379.3875 107.1190 380.1150 109.4150 C379.8875 110.2493 379.5700 111.0830 379.2050 111.8660 C378.1825 114.0508 376.8475 115.2393 374.5850 116.0000 C369.2200 116.2128 363.7850 116.0430 358.4125 116.0493 C351.5500 116.0575 344.6525 116.2007 337.7925 115.9675 C335.9600 114.7980 334.6175 113.1292 334.0950 110.9857 C333.6750 109.2603 333.9500 107.4323 334.9375 105.9460 C336.1375 104.1400 337.7700 103.4163 339.8325 103.0462 Z"></path>
<path id="" fill="#4d5165" fill-opacity="1.0" stroke="#000000" stroke-width="0.0" stroke-opacity="1.0" stroke-linecap="round" stroke-linejoin="round"  filling="0" d="M294.0500 234.6467 L294.9975 234.7932 C296.3100 235.9108 300.9100 261.8800 301.4775 265.4025 C299.4525 265.0775 297.4075 264.9275 295.3850 264.5575 C290.8750 263.7375 286.4050 262.6900 281.8850 261.9125 C279.7525 261.3975 272.0375 260.4525 270.7750 259.2350 C270.7825 259.1275 270.7775 259.0225 270.7950 258.9175 C270.9550 257.9325 271.7050 256.9250 272.3250 256.1675 C275.1675 252.6925 278.7825 249.5578 281.9750 246.3730 C285.8925 242.4665 289.7425 238.0948 294.0500 234.6467 Z"></path>
<path id="" fill="#4d5165" fill-opacity="1.0" stroke="#000000" stroke-width="0.0" stroke-opacity="1.0" stroke-linecap="round" stroke-linejoin="round"  filling="0" d="M216.8427 234.3960 C217.7120 234.6967 218.4615 235.1670 219.1770 235.7402 C221.9008 237.9227 224.3715 240.7380 226.8423 243.2065 C230.7487 247.1095 234.7520 250.9525 238.5607 254.9475 C239.6283 256.0675 241.3882 257.6675 241.3540 259.2975 C239.5545 260.5450 234.4605 261.0575 232.1945 261.5100 C225.2207 262.9550 218.0720 264.8100 210.9503 265.1875 C211.0052 261.9550 215.5938 236.9465 216.8427 234.3960 Z"></path>
<path id="" fill="#4d5165" fill-opacity="1.0" stroke="#000000" stroke-width="0.0" stroke-opacity="1.0" stroke-linecap="round" stroke-linejoin="round"  filling="0" d="M246.8027 266.0575 C250.8700 265.6650 259.1600 265.5825 263.2050 265.9475 C264.9675 266.1075 266.2200 266.3600 267.3575 267.8050 C268.4775 269.2325 269.4325 271.3300 269.1450 273.1850 C268.7850 275.5175 266.6050 277.2450 264.8425 278.6075 C261.4200 279.5700 251.2725 279.1375 247.5420 278.7975 C246.0708 277.7000 244.5992 276.6100 243.6915 274.9675 C242.8675 273.4775 242.7298 271.7500 243.2343 270.1275 C243.7595 268.4400 245.2628 266.8650 246.8027 266.0575 Z"></path>
<path id="" fill="#333644" fill-opacity="1.0" stroke="#000000" stroke-width="0.0" stroke-opacity="1.0" stroke-linecap="round" stroke-linejoin="round"  filling="0" d="M249.2610 155.0972 C251.1225 154.7865 253.3925 155.1268 255.2975 155.1025 C257.8200 155.0703 260.2525 154.6680 262.7275 154.2300 C262.5800 154.5002 262.4450 154.7140 262.4175 155.0290 C262.1775 157.6642 262.7075 160.7485 262.7325 163.4440 C262.7750 167.8715 262.4625 172.3047 262.5325 176.7300 C258.7075 177.2422 253.0500 178.6472 249.4823 178.6395 C249.4538 174.6497 249.2318 170.6622 249.2160 166.6690 C249.2063 164.1973 249.8307 157.0520 249.2610 155.0972 Z"></path>
</svg>