<svg xmlns="http://www.w3.org/2000/svg" viewBox="0 0 512 512" height="512.0px" width="512.0px">
<path id="" fill="#fec879" fill-opacity="1.0" stroke="#000000" stroke-width="0.0" stroke-opacity="1.0" stroke-linecap="round" stroke-linejoin="round"  filling="0" d="M243.5578 163.1042 C247.1613 162.6628 251.1200 162.9843 254.7600 162.9763 C259.8300 162.9650 264.9600 162.7852 270.0075 163.3320 C284.4075 164.8930 300.7700 170.9978 312.8625 178.8595 C324.7175 186.5655 335.4925 197.7520 342.8175 209.7980 C345.2550 213.8053 347.3050 218.3192 349.3250 222.5575 C354.1550 232.6983 356.1975 245.5110 358.1800 256.5350 C360.7050 270.5775 362.8500 284.6575 367.0400 298.3425 C371.3700 312.4775 376.9500 325.9550 382.5050 339.6275 C385.1375 346.1025 387.5400 352.6900 390.1300 359.1900 C391.5950 362.9575 393.1050 366.7050 394.6600 370.4350 C396.0975 373.8350 398.0000 377.3575 398.7250 380.9850 C399.6425 385.5625 399.3800 390.6075 396.6825 394.5575 C394.3000 398.0450 390.7675 400.0925 386.7300 401.1150 C381.7300 402.3800 376.5975 402.0600 371.4850 402.0400 L357.0525 402.0200 L306.6725 402.0250 C301.2775 402.0150 291.5025 401.4100 286.5725 402.4200 C286.4825 402.4375 286.3950 402.4600 286.3075 402.4775 C285.9600 407.4400 286.1100 411.7025 284.0325 416.3675 C280.6250 424.0150 274.8925 429.5650 267.1425 432.5175 C263.7300 433.7275 259.8900 434.9025 256.2300 434.8650 C248.0923 434.7025 240.3580 431.2950 234.7425 425.4050 C228.5525 418.9425 225.8327 410.8625 225.9985 402.0025 L158.8837 402.0200 L139.9110 402.0550 C135.7908 402.0650 131.4375 402.3425 127.3605 401.7150 C124.1410 401.2125 121.1212 399.8350 118.6310 397.7325 C115.4820 395.1175 113.2728 390.8025 112.9395 386.7275 C112.7640 384.5800 113.0827 382.5750 113.6913 380.5200 C115.0537 375.9200 117.4482 371.3050 119.2470 366.8325 C122.8018 357.9975 126.2538 349.1200 129.6028 340.2050 C132.7270 332.0525 136.2730 324.0675 139.4060 315.9150 C143.1650 306.1350 146.4342 295.7475 148.8405 285.5550 C153.5638 265.5425 154.6832 244.9225 162.0100 225.5092 C166.2935 214.1597 173.3367 203.8160 181.1900 194.6747 C183.3183 192.1975 185.7198 190.2225 188.1455 188.0630 C201.1600 176.4772 214.0033 169.5728 230.9812 165.4357 C235.1350 164.4238 239.2835 163.4252 243.5578 163.1042 Z"></path>
<path id="" fill="#ee6159" fill-opacity="1.0" stroke="#000000" stroke-width="0.0" stroke-opacity="1.0" stroke-linecap="round" stroke-linejoin="round"  filling="0" d="M146.9238 73.3497 C149.7505 73.2292 152.7153 74.1910 155.3195 75.1873 C158.2133 76.2943 160.9815 77.7747 163.7930 79.0795 L180.5977 86.8392 L244.2843 115.5565 C247.1667 113.5860 249.9620 111.9575 253.4650 111.4117 C259.0325 110.5440 263.3050 112.1760 267.7225 115.4545 L327.7450 88.5330 L348.7550 78.9073 C352.6400 77.1550 356.5400 75.0645 360.6750 73.9872 C365.0600 72.8463 369.0925 73.4580 372.9900 75.7650 C376.7875 78.0125 379.5700 81.5405 380.6075 85.8585 C382.3425 93.0862 379.1825 101.6797 377.7325 108.8098 C376.7650 113.5430 375.9525 118.3065 375.2975 123.0925 C374.1550 131.9730 374.2500 140.5228 375.4150 149.3885 C376.0800 154.4465 377.0675 159.5188 378.1750 164.4973 C380.1825 173.5325 383.4600 183.2000 378.1425 191.7760 C375.5575 195.9410 371.9500 197.8237 367.3325 198.9300 C364.3300 199.2045 361.3875 199.0150 358.4925 198.1348 C354.2300 196.8383 350.0600 194.6602 345.9900 192.8392 C339.0700 189.7420 332.1700 186.6595 325.3250 183.3895 C322.3200 181.9543 319.3275 180.4628 316.2625 179.1673 C313.5950 178.0408 310.8475 177.1057 308.1850 175.9690 C303.4975 173.9690 298.7950 171.7043 294.1750 169.5358 L274.0675 159.8728 C270.6875 158.2550 267.3850 156.4915 263.9100 155.0838 C258.9100 155.9450 254.3700 156.3050 249.4000 155.0875 C246.6830 155.9840 244.1443 157.3503 241.5468 158.5372 C234.6000 161.7125 227.8485 165.2160 220.9490 168.4688 C215.2000 171.1792 209.4487 174.1048 203.6252 176.6340 C196.4073 179.7688 189.1232 182.6102 181.9960 185.9902 C174.5177 189.5367 158.0980 197.9933 150.4860 198.9478 C145.8520 199.5290 141.3932 198.6037 137.6765 195.6885 C133.6022 192.4925 131.6175 187.9272 131.2605 182.8325 C130.7522 175.5785 133.8152 166.3480 135.3420 159.1358 C136.6582 153.0182 137.5267 146.8130 137.9408 140.5692 C138.5855 129.6797 136.9998 118.7540 134.6970 108.1305 C133.6133 103.1317 132.1297 98.0608 131.5740 92.9755 C131.0193 87.9000 132.0940 83.2402 135.3967 79.2385 C138.2383 75.7957 142.5188 73.7510 146.9238 73.3497 Z"></path>
<path id="" fill="#151515" fill-opacity="1.0" stroke="#000000" stroke-width="0.0" stroke-opacity="1.0" stroke-linecap="round" stroke-linejoin="round"  filling="0" d="M147.1730 63.0745 C151.1750 62.8035 155.1512 63.1888 158.9920 64.3763 C166.2970 66.6348 175.7505 71.6020 182.9373 74.8863 L218.1407 90.9008 C224.2312 93.6720 230.2617 96.6277 236.4245 99.2312 C238.6812 98.1982 240.9258 97.0753 243.2535 96.2117 C254.7825 91.9333 265.2425 94.0090 276.0350 98.9782 C281.8725 96.6633 287.6100 93.7688 293.3550 91.2060 L333.5025 73.2150 C340.2725 70.1917 349.5350 65.3123 356.4875 63.6810 C361.1500 62.5867 365.8050 62.8237 370.4400 64.0088 C378.3175 66.0235 385.5500 71.2240 389.6875 78.2777 C392.4500 82.9830 394.2575 89.2728 393.9050 94.7575 C393.6225 99.1810 391.1400 103.9133 390.0075 108.2242 C386.7625 120.5703 386.1850 133.8785 387.6225 146.5465 C388.1375 150.9167 388.9825 155.2415 390.1500 159.4837 C392.4125 167.5530 395.2625 172.2838 392.9750 180.9400 C390.8775 188.8828 386.1725 196.0175 378.9525 200.1520 C372.0775 204.0875 363.1625 205.9747 355.3825 203.9045 C367.1425 226.0197 368.4675 240.7153 370.9075 265.0575 L374.4175 300.7850 C379.5625 303.2925 384.0150 305.7925 388.1800 309.7875 C392.0550 313.5025 395.1550 317.5925 397.3500 322.5175 C400.8875 330.4625 402.1350 340.3600 403.9175 348.9200 C405.5050 356.5475 407.8450 364.4625 407.9725 372.2800 C408.1075 380.4575 404.5550 389.0550 398.8150 394.8650 C388.4175 405.3925 375.7275 404.4775 362.1250 404.4775 L320.9900 404.4825 C314.0550 404.4800 306.3400 404.9275 299.5075 404.2775 C299.2575 407.7700 299.1000 411.2875 298.4325 414.7350 C296.8825 422.7150 292.3525 431.5300 286.4450 437.1525 C278.2675 444.9350 266.3600 449.2525 255.1450 448.9700 C244.5502 448.7025 232.7057 443.6375 225.4320 435.8725 C217.3947 427.2925 213.4478 415.9425 213.7787 404.2825 C197.4612 404.5200 181.1420 404.5850 164.8233 404.4825 L146.3667 404.4900 C142.3030 404.4900 138.1985 404.5900 134.1435 404.2875 C131.1935 404.0700 128.2575 403.5775 125.4478 402.6375 C117.1965 399.8725 110.7188 394.5425 106.8480 386.7350 C104.7758 382.5550 103.4980 377.8575 103.4100 373.1850 C103.2640 365.4225 105.9430 356.2425 107.4563 348.5600 C108.9092 341.1800 109.9348 333.2325 112.3777 326.1250 C115.5717 316.5425 122.2097 308.4850 131.0050 303.5175 C133.4365 302.1725 136.1290 301.2875 138.6268 300.0600 C139.5632 294.2975 139.6938 287.6775 140.2397 281.7700 L142.2742 259.5600 C143.3610 247.6200 144.5230 236.1003 148.2500 224.6295 C150.5443 217.5685 153.6905 211.0005 156.8605 204.3103 C146.9525 204.9758 139.9640 204.4490 131.5335 198.5182 C123.5482 192.9005 117.7165 180.9325 119.4438 171.1310 C119.9260 168.3943 121.0280 165.7177 121.8857 163.0777 C122.7632 160.3768 123.4617 157.6658 124.0547 154.8893 C125.6310 147.5083 126.2267 140.0818 126.1065 132.5415 C125.9707 124.0302 125.1305 115.8372 122.8463 107.6160 C121.7722 103.7510 120.0462 99.9375 119.4062 95.9758 C118.2940 89.0902 121.1325 80.9570 125.2097 75.4635 C130.5490 68.2700 138.4565 64.3712 147.1730 63.0745 Z M346.5525 297.6325 C345.4325 287.1775 344.3650 276.7175 343.3550 266.2500 C342.5825 258.4900 342.1600 250.5000 340.5925 242.8525 C336.7400 224.0250 325.8675 205.6283 310.8425 193.5645 C295.8700 181.3185 277.1075 174.6573 257.7650 174.7210 C255.0700 174.7122 252.1100 174.4758 249.4460 174.7985 C249.3362 174.8118 249.2280 174.8358 249.1192 174.8542 C223.9705 176.6033 205.6105 187.6577 189.2323 206.3745 C180.3253 216.5530 174.1853 230.3717 171.8092 243.6580 C170.6440 250.1750 170.2405 256.8350 169.6410 263.4225 C168.6130 274.7175 167.8155 286.0975 166.4795 297.3575 C169.2957 297.4675 172.1190 297.1675 174.9382 297.1425 L195.1695 297.1275 L264.6250 297.1275 L319.5450 296.9950 C325.1000 296.9725 330.6550 296.9900 336.2100 297.0450 C339.6300 297.1025 343.1700 297.0525 346.5525 297.6325 Z M153.8750 376.0000 L317.0475 375.9975 L363.0400 375.9875 C367.4600 375.9975 374.8050 376.8175 378.7300 376.1950 C379.6825 375.2150 380.6800 374.3075 380.6875 372.8325 C380.7025 370.5750 373.8150 338.3900 372.6450 335.1575 C371.8675 333.0075 370.5000 330.7375 368.8300 329.1675 C365.8900 326.4050 362.2125 325.5925 358.3125 325.6225 C340.3875 326.0325 322.3975 325.7350 304.4675 325.7375 L206.8665 325.7375 L167.6877 325.7250 L156.7265 325.6975 C154.2230 325.6825 151.5278 325.5100 149.0443 325.8375 C146.3513 326.1900 143.8555 328.3175 142.0247 330.2175 C140.4750 331.8275 139.1315 333.5325 138.3035 335.6325 C136.6170 339.9100 135.5457 348.6425 134.6073 353.4300 C133.6355 358.3850 131.0338 367.7225 131.1387 372.4350 C131.1595 373.3600 131.2457 374.7025 131.9575 375.3925 C132.7348 376.1450 134.1985 376.3750 135.2245 376.4550 C137.7245 376.6450 140.3978 376.2175 142.9057 376.1000 C146.5530 375.9300 150.2247 375.9875 153.8750 376.0000 Z M272.1350 404.4750 C264.9375 404.7350 257.7325 404.7925 250.5300 404.6500 C247.3625 404.6025 244.1033 404.6975 240.9490 404.4350 C241.7648 410.6525 242.2235 414.4075 247.5813 418.4625 C250.8150 420.9100 254.5200 421.8225 258.5300 421.2675 C262.4125 420.7300 264.9350 418.9725 267.5600 416.1975 C271.0000 412.6625 271.8825 409.3150 272.1350 404.4750 Z M257.8775 146.0773 C264.5950 145.3457 269.4600 139.3215 268.7600 132.5990 C268.0600 125.8765 262.0575 120.9843 255.3325 121.6533 C248.5623 122.3268 243.6308 128.3768 244.3355 135.1435 C245.0405 141.9102 251.1125 146.8138 257.8775 146.0773 Z M150.3073 90.5805 C149.3365 90.7740 148.5502 90.9277 147.7003 91.4490 C147.2085 92.2022 147.2215 92.6868 147.3862 93.5667 C147.9738 96.7068 149.4900 99.6585 150.1755 102.7850 C153.6497 118.6332 155.0295 134.0482 152.9277 150.1987 C152.2775 155.1960 151.4210 160.0895 150.1053 164.9580 C149.2747 168.0318 147.6850 171.4062 147.3805 174.5228 C147.3107 175.2370 147.4730 175.9552 148.0760 176.4073 C148.6325 176.8242 149.4645 177.0650 150.1285 177.2565 C155.6918 175.2505 161.1252 172.5323 166.5177 170.1048 L191.8423 158.7278 C200.7832 154.8135 209.9605 151.0287 218.7300 146.7563 C215.6837 138.8670 215.5060 129.1095 218.5925 121.1938 C215.7977 120.5545 212.9328 118.8930 210.3230 117.6758 L200.2470 113.0470 C186.9885 106.9030 173.6580 100.7003 160.2425 94.9098 C157.0443 93.5295 153.7377 91.2272 150.3073 90.5805 Z M294.7800 146.5098 C303.9575 150.3217 312.7775 155.0007 321.9700 158.7708 L350.6750 171.8893 C354.3400 173.5502 359.3275 176.3680 363.0425 177.3320 C364.0450 176.8795 365.1150 176.5293 365.8350 175.6665 C366.2275 174.4765 365.3025 172.3622 364.9325 171.1808 C362.7375 164.1850 361.1300 157.2775 360.2000 149.9965 C358.5250 137.1328 358.8700 124.0867 361.2175 111.3290 C361.9300 107.3828 362.8200 103.4707 363.8850 99.6050 C364.4350 97.6738 365.3175 95.7695 365.7400 93.8188 C365.8900 93.1292 365.9550 92.5700 365.8200 91.8773 C365.2125 90.9755 364.3300 90.7988 363.3200 90.5943 L363.0775 90.5472 C359.0875 91.2685 351.8900 95.2625 347.8350 97.0900 L313.0975 112.6150 C307.0350 115.3175 300.7900 118.6657 294.4625 120.6342 C297.0950 129.9975 297.3175 137.0590 294.7800 146.5098 Z"></path>
<path id="" fill="#151515" fill-opacity="1.0" stroke="#000000" stroke-width="0.0" stroke-opacity="1.0" stroke-linecap="round" stroke-linejoin="round"  filling="0" d="M429.4500 200.5465 C432.9975 200.1945 436.4025 200.6497 439.5200 202.4985 C442.4100 204.2140 444.2450 207.0247 445.0975 210.2383 C446.0550 213.8985 445.5300 217.7883 443.6400 221.0650 C439.6025 227.9648 423.7550 243.6033 416.8550 247.8277 C415.1925 248.8455 413.5675 249.3320 411.7025 249.8033 C408.6225 250.0975 405.3400 249.6638 402.5825 248.1990 C399.5175 246.5710 397.3125 243.5802 396.4025 240.2583 C395.4550 236.7995 395.7825 232.6630 397.6350 229.5470 C400.7400 224.3235 418.2900 206.9187 423.8025 203.0815 C425.6025 201.8280 427.3200 201.0753 429.4500 200.5465 Z"></path>
<path id="" fill="#151515" fill-opacity="1.0" stroke="#000000" stroke-width="0.0" stroke-opacity="1.0" stroke-linecap="round" stroke-linejoin="round"  filling="0" d="M77.4142 200.2932 C80.4140 200.1235 83.1070 200.3737 85.8022 201.8177 C87.3685 202.6565 88.7940 203.7807 90.1288 204.9450 C93.9178 208.2502 97.3452 212.1195 100.9187 215.6640 C104.5697 219.2855 108.8220 222.8952 111.9893 226.9303 C113.3918 228.7170 114.5713 230.6752 115.1960 232.8752 C116.2202 236.4818 115.5140 240.2010 113.6355 243.3880 C111.4340 247.1232 108.3830 248.7798 104.3362 249.8347 C101.0997 250.1275 97.8170 249.7332 94.9673 248.0623 C90.8695 245.6597 71.4790 226.1980 68.3223 221.8985 C67.2177 220.3943 66.4887 218.7395 66.0818 216.9210 C65.2783 213.3297 65.9950 209.3170 68.0242 206.2525 C70.2610 202.8745 73.5375 201.1203 77.4142 200.2932 Z"></path>
<path id="" fill="#151515" fill-opacity="1.0" stroke="#000000" stroke-width="0.0" stroke-opacity="1.0" stroke-linecap="round" stroke-linejoin="round"  filling="0" d="M78.6285 282.8275 C81.9430 282.5725 85.0250 283.0325 87.8327 284.9400 C91.0222 287.1075 93.3242 290.2025 94.0100 294.0550 C94.7140 298.0125 93.2285 301.8675 90.9765 305.0725 C88.5625 308.5100 76.6042 320.4100 73.2465 322.6475 C71.2148 324.0025 69.1945 324.8525 66.7905 325.2725 C63.4175 325.6525 60.1215 324.9450 57.2485 323.1175 C54.3708 321.2900 52.1820 318.2350 51.4770 314.8875 C50.6987 311.1950 51.4337 307.3450 53.5180 304.1975 C56.7300 299.3900 68.4510 287.6550 73.4120 284.6825 C75.1223 283.6550 76.6960 283.2200 78.6285 282.8275 Z"></path>
<path id="" fill="#151515" fill-opacity="1.0" stroke="#000000" stroke-width="0.0" stroke-opacity="1.0" stroke-linecap="round" stroke-linejoin="round"  filling="0" d="M430.6800 282.8425 C433.1600 282.5800 436.1975 283.2225 438.2925 284.5600 C441.9075 286.8700 456.2350 300.9625 458.6400 304.5725 C459.5425 305.9275 460.1925 307.8050 460.4775 309.3900 C461.1250 312.9775 460.1525 317.1125 458.0200 320.0925 C455.7325 323.2950 452.1425 324.8500 448.3750 325.3975 C444.8625 325.7150 440.9250 324.4850 438.1375 322.3325 C434.3525 319.4075 422.0200 307.0325 419.7300 303.2850 C418.7850 301.7375 418.2200 299.7900 418.0200 297.9900 C417.6125 294.3175 418.5425 290.6525 420.9000 287.7675 C423.4650 284.6300 426.7325 283.2650 430.6800 282.8425 Z"></path>
</svg>