<svg xmlns="http://www.w3.org/2000/svg" viewBox="0 0 512 512" height="512.0px" width="512.0px">
<path id="" fill="#f74d43" fill-opacity="1.0" stroke="#000000" stroke-width="0.0" stroke-opacity="1.0" stroke-linecap="round" stroke-linejoin="round"  filling="0" d="M220.9505 60.5148 C318.1425 57.0920 399.6900 133.1380 403.0525 230.3313 C406.4175 327.5250 330.3225 409.0275 233.1272 412.3325 C136.0152 415.6350 54.5977 339.6175 51.2368 242.5078 C47.8757 145.3978 123.8425 63.9345 220.9505 60.5148 Z"></path>
<path id="" fill="#293a56" fill-opacity="1.0" stroke="#000000" stroke-width="0.0" stroke-opacity="1.0" stroke-linecap="round" stroke-linejoin="round"  filling="0" d="M237.0235 178.0533 C242.1497 177.4085 248.1003 177.8902 253.3225 177.8970 L286.1775 177.9205 L342.6000 177.9135 C351.8150 177.9120 361.2075 177.5217 370.4000 177.9210 C372.2625 178.0020 374.1275 178.2932 375.8300 179.0898 C378.5800 180.3770 380.4275 182.8627 381.4025 185.6873 C382.7750 189.6685 382.0775 217.9855 382.0750 224.3188 L382.0625 301.4675 L382.0900 395.1675 C382.0800 409.0975 382.4875 423.1925 382.1150 437.1050 C382.0350 440.0950 381.5800 443.1375 380.2150 445.8350 C378.7150 448.7975 376.1925 449.9675 373.2150 450.9700 C366.8750 452.1975 359.6875 451.5700 353.2225 451.5625 L320.0050 451.5625 L267.5975 451.5650 C258.9500 451.5650 249.5872 452.0150 241.0473 451.4925 C238.2670 451.3225 235.5188 450.8875 233.1160 449.3825 C230.3907 447.6775 228.7283 445.3950 228.0363 442.2475 C227.1085 438.0275 227.5230 433.2250 227.5205 428.9250 C227.5143 417.9400 227.9462 406.9825 227.9465 396.0000 L227.9442 260.3150 L227.9565 211.6320 L227.9225 197.1250 C227.9102 194.0360 227.7700 190.8645 228.0437 187.7875 C228.1920 186.1225 228.4883 184.6735 229.4243 183.2558 C231.1588 180.6280 233.9342 178.6337 237.0235 178.0533 Z M251.0450 428.0825 C261.8700 427.5425 272.8000 427.9200 283.6400 427.8975 L352.4375 427.8750 C354.4675 427.8575 356.4750 427.8325 358.5000 428.0250 C357.7400 415.6375 358.2125 403.0125 358.2125 390.6000 L358.2100 325.6100 L358.2100 243.9915 C358.2100 229.6962 357.7625 215.2710 358.3150 200.9975 C349.3800 201.4767 340.2525 201.0712 331.2975 201.0655 L283.0575 201.0580 C274.1050 201.0580 265.0975 200.8535 256.1525 201.1358 C254.5325 201.1920 252.8650 201.1763 251.2600 201.3955 C250.8825 208.7955 251.0750 216.2720 251.0750 223.6812 L251.0800 260.2600 L251.0800 371.9925 C251.0800 381.9175 250.9525 391.8625 251.1150 401.7850 C251.2575 410.4750 251.8775 419.4250 251.0450 428.0825 Z"></path>
<path id="" fill="#293a55" fill-opacity="1.0" stroke="#000000" stroke-width="0.0" stroke-opacity="1.0" stroke-linecap="round" stroke-linejoin="round"  filling="0" d="M280.7875 256.0200 C282.3650 255.8100 284.0925 255.8225 285.6425 256.2175 C289.5150 257.2050 292.3750 260.3200 294.3075 263.6700 C296.8750 268.1225 300.3650 274.9000 298.8275 280.2100 C297.7625 283.8850 294.5950 286.1950 291.4200 287.9575 C295.5375 296.3825 300.6475 302.2300 308.3625 307.5450 C308.5325 307.3025 308.7075 307.0600 308.8850 306.8225 C310.9000 304.1150 314.1825 301.6725 317.5925 301.2650 C321.4600 300.8025 337.0275 306.0825 340.0900 308.5125 C342.7475 310.6150 344.4325 313.3800 344.7775 316.7900 C345.3075 322.0425 340.9675 326.6475 337.9400 330.4775 C335.8575 332.8400 333.5950 334.7450 330.4650 335.5650 C324.5175 337.1200 313.8800 334.9925 308.1200 333.0000 C303.5800 331.4300 299.1175 329.3000 294.9650 326.8750 C281.1225 318.7875 271.0150 304.6025 267.0300 289.1575 C265.3925 282.8200 263.3075 273.3375 266.8800 267.3725 C269.6750 262.7150 275.4500 257.3875 280.7875 256.0200 Z"></path>
<path id="" fill="#293a56" fill-opacity="1.0" stroke="#000000" stroke-width="0.0" stroke-opacity="1.0" stroke-linecap="round" stroke-linejoin="round"  filling="0" d="M302.2500 397.0350 C308.5725 395.6600 314.8100 399.6800 316.1650 406.0075 C317.5225 412.3325 313.4825 418.5575 307.1525 419.8950 C300.8475 421.2275 294.6550 417.2075 293.3050 410.9100 C291.9525 404.6100 295.9550 398.4050 302.2500 397.0350 Z"></path>
<path id="" fill="#293a55" fill-opacity="1.0" stroke="#000000" stroke-width="0.0" stroke-opacity="1.0" stroke-linecap="round" stroke-linejoin="round"  filling="0" d="M177.9303 273.3050 C180.1812 272.9850 182.4345 273.4250 184.4427 274.4850 C187.3392 276.0150 189.9140 278.8900 190.7725 282.0775 C192.6362 288.9975 188.1418 292.9475 184.1817 297.7225 C182.4408 299.8300 180.8687 302.0725 179.4803 304.4275 C169.6960 320.9100 170.6590 343.1800 181.3602 359.0050 C184.1720 363.1600 189.8030 367.8550 190.9147 372.6325 C191.6490 375.7900 191.0215 379.0425 189.2605 381.7500 C187.3510 384.6875 184.4133 386.2850 181.0620 386.9575 C178.1712 387.1125 175.8100 387.0450 173.2682 385.4350 C170.5675 383.7225 168.3165 381.0225 166.3030 378.5825 C158.2227 368.7925 153.0533 357.7875 150.3658 345.4125 C146.2385 326.4050 150.3692 305.3400 160.9275 289.0650 C163.8757 284.5200 168.5197 277.7850 173.1705 275.0200 C174.7165 274.1000 176.1947 273.6800 177.9303 273.3050 Z"></path>
<path id="" fill="#293a56" fill-opacity="1.0" stroke="#000000" stroke-width="0.0" stroke-opacity="1.0" stroke-linecap="round" stroke-linejoin="round"  filling="0" d="M429.6825 273.3550 C432.6350 273.0225 435.6900 274.3050 437.9875 276.0575 C440.5600 278.0200 442.5775 280.6075 444.5600 283.1375 C453.1500 294.0700 458.5800 307.1475 460.2600 320.9475 C462.8700 341.4325 456.2750 361.9825 443.7000 378.1375 C440.2275 382.6000 436.9825 386.1350 431.0675 386.8700 C428.4075 387.1200 425.7450 386.4150 423.5600 384.8800 C420.9550 383.0650 418.9450 380.0775 418.4250 376.9275 C417.2275 369.7100 423.9575 365.0700 427.6700 359.9225 C440.4750 342.1725 439.9200 318.5925 428.0450 300.5775 C424.9325 295.8550 419.4300 292.3125 418.6150 286.3475 C418.1950 283.2750 419.3400 279.9000 421.2850 277.5275 C423.5175 274.8000 426.2725 273.6650 429.6825 273.3550 Z"></path>
<path id="" fill="#293a55" fill-opacity="1.0" stroke="#000000" stroke-width="0.0" stroke-opacity="1.0" stroke-linecap="round" stroke-linejoin="round"  filling="0" d="M209.8882 287.3100 C212.1693 286.9675 215.6543 288.4200 217.5110 289.7125 C220.0640 291.4875 221.9478 294.2975 222.3763 297.3975 C223.2207 303.5050 219.3705 307.0950 215.9710 311.4875 C208.4158 321.2500 207.9082 335.6125 214.1545 346.1375 C216.8082 350.6100 221.5590 354.1150 222.1565 359.5550 C222.5055 362.7325 221.9677 365.9425 219.8808 368.4525 C217.6660 371.1175 214.6160 372.6000 211.2157 372.9575 C208.7275 372.8500 206.2485 372.3175 204.1127 370.9825 C201.9475 369.6275 200.4272 367.5925 198.8685 365.6175 C193.3078 358.5775 189.2498 351.0375 187.3197 342.2175 C184.0117 327.1025 187.1398 312.1250 195.4670 299.1825 C198.9690 293.7375 203.3400 288.7175 209.8882 287.3100 Z"></path>
<path id="" fill="#293a56" fill-opacity="1.0" stroke="#000000" stroke-width="0.0" stroke-opacity="1.0" stroke-linecap="round" stroke-linejoin="round"  filling="0" d="M396.2075 287.5650 C400.0400 287.3875 403.0575 287.8575 406.2025 290.2450 C415.3025 297.1525 421.1550 312.3000 422.6700 323.3100 C424.7375 338.3325 419.6350 353.5275 410.5500 365.4550 C408.6150 367.9975 405.3500 371.7000 402.0050 372.1450 C400.9375 372.4100 399.8425 372.5425 398.7425 372.5400 C395.5575 372.5375 392.3500 371.1425 390.1150 368.8900 C388.3625 367.1475 387.2700 364.8525 387.0225 362.3950 C386.1425 354.2325 392.2525 351.5075 395.6800 345.2875 C398.4225 340.3100 399.4925 335.3900 399.4925 329.7200 C399.4975 319.7650 395.0275 312.2600 388.1700 305.3925 C387.9025 304.2350 387.4850 303.1100 387.2725 301.9425 C386.6600 298.5775 387.0000 295.2575 389.0225 292.4075 C390.7400 289.9900 393.2600 288.0950 396.2075 287.5650 Z"></path>
</svg>