<svg xmlns="http://www.w3.org/2000/svg" viewBox="0 0 512 512" height="512.0px" width="512.0px">
<path id="" fill="#7b7b7b" fill-opacity="1.0" stroke="#000000" stroke-width="0.0" stroke-opacity="1.0" stroke-linecap="round" stroke-linejoin="round"  filling="0" d="M118.1877 128.9870 L281.3925 129.0570 L352.3525 129.0592 C366.2550 129.0590 380.1950 129.2790 394.0925 128.9003 C393.8175 133.3062 393.1825 137.7160 392.6750 142.1010 L390.4900 161.7652 L380.4650 252.0050 L365.4975 390.4550 C364.0775 403.0375 363.1075 415.6650 361.5275 428.2350 C360.3100 437.0625 360.3850 443.2325 354.6250 450.6625 C350.6275 455.8200 343.4325 459.8525 336.9675 460.6525 C333.1625 461.1250 329.2975 460.9875 325.4725 460.9825 L310.3675 460.9575 L259.4250 460.9550 L204.6252 460.9625 L188.1378 460.9800 C183.8427 460.9825 179.5225 461.1000 175.2498 460.5925 C170.1955 459.9875 165.7300 458.1700 161.7110 455.0300 C156.9095 451.2800 153.6873 445.9025 152.2733 439.9950 C151.4198 436.4300 151.1647 432.6450 150.7690 429.0025 C150.1645 423.5625 149.5960 418.1200 149.0630 412.6725 L143.7165 363.6050 L122.3870 168.5625 C120.8915 155.3802 119.8387 142.1540 118.1877 128.9870 Z"></path>
<path id="" fill="#edaea3" fill-opacity="1.0" stroke="#000000" stroke-width="0.0" stroke-opacity="1.0" stroke-linecap="round" stroke-linejoin="round"  filling="0" d="M127.5005 214.0858 C131.5067 213.6320 135.8470 213.9693 139.8918 213.9745 L164.1275 213.9928 L245.8663 213.9920 L346.2475 213.9767 L372.6800 213.9725 C377.3950 213.9730 382.7775 213.4850 387.3925 214.3930 C393.4975 215.5932 398.9800 220.2663 402.3325 225.3652 C404.6200 228.8443 406.0025 233.1573 406.0450 237.3282 C406.0750 240.2598 405.5675 243.2052 405.1950 246.1062 L403.6025 258.5875 L398.2275 301.7475 L393.9575 337.0050 C393.3075 342.2625 392.9625 347.8750 391.8550 353.0475 C390.5225 359.2625 386.8700 364.7925 381.5525 368.2275 C377.8100 370.3050 374.2525 371.6250 369.9975 372.2100 C363.8050 373.0625 357.6450 372.9925 351.4125 372.9925 L332.4550 372.9850 L267.6550 372.9825 L187.8530 372.9875 L162.6837 372.9975 C157.7215 372.9975 152.6687 373.1925 147.7222 372.8000 C141.2753 372.2875 135.5365 371.5825 130.2740 367.5150 C126.3780 364.5050 123.5267 361.0000 121.9145 356.3225 C120.0020 350.7725 119.6732 344.7375 118.9935 338.9400 L117.1462 324.2600 C114.4480 301.4375 111.5935 278.6350 108.5833 255.8500 C107.7240 249.1780 105.9247 238.9017 107.2670 232.4220 C107.9587 229.0822 109.9222 225.3492 112.0165 222.6803 C115.5865 218.1302 121.7865 214.7655 127.5005 214.0858 Z"></path>
<path id="" fill="#98c7eb" fill-opacity="1.0" stroke="#000000" stroke-width="0.0" stroke-opacity="1.0" stroke-linecap="round" stroke-linejoin="round"  filling="0" d="M145.2680 51.0900 C148.0505 50.7045 151.1608 50.9232 153.9755 50.9303 L169.6040 50.9668 L224.1915 50.9652 L318.5475 50.9570 L349.4850 50.9563 C355.0775 50.9560 360.7525 50.7563 366.3350 51.0280 C372.6375 51.3347 379.1550 54.2697 383.3650 58.9902 C389.2100 65.5397 390.4875 73.4673 390.0125 81.9922 C391.9075 81.9478 393.8025 81.9203 395.6975 81.9090 C402.7900 81.8960 408.9225 84.1580 413.9550 89.2185 C420.0475 95.3438 421.1400 101.5298 421.1325 109.8238 C421.1275 120.0470 421.6100 129.0822 413.7075 136.8660 C411.0200 139.4790 407.7400 141.4050 404.1475 142.4798 C397.6675 144.3737 390.3750 143.9097 383.6800 143.9048 L367.3750 143.8828 L203.7200 143.8825 C175.8900 143.8825 148.0205 144.2085 120.1950 143.8642 C111.7493 143.7595 104.0923 142.8058 97.9265 136.4012 C89.8268 127.9875 90.6695 116.4442 90.9612 105.6038 C91.1393 98.9857 93.9760 93.0977 98.7485 88.5683 C106.1862 81.5088 113.4320 81.7858 123.0335 81.9895 C122.8148 73.8513 123.0168 67.1655 128.1905 60.3825 C132.3602 54.9157 138.5462 51.9507 145.2680 51.0900 Z"></path>
<path id="" fill="#fe7878" fill-opacity="1.0" stroke="#000000" stroke-width="0.0" stroke-opacity="1.0" stroke-linecap="round" stroke-linejoin="round"  filling="0" d="M236.7080 256.3500 C236.8070 256.3375 236.9055 256.3175 237.0052 256.3100 C238.1673 256.2200 239.4755 256.4550 240.6422 256.5900 C247.1890 257.3525 251.5800 260.3775 256.4625 264.5475 C262.7850 259.4325 268.3525 255.6775 276.9700 256.4500 C283.4625 257.0300 288.2675 259.8500 292.3950 264.8275 C296.9800 270.3575 297.7625 276.0450 297.0375 283.0525 C295.8075 294.9525 280.3625 310.1075 271.4825 317.3050 C268.2225 319.6400 259.7875 329.2350 256.5975 330.0900 C256.0225 329.9300 255.5850 329.7125 255.0975 329.3650 C253.7900 328.4375 252.6675 327.2500 251.4650 326.1900 C248.2835 323.3825 245.1630 320.5750 242.0587 317.6800 C239.7685 315.5450 237.2760 313.6400 234.9868 311.5000 C227.7790 304.7650 217.5878 293.8750 216.1395 283.9300 C215.1720 277.2875 215.8580 271.0975 219.9928 265.6600 C224.3817 259.8875 229.6337 257.2700 236.7080 256.3500 Z"></path>
</svg>