<svg xmlns="http://www.w3.org/2000/svg" viewBox="0 0 512 512" height="512.0px" width="512.0px">
<path id="" fill="#c4c4c4" fill-opacity="1.0" stroke="#000000" stroke-width="0.0" stroke-opacity="1.0" stroke-linecap="round" stroke-linejoin="round"  filling="0" d="M74.4295 98.0935 C74.5055 98.0807 74.5813 98.0645 74.6577 98.0555 C79.5153 97.4782 84.8220 97.9212 89.7298 97.9260 L120.2975 97.9453 L223.7105 97.9420 L367.9375 97.9450 L414.0925 97.9450 C421.9175 97.9440 429.9775 97.4840 437.7700 98.0592 C443.1850 98.4593 447.9675 100.0530 452.2125 103.5000 C457.3975 107.7128 459.9775 112.7258 460.6475 119.3455 C460.9600 122.4293 460.1325 125.5350 460.0575 128.6275 C459.8950 135.3398 460.0600 142.0995 460.0625 148.8177 L460.0625 232.8768 L460.0625 342.5100 L460.0800 377.2575 C460.0825 383.3450 460.4300 389.6300 459.9325 395.6825 C459.6300 399.3600 457.8000 403.0200 455.4675 405.8300 C450.8025 411.4550 444.5525 413.2550 437.5600 413.9050 C431.7450 414.5050 425.5225 414.0250 419.6525 414.0175 L384.0425 414.0175 L268.7750 414.0200 L135.7055 414.0150 L94.1535 414.0125 C87.1905 414.0150 79.9615 414.4925 73.0380 413.9125 C68.2087 413.5075 63.0420 411.3475 59.2213 408.3925 C54.2713 404.5625 52.1913 398.6475 51.4410 392.6250 C50.7645 387.1975 50.9595 381.6800 50.9600 376.2200 L50.9720 353.8375 L50.9727 279.2825 L50.9677 174.4110 L50.9660 140.9450 C50.9633 134.8288 50.6780 128.5853 51.0960 122.4885 C51.4335 117.5648 52.2520 112.0407 55.4017 108.0635 C60.3927 101.7610 66.6185 99.0092 74.4295 98.0935 Z"></path>
<path id="" fill="#fbbb6a" fill-opacity="1.0" stroke="#000000" stroke-width="0.0" stroke-opacity="1.0" stroke-linecap="round" stroke-linejoin="round"  filling="0" d="M377.8225 147.4975 C404.0750 145.9987 426.5475 166.1203 427.9475 192.3785 C429.3450 218.6367 409.1400 241.0327 382.8775 242.3330 C356.7525 243.6263 334.5025 223.5513 333.1100 197.4330 C331.7175 171.3145 351.7100 148.9883 377.8225 147.4975 Z"></path>
<path id="" fill="#c3c3c3" fill-opacity="1.0" stroke="#000000" stroke-width="0.0" stroke-opacity="1.0" stroke-linecap="round" stroke-linejoin="round"  filling="0" d="M340.8125 291.1200 C363.7325 289.4725 383.6400 306.7400 385.2475 329.6625 C386.8550 352.5875 369.5525 372.4650 346.6275 374.0325 C323.7575 375.5950 303.9400 358.3450 302.3350 335.4775 C300.7325 312.6100 317.9475 292.7625 340.8125 291.1200 Z"></path>
<path id="" fill="#6b94bf" fill-opacity="1.0" stroke="#000000" stroke-width="0.0" stroke-opacity="1.0" stroke-linecap="round" stroke-linejoin="round"  filling="0" d="M180.8920 295.1025 C182.2433 294.8925 183.7665 294.9500 185.1410 294.8925 C184.8465 299.2650 184.0862 303.6475 183.5748 308.0050 C182.9890 312.9900 182.6033 318.0050 182.0855 323.0000 C181.6353 327.3400 181.0170 331.6500 181.0965 336.0225 C174.1145 335.7625 166.8450 336.6225 159.9232 335.7975 C156.8858 332.4575 154.3420 328.7875 151.7440 325.1050 C148.7835 320.6400 136.3513 304.0700 135.7650 300.5475 C138.2043 299.4300 145.5800 299.1425 148.7570 298.7650 C159.4592 297.4625 170.1710 296.2400 180.8920 295.1025 Z"></path>
<path id="" fill="#7a7a7a" fill-opacity="1.0" stroke="#000000" stroke-width="0.0" stroke-opacity="1.0" stroke-linecap="round" stroke-linejoin="round"  filling="0" d="M336.3925 372.7775 C315.2625 369.1875 300.4000 350.0150 302.1950 328.6550 C303.9875 307.2975 321.8400 290.8700 343.2750 290.8575 C364.7075 290.8425 382.5800 307.2475 384.4025 328.6025 C386.2225 349.9600 371.3850 369.1525 350.2600 372.7675 C345.6700 373.5525 340.9825 373.5550 336.3925 372.7775 Z M355.0200 358.2050 C355.2300 359.4825 355.1700 360.7200 355.1325 362.0075 C357.0850 361.8550 359.0600 361.8400 361.0175 361.7750 C360.9725 360.2550 360.9575 358.7325 360.9300 357.2125 C359.0350 357.1350 356.8525 356.8225 355.0050 357.2350 L355.0200 358.2050 Z"></path>
<path id="" fill="#fefefe" fill-opacity="1.0" stroke="#000000" stroke-width="0.0" stroke-opacity="1.0" stroke-linecap="round" stroke-linejoin="round"  filling="0" d="M323.7550 307.2350 C327.0075 308.7775 329.9500 310.6000 332.8000 312.7950 C335.9900 312.7200 339.1750 312.3300 342.3750 312.2750 C346.5375 312.2025 350.6900 312.5550 354.8375 312.8250 C356.7325 311.5200 361.1825 307.8225 363.4175 308.1025 C363.4800 308.1600 363.5525 308.2075 363.6050 308.2750 C364.4350 309.2675 364.3725 311.6725 364.4975 312.9300 C364.6750 314.7225 364.7675 316.5800 365.1650 318.3375 C365.8100 321.1900 366.8400 323.8950 366.9850 326.8475 C367.2525 332.2350 366.9425 338.5300 363.0450 342.6700 C359.4800 346.4550 354.8725 347.1300 349.9650 347.2550 C350.6250 347.6725 351.2850 348.0950 351.8700 348.6175 C354.6625 351.1100 354.7875 353.7325 355.0050 357.2350 L355.0200 358.2050 C354.9275 362.7350 355.8100 367.8675 352.2375 371.3750 C351.6400 371.9625 350.9900 372.3700 350.2600 372.7675 C345.6700 373.5525 340.9825 373.5550 336.3925 372.7775 C335.7025 372.0700 335.0000 371.3125 334.4075 370.5225 C331.7525 366.9825 332.0100 361.1075 332.5200 356.9275 C325.1525 355.3150 324.6725 351.9175 319.2675 348.2300 C317.2400 346.8475 314.5425 346.2375 312.7275 344.5600 C312.0425 343.9225 311.6975 343.1975 311.6350 342.2700 C311.8550 341.6775 312.0175 341.2425 312.6200 340.9425 C316.8225 338.8425 325.1925 347.7325 328.4350 349.8900 C329.8075 350.8025 331.6350 351.2575 333.1850 351.7825 C334.3875 349.9000 335.5150 348.5700 337.3750 347.2975 C335.0050 347.2225 332.5175 347.0375 330.2450 346.3100 C326.6950 345.1750 323.7575 342.8050 322.0525 339.4575 C320.3525 336.1150 319.5200 327.3850 320.5175 323.7725 C320.9850 322.0775 321.9950 320.3975 322.2675 318.6700 C322.8750 314.7900 322.5425 311.0550 323.7550 307.2350 Z"></path>
<path id="" fill="#83eac4" fill-opacity="1.0" stroke="#000000" stroke-width="0.0" stroke-opacity="1.0" stroke-linecap="round" stroke-linejoin="round"  filling="0" d="M184.2435 293.9825 C186.5762 294.0275 188.9100 293.9925 191.2405 293.8800 C194.5047 293.6950 198.4688 292.4550 201.5932 293.7325 C202.9147 294.2725 204.3707 295.3425 204.8925 296.7250 C205.7505 299.0000 205.0892 302.4600 204.1645 304.6075 C201.8737 309.9275 199.2807 315.1600 196.8830 320.4375 L183.2222 350.7025 L177.5253 363.3325 C176.5335 365.5300 175.6490 367.9600 174.3410 369.9825 C173.2547 371.6575 171.4153 372.5125 169.6272 373.2375 C166.5872 372.4375 164.7190 371.2325 162.7890 368.7875 C160.6427 366.0675 158.7650 363.1350 156.7100 360.3475 L137.5010 334.0450 L126.7045 319.3425 C124.7010 316.6500 122.0973 313.7750 120.5820 310.7800 C119.6290 308.8975 119.8022 306.6725 120.0340 304.6475 C120.3035 304.2525 120.5918 303.8700 120.8980 303.5025 C124.0002 299.7450 132.7708 300.0100 137.5182 299.6125 C138.6800 299.3250 139.8335 299.0575 141.0123 298.8450 C140.9860 300.2925 141.0145 301.7650 140.9200 303.2100 C142.0213 305.9825 156.4830 325.5700 159.3342 328.7525 C160.4645 330.0150 161.9980 331.9950 163.7975 332.0325 C165.5570 332.0675 167.6147 331.6075 168.8985 330.3450 C169.6520 329.6025 170.2475 328.7550 170.7620 327.8350 C173.1280 323.6000 174.8055 318.9050 176.8145 314.4900 C179.0477 309.5825 181.8370 304.6525 183.5047 299.5350 C184.1268 297.6250 184.2337 295.9675 184.2435 293.9825 Z"></path>
<path id="" fill="#6c97bf" fill-opacity="1.0" stroke="#000000" stroke-width="0.0" stroke-opacity="1.0" stroke-linecap="round" stroke-linejoin="round"  filling="0" d="M137.5182 299.6125 C138.6800 299.3250 139.8335 299.0575 141.0123 298.8450 C140.9860 300.2925 141.0145 301.7650 140.9200 303.2100 C139.7253 302.2100 138.8542 300.1300 137.5182 299.6125 Z"></path>
<path id="" fill="#fe7878" fill-opacity="1.0" stroke="#000000" stroke-width="0.0" stroke-opacity="1.0" stroke-linecap="round" stroke-linejoin="round"  filling="0" d="M241.3813 133.3625 C242.0685 133.3087 242.8398 133.3837 243.5280 133.4657 C250.4225 134.2865 255.5375 138.2962 259.7150 143.6178 C265.0700 141.0030 270.3775 139.5558 276.2975 141.1420 C281.0725 142.4210 285.0100 145.5290 287.4625 149.8152 C289.9025 154.0835 290.6375 158.9575 289.2850 163.7018 C286.0500 175.0405 275.0150 181.3963 265.3850 186.7775 C261.2825 189.2177 250.8075 195.4758 246.6808 196.6510 C243.8042 193.7883 241.6750 189.8865 239.4305 186.5270 C233.3188 177.3808 224.2305 165.4713 223.3427 154.1848 C222.9503 149.1978 224.7852 143.4200 228.0638 139.6345 C231.5338 135.6280 236.1803 133.7305 241.3813 133.3625 Z"></path>
<path id="" fill="#fffefe" fill-opacity="1.0" stroke="#000000" stroke-width="0.0" stroke-opacity="1.0" stroke-linecap="round" stroke-linejoin="round"  filling="0" d="M388.3700 166.6880 C389.0675 166.8448 389.7050 167.0085 390.1950 167.5612 C391.5900 169.1337 391.1300 172.3423 391.0925 174.3318 C392.1000 174.1767 393.1150 174.0878 394.1300 173.9872 C395.2550 173.1358 396.4400 172.1777 397.8300 171.8190 C398.6250 171.6140 399.1125 171.7242 399.8100 172.1160 C400.2600 174.4830 399.7300 176.9315 400.1975 179.2845 C400.8525 182.5685 403.2975 185.6370 402.8900 189.0737 C402.4450 192.8200 399.6250 196.8002 396.6600 198.9998 C395.3700 199.9583 393.9050 200.6272 392.6575 201.6532 C392.6000 201.6995 392.5475 201.7475 392.4900 201.7945 C393.7475 204.3395 395.7900 207.6048 395.8025 210.5015 C395.8200 214.0282 392.8950 218.7240 390.4250 221.1395 C386.3725 225.1045 380.7750 224.0717 375.5675 224.0043 C374.3075 225.2397 373.0075 226.7312 371.3350 227.3692 C370.8925 227.1857 370.4800 227.0225 370.1125 226.6990 C368.4725 225.2587 368.9300 221.9125 368.9400 219.9135 C366.4100 220.2785 364.5175 221.6545 362.5875 221.9077 C361.9600 221.9900 361.3725 221.9097 360.9175 221.4265 C359.7475 220.1857 360.1675 217.2097 360.2075 215.6602 C359.1200 214.7925 353.9625 211.7722 353.7925 210.6560 C353.6450 209.6978 354.6550 207.7130 355.1075 206.8090 C357.6775 201.6725 360.7375 196.6873 363.5350 191.6620 L376.8250 167.6355 C378.7575 167.9258 380.5425 168.5717 382.4425 168.9232 C384.9975 169.3963 386.4175 168.0565 388.3700 166.6880 Z M369.6500 208.4138 C372.3450 210.2935 375.0325 211.9400 378.4150 212.0247 C379.8650 211.9917 381.1075 211.6535 382.1625 210.5948 C382.8875 209.8667 383.1375 208.8870 383.1050 207.8828 C383.0375 205.6875 381.6800 203.9235 380.1075 202.5128 C378.5725 201.1365 376.6400 199.9008 374.5750 199.6252 C372.8600 202.2085 370.5550 205.4538 369.6500 208.4138 Z M379.6700 190.5490 C381.6575 191.8017 383.7925 192.4735 386.0175 193.1860 C387.7400 191.8420 389.6325 190.5278 389.8750 188.1625 C389.9925 187.0323 389.5800 185.8553 388.8600 184.9868 C388.0325 183.9863 386.1950 182.8922 384.8800 182.8082 C384.5050 182.7845 384.1125 182.8143 383.7400 182.8325 C382.0800 185.3022 380.4475 187.6380 379.6700 190.5490 Z"></path>
<path id="" fill="#fefefe" fill-opacity="1.0" stroke="#000000" stroke-width="0.0" stroke-opacity="1.0" stroke-linecap="round" stroke-linejoin="round"  filling="0" d="M253.5525 231.8658 C256.3050 231.8372 259.9475 231.4948 262.4450 232.7480 C266.6325 234.8515 264.4300 241.7032 265.8825 245.5400 C268.9675 253.6975 276.1975 253.3125 282.8600 256.3350 C282.9575 256.3800 283.0550 256.4275 283.1525 256.4725 C283.1225 261.6825 281.4400 266.2600 278.4150 270.4950 C274.2675 276.3025 267.2250 279.8575 260.3125 280.9950 C251.9175 281.1850 245.3212 280.0625 238.8533 274.3100 C233.4645 269.4850 230.2547 262.6875 229.9530 255.4600 C229.6783 249.6780 231.6862 243.2218 235.6882 238.9458 C240.4128 233.8980 246.8700 232.0388 253.5525 231.8658 Z"></path>
<path id="" fill="#fef7c8" fill-opacity="1.0" stroke="#000000" stroke-width="0.0" stroke-opacity="1.0" stroke-linecap="round" stroke-linejoin="round"  filling="0" d="M139.4348 160.0780 C141.9235 159.7222 144.6297 159.8945 147.1435 159.9575 C146.6042 163.6575 146.0807 167.2923 146.0397 171.0408 C142.8455 170.9617 139.5762 170.8913 136.3915 171.1545 C135.7275 171.7315 135.0415 172.3260 134.4300 172.9590 C133.3443 174.0835 132.8530 175.4310 132.9045 176.9953 C132.9460 178.2535 133.5095 179.2337 134.7207 179.6715 C136.2510 180.2247 138.0802 180.0267 139.6837 179.9908 C145.5457 179.8593 152.4045 179.2225 157.0493 183.5573 C160.2410 186.5358 162.1707 191.5220 162.2372 195.8420 C162.3013 200.0047 160.8297 203.6942 157.9032 206.6472 C152.5860 212.0125 145.8390 213.9942 138.4725 214.0460 L130.9730 214.0455 C130.8475 210.1330 131.1490 206.7587 132.1775 202.9755 C135.7448 202.8047 139.5575 203.4920 143.0685 202.8715 C145.1942 202.4905 147.0715 201.2560 148.2637 199.4552 C148.9750 198.3990 149.1237 197.2218 148.8297 195.9930 C147.3192 189.6785 137.8288 193.0388 133.5112 192.9198 C130.8472 192.8463 127.7997 191.7872 125.6015 190.2937 C122.6118 188.2628 120.6712 184.6158 120.1107 181.0750 C119.3920 176.5340 119.8228 171.6962 122.6845 167.9547 C126.6187 162.8110 133.2728 160.8837 139.4348 160.0780 Z"></path>
<path id="" fill="#fef7c8" fill-opacity="1.0" stroke="#000000" stroke-width="0.0" stroke-opacity="1.0" stroke-linecap="round" stroke-linejoin="round"  filling="0" d="M103.4205 174.7782 C103.6682 174.7490 104.0067 174.7038 104.2480 174.7012 C104.9003 174.6945 105.2170 174.6675 105.6192 175.2072 C107.1630 177.2790 108.6827 182.6288 109.7387 185.2740 C112.8473 193.0603 117.7872 203.3725 119.6485 211.3475 C120.1015 213.2888 120.1590 215.0600 119.6552 217.0080 C118.5287 221.3645 115.1663 225.3015 111.2448 227.4500 C107.5428 229.4783 102.0740 229.6478 98.0388 228.5443 C97.0912 228.1940 95.7708 227.7038 95.3565 226.6985 C94.2575 224.0312 97.4677 218.9160 98.5762 216.5285 C100.4210 217.2812 102.5310 218.2117 104.5627 218.0217 C105.6425 217.9207 106.1947 217.5117 106.8802 216.7103 C107.4187 215.1930 106.6732 212.8517 106.2030 211.3360 C102.8327 200.4722 96.0870 189.7620 93.6305 178.7238 C96.6700 176.9980 100.0895 175.8005 103.4205 174.7782 Z"></path>
</svg>