<svg xmlns="http://www.w3.org/2000/svg" viewBox="0 0 512 512" height="512.0px" width="512.0px">
<path id="" fill="#fbec8d" fill-opacity="1.0" stroke="#000000" stroke-width="0.0" stroke-opacity="1.0" stroke-linecap="round" stroke-linejoin="round"  filling="0" d="M258.7200 59.1485 C259.9500 59.0267 261.1875 58.9648 262.4225 58.9633 C266.5400 58.9812 270.7250 59.6305 274.8425 59.8930 C315.8050 62.5042 354.1825 76.6635 385.2725 103.8522 C389.2050 107.2907 392.8300 111.2018 396.5175 114.9030 C402.1775 120.5833 407.1550 127.0795 411.7500 133.6302 C430.2475 160.0050 439.9300 189.5285 444.4925 221.1860 C445.7075 229.6235 446.6875 238.2255 447.0175 246.7493 C447.1750 250.7750 447.0775 254.8450 447.0750 258.8750 C447.0375 299.6850 437.3125 343.9800 414.6325 378.3675 C408.1100 388.2575 400.4525 397.1550 392.0800 405.5025 C388.4225 409.1500 384.4600 412.1850 380.4125 415.3675 C366.7575 426.1075 351.9075 433.7600 335.6675 439.8100 C329.6500 442.0525 323.5975 444.1475 317.3600 445.7000 C310.6175 447.3775 303.7500 448.4350 296.8975 449.5625 C286.9325 451.2950 276.8725 452.4325 266.7725 452.9650 C262.2425 453.1650 257.6600 453.0275 253.1250 453.0200 C241.4905 453.0850 229.8952 451.8850 218.4050 450.0700 C213.1667 449.2425 207.8475 448.4925 202.6638 447.3825 C186.4345 443.9075 169.3975 437.7750 154.8548 429.7600 C145.0735 424.3675 136.3380 417.8700 127.4763 411.1300 C123.2425 407.9100 119.6315 404.1750 115.8935 400.4175 C91.9590 376.3675 77.1390 345.6525 69.8952 312.7375 C68.6880 307.2525 67.5220 301.7650 66.7777 296.1925 C66.0455 290.7100 65.3248 285.1300 65.0330 279.6050 C64.7517 274.2800 64.9382 268.8475 64.9398 263.5100 C64.9415 257.0375 64.6917 250.4600 65.1665 244.0055 C67.9693 205.9035 82.1195 164.6075 105.4445 134.1243 C133.8010 97.5143 174.5063 72.4690 219.9680 63.6602 C228.4523 62.0295 237.1150 61.0477 245.7148 60.2767 C250.0600 59.8873 254.3875 59.7223 258.7200 59.1485 Z"></path>
<path id="" fill="#ffffff" fill-opacity="0.0196078" stroke="#000000" stroke-width="0.0" stroke-opacity="1.0" stroke-linecap="round" stroke-linejoin="round"  filling="0" d="M1.3091 512.0000 C3.3875 511.2775 25.6402 511.7425 29.6990 511.7425 L108.8480 511.7450 L408.0800 511.7525 L481.9375 511.7525 L501.0200 511.7350 C504.2850 511.7300 508.1175 511.3450 511.2925 512.0000 L1.3091 512.0000 Z"></path>
<path id="" fill="#ffffff" fill-opacity="0.027451" stroke="#000000" stroke-width="0.0" stroke-opacity="1.0" stroke-linecap="round" stroke-linejoin="round"  filling="0" d="M0.0000 0.9172 C0.7097 3.9909 0.2566 8.0218 0.2535 11.1965 L0.2509 30.6735 L0.2530 111.2188 L0.2531 439.7300 L0.2509 490.8325 C0.2507 494.5500 0.7518 508.0600 0.0000 510.5825 L0.0000 0.9172 Z"></path>
<path id="" fill="#ee4861" fill-opacity="1.0" stroke="#000000" stroke-width="0.0" stroke-opacity="1.0" stroke-linecap="round" stroke-linejoin="round"  filling="0" d="M298.4825 292.7400 C299.1050 292.6875 299.4500 292.6800 300.0275 292.9300 C302.3450 295.4025 303.5700 300.3025 304.7350 303.4875 C309.0325 315.2525 312.8300 326.6900 315.3375 339.0050 C316.5525 344.9775 317.0175 350.6675 317.0450 356.7500 C317.0875 366.5100 315.9100 375.1900 310.3725 383.4975 C302.1200 395.8750 290.7100 401.8725 276.3400 404.6750 C259.7800 407.9050 244.7812 404.4825 230.8902 395.0300 C226.5800 391.7275 222.6008 387.3800 219.5530 382.8925 C202.5910 357.9175 210.0157 323.1325 215.3135 295.5650 C220.0165 297.1975 224.5977 299.3075 229.4150 300.5775 C245.5453 304.8350 266.3850 304.1000 282.2450 299.1150 C287.7900 297.3725 292.9725 294.6225 298.4825 292.7400 Z"></path>
<path id="" fill="#eaa5aa" fill-opacity="1.0" stroke="#000000" stroke-width="0.0" stroke-opacity="1.0" stroke-linecap="round" stroke-linejoin="round"  filling="0" d="M366.8975 288.1000 C373.4100 287.2100 386.1200 287.9475 391.6050 291.4275 C394.1750 293.0575 397.3200 296.0350 397.9000 299.1050 C398.1975 300.6700 397.7600 302.2100 396.8450 303.4925 C392.7900 309.1900 383.4925 308.7950 377.3750 309.6875 C370.6125 310.5450 354.0825 309.0575 348.5925 305.1025 C347.4625 304.2875 346.0550 302.9750 345.8675 301.5100 C345.5975 299.4075 347.3125 297.1875 348.5925 295.6650 C353.2350 290.1525 360.0725 288.7300 366.8975 288.1000 Z"></path>
<path id="" fill="#eaa5aa" fill-opacity="1.0" stroke="#000000" stroke-width="0.0" stroke-opacity="1.0" stroke-linecap="round" stroke-linejoin="round"  filling="0" d="M143.8817 288.0975 C149.9317 287.2800 163.2307 288.1650 168.1772 291.7675 C170.8270 293.6975 173.9408 297.2025 174.3905 300.5250 C174.5717 301.8625 174.2350 303.1600 173.4045 304.2275 C169.8078 308.8600 160.1667 309.1675 154.7453 309.7500 C149.4203 310.3800 142.3810 309.4525 137.0270 308.8050 C133.4397 308.3700 126.8542 307.2225 124.5905 304.0850 C123.3985 302.4350 123.7975 299.7100 124.0420 297.8050 C124.3395 297.3550 124.6570 296.9225 124.9937 296.5025 C129.8158 290.5975 136.5578 288.7975 143.8817 288.0975 Z"></path>
<path id="" fill="#2d140a" fill-opacity="1.0" stroke="#000000" stroke-width="0.0" stroke-opacity="1.0" stroke-linecap="round" stroke-linejoin="round"  filling="0" d="M258.8850 51.1130 C261.6150 51.0430 264.3575 51.0395 267.0900 51.0570 C273.6650 51.0990 280.3250 51.6595 286.8625 52.3467 C325.5400 56.4128 362.9225 70.8497 392.2875 96.7020 C395.1475 99.2200 398.0125 101.6280 400.6875 104.3542 C438.4750 142.8740 454.0900 197.5715 453.6600 250.5575 C453.2200 304.4650 441.0300 361.7550 404.8950 403.4475 C401.4175 407.4600 397.3775 411.2175 393.5700 414.9200 C386.6025 421.6975 376.5025 428.6525 368.0750 433.5900 C333.3400 453.9375 293.2700 461.5225 253.3125 460.8725 C239.7740 460.7175 225.8878 459.2450 212.4978 457.2875 C172.9688 451.5050 144.7863 440.9225 114.8717 413.8825 C109.0345 408.6075 103.7473 402.2675 98.9568 396.0350 C72.6198 361.7675 60.6588 318.7150 58.5625 276.0200 C55.9447 222.7055 72.6490 156.5955 109.2540 116.3635 C116.4753 108.4268 124.9102 101.3035 133.4755 94.8625 C169.8002 67.5465 213.6738 53.2282 258.8850 51.1130 Z M249.0625 442.0650 L269.7600 442.0000 C274.4800 442.0300 279.2700 442.2750 283.9800 442.0250 C292.8900 441.5525 301.8875 440.1950 310.6350 438.4875 C337.8225 433.1800 363.4850 422.0650 384.1425 403.3150 C386.7275 400.9700 389.1575 398.3800 391.6125 395.8975 C423.6825 363.4450 435.6400 314.2625 438.1800 270.0150 C438.7100 260.7925 438.3975 251.3400 438.3425 242.0867 C438.0750 195.8030 420.9900 147.8763 387.6875 115.1122 C354.8300 82.7838 309.7100 67.8105 264.1400 68.1095 C264.0500 68.1100 263.9600 68.1133 263.8675 68.1152 C256.3950 68.3228 248.8712 68.6053 241.4425 69.4717 C194.1825 74.6075 150.3642 96.6290 118.0423 131.4883 C113.7545 136.0550 110.1000 141.3533 106.6180 146.5410 C82.9433 181.8138 72.2810 229.1568 73.8230 271.3150 C75.2312 309.8100 85.5885 349.3025 109.3043 380.3025 C115.5508 388.4675 123.0267 396.0675 130.5825 403.0400 C135.1497 407.2550 140.4892 411.0575 145.6732 414.4750 C168.6922 429.6550 191.8710 435.6125 218.8185 439.4100 C228.7337 440.8075 239.0403 442.0900 249.0625 442.0650 Z"></path>
<path id="" fill="#2e140a" fill-opacity="1.0" stroke="#000000" stroke-width="0.0" stroke-opacity="1.0" stroke-linecap="round" stroke-linejoin="round"  filling="0" d="M300.4875 285.9450 C303.4925 287.0000 304.6625 288.0825 306.0475 290.9800 C309.4125 298.0175 311.9000 305.9625 314.1125 313.4375 C319.8025 332.6750 325.9225 358.5075 318.9475 378.0375 C314.7400 389.8200 306.3400 397.4575 295.1850 402.6450 C278.1750 410.4950 258.7550 411.3125 241.1445 404.9200 C227.3257 399.7750 218.3605 390.7725 212.3085 377.5200 C207.1540 366.2325 205.0895 348.9700 205.3630 336.6575 C205.4850 331.1675 206.2500 325.6725 206.5907 320.1900 C207.4185 314.0175 208.0785 307.8350 209.1172 301.6925 C209.5710 297.9675 210.0632 295.9675 213.0488 293.4800 C218.1210 293.2875 223.0525 295.2175 227.9552 296.3175 C232.3935 297.3150 236.8315 297.9825 241.3545 298.4500 C258.1975 300.1900 272.6825 298.0500 288.4050 291.6875 C292.5475 290.0125 296.1525 287.0000 300.4875 285.9450 Z M215.8667 299.5150 C211.4397 326.0425 206.9815 361.5200 223.7388 384.6900 C226.3622 388.3175 229.8715 391.5100 233.6358 393.9125 C236.5327 395.7225 239.5155 397.5025 242.6760 398.8150 C254.4050 403.6850 268.3250 404.1850 280.6350 401.4000 C291.6875 398.9025 303.3925 392.5425 309.5350 382.7800 C319.2525 367.3300 316.1175 347.1000 312.1900 330.2725 C310.9425 324.9425 302.8050 295.6250 299.2550 293.6625 C299.1400 293.5975 299.0175 293.5425 298.9000 293.4825 C296.2825 294.6475 293.8150 296.2125 291.1625 297.2700 C264.8125 307.7750 242.8185 307.0900 215.8667 299.5150 Z"></path>
<path id="" fill="#2d140a" fill-opacity="1.0" stroke="#000000" stroke-width="0.0" stroke-opacity="1.0" stroke-linecap="round" stroke-linejoin="round"  filling="0" d="M209.1172 301.6925 C210.6510 304.2975 209.1000 314.6875 208.3132 317.8550 C207.8855 319.5775 208.0415 322.3325 207.1430 323.7300 C207.0618 323.8550 206.9910 323.9875 206.9150 324.1175 C206.6393 322.8075 206.8038 321.4950 206.5907 320.1900 C207.4185 314.0175 208.0785 307.8350 209.1172 301.6925 Z"></path>
<path id="" fill="#eaa4aa" fill-opacity="1.0" stroke="#000000" stroke-width="0.0" stroke-opacity="1.0" stroke-linecap="round" stroke-linejoin="round"  filling="0" d="M245.2603 350.0550 C251.9400 349.5600 254.9875 350.2425 260.3400 354.4925 C262.4325 353.1050 264.5550 351.4025 266.9350 350.5550 C270.6725 349.2225 275.0725 349.8600 278.5800 351.5625 C281.2425 352.8550 283.7800 354.7275 284.7350 357.6550 C288.0225 367.7400 277.3750 374.8025 273.2775 382.6300 C272.3675 384.4025 272.1675 387.9100 270.6725 389.0575 C266.5750 389.9175 257.3750 386.7525 253.5275 384.8750 C245.9648 381.1825 239.6293 375.6425 236.8737 367.4625 C235.6022 363.6900 235.8898 359.9375 237.7580 356.4125 C239.3085 353.4850 242.1120 351.0525 245.2603 350.0550 Z"></path>
<path id="" fill="#2d140a" fill-opacity="1.0" stroke="#000000" stroke-width="0.0" stroke-opacity="1.0" stroke-linecap="round" stroke-linejoin="round"  filling="0" d="M175.8358 200.1118 C181.5988 199.9945 187.1458 200.8367 191.8188 204.4362 C197.3618 208.7055 199.4630 216.4350 200.2672 223.0600 C201.6775 234.6785 200.5018 251.5975 193.0220 261.0550 C189.4973 265.5125 182.9210 267.0825 177.5600 267.6850 C172.2615 268.0725 166.3522 266.3375 162.3160 262.8400 C155.0623 256.5550 153.1585 245.9510 152.5807 236.8630 C151.9315 226.6492 152.9967 214.8783 160.1333 206.9040 C164.0052 202.5775 170.1638 200.3788 175.8358 200.1118 Z M190.6207 224.7318 C192.2473 223.9138 193.3667 222.6155 193.9250 220.8763 C194.6095 218.7437 194.3610 216.0923 193.2545 214.1395 C192.6447 213.0635 191.5500 211.9085 190.3067 211.5983 C189.6243 211.4277 188.8282 211.5128 188.1288 211.5383 C186.4232 212.6532 185.4585 214.1933 185.0033 216.1750 C184.4865 218.4240 184.7980 221.1490 186.1508 223.0683 C186.7717 223.9492 187.8880 224.7830 188.9747 224.9485 C189.5170 225.0310 190.0960 224.8595 190.6207 224.7318 Z"></path>
<path id="" fill="#2d140a" fill-opacity="1.0" stroke="#000000" stroke-width="0.0" stroke-opacity="1.0" stroke-linecap="round" stroke-linejoin="round"  filling="0" d="M319.1375 200.1130 C325.1100 200.0810 330.8275 200.7390 335.5675 204.6992 C341.2200 209.4195 343.0525 217.2060 343.7225 224.2032 C344.8200 235.6747 343.9400 251.9225 336.2600 261.0975 C332.4225 265.6825 326.5500 267.1250 320.8275 267.6475 C320.6525 267.6650 320.4775 267.6900 320.3025 267.6975 C315.1125 267.9725 309.2625 266.1050 305.3775 262.6200 C298.3775 256.3425 296.6350 245.8215 296.1775 236.9223 C295.6600 226.9205 296.2750 214.8760 303.4300 207.0838 C307.5025 202.6460 313.2025 200.4035 319.1375 200.1130 Z M334.2400 224.6013 C336.1025 223.2810 337.2200 221.8987 337.6425 219.6107 C337.9875 217.7325 337.6850 215.5047 336.5975 213.9050 C335.9250 212.9185 334.6250 211.8785 333.4150 211.6888 C332.7875 211.5905 332.0825 211.7052 331.4550 211.7680 C329.4825 213.6577 328.1975 215.1850 328.1550 218.0927 C328.1275 219.9805 328.6350 222.1828 330.0200 223.5555 C330.7475 224.2790 331.9450 224.9837 333.0025 224.9292 C333.4425 224.9068 333.8375 224.7565 334.2400 224.6013 Z"></path>
<path id="" fill="#2d140a" fill-opacity="1.0" stroke="#000000" stroke-width="0.0" stroke-opacity="1.0" stroke-linecap="round" stroke-linejoin="round"  filling="0" d="M381.8825 282.4500 C382.7050 282.7000 383.6450 283.0575 384.1175 283.8350 C384.7950 284.9475 384.5225 286.0600 384.1925 287.2475 C383.4000 290.0925 377.5000 303.4225 375.8800 305.6725 C375.3775 306.3725 374.7600 306.7925 374.0275 307.2225 C373.1050 307.0500 372.1775 306.8525 371.5475 306.1000 C370.8650 305.2850 370.9150 304.2375 371.1075 303.2625 C371.4125 301.7250 378.6775 285.4400 379.5175 284.3075 C380.0775 283.5525 381.1050 282.9675 381.8825 282.4500 Z"></path>
<path id="" fill="#2e140a" fill-opacity="1.0" stroke="#000000" stroke-width="0.0" stroke-opacity="1.0" stroke-linecap="round" stroke-linejoin="round"  filling="0" d="M152.8963 284.7975 C153.5025 283.9675 154.3387 282.9525 155.4330 282.8300 C156.0870 282.7575 156.6630 283.0100 157.1588 283.4150 C157.7780 283.9225 158.2408 284.9250 158.2567 285.7150 C158.2625 286.0000 158.2395 286.2875 158.2155 286.5725 C156.8095 289.8850 155.2823 293.1450 153.8867 296.4675 C152.7225 299.2375 151.6573 302.6425 150.0075 305.1550 C149.5172 305.9025 148.7457 306.8175 147.8725 307.1300 C147.1673 307.3825 146.9740 307.2950 146.2932 307.0775 C145.3265 306.1100 145.0705 304.9925 145.0623 303.6425 C145.0428 300.4575 149.1257 292.3575 150.8340 289.3800 C151.5010 288.4700 151.8100 286.9000 152.6983 286.2700 L152.8963 284.7975 Z"></path>
<path id="" fill="#2f160b" fill-opacity="1.0" stroke="#000000" stroke-width="0.0" stroke-opacity="1.0" stroke-linecap="round" stroke-linejoin="round"  filling="0" d="M152.8963 284.7975 C153.5025 283.9675 154.3387 282.9525 155.4330 282.8300 C156.0870 282.7575 156.6630 283.0100 157.1588 283.4150 C157.7780 283.9225 158.2408 284.9250 158.2567 285.7150 C158.2625 286.0000 158.2395 286.2875 158.2155 286.5725 C157.6715 286.2625 157.2538 285.7325 156.6367 285.5550 C155.5060 285.2300 154.6263 285.6875 153.6362 286.1525 C153.1830 286.3650 153.1682 286.3150 152.6983 286.2700 L152.8963 284.7975 Z"></path>
<path id="" fill="#2e150b" fill-opacity="1.0" stroke="#000000" stroke-width="0.0" stroke-opacity="1.0" stroke-linecap="round" stroke-linejoin="round"  filling="0" d="M141.3712 289.4600 C141.0830 291.7725 138.0005 301.4800 136.8570 303.3925 C136.4167 304.1275 135.6985 304.9850 134.7910 305.0975 C134.1543 305.1750 133.3645 304.9300 132.8867 304.4850 C132.1605 303.8075 131.9210 302.9825 131.9365 302.0175 C131.9780 299.4400 136.4783 284.8700 138.1908 283.5025 C138.6622 283.1250 139.1548 282.8700 139.7740 283.0025 C141.1382 283.2950 141.8362 284.6700 142.4310 285.7825 C143.5638 285.8075 144.6965 285.8900 145.8275 285.9575 C144.6087 285.9750 143.3860 286.0150 142.1673 285.9950 C141.8622 287.0975 141.3955 288.3175 141.3712 289.4600 Z"></path>
<path id="" fill="#2d140a" fill-opacity="1.0" stroke="#000000" stroke-width="0.0" stroke-opacity="1.0" stroke-linecap="round" stroke-linejoin="round"  filling="0" d="M361.5350 290.4175 C362.1525 288.2025 362.7025 285.8300 364.5025 284.2375 C365.2275 283.5950 365.8825 283.3300 366.8550 283.3975 C367.2225 283.5800 367.5650 283.7350 367.7925 284.0950 C368.4700 285.1650 368.6250 286.4750 368.4800 287.7000 C367.3750 291.2175 364.7000 301.1725 363.2175 303.7650 C362.9500 304.2200 362.5650 304.5975 362.1025 304.8525 C361.3175 305.2850 360.4000 305.1750 359.5875 304.8825 C358.9600 304.6575 358.6375 304.3850 358.3525 303.7675 C357.2825 301.4525 360.7050 293.0325 361.5350 290.4175 Z"></path>
<path id="" fill="#30160c" fill-opacity="1.0" stroke="#000000" stroke-width="0.0" stroke-opacity="1.0" stroke-linecap="round" stroke-linejoin="round"  filling="0" d="M361.5350 290.4175 C362.1525 288.2025 362.7025 285.8300 364.5025 284.2375 C365.2275 283.5950 365.8825 283.3300 366.8550 283.3975 C367.2225 283.5800 367.5650 283.7350 367.7925 284.0950 C368.4700 285.1650 368.6250 286.4750 368.4800 287.7000 L367.8925 288.0675 L367.8675 287.7300 C367.7750 286.6375 367.8150 285.5100 367.2475 284.5450 C366.7075 284.1900 366.3050 283.9450 365.6275 284.0825 C364.9150 284.2300 364.5975 284.4975 364.1900 285.0700 L364.1725 285.7275 L364.2300 285.2575 L364.4725 285.6750 L365.0675 285.5200 C364.5475 286.9425 363.1950 290.6975 361.9500 291.4075 C361.6325 291.0050 361.6200 290.9025 361.5350 290.4175 Z"></path>
</svg>