<svg xmlns="http://www.w3.org/2000/svg" viewBox="0 0 512 512" height="512.0px" width="512.0px">
<path id="" fill="#ffe6ea" fill-opacity="1.0" stroke="#000000" stroke-width="0.0" stroke-opacity="1.0" stroke-linecap="round" stroke-linejoin="round"  filling="0" d="M132.7610 77.0188 C138.4052 76.8075 144.0992 76.9550 149.7485 76.9565 L180.6167 76.9600 L274.5750 76.9615 L343.6400 76.9587 L365.8375 76.9447 C370.7200 76.9427 375.6475 76.8138 380.5200 77.1540 C379.0900 81.6537 371.4500 90.8655 368.3075 95.2832 L333.8100 144.6100 C330.8750 148.7965 327.8700 152.9335 324.7975 157.0188 C322.8125 159.6990 320.3925 162.5410 318.9175 165.5403 C316.6125 170.2272 315.6875 177.7148 314.5125 182.8995 C312.8650 190.1675 311.0500 197.4160 309.3400 204.6712 C300.2850 244.8002 290.8750 284.8475 281.1125 324.8125 C277.3875 337.9025 274.7575 351.3900 271.7925 364.6725 C269.4100 375.3600 266.6575 385.9850 264.1450 396.6425 C262.4950 403.6375 260.9450 410.5425 258.9850 417.4550 C258.4550 419.3250 258.2725 421.6750 257.1275 423.2950 C256.6625 423.9525 256.2025 424.1650 255.4325 424.2950 C255.2325 424.2050 255.1250 424.1725 254.9625 423.9875 C254.2650 423.1850 253.9175 421.6875 253.6400 420.6700 C252.8050 417.5900 252.3150 414.4625 251.5900 411.3650 L247.5323 394.5075 L235.2615 342.2375 L204.3025 211.2705 C202.1560 202.2440 199.8978 193.2185 197.8935 184.1625 C196.8140 179.2860 195.9000 171.9798 194.0482 167.6460 C192.0970 163.0797 187.3050 157.4942 184.3750 153.2375 L145.6055 97.9905 C141.9408 92.6673 137.3065 87.6982 134.1013 82.1065 C133.1823 80.5027 132.8922 78.8272 132.7610 77.0188 Z"></path>
<path id="" fill="#ffc44d" fill-opacity="1.0" stroke="#000000" stroke-width="0.0" stroke-opacity="1.0" stroke-linecap="round" stroke-linejoin="round"  filling="0" d="M381.1300 76.8553 C381.2475 76.8817 381.3700 76.8970 381.4850 76.9352 C382.5075 77.2733 383.4475 78.6137 384.0775 79.4360 C390.7975 88.1740 396.9400 97.4610 403.2850 106.4727 L427.1050 140.0412 L438.1075 155.5290 C440.6075 159.0235 443.5150 162.5355 445.3125 166.4447 C442.4600 171.4920 438.5900 176.1317 435.1950 180.8358 L417.5225 205.5415 L355.1100 292.7425 L287.7025 387.4950 C279.7125 398.6325 271.9000 409.9500 263.5450 420.8150 C261.9250 422.9250 260.6975 425.3500 258.9925 427.3875 C258.0900 428.4675 257.2325 429.2650 255.8000 429.4225 C254.8375 429.0600 254.1175 428.0925 253.5150 427.2900 C250.6800 423.5125 248.0943 419.5200 245.3470 415.6750 L226.9167 389.8700 L187.1712 333.8375 L123.5742 245.5210 C109.4235 225.3228 95.0640 205.2715 80.4975 185.3707 C75.9102 179.1845 71.6013 172.6673 66.7097 166.7295 C68.2458 162.4422 71.8590 158.4985 74.5975 154.8878 L106.6315 109.7972 C110.9717 103.5445 115.3627 97.3272 119.8037 91.1460 C122.6633 87.1135 126.2022 80.6160 130.1562 77.6775 C131.0117 77.7970 131.4815 78.1315 132.0737 78.7603 C133.8168 80.6118 135.1085 83.0768 136.5807 85.1560 C140.8842 91.1243 145.0945 97.1590 149.2103 103.2580 L178.5690 145.2487 C182.7730 151.2490 190.0050 159.8770 192.5352 166.3555 C195.8820 174.9235 197.3642 183.9740 199.4655 192.8752 L209.3385 234.3680 L236.7982 349.1900 C241.0465 367.8375 245.4823 386.4425 250.1050 405.0025 L253.4225 418.6450 C253.7525 420.0375 253.9025 421.4775 254.2625 422.8575 C254.4325 423.5075 254.6075 423.9475 255.0950 424.4325 C255.2950 424.4575 255.5475 424.5000 255.7450 424.4525 C256.3575 424.3075 256.6725 424.0000 256.9425 423.4600 C258.3425 420.6750 259.2275 415.8875 260.0625 412.7025 C262.9525 401.6650 265.4800 390.5250 268.1800 379.4400 L307.6200 213.7595 C310.1475 203.5535 312.6300 193.2790 314.9725 183.0307 C316.1125 178.0315 317.0750 170.8420 319.0800 166.3163 C321.5050 160.8407 326.3575 155.2420 329.8575 150.3305 L345.7400 127.6960 L374.7975 86.5537 C376.9850 83.5085 378.6875 80.1223 380.9300 77.1168 L381.1300 76.8553 Z"></path>
<path id="" fill="#ffc44d" fill-opacity="1.0" stroke="#000000" stroke-width="0.0" stroke-opacity="1.0" stroke-linecap="round" stroke-linejoin="round"  filling="0" d="M256.0750 77.8932 C256.1575 77.9175 256.2450 77.9305 256.3250 77.9658 C257.8950 78.6663 270.8975 98.2775 272.7800 100.9297 L303.9350 145.1500 C306.1600 148.3070 308.4200 151.4382 310.7150 154.5435 C312.8125 157.3555 315.2825 160.1767 316.8050 163.3542 C317.0650 163.8963 317.4650 164.6485 317.2650 165.2330 C316.6050 165.7303 315.9875 165.8322 315.1775 165.8705 C309.0975 166.1570 302.9550 165.5253 296.8750 165.5195 L257.1250 165.7985 C242.6705 165.7693 228.1855 166.0378 213.7360 165.8392 C207.5975 165.7550 201.5502 165.0525 195.3828 165.1017 C195.9037 163.1743 196.8865 161.6235 197.9767 159.9722 C203.4515 151.6797 209.5692 143.8170 215.3728 135.7610 C217.6090 132.6568 219.6555 129.4218 221.8525 126.2907 L234.2092 108.9837 C238.2583 103.2343 242.2855 97.4342 246.2278 91.6107 C249.3395 87.0140 252.4050 82.0543 256.0750 77.8932 Z"></path>
<path id="" fill="#000000" fill-opacity="1.0" stroke="#000000" stroke-width="0.0" stroke-opacity="1.0" stroke-linecap="round" stroke-linejoin="round"  filling="0" d="M126.9430 64.0755 C131.3075 63.7802 135.7442 63.9530 140.1192 63.9652 L161.5508 63.9912 L231.5643 63.9917 L332.7100 63.9908 L365.2450 63.9845 C370.6600 63.9790 376.1025 63.7867 381.5125 63.9563 C384.2825 64.0430 387.9325 64.2903 390.3275 65.8522 C392.0550 66.9782 393.5275 68.6340 394.7900 70.2445 C398.5450 75.0385 401.9450 80.2093 405.4850 85.1700 L426.1575 114.1082 L447.1300 143.4637 C450.6900 148.4400 454.4875 153.3457 457.8325 158.4642 C458.9375 160.1582 460.0300 162.0168 460.3975 164.0285 C460.9750 167.2015 460.3175 170.0612 458.7500 172.8345 C457.1250 175.7065 454.9825 178.4020 453.0650 181.0865 L443.5500 194.3960 L412.3325 238.0923 L313.8000 376.0575 C309.6250 381.4675 305.7875 387.2500 301.8125 392.8175 L278.6250 425.2825 L270.7775 436.3175 C268.9200 438.9375 267.1500 441.7750 264.8950 444.0700 C263.2500 445.7525 261.1625 446.9375 258.8750 447.4950 C255.4900 448.3250 252.0075 447.6000 249.0710 445.7800 C247.3683 444.7225 246.1540 443.1825 244.9642 441.6025 C241.0700 436.4350 237.3972 431.0650 233.6378 425.7975 L212.4823 396.1575 L148.0108 305.9100 L82.3240 213.9232 L63.8225 188.0378 C60.6285 183.5773 57.3095 179.1698 54.2435 174.6217 C53.1200 172.9552 51.9240 171.0488 51.5172 169.0580 C50.6722 164.9247 52.0795 161.4563 54.3752 158.0802 C59.2505 150.9105 64.4668 143.9523 69.5132 136.9025 L98.1902 96.7055 L111.3645 78.2260 C113.8242 74.7700 116.1960 70.7740 119.1768 67.7775 C121.3495 65.5932 123.9937 64.6305 126.9430 64.0755 Z M266.1800 337.5650 L292.0325 228.9832 L300.0650 195.2875 C301.3275 189.9637 302.3750 184.5105 303.8250 179.2428 C296.7625 178.9075 289.6425 179.1650 282.5700 179.1723 L234.5255 179.1673 C225.7793 179.1630 216.8683 179.4807 208.1402 179.0378 C211.6133 194.9175 215.5835 210.7155 219.3573 226.5273 L237.8488 304.1625 C239.9905 313.1350 253.6775 373.4025 255.6075 376.1525 L255.8100 376.2325 C256.2550 375.8625 256.3775 375.5775 256.5875 375.0475 C259.1725 368.5275 260.4900 361.6375 262.1050 354.8125 C263.4625 349.0750 264.9925 343.3400 266.1800 337.5650 Z M285.5150 366.6750 C286.5450 366.9325 287.5950 367.1250 288.6125 367.4175 C298.1075 353.5100 308.1325 339.9150 317.9150 326.2075 L370.6500 252.4200 L406.4600 202.2343 C411.8850 194.6685 417.1175 186.7688 422.8425 179.4410 C418.6300 179.7068 414.2725 179.4355 410.0425 179.4385 L382.8250 179.4505 L351.4775 179.4622 C344.2975 179.4570 337.0425 179.5740 329.8775 179.1183 C329.1200 185.1763 327.0350 191.6283 325.6350 197.6087 L316.0625 237.9280 L285.5150 366.6750 Z M226.4920 367.1250 C225.7372 361.6275 224.0343 356.0575 222.7505 350.6500 L215.0710 318.5175 L191.1945 218.2630 L185.4848 194.2858 C184.3010 189.3050 182.8728 184.2728 182.2200 179.1933 C161.1438 179.5295 140.0643 179.6163 118.9857 179.4532 C111.2953 179.4503 103.5618 179.2377 95.8775 179.4390 C94.6275 179.4718 92.6397 179.3358 91.5273 179.9025 C91.2332 180.5080 90.8678 180.9368 91.0695 181.6328 C91.6680 183.6973 111.0035 209.9422 114.0600 214.2218 L189.4930 319.8325 L212.4688 351.9875 C216.1550 357.1500 219.6497 362.6025 223.5840 367.5650 C224.6055 367.2350 225.4182 367.1025 226.4920 367.1250 Z M320.1625 144.2130 C322.1025 140.9527 324.7250 137.8878 326.9325 134.7832 C330.1575 130.2465 333.2150 125.3850 336.7200 121.0768 C343.8500 110.7122 352.4275 100.2740 358.8250 89.6160 L310.1050 89.7307 C300.3775 89.7242 290.5825 89.9232 280.8675 89.4855 C288.8625 101.5555 297.6200 113.2202 306.0525 124.9918 L314.2600 136.5128 C316.1300 139.1260 317.9425 141.8790 320.1625 144.2130 Z M383.9000 99.3062 C383.8425 99.4532 383.7875 99.6025 383.7250 99.7477 C383.1050 101.1675 378.3925 106.9400 377.2025 108.6045 C370.3875 118.3245 363.5075 127.9998 356.5650 137.6297 C353.3325 142.1447 349.8150 146.5392 346.7350 151.1470 C346.2900 151.8130 345.7900 152.5055 345.7625 153.3290 C349.4450 153.9953 355.1400 153.2287 359.0175 153.1680 C367.4700 153.1068 375.9225 153.0932 384.3750 153.1275 L410.6250 153.1305 C414.2775 153.1535 417.9975 153.5370 421.6375 153.4113 L421.6550 153.3450 L422.4500 153.3125 C419.9850 148.2513 415.3900 143.1110 412.0625 138.4633 L387.5150 103.9745 C386.3850 102.3590 385.0000 100.9290 383.9000 99.3062 Z M192.1630 144.2125 C193.9665 141.1792 196.3970 138.3495 198.4495 135.4635 C201.9543 130.5350 205.2908 125.3262 209.0750 120.6233 C216.0460 110.4082 224.5598 100.1040 230.8280 89.6183 L181.2380 89.7303 C171.8147 89.7235 162.2728 89.9948 152.8680 89.4850 C160.8535 101.5005 169.5522 113.1113 177.9458 124.8503 L186.3700 136.6585 C188.2047 139.2175 189.9807 141.9345 192.1630 144.2125 Z M255.9275 99.4245 C255.8650 99.5577 255.8075 99.6930 255.7425 99.8245 C255.0775 101.1725 250.7925 106.3990 249.6145 108.0355 L230.0785 135.5150 C226.6960 140.2430 223.0898 144.8678 219.8158 149.6617 C219.2038 150.5580 217.6360 152.4990 217.6743 153.4897 L256.3750 153.1275 L283.0725 153.1440 C286.3425 153.1770 291.2250 153.8455 294.3225 153.3250 C294.0275 152.0590 292.9500 150.5345 292.2050 149.4380 C290.2275 146.5210 287.8675 143.8350 285.7900 140.9795 C281.4350 134.9925 277.2250 128.8642 272.9175 122.8370 L263.5975 109.7550 C261.1225 106.2582 258.7225 102.6780 255.9275 99.4245 Z M127.9465 99.4335 C127.8832 99.5670 127.8235 99.7022 127.7565 99.8340 C127.0908 101.1468 123.6170 105.3282 122.5105 106.8763 L100.5565 137.6407 C97.4538 141.9848 94.0175 146.2165 91.1005 150.6723 C90.6628 151.3410 89.6732 152.6252 89.7533 153.3947 C94.0875 153.8590 98.8665 153.2328 103.2430 153.1617 C111.6150 153.0262 120.0013 153.1232 128.3750 153.1275 L151.8430 153.1335 C156.5695 153.1425 161.6223 152.8980 166.3017 153.4957 C166.4198 153.1735 166.4250 153.3295 166.2688 152.9930 C164.2645 148.6803 158.3262 141.6142 155.3082 137.3913 C147.2122 126.0638 139.3017 114.5590 131.0760 103.3310 C130.0887 101.9837 128.9483 100.7653 127.9465 99.4335 Z"></path>
<path id="" fill="#f6bd4a" fill-opacity="1.0" stroke="#000000" stroke-width="0.0" stroke-opacity="1.0" stroke-linecap="round" stroke-linejoin="round"  filling="0" d="M283.5750 374.5225 C284.2225 372.1075 284.4450 368.8700 285.5150 366.6750 C286.5450 366.9325 287.5950 367.1250 288.6125 367.4175 C287.3975 369.8300 285.2100 372.3500 283.5750 374.5225 Z"></path>
<path id="" fill="#f4bc49" fill-opacity="1.0" stroke="#000000" stroke-width="0.0" stroke-opacity="1.0" stroke-linecap="round" stroke-linejoin="round"  filling="0" d="M226.4920 367.1250 C227.5600 369.2475 227.7430 372.0850 228.3452 374.3800 C227.3155 373.0450 223.9815 369.0875 223.5840 367.5650 C224.6055 367.2350 225.4182 367.1025 226.4920 367.1250 Z"></path>
</svg>