<svg xmlns="http://www.w3.org/2000/svg" viewBox="0 0 512 512" height="512.0px" width="512.0px">
<path id="" fill="#d9925f" fill-opacity="1.0" stroke="#000000" stroke-width="0.0" stroke-opacity="1.0" stroke-linecap="round" stroke-linejoin="round"  filling="0" d="M436.3625 234.5595 C439.0950 234.3715 441.5825 234.4212 444.1750 235.4447 C447.6875 236.8322 450.6525 239.6237 452.1350 243.1125 C453.5775 246.5108 453.7000 251.7025 452.2500 255.1175 C450.9425 258.1925 447.6500 261.6050 444.5975 262.9925 C442.0450 264.1525 439.1325 264.8825 436.4625 265.7450 C431.7050 267.2725 426.9575 268.8250 422.2175 270.4050 L370.5225 287.6225 L215.3380 339.5050 L167.9675 355.2675 C162.1653 357.2400 156.2937 358.9275 150.5627 361.1200 C149.6465 361.3825 148.7200 361.6075 147.7858 361.7925 C144.5790 362.4050 141.4162 362.0125 138.6980 360.0975 C136.3175 358.4200 134.5002 355.9525 134.0417 353.0375 C133.6010 350.2375 134.3802 347.7500 136.0188 345.4775 C137.6530 343.2150 140.0352 341.5100 142.6225 340.5025 C144.9478 339.5950 147.3915 338.9825 149.7335 338.1050 L191.7142 322.8000 L322.8675 275.5100 L401.4575 246.8265 L422.8550 238.9837 C427.2175 237.3880 431.7725 235.3338 436.3625 234.5595 Z"></path>
<path id="" fill="#fed58c" fill-opacity="1.0" stroke="#000000" stroke-width="0.0" stroke-opacity="1.0" stroke-linecap="round" stroke-linejoin="round"  filling="0" d="M105.7020 324.1475 C112.8130 323.4825 120.5157 323.9575 127.7007 323.9500 C136.3310 323.9425 145.1925 323.5325 153.7973 324.0075 C155.0780 324.0800 156.3042 324.2725 157.5202 324.7000 C160.7408 325.8350 162.3813 328.2925 163.7545 331.2500 C165.2340 334.4375 166.2680 337.8625 167.5392 341.1400 C169.8270 347.0400 172.6033 353.0175 172.7485 359.4675 C172.9693 369.2900 164.6582 375.1200 157.6142 380.3600 C153.6998 383.2700 149.7135 386.1125 145.8728 389.1200 C141.9030 392.2250 137.7495 396.2900 134.6490 400.2650 C130.5435 405.5250 126.7173 411.9400 124.5493 418.2550 C123.2375 422.0750 122.3580 426.0300 120.9520 429.8175 C120.4890 431.0475 119.9503 432.3325 119.1582 433.3900 C118.2832 434.5575 117.2185 435.0975 115.7758 435.2375 C110.2548 435.7650 103.6545 430.1175 99.4928 426.8450 C93.1360 421.8475 86.1633 415.5550 81.0527 409.2725 C74.2105 400.8575 67.4415 388.1025 64.1022 377.8150 C61.7540 370.5825 60.3125 362.8375 59.4325 355.3000 C58.9920 351.5275 57.9315 338.1350 60.2860 335.4025 C64.9080 330.0400 97.7680 324.9575 105.7020 324.1475 Z"></path>
<path id="" fill="#4eba94" fill-opacity="1.0" stroke="#000000" stroke-width="0.0" stroke-opacity="1.0" stroke-linecap="round" stroke-linejoin="round"  filling="0" d="M341.5625 108.0510 C344.1425 107.9195 346.7150 107.7802 349.2375 108.4495 C354.3300 109.7997 358.6450 114.3282 361.1950 118.7670 C363.7350 123.1933 365.3125 129.4890 364.7800 134.5930 C364.5450 136.8640 363.7125 139.2285 363.1100 141.4325 C366.5150 145.6918 368.2250 149.7560 369.2725 155.1387 C370.6050 161.9888 369.5825 168.4348 367.4725 175.0245 C366.9150 176.7615 366.2725 178.9595 365.1600 180.4365 C364.7675 180.9575 364.3950 181.3602 363.7100 181.3938 C359.8350 181.5827 353.0875 172.7592 344.7225 174.0072 L344.3675 174.0630 C340.2575 178.0980 337.7675 184.9900 332.2700 187.3625 C329.1075 188.7270 325.8225 187.6585 322.8275 186.4140 C319.0150 184.5295 315.4800 181.8325 313.4125 178.0397 C311.8800 178.9610 310.5175 179.6140 308.6975 179.7885 C303.8275 180.2552 299.2425 177.1500 295.7175 174.1275 C290.6400 169.7733 284.6950 162.4418 284.3200 155.4283 C284.0950 151.1920 286.8700 146.6415 289.6275 143.6163 C297.3625 135.1257 309.8475 130.9353 321.0600 130.4648 C322.4175 126.3820 323.7025 122.2972 326.2075 118.7485 C329.8625 113.5703 335.2000 109.1722 341.5625 108.0510 Z"></path>
<path id="" fill="#4b5661" fill-opacity="1.0" stroke="#000000" stroke-width="0.0" stroke-opacity="1.0" stroke-linecap="round" stroke-linejoin="round"  filling="0" d="M173.7543 50.9530 C183.1505 51.2030 192.5750 51.0573 201.9745 51.0565 L248.5517 51.0443 C259.6900 51.0345 272.4750 50.3978 283.3875 51.5383 C287.2500 51.9357 291.0425 52.8515 294.6600 54.2605 C304.1650 57.8532 314.9950 66.3083 323.3550 72.3757 C330.5325 77.5840 337.6575 82.6777 344.5000 88.3303 C350.4825 84.4228 360.6150 76.8485 366.9450 74.7133 C369.0425 74.0067 371.2975 73.7408 373.4800 74.1455 C377.5625 74.9020 381.4575 77.0228 383.7325 80.5912 C385.8125 83.8555 386.6700 88.5298 385.7500 92.2920 C385.1200 94.8587 383.4550 98.1625 381.4825 99.9470 C378.9700 102.2220 375.9600 103.8578 373.1350 105.6995 C369.3750 108.1525 365.6600 110.7128 361.9825 113.2897 C359.6500 114.9250 357.4300 116.7220 355.0775 118.3270 C342.5925 126.8483 329.8300 134.9308 317.2000 143.2287 C312.2550 146.4787 307.2325 149.6185 302.3025 152.8905 C298.6875 155.2895 295.1950 157.8675 291.4600 160.0813 C290.3625 161.0580 289.1175 161.9828 289.0050 163.5807 C288.9500 164.3667 289.0275 165.2100 289.0700 165.9960 C297.6800 169.6350 299.2450 173.1333 305.6800 179.0287 C306.6425 179.0177 307.6950 178.8692 308.5425 179.3837 C308.8075 179.9478 308.8150 180.2767 308.5850 180.8750 C308.3850 181.3972 308.0825 181.9052 307.8175 182.3975 C311.6550 188.7530 316.4750 194.6987 320.7425 200.7845 L345.5925 236.3177 C350.0800 242.6687 359.0550 254.3025 361.4400 261.3225 C362.3450 263.9875 361.7300 267.0725 361.0775 269.7425 C360.3400 272.7625 358.4525 276.9125 355.7275 278.5875 C354.7075 279.2150 353.5475 279.3950 352.3900 279.0900 C350.9700 278.7175 349.6125 277.7850 348.4550 276.8975 C344.7825 274.0850 341.4950 270.7775 337.9550 267.8150 C336.1450 266.3000 334.1725 264.9875 332.3400 263.5000 C329.7950 261.4375 327.3625 259.2275 324.8375 257.1375 C317.1525 250.8425 309.5500 244.4462 302.0300 237.9527 C298.8950 235.2598 295.6200 232.7055 292.6500 229.8240 C286.1025 233.2047 278.5225 236.5423 271.4000 238.4227 C273.8500 241.5130 276.6125 244.3483 279.1650 247.3545 L303.5125 275.7100 C308.8025 281.8725 315.0950 287.9075 318.6900 295.2425 C322.0525 302.1050 323.3250 310.6350 322.4175 318.1950 C321.8675 322.7825 320.5875 327.0950 318.6575 331.2875 C313.3675 342.7750 305.6750 353.3550 299.0575 364.1150 C296.0500 369.0075 288.4625 382.8750 285.0400 385.9625 C278.7125 381.3375 272.9100 375.8850 267.0325 370.7150 L230.1990 337.9475 L203.0630 313.9400 C196.4203 308.0800 188.8690 302.4350 183.2973 295.5125 C179.0258 290.2075 176.5265 283.8325 175.5083 277.1200 C174.1065 267.8825 175.5780 261.2775 179.7640 253.1000 C152.5052 248.4940 132.9665 238.7023 111.8310 221.0995 C108.7818 218.5600 105.8555 215.8027 102.8717 213.1747 C96.3985 207.4740 90.8727 200.5810 83.1712 196.3737 C79.7010 194.4778 75.9755 193.4303 72.0123 193.4045 C70.0540 193.3918 66.6720 194.1245 64.9405 193.3712 C64.6663 192.5047 64.7663 191.9315 65.1653 191.1305 C68.3192 184.7982 82.1440 177.2755 88.8005 175.2495 C108.3130 169.3105 128.0278 175.9212 146.8082 181.3027 C160.2425 185.1525 173.5788 189.2785 187.4680 191.1750 C202.2875 193.1983 220.8790 191.8305 235.3667 188.1455 C243.2533 186.0838 250.9225 183.2660 258.2675 179.7318 C260.7875 178.5448 263.1750 176.8783 265.7075 175.7950 C265.4875 175.3425 265.4125 175.1630 265.4450 174.6495 C265.4675 174.2915 265.4850 173.9012 265.2450 173.5918 C264.1950 172.2330 256.2975 172.4230 252.6050 165.1080 C251.5650 163.0468 251.0800 160.6635 251.0275 158.3618 C250.8025 148.4440 258.6925 147.8475 260.8500 141.1375 C263.2975 133.5180 265.4675 106.9853 264.5200 98.4348 C264.2575 96.0565 263.6025 93.7920 262.4875 91.6685 C260.6575 88.1805 257.4325 85.0985 253.9875 83.2233 C250.2850 81.2083 246.0468 80.1830 242.0517 78.9055 C236.5033 77.0738 230.9335 75.3073 225.3438 73.6060 L173.5137 57.2715 C173.5010 55.1747 173.6622 53.0490 173.7543 50.9530 Z"></path>
<path id="" fill="#4eb993" fill-opacity="1.0" stroke="#000000" stroke-width="0.0" stroke-opacity="1.0" stroke-linecap="round" stroke-linejoin="round"  filling="0" d="M284.5925 164.3392 C286.5875 163.1250 288.4975 160.8315 290.5725 159.9590 C291.0000 159.7790 291.0525 159.9158 291.4600 160.0813 C290.3625 161.0580 289.1175 161.9828 289.0050 163.5807 C288.9500 164.3667 289.0275 165.2100 289.0700 165.9960 C287.9850 166.0600 285.7150 164.7507 284.5925 164.3392 Z"></path>
<path id="" fill="#4e5863" fill-opacity="1.0" stroke="#000000" stroke-width="0.0" stroke-opacity="1.0" stroke-linecap="round" stroke-linejoin="round"  filling="0" d="M272.4875 171.5455 L272.5750 171.8575 C270.5425 173.3858 268.0875 174.6390 265.8475 175.8432 L265.7075 175.7950 C265.7450 175.7283 265.7925 175.6660 265.8200 175.5948 C266.1075 174.8550 265.7825 173.8488 265.5425 173.1317 C267.9600 172.7688 270.1550 172.2985 272.4875 171.5455 Z"></path>
<path id="" fill="#4eb993" fill-opacity="1.0" stroke="#000000" stroke-width="0.0" stroke-opacity="1.0" stroke-linecap="round" stroke-linejoin="round"  filling="0" d="M255.0825 360.6325 C255.5300 360.7525 255.9500 360.9025 256.3425 361.1550 C260.3625 363.7350 263.9225 367.6050 267.4775 370.7725 C269.7475 372.7925 272.2875 374.5875 274.3475 376.8225 C275.1975 377.7450 276.1025 378.7900 276.4100 380.0275 C276.0325 381.3975 275.1150 382.7550 274.2800 383.9000 C271.6875 387.4575 268.5800 390.7875 265.7575 394.1800 C262.8250 397.7050 254.8550 408.1950 251.6525 410.3700 L250.8875 410.4350 C250.1275 410.1325 249.5335 409.7725 248.8880 409.2700 C245.0790 406.2975 240.7422 401.9875 237.0835 398.6800 C235.3313 397.0975 233.1935 395.6150 231.6995 393.7875 C231.0725 393.0200 230.6580 392.3575 230.7953 391.3425 C230.9150 390.4550 231.1895 389.7300 231.7088 389.0050 C234.4342 385.1950 237.7433 381.9525 240.6760 378.3325 C244.2173 373.9625 251.1475 363.7225 255.0825 360.6325 Z"></path>
<path id="" fill="#4b5661" fill-opacity="1.0" stroke="#000000" stroke-width="0.0" stroke-opacity="1.0" stroke-linecap="round" stroke-linejoin="round"  filling="0" d="M337.6875 83.9790 C338.1850 83.9390 338.6000 83.9145 339.0950 84.0050 C340.4350 84.2498 343.2225 86.1913 343.8775 87.4095 C344.1600 87.9373 344.2625 88.4262 343.9825 88.9897 C343.7725 89.4145 343.3400 89.7452 342.9650 90.0123 C336.8600 94.3383 330.2000 98.0837 323.9350 102.2188 L307.6475 112.8152 C301.6575 116.7527 295.7325 120.7997 289.4300 124.2315 C282.3600 128.1105 274.9575 131.3490 267.3075 133.9080 C266.3225 134.2298 265.2225 134.6870 264.1975 134.8350 C263.2900 134.9660 262.9500 134.8215 262.2750 134.2780 C261.3650 132.1413 262.8300 127.8477 263.2900 125.5063 C265.8600 123.9283 268.9375 123.1350 271.6750 121.8698 C276.8775 119.4195 281.9700 116.7465 286.9400 113.8575 C297.1475 107.9920 307.0300 101.6175 317.0525 95.4512 C323.8025 91.2988 330.3325 87.0510 337.6875 83.9790 Z"></path>
<path id="" fill="#4eb993" fill-opacity="1.0" stroke="#000000" stroke-width="0.0" stroke-opacity="1.0" stroke-linecap="round" stroke-linejoin="round"  filling="0" d="M361.4925 261.2775 C362.3875 261.5150 363.3900 261.4475 364.3125 261.4600 C366.0500 263.8225 368.4450 265.7425 370.3700 267.9675 C374.8375 273.1375 377.4650 279.4175 378.9000 286.0250 C379.2100 287.4525 379.6600 288.9925 379.5025 290.4625 C379.3000 292.3500 377.8075 294.1400 376.3300 295.2375 C375.0550 296.1850 373.9950 296.1775 372.4850 295.9100 C367.6900 294.2450 359.4225 288.2575 355.8775 284.5150 C355.2275 283.8275 354.0950 282.6500 353.9900 281.6875 C353.8725 280.5850 359.5925 269.7625 360.3400 267.6325 C361.0925 265.4850 361.4250 263.5425 361.4925 261.2775 Z"></path>
<path id="" fill="#4b5661" fill-opacity="1.0" stroke="#000000" stroke-width="0.0" stroke-opacity="1.0" stroke-linecap="round" stroke-linejoin="round"  filling="0" d="M238.4775 380.7050 C238.9583 380.8850 239.3985 381.1400 239.8228 381.4275 C243.2852 383.7800 246.3602 386.8550 249.5675 389.5375 C252.5875 392.0650 256.0625 394.4850 258.8325 397.2750 C259.2625 397.7075 259.8175 398.1550 259.8400 398.8225 C259.8950 400.5525 257.0000 404.6200 256.2825 406.4150 C253.6325 413.0350 253.4125 421.4450 254.5175 428.4100 C255.3275 433.5225 257.3225 438.3250 260.0675 442.6925 C261.1725 444.4500 263.7400 446.9975 264.1175 448.9275 C263.3900 451.4750 253.9075 458.9375 251.3500 460.7200 C248.6508 458.6650 246.1345 456.5300 243.6873 454.1825 C241.5117 451.9775 239.0408 450.1375 236.7440 448.0675 L214.7585 428.3975 C212.6667 426.5075 210.3768 424.8425 208.3580 422.8725 C207.3620 421.9000 205.6955 420.4350 205.7883 418.9600 C205.8273 418.3375 206.2990 417.5575 206.6670 417.0750 C207.9267 415.4250 209.5220 413.9425 210.8855 412.3650 L221.0708 400.4825 C224.2677 396.7650 227.5302 393.0900 230.6975 389.3500 C233.1225 386.4875 235.5855 383.1050 238.4775 380.7050 Z"></path>
<path id="" fill="#feab66" fill-opacity="1.0" stroke="#000000" stroke-width="0.0" stroke-opacity="1.0" stroke-linecap="round" stroke-linejoin="round"  filling="0" d="M265.0425 101.7730 C269.5775 99.9200 274.2900 98.3830 278.8975 96.7125 L301.5850 88.3740 L318.6600 81.9760 C322.6175 80.4933 326.5675 78.8965 330.6675 77.8515 C333.6950 78.9530 341.3600 84.0872 343.5875 86.4285 C344.1450 87.0132 344.4400 87.4388 344.4325 88.2502 C343.9750 89.0267 343.2925 89.5245 342.5700 90.0428 C336.0525 94.7202 329.1150 98.8825 322.4675 103.3800 C316.2500 107.5952 309.9950 111.7578 303.7075 115.8668 C300.5725 117.9315 297.4825 120.1760 294.2450 122.0685 C291.4825 123.6848 288.4725 124.8330 285.5150 126.0352 C281.6975 128.7270 266.6375 135.5015 262.4350 134.9742 C262.3375 134.9622 262.2450 134.9332 262.1500 134.9128 C261.6950 134.1610 261.8700 133.3055 261.9200 132.4648 C262.5925 122.2140 263.8825 111.9763 265.0425 101.7730 Z"></path>
<path id="" fill="#4d5761" fill-opacity="1.0" stroke="#000000" stroke-width="0.0" stroke-opacity="1.0" stroke-linecap="round" stroke-linejoin="round"  filling="0" d="M261.9200 132.4648 C261.9550 133.1458 262.0050 133.7330 262.2025 134.3930 C264.1925 134.2125 272.2475 130.6857 275.0075 129.6695 C278.4825 128.3898 282.0150 127.2490 285.5150 126.0352 C281.6975 128.7270 266.6375 135.5015 262.4350 134.9742 C262.3375 134.9622 262.2450 134.9332 262.1500 134.9128 C261.6950 134.1610 261.8700 133.3055 261.9200 132.4648 Z"></path>
<path id="" fill="#f96d62" fill-opacity="1.0" stroke="#000000" stroke-width="0.0" stroke-opacity="1.0" stroke-linecap="round" stroke-linejoin="round"  filling="0" d="M141.1293 322.3550 C143.6720 322.1125 146.4060 322.0575 148.9595 322.1575 C153.5250 322.3375 157.3703 323.6975 160.5287 327.1425 C162.0480 328.8150 163.3168 330.7000 164.2957 332.7375 C166.2350 336.6775 167.5323 341.1250 169.0872 345.2400 C170.4608 348.8775 172.2430 352.5700 173.2185 356.3325 C173.6382 357.8875 173.8150 359.5000 173.7428 361.1125 C173.3785 369.1475 167.0810 373.0250 161.7332 377.8425 C160.7700 378.6475 159.7665 379.4025 158.7267 380.1050 C157.5935 380.8625 156.2628 381.7575 154.8528 381.4850 C153.0375 378.9700 148.9543 366.6675 147.5267 362.9625 L138.7020 340.0000 C136.5598 334.4700 134.0473 328.9050 132.6503 323.1325 C135.4710 322.7975 138.2982 322.5800 141.1293 322.3550 Z"></path>
<path id="" fill="#4fb994" fill-opacity="1.0" stroke="#000000" stroke-width="0.0" stroke-opacity="1.0" stroke-linecap="round" stroke-linejoin="round"  filling="0" d="M367.0400 263.0425 C373.0675 263.3275 382.5275 265.9300 386.8975 270.3625 C387.6100 271.0850 388.3175 272.1275 388.1700 273.2025 C387.9875 274.5425 386.3700 275.3375 385.4925 276.2175 C382.5900 279.1325 390.6975 284.1100 390.3950 287.7250 C390.2350 289.6375 388.6775 290.8425 387.3500 292.0175 C385.2375 293.6225 381.0825 296.5150 378.2800 296.0350 C377.5575 295.9100 377.4800 295.7925 377.0775 295.2400 C376.8125 293.4750 378.0700 292.0975 378.9975 290.7150 C379.2075 283.4325 374.4625 274.7725 370.0725 269.1750 C369.1425 267.9850 366.9625 265.8575 366.5825 264.4225 C366.4025 263.7400 366.6550 263.5425 367.0400 263.0425 Z"></path>
<path id="" fill="#fefefe" fill-opacity="1.0" stroke="#000000" stroke-width="0.0" stroke-opacity="1.0" stroke-linecap="round" stroke-linejoin="round"  filling="0" d="M341.5650 126.6950 L342.2125 126.8383 C343.0650 127.6008 343.6975 128.5465 344.2775 129.5247 C346.2475 132.8412 348.7975 139.0980 347.6850 142.9662 C347.3225 144.2765 346.4425 145.3825 345.2450 146.0285 C342.9925 147.2318 340.8400 146.5468 338.5650 145.8958 C336.0400 145.1983 333.6700 142.5560 332.4350 140.3197 C331.4575 138.5450 330.7650 136.2525 331.4100 134.2478 C332.5150 130.8123 338.5925 128.1673 341.5650 126.6950 Z"></path>
</svg>