<svg xmlns="http://www.w3.org/2000/svg" viewBox="0 0 512 512" height="512.0px" width="512.0px">
<path id="" fill="#d9925f" fill-opacity="1.0" stroke="#000000" stroke-width="0.0" stroke-opacity="1.0" stroke-linecap="round" stroke-linejoin="round"  filling="0" d="M437.6000 53.3245 C442.2150 52.5935 447.7775 53.9847 451.6425 56.5533 C456.2075 59.5883 459.6050 64.4010 460.6525 69.8050 C461.7850 75.4382 460.5850 81.2892 457.3300 86.0235 C454.8550 89.6458 451.5225 91.9673 448.6475 95.1543 C446.8500 97.1458 445.1775 99.2448 443.3325 101.1940 C436.7275 108.1725 429.7125 114.8492 422.9150 121.6462 L390.2650 154.2890 L323.5700 220.9900 L303.2350 241.3318 C299.1200 245.4583 295.0825 249.8407 290.6675 253.6400 C286.2950 257.4025 282.2575 259.9075 276.5600 260.9800 C271.4550 261.2675 266.8600 260.4350 262.5150 257.6225 C258.0225 254.7125 254.4050 250.0250 253.3300 244.7242 C252.4750 240.5195 252.6125 233.3565 255.2100 229.7207 C257.3175 226.7697 260.2325 224.2117 262.7950 221.6508 L275.4250 209.0323 L320.2275 164.2375 L392.1900 92.2740 L414.9150 69.5683 C418.7000 65.7777 422.3550 61.5855 426.4050 58.0890 C429.7925 55.1667 433.2225 53.9885 437.6000 53.3245 Z"></path>
<path id="" fill="#fed48c" fill-opacity="1.0" stroke="#000000" stroke-width="0.0" stroke-opacity="1.0" stroke-linecap="round" stroke-linejoin="round"  filling="0" d="M231.8290 217.0827 C240.0898 216.4798 245.6815 217.5612 252.6725 222.0663 C259.5375 226.4915 264.9500 232.3910 270.6925 238.1078 C275.4600 242.8548 280.4325 247.5083 285.0100 252.4350 C286.6575 254.2100 288.1450 256.1325 289.7525 257.9425 C291.9450 260.4075 294.3250 262.6975 296.3000 265.3525 C298.5375 268.3550 300.7725 271.7550 301.5325 275.4850 C302.3375 279.4375 302.5575 284.4150 301.6425 288.3675 C300.5525 293.0825 298.4125 297.6400 296.5300 302.0800 L291.7175 313.6200 C288.4750 321.2700 285.1525 328.8825 281.7450 336.4600 C280.4350 339.3175 278.9500 342.0925 277.6375 344.9475 C267.7600 366.4450 257.2650 387.6275 244.0103 407.2850 C235.6927 419.6200 226.7343 431.2375 217.2838 442.7125 C214.0918 446.5900 210.9645 451.0175 207.1947 454.3275 C204.8205 456.4125 201.7885 458.3850 198.6127 458.9000 C193.4300 459.7425 179.9953 452.8800 175.0520 450.6025 C171.9330 449.1650 168.7470 447.9225 165.7200 446.2825 C158.2392 442.2350 150.9892 437.9375 144.0412 433.0325 C141.5910 431.4325 139.1500 429.8225 136.8225 428.0475 C130.4505 423.1925 123.9822 418.0050 118.1520 412.5050 C115.4100 409.9175 112.9810 406.8900 110.3867 404.1425 C105.2070 398.6550 100.2340 393.1325 95.6078 387.1625 C73.6745 358.8625 57.8138 324.0375 53.0323 288.4150 C52.4475 284.0575 50.7900 275.8000 51.3607 271.7550 C51.7085 269.4375 52.6565 267.2550 54.1102 265.4200 C56.1295 262.8775 59.6785 260.3650 62.9563 260.0225 C68.5512 259.4375 74.7032 261.7925 80.2805 262.4900 C98.0918 264.7175 112.8670 264.5900 130.5095 260.9650 C141.5267 258.7025 154.0213 254.7225 164.0980 249.7790 C166.4458 248.6270 168.6740 247.2345 170.9880 246.0168 C177.6467 242.5123 184.3570 239.0253 190.9350 235.3740 C201.8110 229.3370 219.6642 218.5035 231.8290 217.0827 Z"></path>
<path id="" fill="#fa6d62" fill-opacity="1.0" stroke="#000000" stroke-width="0.0" stroke-opacity="1.0" stroke-linecap="round" stroke-linejoin="round"  filling="0" d="M231.8867 216.6020 C234.0137 216.4030 236.1557 216.4297 238.2773 216.6817 C242.9747 217.2538 248.3147 218.8123 252.3375 221.3480 C257.8975 224.8508 262.4375 229.8530 267.0550 234.4695 L280.0350 247.4600 C285.3625 252.7975 291.9200 258.5525 296.4550 264.4475 C302.0000 271.6325 304.4325 280.7400 303.2075 289.7300 C302.8375 292.5650 302.1075 295.3400 301.0350 297.9900 C298.9625 303.1475 296.0525 308.0525 293.5500 313.0200 C291.1150 317.8550 288.9000 323.0075 286.2225 327.7000 C285.8475 328.3600 285.5325 328.8800 284.9275 329.3425 C282.7200 329.1650 275.4775 321.0325 273.5725 319.1050 L215.7070 261.2550 L200.1828 245.7460 C197.0352 242.6010 192.7052 239.1142 190.4895 235.2733 C190.5423 235.1860 190.5872 235.0935 190.6480 235.0117 C192.3248 232.7498 218.9710 219.9778 222.6915 218.6203 C225.6745 217.5318 228.7320 216.9057 231.8867 216.6020 Z"></path>
<path id="" fill="#f96d62" fill-opacity="1.0" stroke="#000000" stroke-width="0.0" stroke-opacity="1.0" stroke-linecap="round" stroke-linejoin="round"  filling="0" d="M399.3850 84.6440 C400.0925 84.8340 400.5200 85.1387 401.0725 85.6045 C405.0575 88.9617 408.6625 93.0725 412.3500 96.7630 C417.1225 101.5385 422.1625 106.1793 426.6900 111.1770 C427.7625 112.3613 428.3725 113.1152 428.2825 114.7660 C426.0425 118.3777 417.8925 125.7060 414.4550 129.1422 L384.1800 159.4207 L355.3700 188.2260 C351.0075 192.5880 345.4775 198.8392 340.7625 202.4902 C340.7000 202.4637 340.6350 202.4397 340.5725 202.4102 C338.2525 201.3120 316.5725 179.4775 313.6375 176.1165 C312.7800 175.1348 312.0475 174.1738 311.5850 172.9420 C311.9250 171.9840 312.3575 171.3045 313.0475 170.5592 C319.1700 163.9455 325.8275 157.7112 332.2075 151.3333 L369.4225 114.1300 L388.6075 94.9220 C391.9950 91.5310 395.4700 87.4090 399.3850 84.6440 Z"></path>
<path id="" fill="#d9925f" fill-opacity="1.0" stroke="#000000" stroke-width="0.0" stroke-opacity="1.0" stroke-linecap="round" stroke-linejoin="round"  filling="0" d="M172.3490 338.8200 C172.5043 338.8225 172.6600 338.8150 172.8152 338.8250 C173.5565 338.8675 173.6465 338.8675 174.1225 339.3950 C174.2988 340.2375 174.1523 340.8325 173.8065 341.5950 C172.6393 344.1800 170.4348 346.6200 168.7328 348.8900 C154.8910 367.4075 138.7985 384.1325 120.8265 398.6750 C117.8585 401.0550 114.7852 404.0500 111.2363 405.4900 C105.9800 401.4900 99.7863 393.4525 95.5567 388.1200 C93.8158 385.3450 91.5245 382.7275 89.5757 380.0725 C86.5348 375.9275 83.6758 371.6500 81.0075 367.2550 C79.6762 365.0950 78.1750 362.8350 77.2993 360.4500 C76.9410 359.4725 76.5497 358.3425 77.0052 357.3425 C78.5915 356.5075 89.4822 357.0125 92.1240 356.8375 C99.0673 356.3200 105.9870 355.5250 112.8662 354.4500 C127.2175 352.2775 141.3822 349.0150 155.2377 344.6875 C160.9810 342.9400 166.5267 340.2075 172.3490 338.8200 Z"></path>
</svg>