<svg xmlns="http://www.w3.org/2000/svg" viewBox="0 0 512 512" height="512.0px" width="512.0px">
<path id="" fill="#4b5661" fill-opacity="1.0" stroke="#000000" stroke-width="0.0" stroke-opacity="1.0" stroke-linecap="round" stroke-linejoin="round"  filling="0" d="M255.4150 62.6617 C256.5600 62.6693 257.2475 62.9770 258.1150 63.7140 C259.7900 65.1322 261.2100 67.6192 262.6175 69.3720 L277.4650 87.9933 L304.6375 121.9832 C314.7350 134.5075 324.9775 146.9600 334.9025 159.6198 C335.8625 160.8445 337.1025 162.2742 337.7000 163.7218 C338.8300 166.4657 337.7850 198.8080 338.2200 205.1025 C331.3000 204.5668 324.2450 205.4738 317.3625 204.7793 C318.0675 213.6010 317.8150 222.6367 317.8175 231.4845 L317.8025 272.2325 C317.7825 277.1325 317.5000 282.0325 317.5425 286.9325 C330.7475 285.9425 345.1575 286.2900 358.4175 286.9675 C358.3900 286.2975 358.3625 285.6250 358.3425 284.9525 C358.0550 276.0875 358.1550 267.2025 358.1475 258.3325 C358.1450 254.7950 357.6125 249.6160 358.3775 246.2660 C358.7675 244.5567 396.4350 187.7870 399.3800 184.6447 C403.0400 189.3715 406.2050 194.2812 409.5150 199.2518 L421.4150 217.1035 L432.7575 234.0388 C434.5450 236.7070 436.4825 239.3463 438.1325 242.1000 C438.8725 243.3342 439.6375 244.7110 439.9900 246.1113 C441.1800 250.8400 440.7200 256.5850 440.7150 261.4575 C440.7025 270.0300 440.7075 278.5525 440.0300 287.1050 C433.3775 286.4825 426.6475 287.1600 419.9825 286.7950 C420.3600 300.5550 420.0600 314.4050 420.0600 328.1750 L420.0650 405.4725 L420.0675 434.4575 C420.0650 439.7875 419.8150 445.2325 420.1850 450.5500 L256.8750 450.8075 L143.3318 450.7475 L109.0113 450.7750 C103.4360 450.7725 97.5560 450.2825 92.0312 450.8575 C91.8228 439.0800 92.0185 427.2600 92.0197 415.4775 L92.0258 346.3625 L92.0247 308.3525 C92.0175 301.2525 91.6237 293.9350 92.2240 286.8625 C85.3770 287.1925 78.2310 286.1975 71.4455 287.0125 C71.7783 283.1550 71.4975 279.1350 71.4553 275.2625 C71.4068 269.1025 71.3895 262.9400 71.4040 256.7775 C71.4070 253.2700 71.1685 249.4620 71.8108 246.0080 C71.9835 245.0780 72.7090 244.0075 73.2057 243.2095 C81.1795 230.4015 90.3135 217.4953 98.7405 204.9203 L107.0455 192.4928 C108.8000 189.8548 110.4373 186.9967 112.5977 184.6730 C115.7860 188.1060 118.2523 192.3350 120.8415 196.2275 L133.1835 214.8930 C136.4190 219.7535 152.6217 242.6228 153.6920 246.4507 C154.5688 249.5858 153.9925 254.6850 153.9902 258.0550 L153.7565 286.9425 C158.6467 286.3300 163.7762 286.5125 168.7060 286.4875 C177.3545 286.4425 186.0210 286.4300 194.6545 286.9675 C194.3465 284.0575 194.3772 281.0275 194.2997 278.0950 C194.0810 269.8425 194.2275 261.5575 194.2307 253.2975 C194.2368 237.1512 193.8463 220.8987 194.5480 204.7665 C190.3438 204.9597 186.0957 204.9180 181.8860 204.8987 C179.2437 204.8865 176.5553 204.7215 173.9292 205.0587 C174.0992 199.5315 173.4422 166.2590 174.2635 163.8430 C175.1565 161.2155 185.8955 148.5935 188.6048 145.2110 L218.8760 107.5475 L239.8528 81.3452 C244.3058 75.7513 248.6602 70.0360 253.3000 64.5963 C253.9450 63.8400 254.5625 63.1945 255.4150 62.6617 Z"></path>
<path id="" fill="#fed58c" fill-opacity="1.0" stroke="#000000" stroke-width="0.0" stroke-opacity="1.0" stroke-linecap="round" stroke-linejoin="round"  filling="0" d="M116.6040 61.9380 C144.6670 58.4077 170.2502 78.3700 173.6490 106.4495 C177.0477 134.5287 156.9657 160.0182 128.8710 163.2852 C100.9612 166.5310 75.6768 146.6105 72.3005 118.7165 C68.9243 90.8225 88.7260 65.4447 116.6040 61.9380 Z"></path>
<path id="" fill="#f96c61" fill-opacity="1.0" stroke="#000000" stroke-width="0.0" stroke-opacity="1.0" stroke-linecap="round" stroke-linejoin="round"  filling="0" d="M254.0075 348.1100 C265.3750 347.8700 275.2000 351.1775 283.7100 358.8200 C290.1875 364.6325 294.1825 372.0000 296.1525 380.4150 C297.8175 387.5225 297.0475 395.6100 297.0425 402.8850 L297.0475 433.2600 C297.0500 439.1825 296.8850 445.1575 297.1825 451.0725 C284.3825 450.6150 271.4425 450.9900 258.6250 450.9950 C244.0875 450.9900 229.4540 450.6300 214.9283 451.0875 C215.2500 436.0900 214.9718 421.0250 214.9665 406.0200 C214.9637 397.6275 214.1413 388.0400 215.9850 379.8725 C217.4628 373.1350 220.7177 366.9175 225.4120 361.8625 C232.9680 353.6075 242.7278 348.5900 254.0075 348.1100 Z"></path>
<path id="" fill="#fed48b" fill-opacity="1.0" stroke="#000000" stroke-width="0.0" stroke-opacity="1.0" stroke-linecap="round" stroke-linejoin="round"  filling="0" d="M252.6125 225.3138 C253.8000 225.1953 255.0300 225.1515 256.2225 225.1472 C261.7850 225.1270 266.9250 227.3925 270.8275 231.3270 C273.4000 233.9223 275.2325 237.0773 276.1000 240.6350 C277.5100 246.4280 276.7925 253.3100 276.7925 259.2675 L276.8000 286.9975 C271.1450 286.6550 265.3000 286.9400 259.6250 286.9450 L235.2823 286.9825 C235.1415 278.0425 235.2545 269.0875 235.2348 260.1450 C235.2225 254.5175 234.7410 248.3737 235.5790 242.8035 C236.0115 239.9285 236.9303 237.1163 238.5035 234.6585 C241.8147 229.4863 246.7343 226.6422 252.6125 225.3138 Z"></path>
<path id="" fill="#fed48b" fill-opacity="1.0" stroke="#000000" stroke-width="0.0" stroke-opacity="1.0" stroke-linecap="round" stroke-linejoin="round"  filling="0" d="M151.3468 327.5125 C151.9617 327.4400 152.5802 327.4000 153.1995 327.3925 C158.7762 327.3875 164.1285 329.5875 168.0883 333.5150 C170.4892 335.9150 172.4555 338.7875 173.3850 342.0800 C174.7895 347.0525 174.0802 356.6925 174.0748 362.1450 L174.0688 389.5825 C170.5912 389.5900 167.1215 389.3525 163.6458 389.3000 C161.0818 389.2600 158.4955 389.4400 155.9310 389.4975 C148.4000 388.1050 140.6835 390.3700 133.1532 389.1700 C132.5063 382.4575 133.0117 375.3800 133.0043 368.6125 L132.9823 355.0200 C132.9795 351.6850 132.8395 348.2375 133.3220 344.9325 C133.7207 342.1125 134.7060 339.4075 136.2140 336.9900 C139.8110 331.3100 145.0293 328.9675 151.3468 327.5125 Z"></path>
<path id="" fill="#fed48b" fill-opacity="1.0" stroke="#000000" stroke-width="0.0" stroke-opacity="1.0" stroke-linecap="round" stroke-linejoin="round"  filling="0" d="M356.2975 327.5325 C356.8625 327.4675 357.4300 327.4075 358.0000 327.3900 C363.4700 327.2350 369.2200 329.7675 373.0550 333.6025 C375.6475 336.1775 377.4975 339.4050 378.4075 342.9450 C379.6850 348.1075 379.0400 354.9975 379.0375 360.3325 L379.0575 389.1975 C372.9825 388.7625 366.7625 389.0275 360.6725 389.0350 C353.0900 389.0175 345.5575 389.5900 337.9575 389.5200 C337.6075 381.3675 337.9525 373.0625 337.9400 364.8925 C337.9300 358.5975 337.3650 350.1400 338.2725 344.1575 C338.6325 341.7450 339.4975 339.4350 340.8125 337.3775 C344.6175 331.3675 349.5750 329.0100 356.2975 327.5325 Z"></path>
<path id="" fill="#4b5661" fill-opacity="1.0" stroke="#000000" stroke-width="0.0" stroke-opacity="1.0" stroke-linecap="round" stroke-linejoin="round"  filling="0" d="M419.6075 92.7043 C422.3700 93.0475 428.3125 100.0485 430.2725 102.2065 C434.0825 102.0235 457.1675 101.6695 458.9575 102.4658 C459.2800 102.6095 459.2625 102.8305 459.3750 103.1370 C459.2150 103.9790 458.8750 104.5085 458.3225 105.1628 C455.0975 108.9857 451.1100 112.4918 447.5650 116.0352 C438.4100 125.1890 428.9150 134.1608 420.0875 143.6260 C412.4150 137.4715 405.6100 129.9545 398.6450 123.0092 L388.7850 113.1647 C385.3550 109.7347 381.6925 106.4912 379.2450 102.2535 C389.2050 101.1963 399.4675 102.7647 409.4575 102.0255 C412.5275 99.1335 415.8300 94.5030 419.6075 92.7043 Z"></path>
<path id="" fill="#4b5661" fill-opacity="1.0" stroke="#000000" stroke-width="0.0" stroke-opacity="1.0" stroke-linecap="round" stroke-linejoin="round"  filling="0" d="M91.4745 113.7217 C94.8148 113.9345 100.1580 120.5275 102.6942 122.9557 C108.3127 122.8785 113.9385 122.9390 119.5583 122.9092 C123.2055 122.8900 127.0700 122.5990 130.6805 123.0638 C131.1842 123.4877 131.0895 123.4995 131.2242 124.1028 C131.0468 124.8085 130.8313 125.3500 130.3793 125.9295 C128.8602 127.8767 126.8945 129.6410 125.1505 131.3925 L116.0067 140.5565 C108.9900 147.5788 101.6328 155.6107 94.2310 162.0955 C93.5697 162.6747 92.7835 163.4393 91.8830 163.5287 C88.4030 160.8593 85.4108 157.7417 82.3148 154.6510 L71.0185 143.3605 C65.2200 137.5620 58.8955 131.9218 53.4967 125.7657 C52.6192 124.7650 51.9478 123.7247 51.3040 122.5632 C54.4380 122.7590 57.6915 122.4577 60.8445 122.4572 C67.7213 122.4563 74.5220 122.5923 81.3910 122.9690 C84.4147 120.2507 87.9075 115.4167 91.4745 113.7217 Z"></path>
</svg>