<svg xmlns="http://www.w3.org/2000/svg" viewBox="0 0 512 512" height="512.0px" width="512.0px">
<path id="" fill="#d9e3e6" fill-opacity="1.0" stroke="#000000" stroke-width="0.0" stroke-opacity="1.0" stroke-linecap="round" stroke-linejoin="round"  filling="0" d="M92.9285 254.8650 L420.0825 254.9525 C419.9450 264.7975 420.0825 274.6625 420.0950 284.5100 C420.1000 288.9125 420.5800 293.9650 419.8650 298.3025 C419.5250 300.3600 418.4675 302.4275 417.4400 304.2275 C415.6250 307.4075 412.6725 309.8150 410.2450 312.5100 C408.9125 313.9925 407.8050 315.6075 406.7150 317.2725 C408.3800 321.5400 410.8100 324.1800 414.0050 327.3675 C417.8225 331.1750 420.0925 334.6000 420.0550 340.2225 C419.9925 350.3650 414.4450 364.5000 408.8325 372.7900 C406.8750 375.6800 404.6200 378.1275 402.1600 380.5875 C399.6875 383.0650 397.2400 385.5725 394.4225 387.6650 C384.1175 395.3275 370.8350 399.0175 358.1300 399.0225 L338.0175 399.0225 C338.1825 407.5950 338.0950 416.1925 338.0975 424.7675 C338.1000 435.1925 336.4800 444.5900 328.7300 452.2500 C324.4325 456.4400 319.0225 459.3025 313.1425 460.4975 C308.7675 461.3725 303.8975 461.0250 299.4525 461.0250 L280.3700 461.0250 L208.9393 461.0250 C198.9495 461.0050 190.0545 459.0775 182.7900 451.7150 C173.6382 442.4400 173.9425 430.9375 173.9500 418.7550 L174.0033 399.0125 L157.5273 399.0325 C152.1682 399.0375 146.8660 399.1950 141.5665 398.2350 C137.4545 397.4900 133.5255 396.1075 129.6577 394.5550 C115.6143 388.9175 103.7930 377.0025 97.8918 363.1300 C95.0228 356.3850 90.4742 343.1825 92.7093 335.8650 C93.4545 333.4250 95.0810 331.4950 96.7110 329.5975 C99.0318 326.8950 102.4608 323.7800 103.7043 320.4225 C105.7125 315.0050 100.4810 311.1350 97.3305 307.6100 C95.7202 305.8100 94.1772 303.7075 93.1852 301.4950 C92.4455 299.8475 92.1038 298.1275 91.9900 296.3350 C91.7628 292.7475 91.7735 256.4075 92.2620 255.1300 L92.9285 254.8650 Z"></path>
<path id="" fill="#fa6d61" fill-opacity="1.0" stroke="#000000" stroke-width="0.0" stroke-opacity="1.0" stroke-linecap="round" stroke-linejoin="round"  filling="0" d="M100.8173 206.1152 L409.1775 206.1010 C411.5975 206.0807 417.1900 205.4845 418.8875 207.4010 C420.6200 209.3585 420.0625 217.5443 420.1600 220.2490 C420.3375 225.2130 420.8150 230.1732 420.9450 235.1342 C421.1475 242.8080 421.0175 250.5525 420.9250 258.2300 C420.8500 264.3500 419.9900 270.5275 420.1375 276.6275 L420.1475 276.9975 C417.9675 276.7425 415.7550 276.8075 413.5625 276.8100 L185.3405 276.8225 L122.0555 276.8275 C112.0780 276.8400 101.9845 276.5125 92.0230 276.8625 C91.8167 262.9625 91.9857 249.0340 91.9775 235.1305 C91.9733 227.5228 91.5267 218.2068 92.0663 210.7737 C92.1418 209.7328 92.1590 208.4438 92.9080 207.6555 C94.6162 205.8580 98.5038 206.1693 100.8173 206.1152 Z"></path>
<path id="" fill="#4b5661" fill-opacity="1.0" stroke="#000000" stroke-width="0.0" stroke-opacity="1.0" stroke-linecap="round" stroke-linejoin="round"  filling="0" d="M114.0762 174.0728 C115.3155 166.6155 116.8000 159.2415 119.0330 152.0115 C127.8175 123.5717 145.9747 96.7068 170.2640 79.2982 C201.8103 56.6885 240.6615 46.6925 279.0850 53.1162 C315.9300 59.2767 350.6200 79.7272 372.3300 110.3205 C385.4600 128.8223 395.2100 151.7950 397.8100 174.4272 C401.5575 173.7428 405.5025 173.9447 409.3025 173.9410 C421.4350 173.9295 433.3225 174.3870 443.6750 181.6325 C452.9025 188.0923 458.3550 197.6245 460.2375 208.6317 C461.3300 215.0165 460.7125 221.6745 456.8800 227.1003 C453.6300 231.7030 449.1425 234.2295 443.6350 235.1562 C437.9425 236.1135 432.0175 235.7385 426.2675 235.8030 C423.5475 235.8338 420.8350 236.1420 418.1200 236.1602 C415.1625 236.1800 411.8125 235.4818 408.9175 236.2337 C406.7975 236.5155 404.3750 236.0245 402.2100 235.9677 C397.4625 235.8427 392.7025 235.9028 387.9525 235.9005 L300.8400 235.8893 C296.0225 235.8855 291.1875 235.8065 286.3700 235.9145 C283.3325 235.9825 279.6100 236.7410 276.6800 236.1520 C274.7250 235.5408 227.9153 235.6970 224.6600 236.2793 C222.0920 236.6978 219.0935 236.0213 216.4690 235.9585 C211.0990 235.8305 205.7135 235.9005 200.3410 235.8983 L138.3372 235.9095 L118.8467 235.8970 C114.4420 235.8978 109.9507 235.7640 105.5635 236.1628 C101.1345 237.2930 96.1045 237.0445 91.7035 235.9052 C91.5385 235.8795 91.3737 235.8520 91.2083 235.8282 C88.9503 235.5052 86.3992 235.6933 84.1162 235.7225 C73.7685 235.8553 62.1378 236.5525 55.0775 227.3370 C51.2272 222.3115 50.6628 215.6580 51.5320 209.5770 C52.9095 199.9385 57.9603 188.9547 65.9238 183.0115 C77.1772 174.6127 87.8415 173.9485 101.2525 173.9467 C105.5155 173.9462 109.8195 173.8448 114.0762 174.0728 Z"></path>
<path id="" fill="#fa6d62" fill-opacity="1.0" stroke="#000000" stroke-width="0.0" stroke-opacity="1.0" stroke-linecap="round" stroke-linejoin="round"  filling="0" d="M99.6038 235.6960 C101.4340 235.7215 103.8448 235.5115 105.5635 236.1628 C101.1345 237.2930 96.1045 237.0445 91.7035 235.9052 C94.0430 235.3907 97.1613 235.7280 99.6038 235.6960 Z"></path>
<path id="" fill="#fefefe" fill-opacity="1.0" stroke="#000000" stroke-width="0.0" stroke-opacity="1.0" stroke-linecap="round" stroke-linejoin="round"  filling="0" d="M230.3963 111.6355 C231.2567 111.8087 231.8075 112.1915 232.4900 112.7365 C236.2917 115.7733 239.7533 119.7943 243.2007 123.2540 C247.4633 127.5315 252.1600 131.7365 256.0050 136.3788 C258.7925 132.6548 262.8600 129.2375 266.1600 125.9243 C270.4300 121.6360 274.6450 116.8553 279.2500 112.9433 C279.9250 112.3708 280.6250 111.9605 281.4200 111.5793 C284.3350 113.5425 300.5525 129.5282 301.9500 132.1362 C302.3375 132.8605 302.2125 133.2643 301.8250 133.9523 C299.9425 137.2815 296.0125 140.3967 293.2975 143.0990 L281.9225 154.4645 C280.9100 155.4792 278.6425 157.2750 278.2325 158.5525 C286.7650 166.7428 295.1550 175.0795 303.3975 183.5592 C299.9200 187.7735 295.5925 191.6033 291.7225 195.4742 C288.4825 198.7168 285.1350 202.7605 281.4300 205.4082 C277.1125 202.1893 272.2625 196.5910 268.3725 192.6900 C264.4100 188.7155 259.7750 184.6245 256.1225 180.4223 C250.0500 185.9010 244.3992 191.9775 238.6225 197.7725 C236.0400 200.3630 233.5030 203.2095 230.6090 205.4458 C226.8277 202.4348 223.4527 198.6165 220.0287 195.1902 C216.2238 191.3828 212.0650 187.6667 208.6815 183.4883 C214.5988 176.9930 221.1715 170.9048 227.4070 164.7038 C229.5050 162.6172 231.7643 160.6328 233.7168 158.4113 L233.2242 158.0862 L233.3865 157.8575 C226.5833 150.2402 218.5985 143.6455 211.7863 136.0535 C211.0688 135.2540 209.7365 133.8865 209.7878 132.7872 C211.1808 129.8118 226.9700 114.3562 230.3963 111.6355 Z"></path>
<path id="" fill="#738394" fill-opacity="1.0" stroke="#000000" stroke-width="0.0" stroke-opacity="1.0" stroke-linecap="round" stroke-linejoin="round"  filling="0" d="M351.2750 284.0975 L351.5500 284.0750 C360.1200 283.4125 368.0975 284.6625 374.7375 290.4400 C380.9825 295.8725 384.3650 305.8300 384.9500 313.8725 C385.7500 324.8975 385.0125 336.5775 377.3400 345.2700 C368.4725 355.3150 337.6250 354.6875 324.4550 355.5175 C317.7700 355.7275 310.6775 355.0775 305.2550 350.7675 C298.1125 345.0975 294.9525 336.1050 292.3675 327.6875 C291.4475 324.6900 290.4500 321.6050 290.1125 318.4750 C289.7550 315.1350 290.7050 312.5325 292.8050 309.9600 C299.0000 302.3725 332.1075 288.8425 342.4425 285.8025 C345.3625 284.9425 348.2475 284.4125 351.2750 284.0975 Z"></path>
<path id="" fill="#738394" fill-opacity="1.0" stroke="#000000" stroke-width="0.0" stroke-opacity="1.0" stroke-linecap="round" stroke-linejoin="round"  filling="0" d="M151.5535 284.0925 C156.3342 283.5975 161.6752 284.0500 166.3500 285.1575 C173.6060 286.8750 180.4725 290.1000 187.3080 293.0175 C196.5202 296.9475 206.4880 300.7575 214.6905 306.5700 C217.7263 308.7200 220.4357 311.3800 221.0005 315.2250 C222.1467 323.0325 215.1280 340.3075 210.4960 346.6700 C206.7923 351.7575 201.6715 354.3125 195.5440 355.2625 C189.6845 355.6650 184.1422 355.1850 178.2930 354.9325 C166.9588 354.4475 144.9700 354.1925 135.8045 347.0225 C130.2578 342.6850 127.3980 334.4975 126.5600 327.7425 C125.1885 316.6850 126.4182 302.9850 133.6118 293.9300 C138.2635 288.0750 144.1673 284.9100 151.5535 284.0925 Z"></path>
<path id="" fill="#738394" fill-opacity="1.0" stroke="#000000" stroke-width="0.0" stroke-opacity="1.0" stroke-linecap="round" stroke-linejoin="round"  filling="0" d="M255.1825 356.3625 C257.5025 356.2050 259.6375 356.8325 261.6125 358.0450 C267.5625 361.6975 279.4200 385.4200 280.9250 393.1025 C281.5025 396.0525 280.8125 399.0225 279.1350 401.4975 C277.2825 404.2250 275.0175 405.5600 271.8300 406.1175 C269.8150 406.4700 267.7250 406.3100 265.8200 405.5475 C259.8300 403.1550 260.9850 396.8675 256.6500 393.9525 C256.5850 393.9075 256.5175 393.8650 256.4500 393.8225 C252.7650 394.5975 251.4200 399.7350 249.4023 402.5125 C247.8925 404.5900 245.9210 405.9475 243.3450 406.2850 C240.0535 406.7125 236.2303 405.4475 233.6770 403.3275 C231.6600 401.6525 230.2230 399.1425 230.0215 396.5100 C229.4605 389.1775 241.8810 366.4350 246.7865 360.6950 C249.3237 357.7250 251.2975 356.6700 255.1825 356.3625 Z"></path>
<path id="" fill="#738393" fill-opacity="1.0" stroke="#000000" stroke-width="0.0" stroke-opacity="1.0" stroke-linecap="round" stroke-linejoin="round"  filling="0" d="M204.3277 439.9600 C211.5388 440.0225 218.7943 440.1725 225.9995 439.8625 C225.8650 443.4025 226.0160 446.9575 225.9803 450.5000 C225.9450 454.0025 225.6690 457.5325 225.8645 461.0300 C218.6620 461.2875 211.4200 460.7300 204.2177 461.1450 C204.3672 454.0975 204.2590 447.0125 204.3277 439.9600 Z"></path>
<path id="" fill="#738293" fill-opacity="1.0" stroke="#000000" stroke-width="0.0" stroke-opacity="1.0" stroke-linecap="round" stroke-linejoin="round"  filling="0" d="M245.2773 439.9525 C252.5025 440.0275 259.7550 440.1425 266.9750 439.8675 C266.7675 443.4325 266.9750 447.0150 266.9575 450.5825 C266.9425 454.0150 266.7350 457.4450 266.6900 460.8800 C264.4425 461.5825 249.1938 460.9025 245.2060 461.1425 C245.4603 454.1225 245.1840 446.9875 245.2773 439.9525 Z"></path>
<path id="" fill="#728294" fill-opacity="1.0" stroke="#000000" stroke-width="0.0" stroke-opacity="1.0" stroke-linecap="round" stroke-linejoin="round"  filling="0" d="M286.2400 439.9450 C293.4700 440.0625 300.7000 440.0475 307.9275 439.8925 C307.7075 443.4025 307.9450 446.9575 307.9425 450.4750 C307.9425 453.8825 307.7225 457.3075 307.5425 460.7075 C306.7000 461.4200 288.9475 460.9800 286.1950 461.1375 C286.4225 454.1100 286.1725 446.9875 286.2400 439.9450 Z"></path>
</svg>