<svg xmlns="http://www.w3.org/2000/svg" viewBox="0 0 512 512" height="512.0px" width="512.0px">
<path id="" fill="#c8d1d4" fill-opacity="1.0" stroke="#000000" stroke-width="0.0" stroke-opacity="1.0" stroke-linecap="round" stroke-linejoin="round"  filling="0" d="M171.4355 65.0940 C173.2883 64.7740 175.4547 64.8633 177.3385 64.8770 C187.5123 64.9512 198.0530 67.5847 206.5920 73.2675 C214.3902 78.4568 220.5735 84.9373 227.1525 91.5247 L245.2140 109.6055 L309.4075 173.8375 L355.4850 219.9180 L369.3450 233.7845 C371.9150 236.3378 374.7575 238.8205 377.0800 241.5927 C377.5125 242.1095 378.1925 242.8620 378.2650 243.5525 C378.3125 244.0175 376.4650 246.0135 376.0550 246.4670 C371.6475 251.3600 366.6850 255.9125 362.0175 260.5775 L334.9700 287.6250 L257.2975 365.1400 C255.6675 366.5550 254.2875 367.6800 252.1875 368.3575 C249.4675 366.3550 247.1385 363.7125 244.7682 361.3150 L235.2457 351.7575 L199.1845 315.6800 L91.3783 207.8685 L66.4812 182.9868 C62.7260 179.2380 54.9575 172.3927 52.5260 168.1187 C52.6970 167.2162 53.4180 166.3740 53.9857 165.6550 C56.9498 161.9012 60.8570 158.5235 64.2458 155.1350 L84.3773 135.0058 L120.6373 98.7390 C129.5165 89.8540 138.2682 79.9145 148.7222 72.8765 C154.9227 68.7018 164.1013 65.9453 171.4355 65.0940 Z"></path>
<path id="" fill="#f96d62" fill-opacity="1.0" stroke="#000000" stroke-width="0.0" stroke-opacity="1.0" stroke-linecap="round" stroke-linejoin="round"  filling="0" d="M91.3513 128.6965 C91.9677 128.7240 92.1982 128.6918 92.7160 129.0095 C93.6345 131.3873 92.8955 139.2725 93.0323 142.4900 C93.1630 145.5925 93.5575 148.6780 94.2112 151.7135 C95.4017 157.3062 98.1487 167.1918 101.8400 171.6140 C111.4025 183.0697 139.2558 176.9870 154.7110 187.0943 C169.1662 196.5475 166.7812 219.0417 170.0625 233.9995 C170.8403 237.5453 172.0598 241.2170 174.5567 243.9413 C185.1945 255.5475 216.0757 251.9500 231.5748 262.0025 C245.0040 270.7125 238.0180 290.3950 240.8717 303.6450 C241.5155 306.6325 242.5735 309.7275 244.5853 312.0850 C252.2450 321.0600 272.7900 324.0500 283.9675 325.3925 C285.9525 325.6325 291.8425 325.7700 293.3775 326.7525 C293.3125 327.8275 292.5350 328.8025 291.8725 329.6050 C289.4575 332.5325 286.4350 335.1850 283.7450 337.8675 L266.0425 355.5100 C262.9425 358.6025 259.5275 361.6450 256.6900 364.9700 C256.2600 365.4750 255.7775 366.0300 255.6175 366.6875 C255.4600 367.3325 256.6575 368.2850 257.0775 368.6925 C268.2550 379.5225 285.0375 395.4125 286.0975 411.6125 C286.7125 420.9875 284.2850 429.5150 277.9525 436.5950 C272.6250 442.5500 264.5450 446.5350 256.5625 447.0250 C255.5425 447.1100 254.5175 447.1525 253.4950 447.1525 C244.6302 447.1300 236.4245 443.7500 230.2018 437.4000 C224.0150 431.0875 220.8225 422.7325 220.9685 413.9225 C221.1913 400.5075 230.0742 390.0750 238.6375 380.6925 C242.1478 376.8475 245.4688 373.0850 249.2392 369.4700 L249.2263 366.5000 C244.5320 361.5000 239.4000 356.7700 234.5410 351.9150 L202.3562 319.7500 L104.4522 221.8915 L70.3815 187.8540 L59.3033 176.7872 C57.2300 174.7145 55.0065 172.6783 53.1057 170.4462 C52.6978 169.9673 51.6512 168.9225 51.7867 168.2990 C51.9658 167.4765 53.2812 166.2202 53.8792 165.5835 C59.8322 159.2453 66.2805 153.2372 72.4220 147.0712 L83.7617 135.6925 C86.0755 133.3735 88.5488 130.3955 91.3513 128.6965 Z"></path>
<path id="" fill="#4b5661" fill-opacity="1.0" stroke="#000000" stroke-width="0.0" stroke-opacity="1.0" stroke-linecap="round" stroke-linejoin="round"  filling="0" d="M378.1375 243.6625 C379.2550 243.9408 380.0350 244.5298 380.8625 245.3092 C384.6075 248.8380 388.1850 252.5975 391.8250 256.2375 C401.8575 266.2700 411.7650 276.4775 421.9775 286.3250 C424.1850 288.4550 426.6350 290.3125 428.8450 292.4350 C435.3250 298.6625 441.6000 305.1400 447.9550 311.4975 C451.0650 314.6075 454.8075 317.7550 457.5050 321.2125 C458.4375 322.4100 460.2150 323.7375 460.3950 325.2650 C458.4400 328.9775 451.1725 335.3800 447.9750 338.5800 L427.3225 359.1875 C426.1625 360.3325 425.0825 361.5100 423.6025 362.2350 C422.9950 362.2275 422.6450 361.9150 422.1950 361.5425 C419.1225 359.0075 416.5525 355.2550 413.9350 352.2175 L398.5900 334.5600 L367.5600 298.7625 C361.7550 292.0850 355.7675 285.5075 350.1425 278.6850 C349.3150 277.6800 347.6950 275.8675 347.5800 274.5575 C349.3225 271.5400 374.9675 245.8607 378.1375 243.6625 Z"></path>
</svg>