<svg xmlns="http://www.w3.org/2000/svg" viewBox="0 0 512 512" height="512.0px" width="512.0px">
<path id="" fill="#b3c1c9" fill-opacity="1.0" stroke="#000000" stroke-width="0.0" stroke-opacity="1.0" stroke-linecap="round" stroke-linejoin="round"  filling="0" d="M71.1397 215.0795 C71.2085 215.0685 71.2762 215.0530 71.3455 215.0462 C76.2347 214.5830 81.3733 214.9178 86.2910 214.9232 L113.9308 214.9430 L140.8212 214.9205 C145.9825 214.9158 151.4955 214.5258 156.6040 215.2840 C161.0665 215.9545 165.2852 217.7475 168.8652 220.4948 C172.9892 223.6940 175.3423 228.6367 175.9848 233.7652 C176.4340 237.3530 176.0938 241.2397 176.0995 244.8578 C176.1130 253.0250 177.2392 261.7975 171.8528 268.6625 C167.8885 273.7125 161.9940 275.9025 155.8130 276.6600 C155.7832 276.6675 155.7543 276.6775 155.7238 276.6825 C150.9068 277.4150 145.6325 277.0300 140.7623 277.0275 L114.4250 277.0125 L87.7775 277.0350 C82.4455 277.0475 76.8562 277.3975 71.5757 276.7075 C67.1223 276.1250 62.7462 274.8075 59.0788 272.1425 C54.6158 268.8975 52.1495 263.9875 51.3152 258.6050 C50.6710 254.4475 50.5725 236.0380 51.4642 232.0985 C52.1487 229.0755 53.8053 225.6270 55.6758 223.1410 C59.3172 218.3013 65.3268 215.9122 71.1397 215.0795 Z"></path>
<path id="" fill="#b3c1c9" fill-opacity="1.0" stroke="#000000" stroke-width="0.0" stroke-opacity="1.0" stroke-linecap="round" stroke-linejoin="round"  filling="0" d="M357.1425 215.0757 C358.6000 214.8503 360.2100 214.9003 361.6900 214.8970 L414.4700 214.9283 L430.2000 214.9135 C434.4725 214.9110 438.8725 214.7020 443.0925 215.4872 C447.4500 216.2985 451.9100 218.2767 455.0550 221.4635 C462.5275 229.0355 461.1600 239.9877 461.1100 249.6865 C461.0725 256.8100 460.3325 265.2650 454.9100 270.5325 C450.0925 275.2150 445.7275 276.0825 439.2675 276.0400 C434.8100 276.1225 430.4075 276.9050 425.9675 277.0000 C411.0050 277.3275 395.9700 277.0075 380.9975 277.0125 C372.8875 277.0150 364.2750 277.6475 356.2425 276.5350 C352.1600 275.9700 348.1750 274.9925 344.8200 272.5000 C340.0500 268.9600 337.2400 263.9775 336.3775 258.1375 C335.8025 254.2700 336.0000 250.3275 335.9800 246.4320 C335.9400 238.6743 335.0300 231.2290 339.9675 224.6562 C344.1850 219.0435 350.3150 216.0880 357.1425 215.0757 Z"></path>
<path id="" fill="#67c6a5" fill-opacity="1.0" stroke="#000000" stroke-width="0.0" stroke-opacity="1.0" stroke-linecap="round" stroke-linejoin="round"  filling="0" d="M132.9872 355.4400 C115.9765 347.5350 103.0462 337.2375 96.4875 319.1175 C94.1080 312.7375 92.6625 306.0475 92.1957 299.2525 C91.8958 294.9225 92.0052 290.5525 92.0060 286.2100 L92.0098 266.9650 L92.0103 204.4608 L92.0088 154.4860 C92.0007 145.1342 91.4360 135.4473 92.3580 126.1517 C93.3108 116.5470 95.7307 106.9117 99.8740 98.1693 C109.0803 79.0190 125.4735 64.2773 145.4900 57.1487 C153.4270 54.3353 161.6740 52.8387 170.0587 52.2473 C180.3432 51.5215 191.5663 52.0332 201.9682 52.0383 L260.8275 52.0407 L313.0550 52.0332 C323.2300 52.0300 333.6800 51.5193 343.8050 52.4610 C353.7925 53.3900 363.4450 55.3683 372.5500 59.7065 C389.3225 67.6970 402.4275 79.1300 411.0075 95.8185 C412.5550 98.8275 414.0875 101.8593 415.2100 105.0565 C417.1425 110.5495 419.2400 119.0655 419.8025 124.8515 C420.2300 129.2495 420.0875 133.7590 420.0775 138.1747 L420.0725 155.7870 L420.0600 215.4360 L420.0675 272.6175 L420.0825 290.2400 C420.0850 294.0875 420.2350 298.0000 419.8600 301.8300 C419.1625 309.4550 417.0850 316.8875 413.7250 323.7675 C406.5700 338.5675 394.3500 349.3075 378.9850 355.0575 L379.0600 372.5475 C379.0700 376.2150 379.2500 379.9975 378.9400 383.6500 C378.1300 393.5225 373.8575 402.7900 366.8775 409.8150 C363.9300 412.7900 360.4500 415.2525 357.1050 417.7575 C350.1450 422.9725 342.9475 427.8125 335.9100 432.9100 L313.5150 449.2325 C308.2350 453.0425 302.7875 457.5575 296.7125 460.0575 C293.7600 461.2725 289.4075 461.0025 286.2550 461.0075 L244.9498 461.0075 C237.1950 461.0050 229.2660 461.3425 221.5302 460.7900 C218.9845 460.6075 216.2570 460.3250 213.8922 459.3225 C207.2470 456.5075 200.7437 450.9950 194.9065 446.7275 L174.0450 431.5425 C164.6608 424.4525 153.3680 418.0100 145.1110 409.7325 C133.8528 398.4475 132.9770 387.5250 132.9935 372.4650 L132.9872 355.4400 Z"></path>
<path id="" fill="#4eba94" fill-opacity="1.0" stroke="#000000" stroke-width="0.0" stroke-opacity="1.0" stroke-linecap="round" stroke-linejoin="round"  filling="0" d="M132.9872 355.4400 C133.0875 355.4500 133.1880 355.4575 133.2880 355.4675 C137.4620 355.9175 141.5010 357.3525 145.6978 357.8575 C155.0067 358.9800 164.6460 358.6475 174.0058 358.4675 L173.9892 415.1925 C173.9892 418.4575 173.8553 421.9050 174.2422 425.1500 C174.4340 426.7550 175.0710 428.3650 175.1113 429.9875 C175.1250 430.5400 174.9410 430.9400 174.6687 431.4025 L174.0450 431.5425 C164.6608 424.4525 153.3680 418.0100 145.1110 409.7325 C133.8528 398.4475 132.9770 387.5250 132.9935 372.4650 L132.9872 355.4400 Z"></path>
<path id="" fill="#fefefe" fill-opacity="1.0" stroke="#000000" stroke-width="0.0" stroke-opacity="1.0" stroke-linecap="round" stroke-linejoin="round"  filling="0" d="M273.1900 235.1170 C289.2525 234.7415 305.4050 235.1093 321.4775 235.1065 C335.5925 235.1042 349.8300 234.6885 363.9350 235.0938 C365.2125 235.1305 367.4725 235.0115 368.5575 235.6660 C368.8700 236.5957 368.8550 237.4532 368.7625 238.4227 C367.4200 252.5950 361.3125 265.7200 350.3200 274.9625 C344.4075 279.7200 337.7125 283.0075 330.4200 285.0475 C317.4900 288.5925 303.6750 286.7650 292.1100 279.9825 C280.5325 273.3350 271.5400 262.3300 268.0850 249.3310 C267.5025 247.1407 265.3425 237.7045 266.4000 235.8820 C268.0650 234.7323 271.2000 235.1245 273.1900 235.1170 Z"></path>
<path id="" fill="#fefefe" fill-opacity="1.0" stroke="#000000" stroke-width="0.0" stroke-opacity="1.0" stroke-linecap="round" stroke-linejoin="round"  filling="0" d="M149.8920 235.1183 C165.4720 234.7162 181.1660 235.1248 196.7575 235.1210 L225.3112 235.1048 C230.5745 235.0935 235.8622 234.9490 241.1223 235.1008 C242.3970 235.1375 244.5043 235.0202 245.5977 235.6738 C245.8997 236.4120 245.9552 237.0388 245.9082 237.8360 C245.0587 252.2425 238.1905 265.3900 227.4758 274.8650 C222.1285 279.0900 215.9385 282.5500 209.4175 284.5700 C196.5233 288.5350 182.5797 287.1925 170.6797 280.8375 C158.6703 274.5450 149.6880 263.6975 145.7470 250.7250 C145.0555 248.4043 142.3875 237.8070 143.4082 235.9335 C145.0340 234.7550 147.9402 235.1220 149.8920 235.1183 Z"></path>
<path id="" fill="#4b5661" fill-opacity="1.0" stroke="#000000" stroke-width="0.0" stroke-opacity="1.0" stroke-linecap="round" stroke-linejoin="round"  filling="0" d="M171.5907 51.1070 C183.0453 50.7690 194.5757 51.0335 206.0378 51.0335 L269.4225 51.0342 L312.8750 51.0338 C327.4375 51.0315 342.5950 49.9845 356.8375 53.5440 C375.0350 58.0918 391.0600 68.1155 402.5575 82.9865 C404.2425 85.1678 406.0650 87.3840 407.4625 89.7655 C407.9475 90.5957 408.3875 91.3995 408.1375 92.3637 C405.6800 95.0865 382.1650 111.0550 379.1450 112.2932 C378.8550 112.2495 378.5675 112.1955 378.2775 112.1485 C374.5775 111.5485 366.3300 106.6955 362.6250 104.8370 L338.2000 92.5565 C335.4175 93.4930 332.7050 95.1865 330.0775 96.5100 L313.6125 104.7903 C308.9325 107.0240 304.2375 110.0595 299.3500 111.7345 C297.6575 112.3140 296.1450 112.0960 294.4700 111.5543 C290.0525 110.1270 285.5275 107.3070 281.3700 105.2125 L256.2475 92.5660 C253.0725 93.5950 249.8833 95.5963 246.8997 97.1147 L228.9200 106.1277 C225.0625 108.0805 221.1078 110.4425 217.0148 111.8307 C215.4077 112.3757 213.7880 111.9870 212.2220 111.4715 C208.0237 110.0898 203.7940 107.4323 199.8192 105.4375 L174.2778 92.5710 C170.6905 93.7332 167.0995 96.0220 163.7070 97.7260 C154.9153 102.1418 146.1597 106.8853 137.2195 110.9805 C135.4550 111.7888 133.6918 112.5135 131.7935 111.7433 C127.6655 110.0680 122.5900 105.5088 118.7567 102.8873 C114.4713 99.9563 109.8105 97.3165 105.7195 94.1332 C105.0072 93.5790 104.3727 93.0565 104.0267 92.2065 C103.9772 91.2375 104.1500 90.5795 104.5912 89.7117 C106.0940 86.7572 111.2570 80.4790 113.6602 77.7990 C128.4580 61.2965 149.6720 52.3220 171.5907 51.1070 Z"></path>
<path id="" fill="#fef3ab" fill-opacity="1.0" stroke="#000000" stroke-width="0.0" stroke-opacity="1.0" stroke-linecap="round" stroke-linejoin="round"  filling="0" d="M214.9600 132.9673 L235.9735 132.9518 C235.4987 139.8600 235.9863 147.0495 235.9733 153.9953 C249.3585 153.8387 262.8225 153.7637 276.2075 153.9913 C276.0300 146.9940 276.1200 139.9525 276.1800 132.9518 C283.1450 132.9930 290.1125 132.9953 297.0800 132.9590 C296.9300 139.9645 297.1400 146.9865 297.0625 153.9950 L317.9100 153.8943 C317.5250 160.5318 317.9300 167.4272 317.9100 174.0925 C310.9525 173.9147 303.9700 174.0335 297.0100 174.0408 C297.1525 180.9975 297.0075 187.9625 297.1075 194.9215 C292.8600 194.7725 279.9025 195.7280 276.6875 194.3845 C275.5675 191.9875 276.1700 177.4260 276.1875 173.9995 C262.7725 174.2665 249.3060 174.0367 235.8860 174.0363 C235.9230 178.0700 236.6562 191.0785 235.4288 194.1808 C233.7852 195.4967 217.8800 195.0350 214.9505 194.8115 L214.9883 174.0115 L174.0135 174.0392 C174.1875 180.9913 173.9160 187.9550 174.1432 194.9060 C167.4875 194.9365 160.5618 195.3483 153.9395 194.8050 C153.8732 190.3333 154.5960 178.2408 153.6265 174.7395 C152.0562 173.4062 136.1955 174.0508 132.9962 174.0658 L132.9772 153.9540 C137.1062 153.7680 141.3297 153.9068 145.4642 153.9807 C147.3793 154.0148 149.4702 154.2195 151.3652 153.9713 C152.0742 153.8783 152.8087 153.6483 153.2965 153.0912 C153.7522 152.5703 153.9305 151.8445 154.0010 151.1732 C154.2230 149.0663 153.9828 146.7360 153.9557 144.6090 C153.9153 140.7300 153.9140 136.8508 153.9520 132.9718 L174.0930 132.9575 C174.0380 136.0985 173.5160 151.4355 174.7045 153.4657 C175.3955 153.8090 175.9803 153.9110 176.7493 153.9662 C180.6125 154.2437 184.7112 153.9430 188.5985 153.9420 L215.0150 153.9778 C214.8313 146.9840 214.9435 139.9633 214.9600 132.9673 Z"></path>
<path id="" fill="#40997a" fill-opacity="1.0" stroke="#000000" stroke-width="0.0" stroke-opacity="1.0" stroke-linecap="round" stroke-linejoin="round"  filling="0" d="M235.1570 358.0825 C235.3525 358.0675 235.5490 358.0600 235.7450 358.0525 C242.5298 357.7625 249.4010 357.9600 256.1975 357.9600 C263.7650 357.9600 274.1600 357.2200 281.2825 358.9175 C284.8250 359.7575 288.0825 361.5175 290.7300 364.0175 C294.6850 367.6550 297.0050 372.7350 297.1650 378.1050 C297.3000 383.7800 295.1800 389.2750 291.2700 393.3875 C287.6025 397.1800 283.0225 399.0175 277.8025 399.0750 L245.8555 399.0550 C241.1995 399.0625 234.5977 399.6250 230.1995 398.7600 C227.6817 398.2650 225.0858 396.8650 223.0440 395.3375 C218.8855 392.2250 215.7760 387.1600 215.0850 381.9925 C214.3475 376.4775 215.6678 370.8825 219.0760 366.4475 C223.1512 361.1475 228.6995 358.9400 235.1570 358.0825 Z"></path>
<path id="" fill="#738394" fill-opacity="1.0" stroke="#000000" stroke-width="0.0" stroke-opacity="1.0" stroke-linecap="round" stroke-linejoin="round"  filling="0" d="M301.8675 234.9467 C312.0550 234.5627 322.9950 235.0655 333.3200 234.9110 C332.7875 239.0635 331.7400 242.8395 328.7525 245.9238 C325.9950 248.7515 322.7950 250.6600 318.7625 250.9300 C314.6125 251.2075 310.2550 249.8817 307.1275 247.0970 C303.5425 243.9043 302.1375 239.6158 301.8675 234.9467 Z"></path>
<path id="" fill="#738394" fill-opacity="1.0" stroke="#000000" stroke-width="0.0" stroke-opacity="1.0" stroke-linecap="round" stroke-linejoin="round"  filling="0" d="M178.9165 234.9332 C182.1463 234.7650 185.4828 234.9670 188.7250 234.9747 C195.8870 235.0225 203.0493 234.9962 210.2108 234.8960 C209.8972 239.2603 208.8115 242.7000 205.7910 245.9380 C203.0570 248.6927 199.9742 250.5900 196.0112 250.9175 C191.6510 251.2750 187.5038 249.8500 184.2397 246.9410 C180.6230 243.7173 179.1600 239.6752 178.9165 234.9332 Z"></path>
</svg>