<svg xmlns="http://www.w3.org/2000/svg" viewBox="0 0 512 512" height="512.0px" width="512.0px">
<path id="" fill="#fbad4a" fill-opacity="1.0" stroke="#000000" stroke-width="0.0" stroke-opacity="1.0" stroke-linecap="round" stroke-linejoin="round"  filling="0" d="M204.6257 109.1075 C211.4110 108.6475 218.4840 109.0320 225.2968 109.0355 L265.8375 109.0420 L295.6700 109.0228 C301.4950 109.0200 307.7750 108.5583 313.5200 109.4875 C322.4650 110.9340 332.7775 116.7068 338.1250 124.1137 C342.3850 130.0152 344.9925 137.1783 345.0375 144.4780 C345.0675 149.5318 343.9625 154.6078 343.3725 159.6220 C342.2375 169.8715 341.0025 180.1093 339.6625 190.3340 C336.7250 213.4165 333.9550 236.5200 331.3525 259.6425 L318.3450 371.4975 L313.3700 415.5075 C312.1500 426.5825 311.2000 437.8550 309.3750 448.8450 C309.2275 449.7425 309.1550 451.6375 308.4400 452.1475 C303.7500 451.8325 298.9350 452.0200 294.2300 452.0200 L269.1400 452.0275 C247.1223 452.0350 225.0737 451.7700 203.0600 452.1200 C202.9895 448.1500 202.2538 444.2050 201.7500 440.2750 C201.0477 434.7950 200.4617 429.2925 199.8158 423.8050 L193.9875 372.5225 L183.4200 280.4575 C182.4545 272.2025 181.6613 263.9225 180.6008 255.6800 C177.6107 232.7675 174.8000 209.8325 172.1687 186.8765 C170.8732 177.1172 169.7157 167.3403 168.6973 157.5482 C168.2710 153.6938 167.6260 149.8483 167.3887 145.9770 C166.8622 137.3887 170.7937 127.7265 176.5112 121.3875 C183.6053 113.5222 194.2455 109.6355 204.6257 109.1075 Z"></path>
<path id="" fill="#fedc94" fill-opacity="1.0" stroke="#000000" stroke-width="0.0" stroke-opacity="1.0" stroke-linecap="round" stroke-linejoin="round"  filling="0" d="M242.6272 300.1025 C242.7335 300.0875 242.8392 300.0700 242.9460 300.0600 C247.4440 299.6250 252.2650 299.9375 256.8000 299.9400 C260.6550 299.9425 264.5550 299.8350 268.4025 300.0425 C293.7425 301.4175 322.8150 308.1425 342.8600 324.6050 C350.7725 331.1025 356.7350 339.0275 357.6650 349.5125 C358.3300 356.9950 354.3250 365.2375 349.6150 370.8025 C341.1450 380.8125 332.4225 385.8175 320.6375 391.0100 C317.8250 392.2500 315.1650 393.9550 312.2975 395.0300 C309.1275 396.2225 305.7800 397.0425 302.5125 397.9125 C291.3350 400.8800 280.2700 402.6475 268.7675 403.5725 C267.9650 403.7200 267.1300 403.8000 266.3175 403.8725 C262.7725 404.1850 259.1450 404.0550 255.5875 404.0550 C237.6620 404.0575 218.2120 401.2600 201.2515 395.2350 C198.1418 394.1325 195.1110 392.6500 192.0805 391.3425 C184.0620 387.8775 175.9498 383.4975 169.2320 377.8750 C161.1015 371.0700 155.0347 362.7150 154.1510 351.9225 C153.5553 344.6500 157.5395 336.8900 162.1283 331.5100 C166.8978 325.9175 172.4730 321.9025 178.7303 318.1550 C182.6797 315.7875 186.6850 313.5275 190.9010 311.6650 C206.8972 304.6025 225.2782 301.4275 242.6272 300.1025 Z"></path>
<path id="" fill="#ffdd95" fill-opacity="1.0" stroke="#000000" stroke-width="0.0" stroke-opacity="1.0" stroke-linecap="round" stroke-linejoin="round"  filling="0" d="M111.8383 108.9973 L158.8822 108.9750 C168.0600 108.9767 177.2980 108.7645 186.4698 109.0430 C188.2142 109.0960 192.1438 108.9197 193.3800 110.2298 C192.5470 112.0990 185.0827 114.8743 182.9345 116.3535 C177.1930 120.3073 172.7448 125.6988 170.1772 132.1868 C167.2552 140.4755 167.0900 145.6633 168.3220 154.0842 C156.6223 153.7182 145.2928 154.8728 134.8990 148.0510 C120.5592 138.6393 115.1973 125.0560 111.8383 108.9973 Z"></path>
<path id="" fill="#ffdd95" fill-opacity="1.0" stroke="#000000" stroke-width="0.0" stroke-opacity="1.0" stroke-linecap="round" stroke-linejoin="round"  filling="0" d="M320.1725 108.9935 C329.7925 108.7795 339.4600 108.9780 349.0850 108.9758 L400.2000 109.0048 C397.7125 121.6025 394.0750 131.2357 385.4975 141.0835 C384.7850 141.8208 384.0675 142.5530 383.3450 143.2795 C377.1125 149.5260 367.4725 153.1738 358.7325 153.9260 C353.9000 154.3420 348.8425 154.0500 343.9875 154.0525 C343.9075 147.9568 345.1050 144.0715 343.8325 137.7267 C341.7125 127.1710 335.0375 120.2535 326.3475 114.3700 C324.6575 113.2255 321.3575 112.9025 320.1350 111.4495 C319.7000 110.9323 320.0575 109.5898 320.1725 108.9935 Z"></path>
<path id="" fill="#000000" fill-opacity="1.0" stroke="#000000" stroke-width="0.0" stroke-opacity="1.0" stroke-linecap="round" stroke-linejoin="round"  filling="0" d="M190.6680 326.3300 C194.0123 326.0475 197.3315 326.7975 200.1747 328.5925 C205.6747 332.0625 208.9283 338.4125 210.2943 344.6100 C212.1280 352.9325 210.8015 362.5525 206.1133 369.7725 C203.1350 374.3600 199.1375 376.6025 193.8927 377.7475 C189.6617 377.8025 186.3262 377.4275 182.8080 374.8450 C177.1950 370.7225 174.3123 364.3750 173.2915 357.6275 C172.0603 349.4900 173.4487 340.3750 178.4725 333.6900 C181.4153 329.7750 185.8005 327.0100 190.6680 326.3300 Z"></path>
<path id="" fill="#767676" fill-opacity="1.0" stroke="#000000" stroke-width="0.0" stroke-opacity="1.0" stroke-linecap="round" stroke-linejoin="round"  filling="0" d="M191.2940 338.6650 C191.7805 338.6875 192.3045 338.7075 192.7592 338.8975 C194.4870 339.6200 195.8775 341.6700 196.6410 343.2975 C198.8017 347.9000 198.9710 354.1125 197.2238 358.8775 C196.3062 361.3800 194.8695 363.5425 192.4158 364.7050 C190.7812 364.4650 189.8605 363.7875 188.7717 362.5525 C186.0282 359.4400 185.3680 354.0200 185.6485 350.0425 C185.9662 345.5275 187.8752 341.6250 191.2940 338.6650 Z"></path>
<path id="" fill="#000000" fill-opacity="1.0" stroke="#000000" stroke-width="0.0" stroke-opacity="1.0" stroke-linecap="round" stroke-linejoin="round"  filling="0" d="M318.8800 326.3350 C322.7750 325.9800 326.6500 327.6000 329.7075 329.9025 C335.0650 333.9350 337.6200 340.1925 338.4950 346.6775 C339.5975 354.8575 338.2850 364.4575 333.1075 371.1600 C330.0300 375.1450 326.1450 377.0375 321.2050 377.6525 C317.4275 378.0950 313.6050 376.9525 310.5800 374.6925 C304.9550 370.4925 302.1200 363.7925 301.2200 356.9975 C300.1575 348.9775 301.6800 339.7300 306.7575 333.2350 C309.7050 329.3950 314.0750 326.9075 318.8800 326.3350 Z"></path>
<path id="" fill="#767676" fill-opacity="1.0" stroke="#000000" stroke-width="0.0" stroke-opacity="1.0" stroke-linecap="round" stroke-linejoin="round"  filling="0" d="M319.8500 338.4325 C321.6475 339.0175 323.0350 340.5500 324.0175 342.1175 C326.7125 346.4200 327.0600 352.4125 325.8725 357.2500 C325.0325 360.6725 323.2900 363.1950 320.2875 365.0300 C318.3625 364.5225 316.9275 362.9775 315.9175 361.3225 C313.5450 357.4375 312.9650 351.8150 313.9700 347.4250 C314.7875 343.8525 316.7150 340.4275 319.8500 338.4325 Z"></path>
<path id="" fill="#dddddd" fill-opacity="1.0" stroke="#000000" stroke-width="0.0" stroke-opacity="1.0" stroke-linecap="round" stroke-linejoin="round"  filling="0" d="M284.3225 58.8455 C287.9525 59.0137 292.0050 60.3932 294.8025 62.7585 C297.3400 64.9023 299.0300 68.0100 299.7550 71.2337 C300.5175 74.6180 300.0950 78.5220 300.0875 81.9830 C300.0700 90.4033 299.5650 100.9037 300.2725 109.0580 C295.2300 108.9205 290.1700 109.0002 285.1250 108.9990 L268.9600 109.0608 L268.9750 85.1947 C268.9600 80.7745 268.3900 75.5880 269.2750 71.2825 C269.7475 68.9733 270.9275 66.8412 272.3925 65.0137 C275.4650 61.1792 279.5100 59.3497 284.3225 58.8455 Z"></path>
<path id="" fill="#dddddd" fill-opacity="1.0" stroke="#000000" stroke-width="0.0" stroke-opacity="1.0" stroke-linecap="round" stroke-linejoin="round"  filling="0" d="M234.9622 58.8305 C239.0612 58.9473 242.7035 60.5500 245.7867 63.2315 C247.8898 65.0602 249.4913 67.2850 250.3125 69.9740 C251.5775 74.1118 251.1175 78.9122 251.1050 83.1938 C251.0850 91.2997 250.5850 100.7267 251.2350 108.6443 L251.2700 109.0605 C246.4780 108.9245 241.6695 109.0015 236.8750 109.0010 L219.9640 109.0600 L219.9625 83.6970 C219.9510 79.4555 219.4620 74.6602 220.1570 70.5090 C220.4288 68.8840 221.1398 67.5675 222.0985 66.2425 C225.1973 61.9612 229.8268 59.5793 234.9622 58.8305 Z"></path>
<path id="" fill="#000000" fill-opacity="1.0" stroke="#000000" stroke-width="0.0" stroke-opacity="1.0" stroke-linecap="round" stroke-linejoin="round"  filling="0" d="M232.0160 51.3553 C233.1593 51.2905 234.2900 51.3432 235.4292 51.4438 C241.7710 52.0027 246.8947 54.9122 250.9525 59.7825 C257.0875 67.1425 256.0075 77.8083 255.9975 86.7475 C255.9925 91.8748 256.1475 97.0827 255.6775 102.1927 C258.0575 102.1620 260.4075 102.1888 262.7850 102.3290 C262.6575 93.9977 261.7125 74.2502 263.6650 67.0627 C264.5975 63.7530 266.3175 60.7188 268.6800 58.2200 C272.5725 54.1203 278.3400 51.4790 284.0000 51.3540 C290.3775 51.2128 295.8725 53.5310 300.4025 57.9733 C303.0375 60.5578 304.9200 63.5578 305.9575 67.1120 C307.7000 73.0833 307.0475 79.9933 307.0425 86.1840 C307.0275 91.4532 307.0425 96.7227 307.0900 101.9922 C312.9150 101.7845 318.8525 102.0318 324.6875 102.0375 L362.2550 102.0488 L387.4325 102.0428 C392.2625 102.0432 397.2600 101.7940 402.0650 102.2697 C404.7550 102.5365 406.9775 102.8810 408.7450 105.1690 C409.6550 106.3457 409.8025 107.3625 409.5475 108.7995 C408.8875 112.5258 397.5775 138.1577 395.0825 141.7858 C392.5350 145.4890 388.9875 148.9680 385.3150 151.5493 C376.8600 157.4925 368.0875 159.8087 357.8825 160.0007 C355.3125 160.0490 352.6400 160.1602 350.1000 159.7117 C349.6375 166.4337 348.6300 173.2115 347.8250 179.9040 L344.3175 209.7955 L332.4175 310.5400 C344.7250 317.7200 355.6250 324.5050 361.8575 337.9625 C365.6625 346.1750 365.6225 355.5900 362.5225 364.0075 C355.9025 381.9825 338.3975 390.4475 322.1675 397.9500 C321.1800 404.3725 320.6450 410.9150 319.8775 417.3750 C318.7800 426.6350 317.5175 435.9150 316.5800 445.1900 C316.2250 449.8675 316.0600 455.8850 313.1325 459.6950 C312.7175 459.8875 312.3000 460.0725 311.8700 460.2325 C310.1125 460.8850 307.7375 460.8550 305.8775 460.9100 C299.0475 461.1100 292.1750 460.9625 285.3400 460.9625 L247.1440 460.9525 L219.5668 460.9725 C214.4142 460.9775 209.1765 461.1700 204.0320 460.8875 C201.9547 460.7750 200.1835 460.3725 198.2832 459.4975 C197.4960 458.2325 196.9775 457.1900 196.6458 455.7125 C195.6565 451.3125 195.5005 446.4700 194.9755 441.9775 L191.5925 413.2000 C191.0060 408.1675 190.6995 402.9875 189.7513 398.0150 C186.4085 396.2550 182.8537 394.8600 179.4710 393.1650 C168.9303 387.8775 158.0335 380.4075 152.0720 370.0100 C147.2085 361.6950 145.9100 351.7700 148.4710 342.4825 C152.8092 326.8750 166.1070 318.1725 179.4095 310.7475 C178.4133 297.3775 176.3737 283.9175 174.8027 270.5950 L165.9438 195.4207 L163.2925 172.8613 C162.7957 168.5895 162.1675 164.2878 161.8905 159.9970 C156.7908 160.0255 151.5865 160.1895 146.5145 159.5638 C136.6620 158.3483 127.6275 153.2462 120.5865 146.3840 C118.3398 144.1942 116.5258 141.5250 114.9910 138.7993 C112.9195 135.1203 102.0867 110.9798 102.1842 107.7420 C102.2282 106.2795 102.9620 105.0017 104.0760 104.0853 C105.5155 102.9008 107.2235 102.3743 109.0558 102.2063 C114.9695 101.6642 121.1855 102.0375 127.1275 102.0423 L161.6050 102.0530 L192.2448 102.0150 C198.6000 101.9905 205.2003 101.5803 211.5100 102.3607 C211.1777 97.7475 211.3670 92.9850 211.3495 88.3582 C211.3253 81.9778 210.6797 74.7247 212.0800 68.4918 C212.8470 65.0778 214.4487 61.6510 216.6860 58.9505 C220.3775 54.4945 226.3325 51.8435 232.0160 51.3553 Z M191.5737 305.2225 C229.1785 291.8550 269.9975 290.4400 308.4375 301.1750 C312.4850 302.3825 316.4800 303.8325 320.4475 305.2875 C320.6800 301.7175 321.2425 298.1725 321.6125 294.6125 C322.8100 283.7175 324.0750 272.8275 325.4050 261.9450 L334.8325 181.8383 L337.7850 156.8535 C338.4250 151.3432 339.4475 145.5598 339.1175 140.0185 C338.7875 134.5565 336.6325 129.3640 332.9925 125.2773 C327.6150 119.1428 321.8975 115.7220 313.6575 115.2527 C310.6175 115.0797 307.5525 115.2520 304.5075 115.2315 C297.8825 115.1520 291.2575 115.1190 284.6325 115.1325 L225.3610 115.1240 C220.5847 115.1048 215.8085 115.1313 211.0327 115.2032 C206.9012 115.2668 202.6658 115.4645 198.5448 115.1310 C189.5595 116.0218 183.5367 119.6837 177.8385 126.7133 C171.8305 134.1248 172.5757 142.5785 173.5717 151.4812 L185.8375 255.5150 L189.5782 287.1125 C190.2878 293.0900 191.2745 299.2250 191.5737 305.2225 Z M270.0625 396.1625 C293.6225 394.6550 328.7425 387.0575 344.9650 368.4800 C349.5925 363.1825 352.5000 357.2325 351.9725 350.0775 C351.4225 342.5825 346.0075 335.6575 340.4750 330.9650 C334.9200 326.2525 328.0375 322.5450 321.4000 319.5750 C299.7125 309.8675 279.9525 307.5275 256.4625 307.4675 C251.7225 307.4550 246.7385 307.2025 242.0202 307.6050 C220.9742 309.1850 200.1230 313.3525 181.6955 324.1025 C176.0683 327.3875 170.5208 331.3650 166.2603 336.3325 C161.6803 341.6725 159.5658 347.0000 160.1665 354.0550 C160.8123 361.6400 165.5065 367.9225 171.2050 372.6700 C175.7303 376.4400 180.8568 379.4325 186.0950 382.0875 C202.6492 390.4800 220.5895 394.8175 239.0853 396.0700 C242.9930 396.3325 246.9735 396.2075 250.8900 396.2000 L270.0625 396.1625 Z M303.6850 448.1425 C303.9075 444.5175 304.4025 440.9175 304.7200 437.3000 L307.2075 416.4650 C307.7600 411.9350 308.5000 407.3600 308.6050 402.7950 C302.8125 404.2175 297.0225 405.6925 291.1425 406.7225 C267.6600 410.8425 242.3610 410.7850 218.9585 406.3250 C214.1532 405.4100 207.9380 404.4300 203.4003 402.7375 C203.4117 408.5950 204.5945 414.7425 205.2915 420.5750 C206.2990 429.7125 207.3772 438.8425 208.5258 447.9625 C215.5195 447.5225 222.5450 447.9625 229.5460 447.9800 L270.0350 447.9925 C276.5375 448.0150 283.0400 447.9900 289.5425 447.9175 C294.0225 447.8625 299.3150 447.2650 303.6850 448.1425 Z M160.2725 146.9422 C159.8273 143.5845 159.9312 140.0508 160.3400 136.6915 C161.1918 128.6837 164.9230 120.5725 170.6918 114.8897 C163.9110 115.7835 157.3310 115.2233 150.5320 115.1550 L118.3010 114.9430 C124.4792 128.7405 126.8095 139.6017 142.3398 145.5988 C148.0220 147.7932 154.3107 146.8400 160.2725 146.9422 Z M236.6250 102.0472 C238.8913 102.0598 241.1930 101.9912 243.4473 102.2400 C243.1853 95.9100 243.2820 89.5273 243.3060 83.1913 C243.3205 79.3938 243.8582 74.6615 242.9060 70.9807 C242.4075 69.1068 241.3865 67.4130 239.9617 66.0973 C237.9557 64.2280 235.4065 63.5312 232.7108 63.6908 C232.2422 63.7195 231.7740 63.7563 231.3067 63.8010 C228.7245 64.5103 226.1113 66.6065 224.8245 68.9713 C224.3362 69.8683 224.1163 70.8095 224.0137 71.8210 C223.7340 74.5780 223.9128 77.4905 223.9205 80.2628 C223.9413 87.5048 224.2993 94.9138 223.7173 102.1248 C228.0193 102.0383 232.3223 102.0125 236.6250 102.0472 Z M284.5500 63.5760 C281.5575 63.8918 279.2300 64.6982 277.2450 67.1198 C276.4025 68.1480 275.6250 69.4303 275.3375 70.7415 C274.7800 73.2930 275.0100 76.1382 275.0225 78.7412 L275.1025 94.0762 C275.1125 96.7588 275.3275 99.6017 274.9825 102.2563 C278.3625 101.9350 281.7950 102.0358 285.1875 102.0432 C288.3750 102.0555 291.5300 102.0715 294.7100 102.3112 C294.3050 95.0973 294.5375 87.7595 294.5550 80.5352 C294.5650 77.5537 295.0300 73.7420 294.3150 70.8720 C293.8725 69.0862 292.7050 67.4187 291.3550 66.1965 C289.4075 64.4330 287.1550 63.6100 284.5500 63.5760 Z M393.7250 114.8280 C388.7050 116.0592 382.8525 115.3330 377.7250 115.2112 C373.3400 115.1407 368.9575 115.1143 364.5725 115.1317 C360.5050 115.1562 356.4250 115.7495 352.3725 115.6687 C349.9750 115.6212 347.5125 115.5512 345.1250 115.3372 C343.9575 115.2328 342.8700 114.9308 341.6925 115.0392 C343.1025 117.0420 344.7775 118.8733 346.1100 120.9285 C351.0550 128.5645 352.5550 138.0632 351.9025 147.0137 C364.6425 146.7085 372.5425 147.5632 382.2225 137.3405 C382.7425 136.7982 383.2425 136.2340 383.7150 135.6492 C388.0650 129.3138 390.5650 121.7993 393.7250 114.8280 Z"></path>
<path id="" fill="#000000" fill-opacity="1.0" stroke="#000000" stroke-width="0.0" stroke-opacity="1.0" stroke-linecap="round" stroke-linejoin="round"  filling="0" d="M292.6250 198.3468 C299.6900 197.3925 306.1800 202.3748 307.0850 209.4465 C307.9900 216.5185 302.9625 222.9742 295.8850 223.8295 C288.8750 224.6763 282.4975 219.7090 281.6025 212.7068 C280.7050 205.7045 285.6275 199.2915 292.6250 198.3468 Z"></path>
<path id="" fill="#000000" fill-opacity="1.0" stroke="#000000" stroke-width="0.0" stroke-opacity="1.0" stroke-linecap="round" stroke-linejoin="round"  filling="0" d="M215.8347 198.3508 C222.7977 197.3983 229.2325 202.2218 230.2713 209.1725 C231.3100 216.1232 226.5670 222.6172 219.6295 223.7425 C215.0647 224.4828 210.4545 222.7108 207.5605 219.1035 C204.6667 215.4962 203.9368 210.6113 205.6492 206.3155 C207.3620 202.0200 211.2527 198.9772 215.8347 198.3508 Z"></path>
</svg>