<svg xmlns="http://www.w3.org/2000/svg" viewBox="0 0 512 512" height="512.0px" width="512.0px">
<path id="" fill="#4c6681" fill-opacity="1.0" stroke="#000000" stroke-width="0.0" stroke-opacity="1.0" stroke-linecap="round" stroke-linejoin="round"  filling="0" d="M136.7787 426.5425 C141.3645 426.2625 146.0505 426.3700 150.6520 426.3000 C163.0715 426.2000 175.4917 426.1675 187.9115 426.2050 L279.2000 426.2000 L372.6725 426.2225 L404.3225 426.2075 C411.2250 426.2125 418.2025 426.1025 425.0925 426.5025 C427.6350 426.6525 430.5500 427.2275 432.4925 428.9850 C434.6250 430.9175 435.1475 433.2300 435.2075 436.0000 C435.2925 439.9025 435.5175 452.3700 434.5950 455.3925 C434.2375 456.5550 433.5000 457.4950 432.6625 458.3625 C430.8100 460.2800 428.9525 460.6250 426.3950 460.7750 C421.8125 461.0425 417.1075 460.7975 412.5125 460.7775 L387.9150 460.7525 L308.5500 460.7525 L89.4677 460.7475 C85.6910 460.7150 81.5730 460.5000 78.7007 457.6925 C78.1462 457.1500 77.7150 456.5250 77.5013 455.7725 C76.3485 451.7275 76.8712 440.8125 76.9580 436.2775 C77.0115 433.4925 77.2975 431.3300 79.4055 429.3000 C80.6407 428.1125 82.1793 427.1775 83.8615 426.7975 C88.1620 425.8325 103.0790 426.3275 108.1800 426.5450 C109.1267 426.5850 110.0887 426.6025 111.0273 426.7325 C112.4105 427.3300 133.3605 427.0125 136.5892 426.9825 L136.7787 426.5425 Z"></path>
<path id="" fill="#768ba0" fill-opacity="1.0" stroke="#000000" stroke-width="0.0" stroke-opacity="1.0" stroke-linecap="round" stroke-linejoin="round"  filling="0" d="M111.0690 56.9460 C111.7943 55.7272 112.5725 54.7383 113.5847 53.7470 C116.6270 50.7670 120.4742 50.8825 124.4510 50.9700 C128.1877 51.0522 132.1187 51.2445 134.8225 54.2035 C136.6530 56.2065 136.9193 58.8087 137.0190 61.4065 C137.3010 68.7582 137.0245 76.2158 137.0152 83.5770 L137.0145 125.2322 L137.0160 254.8650 L137.0175 366.5325 L137.0175 403.2350 C137.0163 410.9900 137.1830 418.7950 136.7787 426.5425 L136.5892 426.9825 C133.3605 427.0125 112.4105 427.3300 111.0273 426.7325 C110.7322 403.2725 110.9990 379.7750 110.9995 356.3100 L110.9993 219.4310 L110.9890 113.3440 C110.9880 94.5670 110.6485 75.7148 111.0690 56.9460 Z"></path>
<path id="" fill="#d0d7df" fill-opacity="1.0" stroke="#000000" stroke-width="0.0" stroke-opacity="1.0" stroke-linecap="round" stroke-linejoin="round"  filling="0" d="M271.1200 111.0115 C271.5125 110.9822 271.9025 110.9572 272.2950 110.9362 C276.6400 110.7070 281.1025 110.9342 285.4575 110.9375 L312.7025 110.9433 L331.0575 110.9212 C334.6225 110.9145 338.3675 110.6910 341.9075 111.1205 C343.9300 111.3658 345.3150 111.7582 346.8350 113.1935 C349.3275 115.5480 350.0075 119.2845 350.0475 122.5830 C350.0825 125.3940 349.4125 131.0590 347.2750 133.0680 C343.7675 136.3670 337.4875 136.0805 333.0250 136.0437 C333.4475 154.2620 333.0375 172.5475 333.1300 190.7753 C339.8975 193.0090 346.5750 195.3952 353.0125 198.4745 C356.4425 200.1158 359.6375 202.2790 362.8225 204.3470 C366.3125 206.6125 369.8325 208.9365 373.0275 211.6075 C387.4975 223.9230 398.3875 239.9065 404.5525 257.8800 C406.2650 262.7950 407.3150 267.9075 408.1500 273.0350 C409.0450 278.5200 409.7625 284.5225 409.7950 290.0875 C409.8100 292.7575 409.4675 295.4700 409.2400 298.1325 C408.1625 310.7275 405.2725 322.2200 399.7675 333.6200 C386.9500 360.1675 366.6100 377.7650 338.8700 387.4200 C333.7950 388.8425 328.7450 390.2650 323.5250 391.0725 C318.3950 391.8650 313.3475 392.0350 308.1675 392.0475 C304.4350 392.0575 300.6700 392.1375 296.9525 391.8150 C285.4375 390.8100 273.2250 387.5125 262.8375 382.4175 C238.2720 370.4375 219.4660 349.1975 210.5517 323.3625 C202.0508 298.1025 202.9830 269.9750 214.9590 245.9323 C226.6200 222.5225 243.9317 205.7823 268.0625 195.5500 C272.6425 193.6087 277.5650 192.2032 282.2825 190.6203 C281.4450 184.5585 281.9750 177.9635 281.9750 171.8270 L282.0050 136.0445 C277.9850 136.0665 273.2950 136.1510 269.5275 134.5980 C267.6800 133.8358 266.2925 132.4830 265.5625 130.6158 C264.4150 127.6833 264.4825 118.1938 265.7700 115.3450 C266.8150 113.0283 268.8050 111.8260 271.1200 111.0115 Z"></path>
<path id="" fill="#49aaed" fill-opacity="1.0" stroke="#000000" stroke-width="0.0" stroke-opacity="1.0" stroke-linecap="round" stroke-linejoin="round"  filling="0" d="M246.6297 290.1075 C252.9925 289.9000 259.2750 290.5750 265.5850 291.3300 C306.8375 296.2550 345.8650 316.6600 387.3325 319.1800 C384.4725 330.1550 374.9175 344.1575 366.6125 351.9325 C361.8175 356.4225 356.4950 360.1350 351.0225 363.7375 C338.6825 371.2175 323.8325 375.3875 309.4125 375.7725 C288.4725 376.3325 265.6475 368.3150 250.3575 353.8675 C246.9790 350.6750 243.5347 347.3000 240.5927 343.6975 C229.0157 329.4175 222.4585 311.7250 221.9325 293.3500 C230.0612 291.5900 238.3220 290.5050 246.6297 290.1075 Z"></path>
<path id="" fill="#4c6681" fill-opacity="1.0" stroke="#000000" stroke-width="0.0" stroke-opacity="1.0" stroke-linecap="round" stroke-linejoin="round"  filling="0" d="M271.5725 135.3528 C275.0175 135.3650 278.4375 135.9512 281.8875 136.0430 C290.9075 136.2827 299.9825 136.0790 309.0050 136.0723 L331.0250 136.0755 C334.6050 136.0925 338.5275 135.8215 342.0650 136.3548 C344.0900 136.6600 345.9725 137.5168 347.4400 138.9695 C350.4075 141.9068 350.1325 145.8250 350.1675 149.6927 C350.1975 153.2885 349.9800 157.2467 347.2100 159.9057 C345.5000 161.5468 343.6725 161.8822 341.3950 162.1070 C339.0800 162.3358 336.7025 162.2392 334.3775 162.2957 C329.0650 162.4245 323.7750 162.5010 318.4625 162.5005 L276.1800 162.2195 L171.8750 162.2095 C156.3802 162.2422 140.8855 162.1868 125.3915 162.0428 C117.6045 162.0302 109.7103 162.6845 101.9510 161.9698 C99.5923 161.7522 97.1008 161.0750 95.5692 159.1362 C93.3387 156.3118 93.6038 147.2883 94.0497 143.6390 C94.3337 141.3150 95.3463 139.5858 97.1990 138.1613 C97.3232 138.0658 97.4507 137.9745 97.5753 137.8793 C98.1992 137.4025 98.8033 136.9335 99.5840 136.7572 C104.8687 135.5632 110.8990 136.5165 116.2563 136.7795 C119.7563 136.9270 123.2595 136.9710 126.7620 136.9117 L214.9430 136.1823 L245.9865 136.1870 C254.5850 136.1873 263.0250 136.3862 271.5725 135.3528 Z"></path>
</svg>