<svg xmlns="http://www.w3.org/2000/svg" viewBox="0 0 512 512" height="512.0px" width="512.0px">
<path id="" fill="#b06550" fill-opacity="1.0" stroke="#000000" stroke-width="0.0" stroke-opacity="1.0" stroke-linecap="round" stroke-linejoin="round"  filling="0" d="M76.5150 341.3450 C76.6533 341.3225 76.7907 341.2950 76.9297 341.2775 C80.5870 340.8125 84.6732 341.1725 88.3652 341.1875 L110.2668 341.2050 L189.8828 341.1975 L350.4125 341.2000 L404.7475 341.2100 C413.5825 341.2100 422.4350 341.0650 431.2700 341.2050 C434.1275 341.2500 438.1125 341.0525 440.4425 342.9450 C442.2200 344.3875 443.7600 346.7950 443.9575 349.0900 C444.1550 351.3975 443.2700 353.7900 441.7100 355.4875 C439.8875 357.4700 437.8775 358.0075 435.3100 358.1800 C430.3900 358.6250 425.2425 358.3400 420.2975 358.3350 L392.9975 358.2800 L306.5075 358.2825 L154.8890 358.2800 L102.9447 358.2800 C95.3365 358.2925 87.6638 358.6500 80.0655 358.4650 C77.1100 358.3925 73.4358 358.2550 71.0312 356.3225 C69.3515 354.9725 68.4395 352.9875 68.2737 350.8600 C68.0952 348.4150 68.8893 346.0000 70.4830 344.1375 C72.2225 342.1250 73.9853 341.5900 76.5150 341.3450 Z"></path>
<path id="" fill="#b06550" fill-opacity="1.0" stroke="#000000" stroke-width="0.0" stroke-opacity="1.0" stroke-linecap="round" stroke-linejoin="round"  filling="0" d="M75.3932 111.0583 C81.1447 110.8490 86.9590 111.0560 92.7190 111.0638 L126.1430 111.0623 L230.5033 111.0543 L367.7200 111.0457 L413.0900 111.0730 C420.0350 111.0735 427.0025 110.8780 433.9425 111.0165 C435.8250 111.0540 437.9350 111.1135 439.6550 111.9538 C441.6500 112.9290 442.9950 114.7015 443.6350 116.8058 C444.2725 118.9085 444.0825 121.1835 442.9850 123.1003 C441.6575 125.4200 439.3225 127.0230 436.8025 127.7750 C433.8250 128.2950 430.5300 128.0587 427.5025 128.0562 L412.6325 128.0355 L359.8000 128.0380 L155.0862 128.0352 L103.3570 128.0385 L86.5688 128.0623 C83.3272 128.0655 79.9973 128.2160 76.7678 127.9595 C75.2875 127.8420 74.0683 127.5833 72.7567 126.8517 C70.6257 125.6630 68.9305 123.7617 68.3492 121.3520 C67.7465 118.8517 68.6135 116.4408 70.0082 114.3710 C71.2827 112.4798 73.2028 111.4617 75.3932 111.0583 Z"></path>
<path id="" fill="#b06550" fill-opacity="1.0" stroke="#000000" stroke-width="0.0" stroke-opacity="1.0" stroke-linecap="round" stroke-linejoin="round"  filling="0" d="M80.7760 230.1215 L327.3625 230.1837 L398.3450 230.1635 L421.4800 230.1582 C426.0100 230.1593 430.6075 230.0185 435.1300 230.3030 C437.5350 230.4545 439.3225 230.7845 441.1525 232.4925 C442.9025 234.1098 443.8800 236.3958 443.8425 238.7782 C443.8200 240.9590 443.1675 243.1882 441.5600 244.7287 C438.8450 247.3300 435.0900 247.0855 431.6200 247.0553 L191.4402 247.0392 L113.7668 247.0397 L89.5745 247.0625 C84.9563 247.0753 80.2630 247.2628 75.6565 247.0217 C73.8398 246.9267 72.2465 246.6150 70.8655 245.3342 C69.2460 243.8322 68.3737 241.4093 68.2917 239.2368 C68.2207 236.8165 69.1168 234.4677 70.7812 232.7092 C73.5423 229.8253 77.1363 230.1817 80.7760 230.1215 Z"></path>
<path id="" fill="#c7785c" fill-opacity="1.0" stroke="#000000" stroke-width="0.0" stroke-opacity="1.0" stroke-linecap="round" stroke-linejoin="round"  filling="0" d="M103.6245 77.0655 C106.4560 76.7578 109.3748 76.8665 112.0363 77.9662 C115.0943 79.2298 117.5130 81.5985 118.7502 84.6745 C119.7620 87.1900 119.9460 90.0270 120.0070 92.7097 C120.1285 98.0475 120.0255 103.5762 119.7242 108.9043 C119.5220 112.4795 119.0945 116.0547 119.1140 119.6397 C119.1415 124.7188 119.9245 129.7875 119.9803 134.8750 C120.2852 162.7490 120.0195 190.6693 119.9530 218.5475 C119.9368 225.3578 119.1053 232.1013 119.0905 238.8795 C119.0790 244.2565 119.8838 249.6475 119.9717 255.0350 C120.2332 271.0225 119.9693 287.0575 119.9680 303.0500 C119.9673 313.7125 120.1835 324.4325 119.9048 335.0925 C119.7725 340.1475 119.0655 345.1825 119.0898 350.2450 C119.1127 355.0600 119.8140 359.8825 119.9478 364.7025 C120.2570 375.8425 119.9628 387.0575 119.9597 398.2050 C119.9577 405.9050 120.4033 413.8925 119.8510 421.5575 C119.7205 423.3700 119.4845 425.2025 118.7470 426.8800 C117.3130 430.1400 114.0500 432.9450 110.7440 434.1725 C107.5335 435.3625 104.5090 435.1800 101.4308 433.7475 C99.8257 432.9425 98.3557 431.8925 97.0738 430.6350 C95.6663 429.2450 94.6663 427.6325 94.3160 425.6750 C93.4190 420.6575 93.9630 409.4050 93.9668 403.8100 L93.9467 357.9400 C97.6422 358.0175 102.3907 358.4700 105.9860 357.6250 C106.0760 357.2000 106.1750 356.8300 106.0280 356.4000 C105.1255 353.7625 98.3307 354.6475 96.0950 353.4850 C95.3463 353.0950 95.0648 352.6275 94.8432 351.8350 C93.2043 345.9775 93.9405 338.8875 93.9565 332.8225 L93.9818 311.2675 C93.9760 291.5975 93.5967 271.8550 93.9617 252.1950 C94.0242 248.8203 94.8633 245.5045 94.8570 242.1220 C94.8497 238.0900 93.9807 234.0955 93.9557 230.0497 L93.9662 143.3412 L93.9835 106.8372 C93.9863 101.2430 93.8073 95.6237 93.9467 90.0330 C94.0070 87.6200 94.1633 85.2487 95.4287 83.1215 C97.1910 80.1588 100.3402 77.9725 103.6245 77.0655 Z"></path>
<path id="" fill="#c8785c" fill-opacity="1.0" stroke="#000000" stroke-width="0.0" stroke-opacity="1.0" stroke-linecap="round" stroke-linejoin="round"  filling="0" d="M402.6650 77.0550 C404.9225 76.8060 407.3350 76.8508 409.5375 77.4520 C412.5950 78.2595 415.1675 80.3250 416.6175 83.1365 C417.6925 85.1845 418.0600 87.4382 418.0975 89.7260 C418.2175 97.1552 418.0500 104.6133 418.0550 112.0455 L418.0550 165.0120 L418.0525 319.0025 L418.0500 390.6600 C418.0450 396.6625 418.7275 422.6400 417.3125 426.7450 C416.2675 429.7775 413.9300 432.1075 411.0950 433.5225 C407.4850 435.3225 404.2400 435.1025 400.5425 433.8300 C399.1575 433.1350 397.9175 432.4125 396.7675 431.3500 C394.8625 429.5950 393.0550 427.0175 392.5425 424.4550 C391.6125 419.8125 392.2075 411.5675 392.2075 406.5325 L392.2075 375.0650 C392.2150 369.3625 392.4200 363.6275 392.2100 357.9300 C394.2925 357.9300 397.0450 358.2275 399.0400 357.5875 C399.1350 356.8975 399.1950 356.4475 398.9350 355.7750 C397.6975 354.9700 395.7575 355.4925 394.3075 354.8875 C393.8150 354.6825 393.4400 354.4325 393.2600 353.9175 C392.5175 351.7925 392.9150 348.1700 392.8100 345.8800 C392.6250 341.9325 392.2975 337.9725 392.2075 334.0200 C391.9075 320.8925 392.2150 307.6975 392.2100 294.5600 C392.2050 280.2300 391.9300 265.8475 392.2125 251.5225 C392.2975 247.1922 392.9850 242.9080 392.9750 238.5623 C392.9625 233.3537 392.2650 228.1602 392.2200 222.9515 L392.1850 134.2587 C392.2125 129.5575 392.9475 124.8918 392.9650 120.1850 C392.9825 115.5950 392.5050 111.0027 392.2750 106.4210 C392.0250 101.4337 392.0400 96.2758 392.1900 91.2850 C392.2725 88.5495 392.6100 85.7363 393.9350 83.2945 C395.7925 79.8792 399.0500 78.0443 402.6650 77.0550 Z"></path>
<path id="" fill="#c7785c" fill-opacity="1.0" stroke="#000000" stroke-width="0.0" stroke-opacity="1.0" stroke-linecap="round" stroke-linejoin="round"  filling="0" d="M135.7428 409.3750 L322.0975 409.3725 L371.6400 409.3625 C377.1625 409.3675 388.3925 410.0550 393.2900 409.1500 C393.0000 413.5525 392.4950 420.3400 393.3425 424.6350 C394.3050 429.5250 398.5525 432.0425 402.3725 434.5825 C395.3875 435.8975 383.9150 435.2925 376.6250 435.2975 L197.6750 435.3025 L142.8225 435.3000 L124.2500 435.2775 C120.4410 435.2550 116.5128 435.3400 112.7207 434.9850 C111.9080 434.9100 111.2955 434.7625 110.7623 434.0975 C111.0070 432.5750 114.1395 431.5900 115.2940 430.3950 C116.4975 429.1500 117.5985 427.8300 118.2393 426.2000 C119.7450 422.3650 118.9068 413.8075 118.7827 409.4325 C124.4092 409.6700 130.1075 409.4275 135.7428 409.3750 Z"></path>
<path id="" fill="#a4b0c0" fill-opacity="1.0" stroke="#000000" stroke-width="0.0" stroke-opacity="1.0" stroke-linecap="round" stroke-linejoin="round"  filling="0" d="M280.4150 204.8578 C285.1450 204.8223 289.6750 205.7910 293.2925 209.0253 C296.8125 212.1720 298.8100 216.9608 299.0525 221.6275 C299.3300 226.9193 299.0000 232.3233 299.0125 237.6297 C299.0250 243.1845 299.7300 254.8625 298.5575 259.8550 C297.8800 262.7325 296.4850 265.1375 294.4900 267.3050 C291.2125 270.8675 287.5450 272.8700 282.6550 273.0450 C278.0075 272.9925 274.1825 272.3900 270.5750 269.2100 C266.5025 265.6225 264.4100 260.5525 264.0825 255.1975 C263.7650 249.9982 264.1150 244.5805 264.1175 239.3598 C264.1225 233.2615 263.3825 224.5143 264.6225 218.7292 C265.2775 215.6745 266.5000 212.9825 268.6000 210.6440 C271.8425 207.0287 275.5475 205.1042 280.4150 204.8578 Z"></path>
<path id="" fill="#49aaed" fill-opacity="1.0" stroke="#000000" stroke-width="0.0" stroke-opacity="1.0" stroke-linecap="round" stroke-linejoin="round"  filling="0" d="M177.6382 315.5775 C181.4948 314.9400 185.9498 316.5525 189.0663 318.7650 C193.1475 321.6625 195.4475 325.6050 196.2560 330.5125 C197.3120 336.9200 197.2852 363.9150 196.0520 370.2250 C195.5190 372.9525 194.6862 375.1050 193.0330 377.3625 C190.0875 381.3850 186.1335 383.2250 181.3090 383.9650 C176.7290 384.2275 172.4360 383.4725 168.6658 380.7100 C165.1565 378.1400 162.9640 374.0725 162.3158 369.8125 C161.4015 363.8025 162.0408 357.0850 162.0250 350.9975 C162.0100 345.1425 161.3983 334.6675 162.3390 329.4025 C162.8118 326.7550 163.9212 324.3375 165.5397 322.1950 C168.6082 318.1325 172.6930 316.2725 177.6382 315.5775 Z"></path>
<path id="" fill="#49aaed" fill-opacity="1.0" stroke="#000000" stroke-width="0.0" stroke-opacity="1.0" stroke-linecap="round" stroke-linejoin="round"  filling="0" d="M329.0350 205.0440 C333.4700 204.6752 338.0175 204.8058 341.9275 207.1698 C345.8550 209.5430 348.5500 213.5807 349.5875 218.0230 C349.8775 219.2592 350.0050 220.5240 350.0550 221.7908 C350.3025 227.9677 349.9900 234.2227 350.0200 240.4133 C350.0475 245.8185 350.6350 253.6625 349.8525 258.7150 C349.4625 261.2200 348.4600 263.6675 347.0950 265.7975 C344.6875 269.5525 340.9950 271.7750 336.7075 272.7425 C332.6400 273.5325 327.6225 273.1075 324.0275 270.9675 C320.0050 268.5700 317.1975 264.5125 316.1250 259.9850 C314.4775 253.0350 315.2225 242.5190 315.2400 235.1938 C315.2525 230.1348 314.8525 224.6823 315.6500 219.6830 C316.0350 217.2728 316.8150 214.9778 318.1150 212.9052 C320.6075 208.9272 324.4600 206.0842 329.0350 205.0440 Z"></path>
<path id="" fill="#49aaed" fill-opacity="1.0" stroke="#000000" stroke-width="0.0" stroke-opacity="1.0" stroke-linecap="round" stroke-linejoin="round"  filling="0" d="M220.6248 85.0730 C224.6105 85.0367 228.5165 85.9030 231.7798 88.2785 C235.5495 90.9763 238.0815 95.0717 238.8095 99.6500 C239.6653 105.2207 239.0185 113.2075 239.0293 119.0497 C239.0403 124.8562 239.6585 134.0872 238.8330 139.3345 C238.4093 142.0280 237.4105 144.5488 235.7840 146.7435 C232.4462 151.2475 228.3768 152.9500 222.9877 153.7880 C218.8505 153.8060 214.9422 152.9290 211.5688 150.4280 C207.5128 147.4207 205.5517 143.2570 204.8460 138.3472 C204.0355 132.7077 204.8995 127.1455 204.9738 121.5023 C205.0980 112.0202 201.9810 99.9410 208.2165 91.7467 C211.2160 87.8053 215.8170 85.7240 220.6248 85.0730 Z"></path>
<path id="" fill="#fdd049" fill-opacity="1.0" stroke="#000000" stroke-width="0.0" stroke-opacity="1.0" stroke-linecap="round" stroke-linejoin="round"  filling="0" d="M230.0347 315.8575 C234.2467 315.9300 237.6053 316.6050 240.9440 319.3400 C245.3808 322.9700 247.1890 327.6575 247.7065 333.2475 C248.1478 338.0125 247.9165 342.9375 247.9337 347.7250 C247.9603 355.1025 248.6828 363.3550 247.1005 370.5650 C246.5058 373.2725 245.3965 375.8075 243.6005 377.9400 C240.4330 381.6975 235.9965 383.7000 231.1602 384.1275 C226.8582 384.1100 222.6828 382.9700 219.4122 380.0725 C215.3590 376.4825 213.3248 371.2625 213.0482 365.9350 C212.7895 360.9500 213.0645 355.8725 213.0600 350.8775 C213.0538 344.0500 212.1745 334.8850 213.8503 328.3475 C214.5058 325.7900 215.7937 323.6275 217.5652 321.6975 C221.1190 317.8250 224.7753 316.0650 230.0347 315.8575 Z"></path>
<path id="" fill="#fdd049" fill-opacity="1.0" stroke="#000000" stroke-width="0.0" stroke-opacity="1.0" stroke-linecap="round" stroke-linejoin="round"  filling="0" d="M229.6622 204.8635 C233.9565 204.9985 237.7035 205.7195 241.1257 208.5120 C245.2420 211.8707 247.1085 216.4385 247.6465 221.6192 C248.1732 226.6915 247.9203 231.9515 247.9362 237.0540 C247.9588 244.1880 248.6158 252.0775 247.2100 259.0725 C246.6390 261.9150 245.5728 264.5550 243.7153 266.8075 C240.5055 270.7000 236.0085 272.7050 231.0612 273.1650 C226.9008 273.2675 222.5163 271.8525 219.3987 269.0750 C215.3963 265.5050 213.3510 260.3400 213.0540 255.0600 C212.7648 249.9182 213.0605 244.6548 213.0603 239.4987 C213.0603 233.0645 212.2413 224.8035 213.6508 218.6073 C214.3530 215.5210 215.6385 212.8277 217.7830 210.4832 C221.1000 206.8568 224.7500 205.1053 229.6622 204.8635 Z"></path>
<path id="" fill="#fdcf49" fill-opacity="1.0" stroke="#000000" stroke-width="0.0" stroke-opacity="1.0" stroke-linecap="round" stroke-linejoin="round"  filling="0" d="M168.5440 85.3130 C172.4102 84.8245 176.5345 85.9167 179.8510 87.9205 C183.8010 90.3073 186.3372 94.2330 187.4258 98.6745 C188.7705 104.1600 187.9812 114.3383 188.0020 120.2688 C188.0215 125.7650 188.5912 132.8345 187.8253 138.1700 C187.4480 140.8927 186.5217 143.5108 185.1030 145.8655 C182.3375 150.3768 178.1897 152.3385 173.1955 153.5098 L172.9088 153.5705 C168.9840 154.3672 164.6320 152.9335 161.3540 150.7515 C158.0440 148.5480 155.0135 144.7115 154.2422 140.7520 C153.7230 138.0860 153.9122 135.2210 153.7912 132.5112 C153.5615 127.3685 153.1102 122.3070 153.1680 117.1485 C153.2060 113.7783 153.6060 110.4440 153.7735 107.0822 C153.9138 104.2643 153.7515 101.3215 154.2233 98.5423 C154.5627 96.5420 155.1975 94.4547 156.3468 92.7715 C159.2580 88.5065 163.5733 86.2708 168.5440 85.3130 Z"></path>
<path id="" fill="#d0d7df" fill-opacity="1.0" stroke="#000000" stroke-width="0.0" stroke-opacity="1.0" stroke-linecap="round" stroke-linejoin="round"  filling="0" d="M280.8800 315.8525 C284.4625 315.5000 288.0475 316.4775 290.9525 318.6050 C295.4575 321.8825 298.0000 326.5475 298.7875 332.0200 C299.5375 337.2475 298.9625 342.8875 298.9650 348.1700 C298.9675 354.6425 299.7200 362.1600 298.6450 368.5000 C298.1050 371.6800 297.0250 374.8250 295.0450 377.4025 C292.1300 381.2025 287.8025 383.4625 283.1000 384.0575 C278.5700 384.1125 273.9000 382.6600 270.3450 379.8025 C267.2375 377.3025 265.5600 374.1725 265.1375 370.2000 C264.8500 367.5175 264.9925 364.7925 264.8400 362.1000 C264.5525 357.0175 264.0525 352.0475 264.2025 346.9475 C264.3000 343.7025 264.7625 340.4825 264.8800 337.2425 C264.9950 334.0400 264.6625 330.5700 265.4450 327.4400 C265.9550 325.3900 267.1250 323.5500 268.4675 321.9375 C271.7775 317.9575 275.8100 316.2850 280.8800 315.8525 Z"></path>
<path id="" fill="#c8785c" fill-opacity="1.0" stroke="#000000" stroke-width="0.0" stroke-opacity="1.0" stroke-linecap="round" stroke-linejoin="round"  filling="0" d="M64.6758 409.3725 C70.7260 409.3500 76.7762 409.3675 82.8262 409.4250 C86.5822 409.4575 90.5880 409.7825 94.3000 409.2400 C94.0027 413.7500 93.7715 418.8850 94.6210 423.3200 C95.6827 428.8625 98.8777 431.5750 103.2610 434.5950 C99.0287 435.3225 94.5898 435.2050 90.3080 435.2650 L70.8058 435.3200 C66.8777 435.3325 62.7270 435.6300 58.8378 435.0725 C57.0620 434.8200 55.2558 434.4100 53.8687 433.2075 C51.5782 431.2175 51.0660 428.2275 50.9433 425.3525 C50.7552 420.9525 50.3042 415.3150 53.6062 411.8800 C56.4115 408.9650 60.9615 409.4175 64.6758 409.3725 Z"></path>
<path id="" fill="#c8785c" fill-opacity="1.0" stroke="#000000" stroke-width="0.0" stroke-opacity="1.0" stroke-linecap="round" stroke-linejoin="round"  filling="0" d="M435.3825 409.3750 C440.1600 409.3700 450.4400 408.8175 454.4550 409.7850 C455.7950 410.1100 457.0850 410.7300 458.1200 411.6500 C460.6125 413.8650 461.0750 416.9275 461.1625 420.0800 C461.2800 424.2325 461.6500 429.4700 458.4900 432.6425 C457.2650 433.8700 455.7025 434.6350 454.0175 434.9975 C449.9800 435.8675 439.7575 435.2925 434.9375 435.2950 C429.9800 435.3150 425.0200 435.3025 420.0625 435.2525 C417.4375 435.2200 414.5700 435.3625 411.9800 434.9150 C411.0850 434.7600 410.0650 434.5775 409.5050 433.7975 C410.7450 432.3625 412.7800 431.9475 414.1050 430.5375 C419.1275 425.1850 418.0575 416.2200 417.7200 409.5125 C423.6025 409.5500 429.5000 409.4175 435.3825 409.3750 Z"></path>
</svg>