<svg xmlns="http://www.w3.org/2000/svg" viewBox="0 0 512 512" height="512.0px" width="512.0px">
<path id="" fill="#fa1c3d" fill-opacity="1.0" stroke="#000000" stroke-width="0.0" stroke-opacity="1.0" stroke-linecap="round" stroke-linejoin="round"  filling="0" d="M212.1260 99.3652 C217.4048 99.1852 222.7360 99.3562 228.0217 99.3637 L258.2400 99.3928 L287.1325 99.4008 C292.2475 99.4037 297.4250 99.2445 302.5325 99.4553 C304.0775 99.5190 306.4975 99.5218 307.8200 100.3530 C312.8075 103.4875 317.4400 107.2852 322.1650 110.8040 C328.2700 115.3475 334.4950 119.7400 340.6550 124.2077 L356.2775 135.4590 C359.7075 137.9073 363.8425 140.3118 366.6850 143.4040 C367.4950 147.8882 367.0100 153.1418 367.0100 157.7097 L366.9925 184.7672 L366.9975 262.0375 C367.0000 276.0000 366.6025 290.1100 367.1375 304.0575 C359.9150 303.8600 352.6400 304.1125 345.4100 304.1200 L300.1250 304.1075 L191.8925 304.1525 L161.4382 304.1525 C156.0963 304.1400 150.2558 303.6100 144.9982 304.3975 L144.9863 154.9335 C144.9852 153.0157 144.6095 144.0080 145.5278 143.0525 C147.8955 140.5883 151.1832 138.5685 153.9735 136.6028 C158.6638 133.2990 163.3958 130.0448 168.0425 126.6805 C176.5058 120.4795 185.0027 114.3248 193.5332 108.2165 C196.9385 105.7560 201.2513 101.9837 204.9037 100.1588 C206.8860 99.1685 209.9355 99.4170 212.1260 99.3652 Z"></path>
<path id="" fill="#fdd820" fill-opacity="1.0" stroke="#000000" stroke-width="0.0" stroke-opacity="1.0" stroke-linecap="round" stroke-linejoin="round"  filling="0" d="M204.0975 72.0667 C211.1138 71.7393 218.2733 72.0188 225.3020 72.0212 L266.8850 72.0330 L293.2600 72.0050 C297.5325 71.9983 302.1850 71.6413 306.4225 72.1357 C307.9550 72.3148 309.5875 72.8788 310.5525 74.1582 C313.5350 78.1195 311.6975 97.1902 310.9025 102.1215 C309.3600 101.8658 307.8025 101.6758 306.2525 101.4587 C301.8175 100.5595 296.9400 100.9180 292.4225 100.9235 L273.5375 100.9442 L235.4962 100.9358 C228.9897 100.9315 222.4270 100.7540 215.9252 100.9445 C213.4317 101.0175 203.4890 103.0265 202.3553 102.6895 C201.5750 102.4575 200.9110 101.6850 200.5813 100.9715 C199.7785 99.2345 199.5685 77.2415 200.4545 75.2530 C201.0813 73.8460 202.7168 72.6340 204.0975 72.0667 Z"></path>
<path id="" fill="#fdd821" fill-opacity="1.0" stroke="#000000" stroke-width="0.0" stroke-opacity="1.0" stroke-linecap="round" stroke-linejoin="round"  filling="0" d="M146.5885 191.1180 L298.7625 191.1602 L344.0800 191.1602 C351.6725 191.1588 359.4775 190.7330 367.0450 191.2137 C366.7725 204.0165 367.0075 216.8700 367.0100 229.6772 L367.0075 317.6600 C367.0050 332.1700 367.2750 346.7200 367.0025 361.2250 C363.7525 365.9700 348.3800 376.0250 342.9400 380.0600 C337.2650 384.2725 331.7075 388.6925 326.0950 392.9950 C321.4550 396.4200 315.9650 399.8825 312.0450 404.1350 C311.6050 410.1675 313.5925 426.8950 309.5325 430.9650 C308.3750 432.1250 306.8425 432.7150 305.2350 432.8925 C301.3450 433.3250 297.1950 433.0325 293.2675 433.0250 L271.1650 433.0025 C249.1127 433.0000 227.0180 433.3075 204.9710 432.9800 C204.0875 432.4825 203.2315 431.8975 202.5367 431.1550 C201.3475 429.8850 200.5842 428.2625 200.2592 426.5600 C199.7130 423.7000 199.9790 420.5400 200.0103 417.6325 L200.2140 403.7800 C196.7153 400.6175 192.6270 397.9800 188.8833 395.1050 C183.7690 391.1775 178.5520 387.4150 173.4050 383.5350 C170.0840 381.0325 166.8785 378.3750 163.5358 375.9000 C159.1770 372.6750 147.6848 365.1725 145.1335 361.2650 C144.8005 357.8075 144.9765 354.2175 144.9778 350.7450 L144.9840 332.4350 L144.9885 273.2025 L144.9940 217.7875 L144.9758 201.9490 C144.9515 198.5217 144.7207 194.9498 145.0618 191.5428 C145.5185 191.0462 145.9397 191.1700 146.5885 191.1180 Z"></path>
<path id="" fill="#b2181a" fill-opacity="1.0" stroke="#000000" stroke-width="0.0" stroke-opacity="1.0" stroke-linecap="round" stroke-linejoin="round"  filling="0" d="M241.9205 51.0360 C251.2950 51.3163 260.8125 51.1357 270.1925 50.9735 C269.6700 57.9250 270.0500 65.0900 270.0050 72.0692 C276.8675 71.7170 283.8300 71.9815 290.7050 71.9585 C295.4350 71.9427 300.8950 71.3800 305.5500 72.1635 C307.4400 72.4818 309.1250 73.2827 310.2450 74.8838 C310.9775 75.9285 311.3725 77.1613 311.6000 78.4052 C312.3225 82.3500 312.0475 98.3572 311.2500 102.3525 C315.3000 104.7708 319.1725 107.6080 323.0375 110.3125 L341.4825 123.2720 L355.9300 133.3833 C359.0625 135.5795 362.6050 137.6680 365.2450 140.4505 C365.8475 141.0858 366.6225 141.9025 366.8300 142.7832 C367.6125 146.1073 367.0825 155.1475 367.0775 159.1283 C367.0650 169.4265 367.2700 179.7670 367.0425 190.0595 C371.7550 189.8540 376.5150 189.9653 381.2350 189.9455 C381.0450 192.3960 381.0475 194.9370 381.3125 197.3797 C376.5675 197.0222 371.7925 197.4653 367.0575 197.0457 L367.0900 219.5143 C367.1125 223.5558 367.5150 227.8652 367.0475 231.8700 C371.8200 231.5352 376.6125 231.8895 381.3750 231.5635 C381.2150 234.0217 381.1975 236.4872 381.3200 238.9475 C376.6750 238.4648 371.8125 238.9320 367.1250 238.7088 C367.3700 244.8757 367.0675 251.1900 367.0700 257.3775 C367.0725 262.6650 367.4100 268.0900 367.1325 273.3550 C371.8500 273.0625 376.6000 273.3000 381.3250 273.1075 C381.2700 275.5175 381.3125 277.8900 381.4200 280.2975 C376.7275 280.0150 371.8900 280.3325 367.1775 280.2725 C366.7475 291.8475 367.2550 303.4725 367.0475 315.0575 C371.7650 314.8600 376.5125 314.9525 381.2350 314.9425 C381.0400 317.3850 381.0425 319.9450 381.3000 322.3800 C376.6150 321.8075 371.8000 322.3475 367.0800 322.0250 L367.1150 358.3175 C367.1075 360.4850 367.2975 362.2425 365.9650 364.0725 C363.4025 367.5925 356.4700 372.3300 352.9075 375.1750 L327.2600 395.7400 C322.1175 399.8550 316.5450 403.8175 311.8775 408.4550 C311.8650 413.8100 312.3600 421.5725 311.5800 426.5575 C311.2600 428.6000 310.3375 430.3575 308.6225 431.5575 C305.3450 433.8475 298.0350 433.7475 294.1750 432.9550 C294.7250 442.3500 294.6625 451.7700 293.9925 461.1550 C291.6975 461.0275 289.4675 461.0200 287.1825 461.2800 C287.0300 451.8825 287.0625 442.4825 287.2800 433.0875 C284.9475 433.2600 282.6075 433.2325 280.2800 433.0100 C281.6875 442.3125 280.5850 451.7800 280.2850 461.1050 C277.9400 461.0050 275.6350 461.0000 273.3050 461.3400 C273.4025 451.9500 272.6775 442.4675 273.4475 433.0925 C271.1225 433.2800 268.7350 433.2125 266.4075 433.0475 C267.4250 442.3950 266.7125 451.7375 266.4425 461.0925 C264.0750 461.0200 261.7650 460.9825 259.4200 461.3625 C259.5075 455.9425 259.1800 450.4500 259.1750 445.0125 C259.1300 441.0575 259.2375 437.1025 259.4975 433.1575 C257.1600 433.2075 254.8475 433.1825 252.5100 433.1000 C253.5375 442.4200 252.3900 451.8100 252.7425 461.1275 C250.2950 461.0225 247.9215 461.0050 245.4922 461.3550 C245.5708 457.9825 245.2955 454.5775 245.2478 451.2000 C245.1305 445.1600 245.2350 439.1200 245.5607 433.0875 C243.3848 433.3100 241.1660 433.2400 238.9900 433.0625 C239.1810 439.1925 239.0320 445.3675 239.0383 451.5000 C239.0415 454.6875 238.9212 457.9275 239.2888 461.0950 C236.8315 460.9225 234.3517 460.9750 231.8935 461.0975 C231.8430 451.7650 231.8795 442.4325 232.0030 433.1025 C229.6478 433.1850 227.3000 433.3050 224.9462 433.1225 C225.1888 442.4800 224.8925 451.8525 225.1237 461.2125 C222.6385 460.9975 220.1935 461.0450 217.7052 461.1125 C217.8265 451.8275 217.1543 442.2425 218.0137 433.0025 C216.5123 433.2200 215.0072 433.3025 213.4922 433.3475 C209.8383 433.4525 205.2357 433.7425 202.4295 430.9450 C201.4175 429.9350 200.7955 428.6475 200.4962 427.2600 C199.5360 422.8100 200.2590 413.1375 200.3550 408.0750 C197.7995 406.3225 195.4055 403.9850 192.9735 402.0350 L175.3813 388.0125 L155.8967 372.4400 C152.7990 369.9625 149.2928 367.6600 146.5270 364.8225 C145.5930 363.8650 145.3732 363.1700 145.1723 361.8700 C144.4897 357.4575 144.9130 352.5725 144.9113 348.0975 C144.8690 339.4200 144.8992 330.7400 145.0020 322.0625 C140.3120 322.1100 135.6045 322.0600 130.9210 322.3250 C130.7267 319.8850 130.8837 317.4100 130.8225 314.9600 L145.0905 314.9900 C144.6940 310.1150 144.9190 305.0975 144.9170 300.2050 C144.9145 293.5575 144.7920 286.9100 144.9512 280.2625 C140.2383 280.4200 135.5137 280.1425 130.7973 280.3475 C130.5963 278.0150 130.7563 275.6125 130.6973 273.2650 C135.4727 273.2175 140.2485 273.2125 145.0242 273.2450 C144.7770 268.1925 144.9170 263.1050 144.9173 258.0475 C144.9175 251.5975 144.8345 245.1528 144.9707 238.7052 C140.2430 238.9317 135.5225 238.7648 130.7925 238.8320 C130.6942 236.4783 130.6232 234.1232 130.5795 231.7680 C135.3950 231.7195 140.2165 231.6203 145.0298 231.8127 C144.7023 227.4068 144.8895 222.9368 144.8932 218.5202 C144.8695 211.3772 144.9073 204.2343 145.0063 197.0918 C140.3065 197.1075 135.6070 197.1882 130.9093 197.3345 C130.7103 194.8947 130.8865 192.4175 130.8197 189.9675 L145.0838 190.0087 C144.5715 181.9433 144.9310 173.6752 144.9170 165.5840 C144.9077 160.3333 144.2945 146.4280 145.3375 142.4015 C145.6897 141.0423 147.4670 139.6662 148.5455 138.8030 C151.3505 136.5585 154.4415 134.5903 157.3900 132.5352 L173.1003 121.5875 C181.9430 115.4195 191.5968 108.0035 200.8118 102.6055 C200.5197 100.3108 200.3528 98.0550 200.2827 95.7430 C200.1633 91.7943 199.2665 76.7635 201.9235 74.1758 C203.1712 72.9608 205.1118 72.3915 206.7912 72.1480 C210.7970 71.5667 215.2072 71.9238 219.2645 71.9280 L242.1255 72.0058 C241.4682 65.1298 242.0688 57.9597 241.9205 51.0360 Z M152.0307 190.0510 C169.6185 189.5505 187.3268 189.9535 204.9255 189.9532 L304.1250 189.9545 L360.0850 189.9780 C359.6975 184.4227 359.9000 178.7745 359.8975 173.2047 L359.9050 145.5943 C357.5150 142.8038 352.7800 140.1953 349.7350 138.0315 C342.0150 132.5228 334.2575 127.0670 326.4625 121.6650 C320.4375 117.4665 314.6050 112.8532 308.3475 109.0080 C306.8950 108.1145 305.6575 107.3645 303.9250 107.2185 C299.4850 106.8440 294.8000 107.1787 290.3300 107.1938 L264.7525 107.2000 L228.5887 107.1835 C221.6370 107.1823 214.5802 106.9265 207.6450 107.3400 C206.7518 107.4912 206.0310 107.6833 205.2495 108.1512 C202.4655 109.8180 199.8033 111.8897 197.1362 113.7418 L179.5582 126.0772 C175.0923 129.1980 154.4848 142.7080 152.3067 145.5043 C151.7775 148.9165 152.0750 152.7802 152.0753 156.2470 L152.0957 178.7530 C152.1003 182.4227 152.4073 186.4115 152.0307 190.0510 Z M152.0072 315.0675 C161.2023 314.7325 170.4693 314.9550 179.6735 314.9550 L229.1390 314.9550 L360.0850 314.9775 C359.8225 310.0625 359.9450 305.1050 359.9475 300.1825 C359.9075 293.6775 359.9375 287.1700 360.0350 280.6650 C353.9200 281.1925 347.7050 280.9575 341.5700 280.9575 L311.8750 280.9500 L218.0815 280.9425 L172.2043 280.9425 C167.8180 280.9475 155.3670 281.5125 152.0108 280.6625 C152.0842 292.0900 152.3978 303.6525 152.0072 315.0675 Z M152.0100 238.9370 C152.0677 242.9535 151.6698 272.1800 152.2980 273.1625 L152.5103 273.2300 C160.2328 272.5575 168.3380 273.0075 176.0955 273.0100 L219.7623 273.0175 L360.0775 273.0150 C359.5200 261.6925 360.4000 250.2875 359.9850 238.9742 L359.6225 238.9122 C346.9375 239.3365 334.1375 239.0115 321.4400 239.0100 L251.0625 239.0110 L186.0260 239.0110 C174.7300 239.0108 163.2930 239.3750 152.0100 238.9370 Z M303.3000 405.8425 C296.9800 406.1925 290.5400 405.9550 284.2050 405.9500 L251.3500 405.9450 L223.1110 405.9525 C218.0813 405.9600 212.8848 406.2350 207.8790 405.8725 C208.2843 412.4750 208.1085 419.3125 207.6967 425.9100 C208.2798 426.2600 208.9025 426.0900 209.5450 426.0175 C227.6180 425.7975 245.7075 425.9675 263.7825 425.9650 C277.3250 425.9650 290.9250 425.7000 304.4650 426.0125 C303.4675 420.0200 303.9875 412.1150 304.1225 405.9725 C303.5675 405.7350 303.8425 405.7625 303.3000 405.8425 Z M207.8172 99.2783 C218.9100 100.4845 230.2863 99.9673 241.4420 99.9668 C253.8075 99.9662 266.2675 100.2838 278.6225 99.9138 C286.9375 99.6645 295.1800 98.8970 303.5050 99.1577 L304.1100 99.1082 C304.6400 97.1573 304.0750 93.9463 304.0350 91.8777 C303.9575 87.6935 303.8400 83.3450 304.2000 79.1722 L240.1175 79.1870 L218.5070 79.1870 C214.9928 79.1890 211.3930 79.4048 207.8920 79.1950 C208.2603 83.9785 208.3587 94.6793 207.8172 99.2783 Z M152.4138 197.1138 C152.3030 197.2930 152.1375 197.4480 152.0815 197.6510 C151.7185 198.9668 152.0485 204.0475 152.0488 205.6647 L152.0455 231.2770 C163.9552 230.5875 176.0923 231.0275 188.0265 231.0305 L250.7925 231.0363 L321.4700 231.0345 C334.2525 231.0343 347.1950 230.6105 359.9575 231.2047 C360.2200 227.6880 359.9800 224.0125 359.9650 220.4803 C359.9350 212.6885 359.8500 204.8745 360.0350 197.0855 C343.9175 197.5140 327.7150 197.1870 311.5850 197.1865 L222.6840 197.1825 L174.2525 197.1815 L160.6223 197.2043 C157.9193 197.2165 155.0945 197.4328 152.4138 197.1138 Z"></path>
<path id="" fill="#f91b3c" fill-opacity="1.0" stroke="#000000" stroke-width="0.0" stroke-opacity="1.0" stroke-linecap="round" stroke-linejoin="round"  filling="0" d="M151.8180 321.9750 L360.1975 321.9900 C359.9775 326.5650 360.0975 331.1725 360.1000 335.7550 L360.1575 360.1400 C357.7725 362.4250 354.9525 364.4350 352.3700 366.5050 L336.8900 378.9250 C333.5600 381.3050 330.3875 384.1075 327.1825 386.6700 C321.3675 391.2925 315.5850 395.9575 309.8350 400.6625 C308.8550 399.7125 307.6300 398.8125 306.2600 398.5725 C301.8075 397.7975 296.6050 398.2650 292.0775 398.2700 L264.3200 398.2925 L226.5052 398.2850 C220.1450 398.2800 213.4225 397.8225 207.1100 398.3800 C205.1625 398.5525 203.7643 399.3150 202.2145 400.4600 C193.6355 393.0650 184.4175 386.2125 175.5585 379.1425 C167.7563 372.9150 160.0692 366.2125 151.9615 360.4050 C151.5435 355.8700 151.8000 351.1250 151.8033 346.5675 L151.8180 321.9750 Z"></path>
</svg>