<svg xmlns="http://www.w3.org/2000/svg" viewBox="0 0 512 512" height="512.0px" width="512.0px">
<path id="" fill="#928b82" fill-opacity="1.0" stroke="#000000" stroke-width="0.0" stroke-opacity="1.0" stroke-linecap="round" stroke-linejoin="round"  filling="0" d="M268.8850 88.0843 C269.9075 87.9880 270.9225 87.9620 271.9500 87.9553 L353.5000 87.9725 L377.0800 87.9525 C383.2200 87.9480 389.6100 87.6015 395.6600 88.7670 C400.7450 89.7465 404.8475 92.1705 408.4875 95.7980 C414.9450 102.2310 417.1150 109.4145 417.1300 118.3925 L417.0825 287.0200 L417.0850 336.2800 L417.0900 350.8150 C417.0900 354.3875 417.2325 358.0525 416.7175 361.5925 C415.8675 367.4400 413.1325 373.1325 408.9150 377.3050 C404.9300 381.2500 399.3625 383.8200 393.8475 384.6575 C387.3575 385.6425 379.9400 385.0375 373.3225 385.0300 L335.0350 385.0275 L199.8750 385.0300 L115.8650 385.0275 L91.9528 385.0500 C86.9122 385.0550 81.6320 385.3800 76.6390 384.6550 C72.3865 384.0375 67.5642 381.8800 64.0983 379.3775 C57.0775 374.3075 54.6470 366.7100 53.3135 358.5425 C53.0630 358.3400 52.9512 358.2600 52.7370 358.0550 C50.8015 356.1950 51.0525 350.2075 51.0348 347.6550 L51.0213 217.3418 L51.0247 179.4603 C51.0280 173.4017 50.4235 166.3510 51.3438 160.4147 C52.2545 154.5392 55.0215 149.3177 59.2115 145.1235 C62.9807 141.3503 67.7600 138.3992 73.0590 137.4763 C79.3280 136.3845 86.2740 136.9485 92.6345 136.9523 L126.0977 136.9682 L245.0475 136.9820 C244.9020 132.3945 244.9633 127.7878 244.9547 123.1975 C244.9365 113.3855 244.5645 105.9157 251.0125 97.7678 C255.4800 92.1195 261.7525 88.9128 268.8850 88.0843 Z"></path>
<path id="" fill="#dbc8a5" fill-opacity="1.0" stroke="#000000" stroke-width="0.0" stroke-opacity="1.0" stroke-linecap="round" stroke-linejoin="round"  filling="0" d="M319.0750 127.1080 C320.0725 127.0318 321.0900 127.0295 322.0925 127.0128 C330.7925 126.8672 339.5175 127.0038 348.2200 127.0082 L397.3975 127.0135 L420.3250 126.9800 C426.3775 126.9655 432.6950 126.6147 438.6725 127.6980 C444.1700 128.6945 448.5925 131.0265 452.5975 134.9265 C458.4700 140.6467 461.0775 148.4000 461.1275 156.4755 L461.0975 323.7800 L461.1000 374.0250 L461.1275 388.9200 C461.1300 392.1375 461.2925 395.4950 460.8550 398.6875 C459.9400 405.3600 457.2525 411.4575 452.4825 416.2350 C448.4350 420.2900 443.5425 422.8675 437.8575 423.7150 C431.8325 424.6125 423.6500 424.0300 417.3575 424.0225 L377.8725 424.0200 L238.6250 424.0250 L154.9085 424.0100 L133.4583 424.0500 C129.0437 424.0600 124.2285 424.4525 119.8913 423.6350 C114.7585 422.6650 109.5695 419.8600 105.8637 416.1875 C100.2035 410.5800 97.3593 400.7350 96.2940 393.0350 C95.3922 386.5150 95.9545 379.3300 95.9600 372.7450 L95.9710 335.9100 L95.9377 205.5108 C95.9365 197.0595 97.4987 190.2105 103.7552 184.0403 C107.0685 180.7725 111.7272 177.9597 116.3687 177.2015 C121.2767 176.3997 128.2433 176.9445 133.3760 176.9557 L166.7335 176.9617 L289.0750 176.9900 C288.9150 169.6138 289.1550 162.7275 289.6800 155.3725 C289.9025 152.2465 289.9250 149.0392 290.8350 146.0168 C291.9200 142.4195 293.9700 138.8833 296.4725 136.0885 C302.5600 129.2937 310.3850 127.5803 319.0750 127.1080 Z"></path>
<path id="" fill="#928b82" fill-opacity="1.0" stroke="#000000" stroke-width="0.0" stroke-opacity="1.0" stroke-linecap="round" stroke-linejoin="round"  filling="0" d="M129.5595 265.0825 C135.0065 264.7750 140.5605 264.9775 146.0208 264.9800 L174.8060 264.9850 L248.2480 264.9850 C261.5600 264.9850 274.9000 265.1850 288.2075 264.9225 C288.1175 267.2400 288.3275 288.5625 288.2500 288.7600 C288.1950 288.8975 288.0875 289.0050 288.0075 289.1275 L287.4425 289.0875 C276.3475 288.8000 265.1750 289.0425 254.0725 289.0400 L191.2030 289.0350 L151.3605 289.0350 C143.6602 289.0375 135.7747 288.6900 128.1030 289.3025 C128.1940 284.2425 128.0165 279.1500 127.9790 274.0850 C127.9593 271.4300 127.7198 268.5375 128.2258 265.9250 C128.6658 265.3425 128.8615 265.3350 129.5595 265.0825 Z"></path>
<path id="" fill="#928b81" fill-opacity="1.0" stroke="#000000" stroke-width="0.0" stroke-opacity="1.0" stroke-linecap="round" stroke-linejoin="round"  filling="0" d="M128.0372 219.9230 L288.1825 219.9030 C287.9450 224.1463 288.1050 228.4673 288.1050 232.7227 C288.1075 236.4505 287.8375 240.4325 288.3550 244.1263 C285.0225 243.8305 281.5625 243.9922 278.2150 243.9910 L260.6775 243.9877 L175.3777 243.9942 L146.8675 244.0040 C141.8817 244.0055 136.8598 244.1390 131.8795 243.9715 C130.8600 243.9373 129.5043 243.9588 128.5930 243.4803 C127.2090 239.8172 128.2592 224.9455 128.0372 219.9230 Z"></path>
</svg>