<svg xmlns="http://www.w3.org/2000/svg" viewBox="0 0 512 512" height="512.0px" width="512.0px">
<path id="" fill="#fcd721" fill-opacity="1.0" stroke="#000000" stroke-width="0.0" stroke-opacity="1.0" stroke-linecap="round" stroke-linejoin="round"  filling="0" d="M211.2760 95.0372 C215.2645 94.7060 219.7377 95.6823 223.7160 96.1920 C235.8163 97.7425 247.8150 100.0137 259.8975 101.6332 L318.2050 109.2712 C321.5725 109.7363 324.9450 110.2982 328.3275 110.6562 C332.2350 111.0703 336.0375 111.2572 339.8800 112.1505 C339.9925 112.1768 340.1050 112.1955 340.2175 112.2238 C341.1100 112.4485 341.7750 113.4312 342.3125 114.1273 C358.9225 135.5453 374.8950 157.4698 391.2400 179.0927 L407.7125 201.0233 C410.4950 204.7007 413.9650 208.4160 416.2100 212.4365 C416.1200 215.5150 415.4475 218.6105 415.0075 221.6568 C414.0575 228.3997 413.0225 235.1302 411.9025 241.8472 L404.6325 289.9600 L399.0675 327.3650 C398.4125 331.6625 398.1750 336.0950 397.2450 340.3400 C394.1625 343.7700 390.3000 346.5325 386.6775 349.3700 C380.7825 353.9900 374.7725 358.4675 368.9175 363.1400 L328.9275 394.6800 C325.8375 397.1125 322.9500 399.8025 319.8450 402.2100 C317.6050 403.9475 315.1350 405.3775 312.8750 407.0875 C309.5275 409.6200 306.5200 412.5775 303.1400 415.0875 C302.0800 415.8750 301.0700 416.4650 299.8475 416.9700 C294.7425 417.4450 289.3050 416.1075 284.2400 415.4400 C275.5425 414.3675 266.8550 413.2050 258.1825 411.9550 C254.0075 411.3700 249.8118 410.9850 245.6348 410.4275 C228.4763 408.0100 211.2930 405.7725 194.0878 403.7150 C191.3265 403.3750 175.6707 401.6200 174.2453 400.5775 C170.7448 398.0125 164.1797 388.2075 161.1015 384.3300 C139.7068 357.3750 119.2728 329.6875 98.0970 302.5625 C97.1615 301.3650 95.3500 299.3500 95.0095 297.8675 C94.7680 296.8175 99.6755 268.7025 100.1953 265.1150 C101.7935 254.0750 102.8225 242.9775 104.3910 231.9422 C105.3692 225.0600 106.6183 218.2363 107.6475 211.3667 C108.6503 204.6750 109.4102 197.9442 110.3175 191.2388 C111.2548 184.3132 112.3532 177.4147 113.2063 170.4763 C115.4427 167.4637 119.5470 165.2753 122.5480 163.0612 C126.7467 159.9640 130.9628 156.8548 135.0845 153.6565 L159.3790 134.4733 C171.3885 125.1465 183.5055 115.9587 195.7270 106.9120 C200.4382 103.4207 206.3472 97.6670 211.2760 95.0372 Z"></path>
<path id="" fill="#fa3634" fill-opacity="1.0" stroke="#000000" stroke-width="0.0" stroke-opacity="1.0" stroke-linecap="round" stroke-linejoin="round"  filling="0" d="M201.3237 53.2205 C203.1835 53.3425 205.0950 53.8013 206.9483 54.0542 C210.8338 54.5845 214.7397 55.0055 218.6328 55.4828 L266.0525 61.5815 L332.8400 70.3220 C342.1575 71.5240 351.6675 72.0495 360.9275 73.5875 C364.1050 76.5070 366.5500 80.5098 369.2425 83.8978 C377.0875 93.8532 384.8400 103.8822 392.4975 113.9832 L459.9025 201.9122 C459.7450 204.8785 459.1875 207.8587 458.7675 210.8008 L457.0100 223.6562 L449.6275 276.0275 L442.5450 328.9125 L440.1400 346.8450 C439.6225 350.5550 439.2025 354.3200 438.3600 357.9700 C437.9200 359.8775 436.4000 360.9075 434.9375 362.1450 C428.5975 367.5025 421.6925 372.3300 415.0975 377.3725 L375.5625 407.8175 L334.8850 439.0950 C326.8950 445.2450 319.2125 451.9725 310.6625 457.3350 C309.3850 458.0350 308.2250 458.1375 306.7875 458.0850 C303.3475 457.9550 299.7675 457.1425 296.3400 456.6750 L277.2500 454.2175 C267.7675 453.0025 258.3275 451.5125 248.8630 450.1850 L185.0435 441.6525 L161.8390 438.6225 C158.3107 438.1950 154.7493 437.6250 151.1970 437.4875 C148.8910 434.7450 146.8078 431.7725 144.6062 428.9400 C139.6835 422.6850 134.7985 416.4000 129.9512 410.0875 C117.8683 394.7575 105.8708 379.3575 93.9595 363.8925 L67.3085 329.4900 C62.6068 323.4275 57.3932 317.4600 53.1837 311.0575 C53.0335 306.5100 53.9982 301.9300 54.5652 297.4275 C55.4128 290.2700 56.3135 283.1175 57.2677 275.9725 C60.3835 251.3550 63.6670 226.7603 67.1183 202.1885 L71.9742 166.1935 C72.6805 161.2363 72.9745 155.9012 74.2425 151.0612 C77.4220 148.3907 80.9348 146.0448 84.2418 143.5253 L103.1512 128.9025 L163.8333 81.9402 L187.7742 63.4770 C192.1098 60.0890 196.5473 55.8983 201.3237 53.2205 Z M128.3955 181.5295 C126.2185 192.6508 125.0340 204.1360 123.5545 215.3760 L117.7105 258.1875 L114.4528 283.0650 C113.9710 286.6125 112.9465 290.5325 112.9648 294.0850 C115.1418 298.3700 118.6458 302.0375 121.5788 305.8275 C125.9308 311.4475 130.1545 317.1625 134.5347 322.7650 L161.7173 358.1425 C168.1970 366.4550 174.9182 374.5625 181.2003 383.0325 C185.9902 383.0625 190.8670 383.9500 195.6048 384.6350 L220.4023 388.4150 C235.2170 390.5850 250.1475 392.1475 264.9925 394.1350 C273.6750 395.2975 282.4900 397.2600 291.2075 397.8775 C292.0750 397.9375 292.7900 397.6775 293.5875 397.3625 C306.9500 387.6225 319.9050 377.3725 333.0725 367.3800 L367.1325 341.0125 C372.0900 337.1725 377.2650 333.5700 382.1200 329.6050 C381.8150 322.4450 383.7250 314.8775 384.5650 307.7350 C386.4450 291.7025 389.1025 275.7500 391.3875 259.7700 C392.3125 253.3025 392.9375 246.7912 393.8150 240.3152 C394.6375 234.2603 395.6600 228.2368 396.4475 222.1752 C396.6700 220.4595 397.0375 218.7235 397.1550 217.0030 C394.4000 213.2312 391.3125 209.7272 388.4925 206.0072 C375.2625 188.6470 361.8650 171.4153 348.3000 154.3145 L335.0700 137.2867 C332.6250 134.1370 330.5675 130.8785 327.6850 128.0870 C304.3550 125.4532 281.0650 122.4835 257.8200 119.1793 L237.1073 116.2740 C230.0253 115.2142 223.0425 113.8215 215.8533 114.0135 C212.9017 116.5153 209.7137 118.6075 206.6410 120.9430 C202.6880 123.9478 198.8333 127.1028 194.9070 130.1470 L151.0155 164.6000 C146.5665 168.0285 142.0955 171.4875 137.5672 174.8075 C134.5050 177.0527 131.3463 179.1328 128.3955 181.5295 Z"></path>
<path id="" fill="#ffffff" fill-opacity="0.027451" stroke="#000000" stroke-width="0.0" stroke-opacity="1.0" stroke-linecap="round" stroke-linejoin="round"  filling="0" d="M0.6766 0.0000 L511.3225 0.0000 C508.2025 0.6650 504.4600 0.3195 501.2650 0.3163 L484.2875 0.2973 L415.9925 0.2969 L147.6600 0.2999 L40.7298 0.2926 L15.1412 0.3109 C10.7615 0.3248 4.9184 0.8886 0.6766 0.0000 Z"></path>
<path id="" fill="#ffffff" fill-opacity="0.0196078" stroke="#000000" stroke-width="0.0" stroke-opacity="1.0" stroke-linecap="round" stroke-linejoin="round"  filling="0" d="M1.3091 512.0000 C3.3875 511.2775 25.6402 511.7425 29.6990 511.7425 L108.8480 511.7450 L408.0800 511.7525 L481.9375 511.7525 L501.0200 511.7350 C504.2850 511.7300 508.1175 511.3450 511.2925 512.0000 L1.3091 512.0000 Z"></path>
<path id="" fill="#ffffff" fill-opacity="0.027451" stroke="#000000" stroke-width="0.0" stroke-opacity="1.0" stroke-linecap="round" stroke-linejoin="round"  filling="0" d="M0.0000 0.9172 C0.7097 3.9909 0.2566 8.0218 0.2535 11.1965 L0.2509 30.6735 L0.2530 111.2188 L0.2531 439.7300 L0.2509 490.8325 C0.2507 494.5500 0.7518 508.0600 0.0000 510.5825 L0.0000 0.9172 Z"></path>
<path id="" fill="#fadb9a" fill-opacity="1.0" stroke="#000000" stroke-width="0.0" stroke-opacity="1.0" stroke-linecap="round" stroke-linejoin="round"  filling="0" d="M225.0833 144.0737 C233.3867 143.9212 242.5650 146.2737 250.8375 147.3922 L311.5850 155.3038 C315.7150 158.2280 322.3500 168.5610 325.7700 173.0455 C331.9925 181.2103 338.3775 189.2467 344.5550 197.4540 C348.6775 202.9290 352.8825 208.3000 357.1250 213.6805 C360.3850 217.8168 363.4350 221.9165 367.0425 225.7693 C367.0300 227.6573 366.5475 229.5217 366.3225 231.3952 C365.5000 238.2222 364.3675 244.9612 363.3675 251.7650 L355.8150 304.1200 C355.3950 306.8725 355.1425 313.2375 354.4550 315.2950 C354.2425 315.9250 352.7725 316.9450 352.2375 317.3650 C348.1450 320.5675 343.8725 323.5575 339.7275 326.6925 L308.3525 350.5825 C302.7950 354.8075 297.3950 359.2325 291.8125 363.4375 C289.2975 365.3325 286.6125 367.7125 283.7275 368.9825 C280.9225 369.0800 277.4350 367.9500 274.6075 367.5050 C269.5300 366.7025 264.3650 366.1375 259.2650 365.4575 L221.5197 360.4400 C214.8505 359.6000 207.9030 359.1725 201.3223 357.9075 C200.0712 357.6675 197.8760 357.4950 196.7728 356.9500 C195.6113 356.3750 193.7880 353.9700 192.9680 352.9475 C190.8475 350.3050 188.9230 347.5050 186.8237 344.8450 L156.8752 306.6250 C154.1192 303.0675 151.3025 299.5550 148.4260 296.0925 C146.4857 293.7475 144.2970 291.3925 142.6685 288.8200 C141.6438 287.2000 141.9580 284.4700 142.1187 282.6075 C142.4360 278.9275 143.2360 275.2725 143.7180 271.6100 L148.4603 237.4147 L151.9263 211.0200 C152.4642 206.9203 152.6378 202.5607 153.5963 198.5462 C156.9495 195.4835 161.1190 193.0148 164.7615 190.2672 L186.5957 173.4913 C189.2675 171.4475 191.8020 169.2202 194.4427 167.1337 L214.7027 151.2227 C216.9110 149.4720 218.9340 147.4675 221.1842 145.7802 C222.4812 144.8078 223.4978 144.4030 225.0833 144.0737 Z M148.0800 285.3875 C150.2863 288.5400 152.7835 291.3975 155.1915 294.3925 C158.9555 299.0725 162.7025 303.8150 166.3672 308.5750 L190.6865 339.7375 C193.6170 343.4325 196.2815 347.3225 199.3605 350.9000 C206.7207 352.0600 214.1122 352.8000 221.4978 353.7475 L258.5875 358.6425 C266.7075 359.6750 274.7825 361.1525 282.9050 362.1750 C291.5550 356.1750 299.4950 349.3175 307.8825 342.9975 L332.5850 324.1600 C337.9550 320.0500 344.4425 315.5075 349.0825 310.6050 C349.7450 299.9350 351.6075 289.0700 353.1875 278.4950 C354.4625 269.9650 355.5175 261.3950 356.7200 252.8525 L358.7925 237.1965 C359.1475 234.6373 359.2750 232.0415 360.0150 229.5578 C360.0925 229.2960 360.1625 229.0305 360.2375 228.7680 C356.0950 221.8492 350.5775 215.4212 345.6600 209.0228 C338.7875 200.0845 332.0675 191.0520 325.1075 182.1755 C321.8050 177.9635 318.5825 173.6550 315.3700 169.3740 C313.5200 166.9095 311.7650 164.3322 309.7050 162.0367 C289.4150 159.4305 269.1775 156.2298 248.8935 153.5375 C245.1687 153.0430 241.4368 152.5827 237.7182 152.0445 C233.6732 151.4590 229.7507 150.6255 225.6455 150.8315 C221.4138 153.2218 217.4272 156.8537 213.5748 159.8347 C205.4170 166.1275 197.3085 172.4837 189.2500 178.9030 C183.3820 183.5650 177.4710 188.2348 171.5163 192.7852 C168.3017 195.2415 164.8387 197.5632 161.7665 200.1788 C160.8318 200.9742 160.1140 201.4830 159.7700 202.7052 C157.9883 209.0355 157.5185 217.3515 156.5845 223.9973 L151.1955 263.7650 C150.2153 270.9750 149.4215 278.2300 148.0800 285.3875 Z"></path>
<path id="" fill="#323033" fill-opacity="1.0" stroke="#000000" stroke-width="0.0" stroke-opacity="1.0" stroke-linecap="round" stroke-linejoin="round"  filling="0" d="M183.0335 244.3613 C187.6958 215.9832 208.7065 193.0520 236.5697 185.9317 C264.4325 178.8115 293.8700 188.8513 311.5750 211.5135 C329.2800 234.1758 331.9000 265.1675 318.2500 290.4800 C301.4550 321.6250 264.6125 336.0750 231.1215 324.6525 C197.6308 313.2275 177.2970 279.2775 183.0335 244.3613 Z M265.2150 253.0700 C266.0075 252.0900 267.0275 250.6175 266.9950 249.3075 C266.9800 248.6855 266.7275 248.3997 266.2875 248.0185 L264.8875 247.8035 C263.9375 248.2750 263.4775 248.7395 263.1350 249.7640 C262.8625 250.5825 262.8225 251.5800 263.3050 252.3425 C263.6725 252.9200 263.8550 252.9475 264.5125 253.0275 C264.7150 253.0525 265.0050 253.0625 265.2150 253.0700 Z"></path>
<path id="" fill="#ececed" fill-opacity="1.0" stroke="#000000" stroke-width="0.0" stroke-opacity="1.0" stroke-linecap="round" stroke-linejoin="round"  filling="0" d="M183.0335 244.3613 L183.2865 244.2260 C184.6508 254.4275 189.2285 263.8375 197.4925 270.2150 C205.3135 276.3050 215.2693 278.9650 225.0847 277.5825 C235.2728 276.0875 244.4523 270.6125 250.6125 262.3625 C252.6525 259.6450 254.4000 256.7050 256.4975 254.0325 C262.4500 246.4402 270.5775 241.4462 280.1700 240.0108 C289.8250 238.5665 299.5450 240.8250 307.3775 246.6998 C314.9175 252.3150 319.9325 260.6825 321.3275 269.9800 C322.1925 276.0625 321.7675 285.2325 318.2500 290.4800 C301.4550 321.6250 264.6125 336.0750 231.1215 324.6525 C197.6308 313.2275 177.2970 279.2775 183.0335 244.3613 Z M265.2150 253.0700 C266.0075 252.0900 267.0275 250.6175 266.9950 249.3075 C266.9800 248.6855 266.7275 248.3997 266.2875 248.0185 L264.8875 247.8035 C263.9375 248.2750 263.4775 248.7395 263.1350 249.7640 C262.8625 250.5825 262.8225 251.5800 263.3050 252.3425 C263.6725 252.9200 263.8550 252.9475 264.5125 253.0275 C264.7150 253.0525 265.0050 253.0625 265.2150 253.0700 Z"></path>
<path id="" fill="#b3181a" fill-opacity="1.0" stroke="#000000" stroke-width="0.0" stroke-opacity="1.0" stroke-linecap="round" stroke-linejoin="round"  filling="0" d="M201.3425 51.2793 C205.6432 51.0618 213.7617 52.6877 218.4122 53.2870 L259.5975 58.7025 L327.1000 67.5610 L346.5100 70.1305 C350.5075 70.6373 354.5600 70.9550 358.5250 71.6718 C359.8600 71.9130 361.6000 71.9725 362.5675 72.9358 C366.9150 77.2640 371.5300 84.2255 375.3425 89.2012 C383.3475 99.5103 391.2975 109.8605 399.1950 120.2515 L444.5950 179.4767 C449.9875 186.6068 455.7575 193.5117 460.8950 200.8245 C460.7025 204.6295 460.0600 208.4300 459.5575 212.2043 L457.5125 228.0697 L449.1000 291.3800 L442.6050 341.3025 C442.1075 345.1250 440.6500 359.3025 439.5625 361.8450 C439.1700 362.7675 437.1225 364.1100 436.2850 364.7700 C410.5975 384.9400 384.3550 404.4250 358.5075 424.3875 C348.0275 432.5650 337.4925 440.6700 326.9050 448.7050 C323.3275 451.4575 314.0650 459.5150 310.3925 460.8775 C307.3400 461.0450 301.6475 459.7550 298.3425 459.3075 L268.0250 455.3000 L203.1068 446.7650 L172.0030 442.6975 C164.7515 441.7400 157.4648 440.9225 150.2717 439.5850 C145.5290 435.1375 141.6358 429.1050 137.6743 423.9600 L111.1168 389.1225 L69.7182 335.2700 C66.0543 330.4300 62.3570 325.6175 58.6270 320.8300 C56.2880 317.8625 53.3585 314.7550 51.4767 311.5000 C50.9635 310.6125 51.2572 309.1475 51.3750 308.1475 C52.7255 296.6800 54.4082 285.2375 55.9017 273.7850 L65.4355 201.0027 L69.8200 167.7375 C70.5970 161.8452 70.9765 155.5972 72.4747 149.8505 C76.6125 146.1685 81.3022 142.9272 85.6803 139.5213 C96.0790 131.4045 106.5455 123.3743 117.0782 115.4323 L179.0660 67.7718 C183.3568 64.4912 197.8695 52.4885 201.3425 51.2793 Z M79.4455 154.2995 C78.9035 161.0530 77.7495 167.7892 76.8733 174.5090 L70.9577 218.3860 C66.9520 248.2590 63.6438 278.2450 59.1180 308.0400 C61.1270 312.3550 64.5072 315.9900 67.4092 319.7250 L78.9977 334.7175 L116.5058 383.5200 L140.4328 414.7275 C144.1492 419.6550 150.2142 428.8575 154.3925 432.6575 C159.6832 433.0625 164.9830 433.9475 170.2450 434.6425 L201.0592 438.7650 L308.7600 452.9625 C310.4900 452.2025 312.0275 450.5475 313.5400 449.3950 C318.0200 445.9750 322.3925 442.4400 326.8575 439.0100 L384.6500 394.6750 L417.8500 369.0975 C422.7775 365.3275 428.3575 361.9600 432.8050 357.6225 C432.8300 352.5550 433.9525 347.1150 434.6575 342.0875 L438.0200 316.8925 L453.0625 203.2150 C450.7200 199.7760 447.9525 196.6308 445.4075 193.3407 L431.8275 175.5777 L393.6125 125.8365 L368.8050 93.5807 C365.2650 88.9557 362.1375 83.4825 357.8450 79.4967 C321.2300 74.4380 284.5800 69.6170 247.9020 65.0345 L216.8578 60.9088 C212.5918 60.3560 208.0762 59.2410 203.7785 59.2980 C199.8703 60.9232 196.7940 64.0143 193.4718 66.5757 L180.6845 76.3580 L144.4920 104.2905 C127.4790 117.3337 110.1803 130.0670 93.4145 143.4243 C88.8473 147.0632 83.7450 150.3735 79.4455 154.2995 Z"></path>
<path id="" fill="#b2181a" fill-opacity="1.0" stroke="#000000" stroke-width="0.0" stroke-opacity="1.0" stroke-linecap="round" stroke-linejoin="round"  filling="0" d="M214.6427 108.8200 C217.3728 108.9043 220.1308 109.3817 222.8432 109.7245 C227.2292 110.2590 231.6120 110.8220 235.9908 111.4135 L271.0025 116.1225 L305.5550 120.5760 C313.8400 121.6113 322.4800 122.4145 330.6100 124.2975 C334.8225 129.0040 338.5375 134.0155 342.3950 139.0027 L358.8825 160.3522 L381.9225 190.4057 C388.3050 198.7085 394.8500 206.9312 400.9800 215.4227 C401.9750 216.7997 402.1425 217.2610 402.1025 218.9655 C402.0225 222.5742 401.1750 226.2912 400.7300 229.8825 C399.4725 240.0553 397.9875 250.1700 396.6450 260.3275 L389.7450 312.6525 C388.7850 319.6950 388.0800 326.7550 386.9100 333.7725 C385.3425 335.3750 383.3300 336.5750 381.5275 337.9050 C377.5075 340.8725 373.4025 343.7775 369.5050 346.9000 C356.5875 357.2400 343.2175 366.9050 330.1625 377.0500 L307.7900 394.3200 C304.3450 396.9850 301.0825 399.9425 297.5275 402.4600 C296.1750 403.4150 294.9625 403.9600 293.3175 404.1950 C290.7650 404.3825 288.1850 404.2350 285.6450 403.9725 C275.9850 402.9700 265.9450 401.3950 256.2850 400.0875 L203.6305 393.1000 C200.6597 392.7225 179.3000 390.4475 178.2343 389.6975 C177.1882 388.9625 176.0932 387.6650 175.2482 386.6975 C172.7973 383.8900 170.7103 380.7100 168.4258 377.7575 L152.3765 356.9900 L118.9930 313.1850 C115.4883 308.6175 111.6605 304.2900 108.1970 299.6975 C107.5670 298.8600 106.0228 296.9800 105.9625 295.9425 C105.8840 294.5900 106.4942 292.7425 106.6785 291.3675 C107.5323 285.3825 108.3343 279.3900 109.0843 273.3925 L116.3550 217.2892 L118.8012 199.1080 C119.6722 192.8542 120.6490 186.5217 121.0510 180.2195 C128.4550 175.1650 135.2798 169.2545 142.4290 163.8483 L199.3720 120.3952 C202.4243 118.0790 211.9280 109.7798 214.6427 108.8200 Z M128.0510 185.6430 C128.0448 190.6102 126.8520 195.5757 126.2953 200.5070 C124.5107 216.3073 122.1540 232.0600 120.0898 247.8327 L116.2682 276.8550 C115.5985 282.2050 115.3987 287.8375 113.9983 293.0500 C116.5745 298.3975 120.4327 302.4450 124.0210 307.1050 L136.9288 323.9700 C142.4935 331.1325 147.7883 338.5150 153.3277 345.6950 L175.2773 374.3375 C177.5148 377.2600 179.8997 380.0925 182.0988 383.0375 C187.7298 383.2750 193.1805 384.1525 198.7510 384.9100 L215.6178 387.1150 L271.8925 394.4800 C275.8525 394.9925 288.8575 397.4675 291.8150 396.6925 C297.1450 393.8750 303.4200 387.7550 308.4650 383.9675 L362.5675 342.5750 C366.2575 339.7250 376.6075 331.0750 380.2400 329.6050 L380.2400 329.1350 C380.2450 326.3475 380.6650 323.6000 380.9875 320.8400 C381.7150 314.6425 382.6825 308.4800 383.4500 302.2900 C386.3275 279.0675 389.7325 255.9150 392.4925 232.6788 C392.9000 229.2545 394.8700 222.3107 394.1625 219.3098 C393.7200 217.4310 379.0850 199.3837 376.6100 196.2180 L340.1200 148.7205 C336.9325 144.6373 333.8550 140.4718 330.6500 136.3995 C329.3650 134.7672 328.1175 132.9783 326.6750 131.4865 C319.2725 129.9160 311.7800 129.1172 304.2800 128.1582 L271.3850 123.8975 L235.2345 119.1335 C229.5607 118.3813 222.1853 116.5280 216.6340 117.0540 C213.2402 118.7880 210.1413 121.6285 207.1760 123.9995 C203.4978 126.9157 199.8013 129.8092 196.0872 132.6800 L152.9080 165.7975 C147.5600 169.8620 142.1777 173.8635 136.8825 177.9973 C133.7850 180.4155 130.5460 182.5500 128.0510 185.6430 Z"></path>
<path id="" fill="#b2181a" fill-opacity="1.0" stroke="#000000" stroke-width="0.0" stroke-opacity="1.0" stroke-linecap="round" stroke-linejoin="round"  filling="0" d="M224.3290 144.0310 C229.1905 143.9050 234.2332 144.9010 239.0420 145.5425 L260.6450 148.3893 C269.2425 149.5287 277.8325 150.8197 286.4425 151.8615 C295.1400 152.9140 303.9575 153.6918 312.5750 155.2845 C312.9375 155.6013 313.3000 155.9153 313.6450 156.2545 C315.7750 158.3528 317.6300 161.2027 319.4775 163.5708 C324.6500 170.2225 329.7500 176.9312 334.7750 183.6958 C344.7925 196.9640 355.4725 209.8575 365.0725 223.4247 C365.7700 224.4082 367.0800 225.9730 367.0625 227.2027 C366.9200 236.4065 364.9750 245.6597 363.8675 254.7950 C362.2650 268.0175 360.3650 281.1800 358.5600 294.3750 C358.1575 297.3025 358.0850 300.2225 357.7375 303.1425 C357.2400 307.3225 356.3900 311.5025 355.6975 315.6575 C350.1050 319.6875 344.8675 324.2300 339.3900 328.4150 C328.6450 336.6250 317.7550 344.6750 307.0725 352.9600 C303.6425 355.6200 286.8825 369.2275 284.3050 370.0350 C274.9400 369.6500 265.4250 367.5975 256.1200 366.4000 L196.7823 358.7800 L196.5000 358.5800 C195.8813 358.1450 195.2997 357.7025 194.7545 357.1800 C191.5262 354.0800 189.0112 350.2625 186.3033 346.7150 L173.2850 329.6750 L152.4780 302.2625 C149.4978 298.3550 146.2445 294.5950 143.4155 290.5850 C142.6642 289.5200 140.9860 287.3275 141.0092 286.0050 C141.0110 285.9075 141.0200 285.8100 141.0222 285.7125 C141.1430 280.2350 142.5820 274.6150 143.2180 269.1525 C145.0965 253.0200 147.3647 236.9277 149.4930 220.8285 C150.4337 213.7110 151.7222 206.5668 152.2487 199.4068 C153.6015 197.5690 155.5400 195.8790 157.3022 194.4300 C160.1085 192.1230 163.1300 190.0550 165.9993 187.8233 L195.6062 165.1068 C202.4498 159.8920 209.2072 154.6140 216.1588 149.5367 C218.6720 147.7012 221.4648 145.2063 224.3290 144.0310 Z M160.1115 202.5405 C157.7555 219.6445 155.4928 236.7612 153.3233 253.8900 C151.9012 264.3875 149.9142 275.0975 149.4108 285.6750 C156.4565 293.8200 162.7995 302.5825 169.2990 311.1625 C173.4410 316.6300 177.7937 321.9400 181.9422 327.4025 C184.9180 331.3200 197.8255 349.2000 200.7105 351.1075 C202.1658 352.0675 214.8938 353.0650 217.7140 353.4950 C230.1730 355.3925 242.7055 356.6550 255.1850 358.3925 C261.1575 359.2375 267.1325 360.0550 273.1125 360.8400 C275.5375 361.1725 278.0750 361.8025 280.5075 361.9400 C281.1375 361.9750 281.6000 361.8125 282.1650 361.5825 C285.9775 359.2775 289.5550 356.2175 293.1150 353.5200 L313.9350 337.6300 L335.9350 320.7425 C339.9675 317.6225 344.2325 314.6275 347.9750 311.1600 C348.5050 310.6700 348.6225 309.9700 348.7500 309.2875 C349.3700 305.9825 349.5325 302.4725 349.9750 299.1275 C351.1300 290.7775 352.2175 282.4175 353.2400 274.0500 C355.1425 258.9425 357.5450 243.8505 359.2500 228.7267 L337.8200 200.7050 C334.9500 196.9600 331.9250 193.3285 329.1025 189.5475 L317.2650 173.9340 C314.4725 170.2425 311.7175 166.0965 308.3475 162.9097 C302.1900 161.6078 295.9575 161.1410 289.7325 160.3118 C278.8025 158.7798 267.8650 157.3112 256.9200 155.9068 C249.2932 154.8438 241.6590 153.8403 234.0172 152.8965 C231.3935 152.5575 228.5700 151.7900 225.9550 151.6945 C221.2238 156.2077 215.4235 159.9580 210.2330 163.9662 C197.1715 174.0533 183.8390 183.8457 170.9492 194.1445 C167.8862 196.5915 162.5087 199.8380 160.1115 202.5405 Z"></path>
<path id="" fill="#ececed" fill-opacity="1.0" stroke="#000000" stroke-width="0.0" stroke-opacity="1.0" stroke-linecap="round" stroke-linejoin="round"  filling="0" d="M223.0383 227.0488 C230.3540 225.7442 237.3355 230.6380 238.6042 237.9603 C239.8730 245.2823 234.9450 252.2400 227.6167 253.4725 C220.3392 254.6975 213.4402 249.8103 212.1803 242.5388 C210.9203 235.2672 215.7730 228.3445 223.0383 227.0488 Z"></path>
<path id="" fill="#323033" fill-opacity="1.0" stroke="#000000" stroke-width="0.0" stroke-opacity="1.0" stroke-linecap="round" stroke-linejoin="round"  filling="0" d="M280.8375 260.2700 C285.5950 259.5425 290.3750 261.4400 293.3375 265.2325 C296.3025 269.0250 296.9850 274.1200 295.1275 278.5600 C293.2700 283.0000 289.1600 286.0925 284.3800 286.6450 C277.1750 287.4775 270.6300 282.3850 269.6625 275.1975 C268.6975 268.0075 273.6675 261.3700 280.8375 260.2700 Z"></path>
</svg>