<svg xmlns="http://www.w3.org/2000/svg" viewBox="0 0 512 512" height="512.0px" width="512.0px">
<path id="" fill="#fcd721" fill-opacity="1.0" stroke="#000000" stroke-width="0.0" stroke-opacity="1.0" stroke-linecap="round" stroke-linejoin="round"  filling="0" d="M292.8825 61.1080 C327.7800 59.3030 355.3575 66.2108 385.4525 83.7997 C389.8150 86.3505 393.8150 89.3118 397.8575 92.3327 C418.4050 107.6938 432.6075 126.0040 443.9950 148.8463 C448.3525 157.5883 452.0000 166.1543 454.4750 175.6322 C457.4475 187.0098 459.4425 198.4767 459.9600 210.2493 C461.0075 239.1615 453.7975 267.7750 439.1700 292.7350 C434.6675 300.3875 428.8975 309.2600 423.2225 316.0000 C420.5975 319.1175 417.6425 321.9475 414.7625 324.8250 C409.6425 329.9425 404.3850 334.9700 398.6725 339.4350 C387.3250 348.3050 373.4500 356.1600 359.9825 361.2425 C354.2750 363.3975 348.3775 364.8775 342.4800 366.4125 C340.6050 369.4950 339.0525 372.7875 337.1950 375.8900 C333.6700 381.7700 329.4575 387.6150 325.1375 392.9350 C299.5450 423.9075 262.7800 443.5500 222.8082 447.6100 C219.9035 448.4750 215.6647 448.0525 212.6295 448.0550 C207.4080 448.0550 202.0878 448.2325 196.8772 447.8825 C187.4668 447.2500 177.5855 445.3550 168.4945 442.8425 C129.8620 432.4325 96.9580 407.0825 77.0403 372.3825 C56.5977 336.3750 50.4568 294.0325 61.5490 253.9375 C71.5355 218.4393 93.8962 187.6862 124.5867 167.2415 C129.2968 164.0975 134.5070 161.3835 139.5092 158.7155 C144.4485 156.0813 149.7422 153.9012 155.0280 152.0658 C158.3997 150.8947 162.3295 150.1280 165.4182 148.3315 C165.4933 148.2878 165.5668 148.2415 165.6410 148.1967 C167.8240 144.9655 169.1975 140.8927 171.1207 137.4450 C176.0855 128.5450 182.4583 119.7637 189.3448 112.2538 C212.1855 87.3450 240.6633 70.5967 273.8100 63.8978 C280.0825 62.6300 286.4750 61.3980 292.8825 61.1080 Z"></path>
<path id="" fill="#f91b3c" fill-opacity="1.0" stroke="#000000" stroke-width="0.0" stroke-opacity="1.0" stroke-linecap="round" stroke-linejoin="round"  filling="0" d="M207.0927 197.3675 C207.7417 197.6107 208.4312 197.9277 208.9303 198.4185 C210.0035 199.4740 212.2953 206.8560 212.9705 208.7258 C217.8548 222.2478 223.6758 234.8002 231.7177 246.7592 C233.9980 250.1500 236.3320 253.5425 239.0720 256.5850 C249.0163 267.6200 261.5625 275.6050 274.8475 282.0250 C280.3600 284.6900 286.2100 287.2000 291.9800 289.2375 C295.7150 290.5550 299.6750 291.5350 303.3175 293.0725 C304.0950 293.4025 304.8175 293.7275 305.3300 294.4250 C305.1925 295.0700 305.0950 295.5500 304.5550 296.0025 C304.1925 296.3050 303.7875 296.4825 303.3400 296.6100 C302.0400 296.9775 300.6825 297.1250 299.3725 297.4725 C293.4075 299.0575 287.2875 300.7225 281.4375 302.6875 C269.5300 306.6900 257.3750 312.0550 247.6098 320.1075 C237.7810 328.2100 229.9900 339.0600 224.3395 350.4125 C219.4973 360.1750 215.4815 370.3275 212.3345 380.7625 C211.6263 383.1000 210.1835 390.2275 208.5378 391.6575 C208.2462 391.7150 207.9473 391.7125 207.6510 391.7300 C205.9705 390.7950 204.7295 385.6200 204.2335 383.8350 C199.3050 366.0900 187.9043 341.0775 175.6690 327.2250 C163.7878 313.7725 146.3490 305.9800 129.4883 300.8800 C123.6225 299.1075 118.1988 297.6325 112.1100 296.8775 C111.4350 296.7925 111.1875 296.6150 110.7632 296.1100 C110.7152 295.4650 110.6313 295.1100 111.0270 294.5425 C111.4173 293.9825 112.1585 293.5800 112.7668 293.3125 C114.8025 292.4150 117.1243 291.8675 119.2422 291.1400 C123.7745 289.5825 128.3152 287.9475 132.7287 286.0775 C142.5952 281.8950 153.8132 276.2425 162.5258 270.0100 C166.0247 267.5050 169.0160 264.6275 172.0445 261.6000 C174.5950 259.0500 177.2408 256.5275 179.5193 253.7300 C189.2030 241.8362 196.3785 226.6712 201.6938 212.3535 C202.6170 209.8665 205.8380 198.8820 207.0927 197.3675 Z"></path>
<path id="" fill="#f91b3d" fill-opacity="1.0" stroke="#000000" stroke-width="0.0" stroke-opacity="1.0" stroke-linecap="round" stroke-linejoin="round"  filling="0" d="M303.5675 119.3878 C304.7275 119.6458 305.1350 119.8443 305.6550 120.9730 C307.6700 125.3445 308.9900 130.1240 310.8125 134.5915 C316.5000 148.5500 323.3875 162.1025 332.7175 174.0027 C343.3100 187.5160 357.2625 196.6795 372.5900 203.9798 C375.8000 205.5085 378.9975 207.2267 382.3300 208.4675 C386.0650 209.8578 389.8175 211.3190 393.5900 212.6035 C395.3575 213.2055 397.2425 213.5432 398.9725 214.2348 C399.6300 214.4982 400.2850 214.8717 400.8075 215.3573 C401.4100 215.9160 401.4975 216.3497 401.5100 217.1452 L400.8675 217.2623 L401.1375 217.3707 C397.0550 219.3750 392.0950 220.4085 387.7375 221.7665 C382.1500 223.5078 376.6575 225.4772 371.1525 227.4630 C363.1850 231.1577 355.9775 234.1703 348.4250 238.8387 C346.9425 236.3545 345.8300 233.5423 344.5975 230.9225 C343.0650 227.6617 341.4150 224.4588 339.6475 221.3197 C335.4850 213.8457 330.5950 206.4720 325.1300 199.8842 C323.5900 198.0265 321.8450 196.3515 320.2500 194.5445 C317.4300 191.3548 314.8150 188.1385 311.7375 185.1755 C308.7750 182.3205 305.4850 179.7040 302.3775 177.0010 C298.1075 173.2875 293.5400 170.2437 288.8050 167.1738 C287.4325 166.2838 284.4425 164.9718 283.7850 163.6080 C284.3325 159.8055 291.0225 148.2663 293.0050 144.0397 C295.2025 139.3535 297.1125 134.4425 298.9650 129.6125 C300.1650 126.4780 301.0425 121.5510 303.5675 119.3878 Z"></path>
<path id="" fill="#b3191a" fill-opacity="1.0" stroke="#000000" stroke-width="0.0" stroke-opacity="1.0" stroke-linecap="round" stroke-linejoin="round"  filling="0" d="M292.4325 60.1115 C317.9450 59.1527 339.3000 61.5862 363.0925 71.2477 C401.9925 86.9408 432.9575 117.5990 449.0375 156.3387 C464.9775 194.8565 465.0200 238.1185 449.1575 276.6675 C434.6275 312.0775 407.6100 340.9225 373.2250 357.7350 C368.5975 360.0025 363.7775 362.1075 358.9250 363.8400 C355.1850 365.1775 351.3200 366.2275 347.6575 367.7650 C345.6400 370.5625 344.1250 373.7475 342.3650 376.7125 C339.0500 382.3050 335.3725 387.8250 331.2575 392.8625 C302.1175 428.5200 265.1725 447.2850 219.5605 451.9200 C216.8295 452.1625 213.9733 452.1025 211.2295 452.1650 C191.7307 452.6650 172.3150 449.4525 154.0160 442.7000 C116.0803 428.8825 83.2230 399.4925 66.1663 362.7675 C47.9545 324.3025 46.0468 280.1125 60.8757 240.2213 C74.6198 203.1573 101.9048 172.6823 137.2298 154.9402 C142.3515 152.3522 147.6178 150.0615 153.0027 148.0790 C156.7655 146.7142 160.8067 145.6300 164.4235 143.9232 C164.5052 143.8848 164.5860 143.8448 164.6670 143.8055 C171.3185 132.0788 178.5085 120.6710 187.7652 110.7800 C210.1395 86.4163 239.6060 69.7018 271.9975 62.9998 C278.6325 61.6250 285.6650 60.3425 292.4325 60.1115 Z M211.8730 442.9225 C293.4425 440.8275 357.8750 373.0100 355.7950 291.4400 C353.7150 209.8680 285.9100 145.4235 204.3392 147.4890 C122.7473 149.5550 58.2830 217.3810 60.3638 298.9725 C62.4442 380.5650 130.2818 445.0175 211.8730 442.9225 Z M400.0325 214.8383 C400.6450 215.4890 401.4075 216.1398 401.6500 217.0177 C401.3675 217.6723 401.2325 217.6275 400.5625 217.8842 C396.9825 219.2547 392.8900 219.8450 389.2050 220.9665 C378.2650 224.2955 363.0075 229.6382 353.3325 235.3935 C355.8750 240.7270 357.5675 246.1435 359.1875 251.8075 C360.8650 258.1950 362.4450 264.6100 363.4500 271.1425 C367.4750 297.6250 364.7225 324.6950 355.4425 349.8250 C355.0750 350.8000 353.4525 354.2925 353.8775 355.0275 C357.2000 355.9400 372.1700 347.9325 375.8325 345.8525 C410.7525 326.3375 436.3100 293.5525 446.7175 254.9275 C449.1675 245.6758 450.6950 236.2027 451.2750 226.6487 C451.4725 223.7515 451.8525 220.8542 451.8950 217.9500 C452.2350 195.3110 446.3775 171.5983 436.5125 151.2912 C434.7600 147.6835 432.6550 144.1535 430.6550 140.6747 C412.8300 109.6858 378.9650 83.8030 344.4175 74.5378 C329.3375 70.4935 313.3350 68.1660 297.6950 69.1057 C264.5000 70.4810 232.7490 83.0455 207.6025 104.7560 C203.8345 107.9952 200.1155 111.2525 196.7337 114.9043 C193.1378 118.7872 178.8768 135.2122 179.0155 139.4680 C179.3185 139.9167 179.3607 140.0125 179.9252 140.1250 C181.9930 140.5372 196.0025 138.3745 199.4230 138.1385 C214.9900 137.0645 232.8620 139.0750 247.9008 143.1008 C259.8200 146.2915 269.5950 150.3180 280.6100 155.7892 C281.8450 156.4023 284.5400 158.1895 285.7500 157.2968 C287.6475 155.8945 288.8650 152.3840 289.8925 150.2733 C292.8225 144.3905 295.5175 138.3940 297.9725 132.2980 C299.3750 128.9122 300.5650 125.3378 302.1525 122.0432 C302.5900 121.1375 303.1025 119.9665 304.0050 119.4733 C305.0475 119.8840 305.6425 121.6955 306.0700 122.6755 C317.7300 149.4577 327.3525 174.5635 352.3500 191.8833 C358.4175 196.0880 365.1150 199.6230 371.7250 202.8963 C378.8925 206.4462 386.1725 210.0818 393.6225 213.0063 C395.6150 213.7888 397.8875 214.6642 400.0325 214.8383 Z M293.6500 163.5072 C311.0350 174.4130 325.9600 188.8185 337.4750 205.8070 C339.8425 209.2968 342.2250 212.8922 344.2900 216.5700 C345.4525 218.6435 347.9950 224.5273 349.2475 225.9070 C349.5975 226.2935 350.2850 226.1905 350.7550 226.0898 C354.1400 225.3660 357.3500 223.1633 360.5500 221.8517 C365.5200 219.9080 370.6325 217.4388 375.8025 216.1443 C371.5750 211.7865 364.1400 209.2818 358.7525 206.4978 C355.3575 204.7428 352.1975 202.6237 349.0325 200.4917 C339.1550 193.8370 330.7750 186.4570 323.7150 176.7872 C318.9900 170.3112 314.8800 163.2945 311.0600 156.2527 C309.6875 153.7193 308.5025 151.1375 307.3650 148.4930 C306.7875 147.1512 306.3025 145.6355 305.5875 144.3772 C305.3225 143.9150 305.0050 143.7332 304.5300 143.5070 C304.0450 143.6930 303.2275 143.8600 302.9175 144.2755 C301.5400 146.1235 300.5450 149.0052 299.5125 151.1288 C297.8600 154.5298 296.0175 157.8797 294.4875 161.3350 C294.1725 162.0490 293.8825 162.7612 293.6500 163.5072 Z"></path>
<path id="" fill="#b3181a" fill-opacity="1.0" stroke="#000000" stroke-width="0.0" stroke-opacity="1.0" stroke-linecap="round" stroke-linejoin="round"  filling="0" d="M208.0635 198.3438 C208.7960 198.6407 209.1398 199.0415 209.5170 199.7135 C211.3412 202.9620 212.6147 206.7617 214.0745 210.2065 C216.4015 215.6978 218.8645 221.2015 221.3870 226.6048 C226.1300 236.7640 236.8810 253.5275 244.9315 261.2475 C258.4375 274.2025 285.1925 286.8275 302.8050 293.2150 C303.2125 294.0725 303.6150 294.8200 303.6850 295.7800 C303.6000 295.9825 303.5900 296.2375 303.4300 296.3875 C302.7850 296.9850 292.6325 299.7600 291.1125 300.2375 C277.7950 304.4375 259.6000 311.1475 248.4110 319.2975 C246.6975 320.5450 245.1525 322.0625 243.6118 323.5125 C238.3580 328.4650 231.9920 335.9300 228.2390 342.1550 C222.9585 350.9150 219.2620 361.1800 215.8230 370.7975 C214.7490 373.8025 213.6573 376.8025 212.7350 379.8575 C211.8188 382.8925 211.1378 386.2775 209.7693 389.1350 C209.4070 389.8925 209.0920 390.3800 208.3732 390.8475 C207.5850 390.9450 207.5820 390.8750 206.9035 390.4375 C204.8035 387.6550 201.9527 378.4300 200.4595 374.7275 C197.2690 366.8150 193.9115 358.6050 189.9597 351.0550 C184.9155 341.4200 179.3562 331.4550 171.7845 323.5550 C160.2090 311.4775 141.2442 304.6500 125.5533 299.7750 C121.5945 298.5450 117.4822 297.7900 113.5515 296.5300 C112.3725 296.1525 111.1053 295.7775 110.5153 294.6275 C112.6422 292.8475 120.7678 290.2525 123.8175 288.9275 C140.0525 281.8850 162.0500 271.8125 174.3752 259.0875 C182.9212 250.2675 190.8808 236.0497 195.9108 224.8918 C198.0797 219.9655 200.1998 215.0180 202.2705 210.0497 C203.5110 206.9925 204.5392 203.6732 206.1520 200.7932 C206.6803 199.8497 207.3065 199.1102 208.0635 198.3438 Z M207.8663 365.5375 C210.2798 361.2800 211.6720 356.2600 213.6232 351.7675 C215.0500 348.4800 216.7485 345.2750 218.3520 342.0700 C225.2318 328.3225 231.2785 320.5350 243.8970 311.4975 C250.0100 307.1175 256.9100 303.7925 263.7100 300.6275 C266.5625 299.3000 275.9725 296.5700 277.7325 294.8600 C278.1500 294.4525 278.2925 294.2075 278.3400 293.6150 C276.5725 291.2425 263.5125 285.3650 259.7475 283.1100 C255.5875 280.5750 251.5175 277.8900 247.5508 275.0600 C242.1293 271.1875 237.0302 266.0375 232.6185 261.0475 C225.2843 252.7500 219.3020 242.8138 214.3685 232.9365 C213.3695 230.9360 209.9243 222.2930 208.6770 221.4727 C207.4665 222.2250 206.8242 222.7455 206.1175 223.9870 C204.4527 226.9128 203.5098 230.2507 202.0075 233.2778 C196.3503 244.6765 189.6048 256.3750 180.7740 265.6300 C175.3750 271.2900 166.9665 277.0450 160.2565 281.0825 C155.7433 283.7975 151.0640 286.1025 146.3415 288.4200 C143.8172 289.6600 141.1057 290.8200 138.7305 292.3175 C138.3540 292.5550 138.1215 292.8325 137.8555 293.1825 L137.7578 293.7200 C139.1682 295.2375 142.9373 296.0975 144.9210 296.8750 C150.5047 299.1125 155.9455 301.6900 161.2122 304.5950 C168.5255 308.6525 174.5128 313.6075 180.2522 319.6725 C188.3615 328.2425 195.5675 341.3700 200.5668 352.0750 C202.3675 355.9300 203.8188 360.1975 205.8805 363.9000 C206.3910 364.8150 206.9015 365.1575 207.8663 365.5375 Z"></path>
</svg>