<svg xmlns="http://www.w3.org/2000/svg" viewBox="0 0 512 512" height="512.0px" width="512.0px">
<path id="" fill="#607d8b" fill-opacity="1.0" stroke="#000000" stroke-width="0.0" stroke-opacity="1.0" stroke-linecap="round" stroke-linejoin="round"  filling="0" d="M128.0367 399.3750 C132.3695 398.8950 136.9247 399.1825 141.2635 399.4975 C161.3790 400.9600 181.3208 407.6800 197.2267 420.2550 C202.5330 424.4500 211.8580 433.1150 214.4877 439.2800 C214.9410 440.3425 215.0800 441.4125 215.1355 442.5600 C215.4247 448.5500 214.5013 454.7850 215.2587 460.7250 L215.3050 461.0650 C206.1272 460.5200 196.7973 460.8475 187.6003 460.8450 L138.8833 460.8425 L79.9985 460.8400 L61.9470 460.8325 C58.3095 460.8300 54.5643 460.6325 50.9490 461.0475 C51.0650 456.5500 50.2660 442.3300 51.6673 439.2200 C53.1500 435.9275 56.4973 432.4950 58.8500 429.7375 C63.2120 424.6225 68.4490 420.3750 74.0058 416.6300 C90.7885 405.3225 108.1140 400.9825 128.0367 399.3750 Z"></path>
<path id="" fill="#607d8b" fill-opacity="1.0" stroke="#000000" stroke-width="0.0" stroke-opacity="1.0" stroke-linecap="round" stroke-linejoin="round"  filling="0" d="M377.6675 399.1175 C403.3500 398.6800 428.3025 407.6650 447.8100 424.3750 C450.9750 427.1075 453.9275 430.3150 456.4900 433.6125 C458.0450 435.6125 459.8975 437.8825 460.6925 440.3275 C461.7975 443.7250 460.8150 456.3375 461.1575 461.0550 C451.1700 460.6025 441.0900 460.8425 431.0950 460.8400 L380.6250 460.8450 L324.9525 460.8525 C315.9600 460.8525 305.7450 460.3700 296.9350 460.9400 C297.0800 456.3625 296.1800 442.6600 297.5475 439.2300 C298.8025 436.0800 301.7025 432.9000 303.9800 430.4425 C323.8575 409.0175 348.9625 400.1150 377.6675 399.1175 Z"></path>
<path id="" fill="#1565c0" fill-opacity="1.0" stroke="#000000" stroke-width="0.0" stroke-opacity="1.0" stroke-linecap="round" stroke-linejoin="round"  filling="0" d="M265.9100 82.1045 C268.8100 81.8070 271.8850 81.9790 274.8025 81.9810 L289.9650 81.9973 L338.5150 82.0015 L395.7850 81.9872 L412.1000 81.9843 C417.0075 81.9847 421.9500 81.8590 426.8150 82.6118 C436.8275 84.1608 446.7475 90.0143 452.6850 98.2422 C457.1150 104.3815 459.7550 111.1125 460.6400 118.6462 C461.2575 123.9030 461.0200 129.3235 461.0200 134.6105 L461.0050 159.7552 L461.0050 242.9430 L461.0075 279.5075 C461.0075 283.0975 461.4675 291.3550 460.8875 294.4125 C460.7750 295.0150 460.8075 295.1025 460.2800 295.4525 C457.2950 294.7075 442.9050 279.3350 439.7500 276.1675 L399.2675 235.6645 C395.7750 235.3785 392.0925 235.6735 388.5725 235.6740 L365.3550 235.6888 L295.2075 235.7032 L277.2675 235.7188 C270.9950 235.7125 264.4200 235.8242 258.2400 234.6520 C251.3825 233.3765 244.9742 230.3378 239.6463 225.8347 C232.0332 219.5975 227.2487 210.5605 226.3705 200.7580 C225.8893 195.2953 226.1205 189.6690 226.1200 184.1853 L226.1150 156.6628 L226.1212 132.1953 C226.1283 126.4455 225.7507 120.3790 226.8297 114.7177 C228.0703 108.4165 230.8855 102.5315 235.0130 97.6110 C242.8785 88.2775 253.8350 83.1900 265.9100 82.1045 Z"></path>
<path id="" fill="#ffa726" fill-opacity="1.0" stroke="#000000" stroke-width="0.0" stroke-opacity="1.0" stroke-linecap="round" stroke-linejoin="round"  filling="0" d="M374.5850 276.6175 C402.7750 274.2150 427.5800 295.1075 430.0050 323.2950 C432.4275 351.4850 411.5550 376.3050 383.3675 378.7500 C355.1525 381.2000 330.2975 360.2975 327.8725 332.0800 C325.4450 303.8625 346.3650 279.0225 374.5850 276.6175 Z"></path>
<path id="" fill="#ffa726" fill-opacity="1.0" stroke="#000000" stroke-width="0.0" stroke-opacity="1.0" stroke-linecap="round" stroke-linejoin="round"  filling="0" d="M129.3395 276.5625 C157.6283 274.4525 182.2475 295.7275 184.2632 324.0225 C186.2793 352.3175 164.9243 376.8675 136.6223 378.7900 C108.4512 380.7050 84.0397 359.4700 82.0332 331.3050 C80.0267 303.1400 101.1815 278.6600 129.3395 276.5625 Z"></path>
<path id="" fill="#2095f2" fill-opacity="1.0" stroke="#000000" stroke-width="0.0" stroke-opacity="1.0" stroke-linecap="round" stroke-linejoin="round"  filling="0" d="M89.9077 51.1057 C90.8160 51.0708 91.7245 51.0445 92.6332 51.0273 C104.3378 50.8400 116.0757 51.0280 127.7838 51.0273 L198.8315 51.0228 L230.8775 51.0180 C238.2845 51.0083 246.2012 50.4775 253.5100 51.8203 C261.1400 53.2223 268.6725 57.1500 274.2150 62.5623 C282.7975 70.9395 286.9550 81.6673 287.0475 93.5820 L287.0350 134.9645 L287.0450 152.3920 C287.0475 159.6638 287.2750 166.7675 285.5150 173.9003 C283.8150 180.7923 279.9675 187.6720 274.9475 192.7010 C269.2600 198.4017 262.3150 202.0835 254.4950 203.9065 C245.8170 205.9300 235.2970 205.0085 226.3362 204.9855 L189.3750 204.9747 L112.6780 204.9987 C107.4995 209.6775 102.6760 214.9355 97.7365 219.8768 L68.5583 249.0668 C64.1660 253.4600 59.8763 258.2275 55.2160 262.3250 C54.4350 263.0100 52.7007 264.5275 51.6725 264.5400 C51.2458 264.0100 51.1942 263.3650 51.1458 262.7050 C50.8548 258.7500 51.0412 254.6325 51.0410 250.6650 L51.0412 229.1322 L51.0468 160.7388 L51.0367 112.4995 C51.0312 104.5295 50.4205 93.4920 51.5180 85.9290 C52.5525 78.8002 55.6427 71.7270 60.3090 66.2298 C68.0908 57.0623 77.9388 52.0602 89.9077 51.1057 Z"></path>
</svg>