<svg xmlns="http://www.w3.org/2000/svg" viewBox="0 0 512 512" height="512.0px" width="512.0px">
<path id="" fill="#00a344" fill-opacity="1.0" stroke="#000000" stroke-width="0.0" stroke-opacity="1.0" stroke-linecap="round" stroke-linejoin="round"  filling="0" d="M251.2375 147.8383 C321.4775 144.8250 380.8625 199.3255 383.8725 269.5675 C386.8825 339.8075 332.3800 399.1900 262.1375 402.1975 C191.9012 405.2025 132.5245 350.7050 129.5143 280.4675 C126.5042 210.2307 181.0005 150.8515 251.2375 147.8383 Z M260.3675 363.0475 C308.9125 361.0525 346.6725 320.1275 344.7650 271.5825 C342.8575 223.0347 302.0050 185.1987 253.4525 187.0165 C204.7770 188.8387 166.8208 229.8230 168.7328 278.4975 C170.6447 327.1700 211.6987 365.0500 260.3675 363.0475 Z"></path>
<path id="" fill="#00c753" fill-opacity="1.0" stroke="#000000" stroke-width="0.0" stroke-opacity="1.0" stroke-linecap="round" stroke-linejoin="round"  filling="0" d="M262.4950 240.9540 C262.7525 240.7820 262.9400 240.6455 263.2425 240.5652 C265.1250 240.0675 267.4100 240.0625 269.3600 239.7982 C273.0050 239.3040 276.7925 238.5045 280.3225 237.4608 C302.4850 230.7965 321.1625 215.7355 332.3750 195.4915 C334.8525 190.9935 337.5200 185.5437 338.5050 180.4850 C339.3575 176.1045 340.4850 171.7900 341.0100 167.3537 C343.4425 146.8587 338.7800 126.5875 327.1400 109.4935 C316.7925 94.2985 302.0425 83.5352 284.8775 77.2990 C282.2025 76.3278 275.2250 75.1730 273.3750 73.7855 C271.7975 72.6015 272.1150 68.9820 272.3875 67.2502 C272.4925 66.5745 272.6650 66.3073 273.1675 65.8645 C275.6575 65.4693 278.6425 66.2702 281.1125 66.7393 C297.5250 69.8597 313.7925 77.6657 327.2925 87.3960 C351.7050 105.2900 368.0850 132.0825 372.8825 161.9688 C375.0825 175.8027 374.7625 193.6523 371.2400 207.2205 C370.6175 209.6158 368.0725 215.4525 370.4350 217.1800 C372.0900 218.3910 379.8750 219.7598 382.4925 220.5883 C386.0125 221.6962 389.4725 222.9877 392.8575 224.4572 C406.0000 230.2242 419.1100 238.7072 429.2775 248.9207 C443.8925 263.8375 454.0200 282.5600 458.5075 302.9550 C462.7175 322.3850 461.4525 342.6025 454.8525 361.3575 C453.6675 364.7450 452.4500 368.7225 450.5500 371.7675 C450.1750 372.3700 449.7975 372.7800 449.2250 373.1925 C448.0925 373.4075 446.8450 372.8150 445.8950 372.1725 C444.9125 371.5075 444.2450 370.5900 444.0175 369.4175 C443.4325 366.3925 445.6475 360.6425 446.2800 357.3725 C446.7750 354.8300 447.1450 352.2675 447.3875 349.6900 C450.1850 320.1625 437.0300 291.3800 412.8725 274.1700 C400.7850 265.3075 386.6325 259.6850 371.7575 257.8375 C369.0800 257.4875 366.3925 257.0900 363.6875 257.0975 C358.9125 257.1075 353.9075 258.0050 349.1875 258.7750 C331.3325 261.6875 314.7500 270.7300 302.0050 283.4300 C298.1675 287.2550 295.0650 291.7675 291.1325 295.4600 C289.1350 294.2825 278.0950 288.5250 277.5400 286.6800 C277.0225 284.9600 277.6525 282.2925 277.8425 280.5075 C278.0975 278.1075 278.3525 275.3375 277.9400 272.9450 C277.1075 268.1175 272.9600 263.0425 268.8175 260.6025 C266.8225 259.4275 262.3150 258.3700 261.6200 256.1225 C261.4975 255.7225 261.4925 255.2700 261.5300 254.8600 C261.3500 251.9850 260.8425 244.4450 261.6000 241.9325 C261.7950 241.2852 261.9350 241.2652 262.4950 240.9540 Z"></path>
<path id="" fill="#00c753" fill-opacity="1.0" stroke="#000000" stroke-width="0.0" stroke-opacity="1.0" stroke-linecap="round" stroke-linejoin="round"  filling="0" d="M274.5100 295.9925 C277.6550 296.2200 286.6950 302.2500 289.3275 304.5100 C288.7575 308.2525 286.6425 311.8125 285.3325 315.3500 C278.0025 335.1525 279.4800 359.5075 288.4200 378.5450 C297.2350 397.3175 316.9625 413.8275 336.4075 420.7375 C362.5550 430.0350 393.2750 425.5975 416.0775 409.9450 C418.3925 408.3575 420.7625 406.6050 422.8475 404.7275 C425.7275 402.1350 428.2400 398.3900 431.7950 396.7475 C431.8875 396.7025 431.9800 396.6625 432.0750 396.6225 C433.5425 397.5200 434.9050 398.5900 436.0350 399.8950 C436.5475 400.4875 437.2950 401.5875 437.1275 402.4150 C436.4575 405.7125 421.6600 418.6550 418.0575 421.3725 C396.8800 437.4800 370.9800 446.1525 344.3725 446.0475 C339.0925 446.0525 333.8425 445.8975 328.6075 445.1575 C305.2675 441.8650 281.5825 431.4925 264.4125 415.2025 C261.7250 412.6525 258.9150 409.9875 256.6825 407.0275 C253.2800 411.6125 249.1945 415.0375 244.9035 418.7225 C235.5818 426.9075 222.7050 434.0350 211.1613 438.4350 C181.4845 449.8575 148.4895 449.0475 119.4092 436.1825 C105.2165 429.7850 93.8760 421.5400 82.9540 410.5150 C80.9612 408.5025 78.0305 406.0700 77.0908 403.3675 C76.7595 402.4125 76.6462 401.3100 77.1420 400.3900 C77.6780 399.3950 78.7718 398.8650 79.8033 398.5325 C80.9163 398.1750 81.7220 397.9100 82.7742 398.5350 C85.6127 400.2175 87.8625 403.4950 90.3130 405.7275 C95.2412 410.2175 101.2125 414.2650 107.1235 417.3425 C127.4105 427.9975 151.1013 430.1500 172.9770 423.3275 C193.6848 416.7425 213.3793 400.5850 223.3277 381.2175 C231.8602 364.6050 234.6367 342.1150 230.1353 323.9225 C229.4828 321.2875 228.8135 318.5225 227.8435 315.9850 C226.7470 313.1150 225.2527 310.2850 224.3967 307.3400 C224.1875 306.6200 224.0900 306.0150 224.4778 305.3425 C225.7595 303.1150 236.0955 297.6600 238.8423 296.8050 C242.1095 298.1050 244.8347 300.5925 248.1015 301.8600 C249.8672 302.5450 252.2725 302.2250 254.1525 302.2425 C259.8825 302.2975 263.6950 301.8425 268.7925 299.0500 C270.6050 298.0575 272.3325 296.8875 274.2450 296.0975 C274.3350 296.0600 274.4225 296.0275 274.5100 295.9925 Z"></path>
<path id="" fill="#00c753" fill-opacity="1.0" stroke="#000000" stroke-width="0.0" stroke-opacity="1.0" stroke-linecap="round" stroke-linejoin="round"  filling="0" d="M236.9622 65.8430 L239.0287 65.9155 C239.1020 68.8372 239.2708 71.8100 239.0140 74.7238 C233.7558 76.2190 228.4790 77.5690 223.3895 79.5912 C208.0030 85.7047 194.5567 96.8362 184.9400 110.2148 C172.4035 127.9117 167.3710 149.8470 170.9393 171.2388 C173.2543 184.9430 178.4178 198.6198 187.4323 209.3840 C190.2617 212.7625 193.7527 215.8440 196.9965 218.8273 C207.3223 228.3233 218.8395 234.9812 232.3788 238.7888 C234.3290 239.3372 236.3033 239.8470 238.2932 240.2275 C240.7470 240.6962 247.6730 241.0160 249.3205 242.3860 C250.6200 243.4668 250.0375 255.8900 249.9863 258.2475 C248.0055 259.2150 245.9187 259.9650 243.9523 260.9700 C241.5802 262.1800 239.5717 263.8575 237.6582 265.6900 C231.8495 271.2600 231.7267 274.7750 232.9312 282.5175 C233.1413 283.8675 233.9738 285.2475 233.5378 286.6025 C231.5365 288.9600 222.3795 294.0450 219.1735 295.1750 L218.9142 294.9400 C216.2490 292.5475 214.2775 289.3725 211.9913 286.6250 C209.4093 283.5225 206.2513 280.5975 203.1685 277.9900 C185.3305 263.1275 162.2705 256.0525 139.1662 258.3500 C136.3375 258.6175 133.5087 259.3225 130.7280 259.8925 C114.6013 263.1975 99.0938 270.9250 87.1880 282.4125 C84.5652 284.9450 82.2628 287.7125 79.9373 290.5125 C79.0060 291.6800 78.1015 292.8675 77.2247 294.0775 C65.0845 310.8675 60.2842 332.6525 62.8148 353.0875 C63.5042 358.6550 65.3380 363.9125 66.1850 369.4125 L66.2312 369.7325 C64.6695 371.4800 62.7760 372.6425 60.6270 373.5275 C58.1152 370.8225 57.1257 367.2150 56.0590 363.7600 C52.3230 351.4950 50.6535 338.6950 51.1187 325.8825 C52.5143 283.9000 79.2175 242.9088 117.7825 225.8358 C122.1053 223.9220 126.4460 222.1450 130.9483 220.6978 C133.2242 219.9660 142.8610 217.7420 144.0440 216.6335 C144.6082 214.6842 143.2368 211.4380 142.7957 209.4888 C141.3737 203.2045 140.1955 196.8885 139.6200 190.4642 C136.8902 159.4538 146.7310 128.6460 166.9323 104.9603 C180.7675 88.7305 198.7890 76.6065 219.0355 69.9070 C224.8642 67.9648 230.8273 66.3885 236.9622 65.8430 Z"></path>
</svg>