<svg xmlns="http://www.w3.org/2000/svg" viewBox="0 0 512 512" height="512.0px" width="512.0px">
<path id="" fill="#ff5722" fill-opacity="1.0" stroke="#000000" stroke-width="0.0" stroke-opacity="1.0" stroke-linecap="round" stroke-linejoin="round"  filling="0" d="M75.7350 231.8817 C93.0595 232.0717 110.3855 232.1297 127.7110 232.0560 L211.8360 232.0520 L412.4575 231.9852 C411.7275 239.3075 413.9925 249.0963 411.7600 256.0550 C409.1425 264.2025 390.3675 274.6300 382.6325 278.7150 C353.3925 294.6025 319.2500 303.4450 286.2725 306.8950 C266.1350 309.0250 245.8745 309.7175 225.6402 308.9725 C181.9195 306.9700 130.6255 296.0150 93.3863 272.4775 C88.6953 269.5125 83.9088 266.3925 79.6202 262.8600 C78.4365 261.8850 77.1848 260.7125 76.6330 259.2500 C74.7053 254.1400 76.3305 238.4540 75.7350 231.8817 Z"></path>
<path id="" fill="#fe5722" fill-opacity="1.0" stroke="#000000" stroke-width="0.0" stroke-opacity="1.0" stroke-linecap="round" stroke-linejoin="round"  filling="0" d="M235.9145 61.8985 C244.6020 61.0980 253.2575 62.5237 261.9150 62.6910 C263.7775 62.7270 265.6550 62.5120 267.5150 62.4075 C277.9100 61.8225 282.1100 63.5195 291.7525 66.0585 C317.1750 72.7525 342.4300 83.9832 362.1050 101.7665 C368.2000 107.2747 374.5200 113.3850 379.7475 119.7225 C397.4850 141.2285 409.8150 169.3420 412.4950 197.1487 C413.6200 208.8220 412.5675 220.6005 413.1300 232.2953 C406.1125 232.0538 399.0600 232.1732 392.0400 232.1720 L357.6350 232.1698 L252.8750 232.1752 L141.8960 232.1738 C119.8140 232.0665 97.7312 232.1293 75.6503 232.3622 C75.7848 225.4427 75.6072 218.6853 76.2225 211.7630 C79.1783 178.2255 92.2130 146.3672 113.6137 120.3767 C117.0007 116.2722 120.9160 112.5027 124.5748 108.6345 C142.0033 90.2085 169.0210 75.0788 193.3475 68.1852 C207.2290 64.3710 221.5230 62.2600 235.9145 61.8985 Z"></path>
<path id="" fill="#ffb64c" fill-opacity="1.0" stroke="#000000" stroke-width="0.0" stroke-opacity="1.0" stroke-linecap="round" stroke-linejoin="round"  filling="0" d="M75.7425 259.7150 C76.2410 259.7725 76.7003 259.8750 77.1380 260.1275 C79.2430 261.3450 81.1815 263.2750 83.1078 264.7750 C85.6403 266.7500 88.3152 268.5575 91.0040 270.3100 C95.9315 273.5375 101.0335 276.4925 106.2867 279.1575 C110.5810 281.3250 114.8773 283.6025 119.2905 285.5125 C151.1837 299.3125 186.3810 305.9625 220.9340 308.1250 C224.5585 308.3500 228.1732 308.8550 231.8027 308.9550 C238.8947 309.1550 246.2400 309.2250 253.3250 308.9150 C256.2475 308.7875 259.1500 308.3525 262.0700 308.1775 C265.1075 307.9975 268.1625 308.0600 271.2025 307.8825 C275.2950 307.6425 279.4450 307.1675 283.5300 306.7825 C316.1950 303.6950 349.2800 295.2850 378.6875 280.6125 C381.5450 279.1850 384.1175 277.2500 386.9200 275.7225 C388.8275 274.6825 390.8150 273.7775 392.6775 272.6525 C395.1300 271.1675 397.3725 269.2650 399.6725 267.5600 C402.4825 265.4800 405.6550 263.7450 407.9025 261.0300 C411.2700 265.9050 414.3375 271.6275 415.4675 277.4925 C417.7675 289.4225 414.8600 299.8150 408.2400 309.7125 C405.8775 312.7500 403.3675 315.0275 400.2200 317.2300 C388.2225 325.6275 374.3800 331.6125 360.6575 336.5450 C329.2700 347.8275 299.0500 353.1325 265.8375 355.2400 C252.9275 356.1525 239.9755 356.3850 227.0392 355.9350 C223.9783 355.8250 220.9290 355.4825 217.8752 355.2575 C202.5712 354.1400 188.6125 352.3600 173.4698 349.6800 C148.6812 345.2925 127.3610 339.1125 104.3992 328.8475 C92.7210 323.6300 79.7905 317.4550 72.3333 306.6975 C66.6260 298.4625 64.7353 288.0575 66.5703 278.2475 C67.5735 272.8825 71.0870 262.8775 75.7425 259.7150 Z"></path>
<path id="" fill="#ffb64c" fill-opacity="1.0" stroke="#000000" stroke-width="0.0" stroke-opacity="1.0" stroke-linecap="round" stroke-linejoin="round"  filling="0" d="M299.7675 150.7218 C301.1700 151.2932 302.6575 153.0372 303.6975 154.1240 C305.7675 156.2883 307.6025 158.6687 309.6050 160.8927 L320.1625 172.4055 L352.8525 208.1693 C354.8850 210.4105 357.1450 212.4450 359.2025 214.6650 C361.1325 216.7487 362.8575 219.0185 364.7875 221.1010 C366.5875 223.0388 368.5150 224.8542 370.3175 226.7885 C372.0750 228.6745 373.6400 230.7287 375.3700 232.6395 C377.1325 234.5875 379.0500 236.3945 380.8150 238.3395 C383.2775 241.0515 385.6150 243.9003 387.9950 246.6862 C388.3575 251.2650 388.0625 256.0550 388.0525 260.6525 C388.0425 265.6700 388.2700 270.7500 388.0525 275.7600 C386.4250 277.2125 384.4700 278.3925 382.6250 279.5550 C374.7375 284.5325 364.9225 288.1150 356.1700 291.3350 C353.4850 292.3225 351.0500 293.9575 348.3325 294.8500 C345.1475 295.8950 341.8125 296.4950 338.5850 297.3875 C335.7175 298.1825 332.9200 299.2225 330.0425 299.9850 C327.0200 300.7850 323.9200 301.2600 320.8850 302.0075 C318.6850 302.5500 316.5250 303.2650 314.3050 303.7150 C311.9550 304.1925 309.5400 304.3375 307.1750 304.7150 C303.9525 305.2300 300.7900 306.0875 297.5675 306.6025 C293.5250 307.2500 289.3750 307.4400 285.3050 307.9450 C279.6475 308.6450 273.9050 309.6250 268.2150 309.9575 C258.8925 310.5050 248.0618 310.0675 238.5865 310.0700 C230.8542 310.0700 222.3535 310.5600 214.7075 309.8700 C208.3225 309.2950 201.8580 307.7875 195.4998 306.8475 C189.9173 306.0225 184.5170 305.6675 178.9848 304.4075 C168.8783 302.1825 158.5520 300.6225 148.6102 297.6725 C144.2980 296.3925 140.0890 294.7400 135.8400 293.2675 C132.9520 292.2650 129.9628 291.4850 127.1165 290.3750 C123.2467 288.8675 119.5407 287.1425 115.5950 285.7950 C115.4153 286.8675 115.1500 287.8950 114.8622 288.9425 C112.0650 291.5675 109.7613 292.1275 106.0355 292.3100 C105.7572 289.8450 105.8188 287.5250 106.0898 285.0625 C107.2735 284.7400 108.4770 284.4700 109.6690 284.1775 C105.6113 279.5975 99.0067 277.6475 93.8820 274.4325 C95.9865 266.6250 94.7550 254.5875 94.9930 246.1340 C97.3242 244.6452 100.0720 243.7320 102.5815 242.5770 L117.1568 235.9025 L162.3440 214.7948 L267.1600 165.7835 C278.0575 160.8188 288.7150 155.3440 299.7675 150.7218 Z"></path>
<path id="" fill="#feb74d" fill-opacity="1.0" stroke="#000000" stroke-width="0.0" stroke-opacity="1.0" stroke-linecap="round" stroke-linejoin="round"  filling="0" d="M353.2650 323.9200 C357.6925 323.8050 362.2650 323.7850 366.6850 324.0575 C368.7825 326.6500 369.9850 329.0775 370.5950 332.3550 C372.7150 331.5800 386.0250 325.5750 386.8450 325.7150 C387.5125 328.4500 386.6500 332.2625 386.2700 335.0750 C381.9675 366.9150 367.2775 395.2650 344.6550 417.9425 C340.4775 422.1300 336.4475 426.1750 331.7300 429.7625 C323.4425 436.0650 314.5175 441.8500 305.1525 446.4225 C284.2675 456.6200 259.5700 461.8300 236.3607 460.9300 C230.7855 460.7150 225.1880 459.9475 219.6625 459.1825 C186.7112 454.4700 156.4305 438.4275 134.0222 413.8125 C131.2003 410.7450 128.3362 407.6925 125.8152 404.3725 C121.2647 398.1900 117.0608 391.7575 113.2227 385.1100 C104.8640 370.3700 98.3170 350.4350 96.4303 333.6375 C96.1610 331.2425 95.5340 328.2400 96.1797 325.9050 C97.1550 325.4250 98.7223 326.0175 99.7412 326.3350 C102.3163 327.1350 104.5660 328.5650 106.9970 329.6900 C108.7895 330.5200 110.7258 331.0000 112.5527 331.7475 C114.7347 332.6425 116.8118 333.7900 118.9948 334.6850 C132.9740 340.4300 146.7767 343.7550 161.4555 346.9650 C164.5365 347.6400 168.1808 348.8700 171.3333 348.8600 C173.5810 348.8525 175.8013 347.1500 177.9037 346.4325 C179.6960 345.8200 181.9230 345.6625 183.8135 345.6225 C184.9925 345.5975 186.2733 345.8425 187.1102 346.7425 C188.4765 348.2125 188.2390 350.2625 188.2440 352.1175 C191.1055 351.9700 193.6427 351.5550 196.3975 350.7500 L196.4965 350.9200 C196.5520 351.0125 196.6102 351.1075 196.6645 351.2025 C197.0627 351.9000 197.3560 352.4450 198.0570 352.8875 C200.1440 354.2050 203.9738 354.4725 206.3185 353.7850 C209.2182 352.9350 209.3257 348.9825 210.5710 346.5550 C213.8418 347.2425 216.7025 348.8400 220.0535 349.2600 C220.0623 350.2125 220.0493 351.1800 220.1215 352.1275 C220.1893 353.0125 220.3743 354.0775 221.1550 354.6300 C225.4750 357.6775 233.3615 355.2300 238.2240 355.1525 C241.3140 355.1025 244.4348 355.8175 247.5320 355.9375 C250.8575 356.0675 254.3075 356.0925 257.6150 355.7425 C259.7575 355.5150 261.8625 355.0650 264.0075 354.8400 C263.9275 353.1975 263.9675 351.5375 263.9650 349.8925 C265.5825 349.7950 267.1225 349.8525 268.7375 349.9825 C269.1450 351.7725 269.8175 353.4750 270.4525 355.1925 C276.6525 354.1900 282.8700 353.7625 289.0975 353.0075 C292.1250 352.6425 295.2875 351.6650 298.3325 351.9150 C298.4275 351.9250 298.5200 351.9350 298.6150 351.9425 L298.9825 351.6225 C299.0275 350.9825 299.0025 350.5650 298.8100 349.9525 C297.4025 348.4775 295.0875 349.6300 293.3425 349.0250 C292.7650 348.8250 292.6950 348.5625 292.4700 348.0575 C292.4625 346.5825 293.3175 344.8900 294.0875 343.6675 C294.1425 343.5800 294.2000 343.4950 294.2550 343.4075 C296.8925 342.0650 300.0350 341.6375 302.9500 341.9125 C303.1575 343.2925 303.2175 344.6750 303.2875 346.0675 C304.7650 346.0450 306.2500 346.0500 307.7075 345.7850 C310.5100 345.2725 313.8400 343.7375 316.6850 344.0575 C319.0175 344.3200 320.5275 346.3875 322.7625 346.7375 C325.2025 347.1200 329.4050 346.3425 331.4175 344.9300 C332.0425 344.0275 332.0725 342.8125 332.2250 341.7475 C334.4650 341.9400 336.6700 342.6125 338.9150 342.6600 C342.6050 342.7400 351.8600 339.4550 355.5800 338.1550 C354.2175 336.8250 352.4725 335.4000 351.4850 333.7750 C349.8725 331.1200 352.4675 327.0925 353.1650 324.3275 L353.2650 323.9200 Z M215.0625 354.8800 L215.6487 354.8700 C216.0547 354.3850 216.1082 353.6300 216.0567 353.0150 C215.9948 352.2700 215.7003 351.8475 215.2812 351.2675 C214.6390 350.9325 213.9967 351.0525 213.2997 351.1000 C212.8520 351.2450 212.6022 351.1875 212.3790 351.6325 C211.9620 352.4650 211.7897 353.1075 212.0307 354.0275 C212.4355 354.5100 212.6438 354.9150 213.3203 355.0075 C213.8405 355.0775 214.5347 354.9350 215.0625 354.8800 Z"></path>
<path id="" fill="#757575" fill-opacity="1.0" stroke="#000000" stroke-width="0.0" stroke-opacity="1.0" stroke-linecap="round" stroke-linejoin="round"  filling="0" d="M280.5125 61.3715 C281.1300 58.9635 283.0650 55.8700 285.1950 54.5920 C288.4250 52.6512 296.4850 55.0612 299.8925 56.0247 C343.2050 68.2708 376.4050 93.6118 398.2675 133.1068 C408.2975 151.2283 414.8075 172.3978 416.5050 193.0522 C417.7300 207.9425 417.0950 223.1718 417.0850 238.1135 C417.0750 255.1450 417.3975 272.2600 416.9950 289.2850 C420.4725 289.2500 424.2375 289.4900 427.6800 289.0525 C433.3000 288.3400 438.3750 284.5575 443.9050 290.2150 C444.6875 291.0150 445.5500 292.0075 445.8100 293.1250 C446.5950 296.4725 446.2400 310.4250 446.0975 314.6550 C446.0050 317.4075 445.6025 319.3475 443.4725 321.3100 C441.3250 323.2750 438.4575 324.2600 435.5550 324.0275 C432.8625 323.8350 430.0425 322.4900 428.3100 320.3950 C425.9450 317.5350 426.3050 313.0775 426.6875 309.6150 C426.7175 309.3400 426.7600 309.0650 426.8000 308.7925 C421.3875 308.7900 415.9725 308.8150 410.5600 308.8725 C407.3100 308.9225 403.8075 309.2725 400.5900 308.9000 C399.7325 308.8000 398.9125 308.6300 398.2700 308.0125 C397.8000 307.5625 397.5250 306.9950 397.3975 306.3600 C396.7725 303.2475 397.0100 299.8125 397.0350 296.6475 C397.0900 289.0300 397.6825 280.1300 396.8725 272.6175 C396.7525 271.5025 396.4150 270.4300 396.0825 269.3650 C397.8850 263.8500 397.0850 248.5690 397.0825 242.2038 L397.0775 218.0457 C397.0900 207.8972 397.0825 197.8002 395.7300 187.7142 C395.3400 184.8025 394.5975 181.8760 393.9600 179.0087 C391.3350 167.1888 387.5250 155.9948 382.0250 145.1817 C380.6425 142.4620 378.9300 139.8783 377.3375 137.2750 C365.9925 118.7200 349.5650 101.8040 330.8325 90.5683 C327.5525 88.6015 323.9975 86.9673 320.5800 85.2533 C314.7375 82.3257 308.8750 79.6172 302.6375 77.6220 C297.8375 76.0862 283.6175 73.6768 281.6325 69.7477 C280.9800 68.4560 280.7825 66.8615 279.2850 66.2112 C278.1700 65.7270 276.7825 65.5825 275.6075 65.1920 C274.3350 65.0990 272.2775 65.4890 271.2750 64.6797 C271.5250 63.6615 273.0300 62.7787 273.8450 62.1570 C275.9875 62.0277 278.5725 62.3960 280.5125 61.3715 Z"></path>
<path id="" fill="rgb(210,209,210)" fill-opacity="1.0" stroke="#000000" stroke-width="0.0" stroke-opacity="1.0" stroke-linecap="round" stroke-linejoin="round"  filling="0" d="M280.5125 61.3715 C280.7675 62.1800 280.9350 64.3940 280.6200 65.1415 C279.2100 66.0510 277.2600 65.0818 275.6075 65.1920 C274.3350 65.0990 272.2775 65.4890 271.2750 64.6797 C271.5250 63.6615 273.0300 62.7787 273.8450 62.1570 C275.9875 62.0277 278.5725 62.3960 280.5125 61.3715 Z"></path>
<path id="" fill="#757575" fill-opacity="1.0" stroke="#000000" stroke-width="0.0" stroke-opacity="1.0" stroke-linecap="round" stroke-linejoin="round"  filling="0" d="M416.5700 324.7050 L416.6550 324.4450 C418.1325 323.7525 422.7000 324.3275 424.5875 324.3050 C428.9550 324.2525 432.2125 323.3375 436.3125 321.9950 C436.4025 322.7875 436.3175 323.3600 436.8625 323.9575 C437.4175 324.0400 437.9550 324.1000 438.5150 324.1275 C438.0650 324.2275 437.2375 324.2650 436.9575 324.6425 C436.5575 325.1800 436.4800 325.8750 436.4075 326.5250 C436.2000 328.3575 436.4125 330.2150 436.2700 332.0525 C436.0000 335.5300 435.4000 339.0625 434.7150 342.4825 C427.9700 375.7875 402.3625 402.0650 369.2400 409.6675 C357.7700 412.3650 346.5575 412.0575 334.8625 412.0550 L306.0575 412.0525 L275.6175 412.0575 C269.9025 412.0650 264.1025 412.2750 258.3975 412.0025 C258.5550 411.6400 258.7100 411.2750 258.8600 410.9100 C261.0000 405.9050 261.4450 401.1700 259.7975 395.9575 C259.3975 394.6950 258.5900 393.4925 258.2875 392.2500 C259.1475 392.3600 260.0325 392.1675 260.8850 392.0425 C267.8800 391.6225 276.2700 392.0350 283.4125 392.0350 L330.2475 392.0275 L346.3425 392.0300 C349.8850 392.0300 353.5150 392.1650 357.0400 391.7750 C360.6475 391.3750 364.3925 390.5300 367.8975 389.5825 C377.8950 386.8800 387.3025 381.2225 394.9725 374.3125 C404.7200 365.5350 412.2575 352.5300 414.9800 339.7475 C416.0375 334.7875 416.3275 329.7575 416.5700 324.7050 Z"></path>
<path id="" fill="#37474f" fill-opacity="1.0" stroke="#000000" stroke-width="0.0" stroke-opacity="1.0" stroke-linecap="round" stroke-linejoin="round"  filling="0" d="M416.5700 324.7050 C415.8825 324.1875 414.7775 324.0650 413.9425 323.8625 C409.1950 322.7075 405.3975 321.4725 402.0900 317.6850 C399.7800 315.0625 398.2100 311.8725 397.5425 308.4425 C396.4725 303.1075 397.1225 292.3325 397.1125 286.4200 C397.1000 279.3125 396.6300 271.2025 397.1625 264.2150 C397.5675 258.9350 400.5325 254.1750 404.4950 250.7750 C410.8950 245.2872 418.8850 245.6035 426.8275 246.2507 C432.5000 246.7130 437.9350 248.5975 441.6875 253.0900 C443.8275 255.6525 445.0950 258.8550 445.7125 262.1125 C446.8075 267.8950 446.2275 274.5425 446.2300 280.4250 C446.2325 290.3850 446.5250 300.3475 445.7100 310.2800 C446.2350 313.0875 446.7425 317.3800 445.0825 319.8850 C443.6525 322.0375 440.8375 323.2025 438.5150 324.1275 C437.9550 324.1000 437.4175 324.0400 436.8625 323.9575 C436.3175 323.3600 436.4025 322.7875 436.3125 321.9950 C432.2125 323.3375 428.9550 324.2525 424.5875 324.3050 C422.7000 324.3275 418.1325 323.7525 416.6550 324.4450 L416.5700 324.7050 Z"></path>
<path id="" fill="#fefefe" fill-opacity="1.0" stroke="#000000" stroke-width="0.0" stroke-opacity="1.0" stroke-linecap="round" stroke-linejoin="round"  filling="0" d="M436.3125 321.9950 C438.6125 319.9475 441.0250 318.1750 442.8075 315.6150 C443.5850 314.4975 445.0975 310.6300 445.7100 310.2800 C446.2350 313.0875 446.7425 317.3800 445.0825 319.8850 C443.6525 322.0375 440.8375 323.2025 438.5150 324.1275 C437.9550 324.1000 437.4175 324.0400 436.8625 323.9575 C436.3175 323.3600 436.4025 322.7875 436.3125 321.9950 Z"></path>
<path id="" fill="#757575" fill-opacity="1.0" stroke="#000000" stroke-width="0.0" stroke-opacity="1.0" stroke-linecap="round" stroke-linejoin="round"  filling="0" d="M192.1550 51.0930 L192.6102 51.0643 C196.2740 50.8500 200.0358 51.0177 203.7112 51.0175 L224.4870 51.0177 C238.5315 51.0195 252.7100 50.5680 266.7325 51.1845 C270.0150 51.3290 283.4825 52.0265 285.1775 53.5482 C285.4475 55.5153 281.3100 59.4368 281.0450 62.6517 C280.7100 66.7337 283.9800 69.0577 283.9275 71.7753 C283.9200 72.1915 283.7100 72.2460 283.4300 72.5060 C281.8850 72.8575 280.2000 72.3460 278.6550 72.0835 C274.2150 71.9457 269.8600 71.0520 265.3675 71.0078 L204.9835 70.9770 C201.8143 70.9775 187.8127 71.4145 185.8445 70.8270 L186.0840 70.3665 C186.4030 70.2730 186.7100 70.1933 187.0378 70.1328 C187.1367 70.1143 187.2360 70.0983 187.3353 70.0810 C186.6990 67.8873 183.6902 68.4897 182.9890 62.1178 C182.6902 59.4033 182.9928 56.6823 184.8100 54.5228 C186.7858 52.1750 189.2312 51.3927 192.1550 51.0930 Z"></path>
<path id="" fill="#784719" fill-opacity="1.0" stroke="#000000" stroke-width="0.0" stroke-opacity="1.0" stroke-linecap="round" stroke-linejoin="round"  filling="0" d="M172.1810 265.4175 C183.1755 264.9000 192.4948 273.4200 192.9648 284.4175 C193.4348 295.4125 184.8765 304.6975 173.8780 305.1225 C162.9440 305.5425 153.7263 297.0475 153.2590 286.1150 C152.7917 275.1825 161.2507 265.9300 172.1810 265.4175 Z"></path>
<path id="" fill="#784719" fill-opacity="1.0" stroke="#000000" stroke-width="0.0" stroke-opacity="1.0" stroke-linecap="round" stroke-linejoin="round"  filling="0" d="M307.9800 265.4475 C318.8750 264.5400 328.4500 272.6200 329.3850 283.5125 C330.3175 294.4050 322.2600 304.0000 311.3700 304.9600 C300.4425 305.9250 290.8075 297.8325 289.8700 286.9025 C288.9325 275.9725 297.0475 266.3575 307.9800 265.4475 Z"></path>
<path id="" fill="#37474f" fill-opacity="1.0" stroke="#000000" stroke-width="0.0" stroke-opacity="1.0" stroke-linecap="round" stroke-linejoin="round"  filling="0" d="M258.3975 412.0025 C257.9650 413.5625 256.2525 415.4375 255.0800 416.5400 C251.0575 420.3250 245.8302 422.0750 240.3472 421.8875 C235.2038 421.7150 230.3817 419.3175 226.8880 415.5625 C223.0007 411.3825 221.7377 406.6000 221.9597 400.9825 C222.1548 396.0525 224.1520 391.0750 227.8630 387.7225 C231.5460 384.3950 237.3772 382.3425 242.3320 382.6650 C247.2930 382.9875 252.4350 385.1500 255.8500 388.8400 C256.6675 389.7225 257.2575 390.8625 258.1250 391.6875 C258.6650 392.2000 260.1650 392.0375 260.8850 392.0425 C260.0325 392.1675 259.1475 392.3600 258.2875 392.2500 C258.5900 393.4925 259.3975 394.6950 259.7975 395.9575 C261.4450 401.1700 261.0000 405.9050 258.8600 410.9100 C258.7100 411.2750 258.5550 411.6400 258.3975 412.0025 Z"></path>
</svg>