<svg xmlns="http://www.w3.org/2000/svg" viewBox="0 0 512 512" height="512.0px" width="512.0px">
<path id="" fill="#37474f" fill-opacity="1.0" stroke="#000000" stroke-width="0.0" stroke-opacity="1.0" stroke-linecap="round" stroke-linejoin="round"  filling="0" d="M139.3330 51.1062 C156.8840 50.6400 174.5645 51.0480 192.1285 51.0482 L293.2350 51.0488 L346.9475 51.0470 C356.9500 51.0460 368.1025 50.3470 377.9500 51.6613 C384.9200 52.5910 392.2475 55.4442 397.5975 60.0685 C406.2625 67.5558 411.0875 76.9080 411.9150 88.3613 C412.4700 96.0130 412.1000 103.8582 412.0975 111.5372 L412.0875 153.0302 L412.0925 283.4050 L412.0825 379.1775 L412.1000 408.2400 C412.1075 413.7825 412.4700 419.6275 411.8525 425.1250 C410.8900 433.6800 407.2675 442.1350 401.5625 448.5975 C394.4900 456.6125 383.6725 460.1975 373.2950 460.7975 C354.4425 461.0225 335.5725 460.8575 316.7200 460.8575 L211.5000 460.8550 L161.0692 460.8525 C152.5027 460.8500 142.4540 461.5275 134.1228 460.3625 C126.2140 459.3350 118.7970 455.9525 112.8365 450.6525 C104.9167 443.6675 100.6882 434.1100 100.0725 423.6275 C99.6165 415.8625 99.9662 407.8925 99.9680 400.1075 L99.9688 356.5125 L99.9665 221.3378 L99.9645 129.2090 L99.9652 101.0107 C99.9673 95.9863 99.6308 90.6680 100.1895 85.6770 C101.1855 77.4153 104.7120 69.6638 110.2858 63.4850 C117.5275 55.4297 128.7858 51.6410 139.3330 51.1062 Z M364.0475 382.6775 C366.7325 382.4025 368.9150 381.5850 370.7275 379.4575 C372.2025 377.7300 372.8150 375.6350 372.9325 373.4000 C373.2525 367.3475 372.9700 361.1475 372.9700 355.0775 L372.9750 318.9975 L372.9800 208.3750 L372.9750 128.0733 L372.9775 104.0258 C372.9850 99.0655 373.2325 93.9417 372.7450 89.0005 C372.4850 86.3525 371.4975 84.2272 369.4400 82.5027 C367.7150 81.0583 365.9650 80.6458 363.7800 80.5273 C359.2675 80.2823 354.6325 80.5522 350.1125 80.5892 L329.8775 80.5623 L258.3900 80.6020 L183.0237 80.5860 L158.9942 80.5690 C154.8800 80.5612 150.6855 80.3548 146.5802 80.5650 C143.9133 81.3077 141.3510 82.9905 140.0050 85.4807 C139.1068 87.1425 139.0497 88.9620 139.0217 90.8053 C138.9247 97.1535 139.0818 103.5155 139.0840 109.8655 L139.0830 153.2267 L139.0855 285.6225 L139.0903 344.2200 C139.0907 349.5625 138.4955 373.6600 139.6313 376.6975 C140.5355 379.1175 143.0320 381.6100 145.4320 382.4975 C147.7495 383.3525 163.3755 382.6250 167.1055 382.6200 L214.7350 382.6300 L318.5050 382.6075 C333.6650 382.6025 348.8950 382.9525 364.0475 382.6775 Z"></path>
<path id="" fill="#a1a1a1" fill-opacity="1.0" stroke="#000000" stroke-width="0.0" stroke-opacity="1.0" stroke-linecap="round" stroke-linejoin="round"  filling="0" d="M178.0128 128.9525 L256.1150 128.9870 C282.1150 128.9880 308.1400 129.2258 334.1375 128.9385 C333.9675 133.7090 334.6625 156.5025 333.9225 158.8645 L233.6302 158.9032 L196.8105 158.8983 C190.5677 158.8958 184.2077 158.5683 177.9820 158.9270 L178.0128 128.9525 Z"></path>
<path id="" fill="#a1a1a1" fill-opacity="1.0" stroke="#000000" stroke-width="0.0" stroke-opacity="1.0" stroke-linecap="round" stroke-linejoin="round"  filling="0" d="M178.1855 197.0558 C180.5905 197.2442 183.0813 197.0970 185.4982 197.0872 L198.7088 197.0445 L241.3132 197.0410 L302.4950 197.0470 C313.0150 197.0490 323.6600 197.4028 334.1625 196.9875 C333.9750 203.6458 333.8550 210.4585 334.1775 217.1093 C327.7700 216.7170 321.1550 217.0250 314.7275 217.0242 L277.1525 217.0233 C244.1095 217.0237 211.0095 216.6260 177.9725 217.0960 C178.0163 213.3383 177.4263 199.7025 178.1855 197.0558 Z"></path>
<path id="" fill="#a0a0a0" fill-opacity="1.0" stroke="#000000" stroke-width="0.0" stroke-opacity="1.0" stroke-linecap="round" stroke-linejoin="round"  filling="0" d="M178.2115 275.0725 C180.6870 275.2525 183.2570 275.0925 185.7453 275.0800 L199.4218 275.0550 L243.8875 275.0475 L303.2225 275.0475 C313.4975 275.0500 323.9075 275.4275 334.1625 274.9900 C333.9750 281.6500 333.8650 288.4525 334.1775 295.1050 C326.7400 294.8475 319.2525 295.0250 311.8075 295.0250 L271.3650 295.0225 C240.2485 295.0225 209.0840 294.6750 177.9715 295.0950 C178.0092 291.8100 177.4120 277.2000 178.2115 275.0725 Z"></path>
<path id="" fill="#a0a0a0" fill-opacity="1.0" stroke="#000000" stroke-width="0.0" stroke-opacity="1.0" stroke-linecap="round" stroke-linejoin="round"  filling="0" d="M178.2117 236.0735 C183.3997 236.4483 188.9080 236.0717 194.1220 236.0612 L226.6617 236.0473 L271.5550 236.0493 C279.4025 236.0513 287.3275 236.3255 295.1625 235.9895 C294.9775 242.6472 294.8550 249.4590 295.1800 256.1100 C290.2500 255.8075 285.1925 256.0250 280.2475 256.0225 L252.2175 256.0225 C227.4778 256.0225 202.7072 255.7600 177.9715 256.0950 C178.0090 252.8125 177.4128 238.1962 178.2117 236.0735 Z"></path>
<path id="" fill="#a1a1a1" fill-opacity="1.0" stroke="#000000" stroke-width="0.0" stroke-opacity="1.0" stroke-linecap="round" stroke-linejoin="round"  filling="0" d="M178.2117 314.0725 C183.4167 314.4500 188.9453 314.0725 194.1760 314.0625 L226.7572 314.0475 L271.5650 314.0500 C279.4100 314.0500 287.3300 314.3250 295.1625 313.9900 C294.9750 320.6475 294.8650 327.4475 295.1775 334.1000 C289.4050 333.9050 283.6000 334.0275 277.8250 334.0250 L247.9258 334.0225 C224.6165 334.0225 201.2778 333.7750 177.9718 334.0950 C178.0085 330.8125 177.4130 316.1950 178.2117 314.0725 Z"></path>
<path id="" fill="#546e79" fill-opacity="1.0" stroke="#000000" stroke-width="0.0" stroke-opacity="1.0" stroke-linecap="round" stroke-linejoin="round"  filling="0" d="M294.7075 411.8800 L294.8200 411.9325 C295.3575 412.6400 295.0850 429.6425 295.1850 432.1875 C292.0450 431.7750 288.6550 432.0025 285.4875 432.0050 L269.1075 432.0150 C251.9575 432.0125 234.7710 431.7725 217.6248 432.1000 L217.2510 432.0800 C216.6517 431.1525 216.9733 414.2275 216.8992 411.9150 C226.7625 412.1125 236.6565 411.9525 246.5225 411.9500 L294.7075 411.8800 Z"></path>
</svg>