<svg xmlns="http://www.w3.org/2000/svg" viewBox="0 0 512 512" height="512.0px" width="512.0px">
<path id="" fill="#2e7d32" fill-opacity="1.0" stroke="#000000" stroke-width="0.0" stroke-opacity="1.0" stroke-linecap="round" stroke-linejoin="round"  filling="0" d="M191.9178 205.4122 C193.3233 206.3315 194.5780 208.0615 195.5545 209.4138 C205.6703 223.4200 215.1240 237.9767 224.8848 252.2375 L274.0450 323.6800 L312.3750 379.2700 C319.2400 389.2075 326.4600 399.0175 332.9000 409.2275 C320.4500 409.1125 307.9650 409.4050 295.5100 409.4150 L192.9185 409.3550 L51.5078 409.3400 C52.7917 406.0100 55.4470 403.0525 57.4635 400.1075 L68.4440 384.0400 L120.9490 307.8225 L167.1175 240.6517 L181.0065 220.2505 C184.3638 215.2858 187.6362 209.6373 191.9178 205.4122 Z"></path>
<path id="" fill="#ff9800" fill-opacity="1.0" stroke="#000000" stroke-width="0.0" stroke-opacity="1.0" stroke-linecap="round" stroke-linejoin="round"  filling="0" d="M400.4650 103.7162 C401.1900 103.7632 401.7875 103.8587 402.4075 104.2565 C404.8825 105.8473 407.0650 108.4918 409.1300 110.5878 C411.9200 113.4358 414.7400 116.2535 417.5900 119.0407 C426.4000 119.2415 435.2450 119.0440 444.0550 118.9918 C443.6900 127.7177 443.9100 136.6308 444.0250 145.3678 C446.7775 148.5397 459.5900 159.8375 460.2050 162.7587 C458.5575 166.2318 447.6950 175.1628 444.2875 179.4650 L444.0575 179.7583 C443.7825 188.0125 443.9500 196.3815 444.0525 204.6413 C435.6975 204.5013 427.2275 204.6387 418.8700 204.7997 C413.0725 209.8105 407.7850 217.0375 401.6625 221.3107 C401.5200 221.3338 401.3775 221.3728 401.2325 221.3795 C399.1600 221.4775 385.7775 207.0115 383.5450 204.7318 C379.4275 204.4930 360.8850 205.5807 358.6300 204.2605 C357.5550 201.0990 358.2675 184.4843 358.1975 179.9470 C355.7900 176.2890 349.5900 170.8035 346.2575 167.6752 C345.1800 166.6640 343.9025 165.6888 342.9375 164.5768 C342.5350 164.1133 342.2125 163.5280 342.1625 162.9075 C342.0900 162.0465 342.5625 161.2335 343.0550 160.5670 C344.5475 158.5450 346.7375 156.7280 348.5325 154.9592 C351.7300 151.8123 354.9050 148.6450 358.0625 145.4577 C358.3875 141.1452 358.2000 136.7315 358.2100 132.4060 C358.2200 127.9590 358.4000 123.4967 358.2825 119.0525 C366.9575 118.9222 375.6500 119.1045 384.3300 119.0332 C388.7200 115.2700 396.1525 106.1187 400.4650 103.7162 Z"></path>
<path id="" fill="#4caf50" fill-opacity="1.0" stroke="#000000" stroke-width="0.0" stroke-opacity="1.0" stroke-linecap="round" stroke-linejoin="round"  filling="0" d="M337.5900 256.7000 C337.6825 256.7125 337.7800 256.7200 337.8725 256.7425 C339.3050 257.0600 340.2650 258.2925 341.1725 259.3550 C349.4075 269.0100 357.1300 279.2250 365.0625 289.1400 L411.2300 346.8450 L442.1200 385.4375 C448.4125 393.2925 455.1000 401.0075 460.7700 409.3200 C446.5075 409.9925 432.0250 409.5125 417.7375 409.5125 L339.8125 409.5100 C334.1175 409.4600 328.4150 409.7875 322.7125 409.7925 L253.5400 409.8025 L230.5757 409.8000 C226.0847 409.7975 221.4585 410.0150 216.9900 409.6200 C216.7478 409.0175 216.7700 408.7075 216.9720 408.0825 C217.3952 406.7775 218.2715 405.5100 219.1050 404.4250 C224.4037 397.5325 230.0295 390.8475 235.4625 384.0550 L273.0025 337.1175 C275.9550 333.4100 278.6550 329.5350 281.5675 325.8050 C292.8300 311.3900 304.4225 297.2125 315.8475 282.9250 L328.6450 266.9275 C330.9725 264.0150 333.2325 260.9525 335.7325 258.1900 C336.2975 257.5650 336.8575 257.1125 337.5900 256.7000 Z"></path>
<path id="" fill="#ffea3a" fill-opacity="1.0" stroke="#000000" stroke-width="0.0" stroke-opacity="1.0" stroke-linecap="round" stroke-linejoin="round"  filling="0" d="M399.0850 136.1650 C413.2525 135.0480 425.6400 145.6285 426.7550 159.7957 C427.8700 173.9630 417.2875 186.3508 403.1200 187.4630 C388.9550 188.5750 376.5725 177.9955 375.4575 163.8315 C374.3425 149.6678 384.9200 137.2818 399.0850 136.1650 Z"></path>
</svg>