<svg xmlns="http://www.w3.org/2000/svg" viewBox="0 0 512 512" height="512.0px" width="512.0px">
<path id="" fill="#7cb342" fill-opacity="1.0" stroke="#000000" stroke-width="0.0" stroke-opacity="1.0" stroke-linecap="round" stroke-linejoin="round"  filling="0" d="M55.6715 196.0335 C64.2525 195.8537 76.0420 195.5282 84.3510 196.6987 C96.8278 198.5632 108.4243 204.2352 117.5555 212.9395 C126.0010 221.0043 131.8918 231.3717 134.4967 242.7550 C136.3477 250.6700 136.0692 258.5600 136.0672 266.6175 L136.0578 287.7125 L136.0465 344.3725 C136.0457 354.2550 135.8745 364.1725 136.0773 374.0525 C136.2213 381.0625 137.3150 386.2675 142.5505 391.2325 C145.9230 394.4300 149.8112 396.2375 154.4125 396.8300 C157.0405 397.1700 159.8123 397.0075 162.4585 397.0025 L175.7125 396.9975 L220.6110 396.9875 L307.8150 396.9925 C323.3550 397.0000 338.9450 397.3025 354.4775 396.9600 C363.7700 396.7550 371.6100 392.7425 375.3025 383.8300 C378.0425 377.2175 377.0125 362.4125 377.0025 354.8050 L377.0000 285.3275 L376.9850 264.4550 C376.9800 257.4950 376.6575 250.5475 378.1975 243.7068 C380.5675 232.6780 386.0125 222.5462 393.9025 214.4850 C403.7675 204.1848 416.9900 197.7498 431.1825 196.3418 C439.7225 195.5312 448.5175 196.0862 457.1000 195.9563 C456.8575 202.4680 456.9025 209.2025 457.1250 215.7130 C457.3475 222.3047 458.2400 229.6400 456.8875 236.1460 C451.0975 235.6670 444.7825 235.7895 438.9750 236.1113 C430.3225 236.5905 423.0575 239.6195 419.2750 247.9190 C415.9300 255.2675 417.0600 268.9750 417.0625 277.3325 L417.0575 348.8625 L417.0725 368.1850 C417.0825 374.9975 417.4250 381.7900 415.9450 388.4900 C413.4750 399.6800 407.9000 409.8275 400.2075 418.2975 C390.3600 429.1400 375.4875 436.2725 360.8250 436.9300 C355.3400 437.1775 349.7800 437.0000 344.2875 436.9975 L315.2375 436.9950 L225.5200 437.0000 L175.0627 437.0050 C165.8230 437.0050 153.9637 437.7325 145.0233 436.1700 C134.3943 434.2350 124.5128 429.3825 116.4843 422.1550 C106.8968 413.3575 100.7935 404.1100 97.5635 391.4100 C95.6210 383.7700 95.9590 376.0400 95.9628 368.2300 L95.9770 347.8725 L95.9747 293.0475 C95.9723 281.0775 96.1930 269.0825 95.6458 257.1250 C95.3683 251.0550 93.7668 245.7767 89.1308 241.6113 C82.7802 235.9050 74.8333 235.9427 66.8080 235.9857 C63.0462 235.9698 59.2848 236.0465 55.5267 236.2157 L55.4283 208.2895 C55.4348 204.3642 55.0925 199.9000 55.6715 196.0335 Z"></path>
<path id="" fill="#7bb241" fill-opacity="1.0" stroke="#000000" stroke-width="0.0" stroke-opacity="1.0" stroke-linecap="round" stroke-linejoin="round"  filling="0" d="M236.2663 85.2745 C239.4895 85.9390 243.4552 85.1992 246.7697 85.1862 L276.7175 85.2152 C277.1150 94.3215 276.8125 103.5285 276.8100 112.6472 L276.8200 162.8075 L276.5500 306.6800 C287.7825 305.9425 299.2775 306.2150 310.5350 306.2950 C314.4450 306.3225 318.4150 306.8075 322.3075 306.5450 L322.7500 306.5125 C323.1950 306.9175 323.2925 307.2025 323.3250 307.8125 C323.4175 309.5375 321.8475 311.2750 320.7975 312.5300 C318.6475 315.1025 316.1425 317.4400 313.7725 319.8125 L302.0625 331.5150 L265.5850 367.9975 C263.9550 369.6000 258.2275 376.1575 256.3150 376.1950 C255.1850 375.5925 254.2475 374.7850 253.3300 373.9025 C248.3795 369.1400 243.6198 364.1225 238.7655 359.2600 L208.5397 329.0150 L195.8925 316.3550 C193.3932 313.8800 190.3985 311.4800 188.3905 308.5825 C187.9308 307.9175 187.6675 307.4350 187.8098 306.6325 C190.7267 305.7625 198.6678 306.2300 202.0892 306.2275 C213.5172 306.1550 224.9455 306.2625 236.3700 306.5500 C235.8950 302.2550 236.1257 297.7350 236.1245 293.4075 L236.1395 270.8900 L236.1395 197.6947 L236.1192 120.4283 L236.0948 97.7947 C236.0865 93.7040 235.7767 89.3333 236.2663 85.2745 Z"></path>
<path id="" fill="#37474e" fill-opacity="1.0" stroke="#000000" stroke-width="0.0" stroke-opacity="1.0" stroke-linecap="round" stroke-linejoin="round"  filling="0" d="M79.2117 51.7035 C81.0957 52.0455 83.1042 54.5383 84.4488 55.8735 L346.5450 317.9750 L426.0600 397.4775 L448.5775 419.9850 C452.4975 423.9000 457.0675 427.8275 460.4450 432.2100 C459.6125 434.5425 436.3000 457.7625 432.8450 460.3225 C430.7875 460.0700 426.2925 454.8500 424.6675 453.2250 L168.7805 197.3070 L89.2715 117.8020 L64.8322 93.3727 C60.4393 88.9810 55.5768 84.6678 51.6523 79.8665 C51.6647 79.7932 51.6695 79.7182 51.6898 79.6468 C51.9830 78.6160 53.2335 77.3255 53.9585 76.5225 C58.3955 71.6070 63.3737 67.0202 68.0632 62.3372 C70.9853 59.4193 75.8825 53.8022 79.2117 51.7035 Z"></path>
</svg>