<svg xmlns="http://www.w3.org/2000/svg" viewBox="0 0 512 512" height="512.0px" width="512.0px">
<path id="" fill="#00acc1" fill-opacity="1.0" stroke="#000000" stroke-width="0.0" stroke-opacity="1.0" stroke-linecap="round" stroke-linejoin="round"  filling="0" d="M188.9622 51.1873 C264.4100 50.1670 326.4125 110.4700 327.4925 185.9158 C328.5725 261.3625 268.3175 323.4125 192.8728 324.5525 C117.3443 325.6900 55.2088 265.3550 54.1285 189.8262 C53.0480 114.2970 113.4320 52.2088 188.9622 51.1873 Z M193.3680 294.8875 C252.3600 293.4300 299.0575 244.5225 297.7850 185.5250 C296.5100 126.5277 247.7480 79.6797 188.7467 80.7705 C129.4868 81.8660 82.3885 130.8900 83.6675 190.1463 C84.9463 249.4025 134.1160 296.3500 193.3680 294.8875 Z"></path>
<path id="" fill="#fec107" fill-opacity="1.0" stroke="#000000" stroke-width="0.0" stroke-opacity="1.0" stroke-linecap="round" stroke-linejoin="round"  filling="0" d="M296.0050 187.3268 C296.1450 187.3092 296.2875 187.2875 296.4300 187.2747 C300.6625 186.8922 307.0575 187.2807 310.3625 190.2475 C315.9000 195.2188 322.7700 209.9250 326.7850 216.8715 C329.8500 222.1698 333.1600 227.3585 336.3075 232.6125 L346.0175 249.1435 L420.5275 374.0000 L442.5025 410.6200 C446.4200 417.1225 450.5175 423.5725 454.2300 430.1900 C456.0100 433.3600 457.8225 437.0400 457.9025 440.7400 C458.0150 445.9525 455.4825 451.1875 451.8550 454.8125 C448.9200 457.7475 445.3750 459.8650 441.2425 460.5650 C436.1725 461.4275 430.5450 460.9950 425.4025 460.9900 L398.7875 460.9675 L300.8125 460.9675 L202.0515 460.9675 L172.7272 460.9850 C167.2985 460.9975 161.5580 461.3900 156.1687 460.7700 C152.7710 460.3800 149.2543 459.0225 146.4288 457.0975 C142.0395 454.1075 139.2943 448.7550 138.3822 443.6125 C137.6350 439.4025 139.0680 435.4075 140.9540 431.7025 C142.2728 429.1100 143.8860 426.6500 145.3685 424.1500 C148.8138 418.3400 152.3867 412.5950 155.7943 406.7675 L201.2023 330.8100 L256.0100 238.7915 L272.1050 211.9725 C275.1625 206.8468 278.0525 201.4085 281.4775 196.5255 C285.2200 191.1855 289.6150 188.4447 296.0050 187.3268 Z"></path>
<path id="" fill="#000000" fill-opacity="1.0" stroke="#000000" stroke-width="0.0" stroke-opacity="1.0" stroke-linecap="round" stroke-linejoin="round"  filling="0" d="M183.8420 100.1133 C189.3885 99.8970 195.0117 100.0197 200.5620 100.1030 C200.3163 105.8643 200.5403 111.7318 200.5428 117.5040 L200.5482 151.9435 C200.5470 158.1758 200.7275 164.4930 200.2970 170.7100 C201.7300 171.7765 203.1028 172.9220 204.4085 174.1410 C209.3927 178.8333 209.9227 184.4370 210.0670 190.9162 C219.4170 200.4930 229.0573 209.7878 238.4397 219.3335 C240.3423 221.2690 242.5085 223.0582 244.3425 225.0222 C244.7728 225.4830 244.9527 225.8472 245.0680 226.4785 C244.3540 229.1585 233.9780 238.4730 231.3528 241.0695 L229.4520 242.7133 C226.6900 240.7737 222.5448 236.0473 219.9535 233.4653 C211.2205 224.7645 202.7392 215.6277 193.6355 207.3253 C192.1783 207.3440 190.7265 207.3695 189.2745 207.2220 C183.8183 206.6682 178.9747 204.3340 175.4945 200.0378 C172.2090 195.9820 170.8615 190.8112 171.4695 185.6540 C172.2455 179.0728 175.8725 174.8560 180.9110 170.9068 C181.1730 164.2973 181.0345 157.6410 181.0375 151.0253 L181.0253 117.6255 C181.0202 114.2860 180.5605 103.0380 181.1647 100.5380 C181.8840 100.0565 182.9892 100.1483 183.8420 100.1133 Z"></path>
<path id="" fill="#00abc0" fill-opacity="1.0" stroke="#000000" stroke-width="0.0" stroke-opacity="1.0" stroke-linecap="round" stroke-linejoin="round"  filling="0" d="M189.0007 178.3670 C194.2518 177.3797 199.3107 180.8305 200.3082 186.0795 C201.3055 191.3288 197.8647 196.3943 192.6175 197.4017 C187.3560 198.4120 182.2735 194.9597 181.2735 189.6962 C180.2733 184.4328 183.7355 179.3570 189.0007 178.3670 Z"></path>
<path id="" fill="#263237" fill-opacity="1.0" stroke="#000000" stroke-width="0.0" stroke-opacity="1.0" stroke-linecap="round" stroke-linejoin="round"  filling="0" d="M312.4425 284.9175 L312.5800 284.9825 C313.3500 286.5025 309.8175 371.6300 310.0150 381.2350 C306.8975 380.8100 303.6275 380.9975 300.4850 380.9975 C296.0425 380.9975 291.5825 380.9200 287.1450 381.1200 C287.1875 380.0450 287.2075 379.0100 287.1000 377.9400 C285.8300 357.7900 284.9350 337.6200 284.4175 317.4400 C284.0350 306.6350 283.8600 295.7625 283.0475 284.9800 C287.4450 285.1950 291.8975 285.0775 296.3000 285.0800 C301.6725 285.0825 307.0750 285.1575 312.4425 284.9175 Z"></path>
<path id="" fill="#263237" fill-opacity="1.0" stroke="#000000" stroke-width="0.0" stroke-opacity="1.0" stroke-linecap="round" stroke-linejoin="round"  filling="0" d="M294.4975 396.0300 C302.8150 394.3900 310.8875 399.7975 312.5300 408.1150 C314.1750 416.4300 308.7700 424.5050 300.4525 426.1525 C292.1325 427.8025 284.0525 422.3925 282.4075 414.0700 C280.7625 405.7500 286.1750 397.6725 294.4975 396.0300 Z"></path>
</svg>