<svg xmlns="http://www.w3.org/2000/svg" viewBox="0 0 512 512" height="512.0px" width="512.0px">
<path id="" fill="#bbddfa" fill-opacity="1.0" stroke="#000000" stroke-width="0.0" stroke-opacity="1.0" stroke-linecap="round" stroke-linejoin="round"  filling="0" d="M79.3350 255.0875 C79.4337 255.0725 79.5318 255.0550 79.6310 255.0450 C84.5703 254.4975 89.8992 254.9250 94.8830 254.9300 L125.6760 254.9500 L228.4250 254.9425 L366.3125 254.9450 L410.3225 254.9425 C418.1025 254.9375 426.1225 254.5275 433.8775 255.0625 C439.3100 255.4375 444.7575 257.1975 449.0375 260.6375 C454.3325 264.8925 456.1425 270.8075 456.7875 277.3325 C457.2175 281.6675 457.0950 286.0375 457.0925 290.3875 L457.0825 309.0000 L456.5775 376.8600 C456.5575 379.7225 456.9975 382.6100 457.0625 385.4775 C457.2350 392.8725 457.0875 400.3000 457.0850 407.6975 C457.0825 413.4350 457.3625 419.3200 456.8025 425.0325 C456.2575 430.6000 455.2625 436.5675 451.5725 441.0000 C447.2700 446.1700 441.2850 448.0400 434.8225 448.6500 C434.7925 448.6575 434.7625 448.6675 434.7300 448.6725 C429.6125 449.3700 424.1850 449.0250 419.0225 449.0200 L392.8300 449.0075 L301.6250 449.0075 L153.6577 449.0100 L106.1010 449.0150 C97.7728 449.0200 89.2298 449.4075 80.9258 448.9150 C75.0010 448.5625 70.2645 447.3375 65.4960 443.6975 C60.6290 439.9825 58.2547 434.7575 57.4760 428.7775 C56.3595 420.2025 56.9767 410.4350 56.9803 401.7125 L56.9857 354.0325 L56.9750 303.1875 C56.9745 294.9050 56.4162 284.2550 57.3053 276.2475 C57.8248 271.5675 59.0363 267.7075 61.9828 263.9675 C66.1797 258.6375 72.7668 255.9125 79.3350 255.0875 Z"></path>
<path id="" fill="#ffb64c" fill-opacity="1.0" stroke="#000000" stroke-width="0.0" stroke-opacity="1.0" stroke-linecap="round" stroke-linejoin="round"  filling="0" d="M228.0938 318.2775 C234.2225 317.9050 240.4913 318.1950 246.6380 318.1900 C251.8375 318.1825 257.2750 317.8050 262.4350 318.3675 C264.4150 318.5850 266.3225 319.0700 268.1275 319.9200 C270.3450 320.9650 271.5850 322.1275 272.3875 324.4675 C273.5350 327.8075 272.9675 358.8500 272.9700 365.4900 C272.9825 389.9275 273.4100 414.4675 272.8350 438.8925 C272.8050 440.2225 272.9350 442.5475 272.2850 443.6875 C270.9675 445.9950 265.1475 447.9600 262.6775 448.5875 C257.3550 449.5750 251.2300 449.0000 245.8047 449.0175 C240.2552 449.0325 234.3220 449.4750 228.8103 448.8675 C227.3880 448.7100 226.1335 448.2800 224.8530 447.6550 C222.8867 446.6950 219.2125 444.7900 218.5335 442.5900 C217.3223 438.6625 218.8820 417.0550 219.1147 411.8075 C219.2827 407.6150 219.3695 403.4200 219.3748 399.2225 L219.4410 348.7425 C219.4355 342.2075 219.1512 335.5950 219.3095 329.0725 C219.3477 327.4925 219.6552 325.9350 220.4187 324.5375 C221.9445 321.7450 225.0400 319.1750 228.0938 318.2775 Z"></path>
<path id="" fill="#ffb74d" fill-opacity="1.0" stroke="#000000" stroke-width="0.0" stroke-opacity="1.0" stroke-linecap="round" stroke-linejoin="round"  filling="0" d="M218.3280 324.7075 C218.9470 324.7375 219.1942 324.7025 219.7155 325.0200 C220.0575 325.8125 220.1590 326.5600 220.1853 327.4225 C220.2917 330.9225 220.0623 334.5300 220.0612 338.0475 L220.0578 366.3325 L220.0793 390.3075 C220.0887 394.8250 220.2482 399.4075 220.0385 403.9175 C219.9165 406.5450 219.3963 409.0350 218.8395 411.5950 C212.7487 409.7575 210.3300 407.1950 206.3775 402.3575 C200.5925 395.3850 196.7790 388.0475 198.2705 378.7675 C198.5717 376.8925 199.3322 375.1000 199.5905 373.2175 C199.8087 371.6275 199.4877 369.7225 199.3605 368.1225 C199.1732 365.7675 199.0878 363.3000 198.6792 360.9750 C198.2785 358.6975 196.7283 356.5050 197.0092 354.1350 C197.3978 350.8525 200.8705 347.8000 202.1687 344.7300 C203.2997 342.0575 202.7570 338.5575 204.5607 336.1825 C206.8480 333.1675 210.7645 331.9575 213.6630 329.6850 C215.4585 328.2750 216.4730 326.0900 218.3280 324.7075 Z"></path>
<path id="" fill="#ffb74d" fill-opacity="1.0" stroke="#000000" stroke-width="0.0" stroke-opacity="1.0" stroke-linecap="round" stroke-linejoin="round"  filling="0" d="M270.7875 321.9625 C273.3325 322.4200 275.7225 323.0775 278.1750 323.8975 C279.8450 325.6400 280.7050 327.8975 282.3025 329.6375 C283.1825 330.6000 284.4375 331.2750 285.4600 332.0800 C289.1825 335.0150 291.9000 346.3400 292.4775 350.8925 C292.9775 355.7925 292.3100 360.3425 291.9925 365.2025 C291.9050 373.7950 294.5100 382.6650 290.8000 390.7825 C289.4800 393.6675 287.7475 396.4825 285.8800 399.0425 C283.6325 402.1225 276.5100 410.0825 273.0525 411.2100 C272.2625 411.4675 271.8325 411.3400 271.1075 410.9850 C270.3000 408.8575 272.2800 403.4625 272.6150 401.1325 C272.9250 398.9475 273.0400 396.6250 272.9900 394.4175 C272.6575 379.7425 272.9350 364.9900 272.9500 350.3075 C272.9550 343.0350 273.4925 335.3050 272.4575 328.1150 C272.1575 326.0325 271.3375 323.9950 270.7875 321.9625 Z"></path>
<path id="" fill="rgb(254,188,77)" fill-opacity="1.0" stroke="#000000" stroke-width="0.0" stroke-opacity="1.0" stroke-linecap="round" stroke-linejoin="round"  filling="0" d="M252.6175 312.0150 C254.3175 312.0100 255.5700 312.9625 256.7925 314.0600 C257.7875 314.9525 259.6925 316.9875 259.5100 318.4825 C259.4450 319.0400 259.2575 319.4900 258.7675 319.8000 C257.8750 320.3650 256.4425 320.2075 255.4475 320.1325 C253.6150 319.9950 252.6350 320.0175 251.3650 318.5525 C249.4870 318.4875 247.2088 319.1000 245.4462 318.5775 C243.3820 318.2000 237.8893 318.7400 236.5847 317.3900 L236.6105 316.7600 C237.5912 315.2000 239.2320 314.1875 240.7677 313.2425 C242.8638 313.1300 244.2485 313.1450 246.1920 314.1050 C248.3645 313.4675 250.4025 312.5650 252.6175 312.0150 Z"></path>
<path id="" fill="#ff9800" fill-opacity="1.0" stroke="#000000" stroke-width="0.0" stroke-opacity="1.0" stroke-linecap="round" stroke-linejoin="round"  filling="0" d="M264.9225 417.9500 C266.5150 417.9325 268.3550 417.6575 269.7300 418.5800 C270.1450 419.3900 270.0100 419.8400 269.9500 420.7350 C268.4625 420.7450 266.7100 421.5050 265.3475 420.8050 C264.7675 419.9600 264.9175 418.9375 264.9225 417.9500 Z"></path>
<path id="" fill="#fe5722" fill-opacity="1.0" stroke="#000000" stroke-width="0.0" stroke-opacity="1.0" stroke-linecap="round" stroke-linejoin="round"  filling="0" d="M164.2660 399.5125 C163.9427 396.4125 164.0983 393.3050 164.1438 390.1950 C164.4162 371.5300 167.9285 350.8150 175.8085 333.7875 C178.8550 327.3425 182.6820 321.2950 187.2035 315.7850 C191.3555 310.6600 196.7245 305.7450 202.2567 302.1450 C214.2663 294.3325 234.1322 287.9250 248.3918 286.4400 C251.0275 286.1675 258.3575 285.5200 260.3725 287.1475 C262.0450 288.4975 264.2375 294.3200 264.9075 296.4700 C277.5000 296.7025 291.4175 302.4225 300.2200 311.4700 C314.0700 325.7100 322.3625 352.3525 325.6075 371.4950 C326.4500 376.4650 326.8375 381.3175 327.2900 386.3225 C327.6300 390.0625 328.0250 393.8100 327.9900 397.5700 C327.9825 398.4475 327.8525 399.1850 327.5475 400.0025 C320.7100 404.8100 313.8275 409.4875 307.0950 414.4600 C300.6300 419.2350 294.0275 425.1575 286.7825 428.6150 C284.8350 425.3850 287.6050 398.9300 285.5925 395.9525 C286.2900 392.9675 286.3775 356.2475 285.6900 352.7500 C285.5200 351.8925 285.1125 351.3325 284.5925 350.6550 C282.5700 348.0125 280.1000 345.6725 277.9350 343.1400 C275.3075 340.0675 272.9625 336.7525 270.2150 333.7850 C269.1975 332.6850 268.1700 331.6100 266.9300 330.7575 C263.2750 331.2925 259.5900 332.5625 256.0650 333.6425 C242.0355 337.9425 231.0700 343.0200 218.0065 349.5525 C213.7142 351.6975 208.7980 353.7675 205.0428 356.7825 L205.0103 378.9150 C205.0087 383.0875 204.4207 391.4125 205.5710 395.1250 C205.0035 397.9075 205.3030 401.1825 205.2720 404.0275 L205.0960 422.1825 C205.0807 424.2775 205.3160 426.6875 204.9715 428.7400 C201.3658 427.6275 182.7890 413.0975 178.2740 409.7525 C173.6240 406.3100 168.8870 403.0000 164.2660 399.5125 Z"></path>
<path id="" fill="#bf360c" fill-opacity="1.0" stroke="#000000" stroke-width="0.0" stroke-opacity="1.0" stroke-linecap="round" stroke-linejoin="round"  filling="0" d="M270.8550 411.5175 C278.2575 405.7800 281.0000 404.7850 285.5925 395.9525 C287.6050 398.9300 284.8350 425.3850 286.7825 428.6150 C287.2350 430.2650 286.7750 433.0600 286.7650 434.8325 C286.7375 439.6150 286.6800 444.4175 286.8625 449.1975 C283.2725 449.2125 260.7725 449.3950 259.1100 448.7300 C258.7500 448.1175 258.6100 447.9875 258.6375 447.2900 C260.4200 446.3950 263.1325 446.2400 265.1100 445.7675 C267.2000 445.2700 269.1700 444.5900 271.1650 443.7925 C270.6950 440.0025 270.9600 435.9650 270.9650 432.1475 C271.0025 425.2700 270.9650 418.3950 270.8550 411.5175 Z"></path>
<path id="" fill="#bf360c" fill-opacity="1.0" stroke="#000000" stroke-width="0.0" stroke-opacity="1.0" stroke-linecap="round" stroke-linejoin="round"  filling="0" d="M205.5710 395.1250 C209.7482 402.3325 213.2645 406.6050 219.9783 411.5725 C220.8520 421.6150 218.4812 434.0500 221.2395 443.6000 C223.4308 444.5625 227.0403 445.6425 228.5697 447.4975 C228.6467 448.1425 228.6430 448.0875 228.2395 448.6025 C226.2330 449.6425 208.6260 449.3175 205.0220 449.6000 C204.6723 442.7350 204.5560 435.5975 204.9715 428.7400 C205.3160 426.6875 205.0807 424.2775 205.0960 422.1825 L205.2720 404.0275 C205.3030 401.1825 205.0035 397.9075 205.5710 395.1250 Z"></path>
<path id="" fill="#ffb74d" fill-opacity="1.0" stroke="#000000" stroke-width="0.0" stroke-opacity="1.0" stroke-linecap="round" stroke-linejoin="round"  filling="0" d="M249.8152 61.1078 C268.7350 59.6310 288.8750 64.0285 306.3125 71.0892 C310.3600 72.7282 314.4300 74.4060 318.2375 76.5595 C347.7850 93.2670 368.7100 117.9173 377.7825 150.9485 C383.9500 173.7238 383.0125 197.8405 375.0950 220.0680 C372.5050 227.3150 369.0100 234.3080 365.4375 241.1115 C363.2000 245.3715 360.1125 249.2162 357.7350 253.4200 C354.2325 254.1550 350.5550 254.1650 346.9850 254.3200 C339.4125 254.6150 331.8325 254.7325 324.2550 254.6700 L264.5875 254.5700 C229.2318 255.0650 193.8703 254.8975 158.5210 254.0700 C155.2112 250.5000 152.6523 246.0460 150.2025 241.8537 C139.7077 223.8965 134.2348 204.8788 133.1150 184.1185 C132.8418 179.0505 133.3820 173.9250 133.9285 168.8913 C136.9397 141.1440 148.7332 118.8100 167.2733 98.2932 C169.8645 95.4255 172.8980 93.0567 175.8230 90.5457 C196.5730 72.8538 222.5827 62.5060 249.8152 61.1078 Z"></path>
<path id="" fill="#fe5722" fill-opacity="1.0" stroke="#000000" stroke-width="0.0" stroke-opacity="1.0" stroke-linecap="round" stroke-linejoin="round"  filling="0" d="M234.3277 287.3975 C234.3490 287.3950 234.3715 287.3875 234.3918 287.3925 C235.3347 287.6975 235.2722 288.4725 235.9207 289.1500 C235.8913 288.6625 235.8138 288.1475 235.9855 287.6800 C236.0995 287.3700 236.4203 287.2650 236.7162 287.1750 C237.4900 286.9400 238.8638 287.1900 239.5748 287.5325 C240.0533 287.7625 240.0963 287.7600 240.2735 288.2750 C239.4815 289.0500 227.9097 291.9025 225.9075 292.4750 C223.0067 293.3050 220.1508 294.5150 217.3565 295.6400 C200.5388 302.4200 188.6085 313.0225 179.7283 328.8675 C179.2292 329.9575 178.7388 331.3550 177.9475 332.2575 C177.4523 332.8225 176.9445 333.1850 176.1860 333.2650 C175.6420 332.8850 175.5670 332.8175 175.4787 332.1075 C175.2570 330.3275 176.9657 328.0625 177.7910 326.5475 C181.2405 320.2075 184.8513 314.3450 189.7155 308.9675 C198.7558 298.9750 211.4088 292.7800 224.2552 289.3675 C227.5753 288.4875 230.8808 287.5675 234.3277 287.3975 Z"></path>
<path id="" fill="#ff5722" fill-opacity="1.0" stroke="#000000" stroke-width="0.0" stroke-opacity="1.0" stroke-linecap="round" stroke-linejoin="round"  filling="0" d="M244.3282 336.9925 C244.5287 336.9675 244.8100 336.9275 245.0058 336.9300 C245.6378 336.9475 245.7587 337.0525 246.2080 337.4475 C246.3325 337.9175 246.3233 338.1750 246.1805 338.6300 C245.9368 339.4100 245.1900 339.8525 244.5338 340.3050 C240.2680 343.2450 235.4870 345.6825 231.0327 348.3625 C222.6405 353.4075 214.2872 358.6625 205.6280 363.2400 C205.1342 363.3575 204.9182 363.3950 204.4413 363.2075 C203.2968 361.7325 203.8548 358.3175 203.9787 356.4975 C209.3602 352.9875 215.2292 350.3300 220.9668 347.4625 C228.3535 343.7700 236.3963 339.3025 244.3282 336.9925 Z"></path>
<path id="" fill="#ff5722" fill-opacity="1.0" stroke="#000000" stroke-width="0.0" stroke-opacity="1.0" stroke-linecap="round" stroke-linejoin="round"  filling="0" d="M103.5543 253.8850 C103.3215 249.4980 104.0212 242.4930 104.3275 237.8793 C105.0378 227.1797 106.6003 216.3327 108.3765 205.7578 C115.8285 161.3945 131.7790 113.3367 166.7930 82.9608 C188.6855 63.9682 216.0840 53.5250 244.8922 51.3615 C251.5300 50.8630 258.2750 51.0977 264.9300 51.0790 C272.1550 51.0587 279.5975 50.6650 286.7975 51.1787 C289.1225 54.3860 292.8900 62.6122 294.5275 66.5233 C298.2400 67.7202 304.4300 69.7290 307.4100 72.1515 C326.2450 74.3987 343.6875 82.2340 357.2700 95.6070 C364.5775 102.6667 370.9025 110.6765 376.0750 119.4212 C397.9100 155.7323 408.2125 211.4520 408.5425 253.6350 C403.9025 253.3450 399.1750 253.5375 394.5250 253.5725 C387.6800 253.6250 380.8350 253.6375 373.9900 253.6125 L351.1550 253.6175 C346.7825 253.6275 342.3100 253.4400 337.9525 253.8450 L337.9650 207.2937 C337.9650 203.6503 338.5225 186.8795 337.5800 184.2997 C336.7175 181.9473 318.2250 159.9670 315.3450 156.3965 L297.1950 133.5052 C291.4675 135.8802 285.9450 139.8135 280.6300 143.0132 L256.0425 157.5112 L193.0932 193.9620 C189.0640 196.3378 178.7057 201.5247 175.9770 204.4507 C174.9523 205.5497 174.6418 206.5652 174.4147 208.0380 C173.5005 213.9680 174.0417 220.6362 174.0435 226.6443 C174.0462 235.5725 173.7598 244.6425 174.2778 253.5525 C170.2072 253.3275 166.0172 253.6225 161.9360 253.6575 L141.3895 253.6575 C128.7858 253.7200 116.1440 253.2400 103.5543 253.8850 Z"></path>
<path id="" fill="#fffefe" fill-opacity="1.0" stroke="#000000" stroke-width="0.0" stroke-opacity="1.0" stroke-linecap="round" stroke-linejoin="round"  filling="0" d="M294.5275 66.5233 C298.2400 67.7202 304.4300 69.7290 307.4100 72.1515 C304.0825 72.5113 300.2025 71.9308 296.8325 71.7688 C296.0600 70.3030 294.6300 68.1647 294.5275 66.5233 Z"></path>
<path id="" fill="#784719" fill-opacity="1.0" stroke="#000000" stroke-width="0.0" stroke-opacity="1.0" stroke-linecap="round" stroke-linejoin="round"  filling="0" d="M212.1938 215.1743 C217.7937 213.5358 223.6613 216.7498 225.2957 222.3510 C226.9303 227.9523 223.7122 233.8175 218.1098 235.4480 C212.5130 237.0773 206.6548 233.8630 205.0217 228.2672 C203.3887 222.6715 206.5990 216.8110 212.1938 215.1743 Z"></path>
<path id="" fill="#784719" fill-opacity="1.0" stroke="#000000" stroke-width="0.0" stroke-opacity="1.0" stroke-linecap="round" stroke-linejoin="round"  filling="0" d="M294.2075 215.1608 C299.8300 213.5260 305.7075 216.7890 307.2950 222.4263 C308.8800 228.0635 305.5675 233.9130 299.9175 235.4515 C294.3350 236.9713 288.5700 233.7065 287.0025 228.1370 C285.4350 222.5675 288.6500 216.7758 294.2075 215.1608 Z"></path>
<path id="" fill="#784719" fill-opacity="1.0" stroke="#000000" stroke-width="0.0" stroke-opacity="1.0" stroke-linecap="round" stroke-linejoin="round"  filling="0" d="M265.9000 367.9600 C266.7325 367.9825 267.3725 368.1225 268.1475 368.4375 C269.7525 369.0975 271.0200 370.2475 271.6275 371.8925 C272.1075 373.1900 272.1025 374.6175 271.4900 375.8700 C270.5925 377.7000 268.8525 378.6850 266.9800 379.2800 C266.0275 379.2500 265.0250 379.2500 264.1075 378.9575 C262.8675 378.5650 261.7700 377.6425 261.2300 376.4525 C260.6150 375.0950 260.6125 373.4325 261.1400 372.0475 C261.9950 369.8150 263.8525 368.8675 265.9000 367.9600 Z"></path>
<path id="" fill="#784719" fill-opacity="1.0" stroke="#000000" stroke-width="0.0" stroke-opacity="1.0" stroke-linecap="round" stroke-linejoin="round"  filling="0" d="M223.7827 367.9875 C225.1548 367.8600 226.5383 368.0800 227.7655 368.7275 C229.8038 369.8025 230.5390 371.6725 231.2267 373.7200 C230.2737 376.2150 229.2685 377.8825 226.8112 379.1300 C226.0233 379.2725 225.2190 379.3025 224.4223 379.2200 C223.0645 379.0750 221.8817 378.5500 221.0287 377.4525 C220.0347 376.1725 219.6983 374.3350 219.9967 372.7600 C220.4308 370.4725 221.9955 369.2550 223.7827 367.9875 Z"></path>
<path id="" fill="rgb(247,128,29)" fill-opacity="1.0" stroke="#000000" stroke-width="0.0" stroke-opacity="1.0" stroke-linecap="round" stroke-linejoin="round"  filling="0" d="M219.3435 445.5700 L219.6738 445.5325 C221.8635 445.2900 232.6138 445.1750 234.0737 446.3400 L233.9402 446.8500 C231.3955 447.1975 221.8695 447.6275 219.8815 446.4825 C219.4480 446.2350 219.4945 446.0200 219.3435 445.5700 Z"></path>
<path id="" fill="rgb(247,128,29)" fill-opacity="1.0" stroke="#000000" stroke-width="0.0" stroke-opacity="1.0" stroke-linecap="round" stroke-linejoin="round"  filling="0" d="M269.7475 445.1000 C270.1125 445.1350 270.4725 445.2000 270.8325 445.2575 C271.2025 445.7300 271.2425 445.7975 271.3100 446.3925 C271.2575 446.4550 271.2150 446.5250 271.1550 446.5825 C269.8275 447.8125 264.3175 447.3075 262.4375 447.2825 C261.9875 447.2350 261.7100 447.1150 261.2975 446.9400 L261.1775 446.5250 C262.8275 445.3675 267.6425 445.3350 269.7475 445.1000 Z"></path>
<path id="" fill="#37474f" fill-opacity="1.0" stroke="#000000" stroke-width="0.0" stroke-opacity="1.0" stroke-linecap="round" stroke-linejoin="round"  filling="0" d="M105.5010 235.1160 C113.9550 234.6580 122.6292 235.0330 131.1015 235.0332 L181.3468 235.0477 L341.3750 235.0400 L391.5250 235.0335 C398.5600 234.9957 405.5950 235.0625 412.6275 235.2340 C417.8850 235.3647 423.2725 235.3533 428.4275 236.5152 C435.8250 238.1828 443.7275 242.1622 449.1025 247.5650 C458.7075 257.2200 461.0125 269.5600 461.0350 282.6350 L461.0275 378.4125 L461.0300 404.2200 C461.0350 412.2375 461.4750 420.3600 459.8350 428.2550 C458.2275 435.9950 454.0375 443.5725 448.4575 449.1375 C445.4300 452.1575 442.1625 454.3575 438.3275 456.2400 C427.9900 461.3150 418.2675 460.9400 407.1250 460.9550 L183.3938 460.9525 L120.3820 460.9625 L102.1458 460.9650 C97.1248 460.9650 91.9702 461.1100 86.9870 460.4025 C78.3095 459.2000 70.2160 455.3450 63.8158 449.3650 C55.5342 441.5800 51.4395 431.1350 51.1015 419.9000 C50.7653 408.7275 51.0287 397.4750 51.0285 386.2925 L51.0318 322.7450 L51.0255 290.7925 C51.0233 283.8375 50.5300 276.5100 51.7450 269.6525 C53.1562 261.6850 56.9357 253.7600 62.5348 247.8750 C65.3752 244.8895 68.7028 242.5208 72.3362 240.5957 C83.0188 234.9360 93.8183 235.3858 105.5010 235.1160 Z M88.6978 429.7475 C97.2655 429.9650 105.8362 430.0325 114.4062 429.9500 L151.6160 429.9525 L186.8047 429.9300 C191.0708 429.9175 195.4628 430.1800 199.7057 430.0250 C200.5065 429.9950 200.9910 429.8150 201.6285 429.3150 C202.0845 428.5875 202.1248 427.9475 202.2095 427.1175 L202.4803 426.9950 C203.9345 427.5950 204.4265 428.6350 205.1978 429.9150 C222.2173 430.1700 239.2585 430.0175 256.2800 430.0100 L275.5800 429.9825 C278.5400 429.9725 281.6025 430.1225 284.5500 429.9450 C285.4600 429.8900 286.2050 429.7550 286.9925 429.2975 C287.4100 428.6825 287.4175 428.2425 287.4425 427.5300 C288.0550 427.0275 288.7550 426.9200 289.5550 427.0350 C289.6525 427.0500 289.7475 427.0775 289.8450 427.0975 L289.9075 427.3825 C289.4100 428.0025 288.6950 428.6325 288.6400 429.4275 C289.2050 429.9000 289.8350 429.9175 290.5450 429.9450 C293.4375 430.0600 296.3800 429.9050 299.2775 429.9125 L320.3400 429.9500 L381.1875 429.9425 C386.1950 429.9425 392.4650 430.9175 396.3400 427.0875 C397.7800 425.6650 398.6975 424.0175 398.9475 421.9925 C399.5325 417.2825 399.0875 412.0175 399.0875 407.2500 L399.0775 376.5400 L399.0775 279.1200 C399.0425 275.0400 399.1200 272.1950 395.9925 269.1150 C394.6525 267.7975 393.3925 266.7050 391.4425 266.5450 C387.1675 266.2000 382.7500 266.4150 378.4550 266.4175 L355.3350 266.4400 L282.8975 266.4400 L152.0307 266.4400 L109.3240 266.4350 C103.6305 266.4325 97.8997 266.2300 92.2122 266.3325 C91.9750 266.3400 91.7380 266.3475 91.5010 266.3575 C88.5170 266.6150 86.3643 267.6500 84.4142 270.0075 C83.2068 271.4675 82.5055 272.9675 82.3260 274.8450 C81.9885 278.3700 82.0920 281.9575 82.0890 285.4975 L82.0900 301.5050 L82.0850 351.4925 L82.0862 397.5125 C82.0872 405.0825 81.5468 414.7125 82.4023 422.0825 C82.7005 424.6525 84.2493 426.5125 86.2380 428.0650 C87.0210 428.6775 87.8427 429.2400 88.6978 429.7475 Z"></path>
<path id="" fill="#77909c" fill-opacity="1.0" stroke="#000000" stroke-width="0.0" stroke-opacity="1.0" stroke-linecap="round" stroke-linejoin="round"  filling="0" d="M419.8250 317.4425 L440.2800 317.5025 L440.2700 378.9325 C433.4675 378.8050 426.6475 378.9300 419.8450 378.9600 C419.4200 358.5775 419.7525 337.8575 419.8250 317.4425 Z"></path>
</svg>