<svg xmlns="http://www.w3.org/2000/svg" viewBox="0 0 512 512" height="512.0px" width="512.0px">
<path id="" fill="#455a64" fill-opacity="1.0" stroke="#000000" stroke-width="0.0" stroke-opacity="1.0" stroke-linecap="round" stroke-linejoin="round"  filling="0" d="M94.9445 51.1217 L177.2475 51.0885 L200.7328 51.0715 C207.7095 51.0652 214.8692 50.8000 221.7507 52.1162 C229.4275 53.5843 237.7733 57.2580 243.4080 62.7793 C253.3275 72.4998 255.8725 81.6385 256.0175 95.2372 L256.1125 252.3950 L256.0600 305.7200 L256.0450 321.4875 C256.0375 325.8750 256.1800 330.2875 255.4375 334.6300 C253.9800 343.1550 249.3817 351.0450 243.3472 357.1575 C234.4000 366.2175 222.7137 368.4750 210.4877 368.5700 L123.3825 368.6425 L101.7265 368.6275 C96.1357 368.6050 90.4688 368.8075 84.9570 367.7200 C77.1965 366.2425 70.0052 362.6200 64.1980 357.2650 C54.9868 348.6600 51.5960 337.8450 51.1750 325.5375 C50.9693 319.5250 51.1495 313.4800 51.1452 307.4625 L51.1382 271.2175 L51.1335 167.0350 L51.1270 114.2053 L51.1355 99.0440 C51.1415 94.8992 51.0200 90.7105 51.5970 86.5965 C52.7245 78.5558 56.2825 70.4847 61.8795 64.5428 C70.7032 55.1755 82.3445 51.4552 94.9445 51.1217 Z"></path>
<path id="" fill="#baddfa" fill-opacity="1.0" stroke="#000000" stroke-width="0.0" stroke-opacity="1.0" stroke-linecap="round" stroke-linejoin="round"  filling="0" d="M90.2802 91.8455 C96.8060 91.3555 103.6520 91.7870 110.2055 91.7925 L148.8203 91.7802 L194.8817 91.7925 C202.4010 91.7935 210.1098 91.3855 217.6068 91.8165 C219.2220 91.9095 220.6890 92.3515 222.0025 93.3173 C223.3672 94.3207 224.4060 95.7442 224.6037 97.4560 C224.9798 100.7085 224.7670 104.1175 224.7473 107.3925 L224.7442 121.9755 L224.7560 174.9510 L224.7482 272.8800 L224.7467 304.5675 C224.7475 309.7950 224.8905 315.0525 224.7587 320.2750 C224.7072 322.3100 224.5647 324.4200 223.2103 326.0500 C221.4250 328.2000 218.7905 328.9175 216.1260 329.1000 C205.9048 329.2750 195.6633 329.1450 185.4395 329.1475 L133.6212 329.1775 L105.1808 329.1675 C100.3870 329.1725 95.3175 329.5325 90.5663 329.1075 C88.6620 328.9375 86.9295 328.4275 85.3830 327.2700 C83.6093 325.9425 82.5117 324.0375 82.2310 321.8475 C81.8173 318.6200 82.0157 315.2175 82.0195 311.9650 L82.0390 295.7700 L82.0253 240.7253 L82.0120 143.9292 L81.9877 113.2495 C81.9775 108.9930 81.6797 104.6338 81.8455 100.3940 C81.9235 98.3978 82.4395 96.3720 83.7320 94.8053 C85.4417 92.7328 87.7233 92.0827 90.2802 91.8455 Z"></path>
<path id="" fill="#536d79" fill-opacity="1.0" stroke="#000000" stroke-width="0.0" stroke-opacity="1.0" stroke-linecap="round" stroke-linejoin="round"  filling="0" d="M193.9512 102.1080 C194.2730 102.0850 194.5915 102.0745 194.9142 102.0688 C212.7063 101.7470 230.5777 101.9185 248.3752 101.9775 C252.7850 101.9922 257.1900 102.2238 261.6000 102.1852 C273.9600 102.0938 286.3175 102.0667 298.6775 102.1045 C307.0925 102.1010 316.7325 101.4375 324.9550 103.0740 C332.8825 104.6520 340.8650 108.8987 346.6425 114.5327 C356.4775 124.1260 358.6325 136.2303 358.7600 149.3503 L358.7525 307.5825 L358.7700 356.7525 C358.7650 365.8600 359.4025 376.3500 358.0500 385.2500 C356.8200 393.3475 352.9175 402.6075 347.0700 408.4925 C339.0400 416.5725 328.3400 420.0475 317.1625 420.0300 L230.1452 420.0200 L205.9357 420.0275 C199.7917 420.0300 193.4685 420.3375 187.3935 419.3050 C180.5658 418.1450 173.5273 414.9750 168.1738 410.5750 C160.3822 404.0875 155.2903 394.9275 153.8932 384.8850 C153.3663 380.9700 153.4088 376.9550 153.3103 373.0075 C153.2162 369.2500 152.8997 365.3850 153.0870 361.6325 C153.2402 358.5625 153.8450 355.5200 153.9413 352.4450 C154.0795 348.0250 154.1955 343.3725 153.9290 338.9625 C153.7863 336.6050 153.4290 334.2550 153.2225 331.9000 C152.9818 329.1600 153.8217 325.4650 153.6720 322.0825 C153.1302 309.8425 153.2227 297.6350 153.2205 285.3875 L153.2157 238.5775 L153.2045 173.7092 L153.2057 155.3017 C153.2070 148.7630 153.1268 142.1853 154.1803 135.7092 C155.3698 128.3975 159.2230 121.2275 164.0385 115.6557 C171.2088 107.3600 183.2397 102.8522 193.9512 102.1080 Z"></path>
<path id="" fill="#baddfa" fill-opacity="1.0" stroke="#000000" stroke-width="0.0" stroke-opacity="1.0" stroke-linecap="round" stroke-linejoin="round"  filling="0" d="M192.9495 133.0927 C196.1438 132.8380 199.4288 132.9685 202.6345 132.9725 L218.7287 132.9790 L270.3625 132.9795 L303.4675 132.9780 C308.1000 132.9722 315.2250 132.4292 319.5950 133.2275 C322.1125 133.6875 325.1275 135.2030 326.5150 137.4288 C327.8175 139.5177 328.3600 142.3345 328.4900 144.7725 C328.6075 146.9897 328.5025 149.2430 328.5425 151.4670 C328.6050 154.8183 328.8025 158.1780 328.6650 161.5290 C328.5125 165.2312 328.1150 168.9280 328.0425 172.6333 C327.9075 179.6837 328.4100 186.6785 328.3725 193.6243 C328.3600 195.9920 328.1175 198.3620 328.0650 200.7315 C327.9675 204.9953 328.0150 209.2733 328.0350 213.5385 L328.7000 319.5975 L328.7125 339.5200 C328.7250 345.3500 329.0325 357.0500 327.5900 362.2000 C326.8100 364.9775 323.4850 367.1225 321.0900 368.4425 C320.8600 368.5125 320.6275 368.5700 320.3900 368.6200 C316.0450 369.5450 308.8900 368.9975 304.2550 369.0000 L271.3800 369.0000 L219.8793 368.9800 L203.6375 368.9700 C200.2040 368.9725 196.7200 369.0875 193.2962 368.8175 C191.4207 368.6700 189.8745 367.9700 188.3333 366.9050 C186.6125 365.7175 184.6228 363.7750 184.3118 361.6200 C183.8535 358.4425 184.0367 354.9200 184.0358 351.7100 L184.0365 336.6300 L184.0510 283.5850 L184.0562 188.7827 L184.0312 159.0665 C184.0222 153.5485 183.8265 147.9525 184.0782 142.4413 C184.1875 140.0473 184.6207 138.3212 186.1908 136.4303 C188.0002 134.2513 190.1765 133.3002 192.9495 133.0927 Z"></path>
<path id="" fill="#baddfa" fill-opacity="1.0" stroke="#000000" stroke-width="0.0" stroke-opacity="1.0" stroke-linecap="round" stroke-linejoin="round"  filling="0" d="M92.4355 81.5850 C93.5760 81.4108 94.7832 81.4358 95.9375 81.4232 C122.5902 81.1342 149.2880 81.4350 175.9453 81.4337 L201.8598 81.4368 C206.3067 81.4382 211.1070 81.0825 215.5098 81.6010 C218.1270 81.9095 220.8602 82.6365 222.7535 84.5780 C225.4357 87.3282 225.7953 90.6745 225.6902 94.3083 C224.3085 94.0260 223.1082 93.3947 221.7850 92.9402 C218.9685 91.9727 216.4375 91.9763 213.5130 92.0107 L134.6835 92.0163 L109.5095 92.0195 C104.5650 92.0202 99.5615 91.8572 94.6263 92.1430 C92.2962 92.2777 88.7502 92.3733 86.6150 93.3670 C85.0202 94.1090 84.0270 96.0855 82.1350 96.2140 C81.6435 95.8067 81.5383 95.5172 81.4715 94.8730 C81.1407 91.6823 81.7433 87.5707 83.8045 85.0618 C86.0215 82.3633 89.2012 81.9693 92.4355 81.5850 Z"></path>
<path id="" fill="#455a64" fill-opacity="1.0" stroke="#000000" stroke-width="0.0" stroke-opacity="1.0" stroke-linecap="round" stroke-linejoin="round"  filling="0" d="M82.0262 313.4325 C84.4442 314.2950 87.4670 316.8075 89.4405 317.2325 C97.9015 316.7600 106.4640 316.9875 114.9390 316.9850 C126.2480 316.9450 137.5573 316.9650 148.8663 317.0475 L154.2830 316.9800 C154.0332 320.9500 153.8123 325.2950 154.2980 329.2425 C154.1970 329.2275 154.0963 329.2150 153.9950 329.2025 C148.6472 328.5625 142.4572 329.0475 137.0130 329.0525 L103.3418 329.0725 C98.6953 329.0775 93.5630 329.5675 88.9920 328.9025 C87.0920 328.6250 85.1947 328.1125 83.9220 326.5975 C81.0627 323.1975 81.8925 317.5850 82.0262 313.4325 Z"></path>
<path id="" fill="#7b97aa" fill-opacity="1.0" stroke="#000000" stroke-width="0.0" stroke-opacity="1.0" stroke-linecap="round" stroke-linejoin="round"  filling="0" d="M89.4405 317.2325 C97.9015 316.7600 106.4640 316.9875 114.9390 316.9850 C126.2480 316.9450 137.5573 316.9650 148.8663 317.0475 C150.8825 317.3150 152.9415 317.3375 154.9727 317.4200 C153.4210 317.6925 151.8935 317.8800 150.3177 317.9375 C144.6107 318.1450 91.7410 318.5200 89.6942 317.4150 C89.6028 317.3650 89.5250 317.2925 89.4405 317.2325 Z"></path>
<path id="" fill="#37474f" fill-opacity="1.0" stroke="#000000" stroke-width="0.0" stroke-opacity="1.0" stroke-linecap="round" stroke-linejoin="round"  filling="0" d="M255.3050 378.6575 C264.1350 377.8150 272.0050 384.2175 272.9750 393.0350 C273.9450 401.8500 267.6575 409.8125 258.8575 410.9125 C253.0500 411.6375 247.3000 409.1775 243.8127 404.4775 C240.3255 399.7750 239.6410 393.5600 242.0215 388.2125 C244.4020 382.8650 249.4783 379.2125 255.3050 378.6575 Z"></path>
<path id="" fill="#e38939" fill-opacity="1.0" stroke="#000000" stroke-width="0.0" stroke-opacity="1.0" stroke-linecap="round" stroke-linejoin="round"  filling="0" d="M329.4350 153.3598 C330.8450 153.1940 332.3875 153.2390 333.8125 153.2272 L388.4475 153.3013 L408.8925 153.3040 C415.0275 153.3152 421.5875 153.0165 427.6125 154.3075 C435.6975 156.0405 443.3575 159.8495 449.2550 165.6998 C454.9875 171.3845 459.1075 179.5085 460.3825 187.4727 C461.7025 195.7465 461.0275 205.1467 461.0200 213.5440 L461.0075 257.2750 L461.0275 415.4300 C461.0250 428.5475 458.4125 439.3150 448.8175 448.8325 C441.4850 456.1075 431.7975 460.1200 421.5375 460.8725 C416.9750 461.2050 412.2725 460.9975 407.6975 460.9950 L385.3750 460.9750 L323.7250 460.9800 L306.8775 460.9900 C300.8575 461.0025 294.8500 461.2050 288.9100 460.0175 C281.9325 458.6900 275.4525 455.4750 270.1725 450.7250 C254.2150 436.4275 255.6375 420.9300 256.0125 401.4675 C256.1550 394.0425 255.9800 386.6950 255.5500 379.2850 C255.1850 372.9750 256.1100 366.8975 256.0250 360.6250 C255.6450 332.4900 256.0475 304.3875 256.0575 276.2575 L256.0225 213.9995 C256.0875 205.4707 255.3975 195.8415 256.6150 187.4260 C257.6350 180.3882 260.9500 173.1265 265.7100 167.8335 C277.3475 154.8997 289.0775 153.7355 305.4750 153.6750 C313.4475 153.6455 321.4750 153.8115 329.4350 153.3598 Z"></path>
<path id="" fill="#fef2df" fill-opacity="1.0" stroke="#000000" stroke-width="0.0" stroke-opacity="1.0" stroke-linecap="round" stroke-linejoin="round"  filling="0" d="M295.6850 184.3322 C303.7000 183.9230 311.8650 184.2245 319.8925 184.2328 L363.6450 184.2500 L401.4875 184.2368 C407.8075 184.2323 414.3150 183.8595 420.6100 184.2790 C422.2975 184.3918 423.9525 184.8490 425.3925 185.7505 C427.7475 187.2215 429.1600 189.4073 429.6950 192.1142 C430.5825 196.6003 430.0150 207.4747 430.0125 212.5562 L430.0125 257.0875 L430.0075 350.5175 L430.0350 381.7750 C430.0375 387.2925 430.2075 392.8700 429.9900 398.3800 C429.8925 400.8425 429.6125 403.3300 428.1725 405.4075 C426.5750 407.7100 424.2650 408.9775 421.5500 409.4700 C413.1425 410.0175 404.6025 409.7500 396.1775 409.7525 L354.4625 409.7600 L316.9700 409.7575 C310.1450 409.7650 303.1175 410.1175 296.3225 409.6400 C294.4100 409.5075 292.7575 409.1675 291.1325 408.0725 C288.9650 406.6125 287.3900 404.2300 286.9675 401.6450 C286.5200 398.8975 286.6925 395.8900 286.6900 393.1100 L286.7125 379.4075 L286.6950 332.1275 L286.6775 241.0915 L286.6850 211.3035 C286.6800 205.7453 286.4650 200.1013 286.7075 194.5550 C286.8100 192.1870 287.3700 189.8168 288.8225 187.8945 C290.5650 185.5858 292.9275 184.7095 295.6850 184.3322 Z"></path>
<path id="" fill="#a6642a" fill-opacity="1.0" stroke="#000000" stroke-width="0.0" stroke-opacity="1.0" stroke-linecap="round" stroke-linejoin="round"  filling="0" d="M355.3000 420.0275 C363.7475 418.2750 372.0050 423.7450 373.6900 432.2075 C375.3750 440.6675 369.8425 448.8825 361.3675 450.5025 C352.9850 452.1025 344.8800 446.6450 343.2150 438.2750 C341.5475 429.9050 346.9450 421.7575 355.3000 420.0275 Z"></path>
</svg>