<svg xmlns="http://www.w3.org/2000/svg" viewBox="0 0 512 512" height="512.0px" width="512.0px">
<path id="" fill="#42a5f5" fill-opacity="1.0" stroke="#000000" stroke-width="0.0" stroke-opacity="1.0" stroke-linecap="round" stroke-linejoin="round"  filling="0" d="M91.9565 92.0015 C109.2193 92.3230 126.5488 92.0380 143.8170 92.0265 L237.2943 92.0190 L329.5575 92.0143 C346.0450 92.0150 362.5800 92.2780 379.0600 91.9488 C378.8400 102.5920 379.0100 113.2700 379.0075 123.9163 L379.0075 183.0952 L379.0100 361.1700 L378.9975 432.8225 L379.0300 451.2500 C379.0500 454.3750 379.4100 457.9650 378.9650 461.0325 C372.2525 460.5825 365.4200 460.8150 358.6900 460.8225 L326.4100 460.8500 L224.6577 460.8450 L135.8735 460.8550 L108.3167 460.8425 C102.9050 460.8375 97.3670 460.5825 91.9807 461.0350 C92.2205 455.1350 92.0788 449.1575 92.0825 443.2500 L92.0685 410.8275 L92.0645 314.2450 L92.0608 169.4025 C92.0562 143.6140 92.3670 117.7850 91.9565 92.0015 Z"></path>
<path id="" fill="#8fc9f8" fill-opacity="1.0" stroke="#000000" stroke-width="0.0" stroke-opacity="1.0" stroke-linecap="round" stroke-linejoin="round"  filling="0" d="M132.9933 50.9530 L271.9950 50.9830 L313.5650 50.9750 C321.3525 50.9740 329.1725 50.8167 336.9550 51.0497 C340.4700 52.9935 350.2400 63.6333 353.6900 67.0885 L385.9250 99.3303 L407.7050 121.0985 C411.8100 125.2028 416.2600 129.2160 419.9925 133.6555 C420.4700 141.6053 420.0625 149.8038 420.0625 157.7838 L420.0625 205.1283 L420.0600 352.7725 L420.0550 396.6775 C420.0525 404.3300 419.5650 412.4800 420.2350 420.0650 C415.7050 419.8450 411.0975 419.9900 406.5600 419.9925 L382.7200 420.0125 L310.8400 420.0250 L195.6885 420.0250 C174.7897 420.0250 153.8582 419.7850 132.9633 420.1075 L132.9933 50.9530 Z"></path>
<path id="" fill="#1976d2" fill-opacity="1.0" stroke="#000000" stroke-width="0.0" stroke-opacity="1.0" stroke-linecap="round" stroke-linejoin="round"  filling="0" d="M271.9950 182.1037 C272.0750 182.0968 272.1525 182.0883 272.2325 182.0827 C286.0525 181.1230 302.0200 183.6185 312.6700 193.1418 C321.3400 200.8945 325.3825 212.8710 325.9650 224.2253 C326.5775 236.1530 321.8650 246.9738 314.3300 256.0000 C312.2700 258.4675 309.9400 260.6600 307.7600 263.0125 C304.4900 266.5350 301.2325 270.1525 298.0350 273.7425 C291.4750 281.1050 286.5825 291.1225 287.1250 301.1825 C283.5225 300.8400 279.7625 301.0450 276.1450 301.0425 C271.1100 301.0400 265.9700 300.8550 260.9550 301.2875 C261.0100 290.7525 262.1775 281.1800 266.9375 271.6275 C268.7750 268.3275 270.6600 265.1850 273.1600 262.3250 C282.4750 251.6675 296.4700 243.5273 297.7225 228.0423 C298.1650 222.5675 296.7050 215.6955 293.0625 211.4427 C289.4500 207.2218 284.5925 205.4220 279.1300 205.0547 C273.2325 204.6585 267.0025 206.0255 262.5200 210.0505 C258.1550 213.9710 256.3025 220.0875 255.9850 225.8150 C249.9935 225.5520 243.9122 225.7765 237.9113 225.7838 C235.0215 225.7870 231.3477 226.1922 228.5777 225.3932 C228.2122 224.9357 228.1270 224.7442 228.0612 224.1385 C227.8658 222.3345 228.4175 220.2498 228.7550 218.4675 C230.3293 210.1575 233.0618 203.4173 238.6033 196.9037 C247.0363 186.9917 259.4100 183.1062 271.9950 182.1037 Z"></path>
<path id="" fill="#e1f5fe" fill-opacity="1.0" stroke="#000000" stroke-width="0.0" stroke-opacity="1.0" stroke-linecap="round" stroke-linejoin="round"  filling="0" d="M328.2300 68.6030 C330.5525 68.8305 332.4975 70.9228 334.0775 72.4785 L378.8950 117.3398 L392.6425 131.0430 C395.3425 133.7195 398.2800 136.3302 400.7050 139.2552 C401.7225 140.4825 402.2925 141.3165 402.3050 142.9547 C393.4625 143.1720 384.5850 143.0180 375.7400 143.0182 L328.0125 143.0383 C327.7475 126.8535 327.9875 110.6342 327.9775 94.4455 L327.9525 78.7725 C327.9475 75.4300 327.7575 71.9142 328.2300 68.6030 Z"></path>
<path id="" fill="#1976d2" fill-opacity="1.0" stroke="#000000" stroke-width="0.0" stroke-opacity="1.0" stroke-linecap="round" stroke-linejoin="round"  filling="0" d="M273.8850 320.1000 C277.9500 320.2125 281.8875 321.1600 284.9875 323.9650 C288.1700 326.8475 289.9850 331.4975 290.1050 335.7450 C290.2100 339.5700 288.7025 343.5650 286.0300 346.3225 C283.0225 349.4275 279.5500 350.0250 275.4475 350.1050 C271.0550 350.1400 267.2300 349.9925 263.6625 347.0350 C260.6975 344.5800 259.3500 340.9975 258.9950 337.2625 C258.5750 332.8450 259.3225 328.7550 262.2250 325.2700 C265.3700 321.4950 269.2475 320.5250 273.8850 320.1000 Z"></path>
</svg>