<svg xmlns="http://www.w3.org/2000/svg" viewBox="0 0 512 512" height="512.0px" width="512.0px">
<path id="" fill="#414141" fill-opacity="1.0" stroke="#000000" stroke-width="0.0" stroke-opacity="1.0" stroke-linecap="round" stroke-linejoin="round"  filling="0" d="M102.9342 147.9108 C106.0397 147.7538 109.2370 147.9720 112.3548 147.9815 L132.4650 147.9870 L197.0392 147.9895 L409.0975 147.9435 C409.7450 154.7493 409.5675 161.5067 409.1675 168.3192 C411.5575 168.1655 413.9525 168.0842 416.3475 168.0753 C428.9025 168.0768 442.4300 170.0403 451.6650 179.3972 C455.6675 183.4503 458.5100 189.0228 459.7875 194.5488 C461.8925 203.6625 461.0050 214.3775 461.0075 223.7550 C461.0125 235.4538 461.1100 247.1615 460.9600 258.8600 C461.2125 277.3325 460.9650 295.8575 460.9700 314.3375 L460.9750 333.8100 C460.9775 341.8825 461.1950 349.8700 459.3725 357.8050 C457.7875 364.7075 453.7650 372.2375 448.8600 377.3500 C443.5875 382.8475 434.6625 386.8300 427.2750 388.2700 C424.2525 388.8600 421.1750 388.9975 418.1025 389.0375 C410.4025 389.1350 402.7050 388.9125 395.0050 388.8750 L351.2550 388.8200 L192.4368 388.8200 L124.7350 388.8650 L104.3392 389.0625 C98.5342 389.1200 92.6425 389.3350 86.8820 388.5150 C77.7077 387.2125 69.4547 383.0000 62.8492 376.5775 C53.5923 367.5775 51.2923 355.3775 51.2105 342.9900 L51.2047 291.9650 L51.1837 273.7750 C51.1800 270.6000 51.0240 267.3475 51.2045 264.1800 C51.3715 250.6400 51.2400 237.0862 51.2467 223.5435 C51.2502 216.6033 51.0107 209.5415 51.4725 202.6165 C52.1110 193.0347 54.5615 184.0242 62.1277 177.4783 C73.1053 167.9812 89.0042 167.3638 102.7802 168.4145 C102.4933 162.5408 102.2272 153.6317 102.9342 147.9108 Z"></path>
<path id="" fill="#616161" fill-opacity="1.0" stroke="#000000" stroke-width="0.0" stroke-opacity="1.0" stroke-linecap="round" stroke-linejoin="round"  filling="0" d="M102.9342 147.9108 C106.0397 147.7538 109.2370 147.9720 112.3548 147.9815 L132.4650 147.9870 L197.0392 147.9895 L409.0975 147.9435 C409.7450 154.7493 409.5675 161.5067 409.1675 168.3192 C411.5575 168.1655 413.9525 168.0842 416.3475 168.0753 C428.9025 168.0768 442.4300 170.0403 451.6650 179.3972 C455.6675 183.4503 458.5100 189.0228 459.7875 194.5488 C461.8925 203.6625 461.0050 214.3775 461.0075 223.7550 C461.0125 235.4538 461.1100 247.1615 460.9600 258.8600 C460.5875 260.5100 460.6975 262.2850 460.6900 263.9725 C452.2450 263.8025 443.7775 263.9550 435.3275 263.9450 L384.3125 263.8675 L200.4145 263.8650 L97.9408 263.9050 L67.8503 263.9525 C62.3997 263.9575 56.6145 263.5950 51.2045 264.1800 C51.3715 250.6400 51.2400 237.0862 51.2467 223.5435 C51.2502 216.6033 51.0107 209.5415 51.4725 202.6165 C52.1110 193.0347 54.5615 184.0242 62.1277 177.4783 C73.1053 167.9812 89.0042 167.3638 102.7802 168.4145 C102.4933 162.5408 102.2272 153.6317 102.9342 147.9108 Z"></path>
<path id="" fill="#90caf9" fill-opacity="1.0" stroke="#000000" stroke-width="0.0" stroke-opacity="1.0" stroke-linecap="round" stroke-linejoin="round"  filling="0" d="M125.5443 316.5900 C128.8248 316.2750 132.2628 316.4475 135.5590 316.4500 L153.1452 316.4650 L209.6517 316.4600 L389.3675 316.4650 C389.5875 322.4950 389.2525 328.3675 389.0875 334.3875 C388.9575 339.1000 389.0275 343.8250 389.0250 348.5375 L389.0600 428.7675 C389.0600 431.1900 389.3700 450.2925 388.8975 450.9875 L388.0625 451.0175 L236.2580 451.0000 L163.2168 451.0000 C149.8168 451.0000 136.4005 450.8650 123.0020 451.0550 L122.9875 397.1875 C122.9665 392.4475 122.6425 387.7150 122.5883 382.9725 C122.5220 377.1950 122.3012 318.1525 122.7643 317.0925 C123.5803 316.5950 124.6110 316.6450 125.5443 316.5900 Z"></path>
<path id="" fill="#90caf9" fill-opacity="1.0" stroke="#000000" stroke-width="0.0" stroke-opacity="1.0" stroke-linecap="round" stroke-linejoin="round"  filling="0" d="M122.9303 147.1730 C123.2185 128.0603 122.9880 108.9102 122.9800 89.7937 C122.9765 81.6200 122.6335 73.2827 123.0285 65.1250 C123.0815 64.0342 123.0950 62.2925 123.7145 61.4045 C126.8075 60.4122 131.2375 60.9717 134.4940 60.9872 C140.7018 61.0170 146.9245 60.8918 153.1295 61.0228 C155.9727 61.0827 158.8200 61.4828 161.6562 61.4900 C163.7292 61.4955 165.8025 61.2733 167.8765 61.2547 C169.9783 61.2363 172.0788 61.4280 174.1808 61.3777 C176.2935 61.3273 178.4305 61.1170 180.5420 61.1953 C183.9547 61.3217 187.3172 61.8980 190.7448 61.9050 C194.9227 61.9135 199.0733 61.1660 203.2487 61.0170 C210.2657 60.7668 217.3743 60.9868 224.4003 60.9863 L338.6875 60.9888 L375.0975 60.9690 C377.5600 60.9597 380.1475 61.7675 382.5525 61.6292 C383.9525 61.5485 385.2750 60.9555 386.6950 60.9368 C387.1500 60.9308 388.0000 60.9507 388.2975 61.3398 C388.9300 62.1665 388.9975 64.7035 389.0375 65.7567 C389.4050 75.0967 389.0725 84.5625 389.0725 93.9197 L389.0350 146.0403 L397.9500 146.2720 C401.8100 146.2240 405.7800 146.8135 409.6100 146.6003 C409.6125 154.1245 409.6675 161.6075 409.2550 169.1263 C400.9725 168.8457 392.6375 169.0100 384.3475 169.0098 L341.8175 169.0092 L212.5737 169.0135 L136.3842 169.0213 C131.2012 169.0315 126.0130 168.7428 120.8448 168.7583 C118.2245 168.7663 115.6053 168.9730 112.9837 168.9970 C109.4902 169.0290 105.8692 168.8172 102.4005 169.2032 C102.7665 165.1415 102.6127 161.0432 102.6147 156.9693 C102.6165 153.8882 102.7575 150.8070 102.7455 147.7280 C105.6435 147.5225 109.3687 146.8115 112.2135 147.2635 C115.7852 147.2007 119.3578 147.1707 122.9303 147.1730 Z"></path>
<path id="" fill="#414142" fill-opacity="1.0" stroke="#000000" stroke-width="0.0" stroke-opacity="1.0" stroke-linecap="round" stroke-linejoin="round"  filling="0" d="M397.9500 146.2720 C401.8100 146.2240 405.7800 146.8135 409.6100 146.6003 C409.6125 154.1245 409.6675 161.6075 409.2550 169.1263 C400.9725 168.8457 392.6375 169.0100 384.3475 169.0098 L341.8175 169.0092 L212.5737 169.0135 L136.3842 169.0213 C131.2012 169.0315 126.0130 168.7428 120.8448 168.7583 C118.2245 168.7663 115.6053 168.9730 112.9837 168.9970 C109.4902 169.0290 105.8692 168.8172 102.4005 169.2032 C102.7665 165.1415 102.6127 161.0432 102.6147 156.9693 C102.6165 153.8882 102.7575 150.8070 102.7455 147.7280 C105.6435 147.5225 109.3687 146.8115 112.2135 147.2635 C113.7230 148.4447 120.7030 147.9518 122.7433 147.9263 L122.7660 168.2717 C125.9247 168.8455 129.4590 168.6405 132.6670 168.6463 L146.8925 168.6407 L198.6565 168.6167 L389.2425 168.6425 C389.2450 161.4583 389.1950 154.2742 389.0875 147.0910 C392.9125 147.0160 396.9850 146.5578 400.7875 146.7343 C401.3150 146.7587 401.0675 146.8248 401.4975 146.5825 C400.3850 146.5872 399.3775 146.5165 398.2825 146.3302 L397.9500 146.2720 Z"></path>
<path id="" fill="#424242" fill-opacity="1.0" stroke="#000000" stroke-width="0.0" stroke-opacity="1.0" stroke-linecap="round" stroke-linejoin="round"  filling="0" d="M102.7097 132.8505 C105.5400 132.7405 108.4398 132.9332 111.2765 132.9525 C114.9890 132.9780 118.8455 132.7847 122.5290 133.2688 L122.6103 133.5312 L122.9510 133.4312 C123.3495 134.3710 123.2200 147.2263 122.9293 148.0847 L122.5218 148.1662 C115.9320 147.9200 109.1075 147.9140 102.5420 148.4865 C102.4577 145.8277 101.8635 134.5320 102.7097 132.8505 Z"></path>
<path id="" fill="#424142" fill-opacity="1.0" stroke="#000000" stroke-width="0.0" stroke-opacity="1.0" stroke-linecap="round" stroke-linejoin="round"  filling="0" d="M388.9725 132.9332 C395.8600 133.1947 402.9350 133.1832 409.8200 132.8615 C409.6800 135.9580 410.2175 145.1888 409.0575 147.4160 C402.4475 146.8970 395.6325 147.0015 389.0050 147.1755 C389.0275 142.4280 389.0150 137.6805 388.9725 132.9332 Z"></path>
<path id="" fill="#242424" fill-opacity="1.0" stroke="#000000" stroke-width="0.0" stroke-opacity="1.0" stroke-linecap="round" stroke-linejoin="round"  filling="0" d="M122.0298 307.0800 C127.5327 306.5225 132.8510 307.8725 138.3427 307.8975 L191.4485 307.8975 L309.0650 307.8975 C328.9875 307.8950 348.9725 308.2300 368.8900 307.8700 C371.8975 307.8150 374.8700 307.2150 377.8650 307.1525 C380.5625 307.0975 383.3075 307.6425 386.0075 307.7875 C390.2800 308.0200 395.2050 307.3350 399.3075 308.5625 C401.2000 309.1300 403.2475 310.6075 404.6700 311.9800 C407.5925 314.8025 409.1450 318.4225 409.1625 322.4925 C409.1800 326.7475 407.4500 330.3475 404.4825 333.3100 C399.9750 337.8050 395.0500 338.1250 389.0450 338.1525 C388.9850 331.5800 388.9875 325.0075 389.0525 318.4375 C389.0475 318.0400 389.0175 317.6400 388.9975 317.2425 C388.4375 316.9950 354.8625 317.3075 350.7650 317.3100 L201.8270 317.3250 L149.9710 317.3075 C140.9178 317.3025 131.8370 317.4425 122.7875 317.2500 C123.3805 324.2400 122.9553 331.4550 123.0225 338.4775 C118.6557 337.9400 113.9445 338.0225 110.1562 335.4725 C106.8358 333.2375 103.8660 329.7725 103.1397 325.7600 C102.3935 321.6375 103.0870 317.4850 105.5435 314.0400 C110.1495 307.5775 115.0577 308.2400 122.0298 307.0800 Z"></path>
<path id="" fill="#42a5f5" fill-opacity="1.0" stroke="#000000" stroke-width="0.0" stroke-opacity="1.0" stroke-linecap="round" stroke-linejoin="round"  filling="0" d="M124.3330 317.3475 C128.0225 317.0875 131.7880 317.2100 135.4870 317.2075 L154.2710 317.2100 L211.6810 317.2100 L389.2025 317.2225 C388.9250 320.0575 389.5850 337.0450 388.9100 338.1050 L388.4400 338.0525 C369.8025 337.7625 351.1200 338.0225 332.4800 338.0225 L223.7480 338.0225 L157.9272 338.0175 L136.7142 338.0175 C132.1382 338.0175 127.5265 337.9125 122.9577 338.1800 C123.0215 335.1725 122.4625 319.6050 123.1635 318.0200 C123.3200 317.6675 123.9845 317.5025 124.3330 317.3475 Z"></path>
<path id="" fill="#1976d2" fill-opacity="1.0" stroke="#000000" stroke-width="0.0" stroke-opacity="1.0" stroke-linecap="round" stroke-linejoin="round"  filling="0" d="M173.8885 358.0100 L293.8325 358.0350 L329.0100 358.0275 C335.3775 358.0200 341.9850 357.6375 348.3150 358.1850 C349.9575 361.2300 348.1150 374.4550 349.0100 378.9400 C349.0250 379.0175 349.0450 379.0950 349.0625 379.1700 C344.5050 378.9200 339.8850 379.0450 335.3200 379.0425 L312.6500 379.0375 L242.9382 379.0350 L196.9650 379.0325 L183.3817 379.0325 C180.2610 379.0350 177.0672 378.9025 173.9662 379.2750 C174.0777 372.2325 174.1868 365.0450 173.8885 358.0100 Z"></path>
<path id="" fill="#1976d2" fill-opacity="1.0" stroke="#000000" stroke-width="0.0" stroke-opacity="1.0" stroke-linecap="round" stroke-linejoin="round"  filling="0" d="M173.8895 398.9975 L265.3250 399.0250 L291.8250 399.0125 C296.9425 399.0050 302.2425 398.7100 307.3300 399.2050 C308.9975 402.2725 307.2000 415.4275 308.0450 419.9575 C308.0600 420.0425 308.0800 420.1275 308.0975 420.2125 C305.0675 419.9025 301.9175 420.0350 298.8725 420.0325 L283.9800 420.0300 L236.4872 420.0275 L194.8010 420.0250 C188.5397 420.0250 179.9890 419.5125 173.9637 420.2600 C174.1255 413.2325 174.1823 406.0175 173.8895 398.9975 Z"></path>
<path id="" fill="#00e575" fill-opacity="1.0" stroke="#000000" stroke-width="0.0" stroke-opacity="1.0" stroke-linecap="round" stroke-linejoin="round"  filling="0" d="M418.6450 194.3808 C422.3950 193.9612 426.0800 195.5963 428.2850 198.6580 C430.4900 201.7200 430.8750 205.7332 429.2900 209.1575 C427.7025 212.5820 424.3950 214.8855 420.6325 215.1842 C414.9450 215.6362 409.9450 211.4418 409.4025 205.7612 C408.8600 200.0810 412.9725 195.0150 418.6450 194.3808 Z"></path>
</svg>