<svg xmlns="http://www.w3.org/2000/svg" viewBox="0 0 512 512" height="512.0px" width="512.0px">
<path id="" fill="#009688" fill-opacity="1.0" stroke="#000000" stroke-width="0.0" stroke-opacity="1.0" stroke-linecap="round" stroke-linejoin="round"  filling="0" d="M137.0535 51.3932 C137.1548 51.3815 137.2558 51.3678 137.3573 51.3582 C140.8465 51.0293 144.4698 51.1792 147.9758 51.1792 L165.2900 51.1787 L221.4207 51.1775 L273.6100 51.1655 C283.4100 51.1640 293.9275 50.4693 303.6025 51.8408 C310.1775 52.7728 316.7275 55.3712 321.8775 59.6000 C326.8650 63.6945 331.3425 68.8452 335.9200 73.4207 L363.8050 101.3192 L390.3000 127.7548 C395.0200 132.4673 400.6675 137.2612 404.5475 142.6918 C408.6425 148.4155 411.1325 155.1295 411.7600 162.1387 C412.3225 167.9860 412.0325 174.0148 412.0325 179.8898 L412.0250 209.8112 L412.0225 306.0425 L412.0300 387.2725 L412.0375 411.3350 C412.0425 416.4775 412.3075 421.7975 411.6825 426.9075 C410.7500 434.5275 407.0925 442.1150 402.2000 447.9575 C395.2050 456.3150 385.0750 459.7725 374.5625 460.6700 C368.4125 460.9950 362.1625 460.7975 356.0000 460.7975 L323.9400 460.8000 L225.4933 460.7950 L165.6192 460.7950 L148.0260 460.8125 C143.4420 460.8150 138.8132 460.9475 134.2583 460.3525 C126.2905 459.3150 119.1690 456.1400 113.0007 451.0100 C105.6397 444.8875 101.1030 435.2300 100.2762 425.7775 C99.6045 418.0975 99.9740 410.1650 99.9785 402.4575 L99.9780 362.3750 L99.9792 234.2142 L99.9693 132.4945 L99.9668 102.4010 C99.9675 96.5040 99.6165 90.2923 100.3285 84.4440 C101.2408 76.9530 104.7195 70.1642 109.5470 64.4445 C116.2292 56.5277 126.9250 52.2245 137.0535 51.3932 Z"></path>
<path id="" fill="#fe9800" fill-opacity="1.0" stroke="#000000" stroke-width="0.0" stroke-opacity="1.0" stroke-linecap="round" stroke-linejoin="round"  filling="0" d="M179.5260 236.3828 C190.1178 235.9212 200.8932 236.3082 211.5035 236.3015 L276.0200 236.3118 L316.0375 236.3045 C323.1050 236.2995 330.5775 235.7798 337.5750 236.5930 C341.0550 236.9975 343.8225 238.1770 346.5025 240.4165 C349.0875 242.5770 353.4350 248.0675 353.6650 251.4175 C353.7350 252.4525 353.8025 253.4900 353.8200 254.5275 C353.9775 264.0325 353.8325 273.5625 353.8325 283.0700 L353.8250 338.4800 L353.8450 363.0450 C353.8475 367.4475 354.2750 372.3575 353.5475 376.6850 C352.8825 380.6625 350.6425 384.7350 347.8225 387.5950 C343.5200 391.9550 337.4325 392.7925 331.5950 392.8600 L223.3075 392.8400 L192.2605 392.8675 C186.5875 392.8750 180.4572 393.3275 174.8370 392.5875 C171.2077 392.1075 167.4147 390.3250 164.6837 387.8875 C160.3800 384.0450 158.7345 379.2675 158.4583 373.6175 C158.0477 365.2200 158.3745 356.6750 158.3737 348.2600 L158.3615 299.9400 L158.3517 269.1275 C158.3587 263.8625 157.9187 258.2550 158.6597 253.0475 C159.2623 248.8147 161.0045 245.0535 163.9167 241.9035 C168.0565 237.4263 173.7415 236.5900 179.5260 236.3828 Z"></path>
<path id="" fill="#ffd44e" fill-opacity="1.0" stroke="#000000" stroke-width="0.0" stroke-opacity="1.0" stroke-linecap="round" stroke-linejoin="round"  filling="0" d="M284.9625 236.2057 L305.1100 236.1795 C304.9300 243.0670 305.0550 249.9830 305.0550 256.8725 L305.0575 295.0075 L354.0075 294.9375 C353.7050 301.3275 353.9325 307.8125 353.9575 314.2150 C347.5500 313.9100 341.1100 314.0325 334.6950 314.0350 L305.0125 314.0500 C305.2350 324.0175 305.0800 334.0350 305.0575 344.0075 L354.0150 343.9350 C353.7000 350.3250 353.9300 356.8150 353.9575 363.2150 C347.5300 362.9100 341.0725 363.0325 334.6375 363.0350 L305.0100 363.0500 C305.2450 373.0250 305.0375 383.0425 305.0875 393.0225 C301.1525 392.9175 288.1775 393.6125 285.3825 392.3075 C284.8475 391.2050 284.9925 389.1050 284.9675 387.8900 C284.5575 367.7050 284.9350 347.4500 284.9375 327.2550 L284.9625 236.2057 Z"></path>
<path id="" fill="#ffd54f" fill-opacity="1.0" stroke="#000000" stroke-width="0.0" stroke-opacity="1.0" stroke-linecap="round" stroke-linejoin="round"  filling="0" d="M158.1398 304.9275 L227.1300 304.9275 C226.8927 312.3150 227.0482 319.7500 227.0482 327.1425 L227.0668 367.2750 L227.0708 381.5825 C227.0703 385.0950 227.3180 388.7700 226.6575 392.2325 C226.0685 392.6475 225.5208 392.7600 224.8197 392.8500 C222.5108 393.1500 208.7428 393.3450 207.5477 392.2875 C206.5160 391.3775 206.9662 366.0700 206.9942 363.0750 C190.7115 362.9975 174.4283 363.0075 158.1455 363.1000 L158.1483 343.9350 L207.0293 343.9825 C206.8107 337.3475 206.9335 330.6775 206.9980 324.0400 L158.1552 324.0975 C158.0347 317.7150 158.1283 311.3125 158.1398 304.9275 Z"></path>
</svg>