<svg xmlns="http://www.w3.org/2000/svg" viewBox="0 0 512 512" height="512.0px" width="512.0px">
<path id="" fill="#64b5f6" fill-opacity="1.0" stroke="#000000" stroke-width="0.0" stroke-opacity="1.0" stroke-linecap="round" stroke-linejoin="round"  filling="0" d="M168.1653 117.9048 C178.0650 119.6880 187.9238 122.2670 197.7590 124.4108 L278.8800 142.4575 L369.7000 162.0957 C379.8575 164.2812 390.1925 165.6360 400.2900 168.1300 C404.5325 169.1775 408.4375 171.3118 412.5550 172.7433 C424.2050 176.7932 435.8200 180.8845 447.5325 184.7583 C451.5550 186.0887 456.1825 188.1655 460.3900 188.6172 C459.1075 197.3695 454.9450 206.0435 452.0850 214.3967 L438.0575 256.4450 L374.9900 444.7075 C373.0925 450.3000 371.2850 455.9225 369.5650 461.5725 C364.2675 460.0225 359.3000 457.7175 354.1100 455.8900 L319.1425 443.9050 L220.2700 410.9475 L140.7710 384.3925 C131.0920 381.1975 121.4455 377.9025 111.8330 374.5125 C107.5677 373.0175 103.1198 371.7450 98.9840 369.9250 C98.8913 368.0700 99.0237 366.2425 99.4832 364.4375 C101.0117 358.4375 102.8860 352.5400 104.5558 346.5800 L117.9805 298.6975 C129.8548 254.4875 142.1597 210.3950 154.8935 166.4252 C156.3848 161.1263 157.5580 155.7337 158.9718 150.4130 C160.3480 145.2318 161.9415 140.1095 163.2943 134.9220 C164.3658 130.8123 166.2632 121.1172 168.1653 117.9048 Z"></path>
<path id="" fill="#1e88e5" fill-opacity="1.0" stroke="#000000" stroke-width="0.0" stroke-opacity="1.0" stroke-linecap="round" stroke-linejoin="round"  filling="0" d="M191.6055 152.6350 C196.6250 152.9620 205.0547 155.7693 210.2527 157.0018 L249.2513 165.9760 C291.2200 175.3040 333.0800 185.1115 374.8225 195.3967 C382.7425 197.3440 390.8375 198.6557 398.7150 200.7258 C403.9400 202.0988 417.3575 205.7482 421.3325 208.3685 C420.5375 212.6528 418.3825 216.8017 417.0400 220.9427 L405.8750 255.1600 L378.0875 340.5025 C372.2600 358.1525 365.9825 375.7075 360.5225 393.4700 C359.6550 396.4475 358.5450 399.3575 357.6000 402.3125 C348.5525 401.5800 335.1575 396.8300 326.3200 394.0275 L299.4500 385.7975 L192.1625 353.5475 L154.0168 342.0075 C149.2377 340.5700 144.4955 338.8975 139.6837 337.5925 C140.1080 334.6600 140.9695 331.7825 141.6922 328.9125 C143.9812 319.8250 146.8553 310.8525 149.4303 301.8350 L168.5735 234.1850 L185.4637 174.2375 C186.7400 169.6975 187.9778 165.1465 189.1763 160.5855 C189.8860 157.9695 190.5035 155.1125 191.6055 152.6350 Z"></path>
<path id="" fill="#8fc9f8" fill-opacity="1.0" stroke="#000000" stroke-width="0.0" stroke-opacity="1.0" stroke-linecap="round" stroke-linejoin="round"  filling="0" d="M123.4723 104.9860 C125.8095 104.8867 128.3967 105.7515 130.7745 105.9270 C135.1355 106.2487 139.7050 105.9677 144.0890 105.9673 L222.5390 105.9682 L289.7600 105.9680 L310.2625 105.9482 C314.4950 105.9413 318.8200 105.7610 323.0350 106.1380 C331.5650 106.9010 342.3100 109.8290 350.9875 111.4175 L380.3950 116.8473 C388.0325 118.2330 395.7050 119.4532 403.2500 121.2997 C402.7075 126.4922 401.4075 131.6812 400.4725 136.8225 C397.8575 151.1970 394.7700 165.5052 392.2500 179.8898 L367.4600 318.2675 L356.4025 377.5650 C355.0850 384.7825 353.2650 391.9700 352.2275 399.2300 C352.0950 400.1675 352.1850 401.5350 351.4975 402.1825 L350.4475 402.1075 C346.2125 401.9850 341.9275 400.9150 337.7475 400.2625 C322.6575 397.9075 307.7425 394.5775 292.7100 391.8875 L130.9702 362.2200 C124.9993 361.1225 119.0205 359.7750 113.0258 358.8450 C109.7040 358.3300 106.3075 358.2475 103.0048 357.6500 C100.5048 357.1975 98.0705 356.3825 95.5865 355.8425 C91.7318 355.0050 87.8053 354.3775 83.9342 353.6000 C80.1927 352.8500 76.3262 352.6750 72.5927 351.8775 C71.7903 351.7050 70.8540 351.5025 70.2445 350.9150 C69.9303 350.6125 70.0340 350.2775 70.0573 349.8775 C70.2158 347.1750 71.3037 344.3675 71.9990 341.7600 C72.8885 338.3300 73.7588 334.8950 74.6097 331.4575 C76.9520 321.9850 78.8785 312.3200 80.9100 302.7700 L111.0683 158.0075 L118.0975 123.8015 C119.0472 119.0450 119.6630 111.4778 121.5193 107.2420 C121.9312 106.3012 122.7225 105.6570 123.4723 104.9860 Z M228.3235 141.0340 L193.8492 141.0460 C188.5358 141.0502 182.8305 141.4765 177.5585 140.9275 C176.9057 140.2170 176.8707 139.2990 176.7818 138.3565 C174.2292 137.6178 165.9465 137.7595 163.2240 138.1660 C162.6602 141.6930 161.2888 145.2515 160.3228 148.7003 C158.7675 154.2525 157.4193 159.8560 155.8350 165.4048 C155.1125 168.2227 154.5517 171.1030 153.4415 173.8008 C150.7493 181.6570 149.7365 189.7767 148.1062 197.8913 L138.3380 248.9933 C138.1225 250.1625 138.5805 251.2600 138.4230 252.4075 C138.0397 255.2000 136.7603 258.0150 136.1925 260.8125 L130.3755 289.9875 C129.7720 293.0250 129.1680 296.0475 128.4798 299.0675 C127.9553 301.3700 127.2087 303.8025 127.0300 306.1475 C126.9055 307.7825 127.4368 309.1600 128.1022 310.6200 C129.7830 310.9000 131.4577 311.5075 133.1272 311.7025 C135.9940 312.0375 138.2635 310.7800 141.0733 312.0625 C142.8528 311.9900 144.2455 311.6025 145.7405 310.6075 C147.5253 309.4175 148.1935 306.9700 148.7807 305.0100 C150.4158 299.5525 150.1033 293.7850 151.4592 288.2875 C152.1525 285.4750 153.4503 282.7200 154.4115 279.9875 C155.3262 277.3875 155.9155 274.6800 156.8570 272.0900 C158.6575 267.1325 160.7295 262.4025 162.2835 257.3375 C162.8092 255.6250 163.3625 253.8925 163.5692 252.1075 C163.8647 249.5555 163.7278 246.5750 164.4665 244.1187 C165.0748 242.0957 166.0643 240.1910 166.8092 238.2177 C167.4360 236.5573 167.8295 234.8125 168.4025 233.1328 C169.1915 230.8205 170.1062 228.5533 170.8485 226.2242 C172.6832 220.4670 174.3768 214.5020 175.8560 208.6445 C176.4840 206.1577 176.9438 203.6243 177.6147 201.1497 C178.7287 197.0428 180.3902 193.0815 181.5508 188.9750 C183.2278 183.0412 183.6337 176.7522 185.3618 170.8282 C185.9122 168.9402 187.0845 167.2242 187.8105 165.3930 C189.4205 161.3318 190.5638 156.7693 191.5273 152.5075 C195.7908 153.8392 200.1795 154.2753 204.4755 155.3760 C207.1557 156.0627 209.7830 156.9462 212.4702 157.6147 C229.8750 161.9438 247.4770 165.6140 264.9475 169.6820 C285.8650 174.5527 306.7650 179.6398 327.7525 184.1893 C335.8150 185.9370 344.7450 189.1180 352.9850 188.9465 C355.2300 187.0360 357.7325 185.5085 360.2100 183.9240 C362.3775 177.3147 363.4500 169.8760 364.1525 162.9512 C364.1025 162.6550 363.9875 162.3783 363.8875 162.0948 C363.4475 161.7340 363.0800 161.5120 362.5275 161.3522 C361.1700 160.9588 359.7125 160.9527 358.3275 160.6775 C357.2525 160.4635 356.2125 160.0640 355.1350 159.8392 C352.0575 159.1987 348.9525 158.7108 345.8800 158.0482 L287.4075 145.1873 C279.0425 143.3415 268.8875 141.9780 260.9600 139.1625 C254.9000 137.1365 235.1662 137.9395 228.0615 138.2670 C228.1367 139.1913 228.2135 140.1130 228.3235 141.0340 Z"></path>
<path id="" fill="#42a5f5" fill-opacity="1.0" stroke="#000000" stroke-width="0.0" stroke-opacity="1.0" stroke-linecap="round" stroke-linejoin="round"  filling="0" d="M191.5273 152.5075 C195.7908 153.8392 200.1795 154.2753 204.4755 155.3760 C207.1557 156.0627 209.7830 156.9462 212.4702 157.6147 C229.8750 161.9438 247.4770 165.6140 264.9475 169.6820 C285.8650 174.5527 306.7650 179.6398 327.7525 184.1893 C335.8150 185.9370 344.7450 189.1180 352.9850 188.9465 C355.2300 187.0360 357.7325 185.5085 360.2100 183.9240 C360.6075 187.0560 358.2450 197.3078 357.5925 200.9275 L351.1175 236.4295 L339.6325 302.7375 C337.0300 317.8350 334.1500 332.8900 331.9825 348.0600 C324.6700 347.4350 317.3950 345.7250 310.1775 344.4275 L262.1500 335.4675 L184.5842 321.1300 C174.0762 319.2650 163.5915 317.2725 153.1328 315.1500 C149.6772 314.4425 145.9738 314.0150 142.5952 313.1000 C141.8748 312.9050 141.5585 312.5850 141.0733 312.0625 C142.8528 311.9900 144.2455 311.6025 145.7405 310.6075 C147.5253 309.4175 148.1935 306.9700 148.7807 305.0100 C150.4158 299.5525 150.1033 293.7850 151.4592 288.2875 C152.1525 285.4750 153.4503 282.7200 154.4115 279.9875 C155.3262 277.3875 155.9155 274.6800 156.8570 272.0900 C158.6575 267.1325 160.7295 262.4025 162.2835 257.3375 C162.8092 255.6250 163.3625 253.8925 163.5692 252.1075 C163.8647 249.5555 163.7278 246.5750 164.4665 244.1187 C165.0748 242.0957 166.0643 240.1910 166.8092 238.2177 C167.4360 236.5573 167.8295 234.8125 168.4025 233.1328 C169.1915 230.8205 170.1062 228.5533 170.8485 226.2242 C172.6832 220.4670 174.3768 214.5020 175.8560 208.6445 C176.4840 206.1577 176.9438 203.6243 177.6147 201.1497 C178.7287 197.0428 180.3902 193.0815 181.5508 188.9750 C183.2278 183.0412 183.6337 176.7522 185.3618 170.8282 C185.9122 168.9402 187.0845 167.2242 187.8105 165.3930 C189.4205 161.3318 190.5638 156.7693 191.5273 152.5075 Z"></path>
<path id="" fill="#42a5f5" fill-opacity="1.0" stroke="#000000" stroke-width="0.0" stroke-opacity="1.0" stroke-linecap="round" stroke-linejoin="round"  filling="0" d="M260.9600 139.1625 C261.3625 138.8783 261.7075 138.6268 262.2100 138.5582 C264.0925 138.3002 266.2200 138.5027 268.1375 138.5005 L281.3025 138.5013 L307.6450 138.5030 C314.6525 138.5070 321.6925 138.2005 328.6250 139.3915 L367.4450 146.3152 L365.0225 158.5997 C364.7575 159.9280 364.6450 161.7315 364.1525 162.9512 C364.1025 162.6550 363.9875 162.3783 363.8875 162.0948 C363.4475 161.7340 363.0800 161.5120 362.5275 161.3522 C361.1700 160.9588 359.7125 160.9527 358.3275 160.6775 C357.2525 160.4635 356.2125 160.0640 355.1350 159.8392 C352.0575 159.1987 348.9525 158.7108 345.8800 158.0482 L287.4075 145.1873 C279.0425 143.3415 268.8875 141.9780 260.9600 139.1625 Z"></path>
<path id="" fill="rgb(71,170,254)" fill-opacity="1.0" stroke="#000000" stroke-width="0.0" stroke-opacity="1.0" stroke-linecap="round" stroke-linejoin="round"  filling="0" d="M176.7818 138.3565 C180.1530 138.7925 226.8293 138.7785 228.0615 138.2670 C228.1367 139.1913 228.2135 140.1130 228.3235 141.0340 L193.8492 141.0460 C188.5358 141.0502 182.8305 141.4765 177.5585 140.9275 C176.9057 140.2170 176.8707 139.2990 176.7818 138.3565 Z"></path>
<path id="" fill="rgb(71,170,254)" fill-opacity="1.0" stroke="#000000" stroke-width="0.0" stroke-opacity="1.0" stroke-linecap="round" stroke-linejoin="round"  filling="0" d="M158.9543 138.3350 C160.3802 138.4055 161.8027 138.2697 163.2240 138.1660 C162.6602 141.6930 161.2888 145.2515 160.3228 148.7003 C158.7675 154.2525 157.4193 159.8560 155.8350 165.4048 C155.8743 164.6160 155.8740 164.2878 155.4420 163.6122 C155.0450 162.9910 154.9637 162.6605 154.8940 161.9308 C155.8205 158.7880 156.1358 155.2550 156.6817 152.0152 C157.4495 147.4603 158.3955 142.9212 158.9543 138.3350 Z"></path>
<path id="" fill="#4caf50" fill-opacity="1.0" stroke="#000000" stroke-width="0.0" stroke-opacity="1.0" stroke-linecap="round" stroke-linejoin="round"  filling="0" d="M69.0330 68.0663 L240.5145 68.0222 L293.2850 68.0172 C302.8625 68.0132 312.5175 68.2467 322.0900 67.9330 C321.9000 97.4835 322.3525 127.0475 322.0150 156.5952 C321.9750 160.1662 321.1700 163.6967 321.0625 167.2648 C320.6825 179.9263 321.1650 192.6528 321.0000 205.3242 C320.9375 210.1127 320.1600 214.8450 320.0900 219.6430 C319.8550 235.8105 319.9475 252.0400 320.0775 268.2100 C320.1050 271.5875 320.5975 274.9575 320.5925 278.3200 L320.5825 297.1100 C320.5825 298.7625 320.2500 300.4900 320.3575 302.1275 C320.4175 303.0150 320.8750 303.9800 321.2000 304.8025 L319.6375 307.9275 C310.8375 308.1200 302.0300 307.9050 293.2300 308.0025 C289.5350 308.0450 285.8425 308.4300 282.1525 308.4150 C276.5850 308.3900 271.0300 308.0175 265.4700 307.9925 L204.2043 307.9850 C191.4320 307.9825 178.5887 307.7075 165.8228 308.0050 C161.9550 308.0950 158.0920 308.5250 154.2280 308.7250 C150.8788 308.8975 147.4973 308.8475 144.1450 308.8350 C140.0862 308.8225 136.0355 308.6425 131.9790 308.5850 C129.7355 308.5525 127.4835 308.7100 125.2418 308.6300 C122.3922 308.5275 119.5697 308.0750 116.7170 308.0100 C107.6348 307.8000 98.5055 307.9675 89.4180 307.9675 C82.5805 307.9675 75.2842 307.4775 68.5045 308.3050 C68.4300 303.5625 68.2550 298.8125 68.3425 294.0725 C68.6243 272.4800 68.4228 250.8550 68.3795 229.2603 L68.3425 129.6710 L68.3528 86.5222 C68.3755 81.0190 68.0908 75.3477 68.3375 69.8702 C68.3720 69.1072 68.4677 68.6155 69.0330 68.0663 Z"></path>
<path id="" fill="#fefefe" fill-opacity="1.0" stroke="#000000" stroke-width="0.0" stroke-opacity="1.0" stroke-linecap="round" stroke-linejoin="round"  filling="0" d="M150.0435 182.3340 C144.5515 178.8785 139.9753 175.1580 138.4895 168.5025 C137.2530 163.1780 138.2360 157.5795 141.2130 152.9948 C144.2168 148.3372 148.9850 144.6387 154.4530 143.4650 C159.2925 142.4263 164.1622 143.0220 168.3242 145.7538 C169.7770 146.7072 171.2513 147.9310 172.8938 148.5050 C173.4467 148.6983 174.0500 149.0688 174.6187 148.8987 C173.4357 142.9668 173.8685 136.9433 177.2970 131.8115 C180.4592 127.0785 185.5912 123.8878 191.1570 122.8325 C196.3468 121.8488 202.0647 123.3025 206.3995 126.2695 C211.1107 129.4942 214.1455 134.7547 215.1577 140.3165 C215.4235 141.7762 215.6107 143.2717 215.3907 144.7485 C215.2595 145.6288 214.6830 147.4162 214.9552 148.2025 C218.0455 147.9433 220.2397 145.9722 222.9455 144.6897 C229.7043 141.4863 237.8483 143.1393 243.4345 147.9182 C247.5853 151.4693 250.5575 156.6015 250.9675 162.1022 C251.3425 167.1422 249.9662 172.7535 246.6210 176.6220 C245.3858 178.0375 243.9568 179.2715 242.3765 180.2878 C241.5680 180.8062 236.8938 183.0820 236.6758 183.5355 C236.5585 183.7795 236.6655 184.8560 236.6628 185.1862 C237.4487 186.0785 239.7957 186.5417 240.9040 187.1910 C246.4850 190.4615 251.8525 198.0703 251.4250 204.7625 C251.0450 210.7077 248.0980 216.6693 243.5620 220.4892 C239.5538 223.8647 234.4337 226.1037 229.1175 225.6308 C227.2598 225.4655 225.2677 225.0265 223.5508 224.2935 C220.8250 223.1300 217.8353 220.3132 214.7652 220.5123 C214.4330 221.3943 215.0745 223.5428 215.0700 224.6557 C215.0345 233.4608 211.4745 240.2550 203.1855 244.0015 C198.3703 246.1780 192.3853 246.6508 187.4085 244.7328 C182.4498 242.8217 177.7318 238.6905 175.5865 233.7843 C174.0985 230.3817 173.9170 226.8022 174.0110 223.1420 C174.0230 222.3423 174.1405 221.8845 173.7245 221.1888 C172.8492 220.7840 171.4433 221.3418 170.5280 221.5630 C169.7747 222.0338 169.0110 222.4785 168.2085 222.8615 C162.4535 225.6085 157.9800 226.4328 151.8960 224.2242 C146.7015 222.3390 141.9922 218.0195 139.7077 212.9805 C137.5445 208.2088 137.4617 202.4348 139.3398 197.5603 C141.7352 191.3427 146.3257 188.0997 152.2068 185.4805 C152.0430 183.9725 151.0825 183.2950 150.0435 182.3340 Z"></path>
<path id="" fill="#4eb052" fill-opacity="1.0" stroke="#000000" stroke-width="0.0" stroke-opacity="1.0" stroke-linecap="round" stroke-linejoin="round"  filling="0" d="M178.0945 212.2092 C176.4450 215.6330 174.7012 219.3940 174.0110 223.1420 C174.0230 222.3423 174.1405 221.8845 173.7245 221.1888 C172.8492 220.7840 171.4433 221.3418 170.5280 221.5630 C173.2515 218.5573 175.7245 215.5083 178.0945 212.2092 Z"></path>
<path id="" fill="#50b154" fill-opacity="1.0" stroke="#000000" stroke-width="0.0" stroke-opacity="1.0" stroke-linecap="round" stroke-linejoin="round"  filling="0" d="M150.0435 182.3340 C153.5137 183.6432 157.0878 184.1133 160.7605 184.4650 C157.8900 184.7193 155.0522 185.0098 152.2068 185.4805 C152.0430 183.9725 151.0825 183.2950 150.0435 182.3340 Z"></path>
<path id="" fill="#baddfa" fill-opacity="1.0" stroke="#000000" stroke-width="0.0" stroke-opacity="1.0" stroke-linecap="round" stroke-linejoin="round"  filling="0" d="M51.1707 50.8398 L338.1150 50.9182 C337.6775 67.7442 338.1350 84.6568 338.0675 101.4962 C338.0425 107.6120 337.0825 113.6495 337.0650 119.8828 C337.0500 124.7995 336.9375 129.7643 337.1825 134.6723 C337.4050 139.1385 338.0200 143.5323 338.0475 148.0170 L338.0525 251.4300 L338.0600 292.1250 C338.0600 299.4150 338.2450 306.7550 338.0025 314.0375 C337.8875 317.4325 337.2500 320.7825 337.0825 324.1725 C336.8750 328.3750 337.6225 332.7900 337.2000 336.9325 C329.0675 338.5025 320.7625 338.0100 312.5175 338.0150 C301.3600 338.0200 290.1225 338.3000 278.9750 337.9750 C275.4625 337.8725 272.0025 337.3250 268.5025 337.1125 C264.5750 336.8750 260.5725 337.0100 256.6350 337.0125 L82.1152 337.0300 C77.1703 337.0650 72.3150 337.7400 67.3890 337.9425 C61.9525 338.1675 56.4422 338.0125 50.9993 338.0500 L50.9870 124.5688 L50.9790 71.2928 C50.9785 67.2010 50.4958 53.8405 51.1707 50.8398 Z M82.0497 286.2400 L207.7260 286.2000 C240.8322 286.2000 273.9800 285.8400 307.0825 286.2425 C306.8575 276.3650 306.9925 266.4650 306.9925 256.5850 L306.9950 205.4068 L307.0100 81.9958 L82.0230 82.0228 L82.0515 217.8730 L82.0520 263.5800 C82.0522 271.0975 82.3660 278.7375 82.0497 286.2400 Z"></path>
<path id="" fill="#ffc107" fill-opacity="1.0" stroke="#000000" stroke-width="0.0" stroke-opacity="1.0" stroke-linecap="round" stroke-linejoin="round"  filling="0" d="M190.4453 164.0380 C201.6293 161.7737 212.5197 169.0430 214.7190 180.2397 C216.9182 191.4368 209.5860 202.2850 198.3763 204.4190 C187.2585 206.5358 176.5182 199.2765 174.3372 188.1710 C172.1560 177.0658 179.3528 166.2835 190.4453 164.0380 Z"></path>
</svg>