<svg xmlns="http://www.w3.org/2000/svg" viewBox="0 0 512 512" height="512.0px" width="512.0px">
<path id="" fill="#cfd8dc" fill-opacity="1.0" stroke="#000000" stroke-width="0.0" stroke-opacity="1.0" stroke-linecap="round" stroke-linejoin="round"  filling="0" d="M61.4055 96.8015 C68.9290 96.8275 76.5048 97.8740 84.0400 97.9300 C89.3777 97.9698 94.6478 96.9147 100.0082 96.8637 C105.3885 96.8123 110.6240 97.7702 115.9600 97.8120 C119.3680 97.8385 122.7513 96.9330 126.1805 96.9033 C128.6947 96.8813 131.1625 97.5188 133.6605 97.6725 C135.9160 97.8112 138.1790 97.1055 140.4368 97.1348 C143.4093 97.1735 146.3590 97.8372 149.3520 97.8443 C154.1207 97.8550 158.8642 96.8832 163.6918 96.8810 C167.8353 96.8792 172.0092 96.8228 176.1495 96.9723 C178.4805 97.0565 180.8008 97.3528 183.1308 97.4465 C184.9425 97.5193 186.7585 97.3997 188.5695 97.4780 C191.8448 97.6192 195.0912 97.9260 198.3743 97.9430 L323.9225 97.8333 C327.2875 97.8408 330.6150 96.9410 334.0050 96.9358 C338.6425 96.9287 343.2575 97.9498 347.9275 97.9655 C352.4900 97.9810 356.9525 96.9250 361.5000 96.9173 C365.1350 96.9110 368.7075 97.7490 372.3300 97.8118 C374.9400 97.8570 377.5525 97.4885 380.1625 97.5175 C383.1250 97.5505 386.0675 97.9142 389.0350 97.8372 C391.4275 97.7750 393.8225 97.4535 396.2175 97.4853 C398.9450 97.5212 401.6750 97.8177 404.4025 97.8980 C409.7800 98.0558 415.2100 98.0250 420.5875 97.9547 C423.5450 97.9160 426.4925 97.2965 429.4375 97.3083 C432.5325 97.3207 435.6050 97.9442 438.7225 97.9210 C442.8725 97.8903 446.8975 96.8350 451.0700 96.8757 L451.0750 356.3125 C451.0725 359.2225 451.0850 362.1325 451.1125 365.0425 C435.2125 364.7850 419.2700 365.0150 403.3650 365.0150 L310.7650 365.0150 L61.0145 365.0400 C60.7265 350.6675 60.9782 336.2350 60.9780 321.8575 L60.9775 239.0730 L60.9787 146.4062 C60.9792 130.6375 60.7485 114.8282 60.9985 99.0632 C61.0107 98.2888 60.9315 97.4528 61.4055 96.8015 Z"></path>
<path id="" fill="#5f7d8a" fill-opacity="1.0" stroke="#000000" stroke-width="0.0" stroke-opacity="1.0" stroke-linecap="round" stroke-linejoin="round"  filling="0" d="M51.3110 80.0772 C56.1452 80.6190 61.4568 80.0782 66.3470 80.0807 L99.9650 80.1093 L212.2332 80.0952 L379.4200 80.0995 L432.2875 80.1030 C441.8725 80.1048 451.6050 80.4702 461.1700 79.9505 C460.8675 84.8542 461.0450 89.8562 461.0525 94.7705 L461.1175 119.5052 C455.2500 119.4485 449.3775 119.7988 443.5075 119.8105 L383.0825 119.8120 L173.6093 119.8027 L86.3557 119.8127 L64.3477 119.7818 C60.0250 119.7370 55.2895 119.2193 51.0247 119.8545 C50.9740 115.1543 50.5725 81.4020 51.3110 80.0772 Z"></path>
<path id="" fill="#c51162" fill-opacity="1.0" stroke="#000000" stroke-width="0.0" stroke-opacity="1.0" stroke-linecap="round" stroke-linejoin="round"  filling="0" d="M306.2200 177.7912 C311.0975 177.3590 317.2450 177.9877 322.2900 177.9905 L352.6625 177.9235 C359.5425 177.9138 366.4725 178.0688 373.3400 177.6790 L373.3275 177.8990 C373.3200 178.0210 373.3150 178.1435 373.3075 178.2655 C373.0425 182.7368 373.7000 187.3313 373.7700 191.8307 C373.9000 200.4312 373.7425 209.0305 373.7850 217.6310 C373.8325 227.0755 374.2300 236.3922 372.9775 245.7798 C363.6150 239.7690 356.9300 230.8098 349.5350 222.6955 C347.3700 224.9758 345.6425 227.6523 343.4225 229.9077 C341.5225 231.8383 339.3325 233.4583 337.3625 235.3143 C335.7425 236.8407 334.3775 238.6248 332.7650 240.1565 C330.8100 242.0115 328.7075 243.7020 326.7750 245.5878 C314.7775 257.2925 303.0650 269.3425 291.2100 281.1975 C289.1150 283.2925 277.1075 295.8800 275.4700 296.2950 C272.0475 293.8300 269.1775 290.4400 266.2100 287.4550 L252.1700 273.4100 L229.8288 251.0900 C225.4962 246.7578 220.5578 242.3505 216.8545 237.4922 C214.1815 242.0685 209.4165 246.0120 205.6727 249.7538 C198.5957 256.8275 191.2552 263.7175 184.4265 271.0250 C182.0685 273.4425 179.3542 275.5825 177.1085 278.0875 C175.5177 279.8600 174.1998 281.8825 172.6487 283.6950 C169.8237 286.9925 162.8800 294.2425 159.4005 296.4250 C156.8483 294.4475 138.9670 276.8375 138.1230 275.0125 C137.9280 274.5925 137.9240 274.4275 138.0760 274.0025 C138.3848 273.1400 139.0770 272.3925 139.7182 271.7600 C144.5063 267.0325 149.2112 262.1650 154.1062 257.5525 C156.0995 255.6725 158.3760 254.1075 160.3280 252.1925 L188.1325 224.7527 L205.8940 206.6490 C209.0258 203.5137 213.0945 198.5135 216.9795 196.5923 C222.4055 200.2660 226.9308 205.5677 231.5547 210.1965 L261.3200 239.9535 C265.0525 243.6543 269.3050 248.6885 273.2825 251.9075 C274.0600 252.5350 274.7450 252.9400 275.7025 253.2050 C276.5225 253.0425 276.9425 252.6050 277.5525 252.0550 C282.3275 247.7552 286.7750 242.8177 291.3225 238.2660 C297.8250 231.7552 304.5475 225.3752 310.8525 218.6800 C312.8050 216.6073 314.4375 214.2540 316.4050 212.1953 C318.6175 209.8810 324.3875 204.7925 325.8350 202.6203 C328.1775 199.1025 306.4850 183.8225 305.8000 179.0103 C305.7075 178.3587 305.8450 178.2925 306.2200 177.7912 Z"></path>
<path id="" fill="#37474f" fill-opacity="1.0" stroke="#000000" stroke-width="0.0" stroke-opacity="1.0" stroke-linecap="round" stroke-linejoin="round"  filling="0" d="M244.8192 359.9600 C247.8573 359.7875 250.9850 359.9675 254.0350 359.9725 C258.4475 359.9775 262.9075 359.8450 267.3125 360.1300 C270.5125 362.2675 273.1325 365.6325 275.8175 368.4025 L285.5825 378.3175 C299.9600 392.8250 314.2700 407.5125 329.0125 421.6450 C334.0475 422.4000 338.1300 423.5750 341.2550 427.8675 C343.5450 430.9950 344.4725 434.9100 343.8325 438.7300 C343.2100 442.6300 341.0350 446.2950 337.7600 448.5275 C334.1150 451.0150 329.8600 451.4625 325.6200 450.5950 C321.9350 449.8400 318.7725 447.8425 316.7625 444.6175 C315.0350 441.8475 314.4275 438.4650 313.8850 435.2975 C311.4500 432.0775 307.9275 429.2575 305.0725 426.3700 C298.1125 419.3050 291.1100 412.2800 284.0650 405.3000 C280.6150 401.8525 276.6850 398.4200 273.5800 394.6875 C270.9850 392.2350 268.4925 389.5500 266.0550 386.9375 C265.6425 391.2900 265.9800 395.7375 265.9950 400.1100 C266.0100 404.1250 265.7325 408.3100 266.1125 412.3025 C259.5575 411.8575 252.7075 411.8200 246.1577 412.4125 C246.1228 403.9100 245.8748 395.3650 246.0620 386.8650 C237.8737 395.7525 229.1605 404.1275 220.6130 412.6625 C212.9733 420.2950 205.4892 428.1475 197.6090 435.5275 C197.1640 428.2500 191.4742 422.3850 184.2130 421.7225 C185.3342 419.7925 187.9543 417.7200 189.5598 416.0950 L204.9288 400.6650 C216.0275 389.5550 227.3107 378.5850 238.2295 367.3025 C240.5222 364.9325 242.5450 362.3375 244.8192 359.9600 Z"></path>
<path id="" fill="#607d8b" fill-opacity="1.0" stroke="#000000" stroke-width="0.0" stroke-opacity="1.0" stroke-linecap="round" stroke-linejoin="round"  filling="0" d="M285.5825 378.3175 C299.9600 392.8250 314.2700 407.5125 329.0125 421.6450 C334.0475 422.4000 338.1300 423.5750 341.2550 427.8675 C343.5450 430.9950 344.4725 434.9100 343.8325 438.7300 C343.2100 442.6300 341.0350 446.2950 337.7600 448.5275 C334.1150 451.0150 329.8600 451.4625 325.6200 450.5950 C321.9350 449.8400 318.7725 447.8425 316.7625 444.6175 C315.0350 441.8475 314.4275 438.4650 313.8850 435.2975 C311.4500 432.0775 307.9275 429.2575 305.0725 426.3700 C298.1125 419.3050 291.1100 412.2800 284.0650 405.3000 C280.6150 401.8525 276.6850 398.4200 273.5800 394.6875 L273.7950 394.4850 C275.0425 395.1375 312.0075 432.1275 314.2150 434.8275 C315.0850 433.2050 315.5175 431.3775 316.3925 429.7250 C318.9600 424.8850 322.7550 423.0625 327.7650 421.5250 C324.9075 418.0825 321.3925 415.1050 318.2625 411.9000 L292.9075 386.4125 C291.6925 385.1975 286.2400 380.3225 285.7275 379.0800 C285.6300 378.8400 285.6325 378.5725 285.5825 378.3175 Z"></path>
<path id="" fill="#607d8b" fill-opacity="1.0" stroke="#000000" stroke-width="0.0" stroke-opacity="1.0" stroke-linecap="round" stroke-linejoin="round"  filling="0" d="M184.2130 421.7225 C191.4742 422.3850 197.1640 428.2500 197.6090 435.5275 C197.9863 441.6950 194.4840 447.4450 188.8313 449.9400 C183.1785 452.4375 176.5697 451.1500 172.2670 446.7150 C167.9640 442.2800 166.8768 435.6350 169.5415 430.0600 C172.2060 424.4850 178.0598 421.1575 184.2130 421.7225 Z"></path>
<path id="" fill="#607c8b" fill-opacity="1.0" stroke="#000000" stroke-width="0.0" stroke-opacity="1.0" stroke-linecap="round" stroke-linejoin="round"  filling="0" d="M61.2600 353.1150 C72.7195 352.7250 84.3025 353.0500 95.7720 353.0475 L161.7198 353.0475 L361.2950 353.0525 L429.4425 353.0500 L448.2650 353.0925 C452.5825 353.1325 456.9300 353.3550 461.2425 353.0875 C460.8600 357.9700 460.6700 368.6250 461.3050 373.1825 C457.9725 372.8900 454.5350 373.0425 451.1875 373.0450 L177.3570 373.0400 L92.7018 373.0400 L66.6202 373.0375 C61.4435 373.0375 56.1302 372.7875 50.9798 373.2975 C51.2830 366.6525 51.0172 359.8675 50.9520 353.2100 C54.3860 353.3450 57.8262 353.2000 61.2600 353.1150 Z"></path>
<path id="" fill="#37474f" fill-opacity="1.0" stroke="#000000" stroke-width="0.0" stroke-opacity="1.0" stroke-linecap="round" stroke-linejoin="round"  filling="0" d="M260.5875 60.8840 C262.3800 60.7985 264.1800 60.7780 265.9725 60.7315 C265.8050 67.4540 265.6750 74.5025 266.1375 81.2053 C261.1225 80.6225 255.7425 81.0140 250.6875 81.0215 C249.1105 81.0098 247.5782 81.0965 246.0080 81.2422 C246.2883 74.4788 246.0632 67.6338 246.0660 60.8605 C250.9075 60.9373 255.7475 60.9450 260.5875 60.8840 Z"></path>
</svg>