<svg xmlns="http://www.w3.org/2000/svg" viewBox="0 0 512 512" height="512.0px" width="512.0px">
<path id="" fill="#b8cbcd" fill-opacity="1.0" stroke="#000000" stroke-width="0.0" stroke-opacity="1.0" stroke-linecap="round" stroke-linejoin="round"  filling="0" d="M232.1595 392.0975 C232.2790 392.0800 232.3978 392.0550 232.5177 392.0400 C235.4682 391.6800 238.6290 391.8950 241.6035 391.9225 C245.8273 391.9600 250.0500 391.9700 254.2750 391.9525 C261.6175 391.9425 269.0575 391.6850 276.3925 391.9825 C280.3175 392.1425 284.2175 392.7500 288.1475 392.9075 C291.5100 393.0450 294.8875 392.7950 298.2450 393.0000 C325.3375 394.6475 388.7525 401.0575 410.1200 416.8175 C412.9175 418.8800 415.7225 421.7175 416.1625 425.3275 C416.4900 428.0225 415.5775 430.5975 413.8850 432.6800 C397.8450 452.4275 319.7450 458.3700 294.0100 459.9450 C289.4475 460.2250 284.8750 459.8275 280.3125 460.2350 C277.3500 460.3950 274.4100 460.8225 271.4500 460.9500 C266.9550 461.1450 262.4050 461.0250 257.9025 461.0250 C252.8225 461.0250 247.7165 461.1225 242.6385 460.9775 C239.4637 460.8875 236.3147 460.2650 233.1460 460.0725 C229.3438 459.8425 225.4835 460.0925 221.6723 460.0150 C218.1725 459.9450 214.6895 459.3575 211.1960 459.1475 C181.6990 457.3900 137.6562 453.1275 111.0325 441.1075 C106.7152 439.1575 102.3022 437.0825 98.9942 433.5925 C95.7985 430.2200 95.8420 427.2225 95.9908 422.8225 C96.1147 422.6500 96.2415 422.4775 96.3723 422.3075 C98.1595 419.9525 100.3167 417.9025 102.7600 416.2375 C123.1635 402.6075 175.0220 396.1800 199.9048 394.1525 C202.6402 393.9300 205.3860 393.9175 208.1223 393.7250 C210.7108 393.5400 213.2790 393.1375 215.8730 393.0125 C221.3667 392.7500 226.6665 392.7900 232.1595 392.0975 Z"></path>
<path id="" fill="#b2eda6" fill-opacity="1.0" stroke="#000000" stroke-width="0.0" stroke-opacity="1.0" stroke-linecap="round" stroke-linejoin="round"  filling="0" d="M261.2950 58.6785 C261.4900 58.6908 261.7100 58.7005 261.9000 58.7350 C262.5050 58.8465 262.7750 58.8535 262.9550 59.4902 C263.5250 61.5110 263.0450 75.2145 263.1175 78.2533 C263.2025 81.7965 263.6450 85.3100 263.9325 88.8392 C264.0575 90.3805 263.8975 92.9835 264.8050 94.2668 C265.5250 95.2840 270.4500 94.9725 271.8675 95.1930 C272.1700 95.2410 272.4700 95.2978 272.7700 95.3630 C282.7050 97.5113 281.6425 105.3553 288.0225 110.5525 C293.2400 114.8015 300.5775 115.5372 305.6450 120.0113 C309.5100 123.4212 311.7225 128.1763 315.3425 131.8058 C321.8225 138.3055 328.2575 145.0245 335.0350 151.2060 C338.9600 154.7870 342.8175 158.5100 346.7850 162.0310 C352.2000 166.8350 358.2975 171.5995 362.5150 177.5515 C363.4650 178.8922 364.4825 180.4982 364.8725 182.1073 C365.5075 184.7168 364.2500 196.9478 363.7250 199.8513 C362.5850 206.1675 357.8600 211.3000 352.7000 214.7977 C347.8025 218.1190 343.5800 219.2202 337.6525 219.0510 C316.1800 218.4382 315.2450 200.0842 303.5875 198.1053 C291.7800 196.1013 283.5475 204.4665 272.6625 204.9908 C268.2200 205.2045 263.4650 205.2923 259.2375 203.8210 C256.4175 202.8400 253.5750 201.4120 250.6250 200.9060 C249.7490 200.7558 248.9147 200.6920 248.1810 201.2142 L248.1355 201.6817 C250.4025 205.1270 253.4825 207.7202 256.2575 210.7222 C258.1225 212.7428 259.7775 214.9575 261.6375 216.9883 C264.1450 219.7292 266.9125 222.2668 269.5300 224.9048 C271.8800 227.2710 273.8975 229.9102 276.1225 232.3862 C279.6100 236.2677 283.1325 240.0363 286.5350 244.0043 C298.3250 257.7500 309.7425 272.4350 314.1825 290.3550 C315.2550 294.6850 315.7850 299.0900 316.2625 303.5175 C316.7100 307.6550 317.2000 311.8225 317.1950 315.9900 L334.0425 315.9350 C338.3050 315.9275 343.4200 315.3700 347.5250 316.4725 C351.2150 317.4625 355.2000 319.9100 357.9450 322.5450 C362.1200 326.5575 365.0475 332.7350 365.1425 338.5500 C365.2400 344.4700 362.8225 350.6950 358.6875 354.9400 C350.8175 363.0250 340.2650 362.9250 329.8325 363.0275 C332.0025 372.4300 334.6675 381.7275 336.8775 391.1300 C337.8150 395.1175 338.1850 399.2200 339.1750 403.1850 C341.2000 411.2950 343.8150 419.2525 345.7125 427.3975 C346.0125 428.7325 346.6500 430.4400 345.9025 431.6950 C342.7875 434.1350 334.7650 435.9525 330.7825 437.1600 C319.4450 440.6050 307.8400 443.0975 296.0875 444.6100 C288.7750 445.4875 281.2250 445.8000 273.8675 446.1525 C269.8925 446.3425 265.9450 446.9175 261.9625 446.9925 C257.7775 447.0725 253.4600 447.1525 249.2845 446.8775 C246.4568 446.6925 243.6463 446.2775 240.8168 446.1150 C237.0683 445.8975 233.3050 446.0950 229.5522 445.8550 C226.1707 445.6375 222.8062 445.0275 219.4485 444.5875 C216.5952 444.2125 213.7202 444.0250 210.8640 443.6775 C208.1820 443.3500 205.5302 442.7975 202.8607 442.3850 C199.5547 441.8725 196.1942 441.4825 192.9187 440.8100 C187.0047 439.5925 164.4030 434.1300 161.4855 430.0400 C160.9555 429.2975 161.0733 428.6250 161.2510 427.7800 C161.5977 426.1375 162.2798 424.4975 162.7533 422.8800 C163.4405 420.5325 164.0013 418.1425 164.7482 415.8125 C165.6268 413.0725 166.7015 410.3925 167.5340 407.6350 C168.8582 403.2525 169.3432 398.6325 170.5098 394.2025 C171.7617 389.4500 172.9852 384.6825 174.2948 379.9425 C175.8423 374.3450 177.4942 368.8375 178.2535 363.0600 C169.8560 362.8150 161.1107 360.9350 154.9393 354.8700 C150.6272 350.6325 148.9088 345.5075 148.8835 339.5475 C148.8560 333.0475 150.7800 327.1850 155.4707 322.5100 C158.4240 319.5650 162.9380 317.3575 166.9890 316.4750 C172.0547 315.3725 177.9445 315.9500 183.1333 315.9525 L210.3423 315.9600 C209.5108 311.3525 207.7948 306.8900 206.3183 302.4575 L200.0443 283.7625 C198.5480 279.4025 197.3598 274.9725 195.9430 270.5950 C190.3390 253.2725 185.7210 237.6263 183.9030 219.3700 C183.5408 215.7305 183.0740 212.0400 183.0495 208.3825 C183.0295 205.3902 183.4250 202.3867 183.6775 199.4077 C184.2832 192.2663 185.0128 185.1958 186.4048 178.1573 C190.5932 156.9798 197.8170 136.9377 212.1152 120.3968 C214.5148 117.6210 216.8930 114.6680 219.7363 112.3280 C223.1770 109.4962 226.7770 106.8492 230.1738 103.9650 C232.1485 102.2883 233.9483 100.4160 235.8760 98.6865 C238.1640 96.6340 240.8017 94.6628 242.5683 92.1230 C248.2567 83.9457 253.7900 63.7045 261.2950 58.6785 Z"></path>
<path id="" fill="#3c663e" fill-opacity="1.0" stroke="#000000" stroke-width="0.0" stroke-opacity="1.0" stroke-linecap="round" stroke-linejoin="round"  filling="0" d="M259.2475 51.3400 C259.3950 51.3185 259.5400 51.2943 259.6875 51.2755 C262.4375 50.9250 265.5200 51.7210 267.6300 53.5262 C269.2250 54.8903 270.2550 56.7530 270.7750 58.7693 C271.6750 62.2547 271.3750 66.3630 271.4700 69.9642 C271.6000 75.0450 271.7450 80.1103 272.2500 85.1707 C278.0275 84.5865 290.6700 85.7742 295.5775 88.8670 C297.8750 90.3142 299.5275 92.3385 300.1025 95.0298 C301.0450 99.4310 298.8475 102.2765 296.6550 105.7498 C301.3725 106.6243 308.9700 109.9725 312.9850 112.5703 C319.8150 116.9883 320.0325 122.9025 325.1300 127.9345 C329.4225 132.1700 333.9575 136.0665 338.4600 140.0618 C342.6950 143.8188 346.8425 147.6845 351.1000 151.4162 C354.9075 154.7538 372.3975 169.1440 374.0825 172.4200 C376.6375 177.3925 373.4775 182.3800 373.5700 187.4930 C373.6300 190.7558 374.9350 193.8633 375.5775 197.0345 C376.5725 201.9600 374.8375 206.7105 372.1225 210.7835 C370.3275 213.4795 367.9225 215.6252 365.6225 217.8777 C363.8725 219.5900 362.2475 221.4795 360.4175 223.1015 C356.3975 226.6675 350.5850 228.7205 345.3875 229.7242 C333.2875 232.0618 320.4950 229.7863 311.4175 220.9580 C308.3525 217.9778 305.2475 213.9190 301.6425 211.6545 C298.3025 209.5558 287.8575 214.0383 283.9725 215.2188 C281.4375 215.9892 278.8650 216.5875 276.2825 217.1720 L276.5575 217.4252 C277.8175 218.6068 278.9425 220.0325 280.1300 221.2988 C283.5550 224.9480 286.8725 228.6272 290.1175 232.4365 C304.5225 249.3522 320.5025 269.3125 326.3750 291.1575 C327.9475 297.0100 327.9925 303.1425 328.2025 309.1600 C328.9250 309.1050 329.6475 309.0725 330.3725 309.0550 C342.2025 308.8225 357.8475 307.4175 366.9475 316.3875 C372.9675 322.3225 375.0925 331.9450 375.0700 340.1175 C375.0450 348.9025 371.6725 360.0375 365.2750 366.3225 C358.3625 373.1150 349.8200 373.1925 340.7775 373.0750 C341.5150 376.9750 342.5850 380.8450 343.5325 384.7000 L350.6775 412.7850 C351.8350 417.4900 353.3775 422.4100 353.8700 427.2350 C354.0700 429.1900 353.9450 430.8975 353.2450 432.7575 C350.5600 439.9125 343.8775 443.3725 337.3225 446.3450 C309.2825 458.4025 253.3750 458.8475 223.1167 456.6750 C210.8918 455.7975 198.6030 454.3425 186.6102 451.7825 C175.9540 449.5100 159.8000 445.3525 153.6705 435.7125 C152.3925 433.7025 151.2908 430.6675 151.4010 428.2750 C151.6100 423.7375 153.8183 417.9775 154.9900 413.4575 C158.7518 398.9475 163.0462 384.5150 166.4082 369.9075 C165.9682 369.9625 165.5480 370.0000 165.1035 369.9975 C157.4825 369.9450 150.1685 367.6800 144.7755 362.0725 C138.6283 355.6800 135.7010 347.0875 135.9530 338.3000 C136.1837 330.2450 139.6315 321.5175 145.6115 315.9850 C154.4928 307.7650 165.9930 308.8375 177.1825 309.2425 C175.6353 302.4025 172.6248 294.3375 170.5025 287.4950 C165.1337 270.1825 159.6763 252.8025 155.7950 235.0842 C154.0315 227.0335 152.4080 218.6828 151.8500 210.4525 C150.0965 180.5810 157.8217 150.9185 173.9238 125.6970 C184.2668 109.6317 199.1848 95.2180 216.9780 87.7177 C222.2345 85.5020 227.5383 84.0558 233.0992 82.8490 C236.5080 75.1965 239.9180 67.3907 245.0480 60.6955 C248.6028 56.0562 253.3075 52.1398 259.2475 51.3400 Z M199.5640 315.9700 C208.0208 315.7425 216.5157 315.9175 224.9763 315.9225 L270.0550 315.9250 C278.2425 315.9250 286.4375 315.9950 294.6250 315.8875 C298.9075 315.8300 303.2675 315.3025 307.5350 315.5650 C307.1325 307.8725 307.8275 299.9250 305.2325 292.5700 C298.2000 272.6425 278.3025 250.1025 264.2075 234.5612 C262.6150 232.8060 261.1450 230.9400 259.5325 229.2040 C255.2525 224.5985 244.5988 214.1155 242.1510 209.0565 C240.2305 205.0872 240.3683 200.3943 243.3508 197.0038 C245.2720 194.8200 248.0302 193.3183 250.9650 193.2035 C254.6300 193.0605 257.6275 195.6925 261.0425 196.6443 C263.3825 197.2960 265.9925 197.2560 268.3975 197.1925 C275.3150 197.0098 280.4725 194.7040 286.9675 192.7392 C293.4575 190.7762 302.3300 189.7125 308.8075 192.2570 C312.3675 193.6560 315.8300 196.3468 318.5625 198.9815 C325.1325 205.3150 327.5850 210.2415 337.7275 210.0672 C341.5575 210.0015 344.8475 209.1857 347.5900 206.3225 C348.9875 204.8615 350.2325 203.2315 351.7800 201.9215 C352.8000 201.0587 353.9725 200.4182 355.0275 199.6133 C353.2275 193.3127 352.6925 187.1770 353.2775 180.6360 C343.7400 173.0680 334.8275 164.6355 325.7175 156.5650 C322.2575 153.5015 318.9000 150.3528 315.4600 147.2755 C313.6850 145.6882 311.7125 144.2180 310.0550 142.5117 C308.3175 140.7220 306.7675 138.5123 305.4625 136.3922 C304.1400 134.2433 302.9400 131.3965 301.0025 129.7487 C293.3475 123.2380 270.9375 122.9753 269.3925 111.3463 C269.1475 109.4855 269.3675 107.5275 269.4950 105.6605 C265.0450 105.5157 260.0575 105.5847 256.7625 102.0608 C255.6025 100.8190 253.7800 97.6425 253.5750 95.9008 C253.6525 93.9133 252.7325 91.5052 252.5250 89.4305 C251.9550 91.0270 250.9800 92.6775 250.7100 94.3460 L251.2500 94.5165 C249.3865 95.7272 248.9967 99.5140 246.2830 101.2303 C242.8905 103.3757 237.9763 102.8887 234.1402 103.6302 C231.0542 104.2265 228.0115 105.2812 225.1447 106.5583 C217.4040 110.0065 210.8490 115.5527 204.9020 121.4735 C201.8808 124.4815 198.7623 127.4480 196.0405 130.7345 C185.3822 143.6025 178.2500 159.7725 174.7977 176.0582 C172.2823 188.3002 171.5530 200.8420 172.6328 213.2930 C173.3652 221.1445 175.1998 229.0977 177.0525 236.7500 C181.0193 253.1350 186.1432 269.2125 191.1593 285.3000 C193.7450 293.5900 198.6545 307.7400 199.5640 315.9700 Z M193.9345 329.8675 C183.0995 330.1050 172.2603 329.8450 161.4252 330.0225 C158.5562 332.8225 156.5233 335.4450 156.5193 339.6750 C156.5165 342.8425 157.8313 345.5875 160.0845 347.7750 C160.5197 348.1950 160.9615 348.6075 161.4097 349.0125 L317.3750 349.0175 C329.2400 349.0125 341.2250 348.6400 353.0700 349.3300 C353.7875 344.8025 355.7125 335.3850 352.8125 331.5500 C351.9275 330.3800 350.4350 330.3000 349.0600 330.1475 C343.2675 329.5000 335.9325 329.9775 329.9675 329.9750 L295.3800 329.8450 L228.7937 329.8450 C217.1830 329.8450 205.5423 329.6800 193.9345 329.8675 Z M317.9800 363.5450 C308.0175 364.2500 297.8025 363.7950 287.8050 363.7950 L232.8710 363.7850 L203.5768 363.7975 C199.5338 363.7975 192.9665 364.3200 189.1580 363.4625 C188.4043 369.3600 186.3902 375.4450 184.8930 381.2025 C182.1425 392.0550 179.2587 402.8750 176.2430 413.6575 C182.4453 415.0175 188.5150 416.9275 194.7682 418.0900 C204.5858 419.9150 214.7742 421.2100 224.7337 421.8900 C227.9823 422.1125 231.2467 422.0975 234.4985 422.2725 C237.7108 422.4475 240.9150 422.8000 244.1293 422.9275 C250.3075 423.1675 256.6225 423.1075 262.8025 422.9350 C266.5275 422.8325 270.2050 422.3150 273.9175 422.1375 C276.6100 422.0100 279.3100 422.0825 281.9975 421.9325 C290.9200 421.4325 303.5900 420.1025 312.2500 418.1625 C315.4825 417.5475 318.7100 416.9250 321.8950 416.1000 C324.5225 415.4175 327.1275 414.5525 329.7775 413.9775 C326.8475 405.0775 325.0500 395.7475 322.8600 386.6400 C321.2675 380.0150 317.9650 370.1925 317.9800 363.5450 Z"></path>
<path id="" fill="#3c663e" fill-opacity="1.0" stroke="#000000" stroke-width="0.0" stroke-opacity="1.0" stroke-linecap="round" stroke-linejoin="round"  filling="0" d="M286.6875 147.0658 C287.0775 146.9690 287.3275 146.9905 287.7200 147.0188 L288.0375 147.5940 C288.1750 150.4473 286.6125 154.5690 284.9300 156.8683 C282.9175 159.6200 279.9950 161.4675 276.6075 161.9515 C272.3075 162.5663 268.5375 161.7993 265.0375 159.1860 C262.1050 156.7473 261.0075 153.8898 260.6050 150.1870 C269.1775 148.4705 278.0950 148.7202 286.6875 147.0658 Z"></path>
<path id="" fill="#3e6840" fill-opacity="1.0" stroke="#000000" stroke-width="0.0" stroke-opacity="1.0" stroke-linecap="round" stroke-linejoin="round"  filling="0" d="M172.6260 426.0375 C175.2948 426.2450 179.9263 428.3300 182.9070 429.1000 C189.7800 430.8600 196.7500 432.2200 203.7812 433.1700 C221.8907 435.6900 239.9973 436.3650 258.2575 436.2600 C263.7775 436.2275 269.3700 436.3450 274.8800 436.0475 C285.3100 435.4875 295.6575 434.3125 306.0175 433.0800 L306.0375 433.2750 C300.2225 434.6525 293.7625 435.1800 287.8100 435.7525 C263.7850 437.9525 239.6068 437.8775 215.5957 435.5300 C208.7742 434.8175 176.1545 430.3825 172.6260 426.0375 Z"></path>
<path id="" fill="#b0eba4" fill-opacity="0.988235" stroke="#000000" stroke-width="0.0" stroke-opacity="1.0" stroke-linecap="round" stroke-linejoin="round"  filling="0" d="M252.5250 89.4305 C252.7325 91.5052 253.6525 93.9133 253.5750 95.9008 C252.8250 95.1730 252.2250 94.8780 251.2500 94.5165 L250.7100 94.3460 C250.9800 92.6775 251.9550 91.0270 252.5250 89.4305 Z"></path>
</svg>