<svg xmlns="http://www.w3.org/2000/svg" viewBox="0 0 512 512" height="512.0px" width="512.0px">
<path id="" fill="#b8cbcd" fill-opacity="1.0" stroke="#000000" stroke-width="0.0" stroke-opacity="1.0" stroke-linecap="round" stroke-linejoin="round"  filling="0" d="M233.4283 389.1025 C233.5412 389.0825 233.6535 389.0575 233.7672 389.0425 C236.5935 388.6900 239.7068 388.9025 242.5595 388.9125 L257.8375 388.9375 C265.9575 388.9300 274.1875 388.6900 282.2950 389.0125 C286.0700 389.1625 289.8200 389.7025 293.5975 389.8425 C296.7325 389.9575 299.8750 389.8825 303.0075 390.0350 C305.8175 390.1725 308.6150 390.5475 311.4225 390.7200 C339.1625 392.4125 367.0275 395.7100 393.7900 403.4100 C403.1550 406.1050 413.4250 409.1275 421.0400 415.4925 C423.6000 417.6325 426.0175 420.3800 426.2625 423.8625 C426.4600 426.6550 425.2500 429.1350 423.4400 431.1875 C406.7375 450.1450 337.4725 457.0375 312.2400 458.8425 C309.4950 459.0400 306.7375 459.0775 303.9925 459.2625 C301.0775 459.4600 298.1675 459.8275 295.2475 459.9400 C290.1725 460.1350 285.1350 460.0200 280.0550 460.3575 C274.2700 461.1950 268.3650 461.0100 262.5375 461.0125 C255.2750 461.0150 247.9575 461.2000 240.7018 460.9475 C237.0570 460.8200 233.4382 460.2875 229.7982 460.1025 C225.3630 459.8750 220.9028 460.1625 216.4675 459.9075 C202.5805 459.1075 188.8075 457.8075 174.9872 456.2450 C151.6065 453.6000 126.2670 450.0975 104.4948 440.7700 C100.9410 439.2450 97.3987 437.8150 94.2750 435.4900 C91.2558 433.2400 87.4818 429.8475 86.9967 425.9125 C86.6462 423.0675 87.8550 420.3200 89.5860 418.1225 C91.8687 415.2275 95.1223 413.4050 98.3077 411.6700 C109.2433 405.7050 121.0915 402.7825 133.1548 400.1025 C154.0335 395.6200 175.2027 392.6175 196.5047 391.1150 C199.4133 390.8800 202.3392 390.9425 205.2482 390.7175 C208.0730 390.5000 210.8898 390.0625 213.7225 389.9675 C220.3813 389.7450 226.7693 389.8900 233.4283 389.1025 Z"></path>
<path id="" fill="#f6e89a" fill-opacity="1.0" stroke="#000000" stroke-width="0.0" stroke-opacity="1.0" stroke-linecap="round" stroke-linejoin="round"  filling="0" d="M241.6595 271.1050 C243.9355 270.7675 246.4993 270.9600 248.8107 270.9575 L262.3125 270.9625 C265.9500 270.9650 269.6225 270.8750 273.2525 271.0625 C276.4000 271.2275 279.5300 271.6625 282.6750 271.8350 C285.3650 271.9825 288.0625 271.9550 290.7500 272.1575 C319.1775 274.3000 351.9450 280.6275 378.1775 292.0950 C381.5900 293.5875 384.9200 295.3700 388.2475 297.0475 C393.6125 299.7550 400.5350 303.4150 405.2700 306.8775 C405.0300 311.5275 403.4975 316.1400 402.4825 320.6725 C401.2525 326.1650 400.2475 331.7625 399.2050 337.2925 L392.3600 374.4725 C391.0375 381.7625 389.7250 390.6050 387.7625 397.6175 C387.2475 399.4675 386.3325 401.0275 384.9800 402.3925 C382.4025 404.9900 378.9075 406.4525 375.6225 407.9200 C366.2350 412.1175 356.6000 414.4925 346.5875 416.6175 C334.6750 419.2425 322.6175 421.1625 310.4775 422.3650 C306.5575 422.7675 302.6375 422.9450 298.7125 423.2775 C289.4950 424.0575 280.1250 425.0075 270.8750 425.0150 C259.0950 425.0225 247.1705 425.4175 235.4068 424.9400 C232.3013 424.8150 229.2173 424.3500 226.1165 424.1575 C197.9565 422.4100 164.3460 419.3425 138.4133 407.9825 C135.3387 406.6350 132.1150 405.3525 129.2863 403.5325 C127.2347 402.2150 126.1947 401.0125 125.5100 398.6625 C124.4658 395.0800 124.2072 391.1550 123.5178 387.4800 C121.5345 376.9150 119.7068 366.3050 117.6345 355.7575 C115.3958 344.0225 112.9727 332.3225 110.3660 320.6625 C109.4967 316.9400 107.8183 313.3050 107.1020 309.6100 C106.9193 308.6675 106.8500 307.8775 107.4610 307.0675 C109.1422 304.8350 115.8400 301.7150 118.5413 300.1025 C144.2255 284.7725 181.8017 276.6825 211.3282 273.4450 C215.8275 272.9500 220.3815 272.3900 224.8960 272.1075 C227.9218 271.9150 230.9625 272.0075 233.9915 271.8425 C236.5508 271.7025 239.1057 271.3400 241.6595 271.1050 Z"></path>
<path id="" fill="#ffbab0" fill-opacity="1.0" stroke="#000000" stroke-width="0.0" stroke-opacity="1.0" stroke-linecap="round" stroke-linejoin="round"  filling="0" d="M246.9637 60.1062 C252.3000 59.7095 257.8125 59.9435 263.1700 59.9717 C268.5675 60.0002 273.8125 60.6523 279.1525 61.3500 C308.4975 65.2370 336.3400 76.6342 359.9850 94.4380 C365.8900 98.8475 370.3800 103.1050 375.7425 108.0145 C377.8325 109.9283 380.1525 111.5918 382.1375 113.6208 C384.8225 116.3662 399.3150 133.2375 399.2750 136.0115 C399.2675 136.6475 398.6150 137.5172 398.2500 138.0098 C396.9500 139.7652 395.3700 141.3488 393.9950 143.0538 C391.1625 146.5705 388.4425 150.4928 386.3275 154.4798 C381.0675 164.4005 378.1275 176.3605 378.0325 187.5420 C377.9550 196.7038 379.0725 204.5737 381.8800 213.3235 C382.7325 215.9795 383.5825 218.6873 384.7875 221.2065 C385.9325 223.6030 387.4525 225.8822 388.8325 228.1510 C390.5750 231.0120 392.2925 233.8770 394.4100 236.4843 C396.4925 239.0520 398.8725 241.3627 401.2150 243.6897 C406.5125 248.9505 412.1300 253.5275 418.6400 257.2225 C420.6125 258.3400 432.3675 263.7850 432.8025 264.3625 C433.1675 264.8400 433.2325 265.0925 433.1575 265.6775 C432.6075 270.0000 426.2300 280.9525 423.9175 285.3350 C419.7275 293.2725 409.9250 313.7075 403.5775 318.6875 C400.1225 317.0825 397.3400 313.8925 394.1675 311.7575 C389.0775 308.3325 383.4275 305.6100 377.8875 302.9875 C366.8125 297.7475 354.7425 293.8775 342.7950 291.1525 C339.1175 290.3150 335.3575 289.7750 331.6525 289.0550 C324.7775 287.7225 317.8950 286.3700 310.9350 285.5425 C305.6650 284.9175 300.2775 284.6350 294.9800 284.2125 C290.3625 283.8425 285.6875 283.2375 281.0625 283.0800 C275.8500 282.9025 270.5925 283.0325 265.3750 283.0400 C254.9000 283.0350 244.3180 282.7200 233.8540 283.1075 C230.6958 283.2225 227.5640 283.6950 224.4117 283.8975 C217.5850 284.3325 210.7575 284.7050 203.9560 285.4875 C185.2570 287.6425 160.8752 292.5450 143.6335 299.5750 C135.1588 303.0025 127.0042 307.1750 119.2657 312.0425 C117.1953 313.3250 111.7990 317.9650 109.9392 318.4225 C108.0285 317.2850 106.7292 315.1600 105.4475 313.3875 C103.0870 310.1250 100.7440 306.8500 98.7555 303.3425 C96.4922 299.3500 94.6085 295.1275 92.4865 291.0575 C90.8155 287.8500 88.9433 284.7525 87.2742 281.5450 C84.4125 276.0450 81.9153 270.4500 79.5938 264.7050 C84.3542 262.1475 89.3562 260.0650 94.1045 257.4850 C98.8035 254.9350 102.9077 251.8875 107.0120 248.4837 C109.2175 246.6548 111.5490 244.8740 113.5793 242.8508 C122.7135 233.5740 129.4507 222.2117 133.2088 209.7470 C139.0237 189.9357 136.2360 167.3302 124.7465 150.0753 C123.3480 147.9747 121.9430 145.8590 120.2872 143.9492 C118.1078 141.4355 115.4325 139.3275 113.8223 136.3723 C114.1472 132.6145 121.6905 124.6902 124.3020 121.5755 C127.3495 117.9405 130.7570 114.6707 134.1000 111.3130 C136.7968 108.6042 139.4470 105.7705 142.2970 103.2235 C152.3817 94.2110 165.1670 85.5862 177.2072 79.4557 C179.5135 78.2815 181.9368 77.3400 184.2758 76.2328 C192.7157 72.2370 201.0177 68.7585 210.0497 66.2455 C222.0405 62.9095 234.5800 61.1877 246.9637 60.1062 Z M259.6325 238.3383 C297.1700 237.0397 326.5275 205.5247 325.1625 167.9910 C323.8000 130.4572 292.2350 101.1545 254.7050 102.5818 C217.2640 104.0055 188.0475 135.4778 189.4070 172.9205 C190.7668 210.3630 222.1885 239.6335 259.6325 238.3383 Z"></path>
<path id="" fill="#783741" fill-opacity="1.0" stroke="#000000" stroke-width="0.0" stroke-opacity="1.0" stroke-linecap="round" stroke-linejoin="round"  filling="0" d="M250.6625 51.1138 C250.6950 51.1120 250.7250 51.1095 250.7575 51.1087 C298.8050 50.4747 345.3050 68.0780 380.8875 100.3700 C415.9175 132.3815 440.4275 177.3615 442.5025 225.3508 C443.1850 241.1142 441.8425 256.6275 438.0375 271.9775 C435.2575 283.1900 430.3650 296.6750 424.9525 306.8675 C422.2700 311.9150 417.1375 319.3100 415.3675 324.3375 C413.7975 328.8000 413.1025 333.8000 411.9300 338.4000 C408.4275 352.1525 405.1400 365.9950 401.8400 379.7975 C400.4900 385.4400 399.6450 391.8025 397.4575 397.1575 C396.2700 400.0625 394.4400 402.8025 392.3075 405.0975 C388.9600 408.6975 384.0950 411.6350 379.7850 413.9350 C370.8675 418.6950 361.0700 421.8125 351.3275 424.3875 C322.1125 432.1125 292.1200 434.2500 262.0625 435.5275 C225.0592 436.0700 149.2935 432.4375 121.6720 406.8500 C119.0325 404.4050 116.5690 401.0675 115.1745 397.7400 C113.0775 392.7375 112.3815 386.6325 111.0927 381.3325 L102.7152 346.6150 C101.1920 340.1750 99.9803 333.4100 97.9910 327.1100 C96.6775 322.9475 94.2765 319.6000 92.0417 315.9050 C90.1640 312.8250 88.4045 309.6750 86.7670 306.4600 C76.1933 285.5525 70.2270 262.6200 69.2712 239.2092 C67.6900 200.2567 81.8075 160.6472 104.7538 129.4945 C108.0948 124.9587 111.5735 120.2838 115.4033 116.1525 C121.3978 109.6862 127.6622 103.1735 134.3793 97.4503 C166.8508 69.4077 207.8030 53.0890 250.6625 51.1138 Z M129.3345 133.4470 C142.0095 149.7592 148.8288 166.8830 149.0820 187.7823 C149.1300 191.7340 149.1990 195.7328 148.7020 199.6597 C146.1958 219.4572 137.2260 238.6062 122.9272 252.6725 C120.0660 255.4875 116.7258 257.9950 113.5525 260.4475 C108.3513 264.4675 102.1772 268.1800 96.0585 270.6125 C97.3708 275.3150 105.2787 297.9100 108.6675 300.3850 C111.9265 299.3675 114.8177 296.2650 117.8115 294.5750 C124.4345 290.8375 131.6008 287.9450 138.8002 285.5350 C162.1732 277.7050 192.2453 273.7300 216.8913 272.1625 C219.8325 271.9775 222.7852 272.0175 225.7278 271.8550 C229.0975 271.6675 232.4440 271.1750 235.8203 271.0700 C244.9767 270.7850 254.2125 270.9875 263.3750 271.0100 C269.4125 271.0225 275.2800 271.5875 281.2925 271.8800 C314.7275 273.5075 360.7175 278.4650 390.8775 293.4225 C395.2275 295.5825 399.2300 298.4425 403.1925 301.2350 C408.9025 291.1425 413.3350 280.3775 416.3825 269.1875 C413.8750 268.0500 411.4700 266.4150 409.1100 264.9825 C392.0300 254.6075 378.9550 238.7668 372.0025 220.0300 C368.2800 210.1517 366.9600 200.4140 366.9300 189.9075 C366.8950 177.0182 368.6975 165.8067 374.0400 154.0020 C375.7575 150.2065 377.6650 146.3635 379.8700 142.8277 C381.4125 140.3522 383.3075 137.9608 384.6325 135.3728 C380.0900 130.4860 375.9350 125.2653 371.0700 120.6858 C346.6450 97.6940 316.7300 81.2445 283.5300 75.3232 C277.2700 74.2068 270.7125 73.3035 264.3525 73.0772 C258.9750 72.8857 253.3650 72.7815 247.9928 73.1055 C210.4085 74.8580 174.3438 90.9565 146.4837 115.9243 C143.1628 118.9005 139.7595 121.6020 136.7328 124.9117 C134.2207 127.6585 131.6918 130.5658 129.3345 133.4470 Z M396.1375 145.1250 C384.4400 160.8160 379.0700 180.2845 381.9200 199.7558 C384.9150 219.7530 395.8175 237.7085 412.1800 249.5865 C412.9000 250.1175 413.6125 250.6525 414.3750 251.1200 C417.1175 253.0475 420.0550 254.6575 423.0100 256.2250 C424.0150 250.0700 424.3125 243.9758 424.4625 237.7475 C425.1325 210.1743 418.5200 184.6597 405.4550 160.4238 C403.5900 156.9655 398.9225 148.0630 396.4400 145.3690 C396.3525 145.2740 396.2375 145.2063 396.1375 145.1250 Z M89.1378 257.8550 C92.8195 256.2225 96.2265 254.4525 99.6195 252.2775 C116.5818 241.2482 128.9738 224.1900 133.1365 204.2930 C137.0500 184.9662 133.1203 164.8765 122.2133 148.4485 C120.9890 146.5810 119.3322 143.7917 117.6443 142.3813 C112.8047 149.4303 108.1475 156.7845 104.2745 164.4198 C89.5555 193.2068 84.2603 225.8927 89.1378 257.8550 Z M237.5307 297.8725 C206.1062 298.2450 165.4200 302.5525 136.1543 313.9750 C130.4948 316.1850 123.9853 319.0050 119.2793 322.9275 C123.6732 340.5575 127.9698 358.2125 132.1682 375.8900 C132.9088 378.9025 134.5520 387.8825 135.6265 389.9250 C136.6220 391.8175 138.8900 393.3475 140.7055 394.4175 C161.8290 406.8675 200.0500 411.6425 224.5200 412.9050 C229.8665 413.1825 235.2315 412.9525 240.5805 413.1200 C244.6910 413.2475 248.7527 413.8675 252.8750 413.8925 C256.7825 413.9175 260.6050 413.3950 264.4925 413.1550 C267.8700 412.9450 271.2900 413.0300 274.6725 413.0500 C279.4700 413.0050 284.1025 412.5525 288.8750 412.2125 C313.0150 410.4875 343.5875 406.5100 365.6900 396.7175 C369.2150 395.1550 373.2425 393.4150 376.0000 390.6425 C376.8200 389.8200 377.4700 388.8950 377.8100 387.7750 C379.3825 382.5775 380.2700 376.8050 381.5025 371.4775 C383.7375 362.1725 386.0175 352.8800 388.3475 343.5975 C389.9700 336.8700 391.2950 330.0350 393.2875 323.4025 C390.0075 321.3425 386.6675 319.2725 383.1425 317.6525 C355.8375 305.0825 310.3450 299.4000 280.1050 298.0975 C265.9700 297.4900 251.6800 297.7950 237.5307 297.8725 Z"></path>
<path id="" fill="#783741" fill-opacity="1.0" stroke="#000000" stroke-width="0.0" stroke-opacity="1.0" stroke-linecap="round" stroke-linejoin="round"  filling="0" d="M249.2878 89.1805 C294.2050 84.3790 334.4500 117.0518 338.9800 161.9978 C343.5100 206.9438 310.5975 246.9908 265.6250 251.2500 C221.0332 255.4725 181.4003 222.8985 176.9082 178.3342 C172.4165 133.7700 204.7515 93.9413 249.2878 89.1805 Z M261.4475 236.8655 C298.3500 234.9142 326.6625 203.3820 324.6400 166.4843 C322.6200 129.5865 291.0350 101.3345 254.1400 103.4243 C217.3450 105.5088 189.1842 136.9920 191.1995 173.7917 C193.2148 210.5918 224.6450 238.8115 261.4475 236.8655 Z"></path>
<path id="" fill="#783741" fill-opacity="1.0" stroke="#000000" stroke-width="0.0" stroke-opacity="1.0" stroke-linecap="round" stroke-linejoin="round"  filling="0" d="M208.6375 315.0500 C211.5188 314.7725 214.7583 314.7650 217.3452 316.2250 C219.7912 317.6025 221.0650 319.7675 221.8327 322.3775 C223.8938 329.3800 223.0690 341.0975 223.0607 348.6025 C223.0540 354.6200 223.3613 360.8350 222.7213 366.8200 C222.4608 369.2550 222.1210 371.9875 220.8875 374.1400 C219.4818 376.5950 217.3780 378.0200 214.6935 378.7500 C211.8690 379.3475 208.5085 379.2275 205.9243 377.8825 C203.7312 376.7400 202.2140 374.9425 201.4565 372.6050 C199.2083 365.6725 200.0665 351.2425 200.0630 343.6600 C200.0603 338.2625 199.7360 332.6400 200.2360 327.2650 C200.4480 324.9875 200.7960 322.2800 201.8867 320.2500 C203.3750 317.4775 205.6765 315.8900 208.6375 315.0500 Z"></path>
<path id="" fill="#783741" fill-opacity="1.0" stroke="#000000" stroke-width="0.0" stroke-opacity="1.0" stroke-linecap="round" stroke-linejoin="round"  filling="0" d="M294.4300 315.0200 C297.0500 314.8425 299.5600 314.8150 301.9925 315.9900 C304.0325 316.9750 306.1550 318.9850 306.8775 321.1675 C307.4400 322.8675 307.7550 324.5725 307.8900 326.3575 C308.3950 332.9950 307.9850 339.9275 307.9925 346.5950 C308.0000 353.6775 308.4325 361.0750 307.8775 368.1275 C307.7400 369.8825 307.5050 371.9850 306.6600 373.5500 C305.2650 376.1350 302.6150 377.9325 299.8850 378.8250 C297.5450 379.1825 295.1875 379.2625 292.9400 378.4000 C290.6475 377.5225 287.6750 375.0450 286.7750 372.6275 C286.2625 371.2525 286.1550 369.3425 286.0750 367.8800 C285.6700 360.3050 286.0050 352.5500 286.0125 344.9600 C286.0175 338.2850 285.6400 331.3675 286.1250 324.7175 C286.2150 323.4650 286.3125 322.2050 286.9250 321.0800 C288.4500 318.2650 291.3525 315.8725 294.4300 315.0200 Z"></path>
</svg>