<svg xmlns="http://www.w3.org/2000/svg" viewBox="0 0 512 512" height="512.0px" width="512.0px">
<path id="" fill="#ffb300" fill-opacity="1.0" stroke="#000000" stroke-width="0.0" stroke-opacity="1.0" stroke-linecap="round" stroke-linejoin="round"  filling="0" d="M377.7825 51.1127 C398.4925 50.4850 419.2650 55.3340 435.0825 69.4173 C450.8050 83.4173 459.6625 101.4650 460.8475 122.5535 C464.1775 181.8045 416.6475 251.4975 379.9775 295.1575 C374.2900 301.9125 368.4450 308.5350 362.4525 315.0200 C359.7875 317.8800 356.9100 320.5475 354.2075 323.3725 C352.2000 325.4675 350.3675 327.7175 348.4275 329.8725 C341.1300 337.9650 332.8400 345.0800 324.9850 352.6025 C321.9650 355.4925 319.1025 358.5625 316.0250 361.3900 C312.2150 364.8875 308.2000 368.1725 304.3075 371.5750 C260.1175 410.1850 194.5822 457.8000 134.3123 460.9100 C134.2263 460.9150 134.1402 460.9200 134.0542 460.9225 C113.9463 461.7650 92.0007 456.4150 76.9358 442.3675 C59.7397 426.3325 51.8132 408.5825 51.0607 385.2050 C49.5052 336.8775 82.9640 280.9875 110.9965 243.3647 C113.6468 239.8078 116.5125 236.4017 119.2493 232.9102 C121.8010 229.6552 124.1888 226.2467 126.8275 223.0638 C134.5820 213.6897 142.5762 204.5168 150.8025 195.5540 C152.7185 193.4460 154.4787 191.2007 156.4315 189.1250 C161.5225 183.7145 166.9772 178.6487 172.0717 173.2305 C174.5237 170.6225 177.1913 168.2513 179.7473 165.7493 C183.5108 162.0652 187.1385 158.2298 190.9552 154.6020 C193.1172 152.5475 195.4790 150.7128 197.6812 148.7025 C213.8913 133.7880 230.9900 119.8692 248.8835 107.0228 C277.5525 86.2250 308.3550 67.7565 342.5050 57.5435 C353.9675 54.1155 365.7825 51.4852 377.7825 51.1127 Z"></path>
<path id="" fill="#ffa000" fill-opacity="1.0" stroke="#000000" stroke-width="0.0" stroke-opacity="1.0" stroke-linecap="round" stroke-linejoin="round"  filling="0" d="M363.4125 73.4182 C365.6850 74.9677 368.1025 79.9788 369.3800 82.5445 C371.5275 86.8650 372.9625 91.4155 374.7600 95.8770 C383.9075 118.5973 390.2900 142.1395 391.9500 166.6373 C392.1600 169.7625 392.0500 172.9073 392.1825 176.0378 C392.3475 179.9635 393.0875 183.9368 393.0150 187.8565 C392.9600 190.8920 392.3425 193.9280 392.1950 196.9690 C392.0550 199.8593 392.1800 202.7648 391.9825 205.6515 C391.2225 216.7207 389.1675 227.9492 385.6125 238.4705 C383.8950 243.5485 381.8200 249.1625 378.7000 253.5250 C375.1850 258.4350 364.8050 266.0075 359.4775 269.2200 C357.2800 270.5475 354.9450 271.6550 352.6450 272.7900 C350.7625 273.7375 348.6425 275.0775 346.4900 275.1375 C346.1375 274.9550 345.9750 274.9850 345.8525 274.5725 C345.4050 273.0575 350.5600 264.7825 351.4925 262.7950 C352.7525 260.1100 353.7250 257.2400 354.7575 254.4575 C358.4125 244.6037 361.1700 234.8443 363.2750 224.5412 C364.0225 220.8830 365.0175 217.2617 365.6050 213.5740 C369.7275 188.2717 368.3900 162.3805 361.6825 137.6375 C360.6600 133.7637 359.3450 129.9770 358.1700 126.1490 C357.1825 122.9303 356.3225 119.6527 355.2400 116.4650 C353.0000 109.8605 349.0950 103.9017 346.6875 97.2970 C347.6800 95.1625 361.7025 75.0290 363.4125 73.4182 Z"></path>
<path id="" fill="#ffa000" fill-opacity="1.0" stroke="#000000" stroke-width="0.0" stroke-opacity="1.0" stroke-linecap="round" stroke-linejoin="round"  filling="0" d="M271.2725 145.6382 C271.6950 145.6450 272.2275 145.6225 272.6275 145.7830 C274.0575 146.3548 275.3575 149.4133 276.0250 150.7345 C290.2325 178.8845 299.4000 211.1842 301.0200 242.7365 C301.3025 248.2770 301.0800 253.9250 301.0900 259.4800 C301.0975 263.9400 301.2700 268.4850 301.0300 272.9350 C300.8575 276.1675 300.3650 279.4125 299.9700 282.6275 C298.7900 292.2350 297.2600 301.7650 294.2100 310.9950 C290.4850 322.2600 286.4775 327.8575 277.0550 335.0900 C271.7975 339.1250 266.4675 342.2675 260.5650 345.2400 C259.2900 345.9200 257.8475 346.8325 256.4200 347.1200 C255.7775 347.2500 255.5100 347.2050 254.9625 346.8700 C254.6225 346.0000 255.1025 344.9550 255.4250 344.1325 C256.5625 341.2300 258.2800 338.4950 259.6700 335.7000 C261.6275 331.7550 263.3525 327.6250 265.0300 323.5525 C266.7800 319.3025 268.0275 314.9650 269.3375 310.5650 C271.3400 303.8425 273.2675 296.9275 274.5425 290.0225 C275.8650 282.8575 276.5375 275.4500 277.1250 268.1925 C277.3850 264.9750 277.9025 261.7275 277.8950 258.4975 C277.8850 254.1450 277.3550 249.7875 276.9800 245.4540 C275.2950 225.9382 271.2775 207.2507 264.2975 188.9093 C263.1000 185.7657 255.5350 169.7287 255.7675 168.0435 C256.0975 165.6650 269.1075 147.6633 271.2725 145.6382 Z"></path>
<path id="" fill="#ffa000" fill-opacity="1.0" stroke="#000000" stroke-width="0.0" stroke-opacity="1.0" stroke-linecap="round" stroke-linejoin="round"  filling="0" d="M181.0448 221.6180 C181.3480 221.6410 181.5535 221.6413 181.8488 221.7258 C182.6480 221.9550 183.0482 222.5748 183.4455 223.2538 C184.6393 225.2923 185.4843 227.6198 186.4870 229.7623 C188.8488 234.8082 191.0520 239.7668 193.1127 244.9453 C202.6120 268.4500 208.3175 293.3125 210.0157 318.6050 C210.3013 323.6050 210.0650 328.7125 210.0775 333.7225 C210.0920 339.5550 210.3347 345.4900 209.9688 351.3125 C209.8002 353.9925 209.2392 356.6600 208.8672 359.3200 C207.8228 366.7850 206.6908 374.0175 204.8152 381.3325 C198.9747 404.1125 190.3875 409.1150 171.4685 420.3100 C170.5795 420.6900 169.7390 421.0200 168.7852 421.2000 C167.7780 421.3875 166.9415 421.5125 166.0578 420.8875 C165.5480 419.9450 165.8255 418.8625 166.1435 417.8950 C167.6897 413.1925 170.7895 408.5775 172.7413 403.9175 C176.9772 393.8025 179.9617 383.1575 182.4747 372.4975 C183.8980 366.4600 185.0540 360.2000 185.6415 354.0225 C185.9187 351.1100 185.9113 348.1725 186.1037 345.2525 C186.3277 341.8575 186.8780 338.5150 186.9180 335.1000 C186.9688 330.7300 186.4357 326.4575 186.1107 322.1100 C185.6350 315.7525 185.1857 309.4950 184.1565 303.1850 C181.9037 289.3725 177.3375 275.1575 172.0108 262.2350 C169.7838 256.8300 167.7697 250.7600 164.6940 245.7937 C165.7265 242.1093 178.2392 224.0990 181.0448 221.6180 Z"></path>
<path id="" fill="#ffdf81" fill-opacity="1.0" stroke="#000000" stroke-width="0.0" stroke-opacity="1.0" stroke-linecap="round" stroke-linejoin="round"  filling="0" d="M347.1925 97.3960 C347.5125 97.5620 347.7925 97.7402 348.0525 97.9925 C350.8550 100.7133 352.5300 106.3788 354.0375 109.9742 C364.6400 134.8103 370.0925 161.5395 370.0650 188.5437 C369.9875 213.7740 363.1250 240.8913 353.1350 263.9800 C351.7125 267.2700 350.2575 272.1850 347.7325 274.6925 C347.4025 274.5925 347.1200 274.4900 346.8700 274.2350 C345.3575 272.6950 343.5075 267.4000 342.5450 265.2700 C332.2975 242.3098 326.3500 217.6633 325.0025 192.5560 C323.7050 165.1308 330.6125 133.4265 341.6600 108.4525 C343.2000 104.9677 344.6450 100.1938 347.1925 97.3960 Z"></path>
<path id="" fill="#ffdf81" fill-opacity="1.0" stroke="#000000" stroke-width="0.0" stroke-opacity="1.0" stroke-linecap="round" stroke-linejoin="round"  filling="0" d="M164.9435 422.0575 C162.9413 418.1150 160.8938 414.1700 159.1497 410.1050 C147.9628 384.0300 141.6803 353.8025 143.0250 325.3800 C143.3220 319.1025 144.2823 312.6375 145.2060 306.4200 C147.8783 288.4400 153.2680 271.3825 160.3622 254.6875 C161.4648 252.0950 163.0327 247.1667 165.2765 245.5027 L165.8008 245.6605 C168.3972 248.3455 169.8415 252.8150 171.2988 256.2225 C178.3723 272.6700 183.3140 289.9550 186.0045 307.6575 C186.6025 311.7375 187.2140 315.9400 187.3165 320.0675 C188.8002 326.0875 188.2710 341.8300 187.2855 348.0575 C187.1918 362.8650 180.5547 387.6000 175.2733 401.5875 C174.1422 404.5650 172.9373 407.5100 171.6595 410.4275 C170.6630 412.6550 169.5007 414.8650 168.7000 417.1700 L168.5385 417.6425 C167.9960 419.2025 167.9342 420.6975 167.8535 422.3300 C166.8815 422.1900 165.9240 422.1100 164.9435 422.0575 Z"></path>
<path id="" fill="#ffdf81" fill-opacity="1.0" stroke="#000000" stroke-width="0.0" stroke-opacity="1.0" stroke-linecap="round" stroke-linejoin="round"  filling="0" d="M256.0425 169.4408 C256.4325 169.6142 256.8100 169.7802 257.1275 170.0703 C259.4475 172.1740 261.3450 177.6280 262.6125 180.6033 C271.6200 201.7070 276.8425 223.3952 278.8150 246.2487 C279.1450 250.0800 279.0775 253.9475 279.0775 257.7900 C278.9000 283.7550 273.5500 309.4250 263.3450 333.3000 C261.5675 337.5475 259.8200 343.1550 256.8700 346.6575 C256.5375 346.5450 256.4275 346.5575 256.1875 346.3300 C254.7075 344.9200 252.1375 338.4725 251.2075 336.2725 C241.6257 313.6425 236.5930 292.9825 234.4913 268.5225 C232.0558 240.1767 239.2372 207.0043 250.5150 181.0440 C251.8300 178.0195 254.1275 171.7173 256.0425 169.4408 Z"></path>
</svg>