<svg xmlns="http://www.w3.org/2000/svg" viewBox="0 0 512 512" height="512.0px" width="512.0px">
<path id="" fill="#ffe47f" fill-opacity="1.0" stroke="#000000" stroke-width="0.0" stroke-opacity="1.0" stroke-linecap="round" stroke-linejoin="round"  filling="0" d="M228.8687 86.1045 C231.6095 85.7688 234.5760 85.9642 237.3410 85.9637 C242.1152 85.9628 246.9395 85.8385 251.7050 86.0543 C255.0175 86.2040 258.3075 86.6873 261.6175 86.8607 C264.2800 87.0000 266.9525 86.9342 269.6150 87.0875 C272.3950 87.2475 275.1600 87.6365 277.9375 87.8135 L333.1700 91.8235 C336.1575 92.0200 339.1600 91.9163 342.1475 92.1190 C350.0875 92.6582 358.0550 93.4747 366.0025 93.8757 C368.9150 94.0228 371.8375 93.9285 374.7475 94.0970 C377.7525 94.2710 380.7450 94.6898 383.7525 94.8525 C386.5800 95.0058 389.4225 94.9098 392.2475 95.1192 C395.3875 95.3522 398.5250 95.7745 401.6725 95.9135 C406.8050 96.1403 411.9675 95.8705 417.1050 96.0182 C420.7650 96.1235 424.3975 96.6955 428.0525 96.8842 C433.0075 97.1400 437.9875 96.8687 442.9450 97.0435 C446.6375 97.1735 450.3150 97.7777 454.0000 98.0522 C455.1675 101.8607 455.0950 105.8167 455.4300 109.7572 C456.2575 119.4880 456.7125 129.2625 457.2650 139.0115 C457.4350 142.0105 457.8500 144.9940 457.9825 147.9953 C458.1500 151.7540 458.0000 155.5222 458.2025 159.2823 C458.3800 162.6150 458.8600 165.9320 458.9950 169.2670 C459.1600 173.3990 458.9650 177.5460 459.1275 181.6790 C459.2975 185.9207 459.9300 190.1328 460.0300 194.3772 C460.2175 202.4485 460.0650 210.5573 460.0650 218.6315 L460.0625 265.0200 L460.0600 302.2650 C460.0575 308.7900 460.2000 315.3500 460.0100 321.8700 C459.9125 325.2625 459.2375 328.6100 459.1100 332.0025 C458.8875 337.8150 459.2025 343.6500 458.9975 349.4675 C458.8750 352.9825 458.3175 356.4700 458.1500 359.9825 C457.8750 365.7975 458.2075 371.6400 458.0100 377.4600 C457.8875 381.0500 457.2925 384.6125 457.1300 388.2025 L456.1925 406.4625 C455.9550 410.8400 456.6100 415.5050 455.0125 419.6625 C449.3975 420.8250 443.9100 420.9175 438.2200 421.2025 L420.2525 422.1875 C417.0475 422.3700 413.8625 422.8500 410.6550 422.9700 C406.6800 423.1200 402.6950 422.9500 398.7200 423.1700 C395.1775 423.3650 391.6475 423.8925 388.1025 423.9950 C377.2750 424.3050 366.3625 424.0350 355.5275 424.0325 L306.6375 424.0125 C302.8625 423.9750 299.1225 423.3550 295.3625 423.1100 C291.8175 422.8775 288.1800 423.0175 284.6250 423.0300 C281.7825 423.0375 278.9175 423.0775 276.0800 422.8875 C273.1500 422.6925 270.2375 422.2575 267.3050 422.1075 C263.3250 421.9075 259.3225 422.1225 255.3375 421.9600 C252.0650 421.8275 248.8165 421.3075 245.5470 421.1200 C240.8683 420.8475 236.1593 421.1775 231.4767 420.9000 C228.6160 420.7300 225.7713 420.3425 222.9115 420.1525 L179.5907 417.2200 C172.8277 416.7525 166.0242 416.3625 159.2717 415.7725 C155.0600 415.4050 150.8658 414.8175 146.6570 414.4075 C143.2193 414.0750 139.5245 414.3250 136.1727 413.4675 C131.2710 412.2125 119.3905 403.7000 115.2525 400.2675 C111.6285 397.2625 107.7838 394.2975 104.4410 390.9850 C101.1215 387.6950 98.1955 383.8875 95.2282 380.2775 C85.4268 368.2625 77.4207 354.8875 71.4600 340.5725 C65.3203 325.6275 60.1732 303.7200 57.7855 287.7375 C56.4782 278.9900 55.7207 270.1225 54.8135 261.3250 C54.3470 256.8025 53.6922 252.2950 53.2773 247.7695 C52.9252 243.9303 53.0320 240.0853 52.8172 236.2405 C52.6310 232.9032 52.1855 229.5805 52.0260 226.2422 C51.8410 222.3760 51.9490 218.4525 51.9458 214.5797 C51.9357 202.9693 52.0493 189.3250 55.0395 178.0878 C57.3210 169.5132 61.2070 161.5952 66.9362 154.7872 C70.5088 150.5420 74.8483 146.0455 79.3260 142.7625 C91.5407 133.8070 106.2668 126.2827 120.0650 120.0137 C123.8085 118.3130 127.6345 116.8002 131.3817 115.1093 C142.7840 109.9635 154.2578 105.2295 165.9267 100.7128 C174.4848 97.4000 183.0847 94.0403 191.9720 91.6978 C198.9978 89.8460 206.3670 88.3085 213.5777 87.4108 C218.6085 86.7842 223.8050 86.5455 228.8687 86.1045 Z"></path>
<path id="" fill="#ffa000" fill-opacity="1.0" stroke="#000000" stroke-width="0.0" stroke-opacity="1.0" stroke-linecap="round" stroke-linejoin="round"  filling="0" d="M231.8103 85.3535 C241.1585 84.4057 251.7750 85.3820 261.1450 85.9325 C279.4175 87.0058 297.6525 88.6503 315.9150 89.8452 L387.7500 93.9745 C400.7000 94.6655 413.6875 95.1635 426.6050 96.3830 C428.4150 96.5540 430.4800 96.7003 431.9875 97.8010 C432.3225 98.4125 432.3450 98.4212 432.2300 99.1042 C431.6700 99.6660 431.3000 99.7007 430.5325 99.8450 C428.2225 100.2783 425.8100 100.2795 423.4775 100.5918 C417.7775 101.3540 412.1050 102.2807 406.4025 103.0275 C387.5575 105.4948 368.6525 107.7545 349.8400 110.4212 L243.1415 126.1695 C234.3687 127.6787 225.5370 128.9008 216.7448 130.2962 L136.7655 142.7795 C132.8080 143.4065 128.9010 144.3407 124.9547 145.0338 C117.3992 146.3607 109.7755 147.4100 102.2035 148.6700 C93.8840 150.0542 85.5107 151.6577 77.1580 152.7843 C75.6050 152.9937 71.4560 153.6645 70.1053 152.9680 C69.7870 152.8038 69.7928 152.4617 69.6965 152.1452 C69.8792 151.0260 70.4990 150.1820 71.2158 149.3290 C74.4358 145.4957 78.6592 142.3800 82.7377 139.5105 C98.1483 128.6685 114.9178 121.6840 132.1835 114.4933 C142.8350 110.0815 153.5358 105.7900 164.2840 101.6192 C173.5282 98.0688 182.9060 93.7923 192.4730 91.1990 C205.4580 87.6790 218.4530 86.4195 231.8103 85.3535 Z"></path>
<path id="" fill="#fffefe" fill-opacity="1.0" stroke="#000000" stroke-width="0.0" stroke-opacity="1.0" stroke-linecap="round" stroke-linejoin="round"  filling="0" d="M458.4375 187.8383 L458.7000 187.9270 C459.7075 188.9635 459.8975 191.5468 459.9950 192.9615 C460.2300 196.3672 460.0925 199.8528 460.0875 203.2670 L460.0775 220.8307 L460.1075 278.1100 C447.7750 278.0550 439.3600 274.5525 430.2900 266.0725 C423.0850 258.6450 417.6800 250.6125 416.3675 240.1167 C414.7875 227.4807 416.8900 216.2565 424.8725 206.0397 C433.4100 195.1118 444.8100 189.4973 458.4375 187.8383 Z"></path>
<path id="" fill="#ffb200" fill-opacity="1.0" stroke="#000000" stroke-width="0.0" stroke-opacity="1.0" stroke-linecap="round" stroke-linejoin="round"  filling="0" d="M430.4150 96.1005 C438.9650 96.6590 447.5550 97.2405 456.1250 97.3183 L457.3100 120.1038 C454.7750 120.2217 452.2700 120.6852 449.7450 120.8952 L428.3575 122.7390 C404.8275 124.8607 381.3350 127.3962 357.8950 130.3448 C277.3075 140.0797 197.0627 152.4765 117.2945 167.5150 C111.0235 168.7122 82.8008 173.0437 79.3643 176.2980 C76.1170 179.3730 74.3528 199.3412 74.1243 204.4700 C73.7275 213.3783 73.9645 222.4563 74.0618 231.3743 C74.1078 235.5872 74.5797 239.7840 74.9157 243.9807 C75.5827 252.8825 76.5098 261.7650 77.6955 270.6125 C82.4203 306.0225 88.9337 339.0725 112.7798 367.1800 C115.0388 369.8450 117.2615 372.6775 119.7710 375.1075 C126.4495 381.5725 137.7258 390.1025 146.5773 392.8650 C151.7442 394.4800 157.8670 394.4675 163.2505 394.9550 C176.8698 396.1850 190.5060 397.2250 204.1545 398.0725 L254.8325 401.0975 C257.6275 401.2675 260.4000 401.7400 263.2000 401.8825 C267.0025 402.0750 270.8250 401.9100 274.6325 402.0075 C278.4925 402.1050 282.3225 402.7450 286.1800 402.9000 C291.4175 403.1125 296.6750 402.8625 301.9125 403.0475 C305.2500 403.1650 308.5575 403.8200 311.8950 403.9125 C323.5650 404.2450 335.3150 404.0100 346.9925 404.0275 C360.6100 404.0475 374.2850 404.2725 387.8950 403.9350 C391.5650 403.8450 395.1850 403.2675 398.8475 403.0875 C401.8125 402.9425 404.7875 403.0175 407.7550 402.8575 C410.3275 402.7200 412.8850 402.3500 415.4575 402.1750 C422.4875 401.6975 429.5025 401.3475 436.5275 400.7275 C443.3975 400.1225 450.2850 398.9975 457.1800 398.8475 C456.7625 405.0275 457.2275 411.1225 456.4350 417.3100 C456.2400 418.9275 456.0650 420.5475 455.9150 422.1675 C444.2425 423.9300 432.4025 424.6075 420.6250 425.2850 C417.5200 425.4650 414.4225 425.8200 411.3150 425.9450 C407.2225 426.1100 403.1200 426.0650 399.0250 426.2225 C376.5000 427.1825 353.9500 427.3950 331.4100 426.8650 C325.9675 426.7475 320.5525 426.2600 315.1150 426.1075 C309.6375 425.9550 304.1525 426.0900 298.6725 425.9575 C293.8225 425.8400 288.9950 425.3600 284.1525 425.1425 C280.5500 424.9800 276.9400 425.0650 273.3375 424.9050 C256.1125 424.1300 238.9080 422.7325 221.6832 421.9925 C207.5165 421.3850 193.2745 420.0425 179.1308 418.9450 L160.3010 417.4250 C155.1220 417.0175 149.9225 416.8025 144.8290 415.7000 C129.3763 412.3625 111.3200 399.6150 100.7800 388.1000 C67.7628 352.0250 58.8725 310.6825 53.7200 263.5975 C51.6503 244.6840 50.1865 225.3085 51.0890 206.2740 C51.2702 202.4540 51.6725 198.6370 51.9352 194.8208 C52.8330 181.7878 53.8438 172.3420 61.5730 161.1228 C63.1823 158.7867 64.9260 156.3525 67.0522 154.4515 C67.8207 153.7643 68.5650 153.2470 69.5985 153.0800 C74.4113 152.3022 79.3415 152.1998 84.1613 151.4240 L305.4775 116.3305 C307.8575 115.9583 310.2825 115.8882 312.6725 115.5750 C315.3775 115.2202 318.0450 114.6095 320.7550 114.2660 C324.9650 113.7325 329.1975 113.3992 333.3975 112.7852 C336.3750 112.3497 339.3000 111.6035 342.2775 111.1750 C346.0050 110.6385 349.7850 110.3695 353.4975 109.7588 C356.0775 109.3350 358.6025 108.5260 361.1925 108.1812 C364.4100 107.7525 367.6950 107.8842 370.9375 107.4960 C382.3775 106.1263 393.7800 104.3863 405.2125 102.9355 C409.4800 102.4323 413.7400 101.8853 417.9975 101.2945 C421.8075 100.7452 426.0825 99.6835 429.9025 99.9090 C429.8425 98.6438 429.6150 97.1382 430.4150 96.1005 Z"></path>
<path id="" fill="#ffc400" fill-opacity="1.0" stroke="#000000" stroke-width="0.0" stroke-opacity="1.0" stroke-linecap="round" stroke-linejoin="round"  filling="0" d="M230.4948 199.2168 C255.5225 197.6640 277.0850 216.6565 278.7050 241.6790 C280.3250 266.7025 261.3925 288.3150 236.3737 290.0050 C211.2600 291.6975 189.5443 272.6750 187.9178 247.5578 C186.2912 222.4395 205.3723 200.7753 230.4948 199.2168 Z"></path>
<path id="" fill="#ffc400" fill-opacity="1.0" stroke="#000000" stroke-width="0.0" stroke-opacity="1.0" stroke-linecap="round" stroke-linejoin="round"  filling="0" d="M354.2475 279.0900 C373.0275 276.7600 390.1075 290.1775 392.2925 308.9750 C394.4750 327.7725 380.9275 344.7500 362.1125 346.7900 C343.5050 348.8050 326.7500 335.4350 324.5900 316.8425 C322.4300 298.2475 335.6700 281.3925 354.2475 279.0900 Z"></path>
<path id="" fill="#ffc400" fill-opacity="1.0" stroke="#000000" stroke-width="0.0" stroke-opacity="1.0" stroke-linecap="round" stroke-linejoin="round"  filling="0" d="M166.1322 301.9500 C181.6840 299.4225 196.3215 310.0375 198.7507 325.6050 C201.1800 341.1725 190.4727 355.7425 174.8902 358.0725 C159.4470 360.3825 145.0358 349.7925 142.6280 334.3625 C140.2205 318.9350 150.7195 304.4575 166.1322 301.9500 Z"></path>
<path id="" fill="#ffc400" fill-opacity="1.0" stroke="#000000" stroke-width="0.0" stroke-opacity="1.0" stroke-linecap="round" stroke-linejoin="round"  filling="0" d="M353.8225 154.1105 C366.1775 151.5177 378.2775 159.4965 380.7600 171.8748 C383.2450 184.2527 375.1600 196.2812 362.7600 198.6550 C350.5150 200.9995 338.6675 193.0363 336.2150 180.8120 C333.7625 168.5878 341.6200 156.6710 353.8225 154.1105 Z"></path>
<path id="" fill="#ffc400" fill-opacity="1.0" stroke="#000000" stroke-width="0.0" stroke-opacity="1.0" stroke-linecap="round" stroke-linejoin="round"  filling="0" d="M122.5085 222.1122 C131.8622 220.6283 140.6348 227.0465 142.0515 236.4105 C143.4685 245.7745 136.9875 254.5000 127.6135 255.8500 C118.3343 257.1875 109.7152 250.7850 108.3127 241.5155 C106.9102 232.2460 113.2495 223.5815 122.5085 222.1122 Z"></path>
</svg>