<svg xmlns="http://www.w3.org/2000/svg" viewBox="0 0 512 512" height="512.0px" width="512.0px">
<path id="" fill="#ffecb3" fill-opacity="1.0" stroke="#000000" stroke-width="0.0" stroke-opacity="1.0" stroke-linecap="round" stroke-linejoin="round"  filling="0" d="M382.3250 59.6885 C382.8225 59.6933 383.3600 59.7117 383.8300 59.8938 C386.2925 60.8500 390.3075 65.6492 392.3100 67.6722 C412.0375 87.6025 426.7750 111.5045 437.4350 137.3562 C439.7825 143.0453 441.4775 148.9905 443.3000 154.8615 C460.0625 208.8887 457.2250 267.0975 435.2875 319.2375 C433.6925 323.0450 431.7075 326.7225 429.8625 330.4150 C405.0250 379.0000 363.5650 417.0525 313.0325 437.6425 C289.1500 447.5675 263.8025 453.5250 237.9980 455.2725 C231.2755 455.7500 224.8950 456.1800 218.1375 456.0000 C214.8020 455.9100 211.4905 455.3850 208.1617 455.1800 C205.5910 455.0200 203.0052 455.0025 200.4395 454.7800 C192.0710 454.0475 183.4527 452.5400 175.2415 450.7525 C165.3810 448.6075 155.2498 446.0825 145.9315 442.1675 C128.6342 435.7250 112.2038 427.1600 97.0165 416.6700 C93.0325 413.9025 89.0927 410.9675 85.3327 407.9000 C81.5342 404.8050 78.0415 401.3725 74.4243 398.0725 C71.4785 395.3850 60.5300 386.7075 59.9270 383.3600 C61.0627 380.6075 64.6900 378.1275 66.7762 376.0225 L81.9512 360.8900 L114.4512 328.3625 L317.8675 124.5973 L371.1975 71.1565 C374.9950 67.3863 377.7000 62.6200 382.3250 59.6885 Z"></path>
<path id="" fill="#feb300" fill-opacity="1.0" stroke="#000000" stroke-width="0.0" stroke-opacity="1.0" stroke-linecap="round" stroke-linejoin="round"  filling="0" d="M313.2350 128.7072 C314.8475 129.5655 316.1800 131.4317 317.3800 132.8087 C323.0000 139.2595 328.1125 146.0745 332.0500 153.7005 C337.1975 163.6705 340.7300 175.3752 341.7600 186.5567 C342.1400 190.6875 342.0425 194.8600 342.0475 199.0045 C342.0525 202.5120 342.1675 206.0647 341.9575 209.5650 C341.3675 219.4005 339.0375 229.3647 336.0500 238.7285 C323.4300 277.2075 296.0825 309.1200 259.9900 327.4825 C255.4725 329.8100 250.7500 331.7225 246.0215 333.5750 C219.0335 344.1500 191.4335 346.2300 163.6885 337.3625 C153.0185 333.5675 141.6695 326.9625 133.0903 319.5250 C131.7175 318.3350 128.8850 316.2650 128.7445 314.3250 C131.5573 310.1300 138.1747 304.3475 142.0027 300.5200 L169.3922 273.1375 L277.3825 165.1520 L306.1000 136.3215 C308.5225 133.8760 310.3875 130.6752 313.2350 128.7072 Z"></path>
<path id="" fill="#4caf50" fill-opacity="1.0" stroke="#000000" stroke-width="0.0" stroke-opacity="1.0" stroke-linecap="round" stroke-linejoin="round"  filling="0" d="M390.5050 51.6875 C392.3600 51.8717 393.8925 53.4247 395.1700 54.6680 C397.3200 56.7595 399.1925 59.1158 401.1575 61.3763 C406.3525 67.3508 411.2925 73.4030 415.8975 79.8485 C444.4275 119.2895 460.3150 166.4600 461.4625 215.1243 C462.7625 280.5775 437.6700 343.8025 391.8350 390.5475 C389.7275 392.7025 387.3050 394.5550 385.1075 396.6200 C341.1650 437.5050 283.4975 460.4450 223.4767 460.9125 C173.8573 461.3050 125.3250 446.3775 84.5010 418.1700 C76.1055 412.3625 67.4433 406.0175 60.1602 398.8275 C57.6695 396.3700 53.8960 394.3375 52.0948 391.3175 C51.8223 390.8625 51.7690 390.7350 51.9610 390.1975 C52.7148 388.0875 62.8662 378.3575 65.0090 376.6625 C65.5772 376.2150 66.2322 375.9075 66.8932 375.6200 C71.1440 377.4775 74.3922 382.0575 77.8568 385.0900 C81.5052 388.2850 85.3030 391.3975 89.1310 394.3750 C117.4088 416.0525 150.6223 430.3775 185.7960 436.0675 C241.9030 445.3100 299.3925 432.0975 345.8350 399.2850 C393.1975 366.0025 425.3825 315.2525 435.2975 258.2200 C443.2025 212.2590 436.3375 164.9767 415.6950 123.1602 C412.1725 116.0573 408.4725 109.1690 404.1425 102.5160 C398.9925 94.6075 393.5600 86.6882 387.4500 79.4778 C384.6725 76.1982 379.9225 72.0625 377.7325 68.8477 C377.0825 67.8943 376.5325 66.8727 376.8450 65.6955 C377.5150 63.1655 388.0550 52.9405 390.5050 51.6875 Z"></path>
<path id="" fill="#f57f16" fill-opacity="1.0" stroke="#000000" stroke-width="0.0" stroke-opacity="1.0" stroke-linecap="round" stroke-linejoin="round"  filling="0" d="M226.0755 216.9402 C229.5790 217.6622 234.0900 217.9525 236.8922 220.3945 C238.6470 221.9238 239.9345 223.9973 241.0677 226.0052 C242.5612 228.6517 251.2800 247.5855 251.2900 249.5508 C251.2925 250.0525 251.3325 249.8615 250.9550 250.2650 C248.4840 250.6475 245.1432 248.9982 242.9080 248.0323 C236.6900 245.3513 224.5100 240.6432 220.2365 235.8025 C218.0560 233.3327 217.7997 230.2070 214.9105 228.2485 C217.5002 223.9668 221.7055 219.4263 226.0755 216.9402 Z"></path>
<path id="" fill="#f57f16" fill-opacity="1.0" stroke="#000000" stroke-width="0.0" stroke-opacity="1.0" stroke-linecap="round" stroke-linejoin="round"  filling="0" d="M266.6450 256.8225 C266.7525 256.8175 266.8600 256.8100 266.9675 256.8075 C269.8250 256.7075 272.2825 257.6700 274.3425 259.6500 C278.1450 263.3025 286.8500 281.8925 288.1050 287.1550 C288.3625 288.2275 288.3175 289.4150 288.3250 290.5125 C285.2675 289.8625 282.5350 288.7225 279.6800 287.4950 C273.7425 284.9750 267.1900 282.3000 261.7675 278.7925 C258.7225 276.8225 255.6900 273.8025 255.0000 270.1075 C254.5050 267.4550 255.5350 265.0900 257.0025 262.9400 C259.3700 259.4650 262.5600 257.5700 266.6450 256.8225 Z"></path>
<path id="" fill="#f57f16" fill-opacity="1.0" stroke="#000000" stroke-width="0.0" stroke-opacity="1.0" stroke-linecap="round" stroke-linejoin="round"  filling="0" d="M250.5525 195.0305 C251.0825 194.9892 251.6000 194.9577 252.1300 194.9753 C254.8725 195.0650 258.3675 195.9400 260.2400 198.0395 C263.0525 201.1927 273.6125 223.2233 273.3125 226.5282 C273.2600 227.1030 273.2250 226.9925 272.8225 227.3275 C270.2950 227.8745 267.0325 226.1285 264.8075 225.1062 C258.8200 222.6862 252.5725 219.7870 246.9770 216.5623 C243.5925 214.6118 240.8907 211.5850 239.9617 207.7140 C239.3825 205.3002 239.8040 203.0080 241.1118 200.9113 C243.3020 197.3992 246.7035 195.9410 250.5525 195.0305 Z"></path>
<path id="" fill="#f57f16" fill-opacity="1.0" stroke="#000000" stroke-width="0.0" stroke-opacity="1.0" stroke-linecap="round" stroke-linejoin="round"  filling="0" d="M213.5968 295.0275 C213.6930 295.0275 213.7892 295.0250 213.8853 295.0275 C217.0938 295.1250 220.9572 296.6400 223.0842 299.0475 C225.7755 302.0900 236.4937 324.6150 236.2420 328.1325 C234.4220 328.8225 229.9588 326.4800 228.1690 325.6975 C225.1990 324.4750 222.2645 323.1675 219.3698 321.7750 C215.1967 319.7500 207.2100 316.7150 204.5500 312.9750 C203.2207 311.1075 202.5612 308.7725 201.8160 306.6225 C202.4283 304.5600 202.9942 302.5625 204.1478 300.7225 C206.3655 297.1850 209.7125 295.8775 213.5968 295.0275 Z"></path>
<path id="" fill="#f57f16" fill-opacity="1.0" stroke="#000000" stroke-width="0.0" stroke-opacity="1.0" stroke-linecap="round" stroke-linejoin="round"  filling="0" d="M203.5175 241.0295 C206.5813 240.8195 210.0437 241.0040 212.9483 242.0685 C216.3427 243.3127 219.9330 251.4200 221.4742 254.7450 C222.8932 257.8050 229.1660 270.8250 228.2502 273.3150 C226.4725 273.6775 222.7522 271.6675 221.0690 270.9125 C214.8752 268.6650 208.3090 265.6275 202.5940 262.3700 C196.7020 259.0125 195.4332 255.4950 193.7475 249.2758 C193.9088 248.9987 194.0725 248.7238 194.2395 248.4505 C196.5765 244.6245 199.0585 242.0907 203.5175 241.0295 Z"></path>
<path id="" fill="#f57f16" fill-opacity="1.0" stroke="#000000" stroke-width="0.0" stroke-opacity="1.0" stroke-linecap="round" stroke-linejoin="round"  filling="0" d="M243.6118 279.0225 C243.7650 279.0125 243.9182 279.0000 244.0720 278.9925 C246.9230 278.8525 250.5525 280.2075 252.5800 282.1750 C255.2250 284.7400 266.2875 307.8350 266.2625 311.1675 C266.2575 311.7450 266.3375 311.8675 265.9025 312.2800 C263.4425 312.2525 260.3625 310.5025 258.0950 309.5425 C252.7025 306.9275 247.1030 304.8400 241.8410 301.9425 C238.4577 300.0775 234.1443 297.7000 233.0862 293.6750 C232.4145 291.1200 232.6167 286.9375 234.0228 284.6675 C236.1150 281.2850 239.9370 279.8550 243.6118 279.0225 Z"></path>
<path id="" fill="#f57f16" fill-opacity="1.0" stroke="#000000" stroke-width="0.0" stroke-opacity="1.0" stroke-linecap="round" stroke-linejoin="round"  filling="0" d="M289.9400 232.8172 C290.8500 232.7710 291.7900 232.8438 292.6975 232.9353 C295.4825 233.2165 297.7325 234.5055 299.4700 236.6745 C301.7500 239.5188 312.9250 261.6550 312.3700 264.7450 C312.3000 265.1325 312.1225 265.1400 311.8225 265.3425 C309.2750 265.5100 306.1575 264.0425 303.8850 262.9975 C297.4550 259.8675 290.5700 257.5375 284.5800 253.5500 C281.9175 251.7800 279.4700 249.4800 278.8850 246.1862 C278.4000 243.4505 279.1975 240.0867 280.8075 237.8210 C282.9175 234.8530 286.4450 233.3383 289.9400 232.8172 Z"></path>
<path id="" fill="#f57f16" fill-opacity="1.0" stroke="#000000" stroke-width="0.0" stroke-opacity="1.0" stroke-linecap="round" stroke-linejoin="round"  filling="0" d="M305.2750 202.8387 L305.7725 202.8430 C309.3550 202.8805 312.6525 203.3520 315.2450 206.0627 C318.5975 209.5685 328.4350 230.3177 328.3325 234.7830 C328.1400 235.0802 328.1250 235.2702 327.7475 235.3525 C325.7400 235.7905 322.5525 233.8805 320.8125 233.0110 C314.4025 229.8990 304.8975 226.6022 299.4025 222.3268 C297.0575 220.5007 295.0775 217.8065 294.8000 214.7688 C294.5175 211.6695 296.3275 208.5305 298.2650 206.2245 C300.2200 203.8990 302.3475 203.0835 305.2750 202.8387 Z"></path>
<path id="" fill="#f57f16" fill-opacity="1.0" stroke="#000000" stroke-width="0.0" stroke-opacity="1.0" stroke-linecap="round" stroke-linejoin="round"  filling="0" d="M180.1317 261.8800 C180.6232 261.9625 188.3865 266.4100 189.1725 267.0275 C193.5810 270.4950 196.7210 284.7525 197.4982 290.3550 C194.2135 290.3150 191.0318 289.3975 187.8557 288.6375 C182.4395 287.2025 175.8932 285.6725 172.7758 280.5475 C171.4492 278.3675 170.4877 275.9525 168.8938 273.9425 C168.8280 273.8600 168.7595 273.7800 168.6922 273.7000 C171.2878 269.2625 176.2648 265.2600 180.1317 261.8800 Z"></path>
<path id="" fill="#f57f16" fill-opacity="1.0" stroke="#000000" stroke-width="0.0" stroke-opacity="1.0" stroke-linecap="round" stroke-linejoin="round"  filling="0" d="M271.8675 171.2097 C271.9625 171.1990 272.0575 171.1825 272.1525 171.1777 C275.4875 171.0063 279.7300 172.2330 282.1400 174.5688 C286.9900 179.2693 289.2375 190.7747 289.3700 197.3670 C286.8375 197.3280 284.4600 196.8907 281.9850 196.4317 C277.4500 195.1497 271.9900 193.8898 268.1550 191.0907 C264.4300 188.3723 263.8300 183.9685 263.1225 179.7585 C265.2600 176.0310 268.2475 173.4642 271.8675 171.2097 Z"></path>
<path id="" fill="#f57f16" fill-opacity="1.0" stroke="#000000" stroke-width="0.0" stroke-opacity="1.0" stroke-linecap="round" stroke-linejoin="round"  filling="0" d="M319.5525 171.8443 C322.0100 171.7117 324.3400 171.9480 326.5000 173.2422 C333.7575 177.5932 334.6375 189.7473 336.4725 197.2493 C333.4950 197.3170 330.8275 196.7762 327.9350 196.1582 C323.7300 195.1217 319.1600 194.1152 315.4925 191.7230 C312.8050 189.9702 310.7250 187.4427 310.1150 184.2292 C309.6000 181.5002 310.3875 178.7435 311.9925 176.5110 C313.8575 173.9128 316.4025 172.2977 319.5525 171.8443 Z"></path>
<path id="" fill="#f57f16" fill-opacity="1.0" stroke="#000000" stroke-width="0.0" stroke-opacity="1.0" stroke-linecap="round" stroke-linejoin="round"  filling="0" d="M180.3952 310.8075 C183.5527 310.7000 186.6452 311.7200 189.1187 313.6850 C190.4685 314.7625 191.5750 316.1125 192.3655 317.6475 C194.5830 321.8600 196.9310 331.5425 197.4725 336.3150 C194.4830 336.3425 191.7128 335.7625 188.8078 335.1350 C184.6270 334.0100 180.0910 333.1250 176.4323 330.7000 C173.7677 328.9325 171.6573 326.3500 171.0862 323.1350 C170.6005 320.3975 171.6240 317.7575 173.1790 315.5350 C175.0055 312.9275 177.2598 311.3625 180.3952 310.8075 Z"></path>
<path id="" fill="#f57f17" fill-opacity="1.0" stroke="#000000" stroke-width="0.0" stroke-opacity="1.0" stroke-linecap="round" stroke-linejoin="round"  filling="0" d="M298.5650 143.7060 C298.8625 143.6617 299.0950 143.7478 299.3850 143.8155 C301.1900 146.8387 304.4450 162.9875 305.4725 167.2428 C300.6075 167.3392 296.0550 165.9880 291.4425 164.5995 C288.3375 163.3250 285.1150 162.4590 281.8800 161.5927 L281.8000 161.1232 C282.7650 157.9585 295.3900 145.6158 298.5650 143.7060 Z"></path>
<path id="" fill="#f57f16" fill-opacity="1.0" stroke="#000000" stroke-width="0.0" stroke-opacity="1.0" stroke-linecap="round" stroke-linejoin="round"  filling="0" d="M158.4670 283.6975 L159.1060 283.7400 C161.7925 286.1475 165.5070 302.3300 166.5370 306.2250 C161.9995 306.3650 157.9702 305.1900 153.6885 303.8475 C150.1322 302.5825 146.5235 301.5425 142.8780 300.5725 L142.7805 300.0075 C143.8750 296.8600 155.4050 285.6775 158.4670 283.6975 Z"></path>
</svg>