<svg xmlns="http://www.w3.org/2000/svg" viewBox="0 0 512 512" height="512.0px" width="512.0px">
<path id="" fill="#558b2f" fill-opacity="1.0" stroke="#000000" stroke-width="0.0" stroke-opacity="1.0" stroke-linecap="round" stroke-linejoin="round"  filling="0" d="M389.7100 51.8958 C390.6425 51.8848 391.1750 52.1220 391.9250 52.6615 C396.8525 56.2040 402.3850 63.5742 406.3100 68.3545 C433.4025 101.3465 452.4050 143.7580 458.4200 186.0258 C467.7125 251.3125 449.9425 315.1100 410.4475 367.6800 C379.7850 407.7075 337.1100 436.8650 288.6725 450.8825 C278.6000 453.8625 268.1450 456.4050 257.7400 457.8825 C242.7440 460.0125 227.8875 461.2050 212.7285 460.7550 C170.8318 459.1000 130.0672 446.6825 94.3635 424.6975 C86.5980 419.8625 79.0865 414.6325 71.8595 409.0250 C68.4057 406.3375 65.1608 403.3500 61.6722 400.7300 C58.8185 398.3000 54.2558 394.7050 52.3192 391.5900 C51.9390 390.9775 51.7272 390.4200 51.9455 389.6975 C52.1187 389.1250 52.4303 388.4750 52.8197 388.0150 C54.4182 386.1275 56.8378 384.5275 58.6555 382.8050 C62.4193 379.2375 72.0665 368.4675 75.8320 366.5950 C78.7207 368.9925 81.1682 371.7850 83.9610 374.2675 C89.4120 379.1100 95.3983 383.8375 101.2418 388.2125 C104.7920 390.8700 108.6003 393.2250 112.3465 395.5950 C138.5980 412.0900 168.2425 422.4275 199.0582 425.8350 C253.5850 431.8950 308.2675 415.8500 350.8750 381.2875 C364.2250 370.4250 376.2000 357.9775 386.5400 344.2175 C406.9800 316.5300 421.2000 281.2025 424.8400 246.9642 C428.7850 209.8652 424.4100 175.4778 409.7500 141.0737 C404.2950 128.2677 397.4325 115.6642 389.2300 104.4012 C384.5750 98.0107 379.3975 91.6435 373.9000 85.9575 C370.9850 82.9405 367.4025 80.2628 364.8075 76.9958 C364.7375 76.9077 364.6700 76.8177 364.6025 76.7290 C366.1025 73.7318 369.0525 71.3800 371.4125 69.0305 C374.6000 65.8550 377.7400 62.5865 381.0425 59.5302 C383.8650 56.9190 386.8650 54.4910 389.7100 51.8958 Z"></path>
<path id="" fill="#e5ed9b" fill-opacity="1.0" stroke="#000000" stroke-width="0.0" stroke-opacity="1.0" stroke-linecap="round" stroke-linejoin="round"  filling="0" d="M114.2452 328.4825 C118.2733 330.7200 121.7668 334.3575 125.2865 337.3175 C128.2295 339.7925 131.3740 342.0825 134.5302 344.2775 C137.4845 346.3300 140.5625 348.0800 143.6438 349.9275 C146.8935 351.8775 150.0497 353.9625 153.4348 355.6750 C171.7490 364.9475 192.7332 370.4625 213.0890 372.6000 C218.3925 373.1575 223.7680 373.0025 229.0935 372.9950 C261.5900 372.9225 293.3475 363.2875 320.4100 345.2950 C325.4350 341.9450 330.3150 337.9525 334.9925 334.1300 C338.6250 331.1625 341.8500 327.6375 345.1525 324.3100 C349.9525 319.4775 354.5150 314.5275 358.6625 309.1100 C362.6750 303.8700 366.1200 298.2225 369.4025 292.5075 C382.0825 270.4300 389.0050 247.8168 391.5225 222.4765 C394.0200 197.3310 388.3325 171.4232 378.5325 148.3438 C376.9775 144.6783 375.5125 140.8805 373.6125 137.3805 C367.7250 126.7000 360.9650 116.5230 353.4025 106.9532 C351.4125 104.4220 349.2600 102.0318 347.2400 99.5277 C346.6275 98.7705 345.5675 97.6783 345.7325 96.6808 C345.9050 95.6435 346.7850 94.7320 347.4650 93.9918 C350.1925 91.0275 353.5950 88.7740 356.3675 85.8660 C361.5875 80.3887 369.2825 69.2827 375.3950 65.5388 C381.1850 73.0140 387.9150 79.8135 393.7900 87.2560 C409.9025 107.7305 422.0700 131.0222 429.6700 155.9440 C433.0725 167.3730 436.0150 179.3053 437.7950 191.1158 C438.2000 193.7843 438.1950 196.4758 438.5250 199.1435 C438.7775 201.2052 439.3950 203.2575 439.5675 205.3205 C439.8575 208.7910 439.0275 212.9203 439.0125 216.5152 C439.0000 220.1888 439.0675 223.8618 439.2125 227.5323 C439.3375 230.1970 439.6750 232.9915 439.5025 235.6490 C439.3275 238.3517 438.3825 241.0428 438.0625 243.7453 C437.6300 247.4035 437.7050 251.1150 437.1775 254.7675 C436.7050 258.0600 435.7275 261.3350 435.0025 264.5850 C434.2000 268.1825 433.6700 271.8525 432.7625 275.4225 C431.4050 280.7575 429.6225 285.9300 427.9825 291.1775 C427.4300 292.9500 427.4575 294.9350 426.8050 296.6325 C425.9475 298.8725 424.6650 301.0050 423.6850 303.2025 C420.3600 310.6550 416.9900 317.7925 413.1050 324.9725 C411.7475 328.4825 409.8150 331.5975 408.0400 334.9025 C406.1025 338.5125 404.4125 342.3725 401.8050 345.5675 C400.7525 346.8525 399.4450 347.8325 398.0625 348.7325 L397.1950 349.7500 C396.5150 351.5575 395.8900 353.4775 394.8050 355.0850 C393.0400 357.7025 390.3450 360.0250 388.2125 362.3625 C384.3175 366.6325 380.5350 371.4300 376.2300 375.2850 C375.5825 375.8625 374.7925 376.3300 374.0050 376.6900 C363.6800 386.5750 353.0575 395.6750 341.1300 403.6075 C336.3550 406.7825 331.2750 409.5300 326.2725 412.3225 C322.6950 414.3200 319.1250 416.4625 315.4150 418.1975 C292.3300 428.9975 262.7775 436.8250 237.4075 438.6975 C228.7688 439.3350 219.8293 439.1400 211.1670 438.9575 C202.0920 438.7700 193.1360 437.6700 184.1938 436.1525 C152.9828 430.9650 123.2708 419.0600 97.1122 401.2625 C91.8622 397.6975 86.4612 393.7300 81.5762 389.6750 C78.9810 387.5225 76.8008 384.8575 74.0125 382.9375 C71.9212 381.9425 69.6487 381.6075 68.0260 379.7550 C66.7368 378.2850 66.6827 376.9125 66.7798 375.0475 C70.1275 370.2550 75.2630 367.1675 79.3770 363.1300 C87.0675 355.5875 94.6072 347.8725 102.2185 340.2475 C106.1645 336.2950 110.0215 332.1375 114.2452 328.4825 Z"></path>
<path id="" fill="#558b2f" fill-opacity="1.0" stroke="#000000" stroke-width="0.0" stroke-opacity="1.0" stroke-linecap="round" stroke-linejoin="round"  filling="0" d="M374.0050 376.6900 C375.4975 374.8250 377.4975 373.2375 379.1825 371.5325 C381.7550 368.9325 384.2425 366.1150 386.6250 363.3400 C390.3675 358.9850 393.2850 353.9900 397.1950 349.7500 C396.5150 351.5575 395.8900 353.4775 394.8050 355.0850 C393.0400 357.7025 390.3450 360.0250 388.2125 362.3625 C384.3175 366.6325 380.5350 371.4300 376.2300 375.2850 C375.5825 375.8625 374.7925 376.3300 374.0050 376.6900 Z"></path>
<path id="" fill="#558b2f" fill-opacity="1.0" stroke="#000000" stroke-width="0.0" stroke-opacity="1.0" stroke-linecap="round" stroke-linejoin="round"  filling="0" d="M398.0625 348.7325 C401.1225 343.6075 404.7600 338.8525 407.9650 333.8250 C409.8000 330.9500 411.1025 327.7475 413.1050 324.9725 C411.7475 328.4825 409.8150 331.5975 408.0400 334.9025 C406.1025 338.5125 404.4125 342.3725 401.8050 345.5675 C400.7525 346.8525 399.4450 347.8325 398.0625 348.7325 Z"></path>
<path id="" fill="#558b2f" fill-opacity="1.0" stroke="#000000" stroke-width="0.0" stroke-opacity="1.0" stroke-linecap="round" stroke-linejoin="round"  filling="0" d="M66.7798 375.0475 C67.2950 377.3350 72.2697 380.9175 74.0125 382.9375 C71.9212 381.9425 69.6487 381.6075 68.0260 379.7550 C66.7368 378.2850 66.6827 376.9125 66.7798 375.0475 Z"></path>
<path id="" fill="#fe1744" fill-opacity="1.0" stroke="#000000" stroke-width="0.0" stroke-opacity="1.0" stroke-linecap="round" stroke-linejoin="round"  filling="0" d="M333.0575 369.1475 C331.9175 370.3225 329.9025 371.3125 328.5400 372.2925 C326.6050 373.6825 324.8650 375.3400 322.8825 376.6600 C317.1300 380.4825 310.5250 383.5950 304.3550 386.7075 C288.3100 394.8075 272.6700 399.8950 255.1100 403.5600 C248.9093 404.8525 242.3735 406.1400 236.0582 406.6575 C231.5573 407.0275 226.8663 406.8175 222.3465 406.8175 C217.3810 406.8175 212.3277 406.9850 207.3730 406.6550 C203.9193 406.4275 200.4485 405.8200 197.0172 405.3475 C192.3797 404.7075 187.6890 404.1750 183.1035 403.2325 C175.7000 401.7125 168.1503 399.3900 160.9742 397.0175 C148.1212 392.7700 136.3305 386.6700 124.6087 380.0100 C122.2845 378.6900 119.6728 377.6575 117.4700 376.1700 C115.6787 374.9600 114.2408 373.2700 112.4645 372.0450 C110.1820 370.4700 107.7548 369.2725 105.5327 367.5575 C103.0267 365.6200 100.9958 363.2075 98.5713 361.1975 C96.2910 359.3075 91.0970 355.7775 90.0680 353.1075 C89.7982 352.4075 89.9345 351.4875 90.2162 350.8000 C91.2135 348.3775 94.1470 347.5425 95.8865 345.7900 C97.8220 343.8400 99.2233 341.3600 101.2045 339.3650 L269.7125 170.8907 L320.6575 119.9500 C329.3550 111.2558 337.9025 102.2872 346.8275 93.8335 C348.3550 92.3853 349.9475 90.8360 351.8925 89.9755 C353.6200 91.5713 356.2325 92.9553 357.6675 94.7340 C358.8225 96.1655 359.5125 97.9795 360.7950 99.3150 C362.0075 100.5800 363.6800 101.3643 364.8325 102.6823 C366.9100 105.0562 368.7250 107.7920 370.6450 110.3027 C372.3450 112.5242 374.2425 114.6440 375.8300 116.9440 C378.5550 120.8950 380.8775 125.3083 383.2300 129.4917 C385.8250 134.1087 388.4725 138.6135 390.7000 143.4353 C397.7825 158.7705 402.6075 176.1248 405.1925 192.8070 C405.8250 196.8840 406.6725 200.9778 406.9800 205.0927 C407.2250 208.3735 406.9425 211.7140 406.8850 215.0000 C406.8325 218.1492 406.9650 221.3188 406.7800 224.4615 C406.9150 228.7980 407.2250 233.2330 406.9225 237.5610 C406.4600 244.1750 404.7625 250.9400 403.4375 257.4325 C402.9850 259.6500 402.7275 261.9100 402.2050 264.1125 C397.1900 285.2600 388.5325 305.3750 376.6225 323.5550 C374.4425 326.8275 371.9950 329.9175 369.6450 333.0700 C366.4475 337.3575 363.2775 341.9675 359.6125 345.8450 C352.8225 353.0325 341.5725 364.5425 333.0575 369.1475 Z"></path>
<path id="" fill="#e6eb9b" fill-opacity="1.0" stroke="#000000" stroke-width="0.0" stroke-opacity="1.0" stroke-linecap="round" stroke-linejoin="round"  filling="0" d="M406.7800 224.4615 C406.9150 228.7980 407.2250 233.2330 406.9225 237.5610 C406.4600 244.1750 404.7625 250.9400 403.4375 257.4325 C402.9850 259.6500 402.7275 261.9100 402.2050 264.1125 C397.1900 285.2600 388.5325 305.3750 376.6225 323.5550 C374.4425 326.8275 371.9950 329.9175 369.6450 333.0700 C366.4475 337.3575 363.2775 341.9675 359.6125 345.8450 C352.8225 353.0325 341.5725 364.5425 333.0575 369.1475 C334.0475 367.2875 341.1425 362.0150 343.0950 360.3700 C349.3725 355.0850 355.1350 348.8750 360.6250 342.7800 C364.3575 338.6325 367.7150 334.1625 370.9900 329.6525 C387.7175 306.5075 398.9150 279.8375 403.7250 251.6875 C404.5825 246.9155 405.2950 241.9950 405.6575 237.1568 C405.9600 233.1235 405.8425 228.6983 406.7100 224.7550 C406.7325 224.6570 406.7575 224.5595 406.7800 224.4615 Z"></path>
<path id="" fill="#ffffff" fill-opacity="0.027451" stroke="#000000" stroke-width="0.0" stroke-opacity="1.0" stroke-linecap="round" stroke-linejoin="round"  filling="0" d="M0.6766 0.0000 L511.3225 0.0000 C508.2025 0.6650 504.4600 0.3195 501.2650 0.3163 L484.2875 0.2973 L415.9925 0.2969 L147.6600 0.2999 L40.7298 0.2926 L15.1412 0.3109 C10.7615 0.3248 4.9184 0.8886 0.6766 0.0000 Z"></path>
<path id="" fill="#ffffff" fill-opacity="0.0196078" stroke="#000000" stroke-width="0.0" stroke-opacity="1.0" stroke-linecap="round" stroke-linejoin="round"  filling="0" d="M1.3091 512.0000 C3.3875 511.2775 25.6402 511.7425 29.6990 511.7425 L108.8480 511.7450 L408.0800 511.7525 L481.9375 511.7525 L501.0200 511.7350 C504.2850 511.7300 508.1175 511.3450 511.2925 512.0000 L1.3091 512.0000 Z"></path>
<path id="" fill="#ffffff" fill-opacity="0.027451" stroke="#000000" stroke-width="0.0" stroke-opacity="1.0" stroke-linecap="round" stroke-linejoin="round"  filling="0" d="M0.0000 0.9172 C0.7097 3.9909 0.2566 8.0218 0.2535 11.1965 L0.2509 30.6735 L0.2530 111.2188 L0.2531 439.7300 L0.2509 490.8325 C0.2507 494.5500 0.7518 508.0600 0.0000 510.5825 L0.0000 0.9172 Z"></path>
<path id="" fill="#5d3f37" fill-opacity="1.0" stroke="#000000" stroke-width="0.0" stroke-opacity="1.0" stroke-linecap="round" stroke-linejoin="round"  filling="0" d="M245.7810 299.6250 C246.0777 299.6475 246.3862 299.6900 246.6675 299.7925 C250.1475 301.0400 264.7425 322.4050 266.9825 326.9600 C269.0525 331.1750 269.8025 335.0150 268.2225 339.5700 C266.4800 344.5950 263.4075 347.6825 258.7000 350.0025 C256.1075 350.9150 253.4250 351.2450 250.6825 351.1025 C246.1942 350.8700 242.1755 348.3750 239.2422 345.0575 C235.7433 341.0975 235.6862 336.6350 236.0490 331.6300 C236.6365 323.5300 239.6520 315.2625 242.1580 307.5725 C242.8545 305.4350 243.4563 302.7175 244.6460 300.8275 C244.9390 300.3625 245.3687 299.9825 245.7810 299.6250 Z"></path>
<path id="" fill="#5d3f37" fill-opacity="1.0" stroke="#000000" stroke-width="0.0" stroke-opacity="1.0" stroke-linecap="round" stroke-linejoin="round"  filling="0" d="M330.2600 235.0753 C334.1475 234.6950 338.8925 234.5163 342.4875 236.1738 C346.4550 238.0043 349.5850 241.5513 351.0250 245.6613 C352.4675 249.7753 352.3000 254.4475 350.3400 258.3725 C348.1475 262.7700 343.7475 265.6825 339.2025 267.1800 C333.7075 268.9900 331.1550 267.2675 326.3250 264.8450 C319.7675 261.0475 314.0575 256.6600 308.0375 252.0900 C305.7925 250.3875 302.7525 248.5768 301.1025 246.2742 C300.6875 245.6940 300.5700 245.4212 300.6850 244.7235 C301.5000 243.7675 302.5225 243.2122 303.6600 242.7065 C305.7000 241.8008 308.0700 241.3480 310.2000 240.6595 C316.8675 238.5058 323.3675 236.4175 330.2600 235.0753 Z"></path>
<path id="" fill="#5d3f37" fill-opacity="1.0" stroke="#000000" stroke-width="0.0" stroke-opacity="1.0" stroke-linecap="round" stroke-linejoin="round"  filling="0" d="M334.7475 173.0380 C336.4100 172.9095 337.9500 172.9987 339.5775 173.3435 C343.9675 174.2733 348.3925 176.8233 350.7900 180.6958 C353.0675 184.3740 353.8650 189.8780 352.8050 194.0630 C351.7500 198.2278 348.4925 202.0390 344.8100 204.1710 C338.3725 207.8992 330.6025 205.4800 323.9400 203.7487 C319.5500 202.5728 307.8000 199.0063 304.0525 196.9332 C303.2300 196.4783 302.8725 196.1890 302.6200 195.2795 C302.7200 194.6752 302.8350 194.2213 303.1700 193.6985 C305.6775 189.7730 323.5500 177.8477 328.3725 175.3452 C330.4650 174.2610 332.4550 173.5710 334.7475 173.0380 Z"></path>
<path id="" fill="#5d3f37" fill-opacity="1.0" stroke="#000000" stroke-width="0.0" stroke-opacity="1.0" stroke-linecap="round" stroke-linejoin="round"  filling="0" d="M195.0385 300.6300 L195.8690 300.7150 C196.1582 300.9125 196.3127 301.0775 196.4725 301.3900 C200.5152 309.3400 208.4210 332.9800 205.5457 341.1150 C204.1497 345.0650 201.0150 348.1475 197.2953 349.9575 C193.1687 351.9650 189.7150 352.5175 185.2997 350.9975 C182.3488 350.0475 179.3748 348.2850 177.3568 345.9150 C174.9290 343.0600 172.8165 338.3650 173.1837 334.5775 C173.4375 331.9625 174.5260 329.2800 175.7040 326.9550 C178.8183 320.8050 190.0948 304.8350 195.0385 300.6300 Z"></path>
<path id="" fill="#5d3f37" fill-opacity="1.0" stroke="#000000" stroke-width="0.0" stroke-opacity="1.0" stroke-linecap="round" stroke-linejoin="round"  filling="0" d="M282.7675 281.9425 C290.1125 281.9725 311.1650 287.6750 316.6825 292.2675 C319.8975 294.9425 321.7525 299.6325 322.0325 303.7425 C322.3500 308.4025 320.2025 312.5725 317.2225 315.9925 C314.4150 318.7125 310.5250 320.5625 306.6375 320.9625 C302.5425 321.3850 298.2175 320.2375 295.0525 317.5525 C288.0750 311.6300 283.5375 290.8900 282.7675 281.9425 Z"></path>
<path id="" fill="#ff1744" fill-opacity="1.0" stroke="#000000" stroke-width="0.0" stroke-opacity="1.0" stroke-linecap="round" stroke-linejoin="round"  filling="0" d="M89.9935 351.0175 C90.5358 350.9650 91.1110 350.8825 91.6552 350.9025 C92.2895 350.9250 92.5392 351.1550 92.9565 351.5900 C93.2393 352.5400 93.0558 353.4825 92.9480 354.4475 C92.1915 354.1275 91.3870 353.7675 90.8077 353.1700 C90.1617 352.5025 90.0040 351.9250 89.9935 351.0175 Z"></path>
</svg>