<svg xmlns="http://www.w3.org/2000/svg" viewBox="0 0 512 512" height="512.0px" width="512.0px">
<path id="" fill="#ffffff" fill-opacity="0.027451" stroke="#000000" stroke-width="0.0" stroke-opacity="1.0" stroke-linecap="round" stroke-linejoin="round"  filling="0" d="M0.6766 0.0000 L511.3225 0.0000 C508.2025 0.6650 504.4600 0.3195 501.2650 0.3163 L484.2875 0.2973 L415.9925 0.2969 L147.6600 0.2999 L40.7298 0.2926 L15.1412 0.3109 C10.7615 0.3248 4.9184 0.8886 0.6766 0.0000 Z"></path>
<path id="" fill="#ffffff" fill-opacity="0.0196078" stroke="#000000" stroke-width="0.0" stroke-opacity="1.0" stroke-linecap="round" stroke-linejoin="round"  filling="0" d="M1.3091 512.0000 C3.3875 511.2775 25.6402 511.7425 29.6990 511.7425 L108.8480 511.7450 L408.0800 511.7525 L481.9375 511.7525 L501.0200 511.7350 C504.2850 511.7300 508.1175 511.3450 511.2925 512.0000 L1.3091 512.0000 Z"></path>
<path id="" fill="#ffffff" fill-opacity="0.027451" stroke="#000000" stroke-width="0.0" stroke-opacity="1.0" stroke-linecap="round" stroke-linejoin="round"  filling="0" d="M0.0000 0.9172 C0.7097 3.9909 0.2566 8.0218 0.2535 11.1965 L0.2509 30.6735 L0.2530 111.2188 L0.2531 439.7300 L0.2509 490.8325 C0.2507 494.5500 0.7518 508.0600 0.0000 510.5825 L0.0000 0.9172 Z"></path>
<path id="" fill="#90caf8" fill-opacity="1.0" stroke="#000000" stroke-width="0.0" stroke-opacity="1.0" stroke-linecap="round" stroke-linejoin="round"  filling="0" d="M199.6698 187.1053 C203.7740 186.4740 209.0765 186.9467 213.2807 186.9495 L242.4390 186.9642 L289.3900 186.9575 C297.7675 186.9523 306.4425 186.4843 314.7825 187.1195 C322.5625 187.7122 331.1900 189.1087 338.4775 191.9205 C348.8725 195.9303 354.5975 201.9665 359.0300 211.9973 C363.6825 222.5233 363.0700 234.0338 363.0700 245.2587 C363.0700 250.0925 363.2100 254.9800 363.0050 259.8075 C362.6750 267.5450 361.7375 275.4100 360.8975 283.1100 C356.1025 327.0700 345.1000 371.5825 331.3725 413.5825 C328.0950 423.6050 325.0375 433.7525 321.2150 443.5850 C319.8150 447.1775 316.2000 457.5475 314.3975 460.1675 C314.0450 460.6800 313.8400 460.7750 313.2925 461.0150 L197.2315 461.0275 C195.9843 456.0250 193.4043 451.3500 191.6882 446.5025 C187.0910 433.7250 182.6930 420.8775 178.4965 407.9625 C163.9910 363.0525 154.3958 316.7025 149.8788 269.7250 C149.1302 261.4550 148.9892 253.3725 148.9787 245.0785 C148.9628 232.4337 148.6402 220.2628 154.5963 208.6633 C155.8865 206.1500 157.3138 203.6402 159.1432 201.4747 C167.6302 191.4283 187.0408 188.1552 199.6698 187.1053 Z M169.0188 253.0950 C169.0723 265.6600 170.4320 278.1400 172.0270 290.5925 C178.1830 338.6550 191.6665 385.5850 207.4095 431.2950 C211.1570 430.6525 215.2733 431.5875 219.0517 431.8250 C221.9805 432.0125 224.9335 431.9725 227.8675 431.9750 L278.5975 431.9550 C286.9150 431.9550 295.2575 431.8275 303.5725 431.9975 C306.2050 429.3275 311.3750 411.9300 312.7050 407.2575 C324.0275 373.1000 332.5900 338.0850 338.3100 302.5550 C339.5200 294.6025 341.0925 286.3725 341.1900 278.3200 C333.5675 280.2650 327.2050 283.6575 319.1275 284.6000 C314.9700 285.0850 310.7900 285.0350 306.6100 285.0300 C301.9675 285.0275 297.3725 285.0000 292.7525 284.4500 C271.1925 281.8850 248.2450 271.4300 228.1257 263.4450 C223.5287 261.6225 218.8180 260.1550 214.1790 258.4500 C203.6308 254.5725 191.5607 249.7755 180.1300 251.1050 C176.3830 251.3875 172.5955 251.8925 169.0188 253.0950 Z"></path>
<path id="" fill="#3e51b4" fill-opacity="1.0" stroke="#000000" stroke-width="0.0" stroke-opacity="1.0" stroke-linecap="round" stroke-linejoin="round"  filling="0" d="M236.5508 52.3865 C237.8200 52.8060 238.7715 53.4263 239.7730 54.3005 C242.2825 56.4915 244.5777 58.9982 246.9245 61.3647 L258.7700 73.2520 L269.0600 83.4810 C271.3225 85.7168 274.1275 88.0277 275.8275 90.7173 C276.1575 98.6577 275.9650 106.6620 275.9625 114.6095 C275.9575 122.2985 276.1425 130.0775 275.7675 137.7578 C275.7325 138.4707 275.7175 138.6575 275.1875 139.1455 C267.5725 138.8660 259.8400 139.1913 252.2125 139.1992 C248.1815 139.2032 239.7337 138.5567 236.2215 139.4402 L236.1865 83.2655 C236.1840 79.1212 235.6415 54.7455 236.5508 52.3865 Z"></path>
<path id="" fill="#1976d2" fill-opacity="1.0" stroke="#000000" stroke-width="0.0" stroke-opacity="1.0" stroke-linecap="round" stroke-linejoin="round"  filling="0" d="M236.1232 188.1973 L235.9250 187.9300 C232.2225 187.4115 225.9872 187.9052 222.0072 187.9100 L184.8703 188.1503 C180.2953 188.1492 175.3858 186.6185 172.1500 183.2855 C170.6582 181.7490 169.4465 179.7807 168.8325 177.7210 C167.5020 173.2578 167.9758 160.5845 168.0723 155.4690 C168.1600 150.8095 168.8808 146.4637 172.4328 143.1068 C174.7733 140.8945 177.3728 139.5415 180.5943 139.1390 C186.2498 138.4320 192.4937 138.9252 198.2023 138.9320 L232.9160 138.9557 L295.7175 138.9438 C306.3775 138.9418 317.1150 138.6465 327.7650 138.9637 C332.6550 139.1093 336.9850 140.1285 340.3650 143.8980 C344.8250 148.8765 344.0025 156.1998 344.0225 162.3480 C344.0350 165.7253 344.1725 169.1550 344.0000 172.5260 C343.7800 176.7897 342.3825 181.3703 339.0450 184.2467 C337.1975 185.8387 334.6475 187.0250 332.2550 187.4515 C328.8050 188.0658 325.0350 187.8360 321.5325 187.8475 L306.3100 187.9010 L286.7325 187.9075 C283.2900 187.9043 279.7025 188.0988 276.2800 187.7858 L276.0025 187.7578 C272.8375 187.6040 237.0878 187.5733 236.6120 187.7292 C236.4557 187.7805 236.3412 187.9165 236.2060 188.0100 L236.1232 188.1973 Z"></path>
<path id="" fill="#42a5f4" fill-opacity="1.0" stroke="#000000" stroke-width="0.0" stroke-opacity="1.0" stroke-linecap="round" stroke-linejoin="round"  filling="0" d="M236.1232 188.1973 L236.2060 188.0100 C236.3412 187.9165 236.4557 187.7805 236.6120 187.7292 C237.0878 187.5733 272.8375 187.6040 276.0025 187.7578 L276.0450 251.0050 L276.0425 270.6975 C276.0425 274.2800 275.8875 277.9400 276.1175 281.5100 C272.8375 280.6025 269.5075 279.8600 266.2525 278.8675 C259.3400 276.7600 241.1730 270.5350 236.2612 266.0000 C235.8497 260.5075 236.0193 254.9700 236.0208 249.4665 L236.0310 224.0775 L236.0287 200.8723 C236.0262 196.6837 235.8130 192.3667 236.1232 188.1973 Z"></path>
<path id="" fill="#90a4ae" fill-opacity="1.0" stroke="#000000" stroke-width="0.0" stroke-opacity="1.0" stroke-linecap="round" stroke-linejoin="round"  filling="0" d="M205.0400 324.2425 C208.5705 323.4275 212.2652 324.5875 214.6990 327.2700 C217.1328 329.9550 217.9252 333.7450 216.7708 337.1800 C215.6163 340.6150 212.6955 343.1550 209.1348 343.8250 C203.7823 344.8300 198.6085 341.3700 197.4937 336.0400 C196.3793 330.7075 199.7330 325.4650 205.0400 324.2425 Z"></path>
<path id="" fill="#90a4ae" fill-opacity="1.0" stroke="#000000" stroke-width="0.0" stroke-opacity="1.0" stroke-linecap="round" stroke-linejoin="round"  filling="0" d="M244.0397 324.2425 C247.5703 323.4275 251.2650 324.5875 253.6975 327.2700 C256.1325 329.9550 256.9250 333.7450 255.7700 337.1800 C254.6150 340.6125 251.6950 343.1550 248.1345 343.8250 C242.7823 344.8300 237.6085 341.3700 236.4937 336.0400 C235.3790 330.7075 238.7328 325.4650 244.0397 324.2425 Z"></path>
<path id="" fill="#90a4ae" fill-opacity="1.0" stroke="#000000" stroke-width="0.0" stroke-opacity="1.0" stroke-linecap="round" stroke-linejoin="round"  filling="0" d="M225.4462 294.9050 C228.3730 294.5050 231.3262 295.4275 233.5038 297.4225 C235.6810 299.4200 236.8565 302.2825 236.7103 305.2325 C236.4775 309.9250 232.9857 313.8125 228.3440 314.5475 C224.8170 315.1025 221.2628 313.7225 219.0358 310.9325 C216.8087 308.1425 216.2522 304.3700 217.5785 301.0550 C218.9045 297.7400 221.9088 295.3925 225.4462 294.9050 Z"></path>
</svg>