<svg xmlns="http://www.w3.org/2000/svg" viewBox="0 0 512 512" height="512.0px" width="512.0px">
<path id="" fill="#fed54f" fill-opacity="1.0" stroke="#000000" stroke-width="0.0" stroke-opacity="1.0" stroke-linecap="round" stroke-linejoin="round"  filling="0" d="M206.6387 59.6535 C210.9637 59.9268 215.5298 61.9277 219.6243 63.3217 C236.1102 68.9350 252.5725 75.3678 268.1200 83.2578 C291.3575 95.0432 313.2900 109.2357 333.5625 125.6020 C338.3625 129.4390 343.2450 133.2530 347.8100 137.3663 C351.3350 140.5423 354.5600 144.0677 357.9550 147.3830 C360.2875 149.6620 362.8550 151.7250 365.1150 154.0725 C406.6350 197.8103 437.8475 250.2800 456.4650 307.6400 C451.7500 310.1075 446.0800 311.5350 441.0275 313.1975 C436.0875 314.8200 431.0825 316.2150 426.1400 317.8150 C420.0475 319.7875 414.0125 321.9575 407.8975 323.8525 C403.3300 325.2675 398.6000 326.1275 394.0975 327.7675 C391.3175 328.7775 388.6350 330.0550 385.8675 331.1050 L342.2850 347.9025 L233.6682 389.7400 C228.3613 391.8775 222.9473 393.7625 217.6120 395.8300 L146.7190 423.0550 L86.3555 446.7800 C76.7820 450.5725 67.3075 454.6125 57.6345 458.1575 C56.1075 458.7175 54.7838 459.2650 53.1335 458.9975 L52.9215 458.6150 C52.8190 454.7550 63.3253 430.7525 65.5115 425.1525 L86.5537 371.0075 L173.7298 146.5765 C181.4447 126.7903 188.9803 106.9345 196.3350 87.0115 C199.6205 78.2090 202.5202 67.9893 206.6387 59.6535 Z"></path>
<path id="" fill="#ff9800" fill-opacity="1.0" stroke="#000000" stroke-width="0.0" stroke-opacity="1.0" stroke-linecap="round" stroke-linejoin="round"  filling="0" d="M209.1147 51.0472 C219.8837 50.8387 252.7150 64.2142 263.5000 69.3245 C297.1050 85.2502 328.0025 103.8318 356.0475 128.4438 C364.2475 135.6390 372.3475 143.2435 379.6600 151.3505 C401.3600 175.4080 418.6625 203.2567 433.1025 232.1557 C440.1025 246.1693 446.2850 260.3825 452.1650 274.9000 C454.4975 280.6625 456.9950 286.3700 459.0850 292.2275 C460.1275 295.1550 461.6900 299.6325 460.2025 302.6125 C459.2725 304.4775 457.8575 305.9000 456.1375 307.0500 C451.3925 310.2250 435.9450 314.9800 429.6925 317.1650 C423.7775 319.0900 417.9025 321.1500 412.0100 323.1475 C408.5925 324.3075 405.1550 325.6075 401.6350 326.4200 C399.1425 320.8925 397.1450 315.1475 394.6950 309.6025 C392.6125 304.8850 390.1325 300.2825 387.8150 295.6700 C385.2400 290.5475 382.7625 285.3325 380.0025 280.3075 C375.2075 271.5750 369.7025 263.1400 364.1900 254.8475 C334.2700 209.0027 294.5675 170.3537 247.9342 141.6772 C235.8685 134.3640 223.2758 127.4015 210.5550 121.3080 C206.6322 119.4290 202.5972 117.6075 198.5765 115.9512 C195.7420 114.7835 189.1385 113.0010 187.0482 111.3425 C186.6440 109.3980 187.1517 107.1915 187.6395 105.2978 C189.3477 98.6657 192.0842 92.2448 194.2923 85.7637 C197.4895 76.3798 200.3073 66.7205 204.1367 57.5720 C205.1373 55.1820 206.5830 52.0742 209.1147 51.0472 Z"></path>
<path id="" fill="#ff3d00" fill-opacity="1.0" stroke="#000000" stroke-width="0.0" stroke-opacity="1.0" stroke-linecap="round" stroke-linejoin="round"  filling="0" d="M212.3448 142.4203 C240.6217 140.2620 265.3075 161.4052 267.5200 189.6783 C269.7325 217.9512 248.6375 242.6780 220.3687 244.9450 C192.0233 247.2185 167.2145 226.0525 164.9955 197.7025 C162.7767 169.3525 183.9905 144.5845 212.3448 142.4203 Z"></path>
<path id="" fill="#ff3d00" fill-opacity="1.0" stroke="#000000" stroke-width="0.0" stroke-opacity="1.0" stroke-linecap="round" stroke-linejoin="round"  filling="0" d="M149.6842 347.1050 C162.2583 345.5800 176.6145 350.0700 186.7365 357.5375 C201.1922 368.2000 207.8540 381.5650 210.5423 399.1150 C202.4727 402.1450 194.4693 405.4200 186.4355 408.5525 L144.9385 424.6775 L121.5642 433.7700 C117.6192 435.3075 113.4905 437.2775 109.3842 438.3000 C108.9400 438.2650 108.6667 438.1500 108.3245 437.8725 C106.8860 436.7125 105.8743 434.7375 104.9358 433.1750 C100.6657 426.0625 97.7193 418.3225 97.0562 409.9975 C95.8305 394.6000 99.5795 379.6225 109.8242 367.7375 C120.3145 355.5650 133.5550 348.3775 149.6842 347.1050 Z"></path>
<path id="" fill="#3e2723" fill-opacity="1.0" stroke="#000000" stroke-width="0.0" stroke-opacity="1.0" stroke-linecap="round" stroke-linejoin="round"  filling="0" d="M299.2775 210.6240 C318.1050 209.4408 334.3500 223.6992 335.6175 242.5222 C336.8850 261.3450 322.6975 277.6525 303.8800 279.0025 C284.9450 280.3625 268.5125 266.0675 267.2375 247.1257 C265.9625 228.1837 280.3300 211.8150 299.2775 210.6240 Z M302.9025 261.5425 C312.0600 260.4925 318.6550 252.2550 317.6775 243.0895 C316.7000 233.9247 308.5150 227.2643 299.3425 228.1705 C290.0675 229.0870 283.3175 237.3842 284.3050 246.6505 C285.2950 255.9175 293.6450 262.6025 302.9025 261.5425 Z"></path>
<path id="" fill="#3e2723" fill-opacity="1.0" stroke="#000000" stroke-width="0.0" stroke-opacity="1.0" stroke-linecap="round" stroke-linejoin="round"  filling="0" d="M162.8078 267.5050 C181.6670 266.2750 197.9603 280.5500 199.2218 299.4075 C200.4832 318.2625 186.2368 334.5800 167.3817 335.8750 C148.4812 337.1700 132.1163 322.8825 130.8517 303.9800 C129.5870 285.0775 143.9030 268.7375 162.8078 267.5050 Z M165.8848 318.3675 C175.0788 317.6550 181.9770 309.6600 181.3365 300.4600 C180.6960 291.2600 172.7565 284.3000 163.5522 284.8675 C154.2440 285.4400 147.1868 293.4900 147.8345 302.7925 C148.4823 312.0975 156.5867 319.0900 165.8848 318.3675 Z"></path>
<path id="" fill="#8d6e62" fill-opacity="1.0" stroke="#000000" stroke-width="0.0" stroke-opacity="1.0" stroke-linecap="round" stroke-linejoin="round"  filling="0" d="M254.6925 324.0625 C254.9475 324.0350 255.0600 324.0150 255.3000 324.0150 C258.1375 323.9925 261.6525 325.1625 263.6550 327.1575 C268.3350 331.8175 266.7875 337.8175 266.3150 343.5975 C266.0850 346.4300 266.0575 349.2625 266.0875 352.1050 C267.0700 352.0800 268.1675 352.1125 269.1050 351.7950 C271.9725 350.8275 274.5975 348.9325 277.2250 347.4550 C282.2400 344.6300 287.8950 341.4300 293.3000 339.5025 C299.2900 337.3675 305.5175 337.5150 311.2675 340.3275 C317.6775 343.4575 321.4525 348.5100 323.6825 355.1350 L285.4975 370.1525 C280.0325 371.6750 273.8525 374.7000 268.4800 376.8050 C255.1625 382.0225 241.8620 387.4050 228.4637 392.4000 C226.3593 389.6475 225.5172 386.0650 224.8395 382.7275 C224.0818 378.9975 223.9400 375.3450 223.9252 371.5525 C223.8835 360.8225 225.8485 351.7000 231.9520 342.6300 C236.6010 335.7225 246.3282 325.6875 254.6925 324.0625 Z"></path>
<path id="" fill="#689f38" fill-opacity="1.0" stroke="#000000" stroke-width="0.0" stroke-opacity="1.0" stroke-linecap="round" stroke-linejoin="round"  filling="0" d="M362.2675 267.8100 C363.2825 267.7475 364.1775 267.5975 365.1150 268.0625 C366.9150 269.8750 368.0975 276.7000 368.6150 279.3725 C371.2300 292.8550 370.6100 306.6350 362.6100 318.3000 C354.9250 329.5025 341.1875 333.5000 328.5625 335.9100 C327.8475 336.0325 326.9700 336.2850 326.3100 335.8725 C324.5750 334.7875 322.7175 326.1775 322.3075 324.0275 C319.7700 310.7750 320.6000 298.1875 328.3975 286.7825 C335.7375 276.0450 349.9475 270.1850 362.2675 267.8100 Z"></path>
<path id="" fill="#689f38" fill-opacity="1.0" stroke="#000000" stroke-width="0.0" stroke-opacity="1.0" stroke-linecap="round" stroke-linejoin="round"  filling="0" d="M232.3640 264.3400 C232.4740 264.3150 232.5825 264.2825 232.6940 264.2675 C240.9942 263.0950 251.9800 266.6725 258.7800 271.2900 C270.9675 279.5625 276.6475 294.6975 279.2900 308.6400 C276.9125 309.1500 274.5625 310.0650 272.2050 310.7000 C267.6225 311.9375 263.0400 312.6200 258.3150 313.0075 C249.4653 313.1325 241.1678 313.0125 233.0425 308.9175 C223.4492 304.0850 216.9945 295.5425 213.6720 285.4450 C212.7112 282.5250 209.6107 271.5250 211.2135 269.3075 C213.2027 266.5550 228.5992 264.7850 232.3640 264.3400 Z"></path>
</svg>