<svg xmlns="http://www.w3.org/2000/svg" viewBox="0 0 512 512" height="512.0px" width="512.0px">
<path id="" fill="#feccbc" fill-opacity="1.0" stroke="#000000" stroke-width="0.0" stroke-opacity="1.0" stroke-linecap="round" stroke-linejoin="round"  filling="0" d="M279.5250 66.1040 C284.1200 65.5042 289.4350 65.9285 294.0250 66.4138 C312.8275 68.4023 328.4325 74.9300 343.8250 85.8680 C355.3650 94.0700 366.6425 103.6480 377.4075 112.8562 C382.0750 116.8500 386.9075 120.7487 391.4275 124.9043 C394.4050 127.6407 397.1675 130.6353 400.0625 133.4595 C405.5675 138.8265 411.2150 144.1487 416.3700 149.8575 C421.3100 155.3297 425.7075 161.0435 430.0775 166.9700 C444.0775 185.9462 455.1575 206.3667 459.1000 229.8573 C460.0150 235.3120 460.1075 240.5555 460.0950 246.0635 C460.0850 252.0675 459.8700 257.8525 458.8850 263.7900 C455.3425 285.1375 443.9125 306.2775 431.4825 323.7025 C423.2750 335.2075 412.8750 347.4075 402.4900 357.0275 C382.8125 375.2550 359.5975 390.0900 335.4750 401.6875 C331.6500 403.5275 327.6800 405.0750 323.8025 406.8075 C315.5375 410.4975 307.1075 414.2550 298.5825 417.2975 C279.4450 423.9325 259.9100 429.3525 240.0915 433.5275 C233.8273 434.8625 227.5603 436.3675 221.2440 437.4275 C215.3065 438.7650 209.0650 439.4200 203.0315 440.2475 C187.7835 442.3625 172.4625 443.9150 157.1000 444.9000 C153.4185 445.1575 149.7045 444.9450 146.0172 445.0950 C143.1582 445.2125 140.3143 445.6700 137.4630 445.9075 C131.0180 446.4425 124.5365 445.8900 118.1200 445.3475 C114.1053 445.0075 110.0935 444.8700 106.1045 444.2475 C94.2775 442.4025 83.6868 437.0925 74.6028 429.4250 C60.9633 417.9150 53.4960 400.8100 52.1068 383.1950 C51.8705 380.1975 51.9362 377.1525 51.9380 374.1475 C51.9395 371.1075 51.8510 368.0100 52.1308 364.9800 C52.9787 355.7950 56.2495 345.8000 60.6870 337.6825 C62.1938 334.9250 64.0305 332.3075 65.7753 329.6950 C69.7162 323.8000 74.2448 318.0550 79.3067 313.0775 C81.4605 310.9600 83.8695 309.1200 86.1330 307.1250 C88.3395 305.1775 90.3570 303.0350 92.5973 301.1200 C99.8148 294.9575 107.3408 289.1775 114.4515 282.8825 C117.8230 279.9000 120.9088 276.5225 124.1472 273.3825 C128.1700 269.4825 132.3858 265.4900 135.9830 261.1950 C138.3880 258.3225 140.5018 255.2075 142.5842 252.0975 C148.9308 242.6210 153.6622 231.8495 154.7697 220.3890 C155.1048 216.9225 155.0002 213.3925 154.9995 209.9122 C154.9985 206.1385 155.0417 202.3505 154.7585 198.5847 C154.1970 191.1183 152.9940 183.6407 152.3165 176.1687 C151.9325 171.9320 151.9453 167.7330 151.9397 163.4835 C151.9350 159.8970 151.8333 156.2695 152.1575 152.6950 C153.2795 140.7565 157.9648 129.4312 165.6050 120.1895 C167.9158 117.4335 170.2422 114.5215 172.7790 111.9767 C179.8080 104.9252 188.0130 98.9170 196.3268 93.4920 C222.5165 76.4025 248.5867 68.8185 279.5250 66.1040 Z"></path>
<path id="" fill="#f44336" fill-opacity="1.0" stroke="#000000" stroke-width="0.0" stroke-opacity="1.0" stroke-linecap="round" stroke-linejoin="round"  filling="0" d="M276.4425 86.1127 C280.3900 85.9715 284.3450 85.9133 288.2575 86.5423 C298.7750 88.2332 311.3925 94.5590 320.2450 100.2755 C332.2175 108.0048 343.3200 117.1898 354.2050 126.3520 C370.1650 139.7030 385.6475 153.6150 400.6225 168.0618 C402.7825 170.1152 405.1000 171.9935 407.2950 174.0078 C413.3750 179.5903 419.6475 185.8855 424.3800 192.6650 C431.2500 202.5065 436.8050 217.6152 439.3275 229.4230 C445.2075 256.9675 435.0175 283.2175 420.1775 306.0475 C414.2475 315.1700 407.3300 323.5875 400.1125 331.7075 C397.2100 334.9750 394.4300 338.2250 391.2350 341.2300 C379.9175 351.8675 366.8125 361.0400 353.5625 369.0950 C320.2950 388.9500 284.1950 403.6175 246.5085 412.5950 C239.1200 414.4275 231.6450 415.9150 224.1973 417.4875 C220.1427 418.6250 215.5737 419.0775 211.4120 419.7900 C193.3723 422.8775 173.5930 425.1725 155.3212 425.9275 C149.2518 426.1775 143.1483 426.1825 137.0717 426.3725 C118.1370 426.9650 101.5023 426.8625 86.7043 413.1125 C76.4825 403.6150 71.6965 390.4800 71.1953 376.7400 C70.7430 364.3475 74.6465 351.1775 81.4967 340.8450 C85.0948 335.4175 89.4510 331.0075 94.0332 326.4350 C96.8992 323.5775 99.7193 320.6225 102.7083 317.8975 C108.0007 313.0675 113.6178 308.5325 119.0583 303.8650 C128.1675 296.0500 137.2482 287.9425 145.3658 279.0875 C159.1628 264.0350 170.6525 247.3763 173.4290 226.6828 C174.1407 221.3777 174.2365 216.1070 174.2402 210.7637 C174.2442 205.1752 174.1490 199.6573 173.6785 194.0835 C172.9220 185.1165 171.4070 176.1992 171.0652 167.1953 C170.5672 154.0840 172.9930 140.0920 182.2878 130.1962 C205.5755 105.4025 242.1305 87.1898 276.4425 86.1127 Z"></path>
<path id="" fill="#fae8e6" fill-opacity="1.0" stroke="#000000" stroke-width="0.0" stroke-opacity="1.0" stroke-linecap="round" stroke-linejoin="round"  filling="0" d="M295.6700 87.9733 C301.9675 88.9810 315.9050 96.8090 322.1475 99.9587 C324.1025 100.9450 326.3475 101.6695 328.1450 102.9082 C329.9275 104.1355 331.2975 106.3015 332.7700 107.8965 C336.0275 111.4270 342.0350 116.8290 347.1000 117.2022 C347.6050 117.2395 348.1075 117.2945 348.6100 117.3415 C349.0950 118.1010 349.0525 120.5723 349.1975 121.5640 C352.7450 125.0527 357.1800 127.4415 360.9525 130.6622 C364.9375 134.0660 368.4125 137.9913 372.1900 141.6118 C374.2700 143.6053 376.5750 145.3607 378.7175 147.2835 C380.5025 148.8828 382.1700 150.6098 383.9625 152.1980 C386.6500 154.5788 390.3950 158.2050 393.1075 160.2730 C394.9400 161.6712 397.1800 162.6528 398.8325 164.2650 C400.2425 165.6420 401.7625 168.3013 402.3525 170.2043 C402.5450 170.8250 402.5300 171.0753 402.2300 171.6375 C401.5075 171.9283 400.8775 171.7027 400.1975 171.4153 C398.4725 170.6877 396.9575 169.5172 395.3275 168.6028 C391.2175 166.2965 386.8175 164.1642 382.2675 162.9105 C381.2050 162.6145 380.1300 162.3715 379.0450 162.1823 C378.5325 162.0923 378.0150 162.0155 377.4975 161.9525 C375.8400 161.7632 374.1375 161.7665 372.4700 161.7502 C353.9975 161.5692 351.6125 172.5262 344.0075 186.1980 C339.5900 194.1427 334.9525 201.8922 329.7275 209.3360 C323.9650 217.5497 317.6800 225.6828 311.0300 233.2032 C308.7775 235.7495 306.2425 238.0502 303.9275 240.5428 C301.8450 242.7863 300.0450 245.3465 297.8700 247.4910 C296.1350 249.2015 294.0250 250.5150 292.2525 252.1950 C267.0700 276.0425 239.4563 297.1875 209.8638 315.2750 C194.9588 324.5175 179.6703 332.9600 164.4150 341.5875 C159.5318 344.1750 154.7307 346.9225 149.8325 349.4775 C143.3640 352.8525 136.7742 356.0175 130.2570 359.3000 C125.0753 361.9100 119.7190 365.1525 114.2393 367.0075 C111.8918 367.8000 109.3735 368.2375 106.9003 367.8700 C104.0330 367.4475 101.5847 365.5200 99.9040 363.2250 C98.3290 361.0725 97.5460 358.4100 98.0157 355.7575 C98.5695 352.6300 100.5010 350.8775 103.0358 349.2500 C107.6970 346.2550 112.9133 343.7475 117.8637 341.2525 C126.2128 337.0400 134.6585 332.9775 142.9272 328.6125 C168.3233 315.3400 192.7540 300.3000 216.0383 283.5975 C250.1775 258.8075 281.4525 229.4052 302.0650 192.1803 C309.9550 177.9312 316.3325 162.3370 318.8775 146.1617 C321.0325 132.4600 320.4175 119.2458 312.9100 107.1900 C311.1025 104.2870 309.1575 101.5608 306.6925 99.1765 C304.1325 96.6990 297.5800 92.5713 296.0000 90.1497 C295.4800 89.3532 295.4600 88.8788 295.6700 87.9733 Z"></path>
<path id="" fill="#fe897f" fill-opacity="1.0" stroke="#000000" stroke-width="0.0" stroke-opacity="1.0" stroke-linecap="round" stroke-linejoin="round"  filling="0" d="M348.8975 174.6955 C349.5775 174.7145 350.0975 174.7827 350.7525 174.9677 C351.7100 176.7207 351.0025 182.1727 351.0850 184.4085 C351.1525 186.2697 351.3500 188.1415 351.5150 189.9973 C352.7575 203.9438 354.2775 217.0765 359.4150 230.2450 C362.0125 236.9010 365.5950 242.9505 370.3875 248.2632 C372.6700 250.7950 375.4025 252.8700 377.8550 255.2275 C382.2925 259.4975 386.4250 265.2400 389.3600 270.6575 C393.8425 278.9275 394.0850 288.8400 391.4300 297.7250 C391.2000 298.4975 390.9175 299.7400 390.1300 300.0575 C389.5725 300.2850 389.0100 300.1625 388.4875 299.9525 C388.1525 299.4875 388.0600 299.1100 388.1025 298.5325 C388.1850 297.4250 388.5800 296.3175 388.7675 295.2225 C389.2025 292.6825 388.9100 289.9475 388.3875 287.4450 C386.2675 277.3225 379.6175 269.8225 371.1300 264.2800 C366.5550 261.4650 360.1550 256.2675 355.5275 254.4775 C354.7800 259.4200 353.2600 264.4750 351.6900 269.2125 C350.3650 273.2025 344.0875 287.2425 340.2075 288.9725 C339.4175 289.3250 338.8225 289.2100 338.0425 288.9175 C337.8575 288.3950 337.8225 288.1900 337.9500 287.6275 C338.2550 286.2875 338.9800 284.9225 339.4625 283.6250 C340.2700 281.4850 340.9250 279.2925 341.4275 277.0600 C343.0000 270.3300 343.2200 263.7600 342.8075 256.8925 C342.2350 247.3967 340.0425 239.5408 337.3300 230.5150 C336.4325 227.5278 335.6850 224.4617 334.6475 221.5205 C333.0800 217.0797 330.8125 213.0383 329.6775 208.4145 C333.9250 202.2535 338.4000 196.0310 341.7050 189.2823 C343.8500 184.9052 345.1475 177.9160 348.8975 174.6955 Z"></path>
<path id="" fill="#fe897f" fill-opacity="1.0" stroke="#000000" stroke-width="0.0" stroke-opacity="1.0" stroke-linecap="round" stroke-linejoin="round"  filling="0" d="M223.6922 135.5620 C229.7235 136.7112 240.8630 165.5550 244.5630 171.6808 C246.6973 175.2142 249.5810 178.4483 252.7150 181.1240 C265.8300 192.3152 287.7775 183.8005 301.1425 177.3038 C303.4300 176.1910 308.0300 172.8788 310.3325 172.8548 C310.4250 172.8537 310.5150 172.8740 310.6050 172.8835 L310.6000 172.6712 L310.8750 172.6140 L311.0925 173.0605 C310.7700 176.8115 306.7300 184.9742 304.7250 188.4068 C302.2175 192.6888 300.2150 197.2155 297.7300 201.4953 C296.2900 203.9763 294.9225 205.8683 291.9850 206.5898 C290.0350 207.0692 287.9400 207.0770 285.9450 207.2665 C283.6600 207.4832 281.3175 207.8092 279.0225 207.8103 C270.8700 207.8138 260.4525 205.7965 253.4025 201.6127 C233.0265 189.5220 232.7775 170.6980 227.7555 150.0770 C227.0460 147.1645 225.8208 144.3420 224.6450 141.5898 C224.0910 140.2930 223.3290 138.8775 223.0380 137.5078 C222.8425 136.5880 223.2040 136.2372 223.6922 135.5620 Z"></path>
<path id="" fill="#fe897f" fill-opacity="1.0" stroke="#000000" stroke-width="0.0" stroke-opacity="1.0" stroke-linecap="round" stroke-linejoin="round"  filling="0" d="M278.4850 264.7450 C279.1600 264.6950 279.6625 264.6500 280.3125 264.8925 C281.1300 266.0250 281.4275 268.1275 281.8175 269.5000 C284.6375 279.4175 285.1275 287.3125 285.1050 297.5825 C285.0975 300.9700 285.1975 304.4050 284.7850 307.7750 C284.2275 312.2975 282.5725 316.5375 281.6650 320.9800 C281.0050 324.2100 281.0125 327.6100 281.0500 330.8975 C281.1175 336.8725 281.5975 343.1925 282.9400 349.0250 C283.5750 351.7875 284.9275 354.8175 285.1650 357.6175 L284.8150 358.0125 C284.3100 358.1300 283.7750 358.3125 283.2600 358.1900 C282.3950 357.9850 281.5050 356.1400 281.1150 355.4025 C279.1475 351.6550 277.5300 347.7375 276.2775 343.6950 C275.5425 341.3825 275.0825 338.8625 274.0600 336.6625 C272.7950 336.5500 272.0600 337.5675 271.2500 338.3800 C265.7975 343.8425 259.7600 347.9200 253.6650 352.5725 C248.6163 356.4250 243.7052 360.4825 238.7335 364.4350 C234.8878 367.4425 228.9575 374.1475 224.7890 375.8675 C224.0647 376.1650 223.5793 376.2250 222.8505 375.9475 C222.6207 375.1425 222.7932 374.2500 223.2448 373.5225 C224.4925 371.5125 226.8212 369.6650 228.4003 367.8550 C229.8717 366.1650 231.2290 364.3825 232.7493 362.7375 C238.2105 356.8250 244.1855 351.2700 249.9015 345.5950 C253.5200 342.0025 257.4675 338.4725 260.7075 334.5450 C263.3325 331.3625 265.4000 327.5650 267.0125 323.7800 C273.1975 309.2625 270.3100 291.2475 264.6325 277.0200 C267.1425 273.9000 274.9400 266.7025 278.4850 264.7450 Z"></path>
</svg>