<svg xmlns="http://www.w3.org/2000/svg" viewBox="0 0 512 512" height="512.0px" width="512.0px">
<path id="" fill="#90caf9" fill-opacity="1.0" stroke="#000000" stroke-width="0.0" stroke-opacity="1.0" stroke-linecap="round" stroke-linejoin="round"  filling="0" d="M110.0360 51.1070 C133.7603 48.4847 161.3862 64.0833 182.8365 72.6310 C193.4017 76.8412 204.7507 80.3968 215.9445 82.4467 C228.2233 84.7645 240.7397 85.5690 253.2150 84.8425 C265.1675 84.1252 277.1975 82.0123 289.0950 80.5803 C294.8450 79.8875 300.7850 79.3383 306.5700 79.0527 C315.4650 78.6143 346.7325 78.1195 352.3925 82.9300 C353.7725 84.1015 352.6575 87.9658 352.2925 89.5493 C349.8125 100.2960 348.2850 110.8958 347.1775 121.8665 C346.7100 126.5078 346.0375 130.9877 346.3125 135.6638 C350.7275 134.8203 354.9200 132.7970 359.2575 131.5705 C371.0900 128.2225 378.9325 126.9175 391.3575 126.9258 C397.4125 126.9297 403.0225 127.2312 408.8175 129.2043 C418.9275 132.6478 427.9975 140.1508 432.6525 149.8230 C437.9750 160.8837 439.0950 171.7375 439.0875 183.7940 C439.0850 188.5185 439.0375 193.0692 438.2950 197.7570 C436.8000 207.1812 433.9075 216.4860 430.7375 225.4635 C419.8725 256.2300 400.3675 291.8650 372.8050 310.5700 C367.5025 314.1675 361.8425 316.4150 356.1125 319.1475 C356.0750 323.1675 355.4750 327.2600 355.0175 331.2550 C352.6875 351.1725 347.8675 370.7200 340.6700 389.4375 C335.4075 403.5450 326.6475 419.0375 317.5375 430.9725 C314.1475 435.4125 310.3225 439.3150 306.3725 443.2450 C299.4400 450.1475 290.3175 459.4825 280.1425 460.7575 C274.0875 461.5150 267.4450 461.0050 261.3250 460.9950 L227.0307 460.9875 L195.2215 460.9775 C189.4673 460.9925 183.1187 461.5950 177.4483 460.6800 C172.5033 459.8825 167.7670 457.3825 163.8380 454.3500 C150.1380 443.7750 136.6145 427.3725 128.0847 412.3275 C126.0065 408.6625 124.3033 404.7325 122.4453 400.9500 C116.3687 388.5750 112.1747 375.8300 108.8490 362.4825 C102.9000 338.0950 100.2805 313.0125 101.0612 287.9200 C101.1817 284.6325 101.6220 281.3675 101.8268 278.0825 C102.2928 270.6125 102.7523 263.1425 103.6455 255.7050 C104.8238 245.8920 106.3285 236.1285 107.5518 226.3255 C109.0750 214.0175 110.2705 201.6710 111.1370 189.2995 C111.3655 186.0660 111.8025 182.8383 111.9457 179.6005 C112.1640 174.6647 112.0170 169.6550 112.0208 164.7120 C112.0280 154.9610 111.8510 145.6413 110.5038 135.9572 C109.1490 126.2188 106.2040 115.5300 101.4262 106.9050 C98.1633 101.0145 93.9005 94.7823 89.3220 89.8405 C86.8900 87.2158 73.1622 74.6357 72.9568 72.4937 C72.6403 69.1953 74.8245 66.0038 76.8692 63.6037 C84.9532 54.1152 98.2645 52.0397 110.0360 51.1070 Z M345.8675 171.5265 C346.6725 177.6842 346.9025 183.6682 347.3200 189.8483 C347.8400 196.6080 348.4325 203.3625 349.0950 210.1102 C351.0975 229.5755 354.1650 248.9857 355.8200 268.4575 C356.1950 272.8700 356.0375 277.3050 356.3100 281.7225 C358.7050 280.7050 360.2300 279.2675 362.0175 277.4200 C366.5275 272.9325 370.8275 268.4950 374.6250 263.3650 C388.1350 245.1070 399.3825 221.4648 404.6625 199.3508 C405.8150 194.5273 406.9025 189.4577 406.9375 184.4883 C406.9800 178.2238 406.2950 166.7860 401.7300 162.1355 C399.1175 159.4733 394.9850 158.9320 391.4150 158.9807 C390.2700 158.9962 389.0450 158.9555 387.9175 159.1068 C377.3325 159.8817 366.8550 162.8412 357.0500 166.8212 C353.3650 168.3177 349.7275 170.5847 345.8675 171.5265 Z"></path>
<path id="" fill="#f9f9f9" fill-opacity="1.0" stroke="#000000" stroke-width="0.0" stroke-opacity="1.0" stroke-linecap="round" stroke-linejoin="round"  filling="0" d="M137.1927 180.1250 C144.6178 179.8172 152.1133 180.0445 159.5482 180.0453 L200.2533 180.0475 L325.0375 180.0350 C325.0550 184.8192 325.7300 189.6385 326.0525 194.4160 C327.0675 207.7533 328.3750 221.0670 329.9675 234.3475 C330.9675 242.4150 332.1675 250.4500 333.0825 258.5300 C333.9025 265.7525 334.6625 273.1150 334.9950 280.3750 C335.2450 285.7875 335.0825 291.2750 335.0800 296.6925 C335.0800 302.3725 335.2425 308.1175 334.9525 313.7900 C333.8475 334.3825 329.9825 354.7325 323.4600 374.2950 C321.1050 381.1925 318.4175 388.2150 315.1325 394.7250 C312.0550 400.8275 308.3250 406.6125 304.5125 412.2700 C300.7100 418.2950 295.9175 424.1400 290.5375 428.8000 C284.2500 429.5025 277.5275 428.9825 271.1775 428.9750 L234.0408 428.9725 L190.0977 428.9775 C182.6880 428.9825 174.8995 429.4900 167.5310 428.8325 C161.5465 423.5875 156.5355 416.8600 152.1308 410.2675 C133.2905 382.0625 125.9818 349.5725 123.2632 316.2400 C122.7480 309.9200 122.9457 303.5075 122.9465 297.1675 C122.9473 291.2225 122.7517 285.1875 123.1292 279.2550 C124.4380 258.6975 127.9440 238.3562 130.1735 217.8945 C131.0988 209.4758 131.8810 201.0417 132.5202 192.5965 C132.7903 189.1725 132.6120 185.4543 133.1528 182.0988 C133.2745 181.3430 133.2920 181.0907 133.7815 180.5152 C134.8635 180.0573 136.0352 180.1445 137.1927 180.1250 Z"></path>
</svg>