<svg xmlns="http://www.w3.org/2000/svg" viewBox="0 0 512 512" height="512.0px" width="512.0px">
<path id="" fill="#8d6e63" fill-opacity="1.0" stroke="#000000" stroke-width="0.0" stroke-opacity="1.0" stroke-linecap="round" stroke-linejoin="round"  filling="0" d="M457.4825 52.7377 C458.0575 52.6895 458.4125 52.6535 458.9475 52.8853 C459.0350 53.1212 459.0925 53.2312 459.0925 53.5085 C459.0925 57.3717 437.2300 94.7363 433.5900 101.0525 C430.0575 107.1850 426.9625 114.2295 422.5100 119.7263 C419.8675 122.9865 416.5525 125.8600 413.6025 128.8590 L391.9725 150.6662 L317.9875 225.5875 L260.2475 283.2925 L241.8715 301.6975 C238.6460 304.9250 235.4702 308.5225 231.9510 311.4175 C229.5440 310.9525 220.1472 300.6800 217.5310 298.0750 C214.3772 294.8525 211.1902 291.6625 207.9707 288.5050 C206.2200 286.7650 204.2253 285.0250 202.7753 283.0225 C202.2350 282.2750 201.5668 281.3900 201.7193 280.4225 C203.9612 276.8950 207.5108 273.8825 210.4588 270.9200 C215.8873 265.4675 221.4722 260.0950 226.7535 254.5050 C228.7558 252.3850 230.5267 250.0600 232.5408 247.9460 C237.7930 242.4350 243.3147 237.1380 248.7003 231.7550 L278.9875 201.4807 L346.1250 134.3600 L381.8925 98.5742 C383.1700 97.3018 384.5050 96.0627 385.6900 94.7025 C387.6125 92.4958 389.3525 89.9410 391.6525 88.1135 C394.3450 85.9730 397.9625 84.3132 400.9375 82.5383 C414.3625 74.4043 428.1300 66.8510 442.2025 59.8995 C447.1475 57.4263 452.2275 54.4807 457.4825 52.7377 Z"></path>
<path id="" fill="#8d6e63" fill-opacity="1.0" stroke="#000000" stroke-width="0.0" stroke-opacity="1.0" stroke-linecap="round" stroke-linejoin="round"  filling="0" d="M133.4888 348.6975 C134.2112 348.8950 134.7878 349.5725 135.2405 350.1375 C138.1277 353.7425 140.6235 357.6900 143.4850 361.3325 C147.3005 366.1125 151.0513 370.9425 154.7363 375.8225 C156.6280 378.3025 158.7128 380.7300 160.3257 383.4025 C157.3590 385.8050 154.7442 388.8375 152.0430 391.5475 C148.3273 395.2750 144.4693 398.9250 140.9048 402.7950 C134.5895 409.6525 128.3172 416.9625 121.3045 423.1300 C117.7615 426.2475 113.0748 428.5575 109.0305 430.9725 C96.9990 438.0675 84.7900 444.8550 72.4153 451.3325 C68.7953 453.1175 57.5332 458.8400 54.0437 459.1500 C53.4795 459.2000 53.4070 459.1650 52.9920 458.8250 C52.9185 458.2600 52.9525 457.8350 53.0992 457.2775 C54.4702 452.0850 58.1475 446.9500 60.7263 442.2300 C67.8435 429.1050 75.2240 416.1250 82.8630 403.2975 C84.6237 400.2900 85.9810 396.7200 88.0945 393.9625 C90.6152 390.6725 94.3240 388.1075 97.2610 385.1625 L124.8658 357.2050 C127.7093 354.3600 129.9990 350.8225 133.4888 348.6975 Z"></path>
<path id="" fill="#fed44f" fill-opacity="1.0" stroke="#000000" stroke-width="0.0" stroke-opacity="1.0" stroke-linecap="round" stroke-linejoin="round"  filling="0" d="M133.0595 205.6232 C133.4270 205.6785 133.7485 205.7527 134.0715 205.9485 C137.0083 207.7267 141.4270 212.8595 144.0022 215.4385 L162.0638 233.4935 L211.3435 282.8500 C213.5592 285.0750 215.9883 287.0775 218.2095 289.2925 C223.2337 294.3000 228.0878 299.4450 233.0005 304.5600 C237.1180 308.8450 241.4600 312.9200 245.6695 317.1150 L271.4700 342.9300 C275.8575 347.3200 280.5450 351.5750 284.7150 356.1625 C285.2550 356.7550 286.1175 357.6050 286.2375 358.4125 C286.3475 359.1625 282.7525 362.7625 282.1000 363.4300 C279.7850 365.7925 277.7225 368.3000 275.5350 370.7750 L261.3350 386.8300 C247.6832 402.5425 233.8805 418.1250 219.9290 433.5725 C217.5785 436.0200 215.5155 438.7350 213.2298 441.2450 C210.5567 444.1800 207.6102 446.8975 204.7425 449.6375 C202.6645 447.8975 201.1642 445.2325 199.6120 443.0225 L190.3630 429.6150 C188.2782 426.5850 186.0140 423.6875 183.8885 420.6875 C181.8885 417.8675 180.0340 414.9425 178.0410 412.1125 C174.4460 407.0125 170.6942 402.0275 167.0683 396.9500 C165.1393 394.2500 163.3835 391.4250 161.4255 388.7450 C159.9575 386.7375 158.3395 384.8400 156.8555 382.8425 C151.7530 375.9125 146.7065 368.9400 141.7165 361.9275 C136.6947 354.8675 132.1300 347.5500 127.2678 340.3875 C122.4155 333.2400 117.2890 326.2875 112.4175 319.1425 C104.3440 307.3025 95.8310 295.7300 87.6380 283.9675 C86.2860 282.0250 84.4600 280.3250 83.1995 278.3925 C82.9098 277.9475 82.8200 277.5350 82.7305 277.0175 C83.2798 275.2650 84.2730 273.6125 85.2802 272.0875 C88.8660 266.6575 92.8662 261.4250 96.6555 256.1325 L114.4185 231.0625 L125.9365 214.9158 C128.1365 211.8477 130.3220 208.2070 133.0595 205.6232 Z"></path>
<path id="" fill="#9e9d24" fill-opacity="1.0" stroke="#000000" stroke-width="0.0" stroke-opacity="1.0" stroke-linecap="round" stroke-linejoin="round"  filling="0" d="M292.6200 102.1237 C312.1200 102.0788 330.3125 107.4843 347.3350 116.8140 C351.2575 118.9650 355.2675 121.2250 358.9225 123.8123 C363.7975 127.2620 368.5400 131.4935 372.9125 135.5567 C395.3825 156.7025 408.6875 185.7985 409.9875 216.6255 C410.7975 240.1225 402.0875 264.1375 385.9725 281.3225 C383.9625 283.4650 381.6550 285.3300 379.4025 287.2125 C363.1150 300.8275 343.0050 307.0250 321.9850 307.7400 C299.9900 307.6250 279.1900 300.6700 260.7475 288.9775 C258.6400 287.6400 256.4050 286.4775 254.3700 285.0300 C250.2400 282.0925 245.4738 277.8825 241.8235 274.3525 C219.1685 252.4375 205.0615 222.9855 204.4745 191.2888 C203.9465 167.5112 212.8723 144.4955 229.2930 127.2907 C231.1082 125.4207 233.2080 123.7780 235.2177 122.1233 C251.4425 108.7655 271.7650 102.3943 292.6200 102.1237 Z"></path>
<path id="" fill="#bfc932" fill-opacity="1.0" stroke="#000000" stroke-width="0.0" stroke-opacity="1.0" stroke-linecap="round" stroke-linejoin="round"  filling="0" d="M269.1075 133.0860 C273.3425 132.9510 278.5625 134.3615 281.7800 137.2055 C284.9875 140.0417 286.4650 144.6138 286.7650 148.7867 C287.2875 156.0358 283.0275 164.7675 278.3975 170.1215 C272.1675 177.3270 264.1550 183.3275 254.3350 184.0525 C249.7867 184.1170 245.5298 183.8935 241.6992 181.1285 C238.6180 178.8990 236.5723 175.5152 236.0298 171.7510 C234.7445 162.8800 237.9410 154.7883 243.2550 147.7905 C249.5827 139.4572 258.8475 134.4888 269.1075 133.0860 Z"></path>
<path id="" fill="#ffb300" fill-opacity="1.0" stroke="#000000" stroke-width="0.0" stroke-opacity="1.0" stroke-linecap="round" stroke-linejoin="round"  filling="0" d="M147.2990 256.2700 C155.5643 255.6275 162.8015 261.7675 163.5112 270.0275 C164.2213 278.2875 158.1380 285.5750 149.8845 286.3525 C141.5358 287.1375 134.1463 280.9675 133.4283 272.6125 C132.7103 264.2575 138.9385 256.9200 147.2990 256.2700 Z"></path>
<path id="" fill="#ffb300" fill-opacity="1.0" stroke="#000000" stroke-width="0.0" stroke-opacity="1.0" stroke-linecap="round" stroke-linejoin="round"  filling="0" d="M152.6935 307.8625 C155.2620 307.8175 157.6532 307.9625 159.8560 309.4500 C162.0148 310.9075 163.3525 313.1975 163.7413 315.7575 C164.1700 318.5800 163.3053 321.5725 161.5643 323.8200 C159.8390 326.0475 157.7453 326.8750 155.0578 327.2225 C152.0495 327.3450 149.1750 327.2300 146.7425 325.2025 C144.6865 323.4875 143.8497 320.9975 143.6985 318.3950 C143.5343 315.5675 143.9987 312.6700 145.9973 310.5275 C147.8965 308.4900 150.0397 307.9925 152.6935 307.8625 Z"></path>
</svg>