<svg xmlns="http://www.w3.org/2000/svg" viewBox="0 0 512 512" height="512.0px" width="512.0px">
<path id="" fill="#f9d87f" fill-opacity="1.0" stroke="#000000" stroke-width="0.0" stroke-opacity="1.0" stroke-linecap="round" stroke-linejoin="round"  filling="0" d="M248.3725 54.1250 C249.3522 54.0205 250.3525 54.0083 251.3375 53.9883 C257.8650 53.8565 264.1875 54.2068 270.6900 54.6955 C300.4050 56.9297 330.3750 65.3635 352.2550 86.6673 C366.7200 100.7517 374.1450 125.6335 375.8175 145.2767 C376.2000 149.7453 376.0850 154.2555 376.0775 158.7370 C376.0750 162.6463 376.2175 166.6508 375.8375 170.5435 C374.0650 189.1770 368.9425 207.3378 360.7175 224.1512 C358.5775 228.4590 356.2800 232.8517 353.7325 236.9340 C343.9000 252.7000 333.7375 263.9625 328.4925 282.4150 C323.9675 298.3375 325.0225 314.9175 325.0275 331.2775 C325.0325 344.5325 324.9325 357.7950 325.1050 371.0475 C304.7300 370.6550 284.2600 371.0100 263.8750 371.0100 L186.9902 371.0525 L186.9785 328.9850 C186.9807 319.1025 187.5750 308.4125 186.5788 298.6150 C185.9552 292.4825 184.5517 286.3650 182.8590 280.4475 C178.7275 266.0050 169.0975 253.5625 160.8817 241.2660 C147.6125 221.1772 139.3280 198.2122 136.7162 174.2787 C133.8515 146.5665 136.9070 114.3625 155.1225 91.9745 C162.1540 83.3322 172.0710 75.2493 181.9252 70.0080 C196.8378 62.0762 215.3158 57.5930 231.9973 55.4615 C237.4025 54.7710 242.9312 54.6823 248.3725 54.1250 Z"></path>
<path id="" fill="#e8e8e8" fill-opacity="1.0" stroke="#000000" stroke-width="0.0" stroke-opacity="1.0" stroke-linecap="round" stroke-linejoin="round"  filling="0" d="M189.9975 391.9700 C194.7965 391.7325 199.7137 391.9450 204.5237 391.9450 L233.8367 391.9475 L323.1050 391.9425 C322.9300 399.4575 323.0950 407.0150 323.1025 414.5350 C323.1150 427.2575 323.6150 437.9025 313.9925 447.6625 L313.7225 447.9350 C305.9050 455.7450 296.6700 457.0150 286.0350 457.0250 L243.9948 457.0325 C234.9320 457.0375 222.9608 457.8375 214.2860 456.0050 C207.9357 454.6650 202.7413 452.3750 198.1325 447.7250 C195.1390 444.7025 192.8513 441.3525 191.5578 437.2825 C189.1472 429.7025 189.9565 420.9300 189.9668 413.0600 L189.9975 391.9700 Z"></path>
<path id="" fill="#000000" fill-opacity="1.0" stroke="#000000" stroke-width="0.0" stroke-opacity="1.0" stroke-linecap="round" stroke-linejoin="round"  filling="0" d="M247.3220 51.1095 C276.4900 50.3517 306.9525 54.6568 332.3200 69.9260 C336.8375 72.6460 341.7925 75.8820 345.6175 79.5165 C353.6950 87.1917 359.4300 93.5205 364.7600 103.3557 C384.7500 140.2522 378.0625 193.1310 360.8175 229.7668 C351.0925 250.4225 335.7325 269.5675 329.4600 291.4925 C324.9550 307.2350 326.0175 323.9425 326.0200 340.1375 C326.0200 350.6825 325.7400 361.2725 325.9900 371.8125 C323.6325 371.5825 321.1650 371.7400 318.7950 371.7600 C314.7875 371.8000 310.7825 371.8200 306.7750 371.8175 L264.8750 371.8225 L185.6508 371.7875 C186.2630 367.2075 185.9057 362.4175 185.8560 357.7975 C185.7975 351.6925 185.7800 345.5850 185.8040 339.4775 C185.8138 325.0975 186.8840 309.8475 183.5485 295.7575 C179.9512 280.5600 171.8420 267.3250 164.1370 253.9375 C160.3042 247.2800 156.3772 240.5293 152.9967 233.6317 C142.7057 212.8503 136.6965 190.2125 135.3257 167.0632 C133.6400 137.8910 137.2567 109.5145 157.4167 86.9348 C179.9498 61.6973 214.7775 52.9182 247.3220 51.1095 Z M198.2695 358.5100 C222.3860 357.9700 246.4995 358.1250 270.6250 358.1275 C284.5575 358.1175 298.6500 357.6650 312.5475 358.5950 C312.6750 348.5950 312.5000 338.5775 312.5050 328.5725 C312.5125 314.4725 312.7700 300.8575 316.7600 287.2025 C323.8025 263.1050 339.6550 242.7782 349.8075 219.9993 C358.4600 200.5860 362.2850 180.0388 362.6525 158.8672 C362.7600 152.6910 362.8850 146.4707 362.2750 140.3158 C360.6325 123.7347 354.0225 106.7430 342.2700 94.6945 C337.4575 89.7595 332.4600 85.4228 326.6550 81.6808 C309.8175 70.8230 286.8300 64.7035 266.9225 64.4948 L249.7640 64.4565 C246.5060 64.4560 243.0290 64.2410 239.8015 64.6420 C211.5410 66.8310 184.3900 76.1642 165.4265 98.1682 C151.2767 114.5867 148.0108 132.8855 147.9960 153.8180 C147.9920 159.6118 148.0912 165.4718 148.5520 171.2475 C150.9008 200.6790 160.5352 221.4265 174.8013 246.7955 C182.7960 261.0125 190.8833 275.1825 194.8890 291.1225 C200.4165 313.1175 197.8750 336.0950 198.2695 358.5100 Z"></path>
<path id="" fill="#000000" fill-opacity="1.0" stroke="#000000" stroke-width="0.0" stroke-opacity="1.0" stroke-linecap="round" stroke-linejoin="round"  filling="0" d="M211.6605 154.6760 C213.6320 155.3410 223.0092 165.4718 225.2305 167.6452 C227.2295 169.6008 229.4545 171.3013 231.4660 173.2430 C239.6577 181.2578 247.7085 189.4150 255.6150 197.7115 C264.3575 188.4227 273.3575 179.4285 282.3800 170.4130 C286.3700 166.4255 293.7800 158.0883 298.4275 155.5538 C299.9850 156.5892 301.3575 157.8963 302.7075 159.1837 C303.9800 160.3960 307.0875 162.8690 307.1275 164.6135 C304.8425 168.5900 297.9500 174.5645 294.3950 178.1110 L271.7250 200.7272 C268.3675 204.1025 265.0625 207.5703 261.5350 210.7705 C261.2100 217.2608 261.5025 223.9097 261.5025 230.4150 L261.5225 268.4375 C257.1000 268.3300 252.5250 268.3450 248.1130 268.6475 C249.0708 263.8300 248.5045 252.6625 248.4998 247.2090 C248.4890 234.6110 248.7165 221.9848 248.4795 209.3905 C244.8132 206.6275 203.6528 165.4465 202.7012 163.5130 C203.4360 161.3825 209.6783 155.7467 211.6605 154.6760 Z"></path>
<path id="" fill="#000000" fill-opacity="1.0" stroke="#000000" stroke-width="0.0" stroke-opacity="1.0" stroke-linecap="round" stroke-linejoin="round"  filling="0" d="M185.2672 388.8450 C190.5640 389.3075 196.1362 388.9975 201.4635 389.0000 L230.9082 389.0050 L324.8850 388.9775 C324.9575 396.5750 324.9850 404.1750 324.9650 411.7725 C324.9700 426.3375 325.8800 439.9450 314.9325 451.3175 C314.8275 451.4250 314.7250 451.5350 314.6175 451.6400 C310.6725 455.5850 303.9600 458.8275 298.5200 459.9600 C290.1200 461.7050 278.0825 460.9575 269.2450 460.9600 L224.5690 460.9750 C213.2135 460.9425 202.9940 459.3125 194.6550 450.8175 C190.5963 446.6825 187.6973 441.1250 186.3183 435.5175 C184.6022 428.5400 185.1890 420.7000 185.1940 413.5400 L185.2672 388.8450 Z M312.1025 430.5575 C302.7775 430.5025 293.4500 430.5075 284.1250 430.5725 L231.5990 430.5725 L209.9753 430.5450 C206.0095 430.5325 201.9993 430.6450 198.0412 430.4250 C199.2380 436.5625 202.1525 441.3725 207.4037 444.8950 C210.0495 446.6725 212.0788 447.3450 215.2355 447.6625 C219.3510 448.0775 223.5560 447.7425 227.6870 447.6850 C233.3607 447.6050 239.0397 447.6525 244.7142 447.6525 L280.3175 447.6625 C285.1025 447.6700 292.6600 448.3400 297.1125 447.3575 C300.6050 446.5850 303.6825 444.4450 306.2000 441.9775 C309.3200 438.2350 310.8675 435.2500 312.1025 430.5575 Z M198.0015 417.5825 C228.1640 417.3000 258.3275 417.2200 288.4925 417.3425 C292.2225 417.3300 309.6450 417.9750 311.9325 417.4400 C311.9850 412.2600 311.7675 407.0050 312.0325 401.8350 C306.7025 402.9275 300.5725 402.2200 295.1400 402.1700 L271.6925 402.1325 L219.2083 402.1450 C213.8168 402.1575 208.3842 402.6525 203.0063 402.5350 C201.2400 402.4950 199.6568 402.2825 197.9467 401.8375 C198.1625 407.0625 198.0692 412.3525 198.0015 417.5825 Z"></path>
</svg>