<svg xmlns="http://www.w3.org/2000/svg" viewBox="0 0 512 512" height="512.0px" width="512.0px">
<path id="" fill="#1ca538" fill-opacity="1.0" stroke="#000000" stroke-width="0.0" stroke-opacity="1.0" stroke-linecap="round" stroke-linejoin="round"  filling="0" d="M330.2275 146.5992 C330.3025 146.5883 330.3775 146.5745 330.4525 146.5668 C348.2325 144.7610 368.5200 152.0300 382.2800 163.1890 C388.7025 168.3970 392.2200 173.7655 397.0525 180.1710 C399.4475 183.3432 402.2025 186.2177 404.5800 189.4090 C412.3500 199.7807 417.1750 212.0575 418.5450 224.9438 C420.5525 244.7240 414.5600 264.4850 401.9025 279.8175 C389.7425 294.6950 371.5875 302.8500 352.7650 304.7450 C348.7725 304.8925 344.7975 305.0250 340.8125 304.6900 C326.9275 303.5275 312.8775 298.1025 301.9900 289.3925 C295.5100 284.2100 290.7275 277.6925 285.7150 271.1600 C282.9650 267.5775 279.8350 264.2850 277.1625 260.6450 C269.4000 250.0650 265.3000 237.8477 263.8825 224.8825 C261.7775 205.6390 268.2350 186.9707 280.2925 172.0495 C292.7825 156.5923 310.7775 148.6740 330.2275 146.5992 Z"></path>
<path id="" fill="#1ca538" fill-opacity="1.0" stroke="#000000" stroke-width="0.0" stroke-opacity="1.0" stroke-linecap="round" stroke-linejoin="round"  filling="0" d="M184.6240 51.1105 C200.8475 50.5585 219.9478 56.8365 232.1885 67.6285 C235.9180 70.9167 239.1212 74.6613 242.6635 78.1235 C245.5193 80.9147 248.7883 83.3595 251.4725 86.3062 C262.5775 98.4990 268.8100 114.6490 269.7900 131.0188 C270.7650 150.0847 264.1875 168.7668 251.4875 183.0185 C238.4527 197.5635 219.5540 205.6257 200.2567 206.7558 C182.1220 207.1940 163.3898 200.8400 149.9885 188.4795 C146.8140 185.5515 143.8745 182.3288 140.8250 179.2677 C137.0500 175.4785 133.1450 171.8875 129.7843 167.7065 C119.7795 155.2598 114.9030 139.4360 114.3242 123.6300 C113.6800 106.0480 121.2542 87.0843 133.2460 74.3160 C146.5813 60.0235 165.0845 51.6660 184.6240 51.1105 Z"></path>
<path id="" fill="#1ca438" fill-opacity="1.0" stroke="#000000" stroke-width="0.0" stroke-opacity="1.0" stroke-linecap="round" stroke-linejoin="round"  filling="0" d="M177.6812 256.6050 C193.8067 255.1600 211.3392 261.1150 224.0530 270.8800 C227.7800 273.7425 231.3822 276.7300 234.5235 280.2425 C243.1895 289.9275 249.8053 303.9350 251.4475 316.8750 C253.8650 335.9225 248.0347 355.6650 236.2422 370.7425 C228.9225 379.9650 219.2428 387.0375 208.2298 391.2050 C204.5453 392.6125 200.6070 393.4650 196.9825 394.9950 C194.4625 396.0600 192.1017 397.5700 189.6285 398.7525 C182.8163 402.0050 175.7750 403.8025 168.3087 404.7275 C150.1183 405.6550 133.2305 401.9275 118.8043 390.2750 C104.3545 378.8075 95.2303 361.9250 93.5543 343.5550 C91.7870 325.1750 97.4232 306.8500 109.2140 292.6375 C113.8475 287.0025 119.9293 281.9650 126.2750 278.3625 C129.3360 276.6250 132.5655 275.2025 135.6250 273.4475 C138.4688 271.8150 140.8760 269.5175 143.6565 267.7800 C154.2050 261.1900 165.3522 257.7900 177.6812 256.6050 Z"></path>
<path id="" fill="#64320b" fill-opacity="1.0" stroke="#000000" stroke-width="0.0" stroke-opacity="1.0" stroke-linecap="round" stroke-linejoin="round"  filling="0" d="M206.1447 150.4215 C206.3412 147.1192 205.8642 143.7850 205.9967 140.4682 C206.3105 134.0157 209.1797 127.9535 213.9710 123.6202 C216.7735 121.0975 220.9082 118.7690 224.7945 119.0847 C228.0010 119.3450 231.2242 121.7500 233.2357 124.1842 C235.1853 126.5435 236.4480 129.5675 236.0807 132.6718 C235.9433 133.8355 235.6857 134.7137 234.7420 135.4577 C234.2258 135.4770 234.0448 135.5335 233.6597 135.1240 C232.8253 134.2365 233.0168 130.9937 232.9530 129.7697 C231.2617 127.2177 229.1990 125.8805 226.2363 125.2360 C223.9615 124.7412 221.5880 124.8670 219.6138 126.2055 C216.6118 128.2413 215.5957 132.1570 214.9648 135.5228 C213.6180 142.7052 214.9535 148.6515 218.0845 155.1400 C219.2522 157.5600 220.4877 159.9353 222.1165 162.0827 C223.7330 164.2145 225.7195 166.0623 227.4823 168.0717 C230.5177 171.5323 233.4467 175.5903 235.7337 179.5887 C237.5132 182.6998 239.4085 185.9552 240.8090 189.2547 C242.4840 193.2000 243.6915 198.0562 246.1073 201.5838 C247.7697 199.2825 248.9727 196.5450 250.3750 194.0717 C254.0625 187.5643 258.7300 181.4610 264.7825 176.9807 C276.4725 168.3257 292.7625 166.2420 306.8725 168.3573 C316.7350 169.8355 324.9750 175.6215 330.7925 183.6113 C337.9675 193.4698 342.4675 211.1322 340.5300 223.1320 C338.9950 232.6315 335.2675 241.3633 327.2200 247.1225 C321.6225 251.1275 314.1000 251.8875 307.4525 250.7475 C301.0275 249.6460 295.0375 246.3850 291.2300 241.0038 C287.3425 235.5065 285.7250 228.1765 286.8650 221.5582 C287.2550 219.3073 288.9825 212.9805 291.1175 211.9150 C291.7300 211.6082 291.8675 211.6698 292.4675 211.8830 C293.4700 213.1237 292.3975 216.6360 292.3925 218.2435 C292.3900 219.4308 292.5650 220.6447 292.8250 221.8022 C293.9825 226.9720 297.9625 232.5210 302.4975 235.2680 C306.0625 237.4285 310.0850 238.5260 314.2200 237.4787 C319.8325 236.0578 324.7225 231.8550 327.5975 226.9077 C330.7900 221.4150 332.1000 214.9875 330.3900 208.7697 C327.7300 199.1042 319.9550 191.6030 311.4875 186.7702 C304.8275 182.9690 298.5375 180.8000 290.8475 180.9252 C288.8625 180.9575 286.7775 181.0443 284.8550 181.5795 C279.8000 182.9880 270.5700 188.6675 267.9950 193.3145 C267.9450 193.4050 267.8950 193.4965 267.8475 193.5875 C266.6250 193.9480 264.8850 196.6005 264.1975 197.7345 C264.0475 197.9787 263.9550 198.2220 263.8550 198.4877 L263.9875 198.6595 L264.4750 198.5822 C264.7700 199.1445 264.6150 199.6503 264.5450 200.2527 C264.4925 200.6960 264.5000 200.5038 264.5350 200.9550 C264.1875 200.3375 264.3800 199.3805 263.9475 199.0887 C259.3475 202.5717 254.8200 218.7003 254.0150 224.5457 C251.3625 243.7845 259.6525 259.8625 267.6725 276.6400 C270.9025 283.3950 273.7025 290.3600 276.9775 297.0875 C282.9350 309.3225 289.6325 320.9775 292.8875 334.3200 C294.4100 340.5600 295.2000 347.0000 296.4025 353.3100 C298.6450 365.0775 301.3675 376.7525 301.9425 388.7575 C302.2200 394.5325 302.0025 400.3150 302.1025 406.0925 C302.3125 418.0875 302.7150 430.0225 303.2175 442.0050 C303.4425 447.3350 303.3000 452.8050 303.9600 458.1000 C295.9225 457.8100 287.7825 458.5000 279.7575 458.8975 C268.2100 459.4700 256.6250 459.9375 245.0692 460.2725 C241.6987 460.3700 238.2332 460.8600 234.8768 460.7825 C234.1062 460.7650 233.4917 460.7025 232.7793 460.4050 L232.5835 460.0150 C233.9980 455.8050 237.5915 451.9250 239.9765 448.1700 C242.3550 444.4225 244.5410 440.5025 246.6333 436.5900 C261.2775 409.2125 274.3225 367.1075 259.6850 337.4075 C256.8775 331.5875 253.0250 326.3350 248.3195 321.9075 C239.8910 313.8150 225.1973 305.6225 214.0538 301.8825 C207.3147 299.6200 198.0895 298.5200 191.5343 301.8250 C184.3360 305.4550 177.7272 312.9800 175.2490 320.6675 C173.6480 325.6325 173.0768 332.3775 175.5502 337.1150 C177.7230 341.2750 181.5397 343.8850 185.9605 345.2400 C190.3452 346.5800 197.9008 346.8850 201.9682 344.7000 C205.8958 342.5875 207.5925 336.8500 210.4070 336.7150 C210.7872 337.0050 210.8017 336.8925 210.8660 337.3050 C211.2923 340.0400 208.1500 344.9750 206.4435 347.0425 C202.1308 352.2650 197.0855 355.4675 190.2460 356.0400 C183.5845 356.5975 177.3647 354.7875 172.2567 350.3900 C167.2800 346.1050 163.4828 338.8775 163.0092 332.3125 C162.2278 321.4800 166.7310 312.7825 173.7650 304.8200 C183.1725 294.1700 197.8775 286.9575 212.0312 286.1675 C221.6720 285.6275 231.5217 288.3725 239.6910 293.4600 C240.0137 293.3750 240.3053 293.2275 240.6098 293.0950 C241.1805 292.3400 241.0945 291.3575 241.1285 290.4500 C240.5878 287.3050 238.9628 284.3450 238.1042 281.2750 C236.3845 275.1200 235.2892 268.5125 234.1732 262.2150 C232.6070 253.3750 230.8652 244.3955 229.8560 235.4815 C229.2348 229.9948 229.2693 224.4332 228.7827 218.9328 C227.6138 205.7202 223.6512 192.1855 217.1967 180.5867 C211.7758 170.8455 202.6378 161.8775 191.6432 158.8050 C187.9948 157.7855 184.4365 158.0485 181.1293 160.0063 C176.8440 162.5432 173.9653 167.6985 172.7128 172.3955 C172.1257 174.5970 172.2625 176.5770 173.2255 178.6537 C176.4925 185.6985 186.1983 186.0215 187.5820 188.9110 C187.7270 189.2137 187.6823 189.1560 187.5797 189.4665 C186.3935 190.3040 184.6140 190.1420 183.2160 190.0513 C178.5108 189.7465 173.4097 187.4775 170.3235 183.8575 C166.5115 179.3862 165.5938 172.1910 166.1445 166.5170 C166.6747 161.0520 168.6187 157.0320 172.9138 153.5500 C181.9953 146.1880 195.5618 149.2702 206.1447 150.4215 Z"></path>
<path id="" fill="#1fa238" fill-opacity="1.0" stroke="#000000" stroke-width="0.0" stroke-opacity="1.0" stroke-linecap="round" stroke-linejoin="round"  filling="0" d="M241.1285 290.4500 L241.3737 290.0900 C242.2623 290.6125 244.4240 296.1025 244.9547 297.4275 C243.4877 296.3950 240.6200 294.9025 239.6910 293.4600 C240.0137 293.3750 240.3053 293.2275 240.6098 293.0950 C241.1805 292.3400 241.0945 291.3575 241.1285 290.4500 Z"></path>
<path id="" fill="#fdfdfc" fill-opacity="0.988235" stroke="#000000" stroke-width="0.0" stroke-opacity="1.0" stroke-linecap="round" stroke-linejoin="round"  filling="0" d="M264.5350 200.9550 C264.5000 200.5038 264.4925 200.6960 264.5450 200.2527 C264.6150 199.6503 264.7700 199.1445 264.4750 198.5822 L263.9875 198.6595 L263.8550 198.4877 C263.9550 198.2220 264.0475 197.9787 264.1975 197.7345 C264.8850 196.6005 266.6250 193.9480 267.8475 193.5875 C267.5400 195.1795 267.1625 199.2620 265.8925 200.3797 C265.5500 200.6812 264.9550 200.8230 264.5350 200.9550 Z"></path>
</svg>