<svg xmlns="http://www.w3.org/2000/svg" viewBox="0 0 512 512" height="512.0px" width="512.0px">
<path id="" fill="#feb578" fill-opacity="1.0" stroke="#000000" stroke-width="0.0" stroke-opacity="1.0" stroke-linecap="round" stroke-linejoin="round"  filling="0" d="M272.7900 154.1073 C277.7300 153.8143 282.7650 153.9767 287.7150 153.9738 C292.3100 153.9707 296.9625 153.8423 301.5525 154.0858 C321.4775 155.1430 340.9425 160.1630 359.4200 167.5408 C374.0925 173.3980 392.4775 183.9855 404.4700 194.1940 C409.4900 198.4685 413.9500 203.2155 418.5225 207.9435 C420.6250 210.1185 422.8825 212.1577 424.8975 214.4160 C427.1175 216.9055 429.1075 219.6630 431.1500 222.3008 C436.1600 228.7737 440.8600 235.2363 445.1100 242.2390 C447.7250 246.5530 451.2975 250.8925 453.2825 255.5125 C451.7500 258.9400 449.3275 262.1200 447.3725 265.3325 C440.6950 276.3125 433.6425 286.8700 425.4400 296.7900 C422.5675 300.2600 419.2875 303.4075 416.3475 306.8425 C413.1100 310.6300 405.9075 316.5475 401.8950 319.7525 C374.2275 341.6825 340.6425 354.8475 305.4425 357.5650 C300.0675 358.4800 294.2075 358.0325 288.7575 358.0375 C283.1500 358.0400 277.4750 358.2300 271.8775 357.8825 C251.9575 356.6525 231.0420 351.5825 212.6808 343.8275 C179.7370 329.9100 152.5925 307.5075 134.7330 276.2775 C130.9725 269.7025 127.8310 262.6375 124.9825 255.6275 C125.6505 252.9250 126.8355 250.3725 127.9365 247.8265 C134.4778 232.6992 144.5645 219.2522 155.5010 207.0217 C159.1390 202.9532 163.3203 199.5015 167.4547 195.9620 C191.2820 175.5632 217.8432 163.6465 248.4557 157.5645 C256.4725 155.9718 264.6200 154.5680 272.7900 154.1073 Z"></path>
<path id="" fill="#ffb578" fill-opacity="1.0" stroke="#000000" stroke-width="0.0" stroke-opacity="1.0" stroke-linecap="round" stroke-linejoin="round"  filling="0" d="M69.0042 187.5970 C70.6930 187.8123 71.8725 188.4998 73.2467 189.4523 C77.6230 192.4855 81.7668 196.0547 85.9645 199.3372 C91.2168 203.4442 96.5685 207.4458 101.7605 211.6255 C106.2270 215.2213 110.5560 218.9877 115.0033 222.6068 C120.9925 227.4807 127.6868 231.6340 133.4193 236.7920 C131.3450 242.6580 127.2455 247.9835 126.1357 254.1925 C124.9660 260.7400 134.0858 269.7725 133.2558 274.2975 C133.1295 274.9850 132.8880 275.2450 132.4030 275.7200 C128.0415 280.0000 122.6432 283.6525 117.8288 287.4250 L96.3490 304.5550 C92.7645 307.6900 88.7555 310.4350 85.0273 313.4100 C80.2117 317.2525 75.5923 321.4400 70.4885 324.9025 C69.6185 325.4925 68.3740 326.4250 67.3050 326.4150 C66.8825 325.7300 67.0455 325.0125 67.1945 324.2650 C67.6335 322.0700 68.5908 319.9375 69.2467 317.7925 C70.9620 312.1875 72.6472 306.5975 74.4945 301.0325 C77.6882 291.4125 80.5902 281.6975 83.8092 272.0775 C85.5267 266.9450 87.7975 261.5300 88.9337 256.2500 C88.9557 256.1475 88.9758 256.0450 88.9965 255.9400 C87.0002 251.8100 85.4037 244.1152 83.9258 239.3885 L75.0960 210.5247 C73.3460 204.8345 71.3560 199.1422 69.8542 193.3862 C69.3488 191.4485 68.9048 189.6118 69.0042 187.5970 Z"></path>
<path id="" fill="#ff4893" fill-opacity="1.0" stroke="#000000" stroke-width="0.0" stroke-opacity="1.0" stroke-linecap="round" stroke-linejoin="round"  filling="0" d="M231.1850 350.1125 C234.1235 350.5325 237.0290 351.5775 239.8932 352.3450 C243.9390 353.4175 248.0225 354.3425 252.1350 355.1150 C260.4700 356.6375 269.2175 357.6950 277.6875 358.0100 C282.7900 358.2000 287.8975 357.9925 293.0000 358.1550 C292.8225 359.0775 292.5950 359.9775 292.3550 360.8850 C294.0750 362.7175 300.8900 368.8050 301.2900 370.4525 C299.3600 371.9525 294.8450 373.0950 292.4200 373.9600 C279.9975 378.3975 267.2900 382.0500 254.9425 386.6600 C242.3050 391.0100 229.6280 395.2400 216.9125 399.3525 C212.8175 400.6650 208.8067 402.3275 204.6723 403.4975 C203.7148 403.7675 201.8695 404.3725 200.9470 404.0475 C200.9190 403.9600 200.8810 403.8775 200.8633 403.7875 C200.7095 403.0200 201.1178 402.1775 201.4252 401.4900 C202.4742 399.1425 204.0415 396.9450 205.2422 394.6575 C211.2935 383.1250 218.0997 371.8850 224.7912 360.7100 C226.8245 357.3150 229.1497 354.0675 230.9635 350.5475 L231.1850 350.1125 Z"></path>
<path id="" fill="#fe4893" fill-opacity="1.0" stroke="#000000" stroke-width="0.0" stroke-opacity="1.0" stroke-linecap="round" stroke-linejoin="round"  filling="0" d="M199.8438 106.7227 C203.2332 106.7100 208.4335 109.4355 211.6720 110.5875 L229.8242 116.9182 L256.5000 126.0730 L290.0325 137.4240 C292.5125 138.2885 295.0575 139.0027 297.5175 139.9190 C298.6250 140.3315 299.8950 140.7530 300.4125 141.8752 C299.6825 144.7240 292.9925 149.5697 290.6225 151.9267 C289.9700 152.6203 289.2350 153.1703 288.4825 153.7478 C284.1350 154.0515 279.7725 153.8440 275.4300 154.1127 C263.8250 154.8302 241.5105 157.8412 231.3477 162.3038 C230.1805 159.0327 227.3858 155.7567 225.5813 152.7175 C223.2547 148.7993 221.1028 144.7825 218.7917 140.8578 C214.6832 133.8810 210.4725 127.0235 206.5177 119.9528 C204.5045 116.3530 202.0587 112.8553 200.3880 109.0902 C200.0318 108.2872 199.8775 107.5988 199.8438 106.7227 Z"></path>
<path id="" fill="#4f46a3" fill-opacity="1.0" stroke="#000000" stroke-width="0.0" stroke-opacity="1.0" stroke-linecap="round" stroke-linejoin="round"  filling="0" d="M194.9740 98.8207 C196.8325 98.7090 198.7278 98.7493 200.5343 99.2567 C203.7533 100.1608 206.9465 101.4272 210.1070 102.5277 L228.4630 108.9128 L286.1700 128.5430 L312.7925 137.4590 C316.7325 138.7957 320.6175 140.3195 324.5725 141.5995 C337.5275 145.7950 350.4975 149.4193 362.8800 155.2112 C384.8125 165.4682 402.9175 177.4955 420.1175 194.5378 C423.5875 197.9750 427.1025 201.4093 430.2575 205.1425 C435.1225 210.8987 439.4975 217.0270 443.7925 223.2108 C448.9175 230.5912 453.2675 238.2957 457.1875 246.3772 C458.2525 248.5728 459.4925 250.7925 460.3050 253.0875 C461.9350 257.6975 459.0900 262.3325 457.1100 266.4250 C436.4975 309.5025 400.3750 343.2050 355.9725 360.7825 C345.6825 364.8750 335.1275 367.6550 324.5375 370.8000 C319.3550 372.3400 314.2150 374.1200 309.1025 375.8775 L205.6682 411.1950 C202.0228 412.4550 197.0683 414.6125 193.3715 412.7050 C191.0757 411.5200 189.2218 409.3050 188.4795 406.8275 C188.1568 405.7500 188.1528 404.8375 188.4557 403.7600 C189.4303 400.2925 191.6430 396.9025 193.3505 393.7325 L201.0195 379.6000 C201.7310 377.7250 203.0508 375.7900 204.0177 374.0175 L211.8015 360.0325 C192.5230 351.1775 177.9498 342.4050 161.6160 328.7375 C158.0750 325.7750 154.4772 322.8650 151.1985 319.6100 C143.7185 312.1825 137.0410 303.9775 130.5695 295.6725 C129.0918 297.6075 127.3932 299.1850 125.4850 300.6900 C122.0755 303.3775 118.4850 305.8475 115.0378 308.4900 C105.2705 316.1050 95.4577 323.6600 85.6000 331.1575 C78.9023 336.2950 70.5580 343.7875 63.4275 347.7550 C61.9583 348.5725 59.9525 348.8075 58.2985 348.5675 C55.1640 348.1125 53.1015 345.9150 51.2720 343.5325 C50.6622 335.9125 56.7722 319.9700 59.0675 311.9100 L71.0113 270.0200 C72.1082 266.0900 74.7632 259.9400 74.7883 256.1700 C74.8158 252.0725 71.9922 244.7645 70.7905 240.5460 C66.7372 226.3165 62.7038 212.0437 58.4525 197.8728 L53.5215 181.1633 C52.6710 178.1885 51.5502 175.0505 51.1902 171.9765 C50.9505 169.9267 51.8110 168.0560 53.1187 166.5197 C54.5872 164.7948 56.1967 163.5923 58.5267 163.4832 C60.3145 163.3997 62.5910 163.9323 64.1722 164.8100 C67.6722 166.7525 70.9360 169.7603 74.0835 172.2242 L89.9260 184.4993 L117.4077 205.7018 C121.8353 209.1492 126.2742 212.4167 130.5152 216.1048 C133.2563 211.9890 136.4120 208.3935 139.6230 204.6635 C145.1325 198.2635 149.6422 193.9525 155.9247 188.4220 C172.6362 173.4388 191.7410 161.3620 212.4447 152.6945 C208.5607 146.0168 205.1908 139.0943 201.4243 132.3595 C198.9283 127.9365 196.4600 123.4980 194.0195 119.0443 C192.5123 116.2970 190.8367 113.5312 189.7142 110.6020 C188.7845 108.1755 188.4922 105.3350 189.6655 102.9185 C190.7155 100.7563 192.8190 99.6235 194.9740 98.8207 Z M442.8550 256.2700 C441.6925 253.1775 439.7925 250.1425 438.2300 247.2247 C427.5450 227.4637 413.1775 209.9308 395.8975 195.5730 C360.3675 166.1317 314.6175 151.9673 268.6675 156.1803 C233.5745 159.7925 200.3582 173.7957 173.2713 196.3970 C170.5005 198.7498 168.0985 201.5103 165.4465 203.9920 C162.6478 206.6107 159.5800 208.8537 156.9205 211.6398 C152.5793 216.1868 148.4642 221.3378 144.5932 226.2977 C143.1033 228.2068 141.8165 230.2708 140.2612 232.1280 C138.4028 234.3475 135.8882 236.7590 132.8445 236.9500 C130.5565 237.0935 128.0273 235.3660 126.2035 234.1478 C122.8130 231.8833 119.7455 229.0320 116.5455 226.5055 C111.2680 222.3390 105.8390 218.3125 100.5235 214.1832 L87.9985 204.4980 C85.4922 202.5977 82.6755 200.7720 80.3903 198.6223 C79.4230 198.7655 78.6360 198.8030 78.0185 199.6610 C77.6882 200.1198 77.5585 200.7802 77.4195 201.3200 C78.2110 203.2910 78.6285 205.5258 79.1848 207.5782 C80.2003 211.2728 81.2350 214.9617 82.2885 218.6458 L87.9835 238.8293 C89.6155 244.4605 91.5455 250.0075 92.6010 255.7875 C92.7493 256.6000 92.7767 257.2150 92.6020 258.0250 C91.2572 264.2725 88.9175 270.5850 87.0632 276.7075 C84.5790 284.9075 82.3542 293.1850 79.9847 301.4175 C79.1933 304.1675 76.7350 311.1300 77.0853 313.6650 L77.6515 314.0200 C78.6013 314.0825 79.2770 313.8575 80.1175 313.4125 C83.3473 311.6950 86.3175 308.8800 89.2645 306.6700 C99.0150 299.3600 108.4608 291.6950 118.1515 284.3225 C121.6995 281.6225 125.2845 278.2800 129.1995 276.1825 C134.6805 273.2425 139.4532 277.6150 142.3720 281.8900 C165.3570 315.4575 199.3045 339.9825 238.3932 351.2600 C271.3125 360.7575 310.8250 358.8975 343.0625 347.5925 C352.8425 344.1625 362.2475 339.4900 371.2925 334.4675 C379.0950 330.1350 390.4450 322.2875 397.1125 316.3825 C399.9975 313.8300 402.5925 310.9075 405.3500 308.2150 C407.3225 306.2900 409.5850 304.6275 411.4850 302.6400 C421.2425 292.4100 430.2475 280.3350 437.0300 267.9200 C438.9850 264.3425 441.7325 260.1925 442.8550 256.2700 Z M218.0285 384.6625 C218.0117 386.2300 217.8590 387.9875 218.2897 389.5075 C223.6935 388.1700 228.8780 386.0450 234.1967 384.4150 C243.0215 381.7125 251.9200 379.2350 260.7050 376.3950 C261.0225 375.3900 260.9900 374.2750 261.0400 373.2300 C259.4150 372.5050 256.1025 372.3850 254.1625 372.0100 C245.3580 370.3025 236.0078 368.9975 227.6820 365.6100 C225.7250 371.2450 223.0380 376.1325 220.0225 381.2575 C219.3777 382.3525 218.8438 383.6925 218.0285 384.6625 Z M228.0883 145.9095 C232.9120 146.1955 235.3808 144.8652 239.8488 143.7495 C244.8932 142.4897 250.0550 141.1610 255.1900 140.3452 C256.1125 140.1962 256.9900 140.0768 257.9200 140.0285 C258.6875 139.9888 259.4600 139.9440 260.0075 139.3290 C260.2200 139.0925 260.3125 138.6735 260.3000 138.3647 C260.2900 138.1425 260.1650 137.7527 260.1000 137.5312 C257.6000 136.5460 254.9900 135.8477 252.4800 134.8415 C244.2973 131.5615 236.1658 128.0697 227.7038 125.5677 C225.8745 125.0267 223.9580 124.3450 222.0807 124.0130 C220.2993 123.6980 218.4073 123.7842 216.6015 123.7842 C217.1955 127.0178 225.9648 142.8660 228.0883 145.9095 Z"></path>
<path id="" fill="#4f46a2" fill-opacity="1.0" stroke="#000000" stroke-width="0.0" stroke-opacity="1.0" stroke-linecap="round" stroke-linejoin="round"  filling="0" d="M367.6350 209.1310 C392.2025 207.8570 413.1450 226.7570 414.3875 251.3275 C415.6325 275.8975 396.7050 296.8150 372.1350 298.0275 C347.6050 299.2400 326.7325 280.3550 325.4900 255.8275 C324.2500 231.3000 343.1100 210.4028 367.6350 209.1310 Z"></path>
<path id="" fill="#fd4893" fill-opacity="1.0" stroke="#000000" stroke-width="0.0" stroke-opacity="1.0" stroke-linecap="round" stroke-linejoin="round"  filling="0" d="M261.0400 373.2300 C262.0025 372.5775 264.2800 373.1675 265.4225 373.3800 C266.4125 373.5650 267.3950 373.8075 268.3750 374.0450 C266.6150 374.7675 262.5650 376.7275 260.7050 376.3950 C261.0225 375.3900 260.9900 374.2750 261.0400 373.2300 Z"></path>
<path id="" fill="#fdb378" fill-opacity="1.0" stroke="#000000" stroke-width="0.0" stroke-opacity="1.0" stroke-linecap="round" stroke-linejoin="round"  filling="0" d="M75.1170 194.2175 C75.8783 194.7038 76.6170 195.2242 77.3307 195.7778 C77.9747 196.2785 80.3002 197.9290 80.3903 198.6223 C79.4230 198.7655 78.6360 198.8030 78.0185 199.6610 C77.6882 200.1198 77.5585 200.7802 77.4195 201.3200 C76.6257 200.5638 75.5575 195.6198 75.1170 194.2175 Z"></path>
<path id="" fill="#fe4893" fill-opacity="1.0" stroke="#000000" stroke-width="0.0" stroke-opacity="1.0" stroke-linecap="round" stroke-linejoin="round"  filling="0" d="M214.1958 390.7500 C215.4382 388.7950 216.4507 386.3450 218.0285 384.6625 C218.0117 386.2300 217.8590 387.9875 218.2897 389.5075 C217.3730 390.2550 215.3802 390.4600 214.1958 390.7500 Z"></path>
<path id="" fill="#fe4793" fill-opacity="1.0" stroke="#000000" stroke-width="0.0" stroke-opacity="1.0" stroke-linecap="round" stroke-linejoin="round"  filling="0" d="M368.0700 226.1080 C370.9575 225.8930 374.0125 225.9518 376.8375 226.6467 C379.0000 227.1780 383.9075 228.1812 385.0375 230.0655 C384.9025 232.2923 377.5275 234.6747 375.3950 236.3140 C373.0850 238.0883 371.4850 240.4203 370.3900 243.0923 C368.6525 247.3305 367.9975 252.5975 369.8575 256.8925 C370.7400 258.9350 372.1000 260.7475 373.6175 262.3600 C378.9525 268.0275 384.4850 268.0225 391.2775 270.7750 L391.6975 270.9450 C389.1600 275.0250 384.7825 276.7375 380.6800 278.8575 C378.1400 280.0725 375.7700 280.8725 372.9425 281.0450 C364.3475 281.5750 357.3175 279.6150 350.8625 273.7725 C345.5000 268.9200 342.4300 261.8075 342.0850 254.6300 C341.7525 247.7482 344.0300 240.8885 348.7375 235.7812 C354.3250 229.7190 359.7300 226.4897 368.0700 226.1080 Z"></path>
<path id="" fill="#4f46a2" fill-opacity="1.0" stroke="#000000" stroke-width="0.0" stroke-opacity="1.0" stroke-linecap="round" stroke-linejoin="round"  filling="0" d="M234.8667 162.0035 L235.4905 161.9635 C236.1870 162.2663 236.6048 162.7202 237.1060 163.2733 C238.2585 164.5445 239.2348 165.9725 240.3470 167.2825 C244.8042 172.5320 249.1855 177.7930 254.1200 182.6045 C262.8625 191.0182 272.3850 198.5813 282.5600 205.1915 C285.2700 206.9722 287.9975 208.6250 290.8300 210.2060 C293.8875 211.9140 297.5000 213.5347 300.1050 215.8938 C300.7075 216.4395 301.1100 217.1230 301.4350 217.8615 C302.4100 220.0865 302.4950 222.7500 301.5600 225.0043 C300.7400 227.0205 299.1500 228.6277 297.1450 229.4727 C294.3425 230.6205 291.4275 230.0155 288.7750 228.8435 C267.9550 218.5182 249.7057 203.3685 233.9630 186.4385 C228.6543 180.7295 223.0830 174.3748 219.2977 167.5525 C224.5123 166.0375 229.7168 163.8015 234.8667 162.0035 Z"></path>
<path id="" fill="#4f46a2" fill-opacity="1.0" stroke="#000000" stroke-width="0.0" stroke-opacity="1.0" stroke-linecap="round" stroke-linejoin="round"  filling="0" d="M195.7442 179.5285 C197.9600 180.1645 203.8275 188.7148 205.7072 190.9145 C207.2220 192.6873 208.9068 194.3208 210.4985 196.0242 C212.6048 198.2785 214.4442 200.8090 216.6130 202.9967 C218.2462 204.6445 220.1857 206.0000 221.9138 207.5482 C223.6890 209.1387 225.3503 210.8510 227.1622 212.4015 C234.7185 218.8578 242.8300 224.6345 251.4025 229.6642 C254.4100 231.4185 258.3950 233.2957 260.4800 236.1830 C261.7825 237.9883 262.4025 240.6147 261.9475 242.8013 C261.5300 244.8168 260.2125 246.5125 258.5025 247.6183 C255.7475 249.3987 252.8175 249.3065 249.7435 248.6510 C246.3340 247.1125 243.0965 244.9280 239.9035 242.9810 C220.7657 231.2482 203.7950 216.3022 189.7375 198.8008 C187.2420 195.7035 184.1087 192.4335 182.5553 188.7502 C185.4785 185.5470 191.8840 181.5880 195.7442 179.5285 Z"></path>
<path id="" fill="#4f46a2" fill-opacity="1.0" stroke="#000000" stroke-width="0.0" stroke-opacity="1.0" stroke-linecap="round" stroke-linejoin="round"  filling="0" d="M166.1537 202.6693 C166.3913 202.6955 166.5075 202.6922 166.7448 202.8067 C168.2410 203.5295 178.6897 217.0607 180.8955 219.3725 C192.0703 231.0860 202.2780 239.7242 215.7555 248.6605 C217.5630 249.8593 219.3730 251.0775 221.2507 252.1650 C224.2778 253.9175 228.4485 255.5325 230.6585 258.3125 C231.9320 259.9150 232.4120 261.6100 232.9868 263.5375 C232.2585 266.0575 231.5730 268.2700 229.4787 270.0425 C227.1835 271.9825 224.5100 272.1650 221.6597 271.8725 C218.7205 270.9900 215.9402 269.0900 213.3140 267.5250 C200.0665 259.6250 187.0530 250.2000 176.0013 239.3978 C171.3862 234.8873 167.2345 230.1240 163.0205 225.2482 C160.5290 222.3660 157.5475 219.2657 155.6920 215.9393 C155.0833 214.8483 154.7850 213.8995 154.7690 212.6540 C155.8107 210.2233 163.7275 204.3360 166.1537 202.6693 Z"></path>
<path id="" fill="#fffefe" fill-opacity="1.0" stroke="#000000" stroke-width="0.0" stroke-opacity="1.0" stroke-linecap="round" stroke-linejoin="round"  filling="0" d="M169.7818 266.8225 C171.7307 266.7275 173.3972 266.7225 175.2153 267.5825 C178.7928 269.2725 181.5338 273.1275 184.5710 275.6450 C187.8395 278.3525 190.9780 281.2425 194.3452 283.8275 C197.5475 286.2875 201.1305 288.4675 204.0938 291.2050 C205.2495 292.2725 206.3172 293.4450 206.8347 294.9600 C207.5465 297.0800 207.3770 299.3975 206.3645 301.3900 C205.1795 303.7325 203.1897 305.2075 200.7260 305.9725 C198.9852 306.2975 197.2688 306.4200 195.6285 305.6350 C189.6295 302.7675 165.1142 282.8975 163.3425 277.5375 C162.6673 275.4950 162.9348 273.2625 163.9045 271.3575 C165.1832 268.8475 167.1865 267.6175 169.7818 266.8225 Z"></path>
<path id="" fill="#fffefe" fill-opacity="1.0" stroke="#000000" stroke-width="0.0" stroke-opacity="1.0" stroke-linecap="round" stroke-linejoin="round"  filling="0" d="M219.7880 307.8150 C221.5312 307.7100 223.1758 307.7325 224.8663 308.2425 C227.8427 309.1425 230.7120 311.2575 233.4897 312.6700 C236.1382 314.0200 238.9583 315.0300 241.5677 316.4525 C245.3725 318.5250 246.9955 320.8975 248.2240 324.9900 C247.8922 326.1200 247.5473 327.1400 246.9187 328.1525 C245.6812 330.1450 243.7945 332.4850 241.4402 333.0550 C238.2057 333.4650 235.2465 332.6175 232.3510 331.2425 C227.6842 329.0275 220.0182 325.7200 216.3047 322.4400 C214.9633 321.2575 213.9147 319.7850 213.3550 318.0775 C212.7272 316.1600 212.7708 314.1600 213.6973 312.3475 C214.9478 309.9025 217.2583 308.5900 219.7880 307.8150 Z"></path>
<path id="" fill="#4f46a2" fill-opacity="1.0" stroke="#000000" stroke-width="0.0" stroke-opacity="1.0" stroke-linecap="round" stroke-linejoin="round"  filling="0" d="M377.3400 227.2493 C377.8175 227.2177 378.3050 227.1792 378.7800 227.2280 C380.1675 227.3703 384.4850 228.9675 385.2225 230.1060 C385.4575 230.4677 385.3300 230.6780 385.2725 231.0768 C383.7825 233.1107 379.7950 234.2075 377.5775 235.4390 C373.7175 237.5807 370.9400 240.3867 369.7325 244.7505 C368.8800 247.8427 368.2925 254.3875 369.7975 257.2525 C370.4375 258.4650 371.5900 259.4050 372.4750 260.4475 C374.1250 262.3900 375.8125 264.7250 378.0675 266.0075 C380.7525 267.5300 390.0600 268.8900 391.2525 270.9700 C391.3375 272.2775 390.5250 273.0150 389.7250 273.9450 C388.5475 275.0950 386.7650 276.7750 385.0125 276.7050 C383.8475 276.6600 382.5875 276.0800 381.4900 275.6950 C376.8325 274.0625 372.5750 272.0775 369.0625 268.5025 C364.4125 263.7400 361.8825 257.3000 362.0475 250.6450 C362.1475 244.1570 365.3675 236.6308 370.4350 232.4677 C372.5850 230.7000 375.1775 229.4235 377.1475 227.4510 C377.2125 227.3850 377.2750 227.3165 377.3400 227.2493 Z"></path>
<path id="" fill="#fefefe" fill-opacity="1.0" stroke="#000000" stroke-width="0.0" stroke-opacity="1.0" stroke-linecap="round" stroke-linejoin="round"  filling="0" d="M386.0700 243.0748 C390.4525 242.5780 394.4225 245.6902 394.9875 250.0650 C395.5525 254.4400 392.5025 258.4575 388.1375 259.0900 C385.2525 259.5075 382.3675 258.3375 380.5850 256.0300 C378.8050 253.7225 378.4075 250.6350 379.5425 247.9503 C380.6800 245.2663 383.1750 243.4030 386.0700 243.0748 Z"></path>
</svg>