<svg xmlns="http://www.w3.org/2000/svg" viewBox="0 0 512 512" height="512.0px" width="512.0px">
<path id="" fill="#fe4893" fill-opacity="1.0" stroke="#000000" stroke-width="0.0" stroke-opacity="1.0" stroke-linecap="round" stroke-linejoin="round"  filling="0" d="M233.3978 308.6200 C243.8525 308.2675 254.4025 308.4925 264.8650 308.5200 C270.4675 308.5350 277.5575 308.0725 282.9625 308.8600 C284.4000 309.0675 285.3450 309.5000 286.5750 310.2400 C287.1075 311.2600 287.4375 312.3200 287.6325 313.4500 C288.2225 316.8725 288.5050 320.3925 288.9100 323.8425 C289.6000 329.7900 290.3225 335.7300 291.0775 341.6675 C291.5700 345.5450 292.0900 349.4175 292.6400 353.2850 C293.0025 355.8900 293.5225 358.5625 293.5350 361.1925 C293.5400 362.5225 293.6100 363.2550 292.6125 364.2125 C289.6425 367.0675 282.8075 366.0650 278.9425 366.0125 L240.6472 366.0100 C235.3315 366.0125 227.6172 366.5500 222.5683 365.8325 C220.4973 365.5375 219.2720 363.9375 218.1127 362.3625 C220.1780 350.2350 221.5838 338.0775 223.0697 325.8675 C223.5733 321.7325 223.7970 317.5200 224.4535 313.4125 C224.6147 312.4025 224.7343 311.2325 225.4845 310.4750 C227.5553 308.3850 230.6927 308.6625 233.3978 308.6200 Z"></path>
<path id="" fill="#5fceff" fill-opacity="1.0" stroke="#000000" stroke-width="0.0" stroke-opacity="1.0" stroke-linecap="round" stroke-linejoin="round"  filling="0" d="M253.4600 64.3750 C254.1125 64.2988 254.7700 64.2527 255.4300 64.2370 C259.6925 64.1338 263.9900 64.6998 268.2075 65.2720 C286.2200 67.7452 303.2900 74.8235 317.7650 85.8220 C320.3175 87.7793 322.6700 90.0410 325.0775 92.1735 C326.7325 93.6400 328.5025 95.0027 330.0850 96.5482 C332.2075 98.6205 334.0850 101.0147 335.9775 103.2947 C351.2925 122.0573 361.2050 144.6398 364.6450 168.6138 C365.3300 173.1628 365.9600 177.7145 366.0250 182.3235 C366.1225 189.2405 366.4925 196.5780 365.8375 203.4637 C363.5950 229.4312 354.1200 254.2500 338.4900 275.1075 C336.0900 278.2525 333.7175 281.5775 330.9300 284.3925 C329.3875 285.9500 327.6475 287.3225 326.0275 288.8025 C321.6075 292.8475 317.2275 296.8000 312.2825 300.2100 C305.5150 304.8800 292.1450 311.5675 284.1325 314.0200 C276.7050 316.2925 266.8375 317.7825 259.0400 317.8275 C254.9550 317.8525 250.7725 318.0175 246.7020 317.6300 C243.0310 317.2825 239.3358 316.4875 235.7025 315.8425 C233.1387 315.3875 230.4913 315.0275 227.9885 314.3050 C225.7948 313.6750 223.7092 312.4700 221.6200 311.5425 C211.6230 307.1000 201.2855 302.1225 192.8602 295.0250 C189.3860 292.1000 185.6783 289.1875 182.5170 285.9300 C179.4390 282.7575 176.7238 279.1400 174.0247 275.6475 C157.5905 254.3750 148.7420 230.7287 146.4892 203.9530 C144.1582 176.2480 148.9925 147.1200 162.7583 122.7307 C167.5712 114.2032 173.3815 106.5655 179.7040 99.1158 C182.4312 95.9020 185.5822 93.4045 188.7077 90.6150 C203.0720 77.7675 220.7320 69.1772 239.7065 65.8077 C244.2415 65.0193 248.8743 64.7523 253.4600 64.3750 Z"></path>
<path id="" fill="#4f46a3" fill-opacity="1.0" stroke="#000000" stroke-width="0.0" stroke-opacity="1.0" stroke-linecap="round" stroke-linejoin="round"  filling="0" d="M218.3848 321.5500 C211.3667 318.6850 204.5795 315.4900 198.1337 311.4750 C175.6650 297.4775 158.2343 275.4575 148.0123 251.1775 C131.7590 212.6265 131.4455 169.2057 147.1400 130.4243 C153.6378 114.5710 164.8880 96.7720 176.9978 84.6335 C178.9820 82.6445 181.2490 80.8897 183.3862 79.0667 C193.0210 70.8490 203.2405 64.2312 214.9620 59.3450 C241.0872 48.3970 270.5150 48.3987 296.6400 59.3497 C327.7625 72.2285 351.5975 98.4337 364.3875 129.3233 C380.2700 167.5555 380.4250 210.5105 364.8225 248.8578 C352.1300 279.4875 329.6600 306.7125 298.4375 319.5600 C296.8925 320.1975 295.3350 320.7975 293.7650 321.3650 C294.7400 328.1375 295.4175 334.9525 296.2575 341.7425 C296.9825 347.6000 298.4125 354.3250 297.8800 360.2000 C297.7425 361.7225 297.2475 363.0125 296.3475 364.2475 C294.6775 366.5350 292.6175 367.7250 289.8325 368.0900 C286.1350 368.5750 281.9375 368.3175 278.2400 367.9075 C277.0975 371.7400 275.7350 375.2725 273.0950 378.3500 C271.3600 380.3700 268.7625 382.0850 266.5325 383.5100 C264.3375 384.9125 252.1925 391.2850 251.8750 393.3950 C251.8625 393.4775 251.9200 393.5550 251.9575 393.6275 C252.4200 394.5800 253.8325 395.5050 254.7075 396.1175 C263.6350 402.3700 275.6075 405.8825 278.1400 417.9650 C278.7700 420.9675 278.8925 423.8850 278.0900 426.8725 C275.7500 435.6075 269.9700 439.9325 262.4275 444.2100 C259.4650 445.8900 255.7725 447.4950 253.4800 450.0550 C252.1150 451.5775 252.0375 453.5475 251.2275 455.3425 C249.2392 459.7425 244.8242 461.8375 240.1500 460.5200 C237.6140 459.8100 235.4957 458.0625 234.3180 455.7075 C232.5582 452.2575 233.2368 448.2850 234.4433 444.7725 C239.1983 430.9325 256.3175 429.0925 259.8750 422.2225 L259.6275 421.9300 C256.5950 418.4050 251.8425 416.3375 247.8790 414.0400 C239.7932 409.3525 232.6552 402.4625 233.3320 392.3675 C233.7852 385.6075 236.9585 380.7375 242.0255 376.4175 C244.1517 374.6050 246.8138 372.7325 249.4340 371.7150 C249.2778 370.5650 249.1870 369.5150 249.2305 368.3550 C243.7605 368.2850 238.2903 368.2550 232.8197 368.2625 C229.0683 368.2500 225.0287 368.5125 221.3425 367.7625 C219.4153 367.3700 217.4402 366.5925 216.0327 365.1725 C214.0405 363.1625 213.9625 359.9600 214.0505 357.2925 C214.2495 351.2475 215.3995 345.1100 216.0920 339.0975 C216.6402 334.3375 217.0623 325.7800 218.3848 321.5500 Z M251.3525 70.1042 C231.5997 71.2292 213.5488 78.9413 198.2930 91.3932 C195.1487 93.9597 191.9875 96.4883 189.2852 99.5323 C185.0217 104.3347 180.7680 109.2582 177.1252 114.5510 C164.9212 132.2840 157.2218 154.0815 155.2970 175.5190 C154.8618 180.3655 155.0070 185.3330 154.9970 190.1945 C154.9897 193.7355 154.8692 197.3302 155.0920 200.8645 C157.0753 234.1693 172.2215 265.3175 197.1925 287.4450 C211.6725 299.9400 229.7300 307.5425 248.7872 309.1650 C251.7450 309.4100 254.8050 309.7575 257.7650 309.5450 C258.6575 309.4775 259.5500 309.3900 260.4375 309.2825 C287.6250 307.6700 309.5125 295.1425 327.3350 274.9125 C344.3400 255.6075 354.2700 229.5553 356.7250 204.1025 C357.5025 196.0470 357.4400 184.8882 356.8850 176.8367 C355.1275 151.4003 344.0575 124.5700 327.7200 105.0630 C324.8925 101.6898 322.0775 98.3443 318.7400 95.4553 C298.5350 77.9640 278.2650 69.1602 251.3525 70.1042 Z M233.9913 349.9975 C248.4580 349.8150 263.0550 349.6400 277.5175 349.9600 L278.0025 349.7500 C278.4800 347.3525 277.2750 341.3325 276.9450 338.6925 C276.4425 334.6850 275.9175 330.7450 275.9600 326.6950 C266.4225 327.8525 257.0575 328.5050 247.4305 327.9400 C243.6723 327.7200 239.9270 327.0825 236.1752 326.7425 C236.0307 334.5725 234.3135 342.1950 233.9913 349.9975 Z"></path>
<path id="" fill="#e3e1f0" fill-opacity="1.0" stroke="#000000" stroke-width="0.0" stroke-opacity="1.0" stroke-linecap="round" stroke-linejoin="round"  filling="0" d="M249.2305 368.3550 C251.4875 367.9700 254.0725 368.1325 256.3650 368.1125 C254.0850 369.2200 251.7700 370.8075 249.4340 371.7150 C249.2778 370.5650 249.1870 369.5150 249.2305 368.3550 Z"></path>
<path id="" fill="#4f46a3" fill-opacity="1.0" stroke="#000000" stroke-width="0.0" stroke-opacity="1.0" stroke-linecap="round" stroke-linejoin="round"  filling="0" d="M179.5343 180.0575 C181.8065 180.5525 183.9707 181.3250 185.7495 182.8770 C190.2490 186.8027 189.0475 193.6820 189.4662 199.0592 C189.7965 203.2953 190.7045 207.5450 191.7125 211.6662 C195.4975 227.1452 202.1638 239.6480 213.4863 250.9375 C221.1512 258.5800 230.2498 264.4850 240.7702 267.4050 C243.3407 268.1250 245.9668 268.6300 248.6210 268.9125 C253.1000 269.3525 258.8125 268.7500 262.4050 271.9825 C264.3925 273.7700 265.3300 276.1000 265.3775 278.7525 C265.4250 281.3625 264.6725 283.8200 262.7775 285.6750 C260.6625 287.7475 258.5200 288.0375 255.7175 288.0625 C242.0473 288.2900 228.5920 284.6450 216.9052 277.5500 C194.6073 263.9600 179.3985 242.0725 173.2840 216.7448 C171.6995 210.1810 167.9303 190.3570 171.4698 184.8700 C173.3398 181.9713 176.2915 180.7188 179.5343 180.0575 Z"></path>
<path id="" fill="#4f46a3" fill-opacity="1.0" stroke="#000000" stroke-width="0.0" stroke-opacity="1.0" stroke-linecap="round" stroke-linejoin="round"  filling="0" d="M198.6543 119.8457 C200.5237 119.8303 202.2292 120.0147 203.9220 120.8735 C206.1985 122.0283 208.1062 124.3053 208.8810 126.7343 C209.5090 128.7100 209.4070 130.8455 208.5940 132.7525 C206.7785 137.1085 202.8030 141.0425 200.4503 145.2880 C197.9025 149.8855 196.3680 154.9733 193.8525 159.5440 C192.1373 162.6608 189.8802 164.0395 186.5488 165.0175 C183.8987 165.2083 181.3180 164.1638 179.1848 162.6078 C177.4480 161.3412 176.3822 159.3860 176.0705 157.2810 C174.9998 150.0508 186.2580 131.4485 190.8225 125.3733 C193.0853 122.3615 194.7448 120.4115 198.6543 119.8457 Z"></path>
</svg>