<svg xmlns="http://www.w3.org/2000/svg" viewBox="0 0 512 512" height="512.0px" width="512.0px">
<path id="" fill="#feb74d" fill-opacity="1.0" stroke="#000000" stroke-width="0.0" stroke-opacity="1.0" stroke-linecap="round" stroke-linejoin="round"  filling="0" d="M240.8140 148.1070 C241.0510 148.0870 241.2885 148.0708 241.5262 148.0638 C246.8242 147.9080 252.1375 147.9745 257.4375 147.9785 C261.4950 147.9815 265.6025 147.8685 269.6525 148.0770 C294.7025 149.4563 319.5200 153.6142 343.6500 160.4742 C347.0900 161.4535 350.4575 162.6795 353.8725 163.7405 C371.2125 168.9420 388.1375 175.4380 404.5050 183.1738 C417.2975 189.1337 430.7100 195.0923 441.0425 204.9630 C449.8850 213.4980 456.0975 224.3867 458.9475 236.3415 C461.4800 247.3605 461.0575 258.3650 461.0500 269.5800 L461.0350 299.2900 L461.0375 380.5275 C461.0400 395.3500 460.7950 410.2150 461.1175 425.0275 C453.6000 424.7075 446.0100 424.9325 438.4850 424.9275 L396.7650 424.9050 L271.6250 424.9025 L125.0482 424.9150 L76.5480 424.9300 C68.0508 424.9325 59.4660 424.6425 50.9815 425.0000 L50.9840 306.4200 L50.9723 272.6950 C50.9695 261.1525 50.6673 249.9100 52.7900 238.4993 C54.6215 228.6548 58.9585 218.5640 65.6118 210.9872 C69.2025 206.8985 73.5318 202.3828 77.8720 199.1340 C85.3817 193.5128 94.6797 189.5900 103.0620 185.4180 C146.0885 164.0685 192.8943 151.3907 240.8140 148.1070 Z"></path>
<path id="" fill="#cf8821" fill-opacity="1.0" stroke="#000000" stroke-width="0.0" stroke-opacity="1.0" stroke-linecap="round" stroke-linejoin="round"  filling="0" d="M201.9970 313.1000 C202.2480 313.0700 202.4998 313.0425 202.7522 313.0275 C212.4405 312.4425 220.3630 312.6325 227.9917 319.4500 C231.7702 322.8275 234.0992 327.3000 235.2567 332.1925 C236.8067 338.7425 236.1183 345.8900 236.0992 352.5800 C236.0650 364.7750 235.6690 377.1700 236.3190 389.3425 C227.6212 388.4975 217.6945 389.0350 208.8750 389.0425 L188.0365 389.0350 C183.3497 389.0375 178.6170 388.9150 173.9435 389.3025 C173.7915 377.3275 173.9662 365.3400 173.9467 353.3650 C173.9373 347.6575 173.2583 338.1400 174.2937 332.8450 C174.9978 329.2425 176.8038 325.5950 179.1060 322.7500 C185.2035 315.2125 192.9243 314.0025 201.9970 313.1000 Z"></path>
<path id="" fill="#cf8821" fill-opacity="1.0" stroke="#000000" stroke-width="0.0" stroke-opacity="1.0" stroke-linecap="round" stroke-linejoin="round"  filling="0" d="M297.1275 313.0550 C297.1475 313.0550 297.1650 313.0525 297.1825 313.0500 C308.3425 312.4150 321.7000 312.4175 330.5225 320.2375 C333.8675 323.2025 336.4725 327.4950 337.5400 331.8375 C338.8675 337.2325 338.0850 343.7075 338.0725 349.2450 L338.0675 372.9125 C338.0700 378.3825 337.9625 383.8925 338.3050 389.3550 C331.6125 388.5350 324.3850 389.0350 317.6250 389.0425 L293.3700 389.0350 C287.5675 389.0375 281.7525 388.9475 275.9575 389.3050 C275.8275 377.8775 275.9300 366.4425 275.9200 355.0125 C275.9125 348.5350 275.3100 341.2375 276.2950 334.8925 C276.9525 330.6525 278.3425 326.5850 280.8225 323.0600 C284.6825 317.5675 290.5400 314.1650 297.1275 313.0550 Z"></path>
<path id="" fill="#cf8821" fill-opacity="1.0" stroke="#000000" stroke-width="0.0" stroke-opacity="1.0" stroke-linecap="round" stroke-linejoin="round"  filling="0" d="M297.0950 195.0590 C297.5575 195.0125 298.0125 194.9792 298.4775 194.9630 C309.9225 194.5638 320.2425 197.0115 328.7325 205.0260 C332.8400 208.9032 336.0500 214.2578 337.3750 219.7705 C338.8400 225.8562 338.0950 232.9875 338.0875 239.2392 C338.0750 250.9700 337.8275 262.7650 338.2125 274.4875 C332.6275 273.1075 326.6750 272.4850 320.9850 271.6075 C311.1500 270.0675 301.1650 268.7975 291.2775 267.6375 C286.2275 267.0425 281.0100 266.1525 275.9325 266.1525 L275.9150 236.1565 C275.9025 229.8322 275.4500 223.1610 276.4175 216.9070 C277.0850 212.5950 278.2875 208.6562 280.8175 205.0658 C284.6750 199.5907 290.5125 196.1655 297.0950 195.0590 Z"></path>
<path id="" fill="#cf8821" fill-opacity="1.0" stroke="#000000" stroke-width="0.0" stroke-opacity="1.0" stroke-linecap="round" stroke-linejoin="round"  filling="0" d="M206.6983 195.0983 C207.4688 194.9925 208.2705 194.9830 209.0475 194.9485 C216.3598 194.6223 222.8295 196.5567 228.2897 201.5907 C231.7128 204.7693 234.1245 208.8853 235.2242 213.4252 C236.7915 219.7405 236.1295 227.0570 236.1203 233.5443 C236.1053 244.0898 235.8638 254.7050 236.3290 265.2400 C233.0948 264.8700 229.2872 265.6700 226.0320 266.0450 C217.5680 267.0200 209.1467 268.3125 200.6885 269.2975 C191.8418 270.1850 182.7112 271.6900 173.9905 273.4175 C173.7547 262.2375 173.9480 251.0350 173.9462 239.8530 C173.9455 234.1297 173.2558 226.2060 174.3230 220.7617 C175.1478 216.3882 177.0307 212.2832 179.8075 208.8053 C187.0968 199.7010 195.3535 196.3230 206.6983 195.0983 Z"></path>
<path id="" fill="#f44336" fill-opacity="1.0" stroke="#000000" stroke-width="0.0" stroke-opacity="1.0" stroke-linecap="round" stroke-linejoin="round"  filling="0" d="M230.8420 87.5908 C233.3250 87.1628 236.4993 87.3848 239.0128 87.5265 C260.6000 88.7450 272.9875 104.5215 291.7625 106.3083 C296.4725 106.7565 301.4225 106.1795 305.9600 104.8685 C307.9325 104.2985 310.1200 103.3230 312.1675 103.1560 C312.9650 103.0908 313.4225 103.1900 314.0300 103.7030 C314.2200 104.4100 314.1175 104.8675 313.8075 105.5125 C311.1800 110.9798 301.5075 118.2917 296.2225 121.2332 C293.6825 122.6455 291.0650 123.7103 288.3125 124.6265 C287.0000 125.2160 285.4250 125.5285 284.0300 125.8958 C266.7550 130.4435 248.4230 122.8148 231.5245 127.2665 C227.4798 128.3320 224.0632 130.4070 220.7778 132.9365 C219.0530 134.2643 217.4130 135.6873 215.3808 136.5247 C215.2860 136.5638 215.1905 136.6003 215.0952 136.6382 C214.7672 132.0440 214.9180 127.3660 214.9225 122.7613 C214.9330 112.0975 215.2275 101.3383 214.7395 90.6860 C220.0293 89.0390 225.3508 88.2105 230.8420 87.5908 Z"></path>
<path id="" fill="#cf8821" fill-opacity="1.0" stroke="#000000" stroke-width="0.0" stroke-opacity="1.0" stroke-linecap="round" stroke-linejoin="round"  filling="0" d="M139.0312 214.0527 C141.4045 213.8268 143.8035 213.6707 146.0822 214.5315 C149.1850 215.7038 151.5683 218.5533 152.8138 221.5700 C153.6568 223.6125 154.0105 225.8185 154.1365 228.0145 C154.3013 230.8840 154.1348 233.7948 154.1183 236.6687 L154.0977 251.7800 L154.1288 269.2800 C154.1487 272.3450 154.3112 275.4475 154.2003 278.5075 C154.1675 279.4050 154.0963 280.2475 153.7430 281.0825 C151.9950 282.0900 129.5658 286.5300 125.4382 287.4700 C121.0867 288.6100 116.5533 290.0900 112.0602 290.4250 C111.7018 282.4975 111.9320 274.4900 111.9293 266.5525 C111.9260 256.6050 111.2307 246.2070 113.2038 236.4225 C113.9125 232.9353 115.2905 229.6185 117.2617 226.6560 C122.3867 219.0513 130.3228 215.7770 139.0312 214.0527 Z"></path>
<path id="" fill="#cf8821" fill-opacity="1.0" stroke="#000000" stroke-width="0.0" stroke-opacity="1.0" stroke-linecap="round" stroke-linejoin="round"  filling="0" d="M369.4000 213.8545 C376.4450 213.9875 385.5875 217.1297 390.7550 221.9885 C394.4475 225.4073 397.1100 229.7908 398.4425 234.6435 C400.8725 243.2280 400.1125 253.0675 400.1025 261.9150 C400.0900 271.4400 399.9750 280.9875 400.2525 290.5075 C397.1550 290.2075 394.0900 289.3775 391.0775 288.6175 C385.5775 287.2300 380.0825 285.7800 374.5175 284.6725 C369.3000 283.6350 363.7375 282.9475 358.6550 281.4075 C358.1125 280.7325 358.0725 279.7600 358.0000 278.9300 C357.7175 275.6750 357.9075 272.2750 357.9150 269.0050 L357.9325 251.6475 L357.9050 236.3517 C357.8825 232.6585 357.6150 228.7103 358.2400 225.0632 C358.7125 222.2903 359.8475 219.6755 361.7250 217.5607 C363.8725 215.1435 366.2375 214.0620 369.4000 213.8545 Z"></path>
<path id="" fill="#cf8821" fill-opacity="1.0" stroke="#000000" stroke-width="0.0" stroke-opacity="1.0" stroke-linecap="round" stroke-linejoin="round"  filling="0" d="M373.8750 323.0550 C380.2350 322.6500 385.5675 322.9175 390.9050 326.7250 C395.8425 330.2500 398.4975 334.9350 399.4850 340.8675 C400.8750 349.2175 400.0725 360.2925 400.0675 369.0000 C400.0650 374.4475 400.4825 380.0375 400.1550 385.4575 C400.1025 386.3275 400.0700 387.5925 399.4800 388.2900 C398.3500 389.6200 387.0650 389.0600 384.6250 389.0425 C375.7625 389.0325 366.7950 388.7500 357.9525 389.3025 C357.7850 378.8725 357.9550 368.4325 357.9350 358.0000 C357.9250 352.1425 357.3350 345.3200 358.1800 339.5950 C358.6450 336.4500 359.7650 333.2850 361.5700 330.6550 C364.5450 326.3200 368.7925 324.0100 373.8750 323.0550 Z"></path>
<path id="" fill="#cf8821" fill-opacity="1.0" stroke="#000000" stroke-width="0.0" stroke-opacity="1.0" stroke-linecap="round" stroke-linejoin="round"  filling="0" d="M129.8562 323.0575 C130.2645 323.0275 130.6730 323.0000 131.0818 322.9775 C137.2303 322.6375 143.0517 323.2500 147.7905 327.5550 C150.7860 330.2750 152.6505 333.9725 153.5425 337.8875 C154.7747 343.2975 154.1245 349.3875 154.1147 354.9250 C154.0945 366.3550 153.7213 377.9400 154.3188 389.3500 C148.7710 388.7225 142.9572 389.0375 137.3750 389.0425 C134.2450 389.0500 114.1277 389.4700 112.8485 388.8125 C112.5490 388.6575 112.4355 388.0525 112.3660 387.7375 C111.3460 383.1225 111.9220 371.3925 111.9262 366.2125 C111.9323 359.0550 111.3630 349.4975 112.3060 342.5800 C112.8012 338.9450 113.6120 335.2975 115.6988 332.2250 C119.0113 327.4075 124.1060 324.1100 129.8562 323.0575 Z"></path>
<path id="" fill="#aa00ff" fill-opacity="1.0" stroke="#000000" stroke-width="0.0" stroke-opacity="1.0" stroke-linecap="round" stroke-linejoin="round"  filling="0" d="M368.2450 110.9677 C387.2100 110.2895 396.2225 115.4277 409.6575 128.3427 C413.3575 131.8990 416.8300 135.6568 420.8750 138.8383 C424.6275 141.7908 428.5125 144.2812 433.1775 145.4892 C437.8125 146.6893 442.2075 145.9442 446.8950 146.0172 C447.5675 146.0275 447.6850 145.8970 448.1700 146.3932 C448.2575 146.7993 448.3300 147.1445 448.2550 147.5595 C447.5775 151.2450 441.1925 155.9928 438.2500 158.0977 C423.2650 167.5542 411.0775 160.3062 396.2700 155.1110 C392.3725 153.7435 388.4525 152.5000 384.2900 152.4113 C374.7275 152.2075 372.6475 157.8542 368.7750 158.3200 C367.3725 155.5870 368.6075 118.2502 368.2450 110.9677 Z"></path>
<path id="" fill="#009688" fill-opacity="1.0" stroke="#000000" stroke-width="0.0" stroke-opacity="1.0" stroke-linecap="round" stroke-linejoin="round"  filling="0" d="M93.4085 122.5870 C104.0965 121.2920 112.4467 127.1030 122.2500 129.7663 C132.5562 132.5663 138.6380 128.9200 147.2278 124.0375 C148.2077 123.4803 149.7875 122.3962 150.9252 122.7090 L151.1068 123.2595 C150.8842 124.7350 150.1333 126.0015 149.3915 127.2725 C141.5957 140.6288 131.6765 151.9283 116.1783 156.0423 C104.0348 159.2950 91.3392 158.8848 81.3092 167.6270 C77.8995 170.5990 75.4390 174.3448 72.1255 177.3568 L71.8012 177.3197 C70.8025 174.7240 71.1927 135.9727 71.7643 131.4563 C76.9100 126.9847 86.6760 123.4780 93.4085 122.5870 Z"></path>
<path id="" fill="#cf8821" fill-opacity="1.0" stroke="#000000" stroke-width="0.0" stroke-opacity="1.0" stroke-linecap="round" stroke-linejoin="round"  filling="0" d="M426.6550 234.9693 C426.7475 234.9640 426.8375 234.9530 426.9275 234.9538 C429.9675 234.9783 433.4625 236.9285 435.6225 238.9755 C438.9475 242.1285 440.8525 246.4527 441.6800 250.9075 C442.2800 254.1350 441.2525 256.6825 441.1750 259.8300 C441.0950 262.9925 441.9475 266.0950 441.9400 269.2300 C441.9350 271.6900 441.1975 274.1150 441.1950 276.5950 C441.1900 280.3550 441.7975 284.1225 442.0225 287.8775 C442.2700 292.0375 442.1675 296.2375 442.2625 300.4050 C441.2225 300.3750 440.2175 300.3225 439.1900 300.1650 C433.0475 299.2450 427.0500 297.1975 420.9650 295.9275 L420.9300 262.5525 C420.9200 254.9300 420.7300 247.2610 420.9900 239.6438 C422.4850 237.5517 424.4225 236.1727 426.6550 234.9693 Z"></path>
<path id="" fill="#cf8821" fill-opacity="1.0" stroke="#000000" stroke-width="0.0" stroke-opacity="1.0" stroke-linecap="round" stroke-linejoin="round"  filling="0" d="M86.3448 234.8300 C86.7565 234.8297 87.1633 234.8285 87.5697 234.9050 C89.5453 235.2770 90.8680 237.1687 91.9603 238.7005 C92.6250 242.9353 92.0663 250.0175 92.0583 254.6225 C92.0350 268.0075 91.6647 281.5350 92.3490 294.9025 C87.7848 295.3675 82.1105 297.3125 77.5595 298.4750 C75.7100 298.8850 73.9082 299.2300 72.0220 299.4150 C71.6178 288.5175 71.9417 277.5175 71.9222 266.6100 C71.9122 261.1525 71.3347 251.0800 72.2480 246.0462 C72.6252 243.9662 73.7310 242.0660 75.0455 240.4308 C77.9475 236.8205 81.8802 235.3407 86.3448 234.8300 Z"></path>
<path id="" fill="#cf8821" fill-opacity="1.0" stroke="#000000" stroke-width="0.0" stroke-opacity="1.0" stroke-linecap="round" stroke-linejoin="round"  filling="0" d="M427.8475 329.8425 C431.0375 329.9200 434.2175 330.2950 436.7500 332.4675 C438.5200 333.9850 439.3775 336.0575 439.8075 338.2975 C440.6275 342.5575 440.0900 347.4700 440.0825 351.8175 L440.0675 374.2450 C440.0650 379.2625 439.9225 384.3475 440.3000 389.3525 C437.7175 389.1050 435.1700 389.0650 432.5800 389.0475 C428.3850 389.0300 424.1275 388.9325 419.9475 389.3025 L419.9275 354.6100 C419.9175 349.1300 419.4125 341.3425 420.0875 336.1775 C420.2450 334.9825 420.8475 333.9025 421.5775 332.9625 C423.1850 330.8900 425.3350 330.1000 427.8475 329.8425 Z"></path>
<path id="" fill="#cf8821" fill-opacity="1.0" stroke="#000000" stroke-width="0.0" stroke-opacity="1.0" stroke-linecap="round" stroke-linejoin="round"  filling="0" d="M81.9228 329.8425 C82.9603 329.8175 84.0820 329.8325 85.1107 329.9750 C88.1400 330.3900 90.2137 332.2900 91.9690 334.6375 C92.6430 338.7625 92.0692 344.3425 92.0612 348.6225 L92.0592 372.4775 C92.0630 377.7525 91.9175 383.0900 92.3033 388.3525 C89.2320 387.9325 86.0667 388.0500 82.9725 388.0400 C79.3220 388.0375 75.5768 387.9125 71.9460 388.3050 L71.9308 353.8250 C71.9207 349.4800 71.3817 341.2750 72.1060 337.2750 C72.3215 336.0875 73.0388 334.9625 73.7820 334.0300 C75.8245 331.4700 78.7467 330.2200 81.9228 329.8425 Z"></path>
</svg>