<svg xmlns="http://www.w3.org/2000/svg" viewBox="0 0 512 512" height="512.0px" width="512.0px">
<path id="" fill="#e89418" fill-opacity="1.0" stroke="#000000" stroke-width="0.0" stroke-opacity="1.0" stroke-linecap="round" stroke-linejoin="round"  filling="0" d="M255.6700 156.7272 C258.1925 156.8797 263.1600 162.0905 265.0950 163.8370 L327.4300 220.1665 C332.6875 224.8913 337.8525 229.7885 343.1725 234.4325 C351.2800 241.5115 359.6350 248.1880 368.1025 254.8250 C371.1400 257.2050 374.0850 259.7600 377.2025 262.0300 C382.9450 266.2125 388.9025 270.0725 394.7600 274.0875 C400.2475 277.8475 405.5025 281.6900 411.2300 285.1025 C418.5875 289.4475 426.0250 293.6500 433.5400 297.7100 C437.1350 299.6675 446.6825 304.2750 449.0550 306.5225 C449.3225 306.7775 449.6400 307.1300 449.7575 307.4875 C450.4600 309.6525 449.9850 336.5125 449.9850 341.1050 L449.9775 417.8375 C449.9725 432.2250 449.7925 446.6425 450.0425 461.0275 C443.1200 460.5025 435.9225 460.8525 428.9725 460.8375 L388.3650 460.7950 L256.4725 460.8175 L124.1093 460.7450 L84.9005 460.7875 C77.3325 460.7975 69.6577 460.5600 62.1060 461.0300 C61.8430 448.7700 62.0295 436.4725 62.0258 424.2075 L62.0190 356.8175 L62.0047 323.4700 C62.0023 318.3800 61.5002 312.0175 62.2233 307.0275 C65.8232 304.2475 70.1812 302.4625 74.1212 300.2200 C84.2715 294.4350 94.4785 288.8000 104.4065 282.6325 C120.5875 272.3675 136.1660 261.1800 151.0652 249.1285 C156.9160 244.4275 162.6235 239.4792 168.4028 234.6830 C171.0497 232.4863 173.4272 230.0038 176.0080 227.7348 L202.1232 204.5403 L235.3610 174.9967 C237.0903 173.4315 238.7263 171.7640 240.4637 170.2080 C242.4700 168.4113 244.6172 166.7615 246.5898 164.9300 C249.4967 162.2307 252.1325 158.6010 255.6700 156.7272 Z"></path>
<path id="" fill="#feb64c" fill-opacity="1.0" stroke="#000000" stroke-width="0.0" stroke-opacity="1.0" stroke-linecap="round" stroke-linejoin="round"  filling="0" d="M341.9925 174.9530 L407.0875 174.9595 C406.7900 182.6415 407.0350 190.4272 407.0350 198.1183 L407.0400 241.9597 C407.0400 253.6625 407.1750 265.3850 407.0225 277.0850 C406.9800 280.2925 406.5175 283.4900 406.5025 286.6875 C406.4850 290.0400 407.1800 293.3750 407.1500 296.7550 C407.1200 300.1350 406.2600 303.4500 406.2625 306.8175 C406.2650 310.3125 407.0700 313.7850 407.1025 317.2925 C407.2150 328.7725 407.0725 340.2750 407.0725 351.7575 L407.0700 426.1075 L407.0875 452.8725 C407.0900 454.3025 407.4700 458.5350 407.2000 459.6525 C407.1550 459.8325 407.0275 459.9825 406.9425 460.1475 L406.3125 460.2300 C402.4200 460.0550 398.3525 460.3875 394.5050 459.7400 C393.0325 459.4925 391.9075 458.3000 390.3875 458.2625 C386.2800 458.1550 382.1500 459.8175 378.0000 459.9975 C366.3625 460.5000 354.6000 459.9550 342.9400 460.1475 L342.9450 312.8100 L342.9450 265.3075 C342.9450 255.3000 343.1500 245.2510 342.6925 235.2525 L341.2000 233.3340 C342.7200 227.1095 342.0100 217.4292 342.0075 210.8210 L341.9925 174.9530 Z"></path>
<path id="" fill="#feb64c" fill-opacity="1.0" stroke="#000000" stroke-width="0.0" stroke-opacity="1.0" stroke-linecap="round" stroke-linejoin="round"  filling="0" d="M104.9650 174.9557 L170.0867 174.9588 C169.8580 180.4418 170.0395 185.9978 170.0392 191.4875 L170.0190 226.1788 C169.9792 232.0733 169.1087 237.9178 169.0697 243.8315 L169.0610 416.1075 C169.0615 420.1200 169.3930 459.5050 168.9320 460.2300 C164.4688 460.0075 159.9945 460.1650 155.5307 459.9725 C152.7762 459.8525 149.9332 459.2675 147.1830 459.4375 C144.6870 459.5950 142.3150 460.7025 139.8070 460.9275 C136.9467 461.1850 133.9568 461.0425 131.0835 461.0375 C127.1707 461.0350 123.2312 461.1075 119.3215 460.9650 C114.8633 460.8025 110.6470 459.3700 106.2385 459.0000 C106.1355 458.9900 106.0323 458.9850 105.9293 458.9775 L104.9650 174.9557 Z"></path>
<path id="" fill="#c62828" fill-opacity="1.0" stroke="#000000" stroke-width="0.0" stroke-opacity="1.0" stroke-linecap="round" stroke-linejoin="round"  filling="0" d="M137.0338 53.3362 C138.0573 53.9790 138.3070 55.0860 138.6735 56.1785 C139.9957 60.1190 140.8605 64.2718 141.8522 68.3077 L146.2413 85.9983 L160.6698 143.7693 L166.4470 166.9668 C167.5437 171.3775 168.4263 175.9093 169.8175 180.2360 C159.2953 180.5448 148.6647 180.1422 138.1250 180.1597 C131.0777 180.1362 124.0302 180.1497 116.9830 180.2007 C113.8605 180.2385 108.6452 180.7758 105.7230 180.2315 C105.1663 178.9645 106.2193 175.9200 106.5480 174.5197 C109.6827 161.4830 112.9413 148.4763 116.3232 135.5015 L127.3575 91.2057 C129.3715 83.3443 131.3405 75.4715 133.2643 67.5878 C134.4198 62.8865 135.3183 57.8545 137.0338 53.3362 Z"></path>
<path id="" fill="#c62828" fill-opacity="1.0" stroke="#000000" stroke-width="0.0" stroke-opacity="1.0" stroke-linecap="round" stroke-linejoin="round"  filling="0" d="M374.0800 53.3123 C374.2275 53.3750 374.3825 53.4250 374.5225 53.5010 C374.9750 53.7450 375.1800 54.2858 375.3775 54.7260 C376.6900 57.6530 377.2750 61.0640 378.0325 64.1787 C379.3575 69.8727 380.7400 75.5537 382.1775 81.2207 C388.3000 105.0228 394.2650 128.8650 400.0700 152.7462 C402.3350 161.8800 404.2850 171.1882 406.8150 180.2408 C396.3225 180.4527 385.7700 180.1633 375.2675 180.1562 C364.3100 180.1170 353.3500 180.1978 342.3925 180.3985 C343.6225 174.4405 345.2775 168.5293 346.7475 162.6248 L356.5975 123.2635 L367.8250 78.0592 C369.8675 69.8587 371.6475 61.3935 374.0800 53.3123 Z"></path>
<path id="" fill="#805a25" fill-opacity="1.0" stroke="#000000" stroke-width="0.0" stroke-opacity="1.0" stroke-linecap="round" stroke-linejoin="round"  filling="0" d="M254.3600 320.3425 C254.6425 320.2975 254.8175 320.2625 255.0925 320.2400 C264.6800 319.4850 277.1250 324.8075 284.3550 330.9000 C290.7450 336.2850 295.9275 344.2475 297.9900 352.3700 C299.9925 360.2450 299.1000 373.1475 299.1000 381.5775 L299.0925 433.7150 C299.0925 442.8100 298.5800 452.3650 299.3325 461.4025 C294.7925 460.5700 289.6425 461.0350 285.0100 461.0325 L258.6250 461.0425 L229.2077 461.0375 C223.8582 461.0375 218.2325 460.7175 212.9133 461.2550 C213.0892 452.7900 212.9275 444.2875 212.9297 435.8175 L212.9350 386.3125 L212.9145 368.9000 C212.9102 364.2400 212.6385 359.4125 213.5058 354.8200 C214.7617 348.1650 217.9440 341.8700 222.1420 336.5950 C227.9012 329.3600 236.8878 323.6325 245.9015 321.4900 C248.6342 320.8400 251.5700 320.6500 254.3600 320.3425 Z"></path>
<path id="" fill="#c62828" fill-opacity="1.0" stroke="#000000" stroke-width="0.0" stroke-opacity="1.0" stroke-linecap="round" stroke-linejoin="round"  filling="0" d="M255.7050 143.7305 C257.2950 143.9792 258.4400 144.7895 259.6900 145.7368 C261.6200 147.1980 263.3625 148.9032 265.2000 150.4775 L279.2525 162.6622 L320.1175 197.9942 C327.6625 204.5703 335.1225 211.3898 342.8950 217.6850 C343.0575 220.0915 343.2550 236.5853 342.7450 238.0120 C342.6175 238.3720 342.6025 238.2567 342.1675 238.4397 C341.2700 238.2657 340.5850 237.7925 339.8675 237.2450 C331.3725 230.7545 323.4150 223.2475 315.3400 216.2350 L276.1300 182.3260 C269.5750 176.6803 263.1625 170.8768 256.4400 165.4247 C255.8550 165.5417 255.3950 165.6780 254.8925 166.0067 C252.3725 167.6597 249.9520 170.1625 247.6422 172.1337 C241.9445 176.9370 236.3065 181.8105 230.7290 186.7527 L183.7018 227.3775 C181.5742 229.2010 171.8177 238.2227 169.6635 238.6760 C168.5360 236.7943 169.0045 220.9500 168.9855 217.5725 C171.8085 214.6098 175.4640 212.0188 178.5773 209.3310 L200.5737 190.3335 L232.2737 163.0010 C238.9933 157.1622 245.6415 151.1017 252.5750 145.5217 C253.5675 144.7247 254.5300 144.2012 255.7050 143.7305 Z"></path>
<path id="" fill="#805a25" fill-opacity="1.0" stroke="#000000" stroke-width="0.0" stroke-opacity="1.0" stroke-linecap="round" stroke-linejoin="round"  filling="0" d="M249.9450 212.9823 C267.8475 209.6120 285.0675 221.4665 288.3125 239.3920 C291.5550 257.3175 279.5800 274.4550 261.6325 277.5725 C243.8620 280.6575 226.9323 268.8250 223.7213 251.0800 C220.5100 233.3318 232.2210 216.3188 249.9450 212.9823 Z M246.0932 240.9320 C245.9710 244.8092 245.2713 249.5610 248.2085 252.6200 C249.9025 254.3850 253.7025 255.8850 256.1525 255.8025 C256.7300 255.7825 257.3075 255.6675 257.8725 255.5550 C260.9225 254.5675 263.6400 253.5075 265.2125 250.4775 C266.5025 247.9928 266.7075 243.8017 265.7400 241.1715 C264.8425 238.7375 262.6250 236.6760 260.2575 235.6868 C258.2675 234.8557 256.4525 234.9158 254.3550 235.0582 C250.9425 235.6370 248.3550 237.6013 246.4032 240.4272 C246.2910 240.5898 246.1935 240.7620 246.0932 240.9320 Z"></path>
<path id="" fill="#805a26" fill-opacity="1.0" stroke="#000000" stroke-width="0.0" stroke-opacity="1.0" stroke-linecap="round" stroke-linejoin="round"  filling="0" d="M136.7643 320.3425 C136.8403 320.3250 136.9153 320.3025 136.9922 320.2925 C139.2883 319.9750 142.4008 321.2450 144.1983 322.5775 C147.0723 324.7050 148.1150 327.3450 148.5720 330.7575 C149.2150 335.5575 149.0273 340.4850 149.0295 345.3200 L149.0352 365.6475 L149.0327 433.5800 C149.0320 434.4825 149.2655 438.7425 148.7303 439.2675 C147.3245 440.6475 140.7802 439.9900 138.7863 439.9650 C136.3027 439.9825 128.7065 440.5150 126.7080 439.5000 C126.3520 439.3200 126.3625 439.1225 126.2900 438.7600 C125.5820 435.2375 126.0638 429.9700 126.0675 426.2550 L126.0898 399.3100 L126.0847 354.3050 C126.0807 346.8425 125.6062 339.1100 126.1468 331.6800 C126.3270 329.2025 126.7957 326.9325 128.2592 324.8650 C130.3700 321.8825 133.3330 320.8650 136.7643 320.3425 Z"></path>
<path id="" fill="#805a26" fill-opacity="1.0" stroke="#000000" stroke-width="0.0" stroke-opacity="1.0" stroke-linecap="round" stroke-linejoin="round"  filling="0" d="M373.8700 320.3325 C374.0025 320.3100 374.1325 320.2800 374.2675 320.2675 C376.5825 320.0575 379.6775 321.2600 381.4625 322.6075 C383.7525 324.3375 385.3075 326.8425 385.6650 329.6850 C386.3075 334.7775 386.0325 340.0600 386.0325 345.1900 L386.0300 369.2700 L386.0300 413.4850 C386.0325 421.1625 386.2150 428.8875 386.0200 436.5600 C385.9975 437.5050 386.1550 438.7225 385.5725 439.4700 C382.7675 440.5450 378.6675 439.9975 375.6750 439.9650 C373.0800 439.9850 365.4225 440.5950 363.3900 439.4325 C362.7325 432.8150 363.0950 425.9700 363.0975 419.3200 L363.1025 384.5900 L363.0950 350.8375 C363.0875 344.6900 362.7175 338.2775 363.2725 332.1650 C363.5075 329.5650 364.2100 326.8800 365.7625 324.7475 C368.0175 321.6475 370.2575 320.8950 373.8700 320.3325 Z"></path>
<path id="" fill="#805a26" fill-opacity="1.0" stroke="#000000" stroke-width="0.0" stroke-opacity="1.0" stroke-linecap="round" stroke-linejoin="round"  filling="0" d="M134.4015 202.0430 C134.7905 202.0132 135.1797 201.9880 135.5692 201.9670 C139.0345 201.7843 142.5762 201.9960 145.2480 204.5067 C148.6765 207.7285 148.9628 213.6480 149.0213 218.0423 C149.1958 231.0855 149.0430 244.1523 149.0388 257.1975 L149.0320 269.3125 C149.0298 271.7150 149.2005 274.3100 148.8242 276.6775 C148.7708 277.0150 148.8030 277.1800 148.5250 277.4050 C147.0750 278.5800 142.7310 278.0425 140.8125 278.0050 C135.9455 277.9800 130.8965 277.7050 126.0550 278.1850 C126.5163 273.1200 126.0845 267.1550 126.0840 261.9650 L126.0757 228.1048 C126.0598 222.9727 125.6725 217.5092 126.2567 212.4158 C126.4625 210.6232 126.8687 208.9280 127.7330 207.3273 C129.2193 204.5753 131.4353 202.8775 134.4015 202.0430 Z"></path>
<path id="" fill="#805a26" fill-opacity="1.0" stroke="#000000" stroke-width="0.0" stroke-opacity="1.0" stroke-linecap="round" stroke-linejoin="round"  filling="0" d="M371.3500 202.0525 C374.9200 201.7538 378.8375 201.6665 381.7500 204.0915 C383.9150 205.8925 384.9725 208.2660 385.5200 210.9592 C386.6175 216.3735 386.0400 222.5497 386.0375 228.0793 L386.0250 260.6125 C386.0225 266.2600 385.6250 272.2250 386.2025 277.8275 L386.2425 278.1900 C383.7800 277.9400 381.2850 278.0025 378.8125 277.9950 C375.6525 278.0100 366.0925 278.5600 363.6150 277.6375 C363.5800 277.5325 363.5450 277.4275 363.5150 277.3200 C362.5675 274.0875 363.0825 267.2350 363.0850 263.6750 L363.1025 240.6360 C363.1075 232.1790 362.6325 223.4283 363.1825 215.0013 C363.3425 212.5627 363.5525 209.5228 364.7350 207.3598 C366.2450 204.5988 368.3600 202.9288 371.3500 202.0525 Z"></path>
<path id="" fill="#c62828" fill-opacity="1.0" stroke="#000000" stroke-width="0.0" stroke-opacity="1.0" stroke-linecap="round" stroke-linejoin="round"  filling="0" d="M406.1300 264.5725 C407.4225 264.6775 408.7325 265.2525 409.8950 265.8175 C417.7775 269.6475 425.4250 274.4275 433.0925 278.7000 C437.7850 281.3150 446.2950 285.4725 450.2350 288.5675 C450.2625 295.5975 450.0250 302.6200 450.1250 309.6550 C444.6975 308.0000 439.4075 304.3775 434.4575 301.6200 C425.4175 296.5275 416.3400 291.5000 407.2275 286.5400 C405.3675 279.7125 406.0025 271.5975 406.1300 264.5725 Z"></path>
<path id="" fill="#c62928" fill-opacity="1.0" stroke="#000000" stroke-width="0.0" stroke-opacity="1.0" stroke-linecap="round" stroke-linejoin="round"  filling="0" d="M103.9312 264.7600 C104.4030 264.6975 104.5995 264.7200 105.0290 264.9275 C105.4920 268.0400 105.1335 271.5975 105.1080 274.7500 C105.0782 278.4300 105.2247 282.1025 105.2115 285.7825 C96.0788 290.9125 86.9747 296.0950 77.9000 301.3275 C73.2485 303.9950 68.3055 307.4225 63.3110 309.3300 C62.8205 309.4600 62.8490 309.5175 62.3338 309.3400 C61.3947 307.4075 61.8730 291.7575 61.9187 288.3825 C66.7968 284.8325 75.0123 280.7025 80.4915 277.5750 L93.5403 270.1250 C96.8358 268.2400 100.2910 265.8475 103.9312 264.7600 Z"></path>
</svg>