<svg xmlns="http://www.w3.org/2000/svg" viewBox="0 0 512 512" height="512.0px" width="512.0px">
<path id="" fill="#785447" fill-opacity="1.0" stroke="#000000" stroke-width="0.0" stroke-opacity="1.0" stroke-linecap="round" stroke-linejoin="round"  filling="0" d="M332.5725 271.6825 C337.3400 270.9750 342.6625 271.2225 347.5025 271.2125 L370.1625 271.1900 L447.5225 271.1825 C447.4200 271.4700 447.3100 271.7475 447.2025 272.0325 C446.1750 274.7725 437.5975 285.6950 435.2800 288.0275 C432.8850 290.4425 430.0900 292.3800 427.7375 294.8750 C424.9300 297.8525 422.3475 301.2025 419.9775 304.5375 C414.4075 312.3700 410.0025 321.2700 405.0650 329.5200 L394.4625 347.4400 C390.7975 353.5175 386.9725 359.4650 383.8625 365.8575 C381.2200 370.8650 378.5450 375.8550 375.8375 380.8250 C373.1150 385.7100 370.2275 390.5050 367.6150 395.4500 C361.8975 406.2750 355.9925 420.9450 347.6900 429.9025 C343.2125 434.7325 337.4500 438.2525 331.2675 440.4525 C327.6900 441.7300 323.9750 442.5825 320.2000 443.0000 C311.6725 443.8700 302.8775 443.2975 294.3075 443.2950 L244.7563 443.2750 L202.3477 443.3250 L184.4400 443.2775 C174.3613 443.2375 164.6317 443.3050 155.0972 439.5450 C148.2713 436.8550 142.1940 431.7300 137.7533 425.9425 C132.0650 418.5275 128.3058 409.0825 124.2880 400.6825 C121.8225 395.5300 119.0725 390.4750 116.4442 385.4000 L99.2558 352.6700 C95.1605 344.9900 90.8297 337.4775 87.2110 329.5500 C82.6855 319.6375 79.8047 308.1025 74.2267 298.8250 C71.2422 293.8600 67.6393 289.2475 62.3180 286.7100 C62.2965 282.7300 61.7467 275.2975 62.5482 271.7150 C63.2223 271.3750 63.8878 271.4100 64.6313 271.3600 C68.8915 270.8900 73.5163 271.1750 77.8090 271.1825 L101.5750 271.2075 L138.2635 271.2000 C147.0323 271.2000 155.8170 271.0800 164.5780 271.5025 C165.9890 272.6350 167.0247 274.2175 168.1767 275.6050 C170.0980 277.9200 172.3058 280.0750 174.7977 281.7700 C178.1967 284.0825 182.6767 286.1250 186.7920 286.6125 C194.2948 287.5050 202.2558 287.0125 209.8155 287.0150 L250.3525 287.0200 L289.5550 287.0150 C297.5900 287.0175 307.1175 287.7375 314.8950 286.1875 C323.4250 284.4875 328.0650 278.4700 332.5725 271.6825 Z"></path>
<path id="" fill="#5d4037" fill-opacity="1.0" stroke="#000000" stroke-width="0.0" stroke-opacity="1.0" stroke-linecap="round" stroke-linejoin="round"  filling="0" d="M346.4000 245.6102 C357.1125 245.1207 367.9850 245.4843 378.7125 245.4953 L434.2150 245.4218 C439.3075 245.3840 444.4025 245.4093 449.4950 245.4970 C453.3025 245.5728 457.2175 245.8663 461.0150 245.5515 C460.5500 252.2025 460.8050 258.9575 460.8025 265.6275 C460.8025 272.7850 460.5925 279.9500 460.6125 287.1000 C455.9000 286.7750 451.1000 286.8350 446.3750 286.8400 C443.3925 286.8450 437.3100 287.4650 434.7375 286.6050 C429.3600 285.8625 423.9075 286.2350 418.5025 285.9875 C415.1225 285.8325 411.7775 285.2375 408.3950 285.1350 C398.1375 284.8275 387.8025 285.1000 377.5375 285.0900 L356.7100 285.0775 C350.7350 285.0775 344.8375 284.9725 338.8850 285.6225 C335.9375 285.9450 321.4875 287.0775 319.5925 285.5550 C319.8500 284.0950 326.7725 278.1000 328.0650 276.6350 C329.4950 275.0250 330.7525 273.2700 331.8175 271.4000 C336.0175 264.0125 337.5700 254.4625 338.2625 246.0883 C340.9575 245.7660 343.6900 245.7200 346.4000 245.6102 Z"></path>
<path id="" fill="#5d4037" fill-opacity="1.0" stroke="#000000" stroke-width="0.0" stroke-opacity="1.0" stroke-linecap="round" stroke-linejoin="round"  filling="0" d="M61.5522 255.9825 C68.8550 255.5850 76.4255 256.0050 83.7560 256.0075 L135.2473 256.0125 C144.7080 256.0125 154.3087 256.3475 163.7505 255.8375 C164.3347 263.1100 165.8717 270.5425 170.6195 276.3250 C172.1297 278.1650 178.0940 282.8725 178.5370 284.5775 L178.1740 285.0175 C177.0335 285.4675 175.7255 285.3350 174.5145 285.3325 C172.2635 285.2600 169.9962 285.2100 167.7493 285.3975 C165.0885 285.6225 162.4100 286.0700 159.7372 286.0525 C156.2827 286.0300 152.8898 285.0350 149.4205 285.1300 C147.1093 285.1950 144.8085 285.8825 142.5150 285.8725 C140.0533 285.8625 137.6065 285.1500 135.1265 285.1075 C125.4232 284.9350 115.6898 285.0850 105.9837 285.0875 C97.6995 285.0900 89.2685 284.7775 81.0005 285.1675 C74.5462 285.4750 67.8920 286.2850 61.4987 287.2000 C61.7393 282.0425 61.4075 276.8000 61.4612 271.6300 C61.5148 266.4875 62.0045 261.0975 61.5522 255.9825 Z"></path>
<path id="" fill="#90caf8" fill-opacity="1.0" stroke="#000000" stroke-width="0.0" stroke-opacity="1.0" stroke-linecap="round" stroke-linejoin="round"  filling="0" d="M50.9985 357.9175 C54.3448 357.9575 57.7343 358.1025 61.0638 357.7100 C69.9438 356.6675 79.7575 352.1775 86.1690 345.9150 C87.3928 344.7125 88.4835 343.3800 89.4225 341.9450 C89.9557 341.1275 90.4767 339.7825 91.1492 339.1375 C91.2750 339.0150 91.4660 338.9900 91.6245 338.9175 C92.9413 339.2725 99.4515 346.2950 101.4020 347.8250 C117.9522 360.7975 142.6628 361.2525 160.5737 350.9025 C164.3035 348.7475 167.4028 345.7050 170.2615 342.5175 C171.3768 341.2725 172.5330 339.6325 173.8947 338.6800 C175.4657 339.3325 181.8367 346.8500 184.0350 348.6325 C186.5172 350.6450 189.5800 352.1350 192.4910 353.4100 C206.0210 359.3375 222.1465 359.7550 235.8358 354.1050 C239.6015 352.5500 243.1642 350.6075 246.3605 348.0700 C247.9865 346.7725 249.5190 345.3650 250.9475 343.8550 C252.2550 342.4550 253.9700 339.8825 255.5525 338.9050 C255.7150 338.8025 255.9275 338.8175 256.1175 338.7750 C258.0450 339.7375 259.5175 342.2825 260.9775 343.8350 C262.2250 345.1625 263.6075 346.3900 265.0275 347.5300 C278.3100 358.1850 298.1675 360.7900 314.1625 355.4550 C320.9425 353.1925 326.9575 349.8425 332.0450 344.7925 C334.1975 342.6575 336.2525 340.2575 338.6275 338.3750 C345.9275 348.7500 356.5350 355.0125 368.9975 357.2125 C373.5125 358.0100 381.5075 358.9075 385.9200 357.8700 C387.2925 357.5475 388.5175 355.9625 389.9250 355.9975 C390.3325 356.0075 390.7075 356.2925 390.9925 356.5475 C391.0975 356.6400 391.1925 356.7400 391.2925 356.8375 C394.7400 357.5625 403.9825 352.7600 406.8750 350.8625 C411.4750 347.8425 415.7400 341.6425 419.4850 339.5250 C419.5625 339.5725 419.6400 339.6175 419.7175 339.6625 C422.9400 341.6250 425.2850 344.9675 428.1100 347.4350 C430.5200 349.5400 433.3125 351.1275 436.1400 352.5925 C444.7500 357.0550 451.4600 358.1750 461.1225 357.9425 C460.8200 375.4350 461.0650 392.9675 461.0700 410.4650 L461.0725 429.6425 C461.0750 433.4175 460.9075 437.2800 461.2150 441.0400 C432.5475 440.6700 403.8500 440.9550 375.1800 440.9550 L347.1900 440.9550 C341.1650 440.9575 335.0000 440.6875 329.0075 441.3450 C325.3850 442.4000 321.6900 443.6250 317.9100 443.9150 C310.2750 444.5000 302.2775 444.0225 294.6000 444.0225 L248.7198 444.0225 L197.7965 444.0250 C189.3135 444.0250 180.5587 444.4750 172.1030 443.9300 C167.7905 443.6500 163.6590 442.5700 159.4945 441.4925 C154.1337 440.5900 148.5052 440.9450 143.0805 440.9500 L119.2093 440.9675 L74.4955 440.9700 C66.6852 440.9700 58.8058 440.7550 51.0047 441.0225 L50.9985 357.9175 Z"></path>
<path id="" fill="#ffffff" fill-opacity="1.0" stroke="#000000" stroke-width="0.0" stroke-opacity="1.0" stroke-linecap="round" stroke-linejoin="round"  filling="0" d="M159.4945 441.4925 C160.5143 440.6475 161.7740 440.7625 163.0338 440.7175 C175.9198 440.2500 188.8855 440.5100 201.7823 440.5075 L267.2875 440.5425 L307.7150 440.5150 C313.9750 440.5225 320.5325 440.0925 326.7525 440.6250 C327.6425 440.7000 328.2325 440.8800 329.0075 441.3450 C325.3850 442.4000 321.6900 443.6250 317.9100 443.9150 C310.2750 444.5000 302.2775 444.0225 294.6000 444.0225 L248.7198 444.0225 L197.7965 444.0250 C189.3135 444.0250 180.5587 444.4750 172.1030 443.9300 C167.7905 443.6500 163.6590 442.5700 159.4945 441.4925 Z"></path>
<path id="" fill="#ffffff" fill-opacity="0.027451" stroke="#000000" stroke-width="0.0" stroke-opacity="1.0" stroke-linecap="round" stroke-linejoin="round"  filling="0" d="M0.6766 0.0000 L511.3225 0.0000 C508.2025 0.6650 504.4600 0.3195 501.2650 0.3163 L484.2875 0.2973 L415.9925 0.2969 L147.6600 0.2999 L40.7298 0.2926 L15.1412 0.3109 C10.7615 0.3248 4.9184 0.8886 0.6766 0.0000 Z"></path>
<path id="" fill="#ffffff" fill-opacity="0.0196078" stroke="#000000" stroke-width="0.0" stroke-opacity="1.0" stroke-linecap="round" stroke-linejoin="round"  filling="0" d="M1.3091 512.0000 C3.3875 511.2775 25.6402 511.7425 29.6990 511.7425 L108.8480 511.7450 L408.0800 511.7525 L481.9375 511.7525 L501.0200 511.7350 C504.2850 511.7300 508.1175 511.3450 511.2925 512.0000 L1.3091 512.0000 Z"></path>
<path id="" fill="#ffffff" fill-opacity="0.027451" stroke="#000000" stroke-width="0.0" stroke-opacity="1.0" stroke-linecap="round" stroke-linejoin="round"  filling="0" d="M0.0000 0.9172 C0.7097 3.9909 0.2566 8.0218 0.2535 11.1965 L0.2509 30.6735 L0.2530 111.2188 L0.2531 439.7300 L0.2509 490.8325 C0.2507 494.5500 0.7518 508.0600 0.0000 510.5825 L0.0000 0.9172 Z"></path>
<path id="" fill="#5c4037" fill-opacity="1.0" stroke="#000000" stroke-width="0.0" stroke-opacity="1.0" stroke-linecap="round" stroke-linejoin="round"  filling="0" d="M235.6573 74.8748 C241.7740 72.6265 248.4085 71.5880 254.5425 74.4747 C255.0775 74.7265 255.5875 75.0208 256.0925 75.3288 L256.0325 236.2433 L256.0600 272.6300 C256.0625 276.0275 255.5075 284.1000 256.2400 286.9400 L256.1725 287.7525 C256.0550 287.8650 255.9675 288.0275 255.8175 288.0875 C255.3600 288.2650 246.6183 288.0175 245.4660 288.0175 C244.4445 288.0175 236.0395 288.1050 235.7547 287.7225 C235.0785 286.8175 235.4512 284.6925 235.5253 283.6000 C235.0420 279.6075 235.4772 274.6325 235.4865 270.5150 L235.5395 242.0360 L235.5895 148.2643 C235.6010 139.8217 235.6860 131.3503 235.4805 122.9110 C235.3580 117.8870 234.3035 110.3615 235.2335 105.6973 L235.2623 104.4402 C235.6142 94.5967 235.2180 84.7015 235.6573 74.8748 Z"></path>
<path id="" fill="#795447" fill-opacity="1.0" stroke="#000000" stroke-width="0.0" stroke-opacity="1.0" stroke-linecap="round" stroke-linejoin="round"  filling="0" d="M235.5253 283.6000 C235.7397 284.4300 235.9820 285.2500 236.2518 286.0625 C240.7608 287.2000 253.3300 284.8025 256.2400 286.9400 L256.1725 287.7525 C256.0550 287.8650 255.9675 288.0275 255.8175 288.0875 C255.3600 288.2650 246.6183 288.0175 245.4660 288.0175 C244.4445 288.0175 236.0395 288.1050 235.7547 287.7225 C235.0785 286.8175 235.4512 284.6925 235.5253 283.6000 Z"></path>
<path id="" fill="rgb(254,206,207)" fill-opacity="1.0" stroke="#000000" stroke-width="0.0" stroke-opacity="1.0" stroke-linecap="round" stroke-linejoin="round"  filling="0" d="M235.2623 104.4402 L235.6415 104.1438 C236.0312 105.0348 235.8788 106.0790 236.1145 107.0237 C236.8600 110.0115 238.7505 112.8360 238.0420 116.0815 L237.7495 116.2962 C236.6155 115.3813 236.8330 112.5160 235.4025 112.5920 L235.2335 105.6973 L235.2623 104.4402 Z"></path>
<path id="" fill="#2196f3" fill-opacity="1.0" stroke="#000000" stroke-width="0.0" stroke-opacity="1.0" stroke-linecap="round" stroke-linejoin="round"  filling="0" d="M92.0575 379.6150 C92.4187 379.6675 92.6728 379.7625 92.9770 379.9900 C94.0007 380.7550 95.0445 382.3850 95.9243 383.3725 C97.6068 385.2575 99.4095 387.0750 101.3473 388.6975 C106.1780 392.7475 112.4077 395.6875 118.5007 397.2200 C133.5805 401.0075 151.4610 399.1525 164.0120 389.4325 C165.3257 388.4175 166.6415 387.3650 167.8338 386.2050 C169.5480 384.5375 171.2587 381.9950 173.3438 380.8550 C174.3788 380.2900 175.7643 381.3950 176.5423 382.0400 C178.8658 383.9675 180.8398 386.4500 183.0370 388.5375 C187.1328 392.4300 193.7165 395.3075 199.0980 396.8375 C214.4620 401.2000 232.8440 399.2825 245.8300 389.5225 C249.0995 387.0650 252.6225 382.2700 255.6675 380.5700 C257.4575 380.5475 263.9350 387.8575 266.3000 389.6350 C267.9750 390.8950 269.7600 392.2400 271.6100 393.2275 C286.7325 401.3125 310.6000 401.0850 325.0750 391.5300 C328.5425 389.2425 335.5900 381.0450 338.4925 380.6300 C341.0475 382.6425 342.8450 385.2550 345.2575 387.3800 C355.6225 396.5050 369.4450 399.7550 383.0175 398.9125 C392.7150 398.3125 403.5275 394.8150 410.9975 388.4300 C414.1325 385.7500 416.8075 382.5325 419.5200 379.4375 C422.3925 381.3350 423.8350 384.1975 426.2325 386.5375 C435.2475 395.3400 448.8075 399.2175 461.1575 398.9500 C460.9975 401.8300 461.0600 404.7400 461.0450 407.6250 L461.0375 428.9600 C461.0375 432.7700 460.6625 436.9950 461.3375 440.7325 C458.1750 440.2975 454.7200 440.6450 451.5175 440.6750 L434.9600 440.7100 L371.3900 440.7125 L154.1810 440.7075 L86.3213 440.7100 L65.2065 440.7250 C60.5385 440.7275 55.7923 440.8850 51.1415 440.4600 C50.8548 435.9200 50.9890 431.3225 50.9915 426.7725 C50.9962 417.5200 51.1422 408.2450 50.9337 398.9950 C63.5302 399.1525 76.0113 395.2700 85.4520 386.7625 C87.7742 384.6675 89.3855 381.9450 91.7527 379.8775 L92.0575 379.6150 Z"></path>
<path id="" fill="#8fc9f8" fill-opacity="1.0" stroke="#000000" stroke-width="0.0" stroke-opacity="1.0" stroke-linecap="round" stroke-linejoin="round"  filling="0" d="M185.7292 133.0067 C192.8893 132.6730 200.1820 132.9415 207.3548 132.9450 L249.8788 132.9877 L286.8500 132.9462 C293.6075 132.9362 300.5450 132.6115 307.2825 133.0547 C318.3550 147.4085 327.0050 173.1127 329.3700 191.0853 C332.8375 216.8248 325.7975 242.8763 309.8375 263.3675 C309.3375 264.0175 308.8225 264.6725 308.2425 265.2550 C307.6300 265.8700 307.1675 265.9250 306.3350 265.9975 C302.0325 266.3650 297.4525 266.0400 293.1275 266.0350 L266.2500 266.0100 L186.5550 265.9925 C187.8188 260.7175 191.2563 255.7025 193.5450 250.7800 C195.9170 245.6777 197.6440 239.9998 199.0945 234.5680 C205.9605 208.8580 203.1732 180.0883 194.4975 155.1203 C193.0103 150.8403 191.4612 146.4713 189.6545 142.3152 C188.3432 139.2988 186.4707 136.6040 185.7948 133.3400 C185.7717 133.2290 185.7513 133.1178 185.7292 133.0067 Z"></path>
<path id="" fill="#90caf9" fill-opacity="1.0" stroke="#000000" stroke-width="0.0" stroke-opacity="1.0" stroke-linecap="round" stroke-linejoin="round"  filling="0" d="M92.9970 153.0892 C110.7385 152.6967 128.5513 153.0425 146.3008 153.0217 L161.7710 153.0058 C164.9270 153.0045 168.8233 152.5805 171.8658 153.3537 C172.3288 153.7815 172.6382 154.1862 172.9300 154.7495 C174.0920 156.9945 174.7950 159.5965 175.5938 161.9908 C179.2365 172.9075 181.4270 183.7250 182.4563 195.1868 C182.8180 199.2148 183.1645 203.2502 182.9872 207.2985 C182.5598 217.0598 180.5508 226.5285 177.7965 235.8625 L175.9382 235.8777 L128.6320 235.8875 C116.9568 235.9568 105.2810 235.9235 93.6062 235.7883 C94.3070 231.2670 96.6620 226.9625 97.9500 222.5603 C101.2112 211.4140 101.5813 199.7153 100.9055 188.1812 C100.5967 182.9138 99.5658 177.5083 98.3557 172.3735 C97.4388 168.4828 92.3890 155.9473 92.9970 153.0892 Z"></path>
<path id="" fill="#90caf9" fill-opacity="1.0" stroke="#000000" stroke-width="0.0" stroke-opacity="1.0" stroke-linecap="round" stroke-linejoin="round"  filling="0" d="M329.8175 133.9043 C330.3475 133.8878 330.8775 133.9312 331.3975 134.0335 C336.2200 134.9775 343.9625 138.5748 348.6500 140.6803 C384.9375 156.9780 414.7125 186.6358 436.8550 219.1823 C437.8475 220.6413 439.4825 222.8070 439.1325 224.6422 C438.6075 225.1225 438.2475 224.9902 437.5625 225.0165 L377.6350 225.0195 C367.7325 225.0200 357.7925 224.8480 347.8950 225.1037 C351.9700 203.5733 350.5800 179.9225 342.7825 159.3485 C340.8800 154.3248 338.2925 149.4953 335.8800 144.6975 C334.2175 141.3895 329.9625 137.5575 329.8175 133.9043 Z"></path>
<path id="" fill="#fe3d00" fill-opacity="1.0" stroke="#000000" stroke-width="0.0" stroke-opacity="1.0" stroke-linecap="round" stroke-linejoin="round"  filling="0" d="M246.3770 71.8995 C267.9375 68.9688 288.0025 85.9905 310.1475 84.4308 C316.1975 84.0045 321.8575 82.3390 327.3575 79.8367 C329.5750 78.8285 332.1325 77.2525 334.5100 76.7993 C335.1475 76.6775 335.5000 76.5983 336.0675 76.9630 C336.1075 77.3210 336.1250 77.3132 336.0675 77.7332 C335.8750 79.0960 334.4975 81.0002 333.7850 82.1740 C329.2575 89.6348 323.7125 95.8457 316.4350 100.7305 C310.6875 104.1267 304.3875 106.4835 297.8225 107.6925 C294.2600 108.3513 290.5350 108.8480 286.9200 109.0845 C278.8650 109.6115 244.7375 109.9755 239.8880 114.3855 C239.2020 115.0092 238.5388 115.6613 237.8380 116.2688 C237.2303 116.7957 236.8217 116.9772 236.0270 116.9178 C235.8817 116.7485 235.7012 116.6035 235.5907 116.4095 C234.3290 114.1927 235.7137 80.7620 235.3630 74.4983 L235.3383 74.0862 C238.8855 72.8423 242.6407 72.2085 246.3770 71.8995 Z"></path>
<path id="" fill="#3d2723" fill-opacity="1.0" stroke="#000000" stroke-width="0.0" stroke-opacity="1.0" stroke-linecap="round" stroke-linejoin="round"  filling="0" d="M286.3925 306.8925 C286.8000 306.8550 286.5725 306.8250 287.0450 307.1150 C287.1575 313.7625 286.4775 321.9775 287.3025 328.4025 C283.2925 327.4600 271.9125 328.0475 267.0600 328.0750 C266.8100 328.1300 266.5700 328.0325 266.3225 327.9775 C265.3875 326.3500 266.0025 310.2475 265.9400 306.9500 C272.7300 307.1650 279.5950 306.9375 286.3925 306.8925 Z"></path>
<path id="" fill="#3d2722" fill-opacity="1.0" stroke="#000000" stroke-width="0.0" stroke-opacity="1.0" stroke-linecap="round" stroke-linejoin="round"  filling="0" d="M142.9415 306.9550 C149.9930 307.0800 157.0865 307.0100 164.1382 306.8625 C163.7957 313.9125 163.9178 321.3300 164.1970 328.3825 C160.8855 327.5150 146.9635 327.8925 143.0000 328.2025 C142.9612 321.1250 143.1420 314.0300 142.9415 306.9550 Z"></path>
<path id="" fill="#3d2623" fill-opacity="1.0" stroke="#000000" stroke-width="0.0" stroke-opacity="1.0" stroke-linecap="round" stroke-linejoin="round"  filling="0" d="M327.9075 306.9700 C334.6525 307.0025 341.3975 306.9675 348.1425 306.8725 C347.9450 310.3750 348.0625 313.9350 348.0625 317.4475 C348.0650 321.0100 347.9450 324.6200 348.2125 328.1725 C346.6675 328.3100 344.8525 328.0850 343.2800 328.0750 C338.1850 328.0450 333.0550 327.8975 327.9650 328.1400 C327.9475 321.0975 328.1475 314.0100 327.9075 306.9700 Z"></path>
<path id="" fill="#3d2623" fill-opacity="1.0" stroke="#000000" stroke-width="0.0" stroke-opacity="1.0" stroke-linecap="round" stroke-linejoin="round"  filling="0" d="M204.9085 306.9700 C211.6530 307.0000 218.3978 306.9675 225.1418 306.8725 C224.9453 310.3750 225.0623 313.9350 225.0635 317.4475 C225.0647 321.0100 224.9447 324.6200 225.2112 328.1725 C223.6667 328.3100 221.8513 328.0850 220.2793 328.0750 C215.1850 328.0450 210.0538 327.8975 204.9645 328.1400 C204.9485 321.0975 205.1465 314.0100 204.9085 306.9700 Z"></path>
</svg>