<svg xmlns="http://www.w3.org/2000/svg" viewBox="0 0 512 512" height="512.0px" width="512.0px">
<path id="" fill="#cfd7dc" fill-opacity="1.0" stroke="#000000" stroke-width="0.0" stroke-opacity="1.0" stroke-linecap="round" stroke-linejoin="round"  filling="0" d="M189.8450 98.0428 C198.7307 97.5235 207.8185 97.9485 216.7260 97.9500 L268.7150 97.9507 L303.6750 97.9442 C309.2250 97.9377 315.5200 97.4228 320.9700 98.0475 C324.4400 98.4453 327.4100 99.6732 330.1600 101.8167 C338.2400 108.1120 338.1100 118.0685 338.1075 127.4155 C338.1075 131.6090 338.2075 135.8463 338.0150 140.0352 C337.8900 142.7628 337.2850 145.5385 337.6200 148.2663 C340.3975 149.9975 356.1875 148.4317 361.1375 149.3590 C363.9950 149.8945 366.7525 151.0448 369.2500 152.5157 C373.6025 155.0780 376.4225 159.2538 377.6075 164.1425 C378.7375 168.8070 378.0725 178.4702 378.0625 183.6022 L378.0575 218.6900 L378.0625 271.3750 C378.0675 279.9625 378.5650 290.1300 377.9525 298.5625 C377.7625 301.1650 376.8300 303.5600 375.4725 305.7675 C374.2350 307.7825 372.5750 309.4850 370.7750 311.0025 C363.1775 317.3975 354.9200 316.0475 345.6150 316.0075 C343.4300 316.0000 340.6000 315.6850 338.4925 316.2875 C338.0575 316.4125 337.5175 316.6825 337.3400 317.1200 C336.5675 319.0150 337.0725 322.3075 337.0750 324.3875 L337.0875 345.1575 C337.0925 349.0950 337.4300 353.3800 336.8275 357.2750 C336.5325 359.2375 335.8675 361.1300 334.8700 362.8475 C331.7225 368.3750 327.1575 370.8175 321.1950 372.4225 L321.0425 372.4525 C315.2350 373.6525 307.2400 373.0250 301.1525 373.0250 L266.7675 373.0250 L217.6297 373.0225 C209.7962 373.0200 200.4615 373.4900 192.8105 372.9100 C190.1055 372.7050 187.6268 371.7175 185.2440 370.4625 C174.5100 364.8050 174.9235 358.5225 174.9485 347.6225 L174.9897 331.9525 C175.0038 326.7450 175.5468 321.1500 174.0185 316.1200 C169.4385 315.9625 164.8557 316.0350 160.2740 316.0500 C152.2270 316.0775 145.1308 316.0150 139.0080 309.9775 C135.9218 306.9350 134.3240 303.2050 133.6260 298.9725 C132.6707 293.1800 132.9595 287.1650 132.9685 281.3100 L132.9805 259.2525 L132.9495 177.6570 C132.9345 169.1008 133.1990 161.0665 139.6715 154.6658 C145.7663 148.6387 154.1880 148.8867 162.1270 148.9093 L173.8230 148.9133 C175.5923 144.3850 174.3450 140.9978 174.3318 136.4303 C174.3235 133.4930 174.9210 130.5375 174.9985 127.5908 C175.1625 121.3333 173.5505 112.1120 177.1348 106.7580 C180.0645 102.3817 184.6700 99.0600 189.8450 98.0428 Z"></path>
<path id="" fill="#3f51b4" fill-opacity="1.0" stroke="#000000" stroke-width="0.0" stroke-opacity="1.0" stroke-linecap="round" stroke-linejoin="round"  filling="0" d="M253.6275 190.1045 C269.0975 189.0578 305.2625 204.2060 320.1850 211.0655 C326.9950 214.1955 333.6250 217.6738 340.3700 220.9272 C352.6700 226.8585 364.9525 232.7915 377.0825 239.0725 C384.4875 242.9075 391.7100 247.1220 399.2075 250.7800 C398.9375 254.1500 398.0325 257.6200 397.3575 260.9350 C395.6775 268.9400 393.8450 276.9125 391.8575 284.8475 C387.3825 302.8175 382.2950 320.6275 376.6050 338.2500 C366.0450 369.6900 354.3425 400.7325 341.5200 431.3200 C337.8700 430.9075 334.1300 431.0350 330.4600 431.0325 L313.7325 431.0400 L259.3125 431.0750 C238.1005 431.4425 216.8230 431.0500 195.6040 431.0450 C187.4035 431.0425 179.0200 430.6600 170.8455 431.0725 C161.2380 409.9900 153.2140 388.1350 145.4175 366.3375 C140.3002 352.4450 135.5417 338.4250 131.1465 324.2875 C127.8322 313.3850 124.7615 302.4075 121.9365 291.3650 C118.4382 278.0250 115.1038 264.5600 112.9165 250.9325 C116.9700 247.8427 124.7375 244.5510 129.4883 241.9722 C142.5385 234.8882 155.8355 228.4097 169.1805 221.9108 C190.4722 211.5417 230.8330 191.6828 253.6275 190.1045 Z"></path>
<path id="" fill="#283593" fill-opacity="1.0" stroke="#000000" stroke-width="0.0" stroke-opacity="1.0" stroke-linecap="round" stroke-linejoin="round"  filling="0" d="M253.3925 189.5968 C258.0275 189.2660 262.8400 190.0940 267.3775 191.0168 C271.7600 191.9077 292.9625 198.1415 295.7475 200.6090 C295.8350 200.6862 296.1200 200.9688 296.1500 201.0567 C296.3850 201.7092 295.1900 206.4182 295.0050 207.3325 C293.1625 216.4247 292.1550 225.7672 290.6350 234.9280 L278.9800 308.5475 C277.2300 320.1575 275.1075 331.7375 273.5775 343.3775 C272.0825 355.0625 270.7050 366.7600 269.4475 378.4725 C269.1700 381.0875 269.1325 383.7200 268.8375 386.3325 L266.1525 409.3225 C265.8375 412.2350 265.3700 415.1550 265.1875 418.0775 C264.9150 422.4000 265.0625 426.8700 265.2150 431.2000 C263.3000 430.9450 261.3050 431.0350 259.3725 431.0325 C255.2275 431.0475 251.0625 430.9275 246.9275 431.2600 C247.4048 415.6350 244.7705 399.8125 242.9795 384.3150 C241.7945 374.0650 241.0827 363.7850 239.7535 353.5425 C237.4043 335.4400 234.2717 317.4650 231.5090 299.4250 L222.4742 241.8723 L218.7247 218.8092 C217.7620 212.7962 216.9402 206.8262 215.6210 200.8737 C222.8387 196.1013 244.3047 190.4857 253.3925 189.5968 Z"></path>
<path id="" fill="#8fc9f8" fill-opacity="1.0" stroke="#000000" stroke-width="0.0" stroke-opacity="1.0" stroke-linecap="round" stroke-linejoin="round"  filling="0" d="M173.7845 354.4900 C176.7365 355.3825 179.4290 360.2975 181.9435 362.4425 C187.8755 367.4975 196.3920 371.0100 203.9835 372.5075 C207.4897 373.2000 211.0697 373.2300 214.6300 373.2350 C227.7175 373.2575 237.6613 370.5175 248.0233 362.3175 C250.2275 360.5750 253.5500 355.8575 255.0675 355.0325 C256.3975 354.3125 257.2475 355.2200 258.1300 356.1475 C259.7525 357.8525 261.1075 359.8925 262.8450 361.4775 C267.6675 365.8725 275.2275 369.8225 281.5200 371.5725 C286.2225 372.8775 290.9650 373.2075 295.8200 373.2325 C308.3875 373.3025 319.1925 370.6000 329.2800 362.8000 C330.6575 361.7300 331.9550 360.5600 333.1575 359.3000 C334.4100 358.0000 335.6025 355.6200 337.2050 354.8575 C338.4800 354.2500 339.2500 355.2775 340.0775 356.1600 C341.8175 358.0125 343.3925 359.9950 345.2675 361.7250 C349.5550 365.6825 355.9900 369.2100 361.6025 370.8200 C366.9300 372.3475 372.8375 373.5425 378.3700 373.7225 C388.5950 374.0575 400.1525 370.9475 408.4775 365.0225 C412.3175 362.2900 415.8650 357.6300 419.7150 355.5625 C419.8100 355.5100 419.9075 355.4625 420.0025 355.4125 C420.0650 355.4425 420.1300 355.4725 420.1925 355.5075 C420.2950 355.5600 420.3975 355.6175 420.5000 355.6725 C423.9100 357.4825 426.3900 361.0700 429.3125 363.5625 C437.9400 370.9150 450.1325 373.1300 461.1200 374.0375 C460.7325 388.0525 461.0650 402.1625 461.0650 416.1875 C461.0675 429.4400 460.7250 442.7875 461.1625 456.0275 C450.6400 455.5975 440.0275 455.8675 429.4950 455.8650 L374.1250 455.8675 L156.6962 455.8700 L85.5305 455.8750 L64.0935 455.8850 C59.7400 455.8700 55.3460 455.6775 50.9995 455.9375 L51.0060 399.9200 L50.9855 383.7675 C50.9818 380.8900 50.7318 377.7850 51.1678 374.9450 C51.2088 374.6775 51.3335 373.8750 51.5412 373.6700 C52.6028 372.6125 59.6010 372.9950 61.4658 372.7725 C63.1252 372.5725 64.8123 372.0925 66.4182 371.6450 C73.0302 369.8050 79.2305 366.9625 84.2077 362.1550 C86.4100 360.0275 88.5098 357.6150 90.9608 355.7775 C92.0797 354.9375 92.6432 354.2225 93.7238 355.4550 C95.8220 357.8475 97.7430 360.4175 100.1387 362.5325 C106.0202 367.7250 114.8423 371.6500 122.6048 372.6975 C126.3120 373.1975 130.2587 373.6900 134.0035 373.6250 C144.5380 373.4400 156.3825 370.1275 164.6870 363.5000 C168.1355 360.7475 170.7513 356.8125 173.7845 354.4900 Z"></path>
<path id="" fill="#000000" fill-opacity="1.0" stroke="#000000" stroke-width="0.0" stroke-opacity="1.0" stroke-linecap="round" stroke-linejoin="round"  filling="0" d="M317.2950 312.9250 C320.1175 312.9150 335.2000 320.9575 338.3350 322.7475 C337.9275 324.0725 337.3200 325.3400 336.8600 326.6500 L332.8750 338.2050 C331.4175 342.4575 330.1225 348.0925 327.9675 351.8950 C327.5375 352.1125 327.2750 352.2100 326.7825 352.2150 C324.2875 352.2300 309.8725 344.9150 307.8575 343.0250 C307.5175 341.9300 308.0075 340.3075 308.3050 339.2050 C309.4025 335.1450 311.0750 331.1200 312.4200 327.1200 C314.0125 322.3900 315.3225 317.5125 317.2950 312.9250 Z"></path>
<path id="" fill="#000000" fill-opacity="1.0" stroke="#000000" stroke-width="0.0" stroke-opacity="1.0" stroke-linecap="round" stroke-linejoin="round"  filling="0" d="M193.9097 312.7500 C194.7823 313.1150 194.8670 313.3375 195.2380 314.1925 C196.8123 317.8300 204.9778 341.5025 203.9575 343.2425 C203.4775 344.0600 190.0270 350.8350 187.9195 351.6775 C187.0070 352.0425 186.0163 352.2100 185.0527 352.3825 C184.6797 352.2725 184.0522 352.1850 183.7782 351.9050 C183.3853 351.5025 175.9373 328.5225 175.3358 326.2225 C174.9975 324.9300 174.8752 323.7125 174.8550 322.3800 C177.2312 320.4475 190.9648 313.6475 193.9097 312.7500 Z"></path>
<path id="" fill="#2196f3" fill-opacity="1.0" stroke="#000000" stroke-width="0.0" stroke-opacity="1.0" stroke-linecap="round" stroke-linejoin="round"  filling="0" d="M92.2193 395.6550 C92.7682 395.7525 93.0332 395.7675 93.4673 396.1450 C95.9958 398.3450 97.8132 401.7050 100.6550 403.9925 C104.7848 407.3175 110.2318 410.0925 115.2502 411.7625 C121.0558 413.6950 126.8085 414.1725 132.8768 414.1425 C145.0890 414.0775 154.8692 412.1225 164.6908 404.3825 C166.8660 402.6675 172.4218 396.3900 173.9693 395.7325 C174.5040 395.5050 176.0502 397.3025 176.4650 397.7375 C182.1470 403.7125 187.5365 408.2325 195.3683 411.1250 C201.9310 413.5500 208.3678 414.1950 215.2977 414.1225 C227.4485 413.9975 236.8135 412.1100 246.6487 404.4150 C247.8338 403.4875 249.0457 402.5275 250.0975 401.4500 C251.7175 399.7900 253.7425 396.5500 255.9075 395.6975 C256.5150 395.4600 257.9850 397.2800 258.4150 397.7300 C263.6025 403.2000 268.6950 407.6825 275.7800 410.5750 C282.7950 413.4375 289.5150 414.1900 297.0275 414.1275 C309.2775 414.0275 319.3275 411.8450 329.1525 404.0125 C330.9475 402.5800 336.7525 396.1300 337.6700 395.8150 C338.1750 395.6400 338.5450 395.8575 338.9600 396.1700 C340.4925 397.3150 341.6900 399.1225 343.0100 400.5175 C346.8425 404.5150 351.4050 407.7400 356.4525 410.0200 C363.7050 413.2275 370.6800 414.1725 378.5400 414.1250 C381.6850 414.1050 384.9650 414.1525 388.0925 413.7700 C396.4525 412.7475 404.6900 408.8800 411.4225 403.9050 C414.2900 401.7850 416.7475 396.8775 419.8475 395.6925 C421.5225 396.1500 426.1400 401.6325 427.6600 403.0150 C436.8075 411.3275 448.9875 414.6200 461.1575 414.0275 C461.0200 417.0300 461.0650 420.0550 461.0450 423.0625 L461.0375 444.2800 C461.0375 448.1775 460.8325 452.2050 461.2200 456.0850 C454.5800 455.6375 447.7025 455.9525 441.0375 455.9500 L404.0375 455.9500 L288.7025 455.9500 L131.7210 455.9500 L80.3593 455.9500 C70.5827 455.9475 60.7475 455.7100 50.9812 456.0675 C51.1475 449.9975 51.0047 443.8875 51.0038 437.8150 C51.0423 429.9050 51.0182 421.9975 50.9317 414.0875 C62.9807 414.1100 74.3102 411.9150 83.6908 403.7425 C86.5630 401.2425 88.8660 398.1175 91.9507 395.8475 C92.0395 395.7825 92.1298 395.7175 92.2193 395.6550 Z"></path>
<path id="" fill="#90a4ad" fill-opacity="1.0" stroke="#000000" stroke-width="0.0" stroke-opacity="1.0" stroke-linecap="round" stroke-linejoin="round"  filling="0" d="M246.2428 56.0957 C249.8735 55.8582 253.5800 55.9870 257.2200 55.9815 C260.3275 55.9767 263.5950 55.7657 266.6725 56.1922 C267.3150 62.1357 267.0300 68.3085 267.0350 74.2835 C267.0400 80.8242 267.2475 87.4480 266.9600 93.9805 C266.8950 95.4610 267.0050 96.7715 265.8600 97.8285 C263.0650 97.9195 260.2250 97.2988 257.4275 97.1390 C253.3975 96.9088 249.3265 97.0745 245.2955 97.2198 L245.1440 69.0215 C245.1435 65.3680 244.7060 61.0630 245.2782 57.4945 C245.4025 56.7195 245.6203 56.5318 246.2428 56.0957 Z"></path>
<path id="" fill="#546e79" fill-opacity="1.0" stroke="#000000" stroke-width="0.0" stroke-opacity="1.0" stroke-linecap="round" stroke-linejoin="round"  filling="0" d="M204.5383 117.2753 C211.5742 116.9068 218.7310 117.1605 225.7775 117.1675 C225.9182 121.6070 226.5372 134.8550 225.6127 138.5948 C222.7360 138.6710 205.6655 139.2665 204.2968 138.0490 C203.9540 136.1240 204.0182 118.8130 204.5383 117.2753 Z"></path>
<path id="" fill="#536e7a" fill-opacity="1.0" stroke="#000000" stroke-width="0.0" stroke-opacity="1.0" stroke-linecap="round" stroke-linejoin="round"  filling="0" d="M245.5240 117.2790 C252.5650 116.9147 259.7225 117.1592 266.7775 117.1620 C266.8750 120.9382 267.5575 136.4942 266.4300 138.6328 C263.3125 138.6780 246.9840 139.2295 245.2897 138.0485 C244.9557 136.1590 244.9917 118.7415 245.5240 117.2790 Z"></path>
<path id="" fill="#536e7a" fill-opacity="1.0" stroke="#000000" stroke-width="0.0" stroke-opacity="1.0" stroke-linecap="round" stroke-linejoin="round"  filling="0" d="M286.5225 117.2827 C293.5725 116.9698 300.7075 117.1565 307.7700 117.1508 C307.8300 120.1823 308.3025 136.6715 307.6575 138.0060 C307.5400 138.2502 307.3400 138.4473 307.1825 138.6678 C302.3025 138.4473 290.8000 139.3635 286.8900 138.3658 C286.4550 138.2547 286.4275 138.3383 286.2650 137.9495 C286.0475 137.4357 286.0475 121.1280 286.1400 119.2442 C286.1750 118.5295 286.2675 117.9572 286.5225 117.2827 Z"></path>
<path id="" fill="#536e7a" fill-opacity="1.0" stroke="#000000" stroke-width="0.0" stroke-opacity="1.0" stroke-linecap="round" stroke-linejoin="round"  filling="0" d="M245.7130 168.8307 C252.6400 168.6840 259.5500 168.8875 266.4875 168.6647 C266.7600 174.9713 267.2775 181.5858 266.7225 187.8783 C266.6325 188.8947 266.5350 190.3625 265.7275 191.0425 C262.3175 190.7965 259.1750 189.9840 255.6825 190.0175 C252.1150 190.0515 248.7247 190.9102 245.1820 191.0658 C245.3820 187.4823 244.6890 170.8480 245.7130 168.8307 Z"></path>
<path id="" fill="#536d7a" fill-opacity="1.0" stroke="#000000" stroke-width="0.0" stroke-opacity="1.0" stroke-linecap="round" stroke-linejoin="round"  filling="0" d="M163.7815 168.8418 C166.8658 168.6570 170.0477 168.8763 173.1425 168.8987 C176.9620 168.9077 180.7810 168.8293 184.5970 168.6633 C184.8672 174.1073 185.6230 184.7135 184.6358 189.7345 C181.2437 190.0592 166.1940 190.1552 163.4495 189.3938 C162.8685 187.4408 163.1635 170.4760 163.7815 168.8418 Z"></path>
<path id="" fill="#546e79" fill-opacity="1.0" stroke="#000000" stroke-width="0.0" stroke-opacity="1.0" stroke-linecap="round" stroke-linejoin="round"  filling="0" d="M204.7482 168.8355 C207.8135 168.6945 210.9450 168.8837 214.0175 168.9030 C217.8542 168.9065 221.6908 168.8240 225.5240 168.6557 C225.6805 174.1400 226.6270 184.6440 225.6095 189.7348 C222.4948 190.0370 206.7177 190.1990 204.4705 189.3647 C203.9290 187.5695 204.1317 170.1138 204.7482 168.8355 Z"></path>
<path id="" fill="#536e7a" fill-opacity="1.0" stroke="#000000" stroke-width="0.0" stroke-opacity="1.0" stroke-linecap="round" stroke-linejoin="round"  filling="0" d="M286.6875 168.8282 C293.6225 168.8922 300.5125 168.8820 307.4450 168.6590 C307.5600 173.5867 308.6200 185.7710 307.4725 189.8062 C303.2875 189.9673 290.1675 190.2778 286.7375 189.4393 C286.4200 189.3618 286.4800 189.4060 286.2875 188.9727 C285.8475 187.9888 286.1150 169.8878 286.6875 168.8282 Z"></path>
<path id="" fill="#546e79" fill-opacity="1.0" stroke="#000000" stroke-width="0.0" stroke-opacity="1.0" stroke-linecap="round" stroke-linejoin="round"  filling="0" d="M327.6750 168.8310 C334.5875 168.8963 341.4575 168.8772 348.3675 168.6620 C348.5150 172.0717 349.5675 187.9633 348.1750 189.8365 L335.7550 189.7840 C332.9125 189.7742 329.9900 189.6260 327.1700 190.0098 C327.2975 186.8947 326.7000 170.4957 327.6750 168.8310 Z"></path>
</svg>