<svg xmlns="http://www.w3.org/2000/svg" viewBox="0 0 512 512" height="512.0px" width="512.0px">
<path id="" fill="#b0bec5" fill-opacity="1.0" stroke="#000000" stroke-width="0.0" stroke-opacity="1.0" stroke-linecap="round" stroke-linejoin="round"  filling="0" d="M255.2375 92.8585 C259.9000 93.0327 263.7425 94.0323 267.9650 96.0240 C268.4225 101.3350 268.1125 106.8895 268.1100 112.2280 L268.0900 142.7917 L268.0925 239.2402 L268.0925 375.9725 L268.1100 420.2175 C268.1150 428.8800 268.3550 437.6125 267.9600 446.2650 C264.7125 448.4400 260.5875 449.2575 256.8150 449.9325 C253.7125 450.1200 248.8015 449.3450 246.1760 447.5975 C244.8672 446.7275 244.2560 445.4150 244.0253 443.8950 C243.7018 441.7650 243.9892 439.4050 244.0033 437.2475 L243.9985 425.2100 L243.9980 378.6125 L243.9970 213.9935 L243.9978 136.9203 L243.9755 113.2780 C243.9670 109.0898 243.7335 104.7485 244.0338 100.5782 C244.1330 99.1995 244.3775 97.4173 245.2850 96.3232 C247.4610 93.7005 252.0550 93.0745 255.2375 92.8585 Z"></path>
<path id="" fill="#ff5722" fill-opacity="1.0" stroke="#000000" stroke-width="0.0" stroke-opacity="1.0" stroke-linecap="round" stroke-linejoin="round"  filling="0" d="M204.3040 415.0975 L267.2725 415.1700 L290.2575 415.1050 C294.1425 415.0975 298.0575 414.9700 301.9375 415.1400 L301.2025 415.4450 C300.7100 417.1275 301.0850 426.0625 301.0775 428.4500 C301.0425 439.2775 300.6575 450.2200 301.0275 461.0350 C295.8450 460.8550 290.6200 460.9825 285.4350 460.9800 L257.0875 460.9800 L171.4413 460.9850 L92.1040 460.9775 C78.4425 460.9825 64.6438 460.5550 51.0007 461.1000 C51.0327 456.1450 51.0400 451.1925 51.0218 446.2375 C51.0103 436.9375 50.5125 429.0575 57.6470 421.9075 C60.7558 418.7900 64.9872 416.7125 69.2758 415.8575 C73.9583 414.9225 78.8108 415.1350 83.5635 415.1325 L98.8878 415.1275 L149.9473 415.0925 C168.0502 415.0750 186.2068 414.7725 204.3040 415.0975 Z"></path>
<path id="" fill="#ffc106" fill-opacity="1.0" stroke="#000000" stroke-width="0.0" stroke-opacity="1.0" stroke-linecap="round" stroke-linejoin="round"  filling="0" d="M149.9473 415.0925 C168.0502 415.0750 186.2068 414.7725 204.3040 415.0975 C205.4962 415.7525 209.2798 415.3000 210.7395 415.2950 C210.8880 430.4425 210.9048 445.5925 210.7900 460.7425 C180.2300 461.0500 149.6190 460.2125 119.0690 460.8650 C119.1613 445.7175 118.5105 430.4175 119.1275 415.2900 C123.3763 415.2425 148.0938 415.7225 149.9473 415.0925 Z"></path>
<path id="" fill="#ffc106" fill-opacity="1.0" stroke="#000000" stroke-width="0.0" stroke-opacity="1.0" stroke-linecap="round" stroke-linejoin="round"  filling="0" d="M301.9375 415.1400 L392.7350 415.0750 C393.3275 416.3850 392.6250 455.5375 392.8350 460.7700 C391.1875 460.7700 389.4950 460.6875 387.8675 460.9475 C379.3875 461.3675 370.7150 460.9700 362.2075 460.9700 C341.8225 460.9675 321.4100 460.7400 301.0275 461.0350 C300.6575 450.2200 301.0425 439.2775 301.0775 428.4500 C301.0850 426.0625 300.7100 417.1275 301.2025 415.4450 L301.9375 415.1400 Z"></path>
<path id="" fill="#ff5722" fill-opacity="1.0" stroke="#000000" stroke-width="0.0" stroke-opacity="1.0" stroke-linecap="round" stroke-linejoin="round"  filling="0" d="M392.7350 415.0750 C403.2800 415.1675 413.8275 415.1850 424.3750 415.1275 C430.5775 415.1350 437.6500 414.4200 443.6725 415.9075 C447.6925 416.9000 451.8000 419.2575 454.6850 422.2275 C461.1600 428.8925 461.0475 437.0325 461.0150 445.6925 C460.9950 450.8200 460.8550 455.9775 461.0825 461.1000 C455.0925 460.8400 449.0550 460.9775 443.0575 460.9775 L406.8250 460.9850 C400.5250 460.9875 394.1600 461.1675 387.8675 460.9475 C389.4950 460.6875 391.1875 460.7700 392.8350 460.7700 C392.6250 455.5375 393.3275 416.3850 392.7350 415.0750 Z"></path>
<path id="" fill="#ffc007" fill-opacity="1.0" stroke="#000000" stroke-width="0.0" stroke-opacity="1.0" stroke-linecap="round" stroke-linejoin="round"  filling="0" d="M254.9600 51.2753 C255.6250 51.2368 256.3575 51.1115 256.9975 51.3333 C257.0475 51.5835 257.0825 52.1430 257.1975 52.3440 C257.8975 53.5540 259.4275 54.8745 260.3775 55.9492 C262.7800 58.6450 265.1175 61.4003 267.3850 64.2128 C276.1500 74.9467 283.7175 86.6072 289.9475 98.9863 C294.8600 108.8992 298.5625 119.2085 300.4875 130.1160 C300.8675 132.2775 301.4950 144.2920 301.6925 144.7052 C300.7075 146.8335 299.7375 148.9630 298.3325 150.8560 C294.9325 155.4335 288.5350 158.5883 283.3125 160.4868 C265.6500 166.9060 242.4077 167.1167 225.2122 159.0762 C220.3890 156.8210 212.5170 151.6785 210.8740 146.2230 C210.8050 145.9937 210.8087 145.7473 210.7433 145.5170 C210.7160 145.4210 210.6560 145.3378 210.6125 145.2482 C210.2672 146.0197 209.8945 146.7657 209.4673 147.4950 C204.5320 155.9225 195.3562 160.0440 186.2600 162.4225 C169.0358 166.9265 145.8835 166.2730 130.3143 157.0250 C125.3597 154.0820 121.0995 150.2368 119.6152 144.5110 C118.5815 146.4978 118.1545 148.8185 117.0667 150.8607 C113.6992 157.1835 106.0610 161.1045 99.4650 163.0513 C87.7300 166.5148 74.0635 165.7773 63.2350 159.8125 C58.1210 156.9955 53.4017 152.6373 51.7807 146.8530 C50.4530 142.1142 50.5632 125.7300 51.5385 120.7585 C52.0782 118.1032 53.0450 115.5530 54.4015 113.2072 C56.7093 109.1657 59.9893 106.5210 64.2555 104.7250 C70.2455 102.2035 77.4360 100.8127 83.7513 99.0655 L121.6988 88.4877 L248.3403 53.2310 C250.5050 52.4675 252.7475 51.8968 254.9600 51.2753 Z"></path>
<path id="" fill="#fe5722" fill-opacity="1.0" stroke="#000000" stroke-width="0.0" stroke-opacity="1.0" stroke-linecap="round" stroke-linejoin="round"  filling="0" d="M254.9600 51.2753 C255.6250 51.2368 256.3575 51.1115 256.9975 51.3333 C257.0475 51.5835 257.0825 52.1430 257.1975 52.3440 C257.8975 53.5540 259.4275 54.8745 260.3775 55.9492 C262.7800 58.6450 265.1175 61.4003 267.3850 64.2128 C276.1500 74.9467 283.7175 86.6072 289.9475 98.9863 C294.8600 108.8992 298.5625 119.2085 300.4875 130.1160 C300.8675 132.2775 301.4950 144.2920 301.6925 144.7052 C300.7075 146.8335 299.7375 148.9630 298.3325 150.8560 C294.9325 155.4335 288.5350 158.5883 283.3125 160.4868 C265.6500 166.9060 242.4077 167.1167 225.2122 159.0762 C220.3890 156.8210 212.5170 151.6785 210.8740 146.2230 C210.8050 145.9937 210.8087 145.7473 210.7433 145.5170 C210.7160 145.4210 210.6560 145.3378 210.6125 145.2482 C208.9040 115.9673 227.8853 85.0997 245.3710 63.1595 C247.2915 60.7498 254.4425 53.6555 254.9600 51.2753 Z"></path>
<path id="" fill="#ff5722" fill-opacity="1.0" stroke="#000000" stroke-width="0.0" stroke-opacity="1.0" stroke-linecap="round" stroke-linejoin="round"  filling="0" d="M119.6152 144.5110 C118.5815 146.4978 118.1545 148.8185 117.0667 150.8607 C113.6992 157.1835 106.0610 161.1045 99.4650 163.0513 C87.7300 166.5148 74.0635 165.7773 63.2350 159.8125 C58.1210 156.9955 53.4017 152.6373 51.7807 146.8530 C50.4530 142.1142 50.5632 125.7300 51.5385 120.7585 C52.0782 118.1032 53.0450 115.5530 54.4015 113.2072 C56.7093 109.1657 59.9893 106.5210 64.2555 104.7250 C70.2455 102.2035 77.4360 100.8127 83.7513 99.0655 L121.6988 88.4877 L248.3403 53.2310 C248.2352 53.5230 248.1093 54.1252 247.9362 54.3553 C247.3277 55.1647 243.4462 56.6685 242.2935 57.2117 C236.9375 59.7350 231.4855 62.0502 226.1385 64.5932 C201.3582 76.3785 129.7778 111.1010 120.5985 136.6633 C119.8735 138.6828 118.7793 142.4707 119.6152 144.5110 Z"></path>
<path id="" fill="#fe9800" fill-opacity="1.0" stroke="#000000" stroke-width="0.0" stroke-opacity="1.0" stroke-linecap="round" stroke-linejoin="round"  filling="0" d="M266.9850 267.3275 C269.4075 262.4475 271.0550 257.2150 273.1350 252.1825 C277.9975 240.4115 284.8425 229.2080 294.0725 220.3717 C309.9575 205.1617 332.7450 198.5350 354.4300 198.9933 C353.8450 203.7888 350.9475 207.3522 349.8225 211.8463 C349.8650 211.9185 349.9050 211.9913 349.9475 212.0630 C352.0200 215.5930 354.8700 218.9365 357.2675 222.2782 L372.7050 243.8295 C374.8425 246.8143 377.3775 249.8640 379.1775 253.0575 C379.7300 254.0400 380.1650 254.9900 380.2425 256.1250 C378.6750 258.8100 368.5500 264.4825 365.3900 266.8950 C363.5300 267.2225 361.6200 265.7775 360.1700 264.7600 C356.7475 262.3575 353.3850 259.8525 350.0075 257.3850 C347.9150 255.8575 345.6075 254.3825 343.7275 252.6050 C338.7950 255.0475 333.8925 256.3375 328.5225 254.5300 C326.6650 253.9050 324.9250 253.0175 323.2375 252.0300 C322.7000 263.8750 323.0525 275.8650 323.0575 287.7250 C323.0600 294.3325 322.4350 303.5575 323.4900 309.8675 C324.3400 314.9500 326.9425 320.1150 328.7100 324.9650 C331.1075 331.5375 333.2050 338.3450 335.9725 344.7625 C337.3425 347.9425 338.9975 351.0000 340.4625 354.1375 L353.5475 381.9875 C355.2425 385.6125 357.1275 389.1375 358.7100 392.8175 C351.1775 392.7750 343.6250 393.0150 336.1000 392.7450 C336.0225 392.6725 335.9475 392.6000 335.8725 392.5275 C333.3875 390.0850 331.6350 386.8175 329.7425 383.9175 C328.0500 381.3225 326.2675 378.7825 324.5525 376.2025 C319.6425 368.8125 314.6875 360.2250 308.8875 353.5725 C295.6525 338.3875 275.0325 332.4825 255.4700 332.4250 C237.7205 332.3575 220.6960 339.4675 208.2680 352.1425 C203.5165 356.9325 200.1125 362.3175 196.4040 367.9050 L186.0395 383.5225 C184.0890 386.4600 182.1228 390.1600 179.7363 392.7350 C171.0050 392.9500 162.2668 392.7925 153.5338 392.8675 C154.7590 389.0600 157.0992 385.6850 158.9498 382.1575 C162.7238 374.9625 166.5022 367.7250 170.4055 360.6000 C173.4998 354.9525 177.1752 349.0675 179.4480 343.0475 C180.9057 339.1850 181.4288 334.8300 182.2805 330.7950 C184.9702 318.0600 187.9495 298.8750 194.2455 287.7575 C195.1000 284.4400 201.6842 279.2975 203.4445 275.8850 C203.9440 275.2450 204.5610 274.7525 205.1770 274.2275 C208.9825 270.9925 213.5163 269.1025 218.3810 268.0975 C226.7230 266.3775 237.9925 267.1925 246.7068 267.1800 C253.4050 267.1700 260.3225 266.7900 266.9850 267.3275 Z"></path>
<path id="" fill="#ef6c00" fill-opacity="1.0" stroke="#000000" stroke-width="0.0" stroke-opacity="1.0" stroke-linecap="round" stroke-linejoin="round"  filling="0" d="M266.9850 267.3275 C269.4075 262.4475 271.0550 257.2150 273.1350 252.1825 C277.9975 240.4115 284.8425 229.2080 294.0725 220.3717 C309.9575 205.1617 332.7450 198.5350 354.4300 198.9933 C353.8450 203.7888 350.9475 207.3522 349.8225 211.8463 L349.5750 211.4260 C347.5075 211.4698 345.4050 211.8995 343.3600 212.2085 C331.5400 213.9962 320.2150 218.9507 311.8850 227.6862 C304.3550 235.5872 300.3200 245.8423 298.8800 256.5500 C298.3950 260.1575 298.2725 263.7950 297.9525 267.4150 C294.6025 271.4025 289.6700 274.3425 284.4225 274.8150 C279.9225 275.2200 275.2850 273.7500 271.7325 270.9825 C270.1950 269.7825 268.6775 268.2775 266.9850 267.3275 Z"></path>
<path id="" fill="#ffc007" fill-opacity="1.0" stroke="#000000" stroke-width="0.0" stroke-opacity="1.0" stroke-linecap="round" stroke-linejoin="round"  filling="0" d="M256.9975 51.3333 C258.7300 51.7657 260.4550 52.2018 262.1625 52.7318 L390.7800 88.6072 L428.7275 99.1933 C435.1175 100.9763 442.2225 102.3448 448.3125 104.9665 C452.4550 106.7715 455.8750 109.9077 458.0325 113.8780 C459.2450 116.0407 460.1050 118.3840 460.5750 120.8183 C461.4700 125.6882 461.5000 142.4950 460.1225 147.1382 C458.4000 152.9583 454.0150 156.9745 448.7950 159.7725 C437.7350 165.6992 423.9150 166.5910 411.9950 162.9527 C405.2875 160.9057 397.9350 156.5918 394.5700 150.1942 C393.7800 148.6905 393.2050 147.2410 392.6500 145.6483 C392.6275 145.5800 392.5900 145.5163 392.5600 145.4503 C391.9575 146.7980 391.2825 148.1180 390.4425 149.3353 C384.3250 158.1967 372.0000 162.0408 361.8875 163.8410 C345.9400 166.6800 323.6675 165.1795 310.1725 155.6225 C306.6325 153.1155 302.4800 149.1545 301.6925 144.7052 C301.4950 144.2920 300.8675 132.2775 300.4875 130.1160 C298.5625 119.2085 294.8600 108.8992 289.9475 98.9863 C283.7175 86.6072 276.1500 74.9467 267.3850 64.2128 C265.1175 61.4003 262.7800 58.6450 260.3775 55.9492 C259.4275 54.8745 257.8975 53.5540 257.1975 52.3440 C257.0825 52.1430 257.0475 51.5835 256.9975 51.3333 Z"></path>
<path id="" fill="#ff5722" fill-opacity="1.0" stroke="#000000" stroke-width="0.0" stroke-opacity="1.0" stroke-linecap="round" stroke-linejoin="round"  filling="0" d="M262.1625 52.7318 L390.7800 88.6072 L428.7275 99.1933 C435.1175 100.9763 442.2225 102.3448 448.3125 104.9665 C452.4550 106.7715 455.8750 109.9077 458.0325 113.8780 C459.2450 116.0407 460.1050 118.3840 460.5750 120.8183 C461.4700 125.6882 461.5000 142.4950 460.1225 147.1382 C458.4000 152.9583 454.0150 156.9745 448.7950 159.7725 C437.7350 165.6992 423.9150 166.5910 411.9950 162.9527 C405.2875 160.9057 397.9350 156.5918 394.5700 150.1942 C393.7800 148.6905 393.2050 147.2410 392.6500 145.6483 C392.6275 145.5800 392.5900 145.5163 392.5600 145.4503 C392.6025 139.7740 391.5650 135.9332 388.4875 131.1160 C372.7700 106.5132 311.2225 76.5407 283.7775 63.5710 C280.1375 61.8508 263.8000 55.2948 262.1625 52.7318 Z"></path>
<path id="" fill="#ef6c00" fill-opacity="1.0" stroke="#000000" stroke-width="0.0" stroke-opacity="1.0" stroke-linecap="round" stroke-linejoin="round"  filling="0" d="M121.7442 292.5350 C122.8980 285.1100 128.1682 276.5550 133.0555 270.9850 C140.6040 262.3825 152.0365 256.7425 163.4612 256.0525 C180.5005 255.0225 191.6780 265.3625 203.4445 275.8850 C201.6842 279.2975 195.1000 284.4400 194.2455 287.7575 C191.5040 285.8475 188.4565 284.0475 185.3808 282.7425 C179.8980 280.4175 174.0325 279.4700 168.3805 281.7825 C158.0710 285.9975 153.1590 297.9125 149.1210 307.4425 C143.0515 303.9775 136.8415 300.7050 130.6797 297.4050 C127.7090 295.8125 124.5502 294.3950 121.7442 292.5350 Z"></path>
</svg>