<svg xmlns="http://www.w3.org/2000/svg" viewBox="0 0 512 512" height="512.0px" width="512.0px">
<path id="" fill="#e89419" fill-opacity="1.0" stroke="#000000" stroke-width="0.0" stroke-opacity="1.0" stroke-linecap="round" stroke-linejoin="round"  filling="0" d="M173.9920 214.9888 C195.5853 215.2545 217.2025 215.0515 238.7988 215.0510 L338.0975 214.9960 C337.8825 218.5205 338.0175 222.1355 338.0150 225.6690 L338.0150 245.1133 L338.0150 304.5475 L338.0200 405.6725 C338.0200 424.1275 337.8300 442.6050 338.0825 461.0575 C330.6925 460.5375 323.0100 460.9675 315.5825 460.9625 L271.4975 460.9425 L208.4653 460.9550 C196.9945 460.9575 185.4512 460.6975 173.9900 461.0750 L173.9920 214.9888 Z"></path>
<path id="" fill="#feb64d" fill-opacity="1.0" stroke="#000000" stroke-width="0.0" stroke-opacity="1.0" stroke-linecap="round" stroke-linejoin="round"  filling="0" d="M166.4050 251.1075 C183.7807 250.9025 201.2422 250.6700 218.6152 250.9750 C222.3875 251.0425 226.1033 251.9175 229.8815 251.9350 L295.5175 251.9775 C298.7000 251.9800 301.9275 252.0725 305.1000 251.8425 C309.1125 251.5500 313.0425 250.9725 317.0750 250.9075 C320.7200 250.8500 324.3325 251.6325 327.9275 251.5400 C334.8475 251.3600 342.0325 250.3025 348.9450 251.3300 C352.0500 251.7925 354.2100 254.4425 355.9725 256.8050 C356.4100 265.1400 356.0325 273.6700 356.0325 282.0250 L356.0300 330.9675 L356.0350 381.5725 C356.0375 390.0025 356.4275 398.6125 356.0300 407.0200 C355.9575 408.5775 355.7225 410.0150 354.8750 411.3525 C353.4875 413.5500 351.2600 414.4850 348.8275 414.9975 C335.8025 415.3375 322.6975 415.0450 309.6650 415.0450 L234.4603 415.0425 L186.7545 415.0325 C179.1328 415.0300 171.0643 415.5250 163.5000 414.9700 C161.8407 414.8475 160.4955 414.3950 159.2185 413.2950 C157.2325 411.5825 156.2525 409.5000 156.0567 406.9100 C155.8220 403.8050 155.9575 400.6125 155.9650 397.4975 L155.9772 381.7250 L155.9778 331.1950 L155.9653 283.8500 L155.9560 268.4000 C155.9557 265.4025 155.8365 262.3475 156.0862 259.3575 C156.2560 257.3300 156.7845 255.7700 158.1853 254.2400 C160.4308 251.7925 163.2547 251.2875 166.4050 251.1075 Z M303.6675 396.9625 C308.0025 397.0050 314.0625 398.0775 317.3625 394.7075 C318.3075 393.7400 319.0775 392.4900 319.7975 391.3550 C320.4275 383.7675 319.9475 375.8100 319.9425 368.1850 L319.9350 324.3200 L319.9325 293.0575 C319.9400 287.6425 320.4300 281.7625 319.7075 276.4025 C319.4950 274.8325 318.3875 273.2650 317.3650 272.0775 C315.1675 269.5250 311.7300 269.3425 308.5575 269.1475 C303.4450 268.8325 298.2300 269.0275 293.1075 269.0275 L265.4000 269.0350 L229.0312 269.0425 C222.1873 269.0400 215.3105 268.8850 208.4727 269.1075 C204.0182 269.4025 197.0975 269.2850 193.9810 272.9250 C192.7300 274.3850 192.2648 276.0850 192.1073 277.9675 C191.6078 283.9500 192.0685 290.2800 192.0710 296.3025 L192.0753 334.5525 L192.0618 370.7725 C192.0515 377.1775 191.6075 383.9425 192.2348 390.3075 C192.4267 392.2575 193.2510 393.9175 194.7685 395.1850 C195.9447 396.1700 197.2762 396.6425 198.7860 396.8150 C202.5887 397.2525 206.6608 396.9900 210.4945 396.9875 L232.2668 396.9625 L303.6675 396.9625 Z"></path>
<path id="" fill="#7986cb" fill-opacity="1.0" stroke="#000000" stroke-width="0.0" stroke-opacity="1.0" stroke-linecap="round" stroke-linejoin="round"  filling="0" d="M209.8752 170.0773 C210.1920 164.1987 209.2962 136.7790 210.4948 133.6888 C211.8548 133.2328 213.3793 133.1030 214.8062 133.0428 C219.3800 132.8503 224.0075 132.9925 228.5890 132.9933 L254.5500 133.0043 L284.3800 132.9910 C289.2775 132.9902 294.2225 132.8522 299.1150 132.9982 C299.7850 133.0182 300.4525 133.0505 301.0650 133.3513 C301.5025 133.5668 301.5550 133.7122 301.6975 134.1905 C302.4225 136.6245 302.0625 139.9890 302.0600 142.5352 L302.0475 159.1620 C302.0450 162.7617 301.8375 166.4933 302.3975 170.0567 C303.5400 171.2617 304.5250 172.7812 305.5600 174.1003 L312.2500 182.5335 L326.9000 200.6065 C330.3225 204.8938 334.5050 209.3675 336.6350 214.4780 C329.9775 217.0395 323.5200 215.7690 316.6175 215.1320 C311.1525 214.6277 301.3850 214.3750 296.1850 215.8640 C291.2675 213.5635 285.0750 215.9065 279.8725 215.9295 C276.9425 215.9425 273.9800 215.1120 271.0025 215.0185 C261.7900 214.7295 252.5225 214.9160 243.3033 214.9185 C238.0115 214.9198 233.1125 215.9362 228.0853 215.9700 C225.7402 215.9857 223.4048 215.3318 221.0623 215.3183 C218.6505 215.3045 216.2505 215.9328 213.8288 215.9198 C211.2360 215.9060 208.6535 215.4702 206.0655 215.4295 C203.4682 215.3885 200.8752 215.8625 198.2760 215.9003 C195.6102 215.9388 192.9755 215.4875 190.3177 215.4810 C185.6500 215.4695 179.3947 216.9100 174.8882 215.5990 L174.7410 215.1810 C175.0233 213.9458 175.6430 212.9487 176.3540 211.9185 C180.3570 206.1178 185.2467 200.6808 189.6582 195.1662 C196.3663 186.7815 202.8770 178.2177 209.8752 170.0773 Z"></path>
<path id="" fill="#ffb74d" fill-opacity="1.0" stroke="#000000" stroke-width="0.0" stroke-opacity="1.0" stroke-linecap="round" stroke-linejoin="round"  filling="0" d="M209.8752 170.0773 C210.1920 164.1987 209.2962 136.7790 210.4948 133.6888 C211.8548 133.2328 213.3793 133.1030 214.8062 133.0428 C219.3800 132.8503 224.0075 132.9925 228.5890 132.9933 L254.5500 133.0043 L284.3800 132.9910 C289.2775 132.9902 294.2225 132.8522 299.1150 132.9982 C299.7850 133.0182 300.4525 133.0505 301.0650 133.3513 C301.5025 133.5668 301.5550 133.7122 301.6975 134.1905 C302.4225 136.6245 302.0625 139.9890 302.0600 142.5352 L302.0475 159.1620 C302.0450 162.7617 301.8375 166.4933 302.3975 170.0567 C300.7575 170.1617 298.8350 169.8245 297.1375 169.8248 L280.8275 169.8768 L233.2852 169.8943 C225.8922 169.8658 217.0502 169.2900 209.8752 170.0773 Z"></path>
<path id="" fill="#fef7e0" fill-opacity="1.0" stroke="#000000" stroke-width="0.0" stroke-opacity="1.0" stroke-linecap="round" stroke-linejoin="round"  filling="0" d="M250.0750 287.9700 C275.1300 284.6775 298.1175 302.3000 301.4425 327.3500 C304.7675 352.4000 287.1725 375.4100 262.1275 378.7675 C237.0363 382.1300 213.9760 364.4975 210.6450 339.4025 C207.3138 314.3075 224.9758 291.2675 250.0750 287.9700 Z"></path>
<path id="" fill="#805a25" fill-opacity="1.0" stroke="#000000" stroke-width="0.0" stroke-opacity="1.0" stroke-linecap="round" stroke-linejoin="round"  filling="0" d="M199.9835 223.8367 C202.7787 223.7543 205.4693 224.1017 207.6707 225.9982 C209.1110 227.2390 210.0432 228.9020 210.5383 230.7238 C211.9212 235.8135 210.8745 246.2895 211.3130 252.2075 C208.9198 251.9000 206.4720 251.9925 204.0625 251.9950 C200.0352 251.9800 195.9965 251.9050 191.9725 252.0850 C192.0940 247.5905 191.9475 243.0600 191.9243 238.5612 C191.9125 236.3215 191.7558 233.9750 192.0907 231.7558 C192.2807 230.4910 192.7380 229.2812 193.4320 228.2072 C194.9900 225.7910 197.2437 224.4673 199.9835 223.8367 Z"></path>
<path id="" fill="#815a25" fill-opacity="1.0" stroke="#000000" stroke-width="0.0" stroke-opacity="1.0" stroke-linecap="round" stroke-linejoin="round"  filling="0" d="M271.6675 223.8525 C273.9050 223.7188 276.1950 223.7755 278.2750 224.7095 C280.5875 225.7470 282.1650 227.6480 283.0325 230.0015 C283.5450 231.4000 283.8100 232.8712 283.9500 234.3510 C284.2200 237.2385 284.5075 249.5007 283.6300 251.3325 C282.0625 252.4650 279.1425 252.0425 277.2500 252.0100 C273.1425 251.9875 269.0275 251.9200 264.9225 252.0650 C265.0125 246.5985 263.8450 232.8237 266.1925 228.5983 C267.3325 226.5468 269.3675 224.5033 271.6675 223.8525 Z"></path>
<path id="" fill="#805a25" fill-opacity="1.0" stroke="#000000" stroke-width="0.0" stroke-opacity="1.0" stroke-linecap="round" stroke-linejoin="round"  filling="0" d="M310.0275 223.8280 C312.5325 223.8432 314.7925 224.3430 316.7450 226.0265 C318.2075 227.2872 319.2525 228.9603 319.7475 230.8262 C320.9275 235.1850 319.9875 246.6560 320.3425 252.1100 C317.3650 251.8925 314.3525 251.9850 311.3700 251.9925 C308.4150 252.0250 304.8325 252.4225 301.9750 251.7400 C301.6275 251.4575 301.4850 251.2050 301.3625 250.7800 C300.4075 247.4635 300.6800 230.5355 302.6125 227.8188 C304.1150 225.7095 307.5975 224.4702 310.0275 223.8280 Z"></path>
<path id="" fill="#815a25" fill-opacity="1.0" stroke="#000000" stroke-width="0.0" stroke-opacity="1.0" stroke-linecap="round" stroke-linejoin="round"  filling="0" d="M237.0330 223.8165 C239.5627 223.9062 241.7442 224.3170 243.7395 226.0300 C245.2000 227.2845 246.2527 228.9460 246.7635 230.8025 C247.9928 235.1622 247.0038 246.6690 247.3520 252.1125 C244.5015 251.8825 241.6005 251.9875 238.7415 251.9925 C235.7020 252.0250 231.9382 252.4625 229.0035 251.7700 C228.6402 251.4550 228.4848 251.1875 228.3565 250.7350 C227.2352 246.7668 227.9565 231.1322 229.9420 227.7710 C231.2462 225.5627 234.6882 224.4688 237.0330 223.8165 Z"></path>
<path id="" fill="#7986cb" fill-opacity="1.0" stroke="#000000" stroke-width="0.0" stroke-opacity="1.0" stroke-linecap="round" stroke-linejoin="round"  filling="0" d="M255.6925 52.3770 C256.0250 52.4577 256.2825 52.5545 256.5550 52.7740 C257.3475 53.4165 257.9325 54.2570 258.4575 55.1200 C261.2500 59.7077 263.7525 64.4990 266.3575 69.1955 L279.7825 93.3600 L292.2850 115.8647 C294.3575 119.5938 296.6075 123.2818 298.5075 127.0950 C299.4875 129.0635 300.2075 130.8965 300.5275 133.0827 C295.4775 132.8720 290.3550 133.0423 285.2975 133.0412 L256.8750 133.0380 L223.6983 133.0585 C221.5338 133.0610 214.6595 132.6992 213.1340 132.9930 C213.0045 133.0177 212.8837 133.0760 212.7587 133.1175 L212.6277 132.8985 L212.0482 132.9085 C211.7475 132.6490 211.7390 132.3640 211.7153 131.9648 C211.6398 130.6998 212.5753 128.9470 213.1373 127.8300 C215.7050 122.7267 218.6463 117.7675 221.4230 112.7722 L236.1135 86.3313 L246.3448 67.9147 C248.5560 63.9077 252.6475 55.4427 255.6925 52.3770 Z"></path>
<path id="" fill="#455a64" fill-opacity="1.0" stroke="#000000" stroke-width="0.0" stroke-opacity="1.0" stroke-linecap="round" stroke-linejoin="round"  filling="0" d="M246.9008 305.9075 C252.9225 306.1875 259.1075 306.0100 265.1375 305.8475 C264.7750 311.9050 265.1025 318.1650 265.1900 324.2400 C268.5850 324.0400 280.3850 323.5450 283.1200 324.1600 C283.5425 324.9450 283.4275 325.5175 283.4225 326.4000 C283.6050 331.1675 284.0600 336.5975 283.1600 341.2925 C283.1950 341.8175 283.1775 341.9075 282.9900 342.3675 C281.7225 342.8825 248.2310 343.1375 246.8880 342.6125 C245.5668 339.1300 246.7923 323.1100 246.9145 318.1825 C246.9970 314.0900 246.9925 309.9975 246.9008 305.9075 Z"></path>
<path id="" fill="#805a25" fill-opacity="1.0" stroke="#000000" stroke-width="0.0" stroke-opacity="1.0" stroke-linecap="round" stroke-linejoin="round"  filling="0" d="M308.8125 424.0150 C308.9150 424.0050 309.0175 423.9950 309.1200 423.9850 C311.7825 423.7650 314.5075 424.5175 316.5450 426.2925 C318.2800 427.8025 319.2875 429.8575 319.7950 432.0725 C320.4625 434.9700 320.2200 438.1350 320.2075 441.0900 C320.1750 447.6425 319.7400 454.5200 320.3475 461.0350 L320.3850 461.4325 C317.7225 460.9550 314.9700 461.0625 312.2750 461.0575 C308.6300 461.0350 304.6725 460.7525 301.0775 461.3475 C301.0875 455.8150 300.2475 434.1925 301.5775 430.6400 C302.6400 427.7975 306.0750 425.1800 308.8125 424.0150 Z"></path>
<path id="" fill="#805a25" fill-opacity="1.0" stroke="#000000" stroke-width="0.0" stroke-opacity="1.0" stroke-linecap="round" stroke-linejoin="round"  filling="0" d="M273.3650 424.0125 C273.4600 424.0025 273.5550 423.9875 273.6500 423.9800 C276.0500 423.8100 278.3500 424.6725 280.1225 426.2925 C281.7025 427.7375 282.7625 429.5925 283.3125 431.6525 C284.3900 435.6825 284.0600 440.1675 284.0475 444.3100 C284.0300 449.9775 283.8650 455.6825 284.0850 461.3475 C281.3525 461.1575 278.6425 461.0875 275.9025 461.0650 C272.2725 461.0450 268.5450 460.8750 264.9325 461.2575 C264.9925 454.8525 264.9075 448.4400 264.8975 442.0325 C264.8900 438.6750 264.6750 435.1525 265.0800 431.8175 C265.2300 430.5825 265.4975 429.5175 266.1725 428.4600 C267.8975 425.7450 270.3875 424.7450 273.3650 424.0125 Z"></path>
<path id="" fill="#805a25" fill-opacity="1.0" stroke="#000000" stroke-width="0.0" stroke-opacity="1.0" stroke-linecap="round" stroke-linejoin="round"  filling="0" d="M235.8225 424.0275 C235.9850 424.0100 236.1475 423.9900 236.3103 423.9750 C238.9707 423.7275 242.1020 424.7375 244.1272 426.4600 C245.5573 427.6750 246.4102 429.1600 246.8125 430.9850 C247.4982 434.1000 247.1890 437.5825 247.1738 440.7600 C247.1407 447.5825 246.8105 454.6175 247.3633 461.4150 C244.6967 460.9100 241.8920 461.0525 239.1875 461.0500 C235.5742 461.0325 231.7230 460.7900 228.1557 461.3700 C228.2608 454.4925 226.9563 434.9300 229.2835 429.6800 C230.4180 427.1200 233.2965 425.0825 235.8225 424.0275 Z"></path>
<path id="" fill="#805a25" fill-opacity="1.0" stroke="#000000" stroke-width="0.0" stroke-opacity="1.0" stroke-linecap="round" stroke-linejoin="round"  filling="0" d="M200.2145 424.0000 C200.2827 423.9900 200.3505 423.9775 200.4190 423.9700 C202.7348 423.7475 205.2150 424.5275 207.0033 426.0100 C208.7410 427.4475 209.8895 429.4675 210.4758 431.6300 C211.2640 434.5350 211.1172 437.6500 211.1093 440.6325 C211.0930 446.5575 210.5390 455.3400 211.2545 461.0425 L211.3015 461.4000 C208.6045 461.1225 205.9570 461.0700 203.2498 461.0625 C199.5437 461.0450 195.6870 460.8300 192.0087 461.2750 C191.9885 455.3825 191.1243 433.5675 192.9775 429.5525 C194.4427 426.3775 197.0905 425.0700 200.2145 424.0000 Z"></path>
<path id="" fill="#815a26" fill-opacity="1.0" stroke="#000000" stroke-width="0.0" stroke-opacity="1.0" stroke-linecap="round" stroke-linejoin="round"  filling="0" d="M272.1750 142.0105 C275.1225 141.7728 278.1375 142.2713 280.4500 144.2462 C286.0525 149.0298 283.6375 163.1628 284.0325 170.0932 C281.7400 169.9280 279.4650 169.9388 277.1675 169.9575 C273.1150 169.9147 268.9375 169.6675 264.9050 170.0495 C265.1425 164.7238 263.8375 151.0782 266.0225 146.9295 C267.3325 144.4402 269.5500 142.8647 272.1750 142.0105 Z"></path>
<path id="" fill="#815a26" fill-opacity="1.0" stroke="#000000" stroke-width="0.0" stroke-opacity="1.0" stroke-linecap="round" stroke-linejoin="round"  filling="0" d="M236.1810 142.0168 C238.7755 141.7085 241.4505 142.1770 243.5235 143.8492 C245.1248 145.1600 246.2610 146.9518 246.7643 148.9590 C248.0580 154.0575 246.7715 163.7840 247.3130 169.6463 L247.3517 170.0420 C244.5695 169.8005 241.7105 169.9305 238.9175 169.9312 C235.2955 169.9527 231.6667 169.7623 228.0525 170.0660 C228.6555 163.5000 226.5125 152.9065 229.4595 147.2328 C230.9270 144.4075 233.2713 142.9998 236.1810 142.0168 Z"></path>
</svg>