<svg xmlns="http://www.w3.org/2000/svg" viewBox="0 0 512 512" height="512.0px" width="512.0px">
<path id="" fill="#fec007" fill-opacity="1.0" stroke="#000000" stroke-width="0.0" stroke-opacity="1.0" stroke-linecap="round" stroke-linejoin="round"  filling="0" d="M88.0785 198.2478 C87.7920 188.3248 88.0023 178.3537 88.0052 168.4245 L88.0160 114.5710 L87.9893 87.8540 C87.9812 82.6803 87.5150 77.0927 88.4205 71.9977 C89.2582 67.2848 91.8260 62.7415 95.0898 59.2823 C100.5480 53.4973 106.9723 51.2665 114.7928 51.0805 C122.0457 50.9082 129.3338 51.0482 136.5907 51.0537 L176.0620 51.0530 L305.7075 51.0537 L370.9950 51.0553 L389.6825 51.0383 C393.9125 51.0290 398.3150 50.8035 402.5175 51.3525 C407.3575 51.9843 412.2800 54.7345 415.7500 58.1090 C421.6300 63.8307 423.9825 70.6982 424.0300 78.7650 L424.0325 198.2558 C430.0825 198.0930 435.2325 198.0262 439.9275 202.4220 C443.1400 205.4295 444.9225 209.2025 445.0375 213.6210 C445.2025 219.8228 444.9850 226.0595 444.9975 232.2668 C445.0075 236.6788 445.6225 244.5510 444.7300 248.6370 C444.0725 251.6400 442.4300 254.5950 440.3050 256.8075 C437.4400 259.7875 433.9800 261.0500 429.8925 261.0825 C427.9150 261.0850 425.9400 261.0700 423.9650 261.0375 L424.0025 360.5575 L424.0050 386.9650 C424.0050 392.1150 424.4550 397.6400 423.5850 402.7150 C422.9600 406.3550 420.5225 410.0975 417.9725 412.6975 C414.8450 415.8850 409.7050 418.9600 405.1100 419.0100 C404.6900 419.0675 403.4350 419.1750 403.1900 419.5275 C402.4525 420.5825 403.7500 447.7525 402.8325 452.4175 C402.5000 454.1200 401.8575 455.4825 400.7400 456.8125 C398.0175 460.0550 394.9075 460.5300 390.9125 460.7825 C383.8950 461.2250 376.6700 460.8900 369.6275 460.9125 C363.5750 460.9325 354.0450 461.5600 348.3775 460.5375 C346.5325 460.2050 344.6725 459.1450 343.3000 457.8925 C341.8775 456.5950 340.9975 455.0750 340.5150 453.2125 C339.5675 449.5425 339.9400 445.3525 339.9500 441.5850 C339.9700 434.1175 340.3250 426.5000 339.9225 419.0500 C333.2925 418.8275 326.5975 418.9975 319.9600 418.9975 L283.2575 418.9975 L174.1205 419.0250 C173.7520 419.0525 173.3548 419.0600 172.9933 419.1325 C172.9645 419.1400 172.2320 419.3150 172.1785 419.3575 C171.9057 419.5800 172.0375 424.2725 172.0388 425.0175 L172.0658 442.8800 C172.0757 445.7850 172.3837 448.8800 171.9770 451.7600 C171.7742 453.1950 171.3418 454.5900 170.5465 455.8125 C169.3127 457.7100 166.7245 459.9625 164.4800 460.3800 C160.5580 461.1125 156.4480 460.9150 152.4742 460.9050 L138.9583 460.9100 C132.9265 460.9325 123.9230 461.5050 118.3135 460.7025 C116.5755 460.4550 115.0533 459.7975 113.6113 458.8025 C112.0525 457.7250 110.4652 456.1975 109.7490 454.4075 C108.2043 450.5450 108.9925 431.5750 109.0080 425.9900 C109.0132 424.1175 109.3065 421.6550 108.9062 419.8400 C108.7805 419.2700 108.6382 419.3275 108.1762 419.0225 C102.7150 418.8925 97.5505 416.3725 93.8115 412.4375 C90.8845 409.3575 88.9435 405.6925 88.3185 401.4775 C87.5407 396.2300 87.9782 390.4800 87.9840 385.1750 L88.0107 354.9250 L88.0010 293.2550 C87.9995 282.4900 87.7825 271.6675 88.0428 260.9050 C82.3132 261.1400 77.0360 261.6525 72.4495 257.4650 C69.0835 254.4125 67.1010 250.1250 66.9572 245.5853 C66.7470 240.2482 66.9853 234.8420 66.9853 229.4940 C66.9853 224.4662 66.3322 214.6373 67.3310 210.3822 C67.9825 207.6078 69.6695 204.9110 71.6057 202.8403 C74.6908 199.5410 78.5318 198.2547 82.9717 198.1570 C84.6707 198.1198 86.3802 198.1930 88.0785 198.2478 Z"></path>
<path id="" fill="#455a64" fill-opacity="1.0" stroke="#000000" stroke-width="0.0" stroke-opacity="1.0" stroke-linecap="round" stroke-linejoin="round"  filling="0" d="M108.1762 419.0225 C114.8012 419.3975 121.5535 419.0450 128.1930 419.0275 C143.4900 418.9825 158.8270 418.7800 174.1205 419.0250 C173.7520 419.0525 173.3548 419.0600 172.9933 419.1325 C172.9645 419.1400 172.2320 419.3150 172.1785 419.3575 C171.9057 419.5800 172.0375 424.2725 172.0388 425.0175 L172.0658 442.8800 C172.0757 445.7850 172.3837 448.8800 171.9770 451.7600 C171.7742 453.1950 171.3418 454.5900 170.5465 455.8125 C169.3127 457.7100 166.7245 459.9625 164.4800 460.3800 C160.5580 461.1125 156.4480 460.9150 152.4742 460.9050 L138.9583 460.9100 C132.9265 460.9325 123.9230 461.5050 118.3135 460.7025 C116.5755 460.4550 115.0533 459.7975 113.6113 458.8025 C112.0525 457.7250 110.4652 456.1975 109.7490 454.4075 C108.2043 450.5450 108.9925 431.5750 109.0080 425.9900 C109.0132 424.1175 109.3065 421.6550 108.9062 419.8400 C108.7805 419.2700 108.6382 419.3275 108.1762 419.0225 Z"></path>
<path id="" fill="#455a64" fill-opacity="1.0" stroke="#000000" stroke-width="0.0" stroke-opacity="1.0" stroke-linecap="round" stroke-linejoin="round"  filling="0" d="M339.9225 419.0500 C352.9125 419.2825 365.9450 419.0075 378.9375 418.9975 C387.6150 418.9925 396.4550 419.3800 405.1100 419.0100 C404.6900 419.0675 403.4350 419.1750 403.1900 419.5275 C402.4525 420.5825 403.7500 447.7525 402.8325 452.4175 C402.5000 454.1200 401.8575 455.4825 400.7400 456.8125 C398.0175 460.0550 394.9075 460.5300 390.9125 460.7825 C383.8950 461.2250 376.6700 460.8900 369.6275 460.9125 C363.5750 460.9325 354.0450 461.5600 348.3775 460.5375 C346.5325 460.2050 344.6725 459.1450 343.3000 457.8925 C341.8775 456.5950 340.9975 455.0750 340.5150 453.2125 C339.5675 449.5425 339.9400 445.3525 339.9500 441.5850 C339.9700 434.1175 340.3250 426.5000 339.9225 419.0500 Z"></path>
<path id="" fill="#9ea7d9" fill-opacity="1.0" stroke="#000000" stroke-width="0.0" stroke-opacity="1.0" stroke-linecap="round" stroke-linejoin="round"  filling="0" d="M133.2770 105.1110 C133.9990 105.0807 134.7213 105.0592 135.4438 105.0470 C153.2600 104.8262 171.1037 105.0608 188.9235 105.0545 L302.1250 105.0440 L356.0725 105.0573 L372.0075 105.0378 C375.6425 105.0327 379.3775 104.8815 382.9925 105.3278 C387.8700 105.9297 392.0725 108.1892 395.5525 111.6375 C398.7425 114.7968 401.8650 119.5010 402.6950 123.9688 C403.4825 128.2185 403.0050 133.3067 402.9975 137.6410 L402.9950 162.3752 L403.0300 255.8900 C403.0050 264.1525 399.9475 269.7950 394.1000 275.5325 C388.4475 281.0800 382.3225 283.0350 374.4475 282.9925 C370.9700 283.0075 367.6175 282.2575 364.1875 282.2200 C361.4275 282.1925 358.6875 282.9250 355.9225 282.9775 C345.9725 283.1700 335.9800 283.0075 326.0250 282.9875 C322.7075 282.9800 319.4725 282.5400 316.1775 282.4450 C314.4950 282.3975 312.8150 282.6475 311.1300 282.5650 C308.7425 282.4500 306.4000 281.9875 303.9975 281.9775 C301.1775 281.9650 298.4175 282.9275 295.6450 282.9100 L213.3135 282.9850 C199.0900 282.9850 184.8403 283.1750 170.6195 283.0075 C167.0392 282.9650 163.5638 282.1100 160.0013 282.0200 C157.2760 281.9525 154.6337 282.4625 151.9270 282.6225 C150.0405 282.7350 148.1517 282.4000 146.2635 282.4600 C144.2825 282.5225 142.2982 282.8425 140.3158 282.9575 C132.6413 283.4000 123.9045 281.9175 118.0145 276.6275 C113.2068 272.3100 109.5052 265.8575 109.1973 259.3325 C108.7000 248.7975 109.0940 238.0728 109.1025 227.5170 L109.0858 170.1962 L109.0835 139.9637 C109.0715 135.2487 108.5575 128.9790 109.2418 124.4595 C109.8802 120.2430 112.2253 115.8765 115.1097 112.7695 C120.0905 107.4045 126.1283 105.3910 133.2770 105.1110 Z"></path>
<path id="" fill="#263238" fill-opacity="1.0" stroke="#000000" stroke-width="0.0" stroke-opacity="1.0" stroke-linecap="round" stroke-linejoin="round"  filling="0" d="M124.9633 72.1183 C145.8795 71.7505 166.8633 72.0825 187.7858 72.0875 L307.0075 72.0872 L363.9650 72.0800 L379.6000 72.0768 C383.1300 72.0803 386.9175 71.8922 390.4050 72.4503 C393.8425 73.0000 398.1950 75.4135 400.1700 78.3050 C401.6350 80.4505 402.3875 82.7845 402.7125 85.3522 C403.2800 89.8625 403.0325 94.5403 403.0300 99.0855 L403.0100 120.8513 C403.0075 124.3915 403.5075 131.9753 402.9225 135.0013 C400.6325 135.7960 390.5150 135.5310 387.3750 135.5400 L197.3020 135.5918 L138.1385 135.5895 L120.3335 135.5307 C116.5655 135.5000 112.7230 135.2737 108.9677 135.5825 C109.1762 128.7535 109.0527 121.8838 109.0545 115.0502 C109.0565 107.3492 109.1745 99.6428 108.7375 91.9520 C108.4352 86.6325 109.2318 81.1963 112.9155 77.1395 C116.0837 73.6505 120.3925 72.3360 124.9633 72.1183 Z"></path>
<path id="" fill="#7986cb" fill-opacity="1.0" stroke="#000000" stroke-width="0.0" stroke-opacity="1.0" stroke-linecap="round" stroke-linejoin="round"  filling="0" d="M299.4450 188.0273 C304.2925 187.8055 309.1700 187.9265 314.0200 187.9362 L337.7250 187.9653 L350.9675 187.9070 C353.5650 187.8913 356.3325 187.7000 358.9000 188.0793 C361.4375 188.4540 363.7075 189.5273 365.6850 191.1458 C368.7750 193.6738 370.7300 197.4707 371.5600 201.3350 C372.8175 207.1800 371.3025 211.4425 371.4375 216.9350 C371.4925 219.2343 372.0050 221.5190 372.0800 223.8240 C372.2300 228.3528 372.0875 232.9212 372.0875 237.4543 C372.0875 243.7855 372.1750 250.1325 372.0625 256.4625 C372.0050 259.5950 371.4675 262.7050 371.2275 265.8250 C370.8325 270.9725 370.7125 277.5600 371.2700 282.6925 L371.3050 282.9950 C366.9850 282.7825 362.6300 282.8250 358.3025 282.7375 C356.8075 282.6450 355.3450 282.3400 353.8375 282.3525 C351.3500 282.3750 348.8625 282.7975 346.3775 282.7625 L312.4000 282.0225 C309.0375 281.9400 305.5275 282.6900 302.1425 282.8225 C297.0300 283.0225 292.1150 282.5000 287.0325 282.2050 C286.9575 278.6175 286.8875 274.9850 287.0825 271.4025 C287.2400 268.5125 287.6800 265.6425 287.8825 262.7575 C288.0625 260.2125 287.9950 257.6200 287.9900 255.0675 L287.9725 219.2615 C287.9675 213.0325 287.5825 206.5460 288.0525 200.3412 C288.1800 198.6470 288.7725 197.1203 289.5925 195.6475 C291.7325 191.8017 295.2550 189.2265 299.4450 188.0273 Z"></path>
<path id="" fill="#7986cb" fill-opacity="1.0" stroke="#000000" stroke-width="0.0" stroke-opacity="1.0" stroke-linecap="round" stroke-linejoin="round"  filling="0" d="M152.4365 188.0282 C156.7595 187.7800 161.1497 187.9353 165.4820 187.9350 L188.0280 187.9342 L202.3765 187.9345 C205.9178 187.9310 209.6082 187.6983 213.1090 188.3112 C215.2997 188.6950 217.3663 190.0132 219.0340 191.4585 C221.2985 193.4205 223.2242 196.1970 223.8335 199.1602 C224.6745 203.2515 224.0643 213.6682 224.0643 218.3208 L224.0652 259.9625 C224.0638 267.2350 223.6463 274.7950 224.2168 282.0400 C219.8152 281.8400 215.3625 281.9800 210.9550 281.9850 C196.3867 281.9850 181.7417 281.6750 167.1830 282.0225 C158.8560 282.2200 148.8743 283.9000 140.5980 282.5400 C140.4390 282.3775 140.3410 282.3025 140.2550 282.0650 C139.8647 280.9775 139.5777 211.0663 140.1285 204.6285 C140.3935 201.5293 141.1118 198.4267 142.6085 195.6803 C144.7480 191.7543 148.1930 189.2702 152.4365 188.0282 Z"></path>
<path id="" fill="#3949ab" fill-opacity="1.0" stroke="#000000" stroke-width="0.0" stroke-opacity="1.0" stroke-linecap="round" stroke-linejoin="round"  filling="0" d="M321.2375 230.0892 C329.4475 229.4885 338.1125 229.5912 346.0900 231.7218 C355.4850 234.2312 365.7650 239.7227 372.3900 247.0103 C374.4650 249.2915 376.2225 251.9550 377.7600 254.6225 C381.6825 261.4300 382.8200 269.3050 381.7250 277.0325 C381.5225 278.4625 381.3550 280.0700 380.9075 281.4475 C380.7550 281.9225 380.6400 282.2625 380.1750 282.4950 C378.8050 283.1825 359.8100 282.9425 357.8700 282.3475 C357.4550 281.0400 360.2075 275.9300 360.6150 274.1775 C361.4825 270.4325 359.9575 266.1550 357.9100 263.0125 C353.5550 256.3300 344.7625 253.0700 337.3050 251.5475 C330.4725 250.4925 323.4900 250.9450 316.8500 252.8725 C310.5150 254.7500 303.5850 258.2875 300.3650 264.3575 C298.3875 268.0875 297.2225 272.5550 299.1325 276.5375 C300.0375 278.4275 301.1575 280.2150 301.7500 282.2400 C301.7800 282.3400 301.8050 282.4425 301.8325 282.5450 C298.8525 282.9400 280.2475 283.3075 278.4525 282.2275 C277.9275 281.1500 277.7500 279.9825 277.5850 278.8050 C276.0250 267.6025 277.8325 258.4525 284.8150 249.3905 C293.2675 238.4227 307.7000 231.7840 321.2375 230.0892 Z"></path>
<path id="" fill="#64dd16" fill-opacity="1.0" stroke="#000000" stroke-width="0.0" stroke-opacity="1.0" stroke-linecap="round" stroke-linejoin="round"  filling="0" d="M129.9225 93.0658 L207.7245 93.0590 C220.4405 93.0595 233.1785 93.2095 245.8918 92.9810 C245.8000 100.2737 246.0047 107.5697 245.8335 114.8627 C239.5225 114.5363 233.1520 114.6842 226.8318 114.6820 L195.8755 114.6810 C173.9415 114.6833 151.9028 114.2175 129.9818 114.9080 C129.6310 107.6745 129.9015 100.3098 129.9225 93.0658 Z"></path>
<path id="" fill="#fff7e0" fill-opacity="1.0" stroke="#000000" stroke-width="0.0" stroke-opacity="1.0" stroke-linecap="round" stroke-linejoin="round"  filling="0" d="M362.6900 324.4075 C377.1175 322.4325 390.4150 332.5225 392.3950 346.9475 C394.3750 361.3725 384.2875 374.6725 369.8625 376.6575 C355.4325 378.6400 342.1275 368.5500 340.1450 354.1175 C338.1650 339.6875 348.2600 326.3850 362.6900 324.4075 Z"></path>
<path id="" fill="#fff7e0" fill-opacity="1.0" stroke="#000000" stroke-width="0.0" stroke-opacity="1.0" stroke-linecap="round" stroke-linejoin="round"  filling="0" d="M142.5580 324.3575 C157.0793 322.5750 170.2735 332.9600 171.9563 347.4925 C173.6390 362.0250 163.1667 375.1500 148.6228 376.7325 C134.2168 378.3025 121.2448 367.9525 119.5778 353.5575 C117.9110 339.1625 128.1745 326.1200 142.5580 324.3575 Z"></path>
<path id="" fill="#64dd17" fill-opacity="1.0" stroke="#000000" stroke-width="0.0" stroke-opacity="1.0" stroke-linecap="round" stroke-linejoin="round"  filling="0" d="M266.1725 93.0388 C280.3725 93.2880 294.6900 93.2258 308.8925 92.9828 C308.8175 100.2783 308.9875 107.5750 308.8375 114.8708 C302.7825 114.5078 296.6475 114.6805 290.5800 114.6800 C282.4575 114.6790 274.3350 114.6015 266.2175 114.9115 C266.1275 107.6220 266.2675 100.3295 266.1725 93.0388 Z"></path>
</svg>