<svg xmlns="http://www.w3.org/2000/svg" viewBox="0 0 512 512" height="512.0px" width="512.0px">
<path id="" fill="#fee082" fill-opacity="1.0" stroke="#000000" stroke-width="0.0" stroke-opacity="1.0" stroke-linecap="round" stroke-linejoin="round"  filling="0" d="M179.8112 68.0830 C182.1290 67.8205 184.4925 68.5160 186.7077 69.1350 C191.1195 70.3683 195.4688 71.9475 199.8120 73.4023 C208.7148 76.3730 217.5895 79.4277 226.4350 82.5655 C234.6452 85.4065 243.0047 87.8012 251.2450 90.5518 C256.5025 92.3070 261.6600 94.3073 266.9025 96.0992 C275.4525 99.0222 284.0425 101.6882 292.6650 104.3730 C297.9250 106.0100 306.1500 109.9545 311.4025 110.0813 C316.9825 108.8220 322.4975 106.6280 327.9300 104.8138 L357.1175 95.0760 C368.0025 91.4538 379.0250 88.3445 390.0025 85.0455 L415.9700 77.1800 C421.1000 75.6445 434.5975 70.7063 439.0300 70.7072 L439.0600 301.4450 L439.0600 372.6925 C439.0600 385.9100 438.7175 399.2400 439.2300 412.4450 C432.7725 414.3675 426.2075 416.3975 419.8300 418.5700 C416.5600 419.6850 413.3475 420.9800 410.0625 422.0525 L344.7750 443.5925 C338.0325 445.8375 331.2225 448.0250 324.5175 450.3775 C320.1175 451.9225 315.8225 453.7725 311.3075 454.9700 C310.0750 455.0675 308.8375 455.1475 307.6225 454.8550 C304.6625 454.1450 301.7100 452.7975 298.8175 451.8125 L279.8400 445.4700 L199.9450 418.9350 C195.3500 417.4575 185.0437 413.0025 180.6655 412.9050 C174.6585 413.2675 160.2993 419.0850 153.7030 421.3125 L83.1512 444.8050 L62.6362 451.6650 C58.9160 452.9100 54.9680 454.6100 51.1045 455.2350 C50.7740 448.8700 50.9518 442.4400 50.9507 436.0675 L50.9515 403.7325 L50.9588 304.8675 L50.9603 176.3262 L50.9463 134.3607 C50.9415 126.6158 50.7713 118.8262 51.0030 111.0867 C54.2075 109.0878 65.7820 105.8635 70.0830 104.4308 L116.8867 88.8200 L158.9263 74.8262 C165.7430 72.5627 172.7943 69.5703 179.8112 68.0830 Z"></path>
<path id="" fill="#ffecb3" fill-opacity="1.0" stroke="#000000" stroke-width="0.0" stroke-opacity="1.0" stroke-linecap="round" stroke-linejoin="round"  filling="0" d="M51.0030 111.0867 C54.2075 109.0878 65.7820 105.8635 70.0830 104.4308 L116.8867 88.8200 L158.9263 74.8262 C165.7430 72.5627 172.7943 69.5703 179.8112 68.0830 C180.7140 69.2112 180.5350 76.6687 180.5643 78.5895 C180.7175 88.6385 180.5582 98.7057 180.5513 108.7567 L180.5355 166.8500 L180.5542 345.9300 L180.5960 387.7475 C180.5968 394.6125 180.1828 401.6475 180.5835 408.4875 C180.6678 409.9250 180.8215 411.1175 181.3465 412.4750 L180.6655 412.9050 C174.6585 413.2675 160.2993 419.0850 153.7030 421.3125 L83.1512 444.8050 L62.6362 451.6650 C58.9160 452.9100 54.9680 454.6100 51.1045 455.2350 C50.7740 448.8700 50.9518 442.4400 50.9507 436.0675 L50.9515 403.7325 L50.9588 304.8675 L50.9603 176.3262 L50.9463 134.3607 C50.9415 126.6158 50.7713 118.8262 51.0030 111.0867 Z"></path>
<path id="" fill="#ffecb3" fill-opacity="1.0" stroke="#000000" stroke-width="0.0" stroke-opacity="1.0" stroke-linecap="round" stroke-linejoin="round"  filling="0" d="M311.4025 110.0813 C316.9825 108.8220 322.4975 106.6280 327.9300 104.8138 L357.1175 95.0760 C368.0025 91.4538 379.0250 88.3445 390.0025 85.0455 L415.9700 77.1800 C421.1000 75.6445 434.5975 70.7063 439.0300 70.7072 L439.0600 301.4450 L439.0600 372.6925 C439.0600 385.9100 438.7175 399.2400 439.2300 412.4450 C432.7725 414.3675 426.2075 416.3975 419.8300 418.5700 C416.5600 419.6850 413.3475 420.9800 410.0625 422.0525 L344.7750 443.5925 C338.0325 445.8375 331.2225 448.0250 324.5175 450.3775 C320.1175 451.9225 315.8225 453.7725 311.3075 454.9700 C310.8725 454.9025 310.6300 454.8300 310.2625 454.5825 C309.8500 450.4600 309.9850 446.2525 309.9900 442.1125 L310.0075 424.3150 L309.9950 367.2000 L310.0000 198.5872 L310.0050 142.1033 C309.9950 131.6820 310.2825 121.1783 309.7850 110.7697 C310.2050 110.2182 310.7475 110.2430 311.4025 110.0813 Z"></path>
<path id="" fill="#ff9800" fill-opacity="1.0" stroke="#000000" stroke-width="0.0" stroke-opacity="1.0" stroke-linecap="round" stroke-linejoin="round"  filling="0" d="M395.9475 73.5125 L403.8050 65.6825 C408.1000 61.3992 412.2700 56.3757 418.8575 56.4560 C421.3000 56.4857 423.8450 57.3358 425.8525 58.7458 C429.7500 61.4872 434.1800 66.7253 437.6225 70.1770 C443.6825 76.2565 449.9400 82.1795 455.8975 88.3572 C458.7750 91.3418 461.1175 94.4735 461.0850 98.8248 C461.0250 106.8735 449.5025 115.7412 444.1325 121.4893 C439.5875 125.8532 435.1150 130.2912 430.7175 134.8020 C428.2225 137.3318 422.2100 144.2502 419.3975 145.7405 C415.1300 149.0410 411.5050 153.0788 407.7475 156.9320 C402.4475 162.3667 397.1175 167.8780 391.6850 173.1740 C379.7500 184.8115 368.1500 196.7345 356.3725 208.5280 C348.7400 216.1718 340.8975 223.6230 333.3075 231.3062 C330.4025 234.2478 327.7450 237.4062 324.9325 240.4328 C321.7950 243.8078 318.4575 247.0530 315.1650 250.2775 C312.6525 252.7400 309.8050 254.8300 307.2775 257.2750 C302.6200 261.7725 298.1200 266.4575 293.5550 271.0525 C291.5075 273.1125 289.0650 276.2425 286.5650 277.6550 C282.6925 279.8325 270.1425 282.2375 265.2575 283.4950 C262.0525 284.3225 258.7425 285.5450 255.5025 286.1375 C252.0000 287.1100 248.3282 287.6900 244.7858 288.5700 C237.8570 290.2950 231.1003 292.2925 224.0043 293.2325 C224.5705 288.4900 226.0013 283.7800 227.1525 279.1500 L231.5355 261.2825 C234.6930 251.5625 236.4115 240.6897 239.3517 230.7652 C240.9288 227.7005 248.1265 221.3907 250.8875 218.6315 L271.2125 198.3085 L371.7950 97.7140 C373.7150 95.6545 375.7275 93.3033 377.9450 91.5775 C377.9375 90.6243 377.8575 89.4843 378.2650 88.5948 C378.9575 87.0845 381.4975 86.6510 382.9425 86.0793 C383.1025 85.9388 383.2600 85.7960 383.4225 85.6600 C387.8575 81.9702 391.7600 77.4993 395.9475 73.5125 Z"></path>
<path id="" fill="#b0bec4" fill-opacity="1.0" stroke="#000000" stroke-width="0.0" stroke-opacity="1.0" stroke-linecap="round" stroke-linejoin="round"  filling="0" d="M395.9475 73.5125 L403.8050 65.6825 C408.1000 61.3992 412.2700 56.3757 418.8575 56.4560 C421.3000 56.4857 423.8450 57.3358 425.8525 58.7458 C429.7500 61.4872 434.1800 66.7253 437.6225 70.1770 C443.6825 76.2565 449.9400 82.1795 455.8975 88.3572 C458.7750 91.3418 461.1175 94.4735 461.0850 98.8248 C461.0250 106.8735 449.5025 115.7412 444.1325 121.4893 C439.5875 125.8532 435.1150 130.2912 430.7175 134.8020 C428.2225 137.3318 422.2100 144.2502 419.3975 145.7405 C419.0025 144.9102 418.4700 144.2493 417.8375 143.5872 C407.9400 133.2560 397.5725 123.3053 387.4500 113.1850 L377.3650 103.1068 C375.5750 101.3188 373.7950 99.2567 371.7950 97.7140 C373.7150 95.6545 375.7275 93.3033 377.9450 91.5775 C377.9375 90.6243 377.8575 89.4843 378.2650 88.5948 C378.9575 87.0845 381.4975 86.6510 382.9425 86.0793 C383.1025 85.9388 383.2600 85.7960 383.4225 85.6600 C387.8575 81.9702 391.7600 77.4993 395.9475 73.5125 Z"></path>
<path id="" fill="#e57373" fill-opacity="1.0" stroke="#000000" stroke-width="0.0" stroke-opacity="1.0" stroke-linecap="round" stroke-linejoin="round"  filling="0" d="M395.9475 73.5125 L403.8050 65.6825 C408.1000 61.3992 412.2700 56.3757 418.8575 56.4560 C421.3000 56.4857 423.8450 57.3358 425.8525 58.7458 C429.7500 61.4872 434.1800 66.7253 437.6225 70.1770 C443.6825 76.2565 449.9400 82.1795 455.8975 88.3572 C458.7750 91.3418 461.1175 94.4735 461.0850 98.8248 C461.0250 106.8735 449.5025 115.7412 444.1325 121.4893 C443.3150 121.1215 442.6775 120.7063 442.0050 120.1113 C434.3175 113.2937 426.5200 104.8365 419.1900 97.5007 C415.3725 93.6817 397.4900 76.5870 395.9475 73.5125 Z"></path>
<path id="" fill="#ffecb3" fill-opacity="1.0" stroke="#000000" stroke-width="0.0" stroke-opacity="1.0" stroke-linecap="round" stroke-linejoin="round"  filling="0" d="M377.9450 91.5775 C377.9375 90.6243 377.8575 89.4843 378.2650 88.5948 C378.9575 87.0845 381.4975 86.6510 382.9425 86.0793 C382.7375 88.0967 380.1425 90.0120 378.6225 91.2275 C378.4025 91.4020 378.2100 91.4965 377.9450 91.5775 Z"></path>
<path id="" fill="#ffc107" fill-opacity="1.0" stroke="#000000" stroke-width="0.0" stroke-opacity="1.0" stroke-linecap="round" stroke-linejoin="round"  filling="0" d="M239.3517 230.7652 C240.0755 231.0345 240.6777 231.3695 241.2563 231.8878 C244.4975 234.7917 247.5065 238.0788 250.5850 241.1593 L267.7200 258.2825 L279.0600 269.6175 C281.6075 272.1650 284.4950 274.7000 286.5650 277.6550 C282.6925 279.8325 270.1425 282.2375 265.2575 283.4950 C262.0525 284.3225 258.7425 285.5450 255.5025 286.1375 C252.0000 287.1100 248.3282 287.6900 244.7858 288.5700 C237.8570 290.2950 231.1003 292.2925 224.0043 293.2325 C224.5705 288.4900 226.0013 283.7800 227.1525 279.1500 L231.5355 261.2825 C234.6930 251.5625 236.4115 240.6897 239.3517 230.7652 Z"></path>
<path id="" fill="#37474e" fill-opacity="1.0" stroke="#000000" stroke-width="0.0" stroke-opacity="1.0" stroke-linecap="round" stroke-linejoin="round"  filling="0" d="M224.0043 293.2325 C224.5705 288.4900 226.0013 283.7800 227.1525 279.1500 L231.5355 261.2825 C231.8372 262.5925 247.3905 277.5425 249.4382 279.5850 C251.3850 281.5250 254.1725 283.7575 255.5025 286.1375 C252.0000 287.1100 248.3282 287.6900 244.7858 288.5700 C237.8570 290.2950 231.1003 292.2925 224.0043 293.2325 Z"></path>
</svg>