<svg xmlns="http://www.w3.org/2000/svg" viewBox="0 0 512 512" height="512.0px" width="512.0px">
<path id="" fill="#bcaaa4" fill-opacity="1.0" stroke="#000000" stroke-width="0.0" stroke-opacity="1.0" stroke-linecap="round" stroke-linejoin="round"  filling="0" d="M128.9440 129.0358 C130.4323 128.4348 131.5770 128.9725 132.9770 129.5733 C136.3820 131.0345 139.6235 133.1873 142.8533 135.0067 C147.8907 137.8445 153.0018 140.5668 158.0685 143.3533 C178.6873 154.6930 199.6420 165.4600 220.3658 176.6050 C231.7555 182.7303 242.9753 189.7413 254.7875 195.0143 C255.3575 195.2693 255.8550 195.3045 256.4750 195.3403 C256.7800 195.2420 257.0800 195.1367 257.3825 195.0338 C260.0500 194.1243 262.5625 192.2903 265.0600 190.9653 L288.0950 178.4530 C309.8975 166.4668 331.8675 154.7872 354.0000 143.4178 C363.3075 138.6243 372.3600 133.0607 382.0800 129.0892 C382.8125 128.8670 383.0175 128.7762 383.7875 128.9357 C384.0575 129.5250 384.0050 129.8615 383.8000 130.4810 C382.8425 133.3595 380.6050 136.2802 379.1075 138.9330 C376.4950 143.5603 373.9575 148.2930 371.4725 152.9900 L329.1100 232.1850 C325.7975 238.3910 322.1250 244.4355 319.0025 250.7325 C318.2600 252.2300 317.2525 253.8875 316.7800 255.4800 C317.8675 258.4550 319.9475 261.2600 321.4850 264.0400 C323.0675 266.8975 324.4525 269.8575 325.9850 272.7425 C327.3575 275.3275 328.8900 277.8225 330.2500 280.4150 L350.5925 319.0450 C352.8450 323.3075 354.7625 327.7525 357.0725 331.9800 L372.3150 360.3675 C376.0375 367.2050 380.2250 374.1650 383.1325 381.4000 C383.2500 381.8375 383.3075 382.0925 383.2350 382.5525 C383.1625 383.0075 383.0675 382.9600 382.7250 383.2125 C381.2150 383.4300 379.5700 382.6725 378.2475 381.9950 C374.2300 379.9400 370.3850 377.5350 366.4325 375.3525 C357.3275 370.3250 348.1575 365.2650 338.9425 360.4400 C329.6150 355.5550 320.2375 350.7450 310.9725 345.7300 L285.4200 331.6900 C275.8975 326.5725 266.0100 321.9350 256.6750 316.4900 C251.9600 317.7425 245.1028 322.4950 240.4422 324.8550 C213.6588 338.4075 187.4212 353.0875 160.9020 367.1575 C156.1475 369.6800 151.3455 372.2275 146.6440 374.8450 C143.3100 376.7025 140.0275 378.7300 136.5995 380.4050 C134.4203 381.4700 131.3963 383.2250 128.9470 382.9325 C128.9790 381.9175 128.9933 380.9250 129.4102 379.9800 C131.2650 375.7750 133.7850 371.6600 135.9758 367.6200 L146.9800 347.0375 C160.5983 321.6175 174.0647 296.1150 187.3790 270.5325 C188.9455 267.5150 190.5397 264.5125 192.1615 261.5225 C193.2162 259.6075 194.5437 257.6575 195.3100 255.6125 C194.3177 253.4100 192.7155 251.3425 191.5900 249.1625 L150.0497 170.2222 L135.1665 142.4400 C133.6512 139.5903 131.8978 136.8488 130.4940 133.9442 C129.7280 132.3595 129.0237 130.8215 128.9440 129.0358 Z"></path>
<path id="" fill="#795548" fill-opacity="1.0" stroke="#000000" stroke-width="0.0" stroke-opacity="1.0" stroke-linecap="round" stroke-linejoin="round"  filling="0" d="M195.3100 255.6125 C197.8040 254.8725 203.4308 255.6025 206.2923 255.6250 L236.6342 255.9225 C242.6555 255.9900 250.7050 255.0525 256.4100 256.2150 C258.8925 259.7375 263.6800 263.6850 266.8275 266.7525 C272.2700 272.0625 277.7950 277.6975 283.1750 283.0950 L351.9800 351.8400 C359.0725 358.8950 366.1125 366.0025 373.0975 373.1650 C375.3800 375.5150 379.8325 380.8650 382.1325 382.5300 L382.6675 382.5875 C383.0325 382.2025 383.0525 381.9100 383.1325 381.4000 C383.2500 381.8375 383.3075 382.0925 383.2350 382.5525 C383.1625 383.0075 383.0675 382.9600 382.7250 383.2125 C381.2150 383.4300 379.5700 382.6725 378.2475 381.9950 C374.2300 379.9400 370.3850 377.5350 366.4325 375.3525 C357.3275 370.3250 348.1575 365.2650 338.9425 360.4400 C329.6150 355.5550 320.2375 350.7450 310.9725 345.7300 L285.4200 331.6900 C275.8975 326.5725 266.0100 321.9350 256.6750 316.4900 C251.9600 317.7425 245.1028 322.4950 240.4422 324.8550 C213.6588 338.4075 187.4212 353.0875 160.9020 367.1575 C156.1475 369.6800 151.3455 372.2275 146.6440 374.8450 C143.3100 376.7025 140.0275 378.7300 136.5995 380.4050 C134.4203 381.4700 131.3963 383.2250 128.9470 382.9325 C128.9790 381.9175 128.9933 380.9250 129.4102 379.9800 C131.2650 375.7750 133.7850 371.6600 135.9758 367.6200 L146.9800 347.0375 C160.5983 321.6175 174.0647 296.1150 187.3790 270.5325 C188.9455 267.5150 190.5397 264.5125 192.1615 261.5225 C193.2162 259.6075 194.5437 257.6575 195.3100 255.6125 Z"></path>
<path id="" fill="#bcaaa4" fill-opacity="1.0" stroke="#000000" stroke-width="0.0" stroke-opacity="1.0" stroke-linecap="round" stroke-linejoin="round"  filling="0" d="M128.9470 382.9325 C129.0468 382.6625 129.1450 382.3500 129.3347 382.1225 C129.7425 381.6375 130.4520 381.2250 130.9263 380.7550 L137.9397 373.9375 C143.6617 368.4275 149.3203 362.7550 154.8893 357.0850 L215.1337 296.3075 L234.7015 276.6075 C241.5712 269.5925 248.4050 262.3050 255.9625 256.0250 C256.6325 262.3125 256.1175 268.9800 256.0625 275.3050 C255.9875 284.1825 256.1550 293.0500 256.1625 301.9250 C256.1650 305.3000 255.4275 313.6400 256.6750 316.4900 C251.9600 317.7425 245.1028 322.4950 240.4422 324.8550 C213.6588 338.4075 187.4212 353.0875 160.9020 367.1575 C156.1475 369.6800 151.3455 372.2275 146.6440 374.8450 C143.3100 376.7025 140.0275 378.7300 136.5995 380.4050 C134.4203 381.4700 131.3963 383.2250 128.9470 382.9325 Z"></path>
<path id="" fill="#795548" fill-opacity="1.0" stroke="#000000" stroke-width="0.0" stroke-opacity="1.0" stroke-linecap="round" stroke-linejoin="round"  filling="0" d="M128.9440 129.0358 C130.4323 128.4348 131.5770 128.9725 132.9770 129.5733 C136.3820 131.0345 139.6235 133.1873 142.8533 135.0067 C147.8907 137.8445 153.0018 140.5668 158.0685 143.3533 C178.6873 154.6930 199.6420 165.4600 220.3658 176.6050 C231.7555 182.7303 242.9753 189.7413 254.7875 195.0143 C255.3575 195.2693 255.8550 195.3045 256.4750 195.3403 L255.7600 195.5983 C256.0725 196.1003 256.2875 196.6040 256.3075 197.2018 C256.3650 198.9473 256.1075 200.7943 256.0650 202.5502 C255.9925 206.4040 255.9600 210.2587 255.9725 214.1133 C256.0475 227.7077 256.0025 241.3027 255.8400 254.8975 C252.9000 252.8625 250.5425 249.9913 248.0445 247.4592 C244.3873 243.7520 240.6958 240.0495 236.9733 236.4077 L155.8735 155.7702 C151.2100 151.0770 146.4310 146.4460 141.8582 141.6703 C139.0380 138.7253 136.4440 135.5578 133.5443 132.6900 C132.3358 131.4950 130.5482 129.3895 128.9440 129.0358 Z"></path>
<path id="" fill="#795548" fill-opacity="1.0" stroke="#000000" stroke-width="0.0" stroke-opacity="1.0" stroke-linecap="round" stroke-linejoin="round"  filling="0" d="M382.0800 129.0892 C382.8125 128.8670 383.0175 128.7762 383.7875 128.9357 C384.0575 129.5250 384.0050 129.8615 383.8000 130.4810 C382.8425 133.3595 380.6050 136.2802 379.1075 138.9330 C376.4950 143.5603 373.9575 148.2930 371.4725 152.9900 L329.1100 232.1850 C325.7975 238.3910 322.1250 244.4355 319.0025 250.7325 C318.2600 252.2300 317.2525 253.8875 316.7800 255.4800 L316.5075 255.1825 C316.1075 255.5525 315.8400 255.8100 315.2725 255.8375 C311.2650 256.0225 307.0000 255.5550 302.9600 255.5200 L271.5350 255.3575 C266.7275 255.3300 261.6275 254.8750 256.8550 255.4975 L343.2900 169.1080 L373.6775 138.6775 C376.3375 135.9848 379.2225 133.4565 381.8125 130.7130 C382.1950 130.3067 382.4075 130.0638 382.5100 129.4970 L382.0800 129.0892 Z"></path>
<path id="" fill="#90caf8" fill-opacity="1.0" stroke="#000000" stroke-width="0.0" stroke-opacity="1.0" stroke-linecap="round" stroke-linejoin="round"  filling="0" d="M256.0350 54.6355 C256.1075 54.6400 256.1800 54.6390 256.2525 54.6492 C258.2800 54.9323 259.0850 59.7343 259.5425 61.4735 C260.6300 65.6285 262.2400 69.7377 263.4800 73.8645 L272.9750 105.2575 L292.5175 170.0132 C293.6225 173.7150 294.4175 177.4985 295.4425 181.2218 C296.7575 185.9970 298.3350 190.7312 299.8700 195.4408 C300.9125 198.6427 301.8650 202.0098 303.4200 205.0098 C304.0700 206.2650 304.9425 207.4218 305.7650 208.5675 C309.0650 210.0240 312.6625 210.7940 316.1125 211.8180 C323.6850 214.0658 331.3225 216.2100 338.8600 218.5703 L421.0350 243.7690 C431.3900 246.9690 441.9875 249.7630 452.2275 253.2850 C453.6900 253.7875 455.6325 254.3800 456.3575 255.8650 C455.9850 258.1825 451.0700 259.1425 449.1000 259.7475 L323.4600 297.6350 C320.7600 298.4650 307.1425 301.8325 305.9400 302.7900 C304.7675 303.7225 303.8500 305.7850 303.2950 307.1800 C301.9550 310.5500 301.0275 314.1900 299.9625 317.6600 L294.0550 336.7625 C284.6375 366.5200 276.1350 396.5575 266.7400 426.3225 C264.9950 431.9075 263.2975 437.5075 261.6475 443.1200 C260.5050 446.9375 259.4550 450.8375 257.9225 454.5225 C257.5625 455.3825 257.2425 455.9125 256.5000 456.4900 C255.3550 455.9325 254.8425 455.3200 254.3125 454.1650 C252.4050 450.0075 251.4000 445.2400 250.0450 440.8650 C247.5123 432.6975 244.8815 424.5625 242.4245 416.3700 L219.6640 342.4800 C218.5327 338.8525 217.8150 335.1275 216.7935 331.4700 C214.7930 324.3100 212.4393 316.9400 209.7780 310.0025 C208.8675 307.6275 207.8930 305.0850 205.5847 303.7400 C203.1087 302.2950 200.0658 301.6275 197.3448 300.7625 C191.6390 298.9475 185.8692 297.3175 180.1770 295.4775 C151.4597 286.4050 122.6808 277.5325 93.8412 268.8575 L71.1655 262.0150 C66.8463 260.7075 62.4182 259.7200 58.2825 257.8600 C57.2583 257.4000 55.9738 256.8575 55.5547 255.7425 C55.7928 255.2250 55.9870 255.1600 56.4747 254.8975 C60.7155 252.6000 66.2135 251.5825 70.8152 250.1650 C83.0460 246.2665 95.3378 242.5615 107.6860 239.0520 C128.6845 232.8788 149.4597 225.9012 170.4680 219.7860 L193.7592 213.0213 C196.9698 212.0825 200.4010 211.4690 203.5335 210.3277 C204.2835 210.0545 205.0300 209.7325 205.6328 209.1985 C207.3820 207.6487 208.5920 205.0988 209.4727 202.9633 C210.5878 200.2592 211.3017 197.3078 212.1463 194.5058 C213.9377 188.5625 215.6342 182.5797 217.4805 176.6545 C225.3403 152.2655 232.9485 127.7962 240.3042 103.2507 L249.4390 72.7885 C250.9825 67.6273 252.2975 62.2075 254.1500 57.1660 C254.5725 56.0130 255.1125 55.4283 256.0350 54.6355 Z"></path>
<path id="" fill="#795548" fill-opacity="1.0" stroke="#000000" stroke-width="0.0" stroke-opacity="1.0" stroke-linecap="round" stroke-linejoin="round"  filling="0" d="M375.6650 136.3015 C375.4825 136.0103 375.2825 135.7133 375.1625 135.3890 C374.8675 134.5985 374.9125 133.7805 375.3050 133.0335 C376.1075 131.5105 377.4675 130.5143 379.0975 130.0155 C380.0450 129.7255 380.5250 129.9642 381.3250 130.4215 C381.9300 131.6628 382.2925 132.6950 381.8200 134.0605 C381.4950 134.9995 380.7075 135.5578 379.8225 135.9135 C378.4600 136.4610 377.0950 136.3768 375.6650 136.3015 Z"></path>
<path id="" fill="#bcaaa4" fill-opacity="1.0" stroke="#000000" stroke-width="0.0" stroke-opacity="1.0" stroke-linecap="round" stroke-linejoin="round"  filling="0" d="M375.6650 136.3015 C375.4825 136.0103 375.2825 135.7133 375.1625 135.3890 C374.8675 134.5985 374.9125 133.7805 375.3050 133.0335 C376.1075 131.5105 377.4675 130.5143 379.0975 130.0155 C380.0450 129.7255 380.5250 129.9642 381.3250 130.4215 C379.4525 132.3850 377.4700 134.2780 375.6650 136.3015 Z"></path>
<path id="" fill="#1976d2" fill-opacity="1.0" stroke="#000000" stroke-width="0.0" stroke-opacity="1.0" stroke-linecap="round" stroke-linejoin="round"  filling="0" d="M256.0800 58.6620 C256.1725 58.6622 256.2650 58.6595 256.3575 58.6630 C257.1900 58.6940 257.8075 58.8195 258.3600 59.4897 C259.8700 61.3278 266.8225 86.1225 268.2400 90.7505 L293.6725 174.0725 C296.1125 181.7985 298.4950 189.5435 300.8125 197.3070 C301.7250 200.2485 302.8200 203.1503 303.6550 206.1122 C303.8050 206.6545 304.1550 207.8245 303.9800 208.3765 C303.6025 209.5807 297.7750 214.8893 296.4000 216.2615 L272.7275 239.8938 C268.5750 244.0307 263.9550 248.1028 260.1725 252.5600 C259.4750 253.3800 258.5775 254.4200 258.5125 255.5325 C261.1075 256.4725 286.0675 255.9525 290.5950 255.9525 L401.8500 255.9400 L435.8900 255.9250 C440.9125 255.9125 446.2800 255.3675 451.2575 255.8475 C452.3625 255.9550 453.5550 256.0750 454.2950 256.9575 C454.1475 257.3800 454.0100 257.5175 453.6400 257.7925 C450.7525 259.9375 412.0325 271.0975 405.6600 273.0250 L336.3275 294.2175 L317.7875 299.8300 C314.1875 300.9325 310.2475 301.8175 306.9175 303.6025 C306.1750 304.0000 305.8475 304.4250 305.3075 305.0425 C304.8925 305.5200 304.6550 305.8525 304.0000 305.8700 C303.9375 305.7300 303.7825 305.3825 303.7500 305.2625 C303.5850 304.6925 303.6225 304.5500 303.2225 304.0600 C300.4650 300.6825 297.1975 297.6675 294.1175 294.5875 L279.6925 280.1750 L267.3200 267.7775 C263.8575 264.2800 260.5300 260.6325 256.5575 257.6975 L256.5050 258.0450 C255.4650 264.6525 256.0750 272.1700 256.0800 278.9000 L256.0775 316.6825 L256.1225 453.0325 C256.0825 453.6200 256.0800 454.1225 255.7900 454.6550 L255.3200 454.6500 C253.8275 453.6625 253.1825 452.0025 252.5675 450.3700 C250.6400 445.2500 249.2990 439.7225 247.7060 434.4725 L238.3705 403.7875 C228.3712 370.4825 218.1732 337.2350 207.7770 304.0500 C209.8605 300.7650 215.0797 296.3500 217.9543 293.4975 L240.7747 270.6925 C244.6297 266.8550 249.0540 263.0500 252.5550 258.9075 C253.0725 258.2975 253.4450 257.6625 253.6725 256.9000 C252.8125 256.0925 250.8900 256.1450 249.7278 256.1000 C242.8865 255.8425 235.9790 256.0450 229.1300 256.0500 L191.9915 256.0500 L77.6592 256.0525 C74.2563 256.0375 70.8535 256.0525 67.4507 256.1025 C65.2840 256.1500 63.0670 256.3700 60.9060 256.2900 C59.9750 256.2550 58.7350 256.2200 57.9645 255.6250 C57.6628 255.3925 57.7632 255.2250 57.7547 254.8800 C58.4953 253.8450 59.7982 253.2900 60.9612 252.8575 C68.0365 250.2375 75.6375 248.2617 82.8808 246.1308 C90.9798 243.7482 99.0293 241.1820 107.1105 238.7372 C140.8075 228.5425 174.6463 218.6122 208.1635 207.8503 C212.4745 211.3508 216.3438 215.8050 220.2780 219.7415 L243.7188 243.2160 C245.9940 245.5018 252.6900 252.9650 255.2375 253.9950 C255.6200 253.3200 255.8775 252.6500 255.9200 251.8650 C256.2300 245.9713 255.9650 239.9390 255.9650 234.0278 L255.9700 198.7745 L255.9700 91.5950 L255.9550 72.0895 C255.9350 67.7270 255.7450 63.2842 256.0575 58.9342 L256.0800 58.6620 Z"></path>
</svg>