<svg xmlns="http://www.w3.org/2000/svg" viewBox="0 0 512 512" height="512.0px" width="512.0px">
<path id="" fill="#c4c9e8" fill-opacity="1.0" stroke="#000000" stroke-width="0.0" stroke-opacity="1.0" stroke-linecap="round" stroke-linejoin="round"  filling="0" d="M228.4677 162.7850 C228.7422 162.7585 228.9785 162.7270 229.2585 162.7415 C230.8073 162.8225 231.3952 164.7762 232.2953 165.8313 L232.4575 166.0182 C240.0242 165.8695 247.6055 165.9393 255.1725 165.9332 C260.3025 165.9292 265.5025 165.7510 270.6225 166.0365 C273.5375 166.1990 276.4400 166.7135 279.3475 166.9960 C280.3825 165.9772 281.0650 164.6355 282.1275 163.6398 C282.6575 163.1420 283.1875 162.8295 283.9325 162.8757 C286.9650 163.0640 290.5925 165.2060 293.2800 166.5490 C297.0575 168.4355 300.9925 170.2370 304.6175 172.4025 C310.7350 176.0580 318.7150 182.5623 323.3525 187.8880 C331.4875 197.2305 338.3725 208.1908 341.4800 220.2980 C345.1725 234.6875 344.1000 249.6803 344.0925 264.4075 L344.0800 306.1300 L344.0850 341.5600 C344.0900 347.6600 344.4450 353.9300 344.0100 360.0025 C357.0400 359.7725 370.1000 359.9325 383.1325 359.9200 C382.9225 366.1700 383.0800 372.4700 383.0825 378.7250 L383.0950 413.5225 C383.0975 419.2800 383.2350 425.0825 383.0050 430.8375 C382.8800 433.9475 382.1300 437.0125 381.9550 440.1300 C369.8325 438.2525 357.2375 439.0150 344.9850 439.0150 L288.6250 439.0175 L156.9557 439.0175 C151.1210 439.0175 145.2448 438.8550 139.4142 438.9925 C136.4960 439.0625 132.3777 440.2325 129.6458 439.5100 C129.0542 438.4200 129.0768 436.5450 129.0230 435.2975 C128.6577 426.7850 128.9803 418.1200 128.9812 409.5950 L128.9868 359.9450 C142.3030 359.6025 155.7235 359.8975 169.0495 359.9725 C168.9725 349.3200 168.9535 338.6675 168.9922 328.0150 L168.9937 271.1075 L168.9863 243.2280 C168.9818 237.8253 168.5705 232.1280 169.3943 226.7878 C170.8630 217.2670 174.8180 207.9668 179.8085 199.7705 C188.4055 185.6510 201.9530 174.8952 216.5860 167.5853 C220.4763 165.6420 224.2157 163.8125 228.4677 162.7850 Z"></path>
<path id="" fill="#9fa8da" fill-opacity="1.0" stroke="#000000" stroke-width="0.0" stroke-opacity="1.0" stroke-linecap="round" stroke-linejoin="round"  filling="0" d="M168.1472 431.2400 C168.1998 430.4150 168.1297 429.3750 168.4913 428.6300 C168.7222 429.1425 168.9017 429.6025 169.0247 430.1525 L169.1355 430.8925 C170.8045 432.0775 184.6333 432.4450 186.7525 431.6850 C186.8970 431.6350 187.0280 431.5500 187.1658 431.4825 C191.2175 431.3100 195.2722 431.2275 199.3277 431.2325 C201.8647 431.2225 204.6830 431.4525 207.1792 431.0475 C207.4557 431.0025 207.7300 430.9775 207.9765 431.1425 C211.2230 431.5425 223.5043 432.8225 226.1300 431.4800 C228.5612 431.3475 245.1200 430.8125 246.4800 431.5100 C246.6897 431.6200 246.8367 431.8200 247.0152 431.9750 C252.4600 431.7950 260.6375 432.7075 265.7000 431.4800 C268.2850 431.3950 284.5850 430.7150 285.8250 431.7800 C285.8975 431.8400 285.9500 431.9175 286.0100 431.9875 C289.0800 431.8950 302.2300 432.5250 304.1125 431.4800 C307.6025 431.3800 322.5575 430.6925 325.0175 431.6625 C325.1050 431.7050 325.1900 431.7575 325.2825 431.7900 C326.8050 432.3325 341.6475 432.0725 343.3125 431.4575 C349.3275 430.9750 357.5700 430.9800 363.5750 431.5600 L364.0100 431.9775 C368.6650 431.8550 377.0525 431.3925 381.4175 432.1875 C383.1925 432.5100 384.8825 433.1950 386.3775 434.2050 C389.6500 436.3950 392.0025 440.1350 392.6400 444.0200 C393.2250 447.5725 392.1025 451.6450 389.9875 454.5450 C387.6525 457.7400 383.9075 460.2175 379.9875 460.8350 C376.9300 461.3150 373.6400 461.0150 370.5500 461.0025 L355.0225 460.9975 L296.0850 460.9975 L188.0580 461.0000 L153.2088 461.0125 C146.8893 461.0150 140.4828 461.2550 134.1772 460.9275 C130.9142 460.7575 128.3763 460.0700 125.7365 458.1075 C122.3077 455.5550 119.9130 451.8925 119.3680 447.6125 C118.8913 443.8650 120.1195 440.2350 122.4268 437.2925 C128.8902 429.0475 138.9718 432.8700 147.9012 431.6150 C147.9825 431.6025 148.0635 431.5900 148.1445 431.5775 C154.6335 430.7900 161.6087 431.2550 168.1472 431.2400 Z"></path>
<path id="" fill="#9fa8da" fill-opacity="1.0" stroke="#000000" stroke-width="0.0" stroke-opacity="1.0" stroke-linecap="round" stroke-linejoin="round"  filling="0" d="M187.2442 333.8225 C193.9722 334.4200 200.9475 333.8025 207.6690 333.7150 C207.7455 333.7150 207.8152 333.7600 207.8885 333.7800 C210.1413 334.3650 223.7218 334.1450 226.2878 333.7700 C229.0988 334.1925 232.1362 334.0000 234.9815 333.9950 C238.9812 333.9875 242.9942 334.0325 246.9928 333.9450 C253.1750 334.0700 259.3650 333.8150 265.5450 334.0050 C272.3500 333.8425 279.1900 334.2050 285.9900 333.9075 C288.4975 334.1625 291.1800 333.9825 293.7025 333.9725 C297.1950 333.9550 300.7200 334.0350 304.2075 333.8325 C311.0075 334.4200 318.1675 333.9800 325.0025 333.9375 C337.9500 334.2350 350.9625 333.9425 363.9200 333.9375 C369.1825 333.9375 376.7075 333.3400 381.7400 334.4250 C384.2800 334.9750 386.5300 336.5350 388.3125 338.3900 C390.9975 341.1875 392.7450 344.7000 392.6875 348.6375 C392.6325 352.3700 390.7100 356.9725 388.0175 359.5375 C382.8475 364.4700 374.6100 362.9100 368.0725 362.9825 C366.8050 362.9975 365.0925 362.8700 363.9225 363.3175 C361.2950 363.9750 346.1650 363.7750 343.1900 363.2650 C342.1375 362.6575 326.8200 362.9050 324.9300 363.2825 C319.2925 363.9325 309.7200 364.1425 304.2050 363.3175 L303.9275 363.1275 C300.8475 362.8575 288.7850 362.6350 285.9300 363.2700 C281.6150 363.8550 269.5000 363.8950 265.2200 363.2475 C263.4500 362.6175 248.9275 362.8200 246.9328 363.3050 C243.0120 364.0125 230.1500 363.9000 226.2182 363.3125 L225.9295 363.1275 C222.4612 362.8700 210.8745 362.5725 207.9453 363.3000 C204.4225 364.0575 190.8875 363.8575 187.2242 363.2925 C185.8598 362.6050 170.3895 362.8750 168.9020 363.3275 C166.1275 363.9925 151.2493 363.8275 148.2045 363.2925 C147.2740 362.8325 145.9660 362.9675 144.9328 362.9550 C138.3522 362.8775 130.4008 364.4075 124.8730 359.9450 C121.8958 357.5400 119.5098 353.1750 119.1633 349.3575 C118.8390 345.7900 120.5092 342.2050 122.8343 339.5750 C124.8788 337.2625 127.7925 334.9900 130.8430 334.2775 C134.9008 333.3275 141.2787 333.9600 145.5970 333.9625 L171.8728 333.9650 C176.8555 333.9625 181.9405 334.1500 186.9115 333.8450 L187.2442 333.8225 Z"></path>
<path id="" fill="#9fa8da" fill-opacity="1.0" stroke="#000000" stroke-width="0.0" stroke-opacity="1.0" stroke-linecap="round" stroke-linejoin="round"  filling="0" d="M187.1743 266.0075 C180.2680 266.0250 164.8890 266.7950 158.9725 265.1325 C156.7380 264.5050 154.8418 263.4200 153.2015 261.7650 C150.1398 258.6775 148.8660 254.9125 148.9012 250.6075 C148.9317 246.9100 150.0645 243.5782 152.7585 240.9388 C156.3330 237.4365 161.0205 236.1512 165.9182 236.2943 C169.5090 236.3992 173.0822 236.8517 176.6790 236.9368 C193.5432 237.3355 210.5080 236.9483 227.3817 236.9470 L328.8450 236.9453 C332.3775 236.9460 335.9250 236.9962 339.4550 236.8338 C342.2725 236.7038 345.1200 236.3143 347.9375 236.3387 C349.6900 236.3540 351.6250 236.3862 353.2225 237.1398 C357.4175 239.1205 360.5125 240.8780 362.2875 245.4252 C363.7350 249.1322 363.5775 253.8250 361.9075 257.4300 C360.3300 260.8375 357.5700 263.5500 354.0350 264.8725 C348.6725 266.8775 331.2950 266.0250 324.9750 266.0275 L304.1725 266.0225 C298.1075 266.0625 292.0425 266.0475 285.9775 265.9775 C279.1525 265.8125 272.0075 265.7100 265.2000 266.1100 C260.2300 265.5075 252.3325 266.0825 246.9507 265.9800 C240.1190 265.8725 233.0150 265.7100 226.2023 266.1225 C220.7455 265.3750 213.7417 266.3150 207.9698 265.9325 C201.0542 265.7975 194.0948 266.0050 187.1743 266.0075 Z"></path>
<path id="" fill="#5c6ac0" fill-opacity="1.0" stroke="#000000" stroke-width="0.0" stroke-opacity="1.0" stroke-linecap="round" stroke-linejoin="round"  filling="0" d="M304.1725 266.0225 L324.9750 266.0275 C324.5900 288.6450 325.1725 311.3100 325.0025 333.9375 C318.1675 333.9800 311.0075 334.4200 304.2075 333.8325 L304.1725 266.0225 Z"></path>
<path id="" fill="#5b6bc0" fill-opacity="1.0" stroke="#000000" stroke-width="0.0" stroke-opacity="1.0" stroke-linecap="round" stroke-linejoin="round"  filling="0" d="M304.2050 363.3175 C309.7200 364.1425 319.2925 363.9325 324.9300 363.2825 C325.1325 372.6525 324.9975 382.0500 325.0025 391.4225 L325.0175 431.6625 C322.5575 430.6925 307.6025 431.3800 304.1125 431.4800 C304.3525 423.4325 304.1875 415.3450 304.1850 407.2925 L304.2050 363.3175 Z"></path>
<path id="" fill="#5c6bc0" fill-opacity="1.0" stroke="#000000" stroke-width="0.0" stroke-opacity="1.0" stroke-linecap="round" stroke-linejoin="round"  filling="0" d="M226.2182 363.3125 C230.1500 363.9000 243.0120 364.0125 246.9328 363.3050 C247.2188 386.1850 246.9948 409.0900 247.0152 431.9750 C246.8367 431.8200 246.6897 431.6200 246.4800 431.5100 C245.1200 430.8125 228.5612 431.3475 226.1300 431.4800 C226.3535 423.6325 226.1845 415.7375 226.1815 407.8850 L226.2182 363.3125 Z"></path>
<path id="" fill="#5c6ac0" fill-opacity="1.0" stroke="#000000" stroke-width="0.0" stroke-opacity="1.0" stroke-linecap="round" stroke-linejoin="round"  filling="0" d="M187.1743 266.0075 C194.0948 266.0050 201.0542 265.7975 207.9698 265.9325 L207.9875 314.9150 L208.0180 327.3125 C208.0240 329.4225 208.2310 331.7100 207.8885 333.7800 C207.8152 333.7600 207.7455 333.7150 207.6690 333.7150 C200.9475 333.8025 193.9722 334.4200 187.2442 333.8225 C187.1890 329.1425 187.5282 324.4850 187.5182 319.8150 L187.1743 266.0075 Z"></path>
<path id="" fill="#5b6bc0" fill-opacity="1.0" stroke="#000000" stroke-width="0.0" stroke-opacity="1.0" stroke-linecap="round" stroke-linejoin="round"  filling="0" d="M148.2045 363.2925 C151.2493 363.8275 166.1275 363.9925 168.9020 363.3275 C169.2625 385.5950 168.8400 407.8825 169.0247 430.1525 C168.9017 429.6025 168.7222 429.1425 168.4913 428.6300 C168.1297 429.3750 168.1998 430.4150 168.1472 431.2400 C161.6087 431.2550 154.6335 430.7900 148.1445 431.5775 C147.8878 424.1600 148.1698 416.6150 148.1682 409.1850 L148.2045 363.2925 Z"></path>
<path id="" fill="#5c6bbf" fill-opacity="1.0" stroke="#000000" stroke-width="0.0" stroke-opacity="1.0" stroke-linecap="round" stroke-linejoin="round"  filling="0" d="M187.2242 363.2925 C190.8875 363.8575 204.4225 364.0575 207.9453 363.3000 C208.1225 377.4150 208.0078 391.5425 208.0085 405.6600 C208.0090 414.1200 208.3050 422.6950 207.9765 431.1425 C207.7300 430.9775 207.4557 431.0025 207.1792 431.0475 C204.6830 431.4525 201.8647 431.2225 199.3277 431.2325 C195.2722 431.2275 191.2175 431.3100 187.1658 431.4825 C187.6073 408.7800 187.1600 386.0050 187.2242 363.2925 Z"></path>
<path id="" fill="#5b6abf" fill-opacity="1.0" stroke="#000000" stroke-width="0.0" stroke-opacity="1.0" stroke-linecap="round" stroke-linejoin="round"  filling="0" d="M226.2023 266.1225 C233.0150 265.7100 240.1190 265.8725 246.9507 265.9800 C246.7802 272.5275 246.9955 279.1300 246.9985 285.6875 L246.9928 333.9450 C242.9942 334.0325 238.9812 333.9875 234.9815 333.9950 C232.1362 334.0000 229.0988 334.1925 226.2878 333.7700 C227.5885 327.4275 226.2490 321.2225 226.1992 314.8400 L226.2023 266.1225 Z"></path>
<path id="" fill="#5c6bbf" fill-opacity="1.0" stroke="#000000" stroke-width="0.0" stroke-opacity="1.0" stroke-linecap="round" stroke-linejoin="round"  filling="0" d="M343.1900 363.2650 C346.1650 363.7750 361.2950 363.9750 363.9225 363.3175 C364.3325 386.1825 363.9875 409.1050 364.0100 431.9775 L363.5750 431.5600 C357.5700 430.9800 349.3275 430.9750 343.3125 431.4575 C344.7850 424.2625 343.3025 417.0350 343.2125 409.7850 C343.0225 394.2900 343.1475 378.7625 343.1900 363.2650 Z"></path>
<path id="" fill="#5c6bc0" fill-opacity="1.0" stroke="#000000" stroke-width="0.0" stroke-opacity="1.0" stroke-linecap="round" stroke-linejoin="round"  filling="0" d="M265.2200 363.2475 C269.5000 363.8950 281.6150 363.8550 285.9300 363.2700 C286.3350 386.1450 286.0850 409.1050 286.0100 431.9875 C285.9500 431.9175 285.8975 431.8400 285.8250 431.7800 C284.5850 430.7150 268.2850 431.3950 265.7000 431.4800 C266.8375 428.4300 265.3175 393.9075 265.2225 387.3750 C265.1725 379.3325 265.1725 371.2900 265.2200 363.2475 Z"></path>
<path id="" fill="#5c6bbf" fill-opacity="1.0" stroke="#000000" stroke-width="0.0" stroke-opacity="1.0" stroke-linecap="round" stroke-linejoin="round"  filling="0" d="M265.2000 266.1100 C272.0075 265.7100 279.1525 265.8125 285.9775 265.9775 C285.7425 288.6150 286.2375 311.2675 285.9900 333.9075 C279.1900 334.2050 272.3500 333.8425 265.5450 334.0050 L265.7850 333.7875 C266.4600 331.9375 266.0100 327.3725 266.0100 325.1925 C266.0125 317.3525 266.1875 309.4650 265.9575 301.6300 C265.8200 296.9275 265.3225 292.2400 265.2250 287.5350 C265.0750 280.4025 265.1900 273.2450 265.2000 266.1100 Z"></path>
<path id="" fill="#455a64" fill-opacity="1.0" stroke="#000000" stroke-width="0.0" stroke-opacity="1.0" stroke-linecap="round" stroke-linejoin="round"  filling="0" d="M254.6850 51.3278 C255.0975 51.2523 254.9575 51.2623 255.4000 51.2490 C258.3950 51.1588 260.8550 52.1105 262.9925 54.2350 C264.2075 55.4415 265.2000 56.9195 265.5875 58.6042 C266.5075 62.6115 266.0450 67.4150 266.0450 71.5327 L265.9825 92.5963 C267.6450 93.9440 269.2900 95.5312 270.7350 97.1140 C272.6575 99.2210 274.1750 101.7265 274.8350 104.5178 C275.9950 109.4077 275.4925 115.0457 275.5175 120.0667 C275.5675 130.1922 275.5725 140.2515 275.1075 150.3700 C269.1250 149.7543 262.9475 150.0365 256.9375 150.0383 C250.2225 150.0325 243.4990 149.9178 236.8008 150.4550 C236.6165 137.1065 236.2560 123.7278 236.5912 110.3785 C236.8345 100.6895 239.3327 98.8613 246.0542 92.4688 C246.2758 89.7368 246.1042 86.8920 246.0927 84.1465 L246.0345 68.5242 C246.0260 65.4702 245.8288 62.2493 246.3392 59.2343 C246.6017 57.6842 247.0887 56.2835 248.0312 55.0120 C249.7038 52.7560 251.9825 51.7215 254.6850 51.3278 Z"></path>
<path id="" fill="#c4c9e8" fill-opacity="1.0" stroke="#000000" stroke-width="0.0" stroke-opacity="1.0" stroke-linecap="round" stroke-linejoin="round"  filling="0" d="M236.9603 109.3223 C240.7950 109.2350 244.6313 109.2162 248.4668 109.2663 C250.9950 109.3238 253.5300 109.5753 256.0575 109.5652 C262.4000 109.5400 268.7250 109.2005 275.0875 109.2742 C275.0075 115.6990 274.8700 122.2117 275.1775 128.6288 C275.4825 135.0007 276.9375 141.9765 275.9125 148.3250 C276.0325 148.4935 276.1000 148.7153 276.2700 148.8310 C277.2125 149.4693 280.2650 148.7850 282.9175 151.8020 C285.5450 154.7915 285.2950 158.4702 285.1450 162.1678 C284.2325 163.4740 283.0750 164.6880 281.8675 165.7253 C280.8425 166.6053 279.5350 167.4645 278.1925 167.7475 C274.3650 168.5547 264.2125 168.0237 259.7600 168.0295 L244.1772 168.0460 C241.1095 168.0470 237.9345 168.2020 234.8828 167.9090 C231.4620 167.5807 229.3578 165.0992 227.3008 162.6268 C227.0242 161.1557 226.8802 159.5650 226.8987 158.0665 C226.9320 155.3820 227.8025 153.0148 229.7867 151.1568 C231.9725 149.1102 234.1463 148.7413 236.9970 148.7955 C236.9028 138.2515 236.7850 127.6503 237.0225 117.1097 C236.9642 114.5143 236.9435 111.9182 236.9603 109.3223 Z"></path>
<path id="" fill="#9fa8da" fill-opacity="1.0" stroke="#000000" stroke-width="0.0" stroke-opacity="1.0" stroke-linecap="round" stroke-linejoin="round"  filling="0" d="M237.0225 117.1097 C237.6985 120.3455 237.2895 124.2807 237.2847 127.6087 C237.2397 134.6630 237.2433 141.7175 237.2953 148.7717 C241.7852 148.7413 274.7875 149.1160 275.7650 148.4998 C275.8300 148.4590 275.8650 148.3833 275.9125 148.3250 C276.0325 148.4935 276.1000 148.7153 276.2700 148.8310 C277.2125 149.4693 280.2650 148.7850 282.9175 151.8020 C285.5450 154.7915 285.2950 158.4702 285.1450 162.1678 C284.2325 163.4740 283.0750 164.6880 281.8675 165.7253 C280.8425 166.6053 279.5350 167.4645 278.1925 167.7475 C274.3650 168.5547 264.2125 168.0237 259.7600 168.0295 L244.1772 168.0460 C241.1095 168.0470 237.9345 168.2020 234.8828 167.9090 C231.4620 167.5807 229.3578 165.0992 227.3008 162.6268 C227.0242 161.1557 226.8802 159.5650 226.8987 158.0665 C226.9320 155.3820 227.8025 153.0148 229.7867 151.1568 C231.9725 149.1102 234.1463 148.7413 236.9970 148.7955 C236.9028 138.2515 236.7850 127.6503 237.0225 117.1097 Z"></path>
</svg>