<svg xmlns="http://www.w3.org/2000/svg" viewBox="0 0 512 512" height="512.0px" width="512.0px">
<path id="" fill="#fe9700" fill-opacity="1.0" stroke="#000000" stroke-width="0.0" stroke-opacity="1.0" stroke-linecap="round" stroke-linejoin="round"  filling="0" d="M83.2575 116.1000 C89.1085 115.6808 95.1800 116.0107 101.0602 116.0105 L135.7793 116.0125 L243.2162 116.0147 L367.4200 116.0135 L407.5250 116.0147 C414.3225 116.0125 421.2650 115.6732 428.0450 116.0460 C431.7025 116.2473 434.9550 117.1758 438.0375 119.1758 C442.1500 121.8427 445.6275 126.6970 446.5850 131.5318 C447.2850 135.0618 447.0300 138.8463 447.0175 142.4280 L446.9950 156.5237 L446.9950 211.4297 L446.9975 323.0550 L447.0050 358.9850 C447.0125 365.2400 447.2975 371.6425 446.9825 377.8825 C446.7950 381.6350 445.8125 385.2125 443.6900 388.3400 C440.4250 393.1500 435.1100 395.6425 429.5575 396.7150 L429.3275 396.7425 C423.7925 397.3625 417.9800 396.9850 412.4100 396.9750 L383.2350 396.9725 L284.4775 396.9775 L149.7737 396.9700 L107.0510 396.9675 C99.6192 396.9725 91.9922 397.3925 84.5920 396.8850 C80.3225 396.5925 76.5432 395.2600 73.1950 392.5425 C69.1868 389.3000 66.6460 384.5850 66.1415 379.4525 C65.6830 374.6250 65.9492 369.6050 65.9570 364.7550 L65.9875 338.4550 L65.9788 253.2350 L65.9853 171.2595 L65.9557 146.5785 C65.9490 142.1248 65.6510 137.4545 66.0878 133.0287 C66.4662 129.1965 68.3115 125.6168 70.7720 122.6957 C74.1120 118.7312 78.1013 116.5510 83.2575 116.1000 Z"></path>
<path id="" fill="#d67c05" fill-opacity="1.0" stroke="#000000" stroke-width="0.0" stroke-opacity="1.0" stroke-linecap="round" stroke-linejoin="round"  filling="0" d="M145.8327 115.9990 L166.2242 115.9512 C165.9198 124.5985 166.1100 133.2977 166.1110 141.9512 L166.1150 187.2498 L166.0918 323.7050 L166.0780 375.3075 C166.0575 379.9100 166.0730 384.5150 166.1245 389.1200 C166.1505 391.7600 166.3533 394.5275 166.1183 397.1550 C161.2598 396.6900 150.8717 396.7125 145.9243 397.2250 L145.8997 203.3810 L145.8975 145.9125 C145.8967 135.9755 146.2108 125.9220 145.8327 115.9990 Z"></path>
<path id="" fill="#d67c05" fill-opacity="1.0" stroke="#000000" stroke-width="0.0" stroke-opacity="1.0" stroke-linecap="round" stroke-linejoin="round"  filling="0" d="M346.8325 115.9977 L367.2250 115.9507 C366.8675 135.5202 367.1100 155.1300 367.1125 174.7030 L367.1750 291.7500 C367.1675 296.5950 366.0900 301.3775 366.0500 306.2575 C366.0175 310.0325 365.9600 313.8525 366.1800 317.6225 C366.5525 324.0200 367.2050 329.8675 367.2025 336.3400 C367.2000 340.5925 366.2650 344.6725 366.1450 348.8875 C366.0775 351.2775 366.7850 353.6225 366.7975 356.0000 C366.8100 358.6750 366.1225 361.3725 366.0725 364.0700 C365.8800 374.3025 366.0650 384.5775 366.1025 394.8125 L366.1775 397.0675 C360.2100 396.8550 352.7975 396.5650 346.9300 397.2225 L346.9175 213.3970 L346.9150 149.6003 C346.9150 138.4462 347.2825 127.1370 346.8325 115.9977 Z"></path>
<path id="" fill="#795548" fill-opacity="1.0" stroke="#000000" stroke-width="0.0" stroke-opacity="1.0" stroke-linecap="round" stroke-linejoin="round"  filling="0" d="M226.8360 75.6048 C227.0725 75.5920 227.3087 75.5807 227.5453 75.5707 C239.1740 75.0677 250.9600 75.4160 262.6025 75.4215 C270.5900 75.4252 284.1125 74.7353 291.3825 76.3210 C294.8275 77.0720 298.1825 78.8860 300.7575 81.2923 C306.8525 86.9847 306.9000 94.7812 306.8450 102.5293 C306.8100 107.0918 306.6400 111.6860 306.8175 116.2452 C301.2650 115.8637 291.5950 115.5365 286.2400 116.3002 C286.1050 109.5153 286.1200 102.7282 286.2825 95.9440 C273.9075 96.1605 261.5025 95.9682 249.1232 95.9665 C241.5773 95.9652 233.7437 96.4340 226.2312 95.8460 C226.5378 102.7913 226.2695 109.4482 226.0385 116.3798 C219.5323 115.7660 212.5773 115.7758 206.0490 116.1628 L205.9727 102.9190 C205.9422 95.2810 205.5935 88.8405 210.8627 82.6740 C215.1422 77.6660 220.4818 76.0782 226.8360 75.6048 Z"></path>
<path id="" fill="#78909c" fill-opacity="1.0" stroke="#000000" stroke-width="0.0" stroke-opacity="1.0" stroke-linecap="round" stroke-linejoin="round"  filling="0" d="M376.4775 115.0195 C376.3875 114.7985 376.3475 114.7307 376.3050 114.4640 C376.0025 112.6158 375.7300 107.1910 376.7825 105.5457 C379.9675 104.4008 399.5000 105.3622 404.1900 105.5652 L407.2350 105.4075 C407.1775 108.8582 406.8275 112.6252 407.2975 116.0325 C403.0500 115.9673 378.7675 116.4668 376.7850 115.5667 L376.4775 115.0195 Z"></path>
<path id="" fill="#78909c" fill-opacity="1.0" stroke="#000000" stroke-width="0.0" stroke-opacity="1.0" stroke-linecap="round" stroke-linejoin="round"  filling="0" d="M376.4775 115.0195 C376.3875 114.7985 376.3475 114.7307 376.3050 114.4640 C376.0025 112.6158 375.7300 107.1910 376.7825 105.5457 C379.9675 104.4008 399.5000 105.3622 404.1900 105.5652 C402.3400 106.5818 380.9075 106.0197 377.4225 106.1765 C377.2000 107.7940 377.4625 113.6892 376.9300 114.6570 C376.8375 114.8260 376.6300 114.8987 376.4775 115.0195 Z"></path>
<path id="" fill="#37474f" fill-opacity="1.0" stroke="#000000" stroke-width="0.0" stroke-opacity="1.0" stroke-linecap="round" stroke-linejoin="round"  filling="0" d="M79.2117 51.7035 C81.2625 52.0215 83.7422 55.1628 85.2100 56.6290 L348.6725 320.0600 L427.1425 398.5400 L449.0225 420.4300 C452.7750 424.1750 457.2325 427.9800 460.4300 432.1950 C460.0000 433.2950 459.1950 434.2300 458.4225 435.1025 C454.1350 439.9400 449.2000 444.4200 444.6225 448.9950 C440.9000 452.7100 437.1275 457.1575 432.9275 460.3025 C432.7675 460.2900 432.6025 460.2925 432.4450 460.2625 C431.6325 460.1125 430.8725 459.3250 430.2850 458.7775 C426.1450 454.9225 422.2275 450.7675 418.2250 446.7650 L395.2875 423.8175 L326.6700 355.2000 L138.8217 167.3548 L79.8582 108.3945 L61.7680 90.3045 C58.3528 86.8893 54.6465 83.5560 51.5705 79.8378 C52.1118 78.6248 53.0250 77.5535 53.9060 76.5690 C58.3295 71.6263 63.3528 67.0330 68.0522 62.3435 C70.9747 59.4272 75.8838 53.8005 79.2117 51.7035 Z"></path>
</svg>