<svg xmlns="http://www.w3.org/2000/svg" viewBox="0 0 512 512" height="512.0px" width="512.0px">
<path id="" fill="#fefefe" fill-opacity="1.0" stroke="#000000" stroke-width="0.0" stroke-opacity="1.0" stroke-linecap="round" stroke-linejoin="round"  filling="0" d="M85.6342 51.0935 C97.1097 49.3922 117.3367 54.7605 128.9207 57.4662 C139.3400 59.8480 149.7177 62.4085 160.0490 65.1468 C171.6418 68.1720 183.2470 71.3743 194.9535 73.9280 C216.9580 78.7280 239.6322 82.0658 262.1475 82.9563 C273.3375 83.3987 284.5225 82.9295 295.6825 82.2538 C313.6625 81.1653 331.2300 79.4753 348.5750 74.3127 C361.0700 70.5932 373.3100 65.7558 385.5800 61.3600 C397.5975 57.0558 410.3825 51.9803 423.3400 51.9680 C431.8625 51.9600 440.9375 54.1967 447.1100 60.4333 C452.5650 65.9433 455.1675 73.5938 456.2000 81.1300 C457.7375 92.3255 457.0575 104.0765 457.0650 115.3643 L457.0750 171.3795 L456.0850 383.4600 C445.5750 373.3975 433.4950 365.6925 421.0525 358.2750 C405.1125 348.8725 384.9925 340.9950 367.3325 335.4050 C307.9250 316.1425 244.5330 312.6525 183.3703 325.2700 C145.8125 333.2400 99.1257 347.5175 69.2275 371.8550 C65.3238 375.0325 60.7625 378.1425 57.9975 382.3900 L56.9977 169.2337 L56.9860 111.2655 L56.9825 94.2968 C56.9820 90.1332 56.8195 85.8975 57.3450 81.7607 C58.2818 74.3855 61.3205 66.4680 65.9785 60.6355 C70.7383 54.6755 78.2650 51.9048 85.6342 51.0935 Z"></path>
<path id="" fill="#37474f" fill-opacity="1.0" stroke="#000000" stroke-width="0.0" stroke-opacity="1.0" stroke-linecap="round" stroke-linejoin="round"  filling="0" d="M56.7903 84.0880 C56.3575 81.1143 57.5358 77.0525 58.2663 74.1815 C60.1432 66.8037 65.1170 59.5950 71.7160 55.6990 C76.8142 52.6893 83.7913 51.0085 89.6885 51.0530 C94.2100 51.0870 98.9453 51.9603 103.4265 52.5950 C124.2783 55.5485 144.6315 61.2905 165.0652 66.2298 L196.8158 73.7223 C201.2632 74.7318 205.7910 75.4723 210.2085 76.5847 C221.7125 78.4543 233.1485 79.4065 244.7663 80.1260 C256.4650 80.8505 268.0725 81.2975 279.7975 80.9930 C285.0050 80.8575 290.2175 80.4427 295.4200 80.1608 C308.2475 79.4655 320.9975 78.4662 333.7300 76.7255 C339.4850 75.8840 345.1175 73.6097 350.6175 71.7695 C360.3325 68.4560 370.0250 65.0822 379.6975 61.6483 C396.0875 55.9243 416.4825 47.4525 433.9225 52.8987 C437.9175 54.1468 440.2725 56.2823 443.6575 58.5510 C444.4825 59.1045 446.3475 59.9937 446.7225 60.9113 C448.1550 64.4270 451.6925 66.3687 452.9725 70.1780 C453.1125 70.5938 453.2050 70.8940 453.4425 71.2740 C453.8325 71.9012 454.1050 72.4840 454.3825 73.1678 C455.9300 77.9342 456.7975 83.7643 456.9700 88.8015 C457.3550 99.9503 457.0350 111.2213 457.0300 122.3810 L457.0225 186.2227 L457.0200 270.6675 C457.0200 284.9325 457.2825 299.2450 457.0125 313.5050 C456.9825 315.0875 457.0550 316.7775 456.3500 318.2375 C456.0675 318.8200 455.6450 319.2500 455.4875 319.8950 C455.5175 320.5600 455.5775 321.2425 455.5650 321.9050 C454.8625 324.2675 454.6775 380.8650 455.4400 382.5575 C455.4925 382.6750 455.5575 382.7875 455.6125 382.9050 C455.6650 383.0175 455.7100 383.1325 455.7600 383.2450 L455.8675 383.4775 L455.6425 383.7750 C455.5275 383.7500 455.3925 383.7675 455.2925 383.7000 C454.6950 383.3000 453.8175 381.6850 453.3500 381.0625 C452.2475 379.5975 451.0125 378.4025 449.6275 377.2000 C444.2550 372.5350 438.2175 368.7350 432.1375 365.0750 C398.7800 345.0100 358.6075 332.7400 320.5825 325.0900 C310.8450 323.1300 301.0650 321.2825 291.1900 320.1600 C270.0550 317.7575 249.1290 317.6950 227.9370 319.1750 C194.1028 321.6925 160.7713 328.8200 128.8678 340.3625 C107.9182 347.8350 86.6355 357.2450 69.3467 371.4950 C66.1797 374.1075 63.0312 377.1700 60.3792 380.3000 C58.8763 382.0725 57.5700 383.9850 56.0412 385.7450 C56.5230 380.5200 56.4040 375.1575 56.4715 369.9100 C56.5690 359.2475 56.5935 348.5850 56.5448 337.9225 C56.5397 332.7450 56.1765 327.2275 56.6945 322.0825 C56.7523 320.0300 56.6730 317.9375 56.5400 315.8875 C56.1842 297.4975 56.4490 279.0750 56.4510 260.6825 L56.4413 159.1625 L56.4065 109.4733 L56.3955 94.9395 C56.3975 91.3513 56.2580 87.6432 56.7903 84.0880 Z"></path>
<path id="" fill="#536d79" fill-opacity="1.0" stroke="#000000" stroke-width="0.0" stroke-opacity="1.0" stroke-linecap="round" stroke-linejoin="round"  filling="0" d="M333.7300 76.7255 C339.4850 75.8840 345.1175 73.6097 350.6175 71.7695 C360.3325 68.4560 370.0250 65.0822 379.6975 61.6483 C396.0875 55.9243 416.4825 47.4525 433.9225 52.8987 C437.9175 54.1468 440.2725 56.2823 443.6575 58.5510 C444.4825 59.1045 446.3475 59.9937 446.7225 60.9113 C448.1550 64.4270 451.6925 66.3687 452.9725 70.1780 C453.1125 70.5938 453.2050 70.8940 453.4425 71.2740 C453.8325 71.9012 454.1050 72.4840 454.3825 73.1678 C455.9300 77.9342 456.7975 83.7643 456.9700 88.8015 C457.3550 99.9503 457.0350 111.2213 457.0300 122.3810 L457.0225 186.2227 L457.0200 270.6675 C457.0200 284.9325 457.2825 299.2450 457.0125 313.5050 C456.9825 315.0875 457.0550 316.7775 456.3500 318.2375 C456.0675 318.8200 455.6450 319.2500 455.4875 319.8950 C455.5175 320.5600 455.5775 321.2425 455.5650 321.9050 C455.4850 321.8625 455.4050 321.8250 455.3250 321.7825 C455.2025 321.7200 455.0850 321.6525 454.9625 321.5900 C452.3125 320.2275 449.2900 316.4775 446.9925 314.3925 C444.3600 312.0025 441.4750 309.7200 438.5200 307.7425 C418.1950 294.0050 395.7300 283.7400 372.0400 277.3675 C365.9950 275.7025 359.7325 274.0550 353.5250 273.1675 C353.5525 266.0200 352.8650 258.8550 352.3425 251.7300 C351.5000 239.6938 350.4975 227.6687 349.3400 215.6585 C346.8750 185.8448 343.8750 156.0775 340.3400 126.3717 C339.1925 116.9818 338.4050 107.4792 337.0125 98.1345 C336.3650 93.7793 335.5750 89.4392 334.8375 85.0983 C334.3725 82.3650 333.7075 79.5025 333.7300 76.7255 Z"></path>
<path id="" fill="#fefefe" fill-opacity="1.0" stroke="#000000" stroke-width="0.0" stroke-opacity="1.0" stroke-linecap="round" stroke-linejoin="round"  filling="0" d="M455.4875 319.8950 C454.7650 315.8525 455.2425 307.2825 455.2400 302.6850 L455.2325 264.0050 L455.2375 121.0363 L455.2475 98.9655 C455.2500 90.4350 456.1300 80.7332 453.3525 72.5600 C453.3275 72.4840 453.3000 72.4088 453.2725 72.3330 L453.5400 72.3220 L454.3825 73.1678 C455.9300 77.9342 456.7975 83.7643 456.9700 88.8015 C457.3550 99.9503 457.0350 111.2213 457.0300 122.3810 L457.0225 186.2227 L457.0200 270.6675 C457.0200 284.9325 457.2825 299.2450 457.0125 313.5050 C456.9825 315.0875 457.0550 316.7775 456.3500 318.2375 C456.0675 318.8200 455.6450 319.2500 455.4875 319.8950 Z"></path>
<path id="" fill="#546d79" fill-opacity="1.0" stroke="#000000" stroke-width="0.0" stroke-opacity="1.0" stroke-linecap="round" stroke-linejoin="round"  filling="0" d="M56.7903 84.0880 C56.3575 81.1143 57.5358 77.0525 58.2663 74.1815 C60.1432 66.8037 65.1170 59.5950 71.7160 55.6990 C76.8142 52.6893 83.7913 51.0085 89.6885 51.0530 C94.2100 51.0870 98.9453 51.9603 103.4265 52.5950 C124.2783 55.5485 144.6315 61.2905 165.0652 66.2298 L196.8158 73.7223 C201.2632 74.7318 205.7910 75.4723 210.2085 76.5847 L208.5493 77.3310 C205.0590 78.8897 202.2140 83.7328 199.8850 86.7592 C194.9550 93.1660 190.6588 99.5713 186.4538 106.4492 C185.0480 108.7487 183.3750 110.8813 181.9945 113.2015 C175.3878 124.3050 169.8350 135.9848 164.7238 147.8325 C162.9733 151.8902 161.0497 155.9312 159.5105 160.0723 C148.2088 190.1565 140.3503 221.4238 136.0855 253.2775 C134.9568 261.5175 133.6237 270.0175 133.6395 278.3375 C110.7022 285.7175 86.9135 297.7750 67.8800 312.5375 C64.0748 315.4900 60.1152 318.3325 57.2093 322.2250 L56.8047 322.3400 L56.6945 322.0825 C56.7523 320.0300 56.6730 317.9375 56.5400 315.8875 C56.1842 297.4975 56.4490 279.0750 56.4510 260.6825 L56.4413 159.1625 L56.4065 109.4733 L56.3955 94.9395 C56.3975 91.3513 56.2580 87.6432 56.7903 84.0880 Z"></path>
<path id="" fill="#42a4f4" fill-opacity="1.0" stroke="#000000" stroke-width="0.0" stroke-opacity="1.0" stroke-linecap="round" stroke-linejoin="round"  filling="0" d="M212.3177 73.0990 C215.8587 72.9317 219.4577 73.0695 223.0045 73.0745 L242.8203 73.0790 L304.1100 73.0710 L323.3325 73.0738 C326.8800 73.0825 330.4825 73.2932 334.0175 73.0035 C333.8950 73.9005 333.7575 74.7747 333.7875 75.6815 C334.5150 76.2907 335.8950 76.1508 336.8650 76.3600 L336.8100 76.7368 L336.3775 77.0275 C335.5600 77.0247 334.3050 76.9025 333.6875 77.5612 C333.2925 77.9835 333.1275 78.4327 333.0700 78.9977 C332.8050 81.5425 332.9275 84.2135 332.7875 86.7795 C332.5100 91.8913 332.0275 96.9790 331.7800 102.1025 C329.1950 146.2115 328.2875 190.4030 329.0575 234.5807 C329.1475 238.2968 329.5950 241.9880 329.7500 245.6985 L331.9900 289.9975 C335.3975 290.0100 339.0250 290.8450 342.3700 291.4900 C346.5475 292.2975 350.6850 293.4500 354.8050 294.4975 C382.6075 301.5725 416.5750 314.5800 437.3450 335.0150 C440.8525 338.4650 444.0025 342.5250 446.7400 346.6150 C450.9425 352.8950 454.5925 360.6375 455.6125 368.1900 C455.9725 370.8625 455.9400 373.6300 456.0050 376.3250 C456.0675 378.7925 456.3575 381.5700 455.8750 383.9925 L455.5875 384.0700 C455.1600 383.5875 454.8400 383.2300 454.2800 382.8975 C453.3650 383.4675 452.9625 385.4900 452.6125 386.5300 C450.7775 391.9800 448.1100 396.8950 444.6000 401.4600 C439.9475 407.5125 433.8625 412.8900 427.7975 417.4800 C395.2000 442.1500 347.4425 452.9200 307.4425 458.0050 L307.2275 458.0375 C300.1450 459.1125 292.8125 459.4875 285.6675 459.9975 C230.8930 463.9000 163.1013 457.1150 113.0453 434.0025 C103.7767 429.7225 95.1877 425.1725 86.9167 419.1175 C77.5365 412.2500 68.1670 404.1750 62.5417 393.8050 C61.2115 391.3525 60.2583 388.8175 59.2270 386.2375 C58.4482 384.2875 56.9600 381.9750 56.6975 379.9175 C56.6812 379.7900 56.6727 379.6625 56.6585 379.5350 C56.3990 377.2275 56.4128 366.6600 56.8370 364.6350 C57.6463 360.7700 61.3930 353.0150 63.3590 349.4450 C68.1290 340.7825 74.7465 334.3875 82.4090 328.3100 C104.0770 311.1275 130.0285 301.5425 156.3027 293.9000 C156.0723 288.1475 156.8663 282.6950 157.0997 276.9975 C158.5623 241.3195 164.4438 206.0870 172.3375 171.3185 C176.4308 153.2890 182.6862 135.0050 189.5172 117.8265 C191.4037 113.0818 193.2157 108.2820 195.3223 103.6308 C198.0847 97.5307 201.2455 91.5453 204.3503 85.6120 C206.2502 81.9812 208.9113 75.2450 212.3177 73.0990 Z"></path>
<path id="" fill="#8fc9f8" fill-opacity="1.0" stroke="#000000" stroke-width="0.0" stroke-opacity="1.0" stroke-linecap="round" stroke-linejoin="round"  filling="0" d="M165.5827 317.3175 L165.9458 317.3200 C165.9840 318.0550 163.5985 319.2275 162.9803 319.5950 C150.0555 327.2575 120.3752 343.8725 112.6472 355.5575 C111.1982 357.7475 110.5703 360.1400 111.1503 362.7400 C112.2945 367.8700 119.7190 372.6325 123.9012 375.1700 C148.7973 390.2700 194.6142 396.4800 223.8975 398.7125 C226.9133 398.9425 229.9445 398.8925 232.9628 399.0725 C236.0655 399.2550 239.1455 399.7225 242.2538 399.8625 C247.7010 400.1100 253.2075 399.9550 258.6625 399.9500 C263.7275 399.9450 268.8400 400.0875 273.9000 399.8775 C276.9200 399.7500 279.9200 399.3100 282.9350 399.1200 C305.0650 397.7200 327.3825 394.9950 348.9525 389.7225 C363.3525 386.2025 383.9700 380.1675 395.0475 370.2550 C397.5125 368.0475 399.3925 365.6100 401.1050 362.7925 C401.1475 360.8475 401.2050 358.9050 400.3525 357.1050 C395.2200 346.2600 367.0725 330.3800 356.2850 323.9200 C353.5550 322.2825 348.3475 319.7425 346.2750 317.5575 L346.3800 317.3900 C350.6250 318.3975 354.9175 319.1850 359.1500 320.2550 C372.8150 323.7175 387.2250 328.5600 399.6400 335.3175 C399.8650 335.4175 400.0725 335.5375 400.2875 335.6550 C408.9600 340.4700 416.9575 346.4950 419.7575 356.4700 C421.8575 363.9575 420.1500 371.6400 416.3875 378.3275 C414.0725 382.4400 411.1400 386.4775 407.7825 389.8050 C391.6075 405.8400 363.3050 416.0450 341.7100 422.0800 C319.7375 428.2200 297.1300 430.8225 274.4275 432.2025 C271.3725 432.3875 268.3325 432.8025 265.2750 432.9525 C258.0975 433.3000 250.5125 433.2450 243.3320 432.9850 C240.3310 432.8775 237.3672 432.4150 234.3755 432.2175 C231.7000 432.0400 229.0130 432.0275 226.3405 431.8025 C193.2807 429.0075 152.6300 420.1425 123.6650 403.7650 C110.3192 396.2175 96.5872 385.9325 92.3398 370.4050 C90.4062 363.3375 91.0992 356.7175 94.8387 350.3200 C104.5785 333.6600 137.6305 324.1750 155.5605 319.5650 C158.8802 318.7125 162.2717 318.1825 165.5827 317.3175 Z"></path>
<path id="" fill="#8fc9f8" fill-opacity="1.0" stroke="#000000" stroke-width="0.0" stroke-opacity="1.0" stroke-linecap="round" stroke-linejoin="round"  filling="0" d="M253.5075 76.8685 L253.9800 77.1545 L254.0225 77.7380 C250.8150 84.3750 248.6348 91.6868 246.3295 98.6743 C242.8598 109.1920 240.2012 119.8095 237.7260 130.5992 C231.7003 157.6235 227.5485 185.0315 225.3008 212.6280 C224.9093 217.4415 224.4648 222.3330 224.1967 227.1505 C224.0505 229.7767 224.0980 232.4138 223.9267 235.0372 C223.7375 237.9350 223.3045 240.8175 223.1490 243.7177 C222.8768 248.7950 223.2027 253.9050 222.9880 258.9875 C222.8288 262.7550 222.2155 266.4875 222.0970 270.2625 C221.9178 275.9800 222.0493 281.7400 222.0495 287.4600 C222.0495 294.2075 221.9510 300.9775 222.1070 307.7250 C222.2265 312.8875 223.4662 317.9550 222.9050 323.1400 C222.5517 326.4025 221.6207 329.5125 219.5410 332.1100 C216.5320 335.8700 212.3425 338.5425 207.4985 339.0150 C202.8557 339.4700 199.1367 337.8825 195.5870 335.0000 C192.3965 332.2425 190.4425 329.1800 189.8170 324.9400 C189.3183 321.5600 189.8970 318.2150 189.9495 314.8200 C190.0445 308.6975 189.8203 302.5525 190.0195 296.4325 C190.1293 293.0675 190.6660 289.7275 190.8703 286.3700 C191.3138 279.0750 191.6687 271.7950 192.3858 264.5125 C197.1465 216.1752 208.2385 167.6305 227.9713 123.1380 C229.8033 119.0072 231.5432 114.7903 233.5542 110.7455 C234.9975 107.8430 236.6758 105.0670 238.2145 102.2155 C242.9088 93.5165 247.5912 84.8213 253.5075 76.8685 Z"></path>
<path id="" fill="#8fc9f8" fill-opacity="1.0" stroke="#000000" stroke-width="0.0" stroke-opacity="1.0" stroke-linecap="round" stroke-linejoin="round"  filling="0" d="M288.3775 109.8503 C288.6000 109.9445 288.7475 110.0845 288.9325 110.2383 C289.2100 112.2758 288.3875 114.6992 288.1850 116.7660 C287.7875 120.8260 287.6150 124.9723 287.2850 129.0482 C287.0450 132.0033 287.1050 134.9628 286.9500 137.9195 L285.9475 155.7450 C285.7650 158.8463 285.2700 161.9245 285.1250 165.0285 C284.8075 171.8082 285.1850 178.6425 285.0350 185.4310 C284.9500 189.3492 284.1425 193.1962 284.0775 197.1178 C283.9475 204.7330 284.0550 212.3670 284.0600 219.9840 C284.0625 225.6315 283.9100 231.3163 284.1025 236.9575 C284.2275 240.6398 284.9175 244.2930 285.0275 247.9765 C285.1975 253.7475 284.9250 259.5350 285.1200 265.3075 C285.2450 268.9475 285.7700 272.5500 285.9525 276.1800 C286.3925 284.8400 286.6525 293.5800 287.4225 302.2175 C288.0400 309.1500 289.2825 316.3400 289.0900 323.2950 C289.0325 325.3425 288.6450 327.2600 287.8025 329.1350 C285.8950 333.3850 282.6075 336.2525 278.2750 337.8650 C273.1500 339.7750 269.0650 339.0150 264.2625 336.7825 C261.7275 335.3025 259.7925 333.2450 258.3575 330.6950 C253.8850 322.7550 256.4875 308.1575 256.8875 299.2650 C257.0275 296.1875 256.9225 293.1025 257.1000 290.0225 C257.4500 283.9400 258.1350 277.8200 258.6700 271.7475 C261.7300 239.3022 266.5800 207.0505 273.1950 175.1395 C277.5675 153.2823 282.3275 131.3140 288.3775 109.8503 Z"></path>
<path id="" fill="#8fc9f8" fill-opacity="1.0" stroke="#000000" stroke-width="0.0" stroke-opacity="1.0" stroke-linecap="round" stroke-linejoin="round"  filling="0" d="M153.6145 339.7875 C154.0960 339.7825 154.3678 339.8075 154.8035 340.0175 C154.5885 341.8575 151.9570 343.1300 151.8427 345.3475 C151.7715 346.7325 152.6068 348.1150 153.5380 349.0675 C160.2467 355.9225 187.3593 358.8775 197.4100 359.6800 C200.6443 359.9375 203.8880 359.8800 207.1217 360.0825 C210.8890 360.3225 214.5980 360.8425 218.3855 360.9225 C228.3675 361.1325 238.3887 360.9600 248.3745 360.9575 C258.3350 360.9575 268.3700 361.2150 278.3225 360.8875 C281.7450 360.7750 285.1275 360.2450 288.5400 360.0750 C304.1100 359.2900 337.9275 358.1675 349.1600 347.4375 C349.1075 346.1175 348.9675 344.7975 348.8575 343.4825 C347.9875 342.3850 346.9925 341.5750 346.3800 340.2750 L346.5025 340.4175 L346.4925 340.3625 L346.9800 339.8250 C349.3700 340.9650 351.3400 342.5500 352.9650 344.6250 C353.0725 345.3625 353.1275 346.1025 353.1725 346.8475 C353.4600 351.4500 351.4550 353.8550 348.5750 357.0975 C344.4625 361.4075 338.8375 364.8500 333.4775 367.3650 C314.2075 376.4050 292.6800 380.2100 271.6025 382.0700 C268.1200 382.3750 264.6200 382.8000 261.1300 382.9625 C255.8625 383.2125 250.4975 383.0325 245.2202 383.0300 C240.1165 383.0275 234.8573 383.2850 229.7715 382.9225 C211.7648 381.6450 193.4848 378.6025 176.4790 372.4275 C167.2585 369.0775 152.5235 361.6025 148.2623 352.3600 C147.2448 350.1525 146.5408 348.1025 147.4863 345.7200 C148.6003 342.9125 150.9125 340.9675 153.6145 339.7875 Z"></path>
<path id="" fill="#8ac24a" fill-opacity="1.0" stroke="#000000" stroke-width="0.0" stroke-opacity="1.0" stroke-linecap="round" stroke-linejoin="round"  filling="0" d="M80.9255 184.9772 C81.0545 184.9848 81.1837 184.9877 81.3125 185.0002 C83.7937 185.2408 88.3370 188.2117 90.6000 189.4937 C104.9780 197.6400 118.8625 209.2445 129.3105 222.0480 C132.7352 226.2448 135.6995 230.8038 138.9955 235.0992 C139.0957 234.1135 139.1995 233.3118 139.5932 232.3975 L139.8625 232.4117 C140.0125 233.4422 139.7150 234.3330 139.4515 235.3168 C140.6888 238.9153 144.1122 244.1220 145.9552 247.7948 C149.7605 255.3775 155.8435 268.2225 156.8740 276.5375 C157.6045 282.4325 157.1790 288.9525 157.0462 294.9025 C153.2370 297.1850 145.7637 298.6850 141.2720 300.0450 C134.7112 302.0925 128.2287 304.3850 121.8385 306.9150 C117.1175 308.7650 112.2410 310.6025 107.8733 313.2025 C108.1900 309.9825 108.1170 306.6400 108.1858 303.4000 C108.3443 295.9250 108.5785 288.1100 107.6055 280.6900 C105.8443 269.1250 103.2790 258.3500 96.9027 248.3427 C94.9785 245.3225 92.5660 242.6398 90.6338 239.6313 L90.4940 239.4100 C96.3627 241.6865 101.5453 245.9245 105.9720 250.3100 C108.4370 252.7525 110.9380 255.1850 113.1552 257.8575 C120.3025 266.4750 125.2830 276.9850 129.9260 287.0875 C130.5880 281.3475 129.8217 275.0125 129.0190 269.3225 C125.5445 243.9610 114.6057 220.2050 97.5935 201.0765 C94.3968 197.5470 90.7770 193.9563 87.1933 190.8228 C85.3550 189.2155 83.2650 187.7863 81.5502 186.0533 C81.1995 185.6987 81.0547 185.4568 80.9255 184.9772 Z"></path>
<path id="" fill="#8ac24a" fill-opacity="1.0" stroke="#000000" stroke-width="0.0" stroke-opacity="1.0" stroke-linecap="round" stroke-linejoin="round"  filling="0" d="M409.6050 184.2940 L409.7900 184.3053 L409.8950 184.5825 C408.3450 186.6145 405.6500 188.1577 403.7100 189.8575 C401.8350 191.5022 400.0875 193.3395 398.3200 195.1020 C376.6625 216.7032 362.7825 244.2490 360.1775 274.9425 C359.8200 279.1450 359.9125 283.4175 359.9050 287.6325 C362.1550 284.4525 364.6575 281.2825 367.2575 278.3825 C379.9025 264.2775 395.2650 254.3275 414.1275 251.1325 C416.7850 250.6825 419.4550 250.1850 422.1500 250.0450 C419.0750 252.0300 415.6450 253.3100 412.5000 255.1675 C401.1800 261.8400 392.7150 270.6050 386.3875 282.1325 C383.0700 288.6625 380.4925 295.1350 378.1775 302.0850 C380.9275 302.4475 388.9650 304.9425 390.9925 306.7600 L390.8450 307.0000 C389.2575 306.7700 387.8500 305.8425 386.3400 305.3000 C381.3250 303.4975 376.2800 301.5650 371.1925 299.9825 C357.9750 295.8675 344.5975 292.8275 331.0375 290.0950 C330.8675 287.5200 329.2300 277.6200 330.4650 275.9500 L330.9950 276.5050 L330.8750 276.2850 C331.3425 277.5975 331.0950 280.0000 331.2400 281.4825 C333.0325 275.7300 334.4325 269.9750 336.5475 264.3075 C339.9800 255.1050 343.8050 247.3188 348.7775 238.9065 C349.5200 237.6537 350.0825 236.2213 350.8675 235.0215 C365.3700 212.9973 385.7050 195.4350 409.6050 184.2940 Z"></path>
</svg>