<svg xmlns="http://www.w3.org/2000/svg" viewBox="0 0 512 512" height="512.0px" width="512.0px">
<path id="" fill="#c68632" fill-opacity="1.0" stroke="#000000" stroke-width="0.0" stroke-opacity="1.0" stroke-linecap="round" stroke-linejoin="round"  filling="0" d="M138.9830 133.4620 C147.2332 133.7872 155.5903 133.4973 163.8522 133.5000 L212.6217 133.5222 L373.0475 133.5278 C375.6400 136.3520 377.4450 139.6772 378.8475 143.2295 C385.7025 160.6163 388.7675 179.8015 392.3625 198.0663 C397.3725 223.4037 401.9000 248.8347 405.9375 274.3450 L409.1000 296.4050 C409.5025 299.3725 409.5875 302.4475 410.1625 305.3800 C410.8925 309.0875 414.7525 312.7600 416.1300 316.7025 C417.4300 320.4200 418.1125 324.5425 418.9225 328.3925 C420.0450 333.6475 421.1300 338.9100 422.1800 344.1800 C425.2450 360.2750 426.9625 376.7075 428.5575 393.0000 C429.3800 401.3700 430.9475 413.5075 429.8500 421.6750 C429.3900 425.1050 428.1050 427.9650 426.1500 430.8000 C417.2225 443.7450 394.9650 448.6600 380.0450 450.2775 C374.7650 450.8500 369.4325 450.6800 364.1925 451.6175 C359.4075 452.3775 354.6600 453.3200 349.8475 453.8975 C335.9875 455.5650 321.9175 456.2700 308.0100 457.5175 C296.1550 458.5800 284.3900 459.5875 272.5000 460.2225 C265.2075 460.6100 257.9700 461.1275 250.6575 460.7975 C235.1868 460.1000 219.7950 458.6550 204.3700 457.3700 L180.1940 455.2875 C175.2592 454.8950 170.3073 454.6675 165.3788 454.2025 C159.0977 453.6075 153.0123 452.1425 146.7785 451.3275 C144.1885 450.9900 141.5655 451.0250 138.9603 450.9025 C133.8265 450.6650 128.8335 449.8275 123.7818 448.9375 C111.2142 446.7250 97.1072 443.4375 88.1845 433.5525 C81.9872 426.6875 81.8018 419.4425 82.2202 410.6625 C82.4780 405.2500 83.2978 399.8775 83.7953 394.4850 C86.1125 369.3700 89.6967 344.1275 95.6100 319.5925 C96.2207 317.0575 97.0627 314.3750 98.2647 312.0550 C99.3522 309.9550 101.4717 307.5475 101.9482 305.2675 C102.4498 302.8675 102.6325 300.3150 102.9715 297.8800 C103.7160 292.5125 104.4933 287.1525 105.3025 281.7975 C109.0890 257.7525 113.1855 233.7587 117.5910 209.8200 C119.6028 198.7955 121.8073 187.8067 124.2032 176.8593 C126.2538 167.4373 128.3627 157.9925 131.3530 148.8145 C132.7713 144.4608 135.5640 136.5770 138.9830 133.4620 Z"></path>
<path id="" fill="#ffffff" fill-opacity="0.027451" stroke="#000000" stroke-width="0.0" stroke-opacity="1.0" stroke-linecap="round" stroke-linejoin="round"  filling="0" d="M0.6766 0.0000 L511.3225 0.0000 C508.2025 0.6650 504.4600 0.3195 501.2650 0.3163 L484.2875 0.2973 L415.9925 0.2969 L147.6600 0.2999 L40.7298 0.2926 L15.1412 0.3109 C10.7615 0.3248 4.9184 0.8886 0.6766 0.0000 Z"></path>
<path id="" fill="#ffffff" fill-opacity="0.0196078" stroke="#000000" stroke-width="0.0" stroke-opacity="1.0" stroke-linecap="round" stroke-linejoin="round"  filling="0" d="M1.3091 512.0000 C3.3875 511.2775 25.6402 511.7425 29.6990 511.7425 L108.8480 511.7450 L408.0800 511.7525 L481.9375 511.7525 L501.0200 511.7350 C504.2850 511.7300 508.1175 511.3450 511.2925 512.0000 L1.3091 512.0000 Z"></path>
<path id="" fill="#ffffff" fill-opacity="0.027451" stroke="#000000" stroke-width="0.0" stroke-opacity="1.0" stroke-linecap="round" stroke-linejoin="round"  filling="0" d="M0.0000 0.9172 C0.7097 3.9909 0.2566 8.0218 0.2535 11.1965 L0.2509 30.6735 L0.2530 111.2188 L0.2531 439.7300 L0.2509 490.8325 C0.2507 494.5500 0.7518 508.0600 0.0000 510.5825 L0.0000 0.9172 Z"></path>
<path id="" fill="#995f1a" fill-opacity="1.0" stroke="#000000" stroke-width="0.0" stroke-opacity="1.0" stroke-linecap="round" stroke-linejoin="round"  filling="0" d="M142.9870 112.5447 C147.7077 112.8430 152.5473 112.4902 157.2823 112.4853 L186.9447 112.5140 L280.6650 112.4955 L342.6275 112.5067 L358.5550 112.5132 C362.0100 112.5287 365.6600 112.7645 369.0800 112.2800 C368.9225 116.7253 368.2400 125.4460 369.4525 129.4615 C369.7450 130.4335 370.3850 131.3712 370.9050 132.2385 C370.0500 134.0247 369.6150 135.5497 369.4025 137.5205 C368.7100 143.9758 369.0925 150.7290 369.0975 157.2213 L369.1250 190.9677 C369.1325 198.1152 370.0375 205.9892 367.2425 212.7390 C365.1375 217.8223 359.6625 222.5100 354.4850 224.3255 C349.9150 225.9283 340.5725 225.0935 335.4900 225.0782 L317.1900 225.0815 L256.0100 225.0800 L193.1562 225.0797 C182.9865 225.0845 172.6593 225.4823 162.5047 225.1192 C160.0858 225.0327 158.0298 224.7043 155.8265 223.6250 C150.6033 221.0660 145.9342 216.3565 144.0815 210.7640 C142.0620 204.6678 142.9210 196.9940 142.9397 190.5940 L142.9552 173.9150 C142.9478 160.7498 142.7063 147.5380 143.0315 134.3785 C142.0898 134.3163 141.1190 134.3110 140.2193 134.0070 C139.9710 133.6297 139.9362 133.6955 139.9073 133.3042 C139.7815 131.6000 141.8150 129.8365 142.9057 128.7083 C143.7617 126.8108 143.0343 115.4368 142.9870 112.5447 Z"></path>
<path id="" fill="#c78836" fill-opacity="1.0" stroke="#000000" stroke-width="0.0" stroke-opacity="1.0" stroke-linecap="round" stroke-linejoin="round"  filling="0" d="M142.9057 128.7083 C143.4485 130.0405 143.4075 132.3463 143.1325 133.7510 C142.3050 134.0903 141.1110 133.9805 140.2193 134.0070 C139.9710 133.6297 139.9362 133.6955 139.9073 133.3042 C139.7815 131.6000 141.8150 129.8365 142.9057 128.7083 Z"></path>
<path id="" fill="#995f1a" fill-opacity="1.0" stroke="#000000" stroke-width="0.0" stroke-opacity="1.0" stroke-linecap="round" stroke-linejoin="round"  filling="0" d="M183.1825 307.0800 C183.3295 307.0600 183.4758 307.0400 183.6230 307.0250 C186.5052 306.7475 189.5408 306.9225 192.4413 306.9250 L208.4057 306.9500 L258.6525 306.9500 L305.4775 306.9325 C312.4350 306.9275 322.8275 306.3850 329.4400 307.2250 C334.1525 307.8225 338.4725 309.5425 342.0500 312.7275 C344.9850 315.3450 346.9875 318.8525 347.7450 322.7125 C348.5225 326.8750 348.1250 331.4250 348.1125 335.6500 L348.0825 355.6900 L348.0875 418.1650 C348.0850 430.3425 347.6125 442.7175 348.4050 454.8650 C341.1225 455.1850 333.7775 456.5225 326.5050 457.1925 C321.0300 457.4575 315.4700 458.2725 309.9975 458.7250 C299.5600 459.5800 289.1100 460.2475 278.6500 460.7300 C261.0600 461.3800 243.4480 461.2025 225.8743 460.1975 C212.6615 459.6100 199.4725 458.5750 186.3300 457.0950 L172.6093 455.4100 C169.8880 455.0700 166.7265 454.9650 164.1450 454.0250 C164.0945 453.8625 164.0318 453.7050 163.9930 453.5400 C163.5022 451.4475 163.9130 444.6250 163.9145 441.9675 L163.9205 409.3625 L163.9267 352.1425 L163.9005 335.4375 C163.8830 331.8975 163.6945 328.2450 164.0247 324.7200 C164.3508 321.2775 165.6145 317.9925 167.6785 315.2175 C171.4037 310.1875 177.1888 307.9625 183.1825 307.0800 Z"></path>
<path id="" fill="#c58531" fill-opacity="1.0" stroke="#000000" stroke-width="0.0" stroke-opacity="1.0" stroke-linecap="round" stroke-linejoin="round"  filling="0" d="M163.9660 50.9893 C170.3672 51.3020 176.9060 51.0518 183.3225 51.0502 C193.9243 51.0830 204.5258 51.0558 215.1270 50.9682 C214.8110 56.5575 215.0275 62.2437 215.0298 67.8470 L215.0220 98.3685 C215.0175 102.3303 215.5555 109.7895 214.9815 113.2598 C208.1720 112.6595 201.0780 113.0392 194.2440 113.0395 C184.1862 113.0400 174.0735 112.8365 164.0233 113.2385 C163.7507 106.1485 163.9690 98.9682 163.9725 91.8680 L163.9660 50.9893 Z"></path>
<path id="" fill="#c58531" fill-opacity="1.0" stroke="#000000" stroke-width="0.0" stroke-opacity="1.0" stroke-linecap="round" stroke-linejoin="round"  filling="0" d="M296.9625 51.0023 C313.9975 51.2975 331.1300 51.1995 348.1675 50.9740 C347.8950 54.3610 348.0325 57.8370 348.0325 61.2368 L348.0275 78.9178 C348.0275 90.0182 347.5575 102.3850 348.1875 113.3205 C341.7850 112.5293 334.8375 113.0392 328.3850 113.0403 C317.9550 113.0417 307.4750 112.8360 297.0525 113.2198 C296.8475 105.6810 296.9875 98.1062 296.9900 90.5635 L296.9625 51.0023 Z"></path>
<path id="" fill="#995f1a" fill-opacity="1.0" stroke="#000000" stroke-width="0.0" stroke-opacity="1.0" stroke-linecap="round" stroke-linejoin="round"  filling="0" d="M101.6825 307.0450 C105.3175 306.7750 109.0352 306.9300 112.6805 306.9200 C120.7260 306.9000 128.8840 306.2425 135.4225 311.7950 C138.6435 314.5300 141.6743 317.7800 142.6435 321.9925 C143.5502 325.9350 143.1140 330.5825 143.1050 334.6225 L143.0785 351.7450 L143.0748 416.1675 L143.0800 436.6050 C143.0820 441.1900 142.9610 445.8300 143.3282 450.4025 C137.0517 449.7975 130.8335 450.2900 124.5583 449.3200 C122.5948 449.1750 120.5298 448.7050 118.5980 448.3025 C106.3163 445.7450 91.8020 441.1150 84.6575 430.0675 C83.0745 427.6200 82.3640 424.7100 82.0870 421.8325 C81.4835 415.5675 82.4040 409.2600 82.8145 403.0200 C84.3938 379.0175 87.1655 354.2625 92.2160 330.7200 C93.5665 324.4250 96.1217 310.6450 101.6825 307.0450 Z"></path>
<path id="" fill="#995f1a" fill-opacity="1.0" stroke="#000000" stroke-width="0.0" stroke-opacity="1.0" stroke-linecap="round" stroke-linejoin="round"  filling="0" d="M388.1725 307.0800 C391.1125 306.6525 409.3075 306.5450 411.1225 307.5775 C413.1425 308.7275 414.6325 312.5700 415.4200 314.6725 C418.3275 322.4400 419.9925 330.8425 421.4850 338.9750 C425.4950 361.9350 428.0800 385.1225 429.2300 408.4025 C429.4250 412.4575 430.2725 416.5975 430.0800 420.6475 C429.9800 423.2375 429.3800 425.7875 428.3100 428.1500 C424.1550 437.1500 414.6575 441.6750 405.8125 444.8725 C398.0650 447.3475 390.1350 449.3350 381.9925 449.9100 C377.6550 450.2150 373.2900 450.0250 368.9475 450.3450 C368.6400 422.2300 368.9325 394.0800 368.9325 365.9625 L368.9175 338.9475 C368.9100 334.0850 368.5650 328.9250 369.1300 324.1050 C369.4950 320.9850 370.4075 318.5275 372.2900 316.0025 C376.3250 310.5875 381.6275 308.0300 388.1725 307.0800 Z"></path>
<path id="" fill="#57300d" fill-opacity="1.0" stroke="#000000" stroke-width="0.0" stroke-opacity="1.0" stroke-linecap="round" stroke-linejoin="round"  filling="0" d="M205.0400 111.8508 C204.8455 105.5295 205.2632 101.0915 208.1620 95.3445 C209.4267 92.8375 210.8775 90.5762 212.8027 88.5240 C223.5450 77.0742 239.3170 72.0793 254.6925 71.7393 C269.5825 71.4100 286.3925 76.0050 297.2875 86.6008 C304.5150 93.6302 307.1050 100.6205 307.2025 110.4995 C307.2050 111.0358 307.1975 111.5723 307.1725 112.1080 C310.3225 112.1087 325.6925 111.3640 327.4000 112.4952 C327.8275 113.5642 327.9775 114.5935 328.0375 115.7355 C328.4400 123.2815 328.1050 130.9892 328.1025 138.5585 L328.0825 182.4688 C328.0825 186.2005 327.6450 193.2500 328.1450 196.6277 C320.3675 194.1610 314.9225 193.8670 307.1200 196.5595 C306.6325 188.9260 306.9550 181.1505 306.9575 173.5000 L306.9600 133.3110 C306.9600 126.9405 307.4200 118.9547 306.8225 112.8083 C304.2550 112.9812 288.0775 113.6257 286.7150 112.6160 C286.7325 107.5338 286.5325 105.2655 282.7750 101.4853 C275.9150 94.5778 265.2200 92.2145 255.8000 92.2263 C246.4527 92.2380 236.2218 94.5683 229.4062 101.3910 C226.7038 104.0965 225.0347 107.3655 225.0123 111.2487 C225.0087 111.8560 225.0638 112.4650 225.1207 113.0690 C218.4810 112.8930 211.8160 113.2402 205.1868 113.0007 C204.9357 133.8415 205.1130 154.6998 205.1195 175.5425 L205.0810 189.5770 C205.0737 191.7480 204.7383 194.5710 205.2220 196.6540 C197.7625 193.9608 191.3922 194.0435 183.9470 196.6795 C183.9662 196.5493 183.9870 196.4190 184.0047 196.2885 C184.4700 192.8775 183.9605 185.9772 183.9525 182.1980 L183.9915 138.0050 C183.9920 130.6992 183.6875 123.3000 183.9260 116.0060 C183.9523 115.2112 183.9913 113.3123 184.5833 112.7855 C186.1265 111.4120 201.7235 112.0815 205.0400 111.8508 Z"></path>
<path id="" fill="#fec007" fill-opacity="1.0" stroke="#000000" stroke-width="0.0" stroke-opacity="1.0" stroke-linecap="round" stroke-linejoin="round"  filling="0" d="M183.9470 196.6795 C191.3922 194.0435 197.7625 193.9608 205.2220 196.6540 C209.3025 198.6293 212.4433 202.8500 213.9020 207.0643 C215.4928 211.6602 215.5533 225.1113 214.7632 229.7332 C214.4207 231.6530 213.8130 233.5160 212.9577 235.2688 C211.3398 238.5907 208.3560 241.9552 205.0643 243.6755 C205.1788 247.6877 205.0445 251.7200 205.0740 255.7375 C205.0955 258.6700 205.3403 261.7650 205.0890 264.6825 C205.0225 265.4550 205.0220 265.8950 204.5075 266.4650 C201.8212 267.2600 186.6170 267.4525 184.3203 266.2125 C183.4668 263.3075 184.0820 247.8065 184.0160 243.7007 C180.5517 241.9665 177.5410 238.1045 175.9540 234.6387 C173.2818 228.8027 172.9945 212.9162 175.2737 206.9115 C176.7930 202.9088 179.9467 198.4665 183.9470 196.6795 Z"></path>
<path id="" fill="#56300c" fill-opacity="1.0" stroke="#000000" stroke-width="0.0" stroke-opacity="1.0" stroke-linecap="round" stroke-linejoin="round"  filling="0" d="M184.2815 215.0777 C191.0915 215.1725 197.9603 215.2365 204.7680 215.0610 C204.7590 220.0020 204.1752 240.4612 205.0643 243.6755 C205.1788 247.6877 205.0445 251.7200 205.0740 255.7375 C205.0955 258.6700 205.3403 261.7650 205.0890 264.6825 C205.0225 265.4550 205.0220 265.8950 204.5075 266.4650 C201.8212 267.2600 186.6170 267.4525 184.3203 266.2125 C183.4668 263.3075 184.0820 247.8065 184.0160 243.7007 C184.8602 241.4792 184.3822 219.1230 184.2815 215.0777 Z"></path>
<path id="" fill="#fec007" fill-opacity="1.0" stroke="#000000" stroke-width="0.0" stroke-opacity="1.0" stroke-linecap="round" stroke-linejoin="round"  filling="0" d="M307.1200 196.5595 C314.9225 193.8670 320.3675 194.1610 328.1450 196.6277 C332.1575 198.5193 335.4200 203.0845 336.8925 207.1723 C338.5450 211.7702 338.4700 224.4465 337.7150 229.2068 C337.4025 231.1732 336.8450 233.1348 335.9800 234.9317 C334.3000 238.4220 331.4225 241.8200 328.0300 243.7383 C327.8825 248.6302 328.0525 253.5775 328.0700 258.4750 C328.0800 260.9150 328.3000 263.5625 327.8400 265.9625 C327.5175 266.3425 327.4950 266.4400 327.0025 266.6300 C325.0800 267.3700 309.1450 267.1650 307.3500 266.2875 C306.4225 263.7950 306.9850 247.4037 306.9875 243.6283 C303.5950 241.7850 300.7475 238.6995 299.0625 235.2360 C298.1975 233.4485 297.5900 231.5480 297.2550 229.5907 C296.4200 224.6380 296.4800 211.9057 298.1500 207.0855 C299.6950 202.6187 302.8400 198.6590 307.1200 196.5595 Z"></path>
<path id="" fill="#56300c" fill-opacity="1.0" stroke="#000000" stroke-width="0.0" stroke-opacity="1.0" stroke-linecap="round" stroke-linejoin="round"  filling="0" d="M307.2125 215.0810 C314.0200 215.1930 320.8975 215.2173 327.7050 215.0618 C327.6900 218.5920 327.0500 241.6613 328.0300 243.7383 C327.8825 248.6302 328.0525 253.5775 328.0700 258.4750 C328.0800 260.9150 328.3000 263.5625 327.8400 265.9625 C327.5175 266.3425 327.4950 266.4400 327.0025 266.6300 C325.0800 267.3700 309.1450 267.1650 307.3500 266.2875 C306.4225 263.7950 306.9850 247.4037 306.9875 243.6283 C307.7775 240.7222 307.2750 236.5517 307.2700 233.4940 L307.2125 215.0810 Z"></path>
<path id="" fill="#fec007" fill-opacity="1.0" stroke="#000000" stroke-width="0.0" stroke-opacity="1.0" stroke-linecap="round" stroke-linejoin="round"  filling="0" d="M245.3250 360.5125 C252.8100 357.8300 259.3250 357.8075 266.7875 360.5550 C271.6425 363.5425 274.8425 368.0075 276.2025 373.5650 C277.4475 378.6450 277.4725 388.8125 276.3025 393.9475 C275.7200 396.5025 274.7075 398.9400 273.3100 401.1575 C271.6375 403.8400 269.7275 405.6650 266.9675 407.2175 C266.4900 407.5375 266.3775 407.5700 266.2500 408.1650 C265.7025 410.7000 265.9475 427.6400 266.3150 430.4900 C261.5225 429.6575 250.9550 429.8525 245.9430 430.2825 L245.9518 416.0075 C245.9532 413.1625 246.1243 410.1575 245.7460 407.3400 C242.7055 406.3975 240.3197 403.7800 238.6877 401.1375 C235.1333 395.3775 235.0793 389.5825 235.1053 383.0450 C235.1180 379.8500 235.1040 376.6975 235.8740 373.5725 C237.2533 367.9775 240.3777 363.4700 245.3250 360.5125 Z"></path>
<path id="" fill="#552f0d" fill-opacity="1.0" stroke="#000000" stroke-width="0.0" stroke-opacity="1.0" stroke-linecap="round" stroke-linejoin="round"  filling="0" d="M245.7615 378.9425 C252.5925 378.8850 259.4250 378.8775 266.2550 378.9200 L266.2225 397.7275 C266.2175 400.6275 265.8250 404.1125 266.3900 406.9175 L266.9675 407.2175 C266.4900 407.5375 266.3775 407.5700 266.2500 408.1650 C265.7025 410.7000 265.9475 427.6400 266.3150 430.4900 C261.5225 429.6575 250.9550 429.8525 245.9430 430.2825 L245.9518 416.0075 C245.9532 413.1625 246.1243 410.1575 245.7460 407.3400 C245.9498 404.1950 245.7747 400.9325 245.7733 397.7775 L245.7615 378.9425 Z"></path>
<path id="" fill="#56300d" fill-opacity="1.0" stroke="#000000" stroke-width="0.0" stroke-opacity="1.0" stroke-linecap="round" stroke-linejoin="round"  filling="0" d="M245.8943 306.9350 C252.6300 307.0100 259.4375 307.1100 266.1650 306.8475 C265.8550 317.8650 266.0825 328.9475 266.0800 339.9725 L266.0750 352.8300 C266.0750 354.8550 265.9325 356.9975 266.1125 359.0100 C266.1725 359.6725 266.4100 360.0400 266.7875 360.5550 C259.3250 357.8075 252.8100 357.8300 245.3250 360.5125 C245.6958 360.0600 245.8875 359.7750 245.9388 359.1800 C246.1490 356.7450 245.9702 354.1400 245.9653 351.6900 L245.9405 335.9500 L245.9320 316.8750 C245.9315 313.5875 246.1065 310.2100 245.8943 306.9350 Z"></path>
</svg>