<svg xmlns="http://www.w3.org/2000/svg" viewBox="0 0 512 512" height="512.0px" width="512.0px">
<path id="" fill="#bba9a3" fill-opacity="1.0" stroke="#000000" stroke-width="0.0" stroke-opacity="1.0" stroke-linecap="round" stroke-linejoin="round"  filling="0" d="M51.0367 287.9275 C74.4800 288.2300 97.9543 287.9925 121.4008 287.9950 L248.7063 288.0150 L385.6650 287.9925 C410.8175 287.9900 435.9900 288.2075 461.1400 287.9225 C460.8325 297.8050 461.0875 307.7775 461.0875 317.6675 L461.0900 374.4050 L461.0900 423.0975 C461.0875 432.0650 460.8200 441.1225 461.2100 450.0750 C454.8850 449.9000 448.5250 450.0275 442.1950 450.0275 L407.5050 450.0275 L302.9900 450.0275 L50.9975 450.0825 L51.0367 287.9275 Z"></path>
<path id="" fill="#d6cbc7" fill-opacity="1.0" stroke="#000000" stroke-width="0.0" stroke-opacity="1.0" stroke-linecap="round" stroke-linejoin="round"  filling="0" d="M158.9908 212.9668 C166.2408 212.8125 173.5260 212.9538 180.7787 212.9540 L223.8533 212.9555 L353.1150 212.9487 C352.9175 219.7332 353.0800 226.5652 353.0800 233.3542 L353.0775 272.6925 L353.0600 399.0025 L353.0500 429.6250 C353.0600 433.6625 353.6600 445.6950 352.7700 448.6000 C352.5200 449.4175 352.1300 449.6300 351.4200 449.9825 C336.8300 450.2825 322.1875 450.0225 307.5925 450.0250 C291.9250 450.0250 276.2250 450.2675 260.5625 450.0325 C256.5275 449.9700 252.5500 449.0450 248.5253 449.0225 C243.8983 449.0000 239.3573 449.9900 234.7510 450.0250 L160.0945 450.0175 C158.1402 441.2750 158.9668 429.6700 158.9755 420.6100 L158.9805 379.7425 L158.9908 212.9668 Z"></path>
<path id="" fill="#8d6e63" fill-opacity="1.0" stroke="#000000" stroke-width="0.0" stroke-opacity="1.0" stroke-linecap="round" stroke-linejoin="round"  filling="0" d="M256.2075 277.7550 C262.7025 279.8825 279.6750 292.6350 285.5900 297.2200 C294.4775 304.1100 313.4900 320.7800 318.2900 330.4625 C320.2225 334.3625 320.9225 338.7125 321.4625 342.9925 C321.6700 345.8650 321.5675 348.7125 321.5175 351.5900 C320.6550 355.5550 321.0500 362.1525 321.0550 366.3350 L321.0725 390.4900 L321.0575 429.1250 C321.0575 436.0850 320.6925 443.2575 321.2450 450.1875 C314.8275 449.5500 307.4600 450.0400 300.9300 450.0425 L261.0625 450.0425 L216.1187 450.0375 C207.8770 450.0325 199.3008 449.5450 191.0995 450.2750 C190.6113 426.9725 191.0258 403.5875 191.0168 380.2750 L191.0085 354.7775 C191.0072 349.9275 190.7482 344.9225 191.2323 340.0975 C191.5822 336.6100 192.4628 333.9025 194.0890 330.7950 C202.4065 314.9025 227.5132 296.1850 242.2720 286.0650 C246.5052 283.1625 251.3100 279.3000 256.2075 277.7550 Z"></path>
<path id="" fill="#a0877e" fill-opacity="1.0" stroke="#000000" stroke-width="0.0" stroke-opacity="1.0" stroke-linecap="round" stroke-linejoin="round"  filling="0" d="M396.0000 128.0135 C410.5400 128.2035 425.1100 128.0180 439.6525 127.9608 C438.7575 137.2750 439.1375 146.5968 439.3725 155.9258 C439.4425 158.6653 439.2175 161.4015 439.3250 164.1413 C439.4875 168.1995 439.8750 172.2515 439.9775 176.3120 C440.5325 205.3047 440.2975 234.3075 439.2700 263.2875 C439.0125 271.3350 439.9375 279.3700 439.1150 287.4225 C439.1275 287.9475 439.0725 288.3500 438.9425 288.8575 C437.0300 289.4575 429.9275 288.9900 427.6075 288.9850 C417.0750 288.9700 406.4825 288.7350 395.9600 289.0575 L396.0000 128.0135 Z"></path>
<path id="" fill="#a0887e" fill-opacity="1.0" stroke="#000000" stroke-width="0.0" stroke-opacity="1.0" stroke-linecap="round" stroke-linejoin="round"  filling="0" d="M72.9550 127.9985 C79.6185 128.1485 86.3188 128.0070 92.9857 128.0115 C100.7137 128.0170 108.4620 128.1438 116.1873 127.9435 C115.9507 133.1073 116.0772 138.3160 116.0772 143.4852 L116.0780 169.3740 L116.0735 248.6495 L116.0853 276.2500 C116.0995 279.9125 116.5822 285.3675 116.0360 288.8025 L115.5482 289.0125 L91.2158 288.9600 C85.1367 288.9525 79.0312 288.8350 72.9570 289.0450 C72.9740 284.5500 73.0975 280.0175 72.9395 275.5250 C72.7712 270.7475 72.3395 265.9725 72.2527 261.1925 C72.0658 250.8750 72.2130 240.5302 72.2193 230.2103 L72.9550 127.9985 Z"></path>
<path id="" fill="#6d4c41" fill-opacity="1.0" stroke="#000000" stroke-width="0.0" stroke-opacity="1.0" stroke-linecap="round" stroke-linejoin="round"  filling="0" d="M106.1097 115.8882 C106.3815 115.8680 106.6537 115.8522 106.9260 115.8410 C111.9698 115.6390 119.9850 115.4245 123.8412 119.1285 C128.3242 123.4348 126.8085 131.7810 126.8483 137.4458 C121.0908 137.5715 115.3355 137.8960 109.5782 137.9840 C100.6000 138.1212 91.6050 138.0157 82.6250 138.0130 C75.8108 138.1107 68.7068 137.0445 61.9547 137.6385 L61.9352 137.1658 C61.7845 133.1560 61.3257 126.6367 62.6030 122.9228 C63.0222 121.7032 63.7962 120.6635 64.6860 119.7450 C65.9145 118.4765 67.4937 117.2945 69.2068 116.7890 C74.3073 115.2840 80.6115 115.9465 85.9138 115.9543 C92.6458 116.0117 99.3783 115.9897 106.1097 115.8882 Z"></path>
<path id="" fill="#6d4c41" fill-opacity="1.0" stroke="#000000" stroke-width="0.0" stroke-opacity="1.0" stroke-linecap="round" stroke-linejoin="round"  filling="0" d="M396.0525 116.0650 C404.2575 115.6413 412.6200 115.9608 420.8425 115.9572 C427.2450 115.9547 435.0825 115.3303 441.3000 116.4525 C443.3050 116.8148 444.9550 117.5462 446.5225 118.8715 C451.8875 123.4125 449.6875 130.9203 450.2575 137.0940 L450.2950 137.4787 C446.3150 137.2283 442.1675 137.5885 438.1875 137.8090 C432.4625 138.1105 427.0475 137.1385 421.3750 137.0750 C417.3125 137.0295 413.2075 136.9583 409.1475 137.1342 C406.1900 137.2628 403.2100 137.6780 400.2500 137.6452 C395.3525 137.5910 390.1225 137.0615 385.2775 137.6965 C385.1150 132.5890 384.0550 124.9490 387.1650 120.5425 C389.3175 117.4918 392.5950 116.6795 396.0525 116.0650 Z"></path>
<path id="" fill="#a1887f" fill-opacity="1.0" stroke="#000000" stroke-width="0.0" stroke-opacity="1.0" stroke-linecap="round" stroke-linejoin="round"  filling="0" d="M255.2525 72.9930 C255.3925 72.9863 255.5325 72.9765 255.6725 72.9733 C258.3750 72.9088 264.4675 76.7068 266.9625 77.9900 C289.8925 89.7832 311.5000 103.6360 330.6700 120.9340 C332.4375 122.5295 334.3075 124.0255 336.0225 125.6787 C337.8875 127.4782 339.5350 129.5785 341.2750 131.5040 C353.6475 145.1862 363.7300 161.6100 364.0600 180.5777 C364.2275 190.1313 362.4150 204.1823 355.2875 211.2480 C354.0175 212.5065 352.9550 212.7650 351.2075 212.9552 C347.9000 213.3152 344.3350 213.0547 341.0025 213.0535 L321.2600 213.0455 L257.0700 213.0295 L192.7840 213.0403 L171.6998 213.0538 C167.3795 213.0573 163.0182 213.2012 158.7068 212.9238 C155.5098 210.4312 153.1223 206.6530 151.5710 202.9520 C146.2402 190.2323 147.1060 172.1585 152.3497 159.6142 C156.7677 149.0455 163.0482 140.2388 170.5890 131.6955 C172.2878 129.7708 173.9045 127.7383 175.7000 125.9035 C177.5310 124.0325 179.6698 122.3777 181.6207 120.6237 C197.5502 106.3033 214.6675 94.8593 233.2510 84.2840 C240.3085 80.2680 247.7332 76.0742 255.2525 72.9930 Z"></path>
<path id="" fill="#5d4037" fill-opacity="1.0" stroke="#000000" stroke-width="0.0" stroke-opacity="1.0" stroke-linecap="round" stroke-linejoin="round"  filling="0" d="M405.0825 343.0450 C409.0800 342.4250 412.6825 344.6450 415.9525 346.6600 C424.7725 352.1000 436.5925 360.5150 439.0475 371.2025 C439.4825 373.1775 439.7375 375.1875 439.8050 377.2075 C440.2600 388.8150 439.8450 401.0300 439.8450 412.6900 C439.8425 424.0675 440.2925 435.6650 439.5850 447.0175 C439.5225 448.0150 439.4950 449.2325 438.9550 450.0900 C435.9525 450.5625 432.6100 450.1150 429.5550 450.0975 L408.8750 450.0775 C397.7750 450.0700 385.2575 449.5000 374.3000 450.4325 C373.7200 436.0200 374.0850 421.5200 374.0700 407.0950 L374.0550 386.9900 C374.0525 383.2425 373.9150 379.4375 374.1500 375.7000 C374.3175 373.0350 374.7100 370.1050 375.7525 367.6300 C379.9350 357.6800 395.2500 347.0600 405.0825 343.0450 Z"></path>
<path id="" fill="#5d4037" fill-opacity="1.0" stroke="#000000" stroke-width="0.0" stroke-opacity="1.0" stroke-linecap="round" stroke-linejoin="round"  filling="0" d="M103.4147 343.0025 C103.9670 342.9475 104.5107 342.9100 105.0663 342.9150 C110.8903 342.9900 125.4085 354.0400 129.6975 358.4250 C132.3268 361.1125 135.7025 365.2875 136.7652 368.9500 C138.3815 374.5250 137.9462 380.3925 137.9393 386.1225 L137.9362 400.6150 C138.0242 417.2225 137.9603 433.8300 137.7448 450.4375 C127.7578 449.5425 117.4068 450.0725 107.3750 450.0775 C95.8055 450.0700 84.0103 449.5700 72.4745 450.4550 C71.6273 435.7600 72.1562 420.8225 72.1545 406.1025 L72.1545 386.5600 C72.1548 382.8450 71.9652 379.0225 72.2925 375.3250 C72.5520 372.3925 73.1545 369.5425 74.4675 366.8975 C78.9738 357.8150 94.0017 346.2000 103.4147 343.0025 Z"></path>
<path id="" fill="#3e2723" fill-opacity="1.0" stroke="#000000" stroke-width="0.0" stroke-opacity="1.0" stroke-linecap="round" stroke-linejoin="round"  filling="0" d="M254.0750 343.0375 C254.5550 342.9700 255.0175 342.9150 255.5025 342.9075 C261.4425 342.8150 273.8800 352.4200 278.1750 356.5050 C282.2200 360.3550 286.3175 364.6900 287.8600 370.2050 C289.5025 376.0825 288.0250 382.2025 288.0450 388.2300 C288.1200 408.9000 287.6725 429.6325 288.1575 450.2900 C284.4700 449.8775 280.6150 450.0775 276.9075 450.0775 L258.3750 450.0875 C246.9325 450.0825 235.4065 449.8200 223.9742 450.1950 L223.9738 390.0050 C223.9892 387.3850 223.9962 384.7550 223.7943 382.1425 C223.6142 379.8125 223.1650 377.3250 223.2993 374.9950 C223.4462 372.4400 224.1458 369.7000 225.2475 367.3900 C229.5385 358.3975 244.7825 346.3650 254.0750 343.0375 Z"></path>
<path id="" fill="#a0877e" fill-opacity="1.0" stroke="#000000" stroke-width="0.0" stroke-opacity="1.0" stroke-linecap="round" stroke-linejoin="round"  filling="0" d="M417.2325 61.9390 C417.7975 62.0010 418.3100 62.1540 418.8375 62.3607 C428.3800 66.0970 445.1150 78.3897 448.9800 87.8740 C451.7325 94.6320 449.5700 104.4528 445.9075 110.5193 C444.6650 112.5780 442.7325 114.2148 441.8150 116.4685 C441.7800 116.5550 441.7500 116.6438 441.7175 116.7312 C439.1700 116.9970 436.0925 116.2095 433.4725 116.0997 C428.4625 115.8895 423.3925 116.0315 418.3750 116.0348 C410.0050 116.0180 401.7275 115.7690 393.4075 116.7750 C392.4450 116.3620 393.2825 115.7353 392.7350 115.0370 C391.0900 112.9365 389.3500 110.7943 388.2225 108.3590 C385.4850 102.4342 383.9350 94.8200 386.3275 88.5457 C390.8350 76.7270 405.9600 66.9295 417.2325 61.9390 Z"></path>
<path id="" fill="#a0877f" fill-opacity="1.0" stroke="#000000" stroke-width="0.0" stroke-opacity="1.0" stroke-linecap="round" stroke-linejoin="round"  filling="0" d="M94.1682 61.9568 C95.0843 62.0900 95.8415 62.4113 96.6673 62.8080 C107.2845 67.9085 122.1090 77.8575 126.0197 89.3285 C128.3407 96.1357 126.0342 104.7230 122.4055 110.6817 C121.2420 112.5920 119.4557 114.1930 118.4958 116.1905 L118.2903 116.6283 C110.4803 115.9027 102.7083 116.0305 94.8750 116.0348 C89.6110 116.0290 84.3142 115.9110 79.0543 116.1038 C76.1960 116.2085 73.3662 116.6020 70.5035 116.6715 C68.1432 114.2175 65.7558 110.1152 64.4048 106.9955 C61.9845 101.4062 60.7610 93.5168 63.1420 87.7307 C67.5782 76.9507 83.6350 66.2795 94.1682 61.9568 Z"></path>
<path id="" fill="#5c4036" fill-opacity="1.0" stroke="#000000" stroke-width="0.0" stroke-opacity="1.0" stroke-linecap="round" stroke-linejoin="round"  filling="0" d="M266.8200 234.1317 C274.1425 234.0855 281.7025 234.4767 288.9900 233.9160 C288.2300 239.0677 289.5725 252.8200 287.9450 256.4375 C280.8500 255.9625 273.7325 255.9900 266.6425 256.5250 C266.2125 249.1767 266.3900 241.8270 266.4350 234.4745 L266.8200 234.1317 Z"></path>
<path id="" fill="#5d3f36" fill-opacity="1.0" stroke="#000000" stroke-width="0.0" stroke-opacity="1.0" stroke-linecap="round" stroke-linejoin="round"  filling="0" d="M223.1752 234.0295 C226.3205 234.3477 244.5983 233.5855 245.6243 234.2190 C245.5505 240.2872 245.9308 246.4885 245.2810 252.5250 C245.2775 253.6450 245.3615 255.2300 244.8223 256.2150 C242.0972 256.4725 239.2225 256.1825 236.4807 256.1400 C232.1615 256.0475 227.8405 256.1600 223.5323 256.4825 C223.2195 248.9880 223.3692 241.5213 223.1752 234.0295 Z"></path>
<path id="" fill="#bcada7" fill-opacity="1.0" stroke="#000000" stroke-width="0.0" stroke-opacity="1.0" stroke-linecap="round" stroke-linejoin="round"  filling="0" d="M245.2810 252.5250 C245.0855 252.1000 244.8785 251.6900 244.8225 251.2150 C244.5655 249.0465 244.4700 236.7637 244.9017 235.0100 C245.0432 234.4353 245.1520 234.5130 245.6243 234.2190 C245.5505 240.2872 245.9308 246.4885 245.2810 252.5250 Z"></path>
<path id="" fill="#5d4037" fill-opacity="1.0" stroke="#000000" stroke-width="0.0" stroke-opacity="1.0" stroke-linecap="round" stroke-linejoin="round"  filling="0" d="M180.1670 234.0208 C182.9495 234.3313 185.9325 234.0880 188.7473 234.0923 C193.2510 234.0992 197.7865 234.2490 202.2852 234.0358 C201.7433 241.3293 201.8835 249.0997 202.2240 256.4075 C197.2177 255.4625 185.9905 256.0200 180.4585 256.4500 C179.9320 249.0423 180.0410 241.4453 180.1670 234.0208 Z"></path>
<path id="" fill="#5d3f37" fill-opacity="1.0" stroke="#000000" stroke-width="0.0" stroke-opacity="1.0" stroke-linecap="round" stroke-linejoin="round"  filling="0" d="M315.5275 234.1250 C320.9775 234.0883 326.6275 234.3902 332.0450 233.9040 C331.6825 237.7505 331.8325 241.6620 331.8025 245.5242 C331.7725 249.1517 331.5825 252.7800 331.4950 256.4075 C329.9400 256.3825 328.3675 256.2400 326.8125 256.1525 C321.2075 256.0675 315.5475 255.9025 309.9500 256.2675 L309.9525 242.3100 C309.9525 239.6135 310.1150 236.8062 309.7525 234.1367 C311.6675 234.2325 313.6100 234.1463 315.5275 234.1250 Z"></path>
</svg>