<svg xmlns="http://www.w3.org/2000/svg" viewBox="0 0 512 512" height="512.0px" width="512.0px">
<path id="" fill="#c52727" fill-opacity="1.0" stroke="#000000" stroke-width="0.0" stroke-opacity="1.0" stroke-linecap="round" stroke-linejoin="round"  filling="0" d="M158.8757 164.2272 L282.1900 164.2090 L328.5925 164.2043 C336.8375 164.2003 345.1100 164.0298 353.3525 164.2245 C353.1575 167.2433 353.6775 170.2500 353.7000 173.2717 L353.6525 198.3698 C353.7075 208.0420 353.9300 217.7355 353.7900 227.4060 C353.7325 231.4225 353.2575 235.3960 353.1175 239.4028 C352.9050 245.5670 353.0225 251.7475 352.8550 257.9175 C355.7000 258.0500 358.6450 257.8950 361.5000 257.9025 C365.9500 257.9150 370.4750 258.1175 374.9025 257.5975 C374.6875 265.5475 374.8500 273.5450 374.8400 281.5000 L374.8725 331.6925 L374.8850 350.6925 C374.8900 354.1550 375.0950 357.7625 374.7475 361.2000 C378.8525 360.8600 383.0225 360.9750 387.1375 360.9775 L405.5000 360.9875 C409.6275 360.9875 413.8550 361.1800 417.9500 360.5925 L417.8500 426.9650 C417.8600 438.2025 417.5875 449.5150 417.9175 460.7425 L356.5225 460.7975 L183.0400 460.7900 L124.7220 460.7875 C114.6342 460.7900 104.3593 460.3900 94.2910 460.8875 C94.0770 427.4725 94.5988 394.0375 94.1930 360.6250 C99.7870 361.2025 105.5375 360.9825 111.1573 360.9850 L137.3570 361.0425 C136.9155 349.6800 137.1893 338.2300 137.1913 326.8575 L137.1452 257.7425 C144.3240 258.3025 151.8062 257.9725 159.0225 258.0225 C158.6590 252.7475 158.8650 247.2957 158.8350 241.9970 L158.8042 209.1248 L158.8145 180.0355 C158.8085 174.8015 158.5392 169.4422 158.8757 164.2272 Z"></path>
<path id="" fill="#fe9800" fill-opacity="1.0" stroke="#000000" stroke-width="0.0" stroke-opacity="1.0" stroke-linecap="round" stroke-linejoin="round"  filling="0" d="M138.1335 309.1125 L299.4100 309.1700 L347.2800 309.1675 C356.0375 309.1650 364.8675 308.9175 373.6175 309.2475 C377.4400 313.8675 380.5150 318.9750 384.7350 323.2900 C398.3725 337.2350 420.7550 345.7100 439.5400 349.7800 C442.3325 350.3600 445.1400 350.8725 447.9575 351.3175 C450.4975 351.6975 456.5375 351.9550 458.5250 352.9075 C459.0700 353.1700 459.0625 353.5125 459.2225 354.0450 C459.0050 355.5250 458.0825 356.5325 457.0600 357.5625 C440.0925 374.6675 419.1825 375.8775 396.5575 375.8775 L373.3750 375.8650 L185.4662 375.8700 L145.3327 375.8675 C138.3237 375.8675 131.2865 375.9975 124.2800 375.8400 C121.3460 375.7750 118.4480 375.0850 115.5153 375.0125 C106.2190 374.7800 96.8087 375.5675 87.5650 374.2525 C78.6070 372.9275 70.1087 369.4325 62.8087 364.0725 C60.0423 362.0350 53.3343 357.4475 52.8112 353.9900 C53.0033 353.4050 53.0605 353.0950 53.6425 352.7675 C54.7433 352.1500 62.5052 351.6375 64.3915 351.2950 C73.0450 349.7275 82.0375 347.7600 90.2925 344.6850 C104.7720 339.2925 119.8452 332.2500 130.1885 320.3475 C131.6232 318.6950 137.0208 309.7000 138.1335 309.1125 Z"></path>
<path id="" fill="#ff9800" fill-opacity="1.0" stroke="#000000" stroke-width="0.0" stroke-opacity="1.0" stroke-linecap="round" stroke-linejoin="round"  filling="0" d="M254.7450 87.3005 C257.8300 87.1515 260.5225 88.1570 262.9525 90.0200 C267.4025 93.4290 274.7225 103.8188 278.7350 108.5625 C283.6925 114.4262 289.7750 119.9512 295.7325 124.8020 C298.4875 127.0462 301.4775 129.0255 304.4250 131.0058 C326.0225 145.5190 350.8225 153.3390 376.3575 157.3822 C381.8875 158.2578 387.5250 158.1930 393.0200 159.0355 C393.8025 159.1552 394.7350 159.2575 395.2325 159.9357 C394.9375 161.5050 393.9425 162.7482 392.8775 163.8967 C385.1750 172.2137 376.1175 177.2515 364.9175 179.4128 C362.3125 179.9155 359.6450 180.0940 357.0175 180.4543 C354.3450 180.8205 351.7550 181.5560 349.0550 181.7648 C345.8325 182.0140 342.5225 181.8825 339.2900 181.8855 C334.6825 181.8900 330.0525 181.9783 325.4475 181.8537 C320.8375 181.7292 316.2375 181.4317 311.6200 181.3920 C308.8025 181.3675 305.9900 181.9215 303.1525 181.8995 C300.3850 181.8783 297.6325 181.5128 294.8700 181.4812 C292.6700 181.4560 290.4675 181.7240 288.2675 181.7332 C285.8400 181.7433 283.4200 181.3725 280.9975 181.2850 C278.9575 181.2112 276.9175 181.4695 274.8800 181.4600 C272.3700 181.4483 269.8700 181.0165 267.3550 181.0513 C264.2875 181.0938 261.2375 181.6217 258.1675 181.7340 C255.8400 181.5375 253.6225 181.1140 251.2600 181.1673 C248.5222 181.2290 245.7725 181.7370 243.0358 181.6922 C239.6825 181.6373 236.3620 181.0040 232.9885 180.9852 C225.7385 180.9453 218.4742 181.5895 211.2227 181.6998 C208.9530 181.7340 206.7038 181.1788 204.4390 181.1280 C201.4492 181.0612 198.4538 181.6353 195.4600 181.6425 C192.5660 181.6492 189.6860 181.1127 186.7845 181.1420 C184.5972 181.1642 182.4303 181.4470 180.2478 181.5135 C175.4900 181.6585 170.7385 181.3438 165.9922 181.1300 C159.0078 180.8152 152.0302 180.5155 145.1642 179.0915 C138.9622 177.8053 133.0380 175.4960 127.8800 171.7785 C124.7303 169.5085 119.9295 165.5095 118.2907 161.9353 C117.8983 161.0793 117.7858 160.0208 117.6345 159.0955 C151.3850 156.8873 185.8810 147.5030 213.2865 126.9815 C216.7652 124.3765 219.8765 121.4620 223.1223 118.5860 C225.2375 116.7120 227.4810 114.9102 229.4890 112.9265 C236.0370 106.4565 246.1990 89.3815 254.7450 87.3005 Z"></path>
<path id="" fill="#ff9800" fill-opacity="1.0" stroke="#000000" stroke-width="0.0" stroke-opacity="1.0" stroke-linecap="round" stroke-linejoin="round"  filling="0" d="M161.3380 223.1145 L288.2175 223.1402 L329.1550 223.1245 C336.5425 223.1195 344.1225 222.7730 351.4850 223.2787 C354.8825 225.9738 357.5300 229.4680 361.0125 232.0647 C372.2575 240.4515 389.5800 242.9140 403.1725 244.5697 C407.3075 245.0733 411.7675 244.5247 415.7825 245.3197 C416.1975 245.7250 416.2500 245.7955 416.2250 246.4240 C416.1100 249.0632 413.1800 251.4600 411.4375 253.2000 C395.6650 268.9525 371.9975 267.8925 351.3500 267.8625 L208.6605 267.8700 L163.0867 267.8725 C155.6220 267.8725 147.1703 268.3500 139.8110 267.7275 C129.5818 266.8625 118.9895 265.5075 109.9365 260.3000 C104.3303 257.0725 97.2848 251.6175 95.5352 245.1020 C98.9835 245.0880 102.4492 245.1170 105.8895 244.8568 C120.9488 243.7173 140.6585 240.4685 152.5545 230.6360 C154.8248 228.7595 156.2097 226.6870 158.1382 224.5345 C159.2025 223.3463 159.7728 223.2145 161.3380 223.1145 Z"></path>
<path id="" fill="#6f0000" fill-opacity="1.0" stroke="#000000" stroke-width="0.0" stroke-opacity="1.0" stroke-linecap="round" stroke-linejoin="round"  filling="0" d="M212.8590 395.9725 C241.6285 395.9050 270.4175 396.2200 299.1850 395.8850 C298.8525 400.0375 299.0625 404.3350 299.0625 408.5050 L299.0600 430.8050 L299.0575 449.9025 C299.0600 453.6800 298.8450 457.6025 299.3125 461.3475 C295.0425 460.6650 290.1950 461.0750 285.8550 461.0750 L261.0200 461.0775 L229.5595 461.0700 C224.1155 461.0700 218.3460 460.6850 212.9433 461.2675 L212.9357 418.0950 C212.9377 410.7600 213.2388 403.2900 212.8590 395.9725 Z"></path>
<path id="" fill="#c62828" fill-opacity="1.0" stroke="#000000" stroke-width="0.0" stroke-opacity="1.0" stroke-linecap="round" stroke-linejoin="round"  filling="0" d="M252.6950 51.3655 C260.4300 50.1693 268.2075 53.2220 273.0625 59.3580 C277.9175 65.4942 279.1000 73.7665 276.1575 81.0168 C273.2150 88.2672 266.6025 93.3765 258.8450 94.3943 C247.0408 95.9425 236.1875 87.7053 234.5030 75.9193 C232.8188 64.1332 240.9303 53.1855 252.6950 51.3655 Z"></path>
<path id="" fill="#700000" fill-opacity="1.0" stroke="#000000" stroke-width="0.0" stroke-opacity="1.0" stroke-linecap="round" stroke-linejoin="round"  filling="0" d="M190.9128 287.9775 L219.1000 287.9625 C224.0558 287.9600 229.5105 287.4600 234.3680 288.3425 C235.5805 289.5275 235.0130 307.1875 235.0770 310.4300 C228.0222 309.7125 220.5697 310.1400 213.4657 310.1375 C206.0582 310.1325 198.4207 309.7425 191.0475 310.3300 C190.8203 302.8825 191.1382 295.4250 190.9128 287.9775 Z"></path>
<path id="" fill="#700000" fill-opacity="1.0" stroke="#000000" stroke-width="0.0" stroke-opacity="1.0" stroke-linecap="round" stroke-linejoin="round"  filling="0" d="M320.8075 287.8925 C321.5825 288.9050 320.7650 306.9150 321.3325 310.4750 C315.1525 309.7250 308.5500 310.1400 302.3125 310.1375 C294.1450 310.1325 285.8800 309.8750 277.7275 310.2875 L277.3425 310.0975 C277.0400 309.3500 277.0500 308.6275 277.0300 307.8375 C276.9250 303.9350 277.0200 300.0100 277.0275 296.1050 C277.0300 294.1175 276.8125 292.0225 277.0500 290.0550 C277.1000 289.6350 277.2450 288.8725 277.5925 288.6000 C278.2475 288.0875 279.4975 288.0900 280.3125 288.0400 C284.4100 287.7925 288.5950 287.9650 292.7075 287.9650 C302.0675 287.9650 311.4500 288.1000 320.8075 287.8925 Z"></path>
<path id="" fill="#700000" fill-opacity="1.0" stroke="#000000" stroke-width="0.0" stroke-opacity="1.0" stroke-linecap="round" stroke-linejoin="round"  filling="0" d="M232.4095 201.8725 L235.0513 201.8035 C234.8743 208.5470 234.6022 217.6725 235.2210 224.2245 C230.5310 223.7235 225.5493 224.0350 220.8293 224.0363 L194.4375 224.0152 C193.2910 223.9915 192.1315 224.0777 190.9852 224.1243 C190.9505 216.7365 191.1037 209.3315 190.9243 201.9465 C204.7032 202.2258 218.6293 202.1057 232.4095 201.8725 Z"></path>
<path id="" fill="#700000" fill-opacity="1.0" stroke="#000000" stroke-width="0.0" stroke-opacity="1.0" stroke-linecap="round" stroke-linejoin="round"  filling="0" d="M320.4100 201.8960 L320.8375 201.8837 C321.3800 202.9032 320.9600 221.0390 321.2700 224.2148 C316.4575 223.6385 311.1950 224.0358 306.3400 224.0365 L278.1875 224.0155 C277.8200 224.0820 277.6475 224.0385 277.2875 223.9608 C276.6225 222.8150 277.0425 204.6330 276.9750 201.9225 C291.4025 202.3385 305.9675 201.9872 320.4100 201.8960 Z"></path>
</svg>