<svg xmlns="http://www.w3.org/2000/svg" viewBox="0 0 512 512" height="512.0px" width="512.0px">
<path id="" fill="#c6da6f" fill-opacity="1.0" stroke="#000000" stroke-width="0.0" stroke-opacity="1.0" stroke-linecap="round" stroke-linejoin="round"  filling="0" d="M220.6090 184.1030 C222.9400 183.8245 225.4792 183.9397 227.8305 183.9440 C243.8595 183.9727 255.3900 189.1217 270.1325 194.1832 C279.8600 197.5237 289.7025 200.5505 299.8800 202.1693 C302.7075 202.6450 305.5650 202.9225 308.4325 203.0000 C313.0700 203.1243 330.6475 202.2917 333.4750 203.6087 C335.4650 204.5140 336.9725 206.2258 337.6225 208.3135 C338.6050 211.5255 338.3775 239.3898 337.2600 243.5258 C336.1550 247.6212 333.6325 250.6675 331.7250 254.3425 L331.5825 254.6175 C333.6925 258.5475 336.5950 261.7525 337.6375 266.2375 C338.4200 269.6000 338.4850 306.3950 337.4750 309.9200 C336.8575 312.0725 335.8625 314.5325 334.6975 316.4400 C334.0425 317.5125 331.9700 319.2150 331.9650 320.4425 C331.9625 320.5275 336.9150 329.6025 337.5575 331.7800 C337.9600 333.1425 337.9925 334.6750 338.0500 336.0900 C338.3125 342.7900 338.0800 349.5950 338.0875 356.3050 C338.0950 361.3400 338.7375 371.4100 337.5375 375.9700 C336.4725 380.0225 334.4575 383.0325 331.6475 386.0825 C333.0575 389.9375 336.0525 392.9800 337.2875 396.9900 C338.8725 402.1325 338.0975 412.1550 338.0725 417.9325 C338.0375 423.7025 338.0500 429.4725 338.1075 435.2425 C338.1400 441.4275 337.5425 446.3125 332.9550 450.8800 C330.9525 452.8725 328.5600 454.4900 325.8750 455.3975 C318.4600 457.8975 300.6575 456.9875 292.1250 456.9700 L229.6060 456.9800 C218.1947 456.9875 206.1685 457.5250 194.8520 456.7675 C191.3810 456.5350 186.2142 456.4550 183.3030 454.5125 C179.1420 451.7350 175.3270 447.1825 174.3528 442.2000 C173.3017 436.8275 173.9865 429.6725 173.9783 424.1325 C173.9673 416.7750 173.6068 409.2600 173.9890 401.9250 C174.0640 400.5900 174.2543 399.2650 174.5573 397.9625 C175.5845 393.5675 177.8050 390.1725 180.3090 386.5025 C178.6333 383.7975 176.8497 381.1325 175.6015 378.1925 C174.8595 376.4450 174.3783 374.6900 174.1705 372.8000 C173.5773 367.4050 173.9420 361.6900 173.9405 356.2625 C173.9388 349.2425 173.2038 337.5000 174.9113 330.8925 C175.9550 326.8550 178.9373 323.9025 180.4130 320.1125 C180.4483 320.0225 180.4803 319.9300 180.5137 319.8400 C178.3675 316.1925 175.6815 313.5250 174.5542 309.2900 C173.6283 305.8150 173.4840 269.4125 174.4803 266.0150 C175.4167 262.8200 179.9857 257.0825 180.0448 254.7875 C180.1033 252.5175 174.6650 246.0448 174.1635 241.4020 C173.4740 235.0175 173.9530 228.1703 173.9425 221.7283 C173.9348 216.9263 173.4405 210.1550 174.1270 205.5485 C174.3260 204.2142 174.6732 203.3687 175.5443 202.3362 C177.6613 199.8262 180.9735 198.0307 183.7940 196.4238 C194.6093 190.2628 208.0610 184.9628 220.6090 184.1030 Z"></path>
<path id="" fill="#27284d" fill-opacity="1.0" stroke="#000000" stroke-width="0.0" stroke-opacity="1.0" stroke-linecap="round" stroke-linejoin="round"  filling="0" d="M231.4575 51.1055 C238.8033 50.7567 246.2595 51.0265 253.6200 51.0273 C261.7350 51.0285 269.9225 50.7895 278.0300 51.0522 C283.4050 51.2263 288.9550 52.3322 292.7275 56.5047 C297.3175 61.5847 297.0800 68.3683 297.0950 74.7578 C297.1025 77.5945 297.1875 80.4770 296.9975 83.3067 C296.6550 88.3392 294.7900 93.1357 290.8975 96.4853 C286.8925 99.9330 281.4625 100.4155 276.4075 100.0600 C276.5050 105.8123 276.7675 111.7075 276.2250 117.4410 C290.4425 117.6373 304.2800 122.0522 315.9850 130.1255 C331.1975 140.7185 341.5800 156.9203 344.8500 175.1675 C346.1775 182.4110 346.0900 189.7180 346.0825 197.0488 L346.0750 216.0930 C346.0925 223.2148 346.8175 236.3432 345.4700 242.8712 C344.4350 247.8760 342.1300 251.6650 339.2850 255.8125 C342.7100 260.1525 345.0375 264.2825 345.7150 269.8475 C346.4300 275.7050 346.5825 304.8625 345.4075 310.0125 C344.4100 314.3825 342.3550 318.2275 339.5925 321.7250 C342.2650 324.9825 344.2575 328.2225 345.2575 332.3550 C346.5900 337.8725 346.6075 370.8975 345.2675 376.3825 C344.5775 379.2175 339.9425 387.0550 339.9275 387.1925 C339.8550 387.8325 341.3225 389.2325 341.7175 389.8025 C342.7250 391.2600 343.5550 393.1025 344.2200 394.7450 C345.8100 398.6700 346.0350 402.8550 346.0700 407.0450 L346.1075 425.8150 C346.1100 430.6200 346.5050 435.8550 345.5150 440.5625 C344.5325 445.2375 342.1825 450.4500 338.7825 453.8675 C335.6175 457.0450 331.0800 459.1200 326.7425 460.0850 C320.4225 461.4875 313.3150 460.9725 306.8650 460.9750 L281.6250 460.9675 L218.3310 460.9675 L201.3085 460.9825 C196.4895 460.9950 191.5680 461.2000 186.7980 460.4150 C182.5573 459.7200 178.2345 457.8975 174.8455 455.2450 C170.0213 451.4675 166.9820 445.3275 166.2513 439.3175 C165.5797 433.7925 165.9597 427.9650 165.9523 422.3950 C165.9430 415.5325 165.2040 403.6425 166.8513 397.3000 C167.8750 393.3600 169.9045 390.2600 172.3687 387.0725 C169.5565 383.9775 167.2785 379.9875 166.5315 375.8400 C165.3375 369.2100 165.9402 361.7250 165.9427 354.9875 C165.9447 348.8575 165.6333 342.5225 166.1105 336.4175 C166.2552 334.5650 166.5500 332.6375 167.0525 330.8450 C168.0267 327.3700 170.2608 324.4775 172.2782 321.5500 C169.6198 318.3050 167.3483 314.5450 166.5652 310.3725 C165.3455 303.8750 165.9373 296.5800 165.9418 289.9650 C165.9460 283.7525 165.6712 277.3725 166.1005 271.1750 C166.2298 269.3100 166.5190 267.3925 167.0145 265.5875 C168.0355 261.8650 170.4510 258.7200 172.6057 255.5875 C167.7657 249.4475 166.0830 244.2450 165.9510 236.4427 C165.7790 226.2663 165.9612 216.0525 165.9527 205.8720 C165.9458 197.6290 165.4998 189.0538 166.2975 180.8550 C167.7567 165.8610 174.5430 150.1690 185.1087 139.2773 C198.3110 125.5005 216.4920 117.6015 235.5717 117.3525 C235.3717 111.6403 235.3817 105.9225 235.6017 100.2110 C230.3183 100.1468 225.1608 99.7953 220.8845 96.3467 C217.4545 93.5807 215.5972 89.7005 215.1647 85.3618 C214.8508 82.2115 214.9710 78.9612 214.9713 75.7957 C214.9720 69.1880 214.3783 62.3602 218.8788 56.9287 C222.1175 53.0202 226.5615 51.5525 231.4575 51.1055 Z M329.1350 415.5625 C329.1525 410.8500 330.2275 401.4725 326.8125 398.0075 C322.1125 393.2425 316.5625 398.9050 310.3200 390.5400 C309.9225 387.6950 309.5625 384.5400 311.4650 382.1100 C314.4875 378.2500 319.0450 379.5700 323.0875 378.3275 C325.6375 377.5425 327.6575 375.7325 328.5900 373.2100 C328.9275 372.2950 329.0725 371.3750 329.1275 370.4050 C329.4325 365.1100 329.0875 359.6750 329.1025 354.3650 C329.1175 349.0475 329.5200 343.4700 329.0475 338.1775 C328.8400 335.8500 327.9725 333.5850 326.1650 332.0350 C325.1675 331.1775 323.9650 330.5925 322.6750 330.3375 C319.9500 329.7850 316.9000 330.0325 314.1225 330.0400 C308.2550 330.0575 285.9000 330.8175 281.8300 329.2175 C279.1375 328.1575 277.4625 326.1575 277.1475 323.2725 C276.8700 320.7325 277.3800 318.3750 279.0525 316.3875 C281.0850 313.9725 283.5325 313.2975 286.5475 313.1100 C290.1250 312.8875 293.7775 313.0175 297.3625 313.0250 L315.0000 313.0600 C318.0100 313.0675 321.1500 313.2725 324.1450 313.0400 C325.6100 312.0500 328.6625 309.7075 329.0150 307.9425 C329.4400 305.8000 329.3375 273.6375 328.9175 271.0950 C328.7250 269.9425 328.0450 268.7975 327.3725 267.8525 C326.3150 266.3700 324.3775 265.0900 322.5525 264.8575 C317.9450 264.2675 312.7300 264.8100 308.0600 264.8200 L276.3225 264.8025 L218.0455 264.8050 C208.2478 264.8050 198.3420 264.4775 188.5582 264.8250 C186.4187 265.3475 184.6402 266.6225 183.4503 268.4950 C182.8775 269.3975 182.5592 270.3150 182.4010 271.3650 C181.6140 276.5875 181.7303 303.6350 182.9232 308.4575 C183.3262 310.0875 184.7085 311.5800 186.1625 312.3900 C190.7287 314.9375 197.0943 311.1375 199.6870 318.7075 C200.4682 320.9900 200.3918 323.9825 199.2397 326.1325 C198.3058 327.8775 196.6550 328.9450 194.7800 329.4625 C190.6640 330.6025 186.1178 329.6500 183.5072 333.9775 C182.7603 335.2175 182.3975 336.6800 182.2325 338.1075 C181.7108 342.6100 181.7213 369.9275 182.6777 373.4000 C183.1908 375.2425 184.4380 376.7925 186.1272 377.6900 C190.5440 380.0750 197.6122 377.7025 199.5643 383.8725 C200.2818 386.1400 200.6288 389.0975 199.4818 391.2650 C198.3890 393.3300 196.1490 394.6100 193.9538 395.1850 C189.7735 396.2850 185.7390 395.2650 183.1268 399.7275 C181.3620 402.7425 181.8687 430.5900 182.2823 435.6575 C182.4017 437.1200 182.6727 438.6800 183.1792 440.0600 C183.7610 441.6450 185.5320 443.1250 187.0462 443.7850 C187.9645 444.1850 189.2267 444.1425 190.2225 444.1525 C197.5265 444.2375 204.8562 444.0550 212.1645 444.0525 L268.4200 444.0575 L302.8025 444.0650 C308.7000 444.0675 314.6875 444.2800 320.5775 444.0400 C321.8625 443.9900 323.9175 443.8275 325.0550 443.2475 C326.7775 442.3725 328.2625 440.0500 328.7650 438.2225 C329.7800 434.5325 329.1225 420.2475 329.1350 415.5625 Z M252.0350 100.0515 C251.7200 105.7220 252.5400 111.5573 252.0275 117.2045 C254.6050 117.0878 257.1875 117.0435 259.7675 117.0715 L260.0175 116.7395 L259.8775 116.7385 L259.8025 116.4400 L260.0775 116.3850 C259.8325 111.0472 259.8300 105.5098 260.0975 100.1730 C257.4800 100.2100 254.6225 100.4625 252.0350 100.0515 Z M231.4610 67.4293 C231.5517 72.9325 231.8120 78.5330 231.3127 84.0160 C242.0240 83.8508 252.7375 83.8073 263.4500 83.8860 C268.8425 83.8723 275.3125 83.3245 280.5375 84.0280 C280.3800 78.5010 280.3525 73.0332 280.5550 67.5072 C269.2200 67.7100 257.8825 67.7725 246.5475 67.6942 C242.2690 67.6862 235.4662 68.1233 231.4610 67.4293 Z M280.1250 248.0052 L307.4075 248.0172 C311.9275 248.0168 317.0900 248.5170 321.5050 247.6810 C323.5450 247.2943 324.9175 246.7402 326.3875 245.2725 C329.1650 242.4970 329.3175 240.5225 329.2900 236.7695 C329.2225 227.1545 329.0575 217.5132 329.2225 207.8995 C329.4950 192.0865 331.2975 178.0115 323.7775 163.3140 C321.1800 158.2395 317.9625 153.8517 313.8975 149.8555 C304.7475 140.8622 294.4000 134.9800 281.3800 133.9263 C275.4050 133.4430 269.2300 133.7385 263.2325 133.7493 C254.1725 133.7652 245.0963 133.6138 236.0378 133.7140 C234.8470 133.7272 233.6008 133.7120 232.4215 133.8537 C215.9503 135.0530 204.4393 142.3905 193.8223 154.6042 C188.7815 160.4032 185.3707 167.9312 183.7623 175.4075 C182.0618 183.3118 182.5883 191.3528 182.7112 199.3687 C182.7567 205.1093 182.7672 210.8497 182.7422 216.5903 L182.7070 231.8805 C182.6940 234.4535 182.4890 237.1402 182.7215 239.6995 C182.9690 242.4252 184.4535 244.5658 186.5490 246.2778 C188.0240 247.4828 189.5460 247.6780 191.3775 247.8472 C194.9100 248.1738 198.5538 248.0098 202.1045 248.0110 L220.6893 248.0065 L280.1250 248.0052 Z"></path>
</svg>