<svg xmlns="http://www.w3.org/2000/svg" viewBox="0 0 512 512" height="512.0px" width="512.0px">
<path id="" fill="#4b65ae" fill-opacity="1.0" stroke="#000000" stroke-width="0.0" stroke-opacity="1.0" stroke-linecap="round" stroke-linejoin="round"  filling="0" d="M175.6625 298.1050 C185.9270 297.7425 196.3253 298.1125 206.6060 298.1100 L271.2825 298.1275 L312.7550 298.1300 C320.6475 298.1125 328.8350 297.6575 336.6925 298.3200 C339.6350 298.5675 341.9625 299.2425 344.3825 301.0050 C347.0550 302.9525 349.2800 305.6900 349.7575 309.0425 C350.6475 315.3025 350.0575 322.7025 350.0500 329.1150 L350.0600 366.2750 L350.0675 412.1475 L350.0800 426.7100 C350.0825 429.5850 350.2075 432.5500 349.9400 435.4125 C349.6475 438.5100 348.7400 441.5650 346.7850 444.0325 C344.1225 447.3950 341.0225 448.2000 336.9950 448.7425 C325.2600 449.1825 313.4200 448.9050 301.6725 448.9125 L236.9180 448.9200 L195.2652 448.9300 C188.6402 448.9250 181.6317 449.4450 175.0497 448.7875 C171.7993 448.4625 168.6940 447.4275 166.1673 445.2975 C163.2755 442.8625 161.7830 439.0025 161.5202 435.3000 C160.9478 427.2350 161.3420 418.9675 161.3418 410.8775 L161.3347 366.4400 L161.3488 331.8225 C161.3488 325.3050 160.9138 318.4450 161.6348 311.9775 C162.0170 308.5500 162.8875 305.5275 165.2255 302.8825 C168.0482 299.6900 171.4933 298.3800 175.6625 298.1050 Z"></path>
<path id="" fill="#4b65ae" fill-opacity="1.0" stroke="#000000" stroke-width="0.0" stroke-opacity="1.0" stroke-linecap="round" stroke-linejoin="round"  filling="0" d="M229.3180 210.4337 C216.1740 210.7173 202.9948 210.5480 189.8465 210.5448 C182.2440 210.5428 172.0855 211.3295 164.7950 209.8270 C160.5890 208.9603 156.7997 207.2332 153.6875 204.2188 C146.9620 197.7043 146.3305 189.9597 146.2617 181.1215 L146.2708 146.4967 C146.2818 138.3898 145.5762 129.5708 147.1995 121.6223 C148.0983 117.2213 149.8123 113.0880 152.9805 109.8297 C157.9735 104.6945 163.5168 103.0290 170.4962 102.9897 L290.5525 102.9985 L325.4175 102.9877 C332.1275 102.9763 339.3925 102.4052 346.0075 103.4228 C350.4950 104.1133 354.8150 106.4940 358.0350 109.6687 C365.3950 116.9262 365.0450 129.8845 365.0375 139.4633 L364.9925 166.9377 C365.0025 175.0705 365.7050 184.3013 363.8050 192.2260 C362.7025 196.8205 360.5800 201.1718 357.2275 204.5395 C354.7375 207.0410 351.7225 208.8515 348.2850 209.7068 C342.9450 211.0358 336.8950 210.5692 331.4200 210.5582 L298.7175 210.5355 C293.8725 210.5195 286.9375 210.0075 282.2550 210.6953 C282.2975 212.6505 282.1150 214.6073 282.1700 216.5712 C282.4100 225.3692 282.9425 234.0997 282.7525 242.9097 C282.6425 248.0208 282.6775 253.2525 278.6175 256.9925 C276.8675 258.6050 274.8525 259.2525 272.5625 259.6675 C267.4100 260.6000 261.5925 260.0025 256.3550 260.0050 C251.1750 260.0100 245.8958 260.3125 240.7240 260.0325 C237.4312 259.8550 234.3273 259.0075 232.0925 256.4125 C230.9583 255.0950 229.9625 253.3275 229.5905 251.6175 C228.5535 246.8525 229.1472 241.1512 229.1345 236.2670 C229.1122 227.6800 228.8703 219.0083 229.3180 210.4337 Z"></path>
<path id="" fill="#ea5d5c" fill-opacity="1.0" stroke="#000000" stroke-width="0.0" stroke-opacity="1.0" stroke-linecap="round" stroke-linejoin="round"  filling="0" d="M229.3180 210.4337 C229.8545 204.5647 229.5650 198.5425 229.5278 192.6545 C229.5043 188.9160 229.1707 184.7515 230.2230 181.1190 C230.7600 179.2652 231.7615 177.6595 233.2518 176.4225 C234.6165 175.2895 236.3947 174.4888 238.1305 174.1385 C243.2807 173.1003 249.0287 173.5565 254.2750 173.5360 C259.8550 173.5143 265.6175 173.1938 271.1650 173.8392 C274.7200 174.2530 277.4650 175.0668 279.7650 178.0450 C280.6900 179.2442 281.2475 180.4985 281.5825 181.9715 C282.6925 186.8255 281.9275 199.4303 281.9075 205.0522 C281.9025 206.7125 281.6400 209.1832 282.2550 210.6953 C282.2975 212.6505 282.1150 214.6073 282.1700 216.5712 C282.4100 225.3692 282.9425 234.0997 282.7525 242.9097 C282.6425 248.0208 282.6775 253.2525 278.6175 256.9925 C276.8675 258.6050 274.8525 259.2525 272.5625 259.6675 C267.4100 260.6000 261.5925 260.0025 256.3550 260.0050 C251.1750 260.0100 245.8958 260.3125 240.7240 260.0325 C237.4312 259.8550 234.3273 259.0075 232.0925 256.4125 C230.9583 255.0950 229.9625 253.3275 229.5905 251.6175 C228.5535 246.8525 229.1472 241.1512 229.1345 236.2670 C229.1122 227.6800 228.8703 219.0083 229.3180 210.4337 Z"></path>
<path id="" fill="#ea5d5c" fill-opacity="1.0" stroke="#000000" stroke-width="0.0" stroke-opacity="1.0" stroke-linecap="round" stroke-linejoin="round"  filling="0" d="M102.6718 329.3500 C106.2832 328.5500 114.9045 329.0375 118.0390 330.8850 C120.3853 332.2650 121.8905 334.3925 122.4695 337.0400 C123.3900 341.2500 122.9173 346.2075 122.8810 350.5000 L122.8745 366.0975 L122.8893 397.2950 C122.8903 403.5025 123.1080 409.8250 122.7057 416.0200 C122.5225 418.8400 122.5558 421.9850 120.9435 424.4025 C119.2672 426.9175 117.0728 428.2150 114.1920 428.8225 C109.1370 429.5000 100.1740 429.8625 96.0860 426.6650 C94.4125 425.3550 93.4337 423.7950 93.1715 421.6850 C92.6525 417.5075 92.9818 412.9500 92.9832 408.7375 L92.9812 385.0225 L92.9788 354.1125 C92.9800 348.4700 92.6568 342.5925 93.1722 336.9775 C93.3278 335.2850 93.6795 334.0850 94.7827 332.7425 C96.7970 330.2925 99.6785 329.6450 102.6718 329.3500 Z"></path>
<path id="" fill="#ea5d5c" fill-opacity="1.0" stroke="#000000" stroke-width="0.0" stroke-opacity="1.0" stroke-linecap="round" stroke-linejoin="round"  filling="0" d="M404.7550 329.1175 C408.7175 329.1175 412.9825 328.6100 416.1075 331.5650 C418.5150 333.8425 418.8800 336.1325 419.0000 339.3200 C419.2225 345.1250 419.0250 351.0150 419.0175 356.8275 L418.9975 390.3425 L419.0375 409.9300 C419.0450 413.4950 419.3050 417.2800 418.8850 420.8175 C418.6350 422.9250 417.9925 424.5000 416.5025 426.0475 C413.1550 429.5275 408.3700 429.0725 403.9650 429.0750 C399.8475 429.0700 395.4875 429.1750 392.2975 426.0800 C389.5700 423.4375 389.4350 419.7175 389.3175 416.1400 C389.1325 410.3900 389.2825 404.5925 389.2875 398.8400 L389.2925 368.0075 L389.2925 349.9950 C389.2925 346.0175 389.0925 341.9025 389.6225 337.9550 C389.9475 335.5425 390.4575 333.9375 392.2050 332.1500 C395.5575 328.7275 400.3650 329.1850 404.7550 329.1175 Z"></path>
<path id="" fill="#3f4651" fill-opacity="1.0" stroke="#000000" stroke-width="0.0" stroke-opacity="1.0" stroke-linecap="round" stroke-linejoin="round"  filling="0" d="M239.1175 51.1053 C245.4688 50.8302 251.9050 51.0265 258.2650 51.0237 C273.7800 51.0168 287.1475 50.7165 299.5525 61.7305 C307.9225 69.1622 312.2150 79.2247 312.8850 90.2982 C320.8450 89.7563 328.9650 90.0320 336.9425 90.0345 C348.5950 90.0383 359.8975 91.1302 368.5700 99.9090 C378.6800 110.1400 378.1000 122.6130 378.0875 135.9547 C384.4250 136.0748 391.2125 138.7135 395.6550 143.2925 C399.3075 147.0575 401.2350 151.9557 401.9900 157.0712 C402.9100 163.2920 402.4950 170.9727 402.4975 177.3725 L402.5050 211.3407 C402.7525 248.4673 402.6375 285.5950 402.1575 322.7200 C406.5075 322.6825 410.9575 322.2775 415.2850 322.8375 C419.9975 323.4450 424.0975 325.6525 426.9625 329.4950 C428.7375 331.8775 429.5850 335.0075 429.8975 337.9275 C430.4700 343.2400 430.1125 348.8700 430.1025 354.2150 L430.0725 382.7875 L430.1025 407.2575 C430.1150 411.9850 430.5150 417.0675 429.8400 421.7375 C429.1850 426.2550 427.1750 430.4125 423.4550 433.1725 C418.3850 436.9350 408.2325 437.0550 402.1925 436.1775 C401.7375 442.8500 399.8925 448.9125 395.0875 453.7500 C391.6075 457.2550 386.6225 459.5750 381.7750 460.3975 C376.8600 461.2325 371.6725 460.9700 366.6975 460.9675 L346.5575 460.9525 L272.6250 460.9600 L178.8680 460.9600 L149.9285 460.9800 C144.0405 460.9825 138.0002 461.2550 132.1405 460.6575 C128.4990 460.2850 124.7347 459.0450 121.5892 457.1700 C116.2495 453.9900 112.0242 448.8050 110.6158 442.6950 C110.1430 440.6450 110.0782 438.5200 109.5755 436.4775 C106.9187 436.0875 103.9857 436.4850 101.2900 436.4800 C95.8140 436.4675 90.4050 435.4750 86.4285 431.4050 C84.1592 429.0825 82.8207 426.1075 82.2965 422.9275 C81.6752 419.1600 81.9460 415.1500 81.9555 411.3400 L81.9652 394.2225 C81.9720 376.2100 81.5537 358.1075 81.9825 340.1100 C82.1042 335.0050 83.3033 330.5850 87.1212 326.9825 C93.0820 321.3575 102.3270 322.5100 109.8702 322.7625 C109.8538 322.5750 109.8392 322.3875 109.8272 322.2025 C109.1602 310.1675 109.5818 297.8975 109.5797 285.8400 L109.5788 221.1340 L109.5820 180.0550 C109.5867 172.7142 109.0830 163.9545 110.0827 156.7843 C110.7300 151.8830 112.8160 147.2840 116.0772 143.5685 C120.7235 138.3555 127.4473 136.2462 134.2200 135.8273 C133.9020 131.1647 133.8725 126.3327 134.1065 121.6633 C134.5468 112.8830 138.1915 104.4270 144.8080 98.5392 C148.8500 94.9952 153.6902 92.4832 158.9150 91.2177 C166.3910 89.3603 174.7835 90.0345 182.4622 90.0428 C187.9778 90.0488 193.5417 89.9062 199.0465 90.2525 C199.5935 80.4945 203.4245 71.2083 209.9173 63.9030 C217.1283 55.8568 228.5645 51.7318 239.1175 51.1053 Z M166.0600 445.0150 C185.7595 444.6175 205.5282 444.9300 225.2360 444.9325 L334.6250 444.9325 C336.8575 444.9500 343.9825 445.6050 345.4675 444.1925 C346.2700 443.4300 345.9650 407.4550 345.9650 403.7975 L345.9525 343.2075 L345.9700 325.4225 C345.9750 321.8500 346.1975 318.1100 345.7475 314.5650 C345.4375 312.1325 344.4550 309.5050 342.4150 308.0125 C340.4950 306.6050 338.0775 306.2875 335.7675 306.1450 C328.1800 305.6775 320.3650 306.0725 312.7525 306.0725 L267.3750 306.0675 L208.1662 306.0625 C198.0995 306.0625 187.9128 305.7400 177.8565 306.1125 C174.5430 306.2950 170.8013 306.3700 168.4507 309.0975 C166.7628 311.0575 166.4178 313.6350 166.2105 316.1350 C165.8277 320.7475 166.0692 325.5350 166.0688 330.1675 L166.0685 355.4600 C166.0703 385.3000 166.4173 415.1825 166.0600 445.0150 Z M240.0375 183.0202 L240.0592 224.7610 C240.0618 232.4998 240.2190 240.2778 240.0163 248.0132 C246.3338 247.8598 252.6525 247.8038 258.9725 247.8455 C263.3575 247.8400 267.8275 247.6720 272.1975 248.0010 C271.9050 235.6523 272.0850 223.2680 272.0825 210.9153 C272.0825 201.6478 271.7775 192.2632 272.2350 183.0083 C265.4250 183.3073 258.5325 183.0887 251.7100 183.0892 C247.9040 183.0895 243.7993 183.4662 240.0375 183.0202 Z M98.1590 420.0725 C102.1170 419.9825 106.0760 419.9525 110.0348 419.9825 C109.7242 407.5150 109.9500 394.9925 109.9505 382.5200 C109.9512 368.0575 109.7640 353.5650 110.0063 339.1050 C106.0378 339.1200 102.0695 339.1075 98.1013 339.0675 C97.8448 351.6150 98.0762 364.2025 98.0770 376.7525 C98.0775 391.1850 97.8780 405.6450 98.1590 420.0725 Z M296.8300 90.2095 C295.6850 82.7628 292.3100 76.4518 286.1450 71.9390 C283.4275 69.9677 280.3025 68.6317 276.9975 68.0295 C271.6525 67.0717 263.0075 67.7258 257.3700 67.7238 C250.8350 67.7213 244.1107 67.2937 237.5970 67.6030 C230.1817 68.4665 224.6658 71.7623 220.0388 77.6577 C217.0760 81.4327 216.0282 85.6963 215.1410 90.3207 C223.2012 89.9420 231.2908 90.0675 239.3585 90.0665 L274.6250 90.0703 C282.0275 90.0428 289.4300 90.0890 296.8300 90.2095 Z M402.1600 420.1575 C406.1075 419.9200 410.0800 420.2200 414.0150 419.9200 C413.7875 406.2800 413.9450 392.6150 413.9475 378.9725 C413.9500 365.6925 413.7875 352.3850 414.0075 339.1100 C410.0575 339.1200 406.0350 339.2950 402.0950 339.0775 C401.8125 351.1775 402.0775 363.3400 402.0775 375.4475 C402.0775 390.3425 401.8700 405.2675 402.1600 420.1575 Z M288.5125 220.2095 C288.7675 228.3828 289.8725 247.2068 287.5850 254.1000 C286.9275 256.0875 285.5125 258.0950 284.0875 259.6175 C280.3700 263.5850 275.7425 264.0025 270.6275 264.1250 C264.2925 264.2775 257.9350 264.1975 251.5975 264.1950 C246.3168 264.1925 240.1085 264.7925 234.9830 263.5225 C232.3737 262.8775 229.7773 261.4600 227.8270 259.6125 C223.4595 255.4775 223.2675 249.9408 223.2125 244.3215 C223.1013 236.2885 223.2303 228.2543 223.5995 220.2290 C211.3233 220.3835 199.0460 220.4390 186.7690 220.3955 C178.1127 220.3920 166.6785 221.1860 158.4523 219.1718 C153.0282 217.8438 147.7050 214.9408 143.6960 211.0437 C136.6682 204.2122 134.1152 195.1680 134.0302 185.6283 C133.9985 182.0610 134.4122 153.2928 133.7355 152.0737 L133.2247 152.0375 C130.6505 152.8013 128.2640 154.2675 126.9665 156.7238 C126.1830 158.2075 126.1215 160.0030 126.0875 161.6492 C125.9478 168.4325 126.1093 175.2470 126.1048 182.0340 L126.0860 226.1715 L126.0793 356.7850 L126.0755 408.6825 C126.0725 414.3525 125.4857 435.9675 126.6265 439.4075 C127.1505 440.9900 129.0018 443.1650 130.5163 443.8775 C133.6830 445.3650 146.0110 444.2025 150.5290 444.6900 C149.6163 436.0900 150.1597 426.4775 150.1615 417.7750 L150.1725 369.4625 L150.1752 332.1200 C150.1712 325.5350 149.6345 318.5475 150.4945 312.0275 C151.1380 307.1450 152.9787 302.6625 156.0780 298.8200 C160.1590 293.7600 166.5607 290.9575 172.9283 290.3100 C176.9555 289.9000 181.0535 290.0375 185.0975 290.0450 L201.5830 290.0575 L257.8450 290.0600 L310.5775 290.0575 C319.9750 290.0550 330.9500 289.4025 340.1275 290.5600 C345.0500 291.1725 349.7000 293.1700 353.5350 296.3200 C358.5250 300.3800 361.0575 307.0025 361.6550 313.2500 C362.1300 318.2400 361.9750 323.3100 361.9725 328.3175 L361.9625 349.9225 L361.9600 420.3750 C362.0325 428.4725 361.9500 436.5675 361.7125 444.6625 C366.1825 444.4050 376.2825 445.0250 379.7875 444.1625 C381.4100 443.7675 382.8775 442.9075 384.0150 441.6850 C385.6475 439.9100 385.8050 437.3325 385.9025 435.0075 C386.1550 428.9275 385.9675 422.7750 385.9675 416.6875 L385.9675 382.8950 L385.9650 280.8725 L385.9600 200.6882 L385.9600 174.7280 C385.9575 170.1595 386.1875 165.4478 385.8875 160.8922 C385.7150 158.2713 384.9500 155.9117 382.9050 154.1622 C381.4825 152.9467 379.7900 152.3353 378.0225 151.8130 L378.0925 175.7182 C378.0975 181.5270 378.4625 187.5440 377.3275 193.2615 C376.0700 199.5995 373.0075 206.4312 368.3875 211.0425 C364.2875 215.1373 358.7925 217.9425 353.1825 219.2670 C345.2025 221.1508 334.4175 220.3777 326.1350 220.3752 L291.4425 220.3412 C290.4675 220.3338 289.4850 220.3212 288.5125 220.2095 Z M305.1250 203.8725 L334.3950 203.8890 C339.1075 203.8905 345.5575 204.4747 350.0400 203.4727 C352.7400 202.8687 354.8000 201.5757 356.7350 199.6355 C359.3200 197.0460 360.9675 193.4660 361.6825 189.9025 C362.1950 187.3383 361.9800 184.4505 361.9800 181.8400 L361.9725 169.0672 L361.9500 124.7722 C361.8975 119.4433 360.9700 115.2613 357.0275 111.4810 C353.9850 108.5642 350.1775 106.9538 346.0225 106.3723 C340.0050 105.5307 332.7025 106.0675 326.5450 106.0683 L289.0000 106.0738 L211.6122 106.0655 C197.8565 106.0642 184.0853 105.9255 170.3310 106.0997 C170.3078 106.1000 170.2845 106.1010 170.2612 106.1017 C164.0150 106.4725 158.4415 107.5785 154.1022 112.4408 C152.0258 114.7675 150.8770 117.3150 150.3582 120.3735 C149.8090 123.6118 150.0725 127.2205 150.0700 130.5095 L150.0627 147.5688 L150.0647 173.6350 C150.0660 178.4178 149.8480 183.3152 150.1613 188.0838 C150.4617 192.6573 152.7737 197.3605 156.2390 200.3972 C158.2800 202.1857 160.6483 203.1615 163.3087 203.5842 C168.8568 204.4660 176.1235 203.9043 181.8707 203.9030 C195.9043 203.8995 209.9998 203.6135 224.0260 203.9490 C223.9295 198.7350 223.3353 181.8990 224.3475 177.7030 C224.9465 175.2202 226.3268 173.0403 228.1010 171.2270 C232.1053 167.1337 236.8322 166.9317 242.1832 166.9162 L261.9275 166.9158 C266.9100 166.9193 273.0050 166.2737 277.8075 167.6008 C280.0525 168.2213 282.2550 169.5748 283.9025 171.2063 C288.2600 175.5222 288.1300 180.2200 288.1100 185.9082 C288.1450 191.9415 288.1300 197.9747 288.0650 204.0075 C293.7525 203.8943 299.4375 203.8492 305.1250 203.8725 Z"></path>
<path id="" fill="#ffffff" fill-opacity="0.0235294" stroke="#000000" stroke-width="0.0" stroke-opacity="1.0" stroke-linecap="round" stroke-linejoin="round"  filling="0" d="M243.4390 267.3450 C248.7222 267.0325 254.0825 267.2575 259.3775 267.2450 C263.0450 267.2375 266.9300 266.9250 270.5725 267.2050 C271.1425 267.2500 271.5000 267.3750 272.0025 267.6325 C268.8225 268.0825 265.2200 267.7875 261.9850 267.7925 C255.9200 267.8025 249.4167 268.3050 243.4390 267.3450 Z"></path>
</svg>