<svg xmlns="http://www.w3.org/2000/svg" viewBox="0 0 512 512" height="512.0px" width="512.0px">
<path id="" fill="#abeff1" fill-opacity="1.0" stroke="#000000" stroke-width="0.0" stroke-opacity="1.0" stroke-linecap="round" stroke-linejoin="round"  filling="0" d="M89.9955 172.9485 L217.0793 172.9445 C216.9312 178.4725 217.0395 184.0332 217.0323 189.5647 C217.0262 193.9617 216.6315 198.7878 217.4368 203.1073 C218.0892 206.6075 219.9538 210.0278 221.3593 213.2880 C224.2207 219.9095 227.1447 226.5040 230.1308 233.0703 C231.7565 236.7010 233.1635 240.4173 234.7505 244.0627 L246.8740 271.7875 C248.5875 275.7950 250.3625 279.7775 252.2000 283.7300 C253.4225 286.4075 255.2525 289.5375 255.8025 292.4300 C256.5825 296.5050 256.0825 301.2950 256.0750 305.4600 L256.0500 331.0950 L256.0550 402.2175 C256.0550 415.1475 255.7775 428.1375 256.1475 441.0600 C243.1690 440.7125 230.1113 441.0025 217.1250 441.0025 L109.3842 441.0025 C89.9315 441.0025 70.4580 440.8125 51.0075 441.0625 L51.0123 342.0850 L50.9962 315.0625 C50.9915 307.5000 50.5123 299.5475 52.0802 292.1125 C53.1215 287.1750 55.7838 282.8700 57.6682 278.2375 C61.9958 267.6025 66.8132 257.2175 71.4440 246.7177 C74.9847 238.6900 78.2660 230.5460 81.8140 222.5215 C84.0635 217.4342 88.7332 208.5352 89.7090 203.4495 C90.3930 199.8837 90.0163 195.8355 90.0132 192.2010 L89.9955 172.9485 Z M166.4225 428.5350 C166.7905 427.8475 166.8997 427.3575 166.9435 426.5775 C167.1835 422.2975 166.9937 417.9000 166.9937 413.6125 L166.9935 388.7225 C166.9930 359.1625 166.6633 329.5625 167.0247 300.0050 L64.0390 300.0175 L64.0673 386.3275 L64.0683 414.7775 C64.0685 419.4800 64.3000 424.3075 64.0323 428.9950 L133.4532 428.9650 C138.4223 428.9675 163.7495 429.5475 166.4225 428.5350 Z M67.7585 287.9100 C77.3288 288.0125 167.5720 288.2650 168.6915 287.8175 L168.9015 287.4450 C170.0108 284.0900 171.5430 280.9300 172.9760 277.7075 L179.3743 263.3400 C184.1817 252.5650 188.6487 241.6440 193.5517 230.9150 C195.2385 227.2238 196.8873 223.4928 198.6217 219.8265 C199.9328 217.0547 201.6212 214.2498 202.3233 211.2490 C198.2695 210.8112 194.0805 210.9982 190.0045 210.9985 L170.2595 211.0090 C146.8997 211.0195 123.5117 211.2457 100.1555 210.9865 C98.6125 213.5600 97.6263 216.8175 96.4262 219.5997 L88.5208 237.7128 C83.6202 249.0475 78.4975 260.2675 73.6992 271.6450 C72.2065 275.1850 70.5405 278.6900 69.1955 282.2875 C68.4967 284.1550 68.0145 285.9300 67.7585 287.9100 Z M102.0455 198.9960 L165.5827 198.9653 C178.7295 198.9662 191.9052 198.7858 205.0490 199.0125 C204.9950 194.3435 204.9905 189.6740 205.0358 185.0050 L102.0188 185.0123 C102.0475 189.6302 102.3310 194.3945 102.0455 198.9960 Z"></path>
<path id="" fill="#4d5152" fill-opacity="1.0" stroke="#000000" stroke-width="0.0" stroke-opacity="1.0" stroke-linecap="round" stroke-linejoin="round"  filling="0" d="M51.0047 441.3725 C50.6508 430.8775 51.0237 420.2500 51.0285 409.7400 L51.0407 345.4575 L51.0365 313.7125 C51.0300 308.7775 50.3460 296.7675 51.5648 292.6225 C52.3945 289.8000 53.6862 287.0700 54.8398 284.3675 C56.7182 279.9700 58.6190 275.5825 60.5415 271.2025 L80.2258 225.7575 C83.1330 218.9250 86.5488 212.1693 88.8395 205.0972 C90.7795 199.1080 87.9918 175.6037 89.8672 172.7413 C92.2990 172.3127 95.2710 172.5943 97.7625 172.5520 C105.1747 172.4695 112.5875 172.4447 120.0000 172.4783 L187.9050 172.4848 C194.1808 172.4930 200.4642 172.4440 206.7395 172.5372 C210.3667 172.5912 214.0683 172.9420 217.6835 172.7222 L218.0420 172.6987 L217.9505 192.6355 C217.9377 196.2910 217.5435 200.3580 218.2103 203.9487 C218.9057 207.6945 222.6940 214.7567 224.3248 218.7388 C231.2962 235.7610 238.8425 252.5875 246.2145 269.4400 C249.3017 276.4975 252.9975 283.5225 255.5550 290.7700 C256.0775 292.2475 256.0575 294.0175 256.0875 295.5700 C256.2600 304.8775 255.9975 314.2125 256.0025 323.5225 L256.0550 397.9850 L256.1000 422.9275 C256.1500 427.5000 256.8275 434.5475 255.9975 438.8275 C256.0425 439.7725 256.1900 440.3475 255.7650 441.2050 C255.2150 441.5700 254.8025 441.7575 254.1350 441.7875 C252.6175 441.8575 251.0575 441.6050 249.5282 441.6100 L231.5200 441.6425 L166.5948 441.5575 L96.7582 441.5675 L72.1580 441.5375 C67.3490 441.5300 62.5213 441.6525 57.7158 441.4725 C55.4727 441.5025 53.2572 441.2700 51.0047 441.3725 Z M63.8830 300.5550 C64.5007 312.0450 64.0530 323.7625 64.0460 335.2700 L64.0415 398.0400 C64.0443 408.3425 63.5627 418.9400 64.2840 429.2075 C65.8895 429.0125 67.4463 428.9750 69.0625 428.9875 L166.5255 428.9550 C166.1790 402.9025 166.0927 376.8475 166.2670 350.7950 C166.2572 333.9950 165.8495 317.0550 166.6215 300.2750 C165.6102 300.3200 164.5990 300.3775 163.5867 300.3775 C130.3635 300.8500 97.1127 300.2225 63.8830 300.5550 Z M102.4622 185.4820 C102.4770 189.7948 102.6257 194.1545 102.4438 198.4615 L176.6078 198.1057 C182.6120 198.0765 188.6163 198.1263 194.6192 198.2555 C197.8062 198.3405 201.5632 198.9070 204.6955 198.5168 C204.5412 194.1860 204.5538 189.8508 204.7332 185.5210 C181.4158 185.7345 158.0968 185.7875 134.7785 185.6792 C127.1592 185.6942 119.5403 185.6690 111.9212 185.6037 C108.8327 185.5740 105.5150 185.8483 102.4622 185.4820 Z M201.4425 211.4030 C197.6210 211.0110 193.7408 211.1365 189.9035 211.1517 L174.1212 211.2153 L123.7207 211.2395 C117.7108 211.2415 105.3210 211.8320 100.0125 210.7250 C97.6845 218.3870 92.9102 228.1667 89.6192 235.6727 L75.1575 269.4250 C72.5228 275.6075 69.6187 281.7725 67.2448 288.0500 C91.9410 287.5750 116.7072 287.9275 141.4097 287.9350 C149.9620 287.9350 158.5995 288.1925 167.1415 287.9475 C167.5612 287.9350 167.8290 287.8475 168.1940 287.6475 C171.1127 282.5550 173.1973 276.7625 175.6138 271.4025 C181.1087 259.1025 186.4292 246.7245 191.5742 234.2735 C194.7608 226.6673 197.8517 218.8245 201.4425 211.4030 Z M179.5185 429.1325 C189.9445 428.7750 200.4410 429.0300 210.8750 429.0375 L231.6380 429.0350 C235.5157 429.0350 239.5233 428.8500 243.3873 429.1450 C243.0123 424.3975 243.1207 419.5600 243.1062 414.7975 L243.0820 392.7875 L243.0725 322.0275 L243.1142 304.4775 C243.1300 301.1500 243.5853 297.2450 242.8165 294.0075 C241.9270 290.2625 238.7858 285.2700 237.1113 281.5050 L222.7383 248.3525 C221.3850 245.1800 212.2150 222.5022 211.5080 221.7815 C211.4617 221.7343 211.4055 221.6978 211.3542 221.6557 C203.7202 236.7713 197.7162 252.8600 191.0813 268.4325 C188.6970 274.0300 186.1475 279.5650 183.7270 285.1475 C182.1000 288.9000 180.0560 292.8700 179.4050 296.9425 C178.8752 300.2575 179.6893 304.3925 179.8927 307.7525 C180.0710 310.7025 180.0383 313.6750 180.0457 316.6275 L180.0213 385.9250 C180.0208 397.0100 180.2307 408.1275 179.9675 419.2075 C179.8927 422.3575 180.1950 426.0750 179.5185 429.1325 Z"></path>
<path id="" fill="#939797" fill-opacity="1.0" stroke="#000000" stroke-width="0.0" stroke-opacity="1.0" stroke-linecap="round" stroke-linejoin="round"  filling="0" d="M57.7158 441.4725 L57.6925 441.3200 L58.0480 441.2175 L57.7777 441.2150 C59.6305 441.1800 61.4675 440.5850 63.2972 440.6975 L63.2583 440.9375 L61.5710 441.1050 L63.5132 441.1475 C64.6440 440.3775 66.5605 440.7025 67.8723 440.7700 C67.0030 440.8250 66.2030 440.9925 65.3550 441.1850 C67.5595 440.7475 69.7680 441.1875 71.9902 441.2100 C74.1873 441.2325 76.3960 441.1325 78.5918 441.0575 C77.4812 440.9925 76.3683 440.9400 75.2588 440.8575 C77.3565 440.4475 79.9753 441.0100 82.1208 441.0800 C85.2702 441.1800 88.4377 441.1325 91.5890 441.1325 L140.1248 440.8650 C144.3740 440.8450 154.3150 440.2225 157.8165 440.9175 L154.0647 441.0750 C155.6600 441.1325 157.2722 441.2250 158.8680 441.2025 C160.8387 441.1725 162.7968 440.7025 164.7495 441.1450 C164.8293 441.1625 164.9082 441.1825 164.9875 441.2025 C164.5267 440.9550 163.9045 440.9175 163.3885 440.8225 C167.4648 440.7100 171.5610 441.0900 175.6407 441.1225 C184.2325 441.1950 253.3100 441.5075 254.5650 440.9475 C255.5300 440.5175 255.7500 439.7525 255.9975 438.8275 C256.0425 439.7725 256.1900 440.3475 255.7650 441.2050 C255.2150 441.5700 254.8025 441.7575 254.1350 441.7875 C252.6175 441.8575 251.0575 441.6050 249.5282 441.6100 L231.5200 441.6425 L166.5948 441.5575 L96.7582 441.5675 L72.1580 441.5375 C67.3490 441.5300 62.5213 441.6525 57.7158 441.4725 Z"></path>
<path id="" fill="#66dcdf" fill-opacity="1.0" stroke="#000000" stroke-width="0.0" stroke-opacity="1.0" stroke-linecap="round" stroke-linejoin="round"  filling="0" d="M238.3712 251.1025 C266.0625 250.5725 293.8475 251.0050 321.5475 251.0300 C330.7100 251.0375 339.8925 251.1950 349.0525 250.9975 C348.6525 279.0725 349.0150 307.2050 349.0200 335.2850 L349.0425 351.6125 C349.0625 354.1725 349.5575 358.4600 348.9375 360.8500 L348.5350 361.0000 L294.9875 360.9400 C282.0275 360.9400 269.0325 360.7550 256.0775 361.0575 C256.2675 357.7625 256.0925 354.3575 256.0925 351.0525 L256.0925 330.9725 L256.0900 309.7500 C256.0900 305.6225 256.2250 301.4325 255.9825 297.3125 C255.8575 295.1875 255.4950 292.7925 254.7700 290.7850 C253.0750 286.0750 250.7225 281.4450 248.6690 276.8825 C246.3607 271.6350 244.0900 266.3725 241.8575 261.0950 C240.8305 258.7125 238.5225 254.1925 238.1415 251.8650 C238.0578 251.3525 238.0335 251.5800 238.3712 251.1025 Z"></path>
<path id="" fill="#4d5152" fill-opacity="1.0" stroke="#000000" stroke-width="0.0" stroke-opacity="1.0" stroke-linecap="round" stroke-linejoin="round"  filling="0" d="M249.7713 107.5310 C245.4133 106.0430 241.1375 102.8480 239.0103 98.6975 C236.6667 94.1252 235.8875 88.9883 237.4975 84.0688 C239.1870 78.9060 242.6817 74.6705 247.5725 72.2680 C249.9917 71.0797 252.3500 70.5915 255.0225 70.3435 C263.6525 69.5423 273.8700 70.0642 282.6975 70.0632 C294.5375 70.0620 306.5500 69.6257 318.3625 70.3192 C320.9925 70.4735 323.9750 70.6420 326.4775 71.5137 C331.2150 73.1635 335.3700 76.5327 337.5025 81.0925 C339.7525 85.9005 339.7975 91.7760 337.9750 96.7307 C335.8925 102.3922 331.8050 105.1998 326.5175 107.6115 C326.5200 114.5858 326.4500 123.3593 327.4125 130.2165 C329.0700 142.0350 333.1125 153.9020 336.6475 165.2867 L348.8975 204.1240 C353.0300 216.9733 358.2150 230.7758 358.4750 244.3873 C358.8575 250.7775 358.7650 257.1800 358.7675 263.5775 L358.7575 289.9175 L358.7875 317.6900 C358.7925 322.7025 358.9625 327.7725 358.7325 332.7775 C358.9450 338.6500 358.8050 344.5625 358.8050 350.4375 L358.7850 383.3750 L358.7925 403.0225 C358.7900 408.6900 359.0125 414.6325 358.0000 420.2250 C357.0825 425.2950 355.0075 430.2425 351.4975 434.0675 C346.2800 439.7500 339.4225 441.3800 331.9750 441.6575 C325.0475 441.9175 318.0600 441.7500 311.1225 441.7525 L275.5025 441.7825 C271.6375 441.8000 267.7700 441.7900 263.9025 441.7500 C261.3000 441.7000 258.5650 441.4300 255.9775 441.6850 C255.8325 437.5775 255.8925 433.3700 255.3975 429.2900 C264.6975 428.4050 274.0300 428.4300 283.3625 428.4050 C293.4800 428.3650 303.5975 428.4000 313.7125 428.5025 C319.8875 428.5800 330.6550 429.8825 336.2850 428.5650 C339.0475 427.9200 341.3500 425.6700 343.1050 423.5325 C344.1300 422.2850 345.0175 420.9625 345.2850 419.3400 C346.1125 414.3275 345.6100 407.3000 345.6025 402.0775 C345.5875 389.4850 345.2975 376.8075 345.7950 364.2225 C324.6225 365.0825 303.3625 364.7175 282.1750 364.7600 L265.1375 364.7950 C262.1150 364.8000 258.9500 364.5850 255.9500 364.9200 C255.9250 363.0975 255.4225 352.8700 256.5525 351.8650 C258.2975 350.3175 262.5275 351.1725 264.6450 351.4075 C271.8975 352.2100 279.2125 351.9825 286.5000 351.9850 C292.5250 351.9850 298.6975 352.2425 304.6900 351.5925 C312.1900 350.4800 320.1300 350.9875 327.7150 350.9925 C333.4425 350.9975 339.8600 350.4700 345.4700 351.5600 C345.8275 350.9900 345.1100 340.0500 345.0975 338.4175 L345.1375 290.0025 C345.1650 280.8650 344.6200 271.4025 345.6150 262.3275 C337.5800 263.0450 329.1700 262.7150 321.0975 262.7200 L280.4075 262.7100 C270.9250 262.7500 261.4425 262.7000 251.9600 262.5525 C249.0352 262.5250 245.4283 263.0000 242.6057 262.6800 C240.6075 260.3350 237.9212 253.5650 237.5527 250.5100 L237.8508 250.2050 C240.7563 249.3005 244.5132 249.5677 247.5615 249.4845 C255.1675 249.3010 262.7775 249.2408 270.3875 249.3035 L323.9200 249.3038 C331.2000 249.3275 338.4825 249.6167 345.7600 249.5582 C345.1925 244.2233 345.3325 239.1165 344.1700 233.7932 C342.6150 226.6595 340.3175 219.7345 338.1950 212.7567 C335.3025 202.9913 332.2625 193.2695 329.0775 183.5945 C322.0900 162.2735 310.5600 130.7552 314.1000 108.5807 C301.3600 108.3645 288.5700 108.6755 275.8175 108.5803 C271.3850 108.5470 266.8725 108.7145 262.4550 108.4317 C262.5875 116.8018 262.6225 124.9128 261.1225 133.1855 C258.6925 146.5765 254.6750 159.8098 250.5225 172.7578 L238.9355 208.7897 C236.6407 215.9552 234.1037 227.8927 230.4015 233.8245 C227.9555 227.9775 224.4750 222.3915 222.9450 216.2063 C224.8305 213.0815 225.7460 208.9368 226.8508 205.4478 C228.7335 199.5612 230.5632 193.6585 232.3403 187.7395 C238.0600 169.0623 245.2905 150.3587 248.5350 131.0437 C249.8233 123.3748 249.3585 115.2955 249.7713 107.5310 Z M319.9875 95.4560 L322.5450 95.1127 C324.3050 93.4720 325.9900 92.0598 326.0675 89.4460 C326.1150 87.8680 325.5225 86.4050 324.3875 85.3092 C323.2800 84.2415 321.9250 83.5502 320.4025 83.3455 C317.2750 82.9245 313.9875 83.1005 310.8350 83.1265 C306.4575 83.1703 302.0775 83.1850 297.7000 83.1707 C284.2100 83.1465 270.5925 82.6697 257.1200 83.0818 C254.7775 83.3683 252.8025 84.0098 251.2900 85.9745 C250.4425 87.0732 250.0950 88.3990 250.3125 89.7697 C250.6050 91.6380 252.1300 93.6548 253.6450 94.7383 C254.5500 95.3863 255.6475 95.4082 256.7250 95.4658 C265.1100 95.9138 273.7300 95.4612 282.1400 95.4337 C294.7500 95.3928 307.3775 95.6013 319.9875 95.4560 Z"></path>
<path id="" fill="rgb(58,186,213)" fill-opacity="1.0" stroke="#000000" stroke-width="0.0" stroke-opacity="1.0" stroke-linecap="round" stroke-linejoin="round"  filling="0" d="M304.6900 351.5925 C312.1900 350.4800 320.1300 350.9875 327.7150 350.9925 C333.4425 350.9975 339.8600 350.4700 345.4700 351.5600 L345.5775 351.7600 C343.7750 352.4325 307.9150 352.3425 304.5800 351.8650 L304.6900 351.5925 Z"></path>
<path id="" fill="#4c5152" fill-opacity="1.0" stroke="#000000" stroke-width="0.0" stroke-opacity="1.0" stroke-linecap="round" stroke-linejoin="round"  filling="0" d="M92.9125 403.1250 C108.9568 402.4500 125.1472 403.7825 141.1808 402.9425 C140.8590 407.2925 140.8635 411.8250 141.1393 416.1750 L138.3228 416.0200 L106.8987 415.9975 C101.2205 415.9950 95.2458 415.6050 89.6135 416.2175 C89.9050 411.9575 89.6620 407.5150 89.6687 403.2375 L92.9125 403.1250 Z"></path>
<path id="" fill="#4d5152" fill-opacity="1.0" stroke="#000000" stroke-width="0.0" stroke-opacity="1.0" stroke-linecap="round" stroke-linejoin="round"  filling="0" d="M374.8450 287.1800 C414.6325 285.4775 448.2575 316.3700 449.9275 356.1600 C451.5950 395.9475 420.6725 429.5475 380.8825 431.1800 C341.1425 432.8125 307.5950 401.9375 305.9275 362.1975 C304.2625 322.4575 335.1050 288.8825 374.8450 287.1800 Z"></path>
<path id="" fill="#4d5152" fill-opacity="1.0" stroke="#000000" stroke-width="0.0" stroke-opacity="1.0" stroke-linecap="round" stroke-linejoin="round"  filling="0" d="M375.3125 275.1050 C378.7225 274.9425 382.2000 275.2400 385.5925 275.5950 C403.9725 277.5650 421.2650 285.2825 435.0075 297.6500 C438.5525 300.7950 441.6200 304.5925 444.4075 308.4200 C454.4675 322.2450 459.8275 337.7950 460.8425 354.8325 C462.1825 377.3725 452.6275 399.6525 437.8250 416.2475 C434.8175 419.6200 430.8500 422.7250 427.1775 425.3450 C413.2800 435.2525 397.7975 440.6075 380.7725 441.5250 C373.5975 441.9125 355.2750 440.4925 350.0150 435.7825 L351.0800 433.3200 C352.9300 430.6550 354.3100 428.2700 355.0075 425.0775 C358.7000 425.5225 362.3600 426.6575 366.0125 427.3900 C375.5575 429.3100 384.7175 428.8925 394.1350 426.4750 C412.7425 421.5475 428.6650 409.4975 438.4600 392.9275 C444.0825 383.3000 447.5125 371.2350 447.7100 360.0925 C447.7600 357.3225 447.4150 354.4975 447.1850 351.7325 C446.8475 347.6950 446.4000 343.8925 445.3600 339.9600 C440.4925 322.2625 428.8375 307.2025 412.9275 298.0500 C395.1350 287.8050 377.7000 285.9775 358.0175 291.2550 C357.9325 286.5800 358.1375 281.8725 357.8450 277.2075 C363.6350 276.3575 369.4650 275.3975 375.3125 275.1050 Z"></path>
<path id="" fill="#4d5152" fill-opacity="1.0" stroke="#000000" stroke-width="0.0" stroke-opacity="1.0" stroke-linecap="round" stroke-linejoin="round"  filling="0" d="M345.6000 282.0000 L345.7300 282.0450 C346.4675 282.9950 346.1750 291.9400 346.1600 293.6525 C346.1550 294.3950 346.1475 295.3550 345.6550 295.9700 C344.0500 297.9650 337.6100 301.1975 335.0800 303.0050 C332.9975 304.4925 331.1500 306.4250 329.3375 308.2275 C325.5675 311.9800 322.1525 315.8950 319.2100 320.3450 C313.7575 328.6000 307.9775 342.1600 307.9500 352.1075 C304.0525 352.2850 300.1325 352.0100 296.2225 352.2000 L295.4050 352.1300 L295.0975 351.7225 C293.6925 344.6475 298.8175 329.8650 301.9700 323.1700 C304.2875 318.2525 307.8875 311.9950 311.1675 307.6400 C317.4125 299.3500 327.8900 289.9550 337.2100 285.2850 C339.9050 283.9350 342.7700 283.0175 345.6000 282.0000 Z"></path>
<path id="" fill="#4d5152" fill-opacity="1.0" stroke="#000000" stroke-width="0.0" stroke-opacity="1.0" stroke-linecap="round" stroke-linejoin="round"  filling="0" d="M304.0450 363.8675 C305.3150 363.8225 306.5975 363.8850 307.8675 363.9100 C307.9475 366.1900 308.2300 368.4100 308.6550 370.6525 C311.2525 384.3650 319.0050 399.1350 329.2800 408.6775 C334.5400 413.5600 340.5575 417.4825 346.4675 421.5050 C343.7750 424.5175 340.3475 427.3850 336.6750 429.1100 C336.2925 429.2200 335.8975 429.3325 335.5000 429.3750 C332.8800 429.6575 323.4975 421.8400 321.3925 419.8975 C305.5150 405.2250 295.7375 385.6425 294.8925 363.9425 C297.9450 363.9725 300.9950 363.9475 304.0450 363.8675 Z"></path>
<path id="" fill="#feb856" fill-opacity="1.0" stroke="#000000" stroke-width="0.0" stroke-opacity="1.0" stroke-linecap="round" stroke-linejoin="round"  filling="0" d="M372.5225 288.0950 C411.4100 285.3050 445.1800 314.6025 447.9050 353.4950 C450.6300 392.3875 421.2725 426.1075 382.3775 428.7650 C343.5725 431.4175 309.9525 402.1450 307.2350 363.3475 C304.5175 324.5500 333.7300 290.8775 372.5225 288.0950 Z"></path>
<path id="" fill="#4d5152" fill-opacity="1.0" stroke="#000000" stroke-width="0.0" stroke-opacity="1.0" stroke-linecap="round" stroke-linejoin="round"  filling="0" d="M422.4500 358.3475 C426.6950 358.5750 431.0125 358.4450 435.2650 358.4525 C434.5625 370.1675 431.9275 380.6750 425.3025 390.5225 C416.6100 403.4500 403.4050 411.9050 388.2000 414.9375 C384.6950 415.6200 381.1225 415.8125 377.5625 416.0125 C377.6550 411.7600 377.6600 407.5050 377.5725 403.2500 C388.7950 402.5775 398.6750 399.5350 407.2175 391.9425 C417.4250 382.8725 421.7050 371.7375 422.4500 358.3475 Z"></path>
<path id="" fill="#4c5052" fill-opacity="1.0" stroke="#000000" stroke-width="0.0" stroke-opacity="1.0" stroke-linecap="round" stroke-linejoin="round"  filling="0" d="M371.2175 300.7775 L383.9875 300.7575 L383.9700 313.6150 C379.7300 313.4775 375.4725 313.5575 371.2300 313.5650 C371.2500 309.3025 371.2450 305.0400 371.2175 300.7775 Z"></path>
<path id="" fill="#67dde0" fill-opacity="1.0" stroke="#000000" stroke-width="0.0" stroke-opacity="1.0" stroke-linecap="round" stroke-linejoin="round"  filling="0" d="M133.3362 230.2487 C143.9450 229.6665 153.0453 237.7328 153.7400 248.3347 C154.4350 258.9375 146.4655 268.1225 135.8717 268.9300 C128.9180 269.4600 122.2158 266.2125 118.3207 260.4275 C114.4258 254.6425 113.9388 247.2120 117.0453 240.9685 C120.1517 234.7247 126.3730 230.6313 133.3362 230.2487 Z"></path>
<path id="" fill="#feb856" fill-opacity="1.0" stroke="#000000" stroke-width="0.0" stroke-opacity="1.0" stroke-linecap="round" stroke-linejoin="round"  filling="0" d="M256.0975 83.1252 C269.2575 82.8240 282.4725 83.0867 295.6400 83.0755 L311.2250 83.0510 C314.2775 83.0470 317.3900 82.9205 320.4325 83.1533 C321.6500 83.2465 322.6625 83.3725 323.6800 84.1118 C325.1400 85.1730 325.9375 86.7637 326.1750 88.5332 C326.4225 90.3835 326.1525 92.5340 324.9250 94.0123 C323.5550 95.6598 321.7525 95.9147 319.7550 96.0348 L275.8725 96.0325 C271.7725 96.0117 267.6750 96.0202 263.5775 96.0583 C261.0500 96.0845 258.3725 96.2895 255.8625 96.0395 C254.2850 95.8822 252.7500 95.4928 251.5175 94.4433 C250.2625 93.3743 249.4348 91.6552 249.3282 90.0140 C249.2068 88.1400 250.0275 86.6050 251.2650 85.2610 C252.8050 83.5862 253.8800 83.2385 256.0975 83.1252 Z"></path>
</svg>