<svg xmlns="http://www.w3.org/2000/svg" viewBox="0 0 512 512" height="512.0px" width="512.0px">
<path id="" fill="#a67c52" fill-opacity="1.0" stroke="#000000" stroke-width="0.0" stroke-opacity="1.0" stroke-linecap="round" stroke-linejoin="round"  filling="0" d="M325.8225 104.6015 C327.3700 99.5910 328.6875 94.8183 330.8625 90.0065 C338.1025 73.9895 352.6500 61.4540 368.9800 55.3467 C385.2600 49.2572 404.0300 49.5618 419.8800 56.9218 C437.1550 64.9445 450.3800 78.3890 456.9700 96.3875 C463.1300 113.2105 462.2700 131.8040 454.5800 147.9850 C446.8950 164.4532 433.7325 177.0092 416.5675 183.2632 C417.3650 185.1420 418.6350 186.8615 419.6675 188.6248 C421.2875 191.3945 422.8050 194.3170 424.1400 197.2343 C432.4875 215.2637 437.9300 234.4995 440.2700 254.2300 C445.0825 296.5350 435.2125 339.2075 412.3175 375.1050 C407.8975 382.0300 402.8250 388.4775 397.6950 394.8800 C394.2325 399.3275 390.3875 403.2400 386.4025 407.2100 C366.9650 426.5725 343.8325 440.4075 318.2450 449.9925 C308.6950 453.4675 298.8525 456.0875 288.8375 457.8225 C251.4750 464.7025 212.8960 459.8150 178.4295 443.8300 C133.9937 423.2075 99.4670 385.9150 82.3220 340.0225 C66.8027 298.0950 66.9160 251.9750 82.6415 210.1235 C84.7780 204.4608 87.0180 198.8107 89.8120 193.4370 C91.5312 190.1302 93.7202 187.0225 95.2530 183.6337 C95.2988 183.5327 95.3423 183.4308 95.3867 183.3293 C87.5518 180.5525 79.6738 175.5827 73.5383 170.0163 C59.8828 157.4933 51.8237 140.0145 51.1675 121.4980 C50.4280 105.1785 56.7428 86.7285 67.8112 74.6555 C70.6385 71.5717 73.7545 68.3928 77.0403 65.8050 C88.3997 56.8597 102.9782 51.7280 117.3607 51.1097 C130.0350 50.5330 142.8958 54.1335 153.8378 60.4350 C167.0233 68.0123 177.2852 79.7945 182.9807 93.8952 C184.3438 97.3432 185.2498 100.9220 186.2010 104.4985 C193.7688 100.6633 201.8127 98.2343 209.9967 96.0810 C241.5638 87.8085 274.7725 88.1690 306.1525 97.1250 C312.9100 99.0775 319.7025 101.0352 325.8225 104.6015 Z"></path>
<path id="" fill="#dcbd98" fill-opacity="1.0" stroke="#000000" stroke-width="0.0" stroke-opacity="1.0" stroke-linecap="round" stroke-linejoin="round"  filling="0" d="M250.7050 246.2487 C299.2125 243.3095 340.9025 280.2825 343.7825 328.7950 C346.6625 377.3050 309.6375 418.9525 261.1225 421.7700 C212.6913 424.5850 171.1345 387.6375 168.2605 339.2125 C165.3862 290.7850 202.2812 249.1828 250.7050 246.2487 Z"></path>
<path id="" fill="#444444" fill-opacity="1.0" stroke="#000000" stroke-width="0.0" stroke-opacity="1.0" stroke-linecap="round" stroke-linejoin="round"  filling="0" d="M237.6382 265.1325 C244.8183 264.8000 252.0825 265.0075 259.2700 265.0075 C264.4550 265.0075 269.9400 264.6525 275.0775 265.2825 C277.0825 265.5275 279.1975 266.0375 280.9725 267.0200 C284.0675 268.7350 285.0900 272.4625 285.9775 275.6125 C284.4475 280.6850 281.8250 285.3375 279.4550 290.0600 C276.4775 295.9425 273.5300 301.8400 270.6150 307.7550 C269.1250 310.7625 266.9150 314.0275 266.3000 317.3450 C265.7225 320.4450 266.0025 323.8300 266.0050 326.9825 C266.0550 332.3825 266.0300 337.7850 265.9350 343.1825 C274.3350 343.3575 291.0825 341.7825 298.4275 344.1650 C299.7775 344.6100 301.0050 345.3600 302.0175 346.3600 C303.9525 348.2600 305.0500 350.8525 305.0675 353.5625 C305.0950 356.2800 304.0025 358.7675 302.0475 360.6425 C300.7375 361.8925 299.1250 362.7825 297.3700 363.2250 C292.5700 364.4800 279.7575 363.8175 274.1250 363.8025 L235.3078 363.8225 C229.5517 363.8250 221.5643 364.3900 216.0720 363.4850 C213.6418 363.0850 211.5160 362.2850 209.7583 360.4775 C207.8235 358.4925 206.9003 355.8775 206.9805 353.1225 C207.0547 350.5725 208.1552 347.9350 210.0768 346.2275 C211.5805 344.8900 213.4310 344.1025 215.3810 343.6750 C220.1775 342.6300 225.4073 342.9850 230.2900 342.9900 C235.5887 342.9975 240.9212 342.9100 246.2105 343.2500 C246.0352 338.1500 246.0375 333.0700 246.0497 327.9650 C246.0578 324.5625 246.3378 320.8675 245.7380 317.5100 C245.1142 314.0200 242.8555 310.8500 241.3118 307.7075 C236.3463 297.5925 229.8325 286.2150 226.0115 275.8300 C226.5820 273.5350 227.2175 271.0600 228.6765 269.1550 C230.8752 266.2825 234.2617 265.5650 237.6382 265.1325 Z"></path>
<path id="" fill="#dcbd98" fill-opacity="1.0" stroke="#000000" stroke-width="0.0" stroke-opacity="1.0" stroke-linecap="round" stroke-linejoin="round"  filling="0" d="M117.8650 80.3432 C118.3828 80.2558 118.8855 80.2475 119.4095 80.2452 C129.5770 80.2018 140.5005 84.8077 147.5793 92.0627 C154.2563 98.9060 158.4317 108.5762 158.2617 118.1602 C153.6223 121.5573 148.7425 124.6475 144.1008 128.0603 C134.2795 135.2815 125.0352 143.7188 117.2995 153.1315 C115.7245 154.9865 114.2103 156.8082 111.6418 157.1455 C106.0900 157.8745 98.6772 152.8902 94.5618 149.6848 C86.4980 143.4037 81.8535 133.5453 80.6267 123.5645 C79.3250 112.9747 82.9130 102.6890 89.4303 94.3985 C96.6422 85.2245 106.7095 81.6580 117.8650 80.3432 Z"></path>
<path id="" fill="#dcbd98" fill-opacity="1.0" stroke="#000000" stroke-width="0.0" stroke-opacity="1.0" stroke-linecap="round" stroke-linejoin="round"  filling="0" d="M390.8750 80.3427 C391.0050 80.3235 391.1350 80.2982 391.2650 80.2848 C393.4225 80.0655 395.7900 80.4262 397.9150 80.7722 C405.1975 81.9590 411.5825 84.5128 417.3725 89.1557 C425.7450 95.8702 430.5050 105.9872 431.5875 116.5265 C432.6200 126.5878 428.7175 137.0968 422.4025 144.8288 C418.1375 150.0497 408.9275 156.5635 402.0025 157.1562 C399.8050 157.3443 398.6550 156.9888 396.9900 155.5840 C394.8775 153.5423 393.1300 151.1400 391.2075 148.9215 C389.2950 146.7145 387.2100 144.6410 385.1300 142.5925 C375.7300 133.3358 364.9450 125.6685 354.0275 118.3530 C353.4725 109.4327 356.9350 101.3838 362.3800 94.4608 C369.6275 85.2490 379.6675 81.6660 390.8750 80.3427 Z"></path>
<path id="" fill="#444444" fill-opacity="1.0" stroke="#000000" stroke-width="0.0" stroke-opacity="1.0" stroke-linecap="round" stroke-linejoin="round"  filling="0" d="M309.6825 188.1415 C320.3025 185.4512 331.0825 191.9225 333.7000 202.5603 C336.3200 213.1983 329.7750 223.9340 319.1200 226.4812 C308.5650 229.0043 297.9525 222.5360 295.3600 211.9987 C292.7650 201.4617 299.1625 190.8062 309.6825 188.1415 Z"></path>
<path id="" fill="#444444" fill-opacity="1.0" stroke="#000000" stroke-width="0.0" stroke-opacity="1.0" stroke-linecap="round" stroke-linejoin="round"  filling="0" d="M192.6745 188.1410 C203.2888 185.4560 214.0603 191.9238 216.6792 202.5542 C219.2982 213.1850 212.7640 223.9160 202.1172 226.4690 C191.5635 228.9998 180.9465 222.5350 178.3505 211.9970 C175.7543 201.4592 182.1532 190.8025 192.6745 188.1410 Z"></path>
</svg>