<svg xmlns="http://www.w3.org/2000/svg" viewBox="0 0 512 512" height="512.0px" width="512.0px">
<path id="" fill="#efd358" fill-opacity="1.0" stroke="#000000" stroke-width="0.0" stroke-opacity="1.0" stroke-linecap="round" stroke-linejoin="round"  filling="0" d="M342.3250 51.1070 C346.2200 50.8698 350.1725 50.9857 354.0775 50.9805 C354.0300 54.3602 354.0125 57.7408 354.0300 61.1208 C354.1925 87.7075 363.8900 110.5992 382.8075 129.2800 C397.0650 143.3595 410.8250 151.1810 430.3750 155.5325 C434.4600 156.4422 438.7625 157.4933 442.9400 157.8480 C448.8950 158.3537 455.0650 157.9982 461.0425 157.9563 L461.0450 159.5570 C461.0675 193.7750 452.0875 222.5155 427.4300 247.1767 C422.5675 252.0875 417.2875 256.5675 411.6500 260.5625 C394.3425 272.5700 370.4975 281.0400 349.3525 281.0350 C344.6650 281.0550 339.8475 281.2425 335.1800 280.7625 C313.7300 278.5650 288.5925 268.7300 272.2375 254.5225 C269.1975 251.8825 265.9550 249.2728 263.1350 246.4097 C244.3330 227.3280 231.8833 201.4445 230.0818 174.6062 C229.6443 168.0900 229.5855 158.6967 230.3098 152.2450 C230.7988 147.8905 231.7672 143.6040 232.8270 139.3580 C237.5323 120.5072 246.6535 103.9865 259.4575 89.4070 C262.6175 85.8073 266.1650 82.6880 269.7725 79.5450 C290.9275 61.1055 314.5525 52.9225 342.3250 51.1070 Z"></path>
<path id="" fill="#666666" fill-opacity="1.0" stroke="#000000" stroke-width="0.0" stroke-opacity="1.0" stroke-linecap="round" stroke-linejoin="round"  filling="0" d="M236.8835 158.1068 C251.9875 157.2057 267.0175 158.4355 281.3875 163.3465 C304.4425 171.2258 325.0125 186.9800 337.7525 207.8285 C340.1225 211.7077 341.7600 215.7527 343.7525 219.8038 C347.1700 218.6575 350.4300 217.0293 353.8175 215.7908 C361.6125 212.9418 371.1150 211.0920 379.4075 211.0152 C398.7050 210.8365 420.9925 218.5345 434.8950 232.2303 C451.2325 248.3257 460.9175 268.6150 461.0100 291.7850 C461.0925 312.7050 451.8525 333.8100 437.1825 348.5025 C425.9800 359.7250 411.9825 366.7275 396.5625 370.1850 C388.0800 372.0850 379.3950 371.9075 370.7625 371.9075 L349.9825 371.9050 L281.3750 371.9875 L189.2448 371.9625 L153.2895 371.9300 C137.4460 371.9200 121.9563 372.6725 106.6548 367.7875 C86.3345 361.3750 69.4490 347.0550 59.8018 328.0550 C50.2467 309.1525 48.4893 287.2575 54.9070 267.0725 C61.3055 246.7325 75.6350 229.8315 94.6543 220.1920 C112.1187 211.3268 133.8038 208.4795 152.5813 214.5985 C156.9238 206.9320 161.9895 199.1263 167.8963 192.5790 C182.5270 176.3613 202.3800 165.8925 223.3935 160.6890 C227.8183 159.5932 232.3135 158.3355 236.8835 158.1068 Z"></path>
<path id="" fill="#eed258" fill-opacity="1.0" stroke="#000000" stroke-width="0.0" stroke-opacity="1.0" stroke-linecap="round" stroke-linejoin="round"  filling="0" d="M271.6525 247.0770 C272.7950 246.9620 274.0700 246.8920 275.2100 247.0895 C277.8400 247.5530 280.1625 249.0757 281.6375 251.3025 C282.6600 252.8800 283.2075 254.8775 282.8950 256.7500 C282.1300 261.3200 278.2950 269.3325 276.4750 273.8700 L260.5050 313.7100 C257.7300 320.6325 253.7875 328.7875 252.1850 335.9250 C257.1400 336.1725 262.1600 336.0200 267.1250 336.0225 L293.1725 336.0275 C297.3375 336.0250 309.9000 335.3375 313.1775 336.6600 C315.2800 337.5075 316.6500 339.0125 317.5075 341.0975 C318.4600 343.4175 318.6275 346.4125 317.5925 348.7350 C315.9600 352.3900 310.2300 358.3400 307.5325 361.5700 L287.4700 385.5000 L249.2112 431.4175 C242.5095 439.4700 236.0372 447.9200 228.9527 455.6275 C226.9722 457.7800 224.8605 459.8475 222.0905 460.9225 C220.8262 461.2200 219.7177 461.1500 218.4735 460.7850 C216.1407 460.1050 213.8898 458.5750 212.7390 456.3850 C211.6055 454.2275 211.5545 451.5800 212.0638 449.2450 C213.2850 443.6425 217.6895 434.1800 219.9653 428.4925 L234.3772 392.4900 C237.0827 385.7350 240.1125 378.9550 242.3875 372.0475 C229.1440 371.8425 215.8777 372.0025 202.6313 372.0100 C196.5285 372.0150 190.1752 372.3950 184.1110 371.8950 C183.0533 371.8100 182.1723 371.5725 181.2303 371.0800 C178.9145 369.8625 176.8253 367.9100 176.0810 365.3375 C175.3855 362.9375 175.8505 360.3500 177.0680 358.2000 C179.2005 354.4300 183.5320 350.0625 186.3975 346.6225 L206.2917 322.7475 L245.8505 275.2800 L258.7575 259.7900 C261.1100 256.9675 263.3950 254.0250 265.8725 251.3125 C267.5250 249.5060 269.2375 247.7730 271.6525 247.0770 Z"></path>
</svg>