<svg xmlns="http://www.w3.org/2000/svg" viewBox="0 0 512 512" height="512.0px" width="512.0px">
<path id="" fill="#b6cdef" fill-opacity="1.0" stroke="#000000" stroke-width="0.0" stroke-opacity="1.0" stroke-linecap="round" stroke-linejoin="round"  filling="0" d="M221.9722 72.1250 C222.9860 71.9835 224.0400 71.9865 225.0625 71.9568 C231.9543 71.7563 239.2015 71.5902 246.0748 72.1235 C257.7225 73.0560 269.2125 75.4218 280.2800 79.1678 C301.2600 86.0967 317.0025 95.3167 333.5825 109.8183 C335.8275 111.7807 338.1625 113.6397 340.3250 115.6955 C345.8675 120.9685 350.7450 127.1165 355.2975 133.2473 C359.0550 138.3070 362.7875 143.6240 365.9750 149.0638 C367.5475 151.7470 368.8875 154.6053 370.2775 157.3893 C380.5500 177.9967 385.6450 200.0765 386.2375 223.0497 C370.4000 222.5580 354.4200 222.9877 338.5675 222.9880 L246.3750 222.9925 L139.6020 222.9913 C120.4122 222.9908 101.1825 222.7012 81.9998 223.0643 C81.9795 217.7875 82.4662 212.6800 83.0713 207.4475 C86.3655 178.3353 98.0180 150.7995 116.6215 128.1658 C142.7175 96.0103 180.7230 75.7935 221.9722 72.1250 Z"></path>
<path id="" fill="#89b7f5" fill-opacity="1.0" stroke="#000000" stroke-width="0.0" stroke-opacity="1.0" stroke-linecap="round" stroke-linejoin="round"  filling="0" d="M386.6350 93.9108 C394.3300 93.2275 401.1550 98.8370 401.9725 106.5190 C402.7900 114.2010 397.3000 121.1212 389.6325 122.0732 C384.5525 122.7040 379.5275 120.5445 376.4900 116.4247 C373.4525 112.3053 372.8725 106.8665 374.9750 102.1995 C377.0800 97.5325 381.5375 94.3635 386.6350 93.9108 Z"></path>
<path id="" fill="#0f53a8" fill-opacity="1.0" stroke="#000000" stroke-width="0.0" stroke-opacity="1.0" stroke-linecap="round" stroke-linejoin="round"  filling="0" d="M229.1862 63.1170 C231.2790 63.0807 233.3725 63.0807 235.4653 63.1167 C277.1100 63.8415 319.2325 80.8425 348.3100 111.0370 C372.9475 136.4855 388.5200 169.3375 392.6225 204.5193 C393.2325 209.9160 393.8975 215.4270 393.7650 220.8670 C393.7150 222.9648 393.3925 225.3898 391.7450 226.8672 C390.9200 227.6085 389.8750 228.2162 388.7600 228.3633 C385.6575 228.7725 382.2950 228.5403 379.1625 228.5300 L363.7025 228.5150 L338.7000 228.5195 C333.7425 228.5177 328.7175 228.6925 323.7750 228.3525 C322.5000 231.1947 320.6050 233.8293 319.1500 236.5980 C316.3775 241.8777 315.2225 247.3405 315.2250 253.2750 C315.2275 256.7575 315.3050 260.3300 316.0650 263.7425 C318.0925 272.8700 324.8000 280.1900 327.5400 289.1700 C331.0000 300.5025 330.5325 313.1750 325.8125 324.0800 C323.9325 328.4250 321.4675 332.4250 319.2475 336.5925 C314.0450 346.3475 313.6550 360.2225 318.2825 370.2750 C321.3250 376.8850 325.5425 382.6050 327.6600 389.6800 C331.5075 402.5400 330.1550 416.3950 323.8900 428.2650 C321.4225 433.0000 318.3425 437.5625 316.7100 442.6775 C315.2850 447.1475 315.8875 454.5750 313.8200 458.1675 C313.0525 459.5025 311.8775 460.5800 310.3475 460.9300 C308.5925 461.3300 306.4700 460.5850 305.0375 459.5800 C304.6450 459.3075 304.2900 458.9875 303.9775 458.6275 C301.7575 456.0450 302.5300 452.1000 302.8875 449.0000 C303.5100 443.5900 304.6175 438.5050 306.8950 433.5300 C310.7650 425.0800 316.0500 419.1425 316.9625 409.4075 C317.7875 400.5900 316.4350 393.0250 312.1825 385.2750 C310.4175 382.0575 308.4575 378.9250 306.9200 375.5875 C303.9625 369.1700 302.5675 361.9500 302.5600 354.8950 C302.5500 348.1125 303.6425 340.9225 306.3450 334.6725 C307.7825 331.3425 309.6400 328.2450 311.4125 325.0900 C316.3775 316.2525 317.9150 309.4475 316.9175 299.2225 C316.0350 290.1675 310.7600 283.6475 307.0400 275.7150 C305.1575 271.6950 303.9650 267.4925 303.2725 263.1150 C301.5175 252.0425 302.8700 237.8602 309.6375 228.5295 C299.6925 228.4060 289.7350 228.5228 279.7900 228.5193 C274.8600 228.5175 269.8575 228.7052 264.9450 228.3495 C263.8050 230.5620 262.4375 232.6835 261.2025 234.8468 C255.3575 245.0872 254.2975 259.2325 259.3225 270.0375 C261.9425 275.6750 265.5775 280.7375 267.7750 286.5950 C270.2700 293.2450 271.1450 300.3850 270.7625 307.4575 C270.2475 317.0100 267.0100 324.5150 262.4675 332.7525 C260.4900 336.3400 258.5250 339.8425 257.4500 343.8275 C256.1100 348.8000 256.1300 354.1025 256.4975 359.2050 C257.3650 371.2550 266.0325 379.4550 269.0975 390.8275 C272.3275 402.8075 271.2225 416.7025 265.3350 427.7150 C262.7850 432.4825 259.5075 437.1975 257.9075 442.3750 C256.6025 446.6025 256.5950 455.4750 254.8375 458.3175 C254.0300 459.6175 252.8200 460.5075 251.3050 460.7850 C249.6885 461.0825 247.6913 460.8625 246.3253 459.8850 C242.0360 456.8250 244.3138 444.7125 245.5685 440.2600 C246.3850 437.3500 247.4872 434.5275 248.8595 431.8350 C251.4850 426.7850 255.7750 420.8250 257.0525 415.3425 C259.3525 405.4700 258.5925 395.4300 253.8650 386.4175 C251.7975 382.4750 249.3277 378.6975 247.5710 374.6025 C244.9090 368.3975 243.8215 361.7200 243.7292 354.9900 C243.5683 347.4825 245.0705 340.0325 248.1285 333.1750 C249.7610 329.5900 251.9225 326.2200 253.7925 322.7550 C257.9850 314.9950 259.0375 306.6375 257.8300 297.9200 C256.1825 286.0300 247.1483 277.9000 244.7505 265.3775 C242.4503 253.3650 243.6913 238.7787 250.7250 228.4580 C247.8887 228.6320 244.9698 228.5105 242.1250 228.5145 L224.7030 228.5282 C220.9810 228.5282 217.0655 228.7595 213.3853 228.1837 C211.6962 231.5573 209.5647 234.6910 207.9315 238.1075 C205.6198 242.9430 204.8907 247.5932 204.7778 252.9275 C204.4025 270.6375 211.3960 272.9450 216.5862 287.6775 C220.4487 298.6425 220.0540 313.3925 215.3980 324.0375 C213.2325 328.9875 210.1902 333.4500 207.8980 338.3175 C203.5018 347.6550 203.4722 361.3000 207.8943 370.6375 C210.5845 376.3175 214.3378 381.3925 216.4577 387.3825 C220.7682 399.5600 220.0930 414.8675 214.3468 426.4325 C211.7453 431.6675 208.1868 436.7775 206.3448 442.3275 C204.8692 446.7725 205.1537 454.7525 203.6503 457.6725 C202.9335 459.0550 201.6983 460.0975 200.2150 460.5725 C198.5415 461.0975 196.7278 460.9325 195.1763 460.1150 C193.7850 459.3725 192.8627 458.1250 192.4580 456.6125 C191.8147 454.2050 192.0940 451.3200 192.3683 448.8725 C193.5612 438.2200 196.8833 432.5950 201.8752 423.4775 C208.0765 412.1425 208.3568 398.4950 202.6263 386.9125 C199.5260 380.5975 195.9603 375.8625 193.9560 368.8675 C190.8837 358.1450 191.5280 345.0625 195.8387 334.7875 C197.6093 330.5650 200.0655 326.6900 202.2625 322.6875 C205.3225 317.1125 206.4122 312.1250 206.4815 305.8025 C206.5177 302.4975 206.5540 299.1925 205.9283 295.9350 C204.0925 286.3750 196.7950 278.6675 193.9540 268.7325 C190.6207 256.7475 191.6575 243.9675 196.8795 232.6763 C197.3488 231.6585 197.6662 230.5643 198.2198 229.5910 C198.4165 229.2448 198.5555 228.9770 198.6483 228.5818 C195.4727 228.2420 192.0312 228.5050 188.8230 228.5070 L169.4872 228.5143 C166.1557 228.5135 162.6700 228.7043 159.3757 228.1915 C157.0625 232.5425 154.1973 236.6035 152.5690 241.2948 C151.2263 245.1638 150.8540 249.1230 150.7690 253.1875 C150.4702 267.4600 154.6432 270.5725 160.4267 282.5225 C166.7930 295.6750 166.7660 312.5750 160.5745 325.7675 C158.0705 331.1025 154.4280 336.0325 152.5360 341.6250 C151.1275 345.7900 150.7307 349.9950 150.7380 354.3675 C150.7600 367.7275 154.7325 371.1675 160.2735 382.3600 C166.5247 394.9875 166.9415 412.0650 161.0675 424.9025 C158.5117 430.4900 154.7740 435.6375 152.6805 441.4075 C151.9158 443.5175 151.3100 445.7500 151.0660 447.9825 C150.7560 450.8200 150.9588 454.0400 149.9742 456.7300 C149.3858 458.3400 148.5285 459.6525 146.9190 460.3650 C145.3443 461.0600 143.4438 461.0275 141.8562 460.3875 C140.4185 459.8075 139.2010 458.7725 138.6263 457.3075 C137.7780 455.1450 138.0955 452.3000 138.2863 450.0275 C138.9527 442.0900 141.1902 435.3975 145.0818 428.4700 C146.9052 425.2250 148.8595 421.9900 150.2935 418.5475 C152.0205 414.4050 152.3947 410.2900 152.4705 405.8450 C152.7637 388.6550 147.2603 387.5550 141.6212 373.7175 C136.4945 361.1400 136.9175 345.2250 142.6265 332.9175 C144.9180 327.9800 148.2050 323.5575 150.2878 318.5000 C152.0197 314.2925 152.4258 310.1350 152.4877 305.6225 C152.7182 288.7850 147.2545 287.2600 141.6633 273.6875 C137.0970 262.6025 136.9677 248.7457 140.7115 237.4068 C141.7092 234.3855 143.4557 231.5970 144.6792 228.6550 L143.9377 228.7478 L143.9637 228.5280 C129.7365 228.3793 115.4948 228.5225 101.2663 228.5287 C94.6705 228.5318 87.6600 229.0085 81.1057 228.3885 C79.6328 228.2490 77.1890 227.9052 76.0648 226.9465 C74.6057 225.7023 74.1942 223.2227 74.1280 221.4155 C73.8930 215.0152 74.6653 208.5318 75.4965 202.1980 C79.7875 169.0565 94.3018 138.0768 117.0200 113.5685 C146.2807 82.6010 186.6028 64.4645 229.1862 63.1170 Z M86.9595 216.0892 C104.8335 215.5522 123.0468 215.9987 140.9527 216.0007 L242.6250 216.0067 L333.7675 216.0060 C349.5475 216.0060 365.4225 215.6405 381.1900 216.0630 C380.1725 207.8327 379.5625 199.8000 377.7925 191.6693 C370.6000 158.2650 351.9725 128.4193 325.1250 107.2832 C299.9250 87.3025 268.8250 76.2188 236.6703 75.7595 C233.2032 75.7357 229.5878 75.5493 226.1413 75.8542 C218.1797 76.4265 210.2397 77.3158 202.4330 79.0208 C172.5862 85.5395 144.0855 101.9847 124.0488 125.1233 C117.8150 132.3217 112.0522 139.8150 107.1413 147.9925 C95.1393 167.9775 87.4532 192.7242 86.9595 216.0892 Z"></path>
<path id="" fill="#0f53a8" fill-opacity="1.0" stroke="#000000" stroke-width="0.0" stroke-opacity="1.0" stroke-linecap="round" stroke-linejoin="round"  filling="0" d="M223.4700 85.1057 C226.4195 84.8805 230.8785 84.4482 233.4642 86.0260 C235.5838 87.3195 236.4805 89.5090 236.9948 91.8217 C236.3895 93.3163 235.8262 94.5820 234.7025 95.7653 C232.3273 98.2668 228.6815 97.7930 225.5185 97.8575 C201.2168 98.3522 176.0125 108.7227 157.8865 124.8395 C154.5853 127.7750 151.3115 131.0242 148.3797 134.3295 C146.2900 136.6855 144.3503 139.1642 142.1667 141.4368 C140.5513 142.8760 139.1283 143.5775 137.0350 144.0815 C135.6933 143.4722 134.4212 142.8177 133.2715 141.8828 C132.0807 140.9147 131.0927 139.7563 130.9760 138.1673 C130.6825 134.1678 135.1788 129.7670 137.7003 126.9043 C159.5462 102.0573 190.4393 87.0020 223.4700 85.1057 Z"></path>
<path id="" fill="#0f53a8" fill-opacity="1.0" stroke="#000000" stroke-width="0.0" stroke-opacity="1.0" stroke-linecap="round" stroke-linejoin="round"  filling="0" d="M386.0650 85.9110 C398.5700 84.5385 409.8225 93.5585 411.2025 106.0625 C412.5825 118.5665 403.5700 129.8242 391.0675 131.2135 C378.5525 132.6040 367.2825 123.5810 365.9000 111.0652 C364.5175 98.5493 373.5475 87.2848 386.0650 85.9110 Z M397.3875 112.5100 C396.4000 108.8873 396.4125 105.4617 395.8000 101.8225 C394.7975 100.9377 393.7850 100.7985 392.4675 100.8680 C391.8875 100.8987 391.4000 101.0518 391.0200 101.5025 C389.7650 102.9952 389.8125 106.7688 390.0375 108.6410 C390.1000 109.1517 390.0425 109.5260 390.5775 109.7838 C392.1700 110.5490 392.9900 109.8307 394.1650 111.6705 C394.2750 114.0067 390.8225 114.9630 393.0750 117.1720 C393.4475 117.1145 393.8500 117.0623 394.2000 116.9098 C395.9200 116.1580 396.7175 114.1265 397.3875 112.5100 Z"></path>
<path id="" fill="#88b6f4" fill-opacity="1.0" stroke="#000000" stroke-width="0.0" stroke-opacity="1.0" stroke-linecap="round" stroke-linejoin="round"  filling="0" d="M393.0750 117.1720 C393.4625 117.2263 393.6775 117.2790 394.0325 117.4173 L393.9125 117.8033 C392.3225 118.9193 389.8275 119.7812 387.8725 119.6328 C385.2500 119.4335 382.8725 117.8392 381.2700 115.8197 C379.2850 113.3550 378.4025 110.1820 378.8275 107.0462 C379.2500 103.9440 380.9000 101.0015 383.4800 99.1920 C385.4450 97.8135 387.8250 97.1938 390.2000 97.6420 C392.5850 98.0920 394.7775 99.6885 396.1775 101.6430 C397.8250 103.6888 398.5325 107.1882 398.2275 109.7603 C398.1075 110.7672 397.9350 111.6500 397.3875 112.5100 C396.4000 108.8873 396.4125 105.4617 395.8000 101.8225 C394.7975 100.9377 393.7850 100.7985 392.4675 100.8680 C391.8875 100.8987 391.4000 101.0518 391.0200 101.5025 C389.7650 102.9952 389.8125 106.7688 390.0375 108.6410 C390.1000 109.1517 390.0425 109.5260 390.5775 109.7838 C392.1700 110.5490 392.9900 109.8307 394.1650 111.6705 C394.2750 114.0067 390.8225 114.9630 393.0750 117.1720 Z"></path>
<path id="" fill="#0f53a8" fill-opacity="1.0" stroke="#000000" stroke-width="0.0" stroke-opacity="1.0" stroke-linecap="round" stroke-linejoin="round"  filling="0" d="M417.4975 51.7305 C427.1900 50.0658 436.3875 56.6032 438.0025 66.3047 C439.6150 76.0063 433.0300 85.1687 423.3200 86.7307 C413.6825 88.2812 404.6025 81.7548 403.0000 72.1257 C401.4000 62.4967 407.8775 53.3830 417.4975 51.7305 Z"></path>
<path id="" fill="#88b6f4" fill-opacity="1.0" stroke="#000000" stroke-width="0.0" stroke-opacity="1.0" stroke-linecap="round" stroke-linejoin="round"  filling="0" d="M419.4200 63.5215 C420.2775 63.4847 421.1100 63.4373 421.9300 63.7412 C423.2900 64.2588 424.3875 65.2968 424.9825 66.6255 C425.6775 68.1957 425.7225 69.9780 425.1075 71.5810 C424.4250 73.3483 423.2625 74.3262 421.5775 75.0847 C420.7675 75.1840 420.0650 75.2083 419.2725 74.9628 C417.9350 74.5550 416.8300 73.6075 416.2200 72.3490 C415.4500 70.7477 415.3450 68.9070 415.9275 67.2285 C416.5775 65.3510 417.6850 64.3875 419.4200 63.5215 Z"></path>
</svg>