<svg xmlns="http://www.w3.org/2000/svg" viewBox="0 0 512 512" height="512.0px" width="512.0px">
<path id="" fill="#b6cdef" fill-opacity="1.0" stroke="#000000" stroke-width="0.0" stroke-opacity="1.0" stroke-linecap="round" stroke-linejoin="round"  filling="0" d="M331.0450 139.9720 C330.9900 137.5742 330.9500 135.1608 331.0200 132.7630 C331.1250 129.0827 331.2675 124.8840 334.1950 122.2473 C335.3550 121.2007 336.7650 120.3630 338.3175 120.0732 C341.8125 119.4203 349.3250 119.9260 353.2875 119.9385 C361.5075 119.9640 369.8125 119.6565 378.0200 119.9775 C380.5350 120.0760 382.7900 120.9450 384.4875 122.8625 C388.0600 126.8978 387.3325 134.9235 387.0125 139.9933 C400.4075 139.8155 413.8200 139.9442 427.2175 139.9410 C431.8725 139.9397 441.9225 139.4050 445.8525 140.2383 C448.5050 140.8000 451.1675 142.7332 453.0700 144.6062 C455.1700 146.6730 456.6625 149.3000 456.9925 152.2533 C457.3725 155.6577 457.1100 159.2615 457.0800 162.6905 L457.0675 177.5632 L457.0675 232.9355 L457.0925 417.2600 C457.1175 424.2250 457.5925 428.1125 452.2600 433.4125 C450.4175 435.2425 448.1325 436.7150 445.5975 437.3575 C440.4025 438.6750 433.6350 438.0275 428.2100 438.0250 L403.1250 438.0075 L177.5890 438.0025 L106.6540 438.0050 L84.7100 438.0300 C80.3112 438.0350 75.8203 438.2250 71.4392 437.8325 C67.9368 437.5175 64.9130 436.4250 62.3562 433.9275 C58.7388 430.3975 58.0123 426.6250 57.9847 421.7525 L57.9953 238.6150 L58.0060 180.6245 L57.9655 162.0592 C57.9593 158.8342 57.7383 155.4283 58.0742 152.2225 C58.3938 149.1765 60.0992 146.3330 62.2455 144.1945 C63.9375 142.5085 66.6015 140.6393 68.9807 140.1740 C72.9608 139.3955 81.6957 139.9368 86.2007 139.9365 L126.0440 139.9825 C125.9665 135.4538 125.1472 129.1122 127.1827 124.9370 C128.4215 122.3965 130.5108 120.9760 133.0878 120.0265 C139.7240 119.5355 146.6590 119.9373 153.3313 119.9348 C159.9090 119.9323 166.7677 119.5307 173.3115 120.0063 C174.6048 120.1003 175.8435 120.2750 176.9965 120.9045 C183.2988 124.3460 180.0782 133.5800 182.1402 140.0070 C200.7305 139.5235 219.4382 139.9453 238.0392 139.9460 L331.0450 139.9720 Z"></path>
<path id="" fill="#89b7f5" fill-opacity="1.0" stroke="#000000" stroke-width="0.0" stroke-opacity="1.0" stroke-linecap="round" stroke-linejoin="round"  filling="0" d="M114.7130 185.6098 C119.8865 185.7810 125.4287 192.0605 130.2538 194.1113 C135.3870 193.7377 140.1138 190.8375 145.3333 190.8475 C146.3335 190.8492 147.6330 190.9913 148.3613 191.7628 C148.8082 192.2365 148.8712 192.5822 148.8485 193.2133 C148.7858 194.9500 148.1505 196.8127 147.7275 198.4922 C146.5950 202.9888 144.9353 208.1927 144.9908 212.8485 L144.9975 213.2580 C147.1062 215.4487 154.4382 223.0573 155.1515 225.5425 C155.1060 226.1568 154.9818 226.5383 154.6073 227.0193 C153.5233 228.4117 151.3895 229.4930 149.6955 229.8723 C147.2057 230.4295 140.5310 230.0562 137.2155 230.4280 C133.3470 231.4583 131.6703 234.1613 129.1880 237.0278 C128.4458 237.8853 127.4245 239.3383 126.2600 239.4210 C122.4187 237.4715 121.2670 230.0197 117.6750 227.3290 C113.9147 224.5123 105.4897 225.6678 101.1793 222.9572 C100.7012 222.6597 100.2750 222.2865 99.9173 221.8517 C99.2343 221.0160 98.6617 219.6003 98.8315 218.5070 C99.3235 215.3385 110.2570 208.4308 113.2513 206.5360 C112.6588 201.1958 112.2213 190.3893 114.7130 185.6098 Z"></path>
<path id="" fill="#89b7f5" fill-opacity="1.0" stroke="#000000" stroke-width="0.0" stroke-opacity="1.0" stroke-linecap="round" stroke-linejoin="round"  filling="0" d="M258.4975 227.2072 C270.6175 226.2585 281.2075 235.3228 282.1425 247.4438 C283.0750 259.5650 273.9975 270.1425 261.8775 271.0625 C249.7758 271.9800 239.2190 262.9225 238.2870 250.8225 C237.3550 238.7220 246.4000 228.1540 258.4975 227.2072 Z"></path>
<path id="" fill="#89b7f5" fill-opacity="1.0" stroke="#000000" stroke-width="0.0" stroke-opacity="1.0" stroke-linecap="round" stroke-linejoin="round"  filling="0" d="M158.2955 261.0675 C158.6560 261.0375 159.0130 261.0100 159.3750 261.0000 C167.6703 260.7625 176.0170 260.9325 184.3188 260.9325 C189.9698 260.9325 195.8110 260.6375 201.4350 261.0225 C202.3945 261.0875 203.9275 261.1375 204.6215 261.7800 C204.9108 262.6525 205.0450 263.4525 205.0825 264.3700 C205.2100 267.4825 205.3670 290.6925 204.9408 291.9675 L204.3125 292.0300 C188.5830 291.8575 172.6998 291.6800 156.9787 292.1150 C157.0555 285.6750 156.9702 279.2275 156.9630 272.7875 C156.9597 269.7525 156.7498 266.5700 157.0312 263.5575 C157.1490 262.2950 157.3580 261.8625 158.2955 261.0675 Z"></path>
<path id="" fill="#89b7f5" fill-opacity="1.0" stroke="#000000" stroke-width="0.0" stroke-opacity="1.0" stroke-linecap="round" stroke-linejoin="round"  filling="0" d="M212.1523 191.6645 C212.5168 191.7253 212.7910 191.8047 213.0782 192.0510 C214.7272 193.4642 216.1638 195.2445 217.7360 196.7578 C219.5885 198.5403 221.6335 200.1398 223.3830 202.0262 C224.8813 203.6413 226.2050 205.4325 227.7340 207.0137 C229.9888 209.3450 232.8483 211.1125 235.0195 213.5347 C235.6365 214.2230 236.1792 214.8745 236.2572 215.8248 C234.4807 219.1848 222.0530 230.2863 218.4340 233.8275 C216.5205 235.6998 214.8070 237.7965 212.7640 239.5290 C212.2325 239.3975 211.7105 239.1698 211.2400 238.8915 C206.0850 235.8455 200.0710 228.2535 195.9660 223.7872 C193.8893 221.5280 189.5555 218.1430 188.7583 215.2027 C190.1875 212.6418 209.1438 193.9592 212.1523 191.6645 Z"></path>
<path id="" fill="#0f53a8" fill-opacity="1.0" stroke="#000000" stroke-width="0.0" stroke-opacity="1.0" stroke-linecap="round" stroke-linejoin="round"  filling="0" d="M251.1900 70.3532 C253.7350 69.9730 256.6050 70.0862 259.1625 70.2978 C272.3250 71.3857 285.9700 77.2907 294.5975 87.5555 C304.4900 99.3268 306.9425 110.2960 307.1175 125.2585 C307.1550 128.5595 307.3525 131.9645 307.0700 135.2527 C311.9800 134.6240 320.8425 134.8658 325.9450 135.1873 C325.8750 133.8060 325.9075 132.4075 325.9200 131.0245 C325.9725 125.7910 326.9025 121.3652 330.8025 117.6178 C332.7875 115.7300 335.2350 114.3960 337.8975 113.7485 C343.0025 112.4977 349.1300 113.1013 354.3825 113.1133 C360.3775 113.1267 366.3875 113.0295 372.3800 113.1447 C378.2625 113.2578 383.2875 114.1725 387.5000 118.6145 C391.9450 123.3018 391.9225 129.1815 391.7375 135.2202 C392.8825 135.0623 394.0800 135.0638 395.2350 135.0505 C404.7800 134.9400 414.3375 135.0295 423.8825 135.0307 C430.7350 135.0315 440.3900 134.3197 446.8650 135.9297 C449.9350 136.6930 453.0575 138.5925 455.3000 140.8050 C460.0975 145.5403 460.9525 151.2715 461.0200 157.7305 C461.2250 177.8053 461.0250 197.9043 461.0250 217.9812 L461.0225 337.6600 L461.0300 395.3475 L461.0425 412.6575 C461.0425 416.7125 461.1900 420.8325 460.6950 424.8600 C460.1775 429.0600 458.1925 433.4250 455.1925 436.4325 C452.5150 439.1150 448.7025 440.9975 444.9450 441.5250 C438.3550 442.4525 431.1200 441.9350 424.4650 441.9325 L387.9975 441.9325 L261.6250 441.9375 L133.2740 441.9400 L91.8613 441.9500 C84.1198 441.9525 76.1745 442.3125 68.4580 441.6825 C63.4685 441.2925 58.8492 438.9000 55.6505 435.0500 C52.9268 431.8225 51.5542 428.3050 51.2140 424.1050 C50.7525 418.4025 51.0453 412.5000 51.0562 406.7800 L51.0630 377.4475 L51.0630 283.6450 L51.0612 195.5878 L51.0570 168.2780 C51.0472 162.9973 50.7595 157.5298 51.2233 152.2705 C51.6852 147.3355 54.0872 142.7855 57.9017 139.6203 C60.3835 137.5630 63.3378 136.1550 66.4987 135.5225 C70.5318 134.7415 74.8485 135.0237 78.9453 135.0367 L93.0555 135.0388 L109.6695 135.0327 C113.1693 135.0312 116.7777 134.8598 120.2578 135.2092 C120.2195 134.1747 120.1963 133.1395 120.1877 132.1042 C120.1600 126.8293 121.1118 121.5940 125.0470 117.7582 C127.0870 115.7697 129.8370 114.3360 132.6025 113.6845 C137.6330 112.4998 143.5390 113.1263 148.7072 113.1230 C155.1625 113.1185 161.6667 112.9547 168.1175 113.1745 C173.3560 113.3530 178.2832 114.5245 181.9650 118.5103 C186.1855 123.0793 186.4255 129.3273 186.1543 135.2162 C191.3770 134.6682 199.6328 134.8333 204.9855 135.2015 C204.6200 116.7647 204.6450 102.9570 217.0925 87.7925 C225.2860 77.8105 238.4740 71.6248 251.1900 70.3532 Z M63.8915 425.0900 C64.9545 426.7700 66.2435 428.0375 67.8633 429.1800 C77.4785 429.3875 87.1305 429.1925 96.7505 429.1900 L153.2550 429.1875 L324.1650 429.1875 L407.7250 429.1850 L431.9775 429.2025 C435.8325 429.2050 440.1575 429.5750 443.9650 429.0300 C445.5450 428.3175 446.8675 426.7700 447.9450 425.4375 C448.7775 420.5025 448.1850 410.6475 448.1850 405.2250 L448.1850 360.7625 L448.1850 195.6035 C448.1850 190.4575 448.7500 153.5697 447.6875 151.4295 C447.5425 151.1373 447.3850 150.8638 447.1875 150.6033 C446.3250 149.4655 445.1475 148.6190 443.9800 147.8250 C434.1600 147.4857 424.2625 147.7330 414.4350 147.7330 L361.0050 147.7332 L198.0305 147.7390 L107.9100 147.7377 L80.9128 147.7213 C76.6960 147.7165 72.0635 147.3155 67.8935 147.8208 C66.4860 148.9960 65.2750 150.2235 64.0900 151.6217 C63.5185 155.5788 63.8420 159.8460 63.8555 163.8463 L63.8878 184.5708 L63.8842 259.5225 L63.8845 372.0200 L63.8757 407.3900 C63.8680 413.2150 63.4682 419.3000 63.8915 425.0900 Z M377.0625 135.0155 L379.2625 135.0932 C379.2650 132.7207 379.8575 128.2025 378.1450 126.3402 C377.7200 125.8785 376.4000 125.8640 375.7625 125.8207 C370.4300 125.4595 364.9300 125.7140 359.5800 125.7137 C353.6625 125.7135 347.6575 125.4912 341.7475 125.6808 C341.3225 125.6945 340.9125 125.7337 340.4900 125.7780 C337.7925 128.8448 338.2150 131.3513 338.0825 135.1413 C342.9450 134.8885 347.8575 135.0135 352.7250 135.0128 L377.0625 135.0155 Z M288.2950 135.1715 C287.6250 119.5345 290.1375 109.1848 277.1850 97.3005 C271.7850 92.3438 264.8025 89.1882 257.4150 89.1198 C255.0375 89.2090 252.5525 89.1550 250.2025 89.5052 C242.7845 90.6097 236.5728 95.4077 231.6053 100.7345 C221.8443 111.2012 224.5885 122.3210 223.8042 135.1905 C227.9093 134.9182 232.0647 135.0385 236.1780 135.0400 L255.1250 135.0450 L276.7675 135.0358 C280.5525 135.0355 284.5300 134.7990 288.2950 135.1715 Z M134.5887 125.8065 C132.0992 128.3647 132.9852 131.8965 132.7383 135.1678 C137.5245 134.7997 142.4420 135.0020 147.2445 135.0063 L172.3125 135.0388 L173.4872 135.0108 C174.6163 133.6163 173.9147 130.1913 173.7920 128.4770 C173.0963 127.4522 172.3755 126.1590 171.0545 125.8965 C167.6908 125.2282 158.0788 125.7063 154.1910 125.7087 C148.3845 125.7122 140.1230 125.2640 134.5887 125.8065 Z"></path>
<path id="" fill="#0f53a8" fill-opacity="1.0" stroke="#000000" stroke-width="0.0" stroke-opacity="1.0" stroke-linecap="round" stroke-linejoin="round"  filling="0" d="M113.3387 179.0475 C117.8780 180.1850 127.7925 187.3555 131.5168 190.6057 C136.0240 188.6158 146.9212 183.3217 151.5655 184.1760 C153.0612 184.4510 154.5110 185.1335 155.3378 186.4617 C158.0997 190.8992 152.3743 203.7900 151.2587 208.9207 C154.2867 211.5705 160.7700 219.6690 162.7165 223.1075 C163.3438 224.2153 163.6633 225.4073 163.9957 226.6257 C163.4073 228.1785 162.7137 229.7827 161.3935 230.8533 C158.4082 233.2737 144.0870 233.0540 140.2765 232.5737 L138.6078 235.1337 C135.6362 239.3165 131.8165 247.8970 127.1237 250.0450 C125.9187 250.5975 124.6462 250.7050 123.4023 250.2125 C118.1543 248.1415 115.5165 234.9167 113.2913 229.7520 C111.0707 229.0540 108.8355 228.3640 106.5797 227.7883 C102.5642 226.7632 95.6585 225.9962 92.9577 222.4915 C92.0493 221.3127 91.7105 219.8515 91.9362 218.3860 C92.1325 217.1113 92.6978 216.0310 93.5165 215.0453 C96.1040 211.9305 104.6158 206.0307 108.2755 203.4845 C108.1697 199.9870 107.9652 196.4930 107.6620 193.0067 C107.4775 190.7420 107.0505 188.2740 107.2235 186.0085 C107.3132 184.8355 107.6042 183.6875 108.1998 182.6662 C109.3720 180.6565 111.1458 179.6413 113.3387 179.0475 Z M134.2935 220.6823 C134.3797 220.6512 134.4655 220.6190 134.5520 220.5887 C136.6832 219.8448 141.1152 220.6180 142.4080 219.5502 C142.5562 218.9255 142.5155 218.3848 142.1487 217.8420 C139.8615 214.4583 137.5425 212.7570 138.2000 208.1490 C138.5287 205.8452 139.1552 203.4825 139.6983 201.2162 C136.6297 202.0777 133.6703 203.3192 130.6017 204.1293 C127.2230 203.0703 123.4043 200.7240 120.7793 198.3573 C121.0233 201.7413 122.0495 207.7905 119.6598 210.4350 C118.2108 212.0385 115.3040 213.4507 114.8460 215.6207 C115.0625 216.3503 115.2900 216.7315 115.9905 217.0865 C119.9505 219.0938 122.7750 218.1788 124.7818 223.3550 C125.2275 224.5052 125.3645 226.2870 126.2578 227.1277 C127.0358 227.2780 127.5095 227.2025 128.1825 226.7552 C130.6040 225.1467 131.6718 222.2173 134.2935 220.6823 Z"></path>
<path id="" fill="#0f53a8" fill-opacity="1.0" stroke="#000000" stroke-width="0.0" stroke-opacity="1.0" stroke-linecap="round" stroke-linejoin="round"  filling="0" d="M255.9375 221.0605 C270.9925 218.5135 285.2425 228.7020 287.7050 243.7700 C290.1650 258.8375 279.8950 273.0300 264.8125 275.4050 C249.8525 277.7600 235.7993 267.5900 233.3587 252.6450 C230.9180 237.6985 241.0063 223.5870 255.9375 221.0605 Z M262.3775 262.8375 C270.4475 261.8150 276.1725 254.4575 275.1775 246.3835 C274.1800 238.3095 266.8425 232.5618 258.7650 233.5307 C250.6500 234.5040 244.8695 241.8848 245.8695 249.9965 C246.8695 258.1075 254.2700 263.8650 262.3775 262.8375 Z"></path>
<path id="" fill="#0f53a8" fill-opacity="1.0" stroke="#000000" stroke-width="0.0" stroke-opacity="1.0" stroke-linecap="round" stroke-linejoin="round"  filling="0" d="M156.9745 257.3100 C165.3995 256.7475 174.1302 257.1775 182.5923 257.1800 C189.5730 257.1800 197.3095 256.7275 204.1918 257.2875 C205.6265 257.4050 207.7953 257.6375 208.9680 258.4650 C210.3443 259.4375 211.2997 261.4500 211.6160 263.0575 C212.3280 266.6775 211.7892 271.0000 211.7965 274.7000 C211.8047 279.0825 212.2377 283.8150 211.7330 288.1550 C211.5735 289.5250 211.1857 290.8350 210.4020 291.9825 C209.2793 293.6250 207.8220 294.3625 205.9193 294.7675 C196.8183 295.0450 187.6620 294.7875 178.5542 294.8075 C171.7500 294.8200 164.6978 295.2275 157.9187 294.7725 C156.3932 294.6675 154.7415 294.4300 153.3550 293.7650 C152.3985 293.3050 151.9335 291.9675 151.6443 291.0250 C150.6373 287.7450 150.4473 262.4175 151.7905 260.1775 C152.9485 258.2450 154.9308 257.7450 156.9745 257.3100 Z M163.7122 282.2125 C169.7697 281.8075 175.9393 282.0250 182.0120 282.0300 C187.5325 282.0325 193.1622 281.8200 198.6685 282.1300 L198.9370 281.8825 C199.0550 277.9225 198.8752 273.9450 199.0338 269.9900 C187.3200 270.0450 175.4198 270.4550 163.7227 269.9825 C163.8503 274.0275 164.1003 278.1775 163.7122 282.2125 Z"></path>
<path id="" fill="#0f53a8" fill-opacity="1.0" stroke="#000000" stroke-width="0.0" stroke-opacity="1.0" stroke-linecap="round" stroke-linejoin="round"  filling="0" d="M211.0595 188.8053 C212.4252 188.7900 213.6000 188.9170 214.8460 189.5175 C217.8845 190.9820 233.6310 206.7272 236.2820 210.1362 C236.9605 211.0090 237.4913 211.9565 237.8320 213.0130 C238.2787 214.3978 238.3250 216.3035 237.6118 217.6130 C236.7747 219.1490 218.3208 237.7065 215.8017 239.7150 C214.9920 240.3605 214.2600 240.7060 213.2733 241.0065 C212.2222 241.0462 211.1638 241.0040 210.1118 240.9897 C206.8520 238.9390 186.5932 218.7057 186.0592 216.7682 C185.5515 214.9247 186.0245 212.7840 186.9608 211.1597 C188.7142 208.1180 204.2565 192.9043 207.4385 190.5233 C208.6147 189.6432 209.6418 189.1860 211.0595 188.8053 Z M203.0658 213.4295 C202.8997 214.4012 202.7600 215.3445 202.7003 216.3290 C204.9005 218.5040 208.0262 222.2977 210.4438 223.8797 C210.9758 224.2278 211.3930 224.2767 212.0123 224.2870 C212.6983 224.1228 213.3300 223.9478 213.9068 223.5242 C215.0490 222.6855 220.4655 217.3358 220.9645 216.4120 C221.3520 215.6945 221.2385 214.9422 220.9750 214.1980 C219.9413 211.2800 214.7872 205.6745 212.0125 204.2462 C209.2112 207.4863 206.1573 210.4702 203.0658 213.4295 Z"></path>
</svg>