<svg xmlns="http://www.w3.org/2000/svg" viewBox="0 0 512 512" height="512.0px" width="512.0px">
<path id="" fill="#febdd8" fill-opacity="1.0" stroke="#000000" stroke-width="0.0" stroke-opacity="1.0" stroke-linecap="round" stroke-linejoin="round"  filling="0" d="M271.2575 261.3400 C274.7825 260.9250 278.1500 261.4625 281.6600 261.6825 C285.1025 261.8975 288.5800 262.0150 292.0000 262.4900 C305.6875 264.3950 319.3025 269.3450 331.2550 276.2450 C353.0475 288.8275 376.6700 310.6250 383.2825 335.6225 C388.7550 356.3100 385.6200 377.3650 378.1425 397.1375 C375.1850 404.9600 371.5375 412.5625 368.0150 420.1375 C366.3275 423.7675 364.8250 427.4775 363.0500 431.0675 C361.5175 434.1650 359.7375 437.1225 358.1900 440.2075 C355.5350 445.5000 352.8850 450.8625 349.9075 455.9850 C343.2750 456.4225 336.3525 456.0475 329.6925 456.0475 L290.1250 456.0350 L192.9917 456.0825 L192.9925 425.7050 C192.9940 419.7925 193.1870 413.8150 192.7122 407.9225 C191.8785 397.5725 189.1850 384.8450 186.6853 374.7125 C185.5575 370.1025 184.1385 365.5675 182.4368 361.1375 C179.7858 354.2275 176.3755 347.0800 175.3530 339.6925 C174.9447 336.7425 174.9450 333.7750 174.9402 330.8025 C174.9348 327.3525 174.9238 323.9025 175.4120 320.4775 C177.2068 307.8875 183.8630 294.4525 191.5825 284.4325 C202.8055 269.8675 223.3680 262.7325 241.2045 262.0050 C251.2050 261.5975 261.3050 262.6575 271.2575 261.3400 Z"></path>
<path id="" fill="#231f20" fill-opacity="1.0" stroke="#000000" stroke-width="0.0" stroke-opacity="1.0" stroke-linecap="round" stroke-linejoin="round"  filling="0" d="M225.9772 141.9267 C216.3105 128.5332 204.6537 116.1233 192.9713 104.4670 C190.7315 102.2320 188.5855 99.8757 186.2845 97.7065 C183.8205 95.3838 181.1995 93.2247 178.7063 90.9320 C172.6875 85.3972 166.8443 79.8477 160.5405 74.6127 C159.2080 73.5060 153.4115 70.2353 153.7188 68.6280 C153.9012 67.6725 154.6393 66.6403 155.2030 65.8675 C156.5038 64.0843 165.4512 53.0010 166.6718 52.3273 C167.2117 52.0293 167.7450 51.9130 168.3345 52.1403 C171.7133 53.4425 175.8115 57.7417 178.6447 60.0862 C183.5513 64.0875 188.3285 68.2450 192.9693 72.5522 C195.0773 74.5267 197.0332 76.6535 199.1387 78.6315 C202.7585 82.0318 206.4727 85.3400 210.0132 88.8232 C219.8840 98.6475 229.2052 109.0088 237.9345 119.8603 C241.4745 124.3443 245.0052 128.8562 248.1705 133.6165 C250.4350 137.0213 253.0225 142.1515 255.6825 145.0302 C257.6450 147.1543 262.1900 148.0822 264.8675 149.3103 C266.9650 150.2715 269.0150 151.4077 271.0050 152.5737 C293.2675 165.6205 308.7225 187.3070 317.5800 211.2335 C321.1400 220.8513 323.3575 230.6785 325.0850 240.7657 C325.4450 242.8595 326.5475 246.8595 325.6750 248.8275 C324.4750 251.5325 319.3700 255.2425 317.1925 257.6775 C322.3200 259.4750 327.4150 262.5450 332.1525 265.2075 C353.8800 277.4175 373.7675 294.0150 384.7650 316.8500 C395.6750 339.9250 396.9775 366.3875 388.3900 390.4225 C384.9500 400.2225 379.9250 409.3450 375.3525 418.6375 C368.3375 432.7600 361.4200 446.9300 354.6025 461.1475 C349.2150 460.7625 343.6975 460.9850 338.2925 460.9850 L309.6875 460.9850 C284.6750 460.9850 259.5975 460.6125 234.5925 461.0175 C233.1530 460.9775 231.6985 461.0300 230.2578 461.0400 C224.1037 460.7650 217.8480 460.9825 211.6832 460.9875 C211.7027 459.4950 211.2047 457.9850 211.6727 456.5375 C212.2543 455.8975 212.5955 456.0250 213.4348 455.9450 L213.6113 455.9575 C215.8755 455.4975 218.5565 455.7200 220.8690 455.7225 C225.3837 455.7300 229.9023 455.8025 234.4155 455.6650 C233.9160 449.7600 234.7753 443.6700 234.5912 437.7375 C241.0880 437.9225 248.6165 438.4750 255.0125 437.9300 C239.3582 415.5475 231.0605 392.7225 235.9292 365.1050 C238.6790 349.8325 245.2295 335.4975 254.9775 323.4250 C256.5950 321.4300 258.4425 318.7825 260.5725 317.3500 C260.8650 317.1550 261.1250 317.0750 261.4675 317.0275 C263.4775 318.6700 265.2675 320.6575 267.0925 322.4975 C270.4875 325.9775 273.9275 329.4100 277.4150 332.7950 C274.6125 336.3975 271.4625 339.6350 268.8600 343.4125 C259.9225 356.5700 256.0200 372.5075 257.8675 388.3075 C260.1025 406.6700 271.7950 424.6950 284.3100 437.9350 C296.7675 438.0150 309.2225 438.0275 321.6800 437.9750 C327.7500 437.9725 334.1175 437.5950 340.1500 438.1800 C342.1450 435.1375 343.6500 431.7150 345.2500 428.4500 L352.3950 413.8475 L360.5275 397.3225 C362.8150 392.6875 365.1750 388.1250 366.9350 383.2500 C371.3925 370.8975 372.3275 354.9325 369.6825 342.0075 C365.2075 320.1600 347.5750 302.1000 329.5000 290.2675 C320.4225 284.3225 306.0100 276.5275 295.8950 273.0225 L295.6500 273.0900 C293.5150 273.7125 291.4825 274.6700 289.3825 275.4000 C284.9200 276.9325 280.2950 277.9425 275.6025 278.4100 C265.8525 279.3100 255.7650 278.8625 245.9668 278.8175 C241.6385 278.8000 236.9957 278.4350 232.7135 279.1075 C223.4227 280.5675 215.4335 288.3875 210.1723 295.7475 C206.4913 293.4575 192.2695 286.4225 190.5735 284.0575 C198.3855 271.0225 211.5410 260.7075 226.4055 257.0100 C231.6445 255.7075 236.9975 255.9050 242.3513 255.9100 L261.2375 255.9400 C275.4125 255.9425 284.1725 255.4125 295.6800 246.1752 C297.8825 244.4082 300.3400 242.5955 302.1450 240.4212 C297.9400 215.3640 285.0900 190.1405 264.1100 175.0900 C258.1800 170.8358 251.2050 167.4263 244.0457 165.8845 C236.9003 164.3457 229.0627 165.0222 221.7710 165.0312 C209.9283 165.0460 198.0632 165.1955 186.2225 165.0647 C179.1212 156.9405 172.3253 148.6953 164.9077 140.8360 C160.3075 135.9615 155.3625 131.4492 150.5067 126.8360 C141.9220 118.6797 120.5543 97.4925 109.0000 96.6415 C106.1185 96.4295 103.4555 97.0663 101.2798 99.0332 C99.2350 100.8815 98.0898 103.3293 98.0078 106.0820 C97.9368 108.4610 98.5070 110.8398 99.5078 112.9905 C102.9187 120.3192 113.8550 131.9843 119.7040 137.9645 C132.5582 151.1070 146.1110 163.9920 160.8320 175.0343 C163.5818 177.0970 166.3575 179.4193 169.2860 181.2165 C167.0542 184.2485 164.6345 187.1268 162.3785 190.1390 C159.1105 194.5020 156.0105 199.0912 153.0840 203.6893 C131.3995 237.7583 115.9735 280.4275 122.1718 321.2725 C124.5567 336.9900 130.4297 351.9450 137.3728 366.1625 C140.1102 371.7700 143.0972 377.2475 145.8110 382.8700 C155.9345 403.8475 163.2545 423.0250 165.5632 446.4425 C165.8777 449.6350 166.7545 457.8700 165.5595 460.6775 C164.0813 461.5450 146.5950 460.8650 143.3165 461.0625 C143.4770 457.7250 143.2117 454.3425 143.0315 451.0075 C141.5858 424.2775 130.6190 404.1850 119.1545 380.7625 C111.2900 364.6950 104.3418 348.2175 100.7842 330.6150 C92.2117 288.1975 105.0470 243.5365 125.1150 206.1390 C128.9395 199.0115 133.1580 192.2625 137.5047 185.4473 C132.3935 180.9725 126.9922 176.8125 121.9283 172.2682 C118.5340 169.2225 115.5005 165.8145 112.2485 162.6240 C103.1335 153.6817 94.9800 145.7765 87.1967 135.5332 C84.4635 131.9360 81.7858 128.2620 79.7263 124.2278 C77.2300 119.3380 75.6403 114.1233 75.2722 108.6298 C74.7065 99.9207 77.6227 91.3432 83.3800 84.7840 C89.0042 78.4420 97.7855 74.5455 106.2117 74.0957 C111.8090 73.7970 117.7278 75.0070 122.9020 77.1080 C132.5785 81.0370 146.0237 91.4348 153.8385 98.5140 C165.2175 108.7152 176.2090 119.3402 186.7897 130.3670 C190.4300 134.1402 193.5668 138.2995 197.3045 142.0067 L216.4433 142.0278 C219.5345 142.0325 222.9258 142.3683 225.9772 141.9267 Z"></path>
<path id="" fill="#ffbdd8" fill-opacity="1.0" stroke="#000000" stroke-width="0.0" stroke-opacity="1.0" stroke-linecap="round" stroke-linejoin="round"  filling="0" d="M213.6113 455.9575 C220.5765 456.1500 227.5578 455.9450 234.5255 456.0200 C234.5460 457.6800 234.5143 459.3600 234.5925 461.0175 C233.1530 460.9775 231.6985 461.0300 230.2578 461.0400 C224.1037 460.7650 217.8480 460.9825 211.6832 460.9875 C211.7027 459.4950 211.2047 457.9850 211.6727 456.5375 C212.2543 455.8975 212.5955 456.0250 213.4348 455.9450 L213.6113 455.9575 Z"></path>
<path id="" fill="#231f20" fill-opacity="1.0" stroke="#000000" stroke-width="0.0" stroke-opacity="1.0" stroke-linecap="round" stroke-linejoin="round"  filling="0" d="M160.2157 369.7425 C166.4402 369.7650 180.6862 368.7400 186.0050 370.0900 C196.5785 390.2100 205.6687 411.4600 209.4738 433.9875 C210.2323 438.4525 210.8098 442.9475 211.2052 447.4625 C211.4445 450.1625 211.4243 452.9375 211.8535 455.6125 L213.4348 455.9450 C212.5955 456.0250 212.2543 455.8975 211.6727 456.5375 C211.2047 457.9850 211.7027 459.4950 211.6832 460.9875 C217.8480 460.9825 224.1037 460.7650 230.2578 461.0400 C226.9258 461.4800 223.1750 461.1725 219.7912 461.1825 C209.5103 461.2150 199.2083 460.7000 188.9285 461.0425 C188.8293 456.9750 188.8143 452.8725 188.4760 448.8150 C186.5757 426.0400 178.6913 406.5850 168.6520 386.3125 C166.3407 381.6450 162.9630 373.7650 160.2157 369.7425 Z"></path>
<path id="" fill="#231f20" fill-opacity="1.0" stroke="#000000" stroke-width="0.0" stroke-opacity="1.0" stroke-linecap="round" stroke-linejoin="round"  filling="0" d="M419.0575 392.3825 C424.9250 392.1225 430.7775 392.5700 436.6425 392.4875 C433.2550 404.1675 427.8800 414.9025 422.5825 425.7900 L405.2250 461.0050 L398.5025 461.0100 L380.7125 460.9725 C381.5375 456.5175 386.2225 448.3900 388.3075 444.1400 L400.1075 420.1700 C402.6600 415.0400 405.3450 409.9475 407.7225 404.7325 C408.6150 402.7775 411.8475 394.1100 412.9600 393.0725 C414.1175 391.9925 417.5700 392.3800 419.0575 392.3825 Z"></path>
<path id="" fill="#231f20" fill-opacity="1.0" stroke="#000000" stroke-width="0.0" stroke-opacity="1.0" stroke-linecap="round" stroke-linejoin="round"  filling="0" d="M231.8598 197.5788 C234.8372 197.3080 237.8802 197.3372 240.5510 198.8678 C243.5335 200.5770 244.9538 203.3918 245.8655 206.5708 C247.8710 213.5623 247.6812 223.6100 243.9615 230.0443 C242.3318 232.8633 240.1310 233.7168 237.1582 234.5315 C234.1908 235.0148 231.0600 234.8503 228.4068 233.2925 C225.2773 231.4550 223.7368 228.0540 222.9032 224.6667 C221.3040 218.1673 221.2965 208.1562 224.9850 202.2928 C226.6500 199.6460 228.8562 198.2720 231.8598 197.5788 Z"></path>
</svg>