<svg xmlns="http://www.w3.org/2000/svg" viewBox="0 0 512 512" height="512.0px" width="512.0px">
<path id="" fill="#ffaf6e" fill-opacity="1.0" stroke="#000000" stroke-width="0.0" stroke-opacity="1.0" stroke-linecap="round" stroke-linejoin="round"  filling="0" d="M272.7200 255.1200 C278.1850 255.0475 283.5550 255.6475 289.0025 255.8875 C292.5050 256.0400 296.0100 255.9475 299.5125 256.1950 C333.0175 258.5775 366.7950 266.5100 397.1550 281.0550 C400.0400 282.4375 402.6725 284.2650 405.5050 285.7375 C410.4375 288.2975 418.0975 291.1350 422.1800 294.6675 C423.1725 295.5250 423.9375 296.5325 424.5125 297.7100 C427.0125 302.8150 430.3650 318.2450 430.8500 324.1000 C431.1425 327.6000 431.0625 331.1475 431.0650 334.6600 C431.0700 339.0950 431.2000 343.5625 430.6725 347.9775 C429.4050 358.6000 425.8175 367.7275 420.9850 377.1700 C419.2500 380.5625 417.5150 383.9225 415.3675 387.0825 C413.2675 390.1700 410.7500 393.0600 408.3350 395.9075 C383.0850 425.6650 339.6175 437.7575 302.3000 442.4600 C292.5775 443.6850 282.8200 444.0950 273.0625 444.8950 C272.3925 444.9600 271.7125 444.9650 271.0425 444.9850 C230.1017 446.1950 180.5085 441.5400 142.8907 424.4825 C138.8605 422.6550 132.1710 420.5700 129.0540 417.4700 C126.8132 415.2400 125.6888 411.4350 124.5803 408.5400 C119.0508 394.0875 115.4010 378.5200 115.0030 363.0025 C114.3620 338.0150 121.6617 313.4775 139.2323 295.2200 C142.8280 291.4825 147.2702 288.1625 151.5515 285.2350 C155.3802 282.6175 159.2700 279.9325 163.3858 277.7825 C168.7182 275.0000 174.4665 272.7750 180.1155 270.7225 C202.2307 262.6925 225.8420 258.1525 249.2860 256.2400 C253.1900 255.9225 257.1175 256.1050 261.0275 255.8800 C264.9350 255.6550 268.8000 255.2000 272.7200 255.1200 Z"></path>
<path id="" fill="#231f20" fill-opacity="1.0" stroke="#000000" stroke-width="0.0" stroke-opacity="1.0" stroke-linecap="round" stroke-linejoin="round"  filling="0" d="M391.6075 51.1185 C401.5150 51.0550 411.4750 50.8330 421.3800 51.1292 C420.1900 56.8678 418.4150 62.5983 416.8625 68.2530 C408.1000 100.1833 394.1550 134.3333 365.5400 153.3875 C337.2900 172.1970 304.1225 176.4595 271.0000 178.4160 C265.1725 178.7600 252.6400 179.8930 247.5575 178.8777 C248.8242 180.8305 249.7207 183.0835 250.6425 185.2170 C253.4750 191.7677 255.5900 198.5363 258.2775 205.1275 C266.8650 204.7112 275.3450 205.1115 283.9175 205.6270 C310.8550 207.2480 337.9550 211.3545 363.5075 220.2318 C394.1250 230.8675 422.3375 249.7850 436.7325 279.7300 C450.1675 307.6825 451.7175 344.9875 441.4550 374.1775 C430.3650 405.7225 409.6350 424.7150 379.9750 438.8900 C327.9950 463.7325 243.1150 465.2925 186.9857 455.3075 C176.4340 453.4300 165.5497 451.2875 155.4300 447.7100 C136.1268 441.9700 116.1147 432.3125 100.7960 419.0625 C77.6580 399.0475 66.1770 371.1750 64.1902 341.0675 C62.1155 309.6350 70.8223 279.0225 91.7630 255.2325 C97.2465 249.0033 103.8163 243.7088 110.6183 238.9790 C140.9265 217.9040 179.5515 209.7775 215.7587 206.4798 C220.7968 206.0210 225.8752 205.8638 230.9255 205.5435 C230.0853 203.5437 229.4657 201.4512 228.6440 199.4402 C226.4447 194.1745 224.0983 188.9718 221.6065 183.8380 C211.4795 163.2112 198.0125 144.4005 181.7498 128.1662 C178.8438 125.2442 175.9935 122.2693 172.8757 119.5713 C168.1280 115.4622 163.2955 111.3750 158.1613 107.7535 C154.7953 105.3790 150.5468 103.3505 147.6005 100.5153 C147.5273 100.4447 147.4568 100.3715 147.3850 100.2997 C148.5400 97.6630 158.7190 80.1065 160.3833 79.2200 C163.5420 80.0453 168.0202 83.7335 170.8220 85.6300 C195.1767 102.1150 215.8943 124.5103 231.6470 149.2915 C234.1163 143.4967 236.0423 137.4960 238.4315 131.6633 C244.7533 116.2292 253.3475 101.2105 265.0625 89.2258 C292.8950 60.7500 334.3750 53.9420 372.4500 51.9658 C378.8350 51.6342 385.2125 51.1885 391.6075 51.1185 Z M268.0700 256.0750 C276.7550 256.0075 285.4375 255.8600 294.1200 255.6350 C294.7475 261.8950 294.5800 268.2375 294.5600 274.5250 C294.5550 276.9975 294.4175 279.5250 294.6050 281.9900 C288.1775 281.7125 281.7225 281.8200 275.2875 281.8175 L245.4660 281.8150 L227.7600 281.8225 C224.2800 281.8275 220.6120 281.6100 217.1660 282.0775 C217.5355 279.0600 217.3755 275.9775 217.3845 272.9425 C217.4012 267.1525 217.3667 261.2525 217.8802 255.4825 C223.1510 255.8350 228.4008 255.8700 233.6812 255.8925 C236.6630 255.9025 239.7578 255.7425 242.7222 256.0500 C242.0645 251.4900 241.5675 246.9090 240.8237 242.3613 C240.1837 238.4480 239.3002 234.5712 238.7210 230.6503 C238.6115 230.6703 238.5022 230.6915 238.3925 230.7100 C234.4733 231.3698 230.2290 231.1808 226.2518 231.3848 C220.1640 231.7417 214.0865 232.2530 208.0247 232.9178 C180.1565 236.0703 148.6335 243.0985 125.6042 259.9675 C121.3838 263.0600 117.7015 266.5625 114.0178 270.2575 C110.7670 273.5175 107.5732 276.6925 104.8727 280.4375 C93.9368 295.6050 90.1777 312.0725 89.8225 330.4400 C89.6898 337.2925 89.9230 344.1200 91.0388 350.8950 C94.4388 372.3750 106.2978 391.5975 123.9682 404.2750 C133.1378 410.8300 143.5007 416.7225 154.1945 420.3750 C175.9818 429.0150 200.4655 432.4525 223.7535 433.9875 C227.3495 434.2250 230.9640 434.2225 234.5647 434.3900 C245.7760 434.9150 256.9150 435.2725 268.1450 434.9375 C271.3550 434.8400 274.5400 434.4075 277.7450 434.2525 C281.0350 434.0950 284.3350 434.1700 287.6225 433.9750 C299.5575 433.1650 311.4400 431.7200 323.2225 429.6450 C337.8400 426.9600 352.0300 422.9875 365.6775 417.0775 C387.9525 407.4300 407.1150 390.7550 416.1825 367.8475 C424.6575 346.4400 424.4350 316.6250 415.1525 295.4300 C413.1225 290.7975 410.9000 286.0175 408.0775 281.8100 C405.1475 277.4450 401.4125 273.4375 397.6525 269.7725 C386.1425 258.5525 374.5675 251.6225 359.6850 245.8307 C337.1225 237.0493 312.6075 233.2700 288.5575 231.6110 C283.5900 231.2940 278.6200 231.0632 273.6475 230.9185 C270.7750 230.8195 267.8300 230.8450 264.9750 230.5143 C266.2350 238.9130 268.0225 247.5680 268.0700 256.0750 Z M257.2900 153.5605 C258.8750 153.4200 260.4725 153.2408 262.0625 153.1693 C290.4625 152.0087 322.6425 150.6195 347.3225 134.7538 C353.8375 130.5650 359.4500 125.4255 364.6750 119.7400 C375.5500 107.9050 382.6650 92.3483 387.6325 77.2128 C386.0075 77.1110 384.3725 76.9425 382.7475 77.1110 C353.9950 78.1833 319.6775 80.1335 295.3375 97.2345 C289.1400 101.5880 283.6825 107.3170 278.5400 112.8515 C268.1575 124.0277 262.3700 139.4790 257.2900 153.5605 Z"></path>
<path id="" fill="#231f20" fill-opacity="1.0" stroke="#000000" stroke-width="0.0" stroke-opacity="1.0" stroke-linecap="round" stroke-linejoin="round"  filling="0" d="M355.5425 357.0675 C360.8150 356.0650 366.2175 357.9800 369.6800 362.0800 C373.1425 366.1825 374.1225 371.8300 372.2475 376.8600 C370.3725 381.8875 365.9325 385.5150 360.6300 386.3475 C352.6150 387.6075 345.0700 382.2050 343.6825 374.2125 C342.2925 366.2175 347.5725 358.5875 355.5425 357.0675 Z"></path>
<path id="" fill="#231f20" fill-opacity="1.0" stroke="#000000" stroke-width="0.0" stroke-opacity="1.0" stroke-linecap="round" stroke-linejoin="round"  filling="0" d="M305.8225 382.4175 C313.9850 381.6825 321.2000 387.6925 321.9500 395.8525 C322.7025 404.0125 316.7050 411.2400 308.5475 412.0075 C300.3675 412.7775 293.1150 406.7600 292.3600 398.5775 C291.6075 390.3950 297.6400 383.1550 305.8225 382.4175 Z"></path>
<path id="" fill="#231f20" fill-opacity="1.0" stroke="#000000" stroke-width="0.0" stroke-opacity="1.0" stroke-linecap="round" stroke-linejoin="round"  filling="0" d="M332.3475 305.5750 C340.5275 305.3050 347.3850 311.7075 347.6700 319.8900 C347.9575 328.0700 341.5650 334.9400 333.3825 335.2400 C325.1825 335.5400 318.2925 329.1275 318.0050 320.9275 C317.7200 312.7250 324.1450 305.8475 332.3475 305.5750 Z"></path>
</svg>