<svg xmlns="http://www.w3.org/2000/svg" viewBox="0 0 512 512" height="512.0px" width="512.0px">
<path id="" fill="#e88f22" fill-opacity="1.0" stroke="#000000" stroke-width="0.0" stroke-opacity="1.0" stroke-linecap="round" stroke-linejoin="round"  filling="0" d="M283.1175 123.1038 C296.3250 122.1508 308.1700 126.9187 318.2750 135.2473 C324.0950 140.0435 328.5450 146.5420 333.6450 152.0650 C338.7000 157.5388 343.8550 162.9255 348.8100 168.4962 C353.1550 173.3815 357.3675 178.4138 361.7800 183.2375 C368.3275 190.3978 374.6200 195.6335 379.8800 204.0793 C383.7625 210.3385 386.1400 217.4130 386.8275 224.7465 C387.5325 232.7445 386.5000 240.3615 382.7400 247.5163 C378.9350 254.7525 372.3300 260.1500 366.7150 265.9700 C363.1200 269.6950 359.8100 273.6750 356.1725 277.3550 C348.9550 284.6575 341.4025 291.6300 334.8200 299.5250 C330.7825 296.5100 326.7375 293.5625 322.0625 291.5950 C312.2550 287.4675 300.2725 287.3450 290.4150 291.3525 C279.8050 295.6400 271.3175 303.9450 266.8025 314.4600 C261.9700 326.0100 262.8775 340.2175 268.9100 351.1275 C270.7625 354.4800 273.7100 357.4700 275.1575 360.9825 C273.4125 363.3525 270.9400 365.5525 268.8750 367.6475 C264.0925 372.4950 259.1775 377.2150 254.4375 382.1050 L224.8078 412.7550 C222.5652 415.1175 220.5545 417.6925 218.3277 420.0725 C213.8170 424.8925 209.0340 429.5050 204.3695 434.1800 C200.9718 437.5850 197.5462 441.6450 193.3282 444.0325 C183.1390 449.8025 171.2075 450.1225 160.2280 446.8450 C157.6902 445.9275 155.1890 445.0125 152.7823 443.7800 C148.6620 441.6700 144.6967 438.9400 141.3237 435.7650 C137.6207 432.2800 134.3295 428.4425 130.9445 424.6575 C124.6835 417.6575 118.4872 410.5475 112.1225 403.6475 C100.8192 391.3900 89.5450 379.1375 78.4390 366.6900 C73.5208 361.1800 68.0293 355.8100 63.6862 349.8500 C60.3118 345.1750 57.7260 339.9800 56.0320 334.4700 C52.1865 322.4075 53.3945 309.3050 59.3805 298.1500 C61.3655 294.3875 63.7417 290.8275 66.8432 287.8900 C72.1682 282.8475 78.1017 278.3575 83.8140 273.7650 L104.4975 257.0200 L129.9130 236.6705 C134.6930 232.8465 139.4010 228.8448 144.3553 225.2543 C145.5632 224.3785 146.9832 223.3450 148.4438 222.9557 C149.0305 222.7993 149.5352 222.8383 150.0858 223.0838 C151.7970 223.8463 157.5585 229.1440 160.1050 230.7513 C169.2643 236.5332 180.7872 238.6750 191.3712 236.2285 C202.4225 233.6740 212.1098 227.2190 218.1333 217.5390 C225.7092 205.3642 226.4753 191.2520 221.2635 178.0575 C219.9588 174.7543 217.5233 171.6873 216.7045 168.2450 C216.8692 167.9837 216.9062 167.9050 217.1445 167.6480 C219.2948 165.3280 222.3848 163.2993 224.8707 161.3110 C230.6342 156.6700 236.4362 152.0765 242.2755 147.5310 L257.5675 135.3468 C260.9825 132.6160 264.4575 129.4780 268.2975 127.3607 C272.8700 124.8855 277.9275 123.4327 283.1175 123.1038 Z"></path>
<path id="" fill="#5b4037" fill-opacity="1.0" stroke="#000000" stroke-width="0.0" stroke-opacity="1.0" stroke-linecap="round" stroke-linejoin="round"  filling="0" d="M413.5075 74.6935 C414.3125 74.9538 414.8250 75.3525 415.4275 75.9218 C422.1250 82.2600 427.9275 89.6635 434.1025 96.4998 C438.0675 100.8885 445.8625 107.9642 448.4725 112.9960 C446.7825 115.5952 443.6800 117.3238 441.3625 119.3225 C438.8900 121.4522 436.8225 123.9540 434.0400 125.7233 C423.0925 114.4147 412.8375 102.4635 401.8050 91.2325 C401.1875 90.6030 398.7800 88.1852 398.9100 87.3010 C399.2775 84.7897 405.5100 82.3945 407.3700 80.9465 C408.3625 78.1600 410.9925 76.1230 413.5075 74.6935 Z M434.2675 113.4212 C434.3900 113.3662 434.5125 113.3098 434.6375 113.2560 C435.4675 112.8958 435.7325 112.7035 436.2200 111.9215 C435.6300 108.7422 432.1150 107.4765 430.6650 104.8475 C429.8175 104.7762 429.2175 104.6898 428.4250 105.0837 C427.9300 105.6415 427.7850 106.0348 427.5625 106.7272 C429.4950 109.0210 431.8500 111.6382 434.2675 113.4212 Z M417.5625 95.7480 C418.7325 97.1198 420.6725 99.9470 422.5425 100.0912 C422.7850 100.1100 423.0275 100.1122 423.2700 100.1170 C423.6250 99.7790 423.9100 99.3440 424.2100 98.9540 C424.2000 98.8545 424.1975 98.7545 424.1825 98.6560 C423.9650 97.2280 422.6000 95.7360 421.4925 94.8928 C421.3900 94.8150 421.2850 94.7415 421.1825 94.6640 C420.2575 93.9635 419.6150 93.9043 418.4600 93.8423 C418.0625 94.4798 417.7900 95.0305 417.5625 95.7480 Z"></path>
<path id="" fill="#ffffff" fill-opacity="1.0" stroke="#000000" stroke-width="0.0" stroke-opacity="1.0" stroke-linecap="round" stroke-linejoin="round"  filling="0" d="M417.5625 95.7480 C416.6925 95.2875 406.8000 84.0983 405.7450 82.4065 C406.6000 81.5890 407.3825 82.2315 408.1750 81.0772 C408.2250 81.0030 408.2750 80.9275 408.3250 80.8525 C409.3125 81.0215 419.0875 91.8055 420.3825 93.4650 C419.8625 93.7613 419.0575 93.7605 418.4600 93.8423 C418.0625 94.4798 417.7900 95.0305 417.5625 95.7480 Z"></path>
<path id="" fill="rgb(254,254,254)" fill-opacity="1.0" stroke="#000000" stroke-width="0.0" stroke-opacity="1.0" stroke-linecap="round" stroke-linejoin="round"  filling="0" d="M424.2100 98.9540 L424.4300 98.3680 C425.4050 98.5745 429.9000 103.6367 430.5225 104.5485 C430.6625 104.7525 430.6450 104.6933 430.6650 104.8475 C429.8175 104.7762 429.2175 104.6898 428.4250 105.0837 C427.9300 105.6415 427.7850 106.0348 427.5625 106.7272 C425.7575 105.7485 422.8300 102.1032 421.6275 100.3210 L423.2700 100.1170 C423.6250 99.7790 423.9100 99.3440 424.2100 98.9540 Z"></path>
<path id="" fill="#fcfcfc" fill-opacity="1.0" stroke="#000000" stroke-width="0.0" stroke-opacity="1.0" stroke-linecap="round" stroke-linejoin="round"  filling="0" d="M436.2200 111.9215 L436.4250 111.3870 C437.7725 111.7572 441.2075 116.3750 442.4025 117.6812 C441.6325 118.3305 440.8750 118.9587 440.2075 119.7182 C437.9700 118.2298 435.9075 115.6947 434.1450 113.6663 L434.2675 113.4212 C434.3900 113.3662 434.5125 113.3098 434.6375 113.2560 C435.4675 112.8958 435.7325 112.7035 436.2200 111.9215 Z"></path>
<path id="" fill="#5b4037" fill-opacity="1.0" stroke="#000000" stroke-width="0.0" stroke-opacity="1.0" stroke-linecap="round" stroke-linejoin="round"  filling="0" d="M390.0825 112.4930 L390.5600 112.7570 C394.9800 109.5602 398.3275 104.7818 402.8225 101.6905 C408.6125 107.9742 414.3425 114.3140 420.0100 120.7087 C417.9025 122.7675 405.7550 133.6420 405.5600 135.4125 C402.9725 137.3848 400.7925 139.8560 398.3200 141.9670 C395.6100 144.2798 392.6875 146.3420 390.0250 148.7130 C386.5925 151.7697 383.3950 155.1500 380.0700 158.3313 C377.7900 160.5130 375.3650 162.5050 373.0550 164.6463 C370.7100 166.8215 368.4725 169.1130 366.1450 171.3062 L340.5000 195.1820 C337.1150 198.3690 333.9550 201.7957 330.5700 204.9818 L293.1100 239.6268 C289.9025 242.5490 286.9975 245.7985 283.8300 248.7612 C281.4500 250.9875 278.8325 252.9475 276.4800 255.2025 C274.2375 257.3525 271.9150 260.3175 269.2825 261.9550 C268.8850 262.2000 268.7950 262.3200 268.3250 262.1775 C265.2000 261.2200 258.4450 252.4200 255.9350 249.6725 C253.4825 246.9908 249.7140 244.1817 248.1555 240.8730 C247.8132 240.1465 247.3672 238.8970 247.7665 238.1165 C248.7043 236.2830 258.3200 228.5963 260.5325 226.6290 L314.2775 179.2525 L330.3750 165.1645 C332.3100 163.4902 335.8175 161.0660 337.2975 159.1565 C337.7925 158.5170 337.2000 157.5025 337.5150 156.6235 L337.7950 156.5582 C338.1825 157.0325 338.4425 157.3785 338.9700 157.7100 C341.3325 156.5517 346.6100 150.9545 348.9325 148.9260 C357.0825 141.8460 365.1875 134.7137 373.2450 127.5302 C378.8975 122.5778 384.7025 117.7445 390.0825 112.4930 Z"></path>
<path id="" fill="#5b4037" fill-opacity="1.0" stroke="#000000" stroke-width="0.0" stroke-opacity="1.0" stroke-linecap="round" stroke-linejoin="round"  filling="0" d="M85.6705 272.1550 C85.9048 272.2375 85.9295 272.2350 86.1752 272.3875 C87.4727 273.2000 88.7943 274.9550 89.7200 276.1650 C94.3538 282.2225 97.3173 288.9700 98.8727 296.4125 C101.7160 310.0125 98.6517 324.1150 90.9885 335.6575 C85.8492 343.3975 80.9000 347.4150 73.2330 352.4625 C72.0797 353.2225 69.8990 354.9200 68.4880 355.0175 C67.7372 355.0675 67.4555 354.7600 66.8940 354.3400 C63.0202 350.3200 59.4945 345.4525 56.8817 340.5125 C51.2733 329.9025 49.4057 316.9325 53.0558 305.3975 C57.0985 292.6200 64.9870 288.1900 74.8080 280.3550 C78.1735 277.6725 81.8473 274.1350 85.6705 272.1550 Z"></path>
<path id="" fill="#b4612c" fill-opacity="1.0" stroke="#000000" stroke-width="0.0" stroke-opacity="1.0" stroke-linecap="round" stroke-linejoin="round"  filling="0" d="M409.3625 81.7848 C409.5050 81.8293 409.6500 81.8690 409.7900 81.9185 C412.0150 82.6945 413.1975 85.9238 415.4500 86.3033 C417.3175 85.1120 418.8125 83.1620 420.3475 81.5797 C424.2600 77.5522 434.6850 65.6900 438.9200 63.4837 C439.9100 64.2040 440.9400 64.9308 441.8175 65.7845 C443.5650 67.4840 445.0875 69.4290 446.7800 71.1902 C449.6050 74.1357 458.9525 82.6208 460.2225 85.8715 C459.4900 89.3752 441.5250 101.8918 441.3250 104.2345 C441.6775 104.6740 442.0100 105.0887 442.3075 105.5688 C440.7950 106.1793 437.3950 106.8670 436.9175 108.7347 C436.7175 109.5175 437.1150 110.6038 437.1075 111.4395 L436.7200 111.7483 C435.7900 111.2303 435.5625 109.9590 434.6175 109.6348 C433.5300 110.4950 428.0325 116.0025 427.9100 116.9675 C427.8350 117.5407 427.8300 118.1353 427.8075 118.7128 L427.5225 118.9290 C426.6925 118.6395 426.2950 118.3658 425.6900 117.7337 C423.8625 118.2303 408.9450 133.1730 405.5600 135.4125 C405.7550 133.6420 417.9025 122.7675 420.0100 120.7087 C414.3425 114.3140 408.6125 107.9742 402.8225 101.6905 C398.3275 104.7818 394.9800 109.5602 390.5600 112.7570 L390.0825 112.4930 C392.6675 109.8463 405.2575 98.0620 406.0325 96.0955 C405.9675 95.6718 405.8550 95.3905 405.6400 95.0250 L405.4025 94.6225 L405.6275 94.3080 C405.9650 94.3108 406.3025 94.3022 406.6400 94.2827 C408.4275 94.1647 409.5800 92.9807 410.6925 91.6967 C412.8275 89.2337 407.1825 87.3347 406.9525 83.9265 C406.9450 83.8300 406.9425 83.7332 406.9375 83.6365 C407.6900 82.7307 408.2250 82.1602 409.3625 81.7848 Z"></path>
<path id="" fill="#fefdfd" fill-opacity="1.0" stroke="#000000" stroke-width="0.0" stroke-opacity="1.0" stroke-linecap="round" stroke-linejoin="round"  filling="0" d="M406.9375 83.6365 C407.6900 82.7307 408.2250 82.1602 409.3625 81.7848 C411.1800 83.7913 413.0150 85.7860 414.8075 87.8150 C414.0125 88.5742 413.2350 89.3708 412.3625 90.0397 C410.6225 87.9415 408.4125 85.9062 406.9375 83.6365 Z"></path>
<path id="" fill="#5b4036" fill-opacity="1.0" stroke="#000000" stroke-width="0.0" stroke-opacity="1.0" stroke-linecap="round" stroke-linejoin="round"  filling="0" d="M241.7912 296.6525 C246.4263 297.0750 252.3650 301.5625 256.5025 303.7900 C255.3300 307.2650 253.1600 310.6525 251.3675 313.8500 L242.0720 330.2600 L223.0443 364.0975 C220.4043 368.7275 217.9940 373.5875 215.1230 378.0725 C214.4933 379.0175 213.7570 379.8775 213.0378 380.7525 C210.0638 379.4475 204.1588 377.2225 202.7128 374.1825 C202.7133 372.6675 203.5862 370.8150 204.2162 369.4475 C210.2997 356.2325 217.5830 343.5475 224.1228 330.5675 L234.0668 310.7850 C236.4540 306.0325 238.6975 300.9925 241.7912 296.6525 Z"></path>
<path id="" fill="#5b4036" fill-opacity="1.0" stroke="#000000" stroke-width="0.0" stroke-opacity="1.0" stroke-linecap="round" stroke-linejoin="round"  filling="0" d="M201.7940 244.6983 C202.2872 244.7305 202.1595 244.6570 202.5165 244.8757 C203.6215 245.5530 208.0618 258.2425 208.5675 260.3475 C203.7092 262.6450 198.5193 264.4775 193.5265 266.4675 L165.9180 277.3300 C153.4008 282.1575 141.0672 287.6075 128.4345 292.1125 C127.7595 292.1875 127.1490 292.3975 126.5545 291.9450 C125.4413 291.1000 122.0172 282.3200 121.8945 280.6975 C122.2988 280.0225 123.0875 279.6525 123.7753 279.3175 C129.4967 276.5150 135.4843 274.2000 141.3015 271.6050 C161.4393 262.6200 181.8635 254.1250 201.7940 244.6983 Z"></path>
<path id="" fill="#5b4036" fill-opacity="1.0" stroke="#000000" stroke-width="0.0" stroke-opacity="1.0" stroke-linecap="round" stroke-linejoin="round"  filling="0" d="M134.4440 351.7125 C135.5305 351.7450 136.1353 351.9400 137.0215 352.5750 C139.4850 354.3375 144.7315 359.9150 145.2157 362.8200 C143.8590 366.2125 111.5493 392.6075 106.6635 396.7550 C105.8553 397.2250 105.3900 397.4775 104.4210 397.2250 C102.3935 396.6950 97.9835 391.7400 97.0065 389.8525 C96.7355 389.3275 96.5085 388.6250 96.8115 388.0700 C98.9780 384.0975 107.3780 377.8900 110.9088 374.4375 C118.0462 367.4575 124.8760 360.0700 132.1995 353.2950 C132.9025 352.6450 133.5668 352.1200 134.4440 351.7125 Z"></path>
</svg>