<svg xmlns="http://www.w3.org/2000/svg" viewBox="0 0 512 512" height="512.0px" width="512.0px">
<path id="" fill="#eab528" fill-opacity="1.0" stroke="#000000" stroke-width="0.0" stroke-opacity="1.0" stroke-linecap="round" stroke-linejoin="round"  filling="0" d="M149.7953 73.3385 C150.8970 73.1405 151.5115 73.1765 152.3735 73.9195 C153.9883 75.3115 158.3120 81.3535 159.8995 83.4128 C164.9775 90.0005 170.1500 96.5222 175.1700 103.1535 C216.0510 156.4815 256.6325 210.0390 296.9100 263.8225 L341.0800 323.2200 C347.4350 331.8950 353.8550 340.5175 360.3450 349.0900 C364.4875 354.6400 368.4900 360.5900 373.1725 365.6875 C377.6125 370.5225 382.2225 373.2400 388.5025 375.1050 C390.0700 374.6275 391.4125 373.9225 392.5850 372.7575 C397.7825 367.6000 393.6925 357.6500 390.5650 352.3950 C387.7750 347.7075 384.1250 343.4625 380.8975 339.0675 L361.7675 313.3400 C360.2100 311.2050 358.0975 309.2800 356.8200 306.9750 C356.2700 305.9825 356.1400 305.0050 356.0600 303.8875 C355.8575 301.0800 355.9850 298.2025 355.9850 295.3875 L355.9925 280.2225 C355.9350 264.8150 356.0350 249.4085 356.2975 234.0043 C352.8600 234.0145 349.4225 234.0515 345.9850 234.1152 L345.9750 215.0470 C358.9550 215.4355 372.0575 215.0462 385.0475 215.0430 C399.0050 215.0395 413.0575 215.4005 427.0025 214.9852 C426.7275 221.2733 426.7100 227.8602 426.9050 234.1503 C422.7750 233.9523 418.6250 234.0460 414.4925 234.0677 L414.5725 234.9995 C415.0650 240.4507 414.8750 246.0935 414.8850 251.5700 L414.9350 274.0125 C414.9075 278.0075 414.5975 282.0950 414.8525 286.0775 C414.9050 286.9125 415.0000 287.7275 415.4075 288.4725 C415.4650 288.5800 415.5300 288.6875 415.5900 288.7950 C418.6125 294.1575 424.2150 300.9175 428.1075 305.8825 C432.9675 312.6700 438.0975 319.2575 443.0550 325.9775 C452.2900 338.4950 458.7000 348.4275 460.4825 364.3475 C460.9650 368.6425 461.1425 372.9250 460.7350 377.2375 C458.9475 396.1500 450.3400 412.6725 435.5725 424.7325 C421.7950 435.9850 403.1525 440.6700 385.6075 438.7250 C373.3200 437.3625 359.8500 431.3375 350.6350 423.1575 C342.1575 415.6325 335.7250 405.9400 328.9825 396.9000 L303.0975 362.0300 L249.7555 290.3075 C243.4532 281.6675 236.7442 273.2975 230.7400 264.4425 L163.9585 165.3670 L137.9837 127.3325 C134.0980 121.7310 130.6065 115.8480 126.3678 110.5002 C122.7452 110.8887 119.0445 110.9088 115.4048 111.1410 C109.6440 111.5082 103.9505 111.9857 98.1740 112.1508 C97.7920 106.4358 93.3915 87.9595 94.1650 84.3195 C94.8033 83.6653 95.1895 83.5835 96.0878 83.3780 C98.4308 82.8420 100.8635 82.5765 103.2280 82.1270 C109.3177 80.9100 115.4163 79.7383 121.5233 78.6113 C130.8770 76.8188 140.3562 74.5618 149.7953 73.3385 Z"></path>
<path id="" fill="#435861" fill-opacity="1.0" stroke="#000000" stroke-width="0.0" stroke-opacity="1.0" stroke-linecap="round" stroke-linejoin="round"  filling="0" d="M93.8372 83.6330 L94.2070 83.6510 C95.2075 84.7603 99.0190 108.2897 100.0318 111.9440 L57.6875 112.7097 L55.0818 112.8555 C54.4790 110.5197 54.1655 108.0697 53.7285 105.6960 C52.8410 100.9740 51.9820 96.2467 51.1517 91.5145 C53.4187 90.7720 55.9012 90.5370 58.2493 90.1335 C61.6565 89.5298 65.0595 88.9037 68.4587 88.2560 L84.3320 85.2090 C87.4420 84.6105 90.6758 83.7765 93.8372 83.6330 Z"></path>
<path id="" fill="#b99240" fill-opacity="1.0" stroke="#000000" stroke-width="0.0" stroke-opacity="1.0" stroke-linecap="round" stroke-linejoin="round"  filling="0" d="M307.1275 263.9175 L307.8400 263.9925 C310.2125 265.6850 317.1900 275.7575 319.3350 278.7325 C320.2775 280.0400 322.7250 283.3725 322.2850 285.0400 C322.0950 285.7550 308.9525 295.7475 307.4400 296.5775 C306.2825 295.8475 305.3925 294.9300 304.5200 293.8875 C303.0700 292.1575 291.9200 277.3100 291.7100 276.4050 C292.9500 273.4700 303.8375 266.3325 307.1275 263.9175 Z"></path>
<path id="" fill="#b99240" fill-opacity="1.0" stroke="#000000" stroke-width="0.0" stroke-opacity="1.0" stroke-linecap="round" stroke-linejoin="round"  filling="0" d="M341.8275 310.7475 C342.1275 310.7475 342.1425 310.7150 342.4300 310.8575 C344.9075 312.0900 356.1400 328.2125 357.5650 331.2650 C353.2800 335.5300 347.4625 339.4500 342.2275 342.4400 C342.2050 342.4450 342.1825 342.4525 342.1600 342.4525 C341.3700 342.4450 341.0375 342.3975 340.4600 341.8425 C338.4400 339.9100 329.2750 327.6600 327.7750 325.0975 C327.2675 324.2325 326.7875 323.3625 326.7500 322.3450 C327.9575 320.2675 339.4750 311.9325 341.8275 310.7475 Z"></path>
<path id="" fill="#b9923f" fill-opacity="1.0" stroke="#000000" stroke-width="0.0" stroke-opacity="1.0" stroke-linecap="round" stroke-linejoin="round"  filling="0" d="M417.4800 325.7175 C418.0500 325.6850 418.8225 325.6700 419.3075 325.9975 C421.2650 327.3125 430.1475 339.8625 431.7625 342.4825 C432.4375 343.5775 433.1675 344.7525 433.3750 346.0400 C431.7175 348.1825 421.7225 355.1575 419.1200 356.4425 C418.3475 356.4300 417.5150 356.3750 416.8025 356.0425 C414.7800 355.0950 403.6950 339.7900 402.7300 337.1200 C403.5275 334.9550 415.0950 327.0650 417.4800 325.7175 Z"></path>
<path id="" fill="#b9923f" fill-opacity="1.0" stroke="#000000" stroke-width="0.0" stroke-opacity="1.0" stroke-linecap="round" stroke-linejoin="round"  filling="0" d="M394.6650 295.7400 C394.7825 295.7325 394.9000 295.7200 395.0150 295.7150 C396.0975 295.6800 396.7775 295.7875 397.5750 296.5825 C400.3650 299.3625 407.7200 309.3800 409.4525 312.8550 C409.9475 313.8475 410.3025 314.7825 410.3175 315.8950 C409.4750 317.8800 398.7750 324.9975 396.4075 326.2800 C396.3200 326.2950 396.2350 326.3100 396.1500 326.3225 C395.3775 326.4275 394.5275 326.5675 393.8925 326.0275 C392.6975 325.0150 383.1300 311.9100 381.9875 309.9225 C381.3600 308.8325 380.8250 307.6925 380.6950 306.4325 C381.4975 304.6575 392.5625 296.7000 394.6650 295.7400 Z"></path>
<path id="" fill="#b99240" fill-opacity="1.0" stroke="#000000" stroke-width="0.0" stroke-opacity="1.0" stroke-linecap="round" stroke-linejoin="round"  filling="0" d="M223.6120 159.8017 C223.9185 159.9195 224.2050 160.0835 224.4620 160.2880 C226.2233 161.7090 232.7555 170.6828 234.0035 172.8972 C234.5635 173.8907 234.9760 174.8085 235.1013 175.9460 C234.0148 179.4475 227.1260 182.7202 224.2040 184.4872 C223.5540 184.4967 223.1172 184.2993 222.6608 183.8400 C220.7700 181.9368 212.2815 170.4707 212.7372 168.2515 C213.1868 166.0640 221.4990 160.8638 223.6120 159.8017 Z"></path>
<path id="" fill="#b9923f" fill-opacity="1.0" stroke="#000000" stroke-width="0.0" stroke-opacity="1.0" stroke-linecap="round" stroke-linejoin="round"  filling="0" d="M196.6360 124.7363 C196.9317 124.7387 197.1642 124.7158 197.4465 124.7990 C199.6472 125.4492 208.1272 137.7117 209.5007 140.1615 C206.2850 143.2200 202.2845 146.2055 198.4223 148.3780 C197.9890 148.3952 197.5600 148.3735 197.1480 148.2235 C194.8698 147.3943 187.4633 136.9532 186.2575 134.4722 C185.9570 133.8535 185.7095 133.3553 185.9995 132.6857 C186.8815 130.6495 194.4760 125.5455 196.6360 124.7363 Z"></path>
<path id="" fill="#b9923f" fill-opacity="1.0" stroke="#000000" stroke-width="0.0" stroke-opacity="1.0" stroke-linecap="round" stroke-linejoin="round"  filling="0" d="M251.0175 194.8845 C251.4225 194.9095 251.6375 194.9767 251.9875 195.2005 C253.7625 196.3353 261.6025 207.0140 262.0725 208.9540 C259.8425 212.3875 253.3600 215.8735 249.8667 218.3025 C249.4765 218.3022 249.1340 218.2953 248.7762 218.1145 C245.9705 216.6945 239.6013 207.0675 238.4630 203.9928 C240.7875 202.3613 242.7825 200.3743 245.0355 198.6630 C246.8983 197.2480 249.0332 196.1257 251.0175 194.8845 Z"></path>
<path id="" fill="#b9923f" fill-opacity="1.0" stroke="#000000" stroke-width="0.0" stroke-opacity="1.0" stroke-linecap="round" stroke-linejoin="round"  filling="0" d="M277.4625 230.6888 C278.6700 230.8472 279.4750 231.8590 280.2425 232.7265 C282.1175 234.8490 288.3975 242.5112 288.2350 245.1095 C286.3575 247.9600 279.2900 251.9450 276.1700 254.0100 C275.9425 254.1950 275.6550 254.2450 275.3800 254.3325 C274.9850 254.2200 274.7700 254.1000 274.5000 253.7825 C272.7350 251.7350 271.3750 249.2657 269.7700 247.0850 C268.7750 245.7290 267.5650 244.5237 266.6325 243.1250 C266.1775 242.4402 265.5075 241.4140 265.7675 240.5505 C266.5625 237.8967 274.8650 232.2805 277.4625 230.6888 Z"></path>
</svg>