<svg xmlns="http://www.w3.org/2000/svg" viewBox="0 0 512 512" height="512.0px" width="512.0px">
<path id="" fill="#d84337" fill-opacity="1.0" stroke="#000000" stroke-width="0.0" stroke-opacity="1.0" stroke-linecap="round" stroke-linejoin="round"  filling="0" d="M70.5905 222.0940 C81.7298 221.7000 92.9993 222.0567 104.1525 222.0603 L166.2498 222.0672 C171.8275 222.0810 177.3618 222.8060 182.9340 222.8952 C187.4117 222.9670 191.8752 222.3465 196.3452 222.1658 C202.9868 221.8970 209.6900 222.0692 216.3378 222.0760 L248.9948 222.0710 L352.7050 222.0620 L412.4650 222.0473 L430.6525 222.0135 C434.8025 222.0025 439.0300 221.8315 443.1575 222.3095 C447.5825 222.8217 451.8300 225.2495 455.0450 228.2592 C459.3250 232.2677 460.8575 237.3845 460.9925 243.0810 C461.2625 254.6150 460.9550 266.2400 460.9450 277.7800 L460.9175 343.9300 L460.8825 377.6100 C460.8800 383.7275 461.3300 390.2050 460.5600 396.2700 C460.0175 400.5675 458.6250 404.7725 455.5025 407.9000 C452.1700 411.2350 447.3725 413.0125 442.7150 413.0700 C436.2525 413.4950 429.5825 413.1250 423.0975 413.1050 L386.5025 413.0775 L261.4825 413.0350 L130.6785 413.0350 L88.7885 413.0425 C81.7065 413.0525 74.4265 413.4550 67.3702 413.0375 C64.1622 412.8475 60.7412 411.4500 58.1992 409.5025 C54.3635 406.5650 51.9175 401.9800 51.3215 397.2150 C50.8945 393.8000 51.0445 390.2825 51.0567 386.8475 L51.0883 372.6875 L51.0838 323.4750 L51.0375 268.0850 L51.0153 250.9500 C51.0120 247.5560 50.8528 244.0560 51.1710 240.6777 C51.4982 237.2027 52.6463 233.4933 54.8170 230.7287 C58.5952 225.9170 64.5520 222.7728 70.5905 222.0940 Z"></path>
<path id="" fill="#cdd5d8" fill-opacity="1.0" stroke="#000000" stroke-width="0.0" stroke-opacity="1.0" stroke-linecap="round" stroke-linejoin="round"  filling="0" d="M66.8733 207.0395 C67.9140 206.9775 68.9560 206.9375 69.9987 206.9200 C79.2108 206.8647 88.4230 206.8712 97.6350 206.9395 L151.5835 206.9465 L319.1600 206.9388 L404.8075 206.9370 L431.0350 206.9377 C435.5675 206.9380 440.3625 206.6217 444.8575 207.0950 C448.9475 207.5258 452.1650 209.4427 455.0550 212.2858 C457.5650 214.7520 459.3100 217.4875 460.2500 220.8902 C461.7375 226.2623 461.0475 232.5145 461.0400 238.0607 C461.0050 244.6695 461.0200 251.2775 461.0850 257.8875 C455.9425 257.7150 450.7700 257.8350 445.6250 257.8425 L188.3955 257.8650 L92.7110 257.8600 C78.8183 257.8550 64.8683 258.1775 50.9855 257.9375 L51.0007 236.3383 C50.9980 231.6458 50.7245 226.7575 51.4543 222.1165 C51.7900 219.9815 52.3520 217.9828 53.5867 216.1738 C56.5762 211.7940 61.6575 208.0397 66.8733 207.0395 Z"></path>
<path id="" fill="#d1cdce" fill-opacity="1.0" stroke="#000000" stroke-width="0.0" stroke-opacity="1.0" stroke-linecap="round" stroke-linejoin="round"  filling="0" d="M378.0825 274.3550 C411.5100 272.1525 440.3650 297.5275 442.4550 330.9625 C444.5425 364.3975 419.0675 393.1675 385.6250 395.1375 C352.3450 397.1000 323.7475 371.7775 321.6700 338.5050 C319.5925 305.2325 344.8175 276.5475 378.0825 274.3550 Z"></path>
<path id="" fill="rgb(198,207,211)" fill-opacity="1.0" stroke="#000000" stroke-width="0.0" stroke-opacity="1.0" stroke-linecap="round" stroke-linejoin="round"  filling="0" d="M377.4125 284.9850 C404.9675 282.4200 429.3800 302.6925 431.9225 330.2525 C434.4650 357.8100 414.1725 382.2075 386.6100 384.7250 C359.0825 387.2425 334.7200 366.9775 332.1825 339.4500 C329.6425 311.9250 349.8875 287.5475 377.4125 284.9850 Z"></path>
<path id="" fill="#d1cdce" fill-opacity="1.0" stroke="#000000" stroke-width="0.0" stroke-opacity="1.0" stroke-linecap="round" stroke-linejoin="round"  filling="0" d="M122.6335 274.3400 C156.0750 272.0400 185.0123 297.3675 187.1608 330.8200 C189.3090 364.2725 163.8492 393.0925 130.3882 395.0900 C97.1415 397.0725 68.5443 371.8125 66.4098 338.5750 C64.2753 305.3375 89.4062 276.6250 122.6335 274.3400 Z"></path>
<path id="" fill="rgb(198,207,211)" fill-opacity="1.0" stroke="#000000" stroke-width="0.0" stroke-opacity="1.0" stroke-linecap="round" stroke-linejoin="round"  filling="0" d="M126.2475 284.7550 C153.8550 284.4550 176.5005 306.5500 176.8797 334.1550 C177.2590 361.7625 155.2290 384.4700 127.6237 384.9275 C99.9065 385.3875 77.0858 363.2500 76.7050 335.5325 C76.3242 307.8125 98.5283 285.0550 126.2475 284.7550 Z"></path>
<path id="" fill="#cdd5d9" fill-opacity="1.0" stroke="#000000" stroke-width="0.0" stroke-opacity="1.0" stroke-linecap="round" stroke-linejoin="round"  filling="0" d="M403.0250 98.9555 C409.0100 98.6492 415.1425 98.9115 421.1425 98.9280 C420.7875 119.2415 421.0975 139.6142 421.1000 159.9332 C421.1025 175.5640 420.6650 191.3322 421.2300 206.9455 C418.9150 207.4637 406.2225 207.0332 402.9950 207.0573 L403.0250 98.9555 Z"></path>
<path id="" fill="#cdd6d9" fill-opacity="1.0" stroke="#000000" stroke-width="0.0" stroke-opacity="1.0" stroke-linecap="round" stroke-linejoin="round"  filling="0" d="M91.0235 98.9568 C97.0500 98.7793 103.1147 98.9133 109.1450 98.9283 C108.9715 105.6858 109.1113 112.4760 109.1133 119.2377 C109.1190 140.3443 109.5242 161.5352 109.0875 182.6325 C109.0205 185.8610 108.6025 189.0595 108.4920 192.2818 C108.3343 196.8865 109.4080 201.1500 108.9747 205.9055 C108.5365 206.2740 108.1848 206.5745 107.6373 206.7722 C105.4587 207.5598 94.1510 207.0415 90.9955 207.0587 L91.0235 98.9568 Z"></path>
<path id="" fill="#d94337" fill-opacity="1.0" stroke="#000000" stroke-width="0.0" stroke-opacity="1.0" stroke-linecap="round" stroke-linejoin="round"  filling="0" d="M391.5025 98.3773 C395.3575 98.3817 399.2450 98.4710 403.0850 98.0915 C402.5300 102.5898 402.8400 107.3842 402.8325 111.9150 C402.8250 116.6397 402.5675 121.4360 402.8100 126.1505 C398.9275 125.8672 394.9575 126.0082 391.0625 126.0078 L371.8775 126.0065 L310.4000 126.0058 L119.7070 126.0115 C116.0462 126.0072 112.2770 125.8280 108.6462 126.3213 C108.8565 122.3045 108.5527 118.1800 108.5413 114.1497 C108.5260 108.8830 108.7595 103.6122 108.6512 98.3470 C112.6960 98.5470 116.7678 98.4020 120.8170 98.3903 L139.9312 98.3838 L201.5383 98.3810 L391.5025 98.3773 Z"></path>
<path id="" fill="#435861" fill-opacity="1.0" stroke="#000000" stroke-width="0.0" stroke-opacity="1.0" stroke-linecap="round" stroke-linejoin="round"  filling="0" d="M122.2430 284.3525 C150.0440 281.9050 174.5677 302.4525 177.0230 330.2525 C179.4783 358.0550 158.9355 382.5825 131.1355 385.0450 C103.3265 387.5075 78.7880 366.9550 76.3320 339.1475 C73.8760 311.3375 94.4327 286.8025 122.2430 284.3525 Z"></path>
<path id="" fill="#a9b4ba" fill-opacity="1.0" stroke="#000000" stroke-width="0.0" stroke-opacity="1.0" stroke-linecap="round" stroke-linejoin="round"  filling="0" d="M125.5813 323.1025 C131.9785 322.4650 137.6950 327.1000 138.3922 333.4900 C139.0892 339.8825 134.5070 345.6425 128.1228 346.3975 C121.6535 347.1650 115.8008 342.5075 115.0943 336.0325 C114.3878 329.5575 119.0988 323.7475 125.5813 323.1025 Z"></path>
<path id="" fill="#435861" fill-opacity="1.0" stroke="#000000" stroke-width="0.0" stroke-opacity="1.0" stroke-linecap="round" stroke-linejoin="round"  filling="0" d="M377.4225 284.3725 C405.2375 281.8725 429.8050 302.4050 432.2825 330.2200 C434.7600 358.0375 414.2050 382.5875 386.3850 385.0400 C358.6025 387.4875 334.0900 366.9650 331.6175 339.1850 C329.1425 311.4025 349.6450 286.8725 377.4225 284.3725 Z"></path>
<path id="" fill="#a9b4ba" fill-opacity="1.0" stroke="#000000" stroke-width="0.0" stroke-opacity="1.0" stroke-linecap="round" stroke-linejoin="round"  filling="0" d="M381.0475 323.1150 C387.4400 322.6075 393.0475 327.3450 393.6175 333.7325 C394.1850 340.1175 389.5050 345.7725 383.1225 346.4025 C376.6550 347.0425 370.9050 342.2825 370.3275 335.8075 C369.7500 329.3300 374.5675 323.6275 381.0475 323.1150 Z"></path>
<path id="" fill="#435860" fill-opacity="1.0" stroke="#000000" stroke-width="0.0" stroke-opacity="1.0" stroke-linecap="round" stroke-linejoin="round"  filling="0" d="M186.0575 220.9653 C195.1680 221.1608 204.3042 221.0287 213.4175 221.0298 L262.6675 221.0300 L301.4975 221.0298 C309.0450 221.0302 316.6325 221.1925 324.1750 220.9180 C323.8025 227.0150 323.8550 233.3992 324.1425 239.5018 C314.6600 239.3488 305.1325 239.5807 295.6450 239.5835 L230.9955 239.5867 L201.1795 239.5690 C196.2897 239.5632 190.8663 239.0535 186.0547 239.7852 C186.0135 233.5120 186.0145 227.2385 186.0575 220.9653 Z"></path>
<path id="" fill="#435761" fill-opacity="1.0" stroke="#000000" stroke-width="0.0" stroke-opacity="1.0" stroke-linecap="round" stroke-linejoin="round"  filling="0" d="M216.8463 308.9900 L295.1200 308.9075 C294.7375 317.9425 294.9975 327.2000 295.1575 336.2500 C292.1675 335.6725 288.6050 336.0375 285.5375 336.0425 L267.5750 336.0675 L235.0340 336.0525 C229.0598 336.0500 222.8990 335.7525 216.9527 336.2500 L216.9698 319.5600 C216.9710 316.0525 217.0990 312.4875 216.8463 308.9900 Z"></path>
<path id="" fill="#a52224" fill-opacity="1.0" stroke="#000000" stroke-width="0.0" stroke-opacity="1.0" stroke-linecap="round" stroke-linejoin="round"  filling="0" d="M265.8225 346.9150 L265.8500 346.9225 C265.9550 347.0300 266.0950 347.1100 266.1675 347.2425 C266.3000 347.4775 266.1200 366.0000 266.3550 368.4100 C259.9900 367.7300 253.0925 368.1575 246.6875 368.2750 L246.3082 368.2400 C246.1967 368.1250 246.0448 368.0400 245.9742 367.8950 C245.5820 367.0975 245.9742 349.3050 245.8600 346.9750 L265.8225 346.9150 Z"></path>
<path id="" fill="#a52224" fill-opacity="1.0" stroke="#000000" stroke-width="0.0" stroke-opacity="1.0" stroke-linecap="round" stroke-linejoin="round"  filling="0" d="M275.8825 346.9650 L295.2275 346.9275 C294.7725 352.6500 294.7525 362.6300 295.3275 368.2325 C293.2150 368.7425 290.1550 368.2475 287.9325 368.2150 C283.9450 368.1600 279.9300 368.0950 275.9475 368.3425 C275.8825 361.2200 276.0775 354.0825 275.8825 346.9650 Z"></path>
<path id="" fill="#a52224" fill-opacity="1.0" stroke="#000000" stroke-width="0.0" stroke-opacity="1.0" stroke-linecap="round" stroke-linejoin="round"  filling="0" d="M216.8755 346.9625 L236.2193 346.9250 C235.7883 352.6800 235.7280 362.6275 236.3212 368.2250 C234.3010 368.7375 230.7292 368.2350 228.5278 368.2075 C224.6720 368.1600 220.7932 368.1075 216.9438 368.3450 C216.8793 361.2250 217.1020 354.0750 216.8755 346.9625 Z"></path>
</svg>