<svg xmlns="http://www.w3.org/2000/svg" viewBox="0 0 512 512" height="512.0px" width="512.0px">
<path id="" fill="#d0431f" fill-opacity="1.0" stroke="#000000" stroke-width="0.0" stroke-opacity="1.0" stroke-linecap="round" stroke-linejoin="round"  filling="0" d="M65.2517 331.1025 C70.3943 331.4625 75.7900 331.1275 80.9628 331.1250 L113.3542 331.1225 L214.2435 331.1225 L366.4000 331.1175 L415.6125 331.1125 C426.0600 331.1150 436.5400 331.2700 446.9850 330.9550 C446.5650 334.9425 446.8075 339.1075 446.8100 343.1225 L446.8100 365.3750 C446.7650 389.6575 436.9875 412.9100 419.6625 429.9250 C408.6925 441.3250 393.1500 449.2725 378.2000 454.0725 C366.1800 457.9325 353.6850 459.9025 341.1200 460.8250 C337.1925 461.1150 333.1950 460.9825 329.2550 460.9825 L309.9900 460.9800 L250.0525 460.9725 L197.8970 460.9800 C186.9280 460.9875 175.7318 461.5475 164.8257 460.3150 C147.2648 458.3275 130.9003 454.7750 115.1080 446.6050 C93.1283 435.2350 76.8102 417.0125 69.3643 393.2400 C67.6135 387.5050 66.3790 381.6225 65.6755 375.6675 C65.3808 372.9550 65.1787 370.2325 65.0695 367.5050 C64.9427 363.6725 64.5920 332.3525 65.2517 331.1025 Z"></path>
<path id="" fill="#b4d1e8" fill-opacity="1.0" stroke="#000000" stroke-width="0.0" stroke-opacity="1.0" stroke-linecap="round" stroke-linejoin="round"  filling="0" d="M252.2925 84.5725 C252.4075 84.5870 252.5200 84.5967 252.6350 84.6158 C254.4200 84.9145 255.3250 85.8290 256.4550 87.1653 C260.2800 91.6873 263.6925 96.5785 267.2925 101.2790 L288.4475 128.8573 C308.4225 154.8055 328.2325 180.8805 347.8775 207.0810 L393.2650 266.9050 L409.3375 288.0050 C412.9950 292.7500 416.9125 297.3525 420.2825 302.3050 C421.1675 303.6075 422.5150 305.3525 422.2100 306.9900 L301.1175 307.0125 C284.7450 307.0125 268.3600 306.8850 251.9875 307.0700 L252.0000 145.3695 L252.0000 104.4293 C251.9925 99.1947 251.3950 89.3660 252.2925 84.5725 Z"></path>
<path id="" fill="#b4d1e8" fill-opacity="1.0" stroke="#000000" stroke-width="0.0" stroke-opacity="1.0" stroke-linecap="round" stroke-linejoin="round"  filling="0" d="M211.8783 84.6170 L212.4905 84.8770 C212.9662 85.3930 212.9787 85.9877 213.0185 86.6595 C213.3882 92.9243 213.0862 99.3503 213.0827 105.6305 L213.0890 141.5720 L213.0890 250.2775 L213.0900 285.7175 C213.0912 292.8950 212.9622 300.1025 213.2168 307.2750 C208.8647 306.4950 204.3605 306.1800 199.9738 305.5450 C189.4277 303.9350 178.8707 302.3975 168.3038 300.9300 L87.1930 289.0150 C81.5497 287.9150 73.4875 287.6375 68.3188 285.7600 C67.6015 285.5000 66.9088 285.2375 66.5660 284.5125 C67.7182 280.7775 80.6162 264.2150 83.7517 259.8950 L124.4365 203.9857 L185.0500 120.5007 C192.2343 110.6380 199.2173 100.6062 206.5150 90.8307 C208.0760 88.7397 209.6678 86.0320 211.8783 84.6170 Z"></path>
<path id="" fill="#e49d89" fill-opacity="1.0" stroke="#000000" stroke-width="0.0" stroke-opacity="1.0" stroke-linecap="round" stroke-linejoin="round"  filling="0" d="M67.0938 353.1325 C80.7390 352.8275 94.4560 353.1300 108.1087 353.1300 L189.9957 353.1275 L446.2300 353.0975 C445.5600 358.7225 446.0725 364.8850 446.1075 370.5625 C446.1125 371.4675 446.2125 372.3950 446.2675 373.3000 C442.4375 372.8400 438.4300 373.0425 434.5725 373.0450 L416.0100 373.0525 L352.4625 373.0550 L143.3250 373.0525 L89.1725 373.0500 L73.3307 373.0525 C70.6938 373.0550 67.8188 373.2825 65.2093 372.9225 C65.1697 372.8575 65.1198 372.7950 65.0908 372.7225 C64.5508 371.3825 66.0970 368.1100 66.5323 366.7450 C67.5615 363.5150 66.1110 355.2875 67.0938 353.1325 Z"></path>
<path id="" fill="#735447" fill-opacity="1.0" stroke="#000000" stroke-width="0.0" stroke-opacity="1.0" stroke-linecap="round" stroke-linejoin="round"  filling="0" d="M234.8943 51.0095 C241.4235 51.2133 248.0083 51.0058 254.5425 50.9655 C254.6925 60.5895 254.4350 70.3288 254.8425 79.9293 C254.9450 82.3570 255.6200 84.7495 255.7100 87.1535 C255.7525 88.3362 255.2750 89.5875 255.1075 90.7600 C254.9450 91.9100 254.9525 93.0963 254.9325 94.2560 C254.8350 103.5195 254.8050 112.7835 254.8450 122.0472 L254.8475 231.6080 L254.8500 292.2400 C254.8500 304.6500 255.4200 317.6950 254.1300 330.0125 C254.1525 330.5200 254.0775 330.7300 253.8275 331.1700 C251.8250 331.7900 246.9653 331.1225 244.6230 331.0950 C241.4023 331.0575 238.1645 331.0400 234.9505 331.2775 L234.9483 149.3947 L234.9492 85.1722 C234.9495 73.8065 235.2222 62.3670 234.8943 51.0095 Z"></path>
</svg>