<svg xmlns="http://www.w3.org/2000/svg" viewBox="0 0 512 512" height="512.0px" width="512.0px">
<path id="" fill="#e1b030" fill-opacity="1.0" stroke="#000000" stroke-width="0.0" stroke-opacity="1.0" stroke-linecap="round" stroke-linejoin="round"  filling="0" d="M105.9380 54.0753 C106.2145 54.0592 106.4912 54.0457 106.7680 54.0350 C112.4482 53.8488 118.1840 53.9995 123.8698 54.0033 L155.3732 54.0143 L252.5800 54.0130 L315.8375 54.0107 L336.1800 53.9982 C339.8700 53.9967 343.6925 53.7985 347.3650 54.0858 C349.9050 54.2845 351.7200 55.2272 353.5450 56.9455 C355.6850 58.9593 356.7025 60.7103 356.9600 63.6525 C357.3275 67.8360 357.0400 72.2292 357.0175 76.4327 L357.0175 98.3402 L357.0150 172.2795 L357.0175 360.6275 L357.0200 423.0900 C357.0225 434.7475 356.8125 446.4475 357.1200 458.1000 C353.9050 457.9675 350.6625 458.0325 347.4450 458.0200 L179.2397 458.0250 L125.8358 458.0200 C116.2947 458.0175 106.5380 457.5750 97.0262 458.1900 C96.0650 449.9150 96.2267 441.7050 96.2240 433.3900 L96.2137 403.8925 L96.2122 304.3625 L96.2108 144.3340 L96.2155 91.3802 C96.2173 82.9685 95.8475 74.4258 96.1940 66.0315 C96.3058 63.3275 96.9893 60.7953 98.6410 58.6032 C100.4258 56.2345 102.9985 54.5403 105.9380 54.0753 Z"></path>
<path id="" fill="#abd2da" fill-opacity="1.0" stroke="#000000" stroke-width="0.0" stroke-opacity="1.0" stroke-linecap="round" stroke-linejoin="round"  filling="0" d="M130.5193 83.3387 C132.1300 83.3335 133.8338 83.7275 135.4585 83.8355 C138.3578 84.0280 141.2735 83.9945 144.1777 83.9955 L260.4200 83.9928 C281.9425 83.9930 303.4800 84.1985 324.9975 83.9382 C324.8025 98.9415 325.0225 113.9822 325.0225 128.9892 L325.0525 210.0590 L322.8125 209.9890 L128.0423 210.0453 C128.4910 201.6082 128.0462 191.9848 128.0450 183.4090 L128.0437 119.1628 C128.0448 107.5745 127.5620 95.7380 128.2263 84.1777 L130.5193 83.3387 Z"></path>
<path id="" fill="#555f69" fill-opacity="1.0" stroke="#000000" stroke-width="0.0" stroke-opacity="1.0" stroke-linecap="round" stroke-linejoin="round"  filling="0" d="M227.3703 191.9335 C230.2445 191.1435 232.3245 190.8395 235.3145 191.0660 C238.5733 193.6105 245.3330 205.5932 246.5672 209.7175 C242.8268 209.8223 239.0943 209.9200 235.3520 209.8703 C231.7733 209.8700 206.2790 210.2720 205.0620 209.6530 C204.9798 209.4255 204.9205 209.3165 204.9345 209.0480 C205.0403 206.9890 214.4852 192.5045 216.2465 190.9785 C219.7442 190.9770 224.0740 190.7247 227.3703 191.9335 Z"></path>
<path id="" fill="#c95349" fill-opacity="1.0" stroke="#000000" stroke-width="0.0" stroke-opacity="1.0" stroke-linecap="round" stroke-linejoin="round"  filling="0" d="M274.7675 108.1700 C275.3650 108.1415 276.0075 108.1568 276.5825 108.3473 C277.2475 108.5683 277.5800 108.9463 277.9025 109.5550 C277.8450 110.4230 277.5125 111.1895 277.1250 111.9603 C272.9925 120.1817 268.0025 127.9480 263.4950 135.9565 C256.5550 148.2865 249.9020 160.8047 242.8358 173.0600 C240.2185 177.5992 237.2482 182.0210 234.7753 186.6255 C233.8248 188.3952 233.5855 190.4560 232.6670 192.2258 C231.9973 193.5172 230.3212 195.7702 228.8450 196.1970 C227.5663 196.5668 226.0955 195.8640 225.0108 195.2493 C223.7162 194.2162 222.2385 193.4025 221.0050 192.2905 C220.3882 191.7348 220.0952 191.3013 220.0338 190.4753 C221.4925 187.3407 223.6873 184.5078 225.6628 181.6862 C227.9857 178.3550 230.2860 175.0078 232.5632 171.6450 L265.3425 123.4413 C268.3375 119.0168 271.4825 111.8635 274.7675 108.1700 Z"></path>
<path id="" fill="#597684" fill-opacity="1.0" stroke="#000000" stroke-width="0.0" stroke-opacity="1.0" stroke-linecap="round" stroke-linejoin="round"  filling="0" d="M51.0218 419.0000 C57.6530 419.3300 64.4427 419.0550 71.0925 419.0550 L111.2412 419.0150 L234.4433 419.0100 L385.1900 419.0500 L433.8350 419.0475 C442.6250 419.0500 451.4750 419.2825 460.2550 418.9850 C459.8675 423.7875 460.0775 428.7400 460.0800 433.5625 L460.1375 458.1925 C455.6675 457.5375 448.9700 458.0325 444.3125 458.0425 L412.6900 458.0500 L299.2900 458.0500 L131.8290 458.0475 L79.2575 458.0400 C70.2870 458.0375 59.7330 457.5200 50.9955 458.2900 C51.2328 445.2000 50.8873 432.0925 51.0218 419.0000 Z"></path>
<path id="" fill="#5a7784" fill-opacity="1.0" stroke="#000000" stroke-width="0.0" stroke-opacity="1.0" stroke-linecap="round" stroke-linejoin="round"  filling="0" d="M400.1400 211.4025 C402.4300 211.0412 419.2375 210.8293 421.0575 211.3410 L421.0075 213.5228 C421.1350 216.3475 420.9800 219.1678 421.0575 221.9930 C421.3725 233.4507 422.6500 244.9662 426.8925 255.6975 C432.6650 270.3025 445.5125 280.1275 452.7475 293.9200 C455.4750 299.1225 457.3450 304.7900 458.5850 310.5250 C459.9675 316.9100 460.4650 323.5625 460.7925 330.0725 C461.6600 347.3450 460.9725 371.6975 448.6125 385.1100 C441.6525 392.6650 432.8700 396.1250 422.6475 396.4875 C411.4500 396.8850 397.6900 393.9475 389.3550 386.0925 C376.7300 374.1975 373.5475 354.0575 373.1000 337.4525 C372.7375 324.0400 373.8300 311.0875 375.5975 297.8025 C369.1100 297.9900 362.4625 297.4850 356.0125 298.1225 L356.0425 297.7175 C356.2000 295.4950 355.6625 278.6900 356.3725 278.0775 C358.3875 276.3475 394.3525 278.1150 400.2400 277.3950 C398.5900 285.3875 396.7575 293.3725 395.6075 301.4550 C393.1925 318.4275 391.0425 353.2550 400.4575 367.7525 C403.1200 371.8525 406.9275 374.4725 411.7025 375.4625 C417.5625 376.6775 425.2725 377.2250 430.4600 373.7200 C436.1825 369.8500 438.1975 364.0400 439.3775 357.5000 C441.5000 345.7175 441.0600 322.8650 437.8175 311.3425 C436.5325 306.7075 434.4650 302.3250 431.7075 298.3825 C427.5600 292.4150 422.4950 287.1250 418.1400 281.3100 C406.9925 266.4275 402.3300 249.0307 401.1800 230.7265 C400.9500 227.0325 399.8675 217.4252 400.2850 214.4657 L400.1400 211.4025 Z"></path>
<path id="" fill="#fffeff" fill-opacity="1.0" stroke="#000000" stroke-width="0.0" stroke-opacity="1.0" stroke-linecap="round" stroke-linejoin="round"  filling="0" d="M400.1400 211.4025 C402.4300 211.0412 419.2375 210.8293 421.0575 211.3410 L421.0075 213.5228 C417.5275 214.3802 403.0275 212.5923 401.2350 213.3910 C401.1625 213.4238 400.8425 213.7615 400.8225 213.7910 C400.7150 213.9360 400.5700 214.2457 400.4875 214.4145 L400.2850 214.4657 L400.1400 211.4025 Z"></path>
<path id="" fill="#478bbb" fill-opacity="1.0" stroke="#000000" stroke-width="0.0" stroke-opacity="1.0" stroke-linecap="round" stroke-linejoin="round"  filling="0" d="M387.9000 158.3423 C389.6425 158.4868 391.5175 158.9633 393.0250 157.8810 C393.2900 157.2665 393.3850 156.9758 393.1450 156.3253 C392.2475 153.9147 384.8250 147.3013 382.6275 144.9990 L362.1325 123.4707 C359.7975 121.0015 357.6525 118.3572 355.3250 115.8835 C352.7225 113.1192 348.7050 110.1085 347.0875 106.6865 C345.9475 104.2742 345.8850 101.3900 346.8300 98.9075 C347.8425 96.2498 350.0750 93.8370 352.7200 92.7515 C355.1525 91.7530 357.8100 91.9650 360.1775 93.0482 C362.0025 93.8828 363.5950 95.1622 365.0375 96.5372 C369.2475 100.5468 372.8075 105.0182 376.8050 109.1942 L397.2500 130.6875 C401.5800 135.1608 417.8175 150.3525 419.5150 155.3858 C419.8875 156.4975 420.0275 157.5965 420.0950 158.7617 C424.0550 158.1295 428.1050 158.7290 432.0325 158.0838 C431.8000 170.2742 431.9875 182.4950 431.9900 194.6888 C431.9925 200.2745 432.1800 205.9495 431.8450 211.5230 C428.3975 211.5087 424.4325 211.9102 421.0575 211.3410 C419.2375 210.8293 402.4300 211.0412 400.1400 211.4025 C396.1050 211.5708 392.0125 211.1003 388.0000 211.6050 L388.0025 177.0323 C388.0025 170.8415 388.2675 164.5152 387.9000 158.3423 Z"></path>
<path id="" fill="#555e68" fill-opacity="1.0" stroke="#000000" stroke-width="0.0" stroke-opacity="1.0" stroke-linecap="round" stroke-linejoin="round"  filling="0" d="M218.2125 100.0818 C222.9480 99.7970 227.9735 99.7988 232.6985 100.1653 C233.1723 103.7433 233.2580 113.9662 232.4585 117.3443 C232.3017 118.0067 232.0797 118.0178 231.5242 118.3603 C226.9408 117.8463 222.0692 118.0690 217.4745 118.4182 C217.5242 113.8210 216.4763 105.4077 217.2263 101.3615 C217.3642 100.6168 217.5952 100.4742 218.2125 100.0818 Z"></path>
<path id="" fill="#555f69" fill-opacity="1.0" stroke="#000000" stroke-width="0.0" stroke-opacity="1.0" stroke-linecap="round" stroke-linejoin="round"  filling="0" d="M265.7150 122.6080 C263.9850 121.8658 261.4125 121.1305 260.0175 119.8712 C259.5825 117.3322 263.3250 106.5883 264.7400 104.5088 C265.0225 104.0932 265.0025 104.0920 265.4825 103.8548 C269.9150 104.0890 274.1875 106.8605 278.4200 108.0208 C277.7925 111.6087 275.0925 120.7685 273.3950 123.9875 C272.8625 124.3535 272.6900 124.5488 272.0100 124.4488 C271.6975 124.4030 271.2500 124.1755 270.9725 124.0612 C270.8425 124.1397 270.7225 124.2353 270.5850 124.2968 C269.2900 124.8727 266.8525 123.2182 265.7150 122.6080 Z M269.0175 118.9967 C269.0675 119.2408 269.1325 119.7605 269.2675 119.9940 C269.5975 120.5602 269.9750 120.6162 270.5500 120.8225 C271.2475 120.7035 271.3475 120.6460 271.8875 120.1898 C272.0425 119.5778 272.1525 119.3423 271.7925 118.7592 C271.3025 117.9652 270.2950 117.7353 269.4700 117.4553 L269.0175 118.9967 Z"></path>
<path id="" fill="#c95349" fill-opacity="1.0" stroke="#000000" stroke-width="0.0" stroke-opacity="1.0" stroke-linecap="round" stroke-linejoin="round"  filling="0" d="M269.4700 117.4553 C269.8225 116.8838 269.9075 116.6565 270.4850 116.3385 C271.2850 116.4605 272.3425 116.9425 272.8575 117.5995 C273.2975 118.1613 273.4425 118.6315 273.3400 119.3420 C273.1350 120.7920 271.5300 122.6078 270.9725 124.0612 C270.8425 124.1397 270.7225 124.2353 270.5850 124.2968 C269.2900 124.8727 266.8525 123.2182 265.7150 122.6080 C266.4300 121.4975 267.6275 119.1072 268.8450 118.6195 L269.0175 118.9967 C269.0675 119.2408 269.1325 119.7605 269.2675 119.9940 C269.5975 120.5602 269.9750 120.6162 270.5500 120.8225 C271.2475 120.7035 271.3475 120.6460 271.8875 120.1898 C272.0425 119.5778 272.1525 119.3423 271.7925 118.7592 C271.3025 117.9652 270.2950 117.7353 269.4700 117.4553 Z"></path>
<path id="" fill="#555f69" fill-opacity="1.0" stroke="#000000" stroke-width="0.0" stroke-opacity="1.0" stroke-linecap="round" stroke-linejoin="round"  filling="0" d="M152.0865 117.7613 C152.3375 117.7580 152.5890 117.7505 152.8398 117.7637 C154.5650 117.8553 155.8293 119.4532 156.8768 120.6697 C158.8152 122.9205 163.3580 127.8802 163.1235 130.8680 C161.9073 133.1925 156.0388 137.1405 153.5703 138.1825 C153.0960 138.3300 152.6217 138.3950 152.1330 138.2457 C150.9440 137.8828 143.9507 128.9073 143.3120 127.3922 C142.9238 126.4720 142.8522 125.5038 143.2595 124.5772 C144.3107 122.1868 149.6387 118.6835 152.0865 117.7613 Z"></path>
<path id="" fill="#555f69" fill-opacity="1.0" stroke="#000000" stroke-width="0.0" stroke-opacity="1.0" stroke-linecap="round" stroke-linejoin="round"  filling="0" d="M187.7815 103.7758 C188.3640 103.7065 188.3430 103.7552 188.8415 103.9775 C191.4673 107.2105 193.4570 115.8910 194.5715 120.0977 C190.4455 120.9182 186.1512 122.8362 182.1288 124.1472 C181.6300 124.2213 181.3752 124.1950 180.8997 124.0275 C178.6340 121.7988 176.1387 110.9475 175.7345 107.7445 C179.5397 106.0775 183.7880 104.9453 187.7815 103.7758 Z"></path>
<path id="" fill="#555f69" fill-opacity="1.0" stroke="#000000" stroke-width="0.0" stroke-opacity="1.0" stroke-linecap="round" stroke-linejoin="round"  filling="0" d="M302.3900 117.6775 C302.5275 117.7020 302.6650 117.7240 302.8025 117.7510 C305.4800 118.2805 311.4850 122.4280 312.8775 124.7542 C313.2475 125.3735 313.2675 125.8773 313.0525 126.5515 C312.1000 129.5205 306.1875 137.0645 303.5475 138.4427 C303.1700 138.4628 302.8700 138.4187 302.4950 138.3335 C300.2075 137.8150 294.1700 133.2040 293.0750 131.1520 C292.8000 130.6373 292.7650 130.2377 292.9275 129.6908 C293.6375 127.2637 300.1850 118.8503 302.3900 117.6775 Z"></path>
</svg>