<svg xmlns="http://www.w3.org/2000/svg" viewBox="0 0 512 512" height="512.0px" width="512.0px">
<path id="" fill="#b5d5eb" fill-opacity="1.0" stroke="#000000" stroke-width="0.0" stroke-opacity="1.0" stroke-linecap="round" stroke-linejoin="round"  filling="0" d="M231.4012 76.0335 C233.9193 75.7552 236.5290 75.9170 239.0632 75.9252 L251.5150 75.9323 L267.8775 75.9277 C271.4750 75.9212 275.1150 75.7925 278.7025 76.0612 C281.3550 78.6322 283.1800 82.7015 285.2525 85.7993 C289.7775 92.5640 294.4925 99.2238 299.0550 105.9702 L314.8275 129.0990 C318.0875 133.8103 321.7250 138.3795 324.4775 143.4115 C324.8975 144.1785 325.0225 144.8062 325.0825 145.6842 C325.4750 151.5945 325.0875 157.8025 325.0850 163.7392 L325.0750 201.1555 L325.0825 324.0225 L325.0825 364.3275 C325.0800 371.8675 324.8350 379.5050 325.2125 387.0325 C310.7825 386.7600 296.3100 386.9925 281.8750 386.9950 C250.5925 386.9925 219.2823 386.6950 188.0040 387.0375 L187.9955 229.9525 L187.9982 170.8053 C187.9978 161.0365 187.7357 151.1973 187.9915 141.4355 C188.0193 140.3737 188.0080 139.1897 188.5688 138.2538 C192.0685 132.4128 196.3095 126.9082 200.2220 121.3333 L218.3130 95.1375 L226.2957 83.3297 C227.8495 80.9887 229.3197 77.8848 231.4012 76.0335 Z"></path>
<path id="" fill="#3a7eb9" fill-opacity="1.0" stroke="#000000" stroke-width="0.0" stroke-opacity="1.0" stroke-linecap="round" stroke-linejoin="round"  filling="0" d="M186.3717 233.7038 C187.0488 233.7153 187.3505 233.6010 187.9120 234.0253 C188.3945 237.7700 188.0782 241.8438 188.0663 245.6272 L188.0598 266.5300 L188.0632 323.3800 C188.0647 334.2225 187.7770 345.1475 188.2420 355.9750 C177.1280 360.5050 165.1135 364.4800 153.7230 368.4300 C146.3745 370.9775 139.0760 373.8900 131.5920 376.0075 C131.1180 376.1300 130.7912 376.1650 130.3045 376.1150 C130.2630 376.0575 130.2130 376.0050 130.1803 375.9425 C130.1130 375.8150 129.4877 306.9300 130.1322 303.6800 C130.4332 302.1625 131.5565 300.7100 132.4680 299.4875 C137.7510 292.3950 143.6525 285.7050 149.1848 278.8025 L168.3188 254.8925 C171.8302 250.5025 182.4375 236.1960 186.3717 233.7038 Z"></path>
<path id="" fill="#3a7eb9" fill-opacity="1.0" stroke="#000000" stroke-width="0.0" stroke-opacity="1.0" stroke-linecap="round" stroke-linejoin="round"  filling="0" d="M325.3850 236.5072 C325.4525 236.5205 325.5225 236.5287 325.5900 236.5473 C326.7700 236.8780 327.9750 237.8853 328.7900 238.7670 C332.3825 242.6535 335.5725 247.0818 338.8950 251.2075 L356.6975 273.1550 L372.2025 292.4100 C375.5250 296.5325 379.1600 300.6100 381.9775 305.0950 C382.2875 310.1500 382.0525 315.3425 382.0500 320.4125 L382.0450 349.0750 C382.0450 353.2525 382.5700 376.3250 381.8950 378.5050 C375.4825 376.8025 369.4100 374.4850 363.1550 372.2975 C350.4575 367.8575 337.8475 363.1450 325.1025 358.8425 C324.7475 353.7250 324.9850 348.4525 324.9850 343.3175 L324.9900 314.7125 C324.9925 289.4950 324.6650 264.2300 324.9850 239.0168 C324.9950 238.1415 324.9200 237.2855 325.3850 236.5072 Z"></path>
<path id="" fill="#d48171" fill-opacity="1.0" stroke="#000000" stroke-width="0.0" stroke-opacity="1.0" stroke-linecap="round" stroke-linejoin="round"  filling="0" d="M216.9960 386.0825 L297.1675 385.9925 C296.6825 392.4250 297.5800 398.9825 296.9775 405.3875 C296.0500 415.2750 282.0075 431.5150 275.7575 439.3450 C273.4775 442.2075 259.3625 459.5900 257.3025 460.1900 C256.1325 459.7700 255.2200 458.7950 254.3600 457.9275 C246.3085 449.8075 220.5875 418.9625 217.8992 408.9950 C216.1760 402.6050 216.9702 392.9050 216.9960 386.0825 Z"></path>
<path id="" fill="#3a7eb9" fill-opacity="1.0" stroke="#000000" stroke-width="0.0" stroke-opacity="1.0" stroke-linecap="round" stroke-linejoin="round"  filling="0" d="M196.9980 371.9125 L270.0725 371.9425 C285.3525 371.9425 300.7775 372.3700 316.0450 371.7275 C315.9425 374.9475 316.0425 378.1825 316.0000 381.4025 C315.9575 384.6175 315.7575 387.8475 315.9725 391.0575 C311.9400 390.6950 307.8650 390.8050 303.8200 390.8050 L284.9875 390.8625 C281.4050 390.8775 277.5700 391.1700 274.0200 390.7550 C274.0625 394.5625 274.4825 398.8900 273.6600 402.6075 C272.3900 408.3475 261.6250 426.6700 257.7200 430.5600 C257.3200 430.9600 256.9525 431.2375 256.4425 431.4800 C255.2775 431.3650 254.5825 430.5525 253.8650 429.6800 C249.6560 424.5625 240.5587 409.5525 238.8808 403.4650 C237.8497 399.7250 237.8215 395.5525 238.1178 391.7050 C238.0697 391.0325 238.1885 391.3300 237.7590 390.8075 C228.5685 390.9825 219.3630 390.8125 210.1712 390.8025 C205.9420 390.7950 201.3270 390.4175 197.1503 391.0475 C197.4290 384.7475 197.1008 378.2300 196.9980 371.9125 Z"></path>
<path id="" fill="#e8de91" fill-opacity="1.0" stroke="#000000" stroke-width="0.0" stroke-opacity="1.0" stroke-linecap="round" stroke-linejoin="round"  filling="0" d="M238.1178 391.7050 C238.1925 391.3250 238.2598 391.0975 238.4093 390.7525 C244.8970 390.2750 251.6750 390.6475 258.1975 390.6500 C263.3700 390.6500 268.9000 390.2325 274.0200 390.7550 C274.0625 394.5625 274.4825 398.8900 273.6600 402.6075 C272.3900 408.3475 261.6250 426.6700 257.7200 430.5600 C257.3200 430.9600 256.9525 431.2375 256.4425 431.4800 C255.2775 431.3650 254.5825 430.5525 253.8650 429.6800 C249.6560 424.5625 240.5587 409.5525 238.8808 403.4650 C237.8497 399.7250 237.8215 395.5525 238.1178 391.7050 Z"></path>
<path id="" fill="#3a7eb8" fill-opacity="1.0" stroke="#000000" stroke-width="0.0" stroke-opacity="1.0" stroke-linecap="round" stroke-linejoin="round"  filling="0" d="M273.1775 234.8663 L276.0300 234.6950 C275.7775 241.3082 275.9950 248.0202 275.9900 254.6425 C275.9825 260.8100 275.7150 267.1025 276.1025 273.2550 C272.1575 272.7150 267.8150 273.0400 263.8225 273.0375 C255.9775 273.0200 248.1348 273.0425 240.2915 273.1050 L237.1752 273.3350 C237.4040 268.3550 237.1350 263.2475 237.1295 258.2550 C237.1205 250.4775 237.2787 242.6832 237.1195 234.9080 C249.0955 235.0920 261.2075 235.2175 273.1775 234.8663 Z"></path>
<path id="" fill="#397eb9" fill-opacity="1.0" stroke="#000000" stroke-width="0.0" stroke-opacity="1.0" stroke-linecap="round" stroke-linejoin="round"  filling="0" d="M271.4500 305.8875 L276.0175 305.6950 C275.7650 312.4350 275.9925 319.2775 275.9900 326.0275 C275.9850 332.0425 275.7075 338.2000 276.1200 344.2000 C272.0225 343.7550 267.6750 344.0225 263.5525 344.0250 L241.0412 344.0425 C239.7292 344.0350 238.4600 344.1700 237.1595 344.3175 C237.4365 339.3900 237.1382 334.2800 237.1325 329.3375 C237.1232 321.5300 237.2720 313.7125 237.1275 305.9075 C248.5685 305.9825 260.0100 305.9775 271.4500 305.8875 Z"></path>
<path id="" fill="#397eb9" fill-opacity="1.0" stroke="#000000" stroke-width="0.0" stroke-opacity="1.0" stroke-linecap="round" stroke-linejoin="round"  filling="0" d="M271.4500 158.8867 L276.0175 158.6960 C275.7650 165.4357 275.9925 172.2778 275.9900 179.0262 C275.9850 185.0430 275.7100 191.1990 276.1175 197.1990 C272.0350 196.7558 267.6975 197.0233 263.5900 197.0247 L241.1875 197.0435 C239.8225 197.0363 238.5132 197.1622 237.1595 197.3172 C237.4300 192.4955 237.1393 187.4975 237.1328 182.6590 C237.1223 174.7448 237.2740 166.8192 237.1275 158.9070 C248.5685 158.9837 260.0100 158.9770 271.4500 158.8867 Z"></path>
<path id="" fill="#3a7eb9" fill-opacity="1.0" stroke="#000000" stroke-width="0.0" stroke-opacity="1.0" stroke-linecap="round" stroke-linejoin="round"  filling="0" d="M254.7100 52.5052 C255.5825 52.6830 256.1425 53.0137 256.7575 53.6478 C258.9250 55.8797 260.6300 58.7945 262.3800 61.3615 C266.0475 66.7470 269.6500 72.4272 273.7800 77.4715 C274.1425 81.3745 273.8525 85.2913 274.1300 89.1992 C267.8250 88.5410 260.7625 89.0215 254.3750 89.0285 C248.4068 89.0163 240.9742 88.4710 235.1480 89.3183 C235.4400 85.4225 234.2325 80.6960 235.3327 76.9782 C236.0620 74.5147 250.0625 56.8155 252.6900 53.9872 C253.2800 53.3537 253.9600 52.9255 254.7100 52.5052 Z"></path>
</svg>