<svg xmlns="http://www.w3.org/2000/svg" viewBox="0 0 512 512" height="512.0px" width="512.0px">
<path id="" fill="#62bb7a" fill-opacity="1.0" stroke="#000000" stroke-width="0.0" stroke-opacity="1.0" stroke-linecap="round" stroke-linejoin="round"  filling="0" d="M179.0258 117.3590 C185.7555 117.0140 192.2465 117.9232 198.9308 117.9408 C206.1215 117.9597 213.3365 117.4782 220.5282 117.4463 C228.0423 117.4128 235.5525 117.8410 243.0612 117.9530 C251.4775 118.0782 259.9375 117.5072 268.3625 117.4872 C271.2450 117.4805 274.1200 117.7053 277.0000 117.7355 L321.5250 117.9050 L388.0150 117.7063 C392.0100 117.6817 396.0025 117.2650 400.0000 117.2125 C405.9575 117.1345 411.7900 117.5627 417.7300 117.7140 C423.7100 117.8660 429.6400 117.6665 435.6300 118.0825 C439.5950 118.3578 443.0525 119.2108 446.5375 121.1630 C452.9325 124.7442 458.2650 131.2112 460.2050 138.3172 C461.5575 143.2825 461.0600 149.3350 461.0575 154.4673 L461.0475 170.7572 L461.0425 229.8320 L461.0500 261.3725 C461.0575 267.3575 461.4000 273.5675 460.8625 279.5150 C460.5150 283.3875 458.7900 287.9225 456.8475 291.2850 C453.8350 296.5025 449.8125 299.6050 444.2625 301.8875 C438.5050 304.2575 431.7850 305.2700 425.7300 306.6975 C415.5725 309.1950 405.4000 311.6275 395.2125 313.9950 L324.3925 331.1725 C312.0000 334.1950 299.5125 336.8075 287.1925 340.1275 L133.8573 377.1400 C124.7000 379.2900 115.4928 381.4675 106.3925 383.8375 C98.3335 385.9375 89.0720 389.0300 80.8508 389.7100 C73.8035 390.2950 66.2170 387.8725 60.8427 383.2850 C55.3345 378.5800 51.7962 372.1625 51.2560 364.9175 C50.8387 359.3250 51.0338 353.6525 51.0370 348.0450 L51.0432 320.9100 L51.0455 235.5040 L51.0390 172.7545 L51.0275 154.6557 C51.0165 150.2218 50.8183 145.7120 51.3857 141.3065 C52.0663 136.0228 54.4720 131.5108 57.9405 127.5095 C61.6115 123.2747 66.4320 119.9193 71.9410 118.6130 C76.3630 117.5642 81.2533 117.9630 85.7830 117.9415 L103.6162 117.9240 C110.6445 117.9555 117.7227 117.3455 124.7500 117.4642 C142.8378 117.7702 160.9545 118.5992 179.0258 117.3590 Z"></path>
<path id="" fill="#d0e17d" fill-opacity="1.0" stroke="#000000" stroke-width="0.0" stroke-opacity="1.0" stroke-linecap="round" stroke-linejoin="round"  filling="0" d="M90.1860 84.0885 C95.6835 84.0182 101.2485 84.0165 106.7420 84.2298 C109.5413 84.3385 112.3405 84.6738 115.1405 84.7110 C118.1900 84.7515 121.2540 84.3360 124.3060 84.2670 C127.1283 84.2030 129.9345 84.5132 132.7520 84.5383 C135.5027 84.5627 138.2538 84.2498 141.0070 84.2598 C144.7018 84.2730 148.3805 84.8710 152.0765 84.9905 L152.9122 282.3125 L152.9317 365.4025 C152.8947 369.7750 152.2635 374.0675 152.1105 378.4225 C151.8120 386.9125 151.9775 395.5475 152.1140 404.0450 C143.5405 403.8750 134.9422 404.0050 126.3662 404.0050 L88.0132 404.0725 L88.0318 158.0255 L88.0307 113.2035 C88.0188 108.7455 87.3813 87.7870 88.3495 84.8700 C89.0085 84.2695 89.3310 84.2708 90.1860 84.0885 Z"></path>
<path id="" fill="#d0e17d" fill-opacity="1.0" stroke="#000000" stroke-width="0.0" stroke-opacity="1.0" stroke-linecap="round" stroke-linejoin="round"  filling="0" d="M177.1373 84.0560 C182.7422 84.6635 191.1947 84.1562 197.0515 84.1540 C202.0160 84.1520 206.9342 84.7065 211.8785 84.7550 C215.7680 84.7930 219.6763 84.1992 223.5773 84.1430 C229.5027 84.0573 235.1953 84.6365 241.0813 85.0400 L241.0703 347.8900 C242.1010 347.9875 243.0002 348.0350 243.7878 348.7750 L243.6825 349.2375 C242.8735 349.8625 241.9507 349.9325 240.9718 350.0925 C240.8508 353.0450 241.0260 356.0425 241.0408 359.0000 L241.0697 377.3575 L241.1455 381.0350 C233.0975 380.8250 225.0013 381.0025 216.9487 381.0025 L176.9848 381.0675 L176.9825 157.1410 L176.9685 103.7325 C176.9657 100.1223 176.4870 86.8062 177.1373 84.0560 Z"></path>
<path id="" fill="#d0e17d" fill-opacity="1.0" stroke="#000000" stroke-width="0.0" stroke-opacity="1.0" stroke-linecap="round" stroke-linejoin="round"  filling="0" d="M267.1875 84.0948 C281.0775 83.9707 294.9675 84.0887 308.8500 84.4495 C312.0200 84.5178 315.2025 84.1917 318.3750 84.1905 C321.9675 84.1890 325.5300 84.6075 329.0900 85.0457 C328.9675 93.4870 328.9050 101.9960 329.1000 110.4352 C329.1650 113.3457 329.5525 116.2610 329.5800 119.1640 C329.6000 121.1747 329.1075 123.1772 329.1525 125.1858 C329.2525 129.5408 329.9000 133.8570 329.9200 138.2350 L329.9025 277.4250 L329.8875 313.6350 C329.8900 317.8350 330.0900 322.0550 330.0275 326.2500 C329.9850 329.2150 329.0650 332.0600 329.0250 335.0100 C328.9600 340.0875 329.0725 345.1800 329.0975 350.2575 C329.1100 352.8150 329.2750 355.5050 328.9875 358.0425 C307.6900 357.7325 286.3025 357.8650 265.0000 358.0800 L265.0425 151.2912 L264.9975 107.3175 C264.9875 102.8857 264.3575 87.9765 265.3475 84.8712 C265.9950 84.2840 266.3500 84.2798 267.1875 84.0948 Z"></path>
<path id="" fill="#d0e17d" fill-opacity="1.0" stroke="#000000" stroke-width="0.0" stroke-opacity="1.0" stroke-linecap="round" stroke-linejoin="round"  filling="0" d="M364.1300 84.1130 C367.0950 83.9798 370.1350 84.1313 373.1075 84.1405 L391.0200 84.1610 C399.8475 84.1647 408.8575 83.7137 417.6575 84.2758 C418.6850 90.2445 418.0750 100.3855 418.0575 106.6927 L418.0175 149.2870 L418.0175 272.3175 L418.0550 313.6925 C418.0650 321.4550 417.8800 329.2725 418.1725 337.0300 C414.0825 336.9200 409.9700 337.0050 405.8750 337.0025 C388.5750 336.9975 371.2600 336.8525 353.9600 337.0625 C353.9525 334.2675 354.5025 327.4850 353.8575 325.1775 C353.6225 324.3375 353.2475 323.9725 352.5300 323.5325 C352.0425 323.2350 351.6725 322.9775 351.2575 322.5825 C351.1525 321.9900 351.1625 321.9600 351.4250 321.4175 C352.0150 321.0025 352.4925 320.9475 353.1850 320.8550 L353.4600 320.8225 C354.1525 320.0975 353.9400 317.5675 353.9475 316.5725 L353.9175 85.0610 C357.3275 84.6348 360.6900 84.2198 364.1300 84.1130 Z"></path>
<path id="" fill="#5ab64a" fill-opacity="1.0" stroke="#000000" stroke-width="0.0" stroke-opacity="1.0" stroke-linecap="round" stroke-linejoin="round"  filling="0" d="M240.9345 249.4120 C242.9413 250.1750 244.5977 251.3700 246.3200 252.6325 C251.4125 256.3600 256.0675 260.7875 261.0475 264.6975 C263.9275 266.9550 267.0800 268.7975 269.9550 271.0475 C282.0300 280.5000 293.7425 290.4300 305.6125 300.1300 L318.6325 310.6100 C322.4525 313.6450 327.0325 316.6900 329.9700 320.6325 C330.2125 322.7900 330.2425 324.9575 330.1600 327.1275 C331.9900 326.7725 333.8575 326.4700 335.6425 325.9275 C335.7325 325.9550 335.8225 325.9825 335.9125 326.0100 C337.8225 326.6175 339.5950 327.8725 341.1875 329.0675 C343.6750 330.9375 346.0075 333.0425 348.4275 335.0075 C353.3675 338.9600 358.2775 342.9500 363.1575 346.9775 L391.1150 369.7425 L417.9350 391.5875 C423.0925 395.7675 428.4275 399.7975 433.3675 404.2325 C434.6950 405.4225 435.7325 406.6275 436.5475 408.2350 C438.1975 411.4775 438.3825 415.1725 437.1975 418.6000 C436.0375 421.9100 433.6200 424.6300 430.4700 426.1675 C427.2600 427.6950 423.3900 427.8025 420.0475 426.6100 C415.3050 424.9150 407.0200 417.1325 402.8750 413.7550 L386.1975 400.1875 L270.1600 305.9550 C267.0200 303.4000 264.3300 300.4500 261.3200 297.7725 C257.7425 294.5925 253.8800 291.6175 250.1625 288.5975 C245.5517 284.8525 240.4583 281.8325 235.8700 278.1175 C232.3765 275.2925 228.9852 272.3450 225.4735 269.5375 C224.3715 268.6575 223.1718 267.4850 221.9657 266.7775 C230.0683 263.4675 237.0645 257.2775 240.9345 249.4120 Z M241.2043 265.8875 C242.0390 265.8250 242.8635 265.7425 243.6927 265.6275 C243.8513 264.9800 244.0145 263.7900 243.6767 263.1875 C243.4370 262.7600 243.2355 262.5075 242.7600 262.3350 C242.2780 262.1575 241.6333 262.1275 241.1212 262.0625 L241.2043 265.8875 Z"></path>
<path id="" fill="#77c06d" fill-opacity="1.0" stroke="#000000" stroke-width="0.0" stroke-opacity="1.0" stroke-linecap="round" stroke-linejoin="round"  filling="0" d="M221.9657 266.7775 C216.0957 269.2950 209.6170 269.5275 203.3262 268.8400 C193.4755 267.7675 185.5320 262.4625 179.4507 254.8025 C178.2725 253.3175 177.4315 251.8100 177.1195 249.9140 C176.3665 245.3410 177.0033 238.8698 176.9890 234.1138 L176.9100 222.7315 C176.8927 220.5030 176.7122 218.1113 177.0425 215.9060 C177.6862 211.6102 182.2840 206.9210 185.6133 204.3613 C193.1472 198.5683 203.2103 195.0620 212.7575 196.3870 C223.0762 197.8188 231.9218 202.5610 238.1732 210.9857 C239.3047 212.5108 240.4735 214.3067 240.8432 216.1918 C241.6337 220.2218 241.1098 229.1985 241.1100 233.7083 C241.1102 238.2515 241.5838 245.1033 240.9345 249.4120 C237.0645 257.2775 230.0683 263.4675 221.9657 266.7775 Z"></path>
<path id="" fill="#e2edbf" fill-opacity="1.0" stroke="#000000" stroke-width="0.0" stroke-opacity="1.0" stroke-linecap="round" stroke-linejoin="round"  filling="0" d="M119.0870 115.2195 C126.0115 114.5098 132.2267 119.4815 133.0553 126.3930 C133.8835 133.3045 129.0193 139.6042 122.1230 140.5510 C117.5555 141.1780 113.0050 139.2923 110.2200 135.6183 C107.4352 131.9440 106.8490 127.0535 108.6868 122.8253 C110.5247 118.5973 114.5007 115.6895 119.0870 115.2195 Z"></path>
<path id="" fill="#e2edbf" fill-opacity="1.0" stroke="#000000" stroke-width="0.0" stroke-opacity="1.0" stroke-linecap="round" stroke-linejoin="round"  filling="0" d="M382.1100 115.2840 C389.1100 114.5045 395.4125 119.5555 396.1775 126.5570 C396.9400 133.5585 391.8775 139.8510 384.8725 140.6005 C377.8925 141.3477 371.6225 136.3020 370.8600 129.3217 C370.0975 122.3412 375.1300 116.0615 382.1100 115.2840 Z"></path>
<path id="" fill="#e2edbf" fill-opacity="1.0" stroke="#000000" stroke-width="0.0" stroke-opacity="1.0" stroke-linecap="round" stroke-linejoin="round"  filling="0" d="M208.1382 115.2668 C212.7220 115.0480 217.0665 117.3215 219.4995 121.2125 C221.9325 125.1035 222.0745 130.0050 219.8707 134.0302 C217.6670 138.0555 213.4612 140.5768 208.8725 140.6237 C201.9592 140.6942 196.2625 135.2162 196.0625 128.3055 C195.8622 121.3947 201.2325 115.5963 208.1382 115.2668 Z"></path>
<path id="" fill="#e2edbf" fill-opacity="1.0" stroke="#000000" stroke-width="0.0" stroke-opacity="1.0" stroke-linecap="round" stroke-linejoin="round"  filling="0" d="M207.9080 325.8200 C214.9375 325.3500 221.0018 330.7025 221.4102 337.7350 C221.8188 344.7700 216.4145 350.7875 209.3777 351.1325 C202.4275 351.4775 196.4998 346.1525 196.0965 339.2050 C195.6930 332.2575 200.9645 326.2850 207.9080 325.8200 Z"></path>
<path id="" fill="#e2edbf" fill-opacity="1.0" stroke="#000000" stroke-width="0.0" stroke-opacity="1.0" stroke-linecap="round" stroke-linejoin="round"  filling="0" d="M117.7685 345.8425 C124.6230 344.4100 131.3365 348.8175 132.7522 355.6750 C134.1680 362.5300 129.7480 369.2350 122.8875 370.6375 C116.0480 372.0325 109.3687 367.6300 107.9572 360.7925 C106.5457 353.9575 110.9350 347.2675 117.7685 345.8425 Z"></path>
<path id="" fill="#e2edbf" fill-opacity="1.0" stroke="#000000" stroke-width="0.0" stroke-opacity="1.0" stroke-linecap="round" stroke-linejoin="round"  filling="0" d="M384.3450 276.9450 C388.8200 276.0925 393.4075 277.7125 396.3525 281.1875 C399.3000 284.6600 400.1500 289.4525 398.5775 293.7275 C397.0075 298.0025 393.2550 301.1025 388.7600 301.8425 C381.9325 302.9650 375.4700 298.3875 374.2600 291.5725 C373.0500 284.7600 377.5450 278.2400 384.3450 276.9450 Z"></path>
<path id="" fill="#e2edbf" fill-opacity="1.0" stroke="#000000" stroke-width="0.0" stroke-opacity="1.0" stroke-linecap="round" stroke-linejoin="round"  filling="0" d="M294.0150 115.3708 C300.9675 114.7915 307.0700 119.9590 307.6475 126.9105 C308.2225 133.8622 303.0525 139.9637 296.1000 140.5365 C289.1525 141.1087 283.0575 135.9425 282.4825 128.9955 C281.9050 122.0485 287.0700 115.9495 294.0150 115.3708 Z"></path>
</svg>