<svg xmlns="http://www.w3.org/2000/svg" viewBox="0 0 512 512" height="512.0px" width="512.0px">
<path id="" fill="#4d9bd5" fill-opacity="1.0" stroke="#000000" stroke-width="0.0" stroke-opacity="1.0" stroke-linecap="round" stroke-linejoin="round"  filling="0" d="M90.1113 149.0775 C113.5453 146.9775 134.2688 164.2145 136.4722 187.6390 C138.6758 211.0635 121.5305 231.8630 98.1158 234.1698 C74.5547 236.4913 53.5965 219.2150 51.3792 195.6438 C49.1620 172.0725 66.5305 151.1908 90.1113 149.0775 Z"></path>
<path id="" fill="#455963" fill-opacity="1.0" stroke="#000000" stroke-width="0.0" stroke-opacity="1.0" stroke-linecap="round" stroke-linejoin="round"  filling="0" d="M332.5075 103.5748 C335.5875 103.4240 338.5550 103.9252 341.1150 105.7767 C343.8125 107.7278 345.1950 110.5375 345.7500 113.7242 C346.5725 118.4345 346.3600 123.6205 346.4175 128.4000 C346.5300 137.6207 346.4525 146.8472 346.4525 156.0688 L346.3725 184.6625 C346.3350 190.3508 346.5875 196.2507 345.8475 201.8895 C345.5675 204.0110 344.7050 206.0050 343.4425 207.7365 C341.6200 210.2395 339.0650 211.5085 336.0625 212.0230 C332.8900 212.0802 329.9250 212.0253 327.1600 210.2173 C324.3300 208.3675 322.5125 205.0970 321.9225 201.8107 C321.3400 198.5517 321.7000 194.6938 321.7000 191.3765 L321.6775 171.1540 L321.6100 133.6998 C321.6275 127.4382 321.1775 120.6942 321.9950 114.5067 C322.2975 112.2332 323.4225 109.8625 324.8075 108.0350 C326.8300 105.3633 329.2075 104.0078 332.5075 103.5748 Z"></path>
<path id="" fill="#455862" fill-opacity="1.0" stroke="#000000" stroke-width="0.0" stroke-opacity="1.0" stroke-linecap="round" stroke-linejoin="round"  filling="0" d="M300.3950 335.8675 C305.5775 335.7125 310.7625 335.6675 315.9475 335.7300 C315.6600 343.4125 316.5025 402.7200 315.3875 404.6475 C314.7575 405.1625 314.0800 405.0675 313.3125 405.0700 C307.9650 405.0300 302.4375 404.8650 297.1075 405.1700 C296.8775 399.2200 297.0150 393.2350 297.0200 387.2775 L297.0250 356.5625 C297.0200 349.9900 297.5800 342.4825 296.6150 336.0025 C297.8650 335.9125 299.1400 335.9100 300.3950 335.8675 Z"></path>
<path id="" fill="#455862" fill-opacity="1.0" stroke="#000000" stroke-width="0.0" stroke-opacity="1.0" stroke-linecap="round" stroke-linejoin="round"  filling="0" d="M378.6200 342.8950 L383.9950 342.6050 L384.3150 384.7350 C384.3125 391.4950 384.5100 398.3125 384.0150 405.0550 L370.1875 405.0350 C368.9525 405.0375 367.7325 405.1125 366.5350 404.7625 C366.0300 404.2925 366.0025 404.2250 365.9400 403.5050 C365.5425 398.9000 365.9725 392.4275 365.9750 387.6475 L365.8175 358.0825 C365.8125 353.0375 366.1150 347.9825 365.9150 342.9425 C370.1500 343.0150 374.3850 343.0000 378.6200 342.8950 Z"></path>
<path id="" fill="#f4bb1d" fill-opacity="1.0" stroke="#000000" stroke-width="0.0" stroke-opacity="1.0" stroke-linecap="round" stroke-linejoin="round"  filling="0" d="M96.2962 187.6985 C101.4035 187.2225 106.5608 187.3135 111.6852 187.3017 L133.6342 187.2578 C159.7950 187.0640 185.9563 187.0157 212.1175 187.1125 L230.2315 187.0968 C234.3440 187.1260 238.5813 187.3880 242.6772 187.0475 C248.6953 186.5473 254.2125 182.6380 259.8800 180.7148 C262.4225 179.8520 265.0525 179.2363 267.6300 178.4848 C277.1425 175.7117 286.5250 173.3490 296.4050 172.2283 C311.2675 170.5428 325.8400 170.9583 340.5350 173.9057 C344.8525 174.7713 349.0750 176.2020 353.2700 177.5250 C372.5425 183.6057 389.9775 192.0285 405.8500 204.6975 C411.2350 208.9945 416.1475 213.5545 421.0125 218.4173 C423.3900 220.7915 425.8525 223.1325 428.0675 225.6577 C438.7275 237.8022 446.9975 253.0450 448.7425 269.2950 C450.4150 284.8750 445.9525 301.9300 436.0500 314.2025 C423.3075 329.9900 403.8350 336.7925 384.2675 338.8425 C384.2275 338.9700 384.1850 339.0975 384.1475 339.2250 C383.7600 340.5425 384.1175 341.9150 383.4875 343.1775 C382.0450 343.5575 379.9875 343.2125 378.4575 343.1575 C374.4650 343.0150 369.9700 342.6225 366.0325 343.3025 C366.0325 342.0725 366.2600 340.4950 365.6450 339.4175 C365.0750 339.1025 364.6800 339.0675 364.0475 339.0050 L339.9600 339.0300 C335.1500 339.0300 330.2975 339.1625 325.4925 338.9675 C320.1925 338.7525 314.6525 337.4650 309.7275 335.5300 C303.4900 333.0775 297.2800 329.0275 291.5025 325.6275 C277.4875 317.3775 263.5225 309.7675 252.3150 297.6850 C233.9195 277.8475 233.2750 258.5175 234.2652 233.0972 C233.8765 233.0945 233.4877 233.0797 233.1000 233.0527 C229.2572 232.7878 225.2785 231.7235 221.5002 230.9662 L200.9520 226.8712 L157.5020 218.3768 C146.1735 216.1910 134.7182 214.3925 123.6562 211.0352 C116.6965 208.9230 104.0080 204.2815 98.0125 200.4715 C96.2035 199.3217 94.7170 198.0208 93.3228 196.3970 C93.0753 194.8273 92.8950 193.2747 93.2450 191.6980 C93.6600 189.8282 94.7130 188.6875 96.2962 187.6985 Z"></path>
<path id="" fill="#465962" fill-opacity="1.0" stroke="#000000" stroke-width="0.0" stroke-opacity="1.0" stroke-linecap="round" stroke-linejoin="round"  filling="0" d="M364.0475 339.0050 C369.5100 339.1550 379.0725 339.5450 384.2675 338.8425 C384.2275 338.9700 384.1850 339.0975 384.1475 339.2250 C383.7600 340.5425 384.1175 341.9150 383.4875 343.1775 C382.0450 343.5575 379.9875 343.2125 378.4575 343.1575 C374.4650 343.0150 369.9700 342.6225 366.0325 343.3025 C366.0325 342.0725 366.2600 340.4950 365.6450 339.4175 C365.0750 339.1025 364.6800 339.0675 364.0475 339.0050 Z"></path>
<path id="" fill="#455962" fill-opacity="1.0" stroke="#000000" stroke-width="0.0" stroke-opacity="1.0" stroke-linecap="round" stroke-linejoin="round"  filling="0" d="M347.4275 175.9922 C353.4325 176.7565 359.5900 179.0805 365.2550 181.1840 C383.9475 187.9555 401.0300 198.5380 415.4175 212.2600 C418.0150 214.7350 420.2200 217.6450 422.7675 220.1918 C428.8850 226.3050 435.1675 231.9538 438.8525 239.9775 C441.7525 245.3490 447.3050 256.7500 446.4750 262.9150 C447.0925 264.1825 447.4125 265.8125 447.7300 267.1850 C449.7675 275.9800 448.8450 285.2550 446.7225 293.9550 C446.2950 295.7100 445.9550 297.6675 444.3100 298.6750 C441.7400 298.6100 439.0825 297.9650 436.5400 297.5550 L423.5800 295.5300 C419.3600 294.8550 415.1350 294.2150 410.9025 293.6125 C407.3975 293.1175 403.8350 292.7525 400.4000 291.8750 C397.3425 288.1900 395.6725 282.8125 393.6675 278.4875 L379.2675 246.7640 L359.3550 202.9473 C355.3000 194.0318 350.8475 185.1727 347.4275 175.9922 Z"></path>
<path id="" fill="#e8b424" fill-opacity="1.0" stroke="#000000" stroke-width="0.0" stroke-opacity="1.0" stroke-linecap="round" stroke-linejoin="round"  filling="0" d="M438.8525 239.9775 C441.7525 245.3490 447.3050 256.7500 446.4750 262.9150 C445.3700 261.3625 438.8850 241.7802 438.8525 239.9775 Z"></path>
<path id="" fill="#455963" fill-opacity="1.0" stroke="#000000" stroke-width="0.0" stroke-opacity="1.0" stroke-linecap="round" stroke-linejoin="round"  filling="0" d="M444.8775 353.3675 C445.1600 353.3550 445.3300 353.5025 445.5775 353.6275 C445.6850 353.9400 445.7350 354.0325 445.7625 354.4075 C445.9000 356.2150 445.4300 358.3575 445.1500 360.1575 C443.5275 370.6150 439.5700 380.4025 433.0275 388.7625 C425.6375 398.2025 414.5300 404.4650 402.9575 407.1775 C395.5350 408.9175 388.1025 408.7250 380.5425 408.7500 L360.9875 408.8075 L265.2475 408.8225 L236.9583 408.8100 C232.2267 408.8100 227.0760 408.3950 222.3945 409.0175 C222.2870 409.0325 222.1797 409.0500 222.0723 409.0650 L222.0737 392.0225 C225.0990 392.1350 228.1585 392.0475 231.1875 392.0475 L273.8600 392.0575 C281.9625 392.0650 290.1675 392.3425 298.2600 391.9725 C297.8900 396.2925 298.2675 400.6425 298.0300 404.9700 C303.6450 404.6200 309.4125 404.8025 315.0450 404.8250 C314.8250 400.5775 315.0900 396.3250 314.8650 392.0800 C321.6350 392.4600 329.4900 392.0600 336.3725 392.0550 C346.3050 392.0500 356.3425 392.3625 366.2625 391.9925 C365.8950 396.3050 366.2650 400.6500 366.0300 404.9700 C372.0125 404.7075 378.0425 404.8150 384.0325 404.8125 C383.8325 400.5700 384.0875 396.3200 383.8625 392.0775 C384.3575 392.1100 384.8550 392.1300 385.3525 392.1400 C397.9150 392.3200 407.8325 390.3825 417.1500 381.2925 C425.0400 373.5925 428.5850 365.0550 428.7125 354.1450 C434.0725 353.4825 439.5025 353.8600 444.8775 353.3675 Z"></path>
<path id="" fill="#4d9bd4" fill-opacity="1.0" stroke="#000000" stroke-width="0.0" stroke-opacity="1.0" stroke-linecap="round" stroke-linejoin="round"  filling="0" d="M443.6100 108.3983 C444.4675 108.3108 445.3300 108.2235 446.1925 108.1973 C450.2100 108.0755 453.9050 109.3430 456.8175 112.1633 C459.5025 114.7878 461.0275 118.3745 461.0550 122.1280 C461.0700 125.9310 459.4675 129.5177 456.8150 132.2010 C454.9275 134.1093 452.7425 135.3130 450.0750 135.7460 C446.6700 136.2990 443.0175 136.0697 439.5750 136.0623 L422.9375 136.0298 L362.8750 136.0390 C357.2875 136.0298 351.5425 135.7608 345.9825 136.2303 C346.0325 130.5945 346.0075 124.9585 345.9150 119.3232 C355.3725 118.9453 364.9075 117.2947 374.3250 116.2937 L443.6100 108.3983 Z"></path>
<path id="" fill="#4d9ad4" fill-opacity="1.0" stroke="#000000" stroke-width="0.0" stroke-opacity="1.0" stroke-linecap="round" stroke-linejoin="round"  filling="0" d="M219.7408 108.0853 C227.4117 108.3372 235.2168 109.8020 242.8517 110.6517 L300.3525 117.4445 C307.5050 118.2705 314.8925 119.6192 322.0800 119.8150 C321.8650 125.2312 321.9225 130.7507 322.0975 136.1685 C318.0775 135.8147 313.9150 136.0270 309.8750 136.0403 L247.5635 136.0372 L229.4153 136.0448 C225.9670 136.0560 222.3085 136.3017 218.8875 135.9008 C216.4128 135.6107 214.1675 134.7785 212.1885 133.2350 C209.3275 131.0063 207.4787 127.7242 207.0553 124.1225 C206.6235 120.3840 207.4410 116.5850 209.8378 113.6170 C212.3557 110.4985 215.7527 108.5258 219.7408 108.0853 Z"></path>
<path id="" fill="#455962" fill-opacity="1.0" stroke="#000000" stroke-width="0.0" stroke-opacity="1.0" stroke-linecap="round" stroke-linejoin="round"  filling="0" d="M291.8875 187.0290 C302.3400 187.3008 312.8800 187.0510 323.3425 187.0338 C327.3950 187.0270 331.6800 186.6605 335.7000 187.0420 C337.3200 188.8425 354.9475 232.6653 356.9500 238.2155 C357.5625 239.9187 358.3925 241.9670 358.3750 243.7945 C355.5600 243.6432 308.7425 235.8932 307.8950 235.4162 C304.8525 230.2980 301.8125 217.9267 299.7050 211.5378 L294.6850 196.3705 C293.6825 193.3465 292.3925 190.1738 291.8875 187.0290 Z"></path>
<path id="" fill="#256fb8" fill-opacity="1.0" stroke="#000000" stroke-width="0.0" stroke-opacity="1.0" stroke-linecap="round" stroke-linejoin="round"  filling="0" d="M89.6305 149.1000 C97.7762 148.0443 107.0457 150.1200 113.9153 154.5490 C111.8678 156.8378 109.2590 158.7908 107.0110 160.9020 C100.7838 166.7513 98.3773 172.0647 95.0772 179.8418 C94.9440 180.4170 94.7978 181.3565 94.4698 181.8432 C94.0843 182.4153 93.8832 182.3678 93.2527 182.4295 C92.3968 182.0972 92.0182 181.6835 91.5890 180.9017 C90.5692 179.0448 90.0237 176.8228 89.2795 174.8383 C88.0710 171.6150 86.0262 168.3475 83.9327 165.6240 C80.7623 161.4998 75.9937 158.8557 73.3607 154.3780 C78.0938 151.1763 84.0023 149.6490 89.6305 149.1000 Z"></path>
<path id="" fill="#256fb8" fill-opacity="1.0" stroke="#000000" stroke-width="0.0" stroke-opacity="1.0" stroke-linecap="round" stroke-linejoin="round"  filling="0" d="M92.4753 196.5830 C92.7688 196.6718 92.9700 196.7060 93.2233 196.8685 C93.5405 197.0723 93.6292 197.1950 93.8528 197.5130 C95.0862 199.2677 94.9710 202.6317 95.6577 204.7085 C98.8087 214.2355 103.5918 218.4650 110.1797 225.3788 C110.9228 226.1582 112.2007 227.3050 112.3685 228.3947 C112.4268 228.7722 112.1810 229.1135 111.9680 229.4020 C109.8785 232.2335 97.1682 233.9895 93.7637 234.0490 C90.8375 234.0550 87.8112 233.6395 84.9413 233.0820 C81.9330 232.4978 75.5925 231.2785 73.7885 228.5860 C73.6315 227.5135 74.3392 227.1170 75.0870 226.4068 C76.7855 224.7940 78.6645 223.3618 80.3033 221.6868 C85.4785 216.3435 89.2213 209.7802 91.1848 202.6053 C91.7542 200.6000 91.9455 198.5748 92.4753 196.5830 Z"></path>
</svg>