<svg xmlns="http://www.w3.org/2000/svg" viewBox="0 0 512 512" height="512.0px" width="512.0px">
<path id="" fill="#c4e4ef" fill-opacity="1.0" stroke="#000000" stroke-width="0.0" stroke-opacity="1.0" stroke-linecap="round" stroke-linejoin="round"  filling="0" d="M253.4225 51.3435 C254.0500 51.2060 254.7900 51.2038 255.4325 51.1760 C264.0900 50.8022 274.0825 54.9277 280.3725 60.7440 C287.9725 67.7710 292.7875 76.0237 294.4700 86.2467 C295.2650 91.0875 295.0825 95.9577 295.0800 100.8435 L295.0750 117.8385 L295.0625 179.6875 L295.0675 359.0450 L295.0700 417.8525 C295.0700 428.5575 294.7650 439.3600 295.1750 450.0525 C283.2600 449.8025 271.2950 450.0125 259.3750 450.0125 L217.0040 450.0575 L216.9837 368.1075 L216.9863 207.8100 L216.9850 128.4693 L216.9753 104.0172 C216.9738 98.9342 216.7320 93.7357 217.2715 88.6797 C218.1250 80.6795 220.8177 73.2415 225.8260 66.8783 C232.7807 58.0417 242.3180 52.7217 253.4225 51.3435 Z"></path>
<path id="" fill="#6aa4ca" fill-opacity="1.0" stroke="#000000" stroke-width="0.0" stroke-opacity="1.0" stroke-linecap="round" stroke-linejoin="round"  filling="0" d="M215.4100 164.7077 C215.8885 164.6920 216.2888 164.7490 216.7572 164.8435 C217.7645 166.9715 216.6283 265.2650 217.2770 278.6000 C208.0610 284.7375 197.5858 289.1225 187.7652 294.2200 L129.0125 324.5900 C124.6913 326.8050 120.4803 329.2250 116.1573 331.4400 C109.7747 334.7100 103.2720 337.7875 96.9515 341.1725 C91.2773 344.2100 85.6275 347.2375 79.8765 350.1325 C77.1508 351.5025 74.4308 353.0350 71.5635 354.0900 C70.9327 354.2400 70.8495 354.3375 70.2767 354.0600 C69.8727 352.4375 69.6400 321.5550 70.1065 319.3600 C70.3268 318.3225 71.1823 317.4150 71.8605 316.6400 C75.1313 312.9100 78.9577 309.6300 82.3435 305.9950 L127.3410 258.0000 L188.3280 193.0135 L204.4382 175.9612 C207.9535 172.1650 210.9010 167.4427 215.4100 164.7077 Z"></path>
<path id="" fill="#6aa4ca" fill-opacity="1.0" stroke="#000000" stroke-width="0.0" stroke-opacity="1.0" stroke-linecap="round" stroke-linejoin="round"  filling="0" d="M295.1425 165.6022 C295.2225 165.6073 295.3000 165.6087 295.3800 165.6175 C297.0575 165.8035 298.1975 166.6537 299.3900 167.7957 C302.6600 170.9243 305.9450 174.1815 309.0025 177.5145 C310.8675 179.5470 312.5625 181.7310 314.4250 183.7660 C317.2775 186.8810 320.4250 189.7370 323.3300 192.8042 C325.4525 195.0440 327.3350 197.4970 329.4225 199.7680 C332.1700 202.7555 335.1800 205.5128 337.9900 208.4425 L354.3375 225.8132 C356.4575 228.0480 358.3400 230.4978 360.4200 232.7695 C363.2725 235.8848 366.4200 238.7410 369.3300 241.8062 C371.5575 244.1550 373.5175 246.7453 375.7325 249.1055 L420.8850 297.2650 C424.0250 300.6275 427.4325 303.7400 430.5950 307.0850 C432.4950 309.0975 434.1825 311.2925 436.0550 313.3300 C438.0250 315.4725 440.1275 317.4475 441.9875 319.6950 C442.2750 323.3650 442.0950 327.1300 442.0925 330.8125 C442.0850 338.6725 441.9550 346.5550 442.1550 354.4100 C440.4925 354.2600 439.0975 353.9350 437.5775 353.2500 C428.8675 349.3275 420.4050 344.5325 411.9850 340.0300 C405.4975 336.5575 398.8300 333.3700 392.2775 330.0175 C388.8600 328.2700 385.5425 326.3375 382.1275 324.5900 L320.1900 292.6075 C311.8550 288.3025 303.2850 284.3650 295.0800 279.8275 C294.5450 272.7100 294.9625 265.2775 294.9650 258.1325 L294.9825 215.7120 L294.9600 182.9993 C294.9525 177.3135 294.5300 171.2428 295.1425 165.6022 Z"></path>
<path id="" fill="#6aa4ca" fill-opacity="1.0" stroke="#000000" stroke-width="0.0" stroke-opacity="1.0" stroke-linecap="round" stroke-linejoin="round"  filling="0" d="M295.1200 379.5725 C296.1875 379.7250 297.1100 379.9975 297.9900 380.6500 C303.1900 384.5075 308.4875 391.6875 313.0450 396.4225 C317.0675 400.6050 321.2225 404.6825 325.3400 408.7725 C327.5725 410.9900 329.9350 413.1525 331.9950 415.5275 C332.9425 416.6225 334.7300 418.6050 334.8675 420.0725 C334.8775 420.1850 334.8800 420.2975 334.8875 420.4125 C335.1875 424.4750 335.0250 428.6175 335.0200 432.6925 C335.0050 442.1125 334.7400 451.5625 334.8000 460.9750 C330.7800 460.4525 326.6375 458.5875 322.7475 457.4250 C313.4925 454.7275 304.2575 451.9700 295.0375 449.1525 C294.7125 445.1900 294.9550 441.0175 294.9575 437.0350 L294.9825 413.2350 L294.9500 392.0775 C294.9425 387.9475 294.7200 383.6775 295.1200 379.5725 Z"></path>
<path id="" fill="#6aa4ca" fill-opacity="1.0" stroke="#000000" stroke-width="0.0" stroke-opacity="1.0" stroke-linecap="round" stroke-linejoin="round"  filling="0" d="M215.6452 376.6725 C216.0180 376.7050 216.3313 376.7825 216.6918 376.8750 C217.1243 377.5400 217.1418 378.3150 217.1600 379.0875 C217.3145 385.6025 217.0827 392.2150 217.0802 398.7425 L217.1290 446.5875 C204.2198 450.4575 191.3465 454.6950 178.3380 458.1975 L177.7520 458.1875 L177.4060 457.8125 C177.0347 454.4600 176.9510 418.2575 177.2867 417.0375 C177.5388 416.1225 178.1295 415.3800 178.7397 414.6700 C181.0110 412.0350 183.7465 409.7300 186.1512 407.2025 C188.4395 404.7975 190.4325 402.1125 192.7240 399.7175 C198.0708 394.1275 203.7000 388.7950 209.1160 383.2700 C211.0972 381.2475 213.2068 378.0800 215.6452 376.6725 Z"></path>
<path id="" fill="#6aa4ca" fill-opacity="1.0" stroke="#000000" stroke-width="0.0" stroke-opacity="1.0" stroke-linecap="round" stroke-linejoin="round"  filling="0" d="M254.1475 355.0100 C254.4300 354.9725 254.7150 354.9450 255.0025 354.9225 C257.5450 354.7300 260.0550 355.5900 261.9425 357.3050 C263.2800 358.5025 264.4375 360.1425 264.7825 361.9325 C265.3450 364.8625 265.1000 368.0950 265.0875 371.0675 L265.0775 383.2550 L265.0650 427.8750 C265.0650 435.3875 264.6175 443.2300 265.1825 450.7000 L265.2100 451.0600 C263.0025 450.9225 260.7750 450.9375 258.5625 450.9025 C254.6900 450.8325 250.8100 450.7975 246.9440 451.0200 C247.3160 430.1300 246.9750 409.1750 246.9888 388.2775 C246.9940 380.3175 246.5400 372.1400 246.9888 364.2100 C247.0638 362.8825 247.2157 361.5050 247.8005 360.2950 C249.0378 357.7350 251.5100 355.9075 254.1475 355.0100 Z"></path>
</svg>