<svg xmlns="http://www.w3.org/2000/svg" viewBox="0 0 512 512" height="512.0px" width="512.0px">
<path id="" fill="#9fdbad" fill-opacity="1.0" stroke="#000000" stroke-width="0.0" stroke-opacity="1.0" stroke-linecap="round" stroke-linejoin="round"  filling="0" d="M84.9005 99.0985 C84.9670 99.0885 85.0330 99.0742 85.1003 99.0685 C91.2613 98.5530 97.7545 98.9960 103.9507 98.9958 L142.0768 98.9928 L262.9250 98.9933 L374.9925 98.9955 L408.8075 98.9925 C415.0050 98.9855 421.4925 98.5805 427.6550 99.1660 C434.2000 99.7390 440.3900 102.3983 445.3125 106.7523 C450.3400 111.2310 453.7600 118.1118 454.0650 124.8572 C454.3300 130.7292 454.0800 136.7052 454.0800 142.5878 L454.0775 178.2720 L454.0775 286.4625 L454.0800 355.0050 L454.0825 375.1200 C454.0950 379.3575 454.3600 383.7350 453.8775 387.9425 C453.2200 393.6850 451.2150 399.1175 447.2750 403.3975 C441.9450 409.1875 435.9675 412.6900 428.0075 413.0050 L190.7482 412.9875 L117.8985 412.9875 L95.8290 413.0125 C91.3777 413.0200 86.8043 413.2300 82.3730 412.7850 C77.0795 412.2525 72.2962 410.2850 68.1755 406.9000 C62.2793 402.0525 58.7957 395.5375 58.1183 387.9375 C57.6543 382.7300 57.9803 377.2800 57.9883 372.0375 L57.9958 343.5950 L57.9960 251.0675 L57.9920 165.2795 L57.9812 138.5115 C57.9800 133.5208 57.6885 128.3073 58.1893 123.3423 C58.7715 117.5723 60.7900 113.3955 64.5070 108.9843 C69.5630 102.9840 77.1715 99.7655 84.9005 99.0985 Z"></path>
<path id="" fill="#fdca89" fill-opacity="1.0" stroke="#000000" stroke-width="0.0" stroke-opacity="1.0" stroke-linecap="round" stroke-linejoin="round"  filling="0" d="M317.6500 195.7305 C318.0200 195.7278 318.3900 195.7200 318.7600 195.7545 C320.2375 195.8927 321.2650 196.7775 322.3075 197.7552 C325.0150 200.2920 327.7250 202.9673 330.2000 205.7315 C331.9450 207.6770 333.5600 209.7513 335.3750 211.6280 C339.2075 215.5880 343.2375 219.3833 347.1375 223.2775 L367.8700 244.3053 L388.9700 265.4250 C392.6475 269.1025 396.6000 272.6775 399.9450 276.6575 C400.1300 279.3200 400.0550 282.0150 400.1750 284.6825 C400.2850 287.1675 400.5825 289.6975 400.5250 292.1800 C400.4550 295.1925 400.0850 298.1800 400.1100 301.1975 L400.7075 343.4925 C400.7675 346.5600 400.7100 352.9975 398.4550 355.2075 C395.9100 357.7025 391.2275 357.7200 387.8400 357.9275 C379.7875 358.4200 371.4625 357.9950 363.3900 357.9925 L315.5875 357.9925 L168.1250 357.9975 L139.9948 358.0125 C134.8737 358.0125 129.5455 358.3250 124.4543 357.8150 C122.4098 357.6100 118.7708 357.2325 117.2765 355.7100 C116.0577 354.4700 115.5300 351.1225 115.3938 349.4075 C115.1690 346.5800 115.7733 343.5150 115.8890 340.6700 C116.0642 336.3675 115.9735 332.0250 116.0115 327.7175 C117.7375 325.3575 120.5253 323.5600 122.7215 321.6425 C124.8012 319.8250 126.7580 317.8375 128.7020 315.8775 L166.1037 277.4775 C168.3828 275.1725 171.0360 271.9575 173.7415 270.1800 C174.6535 269.5800 175.5022 269.7950 176.3875 270.2925 C178.8918 271.7075 181.1480 274.5600 183.1723 276.5950 L196.8480 290.3350 C199.7473 293.2475 202.5618 296.3950 205.8170 298.9150 C207.0385 299.8625 208.4568 300.8350 210.0040 301.1000 C211.1770 301.3000 212.0338 301.0675 212.9835 300.3600 C214.9462 298.9000 216.6675 296.9675 218.3795 295.2275 C223.0940 290.4325 227.4840 285.3375 232.1975 280.5500 L280.6925 232.0273 C283.7500 228.9888 286.9925 226.1432 290.0300 223.0862 C292.5275 220.5715 294.8575 217.8938 297.3575 215.3817 C302.3050 210.4110 307.4500 205.6642 312.5475 200.8528 C314.1050 199.3833 315.5225 197.1938 317.2525 195.9965 C317.3825 195.9057 317.5175 195.8192 317.6500 195.7305 Z"></path>
<path id="" fill="#f05071" fill-opacity="1.0" stroke="#000000" stroke-width="0.0" stroke-opacity="1.0" stroke-linecap="round" stroke-linejoin="round"  filling="0" d="M146.5052 155.3987 C164.6653 154.8600 179.8542 169.0825 180.5090 187.2388 C181.1638 205.3950 167.0385 220.6745 148.8867 221.4450 C130.5703 222.2225 115.1220 207.9410 114.4612 189.6203 C113.8008 171.2993 128.1805 155.9422 146.5052 155.3987 Z"></path>
<path id="" fill="#5c2d51" fill-opacity="1.0" stroke="#000000" stroke-width="0.0" stroke-opacity="1.0" stroke-linecap="round" stroke-linejoin="round"  filling="0" d="M89.2168 92.1225 L324.6600 92.1223 L393.3425 92.1195 L413.2525 92.1115 C419.1350 92.1093 425.0175 91.9925 430.8650 92.7690 C438.2500 93.7827 445.1300 97.0900 450.5350 102.2238 C458.7275 110.0990 460.5500 120.9535 460.7500 131.7932 C461.1100 151.1853 460.7675 170.6512 460.7675 190.0502 L460.7750 305.7775 L460.7725 362.3975 C460.7825 368.3450 460.7650 374.2900 460.7150 380.2375 C460.6875 383.5550 460.8650 387.0675 460.3900 390.3525 C459.4100 397.1100 455.9100 404.5900 451.1200 409.4850 C443.5925 417.1725 433.0600 419.7200 422.6550 419.8025 L188.6540 419.8125 L117.7663 419.8150 L97.0533 419.8300 C91.9005 419.8325 86.6865 420.0150 81.5638 419.3800 C74.5060 418.5050 66.8763 415.2475 61.7110 410.2900 C54.1300 403.0175 51.2370 393.8600 51.0465 383.5675 C50.6888 364.2325 51.0448 344.8300 51.0437 325.4875 L51.0380 208.4892 L51.0338 150.9895 L51.0338 134.2855 C51.0370 130.2793 50.9012 126.1783 51.4310 122.2007 C52.3970 114.9500 55.4915 107.9850 60.6192 102.7130 C68.3913 94.7220 78.4277 92.3158 89.2168 92.1225 Z M428.9200 402.1525 C433.3725 401.7075 437.5750 399.2125 440.3750 395.7425 C441.9200 393.8250 443.0500 391.7025 443.2025 389.2050 C443.5625 383.2275 443.2325 377.0775 443.2250 371.0775 L443.2200 336.5550 L443.2175 227.1055 L443.2175 155.2838 L443.2400 135.1110 C443.2625 131.5027 443.6050 127.5432 443.1625 123.9707 C442.5950 119.3882 439.9175 115.5695 436.2875 112.8217 C433.6900 110.8557 430.8600 110.0372 427.6550 109.8455 C421.6775 109.4880 415.5200 109.7858 409.5250 109.7953 L375.0800 109.8112 L266.6325 109.8120 L144.0553 109.8115 L104.4218 109.8018 C97.5190 109.7953 90.4742 109.5103 83.5867 109.8435 C78.7095 110.3828 75.1908 112.5912 72.1328 116.3835 C70.5680 118.3238 69.1885 120.6880 69.0397 123.2130 C68.6992 128.9823 69.0100 134.9267 69.0110 140.7125 L69.0137 175.6413 L69.0137 282.7750 L69.0107 357.4100 L68.9835 378.3625 C68.9485 381.7475 68.5335 385.3925 68.8990 388.7525 C69.3492 392.8925 72.7000 396.8975 75.8943 399.3300 C78.4070 401.2425 80.9165 401.9575 84.0212 402.1400 C88.9250 402.4275 93.9238 402.2175 98.8398 402.2075 L125.4977 402.1850 L209.8270 402.1950 L353.9350 402.1975 C378.9175 402.2000 403.9425 402.5050 428.9200 402.1525 Z"></path>
<path id="" fill="#5c2d51" fill-opacity="1.0" stroke="#000000" stroke-width="0.0" stroke-opacity="1.0" stroke-linecap="round" stroke-linejoin="round"  filling="0" d="M316.2050 184.0295 C317.8600 183.8945 319.4600 183.9615 321.0175 184.6030 C322.5950 185.2527 323.9075 186.5145 325.1425 187.6608 C329.4125 191.6200 333.4325 195.9258 337.5475 200.0490 L361.5475 224.0748 L388.7375 251.2525 C393.4450 255.9525 398.3050 260.5525 402.8625 265.3950 C403.8950 266.4925 405.1625 267.6875 405.7325 269.1075 C405.7825 269.2325 405.8250 269.3575 405.8725 269.4825 C406.7075 271.6750 406.9275 273.7525 406.9850 276.0875 C407.1275 281.7825 406.9825 287.5150 406.9750 293.2125 L406.9675 327.5025 L406.9750 346.1550 C406.9750 350.3075 407.1875 354.6900 406.5725 358.8025 C406.2800 360.7550 405.4375 362.1925 404.0550 363.5900 C402.6300 365.0300 401.0550 365.4925 399.0700 365.6525 C390.9775 366.3050 381.7125 365.8100 373.5125 365.8075 L324.3475 365.8075 L169.6250 365.8100 L132.1918 365.7975 C125.9847 365.8000 119.4355 366.3025 113.2740 365.6625 C110.0963 365.3300 108.3838 364.1825 106.3905 361.7225 C105.4893 356.1625 105.9315 350.0825 105.9337 344.4500 C105.9368 337.5375 105.6910 330.5150 106.2278 323.6250 C108.4877 320.4575 111.7798 317.6650 114.5432 314.9100 L129.6810 299.8125 L154.7363 274.7475 C159.2420 270.2425 163.6568 265.4250 168.4575 261.2375 C169.6250 260.2200 170.9720 259.3000 172.5152 258.9875 C174.7775 258.5300 177.0502 259.0775 179.0215 260.2225 C182.6478 262.3275 185.6875 266.1475 188.6308 269.1225 L198.9250 279.5050 C200.8190 281.4225 202.7742 283.7750 205.0997 285.1600 C207.0320 286.3125 209.3992 286.5075 211.3960 285.3900 C215.0470 283.3450 227.7415 269.7700 231.6073 265.9025 L284.7675 212.7473 L301.4525 196.0343 C304.7375 192.7415 307.9800 189.1602 311.5625 186.1947 C312.9675 185.0312 314.4700 184.4832 316.2050 184.0295 Z M175.3295 281.5925 C174.5708 281.6050 173.8130 281.6350 173.0570 281.5600 L140.3835 314.2475 L129.6250 324.9925 C127.4772 327.1375 125.1905 329.2450 123.2225 331.5525 C122.9048 337.1050 123.4840 342.7400 123.0932 348.2525 C129.5190 347.8800 136.0098 348.0225 142.4450 348.0200 L172.3750 348.0250 L316.2900 348.0225 L363.8925 348.0225 C372.3075 348.0250 380.8075 347.7800 389.2125 348.0825 C388.5825 324.3100 389.6700 300.4800 389.0150 276.7125 C384.0325 270.9950 317.9375 205.4165 317.3250 205.1812 C310.2025 212.7493 302.6500 219.9825 295.2975 227.3327 L254.6700 267.9525 L234.0282 288.6275 C230.4925 292.1700 226.8725 296.4600 222.8208 299.3850 C218.9140 302.2050 213.9218 303.8075 209.1248 303.9300 C200.9755 304.1350 194.6478 300.8225 188.8725 295.3000 C184.3005 290.9275 179.4733 286.3550 175.3295 281.5925 Z"></path>
<path id="" fill="#5c2d51" fill-opacity="1.0" stroke="#000000" stroke-width="0.0" stroke-opacity="1.0" stroke-linecap="round" stroke-linejoin="round"  filling="0" d="M145.1277 146.5948 C167.8450 145.6815 186.9970 163.3658 187.8943 186.0835 C188.7915 208.8013 171.0938 227.9408 148.3752 228.8217 C125.6795 229.7023 106.5632 212.0260 105.6670 189.3307 C104.7708 166.6358 122.4335 147.5070 145.1277 146.5948 Z M148.6095 211.5132 C161.5968 210.5703 171.3915 199.3275 170.5460 186.3335 C169.7005 173.3395 158.5315 163.4608 145.5315 164.2085 C132.3927 164.9642 122.3853 176.2787 123.2397 189.4115 C124.0943 202.5443 135.4835 212.4665 148.6095 211.5132 Z"></path>
</svg>