<svg xmlns="http://www.w3.org/2000/svg" viewBox="0 0 512 512" height="512.0px" width="512.0px">
<path id="" fill="#7eb37f" fill-opacity="1.0" stroke="#000000" stroke-width="0.0" stroke-opacity="1.0" stroke-linecap="round" stroke-linejoin="round"  filling="0" d="M108.2820 282.5125 C108.2355 281.5500 108.2100 280.5900 108.2050 279.6275 C108.0543 266.5850 108.1827 253.5300 108.1827 240.4850 L108.1795 166.7965 L108.1743 132.6370 C108.1665 125.1315 107.7068 117.3188 108.7925 109.8810 C109.6022 104.3355 111.7007 98.7278 115.7070 94.6842 C120.8825 89.4608 127.1103 86.9860 134.3755 86.9590 L306.0575 86.9860 L356.7250 86.9742 L371.6850 86.9648 C375.2275 86.9637 378.8600 86.8125 382.3750 87.3035 C387.3750 88.0023 392.3225 90.7742 395.8550 94.3420 C399.5450 98.0667 402.3725 103.3423 403.2625 108.5185 C404.5050 115.7517 404.0350 123.5270 404.0325 130.8508 L404.0175 163.1187 L404.0050 278.3900 C404.0725 284.8625 403.8050 291.3475 403.7925 297.8250 L403.7850 354.5350 L403.8075 380.7800 C403.8100 386.0300 404.2100 391.6450 403.3500 396.8250 C402.4525 402.2225 399.8475 408.6425 395.9675 412.5925 C389.1875 419.4950 379.3250 419.9575 370.3150 419.9675 L205.3268 419.9700 L157.0148 419.9850 L142.3038 420.0000 C138.5795 420.0025 134.7807 420.1200 131.0820 419.6350 C125.9698 418.9625 120.0797 416.3725 116.3870 412.7300 C109.4973 405.9300 108.2972 397.4825 108.3123 388.2525 L108.3698 314.4425 L108.3325 292.9825 C108.3125 289.5775 107.9800 285.8900 108.2820 282.5125 Z"></path>
<path id="" fill="#4a5a4e" fill-opacity="1.0" stroke="#000000" stroke-width="0.0" stroke-opacity="1.0" stroke-linecap="round" stroke-linejoin="round"  filling="0" d="M108.2820 282.5125 C108.7242 281.9200 108.6705 280.9200 108.9320 280.2025 C111.3217 279.5075 127.9670 279.9950 131.8895 279.9950 L199.6690 279.9925 L336.2925 279.9900 L377.8325 279.9575 C386.2950 279.9300 395.0475 279.5250 403.4800 280.2050 C403.8750 279.7400 403.8875 278.9900 404.0050 278.3900 C404.0725 284.8625 403.8050 291.3475 403.7925 297.8250 L403.7850 354.5350 L403.8075 380.7800 C403.8100 386.0300 404.2100 391.6450 403.3500 396.8250 C402.4525 402.2225 399.8475 408.6425 395.9675 412.5925 C389.1875 419.4950 379.3250 419.9575 370.3150 419.9675 L205.3268 419.9700 L157.0148 419.9850 L142.3038 420.0000 C138.5795 420.0025 134.7807 420.1200 131.0820 419.6350 C125.9698 418.9625 120.0797 416.3725 116.3870 412.7300 C109.4973 405.9300 108.2972 397.4825 108.3123 388.2525 L108.3698 314.4425 L108.3325 292.9825 C108.3125 289.5775 107.9800 285.8900 108.2820 282.5125 Z"></path>
<path id="" fill="#7eb37f" fill-opacity="1.0" stroke="#000000" stroke-width="0.0" stroke-opacity="1.0" stroke-linecap="round" stroke-linejoin="round"  filling="0" d="M398.7475 279.8825 C400.4275 279.8175 402.1200 279.8550 403.8000 279.8525 C403.9200 289.2825 403.8850 298.6125 403.6875 308.0425 C393.9175 307.9950 384.0925 307.8300 374.3250 308.1200 C373.8350 305.1500 372.7450 302.0025 371.3800 299.3200 C367.9550 292.5800 361.5250 287.8175 354.4200 285.5550 C346.9075 283.1675 338.7500 283.9125 331.7950 287.6225 C322.8400 292.3500 319.7300 298.7700 316.8400 308.0400 C296.1725 307.6500 275.4300 308.0075 254.7525 308.0075 C236.6187 308.0075 218.3780 307.5900 200.2572 308.1150 C199.1248 300.7450 195.7292 295.1100 189.8965 290.4575 C184.3980 286.0700 176.7185 283.4300 169.6760 284.2900 C160.8915 285.3625 153.7995 288.8400 148.3067 295.8450 C145.4995 299.6100 144.2233 303.5900 142.8678 308.0400 C131.4332 307.8825 119.7637 307.6500 108.3483 308.2250 C108.6070 298.8225 107.4530 289.3500 108.9772 279.9975 C112.4668 279.7875 116.0372 279.9300 119.5365 279.9325 L138.6660 279.9425 L197.0733 279.9425 L398.7475 279.8825 Z"></path>
<path id="" fill="#609a62" fill-opacity="1.0" stroke="#000000" stroke-width="0.0" stroke-opacity="1.0" stroke-linecap="round" stroke-linejoin="round"  filling="0" d="M251.8125 51.1037 C251.8825 51.0997 251.9525 51.0943 252.0225 51.0918 C262.5150 50.7160 273.8175 54.4985 281.4650 61.7790 C288.8950 68.8528 292.9325 76.9268 293.1475 87.2540 C293.3575 97.4850 289.7225 106.5200 282.5675 113.8503 C275.6650 120.9235 265.4075 124.9453 255.6150 125.0537 C246.3495 125.1295 236.0652 123.3288 228.7128 117.2315 C220.9397 110.7850 214.9620 102.4207 214.0640 92.1068 C213.2263 82.4840 215.7538 72.7705 222.1165 65.3473 C229.7552 56.4355 240.2795 52.0527 251.8125 51.1037 Z"></path>
<path id="" fill="#4a5a4e" fill-opacity="1.0" stroke="#000000" stroke-width="0.0" stroke-opacity="1.0" stroke-linecap="round" stroke-linejoin="round"  filling="0" d="M267.9900 136.9335 C274.0825 137.3922 280.4725 137.0253 286.5900 137.0250 L328.5475 137.0177 C335.8500 137.0168 343.3575 136.6353 350.6350 137.1293 C358.8725 137.6888 368.7400 140.3522 374.3400 146.8720 C376.1350 148.9385 377.3225 151.4642 377.7625 154.1660 C378.3150 157.5200 378.0475 161.0925 378.0475 164.4840 L378.0500 180.5163 L378.0550 202.5352 C378.0575 206.3497 378.2725 210.2847 377.9925 214.0818 C377.5850 219.6028 375.3350 222.7150 371.2975 226.2100 C366.3625 229.8757 361.0475 231.6435 354.9975 232.5862 C347.9275 233.6877 339.0850 233.0508 331.7925 233.0437 L290.6975 233.0425 C283.1925 233.0440 275.4800 232.6658 268.0050 233.2242 C268.2750 222.1093 268.0200 210.9198 268.0200 199.7973 L267.9900 136.9335 Z"></path>
<path id="" fill="#4a5a4e" fill-opacity="1.0" stroke="#000000" stroke-width="0.0" stroke-opacity="1.0" stroke-linecap="round" stroke-linejoin="round"  filling="0" d="M161.3795 137.1040 C168.6535 136.8082 175.9928 137.0250 183.2758 137.0270 L222.9430 137.0275 C229.9900 137.0262 237.1410 137.2847 244.1718 136.8685 C243.8038 142.5885 244.0455 148.4375 244.0462 154.1750 L244.0550 185.1775 L244.0547 216.0330 C244.0553 221.7307 243.8297 227.5312 244.1985 233.2110 C240.9955 232.8842 237.6605 233.0432 234.4400 233.0420 L217.7875 233.0475 L179.3520 233.0582 C171.9823 233.0592 164.0638 233.6537 156.7962 232.4965 C151.0923 231.5880 145.4980 229.9702 140.9377 226.3002 C136.9942 223.1265 134.6727 219.5710 134.1698 214.4725 C133.8147 210.8750 134.0145 207.1178 134.0155 203.4995 L134.0242 183.7928 L134.0078 165.5445 C134.0070 162.0985 133.7518 158.3655 134.2872 154.9630 C134.7545 151.9935 136.1150 148.8403 138.0587 146.5397 C143.4487 140.1610 153.4365 137.6862 161.3795 137.1040 Z"></path>
<path id="" fill="#e0d150" fill-opacity="1.0" stroke="#000000" stroke-width="0.0" stroke-opacity="1.0" stroke-linecap="round" stroke-linejoin="round"  filling="0" d="M252.2100 69.0995 C257.4875 68.7750 263.1900 70.3522 267.5200 73.3960 C271.0725 75.8925 274.2275 80.0060 274.9600 84.3465 C275.8350 89.5520 275.0100 94.5055 271.8975 98.8120 C267.6000 104.7635 261.7950 106.6003 254.8575 107.6805 C254.7325 107.7053 254.6100 107.7363 254.4850 107.7548 C249.6837 108.4550 242.4495 105.3443 238.7820 102.3320 C235.1225 99.3265 232.3963 95.3900 231.9570 90.5732 C231.4693 85.2258 232.8932 80.7060 236.3438 76.5793 C240.3030 71.8438 246.1967 69.5995 252.2100 69.0995 Z"></path>
<path id="" fill="#fefefe" fill-opacity="1.0" stroke="#000000" stroke-width="0.0" stroke-opacity="1.0" stroke-linecap="round" stroke-linejoin="round"  filling="0" d="M345.8400 301.6750 C355.2450 300.5700 363.7700 307.2850 364.8925 316.6875 C366.0175 326.0900 359.3150 334.6275 349.9150 335.7675 C340.4925 336.9125 331.9275 330.1900 330.8025 320.7625 C329.6750 311.3375 336.4125 302.7850 345.8400 301.6750 Z"></path>
<path id="" fill="#fefefe" fill-opacity="1.0" stroke="#000000" stroke-width="0.0" stroke-opacity="1.0" stroke-linecap="round" stroke-linejoin="round"  filling="0" d="M169.6302 301.6875 C179.0473 300.5550 187.5943 307.2825 188.7075 316.7000 C189.8208 326.1200 183.0770 334.6550 173.6557 335.7500 C164.2605 336.8400 155.7550 330.1200 154.6450 320.7275 C153.5347 311.3325 160.2392 302.8150 169.6302 301.6875 Z"></path>
<path id="" fill="#4a5a4e" fill-opacity="1.0" stroke="#000000" stroke-width="0.0" stroke-opacity="1.0" stroke-linecap="round" stroke-linejoin="round"  filling="0" d="M171.9175 419.0250 C175.8537 418.7100 182.5175 418.0550 185.8172 420.4600 C187.2083 421.4725 190.0980 424.1425 190.2267 425.8700 C190.2977 426.8200 189.0193 428.1825 188.4170 428.8850 C185.2747 432.5500 181.5660 435.9075 178.1467 439.3225 L159.4247 458.0575 C158.4100 459.0100 157.3427 459.9025 156.2818 460.8025 C153.0488 457.9450 145.3600 451.9975 143.8053 448.3350 L144.1718 447.9650 L143.9790 448.0025 C146.5697 444.0200 150.6860 440.8075 153.9520 437.3475 C155.6735 435.5225 157.2072 433.5325 158.8985 431.6825 C161.3667 428.9825 164.0432 426.4300 166.6342 423.8450 C168.2957 422.1875 169.9447 420.3075 171.9175 419.0250 Z"></path>
<path id="" fill="#4a5a4e" fill-opacity="1.0" stroke="#000000" stroke-width="0.0" stroke-opacity="1.0" stroke-linecap="round" stroke-linejoin="round"  filling="0" d="M324.9225 419.0375 C327.7225 418.8350 334.4725 418.3575 337.0000 419.2600 C339.2350 420.0575 359.8825 441.2600 362.6800 444.4125 C363.6850 445.5425 364.7100 446.7525 365.3350 448.1400 C364.7300 450.7175 358.3300 456.0975 356.2675 458.0800 C355.1875 458.9675 354.0950 459.8350 352.9875 460.6850 C345.0575 454.5700 336.5725 444.3900 329.4700 437.0650 C326.5250 434.0300 321.3075 429.6850 319.1150 426.3550 C318.8325 425.9250 318.7575 425.7300 318.9350 425.1950 C319.6225 423.1350 323.1400 420.1575 324.9225 419.0375 Z"></path>
</svg>