<svg xmlns="http://www.w3.org/2000/svg" viewBox="0 0 512 512" height="512.0px" width="512.0px">
<path id="" fill="#81b14d" fill-opacity="1.0" stroke="#000000" stroke-width="0.0" stroke-opacity="1.0" stroke-linecap="round" stroke-linejoin="round"  filling="0" d="M59.2520 175.0802 C65.7872 175.6215 72.6693 175.1812 79.2507 175.1777 L118.8675 175.1642 L244.5217 175.1693 L344.1025 175.1638 L373.9325 175.1750 C379.2075 175.1777 384.7900 175.5612 390.0125 174.9547 C389.7550 182.7433 389.9625 190.6152 389.9725 198.4102 L390.0150 242.2227 L390.0100 298.9925 C390.0075 308.1725 389.8125 317.3825 389.9850 326.5600 C390.0550 330.2650 391.3600 333.5275 392.4500 337.0150 C394.7325 344.3225 394.5550 352.1725 393.0225 359.6275 C389.8025 375.3075 379.5425 389.6525 367.4025 399.8375 C363.5950 403.0325 359.4400 405.7700 355.2925 408.4900 C321.9775 429.0450 276.2275 439.1025 237.4040 440.8275 C232.4612 441.0475 227.4705 440.9375 222.5215 440.9375 C216.8735 440.9375 211.1673 441.0850 205.5310 440.7125 C197.4713 440.1825 189.1078 439.4700 181.1178 438.3300 C171.5670 436.9700 162.0253 434.8975 152.6523 432.6325 C128.0237 426.6775 102.9850 418.6775 82.7712 402.8700 C78.8322 399.7900 75.1955 396.7725 71.8915 392.9850 C62.4435 382.1550 55.3797 370.0775 53.5007 355.5775 C52.5935 348.0900 53.4630 340.4950 56.0388 333.4050 C57.8053 328.6700 60.1160 324.9500 59.9960 319.7325 C59.8880 315.0300 59.5342 310.3350 59.4625 305.6300 C59.0505 278.5850 59.3463 251.5050 59.2728 224.4588 L59.2115 192.4608 C59.1953 186.7285 58.8565 180.7915 59.2520 175.0802 Z"></path>
<path id="" fill="#83b34e" fill-opacity="1.0" stroke="#000000" stroke-width="0.0" stroke-opacity="1.0" stroke-linecap="round" stroke-linejoin="round"  filling="0" d="M58.3078 343.8150 C58.4308 343.8600 58.5623 343.8875 58.6772 343.9500 C59.2233 344.2500 59.4585 344.7600 59.6060 345.3400 C60.1825 347.6000 58.8362 350.4225 57.8177 352.3950 L57.3700 352.6850 L57.0172 352.4800 C56.4958 350.3625 57.8105 346.0000 58.3078 343.8150 Z"></path>
<path id="" fill="rgb(253,254,242)" fill-opacity="1.0" stroke="#000000" stroke-width="0.0" stroke-opacity="1.0" stroke-linecap="round" stroke-linejoin="round"  filling="0" d="M389.3425 343.5975 C389.7025 343.7725 389.7475 343.7375 389.9775 344.0525 C391.5650 346.2200 391.1525 350.6050 390.9525 353.1575 C390.7375 353.0500 390.5350 352.8750 390.3425 352.7325 C388.9725 350.1500 388.6600 346.4400 389.3425 343.5975 Z"></path>
<path id="" fill="rgb(0,0,0)" fill-opacity="0.027451" stroke="#000000" stroke-width="0.0" stroke-opacity="1.0" stroke-linecap="round" stroke-linejoin="round"  filling="0" d="M0.6766 0.0000 L511.3225 0.0000 C508.2025 0.6650 504.4600 0.3195 501.2650 0.3163 L484.2875 0.2973 L415.9925 0.2969 L147.6600 0.2999 L40.7298 0.2926 L15.1412 0.3109 C10.7615 0.3248 4.9184 0.8886 0.6766 0.0000 Z"></path>
<path id="" fill="rgb(0,0,0)" fill-opacity="0.0196078" stroke="#000000" stroke-width="0.0" stroke-opacity="1.0" stroke-linecap="round" stroke-linejoin="round"  filling="0" d="M1.3091 512.0000 C3.3875 511.2775 25.6402 511.7425 29.6990 511.7425 L108.8480 511.7450 L408.0800 511.7525 L481.9375 511.7525 L501.0200 511.7350 C504.2850 511.7300 508.1175 511.3450 511.2925 512.0000 L1.3091 512.0000 Z"></path>
<path id="" fill="rgb(0,0,0)" fill-opacity="0.027451" stroke="#000000" stroke-width="0.0" stroke-opacity="1.0" stroke-linecap="round" stroke-linejoin="round"  filling="0" d="M0.0000 0.9172 C0.7097 3.9909 0.2566 8.0218 0.2535 11.1965 L0.2509 30.6735 L0.2530 111.2188 L0.2531 439.7300 L0.2509 490.8325 C0.2507 494.5500 0.7518 508.0600 0.0000 510.5825 L0.0000 0.9172 Z"></path>
<path id="" fill="rgb(254,254,254)" fill-opacity="1.0" stroke="#000000" stroke-width="0.0" stroke-opacity="1.0" stroke-linecap="round" stroke-linejoin="round"  filling="0" d="M61.4187 174.8565 C73.4010 175.3663 85.5592 174.9345 97.5595 174.9348 L167.4357 174.9350 L390.0775 174.9590 C389.9975 180.8660 390.8375 195.9557 389.5675 200.6895 C388.7900 203.5903 386.5525 205.9270 384.7225 208.2193 C382.9025 210.4998 381.1850 212.9657 379.1900 215.0887 C373.6750 220.9637 364.5225 227.8297 357.4125 231.7258 C352.2625 233.9150 347.4750 236.7815 342.4325 239.1933 C336.1625 242.1915 329.5475 244.6252 322.9700 246.8438 C317.3525 248.7385 311.3825 250.2125 305.6300 251.6475 C302.3350 252.4700 299.1100 253.5425 295.7850 254.2600 C278.2400 258.0600 260.1450 259.9675 242.2473 261.0625 C233.2162 261.6150 224.2725 262.1200 215.2128 261.8675 C197.8680 261.2625 180.5870 259.4400 163.4973 256.4125 C160.5278 255.9125 157.4990 255.7475 154.5455 255.1550 C150.6005 254.3650 146.7493 253.0150 142.8385 252.0525 C136.0578 250.3825 129.0690 249.1073 122.4553 246.8375 C119.7213 245.8992 117.1783 244.3720 114.5110 243.2495 C111.0810 241.8058 107.4478 240.8822 104.0648 239.3168 C100.9547 237.8775 97.9747 236.0143 94.9925 234.3212 C83.6125 227.8618 75.3477 222.0610 66.3610 212.3602 C64.6543 210.5177 62.7835 208.6947 61.4105 206.5827 C60.4883 205.1642 59.6810 203.4885 59.3805 201.8203 C58.7737 198.4547 58.5023 178.3855 59.1517 175.2843 C59.8135 174.7937 60.6290 174.8828 61.4187 174.8565 Z"></path>
<path id="" fill="#ffffff" fill-opacity="0.027451" stroke="#000000" stroke-width="0.0" stroke-opacity="1.0" stroke-linecap="round" stroke-linejoin="round"  filling="0" d="M0.6766 0.0000 L511.3225 0.0000 C508.2025 0.6650 504.4600 0.3195 501.2650 0.3163 L484.2875 0.2973 L415.9925 0.2969 L147.6600 0.2999 L40.7298 0.2926 L15.1412 0.3109 C10.7615 0.3248 4.9184 0.8886 0.6766 0.0000 Z"></path>
<path id="" fill="#ffffff" fill-opacity="0.0196078" stroke="#000000" stroke-width="0.0" stroke-opacity="1.0" stroke-linecap="round" stroke-linejoin="round"  filling="0" d="M1.3091 512.0000 C3.3875 511.2775 25.6402 511.7425 29.6990 511.7425 L108.8480 511.7450 L408.0800 511.7525 L481.9375 511.7525 L501.0200 511.7350 C504.2850 511.7300 508.1175 511.3450 511.2925 512.0000 L1.3091 512.0000 Z"></path>
<path id="" fill="#ffffff" fill-opacity="0.027451" stroke="#000000" stroke-width="0.0" stroke-opacity="1.0" stroke-linecap="round" stroke-linejoin="round"  filling="0" d="M0.0000 0.9172 C0.7097 3.9909 0.2566 8.0218 0.2535 11.1965 L0.2509 30.6735 L0.2530 111.2188 L0.2531 439.7300 L0.2509 490.8325 C0.2507 494.5500 0.7518 508.0600 0.0000 510.5825 L0.0000 0.9172 Z"></path>
<path id="" fill="#33464e" fill-opacity="1.0" stroke="#000000" stroke-width="0.0" stroke-opacity="1.0" stroke-linecap="round" stroke-linejoin="round"  filling="0" d="M211.9015 249.3020 C219.6582 249.1195 227.4190 249.2025 235.1700 249.5510 C234.7617 255.4325 235.7527 261.2450 235.9267 267.1075 C236.1743 275.4375 235.8735 283.8300 235.8700 292.1675 L235.8805 403.8200 C235.9348 415.6450 235.8760 427.3800 235.5197 439.2000 C235.4592 441.2075 235.9153 443.9950 235.4070 445.8450 L234.9560 446.1025 C229.8510 445.8100 215.7043 446.9400 211.9735 445.5850 C211.4690 443.4575 211.6918 440.8600 211.5430 438.6525 C210.6185 424.9275 211.1105 411.0275 211.1093 397.2675 L211.0963 320.2000 C211.0972 307.7225 210.8497 295.1900 211.0948 282.7200 C211.1470 280.0625 211.7485 277.4425 211.8020 274.7900 C211.8647 271.6975 211.3587 268.5925 211.3033 265.5000 C211.2495 262.4875 211.6812 259.4675 211.7057 256.4500 C211.7242 254.1625 211.4382 251.5175 211.9015 249.3020 Z"></path>
<path id="" fill="#34464e" fill-opacity="1.0" stroke="#000000" stroke-width="0.0" stroke-opacity="1.0" stroke-linecap="round" stroke-linejoin="round"  filling="0" d="M105.6438 226.3035 C108.7725 227.3650 111.7200 230.0785 114.6548 231.6512 C119.2640 234.1215 124.2872 236.2315 129.0728 238.3530 C128.3000 277.1750 128.8233 316.0875 128.8005 354.9175 L128.8053 384.8975 C128.8112 389.7025 129.3215 395.4225 128.5578 400.1125 C130.0307 400.0300 131.7377 399.8125 133.1958 400.0450 C133.8600 400.1500 134.1985 400.2900 134.6152 400.8075 C134.8330 403.9050 134.2250 407.0850 134.1135 410.1900 C133.8575 417.3250 133.9792 424.3325 133.1093 431.4425 C133.0525 431.6525 132.9957 431.8975 132.8972 432.0925 C132.6150 432.6475 132.5143 432.8100 131.9323 432.9975 C128.4167 430.6250 123.8213 429.1700 119.8990 427.5900 C115.1595 425.6775 110.4325 423.6600 105.6090 421.9700 C105.7043 418.4050 105.2207 414.8200 105.1730 411.2500 C105.0520 402.1800 105.1550 393.0925 105.1523 384.0200 L105.1478 280.4225 C105.1485 266.1775 104.8505 251.8800 105.3318 237.6458 C105.4568 233.9503 105.1930 229.9527 105.6438 226.3035 Z"></path>
<path id="" fill="#34464e" fill-opacity="1.0" stroke="#000000" stroke-width="0.0" stroke-opacity="1.0" stroke-linecap="round" stroke-linejoin="round"  filling="0" d="M345.6275 225.4303 C346.7775 226.1938 346.5275 232.4085 346.8175 234.0188 C346.9850 234.9637 347.3600 235.7843 347.7825 236.6395 L347.7150 236.8692 C347.6775 236.9973 347.6450 237.1265 347.6050 237.2535 C346.2000 241.7705 346.7700 249.4645 346.7750 254.3575 L346.7975 272.1750 L346.8550 327.9175 L346.8575 390.8675 C346.8700 399.9000 346.4700 409.0375 346.8125 418.0525 C343.5875 418.8175 327.5075 426.3175 324.7000 428.2675 C324.4400 428.4125 324.2650 428.3675 323.9725 428.3675 C322.8825 427.1775 323.1575 422.3525 323.1175 420.6700 C322.8700 410.0675 323.0700 399.4200 323.0800 388.8150 L323.0950 331.5725 L323.0750 269.3550 C323.0750 258.5625 322.8750 247.7305 323.1200 236.9442 C325.1025 235.6212 327.5400 234.7722 329.7050 233.7600 C334.3700 231.5780 341.4625 228.2710 345.6275 225.4303 Z"></path>
<path id="" fill="#cdd6d9" fill-opacity="1.0" stroke="#000000" stroke-width="0.0" stroke-opacity="1.0" stroke-linecap="round" stroke-linejoin="round"  filling="0" d="M213.3783 97.0992 C215.2170 96.7925 217.3503 96.9092 219.2168 96.9040 C225.6485 96.8863 231.2068 97.3155 237.5590 97.7320 C245.7270 98.2678 253.8675 98.5600 262.0225 99.4228 C286.7375 102.0372 316.1325 108.6967 338.8675 118.9420 C353.8650 125.6990 367.7175 133.8390 379.2475 145.6855 C385.1250 151.7260 389.2675 156.9125 392.2550 164.9615 C396.9900 177.7307 395.0600 184.9880 391.5300 197.4218 C390.7975 199.9970 390.5650 203.0035 389.4625 205.4142 C388.8650 205.9105 388.2225 205.8887 387.4800 205.9630 L387.1175 205.9970 C385.4075 207.8290 383.9050 209.8705 382.3125 211.8058 C380.9650 213.4442 377.5550 217.5785 375.3325 217.6712 C375.1875 217.6772 375.0425 217.6725 374.8975 217.6732 L374.5300 218.2115 C374.2050 218.6958 373.8850 219.1825 373.5350 219.6503 C369.2100 225.4230 357.7950 231.0898 351.5150 235.0970 C350.1825 235.9462 347.9975 238.1543 346.5850 238.3560 L346.4100 237.8463 C345.3900 237.7275 338.0300 241.1630 336.5375 241.7780 C332.8175 243.3130 328.8850 245.2295 324.9875 246.1853 C322.5250 246.7892 319.8850 246.7805 317.4625 247.4980 C314.4950 248.3772 311.8400 250.1300 308.8825 251.0550 C303.5425 252.7275 297.9250 253.0275 292.4325 253.8800 C287.8850 254.5850 283.3675 255.4925 278.8125 256.1350 C268.2475 257.5425 257.6475 258.6825 247.0255 259.5550 C246.6160 260.0075 246.1940 260.4000 245.7375 260.8050 C245.0862 260.9725 244.5200 260.6500 243.9195 260.4175 C241.4807 259.4700 237.8112 260.8425 235.2328 261.1500 C235.1588 257.4600 235.1690 253.7800 235.4860 250.1000 C234.2578 249.9438 233.0295 249.6888 231.8087 249.4775 C231.6093 249.3640 231.4037 249.2598 231.2117 249.1340 C227.6995 246.8345 216.3497 249.1317 211.7733 249.1115 C211.7077 251.7025 213.1815 259.8825 212.1725 261.5375 L211.7235 261.5400 C210.8587 260.9475 210.4645 260.0875 209.9677 259.1950 C207.6585 259.2375 205.3752 259.7250 203.0660 259.7125 C200.7932 259.6975 198.4995 259.3325 196.2285 259.1925 C186.8127 258.6075 177.4275 257.6075 168.0997 256.1975 C159.3132 254.8475 150.3233 252.6450 141.6950 250.4900 C139.4323 249.9260 136.3098 248.3638 134.2660 248.0865 C132.9310 247.9055 131.0903 248.4515 129.7643 248.6805 L108.3785 240.0625 C105.5715 238.9568 102.6170 238.1810 99.9057 236.8420 C97.8125 235.8082 95.8765 234.4523 93.8513 233.2930 C91.1147 231.7265 88.0970 230.3565 85.6285 228.3873 C83.5623 226.7392 81.8490 224.6588 79.7402 223.0668 C76.6785 220.7550 73.2975 218.8780 70.2910 216.4832 C60.5265 208.7060 54.6405 196.5273 53.2688 184.2030 C51.7578 170.6283 56.6752 159.3098 65.0407 148.8522 C87.1053 121.2695 139.2473 105.7320 173.0347 100.8203 C181.7128 99.5587 190.6345 98.7580 199.3783 98.1275 C204.0677 97.7892 208.6965 97.6105 213.3783 97.0992 Z"></path>
<path id="" fill="#506a76" fill-opacity="1.0" stroke="#000000" stroke-width="0.0" stroke-opacity="1.0" stroke-linecap="round" stroke-linejoin="round"  filling="0" d="M319.3325 420.0675 C320.8850 419.8450 322.5300 419.9100 324.1000 419.8825 C323.8125 422.6525 324.0925 425.5950 323.6225 428.3050 C323.4750 429.1650 323.2650 430.0550 322.4700 430.5475 C320.2150 431.9400 317.1050 432.6550 314.6000 433.5100 C296.6150 439.6550 278.2475 443.3700 259.3750 445.5050 C253.4675 446.1725 247.0117 447.2025 241.1815 445.7075 C238.9563 445.1175 237.2685 444.6950 234.9430 445.0775 C235.0658 441.3825 235.0095 437.6325 234.8783 433.9375 C241.2645 434.1450 248.0095 433.2025 254.3725 432.5825 C258.3250 432.1975 262.3200 432.1500 266.2550 431.7075 C277.6300 430.4275 289.1525 428.0875 300.2800 425.4250 C306.6925 423.8925 312.8700 421.1675 319.3325 420.0675 Z"></path>
<path id="" fill="#506975" fill-opacity="1.0" stroke="#000000" stroke-width="0.0" stroke-opacity="1.0" stroke-linecap="round" stroke-linejoin="round"  filling="0" d="M132.5020 421.4750 C133.3082 420.9975 133.6053 420.8850 134.5200 421.1275 C139.4713 422.4500 144.2657 424.3500 149.2565 425.6000 C164.6172 429.4525 180.2977 431.8950 196.1025 432.8950 C201.4400 433.1900 206.8715 433.0050 212.2198 433.0375 L212.1987 433.4700 C212.0255 437.4925 212.7900 441.4825 212.8568 445.4950 C205.6068 449.7825 161.7617 441.3600 152.3078 438.9325 C145.7383 437.2500 139.2740 435.1800 132.9492 432.7325 C129.9005 431.5275 124.7150 430.5225 122.3992 428.0800 C122.0123 427.6725 122.0228 427.5675 122.0300 427.0375 C123.8607 425.2400 128.2455 428.6100 130.5647 428.4200 C132.4835 428.2625 131.3260 422.7000 132.5020 421.4750 Z"></path>
<path id="" fill="#35474f" fill-opacity="1.0" stroke="#000000" stroke-width="0.0" stroke-opacity="1.0" stroke-linecap="round" stroke-linejoin="round"  filling="0" d="M132.9492 432.7325 C129.9005 431.5275 124.7150 430.5225 122.3992 428.0800 C122.0123 427.6725 122.0228 427.5675 122.0300 427.0375 C123.8607 425.2400 128.2455 428.6100 130.5647 428.4200 C132.4835 428.2625 131.3260 422.7000 132.5020 421.4750 C132.2170 423.8475 132.3797 425.9775 132.8660 428.3075 C133.0660 429.2675 133.4740 430.4650 133.4512 431.4375 C133.4400 431.9225 133.1980 432.3350 132.9492 432.7325 Z"></path>
<path id="" fill="#506b75" fill-opacity="1.0" stroke="#000000" stroke-width="0.0" stroke-opacity="1.0" stroke-linecap="round" stroke-linejoin="round"  filling="0" d="M389.9650 342.9000 C389.7300 341.3525 389.4550 339.7650 389.3800 338.2025 C389.2750 336.0925 389.4950 333.9825 389.5100 331.8725 C389.5300 329.0050 388.4050 324.5025 389.3775 321.8725 C389.8825 321.6675 389.9725 321.6175 390.5125 321.8350 C392.7450 322.7400 393.9475 326.3675 394.7100 328.4400 C395.3800 330.2550 395.7325 332.1300 396.1825 334.0075 C399.4975 347.9025 398.4325 362.4225 392.3950 375.4325 C386.8725 387.3350 378.3400 397.2250 367.9525 405.1325 C365.6425 406.8900 363.0750 408.9900 360.3675 410.0650 C359.9675 410.2250 359.6475 410.2700 359.2175 410.2950 C358.3050 410.3950 357.1925 410.6325 356.2825 410.5450 C355.6550 410.4875 355.4100 410.2575 355.0175 409.8025 C354.9625 408.2600 356.6675 406.8575 357.6500 405.7975 C360.3450 401.6600 365.8225 399.0175 369.6900 396.0325 C373.5150 393.0825 377.2725 389.5600 380.2975 385.7800 C385.7700 378.9400 392.2250 366.1650 392.9300 357.4150 C391.1175 353.2850 387.6000 348.8950 389.4175 344.0550 C389.5650 343.6575 389.7650 343.2750 389.9650 342.9000 Z"></path>
<path id="" fill="rgb(136,190,27)" fill-opacity="1.0" stroke="#000000" stroke-width="0.0" stroke-opacity="1.0" stroke-linecap="round" stroke-linejoin="round"  filling="0" d="M357.6500 405.7975 C358.4225 406.2525 358.3525 406.3175 358.5700 407.1800 C358.8325 408.2075 358.9650 409.2625 359.2175 410.2950 C358.3050 410.3950 357.1925 410.6325 356.2825 410.5450 C355.6550 410.4875 355.4100 410.2575 355.0175 409.8025 C354.9625 408.2600 356.6675 406.8575 357.6500 405.7975 Z"></path>
<path id="" fill="#506a76" fill-opacity="1.0" stroke="#000000" stroke-width="0.0" stroke-opacity="1.0" stroke-linecap="round" stroke-linejoin="round"  filling="0" d="M58.8320 376.5750 C58.7825 376.5250 58.7323 376.4775 58.6835 376.4275 L58.4408 376.1775 C58.0508 375.7850 57.6588 375.3975 57.3195 374.9575 C55.8420 373.0375 54.8310 370.0125 54.1022 367.7125 C53.6925 366.4175 53.1073 365.1625 52.7695 363.8525 C50.9330 356.7325 50.7648 348.5800 51.7620 341.3400 C52.4485 336.3575 54.3690 325.6100 58.5610 322.4250 C59.1290 322.3250 58.9723 322.2425 59.5095 322.6175 C60.3410 324.3275 60.0293 326.8400 60.0290 328.7275 C60.0285 331.9750 60.1353 335.2900 59.8958 338.5275 C59.4540 344.4950 57.9652 350.2500 56.4803 356.0250 C56.2988 357.7150 56.0825 359.4100 55.9970 361.1075 C55.9835 362.9950 56.0793 364.7775 56.5580 366.6100 C57.4665 370.0850 59.2965 372.8750 58.8320 376.5750 Z"></path>
<path id="" fill="#506a76" fill-opacity="1.0" stroke="#000000" stroke-width="0.0" stroke-opacity="1.0" stroke-linecap="round" stroke-linejoin="round"  filling="0" d="M55.9970 361.1075 C55.9518 361.3425 55.8725 361.7750 55.8132 361.9925 C55.6873 362.4575 55.6808 362.6525 55.2128 362.8475 C55.1703 362.8650 55.1208 362.8525 55.0748 362.8550 L54.7115 363.1200 C54.5717 362.9300 54.5240 362.8925 54.4512 362.6300 C54.0358 361.1375 54.7623 357.4250 55.4658 356.0525 C55.8190 355.3625 56.0915 354.6625 56.3712 353.9400 L56.4803 356.0250 C56.2988 357.7150 56.0825 359.4100 55.9970 361.1075 Z"></path>
<path id="" fill="#506a76" fill-opacity="1.0" stroke="#000000" stroke-width="0.0" stroke-opacity="1.0" stroke-linecap="round" stroke-linejoin="round"  filling="0" d="M63.1232 386.5250 C62.7863 386.1350 62.8580 386.2475 62.6187 385.8825 C61.7372 384.5375 59.9713 382.2300 60.4482 380.5050 C60.5485 380.1425 60.7298 380.1575 61.0348 380.0050 C62.7572 380.3850 63.7225 382.1250 64.7292 383.4450 C69.2875 388.3550 73.7650 392.5850 79.1670 396.5625 C81.4488 398.2425 83.8783 400.0825 86.3528 401.4675 C87.2863 401.9900 89.0255 402.2425 89.6260 403.1300 C90.5235 404.4550 90.0707 408.7400 90.0537 410.4350 C81.2985 406.4300 74.0265 400.1900 67.7467 392.9725 C66.1860 391.1800 64.1425 388.8650 63.1655 386.6750 C63.1445 386.6275 63.1375 386.5750 63.1232 386.5250 Z"></path>
<path id="" fill="rgb(38,112,130)" fill-opacity="1.0" stroke="#000000" stroke-width="0.0" stroke-opacity="1.0" stroke-linecap="round" stroke-linejoin="round"  filling="0" d="M63.1232 386.5250 C62.7863 386.1350 62.8580 386.2475 62.6187 385.8825 C61.7372 384.5375 59.9713 382.2300 60.4482 380.5050 C60.5485 380.1425 60.7298 380.1575 61.0348 380.0050 C62.7572 380.3850 63.7225 382.1250 64.7292 383.4450 L64.0748 383.7875 C63.7030 383.5325 63.5600 383.3450 63.2977 382.9875 L62.5755 382.6725 C62.3395 383.2450 62.0680 383.6225 62.2977 384.2525 C62.3300 384.3400 62.6510 384.8225 62.6898 384.8825 C63.0990 385.5200 63.1700 385.7775 63.1232 386.5250 Z"></path>
<path id="" fill="rgb(136,190,27)" fill-opacity="1.0" stroke="#000000" stroke-width="0.0" stroke-opacity="1.0" stroke-linecap="round" stroke-linejoin="round"  filling="0" d="M348.1075 410.7200 L349.5100 410.9725 C349.9725 411.4325 349.9650 411.4200 350.0150 412.0700 C349.6175 412.9150 349.1650 413.3850 348.4825 414.0150 C347.8525 414.0450 347.8050 414.0900 347.3000 413.7300 C347.0900 413.2725 346.9300 412.9525 346.9800 412.4325 C347.0700 411.4950 347.3900 411.2175 348.1075 410.7200 Z"></path>
<path id="" fill="#506a76" fill-opacity="1.0" stroke="#000000" stroke-width="0.0" stroke-opacity="1.0" stroke-linecap="round" stroke-linejoin="round"  filling="0" d="M92.1320 235.1877 C89.6758 233.6450 86.9897 232.5287 84.5570 230.8938 C72.5992 222.8560 60.7467 211.0558 54.8618 197.7410 C50.0740 186.9088 50.1407 174.8033 54.4062 163.8365 C62.7445 142.3987 85.9375 126.5082 106.3522 117.4788 C137.6053 103.6555 172.2057 96.6805 206.2883 95.1425 C211.9010 94.8893 217.5510 94.9522 223.1695 94.9415 C228.7525 94.9308 234.3837 94.8365 239.9620 95.0600 C260.1000 96.0155 280.1025 98.8775 299.7000 103.6078 C310.6950 106.3378 321.2825 110.0038 331.8400 114.0908 C335.6900 115.5813 339.4075 117.3893 343.1350 119.1575 C362.0650 128.1362 383.4450 141.6953 392.1150 161.5977 C396.9675 172.7388 397.4700 185.2635 392.9225 196.5980 C390.0575 203.7395 383.6925 212.8395 378.3400 218.3275 C376.1375 220.5862 373.6725 222.5132 371.3000 224.5838 C367.6475 227.7730 364.2775 230.6785 359.7625 232.5948 C359.0275 230.9700 359.4400 219.2075 359.4275 216.4390 C357.3775 217.1910 354.3900 218.6687 352.1925 218.3980 C351.5300 218.3163 350.8650 218.2530 350.2000 218.1792 C362.5950 211.9888 375.5700 204.8488 382.5175 192.2307 C386.1875 185.5112 387.0350 177.6078 384.8725 170.2628 C380.8150 156.4563 366.0600 145.0185 353.9050 138.3690 C327.4350 123.8913 291.1750 115.6650 261.2600 112.5612 C223.1540 108.6075 171.5043 110.9108 134.8740 121.7603 C126.1227 124.3522 117.3130 127.0862 108.8945 130.6342 C94.1118 136.8650 72.6510 149.5285 64.9730 163.9848 C61.6230 170.2923 60.4000 179.7668 62.5155 186.6293 C66.8123 200.5675 81.4933 210.3235 93.8467 216.7482 C92.6288 217.7843 92.5550 218.7040 92.4245 220.2267 C92.0000 225.1835 92.6407 230.2750 92.1320 235.1877 Z"></path>
<path id="" fill="#506a76" fill-opacity="1.0" stroke="#000000" stroke-width="0.0" stroke-opacity="1.0" stroke-linecap="round" stroke-linejoin="round"  filling="0" d="M350.2000 218.1792 C350.8650 218.2530 351.5300 218.3163 352.1925 218.3980 C354.3900 218.6687 357.3775 217.1910 359.4275 216.4390 C359.4400 219.2075 359.0275 230.9700 359.7625 232.5948 C360.0350 237.2815 360.2250 242.3190 359.9000 246.9933 C357.8475 248.7592 348.6475 252.9500 346.0625 253.2075 C345.9075 248.4628 346.2400 243.5510 345.8575 238.8392 C338.2025 239.9323 331.6925 245.0838 323.9950 246.3483 C324.1050 251.5950 324.1400 256.8425 324.1050 262.0900 C319.7125 263.5750 314.7050 264.6350 310.1325 265.4175 C310.1300 263.6450 310.5650 253.8825 309.7875 252.8025 C293.6225 257.1825 277.0100 259.6600 260.3500 261.1675 C256.4650 261.5200 252.5125 262.1950 248.6085 261.9050 C247.4885 259.7600 248.6178 242.3398 247.9357 237.9955 C252.3825 238.0462 256.9850 237.4902 261.4350 237.1738 C278.4075 236.0095 295.2825 233.6803 311.9375 230.2025 C318.4900 228.7940 324.8850 226.6455 331.4500 225.3325 C333.7450 224.4763 336.1625 223.9650 338.4750 223.1452 C342.4700 221.7283 346.3550 219.9577 350.2000 218.1792 Z"></path>
<path id="" fill="#34464e" fill-opacity="1.0" stroke="#000000" stroke-width="0.0" stroke-opacity="1.0" stroke-linecap="round" stroke-linejoin="round"  filling="0" d="M350.2000 218.1792 C350.8650 218.2530 351.5300 218.3163 352.1925 218.3980 C354.3900 218.6687 357.3775 217.1910 359.4275 216.4390 C359.4400 219.2075 359.0275 230.9700 359.7625 232.5948 C360.0350 237.2815 360.2250 242.3190 359.9000 246.9933 C357.8475 248.7592 348.6475 252.9500 346.0625 253.2075 C345.9075 248.4628 346.2400 243.5510 345.8575 238.8392 C338.2025 239.9323 331.6925 245.0838 323.9950 246.3483 C324.1050 251.5950 324.1400 256.8425 324.1050 262.0900 C319.7125 263.5750 314.7050 264.6350 310.1325 265.4175 C310.1300 263.6450 310.5650 253.8825 309.7875 252.8025 L310.0250 252.7275 C310.9200 251.1625 310.2725 237.8220 310.2425 235.0590 C315.0525 232.9362 320.0625 231.3203 324.9700 229.4527 C327.1350 228.6290 328.9400 228.0920 330.9600 226.8670 L330.8075 226.6500 L331.3625 226.5742 C331.0150 226.2702 324.1025 230.2030 322.2150 229.8768 C322.2050 229.3038 322.2025 229.3645 322.4750 228.9185 C322.6900 228.5675 322.9600 228.0887 323.3100 227.8665 C324.6475 227.0177 329.4475 226.2075 331.2700 225.7775 L331.4500 225.3325 C333.7450 224.4763 336.1625 223.9650 338.4750 223.1452 C342.4700 221.7283 346.3550 219.9577 350.2000 218.1792 Z"></path>
<path id="" fill="#506a76" fill-opacity="1.0" stroke="#000000" stroke-width="0.0" stroke-opacity="1.0" stroke-linecap="round" stroke-linejoin="round"  filling="0" d="M118.2870 225.8842 C123.1745 226.3625 128.1485 228.3508 132.9205 229.5140 C139.6075 231.1440 146.6090 232.3260 153.4155 233.3678 C163.4320 234.8615 173.4935 236.0343 183.5850 236.8845 C186.4247 237.1090 189.2795 237.4020 192.1225 237.5428 C194.5755 237.6640 197.1580 237.5573 199.5807 237.9368 C197.7670 242.3665 200.1712 260.5600 198.8095 262.3800 C196.7583 261.5650 193.4908 261.7950 191.2563 261.5525 C185.0470 260.8825 178.7950 260.2100 172.6070 259.3825 C167.9395 258.7550 163.2395 258.1575 158.6022 257.3400 C154.7260 256.6550 150.8813 255.7325 146.9865 255.1625 C145.4040 254.9300 143.8060 254.9325 142.2190 254.7375 L141.7863 254.5050 C140.9198 252.6350 141.5320 238.9733 141.6577 235.9902 C136.2507 233.3210 121.8073 229.5748 118.1992 226.2995 L118.2870 225.8842 Z"></path>
<path id="" fill="#34464e" fill-opacity="1.0" stroke="#000000" stroke-width="0.0" stroke-opacity="1.0" stroke-linecap="round" stroke-linejoin="round"  filling="0" d="M93.8467 216.7482 C101.6332 220.6087 110.0505 223.1810 118.2870 225.8842 L118.1992 226.2995 C121.8073 229.5748 136.2507 233.3210 141.6577 235.9902 C141.5320 238.9733 140.9198 252.6350 141.7863 254.5050 L142.2190 254.7375 C141.5200 255.6375 141.9990 264.5900 142.0332 266.3825 C138.0795 265.6225 133.6718 264.9875 129.8893 263.6350 C129.3233 263.4325 128.6008 263.1625 128.2805 262.6200 C126.6357 259.8375 129.2725 250.4750 127.5700 248.2105 C126.8173 247.2095 114.0627 242.7247 112.0898 242.1605 C110.1200 241.5972 108.1367 241.2480 106.1140 240.9393 C105.8098 245.4068 106.0663 250.0500 106.0632 254.5375 C101.0750 252.8400 96.6407 250.4300 92.0390 247.9110 C91.9872 243.6698 92.0182 239.4277 92.1320 235.1877 C92.6407 230.2750 92.0000 225.1835 92.4245 220.2267 C92.5550 218.7040 92.6288 217.7843 93.8467 216.7482 Z"></path>
<path id="" fill="#34464e" fill-opacity="1.0" stroke="#000000" stroke-width="0.0" stroke-opacity="1.0" stroke-linecap="round" stroke-linejoin="round"  filling="0" d="M199.5807 237.9368 C207.5055 238.3288 215.4895 238.2055 223.4230 238.1897 C231.5785 238.1735 239.7855 238.2465 247.9357 237.9955 C248.6178 242.3398 247.4885 259.7600 248.6085 261.9050 C249.0540 264.9550 248.5485 268.0800 248.8813 271.1425 C244.2968 270.8825 239.5358 270.8600 234.9458 271.0575 C234.9323 264.0650 234.8515 257.0600 235.0117 250.0700 C227.3192 250.0725 219.6113 250.2300 211.9215 250.1725 C212.4028 253.7700 213.2608 257.4925 213.0403 261.1350 C212.8365 264.4975 211.9012 267.6275 212.1192 271.0425 C207.7730 270.8650 203.2928 270.7175 198.9563 271.0625 C198.9980 268.1675 198.9492 265.2725 198.8095 262.3800 C200.1712 260.5600 197.7670 242.3665 199.5807 237.9368 Z"></path>
<path id="" fill="#34464e" fill-opacity="1.0" stroke="#000000" stroke-width="0.0" stroke-opacity="1.0" stroke-linecap="round" stroke-linejoin="round"  filling="0" d="M324.1850 399.8775 C323.8825 403.2425 324.0675 406.7425 324.0775 410.1250 C324.0900 414.2225 323.9925 418.3575 324.1625 422.4500 C324.2075 423.5750 324.2275 424.8300 325.0875 425.6300 C325.4375 425.5950 325.4475 425.6025 325.8525 425.5125 C329.3200 424.7275 332.8775 422.8825 336.0100 421.2100 C338.5300 419.8650 342.2225 418.2625 344.0375 416.0400 C347.8100 411.4200 344.4150 393.7750 346.4400 391.1850 C347.2250 390.1825 355.0675 385.9450 356.5875 385.3275 C357.6500 384.8975 358.7900 384.6875 359.9100 384.4625 C359.9975 386.2225 359.3425 390.3525 360.2400 391.7950 C360.4250 392.0975 361.0475 392.1325 361.3825 392.2100 C360.6500 392.3125 360.1750 392.2125 359.6600 392.7800 C359.3000 395.2000 358.9975 402.2725 359.8525 404.4625 C360.0875 406.1100 360.5975 407.0450 361.1275 408.5600 C361.5825 409.8600 359.1775 413.0800 358.5575 414.4750 C354.9000 416.7375 350.4125 417.9300 346.4725 419.6725 C342.6750 421.3525 339.0225 423.3350 335.2600 425.0850 C329.5825 427.7225 323.9050 429.9825 318.0050 432.0575 C315.4000 432.9750 312.7950 434.0700 310.0500 434.4725 C309.9200 431.3125 309.9725 428.1700 310.0350 425.0100 C310.7150 423.3725 310.2300 416.0950 310.1775 413.9150 C310.2500 411.6350 309.2675 404.7825 310.3875 403.0650 C311.6825 401.0775 321.8850 399.9700 324.1850 399.8775 Z"></path>
<path id="" fill="#34464e" fill-opacity="1.0" stroke="#000000" stroke-width="0.0" stroke-opacity="1.0" stroke-linecap="round" stroke-linejoin="round"  filling="0" d="M234.7388 415.0975 C238.0050 415.2550 245.6987 414.2200 248.3120 415.3350 C248.7430 415.9725 248.7487 416.4375 248.7775 417.1725 C248.4910 417.6000 248.2600 417.9575 248.1920 418.4800 C247.8837 420.8525 248.1990 423.5600 248.2188 425.9600 C248.2397 428.5325 247.9680 431.2525 248.3107 433.7975 C248.9877 433.8875 249.6642 433.9875 250.3450 434.0425 C249.6815 434.1125 249.0490 434.2100 248.3950 434.3425 C247.5440 436.0925 248.1720 445.1075 248.4342 447.3375 C245.6497 447.1725 242.7953 447.4900 240.0002 447.5325 L220.2235 447.6575 C216.1150 447.6700 212.0063 447.6425 207.8985 447.5700 C205.0020 447.5025 201.8517 447.1375 198.9942 447.5350 C198.8757 445.3125 199.4158 435.4375 198.7695 434.3725 L196.9328 434.0275 C197.6413 433.9950 198.2765 433.9175 198.9725 433.7800 C199.2778 430.7400 199.0677 427.3225 199.0335 424.2500 C199.0247 423.4600 199.1385 422.7125 198.5595 422.1450 C198.5960 422.1200 198.6405 422.1025 198.6690 422.0700 C199.4583 421.1275 198.9633 416.4200 198.9055 415.0325 C203.3322 415.2100 207.8150 415.0575 212.2478 415.0500 C211.5878 424.2775 212.0505 435.3300 212.2400 444.7050 C219.7535 444.6175 227.2660 444.8050 234.7815 444.5950 C234.9050 438.1350 234.9592 431.6750 234.9438 425.2150 C234.9433 421.8750 235.1535 418.4050 234.7388 415.0975 Z"></path>
<path id="" fill="#4f6975" fill-opacity="1.0" stroke="#000000" stroke-width="0.0" stroke-opacity="1.0" stroke-linecap="round" stroke-linejoin="round"  filling="0" d="M248.7675 422.1250 C252.2625 422.0275 255.7875 422.1375 259.2750 421.9025 C262.5725 421.6800 265.8775 421.1550 269.1625 420.7675 C275.0175 420.0775 280.8025 419.4150 286.6100 418.3650 C290.3925 417.6975 294.1675 416.9800 297.9325 416.2100 C301.9925 415.3450 306.0300 414.2950 310.1775 413.9150 C310.2300 416.0950 310.7150 423.3725 310.0350 425.0100 C302.9975 425.1650 295.9125 427.5825 289.0300 429.0125 C278.4350 431.1250 267.7175 432.5675 256.9400 433.3250 C254.7575 433.4925 252.5225 434.0150 250.3450 434.0425 C249.6642 433.9875 248.9877 433.8875 248.3107 433.7975 C247.9680 431.2525 248.2397 428.5325 248.2188 425.9600 C248.1990 423.5600 247.8837 420.8525 248.1920 418.4800 C248.2600 417.9575 248.4910 417.6000 248.7775 417.1725 C248.8492 418.8375 248.8548 420.4625 248.7675 422.1250 Z"></path>
<path id="" fill="#506a75" fill-opacity="1.0" stroke="#000000" stroke-width="0.0" stroke-opacity="1.0" stroke-linecap="round" stroke-linejoin="round"  filling="0" d="M141.9770 424.9375 C140.9410 423.3100 141.6115 415.9875 141.5800 413.7250 L141.7962 413.7950 C146.4113 417.1650 181.5222 421.2800 188.4393 421.8475 C191.7872 422.1225 195.2000 422.0875 198.5595 422.1450 C199.1385 422.7125 199.0247 423.4600 199.0335 424.2500 C199.0677 427.3225 199.2778 430.7400 198.9725 433.7800 C198.2765 433.9175 197.6413 433.9950 196.9328 434.0275 C194.3793 434.1200 191.4303 433.3375 188.8560 433.1150 C180.9730 432.4325 172.8930 431.6500 165.1115 430.1900 C157.3828 428.7400 149.6613 426.6500 141.9770 424.9375 Z"></path>
<path id="" fill="#506a76" fill-opacity="1.0" stroke="#000000" stroke-width="0.0" stroke-opacity="1.0" stroke-linecap="round" stroke-linejoin="round"  filling="0" d="M67.8235 392.7375 C65.7490 390.9025 64.1330 388.7450 62.5867 386.4600 C58.3358 380.1775 54.9977 373.5325 52.9190 366.2175 C52.4840 364.6850 51.8008 362.5675 52.2858 360.9925 C52.8167 359.2650 54.9430 358.3350 55.6115 356.7300 C55.9828 355.8375 55.9460 354.7950 56.1945 353.8700 C56.3717 353.2100 56.5537 353.0125 57.1243 352.6650 L57.5378 352.8500 C58.6772 354.9800 59.1147 359.8575 59.8913 362.5175 C62.6028 371.8050 69.8022 380.4625 77.3270 386.3825 C79.5298 388.1150 81.9568 389.6300 84.2940 391.1725 C86.5980 392.6975 88.8990 394.2875 91.3367 395.5900 L91.6837 395.7750 C92.4015 396.4150 92.3968 397.3625 92.4498 398.2950 C92.7572 403.6925 92.1630 409.1075 92.6495 414.5025 C91.0065 413.1850 87.7162 411.3975 87.0137 409.3050 C86.3962 407.4675 88.3910 407.7250 89.0537 406.4350 C89.0997 405.6600 88.8483 405.0675 88.3853 404.4550 C86.7305 402.2650 83.0058 401.2300 80.7445 399.6700 C78.1263 397.8650 75.9682 394.8975 73.0440 393.6225 C71.5825 392.9850 69.4108 392.9475 67.8235 392.7375 Z"></path>
<path id="" fill="#34464e" fill-opacity="1.0" stroke="#000000" stroke-width="0.0" stroke-opacity="1.0" stroke-linecap="round" stroke-linejoin="round"  filling="0" d="M92.2182 385.4300 C97.2872 386.7600 101.2068 390.1775 106.1190 391.7900 L106.0688 421.7450 C103.7207 420.6475 93.7188 416.6050 92.6495 414.5025 C92.1630 409.1075 92.7572 403.6925 92.4498 398.2950 C92.3968 397.3625 92.4015 396.4150 91.6837 395.7750 C92.6715 394.2125 92.1240 387.6225 92.2182 385.4300 Z"></path>
<path id="" fill="#506a75" fill-opacity="1.0" stroke="#000000" stroke-width="0.0" stroke-opacity="1.0" stroke-linecap="round" stroke-linejoin="round"  filling="0" d="M361.3825 392.2100 C361.4875 392.1725 361.5900 392.1375 361.6925 392.0975 C364.0700 391.1775 366.2050 389.5875 368.2400 388.0800 C375.9050 382.4000 381.3000 375.8525 386.2725 367.8025 C387.1575 366.3675 388.2525 364.8725 388.9300 363.3350 C390.0100 360.8875 390.7175 352.4925 392.2100 351.6225 L392.6700 351.7825 C393.2225 353.3000 393.0775 355.2400 393.0950 356.8375 C393.1700 364.2225 392.0975 367.6925 388.9575 374.3525 C384.3500 384.1225 376.2900 392.1775 367.8050 398.6650 C365.2200 400.6400 362.3150 402.3550 359.8525 404.4625 C358.9975 402.2725 359.3000 395.2000 359.6600 392.7800 C360.1750 392.2125 360.6500 392.3125 361.3825 392.2100 Z"></path>
<path id="" fill="#34464e" fill-opacity="1.0" stroke="#000000" stroke-width="0.0" stroke-opacity="1.0" stroke-linecap="round" stroke-linejoin="round"  filling="0" d="M132.7490 402.0075 C134.4780 402.1175 136.2182 402.2025 137.9418 402.3750 C139.1225 402.4925 140.4588 402.8250 141.1990 403.8350 C142.5655 405.6975 142.2435 411.5550 141.7962 413.7950 L141.5800 413.7250 C141.6115 415.9875 140.9410 423.3100 141.9770 424.9375 C142.0488 427.1225 142.8678 431.5425 141.4365 433.2325 C140.9915 433.7575 140.4763 434.0125 139.7915 434.0400 C139.1635 434.0650 138.5298 434.0475 137.9015 434.0375 C137.0587 434.0300 135.9200 434.1375 135.1467 433.7425 C134.4365 433.3800 134.2417 432.7050 133.9985 432.0100 C134.2215 429.7575 133.9673 427.2250 133.9665 424.9375 C133.9640 417.3150 134.4810 409.4700 132.7490 402.0075 Z"></path>
<path id="" fill="#506a76" fill-opacity="1.0" stroke="#000000" stroke-width="0.0" stroke-opacity="1.0" stroke-linecap="round" stroke-linejoin="round"  filling="0" d="M133.9985 432.0100 L134.3945 431.5350 C135.9243 431.7925 137.8342 432.3000 139.2000 433.0375 L139.3680 433.4700 C138.9012 433.8925 138.5005 433.9225 137.9015 434.0375 C137.0587 434.0300 135.9200 434.1375 135.1467 433.7425 C134.4365 433.3800 134.2417 432.7050 133.9985 432.0100 Z"></path>
<path id="" fill="#9e867d" fill-opacity="1.0" stroke="#000000" stroke-width="0.0" stroke-opacity="1.0" stroke-linecap="round" stroke-linejoin="round"  filling="0" d="M447.2100 64.5525 C448.9875 64.4455 450.3525 64.4017 452.0600 65.0385 C455.5550 66.3435 458.2950 69.2357 459.7775 72.6178 C461.3300 76.1630 461.6225 80.7198 460.1450 84.3347 C459.2925 86.4243 457.8975 87.9382 455.9125 88.9928 C452.9250 90.5800 449.5475 91.6082 446.3725 92.7575 C441.1875 94.6053 436.0200 96.5010 430.8700 98.4447 L376.6125 118.8785 C367.0425 122.4952 357.3750 125.9500 347.9800 130.0047 C346.8375 130.4980 346.3300 131.8615 345.3550 132.2708 C344.0175 132.8325 341.3025 132.1517 339.5450 132.7200 C335.5975 133.9965 331.6550 135.9515 327.7525 137.4433 C321.8025 139.7175 315.7300 141.6890 309.8000 143.9848 L272.5525 158.2883 C265.2975 161.0643 258.1350 164.3797 250.5650 166.1998 C249.8013 166.4442 248.9105 166.5700 248.1107 166.5355 C245.0105 166.4012 241.9507 164.7088 239.9615 162.3732 C237.0780 158.9875 236.5168 153.9600 236.9622 149.6645 C237.3082 146.3275 239.1582 143.6560 241.8992 141.7805 C245.6490 139.2150 251.0300 138.1085 255.2950 136.4670 L301.9100 118.4640 C307.0550 116.4492 314.7450 114.8580 319.0025 111.4740 C319.0800 111.2728 319.2125 110.9065 319.3100 110.7263 C319.3325 110.6858 319.6475 110.2162 319.6875 110.1998 C320.3875 109.9195 322.6725 110.2030 323.5875 110.1298 C327.4275 109.8230 331.6025 107.5970 335.1600 106.2110 C338.7450 104.8130 342.3450 103.4577 345.9600 102.1455 L413.5000 76.9017 L433.3850 69.4205 C437.9400 67.7087 442.5125 65.8358 447.2100 64.5525 Z"></path>
<path id="" fill="#755448" fill-opacity="1.0" stroke="#000000" stroke-width="0.0" stroke-opacity="1.0" stroke-linecap="round" stroke-linejoin="round"  filling="0" d="M241.6142 115.7582 C260.0200 113.5725 276.7025 126.7410 278.8525 145.1497 C281.0025 163.5585 267.8000 180.2162 249.3873 182.3293 C231.0255 184.4368 214.4240 171.2802 212.2805 152.9225 C210.1370 134.5650 223.2610 117.9377 241.6142 115.7582 Z"></path>
</svg>