<svg xmlns="http://www.w3.org/2000/svg" viewBox="0 0 512 512" height="512.0px" width="512.0px">
<path id="" fill="#e8447a" fill-opacity="1.0" stroke="#000000" stroke-width="0.0" stroke-opacity="1.0" stroke-linecap="round" stroke-linejoin="round"  filling="0" d="M205.9247 146.1120 C223.8980 145.1970 241.9622 148.5448 258.7275 154.9332 C298.1200 169.9427 328.1125 203.7027 344.9825 241.6113 C347.2100 241.0560 349.9000 241.2595 352.1900 241.2400 C362.0500 241.1568 371.9200 241.0590 381.7425 242.0935 C404.9800 244.5412 428.6100 253.5050 446.6925 268.5250 C449.2450 270.6450 451.5825 273.0900 453.9450 275.4200 C456.1125 277.5525 458.9550 279.9750 460.2250 282.7800 C461.6350 285.8950 460.9550 301.6250 460.9900 306.2700 C461.0475 314.2500 459.0875 322.0125 453.2825 327.8275 C449.1450 331.9725 443.3650 334.8875 437.6225 335.9500 C431.6400 337.0575 425.3600 336.7625 419.2950 336.7475 L396.6425 336.7025 C366.8050 336.5050 336.9650 336.5250 307.1275 336.7600 L155.7970 336.6575 L103.3925 336.6875 C94.6382 336.7000 85.7310 337.1925 76.9980 336.7025 C68.7502 336.2375 60.4543 333.5450 54.8268 327.1825 C53.2182 325.3650 51.9590 323.3450 51.4695 320.9350 C50.8593 317.9250 51.1232 314.5575 51.1348 311.4975 L51.1732 298.1525 L51.1653 276.8550 C51.1640 272.8350 50.9888 268.7200 51.2825 264.7125 C51.8092 258.0075 54.9628 251.7825 60.0565 247.3910 C67.0793 241.3987 75.4622 241.0255 84.2490 241.6653 C84.7730 238.5595 85.9455 235.3665 86.9565 232.3833 C92.2600 216.5818 100.7657 202.0443 111.9420 189.6788 C136.3630 163.4198 170.1035 147.7787 205.9247 146.1120 Z"></path>
<path id="" fill="#455963" fill-opacity="1.0" stroke="#000000" stroke-width="0.0" stroke-opacity="1.0" stroke-linecap="round" stroke-linejoin="round"  filling="0" d="M357.7425 278.0950 C371.7500 277.3675 382.7425 280.0775 393.9025 288.7100 C402.0475 295.0100 407.4775 306.7975 408.6825 316.8075 C409.3175 322.0775 409.5575 328.8225 407.5600 333.8500 C406.7925 335.7875 405.6350 337.6050 404.7025 339.4725 C402.9350 343.0225 401.1900 346.2975 398.7250 349.4250 C391.3575 358.7775 379.5550 364.1125 367.9400 365.5225 C367.5450 365.5825 367.1500 365.6250 366.7525 365.6600 C353.9150 366.7325 341.1775 362.6500 331.3550 354.3125 C324.3800 348.4125 316.9175 336.2125 316.2250 326.9025 C315.2825 314.1950 318.8050 302.8025 327.1250 293.0950 C334.6425 284.3225 346.3300 278.9825 357.7425 278.0950 Z"></path>
<path id="" fill="#455963" fill-opacity="1.0" stroke="#000000" stroke-width="0.0" stroke-opacity="1.0" stroke-linecap="round" stroke-linejoin="round"  filling="0" d="M135.3602 278.1050 C148.5215 277.6600 161.2400 280.2075 171.4832 289.0125 C178.6505 295.1750 182.0430 300.3500 184.9220 309.4550 C185.8768 312.4725 186.7380 315.5675 186.9505 318.7400 C187.1373 321.5325 186.6593 335.2525 185.5185 336.5700 C185.0172 336.3925 184.6615 336.2725 184.1268 336.3000 C182.5930 337.7075 180.5573 342.9825 179.3500 345.1200 C178.4657 346.6850 177.4182 348.1550 176.3152 349.5750 C169.3732 358.5000 157.0745 364.0275 146.0587 365.4375 L145.5038 365.5025 C132.6560 366.9950 119.6143 362.8525 109.5615 354.8075 C103.8727 350.2525 100.6645 344.4550 97.5835 338.0025 C96.1517 335.0050 94.7892 332.4975 94.4435 329.1350 C92.9507 314.6175 95.5000 304.2200 104.9662 292.7175 C111.8510 284.3525 124.8503 279.1700 135.3602 278.1050 Z"></path>
<path id="" fill="#631536" fill-opacity="1.0" stroke="#000000" stroke-width="0.0" stroke-opacity="1.0" stroke-linecap="round" stroke-linejoin="round"  filling="0" d="M107.8555 241.7735 C107.7798 240.5742 107.8730 239.4950 108.1280 238.3210 C111.5770 222.4438 125.3568 202.9985 137.3450 192.1430 C142.6333 187.3545 148.6022 183.3418 154.5950 179.4985 C167.2055 171.4102 182.5465 166.8553 197.2417 164.7385 C199.5605 164.4045 202.6192 163.4435 204.9055 164.0453 C205.4540 164.1897 205.3850 164.2920 205.6658 164.7413 C206.3305 168.1158 206.0005 171.9970 206.0018 175.4430 L206.0027 193.3477 L205.9930 223.7708 C205.9913 229.6373 206.2025 235.5723 205.8235 241.4267 C204.9930 241.9545 204.0045 241.9758 203.0468 241.9980 C196.1013 242.1585 189.1167 241.9857 182.1662 241.9860 L138.9325 241.9880 L117.6357 241.9863 C114.7285 241.9855 111.2450 242.3340 108.3855 241.9218 C108.1263 241.8842 108.0715 241.8537 107.8555 241.7735 Z"></path>
<path id="" fill="#631536" fill-opacity="1.0" stroke="#000000" stroke-width="0.0" stroke-opacity="1.0" stroke-linecap="round" stroke-linejoin="round"  filling="0" d="M222.9962 164.8485 C232.5705 165.0703 242.3943 167.3887 251.2325 171.0940 C276.8500 181.8340 295.4675 198.8595 310.7100 221.9012 C313.9100 226.7388 317.9775 232.9003 320.1475 238.2145 C320.6150 239.2215 321.3450 240.4070 321.3825 241.5245 L321.1100 241.8550 C313.7850 242.4283 306.1225 241.9902 298.7600 241.9905 L255.8675 241.9812 L235.6190 241.9957 C232.0630 242.0117 227.6842 242.4760 224.2092 241.7852 C223.9323 241.6975 223.7140 241.5305 223.4702 241.3752 C222.4670 239.0190 223.0385 223.1483 223.0383 219.6490 L223.0390 184.3748 C223.0440 177.8735 223.2215 171.3445 222.9962 164.8485 Z"></path>
<path id="" fill="#adbbc2" fill-opacity="1.0" stroke="#000000" stroke-width="0.0" stroke-opacity="1.0" stroke-linecap="round" stroke-linejoin="round"  filling="0" d="M138.9557 303.0225 C149.3865 302.2800 158.4772 310.0600 159.3522 320.4800 C160.2275 330.9000 152.5618 340.0875 142.1530 341.0950 C135.3027 341.7550 128.6260 338.6825 124.6745 333.0475 C120.7230 327.4125 120.1078 320.0875 123.0640 313.8725 C126.0202 307.6575 132.0910 303.5125 138.9557 303.0225 Z"></path>
<path id="" fill="#adbbc2" fill-opacity="1.0" stroke="#000000" stroke-width="0.0" stroke-opacity="1.0" stroke-linecap="round" stroke-linejoin="round"  filling="0" d="M361.0625 303.0600 C371.5875 302.1875 380.8225 310.0250 381.6775 320.5525 C382.5300 331.0775 374.6800 340.3000 364.1525 341.1375 C353.6475 341.9725 344.4525 334.1425 343.6000 323.6400 C342.7475 313.1375 350.5600 303.9300 361.0625 303.0600 Z"></path>
<path id="" fill="#f4ba1d" fill-opacity="1.0" stroke="#000000" stroke-width="0.0" stroke-opacity="1.0" stroke-linecap="round" stroke-linejoin="round"  filling="0" d="M51.1265 265.1425 C51.3650 265.1325 51.6040 265.1225 51.8427 265.1175 C58.8145 264.9625 65.4035 265.9125 70.5963 270.8950 C74.8310 274.9575 75.9178 279.5925 76.0405 285.2900 C76.1975 292.5700 75.3788 298.0050 70.2108 303.4300 C64.6917 308.6800 58.1640 308.8600 50.9518 309.0675 C51.1252 298.8850 50.9900 288.6775 50.9865 278.4925 C50.9850 274.3900 50.5233 269.0700 51.1265 265.1425 Z"></path>
<path id="" fill="#f5bb1d" fill-opacity="1.0" stroke="#000000" stroke-width="0.0" stroke-opacity="1.0" stroke-linecap="round" stroke-linejoin="round"  filling="0" d="M437.0800 262.5675 C442.5525 263.4650 457.0400 276.8750 460.9500 281.7425 C461.3650 288.2100 460.9050 294.7575 461.1575 301.2450 C455.9225 300.6300 450.4875 301.1950 445.2175 301.0600 C442.9025 301.0025 440.2425 300.7300 438.5975 298.9125 C437.7625 297.9900 437.4000 296.9300 437.2000 295.7175 C436.4825 291.3450 436.9275 286.4475 436.9200 282.0125 C436.9125 275.5750 436.5900 268.9850 437.0800 262.5675 Z"></path>
</svg>