<svg xmlns="http://www.w3.org/2000/svg" viewBox="0 0 512 512" height="512.0px" width="512.0px">
<path id="" fill="#8dcaf5" fill-opacity="1.0" stroke="#000000" stroke-width="0.0" stroke-opacity="1.0" stroke-linecap="round" stroke-linejoin="round"  filling="0" d="M125.0793 128.0383 C135.8440 127.6078 146.7272 127.9837 157.5052 127.9788 C164.0515 127.9760 172.4897 127.4308 178.7467 128.0815 C180.3333 128.2320 181.8707 128.7120 183.2615 129.4902 C185.4895 130.7615 187.1640 133.2932 187.7708 135.7612 C188.6455 139.3190 188.0760 152.2928 188.0712 156.7193 L188.0680 205.8887 L188.0697 329.8675 L188.0692 369.5500 C188.0750 376.0325 188.2730 382.5500 188.1257 389.0275 C188.0802 391.0350 187.8100 392.8725 186.7425 394.6175 C185.2733 397.0200 182.7670 399.0375 180.0370 399.7550 C177.5275 400.2000 174.7937 400.0175 172.2480 400.0175 L160.4758 400.0150 L140.1045 400.0275 C136.1962 400.0275 132.2325 400.1550 128.3300 399.9525 C126.8532 399.8775 125.4702 399.7100 124.0905 399.1375 C121.9633 398.2550 119.4577 396.6325 118.6217 394.3775 C117.2415 390.6525 118.0760 367.0900 117.9837 361.2500 C117.8980 355.8250 117.1687 350.4250 117.0955 344.9900 C116.8922 329.8825 117.0703 314.7475 117.0707 299.6375 L117.0642 214.1452 L117.0803 165.9790 C117.0885 158.2547 116.8542 150.4840 117.1022 142.7680 C117.2015 139.6855 117.3865 136.4025 118.7470 133.5760 C120.0833 130.7997 122.2213 129.0587 125.0793 128.0383 Z"></path>
<path id="" fill="#fb7e7e" fill-opacity="1.0" stroke="#000000" stroke-width="0.0" stroke-opacity="1.0" stroke-linecap="round" stroke-linejoin="round"  filling="0" d="M232.6805 193.3975 C232.9880 193.3598 233.2885 193.3265 233.5975 193.3070 C242.2375 192.7590 251.6925 193.2027 260.4100 193.2117 C266.1775 193.2177 276.6325 192.7095 281.9375 193.6432 C283.6875 193.9507 285.1450 194.6890 286.4625 195.8725 C289.2100 198.3420 289.9275 200.6628 290.0475 204.2635 C290.4550 216.2845 290.0350 228.4455 290.0300 240.4835 L290.0325 313.3350 L290.0425 363.4625 L290.0650 380.0300 C290.0675 383.2550 290.2000 386.5475 289.9700 389.7600 C289.7750 392.5000 289.3350 395.1950 287.3225 397.2250 C285.1050 399.4600 282.3275 399.9675 279.3175 400.0400 L247.7442 400.0550 C242.2522 400.0675 236.2737 400.5650 230.8565 399.8700 C229.1965 399.6575 227.6348 398.9925 226.2665 398.0375 C223.8273 396.3350 222.6460 393.9225 222.2195 391.0250 C221.7663 387.9450 221.9552 384.7425 221.9738 381.6350 L221.9897 369.9175 L221.9888 325.9925 L221.9850 243.9560 L221.9780 217.2765 C221.9753 212.6030 221.7830 207.8565 222.0103 203.1918 C222.1115 201.1140 222.4935 199.3683 223.8085 197.6925 C225.9998 194.9000 229.2815 193.7795 232.6805 193.3975 Z"></path>
<path id="" fill="#87c1ea" fill-opacity="1.0" stroke="#000000" stroke-width="0.0" stroke-opacity="1.0" stroke-linecap="round" stroke-linejoin="round"  filling="0" d="M335.0700 256.0775 C337.8150 255.8175 340.6950 255.9725 343.4575 255.9700 L358.4300 255.9675 L374.7600 255.9750 C378.1150 255.9775 381.5525 255.8350 384.8925 256.1500 C386.7275 256.3225 388.5225 256.6925 390.0925 257.7100 C392.4400 259.2325 394.4100 262.7375 394.8675 265.4200 C395.5725 269.5200 395.0725 274.7150 395.0725 278.9575 L395.0700 307.8475 L395.0650 360.7700 C395.0650 369.8625 395.4850 379.1450 394.9975 388.2150 C394.8625 390.7375 394.6825 393.3400 393.1350 395.4275 C391.2150 398.0200 388.6550 399.4950 385.5125 399.9825 C374.5750 400.2300 363.5800 400.0175 352.6400 400.0250 C347.1050 400.0275 339.1175 400.5275 333.7625 399.8300 C332.3450 399.6450 331.2225 399.2450 330.0450 398.4175 C327.6350 396.7250 325.8475 394.3225 325.3750 391.3750 C324.5125 385.9775 325.0275 379.8100 325.0275 374.3300 L325.0275 342.0125 L325.0225 292.4925 C325.0225 284.0650 324.5825 275.3600 325.1475 266.9600 C325.3150 264.4950 325.5525 262.4375 327.0625 260.3900 C329.0625 257.6725 331.8525 256.5425 335.0700 256.0775 Z"></path>
<path id="" fill="#141414" fill-opacity="1.0" stroke="#000000" stroke-width="0.0" stroke-opacity="1.0" stroke-linecap="round" stroke-linejoin="round"  filling="0" d="M133.6320 121.8615 C143.7543 121.6998 153.8783 121.6530 164.0015 121.7210 C172.2267 121.7425 181.9382 120.4902 188.2128 126.8838 C190.4138 129.1265 191.5880 132.6220 191.8970 135.7185 C192.2782 139.5375 192.1410 143.5140 192.1475 147.3510 L192.1510 165.1337 L192.1537 222.9380 L192.1557 327.6775 C192.2360 348.5475 192.1875 369.4150 192.0100 390.2850 C200.8925 389.5075 210.1517 390.0175 219.0845 390.0450 C219.0715 389.7450 219.0607 389.4450 219.0522 389.1475 C218.6658 375.6775 219.0285 362.0825 219.0287 348.6050 L219.0307 268.8350 L219.0237 222.8865 L219.0220 208.5343 C219.0233 205.6053 218.9097 202.5777 219.1980 199.6628 C219.5285 196.3195 220.7605 193.1393 223.1472 190.7173 C225.1700 188.6645 227.8580 187.2863 230.6613 186.6640 C236.4810 185.3723 244.4153 186.0535 250.4375 186.0712 L276.3625 186.0643 C282.1975 186.1158 288.8100 186.2388 293.1200 190.8030 C295.2925 193.1060 296.5575 196.5020 296.8750 199.6297 C297.5775 206.5932 297.0550 215.9297 297.0475 223.1170 L297.0500 268.4375 L297.0575 350.0725 C297.0575 363.4175 297.3900 376.8375 297.0725 390.1725 C301.8025 389.8575 306.6175 390.0200 311.3600 390.0150 C315.0100 390.0100 318.8450 389.7800 322.4650 390.1925 C322.3725 389.5750 322.3175 388.9550 322.2975 388.3300 C321.9225 378.4950 322.1750 368.5775 322.1750 358.7325 L322.1800 306.3150 L322.1750 277.1350 C322.1750 271.9275 321.7500 266.3000 322.4775 261.1525 C322.8550 258.4875 324.1975 255.8050 326.0825 253.8725 C330.3125 249.5305 336.2175 249.9512 341.7550 249.9715 L350.8750 250.0075 L372.8200 249.9967 C376.8300 249.9940 380.8900 249.8635 384.8975 250.0375 C389.4900 250.2400 393.1300 251.1175 396.3050 254.6725 C398.1450 256.7350 399.0525 258.9275 399.3800 261.6475 C400.1000 267.6150 399.7200 273.9475 399.7175 279.9600 L399.7100 312.1925 L399.7150 359.6500 C399.7175 369.8150 399.9700 380.0675 399.3825 390.2150 C402.9275 389.8625 406.5900 390.0200 410.1475 390.0225 L427.3650 390.0300 L444.8225 390.0175 C447.7675 390.0150 450.8725 389.8100 453.8025 390.0625 C455.2825 390.1900 456.7850 390.6250 458.0100 391.4875 C459.4250 392.4850 460.4050 394.0025 460.6525 395.7250 C460.9000 397.3800 460.4400 399.0650 459.3850 400.3650 C458.1175 401.9425 456.2275 402.6550 454.2675 402.8725 C449.4450 403.4075 444.3475 403.0725 439.4850 403.0700 L411.5175 403.0500 L319.2000 403.0600 L141.2480 403.0975 L88.2458 403.0375 C78.9870 403.0400 69.6963 403.2550 60.4410 403.0875 C58.0157 403.0425 55.2275 402.8900 53.2920 401.2550 C51.9818 400.1475 51.1013 398.5250 51.0323 396.7950 C50.9610 395.0150 52.0215 393.0600 53.2688 391.8450 C54.4323 390.7100 55.7527 390.3700 57.3248 390.1725 C62.6768 389.4975 71.0713 390.0075 76.7225 390.0225 L114.9973 390.0575 C114.7190 384.5350 114.9457 378.9025 114.9553 373.3700 L114.9720 342.8100 L114.9698 247.1057 L114.9635 172.8958 L114.9587 149.6060 C114.9557 145.1930 114.7292 140.6285 115.0883 136.2315 C115.3783 132.6803 116.6373 129.4012 119.0908 126.7755 C123.0940 122.4912 128.1413 122.1270 133.6320 121.8615 Z M127.8305 390.0000 C132.7462 389.9550 137.8840 389.6375 142.7725 390.1050 C142.3622 386.6800 142.4427 383.1250 142.3952 379.6725 C142.3395 372.9275 142.3228 366.1825 142.3452 359.4375 L142.3410 302.6875 L142.3410 202.9465 L142.3450 170.0230 C142.3465 164.0033 142.1938 157.9303 142.4050 151.9158 C142.4720 150.0065 142.7405 147.8118 143.9122 146.2375 C144.8557 144.9700 146.3463 144.2535 147.8895 144.0540 C149.8010 143.8165 151.7247 144.3882 153.1960 145.6313 C155.0517 147.2202 155.3992 149.5650 155.5253 151.8740 C155.7867 156.6620 155.5745 161.5770 155.5712 166.3750 L155.5675 324.4075 L155.5625 369.6000 L155.5285 382.4450 C155.5157 384.9125 155.6710 387.5375 155.2802 389.9725 C163.3913 389.9975 171.8848 389.4200 179.9485 390.1250 C179.4987 379.7950 179.5690 369.4600 179.5688 359.1250 L179.5660 320.5300 L179.5652 199.7363 L179.5712 156.6093 C179.5733 149.6415 180.0490 142.4765 179.5320 135.5408 C178.4395 134.8918 176.6102 134.8095 175.3443 134.7355 C168.2775 134.3223 160.9640 134.7550 153.8660 134.7505 C145.9575 134.7457 137.7650 134.3087 129.8865 134.8470 C129.2800 135.0977 128.5700 135.2943 128.2985 135.9427 C127.5338 137.7690 128.0058 185.2455 128.0052 191.0237 L128.0015 346.0500 L128.0075 375.5550 C128.0110 380.0250 128.4910 385.7025 127.8305 390.0000 Z M231.9662 389.7300 C236.1550 389.2825 240.9167 389.1675 245.1107 389.6100 L245.0220 275.5675 L245.0225 235.1183 C245.0225 228.2575 244.6630 221.1812 245.0935 214.3398 C245.2105 212.4810 245.2932 210.7650 246.6427 209.3407 C247.8367 208.0800 249.6158 207.2705 251.3550 207.2303 C253.0075 207.1920 254.8125 207.8485 255.9700 209.0412 C256.9800 210.0825 257.5525 211.4535 257.8225 212.8638 C258.3875 215.8250 258.0800 219.1073 258.0525 222.1095 L258.0525 233.6250 L258.0525 338.1000 L258.0550 371.1300 C258.0575 377.2700 258.3400 383.5700 257.9025 389.6900 C266.4225 388.7700 275.3975 389.0300 283.9250 389.7725 L283.9625 255.6625 L283.9625 219.3815 C283.9700 212.8452 284.5700 205.8505 283.5975 199.3992 C271.8225 199.3082 260.0625 199.5007 248.2872 199.5170 C243.2770 199.5240 237.5957 199.9393 232.6730 199.3655 C232.1232 200.0952 232.1610 200.8537 232.1180 201.7535 C231.8768 206.8260 232.0638 211.9890 232.0630 217.0737 L232.0618 246.4332 L232.0627 340.3050 L232.0635 371.2325 C232.0638 377.3925 232.1830 383.5750 231.9662 389.7300 Z M386.5700 262.9100 C376.1125 263.4325 365.5000 263.0750 355.0225 263.0775 L341.9825 263.0775 C339.6600 263.0775 337.2475 263.2075 334.9350 262.9900 C335.1925 272.2100 335.0525 281.4675 335.0575 290.6900 L335.0625 345.6000 C335.1100 356.6250 335.6100 367.6200 335.4900 378.6500 C335.4475 382.3750 335.6475 386.3325 335.1775 390.0225 C339.3600 389.9525 343.6650 389.7150 347.8350 390.1150 C347.1075 375.8750 347.4725 361.5250 347.4725 347.2650 L347.5025 283.1550 C347.5450 280.0450 347.2050 275.8150 349.5250 273.4150 C350.6550 272.2450 352.4250 271.8025 354.0100 271.8425 C355.8375 271.8850 357.6550 272.5900 358.8975 273.9575 C360.2275 275.4250 360.5000 277.1925 360.6500 279.0925 C361.1550 285.5575 360.7700 292.3075 360.7575 298.8000 L360.7450 335.0025 L360.7425 370.5725 C360.7400 376.6225 361.1250 382.9875 360.5825 389.0000 C360.5525 389.3400 360.5050 389.6725 360.4550 390.0075 C369.2625 389.9625 378.1825 389.6425 386.9775 390.1150 C386.0175 372.7525 386.5825 355.1450 386.5825 337.7500 C386.4500 313.2875 386.5275 288.8225 386.8125 264.3600 L386.8200 264.5050 L387.0725 264.1050 L386.8100 263.8700 L386.8400 263.0600 L386.5700 262.9100 Z"></path>
<path id="" fill="#131313" fill-opacity="1.0" stroke="#000000" stroke-width="0.0" stroke-opacity="1.0" stroke-linecap="round" stroke-linejoin="round"  filling="0" d="M307.3750 109.0440 C308.8325 108.9650 310.1875 109.2775 311.3850 110.1263 C315.5675 113.0908 320.8925 119.1777 324.6650 122.9345 L358.1325 156.3587 C363.4975 161.7218 368.6825 167.4235 374.2925 172.5150 C375.0825 173.2328 376.0450 174.2010 377.0975 174.4465 L376.9775 173.6935 C379.8425 168.0050 375.1675 150.4438 380.0025 145.5143 C381.0100 144.4875 382.3725 144.0477 383.7925 144.0567 C385.6025 144.0683 387.7150 144.8537 388.9550 146.2095 C389.9675 147.3170 390.3550 149.3132 390.5300 150.7713 C391.1350 155.7993 390.7625 161.2128 390.7600 166.2970 L390.5400 199.3367 L383.6625 199.4445 L358.1850 199.4675 C353.1100 199.4902 347.8350 199.8172 342.7875 199.4255 C341.3750 199.3160 339.9675 199.0715 338.6725 198.4767 C337.1400 197.7733 335.8900 196.5745 335.3725 194.9442 C334.8600 193.3293 335.0050 191.4648 335.8225 189.9772 C336.5175 188.7145 337.7075 187.5612 339.0625 187.0325 C341.9875 185.8895 356.7475 186.4512 360.8700 186.4868 C362.8325 186.5038 365.2650 186.7908 367.1550 186.2218 C367.3275 185.8918 367.4950 185.5598 367.6600 185.2258 C368.4525 183.5782 365.8375 181.9198 364.7000 180.8640 C361.1750 177.5865 357.8275 174.0505 354.4025 170.6615 L331.1750 147.5672 L313.9800 130.4340 C310.8525 127.3207 307.5650 124.2810 304.6050 121.0128 C303.6775 119.9895 302.5325 118.7128 302.1075 117.3873 C301.5925 115.7865 301.6925 114.0370 302.5025 112.5520 C303.6100 110.5240 305.2725 109.6775 307.3750 109.0440 Z"></path>
</svg>