<svg xmlns="http://www.w3.org/2000/svg" viewBox="0 0 512 512" height="512.0px" width="512.0px">
<path id="" fill="#2c8871" fill-opacity="1.0" stroke="#000000" stroke-width="0.0" stroke-opacity="1.0" stroke-linecap="round" stroke-linejoin="round"  filling="0" d="M356.6800 238.1000 C366.1775 236.8062 378.6250 240.5230 388.0775 242.5495 C396.0225 244.2525 403.9050 245.5968 411.5575 248.4465 C417.8975 250.8075 424.4450 254.2550 430.0750 258.0275 C444.4200 267.6425 456.3725 283.2100 459.7325 300.3200 C462.4200 314.0025 460.8900 332.6050 452.8400 344.3825 C450.7400 347.4550 447.5725 350.3575 443.8000 351.0000 C439.4575 351.7400 434.3775 350.1675 430.8625 347.6325 C425.1950 343.2125 421.8500 336.7075 417.7350 330.9600 C415.7725 328.2600 413.5900 325.7250 411.2150 323.3800 C409.6150 321.7650 407.9075 320.1175 405.9475 318.9375 C400.6800 315.7700 394.1525 315.4100 388.2100 314.5175 C382.9000 313.6725 377.6000 312.7725 372.3075 311.8200 C359.8625 309.6800 346.8250 307.8325 336.6075 299.7600 C329.1675 293.8825 323.4225 284.9000 322.3475 275.3650 C321.3300 266.3375 323.1150 257.0475 328.9425 249.8692 C335.0775 242.3065 347.3850 239.0533 356.6800 238.1000 Z"></path>
<path id="" fill="#2c8871" fill-opacity="1.0" stroke="#000000" stroke-width="0.0" stroke-opacity="1.0" stroke-linecap="round" stroke-linejoin="round"  filling="0" d="M147.1413 238.1060 C156.9888 236.9733 171.2117 240.5315 178.9705 246.6102 C185.0143 251.2550 188.9070 258.1600 189.7530 265.7375 C190.6992 273.9775 188.7605 281.3450 184.7190 288.5250 C175.6170 304.6975 159.8253 308.3125 142.9925 311.2900 C135.7675 312.5675 128.4985 313.7350 121.2513 314.8775 C116.8755 315.5675 111.6273 315.4675 107.6830 317.6150 C96.8327 323.5250 93.5067 333.3225 86.3215 342.2875 C82.8425 346.4475 78.5537 350.4600 72.8972 350.9750 C69.1892 351.3150 65.6653 350.2250 62.8143 347.8275 C55.0710 341.3200 52.1613 328.0350 51.4138 318.4425 C50.1517 302.2400 54.4993 285.7850 65.2393 273.3350 C83.0310 252.7075 100.1728 246.9718 125.9102 241.7890 C132.8805 240.3855 140.0477 238.5935 147.1413 238.1060 Z"></path>
<path id="" fill="#37bc9b" fill-opacity="1.0" stroke="#000000" stroke-width="0.0" stroke-opacity="1.0" stroke-linecap="round" stroke-linejoin="round"  filling="0" d="M117.0078 244.8833 C117.0260 237.3392 116.6740 229.6740 117.3257 222.1560 C119.9902 192.9837 131.3955 165.2943 150.0500 142.7085 C153.4120 138.7027 157.3517 135.0638 161.0575 131.3765 C186.8290 105.7330 223.8700 91.0335 260.1750 91.1353 C296.3750 91.2697 331.0675 105.6555 356.7425 131.1785 C362.9300 137.4065 368.4575 144.5390 373.2800 151.8680 C389.3450 176.2915 396.2250 202.7047 396.0225 231.7845 C395.9925 236.1360 395.4125 240.6555 395.6625 244.9830 C394.1700 245.0513 392.6500 245.0692 391.1650 245.2165 C385.5050 251.6950 384.6900 261.8025 383.8550 270.0100 C383.4125 274.3450 382.9100 278.5025 383.2000 282.8725 C383.5925 288.8300 384.6475 310.8350 388.8200 314.1875 C389.6125 314.8225 390.5575 315.1575 391.5050 315.4925 C391.6100 320.0850 391.2800 324.5775 391.1150 329.1600 C390.9625 333.3725 390.9800 337.5925 390.8650 341.8075 C390.4400 357.3950 390.5125 371.9400 395.7850 386.8625 C398.3325 393.8825 401.4475 400.6825 405.0975 407.1975 C406.4350 409.5525 408.1850 411.7300 409.3775 414.1575 C409.7675 414.9525 410.3100 415.9375 410.0900 416.8375 C409.6525 417.1625 409.8725 417.1225 409.3075 417.0250 C406.8550 416.6000 395.6600 410.0225 392.3450 408.3250 C382.3175 403.1900 350.8875 391.2550 339.8950 392.1625 C332.0350 392.8125 324.0450 396.8350 317.4975 401.0425 C309.7575 406.0125 296.7850 418.1475 288.9175 420.0975 C286.9250 420.5925 285.0975 420.3600 283.1250 419.9350 C269.8150 417.0575 259.1775 408.9475 249.0730 400.2950 C245.6398 397.3550 242.3675 394.0400 238.2725 392.0150 C222.5898 393.0275 211.6945 399.5100 201.5762 411.1350 C199.2005 413.8650 197.4390 417.0600 195.0222 419.7525 C191.6045 416.4025 188.5907 412.6850 184.9710 409.5300 C177.6935 403.1900 166.8820 399.7450 157.3183 399.8125 C140.6100 399.9300 124.4175 406.1350 110.9000 415.7350 C109.8402 416.4875 107.2690 418.6500 106.0270 417.9750 C105.8640 415.7750 107.1533 413.0000 107.9778 410.9850 C112.9212 398.8975 116.2993 385.9450 119.2775 373.2475 C123.6992 354.3950 126.6465 334.2725 126.1973 314.8875 C125.5320 314.5775 125.0688 314.3650 124.7030 313.7025 C123.8350 312.1300 124.6385 310.0875 125.0807 308.4925 C125.9102 304.6150 126.9590 300.8125 127.5025 296.8750 C127.9608 293.5550 127.9895 290.2150 128.2722 286.8800 C128.4883 284.3375 128.9243 281.7725 128.9388 279.2175 C128.9823 271.5575 127.2907 254.2600 123.2812 248.0110 C122.4795 246.7612 121.5063 245.8922 120.3140 245.0285 C119.2085 244.9425 118.1180 244.8455 117.0078 244.8833 Z"></path>
<path id="" fill="#fbfcfc" fill-opacity="1.0" stroke="#000000" stroke-width="0.0" stroke-opacity="1.0" stroke-linecap="round" stroke-linejoin="round"  filling="0" d="M125.0807 308.4925 C125.7570 308.8600 125.9688 308.9700 126.1660 309.7325 C126.5570 311.2475 126.3748 313.3425 126.1973 314.8875 C125.5320 314.5775 125.0688 314.3650 124.7030 313.7025 C123.8350 312.1300 124.6385 310.0875 125.0807 308.4925 Z"></path>
<path id="" fill="#e5e8ec" fill-opacity="1.0" stroke="#000000" stroke-width="0.0" stroke-opacity="1.0" stroke-linecap="round" stroke-linejoin="round"  filling="0" d="M197.4130 163.0865 C215.7648 161.3322 232.0490 174.8225 233.7397 193.1803 C235.4305 211.5378 221.8840 227.7755 203.5208 229.4028 C185.2467 231.0222 169.1055 217.5560 167.4230 199.2880 C165.7405 181.0197 179.1508 164.8320 197.4130 163.0865 Z"></path>
<path id="" fill="#e5e8ec" fill-opacity="1.0" stroke="#000000" stroke-width="0.0" stroke-opacity="1.0" stroke-linecap="round" stroke-linejoin="round"  filling="0" d="M303.2850 163.1438 C321.6675 161.1673 338.1425 174.5493 339.9750 192.9485 C341.8050 211.3477 328.2950 227.7155 309.8825 229.4032 C291.6725 231.0725 275.5250 217.7430 273.7125 199.5468 C271.9000 181.3508 285.1025 165.0985 303.2850 163.1438 Z"></path>
</svg>