<svg xmlns="http://www.w3.org/2000/svg" viewBox="0 0 512 512" height="512.0px" width="512.0px">
<path id="" fill="#434a54" fill-opacity="1.0" stroke="#000000" stroke-width="0.0" stroke-opacity="1.0" stroke-linecap="round" stroke-linejoin="round"  filling="0" d="M367.5525 152.7190 C367.6800 152.7325 367.8100 152.7315 367.9375 152.7592 C368.2950 152.8385 368.5925 152.9285 368.7675 153.2630 C371.2875 158.1165 357.1375 202.1743 354.9775 209.9017 C353.6875 214.5172 352.6775 219.1938 351.5100 223.8395 C346.3350 244.4648 343.2000 262.8550 350.6875 283.5050 C353.0425 290.0000 356.4925 296.6775 360.8475 302.0875 C369.3625 312.6700 378.6825 320.0500 385.5625 332.3575 C392.1550 344.1525 395.0150 356.9875 396.3975 370.3125 C396.9075 375.2250 397.3275 380.2750 396.9725 385.2125 C396.6650 389.4825 395.7775 393.9300 394.5925 398.0425 C392.0450 406.8875 385.5550 417.7500 379.0700 424.2875 C373.2525 430.1500 363.5300 436.5050 356.2775 440.4925 C351.6850 443.0150 346.9550 444.9950 342.0900 446.9225 C307.0250 460.8175 265.6850 462.4825 228.4473 459.6300 C211.9170 458.3650 195.0760 456.2225 179.1277 451.5600 C160.8210 446.2100 141.7060 437.7525 129.3922 422.6125 C126.0283 418.4775 123.4405 413.9225 120.8860 409.2675 C115.7250 397.1325 114.8192 388.7350 114.9853 375.7275 C115.1328 364.1750 116.8550 352.4850 121.3925 341.7850 C125.5425 332.0000 131.8297 323.7350 137.7038 314.9650 C141.0965 309.8975 144.3333 304.5850 146.9512 299.0725 C152.1050 288.2200 156.5095 273.3225 157.0585 261.2475 C158.0383 239.7000 146.2515 205.8685 139.9883 184.5675 C138.1313 178.2525 133.3732 162.2230 134.1252 156.0235 C134.1992 155.4133 134.2480 155.1418 134.7408 154.7410 C135.4770 154.6495 136.0013 154.6582 136.7083 154.9082 C141.6120 156.6427 152.9620 169.5225 157.3885 174.0233 C177.7357 194.7122 200.1450 217.0858 228.4100 226.2645 C236.5675 228.9135 244.7915 229.8030 253.3350 229.8870 C274.0550 230.0905 293.4700 222.0677 309.7175 209.5340 C313.7950 206.3890 317.4100 202.9382 321.2300 199.5098 C326.5850 194.7055 331.7675 189.8825 336.7375 184.6695 C338.6600 182.6545 340.3475 180.4492 342.2200 178.3967 C344.1025 176.3367 346.1225 174.4040 348.0300 172.3680 C353.1600 166.8880 361.3275 155.9077 367.5525 152.7190 Z"></path>
<path id="" fill="#d36781" fill-opacity="1.0" stroke="#000000" stroke-width="0.0" stroke-opacity="1.0" stroke-linecap="round" stroke-linejoin="round"  filling="0" d="M197.1293 290.1100 C204.9070 289.8550 212.7185 289.9950 220.5002 289.9950 L259.5550 290.0000 L297.0375 290.0000 C303.2350 290.0000 309.4900 289.8025 315.6800 290.0075 C317.0500 290.0525 318.7375 290.0475 319.9525 290.7225 C321.8525 291.7775 323.4125 293.7675 323.9925 295.8400 C325.5175 301.2825 324.8050 313.7050 324.8000 319.7325 L324.7975 355.0900 L324.8375 377.7000 C324.8475 381.9250 325.1100 386.3100 324.7250 390.5150 C324.5900 391.9925 323.8750 393.6375 323.1100 394.8975 C321.7375 397.1550 319.9475 398.2225 317.4300 398.8250 C307.4450 399.1075 297.4200 398.9025 287.4300 398.8950 L235.1543 398.8800 L210.4470 398.9250 C206.2762 398.9375 201.4065 399.4000 197.2985 398.6900 C194.1665 398.1450 192.0365 395.8325 190.2835 393.3675 C189.7510 387.1575 190.0245 380.7950 190.0240 374.5625 L190.0230 342.5975 L190.0002 313.4250 C189.9920 308.0225 189.6825 302.3975 190.1407 297.0200 C190.2693 295.5125 190.5762 294.3500 191.5143 293.1325 C192.9380 291.2825 194.8730 290.4200 197.1293 290.1100 Z"></path>
<path id="" fill="#d36781" fill-opacity="1.0" stroke="#000000" stroke-width="0.0" stroke-opacity="1.0" stroke-linecap="round" stroke-linejoin="round"  filling="0" d="M234.1792 51.1005 C236.4495 50.8445 238.8905 50.9985 241.1785 51.0020 L253.8900 51.0287 L268.3125 51.0060 C271.7200 50.9980 275.1750 50.8840 278.5650 51.3110 C281.0150 51.6200 283.2400 52.3035 285.3700 53.5677 C289.3650 55.9380 292.6600 59.7080 293.7250 64.3033 C294.3925 67.1963 294.3425 87.2660 293.8225 90.4993 C293.4800 92.6415 292.7750 94.6530 291.6100 96.4908 C288.3475 101.6445 283.7000 103.9498 277.9000 105.2405 C278.2950 111.4857 278.0450 117.8492 278.0450 124.1097 L278.0400 157.9195 L277.9750 264.0325 C277.9750 266.8300 278.2950 288.9700 277.9025 290.0775 L277.4700 290.1850 C272.0025 289.8400 266.4200 290.0550 260.9400 290.0550 C251.6975 290.0200 242.4538 290.0575 233.2110 290.1650 L233.1650 166.8522 L233.1532 128.8215 C233.1512 121.1195 232.8970 113.3160 233.4467 105.6342 C230.0392 105.3875 226.3752 103.9782 223.7035 101.8192 C219.8910 98.7390 217.6890 94.0400 217.2043 89.2240 C216.8335 85.5417 216.9880 81.7500 216.9890 78.0512 C216.9913 70.4503 216.1750 63.3625 221.4048 57.1187 C224.7540 53.1200 229.1140 51.5672 234.1792 51.1005 Z"></path>
<path id="" fill="#e6e8ec" fill-opacity="1.0" stroke="#000000" stroke-width="0.0" stroke-opacity="1.0" stroke-linecap="round" stroke-linejoin="round"  filling="0" d="M220.6965 353.3025 C226.1263 353.0500 231.6100 353.2050 237.0473 353.2050 L266.2900 353.2075 L285.0725 353.1900 C288.9175 353.1875 292.9125 352.9750 296.7275 353.4750 C297.0375 356.4650 297.3925 379.7925 296.6900 381.0150 C285.6150 380.8200 274.5125 380.9625 263.4325 380.9625 L220.1705 381.0425 C220.2993 376.6350 219.4028 355.6025 220.6965 353.3025 Z"></path>
<path id="" fill="#e6e9ec" fill-opacity="1.0" stroke="#000000" stroke-width="0.0" stroke-opacity="1.0" stroke-linecap="round" stroke-linejoin="round"  filling="0" d="M220.9765 312.8800 C246.2975 312.5950 271.6725 312.9525 297.0000 312.9275 C296.7200 321.9525 297.1900 331.0100 296.9400 340.0375 C286.3125 339.8525 275.6600 339.9925 265.0300 339.9925 L220.1922 340.0500 L220.1510 322.5475 C220.1460 319.5775 219.7832 316.0525 220.3802 313.1550 L220.9765 312.8800 Z"></path>
</svg>