<svg xmlns="http://www.w3.org/2000/svg" viewBox="0 0 512 512" height="512.0px" width="512.0px">
<path id="" fill="#5c99e9" fill-opacity="1.0" stroke="#000000" stroke-width="0.0" stroke-opacity="1.0" stroke-linecap="round" stroke-linejoin="round"  filling="0" d="M87.6552 51.7227 C89.4197 51.8250 90.9215 53.1662 92.1882 54.2957 C95.4885 57.2390 98.3497 60.7420 101.4572 63.8932 L121.0178 83.4710 L193.4820 157.0067 C194.4848 155.8378 195.2305 154.4312 196.2843 153.3073 C197.1525 152.3808 198.4193 151.5250 199.7625 151.6880 C200.7518 151.8080 201.9095 152.7218 202.6723 153.3188 C204.5742 154.8065 206.2337 156.6270 208.0663 158.2045 L221.3598 169.5972 C228.4840 175.7735 235.7615 181.8690 242.7182 188.2303 C245.0352 190.3490 247.1662 192.6687 249.4775 194.7960 C253.1000 198.1305 256.8000 201.1915 260.2675 204.7095 C264.9725 201.5372 271.1925 194.0592 275.6100 189.8607 C277.9775 187.6107 280.5650 185.6133 282.9600 183.3985 C284.8975 181.6093 286.7125 179.6930 288.6500 177.9048 C296.0775 171.1187 303.6150 164.4535 311.2575 157.9115 C313.5700 155.9057 315.6225 153.5690 317.9550 151.6158 C318.2925 151.3320 318.6625 151.0952 319.0950 150.9815 C321.3000 150.4032 322.4525 153.6805 324.1725 154.3952 C326.3175 155.2860 329.7200 150.8585 331.1675 149.3322 C333.4100 146.9685 335.3925 144.3975 337.5750 141.9875 L358.6300 118.8002 L402.1300 72.3380 C404.1050 70.1980 405.8825 67.8795 407.8325 65.7162 C410.1000 63.1998 412.6150 60.9120 414.9450 58.4535 C416.6550 56.6463 418.1600 54.5845 419.9725 52.8822 C420.3500 52.5262 420.7650 52.2365 421.2600 52.0690 C422.9100 51.5110 425.0600 51.7835 426.6050 52.5315 C429.1200 53.7485 439.0025 64.5255 441.9325 67.2957 C446.5025 71.6202 451.2825 75.5395 455.6775 80.0910 C456.5725 81.0153 457.7075 82.0218 458.1100 83.2750 C458.1750 83.4705 458.2250 83.6703 458.2600 83.8730 C458.4200 84.7702 458.3500 85.4220 457.8225 86.1795 C455.9100 88.9285 453.3375 91.1665 451.1100 93.6530 L433.4900 113.2400 L385.7400 164.9588 C383.5850 167.2870 381.6425 169.8078 379.4675 172.1210 L365.8725 186.6313 C364.4200 188.1830 361.9625 190.0650 361.0625 191.9297 C360.1600 193.8038 364.6800 196.4487 365.1525 198.4532 C365.3125 199.1340 365.2625 199.6512 364.9300 200.2685 C363.9100 202.1565 359.6000 206.0788 357.9500 207.9905 C352.5500 214.2515 346.8750 220.2930 341.3200 226.4173 C335.8600 232.4888 330.4675 238.6203 325.1400 244.8105 C322.3875 247.9688 317.9025 252.0625 315.8775 255.4800 L315.6925 255.7975 C315.7575 255.8400 315.8200 255.8800 315.8825 255.9250 L316.1925 256.1425 C319.1525 258.2150 321.7150 261.1950 324.3550 263.6700 C326.3075 265.5000 328.4200 267.1500 330.3950 268.9550 C332.4325 270.8150 334.3425 272.8100 336.3525 274.6975 L374.4775 309.8425 L433.6375 363.9875 L446.8775 376.1600 C451.4250 380.2575 456.0700 383.9500 459.9600 388.7325 C459.9775 388.9475 459.9925 389.1600 460.0050 389.3750 C460.1975 393.5500 460.0600 397.7925 460.0575 401.9750 L460.0500 424.6050 L460.0675 438.3400 C460.0725 440.6775 460.2700 443.2500 459.9275 445.5575 C459.6325 447.5375 458.6900 448.8600 457.3775 450.2875 C454.4200 451.3675 451.1350 451.5625 448.0200 451.9450 C443.7200 452.6650 439.2225 452.8475 434.8800 453.3350 L410.1625 456.2650 C405.6675 456.7800 401.1525 457.1075 396.6725 457.7475 C394.9175 457.0050 393.5200 456.0025 392.1550 454.6850 C388.1425 450.8125 384.1075 446.8050 380.3350 442.6975 C378.2950 440.4750 376.4025 438.1200 374.3600 435.9000 C371.3325 432.6100 368.0150 429.5800 364.9375 426.3350 C362.6325 423.9025 360.5500 421.2650 358.2725 418.8075 L311.2825 368.8150 C308.0750 365.3725 304.5850 362.1950 301.3925 358.7400 C299.2625 356.4350 297.3025 353.9775 295.1600 351.6850 C292.8450 349.2075 290.3450 346.9050 288.0600 344.3975 C285.8350 341.9525 283.7800 339.3425 281.4850 336.9625 C278.2925 333.6475 274.9250 330.5000 271.7575 327.1600 C269.6950 324.9875 267.8000 322.6525 265.8175 320.4075 C264.5175 318.9375 263.0875 317.6050 261.8700 316.0600 C253.5100 326.9225 243.7802 336.7900 234.7470 347.1100 C214.9998 369.7800 195.1055 392.3225 175.0655 414.7350 C171.5190 418.7300 168.1500 422.8800 164.5970 426.8675 C162.0903 429.6800 159.4108 432.2900 156.9518 435.1575 C151.3995 441.6300 139.7068 456.5675 133.1615 461.0000 C133.0005 461.0050 132.8398 461.0100 132.6788 461.0100 C129.4492 461.0375 126.0478 460.3750 122.8473 459.9675 L106.2103 457.9075 L83.9398 455.3225 C80.2137 454.8750 76.3568 454.5775 72.6870 453.8050 C71.0883 453.4675 69.2353 452.9350 68.0813 451.7175 C67.3450 450.9375 67.2740 450.1825 67.1642 449.1325 C66.4940 442.7175 66.9830 435.0750 66.9828 428.5400 L67.0305 388.9875 C70.0883 383.7775 79.7592 376.6475 84.3118 372.1600 C88.5847 367.9475 92.7077 363.5550 97.0735 359.4425 C100.0587 356.6300 103.2620 354.0550 106.2177 351.2075 C109.8675 347.6925 113.3285 343.9775 117.0125 340.4975 C119.5573 338.0950 122.3530 335.9725 124.8850 333.5550 C128.6687 329.9400 132.2218 326.0800 136.0233 322.4825 C138.4770 320.1625 141.1815 318.1175 143.6375 315.7975 C147.8655 311.8025 151.7945 307.4875 156.0190 303.4875 C158.6913 300.9550 161.6492 298.7450 164.2838 296.1700 C168.6013 291.9525 172.7350 287.5175 177.1265 283.3800 C179.7145 280.9400 182.5790 278.8075 185.1415 276.3375 C189.0992 272.5275 192.7713 268.3725 196.8237 264.6675 C198.8197 262.8400 201.1447 261.3550 203.0677 259.4600 C203.7545 258.7825 204.2095 258.2550 204.3067 257.2650 C204.4122 256.1950 203.9125 255.5600 203.2923 254.7475 C198.9662 249.0887 193.6402 244.3893 188.8017 239.2057 C182.8372 232.8155 177.1122 226.1747 171.2040 219.7323 C169.2352 217.5855 167.0842 215.5975 165.0688 213.4925 C161.6772 209.9505 158.2830 206.1057 155.1232 202.3578 C154.7112 198.3080 155.7300 195.0618 156.4617 191.1492 C153.8505 188.0193 150.7365 185.1962 147.8557 182.3120 C141.8485 176.2973 135.7500 170.3537 129.8340 164.2507 L72.9677 104.4772 C70.3375 101.6917 67.5307 99.0740 64.8928 96.2945 C62.9620 94.2603 61.2050 92.0715 59.3167 89.9993 C57.8343 88.3725 55.7765 86.6395 54.7820 84.6790 C55.2142 83.5583 56.0755 82.5675 56.8660 81.6752 C61.8170 76.0883 67.5245 70.9040 72.8100 65.6195 C77.0132 61.4170 81.2312 56.5370 85.8528 52.8203 C86.4150 52.3680 87.0025 52.0247 87.6552 51.7227 Z"></path>
<path id="" fill="#ec5365" fill-opacity="1.0" stroke="#000000" stroke-width="0.0" stroke-opacity="1.0" stroke-linecap="round" stroke-linejoin="round"  filling="0" d="M215.8687 114.2890 C215.9490 114.2855 216.0290 114.2807 216.1090 114.2780 C217.2077 114.2408 218.1925 114.3940 219.2450 114.6963 C223.2285 115.8412 227.1470 117.7490 230.9980 119.2930 C234.4498 120.6768 238.0482 121.8250 241.4198 123.3838 C242.7513 123.9995 244.2498 124.7440 245.3172 125.7613 C246.9928 127.3582 248.1102 129.5295 248.1220 131.8732 C248.1310 133.7117 247.3820 135.6053 246.2580 137.0435 C243.6225 140.4162 240.1562 143.4400 237.1288 146.4680 L217.1978 166.2122 L141.9353 241.6615 C139.8663 243.7668 137.5610 246.1033 134.7038 247.0700 C132.7095 247.7448 130.5038 247.6535 128.6337 246.6605 C127.0488 245.8188 125.8255 244.4823 124.8930 242.9670 C122.9798 239.8575 122.0527 236.1138 120.7460 232.7182 C118.9835 228.1380 116.8463 223.4702 115.5165 218.7500 C115.0535 217.1060 114.5710 214.5505 115.5015 213.0000 C118.0428 208.7657 122.3210 205.2095 125.8012 201.7287 L144.9725 182.7705 L183.5385 144.1552 C189.2570 138.2820 195.0302 132.4622 200.8578 126.6973 C203.8943 123.6617 206.8658 120.4575 210.0672 117.5997 C211.7867 116.0650 213.6198 114.8867 215.8687 114.2890 Z"></path>
<path id="" fill="#eb5365" fill-opacity="1.0" stroke="#000000" stroke-width="0.0" stroke-opacity="1.0" stroke-linecap="round" stroke-linejoin="round"  filling="0" d="M296.7450 117.0440 C298.8875 117.0042 300.6025 117.6365 302.3275 118.8955 C307.9475 122.9945 312.7500 128.3367 317.7275 133.1775 C320.7875 136.1550 324.0750 138.8575 327.1575 141.8008 C330.9325 145.4050 334.5175 149.2070 338.3200 152.7835 L373.9025 186.3250 L391.5200 202.9280 C393.4775 204.7793 395.6925 206.4190 397.5675 208.3418 C398.7575 209.5625 400.4550 211.8528 400.6825 213.5720 C400.8600 214.9052 400.5950 216.3370 400.2650 217.6293 C399.1700 221.9068 392.5475 239.5777 390.1500 242.5448 C388.9050 244.0867 387.0175 245.0230 385.0575 245.2105 C381.5200 245.5493 378.1875 244.1015 375.4725 241.9585 C372.0675 239.0195 369.0425 235.4843 365.7700 232.3712 C362.9125 229.6550 359.9200 227.0920 357.0900 224.3443 C347.5075 215.0352 338.2075 205.4337 328.6350 196.1145 L288.8300 157.4160 C283.1450 151.9277 277.1400 146.8008 271.6650 141.0785 C270.1950 139.5408 268.7450 138.0060 268.1325 135.9085 C267.4975 133.7233 267.7875 130.9370 268.9650 128.9755 C269.8000 127.5855 271.0375 126.6510 272.4275 125.8662 C276.0950 123.7968 280.5000 122.5915 284.4550 121.1738 C288.4725 119.7328 292.5725 117.9673 296.7450 117.0440 Z"></path>
<path id="" fill="#eb5365" fill-opacity="1.0" stroke="#000000" stroke-width="0.0" stroke-opacity="1.0" stroke-linecap="round" stroke-linejoin="round"  filling="0" d="M79.8163 114.0332 C74.0405 113.7353 63.4575 114.9195 58.5070 113.5157 C56.7305 113.0123 55.2055 112.1158 53.9552 110.7467 C53.0120 109.7133 52.4660 108.4890 52.2515 107.1137 C51.8282 104.4005 51.9778 101.4652 51.9763 98.7168 L51.9770 86.3555 L51.9885 69.2230 C51.9888 65.7325 51.8652 62.1995 52.1217 58.7180 C52.2980 56.3278 53.2448 54.6830 55.0807 53.1005 C56.1622 52.1687 57.4447 51.4665 58.8680 51.2498 C61.6440 50.8273 64.6248 51.0038 67.4330 51.0023 L81.3295 51.0092 L96.5245 51.0063 C99.6745 51.0050 102.9060 50.8745 106.0428 51.1868 C108.4048 51.4218 110.4995 52.3110 111.9890 54.2097 C116.3100 59.7175 112.7663 70.3463 114.3678 77.0165 C114.9628 79.4945 114.0560 83.5790 114.0178 86.3285 C113.9622 90.1515 113.9560 93.9747 113.9993 97.7980 C114.0280 100.3408 114.2170 103.0130 113.9575 105.5367 C113.8058 107.0137 113.5305 108.4060 112.7445 109.6905 C111.4698 111.7740 109.1947 113.1570 106.8475 113.6960 C102.8190 114.6210 90.2538 114.0298 85.2473 114.0323 C85.2305 114.9373 85.2598 115.7585 84.9232 116.6097 C84.3615 117.1008 84.3343 117.0880 83.5850 117.1353 C82.0545 116.5443 80.9048 115.2182 79.8163 114.0332 Z"></path>
<path id="" fill="#5c99e9" fill-opacity="1.0" stroke="#000000" stroke-width="0.0" stroke-opacity="1.0" stroke-linecap="round" stroke-linejoin="round"  filling="0" d="M79.8163 114.0332 C81.4400 113.6980 83.6305 113.6260 85.2473 114.0323 C85.2305 114.9373 85.2598 115.7585 84.9232 116.6097 C84.3615 117.1008 84.3343 117.0880 83.5850 117.1353 C82.0545 116.5443 80.9048 115.2182 79.8163 114.0332 Z"></path>
<path id="" fill="#eb5365" fill-opacity="1.0" stroke="#000000" stroke-width="0.0" stroke-opacity="1.0" stroke-linecap="round" stroke-linejoin="round"  filling="0" d="M429.9000 112.6862 C425.0775 113.0088 409.7200 113.6447 405.3900 112.7827 C403.8850 112.4835 402.4025 111.8622 401.2450 110.8408 C398.8175 108.6995 398.3300 105.2957 398.2250 102.2305 C397.8875 92.4285 397.9625 82.5715 397.8050 72.7665 C397.7375 68.5327 396.8850 63.6050 397.5575 59.4498 C397.8550 57.6102 398.8925 55.8698 400.1650 54.5363 C401.5875 53.0432 403.2225 52.7502 405.1975 52.4453 C411.4600 51.4782 419.7650 52.0070 426.2025 51.9450 C433.6125 51.8740 441.0100 51.4045 448.4225 51.3867 C451.8150 51.3785 454.0325 51.4393 456.5925 53.9637 C457.3900 54.7490 458.4150 55.8172 458.6875 56.9330 C459.5475 60.4605 459.0925 64.9670 459.2300 68.6413 C459.6275 79.4027 460.0250 90.1530 460.0125 100.9258 C460.0100 103.8857 459.9625 107.3045 457.7025 109.4733 C453.1175 113.8780 441.0775 111.8705 434.7275 112.7060 C433.9425 113.4715 433.0525 114.2928 432.1075 114.8568 C431.4975 115.2195 431.1950 115.1865 430.5350 115.0137 C429.9200 114.3440 429.9700 113.5468 429.9000 112.6862 Z"></path>
<path id="" fill="#5c99e9" fill-opacity="1.0" stroke="#000000" stroke-width="0.0" stroke-opacity="1.0" stroke-linecap="round" stroke-linejoin="round"  filling="0" d="M429.9000 112.6862 C431.3150 112.5450 433.3500 112.3355 434.7275 112.7060 C433.9425 113.4715 433.0525 114.2928 432.1075 114.8568 C431.4975 115.2195 431.1950 115.1865 430.5350 115.0137 C429.9200 114.3440 429.9700 113.5468 429.9000 112.6862 Z"></path>
</svg>