<svg xmlns="http://www.w3.org/2000/svg" viewBox="0 0 512 512" height="512.0px" width="512.0px">
<path id="" fill="#eac6bb" fill-opacity="1.0" stroke="#000000" stroke-width="0.0" stroke-opacity="1.0" stroke-linecap="round" stroke-linejoin="round"  filling="0" d="M228.1342 51.0967 C231.0115 50.7130 234.1965 51.3700 237.0800 51.6090 C240.6190 51.9025 244.1922 52.0058 247.7177 52.4263 C256.1000 53.4255 264.5700 55.4447 272.6600 57.8268 C280.3800 60.0995 287.8600 63.3582 295.0425 66.9590 C316.3650 77.6445 335.0725 92.4073 349.1675 111.7865 C353.1825 117.3058 356.5650 123.5910 359.8225 129.5900 C367.3125 143.3945 371.7550 160.5445 372.9175 176.1797 C373.1900 179.8820 373.1025 183.6180 373.0950 187.3282 C373.0775 196.6655 372.5825 204.1093 369.9075 213.1095 C372.3375 215.9015 373.5000 219.6770 375.0750 222.9902 L383.1275 240.1127 C385.1200 244.2737 387.2850 248.3525 389.2850 252.5100 C390.5575 255.1550 391.6225 257.8950 392.8625 260.5550 C394.6775 264.4400 396.7300 268.2125 398.5575 272.0900 C400.3850 275.9625 402.0125 279.9500 403.7725 283.8575 C406.0100 288.8250 408.8775 293.7800 410.6125 298.9325 C392.1125 299.4050 373.5250 299.0350 355.0150 299.0300 C355.0250 299.6025 355.0300 300.1750 355.0325 300.7475 L355.0775 341.2500 C355.0800 347.5525 355.7425 358.8675 354.4125 364.4575 C353.6100 367.8225 351.1775 371.3500 348.7450 373.7725 C341.9775 380.5075 335.6600 380.0825 326.8200 380.0450 L313.0150 380.0300 C313.4350 406.7700 313.0650 433.5700 313.0625 460.3125 C298.6825 458.1050 284.3675 454.9500 270.0850 452.1775 C259.3325 450.4850 248.6828 447.9450 237.9868 445.9125 L153.6998 429.6625 C150.3755 429.0325 131.4945 426.2750 130.3000 425.1225 C129.5833 421.8750 129.9655 417.8850 129.9668 414.5475 L129.9742 395.7825 L129.9520 319.7075 C127.5915 316.4950 124.0383 314.3550 121.1183 311.6850 C118.4088 309.2100 116.0688 306.2700 113.6805 303.4875 C94.2360 281.1600 81.6920 253.6675 77.5717 224.3492 C71.9962 183.9807 82.9767 143.0728 108.0178 110.9222 C130.7153 81.5865 163.2440 61.4350 199.6180 54.1763 C209.0885 52.3240 218.6178 52.3245 228.1342 51.0967 Z"></path>
<path id="" fill="#434a54" fill-opacity="1.0" stroke="#000000" stroke-width="0.0" stroke-opacity="1.0" stroke-linecap="round" stroke-linejoin="round"  filling="0" d="M391.3850 83.0997 C398.4375 82.5883 406.0775 84.2565 412.5000 87.1320 C422.1825 91.4673 429.3450 99.0490 433.0900 108.9585 C434.7650 113.3920 435.6100 117.9060 435.9050 122.6275 C436.5225 132.5250 436.0575 142.6873 436.0575 152.6185 L436.0600 208.8058 L436.0675 255.6300 C436.0725 263.4050 436.5625 272.2975 435.9075 279.9525 C435.4625 285.1850 434.1025 289.8325 431.9550 294.5950 C427.1650 305.2250 420.3850 311.5225 409.4125 315.6325 C399.4725 319.3550 386.9175 318.9625 377.2475 314.5250 C367.2900 309.8825 359.6150 301.4300 355.9550 291.0700 C354.8475 288.0250 354.4000 284.7950 353.2650 281.7700 L353.1425 281.4475 C336.5450 285.2725 320.6400 284.1775 304.5750 278.6400 C287.4500 272.7350 272.4100 259.9075 262.7925 244.6900 C260.6225 241.2603 258.8825 237.6465 257.1125 234.0025 L137.5410 234.0310 L102.2900 234.0307 C95.9178 234.0312 89.3177 233.6700 82.9765 234.2040 C83.2135 226.9575 83.0963 219.5298 82.9003 212.2815 C89.8905 212.1158 96.8828 212.0488 103.8750 212.0802 L201.2915 212.0770 L232.2663 212.0640 C238.5282 212.0623 244.8692 211.8745 251.1175 212.2328 C249.8297 202.5833 250.0425 192.9780 252.0600 183.4408 C241.0517 183.6385 230.0405 183.7020 219.0298 183.6313 L167.8913 183.6280 C139.7348 183.6118 111.4922 184.1080 83.3470 183.4505 C82.5082 181.8355 82.9930 164.7395 82.8863 161.3828 C92.2540 160.9823 101.6290 161.0595 111.0030 161.0570 L147.3650 161.0542 L259.6575 161.0745 C261.7550 158.8260 263.2425 156.1220 264.8975 153.5473 C266.7025 150.7397 268.7000 147.9670 270.9450 145.4953 C283.7375 131.4218 299.6525 122.6665 318.2475 118.9252 C323.1675 117.9352 328.4525 117.0935 333.4750 117.2015 C337.2700 117.2832 340.9475 117.7250 344.6825 118.3708 C347.3425 118.8307 350.5025 119.8027 353.1600 119.6873 C353.7350 119.0805 355.9175 110.0580 356.6800 108.1430 C358.1800 104.3840 360.2925 100.6530 362.8925 97.5453 C370.0175 89.0325 380.4125 84.1050 391.3850 83.0997 Z"></path>
<path id="" fill="#646c77" fill-opacity="1.0" stroke="#000000" stroke-width="0.0" stroke-opacity="1.0" stroke-linecap="round" stroke-linejoin="round"  filling="0" d="M325.6925 160.1777 C347.6000 156.0533 368.7275 170.3992 372.9725 192.2843 C377.2150 214.1690 362.9875 235.3728 341.1250 239.7380 C319.0925 244.1373 297.6875 229.7722 293.4100 207.7165 C289.1325 185.6608 303.6150 164.3345 325.6925 160.1777 Z"></path>
</svg>