<svg xmlns="http://www.w3.org/2000/svg" viewBox="0 0 512 512" height="512.0px" width="512.0px">
<path id="" fill="#1a1a1a" fill-opacity="1.0" stroke="#000000" stroke-width="0.0" stroke-opacity="1.0" stroke-linecap="round" stroke-linejoin="round"  filling="0" d="M295.4150 106.1055 C297.8075 105.7783 300.5175 105.8952 302.9375 105.9622 C316.5200 106.3385 329.4050 110.3943 341.0600 117.2630 C357.6100 127.0170 369.4075 142.2928 375.5750 160.3943 C376.6625 163.5883 377.4250 166.9223 378.2675 170.1880 C382.6750 169.0273 387.5800 168.6172 392.1225 168.6302 C408.9675 168.6780 427.8900 176.2563 439.8425 188.3288 C453.3425 201.9043 460.8900 220.2910 460.8200 239.4362 C460.6775 253.9000 456.2850 267.2025 448.5450 279.3575 C445.9750 283.3950 442.9325 287.5300 439.4750 290.8575 C430.8250 299.1775 419.0750 305.5500 407.3500 308.1325 C397.5175 310.2975 387.2725 309.7350 377.2725 309.7250 L346.1275 309.7050 L289.0025 309.7000 C279.8675 309.7100 270.7125 309.9325 261.5800 309.7875 C257.8225 307.5050 254.8000 303.7900 250.8875 301.8400 C250.3000 301.5475 249.7175 301.4625 249.0697 301.4275 C244.8607 301.2050 240.4475 301.5825 236.2188 301.6425 C232.2685 301.6975 228.2370 301.4375 224.3062 301.7700 C224.0065 296.4150 224.0780 291.0925 224.1777 285.7325 C230.4045 285.7775 253.3900 284.6150 257.8700 286.0600 C261.6800 287.2900 263.9900 292.2200 267.8600 292.7650 C271.7150 293.3100 279.0775 292.6100 283.4025 292.6025 L323.6875 292.6275 L376.4000 292.6200 C384.5600 292.6300 393.8550 293.4900 401.8425 292.3000 C408.4025 291.3225 415.0575 289.1175 420.5050 285.2725 C432.5475 276.7750 441.2400 264.2750 443.7575 249.6340 C446.2300 235.2630 443.3225 219.5943 434.8150 207.6530 C426.7475 196.3300 414.5925 187.7385 400.7325 185.4865 C389.3750 183.6407 373.5150 186.1640 364.0875 193.0210 C363.9950 190.1855 363.8700 187.3510 363.7125 184.5182 C362.5550 164.6228 355.2750 149.7095 340.3275 136.5603 C328.1375 125.8362 312.5150 121.3587 296.4800 122.4065 C280.3450 123.4610 265.8125 132.0715 255.3675 144.1195 C245.7475 155.2182 239.9695 170.2380 240.9597 184.9975 C235.4198 185.3190 229.8822 184.9990 224.3448 185.1770 C223.4625 165.7767 231.3242 146.8678 243.7195 132.2413 C256.0000 117.7507 276.5825 107.7238 295.4150 106.1055 Z"></path>
<path id="" fill="#00b269" fill-opacity="1.0" stroke="#000000" stroke-width="0.0" stroke-opacity="1.0" stroke-linecap="round" stroke-linejoin="round"  filling="0" d="M219.9095 123.6115 C221.2325 123.4475 222.6955 123.5128 224.0343 123.5030 C230.6048 123.4553 237.4373 125.0420 243.7413 126.8180 C245.7012 127.3702 247.7962 127.3455 249.6877 127.9417 C261.5300 131.6752 272.0925 139.6008 280.8225 148.2878 C294.4250 161.8245 303.1950 182.8522 303.2650 201.9973 C309.1575 200.4393 315.7275 199.5640 321.8300 199.5595 C341.5975 199.5450 362.7275 208.1335 376.7050 222.0935 C390.7400 235.8952 398.6250 254.7675 398.5800 274.4525 C398.5775 284.1725 396.4775 296.5250 392.3050 305.3825 C391.0125 308.1225 389.2200 310.7325 387.6575 313.3300 C384.1625 319.1400 380.3500 324.2950 375.5400 329.0925 C361.9650 342.6375 344.1775 349.9075 325.2150 351.4875 C314.9100 352.3450 304.2200 351.9025 293.8600 351.9425 L245.0625 351.9775 L180.3685 351.9925 L158.0915 351.8475 C145.0237 351.8225 132.4925 351.9950 119.7475 348.5900 C107.3360 345.2725 94.8580 338.2425 85.7020 329.2325 C71.1060 314.8700 62.7790 295.9925 62.6975 275.4725 C62.6205 256.0750 70.4165 236.0555 84.1690 222.2838 C96.0680 210.1730 111.7450 202.4872 128.6062 200.4987 C133.2525 199.9232 137.9345 199.8820 142.6098 199.8833 C143.4395 181.1543 150.7482 163.2948 163.2865 149.3570 C171.2552 140.3625 183.0265 132.7012 194.3582 128.6505 C202.4688 125.7510 211.3315 124.1670 219.9095 123.6115 Z"></path>
<path id="" fill="#1a1b1a" fill-opacity="1.0" stroke="#000000" stroke-width="0.0" stroke-opacity="1.0" stroke-linecap="round" stroke-linejoin="round"  filling="0" d="M199.1010 335.4300 C199.0038 331.6325 198.0480 325.5625 200.9308 322.6300 C201.9747 321.5850 203.4082 321.0250 204.8845 321.0825 C206.4245 321.1375 207.7728 321.8775 208.7975 323.0050 C210.5525 324.9375 211.3423 327.7825 211.0940 330.3550 C210.9690 331.6525 209.9865 333.8825 210.3918 334.9875 C212.6540 334.8450 216.5510 328.9950 220.2535 328.1100 C221.1837 327.8875 222.2730 328.0200 223.2225 328.0750 C224.5535 328.9675 226.5157 330.3450 226.9615 331.9725 C227.5177 334.0025 226.0172 336.9950 224.8800 338.5875 C223.8372 340.0475 220.1638 342.4450 220.0938 343.9400 C220.9473 344.7750 222.4425 344.6875 223.5600 344.6675 C226.5745 344.6150 229.4700 344.1800 231.9023 346.4100 C233.2850 347.6800 234.3327 349.3375 235.3183 350.9175 C236.2103 350.9950 237.3885 350.9525 238.1667 351.4150 L238.1540 351.9375 C237.6485 352.3125 237.3560 352.2775 236.7513 352.2075 C235.7255 352.0875 234.6115 351.5800 233.5960 351.8850 L231.7250 353.6150 C228.6087 356.5350 222.1512 355.9475 218.0898 355.8850 C220.2425 358.1750 226.6305 363.4175 226.4888 366.6975 C226.4255 368.1600 225.9458 369.7600 224.7832 370.6950 C223.4922 371.7325 221.6445 372.1550 220.0230 371.8750 C216.3420 371.2425 212.1277 365.9000 210.1402 362.9775 C210.0215 366.1675 210.8550 371.9800 209.8192 374.7900 C209.4385 375.8225 208.5488 376.8075 207.7380 377.5300 C206.7025 378.4500 205.1082 378.9150 203.7328 378.8300 C202.5750 378.7575 201.6342 378.2350 200.8895 377.3550 C198.1145 374.0775 199.1245 367.5775 199.1593 363.5075 C195.7713 366.6850 192.6348 370.8125 188.1962 372.4375 C186.2482 371.6550 184.0872 370.9150 183.1820 368.8250 C182.6480 367.5900 182.7910 366.2000 183.3065 364.9850 C184.8045 361.4525 189.0895 358.4175 191.7222 355.6625 C187.6930 356.3325 183.0788 356.1500 179.0910 355.2600 C177.5972 354.0175 176.4462 352.4775 174.9730 351.2375 C175.0175 351.1350 175.0632 351.0350 175.1065 350.9325 C175.8750 349.1100 175.5875 346.0600 177.6198 345.2175 C178.3480 344.9150 179.3952 344.9225 180.1890 344.8575 C182.6322 343.9225 185.3330 344.7125 187.6172 343.6200 C188.1115 342.8325 187.9295 342.3100 187.8805 341.3975 C186.0202 340.3475 182.6413 336.8025 182.1210 334.7225 C181.8698 333.7150 182.0450 332.7425 182.6060 331.8725 C183.8793 329.9025 186.4855 328.7025 188.5587 327.7625 C192.2895 329.7350 196.1382 332.4300 199.1010 335.4300 Z"></path>
<path id="" fill="#009856" fill-opacity="1.0" stroke="#000000" stroke-width="0.0" stroke-opacity="1.0" stroke-linecap="round" stroke-linejoin="round"  filling="0" d="M187.8805 341.3975 C189.2735 341.6350 191.0560 343.9350 192.0658 344.9475 C188.9818 345.0550 182.8925 345.7575 180.1890 344.8575 C182.6322 343.9225 185.3330 344.7125 187.6172 343.6200 C188.1115 342.8325 187.9295 342.3100 187.8805 341.3975 Z"></path>
<path id="" fill="#1a1a1a" fill-opacity="1.0" stroke="#000000" stroke-width="0.0" stroke-opacity="1.0" stroke-linecap="round" stroke-linejoin="round"  filling="0" d="M266.6500 352.8650 C267.1375 352.7950 267.6350 352.7225 268.1275 352.7150 C269.4525 352.6950 270.8400 353.1500 271.7650 354.1200 C274.1525 356.6250 273.1950 361.9325 273.1800 365.0850 C273.1775 365.7225 273.1150 366.1350 273.5900 366.5975 C275.9275 364.1625 280.5200 358.8000 283.9725 358.8050 C284.9850 358.8075 285.8025 359.2475 286.4775 359.9825 C287.4650 361.0550 288.4700 362.7250 288.3400 364.2375 C288.0550 367.5275 283.3575 372.1050 280.7975 374.0850 C283.1750 374.0375 285.6025 373.9125 287.9750 374.1050 C289.9275 374.2625 292.5650 374.7125 293.8475 376.3425 C294.5675 377.2550 294.7825 378.4700 294.6125 379.6025 C294.3700 381.1400 293.4975 382.5100 292.2075 383.3825 C290.1600 384.7575 284.4050 384.8750 282.0225 384.3825 C281.6375 384.3025 281.3950 384.2675 281.0100 384.2950 C281.4450 386.7975 286.5000 389.6975 287.7825 392.8475 C288.5750 394.7950 288.1100 396.0800 287.3025 397.9050 C285.9875 398.7425 284.6875 399.5550 283.0650 399.4000 C279.3925 399.0475 275.3925 394.0200 273.0750 391.3100 C273.1525 395.8250 273.7600 400.3750 271.6825 404.5325 C270.1100 405.4775 269.0800 406.1150 267.1725 405.9600 C266.2525 405.6825 265.2800 405.4300 264.5525 404.7700 C261.7875 402.2550 263.0500 394.8275 263.0050 391.2650 C260.5275 394.6800 256.7500 398.5475 252.6150 399.6525 C250.9150 399.1800 249.2442 398.6525 248.1588 397.1525 C247.5502 396.3125 247.3480 395.3175 247.5103 394.2975 C248.1155 390.4975 253.2625 386.2300 256.1675 384.0575 C255.4800 384.2200 254.7900 384.3525 254.0825 384.3975 C250.6050 384.6175 244.8392 384.7525 242.1413 382.2050 C241.3418 381.4525 240.9325 380.5450 240.9767 379.4450 C241.0470 377.7025 242.5777 375.9325 243.7595 374.7750 C247.7433 373.7800 251.8125 374.1000 255.8750 374.2950 C253.1575 371.4125 250.1175 368.9325 247.5918 365.8625 C247.4000 364.6725 247.2798 363.6325 247.6885 362.4725 C248.3598 360.5675 249.9232 359.6250 251.6425 358.8000 C258.3150 359.5150 259.0375 365.3950 262.7650 366.5775 C263.3150 365.5850 262.3975 358.5350 263.4925 355.7625 C264.0725 354.2850 264.9500 353.5925 266.3775 352.9800 C266.4675 352.9400 266.5600 352.9025 266.6500 352.8650 Z"></path>
<path id="" fill="#191a1a" fill-opacity="1.0" stroke="#000000" stroke-width="0.0" stroke-opacity="1.0" stroke-linecap="round" stroke-linejoin="round"  filling="0" d="M262.9300 283.0375 C262.9850 283.0350 263.0400 283.0325 263.0925 283.0300 C264.5375 282.9800 265.7100 283.0250 266.7725 284.1150 C268.8900 286.2875 268.0750 291.5375 267.9400 294.3200 C271.2775 292.2700 272.6375 289.7425 275.9500 287.8775 C276.9625 288.4300 278.0425 288.9625 278.9825 289.6300 C279.9575 290.3250 280.8675 291.4950 280.9725 292.7150 C281.2150 295.4975 277.3975 299.1500 275.7025 301.0725 C279.2025 300.9000 281.8275 300.6850 284.9425 302.5825 C285.4650 303.7975 285.9850 304.9850 286.0875 306.3250 C286.1575 307.2525 285.8975 308.2600 285.2250 308.9325 C283.4050 310.7550 278.0300 310.9600 275.5225 311.0075 C276.9425 312.3625 280.9125 315.4500 281.1000 317.3825 C281.2675 319.0850 280.2150 321.1050 279.1900 322.3925 C278.6000 323.1350 277.5650 324.1400 276.5325 324.1025 C275.3475 324.0575 269.0200 318.5850 267.9475 317.4750 C268.0950 320.1275 268.1200 322.8500 267.7725 325.4850 C266.9200 326.6625 266.0625 327.5750 264.9825 328.5375 C264.5925 328.7125 264.1775 328.9100 263.7450 328.9550 C262.5550 329.0775 261.1125 328.4525 260.2975 327.5975 C257.6250 324.7900 258.9650 320.9075 259.0875 317.5225 C257.2225 319.3900 255.4000 321.3625 253.3125 322.9825 C252.1975 323.0275 251.0350 323.1200 249.9240 323.0400 C248.0530 322.9025 247.1882 321.8625 246.0748 320.5000 C245.9770 319.2500 245.9525 317.9800 245.8938 316.7275 C247.4263 314.6075 249.5590 312.7800 251.5075 311.0475 C248.2350 311.0750 245.3468 311.3200 242.4048 309.6425 C241.5242 308.1500 240.8893 306.6100 240.7805 304.8550 C240.4603 299.6800 248.9785 302.3450 250.9050 300.2275 C250.8425 299.9475 247.4902 296.4250 246.8383 295.3825 C246.1973 294.3575 245.7010 293.1375 246.1085 291.9225 C246.7708 289.9525 249.2617 288.8225 250.9550 287.8600 C253.8850 289.4925 255.9325 291.0875 257.9725 293.7800 C257.9300 291.6400 257.6900 289.0475 258.4150 287.0100 C259.2150 284.7650 260.9125 283.9575 262.9300 283.0375 Z"></path>
<path id="" fill="#1a1a1a" fill-opacity="1.0" stroke="#000000" stroke-width="0.0" stroke-opacity="1.0" stroke-linecap="round" stroke-linejoin="round"  filling="0" d="M131.4535 190.4418 C137.6710 164.3367 151.3435 142.1942 174.5490 127.9167 C194.8810 115.4070 218.0862 111.1225 241.4342 116.6833 C246.3115 117.8450 251.2275 119.4147 255.7875 121.5188 C253.7700 123.0325 250.6750 124.8190 249.2637 126.8828 L249.3383 127.4182 C251.3425 128.4215 253.4600 129.1922 255.4875 130.1545 C258.2125 131.4480 260.8700 132.8895 263.6250 134.1145 C266.0150 132.5185 268.8400 129.9662 271.7075 129.4543 L272.0350 129.5690 C272.0875 129.6815 272.1350 129.7968 272.1925 129.9068 C273.1200 131.6582 277.2950 134.0025 278.9575 135.3755 C280.5475 136.6908 282.1075 138.1022 283.6250 139.5018 C285.9075 141.6045 287.9150 144.0305 289.9400 146.3768 C301.6300 159.9295 307.9000 175.0135 311.8875 192.2590 C330.8425 187.4998 351.9800 191.5688 368.6250 201.5295 C387.8525 213.0347 401.2200 231.8310 406.6150 253.4925 C409.8000 266.2725 409.4875 278.5450 407.8250 291.4900 C409.8075 290.8375 411.7975 290.0625 413.8200 289.5525 C413.2250 290.0675 412.5575 290.7100 411.8425 291.0475 C407.9575 292.8850 400.6725 293.1900 396.3350 293.3800 C395.5625 298.5550 393.3425 304.1625 391.1800 308.9250 C394.3300 308.8400 397.5750 308.9250 400.7100 308.7325 C402.2900 308.6375 403.9400 308.0350 405.5125 308.2650 L405.7775 308.6025 L405.6950 308.9450 C404.9300 309.0350 404.2975 308.9425 403.5475 308.8150 C402.7400 309.2850 402.2800 309.9875 401.7975 310.7675 C400.4075 313.0150 399.4825 315.4775 398.2375 317.7950 C395.9700 322.0100 393.1100 326.2650 390.1525 330.0275 C373.9375 350.6450 350.0600 359.9325 324.3175 360.0250 C320.1150 360.0400 315.0850 360.7350 311.0100 359.5850 C308.7150 358.9350 306.8225 357.5425 305.7400 355.3875 C305.1825 354.2775 305.0925 352.9650 304.9375 351.7475 L304.8925 350.1825 C305.1000 347.7825 305.6000 346.4200 307.5550 344.8200 C312.6900 340.6200 326.3075 342.2900 332.9075 342.0625 C335.8275 341.9600 338.8775 341.5425 341.7325 340.9225 C366.7700 335.4850 387.7450 311.4250 390.8525 286.1125 C391.2900 282.5550 391.8150 278.6925 391.8100 275.1175 C391.7625 259.4125 386.4850 244.1698 376.8075 231.8002 C366.7700 219.1375 352.0675 210.0135 335.8725 208.2135 C328.2550 207.3667 319.7450 208.0307 312.4150 210.2038 C311.1350 210.5827 297.1725 215.8062 297.1500 215.7988 C296.9550 214.7035 296.7750 213.6187 296.4850 212.5440 C295.7900 209.9763 296.1225 206.8902 295.9175 204.2250 C295.6875 201.2460 295.1675 198.0855 294.5875 195.1550 C290.0825 172.4130 276.8825 153.0670 256.9075 141.2030 C245.2932 134.3047 233.7502 131.8642 220.3562 131.9837 C215.1025 132.0305 209.9617 132.3862 204.8483 133.6788 C194.9353 136.1842 184.7332 141.2505 176.8932 147.8475 C174.5197 149.8448 172.3882 152.2365 170.1933 154.4328 C165.8805 158.7480 162.0445 163.0140 158.9125 168.2957 C151.5312 180.6523 147.3833 194.6695 146.8517 209.0530 C143.1438 208.8737 139.4770 208.1575 135.7760 208.0388 C117.3900 207.4487 103.5670 212.4523 89.8717 224.8387 C87.7672 226.7420 86.0262 228.9755 84.2607 231.1855 C75.5840 242.0457 69.7083 255.7825 69.1315 269.8100 C68.5598 283.7175 70.3585 294.6150 76.6072 307.1925 C79.2762 312.5650 82.4228 317.5100 86.5023 321.9300 C89.2505 324.9100 92.2360 327.9025 95.4530 330.3675 C103.5957 336.6075 115.0723 341.6925 125.3947 342.0525 C131.6905 342.2700 138.0508 342.1175 144.3528 342.1075 C147.5255 342.1025 151.0505 341.7275 154.1610 342.4100 C156.2125 342.8625 158.0880 343.7725 159.5182 345.3400 C160.8055 346.7525 161.4572 348.3775 161.9340 350.1900 C161.1280 353.4600 160.2320 356.7650 157.1078 358.5975 C155.8685 359.3250 154.4458 359.7050 153.0290 359.8875 C148.8663 360.4250 144.3475 360.0575 140.1458 360.0275 C134.5112 359.9900 128.8667 360.2475 123.2517 359.6500 C118.8687 359.1825 114.5327 358.3450 110.2892 357.1525 C89.6817 351.2150 72.3402 337.2175 62.1893 318.3250 C50.7960 297.4675 48.1285 272.9450 54.7705 250.1250 C60.9645 228.8793 74.8715 210.5168 94.4430 199.9455 C105.9128 193.7502 118.4165 190.4017 131.4535 190.4418 Z"></path>
<path id="" fill="#049d5c" fill-opacity="1.0" stroke="#000000" stroke-width="0.0" stroke-opacity="1.0" stroke-linecap="round" stroke-linejoin="round"  filling="0" d="M304.9375 351.7475 C303.0675 352.3050 288.8550 352.3175 286.9950 351.7150 L287.0375 351.4275 C291.4425 349.7950 300.7050 352.5475 304.6675 350.3150 C304.7425 350.2725 304.8175 350.2275 304.8925 350.1825 L304.9375 351.7475 Z"></path>
</svg>