<svg xmlns="http://www.w3.org/2000/svg" viewBox="0 0 512 512" height="512.0px" width="512.0px">
<path id="" fill="#fe6865" fill-opacity="1.0" stroke="#000000" stroke-width="0.0" stroke-opacity="1.0" stroke-linecap="round" stroke-linejoin="round"  filling="0" d="M251.1850 113.0730 C305.5675 110.2842 351.9350 152.0618 354.8100 206.4390 C357.6850 260.8150 315.9800 307.2500 261.6075 310.2125 C207.1133 313.1800 160.5522 271.3625 157.6707 216.8620 C154.7892 162.3625 196.6810 115.8680 251.1850 113.0730 Z"></path>
<path id="" fill="#c85e4c" fill-opacity="1.0" stroke="#000000" stroke-width="0.0" stroke-opacity="1.0" stroke-linecap="round" stroke-linejoin="round"  filling="0" d="M255.4575 216.4982 C257.6625 214.9957 259.5375 212.8983 261.6500 211.2430 C268.4200 205.9955 276.3925 202.5205 284.8425 201.1325 C288.1625 200.5980 291.5300 200.1158 294.8900 199.9850 C307.6825 199.4870 320.6350 199.9433 333.4475 199.9388 L352.1475 199.9498 C355.7000 199.9572 359.3500 199.8163 362.8900 200.1178 C364.3325 200.2405 365.6550 200.4048 366.8375 201.3188 C368.6400 202.7120 369.4125 204.9778 369.6225 207.1710 C370.2900 214.1008 369.8325 221.3950 369.8275 228.3675 L369.8250 267.2325 L369.8250 327.2600 C369.8300 338.0325 369.8750 348.7650 369.4550 359.5325 C369.1550 367.2450 368.8725 374.7550 367.1925 382.3200 C363.8125 397.5450 355.9200 412.6575 346.0250 424.6675 C342.2550 429.5525 337.8600 433.3225 333.1925 437.2950 C318.3175 449.9575 297.7275 458.1500 278.2825 459.8150 C270.9875 460.4400 263.3825 460.0275 256.0550 460.0225 C248.1055 460.0150 239.9182 460.4675 232.0070 459.8000 C207.6967 457.7475 182.3678 444.1550 166.7643 425.4850 C156.4745 413.1750 148.8932 398.7850 145.3768 383.0825 C141.8427 367.3025 142.9910 350.0675 142.9897 333.9175 L142.9848 277.0825 L142.9730 229.9835 C142.9660 221.2632 142.4787 212.2307 143.2525 203.5460 C143.3940 203.3455 143.5390 203.1475 143.6873 202.9520 C145.0607 201.1365 146.0737 200.3840 148.3528 200.0825 C159.5505 199.5762 170.9348 199.9342 182.1497 199.9280 L202.9008 199.9235 C213.0505 199.9245 223.9308 199.4073 233.6998 202.6545 C243.5905 205.9422 247.9280 210.2038 255.4575 216.4982 Z M164.6805 233.7202 C164.6585 232.9492 164.7035 232.3448 164.2300 231.6910 C163.5898 231.3095 163.1203 231.2455 162.4005 231.1808 C162.2547 231.9348 162.0450 232.6042 162.3270 233.3505 C163.0680 233.8582 163.8025 233.7737 164.6805 233.7202 Z"></path>
<path id="" fill="#f9dcb2" fill-opacity="1.0" stroke="#000000" stroke-width="0.0" stroke-opacity="1.0" stroke-linecap="round" stroke-linejoin="round"  filling="0" d="M252.9075 68.0992 C254.3475 67.8795 255.9100 67.9218 257.3700 67.9345 C270.5150 68.0490 284.0750 74.3183 293.1575 83.7480 C300.8200 91.7047 305.6475 103.0432 306.8425 113.9570 C307.2550 117.7265 307.1375 121.5358 307.0650 125.3200 C301.8700 125.1625 295.5750 120.7340 290.3150 118.8660 C280.3125 115.3135 269.3575 113.2022 258.7350 113.0250 C254.8275 113.0190 250.9150 113.5058 247.0340 113.9080 C236.8593 114.9625 228.3860 116.1642 218.9040 120.2533 C214.3585 122.2133 210.2258 125.5437 205.2835 126.3515 C205.2298 125.9515 205.1853 125.5502 205.1505 125.1480 C203.9550 112.5788 207.0610 98.2085 215.2880 88.3467 C225.1050 76.5795 237.5485 69.5547 252.9075 68.0992 Z"></path>
<path id="" fill="#663333" fill-opacity="1.0" stroke="#000000" stroke-width="0.0" stroke-opacity="1.0" stroke-linecap="round" stroke-linejoin="round"  filling="0" d="M286.2675 75.2582 C287.8650 74.8167 289.5625 74.5295 291.1125 73.9543 C306.0150 68.4235 304.4275 56.2345 311.6325 52.1873 C313.9550 50.8833 316.6300 50.9442 319.1200 51.6970 C321.7775 52.4995 323.5925 54.0085 324.8625 56.4897 C326.1875 59.0845 326.1300 61.6990 325.2750 64.4255 C324.4725 66.9795 323.2375 69.3995 321.9900 71.7615 C317.1900 80.8450 310.9475 85.8867 301.9550 90.5432 C303.7050 92.9030 305.6975 95.0575 307.3200 97.5208 C313.9650 107.6085 312.5550 117.3920 313.2775 128.7430 C315.6400 131.0160 318.5075 132.8873 321.0775 134.9285 C325.9375 138.7870 330.4600 143.8215 334.2400 148.7148 C346.3600 164.4090 352.5850 180.9000 354.8100 200.5412 C360.5775 200.1830 366.3350 200.1740 371.9100 198.4670 C385.5000 194.3073 397.6800 181.3228 400.3450 167.2655 C402.2250 157.3602 400.3950 150.8842 405.6875 141.1615 C410.0850 132.9835 417.6175 126.9440 426.5575 124.4287 C431.2200 123.0833 437.5250 121.8420 441.9750 124.4447 C444.1600 125.7233 445.8500 127.8690 446.4050 130.3578 C447.0075 133.0782 446.3175 136.2215 444.7325 138.4987 C442.1125 142.2663 438.1050 142.0585 434.0950 142.8590 C427.6550 144.1432 422.9275 148.7202 421.4700 155.1302 C420.7975 158.0945 420.8325 161.3630 420.5100 164.3963 C420.1850 167.3452 419.6650 170.2693 418.9500 173.1487 C417.1050 180.8062 413.7025 187.7660 409.3175 194.2778 C400.1325 207.9160 385.0100 215.9220 369.2025 219.0140 C368.9375 232.9693 369.2950 246.9265 369.1000 260.8775 C369.9900 261.0475 370.8800 261.2300 371.7650 261.4225 C397.6750 266.9600 415.2975 285.7850 420.0750 311.7625 C421.1725 317.7325 419.9650 324.6675 423.4525 329.9500 C425.9450 333.7250 429.8725 336.3175 434.3275 337.1225 C436.2375 337.4750 438.2350 337.5700 440.1200 338.0200 C442.2925 338.5400 444.3700 340.3975 445.4475 342.3050 C446.7200 344.5575 446.9150 347.3325 446.1900 349.7975 C445.4425 352.3450 443.5375 354.4650 441.2175 355.7050 C436.8800 358.0225 431.3300 356.9025 426.8850 355.4975 C413.5025 351.2675 403.8250 340.9800 401.6850 326.9325 C400.2525 317.5200 401.3275 311.6300 396.5725 302.5275 C392.2675 294.2900 385.0425 287.1800 376.5700 283.3075 C374.2425 282.2425 371.7650 281.5150 369.3275 280.7450 C369.1575 286.4125 369.4675 292.1250 369.4825 297.8000 C369.6550 313.4175 369.5475 329.0350 369.1650 344.6500 C369.9450 344.7725 370.7225 344.9100 371.5000 345.0575 C396.1550 349.7075 415.3850 369.0825 419.8500 393.7725 C421.0850 400.3600 419.8450 408.2950 423.7775 414.0225 C427.8750 419.9850 431.7175 420.0350 438.1850 421.3350 C440.9650 421.8925 443.8050 423.1950 445.3650 425.6775 C446.7775 427.9250 446.8400 430.7725 446.2500 433.3000 C445.6825 435.7275 444.4000 437.7850 442.2325 439.0750 C438.0600 441.5575 432.3300 440.6525 427.8950 439.4250 C414.7425 435.7900 404.4300 425.4825 401.9600 411.8875 C400.0425 401.3350 401.9075 395.2500 395.9950 384.8975 C390.0825 374.5400 380.6850 367.6300 369.3025 364.5300 C369.3200 369.4200 368.7250 374.4900 367.8725 379.3025 C364.3975 399.3175 354.8125 417.7675 340.4350 432.1200 C338.0550 434.4775 335.8100 436.9100 333.0500 438.8375 C316.7575 451.9800 296.8475 459.2450 276.0500 460.7600 C268.7725 461.2900 261.3475 461.0200 254.0550 461.0200 C247.0878 461.0200 240.0697 461.2175 233.1250 460.5800 C212.7343 458.7100 192.1885 450.6300 176.6947 437.0675 C159.9860 422.6425 148.6210 403.0125 144.4315 381.3400 C143.3525 375.6950 142.9355 370.0175 142.5825 364.2900 C133.6145 367.3500 129.0862 369.9750 122.4850 376.7450 C120.2737 379.0125 118.1265 381.2925 116.4315 383.9850 C110.5437 393.3350 111.9153 400.4325 110.2473 410.3550 C109.3430 415.7350 107.2160 421.1750 104.1852 425.7175 C99.0797 433.3650 90.2643 438.2325 81.3708 440.0050 C77.5600 440.7650 72.8885 441.2800 69.5230 438.9150 C67.3412 437.3825 65.6617 434.9950 65.2288 432.3425 C64.8105 429.7800 65.6915 426.9475 67.2357 424.8925 C69.6133 421.7250 73.1940 421.3350 76.8120 420.8100 C82.7112 419.9525 88.6478 415.8625 90.3427 409.8650 C91.2032 406.8200 91.0428 403.5325 91.2730 400.3975 C91.4760 397.6375 91.9187 394.8525 92.5092 392.1500 C94.4272 383.2425 98.2565 374.8550 103.7320 367.5725 C113.2635 355.1050 127.3033 346.8700 142.8375 344.6375 C142.3150 333.8575 142.5080 323.0125 142.5065 312.2225 C142.4030 299.4650 142.4848 286.7100 142.7515 273.9575 C139.7975 274.8775 136.9070 275.8175 134.1475 277.2375 C122.8503 283.0525 113.7355 294.3250 111.5805 307.0000 C111.0860 309.9050 111.0590 312.9375 110.8327 315.8775 C110.3497 322.1475 108.6380 328.3300 105.3548 333.7225 C100.3505 341.9400 92.1478 347.1825 82.8568 349.3650 C78.7943 350.3200 73.0640 350.8975 69.3958 348.5275 C67.2267 347.1275 65.6877 344.2950 65.2632 341.7625 C64.8760 339.4525 65.8562 336.4425 67.2200 334.5925 C69.9370 330.9075 74.3597 330.9775 78.4272 330.2575 C83.3477 329.3850 89.2507 324.1075 90.5258 319.1500 C91.2880 316.1875 91.1608 312.9050 91.3745 309.8625 C91.5883 306.8200 92.0700 303.9050 92.7655 300.9400 C94.5997 292.9175 98.0058 285.3375 102.7867 278.6400 C112.1725 265.2100 127.0437 257.0700 142.9688 254.2800 C142.4690 249.8647 142.6517 245.2305 142.6093 240.7805 C142.5412 233.6675 142.2487 226.2298 142.9585 219.1613 C137.5960 218.5818 131.8808 216.5677 127.0212 214.2782 C109.9300 206.2258 97.4355 191.7495 92.9335 173.2515 C91.9772 169.3228 91.5620 165.3212 91.2408 161.3010 C91.0717 159.1855 91.0800 156.9155 90.5815 154.8537 C90.0940 152.8365 89.2790 150.9928 88.0348 149.3257 C81.4767 140.5408 73.4767 144.9335 68.1923 139.8270 C66.3492 138.0460 65.1438 135.5242 65.1738 132.9400 C65.2035 130.3560 66.4570 127.6062 68.2995 125.8135 C70.4290 123.7418 73.2620 122.9853 76.1735 123.0553 C82.6160 123.2100 89.3358 125.4130 94.7450 128.8802 C103.4818 134.4353 109.2470 143.6345 110.4370 153.9190 C111.0172 158.6537 110.9587 163.5733 112.0025 168.2360 C113.5462 175.1315 117.4167 181.9713 122.3092 187.0445 C133.0125 198.1435 142.5258 200.3090 157.4250 200.5318 C157.3940 198.5250 157.7385 196.4538 158.0302 194.4735 C160.8022 175.6617 170.0045 156.4215 183.0338 142.5302 C187.9447 137.2945 193.3817 133.0022 199.1220 128.7312 C198.8992 125.8900 198.9510 123.0260 198.9815 120.1785 C199.1160 107.6728 202.0760 100.2515 210.0655 90.7975 C207.2920 88.7070 204.0490 87.1738 201.2057 85.1340 C194.7670 80.5145 188.9577 72.0013 186.7097 64.4200 C185.8777 61.6147 185.8465 58.5923 187.3562 56.0058 C188.9167 53.3325 191.4340 52.0578 194.3062 51.2663 C195.3675 51.1698 196.4473 51.1480 197.5063 51.2892 C204.7140 52.2498 206.1145 61.1805 210.0815 66.0573 C213.1055 69.7745 219.5573 74.6415 224.4892 75.0107 C224.6750 75.0247 225.2422 75.0918 225.4215 75.0283 C226.8687 74.5155 229.7205 71.1628 231.0590 70.0130 C238.8390 63.4020 248.9395 60.1768 259.1100 61.0558 C269.7050 61.9482 279.4925 67.0673 286.2675 75.2582 Z M349.9425 251.3750 C349.8925 240.9580 349.9150 230.5405 350.0100 220.1237 L311.1025 220.0647 C304.4800 220.0625 294.5275 219.3740 288.3275 220.7332 C283.2475 221.8470 277.7875 224.8905 274.0875 228.5323 C270.8350 231.7318 267.3825 237.9715 266.5675 242.4113 C265.9425 245.8270 266.0850 249.5318 266.0800 252.9975 L266.0850 355.0775 L266.0875 384.4200 C266.1075 389.2475 266.5800 394.4875 266.0625 399.2700 C265.7575 402.0875 264.7150 404.9400 262.6250 406.9300 C260.7525 408.7175 257.9275 409.4500 255.3950 409.3275 C252.7175 409.1950 250.2900 408.1175 248.5182 406.0800 C246.9665 404.2950 246.1905 401.9850 245.9815 399.6525 C245.5932 395.3225 245.9247 390.7325 245.9350 386.3775 L245.9425 360.9125 L245.9418 278.8900 L245.9585 258.0000 C245.9600 253.7500 246.1920 249.3322 245.7007 245.1065 C245.4597 243.0318 244.9280 241.0562 244.2043 239.0995 C240.1523 228.1460 231.4220 221.3735 219.7287 220.2855 C214.2112 219.7722 208.4868 220.0650 202.9465 220.0720 L174.3990 220.0923 C170.3618 220.0990 166.1467 220.4017 162.1322 220.0835 C161.7083 229.1075 162.0875 238.2962 162.0898 247.3385 L162.0853 300.2950 L162.0807 340.1400 C162.0788 352.9500 161.4900 365.9600 164.0782 378.5925 C166.6210 391.0000 172.4913 403.8675 181.0298 413.3350 C184.2937 416.9550 188.0007 420.8700 191.7980 423.9375 C204.2267 433.9750 220.1613 440.1900 236.1315 440.8950 C243.5005 441.2225 250.9700 440.9650 258.3500 440.9675 C265.0275 440.9725 271.9350 441.3175 278.5800 440.7425 C294.4750 439.3650 311.2150 432.2625 322.9425 421.4150 C326.0100 418.5775 329.1825 415.5250 331.8425 412.3000 C344.2700 397.2250 349.3075 378.4100 349.9150 359.1875 C350.3075 346.7950 349.9525 334.2775 349.9450 321.8725 L349.9425 251.3750 Z M250.3175 212.3255 C251.9600 213.2930 253.0375 214.8987 254.6850 215.8833 C257.3150 216.4283 263.0450 209.9077 265.7775 208.6873 C265.8475 208.6557 265.9200 208.6275 265.9900 208.5975 C284.9700 198.7648 293.8925 199.9690 314.3900 199.9707 C321.1100 199.9713 328.1075 199.5938 334.7925 200.1297 C331.0650 177.6543 320.2575 158.2807 301.5275 144.9675 C291.7725 138.0330 278.6800 132.8297 266.7850 131.2990 C262.8975 130.7988 258.9050 130.8970 254.9925 130.9117 C250.9675 130.9270 246.9720 131.0025 242.9970 131.7070 C220.9815 135.6095 202.8790 147.2420 190.1682 165.6390 C184.9592 173.1910 181.1693 181.6285 178.9837 190.5385 C178.1958 193.6877 177.7695 196.9760 176.8553 200.0813 C184.6150 199.8000 192.4308 199.9780 200.1970 199.9772 C215.9345 199.9755 229.0533 199.3135 243.2587 207.6175 C245.6497 209.0152 248.1135 210.5145 250.2625 212.2640 C250.2850 212.2815 250.3000 212.3050 250.3175 212.3255 Z M218.6893 117.5137 L219.0148 117.4392 C222.5735 116.5875 225.9685 115.0983 229.4877 114.0898 C236.3755 112.1165 252.6675 109.3358 259.3025 110.4128 C272.9800 111.6797 280.5550 113.1617 293.4425 117.8463 C292.9550 114.4908 291.9725 111.0400 290.1250 108.1620 C287.9475 104.7680 268.9750 85.9522 265.5600 83.3607 C262.1175 80.7473 256.8625 80.3910 252.7100 80.8360 C250.5225 81.2122 248.5558 81.9175 246.7100 83.1860 C244.1755 84.9275 223.1195 106.0365 221.3440 108.5890 C219.5983 111.0988 218.9065 114.5125 218.6893 117.5137 Z"></path>
<path id="" fill="#fd6764" fill-opacity="1.0" stroke="#000000" stroke-width="0.0" stroke-opacity="1.0" stroke-linecap="round" stroke-linejoin="round"  filling="0" d="M250.3175 212.3255 C251.9600 213.2930 253.0375 214.8987 254.6850 215.8833 C257.3150 216.4283 263.0450 209.9077 265.7775 208.6873 C265.8475 208.6557 265.9200 208.6275 265.9900 208.5975 L266.0825 209.1015 C262.5275 212.4462 258.7375 215.4688 255.9350 219.5305 C254.2375 217.0590 251.9650 215.0992 250.1975 212.7027 L250.3175 212.3255 Z"></path>
</svg>