<svg xmlns="http://www.w3.org/2000/svg" viewBox="0 0 512 512" height="512.0px" width="512.0px">
<path id="" fill="#feb819" fill-opacity="1.0" stroke="#000000" stroke-width="0.0" stroke-opacity="1.0" stroke-linecap="round" stroke-linejoin="round"  filling="0" d="M255.9100 51.0990 C259.6850 51.1400 263.3200 52.2355 266.4150 54.4265 C269.7100 56.7583 272.4875 59.9245 275.3250 62.7767 L287.7100 75.1848 L333.5975 121.0730 L415.8825 203.3703 L442.4550 229.9418 C446.8600 234.3423 451.6175 238.6183 455.7550 243.2605 C458.1525 245.9503 460.1575 249.2487 460.6825 252.8750 C461.4000 257.9450 460.0475 263.0900 456.9300 267.1500 C454.0250 270.9575 450.3000 274.2700 446.9050 277.6350 L432.2050 292.3175 L378.9125 345.6175 L304.9650 419.5600 L281.7425 442.8000 C277.2675 447.2900 272.8950 452.1125 268.0575 456.1975 C264.6250 459.0975 260.8075 460.2600 256.4200 460.8675 C251.6925 460.7975 247.3472 459.0150 243.7558 455.9875 C239.7470 452.6050 236.1015 448.5575 232.3930 444.8450 L212.2875 424.7225 L147.8358 360.2750 L86.2043 298.6275 L66.5088 278.9450 C62.9490 275.3900 59.0898 271.9225 55.8655 268.0625 C53.1647 264.8300 51.4593 260.9150 51.1195 256.6975 C50.7663 252.3125 52.6387 247.4660 55.4803 244.1560 C59.0020 240.0535 63.1837 236.3163 67.0210 232.4930 L88.3002 211.2340 L156.0485 143.4785 L215.1673 84.3585 L232.9507 66.5502 C236.5510 62.9312 240.0875 58.9980 244.0267 55.7477 C247.5140 52.8705 251.4175 51.4417 255.9100 51.0990 Z"></path>
<path id="" fill="#333e47" fill-opacity="1.0" stroke="#000000" stroke-width="0.0" stroke-opacity="1.0" stroke-linecap="round" stroke-linejoin="round"  filling="0" d="M254.3150 69.0230 C255.5700 68.9175 256.6825 68.8788 257.8850 69.3095 C260.3175 70.1820 262.4975 72.1535 264.3600 73.8985 C272.8875 81.8925 280.9900 90.4798 289.2550 98.7507 L337.2650 146.7690 L402.3775 211.8740 L426.6925 236.1925 C430.9975 240.4987 435.6475 244.6925 439.6175 249.2940 C440.6425 250.4800 441.6150 251.8050 442.2750 253.2350 C443.0275 254.8650 443.2650 256.5500 442.6275 258.2575 C441.8050 260.4625 439.8200 262.6375 438.2200 264.3400 C429.4575 273.6650 420.0075 282.5300 410.9575 291.5875 L354.3325 348.2100 L294.7600 407.7925 C284.6700 417.8825 274.7625 428.3025 264.3975 438.1050 C262.5050 439.8975 260.3575 441.7850 257.9450 442.8325 C256.5175 443.0450 254.9050 443.1775 253.5250 442.6825 C251.7500 442.0475 250.1825 440.6225 248.8405 439.3275 C238.1792 429.0325 227.8680 418.2925 217.3817 407.8125 L149.4010 339.8375 L96.6665 287.0950 L80.2892 270.7200 C77.5753 268.0150 74.7330 265.3925 72.1060 262.6075 C71.0490 261.4850 70.0735 260.1775 69.4795 258.7525 C68.7162 256.9175 68.7370 254.9650 69.4995 253.1350 C70.2230 251.4000 71.4792 249.9170 72.7773 248.5790 C83.8510 237.1605 95.3692 226.0818 106.6208 214.8290 L180.5603 140.8950 L225.9670 95.4735 L240.6680 80.7688 C243.4830 77.9532 246.2415 75.0088 249.1965 72.3420 C250.8050 70.8900 252.3100 69.8595 254.3150 69.0230 Z M255.1675 425.2975 C256.1500 425.1175 257.2050 425.1500 257.9850 424.4700 C261.6750 421.2475 265.0650 417.3900 268.5400 413.9100 L290.5525 391.8775 L359.4300 323.0075 L405.4175 277.0175 L419.0550 263.4025 C421.1250 261.3400 423.5750 259.3100 425.3600 257.0175 C425.5150 256.0775 425.6475 255.5850 425.0850 254.7400 C423.1825 251.8800 418.2025 247.6170 415.5725 245.0000 L393.9175 223.3602 L293.6825 123.1248 L266.3850 95.8253 C264.1975 93.6378 257.5225 87.5235 256.1175 85.5117 C252.6675 88.5270 249.5258 92.0230 246.2858 95.2680 L228.0063 113.5562 L170.1163 171.4498 L113.1305 228.4350 L94.9315 246.6275 C92.0235 249.5332 88.8170 252.3400 86.1210 255.4250 L86.3505 255.5150 C86.1085 255.7375 85.9380 255.8850 85.6443 256.0400 C86.4965 257.6150 92.1960 262.6075 93.7917 264.1925 L115.9865 286.3775 L226.7993 397.2000 C229.5867 399.9875 253.8750 424.8150 255.0700 425.3200 L255.1675 425.2975 Z"></path>
<path id="" fill="#333e47" fill-opacity="1.0" stroke="#000000" stroke-width="0.0" stroke-opacity="1.0" stroke-linecap="round" stroke-linejoin="round"  filling="0" d="M245.0892 134.3210 C248.4727 133.6830 253.3075 134.9945 256.5800 135.8828 C264.7925 138.1335 271.7850 143.5385 276.0325 150.9205 C280.5825 158.7690 281.8275 168.1042 279.4950 176.8715 C277.1075 185.5058 271.7550 192.4568 263.9825 196.8562 C264.2575 198.8132 264.4625 200.7493 264.5825 202.7218 C267.2700 203.5807 269.9275 204.7832 272.5500 205.8273 L288.4175 212.2068 C295.5200 215.0705 303.2375 217.6595 310.1025 220.9280 C311.8575 221.7635 313.5925 222.7835 315.0300 224.1037 C317.2475 226.1405 318.3800 229.5520 318.3875 232.5108 C318.3950 235.4688 317.7450 238.5997 317.2850 241.5215 L314.8850 256.0375 C314.1850 260.2725 314.0250 264.8025 312.6975 268.8925 C312.0375 270.9325 310.9275 272.7250 309.3575 274.1925 C306.7775 276.6025 303.5625 277.2575 300.1425 277.1325 C297.0200 277.0175 294.2925 275.9425 292.1800 273.5950 C290.8300 272.0925 289.7975 270.2000 289.3900 268.2150 C287.8550 260.7775 292.0750 248.2372 292.5825 240.3197 C289.6175 239.5075 286.5375 237.8905 283.6650 236.7240 C278.6675 234.6927 273.5850 232.8190 268.6150 230.7220 C269.2775 239.1022 270.7000 247.5372 271.8375 255.8725 C272.6225 261.6000 273.0625 267.5525 274.3200 273.1875 C275.6875 279.3075 278.1150 285.3650 280.1400 291.3025 C282.4700 298.1425 284.5000 305.2750 287.6625 311.7750 C291.7200 320.1125 296.2825 328.2325 300.5850 336.4475 C302.4125 339.9350 304.5650 343.4825 305.9625 347.1575 C307.2500 350.5400 307.7600 354.2400 306.1500 357.6300 C304.7125 360.6575 301.8275 363.1550 298.6625 364.2175 C295.6300 365.2375 292.5475 364.8800 289.7150 363.4425 C287.8750 362.5075 286.3400 361.1425 285.1175 359.4850 C283.0550 356.6950 281.8425 353.3900 280.1775 350.3675 C276.8900 344.3975 273.7850 338.3925 270.6325 332.3475 C266.5550 324.5225 264.0350 320.3225 261.1175 311.6175 C260.5075 309.7300 259.7225 305.0700 258.1900 303.8775 C257.6800 303.4800 257.2050 303.2925 256.5450 303.4125 C254.7225 303.7425 252.3175 307.4475 251.0650 308.9325 C248.8795 311.5275 244.5705 315.3625 243.1935 318.2525 C241.8033 321.1700 242.0795 325.9075 241.9515 329.1600 C241.8008 332.9850 241.3788 336.7800 241.1727 340.6000 C240.8800 346.0325 241.1965 352.3425 239.7437 357.6125 C239.2253 359.4925 238.3705 361.1475 237.0615 362.6050 C234.8873 365.0250 231.6777 366.7175 228.3932 366.8025 C225.2520 366.8825 221.9818 365.5725 219.7135 363.4125 C218.3260 362.0925 217.1133 360.4550 216.5225 358.6225 C215.3435 354.9650 216.1610 345.4550 216.5265 341.3475 C217.1508 334.3300 217.5295 327.2725 217.9955 320.2400 C218.2315 316.6800 217.9765 312.5975 219.0855 309.1875 C219.4635 308.0250 220.1630 306.8925 220.8750 305.9050 C223.6895 301.9925 227.2012 298.4975 230.3763 294.8850 C234.3785 290.3300 238.2467 285.6325 242.3262 281.1475 C243.7142 279.6225 248.7155 274.6975 249.2555 272.8075 C249.8645 270.6800 246.0072 250.4925 245.9285 245.9690 C245.9212 245.5513 245.8065 245.5260 245.5558 245.2072 C242.8670 247.8655 240.5680 250.9475 237.9250 253.6725 C235.2323 256.4500 232.4182 259.9025 229.0525 261.8325 C224.9807 264.1700 211.2870 267.3100 206.0685 268.7600 C203.3893 269.5075 200.8452 270.5975 198.1155 271.2425 C196.4057 271.6450 194.6765 271.9175 192.9167 271.9300 C189.6543 271.9550 186.5015 270.8350 184.2117 268.4550 C181.7518 265.8975 180.7632 262.4725 180.8790 258.9900 C180.8995 258.3175 180.9670 257.6475 181.0810 256.9825 C181.3987 255.1750 182.1712 253.5600 183.3515 252.1575 C188.8010 245.6825 207.3078 244.7088 215.2558 240.3958 C219.8435 237.9060 222.9170 233.0128 226.3485 229.2083 C228.4120 226.9205 230.6735 224.8125 232.7563 222.5410 C235.7767 219.2470 238.4688 215.9783 241.7525 212.9023 C240.9345 208.9650 240.4418 205.0083 240.0468 201.0100 C235.3610 199.6358 230.9342 197.8158 226.9682 194.9167 C219.7787 189.5623 215.0247 181.5587 213.7620 172.6840 C212.4122 163.7997 215.0140 154.7365 220.3217 147.5462 C226.3850 139.3327 235.3372 135.8200 245.0892 134.3210 Z"></path>
<path id="" fill="#333e47" fill-opacity="1.0" stroke="#000000" stroke-width="0.0" stroke-opacity="1.0" stroke-linecap="round" stroke-linejoin="round"  filling="0" d="M308.4275 314.0750 C312.3200 313.6375 316.4725 313.9100 320.3950 313.9175 L340.7975 313.8950 C343.6825 313.8900 348.1650 313.5225 350.3050 315.7800 C352.2300 317.8100 352.0650 320.5625 351.9725 323.1500 C351.6150 323.6725 351.2550 324.2150 350.8525 324.7050 C349.9125 325.8425 348.9775 326.6900 347.4750 326.8500 C341.3525 327.5250 334.8475 327.0875 328.6725 327.0900 C322.6450 327.0925 316.4200 327.4550 310.4225 327.0200 C309.3175 326.9400 308.2425 326.8400 307.2675 326.2650 C305.7375 325.3625 304.6550 323.8350 304.2050 322.1275 C303.6425 319.9875 304.2075 318.2325 305.3275 316.3975 C306.0800 315.1625 307.0325 314.4175 308.4275 314.0750 Z"></path>
<path id="" fill="#333e47" fill-opacity="1.0" stroke="#000000" stroke-width="0.0" stroke-opacity="1.0" stroke-linecap="round" stroke-linejoin="round"  filling="0" d="M166.5663 314.0675 C172.1570 313.5300 178.0855 313.9250 183.7115 313.9250 C188.9238 313.9275 194.3510 313.5825 199.5412 313.9250 C200.6042 313.9950 201.6933 314.1625 202.6718 314.6025 C204.0927 315.2425 205.1328 316.4475 205.6825 317.8900 C206.3670 319.6875 206.3335 321.8175 205.5383 323.5750 C204.8105 325.1800 203.5918 326.1075 201.9750 326.7350 C196.8875 327.6675 190.9465 327.0800 185.7485 327.0900 C179.3667 327.1025 171.9045 327.6475 165.6145 326.8175 C163.7957 325.6375 162.6862 324.3950 162.1140 322.2600 C161.6345 320.4725 161.7793 318.2325 162.8105 316.6550 C163.6515 315.3650 165.0775 314.4025 166.5663 314.0675 Z"></path>
</svg>