<svg xmlns="http://www.w3.org/2000/svg" viewBox="0 0 512 512" height="512.0px" width="512.0px">
<path id="" fill="#b2abac" fill-opacity="1.0" stroke="#000000" stroke-width="0.0" stroke-opacity="1.0" stroke-linecap="round" stroke-linejoin="round"  filling="0" d="M212.0237 151.6413 C215.0372 151.7690 218.4702 154.8115 220.5175 156.8520 C227.3615 163.6740 234.0085 173.5618 235.6515 183.1675 C236.3440 187.2165 236.2035 191.3685 236.2137 195.4615 C238.9857 194.3412 241.7737 193.1373 244.6613 192.3477 C251.9000 190.3680 260.7375 190.2400 267.9000 192.6693 C270.2275 193.4595 273.2600 195.5087 275.6150 195.6548 C276.1325 192.5355 276.0725 189.4173 276.3500 186.2775 C277.1350 177.3698 280.0825 171.4770 285.4350 164.4360 C287.3950 161.8542 296.1800 151.9905 299.1125 151.8460 C300.0175 151.8015 300.6825 152.1362 301.3400 152.7275 C305.9725 156.8970 308.8625 170.5515 309.0575 176.5643 C309.3250 184.7968 305.8475 196.3565 300.6675 202.7932 C298.3150 205.7188 295.2900 208.2652 292.7000 211.0052 C293.7225 213.9305 295.5275 216.5558 296.6950 219.4350 C299.4725 226.2997 299.1225 233.2245 299.2575 240.4653 C320.2600 232.9263 337.0500 214.9805 343.5925 193.7363 C344.6125 190.4255 345.6600 180.8295 347.0775 178.7455 C348.0550 177.3082 349.5275 176.3760 351.2250 176.0367 C355.3975 175.2027 360.4875 177.5477 364.3425 178.9117 C367.2925 179.9563 370.3075 180.8372 373.2200 181.9875 C382.4550 185.6360 391.1150 190.5785 399.3250 196.1355 C405.2800 200.1647 410.7700 204.6435 416.1350 209.4170 C418.5250 211.5435 421.1075 213.5010 423.3825 215.7475 C425.2400 217.5813 426.8050 219.7038 428.5325 221.6580 C438.3925 232.8140 445.2325 243.1712 451.8175 256.4600 C455.0250 262.9325 458.5200 270.3325 459.8475 277.4450 C460.3850 280.3275 460.5525 284.1500 458.7575 286.6200 C454.8900 291.9400 444.7600 286.4000 439.5975 285.5050 C435.5225 284.7950 431.2525 284.8225 427.1600 285.3950 C413.7650 287.3075 401.8250 294.8525 394.3450 306.1300 C392.0675 309.5825 390.5200 313.6275 388.0100 316.8850 C387.1175 318.0450 385.9300 319.2625 384.5200 319.7675 C380.0900 321.3525 371.1575 317.5975 366.3575 316.8050 C361.1850 315.9150 355.9075 315.8150 350.7050 316.5025 C333.6550 318.7950 318.2275 327.8050 307.8550 341.5275 C306.0700 344.1200 304.3975 346.7525 302.9150 349.5325 C301.4450 352.2925 300.2000 355.6600 298.2050 358.0550 C297.2300 359.2200 295.9625 360.1075 294.5325 360.6225 C288.1925 362.8375 283.8050 354.3425 280.1025 350.6075 C277.3700 347.8525 274.7275 345.8350 271.2225 344.1250 C259.6300 338.4675 243.8045 340.0300 234.0315 348.6550 C228.7275 353.3350 226.5485 358.6925 219.4420 361.1500 C217.6568 360.6200 215.6367 360.0525 214.3320 358.6500 C211.8277 355.9600 210.2955 351.6300 208.5172 348.3850 C202.7275 337.8175 194.4272 330.0650 184.1678 323.9475 C173.2265 317.4225 159.7272 314.6000 147.1073 316.6175 C140.9693 317.5975 134.8915 319.5525 128.8683 321.0750 C122.9180 318.2450 122.4080 313.2675 119.3380 308.1200 C110.5632 293.4125 91.3200 282.7175 74.0605 285.4250 C68.6770 286.2700 61.3160 290.1350 56.0768 288.6400 C54.7745 288.2675 53.6885 287.5500 53.0710 286.3150 C51.1315 282.4450 52.1020 278.1600 53.3290 274.2575 C59.3070 255.4275 69.1508 238.0553 82.2300 223.2502 C84.8457 220.3288 87.7690 217.6230 90.5363 214.8423 C93.1048 212.2610 95.6302 209.5680 98.3418 207.1375 C105.9017 200.3607 114.8760 194.1348 123.8788 189.4657 C130.5440 186.0090 155.5755 173.5948 162.4218 176.1512 C166.7798 177.7785 167.6855 189.2375 168.8457 193.5043 C169.7085 196.6760 170.8732 199.8570 172.1447 202.8915 C173.8737 207.0175 176.4357 210.7433 179.1178 214.2980 C187.9325 225.9815 199.2900 235.1642 212.8703 240.7500 C213.5395 234.5330 212.6447 229.8978 214.3793 223.2890 C215.2440 219.9945 219.0390 214.4245 219.0960 211.8098 C219.1430 209.6467 214.9605 206.6142 213.5045 205.0202 C206.2300 197.0567 202.9625 185.8795 203.5325 175.1908 C203.9097 168.1212 206.5090 156.5587 212.0237 151.6413 Z"></path>
<path id="" fill="#663333" fill-opacity="1.0" stroke="#000000" stroke-width="0.0" stroke-opacity="1.0" stroke-linecap="round" stroke-linejoin="round"  filling="0" d="M138.1670 219.0397 C145.6758 218.3922 146.6835 222.9735 150.0675 228.6062 C157.8405 241.3420 168.4263 252.1300 181.0130 260.1400 C184.6857 262.4850 188.8140 264.1450 192.3935 266.6150 C194.4713 268.0475 196.1705 269.7625 196.5858 272.3500 C196.9648 274.7125 196.2328 277.0325 194.7632 278.8925 C193.3460 280.6850 191.4315 281.8000 189.1385 282.0000 C182.5397 282.5775 164.0450 269.0750 158.9175 264.5725 C156.5360 262.3725 153.9612 260.4075 151.6880 258.0800 C148.1187 254.4300 144.7032 250.4000 141.6797 246.2880 C139.9275 243.9050 138.3680 241.3900 136.5955 239.0182 C133.5723 241.8290 130.2753 244.3327 127.3152 247.2103 C123.5778 250.8425 120.0985 254.9500 116.1418 258.3275 C115.3378 259.0125 114.6200 259.4150 113.6057 259.6925 C111.6225 260.2350 109.6270 259.9925 107.8475 258.9500 C104.8118 257.1725 103.7720 254.2900 102.9105 251.0900 C103.1690 249.9198 103.5627 248.8297 104.1205 247.7675 C108.4348 239.5485 129.5567 221.7420 138.1670 219.0397 Z"></path>
<path id="" fill="#663333" fill-opacity="1.0" stroke="#000000" stroke-width="0.0" stroke-opacity="1.0" stroke-linecap="round" stroke-linejoin="round"  filling="0" d="M369.2675 219.0565 C376.1250 218.5165 380.7800 222.4440 386.0650 226.1510 C391.4500 229.9290 407.9300 244.1263 408.8550 250.2425 C409.1825 252.4175 408.4675 254.5000 407.1400 256.2225 C405.6775 258.1175 403.5225 259.5400 401.1175 259.8300 C399.3925 260.0375 397.8675 259.5850 396.4375 258.6325 C393.1675 256.4525 389.3500 251.6625 386.3725 248.7328 C382.8125 245.2290 379.0800 242.1322 375.2325 238.9635 C373.8475 240.9832 372.6500 243.1225 371.2325 245.1268 C366.8075 251.3775 361.8225 256.8225 356.2900 262.0850 C351.7125 265.6625 347.4700 269.4175 342.6275 272.6625 C337.9875 275.7725 327.0925 283.1050 321.5075 281.8475 C319.6325 281.4250 317.9375 280.0475 316.9500 278.4225 C315.7200 276.3950 315.3750 272.9750 316.0000 270.6675 C316.3575 269.3425 317.1875 268.5175 318.2450 267.6950 C321.5800 265.1100 325.9575 263.3900 329.6125 261.2400 C334.6475 258.2825 339.5350 254.2875 343.9175 250.4350 C350.2000 244.8385 355.7500 238.4698 360.4350 231.4803 C362.4825 228.4422 366.3450 220.7345 369.2675 219.0565 Z"></path>
<path id="" fill="#663333" fill-opacity="1.0" stroke="#000000" stroke-width="0.0" stroke-opacity="1.0" stroke-linecap="round" stroke-linejoin="round"  filling="0" d="M296.7725 151.0502 C299.2700 151.2670 301.2550 151.8383 303.0475 153.6840 C308.6950 159.5052 311.8175 172.9565 311.7100 180.8785 C311.4600 194.0470 306.0300 206.5867 296.5975 215.7793 C299.9650 224.8517 300.1650 230.4105 300.2775 239.7730 C317.3475 234.2525 333.7925 217.0160 340.5850 200.7587 C342.0400 197.2762 343.2750 193.6965 344.0550 189.9987 C344.7350 186.7895 344.9525 182.9483 346.2775 179.9485 C346.8050 178.7522 347.7325 177.7040 348.7800 176.9317 C350.7125 175.5055 352.9975 175.3445 355.3050 175.7240 C359.4850 176.4113 363.7675 178.4312 367.7475 179.8997 C396.2450 190.6947 420.9075 209.6918 438.6175 234.4920 C446.7025 245.8058 453.2225 258.1575 458.0050 271.2150 C459.3175 274.7175 461.3925 279.1950 460.6400 282.9875 C460.2550 284.9525 459.0850 286.6750 457.4000 287.7575 C452.6900 290.8475 446.7775 287.4400 441.8475 286.5000 C422.6725 282.8475 403.8950 291.3700 393.3475 307.5875 C390.7575 311.5700 389.2425 317.5100 385.1225 320.1800 C381.4525 322.5550 372.9575 318.5125 368.6800 317.7050 C343.3375 312.9175 318.6800 324.3625 304.8925 345.8725 C304.0150 347.2425 303.0925 348.6350 302.3675 350.0900 C300.7150 353.4075 299.6475 357.6750 296.3950 359.8050 C288.8600 364.7400 282.5925 352.5900 277.7325 348.4650 C273.5925 344.9900 268.6550 342.6000 263.3625 341.5050 C250.6975 338.8850 239.2242 342.7250 230.4727 352.0575 C228.1322 354.5525 226.2115 357.9375 223.2785 359.7525 C221.6620 360.7525 219.8045 361.1925 217.9355 360.7250 C213.1385 359.5225 211.5807 354.8775 209.6930 350.9300 C208.8208 349.1075 207.8285 347.3600 206.8233 345.6075 C195.3095 327.6000 176.9060 316.7500 155.3440 316.6700 C151.5623 316.6575 147.6042 316.7650 143.8902 317.4850 C139.9365 318.2500 131.7960 321.7175 128.4230 320.7600 C123.7910 319.4450 122.3018 314.4075 120.3538 310.5575 C119.4185 308.7000 118.3275 306.9250 117.0930 305.2500 C112.4480 298.8100 106.2733 293.6250 99.1252 290.1650 C90.5145 286.1725 80.9218 284.7900 71.5338 286.1900 C69.8432 286.4350 68.1240 286.7550 66.4790 287.2175 C63.1243 288.1575 59.4832 289.9725 56.0188 288.5650 C53.9980 287.7325 52.3927 286.1300 51.5587 284.1100 C49.8165 279.8025 54.1880 270.6900 55.8963 266.3800 C71.0515 228.4088 100.7450 198.0647 138.3780 182.0898 C143.1767 180.0253 157.1050 174.0840 161.6435 176.0448 C163.3862 176.7977 164.7075 178.3255 165.5123 180.0143 C166.9933 183.1220 167.2295 187.1465 167.9720 190.5265 C168.7417 193.9055 169.8205 197.2063 171.1940 200.3878 C178.8177 218.4130 193.3508 232.6288 211.5400 239.8525 C212.2608 229.3545 211.5517 225.9185 215.5395 215.4910 C206.9108 208.2787 201.8265 197.2688 200.5555 186.2215 C199.5185 177.2108 201.0810 168.5658 204.8920 160.3452 C205.8565 158.2648 206.9010 156.1315 208.3605 154.3455 C209.7745 152.6150 211.5892 151.3155 213.8703 151.1443 C218.2185 150.8177 222.3098 154.3398 225.3672 157.0275 C233.1048 163.8290 238.2595 173.9258 239.8687 184.0488 C240.3038 186.7858 240.3887 189.6078 240.5578 192.3723 C251.8975 188.5875 260.0925 189.1938 271.4200 192.3533 C271.9050 182.2527 273.9675 173.4612 279.7075 164.9645 C283.5050 159.3432 289.8350 152.4005 296.7725 151.0502 Z M72.8850 269.3275 C92.0533 268.4575 108.7122 273.4025 123.0182 286.5825 C127.9285 291.1050 132.2543 296.9500 134.9807 303.0500 C137.0903 302.0000 139.8175 301.6050 142.1478 301.1925 C154.4915 299.0325 167.1780 299.9675 179.0728 303.9075 C197.4792 310.0450 211.1667 320.8625 221.2213 337.4275 C223.9023 335.5525 226.3950 333.3075 229.1882 331.6150 C239.8472 325.2775 252.4100 322.9300 264.6375 324.9925 C271.3075 326.1675 277.9000 328.6025 283.5550 332.3600 L283.8775 332.2325 C284.4350 327.7175 284.0250 322.7125 284.0150 318.1525 L284.0050 291.4300 L284.0100 252.2975 C284.0125 244.6730 284.6150 236.5170 283.4300 228.9812 C282.7400 224.5915 280.5925 220.1915 277.8700 216.7083 C273.2975 210.8615 266.3125 207.2180 258.9775 206.3315 C251.6375 205.4445 244.0932 207.8360 238.3545 212.4290 C232.3110 217.2655 229.2108 224.3203 228.3890 231.8805 C227.7383 237.8647 228.0323 244.0850 228.0352 250.1050 L228.0692 279.5275 C228.0745 283.5175 228.6080 290.3825 227.8177 294.0075 C227.4680 295.6125 226.3627 297.1500 225.1055 298.1750 C223.2153 299.6900 220.7773 300.3450 218.3817 299.9825 C216.0697 299.6375 214.0553 298.1750 212.7725 296.2500 C212.1053 295.2500 211.6040 294.1550 211.4032 292.9650 C210.7052 288.8275 211.1560 283.9725 211.1617 279.7600 C211.1718 272.2450 210.9073 264.5975 211.4795 257.1050 C189.2130 250.4425 170.5380 235.1480 159.6185 214.6313 C156.7640 209.3528 154.8127 203.9000 152.9625 198.2240 C152.5950 197.0972 151.9810 195.8635 151.8483 194.6942 L151.6973 194.5640 C125.3448 204.8633 103.3763 221.3590 86.8572 244.4012 C81.9473 251.2500 77.3765 258.7300 73.9710 266.4475 C73.5533 267.3925 73.1680 268.3300 72.8850 269.3275 Z M294.1675 173.7225 C289.8550 179.4670 287.0150 188.9167 288.1650 196.1200 C288.2625 196.7227 288.4225 197.1035 288.7575 197.6070 C289.1675 197.8132 289.3025 197.8685 289.7775 197.9005 C292.5275 195.7823 294.4200 188.6842 294.8450 185.3448 C295.2350 182.2610 295.3725 178.9695 294.9625 175.8828 C294.6350 175.5502 294.5475 175.4780 294.1475 175.3022 C294.1725 174.8170 294.2250 174.6850 294.4300 174.2660 L294.1675 173.7225 Z M217.7063 173.3990 C216.0578 181.4575 217.1142 190.4032 221.6727 197.4218 C221.8790 197.7395 222.1207 198.0163 222.3690 198.3010 C222.6102 198.1142 222.5587 198.2238 222.6082 198.0280 C223.2878 197.5630 223.7340 197.3845 223.9182 196.5175 C225.3152 189.9453 222.6602 180.0625 218.7695 174.6765 C218.4427 174.2242 218.1217 173.7742 217.7063 173.3990 Z M300.4975 257.0175 C301.0225 262.8325 300.8225 268.7650 300.8250 274.6000 L300.8175 302.0175 C300.8200 305.8450 301.3900 318.1600 300.7075 321.1600 C301.9200 321.1150 303.0225 320.9900 304.2125 320.7475 C306.7825 318.5900 309.2500 316.3025 312.0075 314.3850 C326.9075 303.9300 344.9675 298.9550 363.1200 300.3050 C367.8450 300.7025 372.5150 301.5850 377.0600 302.9400 C384.4025 288.3750 397.3200 277.3950 412.8800 272.4975 C421.8750 269.5675 429.6450 269.0375 439.0150 269.2325 C438.1675 264.9800 435.2800 260.7400 433.1250 256.9925 C422.0525 237.7352 407.6300 221.6393 389.0750 209.2690 C380.1925 203.2543 370.5975 198.3638 360.5125 194.7097 C360.4700 194.7840 360.4275 194.8575 360.3875 194.9323 C359.0900 197.3663 358.4175 200.3347 357.5200 202.9585 C356.4750 205.9250 355.2650 208.8305 353.8950 211.6613 C343.6175 233.1127 324.9075 249.3455 302.2225 256.4975 C301.6500 256.6775 301.0750 256.8525 300.4975 257.0175 Z"></path>
<path id="" fill="#663333" fill-opacity="1.0" stroke="#000000" stroke-width="0.0" stroke-opacity="1.0" stroke-linecap="round" stroke-linejoin="round"  filling="0" d="M241.3070 219.1543 C245.7970 218.1620 250.2400 221.0040 251.2200 225.4962 C252.2025 229.9885 249.3488 234.4238 244.8540 235.3940 C240.3750 236.3607 235.9585 233.5200 234.9807 229.0432 C234.0030 224.5668 236.8330 220.1432 241.3070 219.1543 Z"></path>
<path id="" fill="#663333" fill-opacity="1.0" stroke="#000000" stroke-width="0.0" stroke-opacity="1.0" stroke-linecap="round" stroke-linejoin="round"  filling="0" d="M267.2025 219.1320 C271.6475 218.1925 276.0225 220.9980 277.0225 225.4295 C278.0250 229.8613 275.2800 234.2753 270.8625 235.3383 C267.7300 236.0923 264.4425 234.9657 262.4300 232.4480 C260.4175 229.9303 260.0425 226.4758 261.4675 223.5850 C262.5950 221.3002 264.7100 219.6588 267.2025 219.1320 Z"></path>
<path id="" fill="#6b3b3b" fill-opacity="1.0" stroke="#000000" stroke-width="0.0" stroke-opacity="1.0" stroke-linecap="round" stroke-linejoin="round"  filling="0" d="M304.2125 320.7475 L304.3025 320.9875 C303.0775 322.4775 301.6100 323.7975 300.2325 325.1450 C300.2825 324.1450 300.1175 321.9275 300.7075 321.1600 C301.9200 321.1150 303.0225 320.9900 304.2125 320.7475 Z"></path>
</svg>