<svg xmlns="http://www.w3.org/2000/svg" viewBox="0 0 512 512" height="512.0px" width="512.0px">
<path id="" fill="#d0d2d2" fill-opacity="1.0" stroke="#000000" stroke-width="0.0" stroke-opacity="1.0" stroke-linecap="round" stroke-linejoin="round"  filling="0" d="M119.0080 192.9675 C122.2975 192.7260 125.7125 192.9155 129.0148 192.9205 L147.8318 192.9408 L207.6260 192.9415 L393.0975 192.9415 C392.8000 207.0403 393.0700 221.1992 393.0700 235.3038 L393.0675 317.2850 L393.0650 386.5700 C393.0675 399.0400 392.7750 411.5925 393.1550 424.0500 C382.1200 423.7925 371.0250 424.0150 359.9875 424.0150 L296.5675 424.0125 L118.9928 424.0475 L119.0080 192.9675 Z"></path>
<path id="" fill="#a4a9ad" fill-opacity="1.0" stroke="#000000" stroke-width="0.0" stroke-opacity="1.0" stroke-linecap="round" stroke-linejoin="round"  filling="0" d="M114.0170 126.0768 C117.1640 125.6332 120.6722 125.9187 123.8620 125.9342 L140.9922 125.9590 L203.4070 125.9603 L332.5075 125.9608 L375.0750 125.9587 C381.9825 125.9577 388.9450 125.7390 395.8450 125.9522 C398.9375 126.0480 401.8500 126.5720 404.5125 128.2365 C407.6075 130.1720 411.1625 134.1765 411.9025 137.7880 C412.4250 140.3390 412.3625 158.8053 411.8200 161.4835 C411.4025 163.5400 410.5100 165.4195 409.2975 167.1217 C406.5875 170.9272 403.0800 172.9583 398.5275 173.7498 C393.8675 174.2035 389.1025 173.9682 384.4225 173.9455 L362.9900 173.9203 L289.7675 173.9170 L174.9650 173.9173 L137.4325 173.9158 C130.9332 173.9193 124.3627 174.1510 117.8695 173.8887 C113.8975 173.7283 110.2050 173.5220 106.8418 171.1548 C103.4818 168.7897 100.8878 165.2010 100.2223 161.0975 C99.7435 158.1443 99.6385 141.2115 100.1738 138.3860 C100.5345 136.4807 101.4015 134.7205 102.5348 133.1595 C105.2645 129.3620 109.3983 126.8120 114.0170 126.0768 Z"></path>
<path id="" fill="#000000" fill-opacity="1.0" stroke="#000000" stroke-width="0.0" stroke-opacity="1.0" stroke-linecap="round" stroke-linejoin="round"  filling="0" d="M119.0325 423.5000 C126.1195 423.8325 133.4003 423.4525 140.5128 423.4450 L184.3815 423.4475 L322.6550 423.4475 L368.0925 423.4475 C376.3600 423.4475 385.0375 422.9400 393.2550 423.8175 C393.2850 427.6350 393.3950 431.4750 393.2950 435.2900 C393.1125 442.3825 391.0350 449.4150 385.7400 454.4225 C380.9650 457.9600 377.0725 460.0325 371.1050 460.6625 C365.9750 461.2025 360.6600 460.9675 355.5050 460.9650 L330.9100 460.9575 L249.3622 460.9575 L176.6378 460.9650 L154.5090 460.9775 C149.5358 460.9800 144.4185 461.1875 139.4750 460.5700 C133.6960 459.8450 127.4955 456.4000 123.9365 451.7850 C118.9977 445.3825 118.6133 439.2900 118.7267 431.4975 C118.7653 428.8550 118.6908 426.1250 119.0325 423.5000 Z"></path>
<path id="" fill="#000000" fill-opacity="1.0" stroke="#000000" stroke-width="0.0" stroke-opacity="1.0" stroke-linecap="round" stroke-linejoin="round"  filling="0" d="M135.3845 112.8340 C136.9892 108.3605 139.6747 104.5625 144.0730 102.4650 C146.3403 101.3838 148.5807 101.0245 151.0710 100.9325 C162.1785 100.5212 173.4510 100.9392 184.5785 100.9388 L252.6925 100.9340 L324.0425 100.9315 C336.2800 100.9312 348.6200 100.5547 360.8400 100.9782 C362.9850 101.0525 365.1325 101.3325 367.1525 102.0797 C371.8725 103.8262 374.3600 107.1700 376.3900 111.5902 C376.6475 112.1552 376.8875 112.7275 377.1125 113.3060 C377.9300 115.1747 377.1650 123.7520 377.3150 126.5305 C371.8175 126.3322 366.2600 126.5293 360.7525 126.5363 L328.9625 126.5478 L230.4065 126.5553 L165.9267 126.5482 L145.6480 126.5370 C142.0530 126.5345 138.3078 126.3192 134.7345 126.6280 C134.9133 123.8655 133.9210 114.6468 135.3845 112.8340 Z"></path>
<path id="" fill="#d1d3d3" fill-opacity="1.0" stroke="#000000" stroke-width="0.0" stroke-opacity="1.0" stroke-linecap="round" stroke-linejoin="round"  filling="0" d="M135.3845 112.8340 C136.9892 108.3605 139.6747 104.5625 144.0730 102.4650 C146.3403 101.3838 148.5807 101.0245 151.0710 100.9325 C162.1785 100.5212 173.4510 100.9392 184.5785 100.9388 L252.6925 100.9340 L324.0425 100.9315 C336.2800 100.9312 348.6200 100.5547 360.8400 100.9782 C362.9850 101.0525 365.1325 101.3325 367.1525 102.0797 C371.8725 103.8262 374.3600 107.1700 376.3900 111.5902 C376.6475 112.1552 376.8875 112.7275 377.1125 113.3060 L376.8425 113.6215 C374.4375 114.0850 367.4025 113.6725 364.3875 113.6722 L331.9950 113.6770 L205.0640 113.6957 L153.4362 113.6880 C150.2328 113.6875 137.5385 114.1700 135.5080 113.5050 L135.3845 112.8340 Z"></path>
<path id="" fill="#000000" fill-opacity="1.0" stroke="#000000" stroke-width="0.0" stroke-opacity="1.0" stroke-linecap="round" stroke-linejoin="round"  filling="0" d="M128.0007 173.3705 C147.0587 173.0672 166.1647 173.3372 185.2272 173.3415 L292.9675 173.3497 L356.9825 173.3313 C369.0725 173.3305 381.4225 172.8630 393.4825 173.6605 C393.1100 177.0495 392.9150 190.3848 393.6600 193.2408 C390.3375 192.8297 386.8325 193.0985 383.4925 193.1525 L207.1400 193.1345 L151.6532 193.1530 C140.5972 193.1580 129.5132 193.3315 118.4615 193.0242 C118.9905 187.3078 119.0072 179.1257 118.7292 173.3635 C121.7972 173.6125 124.9250 173.4297 128.0007 173.3705 Z"></path>
<path id="" fill="#a4a9ad" fill-opacity="1.0" stroke="#000000" stroke-width="0.0" stroke-opacity="1.0" stroke-linecap="round" stroke-linejoin="round"  filling="0" d="M181.2218 211.0970 C184.4727 211.1127 187.8595 212.5180 190.5202 214.3242 C194.6212 217.1082 196.5858 220.9645 197.4555 225.7475 C198.7668 232.9575 198.1028 242.3470 198.0988 249.7583 L198.0887 290.9700 L198.0952 347.9900 L198.0952 366.3350 C198.0948 369.9825 198.2328 373.7175 197.9332 377.3500 C197.6020 381.3675 196.8002 385.6125 194.4292 388.9575 C191.4030 393.2275 187.5213 395.1375 182.4805 396.0250 C178.3728 396.0850 174.5237 395.2925 171.2155 392.7225 C168.5810 390.6775 165.6550 387.0450 165.2733 383.6250 C164.8500 379.8375 164.9810 375.9975 164.9810 372.1900 L164.9815 356.2825 L164.9855 304.0150 L164.9805 251.7300 L164.9740 235.4490 C164.9738 232.0903 164.8295 228.6530 165.1735 225.3105 C165.5018 222.1183 166.4535 219.6673 168.4760 217.1593 C171.6808 213.1853 176.2973 211.6385 181.2218 211.0970 Z"></path>
<path id="" fill="#a4a9ad" fill-opacity="1.0" stroke="#000000" stroke-width="0.0" stroke-opacity="1.0" stroke-linecap="round" stroke-linejoin="round"  filling="0" d="M329.8775 211.0625 C333.9325 210.9840 338.3575 212.6920 341.4750 215.2450 C344.9800 218.1163 346.5350 221.3967 346.9675 225.8658 C347.2725 229.0190 347.0800 232.2855 347.0775 235.4540 L347.0750 252.3150 L347.0725 306.5750 L347.0775 357.9450 L347.0825 373.6400 C347.0850 376.8525 347.2575 380.1650 346.9175 383.3625 C346.6725 385.6775 345.1200 388.1825 343.6575 389.9575 C340.5625 393.7125 336.6900 395.5575 331.8975 396.0425 C328.2175 396.0675 324.7075 395.2325 321.6825 393.0725 C317.4950 390.0850 315.3425 386.1875 314.5375 381.1750 C313.3550 373.8200 313.9900 364.6250 313.9900 357.0925 L313.9900 314.0300 L313.9950 257.8475 L313.9900 240.4095 C313.9875 236.5782 313.8550 232.6820 314.1750 228.8618 C314.5150 224.8195 315.2550 221.2982 317.6900 217.9713 C320.5425 214.0700 325.1750 211.7915 329.8775 211.0625 Z"></path>
<path id="" fill="#a4a9ad" fill-opacity="1.0" stroke="#000000" stroke-width="0.0" stroke-opacity="1.0" stroke-linecap="round" stroke-linejoin="round"  filling="0" d="M254.3775 211.3025 C257.0425 211.0533 259.5950 211.5412 262.0750 212.5197 C266.1225 214.1165 269.6550 217.2328 271.3600 221.2945 C271.9750 222.7578 272.0200 224.7955 272.0725 226.3683 C272.3275 233.9568 272.0750 241.6490 272.0750 249.2467 L272.0725 295.5525 L272.0725 351.9050 C272.0725 361.4900 272.2825 371.1175 272.0650 380.7000 C272.0325 382.1200 272.0725 383.7900 271.5100 385.1175 C270.9875 386.3500 270.3975 387.5450 269.6425 388.6525 C266.6950 392.9800 262.8450 395.0125 257.8100 395.9850 C253.5375 396.1000 249.6680 395.4075 246.2160 392.7225 C243.5872 390.6775 240.6365 387.0425 240.2708 383.6250 C239.4438 375.9000 239.9818 367.4600 239.9820 359.6625 L239.9830 315.4100 L239.9877 255.5425 L239.9765 236.1940 C239.9740 232.6387 239.8370 229.0145 240.0530 225.4690 C240.2195 222.7375 240.5513 221.2135 242.0428 218.8772 C244.9518 214.3203 249.2605 212.4030 254.3775 211.3025 Z"></path>
<path id="" fill="#a4a9ad" fill-opacity="1.0" stroke="#000000" stroke-width="0.0" stroke-opacity="1.0" stroke-linecap="round" stroke-linejoin="round"  filling="0" d="M175.9560 88.1980 C177.2388 77.7043 182.7168 67.1725 191.1017 60.6122 C196.8130 56.1438 203.1650 53.0592 210.3098 51.6870 C216.3515 50.5265 222.8342 50.9700 228.9702 50.9725 L255.8325 50.9832 L281.7675 50.9727 C287.5175 50.9698 293.4200 50.7052 299.1325 51.4147 C310.0350 52.7680 320.4225 58.2740 327.1825 67.0208 C332.7625 74.2420 335.3475 81.8120 336.3450 90.7650 C336.1350 94.1990 335.8300 97.8058 336.2175 101.2295 C328.9125 100.9960 321.5650 101.2103 314.2525 101.2193 C310.9600 101.2233 306.9925 101.6418 303.8175 100.8670 C303.1525 99.2665 304.3200 93.2878 303.0925 90.0407 C303.0650 89.9693 303.0375 89.8987 303.0075 89.8278 C301.5450 87.8952 299.7650 85.8427 297.5750 84.7303 C296.5525 84.2112 295.6275 84.0067 294.4900 83.9615 C282.5775 83.4875 270.4800 83.9297 258.5525 83.9280 C245.6492 83.9262 232.6065 83.5105 219.7235 83.9447 C218.2368 83.9950 216.4203 83.9685 215.0098 84.4605 C212.5862 85.3055 210.1675 87.5320 209.0847 89.8508 C207.4990 93.2288 207.9848 97.5462 208.0825 101.1805 C197.2325 101.1750 186.2905 100.9140 175.4518 101.1598 C176.2310 96.9182 175.3135 92.4770 175.9560 88.1980 Z"></path>
<path id="" fill="#000000" fill-opacity="1.0" stroke="#000000" stroke-width="0.0" stroke-opacity="1.0" stroke-linecap="round" stroke-linejoin="round"  filling="0" d="M175.9560 88.1980 C175.9583 88.9767 175.8635 89.7867 176.2400 90.4922 C178.8615 91.0920 186.1777 90.6363 189.2632 90.6325 C195.0780 90.6257 201.0388 90.9400 206.8370 90.6283 C207.4320 90.5963 208.0428 90.5610 208.5700 90.2550 C208.6220 90.2247 209.0375 89.8885 209.0847 89.8508 C207.4990 93.2288 207.9848 97.5462 208.0825 101.1805 C197.2325 101.1750 186.2905 100.9140 175.4518 101.1598 C176.2310 96.9182 175.3135 92.4770 175.9560 88.1980 Z"></path>
<path id="" fill="#000000" fill-opacity="1.0" stroke="#000000" stroke-width="0.0" stroke-opacity="1.0" stroke-linecap="round" stroke-linejoin="round"  filling="0" d="M303.0075 89.8278 C303.4875 90.2288 303.8100 90.4100 304.4400 90.4875 C307.6000 90.8760 310.9850 90.6550 314.1775 90.6495 C321.5425 90.6367 328.9900 90.4040 336.3450 90.7650 C336.1350 94.1990 335.8300 97.8058 336.2175 101.2295 C328.9125 100.9960 321.5650 101.2103 314.2525 101.2193 C310.9600 101.2233 306.9925 101.6418 303.8175 100.8670 C303.1525 99.2665 304.3200 93.2878 303.0925 90.0407 C303.0650 89.9693 303.0375 89.8987 303.0075 89.8278 Z"></path>
<path id="" fill="#a4a9ad" fill-opacity="1.0" stroke="#000000" stroke-width="0.0" stroke-opacity="1.0" stroke-linecap="round" stroke-linejoin="round"  filling="0" d="M401.7525 198.0295 C405.8450 198.0123 418.3825 196.9925 421.3400 199.8042 C424.3650 202.6805 424.1200 207.9795 424.1100 211.8307 C424.0975 215.5310 424.2400 220.2660 421.4400 223.0862 C418.3875 226.1620 408.1775 224.8748 403.8300 224.9630 C400.4075 225.4908 396.5450 224.8067 393.0300 225.0063 C393.4550 221.6205 393.1900 217.9805 393.1975 214.5567 C393.2100 209.1040 393.3625 203.6120 393.1125 198.1647 C395.9750 198.1965 398.8950 198.2300 401.7525 198.0295 Z"></path>
<path id="" fill="#000000" fill-opacity="1.0" stroke="#000000" stroke-width="0.0" stroke-opacity="1.0" stroke-linecap="round" stroke-linejoin="round"  filling="0" d="M393.1125 198.1647 C395.9750 198.1965 398.8950 198.2300 401.7525 198.0295 C401.3375 199.0845 401.1950 222.5165 401.5875 224.6540 C402.3400 224.9090 403.0475 224.9275 403.8300 224.9630 C400.4075 225.4908 396.5450 224.8067 393.0300 225.0063 C393.4550 221.6205 393.1900 217.9805 393.1975 214.5567 C393.2100 209.1040 393.3625 203.6120 393.1125 198.1647 Z"></path>
<path id="" fill="#a4a9ad" fill-opacity="1.0" stroke="#000000" stroke-width="0.0" stroke-opacity="1.0" stroke-linecap="round" stroke-linejoin="round"  filling="0" d="M110.2722 198.0325 C113.1217 198.1410 115.9730 198.1908 118.8242 198.1815 C118.5295 203.3882 118.7383 208.6508 118.7112 213.8665 C118.6923 217.5163 118.3092 221.2943 118.6985 224.9175 C114.3120 224.8488 109.8022 225.2148 105.4385 224.9512 C101.5508 225.0150 93.6435 225.9075 90.6882 223.2583 C88.2865 221.1048 88.1053 216.9425 87.9967 213.9370 C87.8412 209.6358 87.3882 203.1150 90.6237 199.8378 C91.3205 199.1317 92.0780 198.6862 93.0327 198.4247 C97.0688 197.3185 105.6738 198.0010 110.2722 198.0325 Z"></path>
<path id="" fill="#000000" fill-opacity="1.0" stroke="#000000" stroke-width="0.0" stroke-opacity="1.0" stroke-linecap="round" stroke-linejoin="round"  filling="0" d="M110.2722 198.0325 C113.1217 198.1410 115.9730 198.1908 118.8242 198.1815 C118.5295 203.3882 118.7383 208.6508 118.7112 213.8665 C118.6923 217.5163 118.3092 221.2943 118.6985 224.9175 C114.3120 224.8488 109.8022 225.2148 105.4385 224.9512 C107.0892 224.7390 108.8228 224.7957 110.4883 224.7640 L110.4945 204.4510 C110.5038 202.8910 110.9150 199.9093 110.5905 198.5405 C110.5445 198.3463 110.3785 198.2018 110.2722 198.0325 Z"></path>
</svg>