<svg xmlns="http://www.w3.org/2000/svg" viewBox="0 0 512 512" height="512.0px" width="512.0px">
<path id="" fill="#d0d2d3" fill-opacity="1.0" stroke="#000000" stroke-width="0.0" stroke-opacity="1.0" stroke-linecap="round" stroke-linejoin="round"  filling="0" d="M389.9925 111.9665 C407.3325 111.6325 424.7325 111.9480 442.0775 111.9370 L442.0600 313.6375 L442.0625 372.8325 C442.0625 382.8925 442.2200 392.9800 442.0450 403.0375 C444.4400 402.9050 447.0775 402.7675 449.3450 403.6600 C451.6475 404.5625 453.5000 406.5325 454.4750 408.7825 C455.3700 410.7925 455.4125 413.0800 454.5925 415.1200 C453.8050 417.0625 452.1625 418.7525 450.1625 419.4475 C446.8100 420.6150 420.9625 420.0200 415.8350 420.0225 C405.9900 420.0250 395.9300 420.4575 386.1050 419.9300 C384.4850 419.8425 382.5250 419.8425 381.0875 419.0075 C378.6900 417.6175 377.6125 414.5450 376.8500 412.0300 C377.3750 409.5725 378.0375 407.4500 379.9175 405.6475 C382.9200 402.7700 386.1325 402.8750 389.9600 403.0400 L389.9925 111.9665 Z"></path>
<path id="" fill="#a4a9ad" fill-opacity="1.0" stroke="#000000" stroke-width="0.0" stroke-opacity="1.0" stroke-linecap="round" stroke-linejoin="round"  filling="0" d="M442.0450 403.0375 C444.4400 402.9050 447.0775 402.7675 449.3450 403.6600 C451.6475 404.5625 453.5000 406.5325 454.4750 408.7825 C455.3700 410.7925 455.4125 413.0800 454.5925 415.1200 C453.8050 417.0625 452.1625 418.7525 450.1625 419.4475 C446.8100 420.6150 420.9625 420.0200 415.8350 420.0225 C405.9900 420.0250 395.9300 420.4575 386.1050 419.9300 C384.4850 419.8425 382.5250 419.8425 381.0875 419.0075 C378.6900 417.6175 377.6125 414.5450 376.8500 412.0300 C377.3750 409.5725 378.0375 407.4500 379.9175 405.6475 C382.9200 402.7700 386.1325 402.8750 389.9600 403.0400 C391.3625 403.5125 440.6500 403.4300 442.0450 403.0375 Z"></path>
<path id="" fill="#d1d3d3" fill-opacity="1.0" stroke="#000000" stroke-width="0.0" stroke-opacity="1.0" stroke-linecap="round" stroke-linejoin="round"  filling="0" d="M70.0075 111.9655 C75.7425 111.6758 81.6085 111.9455 87.3593 111.9457 L122.0867 111.9420 L122.0700 325.2075 C122.0713 351.0950 122.3773 377.0200 122.0307 402.9025 C124.4857 402.6850 127.3090 403.1825 129.5477 404.2325 C132.7135 405.7175 134.0423 408.3575 135.1342 411.4900 C134.5517 413.5800 133.8880 415.5775 132.3680 417.1900 C129.7895 419.9250 125.7997 419.9675 122.3118 420.0225 L87.1992 420.0375 C80.8763 420.0400 74.3570 420.3575 68.0587 419.8575 C65.8808 419.6850 62.9577 419.4400 61.0423 418.3225 C58.5253 416.8525 57.6537 414.1100 56.9275 411.4750 C57.4102 409.5300 58.4320 407.4175 59.8568 406.0025 C62.3878 403.4900 66.5675 402.7625 70.0030 402.7200 L70.0075 111.9655 Z"></path>
<path id="" fill="#a4a9ad" fill-opacity="1.0" stroke="#000000" stroke-width="0.0" stroke-opacity="1.0" stroke-linecap="round" stroke-linejoin="round"  filling="0" d="M122.0325 328.9700 C137.8528 329.2100 153.7092 329.0050 169.5327 329.0075 L259.7625 329.0075 L343.4725 329.0075 C359.0250 329.0125 374.6025 329.2150 390.1525 328.9500 C390.0300 333.6900 390.0800 338.4475 390.0750 343.1900 C390.0725 346.8125 389.9450 350.4875 390.2350 354.0975 C386.3050 353.8925 382.3100 354.0250 378.3725 354.0225 L356.7075 354.0225 L291.2075 354.0250 L181.3123 354.0250 C161.5400 354.0250 141.7470 353.8325 121.9770 354.0825 C121.9475 345.7125 121.9660 337.3400 122.0325 328.9700 Z"></path>
<path id="" fill="#a4a9ad" fill-opacity="1.0" stroke="#000000" stroke-width="0.0" stroke-opacity="1.0" stroke-linecap="round" stroke-linejoin="round"  filling="0" d="M56.9950 418.1825 C56.9665 416.6200 56.9463 415.0575 56.9342 413.4925 C56.9235 410.8100 57.2253 408.1600 59.2830 406.2050 C60.8355 404.7300 63.3160 403.4625 65.4285 403.1475 C70.4405 402.4050 78.7145 402.9475 84.1382 402.9575 L120.6187 402.9350 C124.3575 402.9450 129.1118 402.5575 131.9178 405.5575 C134.3370 408.1450 135.1823 413.9250 135.0623 417.4125 L135.0302 418.9725 C136.7075 418.9475 138.3850 418.9500 140.0623 418.9825 C141.5880 424.5975 141.0757 430.7875 141.0728 436.5725 C141.0970 441.8125 141.0685 447.0525 140.9875 452.2900 C140.1073 453.5425 139.2410 454.8750 137.7303 455.4075 C135.0690 456.3425 112.5675 455.7600 107.8250 455.7650 L76.4408 455.7875 C70.0338 455.7900 63.5973 455.9200 57.1953 455.6475 C55.6125 455.5800 53.7410 455.5750 52.3225 454.7800 C51.7883 454.4800 51.4917 454.1100 51.3177 453.5225 C50.3748 450.3400 51.0265 436.0225 51.0287 431.6075 C51.0302 428.6225 50.7753 425.5950 50.9000 422.6175 C50.9348 421.7875 51.0802 420.8275 51.5072 420.1000 C52.6545 418.1450 54.9577 419.3375 56.7097 418.7450 C56.8020 418.7125 56.8878 418.6650 56.9767 418.6250 L56.9950 418.1825 Z"></path>
<path id="" fill="#a4a9ad" fill-opacity="1.0" stroke="#000000" stroke-width="0.0" stroke-opacity="1.0" stroke-linecap="round" stroke-linejoin="round"  filling="0" d="M56.9950 418.1825 C56.9665 416.6200 56.9463 415.0575 56.9342 413.4925 C56.9235 410.8100 57.2253 408.1600 59.2830 406.2050 C60.8355 404.7300 63.3160 403.4625 65.4285 403.1475 C70.4405 402.4050 78.7145 402.9475 84.1382 402.9575 L120.6187 402.9350 C124.3575 402.9450 129.1118 402.5575 131.9178 405.5575 C134.3370 408.1450 135.1823 413.9250 135.0623 417.4125 C126.1718 417.7375 59.0598 416.7225 56.9950 418.1825 Z"></path>
<path id="" fill="#a4a9ad" fill-opacity="1.0" stroke="#000000" stroke-width="0.0" stroke-opacity="1.0" stroke-linecap="round" stroke-linejoin="round"  filling="0" d="M56.9950 418.1825 C59.0598 416.7225 126.1718 417.7375 135.0623 417.4125 L135.0302 418.9725 C131.1078 419.1475 127.1107 419.0100 123.1790 419.0175 L98.7230 419.0100 C85.4120 418.9975 72.0045 419.4075 58.7097 419.0500 C57.9987 419.0325 57.5388 419.0800 56.9767 418.6250 L56.9950 418.1825 Z"></path>
<path id="" fill="#a4a9ad" fill-opacity="1.0" stroke="#000000" stroke-width="0.0" stroke-opacity="1.0" stroke-linecap="round" stroke-linejoin="round"  filling="0" d="M378.3400 417.4975 C381.0950 417.6075 383.8350 417.8875 386.5950 417.9550 C399.5625 418.2625 412.5950 417.9975 425.5675 417.9925 L443.7675 417.9775 C446.6975 417.9575 449.7350 417.6275 452.6500 417.8650 C455.1000 418.0650 457.8750 418.9725 460.2725 419.5600 C460.9650 420.1900 460.9975 421.3300 461.0625 422.2100 C461.4200 427.1850 461.0875 432.3800 461.1050 437.3800 C461.1200 442.2100 461.4925 447.2675 461.1450 452.0650 C461.0900 452.8425 461.0775 453.4725 460.5250 454.0675 C459.0650 455.6425 456.6975 455.6800 454.7025 455.7825 L403.0425 455.7800 L386.6550 455.7875 C383.1800 455.7875 379.6075 455.9200 376.1475 455.5600 C374.9050 455.4300 372.2450 455.1700 371.4625 454.2100 C371.1450 453.2725 371.0350 452.3400 370.9900 451.3575 C370.7250 445.8125 371.0425 440.1550 371.0500 434.6050 C371.0550 430.9600 370.3425 425.4425 371.1600 422.1300 C372.0800 418.4125 375.5050 419.3725 378.1250 417.6500 C378.1975 417.6000 378.2675 417.5475 378.3400 417.4975 Z"></path>
<path id="" fill="#a4a9ad" fill-opacity="1.0" stroke="#000000" stroke-width="0.0" stroke-opacity="1.0" stroke-linecap="round" stroke-linejoin="round"  filling="0" d="M387.2850 88.0865 C398.9900 87.6360 410.8475 88.0482 422.5675 88.0330 L436.0900 88.0208 C439.3475 88.0222 442.8550 87.8517 446.0725 88.4140 C448.0775 88.7647 449.9675 89.7445 451.5475 91.0188 C453.7175 92.7668 454.6475 94.5977 454.9625 97.3228 C455.4100 101.1978 455.4825 119.8590 454.7100 123.3260 C454.4150 124.6555 453.6525 125.8575 452.7925 126.8975 C450.6675 129.4705 448.2950 130.1195 445.1400 130.4775 C430.3625 129.5168 415.3575 129.9657 400.5450 130.0345 C395.9450 130.0560 391.0975 130.6925 386.5350 130.3295 C384.5575 130.1720 382.7950 129.8280 381.1600 128.6250 C378.7075 126.8192 377.6700 124.5078 377.2675 121.5540 C376.7550 117.7972 377.0400 113.8792 377.0150 110.0938 C376.9875 105.9750 376.5100 101.1877 377.2875 97.1370 C377.6350 95.2855 378.4225 93.5450 379.5875 92.0642 C381.5350 89.6298 384.2600 88.4645 387.2850 88.0865 Z"></path>
<path id="" fill="#a4a9ad" fill-opacity="1.0" stroke="#000000" stroke-width="0.0" stroke-opacity="1.0" stroke-linecap="round" stroke-linejoin="round"  filling="0" d="M68.3680 88.1020 C71.6450 87.8210 75.0850 88.0228 78.3822 88.0222 L97.0948 88.0220 L114.3188 88.0287 C118.0307 88.0312 121.9890 87.8185 125.6655 88.3503 C127.5725 88.6260 129.5607 89.3390 131.0253 90.6215 C133.7433 93.0017 134.9532 96.2930 135.0830 99.8350 C135.2112 103.3355 135.0367 106.8637 135.0460 110.3675 C135.0560 114.2863 135.5182 118.6913 134.7100 122.5472 C134.3578 124.2285 133.7425 125.8715 132.5145 127.1155 C129.9597 129.7032 126.7368 130.5740 123.2117 130.5230 C117.1367 129.5775 110.6115 130.0150 104.4740 130.0197 L77.5392 130.0250 C73.7050 130.0562 69.8123 130.6340 65.9925 130.2218 C64.1858 130.0267 62.3898 129.5992 60.9157 128.4830 C58.7125 126.8140 57.4727 124.4805 57.1100 121.7693 C56.6760 118.5255 57.0372 115.0105 57.0182 111.7305 C56.9935 107.5055 56.4335 100.7487 57.1215 96.7775 C57.4060 95.0462 58.1470 93.4220 59.2675 92.0720 C61.7515 89.0440 64.6682 88.3880 68.3680 88.1020 Z"></path>
<path id="" fill="#333e48" fill-opacity="1.0" stroke="#000000" stroke-width="0.0" stroke-opacity="1.0" stroke-linecap="round" stroke-linejoin="round"  filling="0" d="M373.3225 166.0788 C376.4625 163.8265 379.6275 161.5915 382.6575 159.1882 C384.8625 157.4373 386.9775 155.4088 389.3050 153.8385 L389.7825 154.0578 C390.3200 157.2545 389.9350 161.0872 389.9400 164.3660 C389.9500 171.7968 390.1125 179.2852 389.7475 186.7072 C384.6550 190.3575 379.1200 193.4393 373.8050 196.7545 C369.5075 199.0522 365.0950 201.1335 360.7675 203.3802 C360.5725 210.6118 360.9475 217.9550 360.9525 225.2030 L360.9500 278.5925 L360.9450 313.8400 C360.9400 319.1200 360.5325 324.5700 360.8775 329.8250 C356.5675 329.5425 351.2950 329.3025 347.0400 330.0650 C347.4125 325.7775 347.1475 321.3025 347.1425 316.9950 L347.1375 293.4400 C347.0375 265.3925 347.0800 237.3430 347.2675 209.2955 C339.3725 212.6170 330.9350 215.2140 322.6900 217.4985 C319.0975 218.4935 315.3825 219.6348 311.6825 220.1175 C311.9825 231.2775 312.0775 242.4422 311.9675 253.6050 L311.9650 299.9775 L311.9500 319.1200 C311.9225 322.6750 311.6550 326.2725 311.9350 329.8175 C307.6025 329.5425 302.3325 329.3050 298.0525 330.0575 C298.3575 326.3450 298.1750 322.5125 298.1700 318.7850 L298.1475 299.5300 L298.1400 254.6175 C298.0425 244.0700 298.1225 233.5225 298.3775 222.9785 C292.2100 224.3067 268.5075 227.2663 262.7525 226.4863 C263.0425 250.7825 263.1200 275.0825 262.9825 299.3800 L262.9700 319.3125 C262.9550 322.8150 262.7550 326.3175 262.9525 329.8175 C258.6050 329.5450 253.3550 329.3050 249.0565 330.0550 C249.3465 326.7450 249.1850 323.3400 249.1767 320.0150 L249.1655 304.3650 L249.1595 251.4700 C249.1582 243.9265 248.5827 233.8158 249.5120 226.5590 C240.3150 226.3185 231.1398 225.5457 222.0323 224.2448 C219.2835 223.8655 216.4238 223.6810 213.7267 223.0270 C214.3797 248.2640 213.9990 273.5775 213.9922 298.8225 L213.9798 318.9600 C213.9662 322.5725 213.7617 326.2025 214.0020 329.8100 C209.5728 329.5925 204.4390 329.3275 200.0603 330.0450 C200.3967 326.3350 200.2045 322.5025 200.1980 318.7725 L200.1790 300.0875 L200.1747 251.0275 C200.1747 240.7680 199.9783 230.4730 200.3922 220.2213 C191.1503 218.1217 182.0417 215.4720 173.1158 212.2863 C170.3418 211.3242 167.4500 210.4965 164.7782 209.2762 C164.6420 215.4097 164.9960 221.6082 164.9985 227.7555 L165.0033 280.0550 L164.9960 312.9175 C164.9930 318.5050 164.6597 324.2525 165.0480 329.8200 C160.6277 329.5875 155.5035 329.3350 151.1285 330.0250 C151.3490 326.6950 151.2075 323.2850 151.2030 319.9450 L151.1992 302.5050 L151.1893 239.8188 C151.1845 227.7397 150.6828 215.4227 151.5475 203.3780 C146.9220 201.5717 142.5677 198.8853 138.1150 196.6885 C132.8645 193.2920 127.4333 190.1355 122.1610 186.7547 C121.5365 175.6842 122.7128 164.4715 122.0713 153.4077 C124.9500 155.4585 127.5895 157.8580 130.3938 160.0132 C133.0367 162.0445 136.2460 163.8987 138.5815 166.2445 C144.1057 169.4715 149.3568 173.0773 155.0010 176.1380 C172.2175 185.4745 191.2222 191.9182 210.3540 195.9527 C226.8073 199.3723 243.6078 200.8297 260.4050 200.2943 C301.8925 199.3415 338.5050 188.8140 373.3225 166.0788 Z"></path>
<path id="" fill="#000000" fill-opacity="1.0" stroke="#000000" stroke-width="0.0" stroke-opacity="1.0" stroke-linecap="round" stroke-linejoin="round"  filling="0" d="M373.3225 166.0788 C376.4625 163.8265 379.6275 161.5915 382.6575 159.1882 C384.8625 157.4373 386.9775 155.4088 389.3050 153.8385 L389.7825 154.0578 C390.3200 157.2545 389.9350 161.0872 389.9400 164.3660 C389.9500 171.7968 390.1125 179.2852 389.7475 186.7072 C384.6550 190.3575 379.1200 193.4393 373.8050 196.7545 C372.8850 191.1178 373.4725 179.5795 373.4900 173.5520 C373.4975 171.1373 373.7475 168.4583 373.3225 166.0788 Z"></path>
<path id="" fill="#000000" fill-opacity="1.0" stroke="#000000" stroke-width="0.0" stroke-opacity="1.0" stroke-linecap="round" stroke-linejoin="round"  filling="0" d="M122.0713 153.4077 C124.9500 155.4585 127.5895 157.8580 130.3938 160.0132 C133.0367 162.0445 136.2460 163.8987 138.5815 166.2445 C138.2793 168.6732 138.4753 171.3010 138.4860 173.7538 L138.5502 188.0535 C138.5598 190.8970 138.6877 193.8952 138.1150 196.6885 C132.8645 193.2920 127.4333 190.1355 122.1610 186.7547 C121.5365 175.6842 122.7128 164.4715 122.0713 153.4077 Z"></path>
<path id="" fill="#000000" fill-opacity="1.0" stroke="#000000" stroke-width="0.0" stroke-opacity="1.0" stroke-linecap="round" stroke-linejoin="round"  filling="0" d="M394.7475 130.1093 C410.6500 129.9515 426.6750 129.7812 442.5675 130.2672 C442.3100 133.4980 442.4850 136.8315 442.4575 140.0762 C442.4350 142.7558 442.2200 145.4238 442.2550 148.1040 L437.3750 148.0325 L409.0350 148.0022 C402.6400 148.0112 396.2100 147.9010 389.8275 148.3103 L389.8950 130.1463 C391.5125 130.2290 393.1300 130.1570 394.7475 130.1093 Z"></path>
<path id="" fill="#010101" fill-opacity="1.0" stroke="#000000" stroke-width="0.0" stroke-opacity="1.0" stroke-linecap="round" stroke-linejoin="round"  filling="0" d="M73.6760 130.1207 C89.7527 129.8327 106.0527 129.7823 122.1180 130.2960 C122.0143 133.3443 122.6990 146.4390 121.5027 148.0092 C120.6472 148.4052 119.6645 148.1792 118.7545 148.0780 L89.4238 147.9937 C82.7775 147.9978 76.1042 147.8983 69.4633 148.1543 C69.5717 142.1758 69.5895 136.1960 69.5165 130.2170 L73.6760 130.1207 Z"></path>
<path id="" fill="#000000" fill-opacity="1.0" stroke="#000000" stroke-width="0.0" stroke-opacity="1.0" stroke-linecap="round" stroke-linejoin="round"  filling="0" d="M122.3018 329.0925 C127.7867 329.2125 133.2975 329.0550 138.7880 329.1200 C138.4818 337.3450 138.6788 345.9025 138.6033 354.1750 C133.5330 354.3925 128.4485 354.0275 123.3760 354.2325 C122.2715 354.2750 121.6770 354.9025 120.6965 355.0250 C117.8842 355.3725 114.7798 355.1350 111.9375 355.1450 C109.0048 355.1325 106.0567 355.1050 103.1257 355.1950 C101.5390 355.2450 99.8750 355.5700 98.2982 355.4425 C97.8702 355.4075 97.5500 355.2675 97.1707 355.0800 C95.7018 353.3825 96.5525 345.4450 96.3565 342.8375 L96.3285 342.5050 C104.8935 342.5225 113.6212 342.0225 122.1642 342.6025 C122.1057 339.5750 121.6523 331.5925 122.3018 329.0925 Z"></path>
<path id="" fill="#000000" fill-opacity="1.0" stroke="#000000" stroke-width="0.0" stroke-opacity="1.0" stroke-linecap="round" stroke-linejoin="round"  filling="0" d="M374.4000 329.0850 L389.9725 329.0775 C389.8750 333.5600 389.9350 338.0600 389.6225 342.5325 C398.2750 342.3625 406.9300 342.3975 415.5800 342.6350 C415.4800 344.7700 415.9725 353.3725 415.2375 354.7400 C415.0925 355.0050 414.8625 355.2150 414.6775 355.4500 C407.7300 355.2625 400.7250 355.3850 393.7925 355.0600 C391.4300 354.9500 389.1225 354.3750 386.7725 354.1750 C382.4125 353.8075 377.7325 354.1025 373.3600 354.3850 C373.3050 351.0600 372.7475 330.6100 373.5150 329.2875 L374.4000 329.0850 Z"></path>
<path id="" fill="#000000" fill-opacity="1.0" stroke="#000000" stroke-width="0.0" stroke-opacity="1.0" stroke-linecap="round" stroke-linejoin="round"  filling="0" d="M378.1800 412.0750 L454.8750 412.1300 C454.8750 413.8600 455.4000 417.5325 454.6550 418.9975 L402.6750 419.3175 C397.6150 419.3375 392.5575 419.3125 387.5000 419.2400 C384.1925 419.1650 380.7350 418.7800 377.4500 419.0725 C377.4350 417.2275 376.9750 413.4375 378.1800 412.0750 Z"></path>
<path id="" fill="#000000" fill-opacity="1.0" stroke="#000000" stroke-width="0.0" stroke-opacity="1.0" stroke-linecap="round" stroke-linejoin="round"  filling="0" d="M58.5395 412.1050 C72.8020 411.9325 87.0782 412.0550 101.3420 412.0575 C112.3938 412.0575 123.4895 411.8425 134.5340 412.2700 C134.4688 414.2975 134.7270 416.4300 134.2363 418.4075 C133.6660 418.8550 133.5505 418.7700 132.8123 418.7600 C115.0370 419.2325 97.1925 418.9200 79.4095 418.9150 C72.1093 418.9100 64.2182 418.4050 57.0033 419.0025 C57.0923 417.3975 56.5967 413.7050 57.4710 412.4250 C57.6922 412.1000 58.1803 412.1575 58.5395 412.1050 Z"></path>
<path id="" fill="#333e48" fill-opacity="1.0" stroke="#000000" stroke-width="0.0" stroke-opacity="1.0" stroke-linecap="round" stroke-linejoin="round"  filling="0" d="M414.6750 56.7747 C416.6975 56.7207 418.8725 56.9555 420.4750 58.3145 C421.5175 59.1987 422.1475 60.3278 422.4750 61.6427 C423.2550 64.7670 423.0325 68.2588 423.0225 71.4570 C423.0075 77.3018 422.7125 83.2978 423.1325 89.1215 C421.4475 88.9837 419.7525 88.9700 418.0625 88.9300 C415.1050 88.8952 412.1250 88.7758 409.1800 89.0785 C409.6325 83.2050 408.1200 64.2233 410.0325 60.4385 C410.9950 58.5358 412.7175 57.4490 414.6750 56.7747 Z"></path>
<path id="" fill="#333e48" fill-opacity="1.0" stroke="#000000" stroke-width="0.0" stroke-opacity="1.0" stroke-linecap="round" stroke-linejoin="round"  filling="0" d="M94.5625 56.7953 C94.6363 56.7897 94.7100 56.7823 94.7838 56.7785 C96.8873 56.6662 98.7175 57.1280 100.3180 58.5813 C101.3672 59.5340 101.9535 60.7603 102.2773 62.1255 C103.8080 68.5762 102.3085 81.9262 102.5038 89.0723 C100.9410 88.9918 99.3770 88.9373 97.8125 88.9090 C94.8672 88.8910 91.9187 88.8195 88.9818 89.0762 C89.1555 83.9532 88.1137 62.8375 89.9782 59.8150 C91.0005 58.1577 92.7235 57.2355 94.5625 56.7953 Z"></path>
<path id="" fill="#000000" fill-opacity="1.0" stroke="#000000" stroke-width="0.0" stroke-opacity="1.0" stroke-linecap="round" stroke-linejoin="round"  filling="0" d="M86.0605 281.3600 C93.6770 280.9850 101.3367 281.2600 108.9603 281.2850 C108.8095 285.4000 109.2715 289.7375 108.7715 293.8075 C107.8850 294.1475 106.8730 294.0200 105.9375 293.9975 L82.8260 294.0150 C83.1017 289.9725 82.9003 285.6250 82.6942 281.5775 L86.0605 281.3600 Z"></path>
<path id="" fill="#000000" fill-opacity="1.0" stroke="#000000" stroke-width="0.0" stroke-opacity="1.0" stroke-linecap="round" stroke-linejoin="round"  filling="0" d="M417.0175 383.6325 C422.2850 383.5925 427.5550 383.5425 432.8200 383.5775 C436.0525 383.6000 439.3325 383.8250 442.5500 383.5350 C442.4075 387.8050 442.4650 392.0775 442.2750 396.3450 C433.6875 396.0875 424.9925 396.4600 416.3900 396.4175 C416.5425 394.0700 416.2000 384.9925 417.0175 383.6325 Z"></path>
<path id="" fill="#000000" fill-opacity="1.0" stroke="#000000" stroke-width="0.0" stroke-opacity="1.0" stroke-linecap="round" stroke-linejoin="round"  filling="0" d="M69.8110 383.6075 L95.4430 383.7050 C95.0453 387.6075 94.9518 392.4100 95.4197 396.2975 C93.4023 396.7925 90.4942 396.4450 88.3687 396.4500 C82.0673 396.4675 75.7655 396.4325 69.4648 396.3400 C69.4550 394.1525 68.9778 385.1825 69.8110 383.6075 Z"></path>
<path id="" fill="#000000" fill-opacity="1.0" stroke="#000000" stroke-width="0.0" stroke-opacity="1.0" stroke-linecap="round" stroke-linejoin="round"  filling="0" d="M403.2425 281.3275 C411.8650 281.5725 420.4800 280.8100 429.1150 281.4925 C428.9825 283.6200 429.4925 292.8000 428.6875 293.9550 C420.1300 293.9300 411.5725 293.9650 403.0175 294.0600 C403.3450 290.1350 402.4025 284.9825 403.2425 281.3275 Z"></path>
<path id="" fill="#000000" fill-opacity="1.0" stroke="#000000" stroke-width="0.0" stroke-opacity="1.0" stroke-linecap="round" stroke-linejoin="round"  filling="0" d="M76.5825 180.3795 C82.7620 180.2740 89.1483 180.1588 95.3008 180.6667 C95.1560 183.7445 95.8918 190.8715 94.4745 193.3110 C92.9048 193.9353 89.7312 193.4335 87.9583 193.3598 C84.7637 193.2190 81.5663 193.1593 78.3687 193.1808 C75.5193 193.2128 72.6273 193.4948 69.8045 193.0190 C68.9805 191.7325 69.6113 182.5733 69.5512 180.4973 C71.8952 180.4700 74.2390 180.4308 76.5825 180.3795 Z"></path>
<path id="" fill="#000000" fill-opacity="1.0" stroke="#000000" stroke-width="0.0" stroke-opacity="1.0" stroke-linecap="round" stroke-linejoin="round"  filling="0" d="M425.2475 180.3698 C430.9750 180.3285 436.7225 180.3130 442.4400 180.6405 C442.4500 181.7722 442.4525 182.9040 442.4450 184.0358 C442.4325 186.1163 442.8700 191.9175 441.4175 193.3517 C439.1375 193.7705 436.2875 193.3370 433.9375 193.2713 C430.6925 193.1690 427.4175 193.0910 424.1700 193.2175 C422.4000 193.2865 420.4825 193.6723 418.7325 193.5715 C418.1225 193.5363 417.7425 193.3245 417.2750 192.9545 C416.1150 190.8927 416.8100 183.2810 416.7325 180.4622 C419.5625 180.5607 422.4175 180.4223 425.2475 180.3698 Z"></path>
<path id="" fill="#000000" fill-opacity="1.0" stroke="#000000" stroke-width="0.0" stroke-opacity="1.0" stroke-linecap="round" stroke-linejoin="round"  filling="0" d="M96.4398 228.9883 C100.3780 228.9048 118.9668 228.5335 121.8177 229.3445 C122.4705 231.5860 122.1390 239.1187 121.8775 241.6315 C118.1143 241.4088 114.2152 241.7133 110.4388 241.7260 C105.7420 241.7417 100.9543 241.4780 96.2718 241.8075 C96.4220 237.5508 96.5220 233.2460 96.4398 228.9883 Z"></path>
<path id="" fill="#000000" fill-opacity="1.0" stroke="#000000" stroke-width="0.0" stroke-opacity="1.0" stroke-linecap="round" stroke-linejoin="round"  filling="0" d="M390.3000 228.7413 C398.6050 229.3943 407.1675 228.9925 415.5025 228.9982 C415.5125 230.5802 415.7550 240.3378 415.3500 241.1810 C415.2625 241.3642 415.0750 241.4787 414.9350 241.6277 C411.0775 241.5475 407.1825 241.7153 403.3200 241.7303 C398.8250 241.7475 394.3300 241.6268 389.8350 241.6810 C389.8375 238.1860 389.3225 231.8253 390.3000 228.7413 Z"></path>
</svg>