<svg xmlns="http://www.w3.org/2000/svg" viewBox="0 0 512 512" height="512.0px" width="512.0px">
<path id="" fill="#0070ce" fill-opacity="1.0" stroke="#000000" stroke-width="0.0" stroke-opacity="1.0" stroke-linecap="round" stroke-linejoin="round"  filling="0" d="M242.2233 222.9175 C242.2250 221.5970 242.6788 220.4525 243.6255 219.5117 C246.3862 216.7677 252.9225 215.9747 256.6825 216.0960 C259.4225 216.1845 267.8050 217.1638 269.4125 219.6217 C270.0850 220.6545 269.9850 223.7883 270.0000 225.0287 C270.4250 255.5800 270.0275 286.1875 270.0325 316.7450 L270.0375 352.9500 C270.0375 359.0900 270.3175 365.3900 269.9825 371.5150 C270.2750 388.1525 270.0150 404.8375 270.0150 421.4800 C270.0125 428.3225 269.8100 435.2175 270.1075 442.0500 C265.9400 441.7350 261.7200 441.8375 257.5425 441.8425 C252.3775 441.8475 247.2045 441.8050 242.0440 442.0600 C242.3553 436.2375 242.0753 430.2825 242.0985 424.4400 C241.9913 414.8225 242.1217 405.2000 242.1180 395.5825 C242.1142 385.6925 241.9860 375.7950 242.0777 365.9050 C241.9085 354.8550 242.0445 343.7825 242.0482 332.7300 L242.0663 271.0800 L242.0502 240.2685 C242.0315 234.6073 241.5757 228.5370 242.2233 222.9175 Z"></path>
<path id="" fill="#00b3e3" fill-opacity="1.0" stroke="#000000" stroke-width="0.0" stroke-opacity="1.0" stroke-linecap="round" stroke-linejoin="round"  filling="0" d="M242.3248 366.7800 C248.8647 366.7650 255.4050 367.1075 261.9550 367.0575 C264.5575 367.0375 267.3000 367.1725 269.8700 366.7375 C269.8475 368.3400 269.8400 369.9175 269.9825 371.5150 C270.2750 388.1525 270.0150 404.8375 270.0150 421.4800 C270.0125 428.3225 269.8100 435.2175 270.1075 442.0500 C265.9400 441.7350 261.7200 441.8375 257.5425 441.8425 C252.3775 441.8475 247.2045 441.8050 242.0440 442.0600 C242.3553 436.2375 242.0753 430.2825 242.0985 424.4400 C242.7122 423.0275 242.3237 373.8625 242.3248 366.7800 Z"></path>
<path id="" fill="#000000" fill-opacity="1.0" stroke="#000000" stroke-width="0.0" stroke-opacity="1.0" stroke-linecap="round" stroke-linejoin="round"  filling="0" d="M245.7930 206.1055 C253.8450 205.8163 261.9300 206.2435 269.9875 206.0785 C270.0350 211.9255 270.0400 217.7728 269.9975 223.6200 C268.9875 223.4740 267.9800 223.4603 266.9625 223.4315 C262.6600 223.1662 258.3100 223.2912 254.0000 223.2527 C250.0025 223.2170 245.9532 222.9987 241.9653 223.2843 C241.8925 217.6300 242.0180 211.9575 242.0530 206.3020 L245.7930 206.1055 Z"></path>
<path id="" fill="#333e48" fill-opacity="1.0" stroke="#000000" stroke-width="0.0" stroke-opacity="1.0" stroke-linecap="round" stroke-linejoin="round"  filling="0" d="M225.9263 179.6358 C238.8325 179.1075 251.8750 179.4545 264.7925 179.4615 C272.6200 179.4657 285.7850 178.8698 293.0425 180.2440 C295.5150 180.7188 297.8075 181.8660 299.6700 183.5598 C302.2175 185.8432 303.7050 189.0790 303.7825 192.4987 C303.8650 196.2560 302.3250 200.2122 299.7125 202.9232 C295.1250 207.6835 289.1700 207.5287 283.0625 207.6250 C278.0400 207.7020 273.2125 207.5222 268.2475 206.7405 C264.9200 206.2168 246.5230 205.4182 243.6842 206.6042 C243.3423 206.7470 242.9003 207.1770 242.5875 207.4052 C240.5480 207.3755 238.4987 207.5573 236.4605 207.6450 C229.1990 207.9575 217.9070 208.8205 212.2775 203.4810 C209.6763 201.0508 208.1528 197.6828 208.0453 194.1245 C207.9662 190.3485 209.5977 186.5940 212.2070 183.8810 C215.9993 179.9375 220.8188 179.7165 225.9263 179.6358 Z"></path>
<path id="" fill="#f2d383" fill-opacity="1.0" stroke="#000000" stroke-width="0.0" stroke-opacity="1.0" stroke-linecap="round" stroke-linejoin="round"  filling="0" d="M208.9335 103.9568 C218.8290 103.7920 228.7563 103.9740 238.6557 103.9755 L303.1250 103.9440 C302.9175 112.2595 301.0550 120.5720 299.7775 128.7755 C297.4575 142.8860 295.3150 157.0250 293.3450 171.1890 C292.9850 174.0797 292.1675 176.8910 291.9525 179.8062 C283.0225 179.1345 273.7750 179.6035 264.8075 179.6295 L220.0612 179.6152 C219.8700 176.5108 219.1922 173.4465 218.7402 170.3720 C217.6512 162.9653 216.4930 155.6330 215.2533 148.2482 C214.0715 141.2085 213.3835 134.0850 212.1788 127.0472 C210.8723 119.4160 209.0620 111.7303 208.9335 103.9568 Z"></path>
<path id="" fill="#333e48" fill-opacity="1.0" stroke="#000000" stroke-width="0.0" stroke-opacity="1.0" stroke-linecap="round" stroke-linejoin="round"  filling="0" d="M212.6797 80.3712 C233.1198 79.9568 253.6225 80.2560 274.0700 80.2693 C281.1825 80.2700 288.2950 80.3062 295.4075 80.3785 C299.2300 80.4082 303.2875 80.1595 307.0775 80.6837 C309.7900 81.0407 312.3450 82.1600 314.4475 83.9115 C317.3375 86.2848 319.0550 89.5312 319.3475 93.2600 C319.6550 97.1820 318.2725 100.8702 315.6575 103.7750 C311.1325 108.8020 305.9200 108.4308 299.7500 108.7310 C279.6200 108.9893 259.4700 108.8155 239.3392 108.8207 L220.7482 108.8335 C215.6163 108.8337 210.4467 108.9772 205.3530 108.2448 C202.0672 107.7722 198.9388 106.8005 196.4693 104.4652 C193.9970 102.1270 192.4223 98.6525 192.3460 95.2505 C192.2610 91.4600 193.7965 87.1465 196.4730 84.4685 C200.9145 80.0240 206.9075 80.4605 212.6797 80.3712 Z"></path>
<path id="" fill="#a4a9ad" fill-opacity="1.0" stroke="#000000" stroke-width="0.0" stroke-opacity="1.0" stroke-linecap="round" stroke-linejoin="round"  filling="0" d="M269.8100 427.0575 C274.7950 427.0050 285.5825 425.8750 289.1325 429.5175 C291.9325 432.3900 290.9000 438.3975 291.2700 442.1025 C293.0275 442.0000 294.8425 441.9000 296.6000 441.9950 C299.7550 442.1625 302.4875 443.4175 304.5550 445.8250 C307.7100 449.5000 307.2875 453.9825 306.9775 458.4725 C306.1350 459.5925 305.2925 460.7075 303.8175 460.9125 C300.2575 461.4050 296.2450 461.0400 292.6325 461.0325 L269.8975 461.0000 L230.2675 461.0250 C223.5105 461.0325 216.6317 461.2925 209.8890 460.9975 C208.7258 460.9450 207.4775 460.9600 206.5378 460.1775 C205.2652 459.1150 204.9778 457.2750 204.9062 455.7125 C204.7560 452.4150 204.9203 448.5725 207.3403 446.0625 C211.3300 441.9225 215.6333 441.9525 220.9117 441.8450 C220.8288 440.5500 220.8185 439.2450 220.8103 437.9475 C220.7900 434.7850 220.9957 431.4625 223.4350 429.1375 C224.3902 428.2275 225.5652 427.6550 226.8398 427.3425 C230.6560 426.4025 238.8833 427.0300 243.1075 427.0750 C252.0075 427.0100 260.9075 427.0050 269.8100 427.0575 Z"></path>
<path id="" fill="#2a3e49" fill-opacity="1.0" stroke="#000000" stroke-width="0.0" stroke-opacity="1.0" stroke-linecap="round" stroke-linejoin="round"  filling="0" d="M269.8100 427.0575 C274.7950 427.0050 285.5825 425.8750 289.1325 429.5175 C291.9325 432.3900 290.9000 438.3975 291.2700 442.1025 C286.7975 442.4650 282.1875 442.2350 277.6975 442.2325 L252.9925 442.2125 L232.7422 442.2275 C228.9840 442.2275 224.5692 442.6525 220.9117 441.8450 C220.8288 440.5500 220.8185 439.2450 220.8103 437.9475 C220.7900 434.7850 220.9957 431.4625 223.4350 429.1375 C224.3902 428.2275 225.5652 427.6550 226.8398 427.3425 C230.6560 426.4025 238.8833 427.0300 243.1075 427.0750 C252.0075 427.0100 260.9075 427.0050 269.8100 427.0575 Z"></path>
<path id="" fill="#225667" fill-opacity="1.0" stroke="#000000" stroke-width="0.0" stroke-opacity="1.0" stroke-linecap="round" stroke-linejoin="round"  filling="0" d="M243.1075 427.0750 C252.0075 427.0100 260.9075 427.0050 269.8100 427.0575 C269.7275 427.1375 269.6500 427.2225 269.5650 427.2975 C267.1175 429.4625 251.5275 428.1925 247.6187 427.8525 L250.7325 427.7800 C248.3385 427.4300 245.5660 428.0675 243.2980 427.4350 L243.1075 427.0750 Z"></path>
<path id="" fill="#000000" fill-opacity="1.0" stroke="#000000" stroke-width="0.0" stroke-opacity="1.0" stroke-linecap="round" stroke-linejoin="round"  filling="0" d="M250.8025 55.1515 C256.1625 54.4622 262.2425 54.8785 267.5150 56.0098 C270.8750 56.7310 273.9950 57.9463 277.1500 59.2770 C288.8375 64.2065 295.0350 70.3108 301.8075 80.8710 C288.4800 81.3015 275.0650 81.0045 261.7250 80.9965 C244.9902 81.0027 228.1353 81.4240 211.4155 80.8727 C212.2740 77.9780 213.6673 75.8105 215.5955 73.5157 C224.4597 63.0030 237.1087 56.4050 250.8025 55.1515 Z"></path>
<path id="" fill="#a4a9ad" fill-opacity="1.0" stroke="#000000" stroke-width="0.0" stroke-opacity="1.0" stroke-linecap="round" stroke-linejoin="round"  filling="0" d="M252.6550 51.1000 C260.8300 49.8372 273.5600 53.3347 280.6300 57.4645 C285.8025 60.4857 292.5775 65.2910 295.1900 70.8235 C295.7750 72.0640 296.0800 73.4853 296.4325 74.8073 L258.8750 74.8083 L229.9840 74.8145 C225.9930 74.8173 218.6967 75.3845 215.0545 74.4463 L214.8642 73.9853 C215.1135 71.9872 216.8763 70.0050 218.1300 68.4912 C226.9547 57.8385 239.0573 52.4333 252.6550 51.1000 Z"></path>
<path id="" fill="#333e48" fill-opacity="1.0" stroke="#000000" stroke-width="0.0" stroke-opacity="1.0" stroke-linecap="round" stroke-linejoin="round"  filling="0" d="M215.3737 137.0948 C220.3650 136.8130 225.4948 137.0375 230.5005 137.0375 L259.0825 137.0400 L282.9425 137.0430 C287.4200 137.0403 292.0425 136.8053 296.5075 137.1508 C298.3475 137.2932 300.0950 137.4210 301.6250 138.5475 C302.9975 139.5595 303.8325 141.1003 304.0600 142.7812 C304.3200 144.6870 303.7650 146.5148 302.5750 148.0135 C301.0700 149.9048 299.5550 150.2733 297.2350 150.5038 C297.1575 150.5143 297.0800 150.5262 297.0025 150.5355 C292.5475 151.0712 287.8500 150.8135 283.3600 150.8163 L260.0550 150.8250 L231.5650 150.8268 C226.6118 150.8268 221.4993 151.0925 216.5677 150.7275 C214.6167 150.5830 211.4362 150.2988 209.8788 149.0688 C208.6597 148.1062 208.1270 146.7198 207.9630 145.2077 C207.7545 143.2875 207.8347 141.0323 209.1325 139.4870 C210.7007 137.6195 213.1078 137.3115 215.3737 137.0948 Z"></path>
<path id="" fill="#ffb819" fill-opacity="1.0" stroke="#000000" stroke-width="0.0" stroke-opacity="1.0" stroke-linecap="round" stroke-linejoin="round"  filling="0" d="M366.9100 116.1028 C369.1075 115.9210 371.4950 115.7730 373.3675 117.1418 C374.9100 118.2672 375.9325 119.3810 376.2000 121.3235 C376.4650 123.2435 376.0725 125.2670 374.8250 126.7890 C373.9500 127.8580 372.8125 128.4265 371.5075 128.8112 C365.7950 130.4953 355.8025 131.2278 349.5925 131.9715 C343.3325 132.7213 337.0675 133.7977 330.7900 134.3385 L328.0100 134.8160 C326.7625 134.4223 325.3875 133.9000 324.3150 133.1362 C322.7225 132.0035 321.9925 130.2188 321.7425 128.3295 C321.5175 126.6432 321.7800 124.9633 322.9075 123.6357 C323.8700 122.5030 325.2825 121.7953 326.6900 121.3900 C331.3475 120.0497 336.8475 119.9670 341.6725 119.3545 C350.0750 118.2875 358.4825 116.9312 366.9100 116.1028 Z"></path>
<path id="" fill="#ffb819" fill-opacity="1.0" stroke="#000000" stroke-width="0.0" stroke-opacity="1.0" stroke-linecap="round" stroke-linejoin="round"  filling="0" d="M141.0855 116.0400 C145.3362 115.7117 149.9062 116.6237 154.1245 117.1888 L170.6530 119.3802 C175.3008 119.9825 180.9485 120.1115 185.3683 121.3932 C187.1715 121.9163 188.8480 122.8938 189.6980 124.6342 C190.4608 126.1960 190.5847 128.5890 189.9532 130.2125 C189.0925 132.4245 186.9965 133.6853 184.9032 134.5530 C181.4625 134.9865 169.0965 132.7487 165.0095 132.2177 C157.8548 131.2880 150.5163 130.7298 143.4125 129.5155 C142.1752 129.3040 140.9057 129.0287 139.7502 128.5298 C138.1452 127.8367 136.7960 126.7275 136.1680 125.0558 C135.5267 123.3488 135.6497 121.0750 136.4438 119.4362 C137.3537 117.5580 139.2265 116.7117 141.0855 116.0400 Z"></path>
<path id="" fill="#ffb819" fill-opacity="1.0" stroke="#000000" stroke-width="0.0" stroke-opacity="1.0" stroke-linecap="round" stroke-linejoin="round"  filling="0" d="M182.7975 157.2685 C184.0065 157.1490 185.0750 157.1248 186.2142 157.6118 C187.9655 158.3602 189.3060 159.9243 189.9250 161.7077 C190.5327 163.4588 190.4910 165.4400 189.6098 167.0927 C188.9025 168.4193 187.8098 169.3087 186.5055 170.0132 C183.2923 171.7490 179.3788 172.6178 175.9330 173.8430 C168.1362 176.6150 160.3513 179.6113 152.4238 181.9823 C151.3560 182.0647 150.4812 182.1275 149.4913 181.6655 C147.6975 180.8282 145.9713 178.6068 145.3460 176.7527 C144.8537 175.2935 144.9557 173.7995 145.6568 172.4267 C146.2200 171.3235 147.0880 170.3092 148.1670 169.6905 C152.7272 167.0757 158.5258 165.7043 163.4955 163.9642 C169.9162 161.7160 176.2710 159.1975 182.7975 157.2685 Z"></path>
<path id="" fill="#ffb819" fill-opacity="1.0" stroke="#000000" stroke-width="0.0" stroke-opacity="1.0" stroke-linecap="round" stroke-linejoin="round"  filling="0" d="M327.5875 157.2830 C328.5000 157.2103 329.3350 157.3760 330.2125 157.6178 C334.7400 158.8647 339.1600 160.7672 343.5900 162.3345 C348.7950 164.1763 354.0950 165.8033 359.2625 167.7450 C362.0525 168.7940 365.3300 169.8895 366.5825 172.8618 C367.1875 174.2975 367.1250 175.7925 366.5175 177.2117 C365.5350 179.5000 363.7900 181.1183 361.4925 182.0175 C360.5425 182.0825 359.6300 182.0423 358.7000 181.8140 C356.5700 181.2917 354.4350 180.4045 352.3600 179.6760 C348.1050 178.1765 343.8575 176.6548 339.6200 175.1113 C334.8025 173.3915 329.1750 172.1150 324.7025 169.6435 C323.3800 168.9128 322.4350 167.4677 322.0575 166.0302 C321.5975 164.2682 321.7175 161.9037 322.6675 160.3158 C323.7775 158.4563 325.5975 157.7620 327.5875 157.2830 Z"></path>
</svg>