<svg xmlns="http://www.w3.org/2000/svg" viewBox="0 0 512 512" height="512.0px" width="512.0px">
<path id="" fill="#b88d5b" fill-opacity="1.0" stroke="#000000" stroke-width="0.0" stroke-opacity="1.0" stroke-linecap="round" stroke-linejoin="round"  filling="0" d="M301.8075 103.1447 C303.2350 94.0560 304.7800 81.4717 310.9975 74.3535 C311.9150 73.3047 313.5550 71.8203 315.0600 71.8775 C316.9250 71.9485 318.9250 74.2672 320.0975 75.5820 C329.3425 85.9595 334.9375 98.8822 337.4700 112.4693 C338.1525 116.1348 338.7425 119.8457 338.5450 123.5830 C344.3375 124.9525 350.6600 128.5170 355.3950 132.1042 C359.1025 134.9135 363.0100 137.8692 366.3450 141.1008 C367.9325 142.6370 369.3100 144.3878 370.8000 146.0148 C378.0425 153.9203 384.4525 162.0388 390.3850 170.9668 C392.4625 174.0900 394.5800 177.2055 396.2675 180.5612 C398.3025 184.6057 400.0175 189.3120 400.5875 193.8228 C401.4775 200.8707 399.2525 208.8158 394.8900 214.4060 C387.5725 223.7793 376.7675 228.8730 365.1875 230.5578 C360.7775 231.1992 356.2800 231.2892 351.8475 231.8270 C353.2475 234.0045 355.4475 235.8663 357.1775 237.7968 C361.4025 242.5090 366.2300 249.7050 367.1750 256.1075 C371.9075 254.9625 377.2375 255.4175 382.0875 255.4350 L404.2750 255.6350 C410.6050 255.1725 417.4400 256.2300 422.3975 260.5150 C426.1750 263.7800 429.1200 268.7800 430.0275 273.6975 C430.0050 274.0350 430.0125 274.3650 430.0150 274.7025 C430.0625 280.4050 428.8750 285.6700 424.7150 289.8450 C421.8575 292.7125 417.5350 294.8550 413.5725 295.6050 C409.8775 296.3050 405.9500 296.0500 402.2050 296.0450 L387.1625 296.0175 L330.4100 296.0525 C328.0475 298.2450 326.8875 299.9825 325.9025 303.0475 C327.6650 306.7275 330.0900 310.0725 331.9375 313.7250 C333.6200 317.0525 334.8550 320.6675 335.9525 324.2300 C341.6625 342.7450 340.2925 362.0000 334.8375 380.4025 C333.0625 386.3850 330.4675 392.0575 328.5150 397.9750 L359.1925 397.9750 C365.5650 397.9700 374.5950 397.2175 380.5725 398.8625 C385.4875 400.2150 389.8100 403.7175 392.2550 408.1325 C395.0975 413.2675 395.6850 418.5625 394.0350 424.1800 C392.5550 429.2250 389.5325 432.8750 384.9100 435.3775 C381.6725 437.1325 377.9200 438.2600 374.2600 438.6300 C368.5650 439.2075 362.5775 438.8625 356.8425 438.8625 L325.5775 438.8550 L284.4225 438.8675 C271.2850 438.8625 258.1025 438.9150 245.0045 437.7075 C231.5925 436.4750 217.7462 433.5525 204.8418 429.7075 C186.9030 424.3825 170.0952 415.8050 155.2563 404.4050 C150.1158 400.4800 144.9218 396.2525 140.3025 391.7250 C137.6823 389.1575 135.2995 386.3100 132.8808 383.5525 C110.1243 357.6075 97.1565 325.8550 92.8960 291.7275 C91.5948 281.3050 91.9747 270.8000 91.9745 260.3175 L91.9742 216.6975 L91.9843 191.1653 C91.9942 181.4402 92.9312 170.5485 90.1267 161.1570 C83.6000 139.2990 61.0170 138.6620 58.9958 133.8922 C58.7282 133.2612 58.7097 132.8525 58.9832 132.2200 C60.6685 128.3210 72.3882 123.4238 76.6187 121.8922 C101.2985 112.9572 137.1707 119.8763 160.4037 130.7657 C170.6848 135.5845 180.8510 141.3105 189.9863 148.0820 C192.8405 150.1978 195.5247 152.5668 198.2500 154.8445 C201.0862 157.2153 204.0417 159.5517 206.6725 162.1523 C208.5872 164.0453 210.2908 166.1653 212.0745 168.1808 C217.3085 174.0952 222.0002 179.8440 226.3663 186.4478 C229.7785 191.6082 233.1008 197.0290 235.7473 202.6230 C238.0117 207.4097 239.5470 212.4205 241.3515 217.3815 C243.0435 215.2238 244.7185 212.9365 246.6960 211.0298 C249.1588 208.6552 251.9350 206.6602 254.3125 204.1745 C256.9225 201.4445 259.1850 198.3970 261.8000 195.6695 C270.9875 186.0943 280.5700 176.8150 290.0400 167.5177 C290.2575 160.7260 290.0675 153.8672 290.1075 147.0670 C288.2650 144.8545 286.2050 142.8440 284.2925 140.6950 C274.4825 129.6743 270.3050 112.1915 269.9550 97.7742 C269.9075 95.8715 269.7500 93.8640 269.8975 91.9680 C270.0850 89.5052 270.8025 88.4305 272.5775 86.8520 C281.3725 88.7150 296.1600 96.0595 301.8075 103.1447 Z"></path>
<path id="" fill="#ca5f38" fill-opacity="1.0" stroke="#000000" stroke-width="0.0" stroke-opacity="1.0" stroke-linecap="round" stroke-linejoin="round"  filling="0" d="M404.2750 255.6350 C404.0375 247.3822 404.8350 240.1640 410.7300 233.8712 C414.8800 229.4440 421.0225 226.8748 427.0550 226.7550 C433.5000 226.6105 439.7350 229.0500 444.3725 233.5300 C449.0425 238.0443 451.0875 243.7515 451.1475 250.1700 C451.2075 256.3150 449.0300 262.4950 444.6450 266.8950 C440.7425 270.8100 435.2500 272.4225 430.0275 273.6975 C429.1200 268.7800 426.1750 263.7800 422.3975 260.5150 C417.4400 256.2300 410.6050 255.1725 404.2750 255.6350 Z"></path>
<path id="" fill="#663333" fill-opacity="1.0" stroke="#000000" stroke-width="0.0" stroke-opacity="1.0" stroke-linecap="round" stroke-linejoin="round"  filling="0" d="M311.8050 66.0618 C315.0500 66.3045 317.4500 67.3295 319.9550 69.3750 C330.3675 77.8702 338.3625 90.4085 341.6850 103.4408 C342.8750 108.0992 343.3700 112.7487 343.8525 117.5147 C346.4175 118.9115 349.1225 120.0700 351.6950 121.4680 C357.1850 124.4528 362.5425 127.9447 367.5525 131.6797 C384.4450 144.2735 405.5275 169.7765 408.5150 190.9698 C410.0425 202.6248 406.8925 214.4105 399.7575 223.7507 C392.8800 232.8340 382.0425 238.2717 370.8875 239.8400 C373.0000 242.9670 375.0300 246.6315 376.0475 250.2700 C381.7475 249.5400 388.0925 249.9425 393.8450 250.1025 C393.9350 246.9465 394.4025 243.8208 395.4950 240.8480 C399.5925 229.6992 411.4775 221.8158 421.9100 217.0675 C425.2075 215.5668 428.2550 215.2722 431.7050 216.5773 C434.3625 217.5825 436.8475 219.0895 439.2825 220.5370 C447.0775 225.1682 454.9700 231.0305 458.7900 239.5553 C461.8400 246.3685 461.2375 253.9875 458.5600 260.8225 C454.2350 271.8550 448.3475 275.9375 437.9225 280.5075 C437.3125 282.0475 437.0175 283.7150 436.5575 285.3050 C435.1200 290.2800 432.8000 294.1950 428.9800 297.7150 C425.0575 301.3275 420.1300 303.4950 414.9100 304.4550 C410.2400 305.3150 405.3275 305.0700 400.5950 305.0625 L382.8625 305.0500 L353.5750 305.0550 C347.5000 305.0650 341.4000 305.2100 335.3275 304.9600 C337.5825 308.3150 339.5475 311.8550 341.2000 315.5425 C349.3850 333.9725 351.3425 354.5675 346.7825 374.2100 C345.3975 380.0050 343.3450 385.5150 341.2050 391.0625 C348.8200 390.9500 356.4375 390.9125 364.0575 390.9500 C369.3175 390.9400 374.7675 390.6675 380.0025 391.2675 C387.7650 392.1575 394.4450 395.6175 399.2900 401.8375 C403.5650 407.3225 405.5175 414.8375 404.5875 421.7225 C403.6550 429.1275 399.7875 435.8450 393.8550 440.3700 C389.7850 443.4125 384.6250 445.1025 379.6200 445.7325 C373.9650 446.4450 367.8650 446.0400 362.1625 446.0400 L331.3625 446.0350 L277.6100 446.0350 C260.7975 446.0350 244.0907 446.3575 227.3997 443.9300 C225.1140 443.6050 222.8208 443.1950 220.5530 442.7625 C190.4115 436.9050 162.4475 422.9125 139.6897 402.2975 C108.3637 373.9750 89.8842 335.0175 86.0235 293.1225 C84.6900 278.6500 85.2657 263.8300 85.2632 249.2982 L85.2685 187.0935 L85.2842 174.8850 C85.2883 167.4187 85.3375 161.4340 80.9255 155.0335 C77.6275 150.2490 72.5870 146.1512 66.8798 144.7263 C64.5365 144.1413 62.1158 143.9368 59.7490 143.4750 C56.8160 142.9025 53.8687 141.5423 52.1978 138.9600 C50.8490 136.8755 50.7653 134.3192 51.3750 131.9698 C52.7710 126.5920 59.8300 122.2220 64.2657 119.5660 C71.5010 115.3098 79.5132 112.5405 87.8325 111.4200 C101.4958 109.6308 121.7527 112.6365 135.0468 116.0250 C173.5117 125.5488 207.3078 148.5035 230.3395 180.7493 C233.6817 185.4662 236.7787 190.3520 239.6180 195.3878 C241.2425 198.3260 242.6277 201.3720 244.3463 204.2617 C247.7895 200.2897 251.7850 196.6390 255.5075 192.9205 C264.3475 184.0898 273.4350 175.4135 282.0450 166.3618 C281.9500 161.3483 282.0275 156.3330 282.2750 151.3248 C273.3600 143.0347 266.8075 132.5275 263.2800 120.8757 C260.1900 111.0085 259.4725 100.5508 261.1875 90.3538 C261.6025 87.8585 262.0300 85.1003 263.2750 82.8595 C264.3825 80.8615 266.0800 79.4563 268.2900 78.8367 C275.5900 76.7895 288.5950 84.2988 294.8750 88.0168 C297.2550 82.3680 299.7400 76.8138 303.3225 71.7943 C305.6025 68.5970 307.8700 66.7328 311.8050 66.0618 Z M323.1550 286.0150 C323.9475 286.3975 324.5675 286.4925 325.4450 286.5375 C329.3350 286.7400 333.3100 286.5900 337.2075 286.5900 L359.3150 286.5875 L390.3675 286.5825 C394.2200 286.5800 405.5000 287.1875 408.6425 286.1275 C408.7375 286.0975 408.8250 286.0525 408.9175 286.0125 C411.5700 285.8825 414.2200 285.4850 416.2225 283.5625 C417.7575 282.0875 419.0250 279.7850 419.0550 277.6225 C419.0975 274.7325 417.2825 271.9400 414.8775 270.4400 C413.9650 269.8725 412.9150 269.4225 411.8550 269.2350 C408.7050 268.6750 405.0800 268.9975 401.8675 269.0000 L378.2075 269.0200 C374.8350 269.0200 370.9700 269.3950 367.6425 268.9325 C366.3325 268.7500 364.9975 268.1550 363.8850 267.4550 C359.0550 264.4200 359.3825 259.3325 357.5425 254.6350 C356.0125 250.7300 353.0825 247.0820 349.7375 244.5740 C343.5325 239.9240 334.6950 241.4800 330.4075 237.1042 C328.6150 235.2742 327.8600 232.8975 327.9200 230.3698 C327.9650 228.4770 328.7725 226.9545 329.9225 225.4803 C331.3525 223.6470 333.2575 222.2352 335.5025 221.5855 C338.4900 220.7215 341.7950 220.9565 344.8725 220.9677 C352.5150 220.9955 367.6875 221.9568 374.3900 219.5677 C377.3075 218.5278 379.6675 216.8257 381.8650 214.6700 C386.5775 210.0477 389.9975 203.8835 390.0000 197.1427 C390.0000 183.5810 375.4150 164.8905 366.1225 155.6595 C364.0450 153.5938 361.9675 151.4917 359.7250 149.6013 C352.1550 143.2180 336.3050 132.0640 326.2875 132.1102 C321.2725 132.1335 316.4150 135.0087 312.1375 134.9173 C304.3100 134.7500 302.7275 125.2205 299.5500 119.7807 C297.2650 115.8968 294.5225 112.2997 291.3825 109.0665 C289.3425 106.9847 282.4525 101.4167 279.5500 101.3735 L279.1875 101.7693 C278.8075 104.2165 279.5625 107.2917 279.9950 109.7477 C281.4600 118.0735 285.3500 125.8895 290.6375 132.4418 C293.6475 136.1715 301.6250 141.2300 302.0625 145.7605 C302.4275 149.5482 301.2950 153.4775 301.1150 157.2710 C300.9050 161.6472 301.4575 166.2135 300.9825 170.5515 C300.8275 171.9730 300.5075 173.3575 299.8925 174.6543 C298.0825 178.4787 284.5325 191.0903 280.5800 195.0420 L229.9805 245.6277 L214.3695 261.2400 C211.0233 264.5875 207.4800 267.8550 204.5010 271.5350 C191.9252 287.0675 183.4722 306.6950 181.3980 326.6025 C180.9775 330.6400 180.9980 334.7025 180.9648 338.7550 C180.9275 343.3000 180.9010 347.8075 181.3902 352.3350 C182.8485 365.8300 187.6580 381.6625 194.9097 393.1850 C198.9690 399.6350 204.7045 405.9575 210.6800 410.7175 C220.3188 418.4150 231.7182 423.5950 243.8545 425.7975 C254.7550 427.8425 268.0875 426.9725 279.3275 426.9700 L334.6450 426.9675 L363.6850 426.9875 C368.4250 426.9925 373.5850 427.3975 378.2825 426.8050 C381.0250 426.4600 382.9400 424.8625 384.5625 422.6850 C385.7950 421.0300 386.3150 419.4225 385.9275 417.3650 C385.3825 414.4650 382.6825 411.5225 379.9050 410.5925 C376.2175 409.3550 370.9200 410.0000 367.0275 410.0150 L339.4275 410.0475 C334.6325 410.0575 329.4175 410.4775 324.6675 409.8300 C322.8800 409.5850 320.8100 409.0600 319.3675 407.9575 C316.5675 405.8150 315.3675 402.1225 316.0100 398.7125 C316.7050 395.0150 320.1525 390.5025 321.9500 387.0375 C329.1750 373.2525 331.8075 357.5200 329.4600 342.1325 C324.6500 311.7750 301.5050 287.5875 271.3850 281.4450 C269.1225 280.9750 266.8475 280.5400 264.5425 280.3475 C260.2850 279.9900 255.1525 280.8575 251.5800 278.1125 C249.4285 276.4600 247.4597 274.2725 247.1135 271.4825 C246.7923 268.8950 247.8620 266.1350 249.4478 264.1225 C250.9425 262.2250 252.7075 261.3550 255.0675 261.0475 C257.5875 260.7175 260.2725 260.9050 262.8075 261.0325 C277.4350 261.8650 291.6425 266.2375 304.2050 273.7800 C310.0125 277.3100 315.2100 281.7150 320.5550 285.8900 L323.1550 286.0150 Z M430.8325 259.1825 L433.5525 261.9075 C437.1625 259.8000 440.6675 256.3525 441.7425 252.1875 C442.3100 249.9837 441.9950 247.8492 440.8150 245.9062 C439.2550 243.3380 431.1200 236.4967 428.3075 235.7830 C427.8550 235.6680 427.3925 235.6940 426.9350 235.7470 C422.8800 237.2092 414.6175 243.5668 412.8625 247.5810 C412.5525 248.2892 412.5625 248.6483 412.7325 249.3880 C412.9525 249.6310 412.9775 249.6950 413.3125 249.8687 C414.1550 250.3075 415.6875 250.3800 416.6475 250.6275 C419.0625 251.2500 421.5750 252.1250 423.7675 253.3175 C426.5400 254.8250 428.6450 256.9550 430.8325 259.1825 Z M179.5170 407.1900 L180.4928 405.7900 C178.3045 402.3450 175.9742 398.9400 174.1510 395.2825 C166.6020 380.1375 162.9060 363.3950 161.6825 346.6250 C161.4892 343.9750 161.1660 341.2925 161.1602 338.6325 C161.1543 335.7850 161.5320 332.8925 161.7858 330.0525 C162.3500 323.7400 163.0010 317.6500 164.3915 311.4425 C169.0323 290.7175 178.8475 271.5050 192.9212 255.6000 C199.1345 248.6443 206.1960 242.1918 212.8017 235.5968 L223.8053 224.6093 C225.7592 222.6570 228.0312 220.6940 229.7045 218.5083 C228.0123 212.8678 224.7035 207.4050 221.6893 202.3625 C207.9837 179.1395 188.1888 160.1065 164.4455 147.3230 C144.5632 136.5850 121.2762 130.1910 98.6248 130.0230 C95.1478 129.9973 90.8248 129.6890 87.4803 130.6165 C87.0455 130.7370 86.7110 130.9263 86.3353 131.1687 C86.0567 131.7755 86.0537 132.0765 86.1378 132.7352 C87.4340 134.6145 89.6270 136.0975 91.2867 137.6848 C95.6980 141.9030 99.2712 147.4547 101.3683 153.1842 C102.4287 156.0818 103.2872 159.1073 103.7175 162.1670 C104.3230 166.4738 104.1017 170.9348 104.0992 175.2755 L104.0858 194.6155 L104.0803 250.8575 C104.0810 266.6850 103.7115 282.4900 105.5957 298.2425 C109.1183 326.0650 120.5623 352.2875 138.5647 373.7900 C141.5360 377.3975 144.4742 380.9475 147.8095 384.2325 C153.0473 389.3925 172.3913 405.8825 178.5245 407.0700 C178.9783 407.1600 179.0515 407.1525 179.5170 407.1900 Z M320.0600 113.7480 C321.5125 113.3500 322.9400 112.9595 324.4275 112.7238 C322.4375 104.4733 319.7350 97.5827 314.5375 90.7600 C312.8275 93.0125 310.6225 99.0610 311.0875 101.9350 C311.3025 103.2657 317.1750 111.9770 318.3275 114.0015 C319.0250 114.1743 319.4225 113.9930 320.0600 113.7480 Z"></path>
<path id="" fill="#663333" fill-opacity="1.0" stroke="#000000" stroke-width="0.0" stroke-opacity="1.0" stroke-linecap="round" stroke-linejoin="round"  filling="0" d="M220.1998 298.0250 C221.7915 297.9750 223.3503 298.3400 224.7892 299.0175 C227.8277 300.4500 230.8750 303.5900 231.0215 307.1175 C231.1915 311.2075 228.0912 315.9425 226.7905 319.7725 C222.9012 331.2250 221.9532 346.2100 225.5410 357.8550 C227.0930 362.8925 229.4212 367.5150 231.2390 372.4300 C232.1935 375.0125 232.6935 377.9300 231.4390 380.5050 C229.9790 383.5025 226.7847 384.9575 223.7890 385.9625 C221.9662 386.0950 220.4828 385.9275 218.8205 385.0975 C213.7290 382.5550 210.9225 374.4575 209.1765 369.3900 C204.2507 355.0900 203.1095 342.9900 205.2025 328.0200 C206.3030 320.1475 208.5095 311.9175 212.0640 304.7750 C213.8800 301.1250 216.4005 299.2725 220.1998 298.0250 Z"></path>
<path id="" fill="#663333" fill-opacity="1.0" stroke="#000000" stroke-width="0.0" stroke-opacity="1.0" stroke-linecap="round" stroke-linejoin="round"  filling="0" d="M337.7425 162.8510 C340.1125 162.8817 342.3350 162.9043 344.4200 164.2108 C346.4750 165.4998 347.6975 167.5813 348.1350 169.9382 C348.6250 172.5632 348.3300 175.4425 346.7275 177.6495 C344.9250 180.1335 342.5375 180.8615 339.6575 181.2600 C337.2400 181.1865 335.1975 181.0237 333.1875 179.5405 C331.1525 178.0395 329.4975 175.2565 329.2025 172.7377 C328.9250 170.3772 329.9950 167.8353 331.4800 166.0420 C333.1750 163.9933 335.1600 163.1492 337.7425 162.8510 Z"></path>
<path id="" fill="#81513f" fill-opacity="0.976471" stroke="#000000" stroke-width="0.0" stroke-opacity="1.0" stroke-linecap="round" stroke-linejoin="round"  filling="0" d="M323.1550 286.0150 L376.0500 285.9700 C386.9675 285.9700 398.0125 285.6225 408.9175 286.0125 C408.8250 286.0525 408.7375 286.0975 408.6425 286.1275 C405.5000 287.1875 394.2200 286.5800 390.3675 286.5825 L359.3150 286.5875 L337.2075 286.5900 C333.3100 286.5900 329.3350 286.7400 325.4450 286.5375 C324.5675 286.4925 323.9475 286.3975 323.1550 286.0150 Z"></path>
<path id="" fill="#6a3735" fill-opacity="1.0" stroke="#000000" stroke-width="0.0" stroke-opacity="1.0" stroke-linecap="round" stroke-linejoin="round"  filling="0" d="M180.4928 405.7900 L180.6745 405.5875 C182.1127 407.2600 183.2595 409.3450 184.4680 411.1975 C182.7408 410.2300 179.9550 409.1025 178.6582 407.5975 L178.8320 407.3175 L179.5170 407.1900 L180.4928 405.7900 Z"></path>
</svg>