<svg xmlns="http://www.w3.org/2000/svg" viewBox="0 0 512 512" height="512.0px" width="512.0px">
<path id="" fill="#4ec8d8" fill-opacity="1.0" stroke="#000000" stroke-width="0.0" stroke-opacity="1.0" stroke-linecap="round" stroke-linejoin="round"  filling="0" d="M195.6205 110.1255 C198.1172 110.1707 200.5862 110.1908 203.0815 110.0397 C203.0123 111.9987 203.0547 113.9637 203.0595 115.9240 C203.0665 118.8333 203.2057 121.8590 202.8685 124.7505 C201.8785 133.2383 197.2267 142.3695 191.1763 148.3687 C189.0112 150.5155 186.4653 152.1758 183.8380 153.6990 C181.0060 155.3410 178.0765 156.8452 174.9117 157.7320 C167.3115 159.8615 155.1645 158.9905 146.9538 158.9675 C146.9557 159.4240 146.9633 159.8805 146.9763 160.3367 C147.4720 180.1475 157.5780 198.4778 174.0658 209.4718 C177.7255 211.9577 181.5968 214.2355 185.7402 215.8188 C191.0802 217.8593 197.1732 219.3732 202.8840 219.8760 C210.3952 220.5375 218.1740 220.1255 225.7220 220.1147 L264.4350 220.1265 L391.1325 220.1295 L418.0350 220.0883 C423.7350 220.0800 429.7775 219.7097 435.4150 220.6455 C439.7450 221.3645 444.1950 223.1458 447.4025 226.2148 C451.8025 230.4223 453.0800 235.8605 453.1850 241.7397 C448.6925 243.4570 442.6325 243.5805 437.7600 244.5880 C424.7350 247.2807 412.1825 252.3125 400.5825 258.7600 C370.2325 275.6250 345.0750 304.1475 333.5350 337.0625 C331.7350 342.1975 330.0675 347.5375 328.9650 352.8675 C328.2575 356.2825 327.9625 359.8425 326.9825 363.1900 L326.8675 363.5775 C323.0025 366.9725 308.9325 371.8875 303.4200 374.2550 L265.7875 389.7575 L249.7860 396.1475 C246.5525 397.4425 243.2140 398.6425 240.0898 400.1775 C239.2785 396.8225 238.1113 393.5875 237.4080 390.1925 C234.7430 377.3350 237.4010 367.0700 242.6432 355.3975 C234.9077 353.5700 227.0007 352.7100 219.2762 350.7525 C198.4605 345.3550 179.2467 335.0325 163.2530 320.6575 C159.6370 317.4150 156.2397 313.8000 152.8432 310.3250 C135.4718 292.5600 122.3980 265.7250 118.8992 241.1095 C116.8930 226.9953 117.1147 213.0262 117.1168 198.8212 C117.0840 185.5400 117.1243 172.2585 117.2377 158.9775 C106.6985 159.0300 93.5665 160.2253 83.8310 155.8700 C74.5197 151.7045 66.6815 143.6250 63.0760 134.0645 C62.1865 131.6577 61.4955 129.1823 61.0103 126.6628 C60.4478 123.7090 59.3995 113.1638 60.5310 110.6550 C60.7995 110.5318 60.8503 110.4960 61.1130 110.4163 C63.5860 109.6657 67.8248 110.1512 70.5273 110.1500 C84.9163 110.1428 95.6585 109.9210 108.7137 117.4147 C121.8455 124.9525 127.7965 136.3270 131.5825 150.5060 C133.9908 140.7830 138.3700 132.0460 145.4778 124.9115 C160.7875 109.5443 175.5135 110.1363 195.6205 110.1255 Z"></path>
<path id="" fill="#663333" fill-opacity="1.0" stroke="#000000" stroke-width="0.0" stroke-opacity="1.0" stroke-linecap="round" stroke-linejoin="round"  filling="0" d="M60.3452 102.0975 C64.8717 101.9055 69.4362 102.0052 73.9680 102.0033 C79.1552 102.0007 84.3505 101.8875 89.5193 102.3990 C102.5502 103.6885 115.6003 109.1978 124.9473 118.5457 C127.2653 120.8643 129.1187 123.5577 131.1893 126.0892 L131.5435 126.1160 C132.4825 124.7888 133.2742 123.2387 134.3707 122.0428 C145.5365 109.8620 159.6772 102.6410 176.3775 102.0695 C181.2912 101.9015 186.2335 102.0302 191.1508 102.0245 C195.4810 102.0193 200.2965 101.5700 204.5482 102.4405 C206.1740 102.7735 207.5428 103.3513 208.7365 104.5280 C210.7993 106.5608 211.2760 109.2515 211.2932 112.0277 C211.3215 116.5378 211.4830 121.1820 211.0765 125.6740 C210.1418 136.0027 205.8415 145.9885 198.4852 153.3503 C194.7785 157.0595 190.8350 159.7433 186.0665 161.9165 C175.3135 166.8177 165.4660 166.2700 154.0027 166.2697 C157.6065 185.2697 170.4555 201.3412 188.7260 208.0380 C191.9733 209.2280 195.3855 210.1430 198.8233 210.5610 C205.2103 211.3380 211.8550 211.0302 218.2770 211.0287 L248.2448 211.0150 L375.5325 211.0177 L413.5300 211.0137 C421.0425 211.0130 428.9225 210.5385 436.3750 211.4892 C441.5025 212.1353 446.3700 214.1167 450.4925 217.2355 C456.0925 221.4565 459.6300 228.0815 460.5475 234.9920 C461.3450 240.9998 459.8825 247.0448 458.4975 252.8625 C453.4350 274.1350 444.0250 293.0925 430.7575 310.4400 C426.5550 315.4950 422.3500 320.3625 417.5900 324.9150 C398.9650 342.7275 374.8075 355.1600 349.8400 361.1200 C344.8525 362.3100 339.8050 363.0725 334.7450 363.8600 C331.6650 369.3975 328.2775 373.0500 322.5700 375.8425 C316.8825 378.6250 310.8650 380.9375 305.0150 383.3675 L278.5550 394.4925 L256.0675 404.0025 C251.6925 405.8500 247.2100 408.0600 242.6402 409.3625 C240.8208 409.8800 239.0827 409.9750 237.2818 409.3175 C234.6808 408.3700 233.0650 406.2300 232.0020 403.7625 C227.1025 392.3950 226.3925 374.4875 231.0038 362.9100 C230.5635 362.8725 230.1418 362.8175 229.7057 362.7425 C191.8058 356.3250 158.0185 335.0875 135.8045 303.7175 C119.7507 280.9375 110.9902 254.8350 109.2830 227.0550 C108.6927 217.4525 109.0290 207.6918 109.0323 198.0705 L109.0180 181.6590 C109.0170 176.5165 108.8930 171.2843 109.7705 166.1978 C93.1100 166.3488 80.5590 167.1893 66.7083 155.9872 C57.9612 148.9133 52.4547 137.8143 51.3842 126.7030 C50.9345 122.0348 50.3627 112.5898 51.4910 108.2840 C51.7962 107.1190 52.3585 106.0965 53.1403 105.1837 C55.0880 102.9090 57.5117 102.3520 60.3452 102.0975 Z M238.8470 346.8575 C240.5180 344.7550 242.0152 342.5550 243.8765 340.6125 C248.6025 335.6875 260.1350 326.6950 267.0700 326.0675 C269.2950 325.8675 271.5275 326.5100 273.2425 327.9550 C275.0575 329.4875 276.1050 331.7600 276.2450 334.1175 C276.3700 336.2350 275.6950 338.5200 274.2500 340.1050 C271.8900 342.6950 267.9900 343.6950 265.1125 345.6225 C252.5400 354.0350 244.7583 367.4250 245.1325 382.7500 C245.1927 385.2100 245.6800 387.3125 246.1458 389.7000 L291.3500 370.7075 L305.6825 364.6775 C308.5250 363.4800 311.5375 362.3925 314.2300 360.8850 C316.2475 359.7550 318.0225 358.7150 318.9550 356.5075 C320.4875 352.8800 321.1275 348.8200 322.1250 345.0200 C323.4950 339.9450 325.1350 334.9475 327.0400 330.0500 C341.0900 293.2450 369.0050 263.4125 404.7950 246.9500 C413.0750 243.0905 421.6825 239.9792 430.5175 237.6540 C434.7175 236.5425 439.3250 236.0408 443.3950 234.5952 C440.8600 232.1608 438.3800 229.0570 434.7375 228.4247 C430.5725 227.7018 420.7450 228.2677 416.0050 228.2720 L372.9800 228.2563 L262.1425 228.2558 C243.3630 228.2550 224.5465 228.5022 205.7700 228.2372 C178.6245 227.8795 154.0915 211.9805 142.6765 187.3492 C141.6402 185.1217 140.7200 182.8793 139.9917 180.5302 C138.8813 176.9480 138.0607 171.3918 135.9978 168.3622 C135.0680 167.0025 133.5245 166.1925 131.8772 166.2003 C131.5185 166.2045 131.5120 166.2148 131.2060 166.2635 C129.5497 166.6365 128.2850 167.7202 127.3457 169.1215 C126.6870 170.1045 126.4157 171.1820 126.2718 172.3432 C125.5900 177.8395 126.0750 185.8078 126.0818 191.5405 C126.0980 204.9855 125.8815 218.4830 126.9847 231.8970 C127.4435 237.4765 128.3965 243.1452 129.6472 248.5995 C137.3387 281.5325 157.6740 310.1225 186.2628 328.1925 C201.8350 337.9150 220.4317 345.3500 238.8470 346.8575 Z M340.4975 345.5200 C346.4100 344.7525 352.3925 343.0200 358.0350 341.1175 C382.3675 332.7900 403.6625 317.3925 419.1950 296.8950 C427.9075 285.5625 434.6150 272.8200 439.0300 259.2225 C439.4175 258.0325 440.7300 254.5150 440.6450 253.3425 C440.6350 253.1800 440.5650 253.0275 440.5225 252.8700 L440.2125 252.8700 C434.2400 253.6300 427.9075 255.8900 422.2925 258.0450 C398.5500 267.0500 377.7600 282.4425 362.2150 302.5200 C352.2000 315.4600 344.8550 329.2850 339.9500 344.8875 L340.0475 345.4000 L340.4975 345.5200 Z M139.6840 149.0072 L143.5625 149.0762 L159.7207 149.0742 C170.3228 149.0827 178.1490 149.2253 186.1823 141.2155 C192.3963 135.0193 194.1552 127.6070 194.2130 119.0760 L191.6845 119.1202 C178.4908 119.4760 167.8172 117.8008 156.1667 125.7753 C153.8132 127.3860 151.4445 129.1530 149.4820 131.2335 C144.5117 136.5033 141.8793 142.2280 139.6840 149.0072 Z M122.9283 149.0285 C119.8662 138.6048 113.2678 129.4860 103.6880 124.2137 C94.5383 119.1785 88.6195 119.4277 78.5460 119.2135 C75.2347 119.1430 71.5847 118.8175 68.3183 119.4057 C67.6320 125.7272 69.7160 133.2250 73.7213 138.1675 C78.0775 143.5428 84.0667 148.1420 91.1480 148.8398 C95.7298 149.2912 100.4990 149.0632 105.1075 149.0712 C111.0323 149.0813 117.0107 149.2413 122.9283 149.0285 Z"></path>
<path id="" fill="#653333" fill-opacity="1.0" stroke="#000000" stroke-width="0.0" stroke-opacity="1.0" stroke-linecap="round" stroke-linejoin="round"  filling="0" d="M167.1252 254.8150 C168.6865 254.8725 170.3732 254.9900 171.8027 255.6775 C175.7825 257.5950 178.8448 265.0250 181.2682 268.7350 C188.8217 280.3050 200.0912 290.2000 212.0083 297.0475 C215.3347 298.9600 219.2392 300.0775 222.3922 302.2500 C224.3460 303.5950 225.6980 305.6050 226.0177 307.9725 C226.3183 310.1975 225.6475 312.4100 224.2920 314.1825 C222.5590 316.4500 220.6042 317.3300 217.8723 317.6600 C212.0155 317.4925 205.0482 313.0950 200.0690 310.0850 C185.2335 301.1350 172.8055 288.7025 163.8627 273.8625 C162.2185 271.1200 160.1600 268.0725 159.4642 264.9175 C158.9790 262.6300 159.4660 260.2450 160.8090 258.3325 C162.3725 256.1300 164.5930 255.3075 167.1252 254.8150 Z"></path>
<path id="" fill="#653333" fill-opacity="1.0" stroke="#000000" stroke-width="0.0" stroke-opacity="1.0" stroke-linecap="round" stroke-linejoin="round"  filling="0" d="M326.3575 246.7930 C328.3850 246.6710 330.3275 246.7645 332.2350 247.5567 C336.1750 249.1915 337.4925 252.6975 339.0675 256.3025 C338.4825 258.3775 337.9475 260.4625 336.8125 262.3225 C335.2625 264.8575 333.1050 266.0825 330.3025 266.7575 C327.9875 267.2250 325.8550 267.0050 323.7175 265.9625 C321.3150 264.7925 319.4800 262.7075 318.6275 260.1725 C317.7275 257.5600 317.8225 254.5300 319.1325 252.0700 C320.7450 249.0428 323.2500 247.8050 326.3575 246.7930 Z"></path>
<path id="" fill="#663333" fill-opacity="1.0" stroke="#000000" stroke-width="0.0" stroke-opacity="1.0" stroke-linecap="round" stroke-linejoin="round"  filling="0" d="M371.0025 136.6050 C371.2550 136.3358 371.5100 136.0688 371.7650 135.8038 C377.5900 129.7917 386.3700 126.0790 394.7325 125.9830 C403.6125 125.8813 412.7450 129.3560 419.0900 135.6315 C424.6525 141.1330 428.4075 149.5883 428.4000 157.4485 C428.3975 160.4115 427.7050 163.0750 425.4825 165.1705 C423.8725 166.6873 421.7875 167.3590 419.5950 167.2740 C417.9375 167.2240 416.3275 166.7000 414.9575 165.7640 C410.6350 162.7610 411.7725 157.5505 410.2500 153.2225 C409.5475 151.2275 408.1900 149.3423 406.7175 147.8398 C403.6775 144.7397 399.7925 143.0435 395.4350 143.0420 C391.1875 143.0408 387.6100 144.5547 384.6350 147.5625 C379.0675 153.1910 379.7850 159.5918 379.8350 166.9375 C379.8225 172.4767 380.9125 188.6005 378.2300 192.9155 C377.0725 194.7762 375.0625 196.0145 372.9450 196.4710 C370.6050 196.9755 368.0475 196.5278 366.0500 195.2003 C364.4275 194.1217 363.4525 192.5397 362.9275 190.6848 C362.1950 188.0910 362.3325 185.1662 362.3125 182.4877 C362.2950 177.0247 362.3275 171.5615 362.4100 166.0990 C362.4450 162.8147 362.7650 159.2435 362.1300 156.0047 C361.2575 151.5710 358.6375 147.9580 354.8950 145.4765 C351.3800 143.1452 346.9625 142.5562 342.8675 143.4480 C337.5400 144.6093 332.9800 149.3542 331.6025 154.5757 C330.7825 157.6828 330.7925 161.1995 328.9225 163.9300 C327.7825 165.5983 326.1275 166.6615 324.1375 167.0145 C321.7500 167.4380 318.8425 166.9608 316.8700 165.4863 C315.1750 164.2177 313.9600 161.8600 313.6950 159.7830 C312.8000 152.7742 316.8150 143.2433 321.0850 137.8098 C326.3800 131.0730 335.0025 127.1003 343.3775 126.0878 C345.0875 125.9677 346.7825 125.9323 348.4950 126.0488 C356.7275 126.6087 365.5325 130.2962 371.0025 136.6050 Z"></path>
</svg>