<svg xmlns="http://www.w3.org/2000/svg" viewBox="0 0 512 512" height="512.0px" width="512.0px">
<path id="" fill="#00b7ff" fill-opacity="1.0" stroke="#000000" stroke-width="0.0" stroke-opacity="1.0" stroke-linecap="round" stroke-linejoin="round"  filling="0" d="M75.2538 409.1050 C82.4870 408.6425 89.9975 409.0275 97.2545 409.0300 L139.5417 409.0400 L271.7750 409.0275 L382.7675 409.0375 L417.6675 409.0325 C423.7775 409.0300 430.0975 408.6400 436.1750 409.1650 C441.6550 409.6400 446.4725 411.5350 450.7450 415.0250 C456.1125 419.4100 458.8250 425.1225 459.5000 431.9825 C460.1550 438.6150 457.4750 445.5375 453.2475 450.6000 C448.4800 456.3075 442.5200 458.4850 435.3125 459.1325 C430.9575 459.5275 426.3525 459.2525 421.9625 459.3525 C407.2550 459.6850 392.5075 459.4500 377.7925 459.4450 L263.8075 459.4425 L141.1422 459.4450 C124.8863 459.5675 108.6295 459.5200 92.3748 459.3025 C86.6988 459.2075 80.9973 459.4725 75.3350 458.9950 C69.5997 458.5100 64.4630 456.9875 59.9470 453.2700 C54.9920 449.1500 51.8867 443.2200 51.3195 436.8000 C50.7482 429.8975 52.9605 423.0525 57.4640 417.7875 C61.8715 412.6075 68.5793 409.6475 75.2538 409.1050 Z"></path>
<path id="" fill="#ff9d00" fill-opacity="1.0" stroke="#000000" stroke-width="0.0" stroke-opacity="1.0" stroke-linecap="round" stroke-linejoin="round"  filling="0" d="M181.6918 323.1150 C195.4438 322.5550 212.0875 326.0250 224.3745 332.2025 C246.8262 343.4925 265.2825 363.3200 273.1950 387.3725 C274.2350 390.5375 278.9725 406.7450 277.7450 409.1675 C274.8975 409.4075 271.9525 409.0225 269.0925 408.9925 C263.1800 408.9300 257.2625 408.9850 251.3500 408.9825 L188.1490 408.9875 L90.9170 408.9475 C91.0837 405.4175 91.9738 401.7375 92.7585 398.2975 C96.4883 381.9375 103.9073 366.0850 115.6155 353.8875 C118.7213 350.6525 121.9165 347.3750 125.3765 344.5200 C141.0480 331.5875 161.3107 323.5550 181.6918 323.1150 Z"></path>
<path id="" fill="#755e49" fill-opacity="1.0" stroke="#000000" stroke-width="0.0" stroke-opacity="1.0" stroke-linecap="round" stroke-linejoin="round"  filling="0" d="M313.7425 201.0072 C314.1575 200.9742 314.5750 200.9480 314.9925 200.9700 C322.1800 201.3490 343.5250 219.5222 349.3425 224.8927 C353.8950 229.0972 358.4975 233.6902 362.5950 238.3355 C371.6425 248.5895 379.2925 259.6650 386.0900 271.5000 C404.1350 302.9100 412.4850 334.4700 415.6750 370.4225 C416.8050 383.1400 417.4775 396.0525 416.6850 408.8075 C414.8675 409.0400 412.9900 408.9725 411.1600 408.9825 L383.7150 408.9900 C378.8650 408.9900 373.9375 408.8125 369.1025 409.1500 C369.1575 402.1975 368.7900 395.2275 368.5075 388.2825 C368.1225 378.7425 367.7075 369.2300 367.1375 359.6975 C364.7525 319.8375 362.0800 278.6750 338.7100 244.7295 C334.4700 238.5688 329.6625 233.3120 324.6300 227.8158 C322.9650 225.9960 321.4200 223.9767 319.6400 222.2730 C317.5875 220.3115 315.2775 218.5665 313.1525 216.6767 C311.4200 215.1350 309.3250 213.4068 308.4925 211.1747 C307.7575 209.1973 307.7325 206.8318 308.6600 204.9108 C309.7375 202.6832 311.5075 201.7435 313.7425 201.0072 Z"></path>
<path id="" fill="#02c652" fill-opacity="1.0" stroke="#000000" stroke-width="0.0" stroke-opacity="1.0" stroke-linecap="round" stroke-linejoin="round"  filling="0" d="M256.5725 210.4267 C232.8392 209.7720 208.9870 210.3795 185.2442 210.4120 C180.6410 210.4182 163.8315 211.0560 160.1837 209.9640 C159.1690 209.6600 158.4115 208.7437 157.9377 207.8362 C157.1725 206.3700 156.7948 204.3763 157.3385 202.7785 C159.5215 196.3660 179.7670 185.4532 185.9740 182.5130 C210.1995 171.0365 240.1320 169.0177 266.0000 175.5262 C270.5475 176.6703 275.1050 177.9722 279.4950 179.6265 C282.0500 180.5887 284.4975 181.8485 287.0825 182.7220 C288.2500 183.1158 288.5250 182.9020 289.5900 182.3817 C289.7525 181.9102 289.7975 181.7155 289.6725 181.2080 C289.3400 179.8683 288.5225 178.4855 287.9925 177.2025 C287.1075 175.0652 286.3025 172.8952 285.5825 170.6970 C282.9525 162.6125 281.2125 154.2655 280.3925 145.8038 C277.9800 118.7865 283.1625 91.8055 297.4475 68.5663 C299.9075 64.5642 302.5575 60.3963 305.5875 56.8047 C307.2325 54.8555 309.1600 53.0063 311.8525 52.8545 C313.3850 52.7680 315.6875 53.2607 316.8450 54.3265 C317.7575 55.1662 317.8625 56.4778 317.9700 57.6422 C318.2250 60.4688 318.0850 63.3775 318.0825 66.2165 L318.0800 80.8313 L318.0800 122.9295 C318.0800 130.9380 317.8400 139.0237 318.2375 147.0188 L320.9550 146.9557 C322.5475 144.0858 325.4800 141.2433 327.6225 138.7072 C343.2025 120.5312 363.7825 107.3378 386.8025 100.7688 C393.7175 98.8015 405.3000 95.6660 412.1675 97.6338 C413.7025 99.0905 415.1675 100.7495 415.2150 102.9990 C415.2350 104.0007 415.0425 104.9120 414.4450 105.7263 C412.6450 108.1765 410.1525 110.3572 408.0025 112.5095 L397.1825 123.3293 L360.2250 160.3347 C357.3525 163.2060 350.1975 169.5290 348.3625 172.4877 C348.8200 173.2892 349.1375 173.9975 349.9575 174.4695 C355.6750 173.2955 361.4025 172.0520 367.2150 171.4453 C396.2500 168.2970 425.4700 175.3963 449.8225 191.5143 C453.4475 193.9015 460.0825 197.8210 460.9500 202.2195 C461.2550 203.7815 460.8850 205.3268 459.9700 206.6215 C459.0200 207.9698 457.9425 208.6642 456.3100 208.8820 C451.6600 209.5022 446.4250 209.0488 441.7125 209.0430 L413.1000 209.0208 C383.8725 208.8833 354.6450 208.9653 325.4200 209.2665 C322.9450 209.3060 320.5025 209.8033 318.0475 209.8660 C318.3325 240.4413 318.3425 271.0175 318.0750 301.5950 L318.0950 332.9875 C318.1025 338.0050 318.5225 343.3950 318.0700 348.3775 C316.7850 349.9300 315.3675 351.3075 313.2725 351.5625 C311.2350 351.8100 309.4450 350.8725 307.9175 349.6125 C304.6350 346.9050 301.7450 342.4900 299.4000 338.9650 C288.3850 322.6000 281.7825 303.6650 280.2325 284.0000 C279.3125 272.6475 279.8225 261.2250 281.7525 250.0025 C282.4700 245.9792 283.6250 242.0570 284.3475 238.0455 L282.3900 237.2445 L231.1378 289.2450 L218.0513 302.3250 C215.3435 305.0275 212.6908 307.8750 209.7655 310.3425 C208.4312 311.4675 206.7660 312.9000 204.9555 312.8825 C203.4015 312.8650 202.0325 312.4125 200.9763 311.2325 C198.7685 308.7600 198.8390 305.3550 199.1185 302.2675 C201.1577 279.7400 211.1445 257.4650 225.6050 240.1945 C228.0567 237.2665 230.8253 234.5730 233.5260 231.8770 C236.2035 229.2045 238.9062 226.4600 241.8245 224.0485 C245.2177 221.2445 252.8850 215.0055 256.8125 213.4260 C256.3000 212.2800 256.2025 211.6393 256.5725 210.4267 Z"></path>
<path id="" fill="#d4f5e2" fill-opacity="1.0" stroke="#000000" stroke-width="0.0" stroke-opacity="1.0" stroke-linecap="round" stroke-linejoin="round"  filling="0" d="M256.5725 210.4267 C258.7625 210.0018 261.1900 210.1178 263.4250 209.9925 C262.2375 210.5632 257.7850 213.2835 256.8125 213.4260 C256.3000 212.2800 256.2025 211.6393 256.5725 210.4267 Z"></path>
<path id="" fill="#fbfefc" fill-opacity="1.0" stroke="#000000" stroke-width="0.0" stroke-opacity="1.0" stroke-linecap="round" stroke-linejoin="round"  filling="0" d="M343.4075 176.7518 C344.8525 175.1987 346.4350 173.6585 348.0950 172.3375 L348.3625 172.4877 C348.8200 173.2892 349.1375 173.9975 349.9575 174.4695 L350.0075 174.5202 L349.9050 174.7720 C347.6850 175.3155 345.5600 175.9780 343.4075 176.7518 Z"></path>
<path id="" fill="#f7fdfa" fill-opacity="1.0" stroke="#000000" stroke-width="0.0" stroke-opacity="1.0" stroke-linecap="round" stroke-linejoin="round"  filling="0" d="M320.9550 146.9557 C320.6475 148.3895 318.8400 150.5103 318.0250 151.8280 C318.0275 150.2510 317.9050 148.5610 318.2375 147.0188 L320.9550 146.9557 Z"></path>
</svg>