<svg xmlns="http://www.w3.org/2000/svg" viewBox="0 0 512 512" height="512.0px" width="512.0px">
<path id="" fill="#0073e5" fill-opacity="1.0" stroke="#000000" stroke-width="0.0" stroke-opacity="1.0" stroke-linecap="round" stroke-linejoin="round"  filling="0" d="M235.3665 51.3537 C235.3848 51.3513 235.4030 51.3475 235.4212 51.3460 C241.8488 50.8647 248.5063 51.0482 254.9325 51.4588 C289.6875 53.6210 322.8300 66.8773 349.4875 89.2783 C381.5025 116.3582 401.3875 155.0952 404.7300 196.8943 C408.0900 240.0215 392.8525 281.6175 364.8850 314.1925 C357.2100 323.1300 347.9400 331.0500 338.2500 337.7225 C313.0775 355.0550 284.8175 364.2975 254.4575 366.6075 C254.2850 366.6275 254.1125 366.6425 253.9375 366.6550 C244.5558 367.3200 234.9622 366.7875 225.6475 365.6700 C192.8822 361.9025 162.0450 348.2325 137.2502 326.4850 C134.5545 324.1525 132.0717 321.5050 129.5612 318.9750 C102.4680 291.6625 87.3488 255.8800 84.6485 217.6740 C83.8785 206.7832 84.7170 195.7175 86.4715 184.9527 C91.6995 152.8752 105.0020 126.9735 126.2207 102.5450 C129.6800 98.5623 133.6585 95.3450 137.5735 91.8548 C157.1300 74.4193 182.3432 61.0990 207.9230 55.1690 C216.9942 53.0660 226.0903 52.0145 235.3665 51.3537 Z"></path>
<path id="" fill="#00df5a" fill-opacity="1.0" stroke="#000000" stroke-width="0.0" stroke-opacity="1.0" stroke-linecap="round" stroke-linejoin="round"  filling="0" d="M194.3728 59.0457 C196.4645 59.5202 199.0457 61.2755 200.7715 62.5448 C208.8050 68.4543 206.9600 72.0667 208.3075 80.6545 C209.0595 85.4475 211.5087 90.4597 213.7740 94.7177 C218.4342 103.4780 224.0712 110.5778 231.0632 117.5577 C232.6710 119.1628 234.2657 120.9070 236.0103 122.3575 C237.8282 123.8687 239.8470 125.1415 241.7057 126.6050 C244.0225 128.4285 246.2287 130.4698 248.6897 132.0957 C252.5900 134.6730 256.7875 136.9068 260.8575 139.2055 C267.6450 143.0370 275.0950 146.9190 282.5150 149.2950 C287.6425 150.9362 300.2775 149.6922 304.0875 152.8058 C304.7975 153.3848 305.2925 154.2932 305.3075 155.2160 C305.3700 159.1480 297.5975 162.6673 294.4925 163.8427 C289.4450 165.7530 283.8375 165.6322 278.5275 166.0580 C273.1400 166.4902 267.2475 167.7780 262.3300 170.1115 C253.9150 174.1050 252.5125 179.8347 248.2057 187.2005 C245.1337 192.4550 235.8963 205.8985 231.1210 208.7995 C223.9755 213.1402 209.1938 211.3118 203.5193 216.9495 C202.3448 218.1163 201.6085 219.3665 201.2502 220.9848 C200.3050 225.2558 201.1133 237.6665 200.9937 242.8310 C194.5793 246.7410 179.5343 249.3667 175.3452 253.3850 C171.7465 256.8350 171.0018 264.7825 170.7843 269.4775 C169.5920 271.0300 168.1290 272.7550 166.1187 273.2025 C165.0170 273.4500 163.9785 273.1825 163.0680 272.5375 C158.0660 268.9975 157.3212 255.5000 156.3210 249.8020 C155.3952 245.1653 151.4500 219.7112 149.0960 217.7807 C149.0240 217.7218 148.9465 217.6700 148.8723 217.6138 C146.0453 215.4588 141.5862 213.4870 138.2648 212.1882 C137.2903 211.8073 136.2193 211.5155 135.2330 212.0425 C134.6667 212.3452 134.3020 212.7713 134.1662 213.3958 C133.4750 216.5773 133.9438 221.2133 133.8582 224.5865 C133.7222 229.9700 132.7560 238.0330 131.3667 243.2583 C130.4400 246.7442 128.4655 250.0925 125.2162 251.8775 C120.6415 254.3925 116.7047 251.5250 112.3257 250.2400 C109.9893 249.5562 107.2705 249.5858 105.1183 250.8350 C99.2830 254.2175 101.1590 264.0125 99.5912 269.6150 C99.3473 269.8100 99.2872 269.8800 98.9688 270.0175 C98.4122 270.2600 97.6505 270.2675 97.0853 270.0925 C94.2275 267.3450 89.4348 250.0200 88.3192 245.3302 C78.6057 204.8098 85.4772 162.0880 107.4068 126.6570 C123.5847 100.7215 146.8390 79.9510 174.4292 66.7930 C180.7210 63.7583 187.5515 60.6640 194.3728 59.0457 Z"></path>
<path id="" fill="#00df5a" fill-opacity="1.0" stroke="#000000" stroke-width="0.0" stroke-opacity="1.0" stroke-linecap="round" stroke-linejoin="round"  filling="0" d="M403.9000 193.7480 L404.1500 193.7590 L404.4600 194.1272 C405.0075 198.5335 404.9850 203.1738 405.0075 207.6170 C405.0975 226.1738 402.1800 243.9617 395.8325 261.4400 C381.7050 300.3400 353.7375 332.7500 316.0500 350.3775 C316.1400 349.5075 316.1825 348.6350 316.1825 347.7625 C316.2400 333.9925 313.4950 324.6325 303.5800 314.6050 C292.9575 317.7200 283.8950 323.1450 274.3875 328.6075 C270.5100 330.8350 266.4725 332.9250 262.7025 335.3225 C258.5700 337.9500 254.7900 341.3925 250.3625 343.5225 C246.7325 345.2700 243.1625 345.3575 239.3853 343.9925 C231.7015 341.2150 221.1090 331.6600 217.6475 324.3200 C217.1987 323.1800 216.4225 321.6775 217.1127 320.4925 C217.5560 319.7325 218.5918 319.3850 219.4122 319.2350 C224.1555 318.3700 229.8183 319.5875 235.2097 318.5000 C246.3055 316.2650 249.7405 310.4425 253.9400 300.6325 C255.4425 297.1250 257.0725 293.6350 258.0925 289.9500 C259.6825 284.2250 260.8050 277.8600 264.1925 272.8675 C269.0875 265.6475 283.4675 261.3425 291.7650 259.3075 C292.9925 259.0075 294.2550 258.9425 295.4800 258.6625 C296.1750 258.5050 296.5725 258.2125 296.9750 257.6225 C299.5700 245.8353 286.8375 245.0710 279.6275 240.3517 C274.4325 236.9518 270.1025 231.5663 267.4525 225.9870 C266.1200 223.1820 265.2900 219.8905 266.4475 216.8757 C267.0175 215.3860 268.0975 214.2843 269.5625 213.6565 C272.5075 212.3940 277.5500 212.9010 280.4400 214.1175 C285.3050 216.1667 286.1275 219.6902 288.0350 224.0372 C288.6625 225.4668 289.5700 226.6810 290.8225 227.6198 C296.3025 231.7253 307.7750 233.4142 314.3750 235.1947 C316.5050 235.7695 318.3325 236.7265 320.3675 237.5193 C321.6575 238.0213 323.0350 238.0925 324.4025 238.1543 C329.7150 238.3932 333.2850 236.0720 337.2500 232.8405 C342.3700 228.6658 347.5675 223.3983 351.7675 218.3005 C354.1050 215.4635 356.1900 211.6938 359.0000 209.3848 C361.4500 207.3685 365.5150 206.8660 368.4875 205.8915 L390.2650 198.8335 C394.9000 197.3062 399.4300 195.7045 403.9000 193.7480 Z"></path>
<path id="" fill="#515151" fill-opacity="1.0" stroke="#000000" stroke-width="0.0" stroke-opacity="1.0" stroke-linecap="round" stroke-linejoin="round"  filling="0" d="M356.7875 53.8383 C356.9125 53.8350 357.0350 53.8293 357.1600 53.8285 C364.2975 53.7827 380.7175 69.7238 386.1725 75.1308 C392.8300 81.7272 398.9400 89.1595 404.4750 96.7063 C429.1250 130.1467 442.3225 170.6492 442.1075 212.1918 C442.1350 260.8575 420.5050 312.0425 386.1550 346.3675 C357.5375 374.6000 321.1375 393.6350 281.6250 401.0325 C272.7900 402.7000 263.4950 404.0875 254.4925 404.0850 C254.9625 408.3575 254.8775 412.8300 254.9425 417.1325 C255.0400 423.4950 255.1600 429.8700 255.1400 436.2325 C263.0800 435.9400 271.0475 436.0575 278.9900 436.0525 C284.6600 436.0475 291.0300 435.5475 296.5925 436.6800 C298.3900 437.0475 299.9725 437.8450 301.4000 438.9875 C304.1225 441.1650 305.8875 444.0000 306.1525 447.5350 C306.4225 451.1200 305.0000 454.2600 302.6425 456.8825 C299.6575 460.2100 296.1525 460.5975 291.9500 460.8100 C284.8925 461.1650 277.7125 460.8900 270.6400 460.9075 L230.3500 460.9825 L206.1610 460.9875 C201.5847 460.9875 196.6888 461.3100 192.1552 460.6850 C189.3985 460.3075 186.5182 459.0625 184.4747 457.1450 C182.1115 454.9250 180.9710 451.9725 180.9620 448.7550 C180.9525 445.3850 181.8915 442.3475 184.3557 439.9700 C185.8455 438.5300 187.6998 437.3200 189.7180 436.8000 C195.1163 435.4150 201.7560 436.0525 207.3215 436.0550 C215.5595 436.0200 223.7975 436.0750 232.0343 436.2175 C231.5295 425.4550 231.1862 414.5875 231.5210 403.8175 C226.9710 403.6675 222.3395 403.0250 217.8360 402.3850 C198.0465 399.5725 179.4673 393.5675 161.2430 385.5075 C152.1225 381.5250 143.3208 376.3650 135.0410 370.8600 C111.3715 355.3675 91.5065 334.7300 76.9285 310.4875 C74.4463 306.3800 70.9500 301.6675 70.0870 296.9100 C69.6345 294.3700 70.2567 291.7550 71.8047 289.6925 C73.3092 287.6800 75.3860 286.3500 77.8895 286.0250 C81.0323 285.6150 84.5470 286.2075 86.9052 288.4450 C89.6678 291.0650 91.2758 295.2525 93.1797 298.5150 C94.8780 301.4275 96.7288 304.2800 98.6133 307.0750 C109.0270 322.5200 124.0788 338.2925 139.0128 349.4700 C176.9547 377.8150 224.6658 389.7850 271.4925 382.7100 C318.4925 375.7100 360.7400 350.2100 388.8350 311.8900 C432.9375 251.6700 432.9925 169.8305 388.9675 109.5540 C381.8400 99.8863 373.5850 90.2250 364.4950 82.3402 C362.1725 80.3255 359.8475 78.2415 357.4275 76.3455 C354.8450 74.3217 351.8975 72.4847 349.6550 70.0788 C348.2475 68.5697 347.2800 66.7250 347.0250 64.6638 C346.7125 62.0977 347.4650 59.5155 349.1075 57.5195 C351.2100 54.9155 353.5925 54.1118 356.7875 53.8383 Z"></path>
<path id="" fill="#00df5a" fill-opacity="1.0" stroke="#000000" stroke-width="0.0" stroke-opacity="1.0" stroke-linecap="round" stroke-linejoin="round"  filling="0" d="M94.9832 264.0100 C95.4897 263.9725 96.0228 263.9100 96.5300 263.9350 C97.2272 263.9700 97.4670 264.2425 97.9430 264.7125 C98.4225 265.8200 98.0500 267.1800 97.7300 268.2950 C96.8477 268.1875 96.1670 268.0800 95.5827 267.3425 C94.8175 266.3725 94.7968 265.1725 94.9832 264.0100 Z"></path>
</svg>