<svg xmlns="http://www.w3.org/2000/svg" viewBox="0 0 512 512" height="512.0px" width="512.0px">
<path id="" fill="#ef0303" fill-opacity="1.0" stroke="#000000" stroke-width="0.0" stroke-opacity="1.0" stroke-linecap="round" stroke-linejoin="round"  filling="0" d="M122.3380 168.6270 C139.7858 168.2475 157.2628 168.6487 174.7148 168.6062 L273.6850 168.6615 L316.7650 168.7632 C324.3275 168.7802 332.0550 168.4265 339.5825 169.0935 L339.9800 169.3795 C340.7975 169.9588 341.4600 170.3873 341.7975 171.3720 C342.1150 172.2948 341.9750 173.3910 341.8775 174.3460 C340.5425 187.5765 338.6825 200.7858 337.1875 214.0038 L322.8625 336.9775 L315.3275 402.3525 C314.3900 409.9625 313.6375 417.6525 312.4500 425.2225 C311.7800 429.6250 310.4950 433.9100 308.6350 437.9550 C303.4725 448.9650 294.5525 454.9600 283.3750 458.9800 C282.3400 459.3000 281.2900 459.5775 280.2325 459.8175 C274.5225 461.1350 268.5750 460.8425 262.7500 460.8400 L246.4960 460.8225 L188.3960 460.7750 L148.4162 460.8175 C142.6198 460.7975 136.4117 461.3000 130.6698 460.6150 C124.9715 459.9350 118.4000 457.2075 113.5730 454.1525 C104.3918 448.3425 98.1812 440.0075 95.8633 429.3125 C94.1535 421.4225 93.5573 413.1200 92.6982 405.0950 C91.9570 398.1725 91.0105 391.2675 90.2022 384.3525 L80.5298 303.0025 L69.4135 210.0470 C68.6273 202.8305 67.7750 195.6210 66.8575 188.4200 C66.2527 183.7595 65.3520 179.0590 65.1460 174.3593 C65.0957 173.2155 64.9702 171.0415 65.7260 170.1393 C66.3625 169.3795 67.4427 168.9902 68.3932 168.8678 C73.0845 168.2632 79.5137 168.8098 84.3938 168.7850 L122.3380 168.6270 Z"></path>
<path id="" fill="#fefefe" fill-opacity="1.0" stroke="#000000" stroke-width="0.0" stroke-opacity="1.0" stroke-linecap="round" stroke-linejoin="round"  filling="0" d="M246.2660 167.9142 C255.7600 167.9825 265.3125 168.1048 274.8050 167.8817 L275.0675 256.4325 C275.0800 258.2025 274.4500 265.3425 275.0150 266.4875 L275.4125 264.7550 C275.8450 267.1425 275.2500 269.7350 275.0825 272.1425 C274.9150 274.5975 274.8300 277.0575 274.8225 279.5175 L274.9125 317.8175 L275.0750 332.8275 C275.1250 336.0150 275.0350 339.2075 275.4250 342.3775 L275.5175 341.6225 C275.7650 346.0425 275.1025 350.5425 275.0875 354.9875 L275.1175 395.4400 L275.3400 444.6225 C275.3425 448.1400 275.8550 457.8925 275.2700 460.5675 C265.9225 461.1075 256.5700 460.8475 247.2075 461.0175 C247.1990 448.0575 247.5625 435.0000 247.0137 422.0550 C246.3027 417.5750 245.7895 413.5600 245.9962 409.0100 C245.6682 402.9375 245.9373 396.7200 245.9377 390.6350 L245.9445 354.8150 L245.9832 245.0658 L245.9798 190.2598 L245.9820 176.4483 C245.9830 173.7520 245.6820 170.5445 246.2660 167.9142 Z"></path>
<path id="" fill="#ef0303" fill-opacity="1.0" stroke="#000000" stroke-width="0.0" stroke-opacity="1.0" stroke-linecap="round" stroke-linejoin="round"  filling="0" d="M245.9962 409.0100 C245.6682 402.9375 245.9373 396.7200 245.9377 390.6350 L245.9445 354.8150 L245.9832 245.0658 L245.9798 190.2598 L245.9820 176.4483 C245.9830 173.7520 245.6820 170.5445 246.2660 167.9142 C246.7490 169.0120 246.7885 170.0688 246.8022 171.2455 C246.9745 186.1345 246.8300 201.0417 246.8418 215.9330 L246.9720 294.8850 L247.0517 331.6475 L247.0827 342.4625 C247.0887 344.2200 247.2728 346.2000 247.0405 347.9325 C247.2993 352.2475 247.1555 356.6300 247.1647 360.9575 L247.2195 383.5850 C247.2493 396.0550 247.8320 409.7000 247.0137 422.0550 C246.3027 417.5750 245.7895 413.5600 245.9962 409.0100 Z"></path>
<path id="" fill="#fefefe" fill-opacity="1.0" stroke="#000000" stroke-width="0.0" stroke-opacity="1.0" stroke-linecap="round" stroke-linejoin="round"  filling="0" d="M130.2650 167.9247 L158.6297 167.8930 L158.8110 459.8125 L158.7375 460.7500 C158.6125 460.8100 158.4960 460.8950 158.3625 460.9325 C157.5155 461.1725 131.2632 460.9825 130.5155 460.6900 C130.9142 449.1375 130.6655 437.5125 130.6265 425.9525 L130.4410 368.2475 L130.2650 167.9247 Z"></path>
<path id="" fill="#fefefe" fill-opacity="1.0" stroke="#000000" stroke-width="0.0" stroke-opacity="1.0" stroke-linecap="round" stroke-linejoin="round"  filling="0" d="M189.0155 167.9962 C198.2745 167.8347 207.5385 167.9590 216.7990 167.8875 C216.4870 190.4012 216.8717 212.9778 216.8978 235.4975 L217.6897 460.9525 C214.9285 460.4700 211.5355 460.8350 208.7227 460.8450 C202.2413 460.8525 195.7600 460.9000 189.2790 460.9875 C189.4447 453.4750 189.2188 445.9075 189.2157 438.3875 L189.2023 388.1875 C189.3750 347.5600 189.2693 306.9325 188.8848 266.3050 L188.6455 199.8147 L188.6120 180.8945 C188.6057 176.6322 188.3310 172.2080 189.0155 167.9962 Z"></path>
<path id="" fill="#f4ea29" fill-opacity="1.0" stroke="#000000" stroke-width="0.0" stroke-opacity="1.0" stroke-linecap="round" stroke-linejoin="round"  filling="0" d="M170.7852 51.0985 C179.5440 50.1657 191.5190 55.3638 198.7422 60.1400 C201.3983 61.8963 205.0815 65.4608 208.2388 65.9765 C210.9930 66.4262 217.3670 62.9368 220.3118 62.0330 C223.7157 60.9883 227.3355 60.1313 230.9120 60.0775 C238.8465 59.9577 246.3775 64.3030 250.8500 70.7290 C252.8625 73.6202 254.6500 78.1998 257.9200 79.8353 C260.0050 80.8798 262.6025 80.7767 264.8750 80.9520 C270.3400 81.3730 276.0500 83.4615 279.9850 87.3882 C286.3525 93.7422 286.1975 101.5837 286.1550 109.9815 C288.8125 109.9767 291.5500 110.3580 294.1850 110.7053 C297.2250 111.1055 300.3100 111.5415 303.1800 112.6647 C309.6375 115.1920 314.0600 121.2972 315.2425 128.0443 C315.7125 130.7227 315.7400 135.7960 317.5750 137.8528 C319.5200 140.0298 324.1975 140.4753 326.9025 141.5372 C329.6650 142.6223 332.3500 144.1362 334.5625 146.1300 C338.6650 149.8280 341.0650 155.5075 341.2225 161.0108 C341.2850 163.2137 340.6025 165.3947 339.0100 166.9673 C337.6425 168.3158 335.9350 168.8115 334.0600 168.9247 C326.4875 169.3815 319.0425 168.5380 311.5150 168.1062 C308.3275 167.9235 305.0850 168.0273 301.8925 168.0240 C295.2775 168.0170 288.6125 167.8658 282.0000 168.1008 C278.4200 168.2280 274.8550 168.6922 271.2725 168.7780 C260.6150 169.0335 249.8615 168.9680 239.2007 168.9337 C235.4080 168.8435 231.6268 168.1145 227.8483 168.1255 C225.0190 168.1335 222.2083 168.7278 219.3745 168.8008 C210.8913 169.0195 202.3205 168.8963 193.8327 168.8065 C190.1523 168.7677 186.5143 168.2765 182.8438 168.1053 C178.0132 167.8797 173.1105 167.9975 168.2737 168.0323 C163.7038 168.0650 159.1830 168.5970 154.6240 168.7552 C148.2923 168.9753 141.8970 168.8757 135.5607 168.8362 C131.7617 168.8127 128.0270 168.3280 124.2422 168.1228 C120.8432 167.9382 117.4015 168.0058 113.9975 168.0035 C111.5380 168.0018 109.0800 167.9860 106.6252 168.1673 C104.1718 168.3485 101.6265 168.7518 99.1697 168.7125 C96.6973 168.6730 94.2312 168.2540 91.7558 168.2905 C89.2502 168.3273 86.7402 168.7567 84.2360 168.7110 C81.8210 168.6667 79.4167 168.2778 77.0000 168.2307 C73.8232 168.1687 70.6680 168.7238 67.5352 169.1862 C67.3640 164.3590 64.8002 159.7663 64.9122 154.3817 C65.0883 145.9260 68.5850 142.5560 76.2718 140.1620 C78.4885 139.4715 80.7883 138.8098 82.4630 137.0898 C84.2645 135.2395 84.4893 130.6358 85.2405 128.1897 C86.1345 125.2787 87.5113 122.3180 89.4930 119.9828 C94.2498 114.3777 101.7328 114.8005 105.7730 110.8232 C105.8473 110.7502 105.9195 110.6752 105.9928 110.6013 C106.3140 102.1302 104.1697 93.0703 110.0143 85.9190 C116.6675 77.7783 125.2550 80.9315 134.1183 79.9037 C135.5592 79.7368 136.7720 79.3355 137.8192 78.2995 C139.6470 76.4912 140.5033 73.7125 141.7538 71.5035 C143.2840 68.8010 145.1305 66.1630 147.1005 63.7680 C153.1790 56.3783 161.2870 51.9960 170.7852 51.0985 Z"></path>
<path id="" fill="#f4ea29" fill-opacity="1.0" stroke="#000000" stroke-width="0.0" stroke-opacity="1.0" stroke-linecap="round" stroke-linejoin="round"  filling="0" d="M383.4575 355.0150 C383.8475 354.9700 384.2325 354.9250 384.6250 354.9125 C389.7525 354.7325 396.3050 357.8825 400.0300 361.2550 C406.0425 359.5500 412.6325 358.0125 418.9025 359.2375 C422.2950 359.8825 425.2775 361.8875 427.1525 364.7850 C430.3725 369.7375 430.1175 375.4800 429.0625 380.9950 C432.9850 380.6325 437.2600 380.9200 440.6675 383.0850 C442.3950 384.1625 443.8050 385.6800 444.7550 387.4775 C447.4975 392.7700 444.2975 396.6600 444.3200 401.8275 C444.3325 404.8375 446.0025 407.9475 446.6800 410.8700 C447.8125 415.7475 447.4150 421.3200 444.6175 425.5900 C441.6175 430.1775 436.4400 430.2750 431.7125 431.4000 C428.2500 432.2275 427.7225 438.5875 425.9425 441.3825 C423.7275 444.8600 420.0075 447.0625 416.0575 447.9975 C410.7050 448.4375 405.7400 447.3450 400.4700 447.1900 C392.8825 446.9650 384.5825 450.3825 377.4775 444.9875 C373.4075 441.8925 371.3275 436.3200 370.5650 431.4400 C365.0175 430.7150 359.8475 428.6375 355.8900 424.5950 C352.1000 420.7250 349.6025 414.8275 350.0500 409.3450 C350.2625 406.7575 350.9250 404.1975 350.7150 401.5900 C350.5750 399.8450 349.9050 398.0925 349.4725 396.4000 C348.9075 394.1950 348.8075 392.0050 348.8575 389.7350 C348.9500 385.5450 349.9875 381.3675 353.1650 378.4125 C357.5225 374.3600 364.7550 372.9025 370.5075 373.0050 C371.2300 369.5450 372.2300 366.2150 373.9250 363.0975 C376.1400 359.0225 378.8925 356.3375 383.4575 355.0150 Z"></path>
</svg>