<svg xmlns="http://www.w3.org/2000/svg" viewBox="0 0 512 512" height="512.0px" width="512.0px">
<path id="" fill="#fe92b4" fill-opacity="1.0" stroke="#000000" stroke-width="0.0" stroke-opacity="1.0" stroke-linecap="round" stroke-linejoin="round"  filling="0" d="M99.7305 173.0462 C107.5677 172.5983 115.6660 172.9995 123.5307 172.9957 L143.1520 172.9900 C148.4023 172.9892 157.4583 172.2975 162.1983 173.8277 C169.3345 176.1317 175.6305 181.5790 181.6930 185.8602 C190.3155 186.4905 198.7260 185.2422 207.3000 185.1817 L283.2400 185.1967 C297.1050 185.1970 310.9025 185.0675 324.7500 185.7903 C329.1325 186.0190 333.4825 186.0448 337.8450 186.6328 C346.9825 187.8645 355.7050 190.4075 364.3025 193.6998 C394.0500 205.0907 416.6075 228.1060 429.4975 257.0075 C430.4375 255.5725 431.6975 254.2750 432.7975 252.9550 C435.1200 250.1700 437.2975 247.3098 438.9800 244.0870 C439.6975 242.7133 440.3275 241.2950 440.8650 239.8410 C441.6000 237.8013 441.9350 234.0790 443.7125 232.6767 C445.5000 231.2672 457.2150 231.9837 459.9975 232.1010 C460.4375 233.4060 460.8175 234.5910 460.8275 235.9860 C460.8500 238.7675 460.0175 241.6362 459.1875 244.2620 C454.8025 258.1075 445.7500 266.7125 435.9225 276.7525 C440.2450 299.9350 440.5875 324.6850 433.1350 347.3225 C430.9275 354.0325 427.9850 360.3775 424.7450 366.6400 C410.3750 393.8975 385.7525 414.3150 356.3075 423.3900 C352.2875 424.8025 348.1925 425.7225 343.9725 426.2850 C344.1125 431.1025 344.0575 435.9350 344.0775 440.7550 C344.0900 443.8550 344.3925 447.2400 343.8900 450.2975 C343.5675 452.2550 342.8700 454.1200 341.1600 455.2650 C339.1550 456.6050 335.9400 456.6350 333.6050 456.8000 C326.9450 457.2750 320.0700 456.9125 313.3800 456.9250 C307.0725 456.9400 296.9975 457.6150 291.0200 456.4225 C288.4525 455.9100 286.7575 454.7225 285.3025 452.5775 C284.3850 446.0800 284.9850 435.8475 285.0350 428.9950 L226.9888 429.0050 C227.0453 433.8675 228.0375 450.4700 225.3540 453.8150 C223.9852 455.5200 221.0455 456.6300 218.9552 456.8275 C212.8695 457.4000 206.3618 456.9475 200.2320 456.9500 C192.2630 456.9550 182.3033 457.6050 174.5522 456.3875 C172.9015 456.1275 171.0530 455.5375 169.7730 454.4225 C168.8780 453.6450 168.4753 452.7900 168.2425 451.6425 C167.6933 448.9325 167.9480 445.9250 167.9550 443.1625 C167.9690 437.7175 168.1475 432.2250 167.9223 426.7875 L167.4670 426.6225 C162.9110 424.9225 158.0143 424.1100 153.3995 422.5225 C137.2453 417.0100 122.5318 407.9475 110.3412 396.0025 C97.2040 383.1425 87.6617 369.2550 81.2420 351.9725 C79.6860 347.7850 77.9830 343.5125 77.9355 338.9925 C71.6122 339.0275 61.4747 339.5975 55.5892 338.7950 C53.7100 337.4350 52.0323 335.8125 51.3802 333.5175 C50.3873 330.0225 50.9695 323.4450 50.9713 319.6700 L50.9803 296.9100 C50.9812 292.4950 50.6035 287.7850 50.9815 283.4025 C51.0867 282.1825 51.3895 280.9450 51.9987 279.8750 C55.0547 274.5075 66.3952 276.0725 71.7108 276.2600 C73.0465 276.3075 74.7328 276.5475 76.0130 276.1650 C76.8310 275.9225 77.1645 275.4400 77.4818 274.6850 C78.5700 272.0900 79.0407 269.0600 79.9098 266.3525 C81.7645 260.5750 84.1635 254.7575 86.8675 249.3208 C91.1250 240.7605 97.0725 232.1100 103.4940 225.0145 C105.5790 222.7108 113.1075 215.9848 114.0818 214.0980 C114.4515 213.3820 114.3825 212.4205 113.9528 211.7440 C112.4753 209.4175 109.8692 207.3810 107.9305 205.4133 C102.5200 199.9220 94.2080 190.8098 92.2765 183.3565 C91.7425 181.2957 91.6840 179.1868 92.8513 177.3253 C94.2580 175.0820 97.2125 173.5652 99.7305 173.0462 Z"></path>
<path id="" fill="#ffda00" fill-opacity="1.0" stroke="#000000" stroke-width="0.0" stroke-opacity="1.0" stroke-linecap="round" stroke-linejoin="round"  filling="0" d="M249.6675 56.0437 C276.7000 52.3070 301.6025 71.3110 305.1300 98.3723 C308.6600 125.4335 289.4650 150.1877 262.3775 153.5090 C235.5827 156.7940 211.1540 137.8517 207.6630 111.0830 C204.1720 84.3140 222.9263 59.7402 249.6675 56.0437 Z"></path>
<path id="" fill="#444444" fill-opacity="1.0" stroke="#000000" stroke-width="0.0" stroke-opacity="1.0" stroke-linecap="round" stroke-linejoin="round"  filling="0" d="M220.1243 193.1355 C229.9340 192.5833 239.9718 193.0007 249.8022 192.9995 L268.4575 193.0018 C274.8375 193.0043 283.4725 192.2193 289.4925 194.2550 C290.1275 197.2945 290.7950 215.3170 289.6300 217.5007 C288.3650 218.5938 286.7400 218.5445 285.1500 218.6897 C271.8525 219.0033 258.5150 218.7758 245.2103 218.7925 C236.5972 218.8033 227.5423 219.2430 218.9758 218.7620 C217.7390 218.6925 216.3687 218.6093 215.2940 217.9535 C215.1348 217.5175 215.0282 217.1225 214.9775 216.6582 C214.5230 212.4913 214.9980 207.9515 215.0022 203.7430 C215.0047 201.4420 214.6495 199.0105 214.8570 196.7305 C214.9337 195.8873 215.1545 195.0883 215.7057 194.4275 C216.7775 193.1427 218.5983 193.2185 220.1243 193.1355 Z"></path>
<path id="" fill="#444444" fill-opacity="1.0" stroke="#000000" stroke-width="0.0" stroke-opacity="1.0" stroke-linecap="round" stroke-linejoin="round"  filling="0" d="M136.8000 251.1700 C142.4337 250.1575 147.8273 253.8850 148.8748 259.5125 C149.9223 265.1375 146.2310 270.5550 140.6107 271.6400 C134.9393 272.7325 129.4615 269.0000 128.4045 263.3225 C127.3473 257.6425 131.1150 252.1900 136.8000 251.1700 Z"></path>
</svg>