<svg xmlns="http://www.w3.org/2000/svg" viewBox="0 0 512 512" height="512.0px" width="512.0px">
<path id="" fill="#fe4c22" fill-opacity="1.0" stroke="#000000" stroke-width="0.0" stroke-opacity="1.0" stroke-linecap="round" stroke-linejoin="round"  filling="0" d="M117.9175 64.8492 C121.7905 64.1325 126.8262 65.8550 130.0300 67.9765 C133.3605 70.1817 135.8658 73.2142 137.5258 76.8295 C139.2160 80.5113 140.4012 84.5800 141.8060 88.3878 L150.6905 112.3445 L179.6927 189.7892 L209.9370 270.3875 L217.5105 290.6475 C219.1000 294.8825 221.0755 299.2950 221.9810 303.7325 C226.0730 302.6075 230.3415 301.8775 234.4993 301.0175 L258.6675 296.1300 L326.2100 282.4700 L372.7050 273.1075 L386.9225 270.1925 C390.1850 269.5175 393.4600 268.6625 396.7875 268.3825 C400.9450 268.0300 404.8825 268.8025 408.5200 270.8750 C412.6550 273.2350 416.2200 277.2375 417.4600 281.8950 C418.8700 287.1750 418.2025 293.6125 415.3950 298.3375 C411.4900 304.9150 405.2925 306.6700 398.3125 308.4900 C380.3225 312.3225 362.2025 315.5825 344.1625 319.1650 L269.7000 334.1050 C255.9350 336.8075 242.2535 339.9250 228.4967 342.6475 C223.1655 343.7050 217.6835 345.1175 212.2888 345.7125 C207.1290 346.2825 201.0560 344.5600 197.0108 341.2750 C193.6995 338.5875 191.7148 334.8675 190.0840 331.0025 C186.9097 323.4775 184.3183 315.6025 181.5640 307.9150 L170.8242 278.7925 L130.5222 171.4547 L107.1825 108.9865 C104.8985 102.7108 99.9173 91.5123 99.2770 85.3295 C98.8005 80.7295 100.7878 75.3743 103.7070 71.8448 C107.3353 67.4580 112.3497 65.3958 117.9175 64.8492 Z"></path>
<path id="" fill="#93643d" fill-opacity="1.0" stroke="#000000" stroke-width="0.0" stroke-opacity="1.0" stroke-linecap="round" stroke-linejoin="round"  filling="0" d="M67.7175 51.0725 C69.6503 51.0573 71.6640 51.3622 73.3840 52.2798 C75.6577 53.4930 77.0753 55.5530 78.1435 57.8327 C79.4820 60.6888 80.4605 63.7860 81.5765 66.7420 L87.8035 83.0788 L108.8170 138.0318 L134.4203 204.9865 C138.8297 216.5330 143.8125 228.0980 147.5742 239.8557 C152.9913 238.5865 160.5517 238.8925 166.1767 238.9048 C174.7965 238.9235 183.4547 239.1317 192.0703 238.9097 C196.0742 238.8065 200.0480 238.2162 204.0513 238.0955 L306.9050 235.9325 L339.9800 235.0838 C344.4750 235.0098 349.0225 234.8273 353.5150 234.9978 C354.9375 235.0517 356.4175 235.2865 357.7250 235.8707 C359.6075 236.7110 361.1175 238.4738 362.1225 240.2380 C364.5975 244.5855 366.4775 249.5762 368.5150 254.1525 L378.9350 277.3900 L388.6725 299.0500 L394.6000 312.2175 C395.3825 313.9825 396.2925 315.6725 396.9600 317.4875 C399.8100 316.6875 402.8350 316.2550 405.7450 315.6950 C411.1975 314.6200 416.6600 313.5900 422.1300 312.6050 C427.8475 311.5250 433.9425 309.6300 439.7450 309.3550 C441.7625 309.2600 443.8325 309.5450 445.6125 310.5525 C447.8775 311.8375 449.4250 314.0850 450.0100 316.6050 C450.6500 319.3650 450.2050 322.3975 448.5925 324.7525 C447.6275 326.1775 446.2625 327.2875 444.6700 327.9400 C440.2300 329.7850 434.6325 330.3250 429.9125 331.2225 L405.0800 335.9000 C405.3875 336.4325 405.6850 336.9700 405.9750 337.5125 C409.7350 344.5750 412.8500 352.1050 416.1425 359.4000 L432.8100 396.2725 L446.2750 426.0725 C448.4675 430.9750 451.0825 435.7725 452.6675 440.9175 C453.4625 443.4975 453.4850 446.4075 452.6425 448.9825 C451.6900 451.9025 449.4825 454.9275 446.6875 456.3175 C444.7550 457.2775 442.6125 457.2700 440.6175 456.5025 C438.2950 455.6100 436.5600 454.0100 435.2450 451.9200 C433.5800 449.2725 432.4850 446.1875 431.2075 443.3350 L424.0500 427.4800 L397.8475 369.5600 L389.7475 351.6350 C388.0050 347.7750 385.9225 343.7575 384.8050 339.6650 C379.6275 340.9925 374.3325 341.9075 369.0900 342.9300 L343.1800 347.9225 L262.2475 363.5550 L168.7865 381.5875 L133.9633 388.2900 C125.1510 389.9975 116.3425 391.8300 107.4815 393.2700 C105.2255 397.0300 103.7435 402.4825 102.1858 406.6525 L89.6355 440.0525 C87.7895 444.9250 86.3127 450.5850 83.7903 455.1125 C82.7582 456.9650 81.3130 458.6900 79.4518 459.7450 C77.5410 460.8550 75.2615 461.1375 73.1373 460.5325 C70.3400 459.7500 68.2223 457.7200 66.9085 455.1800 C65.4160 452.2925 65.0728 449.1750 65.8142 446.0200 C67.0450 440.7825 69.5465 435.6000 71.5178 430.5850 L82.6640 402.1425 L118.8367 309.6900 L129.8245 281.5750 C131.9425 276.1650 134.2680 270.7475 136.1100 265.2375 C133.9700 260.4700 132.2592 255.4175 130.3922 250.5350 L119.9740 223.2620 L87.9677 139.5320 L68.8165 89.3918 L62.9210 74.0912 C61.6610 70.8272 60.1855 67.5390 59.3880 64.1248 C58.6882 61.1285 58.6445 57.9933 60.4095 55.3327 C62.1833 52.6592 64.7070 51.6362 67.7175 51.0725 Z M156.3175 262.3300 C157.1548 265.4775 158.6532 268.5400 159.8585 271.5725 C161.8250 276.5175 163.6985 281.5050 165.6005 286.4750 L186.6552 341.5750 C187.9563 344.9775 189.3687 348.3625 190.5870 351.7950 C191.0278 353.0350 191.1823 354.3925 191.6830 355.6025 C191.9102 356.1525 192.1925 356.5325 192.6595 356.9075 C193.3485 357.0100 193.8087 356.7875 194.4315 356.5375 L313.4975 333.5450 L352.2100 326.0550 C360.2100 324.4950 368.2600 322.6850 376.3250 321.5325 L357.0400 279.1125 C354.0325 272.4050 350.7350 265.7725 347.9825 258.9575 C344.7650 259.0475 341.5350 258.9800 338.3250 259.1100 C320.7425 259.6600 303.1525 259.9900 285.5625 260.1000 L220.1438 261.2600 L174.3015 262.0950 C168.3295 262.1600 162.2840 262.5750 156.3175 262.3300 Z M115.2798 371.7200 C122.9902 370.3750 130.6705 368.7825 138.3663 367.3450 L162.8050 362.6175 C166.1150 361.9875 169.4772 361.5050 172.7628 360.7725 C165.7088 343.0525 158.8315 325.2600 152.1325 307.4025 C151.2547 305.1050 146.5435 291.5600 145.6207 290.4600 C138.6430 309.5575 131.5428 328.6100 124.3207 347.6150 C121.3200 355.6125 117.9473 363.6150 115.2798 371.7200 Z"></path>
</svg>