<svg xmlns="http://www.w3.org/2000/svg" viewBox="0 0 512 512" height="512.0px" width="512.0px">
<path id="" fill="#ffffff" fill-opacity="0.027451" stroke="#000000" stroke-width="0.0" stroke-opacity="1.0" stroke-linecap="round" stroke-linejoin="round"  filling="0" d="M0.6766 0.0000 L511.3225 0.0000 C508.2025 0.6650 504.4600 0.3195 501.2650 0.3163 L484.2875 0.2973 L415.9925 0.2969 L147.6600 0.2999 L40.7298 0.2926 L15.1412 0.3109 C10.7615 0.3248 4.9184 0.8886 0.6766 0.0000 Z"></path>
<path id="" fill="#ffffff" fill-opacity="0.0196078" stroke="#000000" stroke-width="0.0" stroke-opacity="1.0" stroke-linecap="round" stroke-linejoin="round"  filling="0" d="M1.3091 512.0000 C3.3875 511.2775 25.6402 511.7425 29.6990 511.7425 L108.8480 511.7450 L408.0800 511.7525 L481.9375 511.7525 L501.0200 511.7350 C504.2850 511.7300 508.1175 511.3450 511.2925 512.0000 L1.3091 512.0000 Z"></path>
<path id="" fill="#ffffff" fill-opacity="0.027451" stroke="#000000" stroke-width="0.0" stroke-opacity="1.0" stroke-linecap="round" stroke-linejoin="round"  filling="0" d="M0.0000 0.9172 C0.7097 3.9909 0.2566 8.0218 0.2535 11.1965 L0.2509 30.6735 L0.2530 111.2188 L0.2531 439.7300 L0.2509 490.8325 C0.2507 494.5500 0.7518 508.0600 0.0000 510.5825 L0.0000 0.9172 Z"></path>
<path id="" fill="#dd852c" fill-opacity="1.0" stroke="#000000" stroke-width="0.0" stroke-opacity="1.0" stroke-linecap="round" stroke-linejoin="round"  filling="0" d="M314.0425 243.0930 L384.8500 242.9495 C384.6250 248.7990 384.4125 254.6200 384.0975 260.4675 C383.8650 264.8300 383.3550 269.2350 383.2950 273.5975 C383.2025 280.2050 383.8925 287.4625 385.1050 293.9500 C384.5225 294.3700 363.9175 293.9050 361.4800 293.7950 C357.2950 293.6050 353.1200 293.1200 348.9300 293.0375 C341.7100 292.9325 334.4875 292.8875 327.2675 292.8975 C322.9325 292.9075 318.5575 292.8175 314.2300 293.1050 C314.2850 285.7625 313.3025 278.5250 313.1450 271.2100 C313.0350 266.0800 313.7225 261.0725 313.9350 255.9650 C314.1150 251.6800 313.8750 247.3797 314.0425 243.0930 Z"></path>
<path id="" fill="#feca6c" fill-opacity="1.0" stroke="#000000" stroke-width="0.0" stroke-opacity="1.0" stroke-linecap="round" stroke-linejoin="round"  filling="0" d="M135.2408 248.0867 C142.5002 247.8295 149.8060 247.9640 157.0717 247.9460 C156.6967 257.8800 157.0015 267.9525 157.0385 277.8975 C157.0530 281.8175 157.2245 285.8000 157.0013 289.7125 C156.4418 290.1575 156.0052 290.0100 155.3125 290.0100 C148.2433 289.9700 141.1738 289.9975 134.1050 290.0975 C133.7587 287.0500 133.2845 284.0325 133.1102 280.9675 C132.8685 276.7125 132.4657 251.6250 133.3910 248.7985 C134.0300 248.2340 134.4162 248.2462 135.2408 248.0867 Z"></path>
<path id="" fill="#000000" fill-opacity="1.0" stroke="#000000" stroke-width="0.0" stroke-opacity="1.0" stroke-linecap="round" stroke-linejoin="round"  filling="0" d="M297.7700 238.4662 C301.7200 237.7690 306.0000 238.0703 310.0000 238.0708 L328.8600 238.0833 L361.8575 238.0865 C368.1875 238.0855 374.5600 237.9175 380.8825 238.1965 C383.2200 238.2997 385.3100 238.5188 387.5525 239.2213 C389.0500 240.7490 389.8625 242.0022 390.3250 244.1535 C391.1950 248.1950 390.6350 254.8925 390.6175 259.1900 L390.5600 285.1100 C390.5325 287.9075 390.5050 291.6000 388.4275 293.7200 C387.1450 295.0300 385.5725 295.6725 383.7800 295.8900 C379.7325 296.3825 375.4025 296.0875 371.3225 296.0775 L349.0350 296.0525 L297.6550 296.0125 C291.4625 296.0050 285.2575 296.1575 279.0700 296.0850 C276.2325 296.0500 272.6175 295.7300 270.5775 293.5250 C269.3875 292.2375 269.0000 290.4925 269.1425 288.7775 C269.3525 286.2175 270.9000 284.4025 272.6325 282.6650 C277.3675 281.6575 282.3800 282.0025 287.2000 282.0075 C294.1050 282.0175 300.9800 282.0575 307.8800 282.3175 L307.9075 280.1275 C307.5925 272.4450 307.7300 264.7600 307.7975 257.0750 C307.9500 255.4650 307.9650 253.8575 307.9950 252.2425 C300.1075 251.6200 292.1025 252.6975 284.1575 252.1050 C287.3325 248.7697 290.4800 245.4960 293.7625 242.2637 C295.0450 241.0027 296.3175 239.5152 297.7700 238.4662 Z M323.9375 282.2175 C334.4225 282.1000 344.9075 282.0575 355.3925 282.0900 C362.6500 282.0825 369.9400 281.9350 377.1975 282.1125 C376.7275 277.6350 377.8950 253.7225 376.3875 252.2275 C375.7300 252.0300 375.3525 252.0400 374.6875 252.1150 C366.1725 252.8800 357.4575 252.4900 348.9050 252.4975 C339.8650 252.5025 330.7150 252.8150 321.6900 252.4550 C321.7875 256.6300 321.3350 280.2950 322.1350 282.1125 C322.7700 282.2100 323.2925 282.2600 323.9375 282.2175 Z"></path>
<path id="" fill="#000000" fill-opacity="1.0" stroke="#000000" stroke-width="0.0" stroke-opacity="1.0" stroke-linecap="round" stroke-linejoin="round"  filling="0" d="M144.4735 238.1333 C152.4082 237.8890 160.3910 238.0692 168.3330 238.0695 L211.1432 238.0578 L238.3110 238.2100 C241.2380 238.2478 244.3013 237.8443 247.2025 238.2050 C247.0777 240.3590 235.6277 249.8205 233.2820 251.9900 C229.5578 252.2425 225.7643 252.1150 222.0310 252.1225 L203.3788 252.1700 C190.5318 252.1850 177.5200 252.5775 164.6893 251.9975 C165.4265 257.1925 165.0530 262.8700 165.0692 268.1250 C165.0932 272.8500 165.0388 277.5750 164.9060 282.2975 C172.4453 281.7700 180.0658 282.2175 187.6252 282.1550 C191.3470 282.1250 199.9125 281.4325 203.0970 282.1175 L203.2165 282.3750 C203.0052 282.7525 202.7985 283.1125 202.5437 283.4625 C200.8385 285.8050 190.6830 295.6325 188.1337 295.9000 C184.8030 296.2525 181.3188 296.0600 177.9682 296.0550 L160.3865 296.0275 L144.6565 296.0775 C141.8025 296.0900 138.7635 296.2900 135.9317 295.9650 C134.3248 295.7800 132.6385 295.2750 131.3625 294.2425 C129.8217 292.9950 129.3060 290.8925 129.0830 289.0125 C128.3280 282.6425 129.0033 273.8800 128.9953 267.2600 L128.9430 253.1700 C128.9340 250.5925 128.7242 247.8073 129.1053 245.2583 C129.3580 243.5680 129.9397 241.9370 131.0423 240.6095 C134.0163 237.0275 139.8655 238.5885 143.9700 238.1865 L144.4735 238.1333 Z M145.8750 282.1775 C147.6458 282.2150 149.4283 282.2125 151.1960 282.3125 C150.5105 272.2300 151.7728 261.9725 150.8092 251.8950 C150.0125 251.6375 149.1828 251.8025 148.3647 251.8825 L142.7513 252.0450 L142.7780 271.7300 C142.7880 274.9625 142.4908 278.5825 143.0132 281.7675 C143.5233 282.2700 144.2870 282.2225 144.9922 282.2150 C145.2867 282.2075 145.5810 282.1950 145.8750 282.1775 Z"></path>
<path id="" fill="#e6e6e6" fill-opacity="0.0705882" stroke="#000000" stroke-width="0.0" stroke-opacity="1.0" stroke-linecap="round" stroke-linejoin="round"  filling="0" d="M307.9075 280.1275 C307.7275 279.7625 307.5975 279.3700 307.2500 279.1275 C307.0325 278.9725 306.7825 278.8375 306.5575 278.6875 C306.3700 275.7500 306.0550 258.2525 306.8575 256.4350 C307.0600 256.6175 307.0500 258.7425 307.0925 259.1975 C307.3600 258.5000 307.5750 257.7875 307.7975 257.0750 C307.7300 264.7600 307.5925 272.4450 307.9075 280.1275 Z"></path>
<path id="" fill="#fb573c" fill-opacity="1.0" stroke="#000000" stroke-width="0.0" stroke-opacity="1.0" stroke-linecap="round" stroke-linejoin="round"  filling="0" d="M246.9108 57.4540 C356.7300 52.5952 449.6350 137.8110 454.2575 247.6410 C458.8825 357.4700 373.4675 450.1925 263.6275 454.5800 C154.1203 458.9550 61.7400 373.8550 57.1310 264.3575 C52.5218 154.8602 137.4232 62.2977 246.9108 57.4540 Z M198.6882 409.6025 C207.9925 412.5725 217.2245 415.5075 226.8683 417.2000 C236.2345 418.8450 245.8515 419.3050 255.3425 419.2500 C283.5325 419.0875 308.4125 413.1875 333.5000 400.2475 C370.7475 381.0300 399.1300 345.9675 411.8550 306.2000 C425.1725 264.2075 421.2325 218.6438 400.9000 179.5645 C396.0650 170.1900 389.9100 161.4828 383.3025 153.2820 C382.4850 152.2670 381.3150 150.3522 380.2375 149.6862 C377.3675 152.3945 374.8175 155.3990 372.0775 158.2337 C367.3950 163.0765 362.5575 167.7878 357.7925 172.5493 L302.0575 228.2758 C299.6575 230.6950 296.9275 232.8030 294.4500 235.1487 C290.8600 238.5488 287.4600 242.1495 283.9400 245.6203 C281.4525 248.0723 278.8250 250.3800 276.3400 252.8325 C274.3775 254.7700 272.6425 256.9275 270.7050 258.8925 L236.6270 293.6400 C233.8350 296.4825 230.7055 298.9550 227.9155 301.7800 C224.7880 304.9475 221.9635 308.3950 218.8158 311.5550 C212.1890 318.2025 205.6095 324.9275 198.8605 331.4525 C196.5790 333.6575 194.0640 335.6150 191.8035 337.8325 L148.8620 380.6500 C151.6028 383.2650 154.6857 385.4775 157.7295 387.7200 C170.1930 397.0500 184.0040 404.4275 198.6882 409.6025 Z M199.8002 285.9100 C199.8963 285.3875 199.8800 285.5850 199.9003 285.1275 C199.9545 283.8950 199.9915 283.1625 200.8217 282.1975 C201.9065 281.6425 203.1983 281.9125 204.3560 282.1000 C205.3400 282.6600 206.3443 283.2875 207.5230 282.9300 C208.0558 282.7700 208.5453 282.3625 208.9870 282.0350 C209.7845 280.1800 213.2590 277.2975 214.8200 275.7350 C219.7235 270.8275 224.5898 265.8550 229.5920 261.0475 C232.1865 258.5525 235.0585 256.3050 237.5318 253.6925 C238.0612 253.1325 238.4173 252.7425 238.5910 251.9850 C237.9030 250.7875 237.2538 249.6325 236.7457 248.3440 L236.8000 248.2260 C237.9860 245.5813 241.1938 243.4665 243.2937 241.5055 C243.3905 240.6042 243.4295 239.3660 244.1068 238.6758 C244.8163 237.9527 246.1588 238.0533 247.0840 238.0330 C247.7437 238.8085 248.2292 239.6525 249.1720 240.0980 C249.9670 240.1183 250.4900 240.0555 251.2525 239.8265 L251.4025 239.6328 C254.8700 235.2473 259.2850 231.3055 263.2400 227.3503 L284.1850 206.4130 L358.1850 132.5455 C358.8400 131.8817 359.4575 131.2917 359.3425 130.2840 C359.1500 128.5688 357.5000 127.4147 356.1875 126.5188 C348.0050 120.9285 340.0100 115.2360 331.1850 110.6425 C298.4775 93.8925 261.1325 88.4825 225.0148 95.2623 C186.5807 102.2500 151.9670 122.8930 127.5515 153.3875 C124.1118 157.6825 121.0120 162.3307 117.9252 166.8878 C113.9568 172.7462 110.6620 178.9415 107.6140 185.3223 C91.9045 218.2085 88.6805 254.8475 95.5663 290.4400 C99.8423 312.5425 110.7288 336.8325 124.5853 354.6275 C125.5470 355.8625 128.4653 360.1225 129.5793 360.6025 C129.7130 360.6600 129.8600 360.6800 130.0005 360.7200 C130.1495 360.1000 130.1653 359.8300 130.7258 359.4375 C131.2205 359.0900 131.8200 358.9775 132.2997 358.5500 C133.7735 357.2400 135.0440 355.5950 136.4267 354.1775 C139.7997 350.7225 143.2480 347.3350 146.6650 343.9225 L181.6313 308.9725 C183.5555 307.0375 190.4660 299.4775 192.4263 298.6025 C192.0280 297.1650 191.5130 296.0000 190.7925 294.6950 C193.2513 291.4400 196.8000 288.6600 199.8002 285.9100 Z"></path>
<path id="" fill="rgb(0,0,0)" fill-opacity="1.0" stroke="#000000" stroke-width="0.0" stroke-opacity="1.0" stroke-linecap="round" stroke-linejoin="round"  filling="0" d="M285.8575 249.9185 C286.3100 249.9765 286.6300 250.0725 287.0550 250.2225 C287.5025 250.7775 287.5875 250.7875 287.5800 251.4875 C287.1775 251.8425 287.0650 251.8600 286.5625 251.9750 C285.7475 252.0025 284.9575 252.1100 284.1975 251.7675 C284.3225 251.1250 285.3550 250.3875 285.8575 249.9185 Z"></path>
<path id="" fill="rgb(254,252,253)" fill-opacity="1.0" stroke="#000000" stroke-width="0.0" stroke-opacity="1.0" stroke-linecap="round" stroke-linejoin="round"  filling="0" d="M199.8002 285.9100 C199.8963 285.3875 199.8800 285.5850 199.9003 285.1275 C199.9545 283.8950 199.9915 283.1625 200.8217 282.1975 C201.9065 281.6425 203.1983 281.9125 204.3560 282.1000 C205.3400 282.6600 206.3443 283.2875 207.5230 282.9300 C208.0558 282.7700 208.5453 282.3625 208.9870 282.0350 C206.7283 285.6600 196.2392 295.3500 192.6025 298.6075 L192.4263 298.6025 C192.0280 297.1650 191.5130 296.0000 190.7925 294.6950 C193.2513 291.4400 196.8000 288.6600 199.8002 285.9100 Z"></path>
<path id="" fill="rgb(0,0,0)" fill-opacity="1.0" stroke="#000000" stroke-width="0.0" stroke-opacity="1.0" stroke-linecap="round" stroke-linejoin="round"  filling="0" d="M199.8002 285.9100 C199.8963 285.3875 199.8800 285.5850 199.9003 285.1275 C199.9545 283.8950 199.9915 283.1625 200.8217 282.1975 C201.9065 281.6425 203.1983 281.9125 204.3560 282.1000 C202.7948 283.3175 201.2753 284.5900 199.8002 285.9100 Z"></path>
<path id="" fill="rgb(254,252,253)" fill-opacity="1.0" stroke="#000000" stroke-width="0.0" stroke-opacity="1.0" stroke-linecap="round" stroke-linejoin="round"  filling="0" d="M243.2937 241.5055 C243.3905 240.6042 243.4295 239.3660 244.1068 238.6758 C244.8163 237.9527 246.1588 238.0533 247.0840 238.0330 C247.7437 238.8085 248.2292 239.6525 249.1720 240.0980 C249.9670 240.1183 250.4900 240.0555 251.2525 239.8265 C250.3600 241.4625 240.9815 250.4425 239.0065 252.0575 L238.5910 251.9850 C237.9030 250.7875 237.2538 249.6325 236.7457 248.3440 L236.8000 248.2260 C237.9860 245.5813 241.1938 243.4665 243.2937 241.5055 Z"></path>
<path id="" fill="rgb(0,0,0)" fill-opacity="1.0" stroke="#000000" stroke-width="0.0" stroke-opacity="1.0" stroke-linecap="round" stroke-linejoin="round"  filling="0" d="M243.2937 241.5055 C243.3905 240.6042 243.4295 239.3660 244.1068 238.6758 C244.8163 237.9527 246.1588 238.0533 247.0840 238.0330 C245.6775 241.0627 239.3570 245.5853 236.7457 248.3440 L236.8000 248.2260 C237.9860 245.5813 241.1938 243.4665 243.2937 241.5055 Z"></path>
<path id="" fill="#000000" fill-opacity="1.0" stroke="#000000" stroke-width="0.0" stroke-opacity="1.0" stroke-linecap="round" stroke-linejoin="round"  filling="0" d="M248.3985 87.1118 C282.3100 85.6810 315.8775 94.3890 344.8175 112.1235 C349.7250 115.1425 356.9550 119.6960 361.0875 123.5675 C362.7925 125.1647 364.1200 127.0598 364.1125 129.4845 C364.1075 131.3683 363.5000 132.7747 362.2750 134.1765 C359.9825 136.8020 357.3450 139.2125 354.8725 141.6750 L341.6300 154.8815 L299.3375 197.1725 L167.9682 328.5350 L144.3690 352.1300 C141.1350 355.3800 136.9445 360.3750 133.3293 362.9475 C132.2610 363.7075 130.9710 363.9800 129.6792 364.0625 C127.5380 364.2025 125.8288 363.2325 124.3225 361.7825 C120.7097 358.3050 117.1955 352.5575 114.4023 348.3525 C97.2643 322.2675 87.8102 291.8875 87.1208 260.6825 C85.7542 213.4308 103.5788 170.6978 136.0813 136.7392 C137.7920 134.9520 139.7765 133.3780 141.5883 131.6882 C165.7630 109.3345 195.9772 94.5827 228.4715 89.2682 C234.9427 88.1823 241.8288 87.2260 248.3985 87.1118 Z M130.2810 346.6075 C142.5420 333.9725 155.1667 321.7025 167.5320 309.1725 L176.5290 300.4175 C177.7815 299.1825 179.0482 297.4775 180.4895 296.5125 C182.5270 295.1500 184.9003 295.8900 187.0298 295.0750 C189.8468 293.9925 198.5485 287.2775 199.5358 284.6075 C199.4173 284.2150 199.4892 284.1500 199.1107 283.9325 C197.8927 283.2325 196.2550 283.8675 195.7005 282.2800 C195.8920 281.3900 196.3078 280.7750 196.8860 280.0825 C202.1450 273.7825 208.5733 268.0425 214.3853 262.2375 C217.1057 259.5200 221.4673 254.4925 224.4765 252.4425 C226.9263 250.7725 230.3833 250.9075 233.2305 250.7800 C235.3865 248.5560 242.0197 242.7590 243.0957 240.4413 C242.8427 239.8870 242.8443 239.9305 242.2928 239.7462 C241.4550 239.4660 240.3177 239.6040 239.6467 239.0103 C239.5647 237.3932 241.3752 235.5965 242.4232 234.4402 C245.6560 230.8737 249.1865 227.5137 252.5900 224.1090 L269.3775 207.3155 L321.4150 155.2815 L338.2800 138.4485 C340.9950 135.7505 344.0650 133.1062 346.5475 130.2023 C342.3250 126.3010 336.5700 123.1527 331.5650 120.3513 C307.3825 106.6380 279.8450 99.9577 252.0650 101.0648 C251.6725 101.0810 251.2775 101.1010 250.8850 101.1250 C216.5957 101.8047 183.5780 114.2335 157.3513 136.3338 C151.8385 140.9295 146.7780 146.2392 141.7693 151.3732 C119.5765 174.1203 105.5055 205.7415 101.8597 237.1777 C100.9130 245.3403 100.9195 253.5475 101.0165 261.7500 C101.3140 286.8825 109.0650 312.3350 121.7090 333.9575 C124.1935 338.2050 126.8935 343.0275 130.2810 346.6075 Z"></path>
<path id="" fill="#000000" fill-opacity="1.0" stroke="#000000" stroke-width="0.0" stroke-opacity="1.0" stroke-linecap="round" stroke-linejoin="round"  filling="0" d="M163.6935 150.0538 C165.5607 149.8625 167.1385 149.9362 168.8663 150.7730 C173.6308 153.0802 172.1315 160.8110 170.7445 164.8293 C169.4535 168.5690 166.8830 172.1647 166.7630 176.2325 C166.6185 181.1315 169.7643 184.9478 171.1410 189.4195 C172.6740 194.4000 172.5302 201.1588 170.5120 205.9937 C169.5150 208.3828 168.1055 210.6727 167.3233 213.1438 C166.5410 215.6147 166.7630 218.4778 165.4523 220.7645 C164.4772 222.4657 162.8808 223.3045 161.0683 223.8540 C160.3503 223.9713 159.5785 223.9510 158.8605 223.8325 C156.3050 223.4102 154.8150 221.6285 153.4135 219.6380 C152.6800 212.8553 154.3100 209.3700 157.0720 203.3175 C160.9080 194.9108 157.1815 192.3570 154.5022 185.0247 C152.5632 179.7190 152.6257 172.7782 154.8248 167.5640 C155.7655 165.3333 157.1545 163.2015 157.8692 160.8865 C158.6405 158.3895 158.5623 155.5670 159.7550 153.2090 C160.6133 151.5117 161.9205 150.6107 163.6935 150.0538 Z"></path>
<path id="" fill="#000000" fill-opacity="1.0" stroke="#000000" stroke-width="0.0" stroke-opacity="1.0" stroke-linecap="round" stroke-linejoin="round"  filling="0" d="M290.8175 235.8335 C290.9400 235.7993 291.0625 235.7702 291.1800 235.7305 C293.3925 234.9937 301.7225 225.5582 304.0000 223.2733 L357.5725 169.9070 C360.0600 167.4433 362.2800 164.7522 364.7250 162.2648 C366.4250 160.5378 368.3100 159.0033 369.9950 157.2620 C372.6150 154.5513 375.0675 151.5878 378.2125 149.4515 C380.4550 147.9270 382.4650 147.2103 385.0575 148.3797 C388.6425 149.9953 391.2300 154.4142 393.4375 157.5327 C402.7150 170.6420 410.1800 184.5022 415.4850 199.6820 C430.2250 242.0685 427.6950 288.5525 408.4425 329.0900 C388.9600 369.6800 354.0700 400.8050 311.5275 415.5450 C291.0500 422.6300 269.9700 425.5350 248.3468 424.8550 C244.4395 424.7325 239.1345 424.9950 235.5793 423.3075 C233.6055 422.3700 232.3853 420.8875 231.5363 418.8950 C231.5205 418.8575 231.5128 418.8175 231.5007 418.7800 C226.0733 417.7425 221.0440 419.0675 215.7540 416.7925 C215.0833 417.5025 214.1743 418.0100 213.2543 418.3200 C207.2578 420.3425 182.7770 408.4575 176.3520 405.1550 C171.4783 402.6500 149.6280 389.5175 148.3030 385.0325 C147.7100 383.0225 147.7660 380.4075 149.0050 378.6550 C150.0172 377.2250 151.4492 375.9725 152.6613 374.7000 C154.4653 372.8050 156.1830 370.8100 158.0477 368.9750 C159.8585 367.1925 161.8318 365.5825 163.6555 363.8125 C167.1720 360.4000 170.3270 356.6950 173.7567 353.2175 C176.2578 350.6825 179.0477 348.4200 181.5733 345.8925 L221.8293 305.1500 C224.3085 302.6700 227.0002 300.4000 229.4917 297.9250 C234.6582 292.7900 239.8730 287.6650 244.9675 282.4650 C247.0582 280.3300 249.0215 278.0550 251.1425 275.9550 C254.9775 272.1575 258.9850 268.5625 262.7575 264.6900 C264.7550 262.6375 266.5750 260.4250 268.5600 258.3700 C271.1975 255.6400 280.6225 248.0443 281.8950 245.3313 C281.9450 245.2260 281.9875 245.1170 282.0325 245.0100 C281.9825 244.3242 281.8550 243.4368 282.2100 242.8170 C283.9375 239.8033 287.5350 236.8120 290.8175 235.8335 Z M296.1750 239.2930 C293.9050 242.9405 290.5875 245.2655 288.1175 248.6345 C287.5325 249.4337 287.1025 250.1575 287.2800 251.1725 C288.5750 252.5075 290.7425 251.7025 292.4050 252.1175 C292.9600 252.2550 293.0100 252.3800 293.3050 252.8275 C293.0925 254.2475 291.7425 255.5225 290.7950 256.5450 C283.7900 264.0950 276.1750 271.2325 268.8850 278.5175 L227.0390 320.3525 L189.1315 358.2600 C181.2220 366.1675 173.4462 374.3125 165.1415 381.8050 C174.9688 389.2850 186.2267 395.4225 197.6720 400.0275 C200.2767 401.0750 202.8972 402.1125 205.5715 402.9700 C208.2590 403.8325 211.1472 404.5225 213.7057 405.7175 C214.5777 406.1200 215.3667 406.6825 216.0315 407.3750 C217.6832 409.1000 217.7975 411.0275 217.7218 413.2775 C221.9342 414.4675 227.4267 415.9925 231.7680 416.3025 C233.7945 408.5375 240.0590 410.6050 246.2128 410.8375 C255.0700 411.1750 263.9250 411.1950 272.7500 410.3000 C302.3975 407.2300 330.4925 395.5350 353.5600 376.6625 C385.1275 350.3250 406.6950 312.9100 410.3550 271.6300 C413.0625 241.0990 407.9750 211.5355 393.6675 184.3058 C390.2500 177.8030 386.4425 171.0918 381.7175 165.4447 C357.7300 190.3935 332.4750 214.1310 308.3975 238.9880 C304.3975 239.4760 300.2125 239.1620 296.1750 239.2930 Z"></path>
<path id="" fill="#fb593e" fill-opacity="1.0" stroke="#000000" stroke-width="0.0" stroke-opacity="1.0" stroke-linecap="round" stroke-linejoin="round"  filling="0" d="M217.7218 413.2775 C221.9342 414.4675 227.4267 415.9925 231.7680 416.3025 C231.7380 417.0200 231.8280 418.1625 231.5007 418.7800 C226.0733 417.7425 221.0440 419.0675 215.7540 416.7925 C216.6163 415.6600 217.2323 414.6175 217.7218 413.2775 Z"></path>
<path id="" fill="#fc573d" fill-opacity="1.0" stroke="#000000" stroke-width="0.0" stroke-opacity="1.0" stroke-linecap="round" stroke-linejoin="round"  filling="0" d="M290.8175 235.8335 L291.1275 236.1560 C290.2350 237.6695 283.2850 244.7572 282.1800 245.0715 L282.0325 245.0100 C281.9825 244.3242 281.8550 243.4368 282.2100 242.8170 C283.9375 239.8033 287.5350 236.8120 290.8175 235.8335 Z"></path>
<path id="" fill="#000000" fill-opacity="1.0" stroke="#000000" stroke-width="0.0" stroke-opacity="1.0" stroke-linecap="round" stroke-linejoin="round"  filling="0" d="M251.5400 51.1285 C270.4325 50.5602 289.8000 53.4702 308.0725 58.1113 C311.4250 58.9633 315.2600 59.6478 318.3675 61.1582 C320.1350 62.0172 321.6075 63.3047 322.2100 65.2280 C322.7750 67.0342 322.5150 69.1678 321.5675 70.8002 C318.9875 75.2580 314.0000 73.9767 309.9600 72.8337 C277.4750 63.3343 243.0625 62.5380 210.1718 70.5245 C160.5085 83.1105 117.8835 114.9182 91.6817 158.9445 C66.1550 201.9178 58.5810 253.2150 70.5992 301.7325 C83.0990 351.4475 114.8905 394.1325 158.9418 420.3500 C202.7575 446.3650 255.1800 453.7100 304.4600 440.7425 C353.5475 427.6025 395.4650 395.6150 421.0950 351.7350 C446.3400 308.4075 453.4875 256.8725 440.9875 208.3080 C432.4500 175.1808 415.0550 145.0027 390.6675 121.0113 C387.3200 117.6667 384.0125 114.0690 380.4075 111.0065 C369.4800 101.7223 358.9450 95.1252 346.6225 87.9707 C342.8650 85.6000 335.4975 83.2142 332.7700 80.2682 C331.3300 78.7115 330.9775 76.4470 329.7425 74.7525 C329.1625 73.9575 328.1675 73.3215 327.4550 72.6175 L327.4800 72.2827 C328.7150 71.8412 330.4825 72.9843 331.5125 72.4085 C331.9650 72.1555 332.4850 71.5610 332.8900 71.2152 C334.2525 70.0560 335.3625 69.4308 337.0175 68.8012 C341.0450 69.3055 344.7850 71.5478 348.3550 73.3708 C363.9700 81.2780 378.5400 91.1040 391.7225 102.6205 C395.0775 105.5363 398.1725 108.9218 401.3200 112.0703 C403.6950 114.4450 406.1725 116.7695 408.4275 119.2555 C439.4350 153.8932 457.7750 198.0250 460.4500 244.4368 C461.0400 254.1025 460.8625 263.7975 459.9175 273.4350 C456.0750 317.5900 438.1375 359.3400 408.7550 392.5200 C382.9375 421.2175 349.5950 442.1025 312.5075 452.8050 C297.0675 457.1275 281.1975 459.7325 265.1850 460.5725 C255.9750 461.1350 246.8865 460.7225 237.7108 459.8775 C194.0388 455.9750 152.7605 438.2050 119.9092 409.1650 C78.8318 372.6225 54.1712 321.0975 51.4753 266.1850 C49.1812 220.4770 62.2715 175.3188 88.6555 137.9238 C93.2280 131.4315 98.2435 124.8873 103.6135 119.0195 C131.5350 88.2903 168.0307 66.6410 208.3842 56.8700 C222.6265 53.5115 236.9492 51.8325 251.5400 51.1285 Z"></path>
</svg>