<svg xmlns="http://www.w3.org/2000/svg" viewBox="0 0 512 512" height="512.0px" width="512.0px">
<path id="" fill="#f0a73b" fill-opacity="1.0" stroke="#000000" stroke-width="0.0" stroke-opacity="1.0" stroke-linecap="round" stroke-linejoin="round"  filling="0" d="M257.2975 58.3667 C257.3825 58.4473 257.4700 58.5267 257.5575 58.6082 C261.3475 62.2103 264.0625 67.8090 266.7300 72.3053 C271.6275 80.5598 275.6525 89.1350 279.2850 98.0092 C288.1925 119.7705 293.4900 141.9317 293.9750 165.5135 C294.0275 168.1035 292.9400 179.3698 293.3400 180.3130 C294.0500 180.5295 294.1475 180.5338 294.8650 180.3452 C296.6550 178.8270 298.0425 175.9778 299.4475 174.0513 C303.1750 168.9305 306.9075 163.6555 311.3275 159.1042 C327.9250 142.0135 348.8025 131.5735 372.2325 127.8935 C376.5475 127.2155 380.9450 126.6192 385.3025 126.2972 C388.3150 126.0745 391.3450 126.0740 394.3525 125.8173 C396.3200 125.6492 398.2575 125.2632 400.2175 125.0785 C398.7325 133.5890 396.3100 141.6862 393.6075 149.8785 C389.1925 163.2543 383.2225 177.3983 374.5200 188.6068 C370.0025 194.4250 364.6200 199.5340 359.0475 204.3110 C355.8800 207.0270 352.6950 209.7778 349.2800 212.1837 C344.8425 215.3103 339.9075 217.7425 335.5850 220.9937 L335.9800 221.0468 C339.6075 221.5075 343.3425 221.1163 346.9925 221.2310 C353.0175 221.4200 359.0975 221.9185 365.1250 222.2350 C389.6825 223.5242 413.7450 230.3210 434.6525 243.4215 C438.9575 246.1190 447.4650 250.8300 450.4900 254.3675 C450.9625 254.9225 451.1975 255.2675 451.2425 255.9950 C449.5400 258.8275 444.9575 261.0575 442.1600 262.8675 C425.4675 273.6650 412.6100 280.2250 393.1950 285.0625 C375.5875 289.5575 357.3375 290.9875 339.2425 289.2975 C337.9525 289.1725 334.8100 288.6775 333.9500 289.7100 C334.0575 290.1900 334.2200 290.4925 334.5550 290.8400 C336.1400 292.4875 338.5350 293.6550 340.4150 294.9450 C342.8725 296.6300 345.2325 298.4100 347.5775 300.2475 C350.8475 302.8125 354.2475 305.2675 357.3850 307.9925 C359.9625 310.2300 362.3375 312.7550 364.7450 315.1725 C373.2175 323.6725 380.4875 332.2250 386.2150 342.8675 C394.8150 358.8500 399.7400 383.0925 400.1450 401.1125 C388.9150 400.8275 377.5175 401.6125 366.3275 400.8700 C349.0225 399.7200 333.1125 393.4175 321.0400 380.7200 C314.7425 374.0975 309.4700 366.1900 305.4325 358.0025 C302.1825 351.4125 297.9400 341.7175 293.6100 335.9500 C292.8400 339.8225 292.9925 343.6975 293.0025 347.6250 C293.0200 354.4075 293.3375 361.3225 292.7250 368.0800 C290.7175 390.2475 286.2625 406.7050 276.3075 426.4825 C273.1075 432.8375 269.8400 438.8175 265.8850 444.7450 C263.3000 448.6200 260.5800 453.8450 256.7825 456.5900 C252.3150 454.1350 249.3305 449.6900 245.7188 446.2050 C243.2977 443.8700 240.5952 441.8575 238.1257 439.5775 C229.1167 431.2625 223.4622 422.4000 220.0565 410.5750 C214.9840 392.9625 217.5658 375.1525 221.6842 357.6675 C222.5052 354.1800 225.0668 347.2200 225.2038 344.2725 L222.9730 343.3950 C205.9580 370.1650 190.5327 385.8450 158.7370 392.9075 C150.9292 394.6425 143.0865 395.7900 135.1582 396.8050 C129.7850 397.4950 124.2498 397.9475 118.9715 399.1925 C118.9475 392.1425 120.3557 385.5900 121.7798 378.7300 C126.1308 357.7700 133.3395 335.2650 148.7740 319.7175 C158.5510 309.8675 163.5818 305.2575 175.5500 298.0250 C177.0692 297.1075 183.4640 294.1275 183.8825 292.8475 C183.1472 292.0775 181.6738 292.1450 180.6712 292.1200 C174.8038 291.9775 169.0327 292.7825 163.1868 292.9550 C142.2263 293.5750 118.2442 293.7875 99.0372 284.4400 C92.7668 281.3875 87.0428 277.2575 81.4068 273.1875 C77.1017 270.0575 72.8613 266.8400 68.6882 263.5350 C66.4658 261.8125 63.9590 260.1525 61.9915 258.1450 C61.7760 257.9275 61.5648 257.7050 61.3580 257.4800 C61.4268 257.4200 61.4948 257.3575 61.5640 257.2975 C64.3725 254.8600 67.8475 252.9225 70.8893 250.7475 C73.7852 248.6740 76.6365 246.5038 79.6407 244.5905 C82.7558 242.6073 86.0140 240.9888 89.2875 239.2965 C92.1105 237.8372 94.9358 236.2685 97.8500 235.0055 C109.5228 229.9467 121.9847 227.2852 134.5140 225.4380 C143.3695 224.1325 152.2708 223.2007 161.2245 223.0878 C163.6022 223.0578 177.3575 223.3692 178.2045 222.1650 C177.2875 220.7235 165.7272 216.1727 163.2287 214.8022 C135.4990 199.5925 126.9855 179.2440 121.9153 149.3878 C120.3595 140.2267 118.8362 131.1635 118.9835 121.8420 C125.1097 122.1075 131.0630 123.6330 137.0230 124.9753 C164.8300 131.2383 186.2460 142.8858 205.5355 164.0338 C210.7285 169.7272 214.4442 176.3285 218.9755 182.4710 C219.3945 183.0390 219.8195 183.8035 220.4982 184.0098 C221.2267 183.2495 221.0805 181.6270 221.0547 180.5892 C220.9382 175.8880 220.1602 171.1975 220.0155 166.4870 C219.3055 143.3788 220.2715 118.7855 230.3045 97.5345 C233.7645 90.2060 238.4980 83.1483 243.2242 76.5880 C247.0970 71.2125 250.7650 65.1225 255.2775 60.2780 C255.9125 59.5952 256.5850 58.9700 257.2975 58.3667 Z"></path>
<path id="" fill="rgb(248,251,235)" fill-opacity="1.0" stroke="#000000" stroke-width="0.0" stroke-opacity="1.0" stroke-linecap="round" stroke-linejoin="round"  filling="0" d="M222.9730 343.3950 C223.9012 341.4475 225.0950 338.9450 226.5562 337.3525 L227.1443 337.2575 C227.6125 338.1000 227.3110 339.2525 227.0740 340.1325 C226.7300 341.4075 226.2337 343.4150 225.2038 344.2725 L222.9730 343.3950 Z"></path>
<path id="" fill="#c25459" fill-opacity="1.0" stroke="#000000" stroke-width="0.0" stroke-opacity="1.0" stroke-linecap="round" stroke-linejoin="round"  filling="0" d="M162.1620 296.7200 C157.4783 297.5050 150.6633 297.0375 145.8082 297.0125 C120.5952 296.8900 102.4500 293.8000 81.5508 278.9150 C75.8900 274.8050 70.4050 270.4600 65.1110 265.8900 C63.0120 264.1100 60.7195 262.5300 58.8310 260.5125 C58.1675 259.8050 57.2545 258.7475 57.1550 257.7275 C56.8865 254.9850 64.1490 248.2072 66.3538 246.1682 C81.7325 231.9453 102.9277 226.3760 122.9450 222.5677 C129.4405 221.3318 136.1580 220.0663 142.7355 219.3873 C145.1322 219.1398 151.0708 219.4340 151.7348 216.4657 C151.3743 214.9028 146.7193 212.1138 145.3383 210.8495 C140.1810 206.1283 135.2643 200.9920 131.3660 195.1700 C119.1277 176.8915 115.9880 150.3793 113.9922 128.9117 C113.7177 125.9585 112.3418 118.5363 113.9408 116.2978 C114.5027 115.5113 115.7750 115.1967 116.6783 115.1430 C120.3248 114.9258 126.6475 117.5965 130.3652 118.6320 C155.2052 125.5520 175.9320 133.5425 194.9805 151.5415 C198.4740 154.8425 202.0930 157.9917 205.5948 161.2725 C207.7915 163.3305 209.7925 165.6973 212.1678 167.5430 C212.7840 167.3410 213.2917 167.2122 213.8175 166.8175 C214.1272 164.3833 213.5855 161.6340 213.4547 159.1723 C213.2845 155.9625 213.4017 152.7520 213.6062 149.5475 C215.8092 115.0120 219.6317 101.5125 239.0508 72.4835 C242.0950 67.9325 250.2200 54.6797 254.0225 51.6837 C254.8325 51.0453 255.5000 50.6682 256.5675 50.8542 C258.5875 51.2057 260.0700 52.7755 261.1400 54.4200 C264.8500 60.1122 267.8375 66.6530 270.8825 72.7332 C281.2075 93.3475 289.1275 111.7720 294.5750 134.3233 C296.5750 142.5972 297.7125 150.8600 298.5725 159.3192 C298.6500 160.0805 298.6425 162.3488 299.5925 162.3958 C300.6350 162.4473 301.6700 161.6930 302.4225 161.0570 C304.7475 159.0905 306.7775 156.6093 308.9375 154.4507 C313.3500 150.0412 317.9825 145.9295 323.1200 142.3732 C342.9300 128.6620 366.0800 124.2493 389.6150 121.8062 C393.3650 121.4167 400.9525 119.7513 404.0175 122.3367 C404.6350 122.8568 404.7800 123.5080 404.8175 124.2907 C405.0025 128.1523 401.6250 135.4030 400.1825 139.3053 C393.2225 158.1232 384.3150 183.5918 370.3575 198.2345 C367.1450 201.6075 363.8175 205.0460 360.3075 208.1073 C358.1075 210.0245 355.6750 211.7012 353.5725 213.7218 C353.6675 214.4892 353.6775 215.4852 354.0300 216.1638 C356.5575 216.6625 359.1825 216.7457 361.7425 217.0115 C366.2675 217.4852 370.7800 218.0435 375.2850 218.6855 C398.3150 222.1358 421.8750 228.7365 441.5750 241.5112 C445.6200 244.1333 451.2850 247.3412 454.0900 251.3450 C454.5550 252.0075 455.0450 252.9300 454.9000 253.7750 C454.3475 257.0075 437.6300 269.5475 434.2975 271.8700 C431.8725 273.5675 429.3550 275.1250 426.7525 276.5325 C422.8625 278.6200 418.8150 280.0325 414.7000 281.5725 C400.4725 286.8925 385.9375 290.8750 370.7750 292.2500 C366.5675 292.6325 362.3850 292.9500 358.1575 293.0075 C355.5850 293.0425 352.7525 292.7650 350.2125 293.0075 C349.6650 293.0575 349.2975 293.1600 348.9025 293.5450 C348.8025 294.2075 348.5775 294.7775 348.9750 295.3850 C350.3725 297.5250 357.9275 302.9575 360.3825 305.0575 C362.4300 306.8075 364.3075 308.7200 366.2125 310.6225 C369.7125 314.1175 373.3125 317.5650 376.5550 321.3000 C391.2100 338.1900 399.9700 358.3650 402.8325 380.5250 C403.5950 386.4200 404.4625 393.3125 404.0850 399.2225 C404.0175 400.2650 403.7150 401.0825 402.9025 401.7675 C402.0450 402.4900 400.8825 402.8925 399.8100 403.1625 C396.2775 404.0475 392.4325 404.1700 388.8175 404.5675 C383.6125 405.1375 378.4175 405.8550 373.1725 405.9525 C368.6125 406.0850 364.0525 405.8675 359.5275 405.3050 C343.3800 403.3350 328.4025 396.7225 318.2225 383.6800 C316.1325 381.0025 314.2900 378.1850 312.5675 375.2625 C310.7300 372.1450 301.8475 354.6075 300.5675 353.7500 C300.0650 353.4125 299.0450 353.3125 298.4575 353.2300 C297.4325 354.8750 296.7825 365.8875 296.3750 368.6575 C294.9150 378.3350 293.0675 387.9500 290.8375 397.4800 C289.6375 402.5350 288.5025 407.6525 286.9400 412.6125 C282.3750 426.7625 275.1625 439.9175 265.6875 451.3750 C263.9675 453.4750 258.4325 460.5875 256.2000 461.0150 C255.3375 461.1800 254.5600 460.7000 253.8825 460.2100 C250.0800 457.4550 247.1413 453.2975 243.4653 450.2725 C238.7608 446.4000 233.7990 442.8200 229.2547 438.7550 C218.3150 428.9725 213.0197 416.6600 211.0350 402.3050 C210.3740 397.3150 210.0878 392.2825 210.1795 387.2475 C210.2177 384.4150 211.9068 372.9025 211.0123 371.2425 C210.3385 370.7325 209.7133 370.3225 208.8115 370.5575 C208.3690 370.6725 207.9133 370.9425 207.5510 371.2175 C206.4113 372.0850 205.4722 373.2800 204.4015 374.2375 C202.0538 376.3425 199.4982 378.2800 196.9240 380.0975 C184.5480 388.8400 170.8582 394.9100 155.7457 396.8875 C148.0258 397.8975 140.2392 398.1850 132.5050 399.0575 C127.7710 399.5900 123.2040 401.2750 118.9175 401.7225 C117.9380 401.8250 116.8470 401.8025 115.9345 401.3900 C115.0943 401.0100 114.6950 400.4000 114.4170 399.5600 C113.0645 395.4700 115.1635 389.0375 116.0258 384.9125 C119.7930 366.8825 124.1877 349.3900 132.9393 333.0450 C139.0488 321.6350 148.0290 311.0800 158.0745 302.9275 C159.3427 301.8975 160.9245 300.3125 162.4195 299.6850 C162.3660 298.6950 162.2563 297.7075 162.1620 296.7200 Z M122.4583 125.4758 C124.2195 131.1382 124.2935 137.4595 125.2150 143.3160 C127.2773 156.4215 130.4102 173.3987 136.6110 185.1420 C141.2160 193.8630 148.0735 201.2905 155.9330 207.1705 C159.8132 210.0735 164.6568 212.7210 169.1967 214.4435 C173.5233 216.0850 178.2103 216.4798 181.9037 219.5033 L182.1808 219.7343 C181.7065 221.6220 180.4637 224.8725 178.4868 225.6557 C176.5412 226.4265 170.7388 226.0405 168.3728 226.1790 C163.8793 226.4425 159.3805 226.8358 154.8842 227.1245 C147.2090 227.6178 139.4300 228.9355 131.8423 230.1647 C116.6613 232.6243 100.2473 235.3875 86.6202 242.9005 C83.8135 244.4483 81.1755 246.4308 78.5858 248.3130 C76.2452 250.0150 73.5595 251.7500 71.5535 253.8300 C70.8092 254.6025 69.9108 255.6200 70.0677 256.7800 C70.1718 257.5475 70.6527 258.2225 71.1690 258.7750 C72.2578 259.9375 73.6833 260.8050 74.8900 261.8450 C77.0383 263.7000 79.1013 265.6500 81.3192 267.4225 C90.1418 274.4775 100.3635 280.7650 111.2487 283.9975 C119.8685 286.5575 131.7937 287.5275 140.8520 287.8800 C147.4505 288.1375 154.2253 288.0700 160.8300 287.9125 C165.1070 287.8125 182.8000 285.5875 185.3692 287.7850 C187.0300 289.2050 186.7715 292.6625 186.8483 294.6800 C184.4413 297.1575 180.8280 298.2825 177.9512 300.1625 C171.5915 304.3225 164.9722 309.0700 159.2980 314.1225 C156.1935 316.8875 153.6387 320.1950 151.0587 323.4375 C137.7287 340.1800 132.2108 356.2500 127.4955 376.7950 C126.4133 381.5100 124.8225 386.3550 124.5342 391.1950 C131.8107 389.6325 139.0033 389.3150 146.3690 388.6350 C155.7065 387.7750 164.8082 385.9650 173.5290 382.4575 C187.4700 376.8525 199.4345 367.4275 209.7555 356.6650 C213.0647 353.2150 216.4597 349.0500 218.9760 344.9850 C220.5827 342.3900 221.8468 339.4075 223.6848 336.9825 C224.3055 336.1625 225.0513 335.2875 226.0515 334.9375 C227.1622 334.5475 228.4682 334.7500 229.5033 335.2650 C230.5948 335.8075 231.2585 336.5525 231.6803 337.6825 C231.7830 338.6750 231.9622 339.7800 231.7402 340.7625 C231.0862 343.6575 229.2030 346.2975 227.9740 348.9750 C226.2485 352.7350 224.7238 356.9225 223.5482 360.8850 C219.7590 373.6675 219.6570 386.2700 220.0708 399.4550 C220.3633 401.0200 220.4735 402.6175 220.8255 404.1700 C222.0392 409.5225 224.4642 416.9850 227.3060 421.6075 C231.1152 427.8050 238.9640 434.7050 244.6593 439.3200 C247.4965 441.6200 250.4175 444.4825 253.5250 446.3800 L253.8825 446.5950 C254.8600 447.1900 256.2125 447.0275 257.3250 447.0225 C266.0025 437.2100 274.1325 422.6450 278.0250 410.0825 C280.2250 402.9775 281.6750 395.4900 283.1875 388.2075 C285.5200 376.9775 287.3625 365.7975 288.5100 354.3800 C289.0525 348.9875 288.4125 342.7800 289.0650 337.9500 C289.2750 336.4050 289.7550 334.2400 291.1450 333.3125 C292.3000 332.5425 294.3550 332.7050 295.6200 333.0550 C301.6250 334.7200 315.4825 363.5925 318.9075 369.7000 C325.3000 381.1025 337.0150 390.4450 349.6600 393.8850 C353.0375 394.8025 356.5450 395.4800 360.0325 395.7825 C365.4525 396.2525 391.0150 396.4250 394.5250 394.1025 C394.8250 393.9025 394.8175 393.9700 394.8450 393.6375 C394.9425 392.5075 394.4375 391.0950 394.2825 389.9550 C394.0050 387.9025 393.9650 385.7950 393.7525 383.7300 C390.9275 357.8475 378.8175 333.8650 359.6625 316.2325 C355.6975 312.5825 351.6350 309.0425 347.4775 305.6125 C342.4100 301.4400 336.8100 297.3050 332.7600 292.0925 C331.5825 290.5775 330.4400 288.5225 330.7700 286.5300 C330.9500 285.4450 331.7050 284.3600 332.6075 283.7450 C334.6525 282.3600 337.5775 283.2350 339.8250 283.5825 C343.4300 284.1375 347.2775 283.9625 350.9200 283.9675 C370.0725 283.9875 386.6050 281.2650 404.8825 275.5450 C410.9475 273.6475 417.0950 271.6150 422.6825 268.5475 C430.1875 264.4300 435.8025 258.6775 442.5825 253.6600 C438.7475 250.0275 434.5075 247.3963 429.9250 244.8255 C408.9425 233.0538 384.3725 228.2473 360.6925 225.6552 C355.7675 225.1160 350.7500 224.5680 345.8075 224.2525 C343.0900 224.0790 340.2675 224.2855 337.5800 223.8622 C335.9975 223.6127 334.0575 223.0627 333.1375 221.6333 C332.5075 220.6543 332.5750 218.4303 333.1925 217.4828 C334.9325 214.8233 347.2775 206.8158 350.9000 204.0318 C353.2275 202.2415 355.2825 200.1548 357.3600 198.0880 C360.8150 194.6517 364.4075 191.2840 367.3800 187.4105 C375.5825 176.7265 380.7400 164.4247 385.7250 152.0145 C388.5375 145.0103 391.2675 138.0430 393.4850 130.8280 C393.0750 130.8147 392.6700 130.8062 392.2600 130.8112 C386.0150 130.8882 379.6625 131.9880 373.5050 132.9965 C352.1200 136.4982 339.1725 140.8398 322.3550 155.0768 C320.3825 156.7478 318.2600 158.2510 316.4000 160.0527 C313.7200 162.6487 310.9600 165.2920 308.4675 168.0635 C306.9600 169.7380 305.6525 171.5833 304.1650 173.2755 C303.1200 174.4665 301.9475 175.5430 300.8725 176.7057 C299.8000 177.8638 299.0350 179.3350 297.8975 180.4207 C297.0150 181.2628 295.3425 182.3415 294.0550 182.1503 C293.3050 182.0390 292.5600 181.3885 292.0750 180.8443 C289.0350 177.4360 290.0075 171.6130 289.8775 167.3672 C288.9600 137.6562 278.5050 108.0663 265.3025 81.7130 C263.0025 77.1243 260.8875 71.5970 257.7150 67.5967 C257.1150 66.8412 256.2950 65.8985 255.2600 65.8530 C254.9200 65.8380 254.9675 65.8240 254.7650 66.0447 C253.7675 67.1357 252.9725 68.5867 252.1025 69.8012 C249.2903 73.7385 246.5827 77.7258 243.8658 81.7295 C231.0072 100.6787 226.2095 114.9160 223.9185 137.6180 C223.6825 139.9568 223.2872 142.2825 223.1252 144.6288 C222.6915 150.9102 222.7040 157.8780 223.0100 164.1698 C223.3280 170.7057 224.7115 177.2032 224.9902 183.7285 C224.1670 184.4980 223.3545 185.2050 222.3302 185.6978 C220.7910 186.4380 219.1890 186.5190 217.6545 185.7238 C214.7070 184.1967 211.7615 180.3642 209.3867 177.9792 C203.4942 172.0612 197.7265 165.8140 191.5335 160.2180 C172.3515 142.8850 159.9028 136.7672 135.6127 129.1635 C131.3505 127.8295 126.9010 126.9577 122.6862 125.5537 L122.4583 125.4758 Z"></path>
<path id="" fill="#fefcfd" fill-opacity="1.0" stroke="#000000" stroke-width="0.0" stroke-opacity="1.0" stroke-linecap="round" stroke-linejoin="round"  filling="0" d="M162.1620 296.7200 C163.7915 296.2275 165.6665 296.4625 167.3645 296.2150 C165.9420 297.2850 164.0545 299.0875 162.4195 299.6850 C162.3660 298.6950 162.2563 297.7075 162.1620 296.7200 Z"></path>
<path id="" fill="#c25459" fill-opacity="1.0" stroke="#000000" stroke-width="0.0" stroke-opacity="1.0" stroke-linecap="round" stroke-linejoin="round"  filling="0" d="M256.8200 179.7735 C257.8775 179.8045 258.9050 179.8805 259.8500 180.3940 C260.9900 181.0135 261.6925 181.9902 261.9300 183.2603 C262.5950 186.8288 262.0925 195.4848 262.0850 199.4568 C262.0600 210.3642 262.3200 221.3448 261.9650 232.2422 C261.8350 236.2775 260.4825 241.4442 261.5775 245.3163 C262.8325 246.4245 264.7425 246.0535 266.3075 245.9965 C270.9550 241.9532 274.6025 237.2348 278.7475 232.7410 C280.6125 230.7185 282.6625 228.8663 284.5050 226.8228 C286.3575 224.7700 288.0375 222.5685 289.9275 220.5493 C293.7225 216.5022 297.5325 212.6537 300.8300 208.1628 C302.4425 205.9670 305.7850 199.3585 308.2625 198.9082 C309.7600 198.6362 311.4325 199.4620 312.6250 200.2850 C313.4300 200.8383 313.8975 201.3795 314.0550 202.3703 C315.1350 209.1938 295.3575 228.6593 290.4675 233.9485 C288.6125 235.9568 287.1000 238.2305 285.2100 240.2100 C282.4650 243.0820 279.0400 245.6842 276.7250 248.9088 C276.0900 249.7960 276.0500 250.8550 276.2325 251.9000 C280.2175 252.5575 284.9650 251.9575 289.0425 252.0350 C293.2925 252.1175 297.5075 252.7075 301.7525 252.8750 C306.0100 253.0425 327.0325 252.2925 329.2075 253.5425 C329.9625 253.9750 330.6900 255.0450 330.9400 255.8650 C331.3125 257.0850 331.0150 258.4750 330.3875 259.5575 C329.8150 260.5500 328.9250 261.3425 327.7950 261.6100 C323.5625 262.6075 316.2825 262.0325 311.7250 262.0300 L280.5150 261.9975 C278.2325 261.9900 274.1875 261.4650 272.1925 262.0300 C271.7450 262.8925 271.7375 263.4300 272.2025 264.2975 C273.4375 266.6025 276.3550 268.7450 278.1700 270.6725 C280.3225 272.9575 282.1950 275.4900 284.3575 277.7650 C288.4950 282.1225 292.9550 286.1775 297.0875 290.5425 C299.0775 292.6425 300.7750 295.0000 302.7400 297.1225 C304.4100 298.9275 306.5125 300.5650 307.9325 302.5700 C308.3500 303.1625 308.6450 303.9575 308.7475 304.6700 C308.9475 306.0475 308.4550 307.4025 307.6050 308.4800 C306.8925 309.3850 305.8600 310.0675 304.6950 310.1700 C303.5200 310.2750 302.6625 309.8700 301.7700 309.1375 C298.4300 306.4000 295.9475 302.7600 293.0275 299.6100 C290.3700 296.7450 287.4600 294.1150 284.8125 291.2400 C282.9350 289.2000 281.2425 287.0075 279.3925 284.9475 C277.1975 282.5050 274.7050 280.2700 272.3800 277.9450 C270.2275 275.7925 268.1875 273.4700 265.9175 271.4425 C265.0100 270.6325 263.9550 269.7075 262.6750 269.7775 C262.2700 270.1925 262.2100 270.6025 262.1500 271.1575 C261.7125 275.2425 262.0675 279.6725 262.0675 283.7975 L262.0775 309.5875 C262.0900 314.5075 262.8775 323.4875 261.2050 327.9650 C260.8800 328.8350 260.3050 329.7025 259.3650 329.9800 C258.1300 330.3475 255.7525 329.2800 254.6675 328.6725 C253.6000 328.0700 253.3725 327.0675 253.0750 325.9775 C252.6950 320.9325 252.9375 315.7375 252.9425 310.6800 L252.9625 283.0225 C252.9650 279.9175 253.4500 272.5000 252.6500 269.9200 C252.5700 269.8875 252.4900 269.8475 252.4050 269.8250 C251.7600 269.6525 251.1100 269.8475 250.5650 270.1925 C248.4625 271.5225 246.5468 274.1125 244.6552 275.8025 C242.7878 277.4725 240.7863 278.9850 238.9445 280.6850 C235.3085 284.0400 231.8090 287.6500 228.2705 291.1225 C225.8282 293.5175 223.5892 296.1325 221.0872 298.4650 C219.8723 299.5975 218.4753 300.5075 217.2445 301.6225 C215.1723 303.5025 213.1030 306.0400 210.7083 307.4350 C209.5733 308.0950 208.3035 308.4800 207.0080 308.0775 C205.8698 307.7225 204.7915 306.6850 204.2665 305.6275 C203.7422 304.5700 203.5753 303.0925 204.0683 301.9950 C205.7990 298.1450 218.3737 287.6175 222.0208 284.3600 C224.8112 281.8675 227.2948 279.0075 230.0168 276.4300 C234.0087 272.6525 243.9028 265.4950 245.4035 260.6725 C245.4382 260.5625 245.4702 260.4500 245.5035 260.3375 C239.2672 259.8250 233.1942 260.9075 226.9662 260.9675 C220.9115 261.0250 214.9657 260.1475 208.9245 260.0875 C203.6237 260.0350 198.3132 260.0150 193.0125 260.0625 C190.0375 260.0875 186.9167 260.3500 183.9605 260.1150 C182.7128 260.0150 181.4030 259.7400 180.3675 259.0000 C179.3735 258.2875 178.9662 257.2625 178.8362 256.0750 C178.6897 254.7375 178.9805 253.5275 179.8387 252.4750 C180.6098 251.5325 181.4165 251.2450 182.6042 251.0750 C187.2535 250.4000 193.1992 250.9475 197.9852 250.9550 L227.4052 250.9975 C232.9120 251.0025 238.5465 251.2525 244.0332 250.8775 L244.2793 250.5625 C244.4028 249.6570 244.1210 249.1075 243.6033 248.3845 C241.4113 245.3215 237.9832 242.5105 235.3005 239.8225 C231.4243 235.9385 227.6033 231.9518 223.6050 228.1950 C221.3465 226.0730 218.8777 224.1860 216.5925 222.0938 C213.4852 219.2490 210.5708 216.1320 207.5802 213.1593 C205.7637 211.3537 201.7993 208.0473 200.9088 205.8000 C200.5600 204.9203 200.5327 203.8107 200.9140 202.9365 C201.7475 201.0237 204.1698 200.2660 205.9843 199.6252 C209.3255 202.6985 212.9230 205.5060 216.1980 208.6420 C221.3423 213.5680 226.1875 218.8110 231.3545 223.7148 C234.9985 227.1730 238.9252 230.3277 242.4635 233.9037 C244.4427 235.9037 246.0652 238.2245 247.9920 240.2685 C248.8703 241.2003 249.6707 242.1628 251.0000 242.1913 C253.0125 241.0305 251.8700 236.7500 251.9950 234.6560 C252.1925 231.3262 252.8325 228.0140 252.9350 224.6815 C253.1000 219.3568 252.3250 184.2055 253.4600 181.9790 C254.1050 180.7133 255.5625 180.1873 256.8200 179.7735 Z M255.6025 258.9650 C257.7425 259.0350 259.8550 259.0200 261.9950 258.9350 L261.9150 255.3100 C259.7575 254.3475 257.8775 254.0825 255.5400 254.0525 C255.5400 255.6825 255.4775 257.3425 255.6025 258.9650 Z"></path>
<path id="" fill="#f0cebb" fill-opacity="1.0" stroke="#000000" stroke-width="0.0" stroke-opacity="1.0" stroke-linecap="round" stroke-linejoin="round"  filling="0" d="M231.6803 337.6825 C231.7830 338.6750 231.9622 339.7800 231.7402 340.7625 C231.0862 343.6575 229.2030 346.2975 227.9740 348.9750 C226.2485 352.7350 224.7238 356.9225 223.5482 360.8850 C219.7590 373.6675 219.6570 386.2700 220.0708 399.4550 C218.9917 397.1775 218.9332 394.2775 218.8013 391.7900 C218.1373 379.2625 220.6192 365.8400 224.9555 354.0750 C227.0152 348.4850 230.2487 343.5050 231.6803 337.6825 Z"></path>
</svg>