<svg xmlns="http://www.w3.org/2000/svg" viewBox="0 0 512 512" height="512.0px" width="512.0px">
<path id="" fill="#60c13d" fill-opacity="1.0" stroke="#000000" stroke-width="0.0" stroke-opacity="1.0" stroke-linecap="round" stroke-linejoin="round"  filling="0" d="M176.3795 53.1125 C186.5815 52.9408 196.5522 53.2785 206.6355 55.0143 C230.1695 59.0655 252.3225 70.8802 270.0475 86.6438 C278.4000 94.0725 285.3975 102.4583 291.5075 111.7872 C305.6725 133.4252 311.7450 154.8750 313.1550 180.6192 C313.3075 183.4145 313.1400 186.2720 313.0450 189.0685 C312.0950 217.4590 300.0925 250.1400 281.0375 271.4100 C261.4350 293.2900 237.2767 308.2100 208.3858 314.1025 C202.4985 315.3025 196.6935 316.2375 190.6880 316.5700 C189.9892 316.6125 189.2900 316.6475 188.5905 316.6725 C159.3190 317.8850 130.5135 309.0475 106.9580 291.6275 C103.9985 289.4175 100.9717 287.2175 98.2675 284.6950 C78.8232 266.5575 65.5468 246.4515 58.5462 220.7040 C55.9085 211.2890 54.3873 201.5965 54.0132 191.8260 C53.8055 185.2928 53.6805 178.5000 54.1678 171.9860 C55.8593 151.2077 62.5143 131.1393 73.5730 113.4670 C77.3587 107.3845 81.4717 101.3545 86.4153 96.1405 C92.1675 90.0738 98.2730 84.2215 104.9730 79.2063 C121.9705 66.4560 141.8103 58.0245 162.7865 54.6360 C167.3305 53.8952 171.7713 53.2388 176.3795 53.1125 Z"></path>
<path id="" fill="#000000" fill-opacity="1.0" stroke="#000000" stroke-width="0.0" stroke-opacity="1.0" stroke-linecap="round" stroke-linejoin="round"  filling="0" d="M172.5000 51.1053 C184.1073 50.7745 195.7705 50.8635 207.2815 52.5338 C229.4840 55.9210 250.3575 65.2513 267.6875 79.5358 C270.3100 81.6803 272.6950 84.2387 275.0950 86.6292 C277.5925 89.1192 280.1800 91.5935 282.4725 94.2762 C298.7000 113.2483 310.9975 139.7462 313.4000 164.7325 C314.0775 171.7812 314.7050 178.8000 314.6275 185.8870 C314.4300 218.9930 302.6950 250.9950 281.4450 276.3800 C278.5600 279.8475 275.4175 282.7250 272.0525 285.7050 C251.1550 304.2150 221.0033 316.7425 193.2385 319.3200 C190.4545 319.6175 187.6658 319.8700 184.8737 320.0800 C177.6248 320.6000 170.9105 320.2600 163.6927 319.7325 C136.4763 317.7375 113.9400 309.7900 93.2087 291.5650 C69.7970 270.9850 54.2800 238.8875 52.6230 207.7762 C52.2227 200.2583 52.3620 192.6595 52.3375 185.1297 C52.3090 176.3710 52.2275 167.6573 53.1765 158.9337 C55.6328 136.5785 64.3138 115.3613 78.2322 97.6957 C80.0553 95.3855 82.1280 93.2493 84.0895 91.0555 C100.7015 72.4790 124.4390 59.1237 148.7133 53.8425 C156.5080 52.1468 164.5542 51.5470 172.5000 51.1053 Z M87.9187 102.2928 L86.8000 104.2773 C86.7540 104.3463 86.7087 104.4160 86.6615 104.4845 C85.2533 106.5287 82.8978 107.6520 81.3975 109.6187 C80.0833 111.3420 79.8333 113.5497 78.8578 115.4388 C77.8717 117.3480 76.4547 119.0872 75.3177 120.9147 C74.2255 122.6700 73.3018 124.6230 72.4608 126.5080 C71.4905 128.6825 71.4473 131.1093 70.5690 133.2710 C69.2650 136.4805 67.6175 138.4297 66.5222 142.1497 C65.9857 143.9725 66.2858 146.9373 65.1880 148.4422 C63.3740 153.2470 63.2660 158.8635 62.7600 163.9492 C62.5655 165.9043 62.1777 167.8392 62.0148 169.7977 C61.7560 172.9052 61.3338 194.6463 62.2943 196.8423 C62.3703 197.0165 62.4688 197.1808 62.5403 197.3570 C63.1340 198.8185 61.9265 203.0352 61.9092 205.0188 C61.8650 210.0668 63.7250 215.2290 63.4375 220.2677 C63.6510 224.2130 65.0178 228.0080 65.6935 231.8707 C67.0558 231.8517 69.7820 231.5080 70.8665 232.4300 C70.9967 235.3862 69.4520 238.1763 70.2290 241.1980 C70.9723 244.0880 75.3878 250.3575 77.0490 253.3975 C78.9512 256.8800 80.2470 260.7500 82.6970 263.9100 C84.5695 266.3225 87.0790 268.2650 89.1625 270.5000 C93.1452 274.7725 96.7550 279.4300 101.0910 283.3675 C104.9812 286.9025 109.8863 290.5200 114.3853 293.2475 C116.6963 294.6500 119.3228 295.3450 121.7298 296.5425 C126.6935 299.0100 137.2753 306.0825 142.5462 305.8275 C143.8520 305.7650 147.8557 303.5800 148.3723 304.1000 C149.8853 305.6275 148.9245 307.0500 151.4190 308.0750 C154.8333 309.0575 158.3452 308.9625 161.8578 309.2125 C164.4440 309.3975 167.0140 309.8025 169.6020 309.9625 C176.5043 310.3900 185.0762 310.2500 192.0007 309.9275 C193.8175 309.3750 195.8008 309.1775 197.6667 308.7850 C198.5835 307.5325 199.1695 306.2425 200.5043 305.3500 C201.3700 304.7700 202.2368 304.4700 203.2715 304.7350 C204.6447 305.0875 205.1600 305.6300 205.8517 306.8475 C208.5895 306.4150 210.7753 305.9650 213.4955 306.8025 C215.1480 306.2350 216.9227 305.9150 218.6017 305.3900 C222.0983 304.2975 225.6220 302.9200 228.9883 301.4725 C232.4860 299.9650 236.3087 298.0750 239.5230 296.0425 C241.0400 295.0850 242.4355 293.9300 243.9812 293.0175 C246.0607 291.7900 248.3472 290.9100 250.4350 289.6875 C257.4400 285.5925 267.3725 277.7525 272.8000 271.8275 C277.9900 266.1600 282.1275 259.4100 286.9325 253.4200 C287.5825 251.4150 287.9325 249.4340 288.7825 247.4763 C290.5500 243.4115 293.3425 239.6455 295.4125 235.7000 C296.3250 233.1240 297.3975 230.6030 298.2475 228.0067 C300.8900 219.9312 304.5025 205.3907 304.2600 197.1305 C303.7075 189.0070 304.2075 180.8763 303.9450 172.7505 C303.8600 170.1450 303.4250 167.5892 303.2575 164.9953 C303.0850 162.3703 303.3150 159.5920 302.7900 157.0095 C302.5675 155.9140 301.8925 154.7495 301.3900 153.7507 C300.1375 151.2587 299.8175 148.4438 299.0200 145.7863 C297.6125 141.0968 295.6200 136.7200 294.8675 131.8265 L294.8300 131.5665 C290.2050 125.3750 287.1850 117.2592 282.8350 110.7397 C279.3075 105.4528 274.5875 102.0480 271.2200 97.2657 C271.1600 97.1823 271.1025 97.0977 271.0450 97.0137 C270.0500 95.7275 268.9125 94.5577 267.9125 93.2710 C266.7450 92.2227 265.4325 91.1840 264.4450 89.9648 C261.0400 87.7980 259.2525 85.4453 256.2975 82.9758 C253.5575 80.6862 250.2700 78.7393 247.2567 76.8248 C243.9040 74.6947 239.9662 72.9553 236.4113 71.1270 C234.4835 70.1355 232.0795 69.5045 230.5412 67.9337 C224.9277 66.1233 218.0977 64.3700 212.2612 63.6375 C209.1122 63.0652 205.9380 62.9435 202.7580 62.6455 C197.7402 62.1750 191.8203 61.4077 186.8350 61.5348 C180.9408 61.6850 175.0655 62.5295 169.1947 62.9243 C164.8667 63.2152 160.5695 63.5015 156.2448 63.8582 C154.4370 64.0072 152.5910 64.0092 150.7975 64.2783 C147.1165 64.8305 143.5927 66.2173 139.8412 66.7385 C135.5605 67.9235 131.8748 69.6540 127.8402 71.4593 C125.9068 72.3242 123.8798 73.0247 122.0533 74.1090 C119.7535 75.4745 117.7063 77.2175 115.4503 78.6447 C113.2040 80.0658 110.7663 81.1933 108.5760 82.6950 C107.5423 83.6933 106.3325 84.4392 105.2452 85.3725 C100.5598 89.3955 90.9498 97.3987 87.9187 102.2928 Z"></path>
<path id="" fill="#5fc03c" fill-opacity="1.0" stroke="#000000" stroke-width="0.0" stroke-opacity="1.0" stroke-linecap="round" stroke-linejoin="round"  filling="0" d="M65.6935 231.8707 C67.0558 231.8517 69.7820 231.5080 70.8665 232.4300 C70.9967 235.3862 69.4520 238.1763 70.2290 241.1980 C70.9723 244.0880 75.3878 250.3575 77.0490 253.3975 C78.9512 256.8800 80.2470 260.7500 82.6970 263.9100 C84.5695 266.3225 87.0790 268.2650 89.1625 270.5000 C93.1452 274.7725 96.7550 279.4300 101.0910 283.3675 C104.9812 286.9025 109.8863 290.5200 114.3853 293.2475 C116.6963 294.6500 119.3228 295.3450 121.7298 296.5425 C126.6935 299.0100 137.2753 306.0825 142.5462 305.8275 C143.8520 305.7650 147.8557 303.5800 148.3723 304.1000 C149.8853 305.6275 148.9245 307.0500 151.4190 308.0750 C151.3652 308.6300 151.3017 309.1175 151.3922 309.6700 C139.1945 307.8350 127.4238 303.8325 116.6375 297.8475 C91.9973 284.0525 73.3255 258.8925 65.6935 231.8707 Z"></path>
<path id="" fill="#5fc03c" fill-opacity="1.0" stroke="#000000" stroke-width="0.0" stroke-opacity="1.0" stroke-linecap="round" stroke-linejoin="round"  filling="0" d="M145.0855 63.7137 C164.9758 57.6877 194.8325 58.0655 215.1925 62.3910 C214.0820 62.5990 212.9960 62.6945 212.2612 63.6375 C209.1122 63.0652 205.9380 62.9435 202.7580 62.6455 C197.7402 62.1750 191.8203 61.4077 186.8350 61.5348 C180.9408 61.6850 175.0655 62.5295 169.1947 62.9243 C164.8667 63.2152 160.5695 63.5015 156.2448 63.8582 C154.4370 64.0072 152.5910 64.0092 150.7975 64.2783 C147.1165 64.8305 143.5927 66.2173 139.8412 66.7385 C135.5605 67.9235 131.8748 69.6540 127.8402 71.4593 C125.9068 72.3242 123.8798 73.0247 122.0533 74.1090 C119.7535 75.4745 117.7063 77.2175 115.4503 78.6447 C113.2040 80.0658 110.7663 81.1933 108.5760 82.6950 C107.5423 83.6933 106.3325 84.4392 105.2452 85.3725 C100.5598 89.3955 90.9498 97.3987 87.9187 102.2928 C87.5080 101.9583 87.0715 101.7495 86.6042 101.5063 C88.8633 99.3855 90.6550 96.5580 92.8337 94.2950 C97.8027 89.1338 103.2255 84.8965 108.9572 80.6210 C110.8010 78.7258 113.6645 77.2647 115.9460 75.9467 C125.1647 70.6220 134.6605 66.0948 145.0855 63.7137 Z"></path>
<path id="" fill="#63cc37" fill-opacity="1.0" stroke="#000000" stroke-width="0.0" stroke-opacity="1.0" stroke-linecap="round" stroke-linejoin="round"  filling="0" d="M271.8950 95.7260 C274.3000 98.5632 276.9800 101.1960 279.2950 104.1038 C284.8825 111.1245 292.2500 123.0415 295.0350 131.5845 C296.8950 135.3330 298.3075 139.4060 299.5900 143.3858 C305.3825 161.3670 306.6150 180.1455 304.6725 198.8687 L304.4675 198.7335 C304.4650 198.6452 304.4650 198.5573 304.4600 198.4693 C304.4325 198.0115 304.3450 197.5802 304.2600 197.1305 C303.7075 189.0070 304.2075 180.8763 303.9450 172.7505 C303.8600 170.1450 303.4250 167.5892 303.2575 164.9953 C303.0850 162.3703 303.3150 159.5920 302.7900 157.0095 C302.5675 155.9140 301.8925 154.7495 301.3900 153.7507 C300.1375 151.2587 299.8175 148.4438 299.0200 145.7863 C297.6125 141.0968 295.6200 136.7200 294.8675 131.8265 L294.8300 131.5665 C290.2050 125.3750 287.1850 117.2592 282.8350 110.7397 C279.3075 105.4528 274.5875 102.0480 271.2200 97.2657 C271.1600 97.1823 271.1025 97.0977 271.0450 97.0137 C271.2025 96.2855 271.3350 96.2385 271.8950 95.7260 Z"></path>
<path id="" fill="#5fbf3c" fill-opacity="1.0" stroke="#000000" stroke-width="0.0" stroke-opacity="1.0" stroke-linecap="round" stroke-linejoin="round"  filling="0" d="M215.1925 62.3910 C220.4973 63.5397 225.7968 65.6803 230.8913 67.5497 C243.9085 72.9713 253.9175 78.6060 264.3475 88.2867 C265.4650 89.1755 267.0200 90.1793 267.8400 91.3613 C267.9925 92.0847 268.2300 92.5835 267.9125 93.2710 C266.7450 92.2227 265.4325 91.1840 264.4450 89.9648 C261.0400 87.7980 259.2525 85.4453 256.2975 82.9758 C253.5575 80.6862 250.2700 78.7393 247.2567 76.8248 C243.9040 74.6947 239.9662 72.9553 236.4113 71.1270 C234.4835 70.1355 232.0795 69.5045 230.5412 67.9337 C224.9277 66.1233 218.0977 64.3700 212.2612 63.6375 C212.9960 62.6945 214.0820 62.5990 215.1925 62.3910 Z"></path>
<path id="" fill="#5fc03c" fill-opacity="1.0" stroke="#000000" stroke-width="0.0" stroke-opacity="1.0" stroke-linecap="round" stroke-linejoin="round"  filling="0" d="M86.6042 101.5063 C87.0715 101.7495 87.5080 101.9583 87.9187 102.2928 L86.8000 104.2773 C86.7540 104.3463 86.7087 104.4160 86.6615 104.4845 C85.2533 106.5287 82.8978 107.6520 81.3975 109.6187 C80.0833 111.3420 79.8333 113.5497 78.8578 115.4388 C77.8717 117.3480 76.4547 119.0872 75.3177 120.9147 C74.2255 122.6700 73.3018 124.6230 72.4608 126.5080 C71.4905 128.6825 71.4473 131.1093 70.5690 133.2710 C69.2650 136.4805 67.6175 138.4297 66.5222 142.1497 C65.9857 143.9725 66.2858 146.9373 65.1880 148.4422 L65.0067 148.1042 C64.6325 148.0372 64.2695 148.0100 63.8905 147.9812 C64.9983 144.7425 65.5440 141.2632 66.6245 137.9803 C70.7850 125.0480 77.3268 113.0080 85.9130 102.4807 L86.6042 101.5063 Z"></path>
<path id="" fill="#60c13d" fill-opacity="1.0" stroke="#000000" stroke-width="0.0" stroke-opacity="1.0" stroke-linecap="round" stroke-linejoin="round"  filling="0" d="M86.6042 101.5063 C87.0715 101.7495 87.5080 101.9583 87.9187 102.2928 L86.8000 104.2773 C86.0443 103.7260 86.0642 103.3278 85.9130 102.4807 L86.6042 101.5063 Z"></path>
<path id="" fill="#5fc03c" fill-opacity="1.0" stroke="#000000" stroke-width="0.0" stroke-opacity="1.0" stroke-linecap="round" stroke-linejoin="round"  filling="0" d="M63.8905 147.9812 C64.2695 148.0100 64.6325 148.0372 65.0067 148.1042 L65.1880 148.4422 C63.3740 153.2470 63.2660 158.8635 62.7600 163.9492 C62.5655 165.9043 62.1777 167.8392 62.0148 169.7977 C61.7560 172.9052 61.3338 194.6463 62.2943 196.8423 C62.3703 197.0165 62.4688 197.1808 62.5403 197.3570 C63.1340 198.8185 61.9265 203.0352 61.9092 205.0188 C61.8650 210.0668 63.7250 215.2290 63.4375 220.2677 L63.1120 220.3698 C61.2970 212.9160 61.5853 205.4200 61.3813 197.8197 C61.0732 186.3470 60.6000 173.1570 61.5612 161.7583 C61.9487 157.1633 62.7223 152.4442 63.8905 147.9812 Z"></path>
<path id="" fill="rgb(72,196,28)" fill-opacity="1.0" stroke="#000000" stroke-width="0.0" stroke-opacity="1.0" stroke-linecap="round" stroke-linejoin="round"  filling="0" d="M151.4190 308.0750 C154.8333 309.0575 158.3452 308.9625 161.8578 309.2125 C164.4440 309.3975 167.0140 309.8025 169.6020 309.9625 C176.5043 310.3900 185.0762 310.2500 192.0007 309.9275 L192.0880 310.4875 C192.5163 310.6325 192.8067 310.6500 193.2570 310.6225 C180.7725 312.6175 163.8675 311.7625 151.3922 309.6700 C151.3017 309.1175 151.3652 308.6300 151.4190 308.0750 Z"></path>
<path id="" fill="rgb(79,211,18)" fill-opacity="1.0" stroke="#000000" stroke-width="0.0" stroke-opacity="1.0" stroke-linecap="round" stroke-linejoin="round"  filling="0" d="M197.6667 308.7850 C198.5835 307.5325 199.1695 306.2425 200.5043 305.3500 C201.3700 304.7700 202.2368 304.4700 203.2715 304.7350 C204.6447 305.0875 205.1600 305.6300 205.8517 306.8475 C208.5895 306.4150 210.7753 305.9650 213.4955 306.8025 C211.0470 307.6575 208.3605 308.1450 205.8240 308.6950 C201.6535 309.4525 197.4630 310.0950 193.2570 310.6225 C192.8067 310.6500 192.5163 310.6325 192.0880 310.4875 L192.0007 309.9275 C193.8175 309.3750 195.8008 309.1775 197.6667 308.7850 Z"></path>
<path id="" fill="rgb(72,196,28)" fill-opacity="1.0" stroke="#000000" stroke-width="0.0" stroke-opacity="1.0" stroke-linecap="round" stroke-linejoin="round"  filling="0" d="M295.4125 235.7000 C295.2675 238.5388 289.3175 251.0325 287.2125 253.1725 C287.1250 253.2600 287.0250 253.3375 286.9325 253.4200 C287.5825 251.4150 287.9325 249.4340 288.7825 247.4763 C290.5500 243.4115 293.3425 239.6455 295.4125 235.7000 Z"></path>
<path id="" fill="rgb(72,196,28)" fill-opacity="1.0" stroke="#000000" stroke-width="0.0" stroke-opacity="1.0" stroke-linecap="round" stroke-linejoin="round"  filling="0" d="M267.8400 91.3613 C269.3000 92.7063 270.5825 94.2380 271.8950 95.7260 C271.3350 96.2385 271.2025 96.2855 271.0450 97.0137 C270.0500 95.7275 268.9125 94.5577 267.9125 93.2710 C268.2300 92.5835 267.9925 92.0847 267.8400 91.3613 Z"></path>
<path id="" fill="#63cc37" fill-opacity="1.0" stroke="#000000" stroke-width="0.0" stroke-opacity="1.0" stroke-linecap="round" stroke-linejoin="round"  filling="0" d="M245.0080 291.6200 C246.7495 291.1050 248.7225 290.8000 250.3550 290.0175 C262.8600 284.0250 280.2975 265.1525 286.9975 252.9875 C290.5125 246.6040 294.0425 239.6555 296.5575 232.8183 C305.7650 207.7910 308.1850 174.3740 300.5350 148.6373 C296.1825 133.9883 289.9750 119.9665 281.1200 107.4803 C280.3625 106.4117 277.4125 103.1335 278.1250 102.0205 C280.0550 99.0030 307.7100 92.4780 312.5100 91.6875 C316.7500 90.9900 321.0900 90.7223 325.3725 90.4453 C355.3550 88.5045 386.8575 98.3660 409.6250 118.1998 C432.7000 137.9653 446.8375 166.1935 448.8425 196.5090 C449.1975 201.9438 449.0150 207.4577 449.0200 212.9040 C449.0275 219.4555 449.3075 226.1425 448.6800 232.6662 C446.4075 256.2250 436.5450 279.8900 420.7750 297.6400 C414.7775 304.3900 407.9175 310.9200 400.5850 316.2025 C384.4475 327.8225 363.7500 335.7050 343.8350 336.8275 C311.3800 338.6575 283.9375 329.8200 259.6750 308.0125 C256.7850 305.4150 254.4875 301.9300 251.4400 299.5625 C250.7450 299.6825 250.1350 299.8825 249.4815 299.5175 C249.1875 299.1250 249.0567 298.8875 248.9580 298.3950 C248.7518 297.3625 248.5535 296.6900 248.0040 295.7775 C247.9498 295.6875 247.8930 295.6000 247.8372 295.5100 C246.8650 295.4750 245.8890 295.4450 244.9185 295.3750 C244.0148 295.3100 243.7175 295.1075 243.1270 294.4350 C242.9772 293.7425 242.9633 293.3975 243.1760 292.7200 C243.6777 292.0575 244.2610 291.8950 245.0080 291.6200 Z"></path>
<path id="" fill="rgb(0,0,0)" fill-opacity="1.0" stroke="#000000" stroke-width="0.0" stroke-opacity="1.0" stroke-linecap="round" stroke-linejoin="round"  filling="0" d="M247.8372 295.5100 C246.8650 295.4750 245.8890 295.4450 244.9185 295.3750 C244.0148 295.3100 243.7175 295.1075 243.1270 294.4350 C242.9772 293.7425 242.9633 293.3975 243.1760 292.7200 C243.6777 292.0575 244.2610 291.8950 245.0080 291.6200 C247.7798 293.3275 249.5545 296.9725 251.4400 299.5625 C250.7450 299.6825 250.1350 299.8825 249.4815 299.5175 C249.1875 299.1250 249.0567 298.8875 248.9580 298.3950 C248.7518 297.3625 248.5535 296.6900 248.0040 295.7775 C247.9498 295.6875 247.8930 295.6000 247.8372 295.5100 Z"></path>
<path id="" fill="#000000" fill-opacity="1.0" stroke="#000000" stroke-width="0.0" stroke-opacity="1.0" stroke-linecap="round" stroke-linejoin="round"  filling="0" d="M266.5225 89.9720 C270.1350 90.9970 271.1875 96.4655 274.8775 97.6485 C275.4975 97.8473 276.6300 97.5652 277.2825 97.4415 C278.1900 97.2685 279.3525 97.0627 280.1475 96.6040 C280.5950 96.3452 280.8000 96.1010 281.0825 95.6815 C281.1950 94.9730 281.0725 94.4727 280.6650 93.8857 C279.6675 92.4482 277.6800 91.1198 277.9000 89.2502 C280.2225 86.0000 298.7625 82.3770 303.6325 81.5650 C312.6300 80.0648 321.2800 79.9945 330.3725 79.9843 C335.9500 79.9780 341.5550 79.8395 347.1175 80.2742 C370.4450 82.0977 392.3350 90.7798 411.2750 104.3945 C413.2350 105.8025 414.9225 107.5995 416.7700 109.1503 C439.2850 128.0195 454.0350 154.5412 458.1900 183.6225 C459.7825 194.1700 459.6700 204.7832 459.6400 215.4195 C459.6150 223.7555 459.7525 232.1165 458.9675 240.4235 C456.8075 262.1175 448.9300 282.8525 436.1400 300.5075 C416.7375 327.2925 387.2675 345.0200 354.5125 349.6075 C347.3025 350.7125 340.0075 351.1750 332.7150 350.9950 C329.5350 350.8925 326.4325 350.2850 323.2800 349.9275 C320.4825 349.6100 317.6625 349.4850 314.8800 349.0400 C296.4375 346.1000 277.0500 339.1600 261.9575 327.9650 C257.4775 324.6425 240.8630 310.6975 239.9747 306.1075 C239.8600 305.5125 239.9875 305.3800 240.2672 304.8775 C241.8250 303.8575 245.1525 303.8000 245.7112 301.7500 C245.8835 301.1175 245.3237 300.0775 245.0672 299.4925 L244.6992 298.9925 C243.6803 298.0375 242.7225 297.0175 241.7550 296.0100 C240.2910 296.6225 236.2705 299.1875 235.2380 299.2600 C233.3158 298.6675 231.8842 297.3150 230.6118 295.8050 C225.2157 289.4050 222.0370 279.8125 218.8533 272.1625 C218.0550 270.2425 216.8005 268.1325 216.2550 266.1525 C215.9563 265.0675 216.2855 263.8800 215.9090 262.8075 C215.2932 261.0575 214.4205 259.3725 213.7390 257.6425 C212.6850 254.9675 211.8185 251.7625 211.2567 248.9393 C210.8815 247.0535 211.1095 245.0242 210.8692 243.1110 C210.4397 239.6935 209.3510 236.3687 209.0728 232.9258 C208.8305 229.9312 208.9597 226.8542 208.9640 223.8492 L208.9880 208.8050 L209.0185 195.2480 C209.0260 192.4012 208.9030 189.4530 209.1860 186.6203 C209.4698 183.7787 210.4390 180.9317 210.9277 178.1033 C211.9500 172.1862 213.1028 164.7558 214.8407 159.0965 C215.3887 157.3125 216.3005 155.6028 216.9885 153.8645 C218.0177 151.2637 218.8412 148.5785 220.0013 146.0298 C221.9337 141.7832 224.3480 137.6860 226.4957 133.5408 C227.8320 130.9615 228.7672 128.0245 230.3053 125.5872 C231.3530 123.9265 232.8570 122.4698 234.1263 120.9693 C237.6535 116.7993 241.0527 112.8125 244.9530 108.9710 C245.7910 108.1455 246.4975 107.1803 247.4035 106.4337 C250.7325 102.8223 259.4375 95.1810 263.9875 93.8240 C263.8700 92.4662 263.5700 91.2487 264.4075 90.0827 C265.1350 89.7090 265.7500 89.8655 266.5225 89.9720 Z M248.8392 118.8030 C246.1198 123.2035 242.9583 126.9050 239.8898 131.0385 C237.7547 133.9147 235.7415 137.1333 233.7915 140.1580 C232.0720 142.8250 231.4848 145.9545 230.0887 148.7565 C228.9738 150.9948 227.5655 153.0805 226.5258 155.3587 C223.5615 161.8548 220.3743 173.7442 219.7218 180.8943 C219.5445 182.8365 219.6662 184.7872 219.6073 186.7330 C219.5540 188.4955 219.2162 190.2292 219.0522 191.9800 C218.9620 192.9413 219.0558 193.9265 218.9473 194.8793 C219.2522 196.5635 219.6698 198.1115 219.8152 199.8305 C220.1735 204.0625 220.6335 222.4025 219.2325 225.5327 C218.9660 236.2780 220.5245 248.0477 224.1362 258.1775 C225.3425 261.5600 227.0388 264.6725 228.3755 267.9850 C229.1150 269.8175 229.6425 271.7325 230.3652 273.5725 C231.2070 275.7150 232.3033 277.8150 233.3123 279.8850 C234.5960 282.5200 236.0287 284.9900 237.5430 287.4975 C238.4155 288.9425 239.7753 290.6850 240.3183 292.2675 C240.5018 292.4425 240.6535 292.6025 240.8743 292.7400 C242.1265 293.5200 244.8293 292.1075 246.1723 291.6600 C247.5047 293.0200 248.5862 294.7125 249.7490 296.2250 C251.2850 298.2175 252.9250 300.1300 254.6625 301.9525 C257.9575 305.4325 261.3700 309.0875 265.0575 312.1575 C274.8400 320.2975 290.0225 328.7000 302.3475 331.9900 C307.0825 333.2550 311.9400 334.5750 316.7825 335.3425 C338.7075 338.8025 361.1650 335.7725 381.3900 326.6250 C385.9925 324.4975 390.3425 321.8225 394.7250 319.2800 C394.9125 318.1950 394.9425 317.0625 395.0275 315.9650 C396.7175 315.9450 398.4100 315.8925 400.1000 315.8100 C404.2875 313.0400 413.8075 305.1550 416.7175 301.3100 C418.9400 298.3750 420.3650 295.0450 422.2600 291.9225 C424.4725 288.2750 428.1250 283.0050 431.0300 279.9450 C432.1725 278.7425 433.5225 277.7725 434.7200 276.6250 C434.8325 274.4750 434.9050 272.3225 434.9400 270.1700 L437.5100 269.6200 C437.5975 269.5350 437.6875 269.4525 437.7725 269.3650 C440.1375 266.9450 441.2600 262.5225 442.3000 259.3750 C446.1450 247.4803 448.3875 235.1272 448.9750 222.6405 C449.2900 215.3465 448.9725 207.9093 448.9800 200.6028 C448.5200 198.6640 448.4825 196.4408 448.2350 194.4442 C447.5325 188.7527 446.9750 182.9200 445.6600 177.3325 C443.7050 169.0260 431.5050 139.7635 424.5800 135.5310 L422.9000 134.4917 C421.6325 132.1797 420.2800 129.9305 418.5950 127.8952 C414.5300 122.9857 410.0550 118.7422 404.7300 115.1988 C402.9875 114.0407 401.0625 113.1137 399.3800 111.8817 C397.4975 110.5045 396.1750 108.5963 393.9750 107.6237 C391.5425 106.5478 387.8875 106.1220 385.2325 105.8680 C385.1600 104.9993 385.1725 104.0262 384.6550 103.2913 C383.0725 101.0453 379.0425 99.8903 376.5450 98.9628 C365.1875 94.7450 355.7300 92.6973 343.6825 91.1432 C343.0575 91.9615 342.5675 92.6690 341.5375 92.9368 C340.6575 92.7060 340.1850 92.1075 339.5775 91.4782 C336.4125 90.8975 333.2025 90.9740 329.9975 90.9688 C326.3950 90.9628 322.7775 90.9115 319.1900 91.2548 C311.8325 91.9585 299.3925 94.6160 292.4100 96.9985 C290.3675 97.6953 288.3950 98.6040 286.3825 99.3790 C284.4350 100.1277 279.2325 102.2580 277.3300 102.0135 C276.4150 101.8958 275.4025 101.3355 274.5625 100.9583 C273.2025 101.2402 271.7875 101.4603 270.5200 102.0547 C268.6525 102.9327 259.4775 109.1755 257.9200 110.6380 C254.5725 113.7812 253.0900 116.3863 248.8392 118.8030 Z"></path>
<path id="" fill="#62cb36" fill-opacity="1.0" stroke="#000000" stroke-width="0.0" stroke-opacity="1.0" stroke-linecap="round" stroke-linejoin="round"  filling="0" d="M448.9800 200.6028 C449.1525 199.3333 449.0350 198.0533 449.2250 196.7668 C449.6150 197.1180 449.7025 197.7227 449.8700 198.2185 C450.0575 198.0380 449.9875 196.7740 450.1200 196.3675 L450.9525 196.4430 C450.9975 204.9990 450.9875 213.5550 450.9250 222.1107 C450.9325 227.4787 451.2725 232.9738 450.8175 238.3230 C448.4225 264.2625 437.3050 288.6250 419.2800 307.4325 C398.1125 329.1725 370.3725 341.8075 339.9475 342.1450 C308.3700 342.4975 278.7700 333.7625 255.8100 311.2325 C253.6575 309.1200 251.4250 307.0125 249.4473 304.7350 C247.9750 303.0375 246.6480 301.0750 245.0672 299.4925 L244.6992 298.9925 C243.5500 296.7050 241.0125 294.7175 240.3183 292.2675 C240.5018 292.4425 240.6535 292.6025 240.8743 292.7400 C242.1265 293.5200 244.8293 292.1075 246.1723 291.6600 C247.5047 293.0200 248.5862 294.7125 249.7490 296.2250 C251.2850 298.2175 252.9250 300.1300 254.6625 301.9525 C257.9575 305.4325 261.3700 309.0875 265.0575 312.1575 C274.8400 320.2975 290.0225 328.7000 302.3475 331.9900 C307.0825 333.2550 311.9400 334.5750 316.7825 335.3425 C338.7075 338.8025 361.1650 335.7725 381.3900 326.6250 C385.9925 324.4975 390.3425 321.8225 394.7250 319.2800 C394.9125 318.1950 394.9425 317.0625 395.0275 315.9650 C396.7175 315.9450 398.4100 315.8925 400.1000 315.8100 C404.2875 313.0400 413.8075 305.1550 416.7175 301.3100 C418.9400 298.3750 420.3650 295.0450 422.2600 291.9225 C424.4725 288.2750 428.1250 283.0050 431.0300 279.9450 C432.1725 278.7425 433.5225 277.7725 434.7200 276.6250 C434.8325 274.4750 434.9050 272.3225 434.9400 270.1700 L437.5100 269.6200 C437.5975 269.5350 437.6875 269.4525 437.7725 269.3650 C440.1375 266.9450 441.2600 262.5225 442.3000 259.3750 C446.1450 247.4803 448.3875 235.1272 448.9750 222.6405 C449.2900 215.3465 448.9725 207.9093 448.9800 200.6028 Z"></path>
<path id="" fill="#62cb36" fill-opacity="1.0" stroke="#000000" stroke-width="0.0" stroke-opacity="1.0" stroke-linecap="round" stroke-linejoin="round"  filling="0" d="M248.8392 118.8030 C250.4050 116.5983 252.3725 114.7997 254.3175 112.9373 C256.2775 111.0623 258.2075 109.1815 260.3825 107.5558 C272.9075 98.1938 289.8125 92.3545 305.1450 89.7502 C313.9325 88.2572 322.6475 88.3303 331.5250 88.3895 C338.5500 88.4360 345.5875 88.3855 352.5775 89.1785 C371.1175 91.2820 389.1450 98.9525 404.2575 109.7263 C421.1725 121.7848 435.3475 139.5898 443.0350 158.9190 C446.3100 167.1597 448.3450 175.6280 449.7850 184.3553 C450.4475 188.3698 450.7625 192.3813 450.9525 196.4430 L450.1200 196.3675 C449.9875 196.7740 450.0575 198.0380 449.8700 198.2185 C449.7025 197.7227 449.6150 197.1180 449.2250 196.7668 C449.0350 198.0533 449.1525 199.3333 448.9800 200.6028 C448.5200 198.6640 448.4825 196.4408 448.2350 194.4442 C447.5325 188.7527 446.9750 182.9200 445.6600 177.3325 C443.7050 169.0260 431.5050 139.7635 424.5800 135.5310 L422.9000 134.4917 C421.6325 132.1797 420.2800 129.9305 418.5950 127.8952 C414.5300 122.9857 410.0550 118.7422 404.7300 115.1988 C402.9875 114.0407 401.0625 113.1137 399.3800 111.8817 C397.4975 110.5045 396.1750 108.5963 393.9750 107.6237 C391.5425 106.5478 387.8875 106.1220 385.2325 105.8680 C385.1600 104.9993 385.1725 104.0262 384.6550 103.2913 C383.0725 101.0453 379.0425 99.8903 376.5450 98.9628 C365.1875 94.7450 355.7300 92.6973 343.6825 91.1432 C343.0575 91.9615 342.5675 92.6690 341.5375 92.9368 C340.6575 92.7060 340.1850 92.1075 339.5775 91.4782 C336.4125 90.8975 333.2025 90.9740 329.9975 90.9688 C326.3950 90.9628 322.7775 90.9115 319.1900 91.2548 C311.8325 91.9585 299.3925 94.6160 292.4100 96.9985 C290.3675 97.6953 288.3950 98.6040 286.3825 99.3790 C284.4350 100.1277 279.2325 102.2580 277.3300 102.0135 C276.4150 101.8958 275.4025 101.3355 274.5625 100.9583 C273.2025 101.2402 271.7875 101.4603 270.5200 102.0547 C268.6525 102.9327 259.4775 109.1755 257.9200 110.6380 C254.5725 113.7812 253.0900 116.3863 248.8392 118.8030 Z"></path>
<path id="" fill="rgb(89,209,40)" fill-opacity="1.0" stroke="#000000" stroke-width="0.0" stroke-opacity="1.0" stroke-linecap="round" stroke-linejoin="round"  filling="0" d="M218.9473 194.8793 C219.2522 196.5635 219.6698 198.1115 219.8152 199.8305 C220.1735 204.0625 220.6335 222.4025 219.2325 225.5327 C218.4657 223.1727 218.3418 197.5635 218.9473 194.8793 Z"></path>
<path id="" fill="#5fc03c" fill-opacity="1.0" stroke="#000000" stroke-width="0.0" stroke-opacity="1.0" stroke-linecap="round" stroke-linejoin="round"  filling="0" d="M263.9875 93.8240 C263.8700 92.4662 263.5700 91.2487 264.4075 90.0827 C265.1350 89.7090 265.7500 89.8655 266.5225 89.9720 C267.4125 90.6755 268.3075 91.3517 269.0925 92.1730 C264.5375 94.2552 259.9600 96.9810 255.8875 99.9147 C254.5300 100.8920 248.4563 106.3155 247.4035 106.4337 C250.7325 102.8223 259.4375 95.1810 263.9875 93.8240 Z"></path>
<path id="" fill="#6ee751" fill-opacity="1.0" stroke="#000000" stroke-width="0.0" stroke-opacity="1.0" stroke-linecap="round" stroke-linejoin="round"  filling="0" d="M177.8848 354.3950 C166.6068 347.1325 160.9620 342.6850 151.6215 333.0825 C144.6738 325.9400 135.5918 313.2400 131.3423 304.2700 C130.0995 301.6475 129.2440 298.7325 128.2507 296.0000 C124.9125 286.8200 122.4590 279.2400 121.3658 269.4300 C120.5770 262.3525 120.9283 255.0400 120.9382 247.9193 C120.9503 239.3030 120.7863 230.6595 120.9402 222.0462 C121.0270 217.1823 122.0360 212.4960 123.0432 207.7563 C124.6422 200.2318 126.9902 193.5312 130.1025 186.5100 C137.3392 170.1832 146.4815 158.4645 159.3415 146.1492 C163.4948 142.1720 168.1888 138.7410 172.9603 135.5508 C190.5788 123.7080 210.9778 116.6582 232.1487 115.0952 C236.8378 114.7390 241.5555 115.1215 246.2487 115.0912 C249.1028 115.0728 251.9875 114.2408 254.8125 114.3730 C258.2500 114.5338 261.7550 115.7852 265.1675 116.3160 C270.0325 117.0725 274.8875 117.8307 279.6525 119.0997 C286.9300 121.0952 293.9900 123.8158 300.7250 127.2207 C314.7000 134.1585 323.1925 140.5112 334.1625 151.4957 C336.3050 153.6405 338.5350 155.7490 340.5225 158.0365 C346.4675 164.8737 351.4375 172.7307 355.5250 180.7962 C357.8375 185.3622 360.0850 189.9300 361.8075 194.7583 C364.8725 203.3568 366.6500 213.9955 367.0350 223.1640 C367.3050 229.5770 367.0650 236.0605 367.0700 242.4835 L367.0850 258.0825 C367.0875 261.2825 367.2175 264.5500 366.9700 267.7400 C365.3100 289.1400 355.0725 311.0200 341.6700 327.5400 C339.7750 329.8750 337.5750 331.9450 335.5575 334.1700 C332.7750 337.2300 330.3550 340.3200 327.1950 343.0500 C325.7225 344.8350 323.6325 345.8825 322.2550 347.7575 C322.2275 347.7950 322.1950 347.8350 322.1650 347.8725 C322.0825 348.8450 322.1250 349.9475 321.5450 350.7650 C320.9450 350.9875 320.6500 350.9850 320.0650 350.6750 C319.5300 350.3925 319.0200 350.0125 318.5225 349.6700 C292.0250 369.1300 258.8600 377.2175 226.3800 372.1350 C218.0540 370.8400 209.2793 368.9500 201.3550 366.0575 C196.3893 364.2425 191.5745 361.8900 186.7312 359.7700 C183.4135 358.5975 180.9418 356.0350 177.8848 354.3950 Z"></path>
<path id="" fill="#000000" fill-opacity="1.0" stroke="#000000" stroke-width="0.0" stroke-opacity="1.0" stroke-linecap="round" stroke-linejoin="round"  filling="0" d="M318.5225 349.6700 C321.5500 347.6700 324.0900 344.9225 327.1950 343.0500 C325.7225 344.8350 323.6325 345.8825 322.2550 347.7575 C322.2275 347.7950 322.1950 347.8350 322.1650 347.8725 C322.0825 348.8450 322.1250 349.9475 321.5450 350.7650 C320.9450 350.9875 320.6500 350.9850 320.0650 350.6750 C319.5300 350.3925 319.0200 350.0125 318.5225 349.6700 Z"></path>
<path id="" fill="#000000" fill-opacity="1.0" stroke="#000000" stroke-width="0.0" stroke-opacity="1.0" stroke-linecap="round" stroke-linejoin="round"  filling="0" d="M326.0525 350.4425 C328.6625 350.8775 331.3625 350.5425 334.0000 350.8975 C335.0475 354.3500 334.5450 378.8400 334.5500 384.0000 L334.5625 407.9125 C334.5550 412.7325 334.6925 417.6150 334.3825 422.4250 C341.2675 422.7800 351.3825 421.3950 357.6575 423.4150 C358.5225 424.4600 359.2600 425.6925 359.1125 427.1000 C358.9325 428.7900 357.6950 429.7575 356.4825 430.7625 C353.4500 431.1425 350.2575 431.0075 347.2025 431.0125 L333.0475 431.0200 C327.7375 431.0200 322.4275 430.9450 317.1200 431.0125 C313.4775 431.0600 309.4875 431.4450 305.8825 431.0025 C304.6325 430.8500 303.3425 430.5200 302.3300 429.7350 C301.5725 429.1450 301.1225 428.3675 301.0650 427.4025 C300.9900 426.1125 301.7925 424.1025 302.7900 423.2750 C304.8925 421.5300 323.0425 422.5400 326.2800 423.0975 C325.8450 420.2100 326.0375 417.1300 326.0375 414.2075 L326.0525 399.8275 L326.0525 350.4425 Z"></path>
<path id="" fill="#000000" fill-opacity="1.0" stroke="#000000" stroke-width="0.0" stroke-opacity="1.0" stroke-linecap="round" stroke-linejoin="round"  filling="0" d="M177.8848 354.3950 C180.9418 356.0350 183.4135 358.5975 186.7312 359.7700 C186.5457 360.0175 186.3217 360.2425 186.1745 360.5150 C185.4570 361.8450 186.4850 388.9425 185.6407 393.8575 C192.2810 393.7100 201.9220 393.4675 208.3445 394.3800 C208.6693 394.6150 208.9928 394.8550 209.2985 395.1175 C210.1965 395.8850 210.9012 396.7675 210.9240 398.0000 C210.9543 399.6525 209.4010 400.9000 208.3350 401.9550 C198.6070 402.5075 188.6198 402.1175 178.8732 402.0925 C171.8825 402.0725 164.6508 402.5175 157.6873 402.0225 C156.4505 401.9350 154.8383 401.8850 153.8398 401.0925 C153.0130 400.4375 152.5655 399.4075 152.5018 398.3675 C152.4270 397.1500 152.9478 395.6925 153.8027 394.8100 C154.3760 394.2200 154.9720 394.0625 155.7695 393.9325 C158.5957 393.4725 161.7050 393.7650 164.5692 393.8200 L177.7758 394.0075 C177.0708 389.7550 177.5225 384.9325 177.5145 380.5975 C177.4980 371.9025 177.2085 363.0675 177.8848 354.3950 Z"></path>
<path id="" fill="#000000" fill-opacity="1.0" stroke="#000000" stroke-width="0.0" stroke-opacity="1.0" stroke-linecap="round" stroke-linejoin="round"  filling="0" d="M221.2312 452.3575 C228.3683 451.9275 235.6842 452.2000 242.8423 452.1900 C250.3525 452.1800 264.9850 451.4725 271.6950 453.1900 C272.2200 454.1175 272.8275 455.0850 272.9800 456.1575 C273.2150 457.7975 272.3075 458.8375 271.3425 460.0300 C269.8200 460.5125 268.3950 460.7100 266.8125 460.7875 C258.5875 461.3250 250.1325 460.9325 241.8780 460.9300 C234.7285 460.9275 227.2875 461.3850 220.1897 460.7100 C218.5488 460.5525 217.2198 460.2750 215.7428 459.4950 C215.2140 458.7075 214.8132 457.8525 214.3910 457.0050 C214.7332 455.9075 215.0810 454.7225 215.8645 453.8500 C217.2142 452.3500 219.3813 452.4700 221.2312 452.3575 Z"></path>
<path id="" fill="#000100" fill-opacity="1.0" stroke="#000000" stroke-width="0.0" stroke-opacity="1.0" stroke-linecap="round" stroke-linejoin="round"  filling="0" d="M242.9557 222.0755 C244.3802 221.9645 245.4895 222.3412 246.8248 222.7648 C247.8325 224.6895 248.3830 226.4380 248.6725 228.5807 C249.4245 234.1490 249.0267 240.1422 249.0273 245.7552 C249.0280 253.3450 249.2205 260.9975 248.8950 268.5800 C248.8177 270.3775 247.9195 277.2725 248.1385 278.3800 C248.2765 279.0775 248.4240 279.1700 248.9742 279.5275 C250.6925 279.3325 252.0050 276.9925 253.2175 275.8825 C256.7575 272.6450 260.4825 269.5950 264.0350 266.3775 C268.2225 262.5850 272.2750 258.6975 276.5400 254.9825 C277.8250 253.8650 279.2625 252.3200 280.7650 251.5425 C282.5375 250.6225 284.3800 251.1475 286.1775 251.6525 C286.9050 252.9900 287.5375 254.2550 288.0250 255.7000 C287.6150 256.6475 287.2250 257.6725 286.5400 258.4575 C285.1350 260.0725 283.1425 261.2400 281.5425 262.6675 C279.9200 264.1150 278.6100 265.9025 277.0375 267.4050 C275.4625 268.9125 273.6150 270.1150 272.0025 271.5800 C270.0600 273.3475 268.3650 275.3900 266.4575 277.2000 C264.5325 279.0250 262.3975 280.5700 260.4050 282.3100 C258.4175 284.0450 256.6825 286.0525 254.7050 287.8000 C252.6800 289.5900 250.3675 291.1500 248.2120 292.7900 C249.4778 302.2350 249.0055 311.8925 249.0072 321.4075 C249.0095 335.3300 249.3002 349.3175 248.9840 363.2325 C248.8817 367.7275 248.2190 372.1850 248.1037 376.6700 C247.9050 384.4175 248.0555 392.2075 248.0540 399.9600 L248.0375 453.1675 C245.1990 453.3425 242.3537 453.5975 239.5103 453.4150 C240.0148 450.9550 239.8700 448.4975 239.8120 446.0050 C239.4575 424.1475 240.0708 402.2775 239.7115 380.4200 C239.6355 375.8050 239.2025 371.2200 239.0938 366.6125 C238.9225 359.3500 239.0235 352.0600 239.0090 344.7950 C238.9998 340.0400 238.7160 335.0925 239.1635 330.3625 C235.4317 328.0575 231.7510 324.8000 228.5392 321.8025 C226.9872 320.3550 225.5838 318.7300 223.9700 317.3525 C219.5540 313.5800 214.6745 310.3525 210.2332 306.6225 C207.6020 304.4125 205.4512 301.6500 202.7990 299.4600 C200.7448 297.7650 198.4565 296.3525 196.3757 294.6875 C193.9015 292.7075 191.5585 290.2475 189.4738 287.8700 C190.0750 286.6200 190.6673 285.2100 191.6317 284.2000 C191.7117 284.1175 191.7962 284.0375 191.8780 283.9550 C192.8768 282.9450 194.2222 282.3775 195.4790 281.7500 C200.0098 284.0025 202.9957 287.5150 206.8215 290.7025 L230.2218 310.3175 C231.6398 311.4900 235.2453 315.0700 236.3455 315.7000 C236.8642 315.9975 237.9240 316.0525 238.4957 315.9400 C239.3300 315.7775 239.0375 307.8150 239.0417 306.3650 L239.0468 251.6600 L239.0155 236.7785 C238.9930 233.6825 238.8168 230.4987 239.0410 227.4108 C239.1415 226.0293 239.3595 224.5315 240.2425 223.4110 C241.0235 222.4200 241.7385 222.2605 242.9557 222.0755 Z"></path>
<path id="" fill="#000000" fill-opacity="1.0" stroke="#000000" stroke-width="0.0" stroke-opacity="1.0" stroke-linecap="round" stroke-linejoin="round"  filling="0" d="M260.2225 107.0270 C260.7275 107.1155 261.1025 107.2442 261.5625 107.4665 C261.7250 107.8695 261.8500 108.2230 261.9300 108.6527 C261.9525 108.7708 261.9700 108.8897 261.9875 109.0082 C264.0125 109.4408 266.1425 109.3800 268.2000 109.6035 C273.7925 110.2117 279.4425 111.5632 284.8450 113.1118 C308.0950 119.7745 329.7650 133.3210 345.0625 152.1908 C362.6825 173.9255 371.8650 197.8372 373.3025 225.8130 C373.4175 228.0112 373.1700 230.2818 373.1075 232.4843 C373.0200 235.6775 373.0450 238.8810 373.0425 242.0755 C373.0350 251.2175 373.5500 260.6250 372.5800 269.7225 C370.4225 291.5925 362.4250 312.4775 349.4300 330.1975 C346.0775 334.8375 342.5875 339.5150 338.1050 343.1275 C334.8550 343.3350 331.5925 343.3300 328.3425 343.1125 L327.9925 342.8600 C327.2750 340.6300 330.5125 338.0025 331.9600 336.5750 C350.7575 317.7925 362.1775 292.8775 364.1300 266.3750 C364.3625 263.2025 364.2100 259.9525 364.1950 256.7675 L364.1725 242.4780 C364.1675 234.9825 364.5875 227.2010 363.9475 219.7377 C361.7800 196.2695 352.2650 174.0830 336.7575 156.3345 C320.6000 137.9117 297.7300 123.8040 273.5100 119.1967 C266.1750 117.8015 258.8450 117.5665 251.4175 117.0405 C251.5500 116.1267 251.6600 115.1175 252.0175 114.2607 C253.2300 111.3683 257.4425 108.1933 260.2225 107.0270 Z"></path>
<path id="" fill="#000000" fill-opacity="1.0" stroke="#000000" stroke-width="0.0" stroke-opacity="1.0" stroke-linecap="round" stroke-linejoin="round"  filling="0" d="M232.3415 108.1060 C235.1080 108.0065 241.2610 107.4868 243.6360 108.6653 C244.5855 110.2418 242.5300 112.2572 242.1100 113.8680 C241.8587 114.8313 242.0040 116.1095 242.0267 117.1075 C236.1848 117.3740 230.3380 117.2682 224.4987 117.7045 C216.8800 118.2740 209.0370 119.9438 201.7675 122.2795 C184.8978 127.8775 169.5508 137.3002 156.9255 149.8118 C155.3983 151.3415 154.1862 153.1463 152.7267 154.7345 C151.2360 156.3568 149.6348 157.8672 148.2068 159.5495 C142.9710 165.8355 138.4722 172.7005 134.7980 180.0100 C123.1202 202.7263 123.0618 221.4167 123.0400 246.3768 C123.0315 256.5025 122.9342 267.1725 124.6087 277.1750 C126.0725 285.9175 128.9165 294.1550 131.6167 302.5675 C131.7617 302.9125 131.8505 303.2175 131.9377 303.5875 C132.0692 304.1450 132.0327 304.0175 131.7665 304.4525 C130.8710 304.6850 130.0035 304.5975 129.0905 304.5250 C124.7875 304.1775 123.9935 301.4550 121.8033 301.0575 C121.5200 301.0050 120.9235 301.1625 120.6152 301.2000 C119.5165 300.0850 120.6982 297.5375 120.2733 295.9350 C118.5005 289.2425 116.6260 282.8200 115.6942 275.9425 C115.0048 270.8500 114.3860 265.5000 114.1693 260.3650 C113.9210 254.4850 114.1295 248.5157 114.1407 242.6270 C114.1510 237.3610 113.8755 231.9700 114.1942 226.7182 C114.3257 224.5522 114.7177 222.3975 114.9320 220.2370 C117.4415 194.9122 124.8960 175.1720 140.3810 154.8925 C143.3748 150.9718 146.8105 147.4908 150.3070 144.0202 C152.9255 141.4212 155.5493 138.7213 158.3760 136.3497 C172.7845 124.5030 189.7108 116.1070 207.8607 111.8035 C215.9982 109.9017 224.0890 109.2070 232.3415 108.1060 Z"></path>
<path id="" fill="#000000" fill-opacity="1.0" stroke="#000000" stroke-width="0.0" stroke-opacity="1.0" stroke-linecap="round" stroke-linejoin="round"  filling="0" d="M320.2200 348.0075 C320.6625 347.9550 321.3400 347.8325 321.7575 348.0125 C322.3875 348.2825 322.7925 349.1350 323.3275 349.5775 C324.1475 350.2550 325.4525 350.6450 326.0825 351.5050 C326.2125 351.6850 326.2350 351.9225 326.3125 352.1300 C326.1825 353.0625 325.9075 353.5625 325.2500 354.2450 C322.6425 356.9475 317.1800 360.1725 313.7900 362.1600 C295.6200 373.0450 274.9375 379.0325 253.7625 379.5375 C252.1800 379.5800 249.2595 379.9950 248.0453 378.8700 C246.7962 377.7125 247.6138 372.9900 247.6980 371.3925 C254.4000 370.9525 261.1075 370.7600 267.7800 369.9300 C281.1075 368.2725 294.0675 363.4725 305.8175 357.0900 C308.2800 355.7800 310.6650 354.3325 312.9625 352.7500 C315.2275 351.1900 317.4725 349.3650 319.9375 348.1425 C320.0325 348.0950 320.1250 348.0525 320.2200 348.0075 Z"></path>
<path id="" fill="#010100" fill-opacity="1.0" stroke="#000000" stroke-width="0.0" stroke-opacity="1.0" stroke-linecap="round" stroke-linejoin="round"  filling="0" d="M127.7937 311.9275 C129.0952 311.9900 130.4297 312.6525 131.7513 312.8450 C131.8780 312.8625 132.0055 312.8775 132.1322 312.8975 C133.6283 313.1275 135.0255 312.8375 136.5045 312.6000 C139.7193 316.9525 142.4435 321.6600 145.7188 325.9800 C148.5607 329.7275 151.8002 333.7300 155.3242 336.8475 C156.9722 338.3050 158.8155 339.5325 160.4733 340.9775 C162.2145 342.4975 163.8100 344.1825 165.5850 345.6650 C167.5307 347.2875 169.6962 348.9025 171.8455 350.2500 C173.8067 351.4800 176.5900 352.4925 178.1275 354.2200 C179.3257 355.5675 178.4292 361.5550 178.3367 363.6300 C178.3353 364.1375 178.3027 364.0425 177.9843 364.3875 C176.2328 364.4675 173.1452 362.1600 171.6102 361.1950 C155.9133 351.5500 142.6935 338.3625 133.0092 322.6875 C130.9455 319.3175 128.6758 315.8100 127.7937 311.9275 Z"></path>
<path id="" fill="#000000" fill-opacity="1.0" stroke="#000000" stroke-width="0.0" stroke-opacity="1.0" stroke-linecap="round" stroke-linejoin="round"  filling="0" d="M184.9393 360.1200 C189.4153 360.5575 196.7222 364.4350 201.3580 365.9525 C213.9660 370.0800 227.0388 371.1775 240.2352 371.1575 C240.0930 373.4725 240.9250 377.7750 240.1385 379.7025 C236.1640 379.2875 232.0542 379.6550 228.0473 379.3375 C216.3833 378.4100 205.1378 376.1650 194.1290 372.1975 C190.8090 371.0000 187.4747 369.9325 184.8450 367.4900 C185.2133 364.9700 185.1752 362.6550 184.9393 360.1200 Z"></path>
</svg>