<svg xmlns="http://www.w3.org/2000/svg" viewBox="0 0 512 512" height="512.0px" width="512.0px">
<path id="" fill="#75736f" fill-opacity="1.0" stroke="#000000" stroke-width="0.0" stroke-opacity="1.0" stroke-linecap="round" stroke-linejoin="round"  filling="0" d="M205.7575 198.9210 C204.8725 187.8120 204.4105 176.6920 203.8630 165.5647 C203.7047 162.3468 203.2663 159.1450 203.0765 155.9288 C202.7168 149.8307 202.7242 143.2840 203.0490 137.1895 C203.8690 121.7982 210.2878 110.9027 221.5655 100.9320 C229.5855 93.8415 239.5855 90.1217 250.0250 88.4055 C256.8600 87.2812 264.4200 87.9312 271.3650 87.9325 L309.8725 87.9373 L371.1150 87.9377 L391.0950 87.9190 C395.1000 87.9160 399.1500 87.7975 403.1500 88.0450 C416.4600 88.8695 431.7025 95.9025 440.4475 105.9530 C450.3550 117.3372 454.4975 130.8033 454.1125 145.7710 C454.0100 149.7445 453.3700 153.6640 453.2000 157.6297 C453.0725 160.5793 453.1350 163.5390 452.9775 166.4865 C452.8450 168.9720 452.4900 171.4495 452.3025 173.9323 L451.2425 190.1100 C451.4250 200.3172 450.6800 210.3280 450.1725 220.5055 L447.4150 273.3275 C447.1950 278.1225 447.1575 282.9325 446.8950 287.7225 C446.3325 297.9100 445.5225 308.0875 445.1025 318.2825 L444.1050 338.0100 C443.7350 346.0525 443.5750 354.3850 441.8250 362.2675 C439.9725 370.6000 434.8700 380.3750 429.0125 386.5200 C420.2325 395.7325 406.7475 400.8175 394.1700 401.0325 C383.8000 401.1375 373.4275 401.1500 363.0575 401.0675 L297.2725 401.0950 L246.6382 401.0800 C237.5740 401.0800 228.4713 401.3100 219.4128 401.0650 C217.9837 401.0250 216.3085 401.0800 214.9787 400.5125 C214.4832 397.1750 214.4695 393.7325 214.3195 390.3600 L213.6133 375.7675 L210.8925 318.4625 L207.6755 250.3675 C207.0202 238.9422 206.5170 227.5080 206.1660 216.0683 C205.9750 210.3277 205.5150 204.6693 205.7575 198.9210 Z"></path>
<path id="" fill="#b6b7b7" fill-opacity="1.0" stroke="#000000" stroke-width="0.0" stroke-opacity="1.0" stroke-linecap="round" stroke-linejoin="round"  filling="0" d="M205.7575 198.9210 C204.8725 187.8120 204.4105 176.6920 203.8630 165.5647 C203.7047 162.3468 203.2663 159.1450 203.0765 155.9288 C202.7168 149.8307 202.7242 143.2840 203.0490 137.1895 C203.8690 121.7982 210.2878 110.9027 221.5655 100.9320 C229.5855 93.8415 239.5855 90.1217 250.0250 88.4055 C256.8600 87.2812 264.4200 87.9312 271.3650 87.9325 L309.8725 87.9373 L371.1150 87.9377 L391.0950 87.9190 C395.1000 87.9160 399.1500 87.7975 403.1500 88.0450 C416.4600 88.8695 431.7025 95.9025 440.4475 105.9530 C450.3550 117.3372 454.4975 130.8033 454.1125 145.7710 C454.0100 149.7445 453.3700 153.6640 453.2000 157.6297 C453.0725 160.5793 453.1350 163.5390 452.9775 166.4865 C452.8450 168.9720 452.4900 171.4495 452.3025 173.9323 L451.2425 190.1100 C450.3825 193.9608 450.9150 198.8147 450.9550 202.7527 C433.7050 202.4512 416.3825 202.8995 399.1250 202.9250 L297.8175 202.9165 L236.1085 202.9190 C226.1723 202.9097 215.9402 202.2790 206.0330 202.8833 C206.0002 201.5715 206.0573 200.2027 205.7575 198.9210 Z"></path>
<path id="" fill="#000000" fill-opacity="1.0" stroke="#000000" stroke-width="0.0" stroke-opacity="1.0" stroke-linecap="round" stroke-linejoin="round"  filling="0" d="M255.1125 83.8860 C266.3925 83.3887 277.7975 83.6852 289.0900 83.6797 L349.5525 83.6870 L385.7175 83.6747 C394.7025 83.6780 404.3625 83.1387 413.2025 84.8327 C424.2150 86.9440 432.7400 91.3288 441.4675 98.3067 C444.2325 100.5178 446.4325 103.1695 448.5500 105.9855 C455.1175 114.7177 459.1875 124.4538 460.3200 135.3777 C460.7950 139.9628 460.3300 144.5420 460.1150 149.1260 L459.0950 170.1045 L454.0975 255.6900 L452.7450 281.8625 C452.2050 290.8100 451.4125 299.7775 451.0475 308.7350 C450.6275 319.9725 450.0175 331.2025 449.2200 342.4200 C448.8000 348.3900 448.6850 354.1625 447.5475 360.0750 C445.6875 369.7550 441.3275 378.2200 435.1200 385.8150 C427.3575 395.3125 413.6800 403.9075 401.3425 405.1450 C398.7900 405.6875 396.2650 405.9150 393.6600 405.9750 C378.4875 406.3225 363.2325 405.9900 348.0525 405.9900 L257.0000 405.9900 L224.3445 406.0100 C220.9393 406.0225 213.7415 406.6400 210.8420 405.9200 C209.7312 402.7175 210.1380 396.6500 209.9480 393.1275 L207.8817 349.6200 L197.3002 144.0168 C196.6405 129.6703 201.3395 114.1248 211.2233 103.4310 C223.5768 90.0650 237.0445 84.5090 255.1125 83.8860 Z M218.8268 397.2025 C234.7758 396.7325 250.8250 397.0725 266.7825 397.0725 L352.3675 397.0725 L381.4450 397.0825 C388.0800 397.0825 395.2950 397.7075 401.7850 396.3200 C411.9050 394.1525 420.1600 388.7550 427.1850 381.3000 C428.0050 380.4275 428.8150 379.5450 429.6175 378.6600 C434.3900 373.1150 437.5400 366.1075 438.9975 358.9725 C440.1150 353.5025 439.9425 348.2675 440.1950 342.7525 C440.3225 339.9525 440.8075 337.1875 440.9750 334.3925 C441.1700 331.1475 441.0375 327.8875 441.2600 324.6425 L443.2875 290.3475 C443.4450 287.6675 443.8150 285.0050 443.9575 282.3275 C444.1575 278.5700 444.0100 274.7975 444.2275 271.0400 C444.3850 268.3350 444.7825 265.6500 444.9475 262.9500 C445.1250 260.0375 445.0650 257.1150 445.2900 254.2075 C445.4925 251.5525 445.8650 248.9062 445.9950 246.2478 C446.1925 242.2520 446.0400 238.2395 446.2600 234.2448 C446.5925 228.1705 447.4375 222.0640 447.9225 215.9945 C448.1175 213.5723 447.9250 211.1078 448.1675 208.6975 C441.6100 209.1685 434.8925 208.9147 428.3125 208.9142 L394.7225 208.9097 L289.3100 208.9102 L233.5208 208.9003 L219.5217 208.9283 C216.4915 208.9335 213.0045 209.2137 210.0485 208.5320 C209.7375 214.8438 210.5935 220.9120 210.9095 227.1808 L212.8455 263.8775 C213.0990 268.2650 212.9277 272.6775 213.0728 277.0700 C213.1857 280.4875 213.7088 283.8750 213.8790 287.2875 C214.0780 291.2850 213.9122 295.3000 214.0825 299.2975 L217.0660 362.6225 C217.1987 365.7900 217.7020 368.9275 217.8607 372.0900 C218.0643 376.1425 217.9062 380.2100 218.1568 384.2575 C218.4255 388.6000 219.0723 392.8350 218.8268 397.2025 Z M208.2510 199.7383 C213.9080 199.8658 219.6013 199.5775 225.2643 199.5685 L268.4575 199.5615 L404.3125 199.5605 C419.3200 199.5540 434.3775 199.3067 449.3750 199.8667 L449.3525 199.5155 C448.9600 193.4210 449.5400 187.0180 449.9100 180.9180 C450.5325 171.5677 451.0725 162.2120 451.5250 152.8520 C451.7275 148.0007 452.2450 143.1333 451.9775 138.2773 C451.1800 125.4870 445.3500 113.5330 435.7625 105.0298 C428.8350 98.7907 420.8750 94.7155 411.6800 93.0490 C404.9000 91.8205 397.4150 92.3692 390.5300 92.3510 L354.6825 92.3452 L283.5450 92.3698 C273.8000 92.3932 263.9575 92.0900 254.2300 92.3668 C243.5453 92.5435 231.4865 95.2330 223.7737 103.2003 C221.1523 105.9085 218.1350 108.5020 215.6987 111.3477 C208.8553 119.3412 205.5765 129.9345 205.7700 140.3600 C206.0350 154.6410 207.3103 168.9628 207.8900 183.2428 C208.1130 188.7355 208.4585 194.2408 208.2510 199.7383 Z"></path>
<path id="" fill="#fbd070" fill-opacity="1.0" stroke="#000000" stroke-width="0.0" stroke-opacity="1.0" stroke-linecap="round" stroke-linejoin="round"  filling="0" d="M189.1740 254.1100 C193.1635 253.8450 197.0405 254.6375 200.9990 254.5950 C205.7260 254.5425 210.4515 254.2750 215.1800 254.2150 C225.5332 254.0825 235.9010 254.1625 246.2555 254.1875 C245.3797 258.3750 243.9680 262.3750 242.8212 266.4900 C241.6485 270.6950 240.7608 275.0375 239.8853 279.3150 C234.9330 303.5150 234.9167 331.2550 238.5025 355.6575 C239.1918 360.3475 240.2923 364.9500 241.5412 369.5200 C242.5892 373.3525 243.8150 377.1525 244.3540 381.1000 C239.9028 380.9275 235.7702 380.0050 231.4057 379.2375 C225.6918 378.2325 219.8980 377.2300 214.1463 376.4750 C208.3315 375.7100 202.4702 375.2600 196.6255 374.8300 C193.5715 374.6050 190.5222 374.1600 187.4615 374.0500 C180.1738 373.7900 172.8053 374.0075 165.5092 374.0175 C161.6535 373.9800 157.8318 374.4600 153.9982 374.7900 C144.8233 375.5800 135.7755 376.6625 126.6913 378.2225 C120.9230 379.2125 114.6100 381.1225 108.7660 381.0625 C110.0355 373.3450 112.8242 365.7750 114.3785 358.0825 C118.6580 336.1225 119.0867 313.5850 115.6458 291.4775 C114.6695 285.1575 113.5762 279.1075 111.9908 272.9025 C110.4780 266.9850 108.2777 261.0925 107.8570 254.9675 L153.9055 254.9875 C162.3242 254.9875 170.8423 255.2625 179.2490 254.9150 C182.5592 254.7800 185.8642 254.3250 189.1740 254.1100 Z"></path>
<path id="" fill="#000000" fill-opacity="1.0" stroke="#000000" stroke-width="0.0" stroke-opacity="1.0" stroke-linecap="round" stroke-linejoin="round"  filling="0" d="M253.0775 91.6395 C261.0750 92.3025 269.2675 91.9998 277.2925 91.9952 L316.2175 91.9845 L372.9525 91.9832 C383.4875 91.9825 394.0950 92.2340 404.6200 91.8565 C405.3775 107.0323 404.7350 122.3100 404.8525 137.4980 L404.8650 159.6927 C404.9125 165.0790 405.2800 170.5315 404.7100 175.8997 C404.5225 177.6825 404.1425 178.8940 402.9525 180.2435 C402.1000 180.9718 401.2700 181.3690 400.1600 181.5740 C394.5125 182.6158 388.1400 181.9595 382.4050 181.9368 L351.9350 181.9335 L292.2325 181.9405 C282.3575 181.9475 272.1300 182.3848 262.2925 181.9498 C260.2775 181.8607 257.1925 181.6548 255.5025 180.5052 C255.4025 180.4377 255.3075 180.3650 255.2075 180.2985 C254.0700 179.5403 253.4675 178.7885 252.6900 177.6915 C252.8575 171.8772 252.5900 165.9985 252.5925 160.1747 L252.5850 119.4492 C252.5600 110.2303 252.1950 100.8200 253.0775 91.6395 Z"></path>
<path id="" fill="#75726f" fill-opacity="1.0" stroke="#000000" stroke-width="0.0" stroke-opacity="1.0" stroke-linecap="round" stroke-linejoin="round"  filling="0" d="M261.4525 92.2487 C268.5200 92.0540 275.6250 92.2015 282.6975 92.1967 L322.7700 92.1790 C347.1775 92.1810 371.6525 91.7830 396.0525 92.2207 C395.7025 110.2737 395.9650 128.4128 396.0675 146.4705 C396.1200 155.3817 396.3275 164.3215 396.0150 173.2290 C391.4650 173.7720 386.3725 173.3065 381.7600 173.2892 L354.3150 173.2790 L261.4975 173.2583 C261.2750 163.9740 261.4750 154.6497 261.4825 145.3605 L261.4525 92.2487 Z"></path>
<path id="" fill="#d64f34" fill-opacity="1.0" stroke="#000000" stroke-width="0.0" stroke-opacity="1.0" stroke-linecap="round" stroke-linejoin="round"  filling="0" d="M58.9297 299.6650 C58.0643 299.1625 57.2240 298.5625 56.6460 297.7300 C53.7842 293.6025 55.1582 283.8675 55.8865 279.0325 C59.1833 257.1450 68.6533 233.9580 86.9863 220.5200 C105.4175 207.0098 129.4340 204.9738 150.9162 211.3440 C158.6842 213.6478 167.3783 217.7135 175.0875 218.8805 C178.3678 217.7435 181.5038 215.9250 184.7730 214.6642 C195.4820 210.5343 207.3687 208.1472 218.8613 208.2682 C222.3647 208.1497 225.8698 208.2135 229.3743 208.1690 C232.8735 208.1248 236.3652 207.8850 239.8555 208.2480 C239.9433 209.2997 239.9572 210.4203 240.1703 211.4515 C249.6257 214.5383 257.4100 219.7880 264.8600 226.2283 C266.5400 227.6810 268.3900 229.1293 269.8550 230.8022 C273.7975 235.3058 278.3400 242.6362 281.0550 247.9702 C285.2200 256.1625 288.7200 265.4700 289.7375 274.6750 C290.1000 277.9500 290.0500 281.2725 290.0600 284.5625 C285.3950 283.0800 281.2975 280.4550 276.8750 278.4175 C270.0825 275.2875 260.8025 272.8325 253.3875 271.9925 C250.9225 271.5325 243.7177 269.5000 241.5835 271.2550 C241.2598 271.5225 241.1622 271.9675 241.0163 272.3375 C241.0108 272.3500 240.9982 272.3600 240.9895 272.3725 L240.9258 272.1075 C239.8808 271.4100 236.9345 271.9725 235.6053 272.0825 C226.8123 272.8150 217.1913 274.9225 209.1893 278.7325 C204.6017 280.9150 200.3780 283.6800 195.6480 285.6075 C183.5267 290.5450 171.6902 289.6325 159.9193 284.1375 C153.1485 280.9775 148.6465 278.0475 141.2180 275.5950 C136.9803 274.1500 132.5960 273.1775 128.1447 272.6925 C124.9110 272.3075 121.5345 272.1450 118.3528 271.4825 C116.2483 270.6600 111.2542 270.8575 109.1938 271.6800 C93.4648 273.9425 78.2387 279.6425 66.6140 290.8575 C63.7985 293.5725 61.4840 296.7150 58.9297 299.6650 Z"></path>
<path id="" fill="rgb(91,111,119)" fill-opacity="1.0" stroke="#000000" stroke-width="0.0" stroke-opacity="1.0" stroke-linecap="round" stroke-linejoin="round"  filling="0" d="M218.8613 208.2682 C222.3647 208.1497 225.8698 208.2135 229.3743 208.1690 C232.8735 208.1248 236.3652 207.8850 239.8555 208.2480 C239.9433 209.2997 239.9572 210.4203 240.1703 211.4515 C236.4170 210.8595 232.7908 209.2645 229.0515 208.7547 C225.7063 208.2985 222.1505 208.9325 218.8613 208.2682 Z"></path>
<path id="" fill="#d54e33" fill-opacity="1.0" stroke="#000000" stroke-width="0.0" stroke-opacity="1.0" stroke-linecap="round" stroke-linejoin="round"  filling="0" d="M173.8590 407.3025 C171.6257 408.8850 169.7128 410.9350 167.6503 412.7300 C165.0423 415.0025 162.1378 417.0100 159.2047 418.8425 C148.2220 425.7050 135.6192 428.7625 122.8740 425.7450 C103.8530 421.2450 89.8295 406.1850 80.0038 390.0775 C76.8842 384.9650 64.7400 362.3200 66.0195 357.0375 C67.0985 356.2700 69.1480 357.6450 70.1492 358.2500 C73.9413 360.5375 77.4595 363.2250 81.3643 365.3550 C88.0955 369.0275 102.1475 374.0050 109.9575 373.9500 C110.0583 373.9500 110.1590 373.9475 110.2598 373.9450 C112.2560 374.7525 115.8792 374.8450 118.0013 374.4200 C118.5952 373.9100 118.7993 372.8925 119.0443 372.1575 L118.8330 373.9975 C119.9380 374.7275 127.2030 373.2550 128.7063 372.9500 C136.0027 371.4725 143.4325 369.4050 150.1900 366.2575 C156.6102 363.2675 162.2380 358.9075 169.3535 357.4975 C172.4665 356.8825 175.6743 356.9525 178.8347 356.9525 C196.0562 356.9575 200.5018 364.0375 214.8065 369.6825 C222.7165 372.8050 231.7525 374.2825 240.1750 375.3225 C243.2290 376.5700 246.9292 375.7300 250.1225 375.7675 C258.8675 375.8725 267.3775 371.2900 275.8400 369.8000 C276.1450 370.3325 276.1775 370.4775 276.1075 371.1125 C275.5800 375.9650 261.6350 394.7600 257.9750 399.7500 C256.8300 401.3100 255.8525 403.0550 254.6100 404.5300 C252.0075 407.6225 248.8700 410.8850 245.7810 413.4825 C236.2525 421.4900 223.8440 428.0200 211.0063 426.8450 C197.7043 425.6275 182.4550 417.6625 173.8590 407.3025 Z"></path>
<path id="" fill="#000000" fill-opacity="1.0" stroke="#000000" stroke-width="0.0" stroke-opacity="1.0" stroke-linecap="round" stroke-linejoin="round"  filling="0" d="M240.9895 272.3725 C240.9982 272.3600 241.0108 272.3500 241.0163 272.3375 C241.1622 271.9675 241.2598 271.5225 241.5835 271.2550 C243.7177 269.5000 250.9225 271.5325 253.3875 271.9925 C252.2650 271.9625 251.1450 271.9525 250.0275 271.8400 C248.6080 277.3750 247.6560 283.1550 246.7728 288.8000 C242.8910 312.9500 242.8610 337.5625 246.6840 361.7200 C247.2600 365.3875 247.6880 371.6825 249.3698 374.8475 C249.5655 375.2175 249.8265 375.4775 250.1225 375.7675 C246.9292 375.7300 243.2290 376.5700 240.1750 375.3225 C240.3907 372.0175 238.7923 366.6375 238.2003 363.2200 C237.4547 358.9250 236.8783 354.6025 236.4722 350.2625 C234.2737 329.8050 234.8067 309.1450 238.0575 288.8275 C238.5403 285.9150 239.3165 283.0800 239.8867 280.1900 C240.3958 277.6100 240.3793 274.9275 240.9895 272.3725 Z"></path>
<path id="" fill="#000000" fill-opacity="1.0" stroke="#000000" stroke-width="0.0" stroke-opacity="1.0" stroke-linecap="round" stroke-linejoin="round"  filling="0" d="M109.1938 271.6800 C111.2542 270.8575 116.2483 270.6600 118.3528 271.4825 C118.3562 271.5875 118.3585 271.6950 118.3635 271.8025 C118.5255 275.2600 119.4225 278.8125 120.0835 282.2125 C121.0378 287.1175 121.9480 292.0000 122.6265 296.9550 C125.9995 321.5825 125.2377 348.0275 119.0443 372.1575 C118.7993 372.8925 118.5952 373.9100 118.0013 374.4200 C115.8792 374.8450 112.2560 374.7525 110.2598 373.9450 C110.6455 373.4000 110.7968 372.8675 110.9600 372.2350 C111.9977 368.2175 112.5778 363.8350 113.2360 359.7225 C117.3727 333.9700 116.8650 307.6850 111.7368 282.1125 C111.0695 278.9125 110.8618 274.5000 109.1938 271.6800 Z"></path>
<path id="" fill="#010000" fill-opacity="1.0" stroke="#000000" stroke-width="0.0" stroke-opacity="1.0" stroke-linecap="round" stroke-linejoin="round"  filling="0" d="M130.4160 152.0592 C139.8268 151.5110 149.4405 154.7670 157.2487 159.8865 C170.7130 168.7145 179.7735 185.2715 181.1588 201.1940 C181.3660 203.5780 181.4753 206.0185 181.4430 208.4117 C181.4133 210.6310 180.9577 213.2340 181.4120 215.3913 L181.8183 215.5390 L182.4020 214.9135 C182.7190 215.3060 183.0453 215.6882 183.3760 216.0695 C183.9503 216.1028 184.5182 216.1467 185.0813 216.0013 C186.1597 215.7225 187.5235 214.7142 188.5047 214.1617 C191.4660 212.4945 194.5038 210.6033 197.7040 209.4368 C199.5428 208.7663 200.8325 209.2878 202.6678 209.0925 C206.0370 208.7345 209.3867 208.0988 212.7670 207.8495 C219.0760 207.3840 225.5582 207.6210 231.8862 207.6845 C236.2072 207.7280 240.6230 207.5620 244.9292 207.8707 C253.6600 208.4967 268.4400 219.2385 274.0250 225.6920 C287.6175 241.4995 295.9875 261.1225 297.9900 281.8725 C298.3550 285.3550 298.9550 289.0000 298.7125 292.4950 C298.3250 293.0675 297.9350 293.7150 297.4275 294.1875 C296.3150 295.2275 294.7250 295.4550 293.2925 295.0875 C291.4700 294.6225 285.6375 289.2500 283.6175 287.8150 C274.8825 281.6075 264.5650 277.8600 254.0175 276.0800 C252.6450 275.8475 251.2375 275.9800 249.8642 275.7850 C249.1427 275.6800 248.9070 275.5025 248.5022 274.9250 C248.4785 273.9600 248.5905 272.8125 247.7485 272.1475 C246.6310 271.2650 244.7430 271.5400 243.4020 271.5650 C243.3392 271.6900 243.2778 271.8175 243.2137 271.9450 C242.5695 273.2100 241.9523 274.1750 240.5975 274.7250 C237.7437 275.8775 234.0502 275.2525 230.9928 275.6550 C226.7385 276.2175 222.3530 277.2300 218.2708 278.5250 C215.6387 279.3600 212.8595 280.3225 210.3627 281.5025 C205.2165 283.9325 200.9860 286.5875 195.4235 288.2900 C179.8480 293.0500 167.3553 289.9725 153.4170 282.5050 C146.4120 278.9375 138.0580 276.2475 130.2150 275.6025 C125.9872 275.2550 121.8378 275.4000 117.6120 275.3500 L117.4423 271.6850 C115.1000 271.3550 112.7005 271.4300 110.3383 271.1325 C110.4465 272.6725 110.2567 274.0925 110.0035 275.6025 C107.7322 276.2675 105.1833 276.3950 102.8465 276.8575 C98.4057 277.7325 93.9725 279.2275 89.8238 281.0250 C79.2798 285.5925 67.6120 295.1775 62.0365 305.3575 C61.2415 306.8100 60.7112 308.3575 60.0983 309.8900 C59.5060 311.3700 58.8515 313.2750 57.2495 313.8900 C56.1075 314.3300 54.7448 314.3200 53.6380 313.7750 C52.7350 313.3300 52.1595 312.5850 51.8932 311.6225 C50.9942 308.3750 51.2535 304.1200 51.1978 300.7500 C50.8597 280.3600 55.0132 258.8350 65.3203 241.0448 C75.1165 224.1362 90.0520 211.2527 109.1540 206.2140 C125.9512 201.7830 143.0850 204.1133 158.3300 212.4082 C162.7103 214.7917 166.5695 217.9340 170.8652 220.4190 L171.0705 220.1730 C170.7392 219.7645 170.5360 219.5103 170.3400 219.0145 C170.5043 218.3463 170.5813 218.0545 171.0895 217.5527 C171.5165 217.8777 171.4760 217.9048 172.0550 217.9805 C172.2305 217.7410 172.2720 217.7137 172.3862 217.3898 C172.7722 216.2945 172.7415 214.5923 172.8867 213.4097 C174.1752 203.2148 172.3665 192.8680 167.6958 183.7148 C162.7467 174.1958 152.7270 163.9370 141.9445 161.4073 C138.4150 160.5793 133.1760 160.5255 130.1458 159.4615 C129.0878 159.0900 128.0508 158.4388 127.6212 157.3528 C127.1735 156.2202 127.5493 155.0623 128.0347 154.0105 C128.5875 152.8123 129.2133 152.4727 130.4160 152.0592 Z M226.0470 268.0625 C240.8465 264.8350 258.1825 266.9700 272.3350 272.1075 C273.9075 272.6775 275.4875 273.2650 277.0025 273.9775 C278.7750 274.8150 285.9550 279.1575 287.2975 279.1550 C287.5625 279.1550 287.9525 278.7075 288.0700 278.5200 C289.6300 276.0400 286.0025 265.3400 285.0000 262.2900 C279.0675 244.2332 267.6625 227.6277 250.3525 218.9818 C236.4270 212.0267 220.8605 210.5627 206.0100 215.5245 C198.2170 218.1283 190.0755 222.9600 183.9740 228.5103 C181.8307 230.4597 179.9207 233.3045 177.3898 234.7218 C176.1853 235.3963 174.2807 235.5430 173.0352 234.9128 C169.8175 233.2847 166.7088 228.7878 163.8683 226.3658 C155.3777 219.1257 143.4140 214.1125 132.4020 212.8970 C130.0948 212.6425 127.7255 212.7052 125.4062 212.7148 C123.5275 212.7222 121.5648 212.6615 119.7025 212.8955 C103.8307 214.7688 89.3647 222.9037 79.5193 235.4930 C69.0345 248.7413 62.5435 265.5700 60.7140 282.3375 C60.5063 284.2425 59.7900 287.8100 60.0905 289.6000 C60.1055 289.6900 60.1357 289.7750 60.1582 289.8625 C60.8987 290.0800 61.5878 289.9700 62.3415 289.9000 C64.6523 288.5425 66.5437 286.0925 68.5833 284.3350 C71.0130 282.2425 73.8313 280.3725 76.5480 278.6700 C95.9877 266.4850 120.6805 263.8850 142.6528 269.5800 C147.8350 270.9100 152.8788 272.7325 157.7150 275.0200 C161.8435 276.9925 165.8135 279.4700 170.2475 280.7100 C179.0717 283.1750 189.1172 282.3550 197.4755 278.6825 C201.0565 277.1075 204.4060 275.0525 208.0083 273.5200 C213.8067 271.0550 219.8550 269.2250 226.0470 268.0625 Z"></path>
<path id="" fill="#010000" fill-opacity="1.0" stroke="#000000" stroke-width="0.0" stroke-opacity="1.0" stroke-linecap="round" stroke-linejoin="round"  filling="0" d="M63.3705 347.5525 C64.2712 347.5900 65.2050 347.7950 65.9820 348.2725 C67.8760 349.4350 69.4705 351.6325 71.0340 353.2250 C72.8607 355.0850 74.8362 356.8975 76.9345 358.4475 C84.2762 363.8600 92.6350 367.7325 101.5098 369.8325 C104.1628 370.4625 108.7368 370.8200 110.9612 372.1225 C114.3387 374.1000 115.5115 372.1325 118.7337 371.8200 C120.8690 371.6125 123.0772 371.7150 125.2267 371.5900 C131.5618 371.2250 137.6665 370.2875 143.7527 368.4325 C156.3797 364.5825 162.9260 358.0250 177.4227 357.1425 C188.4622 356.4700 197.9375 359.3525 207.7980 363.9825 C212.1835 366.0400 216.5018 368.1275 221.2218 369.3350 C224.0782 370.0650 227.0485 370.7350 229.9772 371.0650 C232.9440 371.4000 237.5108 371.2325 240.2295 372.2275 C240.8790 372.4650 241.1073 372.8200 241.3808 373.4150 C241.6070 373.9075 241.8265 374.3075 242.1330 374.7550 C243.0883 375.2350 244.4075 375.8900 245.4877 375.4500 C246.4830 375.0450 246.8090 373.5875 247.1815 372.7025 C247.3378 372.3300 247.5390 371.9825 247.8972 371.7650 C249.2190 370.9650 253.6625 370.7500 255.5100 370.4275 C261.1725 369.4400 266.4525 367.9475 271.7425 365.6700 C273.9225 364.7325 275.9975 363.5275 278.2050 362.6675 C279.6225 362.1150 281.1000 361.7350 282.5475 362.4200 C284.0500 363.1275 284.5250 364.8750 285.0850 366.3000 C282.0075 374.8900 273.0150 392.0175 266.6100 398.1325 C264.8525 398.2575 259.0375 398.7800 257.7200 397.7450 C257.6375 395.0775 265.1700 385.8400 266.9825 383.1075 C268.3250 381.0800 269.6625 378.7425 270.5925 376.5000 C270.7325 376.1650 270.7350 376.3175 270.6100 376.0100 C266.9850 376.2250 263.0400 377.7375 259.4625 378.4775 C249.8045 380.4575 239.8840 380.8200 230.1070 379.5475 C223.2007 378.6175 216.2213 376.8850 209.7348 374.3275 C207.4850 373.4400 205.3685 372.1150 203.1850 371.0675 C195.0365 367.1625 187.9803 365.3250 178.8880 365.5850 C168.4170 365.8850 164.1413 369.3600 155.0295 373.1350 C142.9153 378.1525 130.6223 380.6650 117.4875 380.0950 C107.6707 379.6700 98.7180 378.1550 89.5123 374.7050 C87.2972 373.8725 78.0465 369.3275 76.9952 369.4500 C76.6995 369.4850 76.7560 369.5125 76.5592 369.7525 C76.2598 371.7725 78.9320 375.5250 79.9673 377.2425 C85.1525 386.7925 91.3062 395.0450 99.0245 402.6900 C101.2437 404.8900 103.4595 407.1125 105.9453 409.0150 C116.1633 416.8350 127.0013 421.0675 139.9447 419.2275 C151.0575 417.6475 162.4910 409.4250 169.1075 400.5925 C170.4450 398.8050 172.2798 396.4375 174.6593 396.1900 C175.8430 396.0675 176.8992 396.5500 177.8237 397.2500 C180.1170 398.9850 182.0742 401.8350 184.0018 403.9950 C186.3143 406.5875 188.8500 408.8025 191.6275 410.8825 C196.1880 414.3000 201.5180 417.2925 207.0715 418.7175 C209.7502 419.4050 212.5652 419.5600 215.3205 419.5825 C226.5455 419.6700 236.4130 415.2300 245.0612 408.2625 C247.0408 406.6700 254.9675 398.8525 256.6625 398.7425 C256.9950 398.7200 257.0600 398.9175 257.2725 399.1325 C257.5075 401.4425 255.7225 402.3025 255.4900 404.2550 C255.4100 404.9275 255.4950 405.0000 255.9100 405.4675 C256.5950 405.6600 257.4300 405.8050 257.9925 406.2575 C258.2750 406.4850 258.3150 406.7625 258.3225 407.1150 C258.3400 407.8975 257.7925 408.7450 257.2750 409.2825 C255.5625 411.0675 253.5075 412.6500 251.5800 414.1975 C241.4185 422.3500 229.4445 428.1175 216.2072 428.1850 C198.2063 428.2775 187.0977 419.3075 174.9610 407.4200 C173.0403 409.3600 171.3327 411.4625 169.3400 413.3425 C163.2773 419.0650 155.1625 423.8975 147.1900 426.2725 C134.2770 430.1175 121.0367 427.9475 109.3392 421.5625 C88.1687 410.0075 73.4388 386.7775 64.6038 364.9725 C63.2043 361.5175 61.6243 357.9825 60.5918 354.4100 C60.1315 352.8150 59.7085 350.6825 60.6398 349.1725 C61.2807 348.1350 62.2547 347.8625 63.3705 347.5525 Z"></path>
</svg>