<svg xmlns="http://www.w3.org/2000/svg" viewBox="0 0 512 512" height="512.0px" width="512.0px">
<path id="" fill="#db9145" fill-opacity="1.0" stroke="#000000" stroke-width="0.0" stroke-opacity="1.0" stroke-linecap="round" stroke-linejoin="round"  filling="0" d="M252.6675 59.7630 C363.5950 57.9145 455.0200 146.3380 456.8750 257.2650 C458.7300 368.1950 370.3125 459.6250 259.3825 461.4850 C148.4462 463.3475 57.0070 374.9200 55.1523 263.9825 C53.2975 153.0457 141.7295 61.6115 252.6675 59.7630 Z M263.1500 342.5650 C312.8500 338.6175 349.8975 295.0575 345.8150 245.3675 C341.7300 195.6772 298.0675 158.7502 248.3898 162.9713 C198.9050 167.1758 162.1535 210.6305 166.2213 260.1275 C170.2890 309.6225 213.6418 346.4950 263.1500 342.5650 Z"></path>
<path id="" fill="#5b2b20" fill-opacity="1.0" stroke="#000000" stroke-width="0.0" stroke-opacity="1.0" stroke-linecap="round" stroke-linejoin="round"  filling="0" d="M64.0153 327.7900 C60.4915 319.6575 58.2125 310.4625 56.2948 301.8225 C47.8053 265.1425 49.6452 226.8270 61.6100 191.1288 C78.8665 138.9648 116.4795 95.9930 165.8995 71.9812 C205.7530 52.3590 250.9275 46.3020 294.5425 54.7328 C305.0000 56.7645 314.9800 59.7097 325.0475 63.1465 C330.3075 64.9427 335.4525 67.2260 340.5275 69.4905 C384.1425 89.0315 419.4925 123.2947 440.3850 166.2790 C463.7550 214.3910 467.2600 269.7675 450.1425 320.4425 C449.6025 322.5550 448.5675 327.8950 446.4750 328.9975 C446.0925 329.1975 446.1775 329.1150 445.6850 329.0050 C445.0525 328.2650 444.8925 327.8900 444.5825 327.0025 C444.4325 326.5725 444.3700 326.5425 443.9450 326.4000 C443.2825 326.1775 442.6050 326.1675 441.9350 325.9950 C436.0325 325.9875 428.5650 308.5275 425.6925 304.0700 C422.2925 298.7925 417.6700 292.8750 412.0350 289.8425 C408.5625 287.9725 405.0300 287.1875 401.1625 288.4525 C397.9225 289.5075 395.1900 291.7325 393.5025 294.6950 C390.4200 300.1675 390.2850 307.3825 389.9575 313.4975 C389.7350 317.7125 389.2900 321.9125 389.1250 326.1325 C388.7600 335.5000 389.5450 348.9600 385.2825 357.4575 C384.3050 359.4100 382.7475 361.3875 380.5675 362.0275 C373.6225 364.0650 365.6500 354.1175 361.2125 349.8925 C357.9950 346.8275 354.1650 343.3750 350.2725 341.2150 C346.1600 338.9350 341.0650 338.1425 336.5125 339.5075 C330.9525 341.1750 325.5375 345.9225 322.3700 350.6900 C317.1825 358.4975 314.0775 370.1925 310.7700 379.1200 C305.4600 393.4450 299.7750 407.8375 292.3675 421.2300 C288.9375 427.4350 284.2825 435.8025 276.9225 437.7850 C256.0200 443.4150 246.2117 397.4450 241.3033 383.5025 C239.5015 378.3850 236.8027 372.7250 233.8125 368.1850 C231.1013 364.0700 227.8865 361.1675 223.5892 358.7775 C219.5865 358.6375 216.4077 359.8050 213.4718 362.5575 C203.1570 372.2275 206.5332 388.7875 197.9207 395.7125 C195.9545 397.2925 193.4962 397.9575 191.0002 397.6850 C188.2027 397.3775 184.9523 396.6975 182.6400 395.0325 C174.3672 389.0750 170.7870 366.2775 169.7890 356.3775 C168.9017 347.5750 169.5180 330.0575 163.8000 323.3650 C162.3488 321.6675 160.1537 320.8425 157.9577 320.6900 C150.8300 320.2025 146.7023 326.3625 141.9337 330.4800 C137.9445 333.9250 133.4385 336.5450 127.9925 336.0750 C112.2477 334.7125 111.2050 311.9850 103.0335 302.5125 C101.5342 300.7725 99.6240 299.1325 97.2242 299.0275 C94.8087 298.9200 91.3272 300.9475 89.4272 302.4050 C86.2660 304.8275 83.4482 308.0625 80.6500 310.8975 C77.9577 313.6250 75.0930 316.2950 72.5667 319.1700 C70.8972 321.0700 69.4770 323.3425 67.5983 325.0450 C67.5135 325.1225 67.4270 325.1975 67.3415 325.2725 C67.2240 326.1275 67.1075 326.9725 67.0435 327.8325 C67.0017 328.3975 66.8757 328.7425 66.6225 329.2450 C66.1172 329.4000 66.0497 329.4525 65.5595 329.1775 C64.9915 328.8600 64.4395 328.2825 64.0153 327.7900 Z M256.5625 334.4725 C302.5575 334.1350 339.5575 296.5575 339.1800 250.5625 C338.8025 204.5703 301.1875 167.6037 255.1950 168.0240 C209.2625 168.4438 172.3548 205.9978 172.7320 251.9300 C173.1095 297.8650 210.6293 334.8075 256.5625 334.4725 Z"></path>
<path id="" fill="#d99046" fill-opacity="1.0" stroke="#000000" stroke-width="0.0" stroke-opacity="1.0" stroke-linecap="round" stroke-linejoin="round"  filling="0" d="M441.9350 325.9950 C442.8375 325.3850 444.0400 325.4275 444.9975 324.9075 C446.9025 323.8750 448.5300 321.8925 450.1425 320.4425 C449.6025 322.5550 448.5675 327.8950 446.4750 328.9975 C446.0925 329.1975 446.1775 329.1150 445.6850 329.0050 C445.0525 328.2650 444.8925 327.8900 444.5825 327.0025 C444.4325 326.5725 444.3700 326.5425 443.9450 326.4000 C443.2825 326.1775 442.6050 326.1675 441.9350 325.9950 Z"></path>
<path id="" fill="#da9044" fill-opacity="1.0" stroke="#000000" stroke-width="0.0" stroke-opacity="1.0" stroke-linecap="round" stroke-linejoin="round"  filling="0" d="M64.0153 327.7900 C65.0240 327.0675 66.1548 325.4750 67.3415 325.2725 C67.2240 326.1275 67.1075 326.9725 67.0435 327.8325 C67.0017 328.3975 66.8757 328.7425 66.6225 329.2450 C66.1172 329.4000 66.0497 329.4525 65.5595 329.1775 C64.9915 328.8600 64.4395 328.2825 64.0153 327.7900 Z"></path>
<path id="" fill="#fcfceb" fill-opacity="1.0" stroke="#000000" stroke-width="0.0" stroke-opacity="1.0" stroke-linecap="round" stroke-linejoin="round"  filling="0" d="M92.9090 222.3465 C104.2275 221.1370 114.3880 229.3208 115.6175 240.6370 C116.8473 251.9525 108.6817 262.1275 97.3678 263.3775 C86.0250 264.6325 75.8185 256.4400 74.5855 245.0957 C73.3528 233.7507 81.5618 223.5590 92.9090 222.3465 Z"></path>
<path id="" fill="#f4ebd9" fill-opacity="1.0" stroke="#000000" stroke-width="0.0" stroke-opacity="1.0" stroke-linecap="round" stroke-linejoin="round"  filling="0" d="M423.9700 222.3980 C435.2800 221.0358 445.5500 229.1042 446.9050 240.4153 C448.2600 251.7275 440.1875 261.9925 428.8750 263.3400 C417.5725 264.6875 407.3175 256.6225 405.9625 245.3205 C404.6100 234.0195 412.6700 223.7590 423.9700 222.3980 Z"></path>
<path id="" fill="#3d7b37" fill-opacity="1.0" stroke="#000000" stroke-width="0.0" stroke-opacity="1.0" stroke-linecap="round" stroke-linejoin="round"  filling="0" d="M244.3780 78.1270 C253.3425 75.9583 262.3625 81.4810 264.5100 90.4507 C266.6550 99.4207 261.1075 108.4277 252.1325 110.5500 C243.1908 112.6647 234.2235 107.1432 232.0860 98.2063 C229.9483 89.2693 235.4465 80.2878 244.3780 78.1270 Z"></path>
<path id="" fill="#3d7b37" fill-opacity="1.0" stroke="#000000" stroke-width="0.0" stroke-opacity="1.0" stroke-linecap="round" stroke-linejoin="round"  filling="0" d="M115.7985 167.9532 C119.9928 167.8528 124.2972 169.1187 128.2245 170.4803 C135.1855 172.8935 142.5672 177.6375 145.8338 184.5225 C146.5262 185.9823 147.8780 189.0140 147.1685 190.5420 C147.0140 190.8752 146.7533 190.8587 146.4357 190.9653 C144.9778 191.3257 143.5180 191.7027 142.0163 191.8177 C136.0578 192.2745 129.3300 190.2155 124.7827 186.3132 C119.7680 182.0098 116.3160 174.4825 115.7985 167.9532 Z"></path>
<path id="" fill="#fefbf3" fill-opacity="1.0" stroke="#000000" stroke-width="0.0" stroke-opacity="1.0" stroke-linecap="round" stroke-linejoin="round"  filling="0" d="M182.8820 136.4130 C188.9880 135.7955 194.4388 140.2440 195.0573 146.3500 C195.6760 152.4557 191.2283 157.9073 185.1225 158.5270 C179.0152 159.1470 173.5620 154.6980 172.9433 148.5905 C172.3242 142.4830 176.7745 137.0305 182.8820 136.4130 Z"></path>
<path id="" fill="#eaa723" fill-opacity="1.0" stroke="#000000" stroke-width="0.0" stroke-opacity="1.0" stroke-linecap="round" stroke-linejoin="round"  filling="0" d="M332.5775 127.3217 C337.6175 126.3322 342.5125 129.5880 343.5475 134.6175 C344.5825 139.6467 341.3700 144.5708 336.3500 145.6512 C331.2675 146.7455 326.2650 143.4837 325.2175 138.3895 C324.1675 133.2955 327.4750 128.3240 332.5775 127.3217 Z"></path>
<path id="" fill="#eaa724" fill-opacity="1.0" stroke="#000000" stroke-width="0.0" stroke-opacity="1.0" stroke-linecap="round" stroke-linejoin="round"  filling="0" d="M395.5975 149.4920 C398.7975 149.2057 401.9050 150.6633 403.7300 153.3075 C405.5575 155.9515 405.8200 159.3732 404.4175 162.2650 C403.0175 165.1568 400.1675 167.0710 396.9600 167.2762 C392.0900 167.5883 387.8725 163.9252 387.4975 159.0578 C387.1250 154.1902 390.7350 149.9267 395.5975 149.4920 Z"></path>
<path id="" fill="#3d7b37" fill-opacity="1.0" stroke="#000000" stroke-width="0.0" stroke-opacity="1.0" stroke-linecap="round" stroke-linejoin="round"  filling="0" d="M378.4775 245.0470 C379.0750 245.0225 379.5775 244.8443 380.0400 245.2478 C380.2175 248.3345 377.5775 255.2575 375.8450 257.9700 C373.1800 262.1375 369.4500 265.1475 364.5775 266.2500 C364.1200 266.2725 363.8875 266.2400 363.4700 266.0450 C363.3225 265.7925 363.1900 265.5700 363.1175 265.2825 C362.3725 262.3775 363.5800 256.3875 365.0650 253.7850 C367.8825 248.8358 373.3000 246.5157 378.4775 245.0470 Z"></path>
</svg>