<svg xmlns="http://www.w3.org/2000/svg" viewBox="0 0 512 512" height="512.0px" width="512.0px">
<path id="" fill="#eba824" fill-opacity="1.0" stroke="#000000" stroke-width="0.0" stroke-opacity="1.0" stroke-linecap="round" stroke-linejoin="round"  filling="0" d="M129.9750 85.0020 C139.4245 85.1942 148.9043 85.0670 158.3565 85.0683 L208.9940 85.0670 L335.0675 84.9977 C334.8700 92.2538 335.0050 99.5450 335.0025 106.8053 L335.0050 145.8925 L335.0075 263.1750 L335.0075 392.3975 C335.0075 415.2700 334.5775 438.2300 335.1000 461.0900 C324.7825 460.6800 314.3275 461.0000 303.9950 461.0000 L245.2682 460.9975 L171.0298 460.9975 C157.3615 461.0000 143.6490 460.7625 129.9870 461.1000 L129.9750 85.0020 Z"></path>
<path id="" fill="#eacc53" fill-opacity="1.0" stroke="#000000" stroke-width="0.0" stroke-opacity="1.0" stroke-linecap="round" stroke-linejoin="round"  filling="0" d="M151.3755 420.1075 C157.3460 419.6350 163.6150 419.9925 169.6135 419.9925 C182.2663 419.9900 194.9480 419.8125 207.5977 419.9875 C209.6495 420.0175 211.6715 420.4425 213.7117 420.4575 C215.9458 420.4725 218.2032 420.2025 220.4375 420.1075 C223.4507 420.0100 226.4655 419.9725 229.4803 419.9975 L304.0725 419.9975 C310.6900 420.0100 317.3075 420.6000 323.9175 420.8850 C327.6225 421.0450 331.3650 420.9475 335.0750 420.9375 C334.9750 425.3300 335.7575 446.3300 334.2275 448.6625 C333.4725 448.9675 332.7525 449.0475 331.9425 449.0875 C328.9875 449.2325 326.0075 448.9200 323.0475 449.0475 C318.9350 449.2225 314.9075 450.1075 310.7775 449.8125 C306.7875 449.1975 302.7775 448.9200 298.7475 449.1750 C295.0425 449.4100 291.3500 449.9875 287.6350 450.0250 C285.3325 450.0500 283.0400 449.7725 280.7400 449.7075 C278.7950 449.6525 276.8475 449.8675 274.9000 449.7825 C272.3825 449.6700 269.8850 449.2375 267.3600 449.2250 C264.5500 449.2125 261.7600 449.7175 258.9525 449.7000 C255.9325 449.6825 252.9400 449.1100 249.9073 449.2550 C246.4673 449.4175 243.0607 449.9600 239.6102 450.0025 C229.9297 450.1225 220.0285 450.3800 210.3667 449.9750 C206.5570 449.8175 202.8080 449.0525 198.9825 449.0175 C195.2527 448.9850 191.4625 448.9175 187.7425 449.1775 C184.5222 449.4025 181.2560 449.9425 178.0302 449.9375 C174.6635 449.9350 171.3140 449.0950 167.9288 449.0450 C163.4430 448.9800 158.9145 448.9375 154.4312 449.0975 C151.9045 449.1875 149.3707 449.4800 146.8443 449.4975 C144.4825 449.5125 142.1053 449.1575 139.7402 449.0900 C136.4945 449.0025 133.2377 449.1525 129.9890 449.1200 L129.9715 420.9325 C134.2408 420.9700 138.5677 421.1000 142.8295 420.8575 C145.6835 420.6975 148.5185 420.2850 151.3755 420.1075 Z"></path>
<path id="" fill="#6e4921" fill-opacity="1.0" stroke="#000000" stroke-width="0.0" stroke-opacity="1.0" stroke-linecap="round" stroke-linejoin="round"  filling="0" d="M333.9825 185.7990 L334.2650 185.8245 C338.8775 186.2060 343.6875 185.9860 348.3200 185.9843 L373.6875 185.9597 C379.2825 185.9532 385.6575 185.3618 391.0900 186.8372 C394.6550 187.8050 398.1700 190.1523 400.5700 192.9440 C403.1150 195.9055 404.5800 199.9713 404.9550 203.8282 C405.2650 207.0392 405.0600 210.3432 405.0250 213.5658 L404.9950 228.3695 C405.1475 247.6725 405.1625 266.9775 405.0375 286.2800 L405.0525 352.8675 C405.0250 359.9200 405.2300 366.9550 405.1050 374.0050 C405.0650 376.1275 405.1725 378.2600 405.0050 380.3775 C404.5600 386.0625 401.6300 391.7250 397.1950 395.3375 C394.7725 397.3125 391.5000 398.4325 388.4575 398.9875 C382.5275 400.0725 376.1350 399.6900 370.1200 399.6925 L345.0900 399.7300 C341.8900 399.7375 338.0150 399.1275 334.9225 399.9500 L334.4575 399.8775 L334.1650 399.4825 C334.0575 396.9050 333.4950 384.6725 334.3175 383.1525 L334.9025 383.0725 C339.6475 383.4900 366.6525 383.6850 370.3650 382.8150 C373.1100 382.1725 375.7575 380.4975 377.8900 378.6900 C382.2075 375.0300 384.9750 370.2600 385.3925 364.5800 C385.9375 357.1175 385.4300 349.3000 385.4325 341.8050 L385.3725 290.0450 C385.4750 272.4200 385.4725 254.7975 385.3725 237.1727 C385.3200 233.9120 385.3200 230.6505 385.3725 227.3895 C385.4225 224.6665 385.6825 221.8087 385.3350 219.1113 C384.8300 215.1820 382.7425 211.5247 380.1800 208.5690 C376.7475 204.6120 372.5325 202.4555 367.3075 202.1060 C361.4450 201.7133 355.3750 202.0157 349.4875 202.0172 C344.5675 202.0188 339.0125 201.5330 334.1750 202.3098 C334.2800 199.2865 334.1525 196.2713 334.1375 193.2480 C334.1225 190.7740 334.3025 188.2570 333.9825 185.7990 Z"></path>
<path id="" fill="#eba824" fill-opacity="1.0" stroke="#000000" stroke-width="0.0" stroke-opacity="1.0" stroke-linecap="round" stroke-linejoin="round"  filling="0" d="M334.9225 399.9500 L334.4575 399.8775 L334.1650 399.4825 C334.0575 396.9050 333.4950 384.6725 334.3175 383.1525 L334.9025 383.0725 C335.1025 388.6550 335.2925 394.3800 334.9225 399.9500 Z"></path>
<path id="" fill="#f5ecda" fill-opacity="1.0" stroke="#000000" stroke-width="0.0" stroke-opacity="1.0" stroke-linecap="round" stroke-linejoin="round"  filling="0" d="M129.6235 136.8835 C123.5107 135.5355 115.0178 129.2737 111.6135 123.9608 C106.7010 116.2943 106.3225 106.7292 108.2832 98.0732 C111.9283 81.9820 122.7510 72.5530 136.0850 64.2195 C147.9100 56.8290 161.6675 53.2112 175.4050 51.6978 C178.5513 51.3510 181.6990 50.9480 184.8692 50.9640 C191.0573 50.9950 197.9373 52.0170 203.9673 53.4315 C212.2518 55.3750 219.8620 58.7968 227.6398 62.1608 L228.0115 62.0573 C233.1868 60.5855 237.6925 57.1777 242.8595 55.5060 C254.3750 51.7805 269.1575 53.5640 280.3625 57.5545 C284.5825 59.0575 288.6625 61.1463 292.5875 63.2980 C300.1625 67.4505 306.4800 73.5803 314.3500 77.1925 C318.7225 79.1988 323.3250 78.9370 327.8800 80.1565 C341.1100 83.6990 352.3700 95.4342 356.1075 108.5295 C358.7950 117.9450 358.7025 129.1698 353.7900 137.8497 C350.4450 143.7632 343.9025 149.0067 337.3225 150.7928 C336.3375 151.0603 335.3000 151.2185 334.2875 151.3300 C334.0000 144.9955 333.5625 138.0875 334.2075 131.7775 C325.9250 132.8313 314.0675 133.6190 305.8175 132.6037 C299.7650 131.8898 293.7550 130.8338 287.8200 129.4415 C275.9450 126.6300 259.0500 119.8922 249.8932 131.8082 C242.2543 141.7490 242.7435 155.5520 227.1025 157.7522 C226.2915 157.8663 225.5010 157.9637 224.6960 157.7543 C222.1290 157.0860 216.3362 153.9540 214.1105 152.2400 C211.4628 150.1882 209.1767 147.7080 207.3472 144.9020 C204.5168 140.6090 202.0327 133.0522 196.5630 131.2980 C193.6712 130.3705 186.7498 130.7207 183.7155 131.0970 C178.3950 131.7567 173.2625 134.0688 168.0952 135.4518 C162.1340 137.0473 155.8907 137.8580 149.7875 138.7383 C146.4503 139.5075 134.7437 139.1333 130.7312 139.0105 C130.3050 138.3190 129.9620 137.6212 129.6235 136.8835 Z"></path>
<path id="" fill="#eba825" fill-opacity="1.0" stroke="#000000" stroke-width="0.0" stroke-opacity="1.0" stroke-linecap="round" stroke-linejoin="round"  filling="0" d="M129.6235 136.8835 C136.0733 139.5117 143.1335 138.0397 149.7875 138.7383 C146.4503 139.5075 134.7437 139.1333 130.7312 139.0105 C130.3050 138.3190 129.9620 137.6212 129.6235 136.8835 Z"></path>
<path id="" fill="#eacc53" fill-opacity="1.0" stroke="#000000" stroke-width="0.0" stroke-opacity="1.0" stroke-linecap="round" stroke-linejoin="round"  filling="0" d="M226.4795 222.0880 C229.5450 221.9772 239.2470 221.2908 241.6577 222.7050 C242.5600 225.3175 242.0607 257.8050 242.0605 263.8725 L242.0540 378.0575 L242.0573 407.0225 C242.0615 411.5425 242.4942 416.4625 242.0210 420.9375 C241.2733 421.3025 240.6348 421.1425 239.8120 421.0975 C234.5397 420.9050 229.2253 421.0625 223.9495 421.1325 L223.9447 291.3450 L223.9438 246.8740 C223.9430 239.7623 223.7357 232.5938 223.9345 225.4880 C223.9610 224.5397 223.9875 223.6385 224.4037 222.7695 C225.0045 222.1783 225.6862 222.1845 226.4795 222.0880 Z"></path>
<path id="" fill="#eacc52" fill-opacity="1.0" stroke="#000000" stroke-width="0.0" stroke-opacity="1.0" stroke-linecap="round" stroke-linejoin="round"  filling="0" d="M169.5267 222.0833 C174.7467 221.9193 179.9828 221.9745 185.2052 221.9532 C184.7145 227.7405 185.0592 233.8092 185.0598 239.6207 L185.0620 272.9500 L185.0603 379.0225 L185.0650 407.5575 C185.0708 411.9225 185.4645 416.5800 185.0723 420.9100 C184.3893 421.3375 183.7595 421.1500 182.9662 421.1100 C177.9795 420.8800 172.9267 421.0450 167.9325 421.0475 C167.3223 418.8625 167.0468 416.8500 166.9690 414.5825 C166.6190 404.3875 166.9410 394.0650 166.9480 383.8575 L166.9550 325.1075 L166.9577 257.0350 C166.9642 246.6095 166.6447 236.0965 166.9265 225.6820 C166.9540 224.6678 167.0043 223.6743 167.4263 222.7377 C168.0290 222.1792 168.7487 222.1825 169.5267 222.0833 Z"></path>
<path id="" fill="#eacb53" fill-opacity="1.0" stroke="#000000" stroke-width="0.0" stroke-opacity="1.0" stroke-linecap="round" stroke-linejoin="round"  filling="0" d="M281.5350 222.0830 C286.7525 221.9203 291.9850 221.9750 297.2050 221.9535 C296.6800 228.1962 297.0600 234.7527 297.0600 241.0237 L297.0625 277.0425 L297.0625 374.2825 L297.0625 405.9625 C297.0675 410.9450 297.2275 415.9550 297.1050 420.9350 C296.4025 421.3300 295.7825 421.1525 294.9875 421.1100 C289.9950 420.8725 284.9300 421.0475 279.9300 421.0475 C279.3250 418.8650 279.0475 416.8475 278.9700 414.5825 C278.6350 404.7850 278.9425 394.8675 278.9500 385.0575 L278.9575 328.3300 L278.9575 256.4425 C278.9675 246.2320 278.6775 235.9628 278.9125 225.7615 C278.9350 224.7325 279.0000 223.7310 279.4325 222.7838 C280.0150 222.1673 280.7375 222.1830 281.5350 222.0830 Z"></path>
<path id="" fill="#fefefe" fill-opacity="1.0" stroke="#000000" stroke-width="0.0" stroke-opacity="1.0" stroke-linecap="round" stroke-linejoin="round"  filling="0" d="M179.2858 64.8712 C189.3887 64.9012 199.6263 66.8672 207.2292 74.0912 C207.8895 74.7188 208.0403 75.1235 208.0465 76.0195 C207.0997 77.4587 205.0083 76.6443 203.5932 76.3073 C201.0710 75.7063 198.6115 74.8423 196.0720 74.3155 C186.8568 72.4300 177.3468 72.5193 168.1687 74.5770 C162.9530 75.4755 157.2852 77.5540 152.5072 79.7510 C150.4792 80.6835 148.6452 81.9863 146.4973 82.6565 C145.5872 82.9405 144.9415 83.0650 144.0833 82.6113 L143.9010 81.9665 C144.1710 80.2670 145.4410 78.7785 146.6028 77.5652 C155.2285 68.5550 167.1727 65.1555 179.2858 64.8712 Z"></path>
</svg>