<svg xmlns="http://www.w3.org/2000/svg" viewBox="0 0 512 512" height="512.0px" width="512.0px">
<path id="" fill="#fe0078" fill-opacity="1.0" stroke="#000000" stroke-width="0.0" stroke-opacity="1.0" stroke-linecap="round" stroke-linejoin="round"  filling="0" d="M249.4933 171.1065 C249.9140 171.0768 250.3275 171.0538 250.7500 171.0450 C253.6625 170.9850 256.5150 171.2903 259.3075 172.1410 C269.4675 175.2345 279.4900 179.5370 289.3725 183.4182 L327.9400 198.1785 L373.7575 215.6882 L389.6950 221.8768 C395.6600 224.1478 401.7325 226.2495 407.5100 228.9755 C412.8200 231.4810 417.7050 234.5770 421.9250 238.6978 C431.5975 248.2965 437.0100 261.3775 436.9525 275.0025 C437.0225 287.7475 431.6075 301.8000 422.5475 310.8500 C415.0425 318.2375 405.5675 323.3025 395.2550 325.4400 C388.0400 326.9525 380.5350 326.5175 373.2075 326.5025 L350.1200 326.4800 L262.8000 326.4950 L175.3640 326.4825 L145.5215 326.5100 C135.0712 326.5225 123.8022 327.4400 113.6497 324.7225 C100.0135 321.0750 88.6600 312.5825 81.6495 300.2950 C79.8698 297.1750 78.5565 293.7925 77.4868 290.3725 C73.4247 277.3775 76.2080 267.6500 78.4080 254.7350 C79.4070 248.8717 80.0188 242.5965 81.5717 236.8665 C83.6537 235.7392 86.0258 234.9470 88.2278 234.0715 L99.7535 229.4870 L134.3715 215.4240 L191.7280 192.2912 L225.1638 178.6945 C230.1860 176.7038 235.1882 174.5343 240.2985 172.7840 C243.2795 171.7630 246.3545 171.2890 249.4933 171.1065 Z"></path>
<path id="" fill="#1c8cea" fill-opacity="1.0" stroke="#000000" stroke-width="0.0" stroke-opacity="1.0" stroke-linecap="round" stroke-linejoin="round"  filling="0" d="M144.7090 51.1205 L202.0517 51.0855 C209.8765 51.0827 227.1035 50.2810 233.8450 51.9937 C240.2298 53.6162 245.9870 57.8110 249.3190 63.5110 C251.0650 66.4967 252.6975 70.3800 252.9150 73.8540 C253.2675 79.4585 252.3850 85.2320 251.8925 90.8163 L249.2100 120.5067 L247.2415 144.0423 C246.9160 148.0343 247.0612 152.5290 246.0352 156.4012 C245.2278 157.6185 182.3333 182.8085 175.4507 185.4507 L122.5990 206.7070 C114.1432 210.0465 105.8802 214.0155 97.1280 216.5123 C97.2077 209.4637 98.9252 202.1013 99.9150 195.1180 L105.9702 152.3463 L114.1768 94.5833 C114.8432 90.0895 115.4630 85.5890 116.0360 81.0822 C116.5067 77.2870 116.8148 73.3423 117.7418 69.6290 C118.6715 65.9035 121.0120 61.6160 123.6707 58.8600 C129.4105 52.9105 136.7617 51.2473 144.7090 51.1205 Z"></path>
<path id="" fill="#1c8cea" fill-opacity="1.0" stroke="#000000" stroke-width="0.0" stroke-opacity="1.0" stroke-linecap="round" stroke-linejoin="round"  filling="0" d="M252.5325 339.1125 C286.1275 337.1925 314.9275 362.8500 316.8875 396.4450 C318.8450 430.0375 293.2225 458.8675 259.6300 460.8675 C225.9830 462.8675 197.0938 437.1925 195.1320 403.5425 C193.1700 369.8925 218.8797 341.0350 252.5325 339.1125 Z M256.8750 415.7425 C265.5300 415.2525 272.1650 407.8675 271.7325 399.2125 C271.2975 390.5550 263.9600 383.8725 255.3000 384.2475 C246.5603 384.6275 239.7995 392.0500 240.2365 400.7875 C240.6735 409.5250 248.1410 416.2375 256.8750 415.7425 Z"></path>
<path id="" fill="#1c8cea" fill-opacity="1.0" stroke="#000000" stroke-width="0.0" stroke-opacity="1.0" stroke-linecap="round" stroke-linejoin="round"  filling="0" d="M114.9535 339.1325 C148.5650 337.2225 177.3613 362.9200 179.2737 396.5300 C181.1860 430.1425 155.4902 458.9400 121.8790 460.8550 C88.2650 462.7700 59.4637 437.0700 57.5513 403.4550 C55.6387 369.8425 81.3392 341.0425 114.9535 339.1325 Z M119.6260 415.6925 C128.2305 415.0275 134.6980 407.5625 134.1317 398.9525 C133.5655 390.3400 126.1765 383.7875 117.5587 384.2525 C111.8950 384.5600 106.8333 387.8875 104.3060 392.9650 C101.7787 398.0425 102.1762 404.0875 105.3465 408.7900 C108.5170 413.4950 113.9710 416.1300 119.6260 415.6925 Z"></path>
<path id="" fill="#1c8cea" fill-opacity="1.0" stroke="#000000" stroke-width="0.0" stroke-opacity="1.0" stroke-linecap="round" stroke-linejoin="round"  filling="0" d="M390.1375 339.1400 C423.7400 337.2200 452.5400 362.9000 454.4700 396.5025 C456.4000 430.1050 430.7300 458.9125 397.1300 460.8550 C363.5125 462.7975 334.6875 437.1125 332.7550 403.4950 C330.8250 369.8750 356.5175 341.0600 390.1375 339.1400 Z M394.6250 415.7250 C403.3175 415.1500 409.8925 407.6275 409.3000 398.9375 C408.7100 390.2450 401.1800 383.6825 392.4900 384.2875 C383.8175 384.8900 377.2725 392.4000 377.8625 401.0725 C378.4525 409.7425 385.9525 416.3000 394.6250 415.7250 Z"></path>
<path id="" fill="#fe0078" fill-opacity="1.0" stroke="#000000" stroke-width="0.0" stroke-opacity="1.0" stroke-linecap="round" stroke-linejoin="round"  filling="0" d="M163.9122 81.3645 C182.7148 80.9745 201.5860 81.3240 220.3965 81.3132 L240.5315 81.3142 C244.8060 81.3307 249.3955 81.1588 253.6275 81.7805 C255.8575 82.1085 258.1175 83.1255 259.8300 84.5977 C262.4700 86.8668 263.8225 89.9798 264.0125 93.4173 C264.2025 96.8420 263.5100 100.2395 263.1750 103.6332 C262.6925 108.4925 262.1525 113.3463 261.5600 118.1933 C261.2500 120.6393 261.0725 123.2852 260.4200 125.6655 C259.8475 127.7600 258.9325 129.6670 257.4325 131.2660 C253.9550 134.9778 249.1585 135.0903 244.4518 135.2130 L181.9195 135.1795 L165.4512 135.2285 C162.0358 135.2513 158.4247 135.5033 155.0383 135.0338 C152.4760 134.6785 150.4487 133.6868 148.4807 132.0440 C146.2210 130.1575 144.3042 127.5315 144.0830 124.5242 C143.6588 118.7563 146.0502 109.1053 147.0607 103.2142 C147.7897 98.9635 148.1707 94.4870 149.3918 90.3530 C149.8530 88.7915 150.4530 87.2505 151.5605 86.0307 C155.0842 82.1500 158.9742 81.5990 163.9122 81.3645 Z"></path>
<path id="" fill="#b6ccd4" fill-opacity="1.0" stroke="#000000" stroke-width="0.0" stroke-opacity="1.0" stroke-linecap="round" stroke-linejoin="round"  filling="0" d="M279.2925 166.0375 C281.0025 165.8940 282.5500 166.2550 284.1650 166.7717 C288.5900 168.1880 292.8600 170.4200 297.1325 172.2530 C301.8625 174.2823 310.7950 177.2780 314.6450 180.2137 C317.4800 182.3763 319.8200 186.0240 320.1850 189.6150 C320.3575 191.3027 320.1500 192.9303 319.5950 194.5287 C318.1800 198.5892 316.2200 202.4550 314.5050 206.3940 L305.0025 228.5000 L292.2000 258.3950 C289.9275 263.7175 287.8250 269.1950 285.3125 274.4025 C284.5150 276.0600 283.6100 277.6225 282.4150 279.0250 C280.2150 281.6125 277.9025 282.7300 274.5850 283.0225 C272.6425 283.0475 270.5550 283.0800 268.6725 282.5550 C264.1350 281.2925 259.6150 278.8875 255.2875 277.0225 C249.9055 274.7000 243.7025 272.7075 238.8320 269.4750 C235.8580 267.4925 233.8365 264.3700 233.2467 260.8450 C232.8593 258.6250 233.3445 256.4550 234.0775 254.3650 C237.1420 245.6275 241.3763 237.0165 245.1130 228.5397 L259.2850 195.5208 C261.4375 190.4993 263.6550 185.4980 265.7400 180.4500 C266.4900 178.6373 266.9975 176.0880 268.1225 174.5302 C271.6225 169.6868 273.2375 167.5912 279.2925 166.0375 Z"></path>
</svg>