<svg xmlns="http://www.w3.org/2000/svg" viewBox="0 0 512 512" height="512.0px" width="512.0px">
<path id="" fill="#4cebc0" fill-opacity="1.0" stroke="#000000" stroke-width="0.0" stroke-opacity="1.0" stroke-linecap="round" stroke-linejoin="round"  filling="0" d="M347.0625 51.3237 C348.9700 50.9803 351.2400 51.1113 353.1625 51.3445 C359.4075 52.1025 365.6275 55.2170 369.5025 60.2645 C372.3575 63.9250 373.9700 68.4012 374.1025 73.0410 C374.2425 80.2970 370.5725 92.3962 368.6875 99.7827 C365.7575 111.2563 363.1850 122.8432 360.4000 134.3530 C358.7700 141.0938 356.6000 147.6700 355.6600 154.5600 C359.0925 154.2307 362.3100 153.0793 365.6275 152.2115 L377.4825 149.2068 L415.7975 139.3443 C421.2300 137.9453 426.8175 135.7717 432.4375 135.4442 C436.7150 135.2360 440.9800 136.0590 444.8725 137.8440 C450.6975 140.5585 454.8725 144.5485 457.0250 150.6942 C459.4175 157.4490 459.0025 164.8810 455.8700 171.3268 C450.5675 182.0618 438.9725 183.6785 428.6000 186.4187 C421.0600 188.4102 412.6700 190.3642 405.3625 192.8400 C400.1275 193.9290 395.0225 195.8925 389.8175 197.1780 C365.9525 203.0723 342.2375 209.7810 318.4950 216.1645 C309.0525 218.7035 296.3775 223.2840 286.9250 224.1107 C287.8275 218.6297 289.4800 213.1447 290.8300 207.7505 L298.6825 176.3460 C302.5225 160.4707 306.3550 144.5985 310.4575 128.7867 C311.6400 124.2238 313.0775 119.7305 314.2575 115.1673 C316.9950 104.5658 319.9450 94.0742 322.8500 83.5237 C324.1400 78.8405 325.1450 74.0927 326.6625 69.4720 C327.5450 66.7860 328.4975 64.1403 330.1375 61.8152 C334.2775 55.9532 340.0450 52.5527 347.0625 51.3237 Z"></path>
<path id="" fill="#00e2a5" fill-opacity="1.0" stroke="#000000" stroke-width="0.0" stroke-opacity="1.0" stroke-linecap="round" stroke-linejoin="round"  filling="0" d="M415.4350 67.0957 C420.9400 66.7965 426.1600 67.0692 431.0450 69.8640 C436.5675 73.0233 440.4775 77.4925 442.1250 83.6978 C443.9500 90.5650 443.1975 97.5460 439.6225 103.6947 C437.4375 107.4538 434.1300 109.7985 431.1925 112.8932 C421.6100 123.0275 411.8175 132.9630 401.8250 142.6938 C399.7900 144.6422 397.4375 146.2278 395.4125 148.1860 C381.1750 161.9375 367.3800 176.2242 353.3775 190.2202 C348.8050 194.7920 344.1175 199.2973 339.6625 203.9837 C337.2425 206.5295 335.0575 209.7522 332.2600 211.8720 C329.6475 213.8545 314.4175 217.5108 310.3125 218.5845 C304.9825 219.7880 293.1175 224.0403 288.5350 223.9052 C288.1300 223.4765 288.1300 223.4160 288.0725 222.8497 C287.6450 218.5120 291.0750 207.1970 292.2900 202.5428 C293.4200 198.2122 294.6450 193.8913 295.7025 189.5435 C296.6875 185.4890 297.0025 180.1290 299.0525 176.4622 C300.7125 173.4965 307.5325 168.1528 310.3650 165.4015 C312.1600 163.6570 313.7625 161.7170 315.6000 160.0165 C317.6850 158.0905 319.9850 156.3970 322.0450 154.4447 C324.6600 151.9680 327.0525 149.2388 329.5950 146.6873 L345.2075 131.2710 C351.9950 124.4990 359.3225 117.9088 365.3475 110.4512 C367.5550 107.7162 369.8875 104.9163 372.3925 102.4455 C373.8750 100.9830 375.5075 99.6690 376.9575 98.1750 C380.6375 94.3825 384.1700 90.3945 387.9900 86.7380 C389.5250 85.2685 391.2325 83.9698 392.7325 82.4670 C396.5250 78.6725 399.4275 74.5425 403.9400 71.4258 C407.5650 68.9207 411.0650 67.5608 415.4350 67.0957 Z"></path>
<path id="" fill="#fb9502" fill-opacity="1.0" stroke="#000000" stroke-width="0.0" stroke-opacity="1.0" stroke-linecap="round" stroke-linejoin="round"  filling="0" d="M236.0242 126.0955 C238.4198 125.8800 241.0515 126.1707 243.3750 126.7910 C248.5525 128.1732 252.8375 132.0640 256.7500 135.5670 C260.1000 138.5655 263.2175 141.8485 266.4000 145.0242 C276.1725 154.7780 285.5275 164.9595 295.3350 174.6645 C297.8475 177.1515 300.8525 179.0943 303.3575 181.5683 C305.4850 183.6695 307.4175 185.9785 309.5250 188.1073 L330.7775 209.2417 C332.2350 210.7063 333.5325 212.3150 334.9675 213.8002 C338.4775 217.4357 342.1075 221.0742 345.7250 224.6073 C353.3925 231.9747 360.9550 239.4490 368.4150 247.0275 C373.2500 251.8725 382.0925 260.0050 385.3425 265.7300 C388.0525 270.5025 389.0075 276.8175 387.4625 282.1225 C385.9325 287.3675 381.9750 291.9000 377.6375 295.0675 C372.3575 298.9225 366.3750 301.5900 360.7525 304.8725 C344.4375 314.3925 327.7775 323.3625 311.3425 332.6825 L161.7482 417.2800 C150.1670 424.1425 138.2385 430.4025 126.5770 437.1250 C119.7450 441.0925 112.8810 445.0050 105.9857 448.8600 C100.8165 451.7825 95.6992 454.7975 90.2688 457.2175 C86.5273 458.8850 82.6185 460.2775 78.5315 460.7725 C72.6868 461.4825 67.4082 459.7450 62.8347 456.1150 C57.8895 452.1900 54.1885 446.4500 53.4810 440.0925 C52.8265 434.2125 54.9902 428.1500 57.5153 422.9500 C61.8915 413.9325 67.1568 405.4000 72.0363 396.6525 L102.4193 342.8050 L170.1570 223.0115 L205.3390 160.4260 C207.6730 156.3600 209.9860 152.2818 212.2778 148.1918 C214.6078 143.9863 216.7717 139.5270 219.8205 135.7878 C224.1010 130.5378 229.1740 126.8197 236.0242 126.0955 Z"></path>
<path id="" fill="#ff5133" fill-opacity="1.0" stroke="#000000" stroke-width="0.0" stroke-opacity="1.0" stroke-linecap="round" stroke-linejoin="round"  filling="0" d="M238.6378 175.8525 C239.7798 175.8305 240.9453 175.9718 242.0847 176.0555 C244.9730 177.7753 247.4967 180.8780 249.8735 183.2558 L260.9650 194.3535 C267.5525 200.9492 274.4950 207.3732 280.8100 214.2142 C281.7925 215.2787 282.9225 216.5305 283.5850 217.8248 C284.3625 219.3470 284.5625 221.6215 283.9125 223.2155 C283.0875 225.2375 281.1225 226.5733 279.1550 227.3333 C276.5250 227.4133 274.7300 226.8008 272.6850 225.1087 C270.2150 223.0635 267.9775 220.6082 265.7125 218.3385 L253.7150 206.3195 L241.7690 194.4020 C239.2697 191.9045 236.4902 189.4380 234.3860 186.5932 C233.3345 185.1720 232.7545 183.3905 232.6410 181.6295 C232.5410 180.0825 232.8705 178.5287 233.9785 177.3867 C235.3535 175.9695 236.7920 175.9170 238.6378 175.8525 Z"></path>
<path id="" fill="#ff5133" fill-opacity="1.0" stroke="#000000" stroke-width="0.0" stroke-opacity="1.0" stroke-linecap="round" stroke-linejoin="round"  filling="0" d="M135.5923 333.8625 C137.1443 333.8150 138.8890 333.6500 140.3515 334.2725 C142.1240 335.0275 176.9258 370.0625 180.9380 374.3575 C181.5972 375.0625 182.8443 376.2275 183.1555 377.1450 C183.6425 378.5800 183.0632 380.3975 182.3695 381.6625 C181.4165 383.4050 180.2298 384.6775 178.3062 385.2500 C176.9530 385.3500 175.5977 385.3025 174.2420 385.2800 C171.0370 383.2400 168.2375 379.8400 165.5510 377.1500 L152.6170 364.2025 L140.2665 351.8700 C137.8440 349.4575 135.1922 347.0775 133.0087 344.4500 C131.8737 343.0850 131.1650 341.7450 130.6540 340.0550 L130.7485 339.7425 C131.0680 338.6675 131.4418 337.6925 132.0255 336.7325 C132.9252 335.2500 133.9037 334.3100 135.5923 333.8625 Z"></path>
<path id="" fill="#fe5133" fill-opacity="1.0" stroke="#000000" stroke-width="0.0" stroke-opacity="1.0" stroke-linecap="round" stroke-linejoin="round"  filling="0" d="M150.2263 258.6425 C150.5352 258.6600 150.8400 258.6900 151.1447 258.7450 C152.0170 258.9050 152.5755 259.2375 153.2502 259.8025 C155.4772 261.6700 157.4850 263.8575 159.5388 265.9150 L169.8358 276.2325 L180.2697 286.6350 C182.6370 289.0000 185.3633 291.3325 187.2140 294.1250 C187.2973 296.2275 187.4935 298.8325 186.3270 300.6850 C185.2535 302.3900 183.5688 302.8775 181.7352 303.3250 C181.5360 303.3325 181.3367 303.3375 181.1375 303.3375 C179.5155 303.3375 178.1008 302.8550 176.7578 301.9425 C173.0490 299.4250 169.0177 294.6350 165.7977 291.4050 C159.8575 285.4450 153.8047 279.5850 147.9370 273.5550 C147.0060 272.5975 144.6942 270.5975 144.7580 269.2025 C144.8695 266.7625 148.4555 260.3200 150.2263 258.6425 Z"></path>
<path id="" fill="#fe5133" fill-opacity="1.0" stroke="#000000" stroke-width="0.0" stroke-opacity="1.0" stroke-linecap="round" stroke-linejoin="round"  filling="0" d="M270.7225 294.8025 C271.9650 294.7475 273.0900 294.8825 274.3075 295.0725 C276.9775 297.0925 279.2975 299.6900 281.6625 302.0550 L292.7025 313.1150 L302.8625 323.2425 C304.9125 325.2850 307.1375 327.2950 308.9400 329.5600 C309.4625 330.2175 310.7300 331.7950 310.4925 332.6175 C309.9300 334.5750 305.6325 336.2750 303.8550 337.2150 C302.5325 338.0175 301.2275 338.7625 299.8250 339.4200 C297.4875 335.2725 293.2325 331.7800 289.8725 328.4325 L275.3200 313.9300 C272.2025 310.8200 268.9025 307.7650 266.0700 304.3925 C265.7050 302.3375 265.4775 300.2500 266.3975 298.2975 C267.2175 296.5550 268.9375 295.3800 270.7225 294.8025 Z"></path>
<path id="" fill="#fe5133" fill-opacity="1.0" stroke="#000000" stroke-width="0.0" stroke-opacity="1.0" stroke-linecap="round" stroke-linejoin="round"  filling="0" d="M88.2165 368.4925 C90.8315 369.5125 103.3962 382.3750 105.2137 385.1200 C105.3378 387.3025 105.4633 390.0975 104.1445 391.9525 C102.8680 393.7500 100.8743 394.0800 98.8540 394.4225 C93.6845 393.9700 85.1860 383.8050 81.5692 380.1275 C82.8470 376.6750 85.5790 371.0250 88.2165 368.4925 Z"></path>
</svg>