<svg xmlns="http://www.w3.org/2000/svg" viewBox="0 0 512 512" height="512.0px" width="512.0px">
<path id="" fill="#01bef2" fill-opacity="1.0" stroke="#000000" stroke-width="0.0" stroke-opacity="1.0" stroke-linecap="round" stroke-linejoin="round"  filling="0" d="M116.3757 342.6050 C120.0355 342.3375 124.0025 342.7500 127.6252 343.2550 C144.3443 345.5800 150.7168 353.4900 164.7928 359.0225 C171.1163 361.5100 178.2355 362.6650 184.9953 363.0850 C195.5155 363.7375 206.8790 360.9100 216.1832 355.9725 C222.4447 352.6500 228.4485 348.8400 235.0963 346.2850 C241.5910 343.7875 249.2522 342.4975 256.2225 342.4875 C267.0775 342.4700 276.6725 345.6100 286.0850 350.8500 C289.7325 352.8800 293.2350 355.1450 297.0150 356.9325 C303.4300 359.9825 310.3175 361.9250 317.3800 362.6775 C327.4225 363.7750 338.7025 362.0950 348.0000 358.0300 C352.4450 356.0850 356.5925 353.5600 360.8550 351.2600 C370.2225 346.2125 380.5300 342.5875 391.2725 342.4525 C403.0800 342.3025 413.7925 345.7550 423.9575 351.5875 C428.4225 354.1500 432.9375 356.9875 437.7250 358.8875 C445.0800 361.8050 453.3075 362.8075 461.1625 362.4475 C460.7525 367.1700 461.0100 372.1125 461.0075 376.8575 L461.0150 403.4050 L461.0150 440.7175 C461.0150 447.6350 460.8325 454.6125 461.1075 461.5225 C458.0425 461.2125 454.9525 461.3975 451.8750 461.4200 L437.1525 461.4675 L173.6855 461.4500 L88.9652 461.4700 L66.1923 461.4225 C61.1345 461.3900 56.0403 461.1725 50.9937 461.5700 C51.4695 447.5275 51.0457 433.3375 51.0435 419.2800 C51.0403 400.5550 51.3240 381.7750 50.9375 363.0575 C60.0725 361.9650 65.9225 361.9375 74.9583 358.4200 C78.9685 356.8575 82.4600 354.3750 86.1543 352.2200 C95.6095 346.7050 105.4503 343.5000 116.3757 342.6050 Z"></path>
<path id="" fill="#fce201" fill-opacity="1.0" stroke="#000000" stroke-width="0.0" stroke-opacity="1.0" stroke-linecap="round" stroke-linejoin="round"  filling="0" d="M50.9790 249.9608 L461.0500 249.9828 C460.8775 254.4225 461.0025 258.9150 461.0025 263.3600 L461.0025 288.1575 L461.0075 363.6175 C450.3125 362.8725 439.2025 361.1725 429.4975 356.3550 C425.0125 354.1275 420.7575 351.2000 416.3200 348.8200 C412.6225 347.1125 408.7950 345.3750 404.8225 344.4250 C401.3975 343.6050 397.8575 343.5975 394.3550 343.5975 C382.1650 343.5950 375.5425 345.6600 364.7375 350.7875 C360.7000 352.7025 356.9600 355.3500 352.8675 357.1050 C342.7375 361.4550 330.7875 363.9425 319.7575 363.5375 C310.9625 363.2175 300.0300 360.6475 292.2850 356.3525 C290.0875 355.1325 288.0650 353.5975 285.9275 352.2700 C280.6075 348.9625 274.6900 346.0250 268.5825 344.5750 C262.6775 343.1700 254.1200 343.3575 248.0522 343.8475 C235.4397 344.8725 226.3050 352.6725 215.2610 357.8200 C206.2272 362.0300 195.5605 363.7675 185.6110 363.5925 C177.0847 363.4425 166.3513 361.2950 158.5240 358.0450 C154.6528 356.4375 150.8840 354.2200 147.1850 352.2300 C141.9603 349.4225 136.1478 346.1725 130.3598 344.7225 C124.0715 343.1500 116.6385 343.3825 110.1852 343.7325 C100.9147 344.2375 92.0750 349.0925 84.1888 353.6650 C80.9730 355.5275 77.8095 357.5075 74.3720 358.9450 C67.5690 361.7875 58.4830 363.1175 51.0768 363.6900 C50.8123 359.0100 50.9725 354.2500 50.9755 349.5600 L50.9877 325.1975 L50.9790 249.9608 Z"></path>
<path id="" fill="#ccd8dd" fill-opacity="1.0" stroke="#000000" stroke-width="0.0" stroke-opacity="1.0" stroke-linecap="round" stroke-linejoin="round"  filling="0" d="M361.6300 51.0938 C362.6475 50.9512 363.7200 50.9890 364.7425 51.0385 C382.1025 51.8740 395.1675 59.1950 406.5875 72.0130 C414.4775 80.8675 419.7350 95.8900 419.0175 107.6610 C418.0725 108.1230 417.0650 108.5325 416.0250 108.7030 C412.2825 109.3163 408.2025 109.0372 404.4100 109.0447 C399.5675 109.0545 394.6875 109.1758 389.8475 109.0195 C389.3650 109.0040 388.2550 108.9928 387.8400 108.7253 C387.4975 108.5035 386.9975 104.4003 386.9100 103.7935 C386.2050 98.9170 384.2500 94.2310 380.8000 90.6432 C376.7025 86.3790 369.9150 83.0875 363.9525 83.0280 C357.5025 82.9637 350.7700 85.6497 346.1975 90.2038 C342.3425 94.0437 340.0625 99.1250 339.3450 104.4958 C338.5100 110.7300 339.0575 119.6777 339.0600 126.2028 L339.0625 168.1430 L339.0375 313.8750 L339.0400 346.8675 C339.0475 350.1425 339.5550 359.2350 338.8325 362.0150 C338.4300 362.2550 338.0600 362.4300 337.6075 362.5600 C335.1075 363.2875 332.2975 363.4175 329.7075 363.7025 C326.4725 364.0575 322.9650 364.7125 319.7300 364.6650 C315.2275 364.6000 309.8575 363.4375 305.8550 361.3775 C307.8100 353.8900 307.0075 345.4275 307.0025 337.7025 L306.9850 311.5100 L306.9775 168.2500 L306.9750 128.4580 C306.9675 119.2452 306.3975 109.7307 307.8150 100.6168 C309.4850 89.8910 313.0625 80.3503 319.9250 71.7827 C327.4325 62.4122 338.4750 55.7623 350.0875 52.9060 C353.8725 51.9750 357.7650 51.5302 361.6300 51.0938 Z"></path>
<path id="" fill="#ccd8dd" fill-opacity="1.0" stroke="#000000" stroke-width="0.0" stroke-opacity="1.0" stroke-linecap="round" stroke-linejoin="round"  filling="0" d="M225.9160 51.1003 C226.0428 51.0890 226.1703 51.0843 226.2975 51.0813 C229.0047 51.0165 231.8123 51.4003 234.4962 51.7603 C246.8955 53.4240 257.1800 58.5340 266.1950 67.2380 C278.0200 78.6557 282.9050 91.7625 283.2125 108.0525 C273.9175 107.8340 264.6050 108.1515 255.3075 108.0480 C254.8125 108.0425 252.1525 108.0270 251.9275 107.7372 C251.0200 106.5800 250.6575 101.4025 250.1850 99.6752 C249.1515 95.9080 247.0305 92.7288 244.3017 89.9675 C240.1933 85.8098 233.6160 83.0447 227.7670 83.0283 C221.3310 83.0105 214.7417 85.6785 210.1955 90.2368 C206.2150 94.2275 204.0728 99.1705 203.3360 104.7160 C202.5115 110.9230 203.0477 119.8450 203.0538 126.2753 L203.0670 168.8687 L203.0428 313.9275 L203.0530 362.7675 C196.9913 364.8375 178.3313 364.4150 172.2125 362.7575 C171.2570 362.4975 170.6938 362.2050 170.2030 361.3350 C170.1380 359.2525 170.9543 357.2775 170.9885 355.1900 C171.1573 344.9550 170.9812 334.6825 170.9845 324.4425 L170.9778 210.7255 L170.9688 142.0033 C170.9668 127.3915 170.0853 111.4688 172.3188 97.0640 C173.8233 87.3625 178.7587 78.2063 184.9512 70.7110 C195.3795 58.0887 210.0643 52.5970 225.9160 51.1003 Z"></path>
<path id="" fill="#0adcfd" fill-opacity="1.0" stroke="#000000" stroke-width="0.0" stroke-opacity="1.0" stroke-linecap="round" stroke-linejoin="round"  filling="0" d="M50.9552 347.0125 C60.8703 346.5525 70.2623 344.0900 78.8425 339.0050 C82.7660 336.6775 86.2502 333.7400 89.9818 331.1375 C96.9285 326.2925 105.4125 322.8550 113.8275 321.7850 C125.2962 320.3300 137.0645 323.6325 146.6808 329.9125 C150.9422 332.6975 154.8327 335.9725 159.1897 338.6275 C167.8590 343.9075 176.8325 346.9125 187.0208 346.9850 C196.4245 347.1375 205.6913 344.7200 213.8248 340.0000 C224.9117 333.6650 230.6150 326.5800 243.9715 323.0425 C247.9017 322.0000 252.0400 321.3250 256.1150 321.3900 C265.9950 321.5475 275.0400 324.6850 283.3475 329.9200 C286.5125 331.9150 289.4050 334.3375 292.4850 336.4625 C299.0275 340.9775 307.1975 344.9975 315.0650 346.4250 C319.7150 347.2675 325.0400 347.1500 329.7575 346.8250 C333.1025 346.5975 336.2300 345.7150 339.3975 344.6625 C344.1475 343.1250 348.6950 341.0200 352.9400 338.3950 C356.9850 335.9125 360.6700 332.9100 364.6125 330.2825 C372.8425 324.7950 382.9600 321.2725 392.9200 321.3975 C403.9075 321.5350 414.7525 325.6800 423.4100 332.3625 C428.2300 336.0825 432.5400 339.8700 438.1175 342.5375 C445.0775 345.8675 453.4025 347.0250 461.0650 346.9700 C461.0600 357.6975 460.9400 368.4425 461.0850 379.1700 C460.9775 390.1325 460.7250 401.2225 461.1325 412.1725 C459.0250 411.9750 456.8650 412.0800 454.7475 411.9600 C449.9325 411.6825 444.7850 410.6400 440.2800 408.9100 C433.6200 406.3525 428.7825 401.8325 423.3050 397.5000 C415.0225 390.9500 403.4900 386.9800 392.9900 387.0050 C382.3725 386.9325 372.0025 390.2125 363.3600 396.3775 C359.4550 399.1125 355.7950 402.1275 351.6950 404.5850 C341.4725 410.7125 329.0125 413.1800 317.2050 411.7575 C308.6750 410.7325 300.4725 406.9775 293.3325 402.2975 C283.3075 395.7250 276.8775 389.5175 264.2950 387.4500 C260.4625 386.8200 256.4000 386.9325 252.5225 387.0775 C243.5135 387.4150 234.3575 391.0475 226.9935 396.1600 C223.7717 398.3950 220.7832 400.9625 217.4733 403.0750 C207.1715 409.6500 196.3780 412.6800 184.1655 412.0050 C157.9110 410.5525 150.2735 391.2775 127.2625 387.4450 C123.2957 386.7825 119.0065 386.9050 114.9922 387.0975 C110.8138 387.2950 107.1833 388.1675 103.2603 389.5975 C99.6615 390.9100 96.1780 392.4725 92.9167 394.4925 C87.1438 398.0700 82.0305 402.5350 76.0147 405.7750 C68.1552 410.0100 59.8960 411.9900 51.0163 412.2875 L50.9875 379.1400 C50.9890 368.4625 51.2812 357.6800 50.9552 347.0125 Z"></path>
<path id="" fill="#81f3f7" fill-opacity="1.0" stroke="#000000" stroke-width="0.0" stroke-opacity="1.0" stroke-linecap="round" stroke-linejoin="round"  filling="0" d="M50.9552 347.0125 C60.8703 346.5525 70.2623 344.0900 78.8425 339.0050 C82.7660 336.6775 86.2502 333.7400 89.9818 331.1375 C96.9285 326.2925 105.4125 322.8550 113.8275 321.7850 C125.2962 320.3300 137.0645 323.6325 146.6808 329.9125 C150.9422 332.6975 154.8327 335.9725 159.1897 338.6275 C167.8590 343.9075 176.8325 346.9125 187.0208 346.9850 C196.4245 347.1375 205.6913 344.7200 213.8248 340.0000 C224.9117 333.6650 230.6150 326.5800 243.9715 323.0425 C247.9017 322.0000 252.0400 321.3250 256.1150 321.3900 C265.9950 321.5475 275.0400 324.6850 283.3475 329.9200 C286.5125 331.9150 289.4050 334.3375 292.4850 336.4625 C299.0275 340.9775 307.1975 344.9975 315.0650 346.4250 C319.7150 347.2675 325.0400 347.1500 329.7575 346.8250 C333.1025 346.5975 336.2300 345.7150 339.3975 344.6625 C344.1475 343.1250 348.6950 341.0200 352.9400 338.3950 C356.9850 335.9125 360.6700 332.9100 364.6125 330.2825 C372.8425 324.7950 382.9600 321.2725 392.9200 321.3975 C403.9075 321.5350 414.7525 325.6800 423.4100 332.3625 C428.2300 336.0825 432.5400 339.8700 438.1175 342.5375 C445.0775 345.8675 453.4025 347.0250 461.0650 346.9700 C461.0600 357.6975 460.9400 368.4425 461.0850 379.1700 C452.8650 378.9925 444.7850 378.0125 437.3000 374.3950 C432.4000 372.0250 428.5900 368.6525 424.3750 365.3050 C417.0400 359.4750 407.9675 355.2450 398.6375 354.0200 C386.5700 352.4350 374.5550 355.8150 364.4925 362.5025 C360.4100 365.2175 356.6550 368.3825 352.4450 370.9175 C343.9225 376.0525 334.2950 379.0825 324.3100 379.1050 C313.6300 379.1325 303.6875 375.8150 294.6900 370.1750 C291.1375 367.9500 287.9075 365.2425 284.4400 362.8925 C275.9350 357.1300 266.1350 353.6250 255.8150 353.6575 C245.5850 353.6875 235.8445 357.0900 227.4115 362.8100 C223.8568 365.2200 220.5300 367.9550 216.8938 370.2475 C207.0030 376.4825 195.6515 379.7975 183.9310 378.9775 C174.7637 378.3375 166.2015 375.2350 158.4255 370.4000 C154.7280 368.1000 151.3630 365.3225 147.7700 362.8700 C139.2865 357.0825 129.4325 353.6175 119.1225 353.6550 C109.0342 353.6900 99.2760 357.0675 90.9368 362.6800 C87.4987 364.9925 84.3067 367.6625 80.8140 369.9000 C71.9702 375.5625 61.5708 379.2000 50.9875 379.1400 C50.9890 368.4625 51.2812 357.6800 50.9552 347.0125 Z"></path>
<path id="" fill="#b6cdd5" fill-opacity="1.0" stroke="#000000" stroke-width="0.0" stroke-opacity="1.0" stroke-linecap="round" stroke-linejoin="round"  filling="0" d="M203.0975 280.0825 C206.4970 279.5475 210.4592 279.8825 213.9160 279.8975 L233.8947 279.9425 L307.1050 279.9250 C306.9325 286.1475 306.6950 292.8700 307.2200 299.0575 C303.6925 298.9625 300.1525 299.0225 296.6250 299.0175 L234.4240 299.0250 L214.4050 299.0375 C210.6348 299.0375 206.7598 299.2275 203.0050 298.8975 C200.5957 298.6875 198.2142 298.3350 196.1900 296.9075 C194.1727 295.4875 192.7550 293.1750 192.3405 290.7475 C191.9375 288.3875 192.7685 286.1000 194.2003 284.2350 C196.6042 281.1050 199.4325 280.6150 203.0975 280.0825 Z"></path>
<path id="" fill="#b6cdd5" fill-opacity="1.0" stroke="#000000" stroke-width="0.0" stroke-opacity="1.0" stroke-linecap="round" stroke-linejoin="round"  filling="0" d="M204.3965 200.0890 C208.0302 199.5802 212.0717 199.8958 215.7405 199.9075 L235.8237 199.9400 L307.1050 199.9250 C306.9325 206.1467 306.6950 212.8703 307.2200 219.0570 C303.6100 218.9610 299.9850 219.0233 296.3750 219.0165 L234.3423 219.0200 C224.0135 219.0205 213.6353 219.2442 203.3127 219.0152 C200.1198 218.9445 197.6362 218.5098 195.3667 216.0208 C192.7222 213.1210 192.8630 209.4843 192.9982 205.8290 C193.3625 205.2993 193.7422 204.7802 194.1370 204.2725 C196.8802 200.7982 200.3573 200.5872 204.3965 200.0890 Z"></path>
</svg>