<svg xmlns="http://www.w3.org/2000/svg" viewBox="0 0 512 512" height="512.0px" width="512.0px">
<path id="" fill="#4762e1" fill-opacity="1.0" stroke="#000000" stroke-width="0.0" stroke-opacity="1.0" stroke-linecap="round" stroke-linejoin="round"  filling="0" d="M98.3362 106.1025 C106.7617 105.3183 114.9230 107.3197 121.9065 112.0443 C129.6902 117.3100 135.3680 124.7820 141.4765 131.7825 C143.9940 134.6680 146.7827 137.2900 149.3898 140.0915 C151.5352 142.3975 153.4707 144.8825 155.6750 147.1378 C167.7565 159.4975 180.1905 171.5055 192.3667 183.7688 C197.0412 188.4770 202.0265 193.0280 206.4150 197.9993 C213.1330 205.6090 219.2285 214.0148 224.8952 222.4317 C229.6820 229.5423 234.0598 237.0647 238.3528 244.4872 C255.1700 273.5650 269.5550 304.3175 289.6350 331.3825 C303.1425 349.5850 320.0100 365.4925 338.0175 379.1525 C342.2575 382.3700 346.8650 385.2300 351.3150 388.1500 C368.7950 399.5000 386.9650 409.7500 405.7175 418.8400 C411.7925 421.8175 418.8600 425.5975 425.3125 427.4800 C429.9400 428.8325 434.6025 429.1450 439.3650 428.4825 C441.9475 426.4625 444.1275 423.8825 446.8875 422.0850 C448.9200 420.7600 451.2025 420.1625 453.6025 420.7400 C456.0050 421.3175 457.7100 422.9775 458.9400 425.0375 C459.1200 428.2950 458.9725 430.6750 456.8725 433.3525 C453.1600 438.0875 448.2875 442.3375 444.0200 446.6000 C440.6725 449.9450 436.9500 454.4650 433.0700 457.0625 C430.0625 459.0775 426.5575 460.0275 423.0100 460.4550 C422.3975 460.5525 421.7825 460.6275 421.1675 460.6875 C412.4750 461.5025 403.1125 460.2775 394.5600 458.7650 C360.5800 452.7500 314.8050 434.5475 288.1475 412.3350 C279.6475 405.2525 271.9900 397.4175 264.1750 389.6025 L237.7765 363.1925 L150.3595 275.7450 L90.2628 215.6495 L72.7620 198.1475 C69.1992 194.5813 65.2643 191.0522 62.2240 187.0260 C56.9902 180.0950 54.2513 170.0392 53.4810 161.4890 C52.2620 147.9585 54.5007 130.2988 63.5258 119.5738 C70.3213 111.4985 88.1700 106.9975 98.3362 106.1025 Z"></path>
<path id="" fill="#a4c0e9" fill-opacity="1.0" stroke="#000000" stroke-width="0.0" stroke-opacity="1.0" stroke-linecap="round" stroke-linejoin="round"  filling="0" d="M219.7660 51.0992 C221.7677 50.8685 223.9547 51.0612 225.9390 51.3905 C242.7318 54.1770 241.5915 72.3503 243.8840 85.4232 C245.7495 96.0610 248.3830 106.4550 254.7725 115.3745 C258.4350 120.4850 263.1675 124.5967 268.3175 128.1465 C272.7750 131.2193 277.8150 134.0775 283.1400 135.3000 C292.7550 137.5087 304.9300 134.8760 314.7475 134.1122 C321.8500 133.5598 329.7075 133.7043 336.7325 134.8503 C346.3875 136.4247 358.0325 139.9518 363.0150 149.1995 C368.8975 160.1200 368.0900 187.7733 368.0800 200.3480 L368.0675 228.8760 C368.1025 233.3855 368.6700 237.8313 368.9300 242.3235 C369.1650 246.3517 369.0725 250.3900 369.3675 254.4200 C371.0775 277.8700 374.7550 301.1875 383.0275 323.2800 C385.4025 329.6250 387.5800 333.6350 390.7125 339.5275 C402.2975 361.3075 417.5325 381.2025 433.2075 400.1800 C436.7700 404.4925 440.3075 408.8725 443.9950 413.0800 C446.1225 415.5075 448.5925 417.7650 450.4500 420.4100 L450.6725 420.7275 C448.6000 422.2150 446.4825 423.6075 444.5450 425.2775 C439.3725 429.7375 435.1675 434.5075 428.3175 436.4475 C426.4175 436.9875 424.5000 437.1700 422.5425 436.8250 C411.2325 434.8275 384.8600 419.9325 373.7525 413.7800 C357.6425 404.2225 341.9725 394.5350 326.9725 383.2675 C317.7425 376.3350 308.7850 368.9475 301.0375 360.3500 C287.9475 345.8250 278.1050 326.8300 269.2000 309.5625 C267.1650 305.6125 264.9125 301.7825 262.9050 297.8175 C256.3050 284.7725 250.0100 271.5775 243.0240 258.7350 C233.8825 241.9342 224.6698 224.7150 212.7587 209.6760 C209.5578 205.6342 205.7392 202.0600 202.0710 198.4495 L190.2157 186.6445 C184.1752 180.6115 178.0530 174.6170 172.1230 168.4790 C169.9698 166.2502 168.0748 163.7823 165.9710 161.5067 C163.0092 158.3038 159.8180 155.2702 156.7318 152.1835 C146.4747 141.9250 136.0085 131.8602 126.3343 121.0533 C123.0567 117.3918 119.8340 113.9455 116.9310 109.9640 C118.0455 105.8488 118.8380 101.1592 121.6217 97.7903 C123.1485 95.9425 125.0570 94.6115 127.0818 93.3613 C130.8110 91.0585 134.8385 89.4057 138.7298 87.4215 C141.1790 86.1725 143.5315 84.7345 145.9653 83.4540 C149.8723 81.3983 153.8602 79.4738 157.8092 77.4985 C166.7543 73.0242 175.7328 68.7085 184.7558 64.4005 C191.8737 61.0020 199.0460 57.4753 206.4030 54.6227 C210.8030 52.9167 215.0482 51.5862 219.7660 51.0992 Z"></path>
<path id="" fill="#1c8ce9" fill-opacity="1.0" stroke="#000000" stroke-width="0.0" stroke-opacity="1.0" stroke-linecap="round" stroke-linejoin="round"  filling="0" d="M170.3607 66.3492 C174.5260 66.5790 178.2247 68.5355 181.1288 71.4905 C193.0222 83.5925 203.7465 121.3903 207.5280 138.1752 C209.6102 147.7043 211.2482 157.3248 212.4370 167.0060 C213.0262 172.1973 213.0813 177.3285 213.0582 182.5473 C213.0282 189.3548 211.7912 196.8430 206.6005 201.7863 C203.3180 204.9125 196.4865 207.2655 192.0108 207.0195 C190.6203 206.9433 189.2953 206.5838 188.0920 205.8743 C183.3997 203.1073 172.4993 190.6020 168.3285 185.9037 C165.0587 182.3315 161.4810 178.9720 158.0558 175.5457 L137.6958 155.2047 C135.1308 152.6288 132.9803 149.6870 130.4353 147.1105 C127.2205 143.8557 123.6045 140.9987 120.3815 137.7365 C115.0660 132.3568 109.9003 126.1055 105.0558 120.2773 C104.3255 114.7498 106.8268 112.0592 108.6783 107.2315 C112.8675 105.0210 116.5135 100.7632 120.1840 97.7445 C130.9588 88.8830 156.9305 67.4670 170.3607 66.3492 Z"></path>
<path id="" fill="#fe436f" fill-opacity="1.0" stroke="#000000" stroke-width="0.0" stroke-opacity="1.0" stroke-linecap="round" stroke-linejoin="round"  filling="0" d="M98.7655 102.0558 C100.0385 101.9182 101.4463 101.8790 102.7165 102.0562 C105.5270 102.4485 107.7780 103.7080 109.9052 105.5185 C112.5738 107.7895 114.9905 110.4197 117.4570 112.9100 L128.6900 124.1848 L167.0087 162.4910 L195.4998 190.9875 C200.6452 196.1340 206.2453 200.7625 210.5347 206.6613 C208.1170 209.7012 205.0688 212.8228 202.1008 215.3288 C198.6962 218.2038 195.0963 219.5190 190.6042 219.1440 C188.8510 218.8710 187.1973 218.1792 185.6755 217.2795 C181.5932 214.8658 174.3307 206.7065 170.7258 203.1020 L145.1365 177.5765 C141.2560 173.7088 137.4317 169.7518 133.4527 165.9875 C130.9345 163.6053 128.2265 161.4310 125.7383 159.0160 C117.9262 151.4335 110.2913 143.6450 102.5780 135.9608 C95.6633 129.0720 88.6370 122.2730 81.8180 115.2910 C80.7697 114.2177 78.9498 112.7517 78.6443 111.2680 C78.5405 110.7630 78.5938 110.6397 78.9008 110.2160 C80.5850 107.8913 95.4553 102.7487 98.7655 102.0558 Z"></path>
</svg>