<svg xmlns="http://www.w3.org/2000/svg" viewBox="0 0 512 512" height="512.0px" width="512.0px">
<path id="" fill="#fe4c0d" fill-opacity="1.0" stroke="#000000" stroke-width="0.0" stroke-opacity="1.0" stroke-linecap="round" stroke-linejoin="round"  filling="0" d="M201.8455 51.3035 C204.3115 51.0055 206.6777 51.2502 209.0535 51.9532 C217.1230 54.3420 224.6565 59.5340 231.6535 64.0547 C241.6687 70.6588 251.1275 78.0717 259.9325 86.2193 C264.0225 89.9745 268.1050 93.6705 271.9250 97.7115 C287.7125 114.4120 299.9900 134.2725 310.0200 154.8710 C312.0325 159.0043 314.1175 163.1582 315.9250 167.3840 C317.9775 172.1772 319.7250 177.1575 321.5600 182.0408 C323.1450 186.2690 324.8225 192.7110 326.8525 196.4193 L327.0675 196.3378 C327.9000 194.8613 329.0625 193.7040 329.9800 192.2920 C332.0550 189.0943 335.8725 182.5802 337.1825 179.1508 C338.3625 176.0627 339.4300 172.8590 340.1825 169.6413 C341.0825 165.7867 341.6525 161.6215 343.2025 157.9722 C343.8675 156.4090 344.9050 154.5898 346.6075 153.9960 C347.6075 153.6467 348.6150 153.8033 349.5550 154.2585 C352.9100 155.8875 356.0250 160.6283 358.2875 163.5020 C373.9575 183.4108 390.1200 212.2088 397.6975 236.3640 C408.1625 269.7150 410.9350 310.5375 402.7850 344.7050 C399.8600 357.0050 395.4050 368.8900 389.5200 380.0800 C373.0975 411.4250 346.1525 435.9800 313.4225 449.4250 C308.3175 451.5625 303.0925 453.2600 297.8175 454.9150 C292.1850 455.9900 286.6450 457.9025 280.8850 458.9275 C242.1415 465.4850 202.3775 456.4725 170.2465 433.8550 C137.9305 411.2400 114.0753 375.5125 107.2015 336.5175 C101.3580 303.3675 105.9545 275.5250 118.7592 244.5960 C123.2305 233.7962 128.4758 223.2923 132.9335 212.4970 C134.8627 207.8255 136.5797 202.9433 138.1897 198.1525 C139.6308 193.8642 140.4140 188.2908 143.1060 184.6328 C143.7628 183.7402 144.4290 183.1107 145.5632 182.9758 C147.5202 182.7428 149.2097 183.4857 150.6865 184.7310 C152.8030 186.5160 154.4160 189.0470 155.7750 191.4285 C161.0123 200.6053 161.4382 207.4505 162.1938 217.6432 C168.7555 213.0225 176.8313 203.9362 181.8175 197.6293 C188.5975 189.1075 194.4187 179.8652 199.1760 170.0695 C210.1540 147.9175 215.1832 125.0172 210.2425 100.4505 C209.0847 94.6930 207.2580 88.9725 205.3710 83.4187 C202.9223 76.2108 196.8268 63.4780 198.3578 55.9965 C198.8073 53.7990 200.0280 52.5137 201.8455 51.3035 Z"></path>
<path id="" fill="#fc9402" fill-opacity="1.0" stroke="#000000" stroke-width="0.0" stroke-opacity="1.0" stroke-linecap="round" stroke-linejoin="round"  filling="0" d="M244.6653 205.9633 C245.7305 205.9295 246.3698 205.9942 247.3060 206.5217 C257.5100 212.2697 276.2250 248.4023 281.3400 259.6975 C283.9075 265.3700 286.1725 271.5500 288.0900 277.4750 C289.6475 282.2950 291.0575 287.2675 292.0500 292.2350 C292.9050 296.5125 293.4425 300.9125 294.6025 305.1175 L295.0850 305.2675 C297.1600 304.5650 298.9100 302.5925 300.4650 301.0800 C304.1450 297.4975 307.2975 293.5625 309.8725 289.1175 C312.7450 284.1650 317.5050 271.2800 321.4025 268.1900 C321.4850 268.1275 321.5650 268.0650 321.6475 268.0025 C323.3375 267.8850 325.3075 267.5925 326.9325 268.1750 C332.7875 270.2850 341.3675 285.6025 344.3500 291.5025 C354.9125 312.3750 360.0425 331.4100 360.0600 354.9250 C360.0625 358.5475 360.2000 362.2525 359.9475 365.8650 C359.3700 374.1550 357.3000 382.7775 354.7000 390.6475 C347.5050 412.4150 331.7750 431.6750 312.6775 444.1600 C307.5975 447.4800 301.9900 450.2350 296.5650 452.9475 C296.2675 453.1200 295.9675 453.2825 295.6625 453.4400 C285.7650 458.5650 266.8575 461.0250 255.5875 461.0125 C250.3525 461.0075 245.1390 460.4175 239.9357 459.9050 C234.6628 459.3850 229.0045 458.7725 223.9503 457.1350 C218.9665 455.5200 214.4075 452.8950 209.8040 450.4425 C205.6800 448.2450 201.4818 446.0025 197.5865 443.4150 C182.7303 433.3475 170.6362 419.7150 162.4117 403.7650 C150.5623 380.6500 147.6110 351.0600 155.6290 326.3175 C156.7888 322.7400 157.9673 319.1225 159.5573 315.7075 C164.9195 304.1975 173.5670 293.2825 182.3127 284.1425 C187.7925 278.4175 193.6310 273.0250 199.1300 267.3175 C201.2157 265.1525 203.0545 262.7675 205.0728 260.5425 C211.4182 253.5450 217.5137 246.6205 223.0372 238.9360 C226.9232 233.5300 230.9238 228.2020 234.1427 222.3627 C236.5335 218.0258 238.3008 213.0343 241.1062 208.9783 C242.1340 207.4925 243.0733 206.7758 244.6653 205.9633 Z"></path>
<path id="" fill="#fce101" fill-opacity="1.0" stroke="#000000" stroke-width="0.0" stroke-opacity="1.0" stroke-linecap="round" stroke-linejoin="round"  filling="0" d="M255.9025 346.8450 C256.0825 346.8325 256.2625 346.8175 256.4425 346.8150 C259.9825 346.7525 262.6125 347.8675 265.1250 350.3800 C267.2375 352.4925 268.6900 354.9675 269.9300 357.6675 C272.4200 363.0875 274.1750 368.8100 276.1025 374.4425 C278.0675 380.0100 280.1225 385.5450 282.2725 391.0425 C284.2325 395.9775 286.3025 400.9350 288.5400 405.7500 C290.2100 409.3475 292.2050 412.8000 293.4450 416.5800 C294.6350 420.0900 295.2250 423.7750 295.1900 427.4825 C295.1300 436.2050 290.8100 444.0500 284.7025 449.9900 C276.6200 457.8525 266.5675 461.1225 255.3475 461.0000 C250.8150 460.5500 246.3260 459.4025 241.8050 458.7925 C241.1662 458.7050 240.6842 458.6900 240.1093 458.3600 C238.9738 457.7050 237.9780 456.6600 236.9312 455.8575 C235.2467 454.5650 233.5025 453.3550 231.7988 452.0875 C222.7897 445.3975 217.8625 432.2000 216.3790 421.4675 C213.4673 400.4000 221.1805 381.0800 233.7677 364.4850 C238.4902 358.2575 247.8145 347.9475 255.9025 346.8450 Z"></path>
</svg>