<svg xmlns="http://www.w3.org/2000/svg" viewBox="0 0 512 512" height="512.0px" width="512.0px">
<path id="" fill="#87d6cd" fill-opacity="1.0" stroke="#000000" stroke-width="0.0" stroke-opacity="1.0" stroke-linecap="round" stroke-linejoin="round"  filling="0" d="M143.1438 71.1435 C147.0562 70.7495 151.2027 70.9330 155.0895 71.4682 C160.3230 72.1892 165.6967 72.9928 170.7830 74.4215 C197.6535 81.9698 219.5318 100.8288 236.0595 122.7722 C255.6875 148.8322 270.0525 181.2500 270.0950 214.2800 C270.1000 218.6712 270.1350 223.0025 269.5150 227.3642 C266.7550 246.7903 259.0225 266.0975 242.8082 278.1825 C228.0120 289.2075 209.6142 291.7000 191.7292 289.1625 C166.1785 285.9450 139.0515 271.9900 119.4522 255.5800 C117.0063 253.5325 114.7937 251.2250 112.4297 249.0847 C109.7790 246.6862 106.9900 244.5075 104.4370 241.9892 C93.6057 231.3053 82.3678 216.4890 75.4700 202.9475 C73.6350 199.3448 72.1633 195.5703 70.6795 191.8130 C67.6032 184.0220 65.0900 175.4030 64.3325 167.0347 C63.7105 160.1645 63.5065 152.2092 64.3335 145.3483 C66.3145 128.9122 74.0970 112.6850 84.6582 100.0908 C93.2925 89.7943 106.4008 80.8415 119.0475 76.2072 C126.6277 73.4297 135.1107 71.8467 143.1438 71.1435 Z"></path>
<path id="" fill="#4aa598" fill-opacity="1.0" stroke="#000000" stroke-width="0.0" stroke-opacity="1.0" stroke-linecap="round" stroke-linejoin="round"  filling="0" d="M146.4210 65.1072 C151.5805 64.5788 157.2825 64.9865 162.4340 65.5485 C194.1048 69.0025 221.2740 90.4215 240.5760 114.5525 C261.7250 140.9928 275.4775 176.8960 275.7575 210.9133 C275.8000 216.1418 275.3425 221.3642 274.7575 226.5562 C272.4475 247.0150 263.4300 268.9950 247.0320 282.0200 C230.3208 295.2975 210.6100 296.7500 190.1890 294.4100 C162.2285 291.0850 130.7890 274.1850 109.7702 256.0600 C106.0990 252.8925 101.5797 248.9892 98.2087 245.6198 C95.1367 242.5488 92.3245 239.1662 89.5115 235.8580 C73.1927 216.6655 61.0878 194.2677 59.2223 168.7417 C57.5595 145.9913 62.5822 125.1585 75.9128 106.4785 C78.2735 103.1705 81.0185 100.0410 83.6850 96.9733 C87.4675 92.6212 91.7452 88.8992 96.2688 85.3415 C110.8290 73.8903 127.7937 66.3907 146.4210 65.1072 Z M190.7840 278.9125 C194.5460 279.2725 198.3598 279.7600 202.1355 279.8700 C205.3630 279.9675 208.5310 279.6775 211.7330 279.3175 C221.0952 278.2650 228.8383 275.9225 236.2250 269.8750 C249.5770 258.9400 257.0950 240.3375 258.7525 223.4860 C262.3025 187.3835 249.1275 149.8952 226.1268 122.1695 C223.0513 118.4625 219.8058 114.5330 216.4073 111.1283 C214.5517 109.2693 212.4012 107.6490 210.4230 105.9193 C198.7498 95.7120 187.8783 88.0497 172.8047 83.5132 C169.1855 82.4243 165.4388 81.4128 161.6658 81.0890 C156.0820 80.6100 149.3582 80.5443 143.7807 81.0977 C125.5615 82.8460 105.4375 95.4803 93.9040 109.4557 C83.6483 121.8832 77.8723 131.6317 75.2495 147.8242 C74.2705 153.8692 73.8392 159.4393 74.4295 165.5700 C77.8360 200.9523 99.3522 227.2847 126.0085 249.0587 C128.5473 251.1325 131.3840 252.9225 134.0780 254.7900 C147.3002 263.9675 160.9288 271.2700 176.4303 275.7975 C181.1720 277.1825 185.8537 278.4150 190.7840 278.9125 Z"></path>
<path id="" fill="#9dad2b" fill-opacity="1.0" stroke="#000000" stroke-width="0.0" stroke-opacity="1.0" stroke-linecap="round" stroke-linejoin="round"  filling="0" d="M356.5350 64.6010 C373.6925 62.4897 397.1450 71.3907 410.9025 81.4218 C431.8600 96.7045 448.3225 119.3477 452.2475 145.3760 C452.9225 149.8633 453.0425 154.3922 453.0650 158.9223 C453.0800 162.2240 453.1825 165.5943 452.8925 168.8858 C451.1275 188.9275 442.7950 208.9648 430.8400 225.0920 C427.7875 229.2063 424.6025 233.4330 421.1950 237.2502 C418.7100 240.0338 415.9675 242.6335 413.3250 245.2685 C389.5650 268.9625 357.3550 290.2200 323.5750 295.1750 C319.7825 295.7675 315.9725 296.2500 312.1500 296.6175 C293.1100 298.4325 272.9575 293.8875 258.0375 281.4650 C239.7370 266.2275 231.7055 246.4393 229.5892 223.2275 C227.4095 199.3188 234.7762 175.7812 244.9380 154.4267 C247.0075 150.0777 249.0085 145.6480 251.4625 141.4993 C252.8975 139.0712 254.6000 136.7883 256.1725 134.4460 C261.1225 126.9770 266.4575 119.7708 272.1550 112.8565 C278.9800 104.6710 287.5950 96.5567 295.9050 89.8708 C299.9700 86.5992 304.0225 83.2923 308.3825 80.4110 C323.0275 70.7298 339.2225 66.1720 356.5350 64.6010 Z"></path>
<path id="" fill="#d2d772" fill-opacity="1.0" stroke="#000000" stroke-width="0.0" stroke-opacity="1.0" stroke-linecap="round" stroke-linejoin="round"  filling="0" d="M353.9850 80.3940 C367.9100 78.9740 383.2150 82.3177 395.1600 89.5965 C414.2200 101.2087 430.4200 119.6068 435.7600 141.6735 C441.4125 165.0245 435.6500 188.9682 423.2500 209.1532 C407.3825 234.9825 376.3225 260.1850 348.6000 272.1050 C341.4850 275.1650 334.2150 277.2425 326.6975 279.0425 C321.9950 279.9600 317.2500 280.6325 312.4750 281.0575 C295.9300 282.5600 279.8400 279.0600 266.9225 268.1750 C253.6900 257.0275 246.8080 241.0455 245.3375 224.0555 C242.8342 195.1342 254.5775 166.1158 270.0950 142.3060 C273.5225 137.0475 276.9175 131.9342 280.9650 127.1217 C284.4125 123.0218 287.8475 118.7578 291.5500 114.8903 C297.4075 108.7725 304.0350 103.1005 310.8175 98.0340 C313.6150 95.9460 316.3700 93.7807 319.3150 91.9033 C329.7700 85.3197 341.6675 81.3705 353.9850 80.3940 Z"></path>
<path id="" fill="#eec261" fill-opacity="1.0" stroke="#000000" stroke-width="0.0" stroke-opacity="1.0" stroke-linecap="round" stroke-linejoin="round"  filling="0" d="M238.6328 61.1048 C241.7027 60.8692 244.8285 60.9855 247.9068 60.9740 C262.1550 60.9212 273.3275 62.7217 286.0525 69.3750 C289.5650 71.2110 292.9600 73.0963 296.1775 75.4238 C298.0025 76.7433 303.5350 82.0425 305.1850 82.3975 C305.8875 82.2350 306.5475 81.9815 307.2450 82.2685 C307.7050 82.8618 307.6975 83.2363 307.7825 83.9810 C308.0625 86.4320 311.7875 89.6837 313.3675 91.5632 C316.8200 95.6667 319.9375 101.8197 322.3800 106.6078 C324.0700 109.9178 325.8675 113.2368 327.3200 116.6565 C328.5950 119.6615 329.4775 122.7737 330.4750 125.8755 C331.5500 129.2105 332.8075 132.5293 333.6325 135.9362 C334.2025 138.2850 334.3575 140.7097 334.7000 143.0965 C335.1850 146.4745 335.8075 149.8465 336.0000 153.2583 C336.2625 157.8542 336.0575 162.5375 336.0675 167.1432 C336.0775 172.9140 336.4200 178.9060 335.8775 184.6503 C332.8150 216.1250 321.1200 246.1425 302.0800 271.3925 C299.2200 275.1550 296.3450 279.1150 293.0450 282.5100 C289.7800 285.8675 285.7300 288.6850 282.1250 291.6875 C282.0400 292.6050 282.0050 293.4800 281.6675 294.3450 C281.1575 294.2575 280.6475 294.1925 280.1375 294.1100 C280.0350 294.0950 279.9325 294.0700 279.8275 294.0550 C278.0800 293.7875 269.5150 298.7100 267.7425 299.9400 C270.0175 301.8725 272.6650 303.2275 274.8275 305.3575 C281.2575 311.6950 285.1700 323.1275 285.1950 332.0325 C285.2000 334.0275 284.8475 336.1325 283.3375 337.5650 C282.7500 338.1225 282.0750 338.5450 281.2850 338.7325 C277.5250 339.6250 264.6425 339.0375 259.8750 339.0225 C244.8633 339.0125 229.7717 339.3600 214.7682 338.9750 C213.8318 338.3725 212.8800 337.7000 212.2240 336.7825 C209.0233 332.3075 212.3978 320.7175 214.4147 316.1225 C215.6588 313.2875 217.2648 310.4700 219.1890 308.0400 C220.5820 306.2800 226.0820 302.0800 226.3825 300.5150 C225.4147 296.7900 218.2188 295.4325 215.3817 293.3875 C212.7620 291.4975 210.2467 288.9375 207.7737 286.8300 C178.1198 261.5625 162.4590 218.7630 159.5740 180.7570 C158.3070 164.0672 159.1113 145.9125 163.6268 129.7335 C165.1150 124.4010 167.1650 119.1852 169.3260 114.0957 C171.7195 108.4585 174.5265 102.6885 177.9695 97.6080 C180.3573 94.0850 183.3535 90.9467 186.1313 87.7275 C188.8470 84.5800 191.9295 81.3275 195.1552 78.6998 C196.5835 77.5363 198.2810 76.7475 199.8040 75.7207 C201.9223 74.2928 203.9500 72.7565 206.1568 71.4570 C215.8480 65.7498 227.4075 61.9252 238.6328 61.1048 Z"></path>
<path id="" fill="#af7e37" fill-opacity="1.0" stroke="#000000" stroke-width="0.0" stroke-opacity="1.0" stroke-linecap="round" stroke-linejoin="round"  filling="0" d="M222.2852 303.9225 C217.6450 301.7850 213.4255 299.2700 209.0320 296.6750 C207.5938 295.8275 205.8395 295.0575 204.5547 294.0125 C202.4195 292.2775 200.4905 289.9525 198.5110 288.0200 C183.3692 273.2350 172.4608 256.6925 164.0925 237.2513 C156.3450 219.2735 151.6673 200.1237 150.2533 180.5988 C149.9110 175.5275 149.9377 170.4460 149.9353 165.3658 C149.9328 160.5797 149.8678 155.7728 150.1922 150.9953 C151.1938 137.6978 154.1760 124.6245 159.0405 112.2083 C168.4483 88.7005 186.6573 68.4507 210.1305 58.5060 C233.7502 48.4995 262.4675 48.5997 286.1675 58.3045 C308.6350 67.5048 327.7425 88.1158 337.0500 110.3123 C344.5475 128.1967 347.1225 146.1747 347.1250 165.4625 C347.3650 189.2955 342.8100 212.9335 333.7275 234.9695 C324.3650 257.8450 308.0800 283.2525 287.2075 297.0425 C283.0575 299.7850 278.7350 301.8725 274.1675 303.7900 C281.8500 311.4075 285.9500 319.3850 286.4825 330.3100 C286.6000 332.7275 286.2575 335.2725 284.5025 337.0775 C283.5125 338.0925 282.2950 338.7675 280.9000 339.0300 C276.5550 339.8425 271.4200 339.3400 266.9925 339.3200 C261.3175 339.2950 255.6425 339.4200 249.9662 339.4400 C247.6613 339.1675 223.3205 338.9500 222.4608 339.5050 L222.4460 339.9600 L222.1010 339.5025 C220.6525 338.9525 218.6660 339.1075 217.1155 339.0275 C215.1487 338.9225 213.0070 338.5150 211.6738 336.9250 C209.9265 334.8425 210.0822 331.5675 210.3150 329.0150 C211.1458 319.9025 215.0900 309.9200 222.2852 303.9225 Z M240.4128 67.1050 C220.8362 68.6215 202.6185 77.6973 189.6165 92.4108 C174.5415 109.7777 168.2205 128.7962 166.0330 151.3553 C165.3875 158.0150 164.8262 164.3655 165.2997 171.0665 C165.7145 176.9330 166.0660 182.9530 166.8620 188.7780 C169.9557 212.3510 178.3130 234.9260 191.3147 254.8300 C197.1848 263.7625 203.7370 272.1100 211.8665 279.1350 C214.0287 281.0025 216.4685 282.5675 218.8385 284.1550 C230.3810 291.8850 241.2997 294.0175 254.9700 292.8550 C255.4175 292.8175 255.8550 292.7675 256.2975 292.7000 C270.4600 291.4625 285.7875 279.9250 294.7150 269.2875 C315.7550 243.9280 328.3800 212.6487 330.8375 179.7895 C331.1500 175.2655 330.9750 170.6295 330.9825 166.0915 C330.9925 160.6178 331.1425 155.0890 330.6450 149.6315 C328.7500 128.7860 321.8575 109.6760 308.1450 93.7250 C305.7225 90.9065 303.2825 87.9203 300.4125 85.5447 C284.8125 72.6317 269.8225 67.0262 249.5278 66.9955 C246.5307 66.9910 243.3895 66.8285 240.4128 67.1050 Z M226.7785 323.9725 L249.1250 323.9450 C255.9975 323.9400 262.8775 324.0075 269.7450 323.7325 C268.8350 319.1825 266.5600 315.4025 262.6700 312.7825 C258.4500 309.9425 252.3975 309.0700 247.4173 309.1000 C241.1593 309.6275 234.8687 310.8750 230.6485 315.9275 C228.6908 318.2325 227.3582 321.0025 226.7785 323.9725 Z"></path>
<path id="" fill="#fefefe" fill-opacity="1.0" stroke="#000000" stroke-width="0.0" stroke-opacity="1.0" stroke-linecap="round" stroke-linejoin="round"  filling="0" d="M245.1080 81.3510 C246.2318 81.1895 247.5515 81.1703 248.6832 81.2545 C250.8650 81.4175 252.9350 82.1385 254.3475 83.8905 C256.3250 86.3477 256.2200 89.4138 255.9550 92.3748 C254.7050 94.0900 252.9025 95.8792 250.8425 96.5388 C248.2575 97.3660 245.0455 97.0155 242.3315 97.1428 C235.6000 97.4587 228.3185 99.3603 222.3358 102.4225 C205.1460 111.2200 197.5315 131.5408 196.2505 149.8130 C196.0047 153.3205 195.6890 165.8893 194.6877 168.6532 C193.9505 170.6880 192.1835 171.3398 190.3672 172.1720 C189.7108 172.3995 189.0397 172.6232 188.3535 172.7415 C186.5815 173.0465 184.3333 172.3828 182.9100 171.3147 C181.0425 169.9130 180.3225 167.9902 180.0538 165.7388 C179.4727 160.8732 180.1568 155.4883 180.7448 150.6322 C182.7737 133.8740 187.2392 118.2970 198.1355 104.9512 C206.9445 94.1620 218.3725 86.3490 232.0482 83.2158 C236.3365 82.2332 240.7380 81.7907 245.1080 81.3510 Z"></path>
<path id="" fill="#c0ccdb" fill-opacity="1.0" stroke="#000000" stroke-width="0.0" stroke-opacity="1.0" stroke-linecap="round" stroke-linejoin="round"  filling="0" d="M222.4460 339.9600 L222.4608 339.5050 C223.3205 338.9500 247.6613 339.1675 249.9662 339.4400 C247.8735 340.0875 245.8355 341.6925 244.0327 342.9350 C237.9020 347.1650 232.4620 351.2375 228.8873 357.9875 C226.7843 361.9600 225.0965 367.7425 226.3978 372.2000 C227.3675 375.5225 230.0157 378.4450 232.3900 380.8550 C243.4770 392.1200 266.7700 403.2475 270.7850 419.1325 C272.1000 424.3350 270.5075 431.1200 268.0825 435.7875 C262.4875 446.5625 246.2057 457.0700 234.7575 460.5825 C233.1225 461.0825 231.5350 461.1925 229.9810 460.3825 C227.4405 459.0575 225.8910 455.9225 225.1605 453.2500 C224.9837 452.6025 224.8573 451.9675 224.7697 451.3025 L224.9420 450.9800 C227.6777 445.9375 233.0997 444.6150 237.9297 442.3075 C244.8705 438.9900 252.4350 434.1025 255.0225 426.5250 C255.4375 425.3100 256.3075 423.2800 255.8850 422.0150 C254.3875 417.5475 248.8862 413.5950 245.3110 410.8100 C232.8045 401.0750 212.3987 388.1225 210.3457 371.0775 C210.0108 368.2950 210.4150 365.6150 210.8945 362.8700 C211.4357 359.7725 212.1415 356.8650 213.4395 353.9925 C214.7380 351.1175 216.3270 348.2350 218.1735 345.6750 C219.5160 343.8125 221.5007 342.2175 222.3850 340.0900 C222.4035 340.0475 222.4255 340.0050 222.4460 339.9600 Z"></path>
<path id="" fill="#fefefe" fill-opacity="1.0" stroke="#000000" stroke-width="0.0" stroke-opacity="1.0" stroke-linecap="round" stroke-linejoin="round"  filling="0" d="M111.8330 112.7783 C113.2620 112.6970 114.5300 112.7932 115.8560 113.3792 C118.0115 114.3320 119.9812 116.1050 120.7968 118.3578 C121.3935 120.0058 121.2198 121.6815 120.4335 123.2337 C119.2628 125.5445 117.1642 127.3065 115.4733 129.2368 C111.7870 133.4450 108.4485 137.9620 106.1653 143.0950 C96.9250 163.8680 106.4498 184.3725 120.1898 200.3918 C123.5920 204.3585 130.2975 210.4628 132.0367 215.1078 C132.0745 215.2080 132.1098 215.3092 132.1463 215.4100 C131.1205 218.5365 129.7800 220.7320 126.9895 222.5690 C125.7733 223.2545 124.5592 223.7670 123.2615 224.2710 L122.9147 224.0983 C119.6310 222.4462 117.1370 219.7540 114.5995 217.1568 C104.7433 207.0670 96.7452 194.9520 92.2950 181.5352 C89.7672 173.9145 88.9303 167.4698 88.9225 159.4608 C88.9130 149.3743 90.1772 141.5312 94.8055 132.3813 C97.9060 126.2510 105.1192 114.9908 111.8330 112.7783 Z"></path>
</svg>