<svg xmlns="http://www.w3.org/2000/svg" viewBox="0 0 512 512" height="512.0px" width="512.0px">
<path id="" fill="#b6e0f2" fill-opacity="1.0" stroke="#000000" stroke-width="0.0" stroke-opacity="1.0" stroke-linecap="round" stroke-linejoin="round"  filling="0" d="M244.1050 58.2675 C352.9200 51.6882 446.4450 134.6147 452.9350 243.4350 C459.4275 352.2550 376.4275 445.7125 267.6000 452.1175 C158.8987 458.5150 65.5703 375.6275 59.0858 266.9300 C52.6010 158.2337 135.4130 64.8390 244.1050 58.2675 Z"></path>
<path id="" fill="#eec261" fill-opacity="1.0" stroke="#000000" stroke-width="0.0" stroke-opacity="1.0" stroke-linecap="round" stroke-linejoin="round"  filling="0" d="M109.1998 387.6100 C112.2700 387.4225 115.2925 387.8975 118.3525 388.0400 C121.6940 388.1975 125.0725 388.0850 128.4187 388.0825 L184.4340 388.0675 L319.8200 388.0650 C346.8800 388.3050 373.9450 388.2025 401.0025 387.7650 C411.5050 387.4950 420.7375 390.3825 428.3325 397.6650 C431.3525 400.5600 433.6850 403.7325 435.5250 407.4900 C439.7525 416.1200 439.0675 423.7350 439.0575 433.0550 C439.0500 441.0375 438.9250 449.0350 439.1150 457.0150 C435.0050 456.7900 430.7925 456.9675 426.6725 456.9675 L403.5325 456.9800 L184.9718 456.9825 L112.7598 456.9825 C99.5078 456.9850 86.2288 456.8025 72.9803 457.0575 L72.9655 434.9875 C72.9600 424.9875 72.0485 417.7475 76.2728 408.3225 C77.5518 405.4675 79.0437 402.7900 81.0890 400.4100 C89.0805 391.1175 97.3225 388.4825 109.1998 387.6100 Z"></path>
<path id="" fill="#af7e37" fill-opacity="1.0" stroke="#000000" stroke-width="0.0" stroke-opacity="1.0" stroke-linecap="round" stroke-linejoin="round"  filling="0" d="M104.3282 385.1100 C110.1700 384.9575 116.0488 385.1225 121.8952 385.1225 L157.5525 385.1175 L266.8400 385.1225 L362.1975 385.1225 L392.0975 385.1175 C397.6900 385.1125 403.3175 384.9675 408.9050 385.1475 C419.7000 385.5000 428.8325 389.6300 436.2150 397.5975 C446.5475 408.7450 445.9475 421.6750 445.9575 435.7825 C445.9625 441.2650 446.2175 446.8150 445.9675 452.2925 C445.8050 455.8575 444.7875 457.9850 442.1800 460.3550 C437.4700 461.5875 431.6225 460.9500 426.7625 460.9225 L410.3125 460.8950 L182.4332 460.9000 L108.0573 460.8975 L85.9870 460.9100 C80.8755 460.9275 75.7282 461.1125 70.6277 460.7425 C69.9453 460.3250 69.2645 459.8650 68.6812 459.3150 C66.7540 457.4975 66.3282 455.4575 66.2170 452.9175 C65.9863 447.6500 66.2888 442.2900 66.2668 437.0100 C66.2053 422.2600 65.2710 408.8825 76.2425 397.1525 C83.8538 389.0175 93.3180 385.5000 104.3282 385.1100 Z M82.0583 446.0400 C95.1775 445.7050 108.3517 445.9450 121.4770 445.9450 L193.1200 445.9450 L408.8750 445.9475 C415.8975 445.9425 423.0425 445.6550 430.0500 445.9675 C429.7250 439.6050 429.9475 433.1700 429.9675 426.7975 C429.9800 422.9025 430.3050 418.7375 429.3475 414.9325 C428.5000 411.5700 426.6275 408.2725 424.0625 405.9250 C420.5300 402.6950 415.4650 400.6525 410.7250 400.2200 C405.7525 399.7675 400.5700 400.0350 395.5700 400.0400 L369.4150 400.0475 L285.2475 400.0475 L163.7068 400.0450 L123.7560 400.0450 C116.8740 400.0450 109.8733 399.7850 103.0017 400.0975 C96.7957 400.5150 91.2630 401.8575 87.0208 406.7675 C85.0107 409.0775 83.5577 411.8200 82.7730 414.7800 C81.9595 417.9625 82.0943 421.4125 82.0887 424.6775 L82.1225 438.5850 C82.1295 441.0425 82.2755 443.5975 82.0583 446.0400 Z"></path>
<path id="" fill="#ffffff" fill-opacity="0.027451" stroke="#000000" stroke-width="0.0" stroke-opacity="1.0" stroke-linecap="round" stroke-linejoin="round"  filling="0" d="M0.6766 0.0000 L511.3225 0.0000 C508.2025 0.6650 504.4600 0.3195 501.2650 0.3163 L484.2875 0.2973 L415.9925 0.2969 L147.6600 0.2999 L40.7298 0.2926 L15.1412 0.3109 C10.7615 0.3248 4.9184 0.8886 0.6766 0.0000 Z"></path>
<path id="" fill="#ffffff" fill-opacity="0.0196078" stroke="#000000" stroke-width="0.0" stroke-opacity="1.0" stroke-linecap="round" stroke-linejoin="round"  filling="0" d="M1.3091 512.0000 C3.3875 511.2775 25.6402 511.7425 29.6990 511.7425 L108.8480 511.7450 L408.0800 511.7525 L481.9375 511.7525 L501.0200 511.7350 C504.2850 511.7300 508.1175 511.3450 511.2925 512.0000 L1.3091 512.0000 Z"></path>
<path id="" fill="#ffffff" fill-opacity="0.027451" stroke="#000000" stroke-width="0.0" stroke-opacity="1.0" stroke-linecap="round" stroke-linejoin="round"  filling="0" d="M0.0000 0.9172 C0.7097 3.9909 0.2566 8.0218 0.2535 11.1965 L0.2509 30.6735 L0.2530 111.2188 L0.2531 439.7300 L0.2509 490.8325 C0.2507 494.5500 0.7518 508.0600 0.0000 510.5825 L0.0000 0.9172 Z"></path>
<path id="" fill="#64a1af" fill-opacity="1.0" stroke="#000000" stroke-width="0.0" stroke-opacity="1.0" stroke-linecap="round" stroke-linejoin="round"  filling="0" d="M247.1483 51.1107 C287.4775 49.6170 326.6825 58.8855 361.3200 79.7063 C376.0300 88.5480 388.3875 98.7720 400.4825 110.8645 C403.5375 113.9193 406.7250 116.9110 409.6175 120.1178 C431.6275 144.2265 447.2650 173.4530 455.1075 205.1420 C466.9400 252.8500 461.5575 303.2050 439.9100 347.3350 C437.8075 351.5400 435.7500 355.7550 433.3175 359.7825 C429.1575 366.7050 424.6050 373.3850 419.6800 379.7875 C418.4375 381.3975 417.2100 383.2550 415.7300 384.6400 C415.0725 385.2575 414.3175 385.7200 413.4275 385.9075 C411.4900 386.3200 409.3300 385.3550 407.3650 385.1825 C404.4750 384.9325 401.4825 385.2325 398.6225 384.8250 C397.9600 384.7325 397.4175 384.6050 396.8550 384.2275 C396.6325 382.3400 402.7850 376.0025 404.2500 374.1575 C423.8950 349.4600 436.4525 322.8700 442.2100 291.7850 C443.6775 283.8625 444.9075 275.7300 444.9925 267.6575 C445.0925 258.1375 445.5250 247.5725 444.7275 238.1523 C441.8875 203.6122 429.2825 170.5927 408.3800 142.9490 C403.3325 136.4427 397.8850 130.2578 392.0675 124.4303 C388.1225 120.4052 384.0625 116.2860 379.8375 112.5632 C355.7700 91.1168 326.3775 76.5385 294.7375 70.3568 C285.1075 68.4673 275.3925 67.0567 265.5625 66.9585 C254.6650 66.8370 243.7888 66.6625 232.9503 67.9507 C195.2767 72.0847 159.8362 87.8863 131.5827 113.1472 C128.4612 115.9388 125.5480 119.0710 122.5855 122.0350 C119.1582 125.4645 115.5950 128.8282 112.3430 132.4223 C109.4547 135.6138 106.8167 139.1053 104.1545 142.4880 C82.2517 170.3188 69.5415 205.5775 67.2198 240.8177 C66.8857 245.8875 67.0445 251.0450 67.0440 256.1275 C67.0435 261.4850 66.9778 266.8350 67.3483 272.1850 C69.2955 299.0125 77.1523 325.0775 90.3555 348.5125 C93.1190 353.3475 96.1283 358.1900 99.3545 362.7300 C102.4733 367.1600 105.7565 371.4700 109.1973 375.6550 C110.9962 377.8875 113.1235 380.1150 114.7210 382.4775 C115.1120 383.0550 115.3885 383.5075 115.4727 384.2175 C114.1998 385.1875 99.4767 385.9850 97.4500 385.9175 C97.3590 385.8375 97.2668 385.7625 97.1768 385.6825 C93.7372 382.6600 87.1195 372.7525 84.3508 368.5425 C62.9422 335.9825 53.7408 305.1825 51.2440 266.4625 C47.9682 213.2337 66.0403 160.8938 101.4605 121.0258 C104.6533 117.4348 108.2745 114.1210 111.6797 110.7275 C114.3723 108.0445 116.9998 105.2458 119.8055 102.6830 C141.8545 82.5443 169.5765 66.7445 198.3907 58.7365 C214.3297 54.3067 230.6575 52.0625 247.1483 51.1107 Z"></path>
<path id="" fill="#99a5b7" fill-opacity="1.0" stroke="#000000" stroke-width="0.0" stroke-opacity="1.0" stroke-linecap="round" stroke-linejoin="round"  filling="0" d="M265.5700 284.8425 L265.3575 284.5150 C263.0475 280.9875 259.5775 278.4425 256.9575 275.1675 C250.9775 267.6875 247.9348 256.2700 248.2115 246.7930 C248.2908 244.0830 248.7778 241.3645 249.3145 238.7120 C251.7250 226.8103 258.7250 216.9913 268.8175 210.3500 C278.8150 203.6432 291.0850 201.2267 302.8775 203.6418 C315.1650 206.1337 325.9325 213.4628 332.7575 223.9785 C339.5300 234.3412 340.9850 246.6248 338.4350 258.6150 C336.6850 266.8350 333.2600 273.1100 327.4500 279.1750 C325.8825 280.8125 323.4900 282.7725 322.5075 284.8300 C324.1750 286.8700 329.8350 290.5300 332.2900 291.5925 L332.4775 291.8675 C330.2125 293.8425 324.0075 296.3875 323.6675 299.7800 C323.5250 301.1825 323.5550 302.6750 323.5925 304.0875 C323.6075 304.6650 323.6475 304.4075 323.4525 304.9350 C313.9550 297.1500 302.5225 293.0875 290.1825 294.2575 C279.8225 295.2375 271.0450 299.0025 263.3875 305.9800 C263.4525 304.0150 264.8300 303.3575 264.4750 300.8600 C263.7825 296.0200 258.5875 294.3875 255.2325 291.7525 C255.1750 291.7075 255.1200 291.6600 255.0625 291.6150 C258.7425 290.4100 262.8950 287.6625 265.5700 284.8425 Z M296.4250 278.7875 C313.4750 277.5925 326.2925 262.7475 324.9900 245.7070 C323.6875 228.6653 308.7600 215.9422 291.7275 217.3555 C274.8475 218.7558 262.2650 233.5185 263.5575 250.4050 C264.8475 267.2925 279.5300 279.9700 296.4250 278.7875 Z"></path>
<path id="" fill="#a56b63" fill-opacity="1.0" stroke="#000000" stroke-width="0.0" stroke-opacity="1.0" stroke-linecap="round" stroke-linejoin="round"  filling="0" d="M332.2900 291.5925 C336.3850 290.0425 342.4100 285.1575 346.2675 282.5850 C353.5300 277.7450 360.9525 273.0975 368.1775 268.2150 C368.6625 267.8875 369.4075 267.4150 369.6650 266.8675 C370.2650 265.5825 369.8500 263.2425 369.7700 261.8550 C369.5000 257.1125 368.0600 244.7550 372.6525 242.0477 C374.7350 240.8192 378.1500 240.6382 380.4850 241.2668 C382.0200 241.6797 383.2650 242.5448 384.0550 243.9395 C385.8825 247.1705 385.0325 259.3900 385.0750 263.6625 C390.0025 263.7350 402.6950 262.0425 406.2125 265.6425 C407.7500 267.2150 408.0700 269.5075 408.0175 271.6225 C407.9675 273.5900 407.0525 275.4825 405.6225 276.8225 C401.9800 280.2325 390.3475 278.9575 385.2325 278.8800 C383.6075 278.8550 381.7900 278.6850 380.2175 279.1375 C376.1925 280.2975 355.1800 295.0575 350.3500 298.3950 C348.2650 299.8375 346.1525 301.7900 343.8800 302.8675 C341.5525 303.2625 336.9275 307.6750 334.3975 308.9000 C332.4575 309.8375 330.0775 309.2675 328.5150 310.0625 C326.8450 308.3350 325.1575 306.6275 323.4525 304.9350 C323.6475 304.4075 323.6075 304.6650 323.5925 304.0875 C323.5550 302.6750 323.5250 301.1825 323.6675 299.7800 C324.0075 296.3875 330.2125 293.8425 332.4775 291.8675 L332.2900 291.5925 Z"></path>
<path id="" fill="#a46b63" fill-opacity="1.0" stroke="#000000" stroke-width="0.0" stroke-opacity="1.0" stroke-linecap="round" stroke-linejoin="round"  filling="0" d="M203.0768 263.7625 C202.8205 259.2150 202.6382 250.8200 203.1000 246.4020 C203.2675 244.7980 203.6715 243.5612 204.9825 242.5513 C207.1257 240.9003 209.6855 240.7303 212.2605 241.0585 C214.7560 241.3765 216.2213 242.4883 217.7072 244.4455 C218.9230 251.6325 216.9902 259.2400 218.6033 266.3600 C221.8735 270.0700 226.7150 272.7550 230.8320 275.4675 C236.2170 278.9925 241.5742 282.5625 246.9025 286.1725 C249.6017 287.9750 252.4975 289.6375 255.0625 291.6150 C255.1200 291.6600 255.1750 291.7075 255.2325 291.7525 C258.5875 294.3875 263.7825 296.0200 264.4750 300.8600 C264.8300 303.3575 263.4525 304.0150 263.3875 305.9800 C262.2325 307.2250 260.8350 309.1000 259.4500 310.0375 C258.9250 309.7650 258.8525 309.8200 258.2625 309.8475 C252.5825 310.1050 248.9418 305.0800 244.2115 302.6825 L243.9360 302.9250 C243.9790 303.3375 243.9525 303.5050 243.7982 303.9100 C243.7525 304.0300 243.6987 304.1475 243.6487 304.2675 C243.5992 303.7300 243.5840 302.6650 243.2307 302.2525 C241.5522 300.2875 232.0087 294.6325 229.3170 292.8425 C223.0000 288.6400 216.8622 284.1075 210.3415 280.2175 C209.5777 279.7625 208.6447 279.1725 207.7507 279.0725 C207.6510 279.0625 207.5508 279.0575 207.4510 279.0475 C200.6828 278.4250 193.7462 279.5900 186.9820 278.8875 C184.9170 278.6725 182.8260 278.0950 181.5087 276.3775 C179.6658 273.9750 179.9335 270.3650 180.2677 267.5225 C180.7610 266.7800 181.3195 266.0900 181.9815 265.4875 C185.5550 262.2350 198.0495 263.5925 203.0768 263.7625 Z"></path>
<path id="" fill="#99a5b6" fill-opacity="1.0" stroke="#000000" stroke-width="0.0" stroke-opacity="1.0" stroke-linecap="round" stroke-linejoin="round"  filling="0" d="M328.5150 310.0625 C330.0775 309.2675 332.4575 309.8375 334.3975 308.9000 C336.9275 307.6750 341.5525 303.2625 343.8800 302.8675 L343.8750 303.1400 C343.8700 303.6275 343.8375 304.2200 343.9900 304.6875 C344.6350 306.6250 346.5800 308.6875 347.6850 310.4150 C348.7425 312.0650 349.5575 313.9475 350.2975 315.7550 C353.2725 323.0300 355.0650 331.2425 355.0850 339.1275 C355.1225 354.5075 348.4325 371.3850 337.4700 382.2275 C336.4675 383.2200 335.4175 384.2375 334.1875 384.9450 C331.3250 385.0000 309.1150 385.3575 308.3500 384.8900 C308.2125 384.8075 308.1100 384.6750 307.9900 384.5675 C307.8975 383.8775 307.8725 383.7300 308.3050 383.1250 C309.4950 381.4525 314.8875 379.7350 316.8775 378.5750 C328.6975 371.7225 336.7375 359.8450 338.7075 346.3275 C339.2300 342.6325 339.1550 338.6700 339.0025 334.9400 C338.6225 325.6575 334.4050 317.0950 328.5150 310.0625 Z"></path>
<path id="" fill="#99a5b6" fill-opacity="1.0" stroke="#000000" stroke-width="0.0" stroke-opacity="1.0" stroke-linecap="round" stroke-linejoin="round"  filling="0" d="M243.6487 304.2675 C243.6987 304.1475 243.7525 304.0300 243.7982 303.9100 C243.9525 303.5050 243.9790 303.3375 243.9360 302.9250 L244.2115 302.6825 C248.9418 305.0800 252.5825 310.1050 258.2625 309.8475 C258.8525 309.8200 258.9250 309.7650 259.4500 310.0375 C253.9450 315.9575 250.0225 324.7300 249.2305 332.7700 C248.7012 338.1375 248.6940 344.5750 249.7798 349.8375 C252.0725 360.9500 259.5875 371.0275 268.9325 377.2800 C271.0175 378.6750 273.2425 380.0450 275.4575 381.2200 C276.4450 381.7425 277.6150 381.9875 278.5375 382.6275 C278.8025 382.8125 278.9950 383.0575 279.1975 383.3025 C279.3450 383.9325 279.3700 384.0050 279.1475 384.6050 C277.7025 385.4600 256.7075 385.0875 253.6450 384.8850 C245.8288 378.5475 239.5872 369.1850 236.5055 359.6275 C231.9227 345.4125 231.7578 329.8025 237.5977 315.9000 C239.3058 311.8325 241.6508 308.1775 243.6487 304.2675 Z"></path>
<path id="" fill="#fefefe" fill-opacity="1.0" stroke="#000000" stroke-width="0.0" stroke-opacity="1.0" stroke-linecap="round" stroke-linejoin="round"  filling="0" d="M216.9178 157.8555 C220.8788 157.6447 225.1853 157.8695 228.5040 160.2985 C231.0270 162.1450 232.4985 165.0460 232.9695 168.0927 C233.7018 172.8310 233.4075 178.9660 230.4330 182.9125 C227.6845 186.5590 223.7807 187.3322 219.5587 187.9812 C215.2585 188.1252 210.7640 187.2668 207.4162 184.3613 C204.6080 181.9240 203.2337 178.4480 202.9713 174.8058 C202.6617 170.5092 203.7300 166.0957 206.6172 162.8095 C209.3248 159.7280 212.8475 158.1068 216.9178 157.8555 Z"></path>
<path id="" fill="#fefefe" fill-opacity="1.0" stroke="#000000" stroke-width="0.0" stroke-opacity="1.0" stroke-linecap="round" stroke-linejoin="round"  filling="0" d="M125.8510 278.4250 C134.4045 277.6650 141.9408 284.0150 142.6458 292.5725 C143.3510 301.1300 136.9552 308.6275 128.3930 309.2775 C119.9060 309.9250 112.4895 303.5975 111.7907 295.1150 C111.0918 286.6325 117.3727 279.1750 125.8510 278.4250 Z"></path>
<path id="" fill="#fefefe" fill-opacity="1.0" stroke="#000000" stroke-width="0.0" stroke-opacity="1.0" stroke-linecap="round" stroke-linejoin="round"  filling="0" d="M323.4800 111.8430 C327.7150 111.5935 332.2750 112.8900 335.4300 115.7917 C338.2800 118.4133 339.1175 121.2872 339.2225 125.0340 C339.3625 130.0103 338.8800 134.0240 335.2850 137.7592 C332.3525 140.8075 329.3325 142.0197 325.1300 142.1310 C321.0325 142.0715 317.4750 141.9660 314.0200 139.3367 C311.0400 137.0685 309.7200 133.7785 309.2625 130.1693 C308.7100 125.8095 309.8825 120.6695 312.6450 117.2003 C315.3900 113.7548 319.2550 112.3075 323.4800 111.8430 Z"></path>
<path id="" fill="#fefefe" fill-opacity="1.0" stroke="#000000" stroke-width="0.0" stroke-opacity="1.0" stroke-linecap="round" stroke-linejoin="round"  filling="0" d="M186.8205 323.8875 C195.2437 323.3325 202.5408 329.6700 203.1678 338.0900 C203.7948 346.5075 197.5175 353.8575 189.1045 354.5550 C180.5915 355.2600 173.1348 348.8925 172.5002 340.3725 C171.8658 331.8550 178.2968 324.4500 186.8205 323.8875 Z"></path>
<path id="" fill="#fefefe" fill-opacity="1.0" stroke="#000000" stroke-width="0.0" stroke-opacity="1.0" stroke-linecap="round" stroke-linejoin="round"  filling="0" d="M383.9300 172.8550 C387.5650 172.7500 391.2425 172.9622 394.3750 175.0237 C397.2800 176.9090 399.2750 179.9095 399.8925 183.3160 C400.6800 187.6602 400.0750 193.0358 397.4825 196.7050 C394.9500 200.2935 390.6475 202.4630 386.3875 203.1313 C382.2400 203.0235 377.7975 201.6900 374.6775 198.8622 C371.6025 196.0775 370.1425 192.1910 369.9125 188.1257 C369.6825 184.0700 370.3550 180.2335 373.1875 177.1255 C376.2225 173.7957 379.6350 173.0585 383.9300 172.8550 Z"></path>
<path id="" fill="#fefefe" fill-opacity="1.0" stroke="#000000" stroke-width="0.0" stroke-opacity="1.0" stroke-linecap="round" stroke-linejoin="round"  filling="0" d="M244.0137 97.1443 C247.4720 96.7563 254.0600 96.4120 257.5075 96.9438 C260.2075 97.3603 261.4350 98.5983 262.9475 100.7063 C263.1675 102.7105 263.5425 105.2068 263.1250 107.1817 C262.3875 110.6777 259.4250 111.3333 256.3350 111.7848 C251.5725 112.4805 246.5497 111.9922 241.7218 112.5330 C220.9920 114.8542 203.0590 120.9770 185.6695 132.5457 C156.5188 151.9395 135.4738 181.8555 129.1275 216.4583 C128.2337 221.3318 127.4165 226.5253 127.2095 231.4680 C127.0482 235.3188 127.5550 239.7010 126.7500 243.4535 C126.7305 243.5450 126.7072 243.6358 126.6860 243.7270 C126.1205 244.8248 125.6217 246.0290 124.6852 246.8698 C122.4300 248.8947 118.4530 248.1178 115.6768 247.9707 C115.3935 247.7863 115.1162 247.6057 114.8538 247.3922 C112.8845 245.7903 112.1765 243.3085 111.9688 240.8678 C111.4877 235.2160 112.2988 229.2800 112.9290 223.6727 C116.1492 195.0340 127.0757 170.2180 145.6260 148.1725 C148.5695 144.6745 151.8700 141.5058 155.1013 138.2767 C157.7990 135.5807 160.4570 132.8358 163.3405 130.3362 C186.0932 110.6118 214.1825 99.7452 244.0137 97.1443 Z"></path>
</svg>