<svg xmlns="http://www.w3.org/2000/svg" viewBox="0 0 512 512" height="512.0px" width="512.0px">
<path id="" fill="#cba872" fill-opacity="1.0" stroke="#000000" stroke-width="0.0" stroke-opacity="1.0" stroke-linecap="round" stroke-linejoin="round"  filling="0" d="M219.9855 77.1072 C224.8873 76.6942 230.0090 76.9778 234.9400 76.9807 C270.6575 76.7220 305.8525 85.5813 337.1925 102.7205 C354.8125 112.1602 371.1675 123.7913 385.8675 137.3365 C391.5225 142.6418 396.5625 148.3410 401.5850 154.2388 C424.3625 180.9760 439.6625 210.7103 449.6050 244.3372 C460.2575 280.3700 463.2975 333.8475 444.6925 367.6475 C441.8050 372.8925 438.4575 377.1875 434.2450 381.4050 C426.7025 388.9600 420.4800 392.8800 410.1150 395.8775 C394.6425 400.3500 379.1575 399.3275 363.5400 396.2475 C341.2075 391.7625 320.6625 380.8875 304.4000 364.9400 C297.7150 358.3425 291.3475 350.2350 286.0225 342.4850 C275.6625 327.4075 266.6975 312.1575 250.0900 302.9725 C241.8135 298.7950 234.7977 296.2800 225.3910 297.0275 C222.3667 297.2700 219.5168 298.0650 216.7425 299.2800 C204.0468 304.8350 201.3578 318.7875 200.0797 331.2350 C199.6760 335.1675 199.2267 339.1150 199.1045 343.0700 C198.9085 349.4100 199.1745 355.7625 198.9818 362.1025 C198.8810 365.4175 198.5327 368.7225 198.3078 372.0300 C198.1053 375.0050 198.0807 377.9975 197.7782 380.9650 C196.5090 393.4200 193.5332 410.5350 185.2325 420.2600 C178.0827 428.6950 167.8887 433.9600 156.8725 434.9100 C136.5737 436.5725 118.4285 429.5925 103.1602 416.4850 C91.1520 406.1775 82.1087 393.2475 75.0663 379.1900 C61.9268 352.9600 56.4637 325.2650 54.2867 296.1850 C53.8110 289.8275 53.9725 283.4100 53.9652 277.0375 C53.9588 271.1050 53.7560 265.0825 54.1410 259.1625 C56.0300 230.1113 64.2760 197.1192 77.4658 171.0550 C84.9350 156.4778 94.1783 142.8797 104.9847 130.5708 C110.1487 124.6365 116.2003 119.0770 122.2458 114.0558 C129.3972 108.1158 136.8788 102.6755 144.9850 98.1042 C167.5305 85.3900 194.3073 79.0072 219.9855 77.1072 Z M133.6540 370.5450 C148.7285 369.4225 160.0273 356.2725 158.8655 341.2025 C157.7038 326.1300 144.5233 314.8675 129.4550 316.0700 C114.4447 317.2675 103.2345 330.3875 104.3918 345.4000 C105.5490 360.4150 118.6373 371.6600 133.6540 370.5450 Z"></path>
<path id="" fill="#93c98d" fill-opacity="1.0" stroke="#000000" stroke-width="0.0" stroke-opacity="1.0" stroke-linecap="round" stroke-linejoin="round"  filling="0" d="M348.5325 283.0850 C366.3600 281.5575 384.7225 285.1650 399.1450 296.1900 C406.0575 301.4750 411.7950 309.7175 412.8725 318.5275 C413.6075 324.5250 411.4100 331.4175 407.7125 336.1325 C401.9300 343.5075 392.3850 346.6275 383.4425 347.7500 C367.6500 349.0350 353.5525 346.5500 339.5250 339.0725 C337.0325 337.7450 334.3175 336.5200 332.0875 334.7825 C326.6775 330.5700 319.9575 322.7675 319.1125 315.7600 C318.2750 308.8275 318.5725 302.0300 323.0150 296.3725 C329.2800 288.3950 338.6050 284.2400 348.5325 283.0850 Z"></path>
<path id="" fill="#7bbdec" fill-opacity="1.0" stroke="#000000" stroke-width="0.0" stroke-opacity="1.0" stroke-linecap="round" stroke-linejoin="round"  filling="0" d="M180.4108 132.0975 C186.4872 131.7350 191.5517 132.7115 196.7790 135.9518 C203.5412 140.1432 209.1638 149.4478 210.9120 157.0975 C213.5035 168.4365 211.3830 181.5748 205.0968 191.3925 C199.9648 199.4077 194.6535 202.5665 185.5570 204.5587 C185.1750 204.6235 184.7915 204.6780 184.4068 204.7222 C178.8723 205.3817 173.0750 203.4005 168.7495 199.9815 C159.8815 192.9722 155.7020 183.3185 154.5018 172.2890 C153.2637 160.9122 155.5435 149.8555 162.9227 140.8248 C167.3712 135.3805 173.5150 132.7625 180.4108 132.0975 Z"></path>
<path id="" fill="#f3e777" fill-opacity="1.0" stroke="#000000" stroke-width="0.0" stroke-opacity="1.0" stroke-linecap="round" stroke-linejoin="round"  filling="0" d="M356.8075 182.0955 C362.4200 181.3423 370.4525 181.5063 375.2400 184.8358 C378.8100 187.3192 381.1400 190.9270 381.8600 195.2253 C383.1300 202.7943 379.6350 210.0255 375.3550 216.0237 C365.3775 230.0045 348.9100 239.2225 332.0925 241.9865 C325.0400 242.1967 317.9000 242.4690 312.1450 237.6745 C308.9675 235.0265 306.5375 230.3670 306.2075 226.2440 C305.6500 219.2725 310.5625 211.2035 314.8275 206.0650 C324.4400 194.4805 341.7175 183.5155 356.8075 182.0955 Z"></path>
<path id="" fill="#f16963" fill-opacity="1.0" stroke="#000000" stroke-width="0.0" stroke-opacity="1.0" stroke-linecap="round" stroke-linejoin="round"  filling="0" d="M276.6175 121.0883 C281.2250 121.0502 286.0700 122.7957 289.5175 125.8488 C293.5450 129.4113 294.8050 133.8253 295.0675 139.0312 C295.2300 142.2535 295.2300 145.6450 294.7400 148.8380 C293.3175 158.1115 287.7425 172.2050 281.4450 179.0912 C277.0800 183.8610 272.2875 184.9025 266.0400 185.2010 C261.9250 185.0475 258.3000 183.8505 255.0325 181.3013 C250.4450 177.7227 248.2835 172.0240 247.6255 166.4040 C246.2450 154.6147 252.0200 139.4960 259.3450 130.3955 C264.0100 124.6000 269.2225 121.8528 276.6175 121.0883 Z"></path>
<path id="" fill="#8c6c45" fill-opacity="1.0" stroke="#000000" stroke-width="0.0" stroke-opacity="1.0" stroke-linecap="round" stroke-linejoin="round"  filling="0" d="M225.9057 73.1135 C266.2125 71.4258 306.2600 80.3020 342.0775 98.8622 C393.6400 126.3985 432.3250 173.0820 449.8075 228.8610 C460.4375 263.1675 465.3775 312.6050 456.6250 347.7050 C454.7250 355.4475 451.8850 362.9300 448.1675 369.9825 C440.5350 384.3975 428.3225 394.0625 412.8025 398.7975 C397.7000 403.4075 380.7275 403.2100 365.2450 400.5875 C324.6675 393.7175 305.2800 371.8475 281.8025 340.5125 C271.7000 327.0300 260.3275 313.1225 245.2135 305.0725 C238.9745 301.4875 231.8300 299.7875 224.6445 300.1750 C215.7150 300.5700 209.0533 306.2625 205.7852 314.4225 C201.6710 324.6925 201.3685 339.2550 200.9895 350.2650 C200.8143 355.3625 200.4745 360.4500 200.2713 365.5450 C199.5195 384.3850 198.6122 411.9325 185.2400 426.3900 C177.3955 434.8725 166.6070 438.6275 155.1915 438.9900 C133.4937 439.6125 112.4173 431.7025 96.4870 416.9575 C62.8537 385.2425 52.4695 327.7800 51.1720 283.5700 C49.7767 236.0275 57.7815 188.6200 84.7213 148.5078 C89.8150 140.9232 95.4998 133.3610 101.7750 126.7170 C134.8170 91.7335 178.0425 74.5005 225.9057 73.1135 Z M246.9315 289.3425 C260.4325 295.4450 271.5325 304.7700 281.3075 315.8225 C286.6550 321.8675 291.3675 328.3825 296.2375 334.8025 C309.1625 351.8375 323.1300 369.1275 342.9325 378.3850 C351.2150 382.2550 360.4675 384.5575 369.4575 386.0375 C376.3875 387.1775 391.2100 387.6050 398.1700 386.6650 C402.1425 386.1275 406.3700 385.0125 410.1225 383.6000 C422.3725 378.9900 431.6800 369.5250 437.0300 357.6550 C453.2700 321.6125 445.2700 258.2200 431.4300 221.9653 C411.9500 170.5625 372.9625 128.9310 322.9450 106.1275 C292.1100 92.4173 258.2825 87.0813 224.6792 88.1070 C189.8305 90.5855 160.9872 98.1837 132.6118 119.3802 C126.1447 124.2108 119.5330 129.4362 114.2135 135.5310 C109.0117 141.4913 103.7437 147.5468 99.1768 154.0100 C78.6150 183.1085 69.4887 216.5350 66.9530 251.7000 C66.7688 254.2575 66.4043 256.7975 66.2527 259.3575 C66.0025 263.5900 66.1155 267.8575 66.1062 272.0975 C66.0963 276.6950 65.9727 281.3425 66.3012 285.9300 C66.9915 295.5725 67.5520 305.2825 68.7570 314.8750 C71.9883 340.5950 79.2620 367.9350 93.5887 389.7825 C97.2578 395.3775 101.6370 401.5525 106.7298 405.9150 C109.8760 408.6100 113.2375 411.3575 116.7357 413.5800 C128.4485 421.0250 143.0193 424.9800 156.8837 423.8300 C163.6280 423.2700 170.2238 420.7075 174.6413 415.4325 C184.7112 403.4025 184.4603 379.2800 185.0273 364.1925 C185.1605 360.6400 185.7408 357.1225 185.8788 353.5775 C186.0098 350.2100 185.8550 346.8325 186.0235 343.4700 C186.1862 340.2250 186.6020 336.9825 186.8975 333.7450 C188.9885 310.8500 195.4330 287.5500 222.4232 285.1050 C230.5610 284.3675 239.4880 286.0175 246.9315 289.3425 Z"></path>
<path id="" fill="#5f9656" fill-opacity="1.0" stroke="#000000" stroke-width="0.0" stroke-opacity="1.0" stroke-linecap="round" stroke-linejoin="round"  filling="0" d="M350.4650 278.0925 C367.3450 276.3575 387.2850 280.9625 400.7525 291.5075 C408.5650 297.6250 415.7575 306.1100 416.9825 316.2725 C417.7825 322.9100 415.9275 330.4300 411.7550 335.7225 C404.4550 344.9775 392.9575 349.4400 381.5125 350.7450 C378.7800 351.1050 375.9600 351.0775 373.2075 351.0650 C357.8325 351.0025 342.4100 346.3900 330.1175 336.9800 C322.0950 330.8400 315.7200 322.3425 314.4175 312.0950 C313.5400 305.1975 316.2925 297.6150 320.4900 292.2075 C327.2125 283.5475 339.9475 279.3750 350.4650 278.0925 Z M378.4125 335.9725 C385.4000 335.6400 394.1300 332.7800 398.9800 327.5150 C401.1450 325.1675 402.1800 322.3125 402.0150 319.1175 C401.7125 313.2575 397.2475 308.3375 393.0300 304.7125 C382.2900 295.4775 367.1125 292.0650 353.2075 293.0975 C346.4350 293.7325 336.8925 296.0475 332.2325 301.4675 C330.2425 303.7825 328.9750 307.1750 329.2250 310.2425 C329.6725 315.7150 334.2950 321.1700 338.3800 324.4775 C345.7350 330.4325 356.1925 334.5600 365.6050 335.6625 C369.8425 336.1575 374.1525 336.0300 378.4125 335.9725 Z"></path>
<path id="" fill="#a28359" fill-opacity="1.0" stroke="#000000" stroke-width="0.0" stroke-opacity="1.0" stroke-linecap="round" stroke-linejoin="round"  filling="0" d="M356.4950 177.0920 C363.3625 176.1760 372.3200 176.7397 378.1400 180.8208 C383.2750 184.4580 386.7350 190.0020 387.7500 196.2120 C389.1025 204.1013 384.5275 213.8095 380.0575 220.0457 C368.9475 235.5443 350.6925 246.4950 331.9350 249.5858 C331.4450 249.6775 330.9500 249.7538 330.4550 249.8147 C323.0375 250.7975 314.4975 249.5855 308.4625 244.8958 C303.9175 241.3615 300.7375 236.4453 300.0500 230.6707 C298.9525 221.4328 303.2800 212.0800 308.8925 204.9765 C320.2650 190.5813 338.1350 179.2603 356.4950 177.0920 Z M329.9725 234.6660 C334.0950 233.9397 337.9950 232.9478 341.8675 231.3398 C350.4250 227.7878 364.1400 218.8605 369.5125 211.1902 C372.0625 207.5502 373.8025 203.6840 373.0325 199.1155 C372.6600 196.8972 371.7650 194.9323 369.9025 193.5898 C366.7150 191.2943 361.5900 191.8205 357.8275 192.0955 C346.6100 193.3808 336.4350 199.5683 327.6575 206.3455 C324.5550 208.7413 321.5450 211.1715 319.0825 214.2502 C316.2975 217.7335 313.5825 222.0547 314.0675 226.7168 C314.3175 229.1020 315.5150 231.4380 317.4300 232.9080 C320.8025 235.4985 325.9825 235.0720 329.9725 234.6660 Z"></path>
<path id="" fill="#8c6c45" fill-opacity="1.0" stroke="#000000" stroke-width="0.0" stroke-opacity="1.0" stroke-linecap="round" stroke-linejoin="round"  filling="0" d="M128.0363 307.1150 C148.2892 305.1075 166.3255 319.9200 168.2935 340.1775 C170.2615 360.4325 155.4135 378.4425 135.1530 380.3700 C114.9475 382.2950 96.9998 367.4950 95.0370 347.2925 C93.0745 327.0925 107.8385 309.1150 128.0363 307.1150 Z M134.1842 366.0250 C146.4635 364.6250 155.2917 353.5500 153.9162 341.2675 C152.5405 328.9875 141.4803 320.1375 129.1962 321.4925 C116.8808 322.8475 108.0045 333.9425 109.3838 346.2550 C110.7630 358.5700 121.8737 367.4250 134.1842 366.0250 Z"></path>
<path id="" fill="#be3a37" fill-opacity="1.0" stroke="#000000" stroke-width="0.0" stroke-opacity="1.0" stroke-linecap="round" stroke-linejoin="round"  filling="0" d="M272.6650 116.0757 C278.3875 115.4685 285.5975 117.6815 290.2250 121.0307 C295.5575 124.8907 298.6050 131.5927 299.5950 137.9640 C301.3575 149.3265 298.5425 159.0972 293.5475 169.1873 C291.8725 172.5715 290.2050 175.8850 287.9625 178.9418 C283.3600 185.2182 277.1225 189.8265 269.3100 191.0290 C263.0125 191.4275 255.9150 189.9953 250.8125 186.0900 C245.1095 181.7253 242.2450 174.2300 241.3703 167.3210 C239.7018 154.1438 245.4933 138.4765 253.6125 128.1465 C258.5975 121.8050 264.4800 117.0775 272.6650 116.0757 Z M266.4625 175.9837 C269.9775 175.6882 272.9925 173.2010 275.2150 170.6000 C279.5425 165.5378 283.4425 157.1075 284.6200 150.5730 C285.1750 147.4922 285.1775 143.9668 284.8975 140.8590 C284.6425 138.0083 283.5525 134.8242 281.2525 132.9790 C279.7750 131.7932 277.2400 131.0018 275.3300 131.0683 C270.7450 131.8342 267.1500 134.8115 264.5225 138.5318 C259.0225 146.3273 254.6525 157.7360 256.4250 167.3717 C256.9225 170.0795 258.0350 172.9117 260.3600 174.5515 C262.3075 175.9265 264.1800 175.9798 266.4625 175.9837 Z"></path>
<path id="" fill="#4682af" fill-opacity="1.0" stroke="#000000" stroke-width="0.0" stroke-opacity="1.0" stroke-linecap="round" stroke-linejoin="round"  filling="0" d="M178.0660 132.0595 C184.1925 131.4095 190.4823 131.7798 195.8020 135.1355 C204.1718 140.4153 209.1380 149.1497 211.2675 158.6268 C213.7773 169.9775 211.7188 181.8598 205.5370 191.7047 C201.1187 198.6430 195.0425 202.7560 187.0582 204.5435 C180.8333 205.5672 173.9350 204.0680 168.7050 200.5282 C160.9760 195.2968 156.1470 186.4897 154.4010 177.4650 C152.2425 166.3075 154.0795 153.9585 160.6017 144.5013 C164.7493 138.4875 170.7332 133.3757 178.0660 132.0595 Z M184.1490 189.9408 C187.9200 189.4360 190.6865 188.3515 193.0793 185.2112 C196.9062 180.1882 197.0363 174.5175 197.0242 168.4837 C197.0190 165.7392 197.0295 162.9885 196.6550 160.2635 C196.0795 156.0770 194.4290 151.2100 190.8890 148.6220 C188.6192 146.9625 184.7175 145.9028 181.9010 146.3140 C177.6337 147.2027 174.1727 148.4433 171.6430 152.2787 C167.4852 158.5820 167.7612 170.8452 169.3537 177.8680 C170.3448 182.2390 172.5145 186.2863 176.4342 188.6800 C179.0262 190.2630 181.2628 190.0043 184.1490 189.9408 Z"></path>
</svg>