<svg xmlns="http://www.w3.org/2000/svg" viewBox="0 0 512 512" height="512.0px" width="512.0px">
<path id="" fill="#d3d873" fill-opacity="1.0" stroke="#000000" stroke-width="0.0" stroke-opacity="1.0" stroke-linecap="round" stroke-linejoin="round"  filling="0" d="M72.4635 280.0825 C73.1738 280.0200 73.8863 279.9850 74.5992 279.9800 C101.1738 279.5975 128.0425 279.9900 154.6515 279.9900 L316.1050 279.9900 L399.3850 279.9875 L424.9750 279.9700 C429.7425 279.9600 434.7325 279.6675 439.4775 280.1450 C444.8775 280.6875 449.8050 282.7200 453.7000 286.5675 C459.6175 292.4125 460.0300 299.5975 460.1000 307.4150 C460.1300 310.9575 460.8975 316.4875 458.1275 319.1375 C455.0425 322.0925 446.3750 321.0375 442.2550 320.9575 L407.2800 423.9025 C404.7575 431.2425 401.8950 439.3900 396.9425 445.4475 C391.0450 452.6650 381.9075 455.8350 372.8950 456.7225 C367.6725 457.2350 362.2825 457.0000 357.0350 457.0000 L331.9975 457.0000 L250.6375 456.9925 L176.7982 456.9950 L154.5755 457.0125 C149.4650 457.0175 144.2693 457.2075 139.1850 456.6325 C131.8277 455.8025 125.2420 453.5725 119.4880 448.8225 C115.9312 445.8875 112.7065 442.3450 110.7175 438.1475 C106.8525 429.9925 104.5307 420.8650 101.6140 412.3200 L83.7315 359.6525 C82.4197 355.7625 80.9090 351.9475 79.5845 348.0675 C78.4673 344.7950 77.5793 341.4475 76.4203 338.1900 C74.7852 333.5950 71.2783 325.4775 70.8400 320.8825 C66.9005 321.1775 57.5858 321.6975 54.4230 319.4925 C53.4402 318.8075 53.2105 317.4575 53.0732 316.3450 C52.7435 313.6750 52.9572 310.8325 52.9575 308.1425 C52.9588 301.0000 52.4955 294.5225 57.0683 288.5200 C60.5855 283.9050 66.7740 280.8225 72.4635 280.0825 Z"></path>
<path id="" fill="#b6e0f2" fill-opacity="1.0" stroke="#000000" stroke-width="0.0" stroke-opacity="1.0" stroke-linecap="round" stroke-linejoin="round"  filling="0" d="M199.2395 203.0883 C208.7560 202.1055 218.1250 204.9727 226.0610 210.1725 C228.3130 211.6483 230.2003 213.5180 232.1020 215.4065 C237.9922 221.2555 241.9852 227.1293 243.7287 235.3545 C254.6875 234.1647 262.7525 231.8155 272.6125 238.6853 C274.9750 240.3310 277.2025 243.2278 279.7550 244.3918 C282.4650 243.7670 286.8450 238.6613 289.9725 236.9673 C295.7800 233.8197 304.6950 232.9507 311.0125 234.8070 C316.8500 236.5222 325.0650 241.0115 328.0325 246.5360 C331.1700 244.9705 333.8350 242.6992 336.7700 240.8107 C343.4875 236.4875 351.8800 234.0092 359.8350 233.8780 C363.7525 233.8132 367.8300 233.7185 371.7150 234.2635 C381.3675 235.6178 390.8150 240.9902 397.7250 247.7357 C406.4275 256.2325 413.1250 267.5850 413.2825 280.0250 C404.2500 279.8025 395.1775 279.9775 386.1400 279.9775 L335.3750 279.9725 L98.9560 280.0100 C98.9467 277.3275 99.0667 274.8325 99.6365 272.2000 C102.2103 260.3150 111.5165 247.2935 121.7412 240.7760 C135.5473 231.9760 147.3795 232.7450 162.6523 236.1720 C163.6118 229.9677 166.2552 224.1633 170.0920 219.1947 C176.9223 210.3500 188.2450 204.5468 199.2395 203.0883 Z"></path>
<path id="" fill="#b6e0f2" fill-opacity="1.0" stroke="#000000" stroke-width="0.0" stroke-opacity="1.0" stroke-linecap="round" stroke-linejoin="round"  filling="0" d="M358.9500 56.5015 C385.1450 54.1260 408.3100 73.4272 410.7000 99.6212 C413.0900 125.8152 393.8025 148.9910 367.6100 151.3970 C341.3950 153.8050 318.1975 134.4978 315.8050 108.2823 C313.4125 82.0667 332.7325 58.8788 358.9500 56.5015 Z"></path>
<path id="" fill="#b6e0f2" fill-opacity="1.0" stroke="#000000" stroke-width="0.0" stroke-opacity="1.0" stroke-linecap="round" stroke-linejoin="round"  filling="0" d="M170.2198 84.5530 C193.8522 82.8485 214.3712 100.6722 215.9895 124.3110 C217.6078 147.9498 199.7090 168.4035 176.0645 169.9353 C152.5420 171.4590 132.2165 153.6727 130.6068 130.1557 C128.9970 106.6390 146.7088 86.2487 170.2198 84.5530 Z"></path>
<path id="" fill="#b6e0f2" fill-opacity="1.0" stroke="#000000" stroke-width="0.0" stroke-opacity="1.0" stroke-linecap="round" stroke-linejoin="round"  filling="0" d="M275.8025 163.8598 C288.0450 162.3228 299.2300 170.9580 300.8450 183.1908 C302.4575 195.4235 293.8925 206.6642 281.6700 208.3542 C269.3400 210.0590 257.9775 201.4012 256.3500 189.0600 C254.7225 176.7185 263.4500 165.4105 275.8025 163.8598 Z"></path>
<path id="" fill="#9dad2b" fill-opacity="1.0" stroke="#000000" stroke-width="0.0" stroke-opacity="1.0" stroke-linecap="round" stroke-linejoin="round"  filling="0" d="M159.2495 234.9348 C163.0230 223.0695 170.7513 213.3705 181.9225 207.6320 C192.0412 202.4340 205.8265 201.2773 216.6797 204.8130 C228.1660 208.5550 238.6048 217.6090 244.0063 228.4288 C244.9807 230.3520 245.7478 232.3735 246.2943 234.4592 C253.1525 231.6305 263.4050 232.9170 270.1125 235.6853 C273.1150 236.9100 275.9300 238.5505 278.4775 240.5587 C287.6325 233.9512 297.8825 231.8550 309.0075 233.6685 C316.7425 234.9435 323.8175 238.7990 329.0825 244.6075 C330.2375 243.3440 331.7925 242.4225 333.2100 241.4718 C340.9075 236.3005 349.8625 233.5350 359.1200 233.0867 C373.7725 232.2910 388.1225 237.4720 398.8875 247.4447 C406.2175 254.1775 414.3500 267.4275 414.8025 277.6575 C414.8225 277.9925 414.8250 278.3300 414.8125 278.6675 C418.0525 278.3500 421.4650 278.5050 424.7175 278.5025 C428.9850 278.5000 433.2800 278.4050 437.5400 278.5775 C444.3650 278.8500 451.0275 279.8050 455.8250 285.0925 C461.4475 291.2925 461.0775 299.5375 461.0700 307.3750 C461.0675 310.4350 461.2625 313.5350 461.0925 316.5900 C460.9650 318.8775 460.3950 321.3025 458.5600 322.8400 C455.4750 325.4225 447.3150 324.5125 443.5975 324.1325 C441.6775 331.3675 439.0325 338.5050 436.6650 345.6025 L424.4825 382.1575 L412.6700 417.6025 C410.3200 424.6500 408.1875 431.8650 405.3750 438.7450 C404.0800 441.9400 402.4025 444.9675 400.3775 447.7575 C394.9550 455.0925 386.5125 459.1475 377.6375 460.4275 C372.2900 461.1975 366.8750 461.0175 361.4875 461.0150 L340.6550 461.0000 L268.3475 461.0000 L180.5485 461.0050 L153.5625 461.0200 C147.8302 461.0225 141.9713 461.2600 136.2617 460.6875 C129.5058 460.0125 123.1373 457.8600 117.7005 453.7300 C113.3423 450.3525 109.8705 445.9675 107.5840 440.9500 C104.0952 433.4650 101.8125 424.7650 99.1908 416.8975 L84.3692 372.4225 L73.9390 341.1300 C72.2038 335.9425 69.5100 329.7750 68.7700 324.4125 C64.4095 324.1375 56.0818 325.6825 52.8365 322.3300 C50.1138 319.5150 50.8947 306.5750 50.9930 302.2625 C51.1463 295.5350 53.1925 289.5600 58.1740 284.8625 C65.1000 278.3325 73.4377 278.5025 82.3853 278.5025 C87.2533 278.4825 92.1210 278.5300 96.9877 278.6425 C96.7680 267.4700 102.8282 255.9000 110.3830 247.9892 C119.4365 238.5670 131.8995 233.1828 144.9657 233.0488 C149.8237 232.9783 154.5695 233.6662 159.2495 234.9348 Z M399.1400 278.7225 C397.9700 270.5950 392.0475 261.7150 385.5525 256.8225 C376.3425 249.8840 367.1325 247.6475 355.6675 249.2863 C350.6900 249.9980 345.5400 251.9300 341.3875 254.7800 C336.4725 258.1575 330.6750 268.1375 323.7400 262.8500 C321.4175 261.0825 319.8950 258.3325 318.1675 256.0225 C313.3825 249.6198 305.4400 248.1853 297.9100 249.0502 C294.2500 249.4710 290.9450 250.8625 288.0125 253.0925 C283.0775 256.8475 280.3675 262.2850 273.7775 257.0900 C272.0800 255.7525 270.6000 254.1525 268.9000 252.8175 C264.3925 249.2765 259.0650 248.3950 253.4875 249.0123 C251.8775 249.1817 250.2950 249.5355 248.7677 250.0675 C245.6243 251.1925 239.7840 254.8125 236.6780 252.3575 C230.7605 247.6808 233.9738 234.4052 223.8403 225.2863 C221.0428 222.7688 218.1640 221.0820 214.5655 219.9622 C209.8645 218.4707 204.9138 217.9297 200.0018 218.3707 C192.4073 219.0907 184.5595 221.2993 179.5355 227.4150 C176.5343 231.0683 174.6532 235.8085 173.7025 240.4073 C172.6562 245.4680 174.2077 252.3450 166.9948 253.0375 C161.7065 253.5450 159.4388 251.0500 154.6615 249.7422 C151.8390 248.9702 149.0085 248.8313 146.0935 248.8495 C136.0980 248.9117 127.0235 252.6825 120.4268 260.3500 C117.0160 264.3125 114.2670 269.6225 113.2055 274.7550 C112.9258 276.1075 112.9475 277.4875 112.6892 278.8325 C118.1645 279.2200 123.8337 278.9525 129.3265 278.9525 L160.3950 278.9475 L257.1900 278.9475 L351.0575 278.9475 L380.8250 278.9600 C386.9050 278.9625 393.0775 279.1800 399.1400 278.7225 Z M397.1225 414.8175 L416.7825 355.9025 L423.4375 335.9600 C424.7425 332.0500 426.2125 328.1125 427.2325 324.1175 C403.7050 323.7275 380.1250 324.0200 356.5925 324.0175 L227.1243 324.0150 L134.5587 324.0175 L103.8683 324.0225 C97.6865 324.0225 91.4772 323.9175 85.2990 324.1400 C84.9800 324.6075 84.9415 324.4700 85.0553 325.0925 C85.7825 329.0725 88.1762 334.7600 89.5150 338.7325 L99.2842 367.9900 L113.7715 411.4550 C116.0837 418.3950 118.5415 427.6775 121.6598 434.0400 C123.2787 437.3425 126.2085 440.2975 129.2323 442.3550 C131.7585 444.0725 134.7513 444.8100 137.7672 444.9500 C144.1868 445.2525 150.7030 445.0275 157.1310 445.0175 L191.7193 445.0025 L299.8325 445.0050 L353.7250 445.0075 L368.1925 445.0100 C370.8800 445.0075 373.9275 445.2500 376.5675 444.7500 C381.6650 443.7825 385.9475 440.8050 388.7950 436.4950 C392.7500 430.5025 394.8775 421.6825 397.1225 414.8175 Z M67.0210 309.0125 C101.6840 308.6125 136.3890 308.9500 171.0558 308.9525 L436.9225 308.9400 C439.6375 308.9350 442.4650 308.7875 445.1700 308.9750 C444.9350 305.3375 445.0025 301.6825 445.0100 298.0400 C444.0625 296.3475 442.6550 294.9750 440.7400 294.4500 C437.0675 293.4400 432.1675 293.9975 428.3450 294.0025 L410.5025 294.0325 L343.4225 294.0225 L165.7292 294.0225 L107.0015 294.0225 C96.6150 294.0225 86.1505 293.7325 75.7770 294.0950 C73.1355 294.3050 70.3355 294.6050 68.4922 296.7675 C66.1387 299.5275 67.0612 305.5625 67.0210 309.0125 Z"></path>
<path id="" fill="#64a1ae" fill-opacity="1.0" stroke="#000000" stroke-width="0.0" stroke-opacity="1.0" stroke-linecap="round" stroke-linejoin="round"  filling="0" d="M159.2495 234.9348 C163.0230 223.0695 170.7513 213.3705 181.9225 207.6320 C192.0412 202.4340 205.8265 201.2773 216.6797 204.8130 C228.1660 208.5550 238.6048 217.6090 244.0063 228.4288 C244.9807 230.3520 245.7478 232.3735 246.2943 234.4592 C253.1525 231.6305 263.4050 232.9170 270.1125 235.6853 C273.1150 236.9100 275.9300 238.5505 278.4775 240.5587 C287.6325 233.9512 297.8825 231.8550 309.0075 233.6685 C316.7425 234.9435 323.8175 238.7990 329.0825 244.6075 C330.2375 243.3440 331.7925 242.4225 333.2100 241.4718 C340.9075 236.3005 349.8625 233.5350 359.1200 233.0867 C373.7725 232.2910 388.1225 237.4720 398.8875 247.4447 C406.2175 254.1775 414.3500 267.4275 414.8025 277.6575 C414.8225 277.9925 414.8250 278.3300 414.8125 278.6675 C409.6925 278.9500 404.2650 278.9375 399.1400 278.7225 C397.9700 270.5950 392.0475 261.7150 385.5525 256.8225 C376.3425 249.8840 367.1325 247.6475 355.6675 249.2863 C350.6900 249.9980 345.5400 251.9300 341.3875 254.7800 C336.4725 258.1575 330.6750 268.1375 323.7400 262.8500 C321.4175 261.0825 319.8950 258.3325 318.1675 256.0225 C313.3825 249.6198 305.4400 248.1853 297.9100 249.0502 C294.2500 249.4710 290.9450 250.8625 288.0125 253.0925 C283.0775 256.8475 280.3675 262.2850 273.7775 257.0900 C272.0800 255.7525 270.6000 254.1525 268.9000 252.8175 C264.3925 249.2765 259.0650 248.3950 253.4875 249.0123 C251.8775 249.1817 250.2950 249.5355 248.7677 250.0675 C245.6243 251.1925 239.7840 254.8125 236.6780 252.3575 C230.7605 247.6808 233.9738 234.4052 223.8403 225.2863 C221.0428 222.7688 218.1640 221.0820 214.5655 219.9622 C209.8645 218.4707 204.9138 217.9297 200.0018 218.3707 C192.4073 219.0907 184.5595 221.2993 179.5355 227.4150 C176.5343 231.0683 174.6532 235.8085 173.7025 240.4073 C172.6562 245.4680 174.2077 252.3450 166.9948 253.0375 C161.7065 253.5450 159.4388 251.0500 154.6615 249.7422 C151.8390 248.9702 149.0085 248.8313 146.0935 248.8495 C136.0980 248.9117 127.0235 252.6825 120.4268 260.3500 C117.0160 264.3125 114.2670 269.6225 113.2055 274.7550 C112.9258 276.1075 112.9475 277.4875 112.6892 278.8325 C107.4662 278.5875 102.1980 278.9925 96.9877 278.6425 C96.7680 267.4700 102.8282 255.9000 110.3830 247.9892 C119.4365 238.5670 131.8995 233.1828 144.9657 233.0488 C149.8237 232.9783 154.5695 233.6662 159.2495 234.9348 Z"></path>
<path id="" fill="#64a1af" fill-opacity="1.0" stroke="#000000" stroke-width="0.0" stroke-opacity="1.0" stroke-linecap="round" stroke-linejoin="round"  filling="0" d="M358.0725 51.0675 C387.4550 48.7747 413.1350 70.7337 415.4300 100.1160 C417.7250 129.4985 395.7675 155.1788 366.3850 157.4765 C337.0000 159.7742 311.3150 137.8143 309.0200 108.4285 C306.7250 79.0428 328.6875 53.3607 358.0725 51.0675 Z M364.3750 141.8768 C384.9950 140.7153 400.8300 123.1562 399.8625 102.5253 C398.8925 81.8943 381.4825 65.8955 360.8450 66.6705 C339.9300 67.4555 323.6700 85.1487 324.6525 106.0550 C325.6325 126.9615 343.4775 143.0540 364.3750 141.8768 Z"></path>
<path id="" fill="#fefefe" fill-opacity="1.0" stroke="#000000" stroke-width="0.0" stroke-opacity="1.0" stroke-linecap="round" stroke-linejoin="round"  filling="0" d="M344.9250 96.8293 C346.5550 96.7708 348.1675 96.6480 349.7550 97.1053 C355.8450 98.8572 353.3125 105.0890 355.8725 109.1633 C357.8925 112.3830 361.4675 111.4040 364.5800 112.1283 C366.4550 112.5642 367.9275 113.8735 368.8725 115.5155 C369.9500 117.3828 370.3400 119.5320 369.7000 121.6137 C368.9525 124.0550 367.1025 125.4778 364.9375 126.6302 C363.4775 126.9825 362.1325 127.0997 360.6325 127.0713 C354.7300 126.9593 348.6275 124.8830 344.5300 120.5040 C339.3650 114.9822 339.7925 107.9362 340.0100 100.8763 C341.3300 98.8660 342.5075 97.4157 344.9250 96.8293 Z"></path>
<path id="" fill="#64a1af" fill-opacity="1.0" stroke="#000000" stroke-width="0.0" stroke-opacity="1.0" stroke-linecap="round" stroke-linejoin="round"  filling="0" d="M169.5318 81.3460 C194.8145 79.6533 216.6645 98.8170 218.2838 124.1048 C219.9028 149.3922 200.6752 171.1862 175.3830 172.7318 C150.1950 174.2708 128.5100 155.1395 126.8978 129.9560 C125.2852 104.7725 144.3530 83.0320 169.5318 81.3460 Z M177.3125 156.9515 C184.9280 156.1725 191.6017 153.8355 196.5575 147.7462 C202.0735 140.9685 203.4198 130.8797 202.5067 122.4345 C201.6983 114.9575 199.2782 107.7632 193.2340 102.9110 C186.5940 97.5805 177.7465 96.5478 169.5145 97.0935 C169.4830 97.0955 169.4518 97.1010 169.4203 97.1048 C161.7900 97.7307 153.9397 99.8763 148.7755 105.8878 C142.3435 113.3750 142.4230 124.5447 143.1655 133.8542 C143.6780 140.2775 146.3125 146.4320 151.2685 150.6610 C158.6647 156.9720 168.0455 157.1752 177.3125 156.9515 Z"></path>
<path id="" fill="#fefefe" fill-opacity="1.0" stroke="#000000" stroke-width="0.0" stroke-opacity="1.0" stroke-linecap="round" stroke-linejoin="round"  filling="0" d="M163.3375 119.8115 C165.4660 119.7483 167.8033 119.6970 169.7125 120.7930 C171.8027 121.9928 171.8418 124.1053 172.4462 126.1955 C173.2675 127.0242 175.1017 127.1022 176.2305 127.5107 C177.6985 128.0423 178.9093 129.5155 179.5510 130.8995 C180.5075 132.9620 180.5067 135.6455 179.6410 137.7375 C178.7253 139.9503 177.3033 141.0465 175.1398 141.9260 C171.2018 142.2875 167.2538 142.2137 163.7215 140.1882 C161.0120 138.6703 159.0513 136.0990 158.3042 133.0845 C157.5415 130.0737 157.2075 124.9792 158.9520 122.3180 C160.0742 120.6057 161.4223 120.2080 163.3375 119.8115 Z"></path>
<path id="" fill="#64a1af" fill-opacity="1.0" stroke="#000000" stroke-width="0.0" stroke-opacity="1.0" stroke-linecap="round" stroke-linejoin="round"  filling="0" d="M276.6650 156.3185 C294.0350 155.1555 309.0450 168.3197 310.1575 185.6915 C311.2725 203.0635 298.0650 218.0370 280.6900 219.1017 C263.3850 220.1622 248.4845 207.0200 247.3750 189.7173 C246.2655 172.4147 259.3650 157.4770 276.6650 156.3185 Z M282.0175 202.6800 C290.2900 200.8905 295.5350 192.7195 293.7175 184.4520 C291.9000 176.1842 283.7125 170.9662 275.4525 172.8112 C267.2300 174.6475 262.0400 182.7888 263.8500 191.0172 C265.6575 199.2457 273.7825 204.4610 282.0175 202.6800 Z"></path>
</svg>