<svg xmlns="http://www.w3.org/2000/svg" viewBox="0 0 512 512" height="512.0px" width="512.0px">
<path id="" fill="#f9e1dc" fill-opacity="1.0" stroke="#000000" stroke-width="0.0" stroke-opacity="1.0" stroke-linecap="round" stroke-linejoin="round"  filling="0" d="M248.1740 165.1017 C251.1200 164.6315 254.5375 164.9310 257.5400 164.9258 C278.7800 164.8893 296.9750 170.5992 315.5225 180.5957 C320.0100 183.0155 324.0875 186.1837 328.1200 189.2810 C336.5550 195.7545 343.3325 202.2672 349.9275 210.6255 C351.6175 212.7657 353.3850 214.8938 354.8750 217.1772 C357.0025 220.4410 358.8050 223.9642 360.6450 227.3965 C363.9925 233.6440 366.8500 239.8683 369.1275 246.5890 C370.2975 250.0450 371.4125 253.5800 372.1550 257.1550 C372.7775 260.1600 373.0350 263.3100 373.9450 266.2400 C373.9775 266.3425 374.0100 266.4425 374.0425 266.5425 C374.9450 266.7000 375.7650 266.9450 376.6150 267.2925 C384.8725 270.6750 391.9750 278.3000 395.2425 286.5400 C398.7625 295.4275 398.3950 304.8425 394.5625 313.5950 C391.0550 321.6075 383.8800 328.1850 375.8950 331.5550 C372.9800 332.7850 369.8775 333.5175 366.9275 334.6600 C364.5075 338.0025 363.4525 342.0250 361.6275 345.6850 C358.8350 351.2850 354.4125 357.6750 350.5675 362.6025 C347.3775 366.6950 344.0775 370.9750 340.4925 374.7175 C323.6775 391.9575 302.0800 403.7575 278.4900 408.5950 C272.6850 409.7625 266.6775 409.9700 260.8075 410.6975 C256.0175 411.4150 251.0900 410.5925 246.3288 410.0075 C225.8225 407.4850 207.4948 401.0725 190.4462 389.2400 C187.2812 387.0450 184.3225 384.3700 181.4385 381.8150 C170.7100 372.3150 163.0800 363.0800 155.5145 350.9275 C152.3570 345.8575 148.8123 339.9400 147.7303 333.9825 C141.3955 334.2525 135.8212 333.5250 130.1252 330.5575 C121.3950 326.0125 115.3070 318.5725 112.4147 309.1600 C109.5527 299.8475 111.2603 290.6075 115.8173 282.1725 C121.1230 272.3500 130.4843 267.5050 140.7467 264.4325 C142.4660 259.6625 142.9442 254.2850 144.3873 249.3763 C149.3190 232.6005 157.2052 219.1573 168.3772 205.7650 C173.6725 199.4175 179.3958 194.4065 185.9590 189.4355 C203.9483 175.5497 225.5375 167.1055 248.1740 165.1017 Z"></path>
<path id="" fill="#dddddd" fill-opacity="1.0" stroke="#000000" stroke-width="0.0" stroke-opacity="1.0" stroke-linecap="round" stroke-linejoin="round"  filling="0" d="M164.0997 177.4910 C168.5078 170.8060 177.3360 163.4138 183.1122 157.3535 C185.4520 154.8990 187.4848 152.1720 189.8347 149.7330 L245.0210 93.4962 C248.5907 89.9235 259.1800 78.3832 262.8750 76.6028 C265.9450 77.8142 268.6400 80.4877 270.9800 82.7462 C273.8925 85.5602 276.2325 88.9518 279.0875 91.8297 C281.7400 94.5033 284.6025 96.9930 287.2850 99.6487 L313.8625 126.4890 C316.2600 128.9510 318.3250 131.7050 320.6825 134.1990 L346.0500 160.5615 C348.8950 163.5202 360.9350 174.7292 362.1975 177.3728 C362.2300 177.4375 362.2525 177.5060 362.2775 177.5725 C362.5200 177.7675 362.7075 177.8725 363.0225 177.9040 C366.9700 178.3002 371.3275 177.9557 375.3125 177.9552 L401.0950 177.9465 C400.8075 190.0842 401.0600 202.2905 401.0775 214.4350 C401.0825 219.0555 401.7000 228.1185 400.5850 232.1508 C399.1925 233.6460 390.0075 233.0105 387.5325 233.0130 C379.3450 233.0213 371.0650 233.2820 362.8875 232.9705 C360.0525 232.8625 357.2375 232.3112 354.4075 232.0997 C351.5125 231.8835 348.5275 232.0117 345.6175 232.0085 L209.5915 232.5195 C207.0845 232.5050 204.5768 232.0027 202.0522 231.9648 C199.3305 231.9235 196.6495 232.5692 193.9645 232.5375 C191.7370 232.5110 189.5070 232.1228 187.2730 232.0547 C181.5392 231.8802 175.7648 231.9995 170.0273 231.9945 C165.0078 231.9902 159.0733 231.4190 154.1738 232.4872 C152.9450 232.7552 151.6700 233.5860 150.5663 234.1853 C149.8922 233.8262 149.1825 233.4232 148.4277 233.2697 C145.5067 232.6763 142.0660 232.9905 139.0838 232.9940 L123.0147 233.0315 C122.6820 214.6965 122.9745 196.3087 122.9952 177.9670 C129.8158 177.5643 160.5887 178.8205 164.0997 177.4910 Z"></path>
<path id="" fill="#e95b48" fill-opacity="1.0" stroke="#000000" stroke-width="0.0" stroke-opacity="1.0" stroke-linecap="round" stroke-linejoin="round"  filling="0" d="M164.0997 177.4910 C168.5078 170.8060 177.3360 163.4138 183.1122 157.3535 C185.4520 154.8990 187.4848 152.1720 189.8347 149.7330 L245.0210 93.4962 C248.5907 89.9235 259.1800 78.3832 262.8750 76.6028 C265.9450 77.8142 268.6400 80.4877 270.9800 82.7462 C273.8925 85.5602 276.2325 88.9518 279.0875 91.8297 C281.7400 94.5033 284.6025 96.9930 287.2850 99.6487 L313.8625 126.4890 C316.2600 128.9510 318.3250 131.7050 320.6825 134.1990 L346.0500 160.5615 C348.8950 163.5202 360.9350 174.7292 362.1975 177.3728 C362.2300 177.4375 362.2525 177.5060 362.2775 177.5725 C358.3550 177.8887 354.1475 177.5117 350.1850 177.4900 L326.4575 177.4917 L246.9747 177.4815 L188.7530 177.4950 C183.8530 177.4705 178.9527 177.4810 174.0530 177.5262 C170.8205 177.5680 167.3005 177.9028 164.0997 177.4910 Z"></path>
<path id="" fill="#dddddd" fill-opacity="1.0" stroke="#000000" stroke-width="0.0" stroke-opacity="1.0" stroke-linecap="round" stroke-linejoin="round"  filling="0" d="M262.3575 293.5400 C308.4350 291.6300 347.3775 327.3500 349.4450 373.4200 C351.5125 419.4900 315.9275 458.5550 269.8650 460.7825 C223.5762 463.0200 184.2787 427.2225 182.2010 380.9275 C180.1230 334.6325 216.0555 295.4575 262.3575 293.5400 Z"></path>
<path id="" fill="#dddddd" fill-opacity="1.0" stroke="#000000" stroke-width="0.0" stroke-opacity="1.0" stroke-linecap="round" stroke-linejoin="round"  filling="0" d="M259.9300 51.0708 C264.5875 50.5827 269.2525 51.2350 273.5350 53.1670 C280.7200 56.4085 285.7675 61.7500 288.5250 69.1345 C292.3250 79.3070 288.9350 85.7137 284.8275 94.8105 C284.3350 95.9035 284.3550 96.2690 284.7575 97.3392 L284.5600 97.6497 C280.3575 98.5797 279.0800 100.0992 275.4675 102.0620 C272.7575 103.5340 269.8500 104.3370 266.8125 104.7672 C255.1425 105.3815 254.7950 103.9832 245.0907 98.5130 C244.0267 97.9133 242.1940 98.3288 241.4200 97.6817 C241.4612 97.4150 241.4913 97.1460 241.5477 96.8820 C241.6653 96.3315 241.7630 96.0860 241.6297 95.5100 C241.3898 94.4725 240.5378 93.3138 240.0697 92.3402 C238.5128 89.1020 236.9158 85.8205 236.3387 82.2437 C235.1600 75.3130 236.8540 68.2012 241.0302 62.5462 C245.6678 56.1638 252.2050 52.3265 259.9300 51.0708 Z"></path>
<path id="" fill="#e85b48" fill-opacity="1.0" stroke="#000000" stroke-width="0.0" stroke-opacity="1.0" stroke-linecap="round" stroke-linejoin="round"  filling="0" d="M261.8300 282.9575 C276.6050 280.6975 290.4100 290.8625 292.6400 305.6425 C294.8700 320.4225 284.6775 334.2050 269.8950 336.4050 C255.1500 338.6000 241.4150 328.4450 239.1913 313.7050 C236.9675 298.9675 247.0957 285.2100 261.8300 282.9575 Z"></path>
</svg>